# Blender 4.1.1
# www.blender.org
mtllib AlarmClockHandHour_15_AlarmClockHandHour_15_2.mtl
o AlarmClockHandHour_15
v 0.001916 -0.053792 0.000064
v -0.001916 -0.053792 -0.001451
v -0.010427 -0.053792 0.031294
v -0.014259 -0.053792 0.029780
v -0.010427 -0.053419 0.031294
v -0.014259 -0.053419 0.029780
v 0.001916 -0.053419 0.000064
v -0.001916 -0.053419 -0.001451
vn -0.0000 1.0000 -0.0000
vn 0.3672 -0.0000 -0.9301
vn -0.0000 -1.0000 -0.0000
vn -0.3668 -0.0000 0.9303
vn 0.9298 -0.0000 0.3680
vn -0.9298 -0.0000 -0.3681
vt 0.375000 0.000000
vt 0.625000 0.000000
vt 0.625000 0.250000
vt 0.375000 0.250000
vt 0.625000 0.500000
vt 0.375000 0.500000
vt 0.625000 0.750000
vt 0.375000 0.750000
vt 0.625000 1.000000
vt 0.375000 1.000000
vt 0.875000 0.000000
vt 0.875000 0.250000
vt 0.125000 0.000000
vt 0.125000 0.250000
s 1
usemtl M_AlarmClockHandHour_15_0
f 1/1/1 2/2/1 4/3/1 3/4/1
f 3/4/2 4/3/2 6/5/2 5/6/2
f 5/6/3 6/5/3 8/7/3 7/8/3
f 7/8/4 8/7/4 2/9/4 1/10/4
f 2/2/5 8/11/5 6/12/5 4/3/5
f 7/13/6 1/1/6 3/4/6 5/14/6
