# Blender 4.1.1
# www.blender.org
mtllib AlarmClockButton_15_AlarmClockButton_15_1_GeomSubset_0.mtl
o AlarmClockButton_15_AlarmClockButton_15_1_GeomSubset_0
v 0.000500 -0.000501 -0.341191
v -0.000500 -0.000501 -0.341191
v 0.000500 0.000500 -0.341191
v -0.000500 0.000500 -0.341191
v 0.000500 -0.000501 -0.341191
v -0.000500 -0.000501 -0.341191
v 0.000500 0.000500 -0.341191
v -0.000500 0.000500 -0.341191
v 0.000500 -0.000501 -0.341191
v -0.000500 -0.000501 -0.341191
v 0.000500 0.000500 -0.341191
v -0.000500 0.000500 -0.341191
v 0.000500 -0.000501 -0.341191
v -0.000500 -0.000501 -0.341191
v 0.000500 0.000500 -0.341191
v -0.000500 0.000500 -0.341191
v 0.000500 -0.000501 -0.341191
v -0.000500 -0.000501 -0.341191
v 0.000500 0.000500 -0.341191
v -0.000500 0.000500 -0.341191
v 0.052265 -0.034118 0.080539
v 0.049652 -0.035769 0.080539
v 0.049652 -0.034118 0.082368
v -0.049652 -0.034118 0.082368
v -0.049652 -0.035769 0.080539
v -0.052265 -0.034118 0.080539
v 0.052265 0.033954 0.080539
v 0.049652 0.033954 0.082368
v 0.049652 0.035605 0.080539
v -0.049652 0.035605 0.080539
v -0.049652 0.033954 0.082368
v -0.052265 0.033954 0.080539
v 0.049652 -0.035769 0.073029
v 0.052265 -0.034118 0.073029
v -0.052265 -0.034118 0.073029
v -0.049652 -0.035769 0.073029
v 0.052265 0.033954 0.073029
v 0.049652 0.035605 0.073029
v -0.049652 0.035605 0.073029
v -0.052265 0.033954 0.073029
v 0.033101 0.035605 0.073029
v 0.033101 0.035605 0.085780
v 0.033101 0.033954 0.087609
v 0.033101 -0.034118 0.087609
v 0.033101 -0.035769 0.085780
v 0.033101 -0.035769 0.073029
v 0.016551 0.035605 0.073029
v 0.016551 0.035605 0.088988
v 0.016551 0.033954 0.090817
v 0.016551 -0.034118 0.090817
v 0.016551 -0.035769 0.088988
v 0.016551 -0.035769 0.073029
v 0.000000 0.035605 0.073029
v 0.000000 0.035605 0.090193
v 0.000000 0.033954 0.092022
v 0.000000 -0.034118 0.092022
v 0.000000 -0.035769 0.090193
v 0.000000 -0.035769 0.073029
v -0.016551 0.035605 0.073029
v -0.016551 0.035605 0.088988
v -0.016551 0.033954 0.090817
v -0.016551 -0.034118 0.090817
v -0.016551 -0.035769 0.088988
v -0.016551 -0.035769 0.073029
v -0.033101 0.035605 0.073029
v -0.033101 0.035605 0.085780
v -0.033101 0.033954 0.087609
v -0.033101 -0.034118 0.087609
v -0.033101 -0.035769 0.085780
v -0.033101 -0.035769 0.073029
vn -0.0000 -0.0000 -1.0000
vt -20.436859 -6.067932
vt -19.441450 -6.067932
vt -19.441450 -5.071917
vt -20.436859 -5.071917
s 1
usemtl M_AlarmClockButton_15_0
f 1/1/1 2/2/1 4/3/1 3/4/1
