# Blender 4.1.0
# www.blender.org
mtllib DrawermeshSideTableDrawer_228_2_1_GeomSubset_0.mtl
o DrawermeshSideTableDrawer_228_2_1_GeomSubset_0
v -0.143226 -0.231795 0.195954
v -0.133546 -0.231795 0.191993
v -0.133546 -0.228759 0.191993
v -0.143226 -0.228759 0.195954
v -0.147236 -0.231795 0.205515
v -0.147236 -0.228759 0.205515
v -0.143226 -0.231795 0.215077
v -0.143226 -0.228759 0.215077
v -0.133546 -0.231795 0.219037
v -0.133546 -0.228759 0.219037
v -0.123867 -0.231795 0.215077
v -0.123867 -0.228759 0.215077
v -0.119858 -0.231795 0.205515
v -0.119858 -0.228759 0.205515
v -0.138558 -0.228759 0.210466
v -0.140635 -0.228759 0.205515
v -0.123867 -0.231795 0.195954
v -0.123867 -0.228759 0.195954
v -0.125454 -0.233844 0.197521
v -0.133546 -0.233842 0.194210
v -0.122101 -0.233844 0.205515
v -0.125454 -0.233844 0.213509
v -0.133546 -0.233844 0.216821
v -0.141639 -0.233844 0.213509
v -0.144992 -0.233844 0.205515
v -0.141639 -0.233844 0.197521
v -0.133546 -0.228759 0.198514
v -0.128534 -0.228759 0.200564
v -0.138558 -0.228759 0.200564
v -0.138558 -0.221057 0.200564
v -0.133546 -0.221057 0.198514
v -0.140635 -0.221057 0.205515
v -0.138558 -0.221057 0.210466
v -0.133546 -0.221057 0.212517
v -0.133546 -0.228759 0.212517
v -0.128534 -0.228759 0.210466
v -0.126458 -0.228759 0.205515
v -0.128534 -0.221057 0.210466
v -0.128534 -0.221057 0.200564
v -0.126458 -0.221057 0.205515
v 0.125957 -0.231742 0.195954
v 0.135637 -0.231742 0.191993
v 0.135637 -0.228707 0.191993
v 0.125957 -0.228707 0.195954
v 0.121947 -0.231742 0.205515
v 0.121947 -0.228707 0.205515
v 0.125957 -0.231742 0.215077
v 0.125957 -0.228707 0.215077
v 0.135637 -0.231742 0.219037
v 0.135637 -0.228707 0.219037
v 0.145316 -0.231742 0.215077
v 0.145316 -0.228707 0.215077
v 0.149326 -0.231742 0.205515
v 0.149326 -0.228707 0.205515
v 0.130624 -0.228705 0.210466
v 0.128549 -0.228707 0.205515
v 0.145316 -0.231742 0.195954
v 0.145316 -0.228707 0.195954
v 0.143729 -0.233790 0.197521
v 0.135637 -0.233790 0.194210
v 0.147082 -0.233790 0.205515
v 0.143729 -0.233790 0.213509
v 0.135637 -0.233790 0.216821
v 0.127544 -0.233790 0.213509
v 0.124191 -0.233790 0.205515
v 0.127544 -0.233790 0.197521
v 0.135637 -0.228707 0.198514
v 0.140649 -0.228705 0.200564
v 0.130624 -0.228705 0.200564
v 0.130624 -0.221003 0.200564
v 0.135637 -0.221003 0.198514
v 0.128549 -0.221003 0.205515
v 0.130624 -0.221003 0.210466
v 0.135637 -0.221003 0.212517
v 0.135637 -0.228705 0.212517
v 0.140649 -0.228705 0.210466
v 0.142724 -0.228707 0.205515
v 0.140649 -0.221003 0.210466
v 0.140649 -0.221003 0.200564
v 0.142724 -0.221003 0.205515
v -0.000013 -0.226981 0.150402
v -0.000013 -0.001006 0.150402
v -0.247972 -0.001006 0.150402
v -0.247972 -0.211379 0.150402
v 0.247946 -0.211379 0.150402
v 0.247946 -0.001006 0.150402
v 0.247946 -0.211381 0.241274
v 0.247946 -0.001006 0.241274
v -0.000013 -0.232411 0.253136
v -0.000013 -0.232411 0.138540
v -0.255650 -0.216325 0.138540
v -0.255650 -0.216327 0.253136
v 0.255624 -0.216327 0.253136
v 0.255624 -0.216325 0.138540
v -0.255512 -0.210906 0.138540
v -0.000013 -0.226981 0.138540
v 0.255486 -0.210906 0.138540
v 0.255486 -0.210906 0.253136
v -0.255512 -0.210906 0.253136
v -0.000013 -0.226985 0.253136
v -0.000013 -0.226981 0.241274
v -0.247972 -0.211381 0.241274
v -0.000013 -0.001006 0.241274
v -0.247972 -0.001006 0.241274
v 0.241192 -0.011622 0.241274
v 0.241192 -0.011622 0.162953
v 0.006741 -0.011622 0.162953
v 0.006741 -0.011622 0.241274
v 0.006741 -0.215930 0.162953
v 0.006741 -0.215930 0.241274
v 0.241192 -0.201178 0.241274
v -0.006768 -0.011622 0.241274
v -0.241218 -0.011622 0.241274
v -0.241218 -0.201178 0.241274
v -0.006768 -0.215930 0.241274
v -0.241218 -0.201178 0.162953
v -0.241218 -0.011622 0.162953
v -0.006768 -0.011622 0.162953
v -0.006768 -0.215930 0.162953
v 0.241192 -0.201178 0.162953
vn -0.7136 -0.3463 -0.6090
vn -0.0000 0.6546 -0.7560
vn 0.0001 -0.3790 -0.9254
vn -0.6208 0.5571 -0.5516
vn -0.9558 -0.2942 0.0001
vn -0.9017 0.4323 -0.0001
vn -0.7135 -0.3462 0.6091
vn -0.6207 0.5571 0.5516
vn -0.0000 -0.3793 0.9253
vn -0.0000 0.6546 0.7560
vn 0.7136 -0.3462 0.6091
vn 0.6208 0.5571 0.5516
vn 0.9558 -0.2941 -0.0000
vn 0.9017 0.4323 -0.0000
vn -0.5080 0.7336 0.4515
vn -0.6915 0.7224 -0.0000
vn 0.7136 -0.3462 -0.6090
vn 0.6207 0.5571 -0.5516
vn 0.2994 -0.8952 -0.3301
vn -0.0001 -0.9107 -0.4132
vn 0.4996 -0.8662 0.0001
vn 0.2994 -0.8951 0.3302
vn -0.0000 -0.9106 0.4132
vn -0.2994 -0.8952 0.3299
vn -0.4996 -0.8662 -0.0000
vn -0.2995 -0.8952 -0.3299
vn -0.0000 0.7684 -0.6399
vn 0.5080 0.7335 -0.4515
vn -0.5080 0.7336 -0.4514
vn -0.7475 -0.0000 -0.6643
vn -0.0000 -0.0000 -1.0000
vn -1.0000 -0.0000 -0.0000
vn -0.7475 -0.0000 0.6642
vn -0.0000 -0.0000 1.0000
vn -0.0000 0.7684 0.6399
vn 0.5080 0.7336 0.4515
vn 0.6915 0.7224 -0.0000
vn 0.7475 -0.0000 0.6643
vn 0.7475 -0.0000 -0.6643
vn 1.0000 -0.0000 -0.0000
vn -0.7136 -0.3461 -0.6091
vn -0.0000 0.6545 -0.7561
vn -0.0000 -0.3791 -0.9253
vn -0.9558 -0.2941 -0.0000
vn -0.9017 0.4323 -0.0000
vn -0.7136 -0.3462 0.6090
vn -0.6208 0.5570 0.5517
vn -0.0000 -0.3790 0.9254
vn -0.0000 0.6544 0.7562
vn 0.7136 -0.3462 0.6090
vn 0.9558 -0.2941 -0.0001
vn 0.9018 0.4322 -0.0000
vn -0.6915 0.7224 -0.0001
vn 0.7136 -0.3461 -0.6091
vn 0.6208 0.5571 -0.5516
vn 0.2994 -0.8952 -0.3302
vn 0.0001 -0.9106 -0.4134
vn 0.4996 -0.8662 -0.0002
vn 0.2995 -0.8952 0.3301
vn -0.0000 -0.9106 0.4134
vn -0.2994 -0.8951 0.3303
vn -0.2995 -0.8951 -0.3304
vn 0.0001 0.7684 -0.6400
vn 0.5080 0.7335 -0.4516
vn -0.5080 0.7336 -0.4515
vn -0.7476 -0.0000 0.6642
vn -0.0000 0.7684 0.6400
vn 0.5079 0.7336 0.4515
vn 0.6914 0.7224 0.0001
vn 0.7475 -0.0000 0.6642
vn 0.7476 -0.0000 -0.6642
s 1
usemtl M_SideTableDrawer_228_2_0
f 1//1 3//2 2//3
f 1//1 4//4 3//2
f 5//5 4//4 1//1
f 5//5 6//6 4//4
f 7//7 6//6 5//5
f 7//7 8//8 6//6
f 9//9 8//8 7//7
f 9//9 10//10 8//8
f 11//11 10//10 9//9
f 11//11 12//12 10//10
f 13//13 12//12 11//11
f 13//13 14//14 12//12
f 6//6 8//8 15//15
f 6//6 15//15 16//16
f 4//4 6//6 16//16
f 17//17 14//14 13//13
f 17//17 18//18 14//14
f 2//3 18//18 17//17
f 2//3 3//2 18//18
f 2//3 17//17 19//19
f 2//3 19//19 20//20
f 17//17 21//21 19//19
f 17//17 13//13 21//21
f 13//13 22//22 21//21
f 13//13 11//11 22//22
f 11//11 23//23 22//22
f 11//11 9//9 23//23
f 9//9 24//24 23//23
f 24//24 22//22 23//23
f 9//9 7//7 24//24
f 7//7 25//25 24//24
f 25//25 21//21 22//22
f 25//25 22//22 24//24
f 7//7 5//5 25//25
f 5//5 26//26 25//25
f 19//19 26//26 20//20
f 26//26 19//19 21//21
f 26//26 21//21 25//25
f 5//5 1//1 26//26
f 1//1 20//20 26//26
f 1//1 2//3 20//20
f 18//18 3//2 27//27
f 18//18 27//27 28//28
f 3//2 29//29 27//27
f 27//27 29//29 30//30
f 27//27 30//30 31//31
f 28//28 27//27 31//31
f 29//29 32//32 30//30
f 29//29 16//16 32//32
f 4//4 16//16 29//29
f 3//2 4//4 29//29
f 16//16 33//33 32//32
f 16//16 15//15 33//33
f 15//15 34//34 33//33
f 15//15 35//35 34//34
f 8//8 35//35 15//15
f 8//8 10//10 35//35
f 10//10 36//36 35//35
f 10//10 12//12 36//36
f 12//12 37//37 36//36
f 12//12 14//14 37//37
f 14//14 28//28 37//37
f 14//14 18//18 28//28
f 35//35 38//38 34//34
f 35//35 36//36 38//38
f 37//37 28//28 39//39
f 37//37 39//39 40//40
f 36//36 40//40 38//38
f 36//36 37//37 40//40
f 28//28 31//31 39//39
f 41//41 43//42 42//43
f 41//41 44//4 43//42
f 45//44 44//4 41//41
f 45//44 46//45 44//4
f 47//46 46//45 45//44
f 47//46 48//47 46//45
f 49//48 48//47 47//46
f 49//48 50//49 48//47
f 51//50 50//49 49//48
f 51//50 52//12 50//49
f 53//51 52//12 51//50
f 53//51 54//52 52//12
f 46//45 48//47 55//15
f 46//45 55//15 56//53
f 44//4 46//45 56//53
f 57//54 54//52 53//51
f 57//54 58//55 54//52
f 42//43 58//55 57//54
f 42//43 43//42 58//55
f 42//43 57//54 59//56
f 42//43 59//56 60//57
f 57//54 61//58 59//56
f 57//54 53//51 61//58
f 53//51 62//59 61//58
f 53//51 51//50 62//59
f 51//50 63//60 62//59
f 51//50 49//48 63//60
f 49//48 64//61 63//60
f 64//61 62//59 63//60
f 49//48 47//46 64//61
f 47//46 65//25 64//61
f 65//25 61//58 62//59
f 65//25 62//59 64//61
f 47//46 45//44 65//25
f 45//44 66//62 65//25
f 59//56 66//62 60//57
f 66//62 59//56 61//58
f 66//62 61//58 65//25
f 45//44 41//41 66//62
f 41//41 60//57 66//62
f 41//41 42//43 60//57
f 58//55 43//42 67//63
f 58//55 67//63 68//64
f 43//42 69//65 67//63
f 67//63 69//65 70//30
f 67//63 70//30 71//31
f 68//64 67//63 71//31
f 69//65 72//32 70//30
f 69//65 56//53 72//32
f 44//4 56//53 69//65
f 43//42 44//4 69//65
f 56//53 73//66 72//32
f 56//53 55//15 73//66
f 55//15 74//34 73//66
f 55//15 75//67 74//34
f 48//47 75//67 55//15
f 48//47 50//49 75//67
f 50//49 76//68 75//67
f 50//49 52//12 76//68
f 52//12 77//69 76//68
f 52//12 54//52 77//69
f 54//52 68//64 77//69
f 54//52 58//55 68//64
f 75//67 78//70 74//34
f 75//67 76//68 78//70
f 77//69 68//64 79//71
f 77//69 79//71 80//40
f 76//68 80//40 78//70
f 76//68 77//69 80//40
f 68//64 71//31 79//71
