# Blender 4.1.0
# www.blender.org
mtllib MeshBox_15_FlapOuter_1_1.mtl
o Box_15_FlapOuter_1
v -0.224338 0.193308 0.120230
v -0.224338 -0.195911 0.120230
v -0.223361 0.193308 0.121829
v -0.223361 -0.195911 0.121829
v -0.120234 0.193308 0.058273
v -0.120443 0.193308 0.058950
v -0.120234 -0.195911 0.058273
v -0.120443 -0.195911 0.058950
v -0.120723 0.193308 0.057473
v -0.121420 0.193308 0.057350
v -0.120723 -0.195911 0.057473
v -0.121420 -0.195911 0.057350
vn -0.8533 -0.0000 0.5213
vn 0.9825 -0.0000 -0.1862
vn 0.5247 -0.0000 0.8513
vn 0.5247 0.0003 0.8513
vn 0.0002 1.0000 -0.0001
vn 0.0007 1.0000 -0.0004
vn -0.0003 -1.0000 0.0002
vn -0.0000 -1.0000 -0.0000
vn -0.5180 -0.0000 -0.8554
vn 0.6140 -0.0000 -0.7893
vn -0.5214 -0.0000 -0.8533
vn 0.5214 -0.0000 0.8533
vn -0.0000 1.0000 -0.0000
vt 1.529613 1.444735
vt 1.529613 0.512573
vt 1.535070 0.512572
vt 1.535070 1.444735
vt 1.521276 0.467984
vt 1.522776 0.466457
vt 1.522775 1.490850
vt 1.521276 1.489324
vt 1.518278 0.467984
vt 1.516779 0.466457
vt 1.516779 1.490850
vt 1.518278 1.489324
vt 1.499696 0.512572
vt 1.499696 1.444736
vt 1.189925 1.444736
vt 1.189925 0.512572
vt 0.851932 1.444736
vt 0.851932 0.512572
vt 1.161703 0.512572
vt 1.161702 1.444736
vt 0.834132 1.156282
vt 0.834132 1.466052
vt 0.828675 1.466052
vt 0.828675 1.156282
vt 0.816288 1.466053
vt 0.816288 1.156281
vt 0.821745 1.156281
vt 0.821745 1.466053
s 1
usemtl M_Box_15_FlapOuter_1_0
f 1/1/1 2/2/1 4/3/1 3/4/1
f 5/5/2 6/6/3 8/7/4 7/8/2
f 6/6/5 5/5/6 9/9/6 10/10/5
f 7/8/7 8/7/8 12/11/8 11/12/8
f 10/10/9 9/9/10 11/12/10 12/11/9
f 5/5/2 7/8/2 11/12/10 9/9/10
f 10/13/9 12/14/9 2/15/11 1/16/11
f 3/17/12 4/18/12 8/19/4 6/20/3
f 8/21/8 4/22/8 2/23/8 12/24/8
f 3/25/13 6/26/5 10/27/5 1/28/13
