# Blender 4.1.1
# www.blender.org
mtllib LightSwitchDial_12_LightSwitchDial_12_1_GeomSubset_1.mtl
o LightSwitchDial_12_LightSwitchDial_12_1_GeomSubset_1
v 0.000498 0.014809 0.000000
v -0.000502 0.014809 0.000000
v 0.000498 0.015809 0.000000
v -0.000502 0.015809 0.000000
v 0.000498 0.014809 0.000000
v -0.000502 0.014809 0.000000
v 0.000498 0.015809 0.000000
v -0.000502 0.015809 0.000000
v 0.000498 0.014809 0.000000
v -0.000502 0.014809 0.000000
v 0.000498 0.015809 0.000000
v -0.000502 0.015809 0.000000
v -0.029386 0.004861 0.015565
v -0.022578 0.004861 0.025753
v -0.012391 0.004861 0.032560
v -0.000374 0.004861 0.034950
v 0.011644 0.004861 0.032560
v 0.021832 0.004861 0.025753
v 0.028639 0.004861 0.015565
v 0.031029 0.004861 0.003548
v 0.028639 0.004861 -0.008470
v 0.021832 0.004861 -0.018657
v 0.011644 0.004861 -0.025465
v -0.000374 0.004861 -0.027855
v -0.012391 0.004861 -0.025465
v -0.022578 0.004861 -0.018657
v -0.029386 0.004861 -0.008470
v -0.031776 0.004861 0.003548
v -0.004919 -0.004675 0.003548
v -0.000374 -0.004827 0.003548
v -0.000374 -0.004675 -0.000997
v -0.003587 -0.004675 0.000334
v -0.000374 -0.004675 0.008093
v -0.003587 -0.004675 0.006761
v 0.002840 -0.004675 0.006761
v 0.004171 -0.004675 0.003548
v 0.002840 -0.004675 0.000334
v -0.000374 -0.003715 -0.008118
v -0.000374 -0.004254 -0.004708
v -0.008623 -0.003715 -0.004702
v -0.006211 -0.004254 -0.002290
v -0.012040 -0.003715 0.003548
v -0.008629 -0.004254 0.003548
v -0.008623 -0.003715 0.011797
v -0.006211 -0.004254 0.009385
v -0.000374 -0.003715 0.015213
v -0.000374 -0.004254 0.011803
v 0.007875 -0.003715 0.011797
v 0.005464 -0.004254 0.009385
v 0.011292 -0.003715 0.003548
v 0.007882 -0.004254 0.003548
v 0.007875 -0.003715 -0.004701
v 0.005464 -0.004254 -0.002290
v 0.012364 -0.003058 0.016285
v 0.009934 -0.003267 0.013855
v -0.000374 -0.003058 0.021561
v -0.000374 -0.003267 0.018125
v 0.017639 -0.003058 0.003548
v 0.014203 -0.003267 0.003548
v 0.012364 -0.003058 -0.009190
v 0.009934 -0.003267 -0.006760
v -0.000374 -0.003058 -0.014466
v -0.000374 -0.003267 -0.011029
v -0.013111 -0.003058 -0.009190
v -0.010681 -0.003267 -0.006760
v -0.018387 -0.003058 0.003548
v -0.014951 -0.003267 0.003548
v -0.013111 -0.003058 0.016285
v -0.010681 -0.003267 0.013855
v -0.015749 -0.003058 0.009916
v -0.012816 -0.003267 0.008701
v -0.010331 -0.003715 0.007672
v -0.007420 -0.004254 0.006466
v -0.004253 -0.004675 0.005154
v -0.000374 -0.004827 0.005820
v 0.003506 -0.004675 0.005154
v 0.006673 -0.004254 0.006466
v 0.009584 -0.003715 0.007672
v 0.012069 -0.003267 0.008701
v 0.015002 -0.003058 0.009916
v -0.015749 -0.003058 -0.002821
v -0.012816 -0.003267 -0.001606
v -0.010331 -0.003715 -0.000577
v -0.007420 -0.004254 0.000629
v -0.004253 -0.004675 0.001941
v -0.000374 -0.004827 0.001275
v 0.003506 -0.004675 0.001941
v 0.006673 -0.004254 0.000629
v 0.009584 -0.003715 -0.000577
v 0.012069 -0.003267 -0.001606
v 0.015002 -0.003058 -0.002821
v -0.006742 -0.003058 0.018923
v -0.005527 -0.003267 0.015990
v -0.004498 -0.003715 0.013505
v -0.003293 -0.004254 0.010594
v -0.001981 -0.004675 0.007427
v -0.002313 -0.004827 0.005487
v -0.002646 -0.004827 0.003548
v -0.002313 -0.004827 0.001608
v -0.001981 -0.004675 -0.000332
v -0.003293 -0.004254 -0.003499
v -0.004498 -0.003715 -0.006410
v -0.005527 -0.003267 -0.008895
v -0.006742 -0.003058 -0.011828
v 0.005995 -0.003058 0.018923
v 0.004780 -0.003267 0.015990
v 0.003751 -0.003715 0.013505
v 0.002545 -0.004254 0.010594
v 0.001233 -0.004675 0.007427
v 0.001566 -0.004827 0.005487
v 0.001899 -0.004827 0.003548
v 0.001566 -0.004827 0.001608
v 0.001233 -0.004675 -0.000332
v 0.002545 -0.004254 -0.003499
v 0.003751 -0.003715 -0.006410
v 0.004780 -0.003267 -0.008895
v 0.005995 -0.003058 -0.011828
v -0.029386 -0.002266 0.015565
v -0.028331 -0.003058 0.015128
v -0.022578 -0.002266 0.025753
v -0.021771 -0.003058 0.024946
v -0.012391 -0.002266 0.032560
v -0.011954 -0.003058 0.031505
v -0.000374 -0.002266 0.034950
v -0.000374 -0.003058 0.033809
v 0.011644 -0.002266 0.032560
v 0.011207 -0.003058 0.031505
v 0.021832 -0.002266 0.025753
v 0.021025 -0.003058 0.024946
v 0.028639 -0.002266 0.015565
v 0.027584 -0.003058 0.015128
v 0.031029 -0.002266 0.003548
v 0.029888 -0.003058 0.003548
v 0.028639 -0.002266 -0.008470
v 0.027584 -0.003058 -0.008033
v 0.021832 -0.002266 -0.018657
v 0.021025 -0.003058 -0.017850
v 0.011644 -0.002266 -0.025465
v 0.011207 -0.003058 -0.024410
v -0.000374 -0.002266 -0.027855
v -0.000374 -0.003058 -0.026714
v -0.012391 -0.002266 -0.025465
v -0.011954 -0.003058 -0.024410
v -0.022578 -0.002266 -0.018657
v -0.021771 -0.003058 -0.017850
v -0.029386 -0.002266 -0.008470
v -0.028331 -0.003058 -0.008033
v -0.031776 -0.002266 0.003548
v -0.030635 -0.003058 0.003548
vn -0.0000 -0.0000 -1.0000
vn 0.0816 0.9959 0.0377
vn 0.0402 0.9984 0.0402
vn 0.0377 0.9959 0.0816
vn 0.0682 0.9953 0.0682
vn 0.0402 0.9984 -0.0402
vn 0.0443 0.9990 -0.0000
vn 0.0918 0.9958 -0.0000
vn 0.0816 0.9959 -0.0377
vn -0.0000 0.9990 -0.0442
vn -0.0402 0.9984 -0.0402
vn -0.0442 0.9990 -0.0000
vn -0.0000 1.0000 -0.0000
vn -0.0000 0.9958 0.0918
vn -0.0000 0.9990 0.0441
vn -0.0402 0.9984 0.0402
vn -0.0377 0.9960 0.0815
vn -0.0000 0.9881 0.1536
vn -0.0000 0.9906 0.1365
vn -0.0540 0.9900 0.1304
vn -0.0637 0.9860 0.1538
vn 0.0540 0.9900 0.1304
vn 0.0637 0.9860 0.1538
vn 0.1086 0.9881 0.1086
vn 0.0965 0.9906 0.0965
vn 0.1538 0.9860 0.0637
vn 0.1304 0.9900 0.0540
vn 0.1366 0.9906 -0.0000
vn 0.1536 0.9881 -0.0000
vn 0.1538 0.9860 -0.0637
vn 0.1304 0.9900 -0.0540
vn 0.0966 0.9906 -0.0966
vn 0.1086 0.9881 -0.1086
vn 0.0637 0.9860 -0.1538
vn 0.0540 0.9900 -0.1305
vn -0.0000 0.9906 -0.1367
vn 0.0001 0.9881 -0.1541
vn -0.0637 0.9860 -0.1538
vn -0.0540 0.9900 -0.1305
vn -0.1304 0.9900 -0.0540
vn -0.1538 0.9860 -0.0637
vn -0.1536 0.9881 -0.0000
vn -0.1366 0.9906 -0.0000
vn -0.1304 0.9900 0.0540
vn -0.1538 0.9860 0.0637
vn -0.1086 0.9881 0.1086
vn -0.0966 0.9906 0.0966
vn 0.0377 0.9960 -0.0816
vn 0.0682 0.9953 -0.0682
vn -0.0377 0.9960 -0.0816
vn -0.0000 0.9958 -0.0918
vn -0.0918 0.9958 -0.0000
vn -0.0816 0.9960 -0.0377
vn -0.0682 0.9953 0.0682
vn -0.0816 0.9960 0.0377
vn -0.0217 0.9984 -0.0524
vn -0.0476 0.9922 -0.1149
vn -0.0000 0.9947 -0.1026
vn -0.0000 0.9992 -0.0402
vn -0.1149 0.9922 -0.0476
vn -0.0524 0.9984 -0.0217
vn -0.0402 0.9992 -0.0000
vn -0.1026 0.9947 -0.0000
vn 0.0217 0.9984 -0.0523
vn 0.0476 0.9922 -0.1149
vn 0.0726 0.9947 -0.0726
vn 0.0284 0.9992 -0.0284
vn -0.1149 0.9922 0.0476
vn -0.0524 0.9984 0.0217
vn -0.0284 0.9992 0.0284
vn -0.0726 0.9947 0.0726
vn -0.0476 0.9922 0.1149
vn -0.0217 0.9984 0.0524
vn -0.0000 0.9992 0.0402
vn -0.0000 0.9947 0.1026
vn 0.0476 0.9922 0.1149
vn 0.0217 0.9984 0.0524
vn 0.0284 0.9992 0.0284
vn 0.0726 0.9947 0.0726
vn 0.0524 0.9984 0.0217
vn 0.1149 0.9922 0.0476
vn 0.1026 0.9947 -0.0000
vn 0.0402 0.9992 -0.0000
vn 0.0524 0.9984 -0.0217
vn 0.1149 0.9922 -0.0476
vn -0.0966 0.9906 -0.0966
vn -0.0682 0.9953 -0.0682
vn -0.1086 0.9881 -0.1086
vn -0.0726 0.9947 -0.0726
vn -0.0284 0.9992 -0.0284
vn 0.7227 0.6229 -0.2993
vn 0.4723 0.8594 -0.1957
vn 0.5112 0.8594 -0.0001
vn 0.7823 0.6230 -0.0000
vn 0.5532 0.6229 -0.5531
vn 0.3615 0.8594 -0.3615
vn 0.2995 0.6229 -0.7227
vn 0.1957 0.8594 -0.4723
vn -0.0000 0.6230 -0.7823
vn -0.0000 0.8594 -0.5113
vn -0.2993 0.6229 -0.7228
vn -0.1957 0.8594 -0.4723
vn -0.5531 0.6229 -0.5532
vn -0.3615 0.8594 -0.3615
vn -0.7227 0.6229 -0.2994
vn -0.4723 0.8594 -0.1957
vn -0.7823 0.6230 0.0001
vn -0.5113 0.8594 -0.0000
vn -0.7227 0.6229 0.2993
vn -0.4723 0.8594 0.1957
vn -0.5532 0.6229 0.5531
vn -0.3615 0.8594 0.3615
vn -0.2994 0.6229 0.7227
vn -0.1957 0.8594 0.4723
vn -0.0000 0.6230 0.7823
vn -0.0000 0.8594 0.5113
vn 0.2994 0.6229 0.7227
vn 0.1957 0.8594 0.4723
vn 0.5533 0.6229 0.5530
vn 0.3615 0.8594 0.3615
vn 0.7227 0.6229 0.2994
vn 0.4723 0.8594 0.1957
vn 0.9239 -0.0000 -0.3827
vn 0.7071 -0.0000 -0.7071
vn 0.3827 -0.0000 -0.9239
vn -0.3827 -0.0000 -0.9239
vn -0.7071 -0.0000 -0.7071
vn -0.9239 -0.0000 -0.3827
vn -1.0000 -0.0000 -0.0000
vn -0.9239 -0.0000 0.3827
vn -0.7071 -0.0000 0.7071
vn -0.3827 -0.0000 0.9239
vn -0.0000 -0.0000 1.0000
vn 0.3827 -0.0000 0.9239
vn 0.7071 -0.0000 0.7071
vn 0.9239 -0.0000 0.3827
vn 1.0000 -0.0000 -0.0000
vt 1.345203 0.605988
vt 1.345203 0.602711
vt 1.348479 0.602711
vt 1.348479 0.605988
vt 0.447467 0.442875
vt 0.446813 0.446684
vt 0.443004 0.447338
vt 0.444311 0.444182
vt 0.454431 0.446684
vt 0.450622 0.446030
vt 0.450622 0.441568
vt 0.453778 0.442875
vt 0.455085 0.450493
vt 0.454431 0.454302
vt 0.450622 0.454956
vt 0.450622 0.450493
vt 0.441697 0.450493
vt 0.446160 0.450493
vt 0.446813 0.454302
vt 0.443004 0.453649
vt 0.427713 0.450493
vt 0.434411 0.450493
vt 0.436785 0.456225
vt 0.431068 0.458593
vt 0.436785 0.444761
vt 0.431068 0.442393
vt 0.434423 0.434294
vt 0.439159 0.439030
vt 0.442523 0.430939
vt 0.444891 0.436656
vt 0.450622 0.434282
vt 0.450622 0.427584
vt 0.458722 0.430939
vt 0.456354 0.436656
vt 0.462085 0.439030
vt 0.466821 0.434294
vt 0.470176 0.442393
vt 0.464460 0.444761
vt 0.466834 0.450493
vt 0.473531 0.450493
vt 0.470176 0.458593
vt 0.464460 0.456225
vt 0.456354 0.464331
vt 0.458722 0.470047
vt 0.450622 0.473402
vt 0.450622 0.466705
vt 0.444891 0.464331
vt 0.442523 0.470047
vt 0.434423 0.466692
vt 0.439159 0.461956
vt 0.458240 0.447338
vt 0.456933 0.444182
vt 0.458240 0.453649
vt 0.459548 0.450493
vt 0.450622 0.459418
vt 0.453778 0.458111
vt 0.444311 0.456804
vt 0.447467 0.458111
vt 0.480816 0.463000
vt 0.475056 0.460614
vt 0.479248 0.450493
vt 0.485996 0.450493
vt 0.460743 0.474927
vt 0.463129 0.480686
vt 0.450622 0.485867
vt 0.450622 0.479119
vt 0.480816 0.437987
vt 0.475056 0.440372
vt 0.470864 0.430252
vt 0.475635 0.425480
vt 0.440501 0.474927
vt 0.438116 0.480686
vt 0.425609 0.475506
vt 0.430381 0.470735
vt 0.426188 0.460614
vt 0.420429 0.463000
vt 0.415248 0.450493
vt 0.421996 0.450493
vt 0.426188 0.440372
vt 0.420429 0.437987
vt 0.425609 0.425480
vt 0.430381 0.430252
vt 0.438116 0.420300
vt 0.440501 0.426059
vt 0.450622 0.421867
vt 0.450622 0.415119
vt 0.463129 0.420300
vt 0.460743 0.426059
vt 0.462085 0.461956
vt 0.456933 0.456804
vt 0.466821 0.466692
vt 0.470864 0.470735
vt 0.475635 0.475506
vt 0.557612 0.473043
vt 0.555857 0.472075
vt 0.555857 0.446400
vt 0.557612 0.446400
vt 0.473363 0.395591
vt 0.474221 0.393520
vt 0.494228 0.406888
vt 0.492643 0.408473
vt 0.507595 0.426894
vt 0.505525 0.427752
vt 0.612239 0.367073
vt 0.613856 0.366180
vt 0.613856 0.390718
vt 0.612239 0.390718
vt 0.613856 0.415256
vt 0.612239 0.414364
vt 0.505525 0.473235
vt 0.507595 0.474093
vt 0.494228 0.494099
vt 0.492643 0.492514
vt 0.474221 0.507466
vt 0.473364 0.505396
vt 0.601259 0.472075
vt 0.599503 0.473043
vt 0.599503 0.446400
vt 0.601259 0.446400
vt 0.599503 0.419758
vt 0.601259 0.420726
vt 0.427881 0.505396
vt 0.427023 0.507466
vt 0.407017 0.494099
vt 0.408601 0.492514
vt 0.393649 0.474093
vt 0.395720 0.473235
vt 0.643040 0.494298
vt 0.641423 0.495190
vt 0.641423 0.470652
vt 0.643040 0.470652
vt 0.641423 0.446114
vt 0.643040 0.447006
vt 0.395720 0.427752
vt 0.393649 0.426894
vt 0.407017 0.406888
vt 0.408601 0.408473
vt 0.427023 0.393520
vt 0.427881 0.395591
vt 0.555857 0.420726
vt 0.557612 0.419757
vt 0.573415 0.473043
vt 0.573415 0.495630
vt 0.557612 0.495630
vt 0.573415 0.510723
vt 0.557612 0.510723
vt 0.628409 0.366180
vt 0.628409 0.390718
vt 0.628409 0.415256
vt 0.583701 0.510722
vt 0.583701 0.495630
vt 0.599503 0.495630
vt 0.599503 0.510722
vt 0.583701 0.473043
vt 0.583701 0.446400
vt 0.583701 0.419758
vt 0.583701 0.397171
vt 0.599503 0.397171
vt 0.583701 0.382079
vt 0.599503 0.382079
vt 0.626870 0.495190
vt 0.626870 0.470652
vt 0.626870 0.446114
vt 0.573415 0.382078
vt 0.573415 0.397170
vt 0.557612 0.397170
vt 0.557612 0.382078
vt 0.573415 0.419757
vt 0.573415 0.446400
vt 0.510048 0.450493
vt 0.450622 0.509920
vt 0.391196 0.450493
vt 0.450622 0.391067
s 1
usemtl M_LightSwitchDial_12_1
f 5/1/1 6/2/1 8/3/1 7/4/1
f 85/5/2 99/6/3 100/7/4 32/8/5
f 97/9/6 98/10/7 29/11/8 74/12/9
f 75/13/10 110/14/11 111/15/12 30/16/13
f 31/17/14 86/18/15 112/19/16 113/20/17
f 38/21/18 39/22/19 114/23/20 115/24/21
f 101/25/22 102/26/23 40/27/24 41/28/25
f 41/28/25 40/27/24 83/29/26 84/30/27
f 43/31/28 42/32/29 72/33/30 73/34/31
f 45/35/32 44/36/33 94/37/34 95/38/35
f 47/39/36 46/40/37 107/41/38 108/42/39
f 77/43/40 78/44/41 50/45/42 51/46/43
f 88/47/44 89/48/45 52/49/46 53/50/47
f 101/25/22 41/28/25 32/8/5 100/7/4
f 41/28/25 84/30/27 85/5/2 32/8/5
f 43/31/28 73/34/31 74/12/9 29/11/8
f 45/35/32 95/38/35 96/51/48 34/52/49
f 47/39/36 108/42/39 109/53/50 33/54/51
f 77/43/40 51/46/43 36/55/52 76/56/53
f 88/47/44 53/50/47 37/57/54 87/58/55
f 114/23/20 39/22/19 31/17/14 113/20/17
f 105/59/56 106/60/57 57/61/58 56/62/59
f 79/63/60 80/64/61 58/65/62 59/66/63
f 92/67/64 93/68/65 69/69/66 68/70/67
f 90/71/68 91/72/69 60/73/70 61/74/71
f 116/75/72 117/76/73 62/77/74 63/78/75
f 103/79/76 104/80/77 64/81/78 65/82/79
f 65/82/79 64/81/78 81/83/80 82/84/81
f 67/85/82 66/86/83 70/87/84 71/88/85
f 103/79/76 65/82/79 40/27/24 102/26/23
f 65/82/79 82/84/81 83/29/26 40/27/24
f 67/85/82 71/88/85 72/33/30 42/32/29
f 69/69/66 93/68/65 94/37/34 44/36/33
f 57/61/58 106/60/57 107/41/38 46/40/37
f 79/63/60 59/66/63 50/45/42 78/44/41
f 90/71/68 61/74/71 52/49/46 89/48/45
f 116/75/72 63/78/75 38/21/18 115/24/21
f 71/88/85 70/87/84 68/70/67 69/69/66
f 72/33/30 71/88/85 69/69/66 44/36/33
f 73/34/31 72/33/30 44/36/33 45/35/32
f 74/12/9 73/34/31 45/35/32 34/52/49
f 96/51/48 97/9/6 74/12/9 34/52/49
f 33/54/51 109/53/50 110/14/11 75/13/10
f 49/89/86 77/43/40 76/56/53 35/90/87
f 49/89/86 48/91/88 78/44/41 77/43/40
f 55/92/89 79/63/60 78/44/41 48/91/88
f 55/92/89 54/93/90 80/64/61 79/63/60
f 82/84/81 81/83/80 66/86/83 67/85/82
f 83/29/26 82/84/81 67/85/82 42/32/29
f 84/30/27 83/29/26 42/32/29 43/31/28
f 85/5/2 84/30/27 43/31/28 29/11/8
f 29/11/8 98/10/7 99/6/3 85/5/2
f 112/19/16 86/18/15 30/16/13 111/15/12
f 51/46/43 88/47/44 87/58/55 36/55/52
f 51/46/43 50/45/42 89/48/45 88/47/44
f 59/66/63 90/71/68 89/48/45 50/45/42
f 59/66/63 58/65/62 91/72/69 90/71/68
f 56/62/59 57/61/58 93/68/65 92/67/64
f 94/37/34 93/68/65 57/61/58 46/40/37
f 95/38/35 94/37/34 46/40/37 47/39/36
f 96/51/48 95/38/35 47/39/36 33/54/51
f 33/54/51 75/13/10 97/9/6 96/51/48
f 75/13/10 30/16/13 98/10/7 97/9/6
f 99/6/3 98/10/7 30/16/13 86/18/15
f 100/7/4 99/6/3 86/18/15 31/17/14
f 39/22/19 101/25/22 100/7/4 31/17/14
f 39/22/19 38/21/18 102/26/23 101/25/22
f 63/78/75 103/79/76 102/26/23 38/21/18
f 63/78/75 62/77/74 104/80/77 103/79/76
f 54/93/90 55/92/89 106/60/57 105/59/56
f 107/41/38 106/60/57 55/92/89 48/91/88
f 108/42/39 107/41/38 48/91/88 49/89/86
f 109/53/50 108/42/39 49/89/86 35/90/87
f 110/14/11 109/53/50 35/90/87 76/56/53
f 111/15/12 110/14/11 76/56/53 36/55/52
f 87/58/55 112/19/16 111/15/12 36/55/52
f 113/20/17 112/19/16 87/58/55 37/57/54
f 53/50/47 114/23/20 113/20/17 37/57/54
f 115/24/21 114/23/20 53/50/47 52/49/46
f 61/74/71 116/75/72 115/24/21 52/49/46
f 61/74/71 60/73/70 117/76/73 116/75/72
f 118/94/91 119/95/92 149/96/93 148/97/94
f 119/98/92 118/99/91 120/100/95 121/101/96
f 121/101/96 120/100/95 122/102/97 123/103/98
f 123/104/98 122/105/97 124/106/99 125/107/100
f 125/107/100 124/106/99 126/108/101 127/109/102
f 127/110/102 126/111/101 128/112/103 129/113/104
f 129/113/104 128/112/103 130/114/105 131/115/106
f 131/116/106 130/117/105 132/118/107 133/119/108
f 133/119/108 132/118/107 134/120/109 135/121/110
f 135/122/110 134/123/109 136/124/111 137/125/112
f 137/125/112 136/124/111 138/126/113 139/127/114
f 139/128/114 138/129/113 140/130/115 141/131/116
f 141/131/116 140/130/115 142/132/117 143/133/118
f 143/134/118 142/135/117 144/136/119 145/137/120
f 145/137/120 144/136/119 146/138/121 147/139/122
f 147/140/122 146/141/121 148/97/94 149/96/93
f 13/142/123 14/143/124 120/144/95 118/94/91
f 14/143/124 15/145/125 122/146/97 120/144/95
f 15/147/125 16/148/1 124/106/99 122/105/97
f 16/148/1 17/149/126 126/108/101 124/106/99
f 17/150/126 18/151/127 128/152/103 126/153/101
f 18/151/127 19/154/128 130/117/105 128/152/103
f 19/154/128 20/155/129 132/118/107 130/117/105
f 20/155/129 21/156/130 134/120/109 132/118/107
f 21/156/130 22/157/131 136/158/111 134/120/109
f 22/157/131 23/159/132 138/160/113 136/158/111
f 23/161/132 24/162/133 140/130/115 138/129/113
f 24/162/133 25/163/134 142/132/117 140/130/115
f 25/164/134 26/165/135 144/166/119 142/167/117
f 26/165/135 27/168/136 146/141/121 144/166/119
f 27/168/136 28/169/137 148/97/94 146/141/121
f 28/169/137 13/142/123 118/94/91 148/97/94
f 127/110/102 105/59/56 56/62/59 125/170/100
f 58/65/62 80/64/61 131/115/106 133/171/108
f 60/73/70 91/72/69 135/122/110 137/125/112
f 62/77/74 117/76/73 139/127/114 141/172/116
f 64/81/78 104/80/77 143/134/118 145/137/120
f 66/86/83 81/83/80 147/139/122 149/173/93
f 119/98/92 70/87/84 66/86/83 149/173/93
f 56/62/59 92/67/64 123/103/98 125/170/100
f 54/93/90 105/59/56 127/110/102 129/113/104
f 123/103/98 92/67/64 68/70/67 121/101/96
f 68/70/67 70/87/84 119/98/92 121/101/96
f 147/139/122 81/83/80 64/81/78 145/137/120
f 143/134/118 104/80/77 62/77/74 141/172/116
f 139/127/114 117/76/73 60/73/70 137/125/112
f 135/122/110 91/72/69 58/65/62 133/171/108
f 131/115/106 80/64/61 54/93/90 129/113/104
