# Blender 4.1.0
# www.blender.org
mtllib MeshSoapBottleVolume_5_1.mtl
o SoapBottleVolume_5
v 0.032428 -0.032429 -0.067189
v 0.030768 -0.030768 -0.029163
v 0.016651 -0.040200 -0.029163
v 0.017550 -0.042369 -0.067189
v 0.025615 -0.025615 0.002268
v 0.013863 -0.033467 0.002268
v 0.022856 -0.022856 0.022211
v 0.012370 -0.029861 0.022211
v 0.000000 -0.036225 0.002268
v 0.000000 -0.032322 0.022211
v -0.013862 -0.033467 0.002268
v -0.012369 -0.029861 0.022211
v -0.025615 -0.025615 0.002268
v -0.022855 -0.022856 0.022211
v -0.033467 -0.013863 0.002268
v -0.029862 -0.012369 0.022211
v -0.036225 0.000000 0.002268
v -0.032322 0.000000 0.022211
v -0.033467 0.013863 0.002268
v -0.029862 0.012370 0.022211
v -0.025615 0.025615 0.002268
v -0.022855 0.022856 0.022211
v -0.013862 0.033468 0.002268
v -0.012369 0.029862 0.022211
v 0.000000 0.036225 0.002268
v 0.000000 0.032322 0.022211
v 0.013863 0.033468 0.002268
v 0.012369 0.029862 0.022211
v 0.025615 0.025615 0.002268
v 0.022856 0.022856 0.022211
v 0.033468 0.013863 0.002268
v 0.029862 0.012370 0.022211
v 0.036225 0.000000 0.002268
v 0.032323 0.000000 0.022211
v 0.033468 -0.013863 0.002268
v 0.029862 -0.012369 0.022211
v 0.027956 0.011580 0.048905
v 0.030259 0.000000 0.048905
v 0.021396 0.021396 0.048905
v 0.011580 0.027955 0.048905
v 0.000000 0.030259 0.048905
v -0.011579 0.027955 0.048905
v -0.021396 0.021396 0.048905
v -0.027955 0.011580 0.048905
v -0.030259 0.000000 0.048905
v -0.027955 -0.011580 0.048905
v -0.021396 -0.021396 0.048905
v -0.011579 -0.027956 0.048905
v 0.000000 -0.030259 0.048905
v 0.011580 -0.027956 0.048905
v 0.021396 -0.021396 0.048905
v 0.027956 -0.011580 0.048905
v 0.000000 -0.043511 -0.029163
v 0.000000 -0.045860 -0.067189
v -0.016651 -0.040200 -0.029163
v -0.017550 -0.042369 -0.067189
v -0.030767 -0.030768 -0.029163
v -0.032428 -0.032429 -0.067189
v -0.040200 -0.016651 -0.029163
v -0.042369 -0.017550 -0.067189
v -0.043512 0.000000 -0.029163
v -0.045860 0.000000 -0.067189
v -0.040200 0.016652 -0.029163
v -0.042369 0.017550 -0.067189
v -0.030767 0.030768 -0.029163
v -0.032428 0.032428 -0.067189
v -0.016651 0.040201 -0.029163
v -0.017550 0.042370 -0.067189
v 0.000000 0.043512 -0.029163
v 0.000000 0.045860 -0.067189
v 0.016652 0.040201 -0.029163
v 0.017550 0.042370 -0.067189
v 0.030768 0.030768 -0.029163
v 0.032429 0.032428 -0.067189
v 0.040200 0.016651 -0.029163
v 0.042370 0.017550 -0.067189
v 0.043512 0.000000 -0.029163
v 0.045861 0.000000 -0.067189
v 0.040200 -0.016651 -0.029163
v 0.042370 -0.017550 -0.067189
v 0.024484 0.024484 -0.112631
v 0.013251 0.031990 -0.112631
v 0.000000 0.000000 -0.112680
v 0.000000 0.034626 -0.112631
v -0.013250 0.031990 -0.112631
v -0.024483 0.024484 -0.112631
v -0.031989 0.013251 -0.112631
v -0.034625 0.000000 -0.112631
v -0.031989 -0.013251 -0.112631
v -0.024483 -0.024484 -0.112631
v -0.013250 -0.031989 -0.112631
v 0.000000 -0.034624 -0.112631
v 0.013251 -0.031989 -0.112631
v 0.024484 -0.024484 -0.112631
v 0.031990 -0.013251 -0.112631
v 0.034625 0.000000 -0.112631
v 0.031990 0.013251 -0.112631
v 0.032418 0.032417 -0.099206
v 0.042355 0.017544 -0.099206
v 0.017544 0.042356 -0.099206
v 0.000000 0.045845 -0.099206
v -0.017544 0.042356 -0.099206
v -0.032417 0.032417 -0.099206
v -0.042355 0.017545 -0.099206
v -0.045845 0.000000 -0.099206
v -0.042355 -0.017544 -0.099206
v -0.032417 -0.032418 -0.099206
v -0.017544 -0.042355 -0.099206
v 0.000000 -0.045845 -0.099206
v 0.017544 -0.042355 -0.099206
v 0.032418 -0.032418 -0.099206
v 0.042355 -0.017544 -0.099206
v 0.045845 0.000000 -0.099206
v 0.041026 0.016994 -0.105549
v 0.044406 0.000000 -0.105549
v 0.037184 0.015403 -0.110654
v 0.040248 0.000000 -0.110654
v 0.031400 0.031400 -0.105549
v 0.028460 0.028460 -0.110654
v 0.016994 0.041026 -0.105549
v 0.015402 0.037185 -0.110654
v 0.000000 0.044406 -0.105549
v 0.000000 0.040248 -0.110654
v -0.016993 0.041026 -0.105549
v -0.015402 0.037185 -0.110654
v -0.031400 0.031400 -0.105549
v -0.028459 0.028460 -0.110654
v -0.041026 0.016994 -0.105549
v -0.037184 0.015403 -0.110654
v -0.044406 0.000000 -0.105549
v -0.040248 0.000000 -0.110654
v -0.041026 -0.016994 -0.105549
v -0.037184 -0.015402 -0.110654
v -0.031400 -0.031400 -0.105549
v -0.028459 -0.028460 -0.110654
v -0.016993 -0.041025 -0.105549
v -0.015402 -0.037184 -0.110654
v 0.000000 -0.044406 -0.105549
v 0.000000 -0.040247 -0.110654
v 0.016994 -0.041025 -0.105549
v 0.015402 -0.037184 -0.110654
v 0.031400 -0.031400 -0.105549
v 0.028460 -0.028460 -0.110654
v 0.041026 -0.016994 -0.105549
v 0.037184 -0.015402 -0.110654
v 0.000000 0.000000 0.049859
vn 0.7067 -0.7067 0.0328
vn 0.7010 -0.7010 0.1313
vn 0.3793 -0.9159 0.1313
vn 0.3824 -0.9234 0.0328
vn 0.6907 -0.6907 0.2144
vn 0.3738 -0.9024 0.2144
vn 0.7011 -0.7011 0.1304
vn 0.3794 -0.9160 0.1304
vn -0.0000 -0.9768 0.2144
vn -0.0000 -0.9915 0.1304
vn -0.3738 -0.9024 0.2144
vn -0.3794 -0.9160 0.1304
vn -0.6907 -0.6907 0.2144
vn -0.7011 -0.7011 0.1304
vn -0.9024 -0.3738 0.2144
vn -0.9160 -0.3794 0.1304
vn -0.9767 -0.0000 0.2144
vn -0.9915 -0.0000 0.1305
vn -0.9024 0.3738 0.2144
vn -0.9160 0.3794 0.1304
vn -0.6907 0.6907 0.2144
vn -0.7011 0.7011 0.1305
vn -0.3738 0.9024 0.2144
vn -0.3794 0.9160 0.1304
vn -0.0000 0.9767 0.2144
vn -0.0000 0.9915 0.1304
vn 0.3738 0.9024 0.2144
vn 0.3794 0.9160 0.1305
vn 0.6907 0.6907 0.2144
vn 0.7011 0.7011 0.1304
vn 0.9024 0.3738 0.2144
vn 0.9160 0.3794 0.1305
vn 0.9767 -0.0000 0.2144
vn 0.9915 -0.0000 0.1304
vn 0.9024 -0.3738 0.2144
vn 0.9160 -0.3794 0.1305
vn 0.9211 0.3815 0.0771
vn 0.9970 -0.0000 0.0771
vn 0.7050 0.7050 0.0771
vn 0.3815 0.9211 0.0771
vn -0.0000 0.9970 0.0771
vn -0.3815 0.9211 0.0771
vn -0.7050 0.7050 0.0771
vn -0.9211 0.3815 0.0771
vn -0.9970 -0.0000 0.0771
vn -0.9211 -0.3815 0.0771
vn -0.7050 -0.7050 0.0771
vn -0.3815 -0.9211 0.0771
vn -0.0000 -0.9970 0.0771
vn 0.3815 -0.9211 0.0771
vn 0.7050 -0.7050 0.0771
vn 0.9211 -0.3816 0.0771
vn -0.0000 -0.9913 0.1313
vn -0.0000 -0.9995 0.0328
vn -0.3794 -0.9159 0.1313
vn -0.3825 -0.9234 0.0328
vn -0.7010 -0.7010 0.1313
vn -0.7067 -0.7067 0.0328
vn -0.9159 -0.3794 0.1313
vn -0.9234 -0.3825 0.0328
vn -0.9913 -0.0000 0.1313
vn -0.9995 -0.0000 0.0328
vn -0.9159 0.3794 0.1313
vn -0.9234 0.3825 0.0328
vn -0.7010 0.7010 0.1313
vn -0.7067 0.7067 0.0327
vn -0.3794 0.9159 0.1313
vn -0.3825 0.9234 0.0328
vn -0.0000 0.9913 0.1313
vn -0.0000 0.9995 0.0328
vn 0.3794 0.9159 0.1313
vn 0.3825 0.9234 0.0328
vn 0.7010 0.7010 0.1313
vn 0.7067 0.7067 0.0328
vn 0.9159 0.3794 0.1313
vn 0.9234 0.3825 0.0328
vn 0.9913 -0.0000 0.1313
vn 0.9995 -0.0000 0.0328
vn 0.9159 -0.3794 0.1313
vn 0.9234 -0.3825 0.0328
vn 0.0250 0.0605 -0.9979
vn 0.0462 0.0462 -0.9979
vn -0.0000 -0.0000 -1.0000
vn -0.0000 0.0654 -0.9979
vn -0.0251 0.0605 -0.9979
vn -0.0462 0.0462 -0.9979
vn -0.0605 0.0250 -0.9979
vn -0.0654 -0.0000 -0.9979
vn -0.0605 -0.0251 -0.9979
vn -0.0462 -0.0462 -0.9979
vn -0.0251 -0.0605 -0.9979
vn -0.0000 -0.0654 -0.9979
vn 0.0250 -0.0605 -0.9979
vn 0.0462 -0.0462 -0.9979
vn 0.0605 -0.0250 -0.9979
vn 0.0654 -0.0000 -0.9979
vn 0.0605 0.0251 -0.9979
vn 0.9233 0.3824 -0.0365
vn 0.7066 0.7066 -0.0365
vn 0.3824 0.9233 -0.0365
vn -0.0000 0.9993 -0.0366
vn -0.3824 0.9233 -0.0366
vn -0.7066 0.7066 -0.0365
vn -0.9233 0.3824 -0.0365
vn -0.9993 -0.0000 -0.0365
vn -0.9233 -0.3824 -0.0365
vn -0.7066 -0.7066 -0.0366
vn -0.3824 -0.9233 -0.0366
vn -0.0000 -0.9993 -0.0365
vn 0.3824 -0.9233 -0.0366
vn 0.7066 -0.7066 -0.0366
vn 0.9233 -0.3824 -0.0365
vn 0.9993 -0.0000 -0.0365
vn 0.8380 0.3471 -0.4210
vn 0.9071 -0.0000 -0.4210
vn 0.5747 0.2380 -0.7830
vn 0.6221 -0.0000 -0.7830
vn 0.6414 0.6414 -0.4210
vn 0.4398 0.4398 -0.7830
vn 0.3471 0.8380 -0.4210
vn 0.2380 0.5747 -0.7830
vn -0.0000 0.9071 -0.4210
vn -0.0000 0.6221 -0.7830
vn -0.3471 0.8380 -0.4210
vn -0.2380 0.5747 -0.7830
vn -0.6414 0.6414 -0.4210
vn -0.4398 0.4398 -0.7830
vn -0.8380 0.3471 -0.4210
vn -0.5747 0.2380 -0.7830
vn -0.9071 -0.0000 -0.4210
vn -0.6221 -0.0000 -0.7830
vn -0.8380 -0.3471 -0.4209
vn -0.5747 -0.2381 -0.7830
vn -0.6414 -0.6414 -0.4209
vn -0.4398 -0.4398 -0.7830
vn -0.3471 -0.8380 -0.4209
vn -0.2380 -0.5747 -0.7830
vn -0.0000 -0.9071 -0.4210
vn -0.0000 -0.6220 -0.7830
vn 0.3471 -0.8380 -0.4210
vn 0.2380 -0.5747 -0.7830
vn 0.6414 -0.6414 -0.4210
vn 0.4398 -0.4398 -0.7830
vn 0.8380 -0.3471 -0.4210
vn 0.5747 -0.2380 -0.7830
vn 0.0291 0.0121 0.9995
vn 0.0121 0.0291 0.9995
vn -0.0121 0.0291 0.9995
vn -0.0291 0.0121 0.9995
vn -0.0291 -0.0121 0.9995
vn -0.0121 -0.0291 0.9995
vn 0.0121 -0.0291 0.9995
vn 0.0291 -0.0121 0.9995
vt 3.031467 0.106551
vt 3.040919 0.306249
vt 2.990298 0.306249
vt 2.977952 0.106551
vt 3.070473 0.471731
vt 3.028911 0.471731
vt 3.086556 0.578796
vt 3.049927 0.578796
vt 3.787377 0.436986
vt 3.853130 0.436986
vt 3.845330 0.532926
vt 3.787377 0.532926
vt 3.721625 0.436986
vt 3.729424 0.532926
vt 3.680954 0.471731
vt 3.722515 0.471731
vt 3.701500 0.578796
vt 3.664871 0.578796
vt 3.618748 0.471731
vt 3.610043 0.578796
vt 3.545371 0.471731
vt 3.545371 0.578796
vt 3.471992 0.471731
vt 3.480699 0.578796
vt 3.409789 0.471731
vt 3.425870 0.578796
vt 3.368222 0.471731
vt 3.389238 0.578796
vt 3.931598 0.148736
vt 3.865847 0.148736
vt 3.873647 0.052796
vt 3.931598 0.052796
vt 3.997353 0.148736
vt 3.989552 0.052796
vt 3.341638 0.471731
vt 3.383204 0.471731
vt 3.362188 0.578796
vt 3.325556 0.578796
vt 3.279434 0.471731
vt 3.270727 0.578796
vt 3.206055 0.471731
vt 3.206055 0.578796
vt 3.132678 0.471731
vt 3.141383 0.578796
vt 3.267931 0.711247
vt 3.206055 0.711247
vt 3.320386 0.711247
vt 3.355436 0.711247
vt 3.987046 -0.065893
vt 3.931598 -0.065893
vt 3.876153 -0.065893
vt 3.395990 0.711248
vt 3.431038 0.711248
vt 3.483495 0.711248
vt 3.545371 0.711248
vt 3.607247 0.711248
vt 3.659701 0.711248
vt 3.694754 0.711248
vt 3.731931 0.651615
vt 3.787377 0.651615
vt 3.842824 0.651615
vt 3.056673 0.711247
vt 3.091726 0.711247
vt 3.144179 0.711247
vt 3.872045 0.109750
vt 3.867461 0.288698
vt 3.787377 0.288698
vt 3.787377 0.109750
vt 3.707293 0.288698
vt 3.702710 0.109750
vt 3.773475 0.106551
vt 3.761129 0.306249
vt 3.710507 0.306249
vt 3.719959 0.106551
vt 3.634739 0.306249
vt 3.639857 0.106551
vt 3.545371 0.306249
vt 3.545371 0.106551
vt 3.456000 0.306249
vt 3.450880 0.106551
vt 3.380231 0.306249
vt 3.370785 0.106551
vt 3.329610 0.306249
vt 3.317264 0.106551
vt 3.846932 0.475972
vt 3.851515 0.297024
vt 3.931598 0.297024
vt 3.931598 0.475972
vt 4.011683 0.297024
vt 4.016266 0.475972
vt 3.434162 0.106551
vt 3.421816 0.306249
vt 3.371193 0.306249
vt 3.380640 0.106551
vt 3.295424 0.306249
vt 3.300538 0.106551
vt 3.206055 0.306249
vt 3.206055 0.106551
vt 3.116688 0.306249
vt 3.111570 0.106551
vt 3.940734 0.619264
vt 3.996306 0.656398
vt 3.875184 0.777520
vt 3.875184 0.606226
vt 3.809634 0.619264
vt 3.754063 0.656398
vt 3.716932 0.711966
vt 3.703893 0.777520
vt 3.716932 0.843070
vt 3.754063 0.898642
vt 3.809633 0.935769
vt 3.875184 0.948809
vt 3.940736 0.935769
vt 3.996306 0.898642
vt 4.033437 0.843070
vt 4.046476 0.777520
vt 4.033438 0.711968
vt 3.300538 -0.060925
vt 3.380640 -0.060925
vt 3.434162 -0.060925
vt 4.016266 0.626047
vt 3.931598 0.626047
vt 3.846932 0.626047
vt 3.317264 -0.060925
vt 3.370785 -0.060925
vt 3.450880 -0.060925
vt 3.545371 -0.060925
vt 3.639857 -0.060925
vt 3.719959 -0.060925
vt 3.773475 -0.060925
vt 3.702710 -0.040325
vt 3.787377 -0.040325
vt 3.872045 -0.040325
vt 2.977952 -0.060925
vt 3.031467 -0.060925
vt 3.111570 -0.060925
vt 3.206055 -0.060925
vt 3.297954 -0.089458
vt 3.206055 -0.089458
vt 4.053751 0.703553
vt 4.068463 0.777520
vt 3.290892 -0.110345
vt 3.206055 -0.110345
vt 3.375862 -0.089458
vt 3.362810 -0.110345
vt 4.011854 0.640849
vt 3.427918 -0.089458
vt 4.023235 0.629470
vt 3.949149 0.598952
vt 3.955309 0.584083
vt 4.013949 0.651615
vt 3.931598 0.651615
vt 3.875184 0.584241
vt 3.875184 0.568145
vt 3.849249 0.651615
vt 3.801220 0.598952
vt 3.795061 0.584083
vt 3.323508 -0.089458
vt 3.375562 -0.089458
vt 3.738516 0.640849
vt 3.727135 0.629468
vt 3.453468 -0.089458
vt 3.388616 -0.110346
vt 3.460534 -0.110346
vt 3.696619 0.703553
vt 3.545371 -0.089458
vt 3.545371 -0.110346
vt 3.681906 0.777520
vt 3.637269 -0.089458
vt 3.630203 -0.110346
vt 3.696619 0.851482
vt 3.715178 -0.089458
vt 3.702125 -0.110346
vt 3.738516 0.914188
vt 3.767233 -0.089458
vt 3.727134 0.925570
vt 3.801219 0.956084
vt 3.795060 0.970954
vt 3.705027 -0.065893
vt 3.787377 -0.065893
vt 3.875184 0.970794
vt 3.875184 0.986892
vt 3.869727 -0.065893
vt 3.949150 0.956084
vt 3.955309 0.970954
vt 2.984194 -0.089458
vt 3.036248 -0.089458
vt 4.011853 0.914188
vt 4.023234 0.925570
vt 3.114158 -0.089458
vt 3.049302 -0.110345
vt 3.121223 -0.110345
vt 4.053751 0.851482
vt 3.590429 0.720503
vt 3.590429 0.583519
vt 3.642850 0.593948
vt 3.687290 0.623642
vt 3.716985 0.668082
vt 3.727412 0.720505
vt 3.716985 0.772924
vt 3.687292 0.817366
vt 3.642850 0.847060
vt 3.590429 0.857487
vt 3.538008 0.847060
vt 3.493569 0.817366
vt 3.463872 0.772924
vt 3.453447 0.720505
vt 3.463872 0.668082
vt 3.493569 0.623642
vt 3.538008 0.593948
s 1
usemtl M_SoapBottleVolume_5_0
f 1/1/1 2/2/2 3/3/3 4/4/4
f 2/2/2 5/5/5 6/6/6 3/3/3
f 6/6/6 5/5/5 7/7/7 8/8/8
f 9/9/9 6/10/6 8/11/8 10/12/10
f 11/13/11 9/9/9 10/12/10 12/14/12
f 13/15/13 11/16/11 12/17/12 14/18/14
f 15/19/15 13/15/13 14/18/14 16/20/16
f 17/21/17 15/19/15 16/20/16 18/22/18
f 19/23/19 17/21/17 18/22/18 20/24/20
f 21/25/21 19/23/19 20/24/20 22/26/22
f 23/27/23 21/25/21 22/26/22 24/28/24
f 25/29/25 23/30/23 24/31/24 26/32/26
f 27/33/27 25/29/25 26/32/26 28/34/28
f 29/35/29 27/36/27 28/37/28 30/38/30
f 31/39/31 29/35/29 30/38/30 32/40/32
f 33/41/33 31/39/31 32/40/32 34/42/34
f 35/43/35 33/41/33 34/42/34 36/44/36
f 5/5/5 35/43/35 36/44/36 7/7/7
f 32/40/32 37/45/37 38/46/38 34/42/34
f 37/45/37 32/40/32 30/38/30 39/47/39
f 39/47/39 30/38/30 28/37/28 40/48/40
f 40/49/40 28/34/28 26/32/26 41/50/41
f 41/50/41 26/32/26 24/31/24 42/51/42
f 42/52/42 24/28/24 22/26/22 43/53/43
f 43/53/43 22/26/22 20/24/20 44/54/44
f 44/54/44 20/24/20 18/22/18 45/55/45
f 45/55/45 18/22/18 16/20/16 46/56/46
f 46/56/46 16/20/16 14/18/14 47/57/47
f 47/57/47 14/18/14 12/17/12 48/58/48
f 48/59/48 12/14/12 10/12/10 49/60/49
f 49/60/49 10/12/10 8/11/8 50/61/50
f 50/62/50 8/8/8 7/7/7 51/63/51
f 51/63/51 7/7/7 36/44/36 52/64/52
f 52/64/52 36/44/36 34/42/34 38/46/38
f 4/65/4 3/66/3 53/67/53 54/68/54
f 3/66/3 6/10/6 9/9/9 53/67/53
f 54/68/54 53/67/53 55/69/55 56/70/56
f 53/67/53 9/9/9 11/13/11 55/69/55
f 56/71/56 55/72/55 57/73/57 58/74/58
f 55/72/55 11/16/11 13/15/13 57/73/57
f 58/74/58 57/73/57 59/75/59 60/76/60
f 57/73/57 13/15/13 15/19/15 59/75/59
f 60/76/60 59/75/59 61/77/61 62/78/62
f 59/75/59 15/19/15 17/21/17 61/77/61
f 62/78/62 61/77/61 63/79/63 64/80/64
f 61/77/61 17/21/17 19/23/19 63/79/63
f 64/80/64 63/79/63 65/81/65 66/82/66
f 63/79/63 19/23/19 21/25/21 65/81/65
f 66/82/66 65/81/65 67/83/67 68/84/68
f 65/81/65 21/25/21 23/27/23 67/83/67
f 68/85/68 67/86/67 69/87/69 70/88/70
f 67/86/67 23/30/23 25/29/25 69/87/69
f 70/88/70 69/87/69 71/89/71 72/90/72
f 69/87/69 25/29/25 27/33/27 71/89/71
f 72/91/72 71/92/71 73/93/73 74/94/74
f 71/92/71 27/36/27 29/35/29 73/93/73
f 74/94/74 73/93/73 75/95/75 76/96/76
f 73/93/73 29/35/29 31/39/31 75/95/75
f 76/96/76 75/95/75 77/97/77 78/98/78
f 75/95/75 31/39/31 33/41/33 77/97/77
f 78/98/78 77/97/77 79/99/79 80/100/80
f 77/97/77 33/41/33 35/43/35 79/99/79
f 5/5/5 2/2/2 79/99/79 35/43/35
f 2/2/2 1/1/1 80/100/80 79/99/79
f 82/101/81 81/102/82 83/103/83 84/104/84
f 85/105/85 84/104/84 83/103/83 86/106/86
f 87/107/87 86/106/86 83/103/83 88/108/88
f 89/109/89 88/108/88 83/103/83 90/110/90
f 91/111/91 90/110/90 83/103/83 92/112/92
f 93/113/93 92/112/92 83/103/83 94/114/94
f 95/115/95 94/114/94 83/103/83 96/116/96
f 97/117/97 96/116/96 83/103/83 81/102/82
f 99/118/98 98/119/99 74/94/74 76/96/76
f 98/119/99 100/120/100 72/91/72 74/94/74
f 100/121/100 101/122/101 70/88/70 72/90/72
f 101/122/101 102/123/102 68/85/68 70/88/70
f 102/124/102 103/125/103 66/82/66 68/84/68
f 103/125/103 104/126/104 64/80/64 66/82/66
f 104/126/104 105/127/105 62/78/62 64/80/64
f 105/127/105 106/128/106 60/76/60 62/78/62
f 106/128/106 107/129/107 58/74/58 60/76/60
f 107/129/107 108/130/108 56/71/56 58/74/58
f 108/131/108 109/132/109 54/68/54 56/70/56
f 109/132/109 110/133/110 4/65/4 54/68/54
f 110/134/110 111/135/111 1/1/1 4/4/4
f 111/135/111 112/136/112 80/100/80 1/1/1
f 112/136/112 113/137/113 78/98/78 80/100/80
f 113/137/113 99/118/98 76/96/76 78/98/78
f 114/138/114 99/118/98 113/137/113 115/139/115
f 97/117/97 116/140/116 117/141/117 96/116/96
f 116/142/116 114/138/114 115/139/115 117/143/117
f 99/118/98 114/138/114 118/144/118 98/119/99
f 114/138/114 116/142/116 119/145/119 118/144/118
f 116/140/116 97/117/97 81/102/82 119/146/119
f 98/119/99 118/144/118 120/147/120 100/120/100
f 118/148/118 119/146/119 121/149/121 120/150/120
f 119/146/119 81/102/82 82/101/81 121/149/121
f 100/121/100 120/151/120 122/152/122 101/122/101
f 120/150/120 121/149/121 123/153/123 122/154/122
f 121/149/121 82/101/81 84/104/84 123/153/123
f 101/122/101 122/152/122 124/155/124 102/123/102
f 122/154/122 123/153/123 125/156/125 124/157/124
f 123/153/123 84/104/84 85/105/85 125/156/125
f 102/124/102 124/158/124 126/159/126 103/125/103
f 124/157/124 125/156/125 127/160/127 126/161/126
f 125/156/125 85/105/85 86/106/86 127/160/127
f 103/125/103 126/159/126 128/162/128 104/126/104
f 126/159/126 127/163/127 129/164/129 128/162/128
f 127/160/127 86/106/86 87/107/87 129/165/129
f 104/126/104 128/162/128 130/166/130 105/127/105
f 128/162/128 129/164/129 131/167/131 130/166/130
f 129/165/129 87/107/87 88/108/88 131/168/131
f 105/127/105 130/166/130 132/169/132 106/128/106
f 130/166/130 131/167/131 133/170/133 132/169/132
f 131/168/131 88/108/88 89/109/89 133/171/133
f 106/128/106 132/169/132 134/172/134 107/129/107
f 132/169/132 133/170/133 135/173/135 134/172/134
f 133/171/133 89/109/89 90/110/90 135/174/135
f 107/129/107 134/172/134 136/175/136 108/130/108
f 134/176/134 135/174/135 137/177/137 136/178/136
f 135/174/135 90/110/90 91/111/91 137/177/137
f 108/131/108 136/179/136 138/180/138 109/132/109
f 136/178/136 137/177/137 139/181/139 138/182/138
f 137/177/137 91/111/91 92/112/92 139/181/139
f 109/132/109 138/180/138 140/183/140 110/133/110
f 138/182/138 139/181/139 141/184/141 140/185/140
f 139/181/139 92/112/92 93/113/93 141/184/141
f 110/134/110 140/186/140 142/187/142 111/135/111
f 140/185/140 141/184/141 143/188/143 142/189/142
f 141/184/141 93/113/93 94/114/94 143/188/143
f 111/135/111 142/187/142 144/190/144 112/136/112
f 142/187/142 143/191/143 145/192/145 144/190/144
f 143/188/143 94/114/94 95/115/95 145/193/145
f 112/136/112 144/190/144 115/139/115 113/137/113
f 144/190/144 145/192/145 117/143/117 115/139/115
f 145/193/145 95/115/95 96/116/96 117/141/117
f 146/194/146 38/195/146 37/196/146 39/197/146
f 146/194/147 39/197/147 40/198/147 41/199/147
f 146/194/148 41/199/148 42/200/148 43/201/148
f 146/194/149 43/201/149 44/202/149 45/203/149
f 146/194/150 45/203/150 46/204/150 47/205/150
f 146/194/151 47/205/151 48/206/151 49/207/151
f 146/194/152 49/207/152 50/208/152 51/209/152
f 146/194/153 51/209/153 52/210/153 38/195/153
