# Blender 4.1.1
# www.blender.org
mtllib SinkFaucetKnobR_15_SinkFaucetKnobR_15_2.mtl
o SinkFaucetKnobR_15
v -0.177836 0.012666 -0.005561
v -0.177836 -0.012669 -0.005561
v -0.286025 0.000000 -0.005561
v -0.184170 0.010971 -0.011896
v -0.188806 0.006330 -0.016531
v -0.190503 0.000000 -0.018228
v -0.188806 -0.006334 -0.016531
v -0.184167 -0.010969 -0.011896
v -0.166866 0.006330 -0.016531
v -0.171503 0.010971 -0.011896
v -0.165169 0.000000 -0.018228
v -0.166866 -0.006334 -0.016531
v -0.171506 -0.010969 -0.011896
v -0.139441 0.000000 -0.005562
v -0.177836 -0.010973 0.000771
v -0.177836 -0.006334 0.005408
v -0.177837 -0.000000 0.007106
v -0.177837 0.006330 0.005408
v -0.177837 0.010971 0.000771
v -0.286025 0.009874 -0.011263
v -0.284802 0.010971 -0.011896
v -0.286025 0.005700 -0.015434
v -0.284802 0.006330 -0.016531
v -0.286025 0.000000 -0.016962
v -0.284802 0.000000 -0.018228
v -0.286025 0.009874 0.000138
v -0.284802 0.010971 0.000771
v -0.286025 0.011400 -0.005562
v -0.284802 0.012666 -0.005562
v -0.286025 -0.005703 -0.015434
v -0.284802 -0.006334 -0.016531
v -0.286025 -0.009874 -0.011263
v -0.284802 -0.010973 -0.011896
v -0.286025 -0.000000 0.005840
v -0.284802 -0.000000 0.007106
v -0.286025 0.005700 0.004312
v -0.284802 0.006330 0.005408
v -0.286025 -0.011403 -0.005562
v -0.284802 -0.012669 -0.005562
v -0.286025 -0.009874 0.000138
v -0.284802 -0.010973 0.000771
v -0.286025 -0.005703 0.004312
v -0.284802 -0.006334 0.005408
v -0.139441 0.005700 0.004312
v -0.140664 0.006330 0.005408
v -0.140664 0.010971 0.000771
v -0.139441 0.009874 0.000138
v -0.139441 -0.000000 0.005840
v -0.140664 -0.000000 0.007106
v -0.139441 -0.005703 0.004312
v -0.140664 -0.006334 0.005408
v -0.139441 -0.009874 0.000138
v -0.140664 -0.010973 0.000771
v -0.139441 0.011400 -0.005562
v -0.140664 0.012666 -0.005562
v -0.140664 0.010971 -0.011896
v -0.139441 0.009874 -0.011263
v -0.140664 0.006330 -0.016531
v -0.139441 0.005700 -0.015434
v -0.140664 0.000000 -0.018228
v -0.139441 0.000000 -0.016962
v -0.140664 -0.006334 -0.016531
v -0.139441 -0.005703 -0.015434
v -0.139441 -0.009874 -0.011263
v -0.140664 -0.010973 -0.011896
v -0.140664 -0.012669 -0.005562
v -0.139441 -0.011403 -0.005562
v -0.184170 0.010971 -0.063709
v -0.188806 0.006330 -0.063709
v -0.190503 0.000000 -0.063709
v -0.188806 -0.006334 -0.063709
v -0.184170 -0.010969 -0.063709
v -0.166866 0.006330 -0.063709
v -0.171503 0.010971 -0.063709
v -0.165169 0.000000 -0.063709
v -0.166866 -0.006334 -0.063709
v -0.171503 -0.010969 -0.063709
v -0.177836 -0.012669 -0.063709
v -0.177836 0.012666 -0.063709
vn 0.4085 -0.9127 -0.0000
vn 0.8348 -0.5505 -0.0000
vn 0.8697 -0.4936 -0.0000
vn 0.5097 -0.8603 -0.0000
vn 1.0000 -0.0001 -0.0000
vn 0.8346 0.5509 -0.0000
vn 0.8695 0.4940 -0.0000
vn 0.4088 0.9126 -0.0000
vn 0.5097 0.8603 -0.0000
vn -0.8348 -0.5505 -0.0000
vn -0.4085 -0.9128 -0.0000
vn -0.5096 -0.8604 -0.0000
vn -0.8696 -0.4937 -0.0000
vn -1.0000 -0.0001 -0.0000
vn -0.8346 0.5509 -0.0000
vn -0.8695 0.4940 -0.0000
vn -0.4088 0.9126 -0.0000
vn -0.5097 0.8604 -0.0000
vn -0.0000 1.0000 -0.0000
vn -0.0000 -1.0000 -0.0000
vn 0.7869 -0.5344 0.3086
vn 0.7747 -0.3161 0.5476
vn 0.5814 -0.4040 0.7062
vn 0.5815 -0.7021 0.4110
vn 0.5818 -0.8133 0.0026
vn 0.7747 -0.6323 -0.0000
vn 0.7870 -0.0001 0.6170
vn 0.5812 -0.0001 0.8137
vn 0.7749 0.3161 0.5475
vn 0.5815 0.4041 0.7061
vn 0.7869 -0.5344 -0.3085
vn 0.5818 -0.7044 -0.4066
vn 0.5819 -0.4065 -0.7044
vn 0.7747 -0.3163 -0.5475
vn 0.7871 0.5341 0.3084
vn 0.5816 0.7020 0.4109
vn 0.7751 0.6319 0.0001
vn 0.5822 0.8130 0.0026
vn 0.7870 -0.0000 -0.6170
vn 0.5819 -0.0002 -0.8133
vn 0.5820 0.4065 -0.7043
vn 0.7748 0.3162 -0.5475
vn 0.7871 0.5341 -0.3084
vn 0.5820 0.7043 -0.4065
vn -0.7746 -0.3163 -0.5476
vn -0.7869 -0.0001 -0.6171
vn -0.5722 -0.0001 -0.8201
vn -0.5722 -0.4099 -0.7104
vn -0.5721 -0.7104 -0.4100
vn -0.7868 -0.5345 -0.3085
vn -0.5715 -0.8205 0.0077
vn -0.7747 -0.6323 -0.0000
vn -0.7747 0.3162 -0.5475
vn -0.5723 0.4100 -0.7102
vn -0.7871 0.5342 -0.3085
vn -0.5723 0.7103 -0.4099
vn -0.7750 0.6320 -0.0000
vn -0.5719 0.8203 0.0077
vn -0.5692 -0.7043 0.4243
vn -0.7868 -0.5344 0.3086
vn -0.5667 -0.4029 0.7187
vn -0.7747 -0.3162 0.5476
vn -0.5655 -0.0001 0.8248
vn -0.7870 -0.0001 0.6170
vn -0.5668 0.4030 0.7186
vn -0.7748 0.3161 0.5475
vn -0.5694 0.7042 0.4241
vn -0.7871 0.5341 0.3085
vn 1.0000 -0.0000 -0.0000
vn -0.0000 -0.5532 0.8330
vn -0.0000 -0.9146 0.4045
vn -0.0000 -0.0001 1.0000
vn -0.0000 -0.9966 -0.0819
vn -0.0000 0.5535 0.8329
vn -0.0000 0.9966 -0.0818
vn -0.0000 0.9145 0.4046
vn -0.0000 -0.8660 -0.5000
vn -0.0000 -0.5000 -0.8661
vn -0.0000 -0.0001 -1.0000
vn -0.0000 0.5000 -0.8660
vn -0.0000 0.8660 -0.5000
vn -0.0000 -0.9102 0.4141
vn -0.0000 -0.5462 0.8377
vn -0.0000 0.5463 0.8376
vn -0.0000 0.9102 0.4142
vn -1.0000 -0.0000 -0.0000
vt -19.082802 0.713097
vt -19.094721 0.701189
vt -19.094721 0.579986
vt -19.082802 0.579986
vt -19.110985 0.696829
vt -19.110985 0.579986
vt -19.127258 0.701189
vt -19.127258 0.579986
vt -19.139164 0.713094
vt -19.139164 0.579986
vt -19.244146 0.921481
vt -19.256069 0.933392
vt -19.256069 0.800256
vt -19.244146 0.800256
vt -19.227879 0.917120
vt -19.227879 0.800256
vt -19.211603 0.921481
vt -19.211603 0.800256
vt -19.199694 0.933389
vt -19.199694 0.800256
vt -19.911745 0.435045
vt -19.788187 0.435052
vt -19.773079 0.450149
vt -19.911745 0.450149
vt -19.788187 0.465245
vt -19.911745 0.465251
vt -19.423923 0.450151
vt -19.562586 0.450151
vt -19.547483 0.435046
vt -19.423923 0.435046
vt -19.423923 0.465250
vt -19.547483 0.465250
vt -19.484182 0.775755
vt -19.494339 0.785920
vt -19.497009 0.784383
vt -19.485723 0.773086
vt -19.470303 0.768960
vt -19.470303 0.772040
vt -19.498055 0.799795
vt -19.501141 0.799795
vt -19.494339 0.813679
vt -19.497009 0.815216
vt -19.456427 0.775755
vt -19.454887 0.773086
vt -19.443596 0.784383
vt -19.446264 0.785920
vt -19.484182 0.823836
vt -19.485723 0.826510
vt -19.470303 0.827557
vt -19.470303 0.830637
vt -19.442549 0.799795
vt -19.439465 0.799795
vt -19.443596 0.815216
vt -19.446264 0.813679
vt -19.456427 0.823836
vt -19.454887 0.826510
vt -19.580357 0.813676
vt -19.576637 0.799803
vt -19.573555 0.799803
vt -19.577686 0.815213
vt -19.588976 0.826508
vt -19.590515 0.823840
vt -19.604391 0.830634
vt -19.604391 0.827553
vt -19.580357 0.785922
vt -19.577686 0.784385
vt -19.590515 0.775768
vt -19.588976 0.773092
vt -19.604391 0.772047
vt -19.604391 0.768965
vt -19.619810 0.826508
vt -19.618267 0.823840
vt -19.631092 0.815213
vt -19.628424 0.813676
vt -19.635223 0.799803
vt -19.632141 0.799803
vt -19.631092 0.784385
vt -19.628424 0.785922
vt -19.619810 0.773092
vt -19.618267 0.775768
vt -19.470303 0.799795
vt -19.172823 0.127697
vt -19.172823 0.373975
vt -19.184729 0.385870
vt -19.184729 0.127697
vt -19.156580 0.127697
vt -19.156580 0.369623
vt -19.547483 0.195075
vt -19.562586 0.195075
vt -19.140329 0.127697
vt -19.140329 0.373975
vt -19.773079 0.195067
vt -19.788185 0.195067
vt -19.246515 0.182254
vt -19.246515 0.456346
vt -19.258406 0.456346
vt -19.258406 0.182254
vt -19.274630 0.456346
vt -19.274630 0.182254
vt -19.290861 0.456349
vt -19.290861 0.182254
vt -19.302748 0.456349
vt -19.302748 0.182254
vt -19.547483 0.538798
vt -19.562586 0.538798
vt -19.373043 0.774049
vt -19.361097 0.785989
vt -19.361097 0.853444
vt -19.373043 0.853444
vt -19.344799 0.790356
vt -19.344799 0.853444
vt -19.328493 0.785989
vt -19.328493 0.853444
vt -19.773079 0.538795
vt -19.788185 0.538795
vt -19.604391 0.799803
vt -19.128428 0.127697
vt -19.128439 0.385877
vt -19.316559 0.774044
vt -19.316551 0.853444
vt -19.577688 0.450146
vt -19.577688 0.195075
vt -19.757980 0.195067
vt -19.757980 0.450149
vt -19.757980 0.538795
vt -19.290861 0.551602
vt -19.302748 0.551602
vt -19.274630 0.551602
vt -19.258406 0.551602
vt -19.246515 0.551602
vt -19.577688 0.538798
s 1
usemtl M_SinkFaucetKnobR_15_0
f 4/1/1 5/2/2 69/3/3 68/4/4
f 5/2/2 6/5/5 70/6/5 69/3/3
f 6/5/5 7/7/6 71/8/7 70/6/5
f 7/7/6 8/9/8 72/10/9 71/8/7
f 9/11/10 10/12/11 74/13/12 73/14/13
f 11/15/14 9/11/10 73/14/13 75/16/14
f 12/17/15 11/15/14 75/16/14 76/18/16
f 13/19/17 12/17/15 76/18/16 77/20/18
f 72/21/9 8/22/8 2/23/19 78/24/19
f 78/24/19 2/23/19 13/25/17 77/26/18
f 79/27/20 1/28/20 4/29/1 68/30/4
f 74/31/12 10/32/11 1/28/20 79/27/20
f 20/33/21 22/34/22 23/35/23 21/36/24
f 21/36/24 29/37/25 28/38/26 20/33/21
f 22/34/22 24/39/27 25/40/28 23/35/23
f 24/39/27 30/41/29 31/42/30 25/40/28
f 26/43/31 28/38/26 29/37/25 27/44/32
f 27/44/32 37/45/33 36/46/34 26/43/31
f 30/41/29 32/47/35 33/48/36 31/42/30
f 32/47/35 38/49/37 39/50/38 33/48/36
f 34/51/39 36/46/34 37/45/33 35/52/40
f 35/52/40 43/53/41 42/54/42 34/51/39
f 38/49/37 40/55/43 41/56/44 39/50/38
f 40/55/43 42/54/42 43/53/41 41/56/44
f 44/57/45 48/58/46 49/59/47 45/60/48
f 45/60/48 46/61/49 47/62/50 44/57/45
f 46/61/49 55/63/51 54/64/52 47/62/50
f 48/58/46 50/65/53 51/66/54 49/59/47
f 50/65/53 52/67/55 53/68/56 51/66/54
f 52/67/55 67/69/57 66/70/58 53/68/56
f 55/63/51 56/71/59 57/72/60 54/64/52
f 56/71/59 58/73/61 59/74/62 57/72/60
f 58/73/61 60/75/63 61/76/64 59/74/62
f 60/75/63 62/77/65 63/78/66 61/76/64
f 62/77/65 65/79/67 64/80/68 63/78/66
f 65/79/67 66/70/58 67/69/57 64/80/68
f 3/81/69 24/39/27 22/34/22 20/33/21
f 3/81/69 20/33/21 28/38/26 26/43/31
f 3/81/69 32/47/35 30/41/29 24/39/27
f 3/81/69 26/43/31 36/46/34 34/51/39
f 3/81/69 40/55/43 38/49/37 32/47/35
f 23/82/23 5/83/70 4/84/71 21/85/24
f 25/86/28 6/87/72 5/83/70 23/82/23
f 3/81/69 34/51/39 42/54/42 40/55/43
f 21/88/24 4/29/71 1/28/73 29/89/25
f 31/90/30 7/91/74 6/87/72 25/86/28
f 39/92/38 2/23/75 8/22/76 33/93/36
f 27/94/32 19/95/77 18/96/78 37/97/33
f 37/97/33 18/96/78 17/98/79 35/99/40
f 35/99/40 17/98/79 16/100/80 43/101/41
f 43/101/41 16/100/80 15/102/81 41/103/44
f 1/28/73 10/32/82 56/104/59 55/105/51
f 10/106/82 9/107/83 58/108/61 56/109/59
f 9/107/83 11/110/72 60/111/63 58/108/61
f 11/110/72 12/112/84 62/113/65 60/111/63
f 13/25/85 2/23/75 66/114/58 65/115/67
f 14/116/86 57/72/60 59/74/62 61/76/64
f 14/116/86 47/62/50 54/64/52 57/72/60
f 14/116/86 61/76/64 63/78/66 64/80/68
f 14/116/86 48/58/46 44/57/45 47/62/50
f 14/116/86 64/80/68 67/69/57 52/67/55
f 14/116/86 52/67/55 50/65/53 48/58/46
f 33/117/36 8/118/76 7/91/74 31/90/30
f 12/112/84 13/119/85 65/120/67 62/113/65
f 29/89/25 1/28/73 19/121/77 27/122/32
f 39/92/38 41/123/44 15/124/81 2/23/75
f 15/124/81 53/125/56 66/114/58 2/23/75
f 16/100/80 51/126/54 53/127/56 15/102/81
f 17/98/79 49/128/47 51/126/54 16/100/80
f 18/96/78 45/129/48 49/128/47 17/98/79
f 19/95/77 46/130/49 45/129/48 18/96/78
f 1/28/73 55/105/51 46/131/49 19/121/77
