# Blender 4.1.1
# www.blender.org
mtllib MeshFootstool_1_2_0_GeomSubset_0.mtl
o MeshFootstool_1_2_0_GeomSubset_0
v -0.131948 -0.138239 -0.154799
v 0.131949 -0.138239 -0.154799
v 0.131949 -0.138290 -0.004476
v -0.131948 -0.138290 -0.004476
v -0.129892 -0.136235 -0.000164
v 0.129892 -0.136235 -0.000164
v 0.138237 -0.132002 -0.004474
v 0.138237 -0.131951 -0.154797
v 0.132194 -0.132194 -0.160840
v -0.138236 -0.131951 -0.154797
v -0.132194 -0.132194 -0.160840
v -0.138236 -0.132002 -0.004474
v 0.136180 -0.129948 -0.000162
v -0.136180 -0.129948 -0.000162
v -0.131948 0.138182 -0.004380
v -0.129892 0.136125 -0.000070
v 0.129892 0.136125 -0.000070
v 0.131949 0.138182 -0.004380
v 0.131949 0.138235 -0.154703
v -0.131948 0.138235 -0.154703
v 0.138237 0.131947 -0.154706
v 0.132194 0.132195 -0.160748
v 0.138237 0.131895 -0.004382
v -0.132194 0.132195 -0.160748
v -0.138236 0.131947 -0.154706
v -0.138236 0.131895 -0.004382
v 0.136180 0.129838 -0.000072
v -0.136180 0.129838 -0.000072
v -0.125550 0.131782 0.004240
v -0.131838 0.125493 0.004238
v -0.131838 -0.125607 0.004151
v -0.125550 -0.131895 0.004149
v 0.125550 0.131782 0.004240
v 0.125550 -0.131895 0.004149
v 0.131838 0.125493 0.004238
v 0.131838 -0.125607 0.004151
v 0.133645 0.127832 0.003814
v 0.133645 0.127826 0.021927
v 0.133645 -0.127952 0.021838
v 0.133645 -0.127944 0.003725
v 0.126972 -0.121282 0.030952
v 0.126972 0.121150 0.031036
v 0.121216 -0.127037 0.030950
v 0.112197 -0.118021 0.037135
v -0.112197 -0.118021 0.037135
v -0.121215 -0.127037 0.030950
v -0.084484 -0.090310 0.042731
v 0.084484 -0.090310 0.042731
v 0.084484 0.090171 0.042794
v -0.084484 0.090171 0.042794
v -0.090241 -0.084554 0.042733
v -0.090241 0.084414 0.042792
v 0.090241 0.084414 0.042792
v 0.090241 -0.084554 0.042733
v -0.112197 0.117886 0.037217
v 0.112197 0.117886 0.037217
v -0.121215 0.126907 0.031038
v 0.121216 0.126907 0.031038
v 0.117953 0.112129 0.037215
v 0.117953 -0.112264 0.037137
v -0.117953 -0.112264 0.037137
v -0.117953 0.112129 0.037215
v -0.126972 -0.121282 0.030952
v -0.126972 0.121150 0.031036
v -0.127888 0.133583 0.021929
v -0.133645 0.127826 0.021927
v 0.127889 0.133583 0.021929
v -0.133645 -0.127952 0.021838
v -0.127888 -0.133707 0.021836
v 0.127889 -0.133707 0.021836
v 0.127889 -0.133701 0.003723
v -0.127888 -0.133701 0.003723
v -0.133645 -0.127944 0.003725
v 0.127889 0.133589 0.003816
v -0.127888 0.133589 0.003816
v -0.133645 0.127832 0.003814
v -0.131960 0.127135 0.002129
v -0.127191 0.131904 0.002130
v 0.127191 0.131904 0.002130
v 0.131961 0.127135 0.002129
v -0.131960 -0.127246 0.002041
v -0.127191 -0.132017 0.002039
v 0.127191 -0.132017 0.002039
v 0.131961 -0.127246 0.002041
vn -0.0229 0.9994 -0.0270
vn 0.0233 0.9997 0.0099
vn 0.0229 0.9994 -0.0270
vn -0.0233 0.9997 0.0099
vn 0.0233 0.6370 -0.7705
vn -0.0233 0.6370 -0.7705
vn -0.0189 0.9707 -0.2397
vn 0.0189 0.9706 -0.2398
vn -0.9994 0.0228 -0.0273
vn -0.9997 0.0232 0.0096
vn -0.0231 0.9997 0.0099
vn -0.0228 0.9994 -0.0269
vn -0.6649 0.6650 -0.3402
vn -0.6951 -0.2816 0.6615
vn 0.2815 0.6948 0.6618
vn 0.0221 0.9995 0.0223
vn -0.0229 0.0268 0.9994
vn 0.0230 0.0268 0.9994
vn 0.9997 0.0231 0.0096
vn 0.9994 0.0229 -0.0273
vn 0.0228 0.9994 -0.0270
vn 0.6648 0.6651 -0.3402
vn -0.2814 0.6949 0.6618
vn 0.6951 -0.2816 0.6615
vn -0.0221 0.9995 0.0223
vn 0.0231 0.9997 0.0099
vn -0.2903 0.6863 -0.6668
vn 0.9376 0.1592 -0.3090
vn 0.6861 -0.2900 -0.6672
vn -0.6861 -0.2901 -0.6672
vn -0.1591 0.9377 -0.3087
vn 0.2903 0.6864 -0.6667
vn -0.9376 0.1591 -0.3091
vn 0.1590 0.9377 -0.3089
vn -0.0233 -0.6367 -0.7708
vn 0.0189 -0.9706 -0.2402
vn -0.0189 -0.9705 -0.2402
vn 0.0233 -0.6366 -0.7709
vn 0.0229 -0.9994 -0.0276
vn 0.0233 -0.9997 0.0093
vn -0.0233 -0.9997 0.0093
vn -0.0229 -0.9994 -0.0277
vn -0.9997 -0.0231 0.0095
vn -0.9994 -0.0228 -0.0273
vn -0.0228 -0.9994 -0.0277
vn -0.6647 -0.6648 -0.3408
vn 0.2814 -0.6954 0.6613
vn -0.6950 0.2812 0.6617
vn -0.0231 -0.9997 0.0093
vn -0.9377 -0.1590 -0.3091
vn -0.6862 0.2905 -0.6669
vn 0.2902 -0.6860 -0.6672
vn -0.0220 -0.9995 0.0215
vn 0.0229 -0.0276 0.9994
vn -0.0229 -0.0276 0.9994
vn 0.0221 -0.9995 0.0215
vn 0.6649 -0.6647 -0.3408
vn 0.6951 0.2811 0.6617
vn -0.2814 -0.6954 0.6612
vn 0.0231 -0.9997 0.0093
vn 0.9994 -0.0228 -0.0274
vn 0.9997 -0.0231 0.0096
vn 0.0228 -0.9994 -0.0276
vn -0.1590 -0.9375 -0.3094
vn 0.1592 -0.9375 -0.3093
vn 0.6862 0.2905 -0.6669
vn 0.9377 -0.1590 -0.3091
vn -0.2902 -0.6860 -0.6672
vn 0.6366 -0.0230 -0.7708
vn 0.9705 0.0190 -0.2402
vn 0.9705 -0.0189 -0.2402
vn 0.6366 0.0236 -0.7708
vn 0.9994 0.0230 -0.0273
vn 0.9997 0.0233 0.0096
vn 0.9997 -0.0233 0.0096
vn 0.9994 -0.0229 -0.0273
vn 0.9995 -0.0220 0.0219
vn 0.0272 0.0225 0.9994
vn 0.0272 -0.0233 0.9994
vn 0.9995 0.0221 0.0219
vn -0.9994 -0.0229 -0.0273
vn -0.9997 0.0233 0.0096
vn -0.9994 0.0229 -0.0273
vn -0.9997 -0.0233 0.0096
vn -0.6366 0.0235 -0.7708
vn -0.6366 -0.0230 -0.7708
vn -0.9705 -0.0189 -0.2402
vn -0.9705 0.0190 -0.2402
vn -0.9995 0.0220 0.0219
vn -0.0272 -0.0232 0.9994
vn -0.0272 0.0226 0.9994
vn -0.9995 -0.0221 0.0219
vn -0.0004 0.0163 -0.9999
vn -0.0160 -0.0000 -0.9999
vn -0.0160 0.0007 -0.9999
vn -0.0004 -0.0156 -0.9999
vn 0.0004 0.0163 -0.9999
vn 0.0004 -0.0156 -0.9999
vn 0.0160 0.0007 -0.9999
vn 0.0159 -0.0001 -0.9999
vn 0.0189 0.5978 -0.8014
vn -0.0004 0.9997 -0.0227
vn 0.0004 0.9997 -0.0227
vn -0.6517 -0.1265 -0.7478
vn -0.6700 0.6545 -0.3503
vn -0.6544 0.6701 -0.3503
vn -0.0189 0.5978 -0.8014
vn -0.0189 -0.5973 -0.8018
vn 0.0004 -0.9997 -0.0232
vn -0.0004 -0.9997 -0.0233
vn 0.6545 -0.6698 -0.3507
vn 0.6517 0.1271 -0.7478
vn 0.6701 -0.6542 -0.3507
vn 0.0189 -0.5974 -0.8017
vn 0.5975 -0.0187 -0.8016
vn 0.9997 0.0004 -0.0230
vn 0.9997 -0.0004 -0.0230
vn -0.1268 0.6520 -0.7476
vn 0.6699 0.6546 -0.3503
vn 0.6517 -0.1265 -0.7478
vn 0.6544 0.6701 -0.3503
vn 0.5976 0.0192 -0.8016
vn -0.1268 -0.6515 -0.7480
vn -0.5976 0.0192 -0.8016
vn -0.9997 -0.0004 -0.0230
vn -0.9997 0.0005 -0.0230
vn -0.6700 -0.6543 -0.3507
vn 0.1267 -0.6514 -0.7480
vn -0.6544 -0.6698 -0.3508
vn -0.6518 0.1269 -0.7477
vn -0.5975 -0.0187 -0.8016
vn 0.1268 0.6520 -0.7475
vn 0.0221 0.0217 0.9995
vn -0.0221 -0.0224 0.9995
vn 0.0221 -0.0225 0.9995
vn -0.0221 0.0218 0.9995
vt 0.341606 0.289028
vt 0.077709 0.439351
vt 0.077709 0.289028
vt 0.341606 0.439351
vt 0.339550 0.443662
vt 0.079765 0.443662
vt 0.071421 0.439351
vt 0.071421 0.289028
vt 0.077463 0.282985
vt 0.347894 0.289028
vt 0.341851 0.282985
vt 0.347894 0.439351
vt 0.073477 0.443662
vt 0.345838 0.443662
vt 0.950782 0.439351
vt 1.212623 0.443662
vt 0.952838 0.443662
vt 1.214679 0.439351
vt 1.214679 0.289028
vt 0.950782 0.289028
vt 0.950536 0.282985
vt 1.214924 0.282985
vt 0.335207 1.142718
vt 0.341496 0.885330
vt 0.341496 1.136430
vt 0.335207 0.879042
vt 0.084107 1.142718
vt 0.084107 0.879042
vt 0.077819 1.136430
vt 0.077819 0.885330
vt 0.079765 0.874700
vt 0.339550 0.874700
vt 0.339550 1.147060
vt 0.079765 1.147060
vt 0.345838 0.880988
vt 0.345838 1.140772
vt 0.073477 1.140772
vt 0.073477 0.880988
vt 0.077463 1.143074
vt 0.341851 0.878686
vt 0.077463 0.878686
vt 0.341851 1.143074
s 1
usemtl M_Footstool_1_2_0
f 1/1/1 3/2/2 2/3/3
f 1/1/1 4/4/4 3/2/2
f 3/2/5 4/4/6 5/5/7
f 3/2/5 5/5/7 6/6/8
f 2/3/9 3/2/10 7/7/11
f 2/3/9 7/7/11 8/8/12
f 9/9/13 2/3/14 8/8/15
f 9/9/16 1/1/17 2/3/18
f 4/4/19 1/1/20 10/10/21
f 11/11/22 10/10/23 1/1/24
f 9/9/16 11/11/25 1/1/17
f 4/4/19 10/10/21 12/12/26
f 12/12/27 5/5/28 4/4/29
f 3/2/30 13/13/31 7/7/32
f 3/2/30 6/6/33 13/13/31
f 12/12/27 14/14/34 5/5/28
f 15/4/35 17/6/36 16/5/37
f 15/4/35 18/2/38 17/6/36
f 19/3/39 18/2/40 15/4/41
f 19/3/39 15/4/41 20/1/42
f 18/2/43 19/3/44 21/8/45
f 22/9/46 21/8/47 19/3/48
f 18/2/43 21/8/45 23/7/49
f 17/6/50 18/2/51 23/7/52
f 24/11/53 19/3/54 20/1/55
f 24/11/53 22/9/56 19/3/54
f 24/11/57 20/1/58 25/10/59
f 26/12/60 20/1/61 15/4/62
f 26/12/60 25/10/63 20/1/61
f 17/6/50 23/7/52 27/13/64
f 28/14/65 15/4/66 16/5/67
f 28/14/65 26/12/68 15/4/66
f 12/15/69 28/16/70 14/17/71
f 12/15/69 26/18/72 28/16/70
f 25/19/73 26/18/74 12/15/75
f 25/19/73 12/15/75 10/20/76
f 11/21/77 25/19/78 10/20/79
f 11/21/77 24/22/80 25/19/78
f 8/20/81 23/18/82 21/19/83
f 8/20/81 7/15/84 23/18/82
f 23/18/85 7/15/86 13/17/87
f 23/18/85 13/17/87 27/16/88
f 22/22/89 8/20/90 21/19/91
f 22/22/89 9/21/92 8/20/90
f 29/23/93 31/24/94 30/25/95
f 31/24/94 29/23/93 32/26/96
f 32/26/96 29/23/93 33/27/97
f 32/26/96 33/27/97 34/28/98
f 34/28/98 33/27/97 35/29/99
f 34/28/98 35/29/99 36/30/100
f 6/31/101 32/26/102 34/28/103
f 6/31/104 34/28/105 36/30/106
f 6/31/101 5/32/107 32/26/102
f 16/33/108 33/27/109 29/23/110
f 30/25/111 16/33/112 29/23/113
f 16/33/108 17/34/114 33/27/109
f 14/35/115 30/25/116 31/24/117
f 14/35/118 32/26/119 5/32/120
f 14/35/118 31/24/121 32/26/119
f 14/35/115 28/36/122 30/25/116
f 30/25/111 28/36/123 16/33/112
f 27/37/124 36/30/125 35/29/126
f 33/27/127 27/37/128 35/29/129
f 33/27/127 17/34/130 27/37/128
f 27/37/124 13/38/131 36/30/125
f 6/31/104 36/30/106 13/38/132
f 22/39/133 11/40/134 9/41/135
f 22/39/133 24/42/136 11/40/134
