# Blender 4.1.0
# www.blender.org
mtllib MeshFootstool_1_2_0_GeomSubset_1.mtl
o MeshFootstool_1_2_0_GeomSubset_1
v 0.131948 -0.138239 -0.154799
v -0.131949 -0.138239 -0.154799
v -0.131949 -0.138290 -0.004476
v 0.131948 -0.138290 -0.004476
v 0.129892 -0.136235 -0.000164
v -0.129892 -0.136235 -0.000164
v -0.138237 -0.132002 -0.004474
v -0.138237 -0.131951 -0.154797
v -0.132194 -0.132194 -0.160840
v 0.138236 -0.131951 -0.154797
v 0.132194 -0.132194 -0.160840
v 0.138236 -0.132002 -0.004474
v -0.136180 -0.129948 -0.000162
v 0.136180 -0.129948 -0.000162
v 0.131948 0.138182 -0.004380
v 0.129892 0.136125 -0.000070
v -0.129892 0.136125 -0.000070
v -0.131949 0.138182 -0.004380
v -0.131949 0.138235 -0.154703
v 0.131948 0.138235 -0.154703
v -0.138237 0.131947 -0.154706
v -0.132194 0.132195 -0.160748
v -0.138237 0.131895 -0.004382
v 0.132194 0.132195 -0.160748
v 0.138236 0.131947 -0.154706
v 0.138236 0.131895 -0.004382
v -0.136180 0.129838 -0.000072
v 0.136180 0.129838 -0.000072
v 0.125550 0.131782 0.004240
v 0.131838 0.125493 0.004238
v 0.131838 -0.125607 0.004151
v 0.125550 -0.131895 0.004149
v -0.125550 0.131782 0.004240
v -0.125550 -0.131895 0.004149
v -0.131838 0.125493 0.004238
v -0.131838 -0.125607 0.004151
v -0.133645 0.127832 0.003814
v -0.133645 0.127826 0.021927
v -0.133645 -0.127952 0.021838
v -0.133645 -0.127944 0.003725
v -0.126972 -0.121282 0.030952
v -0.126972 0.121150 0.031036
v -0.121216 -0.127037 0.030950
v -0.112197 -0.118021 0.037135
v 0.112197 -0.118021 0.037135
v 0.121215 -0.127037 0.030950
v 0.084484 -0.090310 0.042731
v -0.084484 -0.090310 0.042731
v -0.084484 0.090171 0.042794
v 0.084484 0.090171 0.042794
v 0.090241 -0.084554 0.042733
v 0.090241 0.084414 0.042792
v -0.090241 0.084414 0.042792
v -0.090241 -0.084554 0.042733
v 0.112197 0.117886 0.037217
v -0.112197 0.117886 0.037217
v 0.121215 0.126907 0.031038
v -0.121216 0.126907 0.031038
v -0.117953 0.112129 0.037215
v -0.117953 -0.112264 0.037137
v 0.117953 -0.112264 0.037137
v 0.117953 0.112129 0.037215
v 0.126972 -0.121282 0.030952
v 0.126972 0.121150 0.031036
v 0.127888 0.133583 0.021929
v 0.133645 0.127826 0.021927
v -0.127889 0.133583 0.021929
v 0.133645 -0.127952 0.021838
v 0.127888 -0.133707 0.021836
v -0.127889 -0.133707 0.021836
v -0.127889 -0.133701 0.003723
v 0.127888 -0.133701 0.003723
v 0.133645 -0.127944 0.003725
v -0.127889 0.133589 0.003816
v 0.127888 0.133589 0.003816
v 0.133645 0.127832 0.003814
v 0.131960 0.127135 0.002129
v 0.127191 0.131904 0.002130
v -0.127191 0.131904 0.002130
v -0.131961 0.127135 0.002129
v 0.131960 -0.127246 0.002041
v 0.127191 -0.132017 0.002039
v -0.127191 -0.132017 0.002039
v -0.131961 -0.127246 0.002041
vn -0.9961 0.0218 -0.0851
vn -0.9707 -0.0216 0.2392
vn -0.9707 0.0215 0.2392
vn -0.9961 -0.0217 -0.0851
vn -0.6934 -0.0164 0.7203
vn -0.6934 0.0159 0.7204
vn -0.0162 -0.6936 0.7201
vn 0.0082 -0.3112 0.9503
vn -0.0081 -0.3112 0.9503
vn 0.0162 -0.6937 0.7201
vn 0.0008 -0.0299 0.9996
vn -0.0008 -0.0299 0.9996
vn -0.0008 0.0292 0.9996
vn 0.0008 0.0292 0.9996
vn 0.0295 -0.0012 0.9996
vn 0.0295 0.0005 0.9996
vn -0.0296 0.0005 0.9996
vn -0.0295 -0.0012 0.9996
vn 0.0081 0.3105 0.9505
vn -0.0082 0.3106 0.9505
vn 0.0161 0.6931 0.7206
vn -0.0162 0.6932 0.7206
vn -0.3109 0.0078 0.9504
vn -0.3109 -0.0085 0.9504
vn 0.3109 -0.0085 0.9504
vn 0.3109 0.0078 0.9504
vn 0.6934 -0.0164 0.7204
vn 0.6934 0.0159 0.7203
vn 0.0216 0.9707 0.2395
vn 0.9707 0.0215 0.2392
vn -0.0216 0.9707 0.2395
vn 0.9708 -0.0217 0.2391
vn 0.0216 -0.9708 0.2389
vn -0.0217 -0.9708 0.2388
vn -0.0217 -0.9961 -0.0855
vn 0.0218 -0.9961 -0.0854
vn 0.9961 -0.0218 -0.0852
vn -0.0218 0.9962 -0.0847
vn 0.0218 0.9962 -0.0847
vn 0.9961 0.0218 -0.0851
vn 0.0063 0.0005 -1.0000
vn 0.0001 0.0065 -1.0000
vn -0.0001 0.0066 -1.0000
vn -0.0062 0.0005 -1.0000
vn 0.0062 0.0002 -1.0000
vn 0.0002 -0.0059 -1.0000
vn -0.0001 -0.0059 -1.0000
vn -0.0062 0.0002 -1.0000
vt 1.210619 0.447548
vt 0.954842 0.465662
vt 1.210619 0.465662
vt 0.954842 0.447548
vt 0.961515 0.474773
vt 1.203946 0.474773
vt 0.088442 0.883908
vt 0.321854 0.892927
vt 0.097461 0.892927
vt 0.330873 0.883908
vt 0.294141 0.920639
vt 0.125173 0.920639
vt 0.125173 1.101121
vt 0.294141 1.101121
vt 0.299898 0.926396
vt 0.299898 1.095364
vt 0.119417 1.095364
vt 0.119417 0.926396
vt 0.321854 1.128833
vt 0.097461 1.128833
vt 0.330873 1.137852
vt 0.088442 1.137852
vt 0.091704 1.123077
vt 0.091704 0.898683
vt 0.082685 1.132095
vt 0.082685 0.889665
vt 0.327610 0.898683
vt 0.327610 1.123077
vt 0.336629 0.889665
vt 0.336629 1.132095
vt 0.337546 1.144525
vt 0.343302 1.138768
vt 0.076012 1.138768
vt 0.081769 1.144525
vt 0.343302 0.882991
vt 0.337546 0.877235
vt 0.081769 0.877235
vt 0.076012 0.882991
vt 0.081769 0.465662
vt 0.330873 0.474773
vt 0.088442 0.474773
vt 0.337546 0.465662
vt 0.081769 0.447548
vt 0.337546 0.447548
vt 0.343302 0.447548
vt 0.343302 0.465662
vt 0.076012 0.465662
vt 0.076012 0.447548
vt 0.341618 1.138071
vt 0.336848 1.142840
vt 0.082466 1.142840
vt 0.077697 1.138071
vt 0.341618 0.883689
vt 0.336848 0.878919
vt 0.082466 0.878919
vt 0.077697 0.883689
s 1
usemtl M_Footstool_1_2_1
f 37/1/1 39/2/2 38/3/3
f 37/1/1 40/4/4 39/2/2
f 38/3/3 39/2/2 41/5/5
f 38/3/3 41/5/5 42/6/6
f 43/7/7 45/8/8 44/9/9
f 43/7/7 46/10/10 45/8/8
f 44/9/9 45/8/8 47/11/11
f 44/9/9 47/11/11 48/12/12
f 47/11/11 49/13/13 48/12/12
f 47/11/11 50/14/14 49/13/13
f 51/15/15 50/14/14 47/11/11
f 50/14/14 51/15/15 52/16/16
f 48/12/12 49/13/13 53/17/17
f 48/12/12 53/17/17 54/18/18
f 44/9/9 48/12/12 54/18/18
f 55/19/19 49/13/13 50/14/14
f 55/19/19 50/14/14 52/16/16
f 55/19/19 56/20/20 49/13/13
f 57/21/21 56/20/20 55/19/19
f 57/21/21 58/22/22 56/20/20
f 59/23/23 54/18/18 53/17/17
f 49/13/13 59/23/23 53/17/17
f 49/13/13 56/20/20 59/23/23
f 59/23/23 60/24/24 54/18/18
f 42/25/6 60/24/24 59/23/23
f 42/25/6 56/20/20 58/22/22
f 42/25/6 59/23/23 56/20/20
f 42/25/6 41/26/5 60/24/24
f 61/27/25 52/16/16 51/15/15
f 61/27/25 62/28/26 52/16/16
f 62/28/26 57/21/21 55/19/19
f 55/19/19 52/16/16 62/28/26
f 63/29/27 62/28/26 61/27/25
f 63/29/27 64/30/28 62/28/26
f 62/28/26 64/30/28 57/21/21
f 65/31/29 57/21/21 64/30/28
f 65/31/29 64/30/28 66/32/30
f 58/22/22 38/33/3 42/25/6
f 58/22/22 67/34/31 38/33/3
f 63/29/27 61/27/25 45/8/8
f 63/29/27 45/8/8 46/10/10
f 46/10/10 68/35/32 63/29/27
f 46/10/10 69/36/33 68/35/32
f 60/24/24 41/26/5 43/7/7
f 70/37/34 43/7/7 41/26/5
f 70/37/34 41/26/5 39/38/2
f 47/11/11 45/8/8 61/27/25
f 47/11/11 61/27/25 51/15/15
f 60/24/24 43/7/7 44/9/9
f 44/9/9 54/18/18 60/24/24
f 70/39/34 46/40/10 43/41/7
f 70/39/34 69/42/33 46/40/10
f 71/43/35 69/42/33 70/39/34
f 71/43/35 72/44/36 69/42/33
f 69/42/33 72/44/36 73/45/37
f 69/42/33 73/45/37 68/46/32
f 71/43/35 70/39/34 39/47/2
f 71/43/35 39/47/2 40/48/4
f 67/39/31 37/48/1 38/47/3
f 67/39/31 74/43/38 37/48/1
f 75/44/39 74/43/38 67/39/31
f 75/44/39 67/39/31 65/42/29
f 75/44/39 65/42/29 66/46/30
f 75/44/39 66/46/30 76/45/40
f 65/42/29 67/39/31 58/41/22
f 65/42/29 58/41/22 57/40/21
f 68/2/32 64/6/28 63/5/27
f 68/2/32 66/3/30 64/6/28
f 73/4/37 66/3/30 68/2/32
f 73/4/37 76/1/40 66/3/30
f 77/49/41 75/31/39 76/32/40
f 77/49/41 78/50/42 75/31/39
f 74/34/38 75/31/39 78/50/42
f 74/34/38 78/50/42 79/51/43
f 79/51/43 37/33/1 74/34/38
f 79/51/43 80/52/44 37/33/1
f 76/32/40 81/53/45 77/49/41
f 76/32/40 73/35/37 81/53/45
f 82/54/46 81/53/45 73/35/37
f 82/54/46 77/49/41 81/53/45
f 77/49/41 82/54/46 78/50/42
f 82/54/46 73/35/37 72/36/36
f 72/36/36 83/55/47 82/54/46
f 78/50/42 82/54/46 83/55/47
f 78/50/42 83/55/47 79/51/43
f 72/36/36 71/37/35 83/55/47
f 84/56/48 83/55/47 71/37/35
f 79/51/43 83/55/47 84/56/48
f 79/51/43 84/56/48 80/52/44
f 84/56/48 71/37/35 40/38/4
f 40/38/4 80/52/44 84/56/48
f 40/38/4 37/33/1 80/52/44
