# Blender 4.1.0
# www.blender.org
mtllib MeshRobothorWallDecorInset_3_4_0_GeomSubset_1.mtl
o MeshRobothorWallDecorInset_3_4_0_GeomSubset_1
v -0.000761 0.012824 -0.458858
v -0.000308 0.012824 -0.458858
v -0.000761 0.013277 -0.458858
v -0.000308 0.013277 -0.458858
v -0.000761 0.012824 -0.458858
v -0.000308 0.012824 -0.458858
v -0.000761 0.013277 -0.458858
v -0.000308 0.013277 -0.458858
v -0.000761 0.012824 -0.458858
v -0.000308 0.012824 -0.458858
v -0.000761 0.013277 -0.458858
v -0.000308 0.013277 -0.458858
v 0.226104 -0.003649 -0.307644
v 0.226104 0.013051 -0.307644
v -0.226670 0.013051 -0.307644
v -0.226670 -0.003649 -0.307644
v 0.226104 0.013050 0.296306
v -0.226670 0.013050 0.296306
v 0.226104 -0.003649 0.296307
v -0.226670 -0.003649 0.296306
v -0.219282 -0.003649 0.290926
v -0.219282 0.000601 0.290926
v -0.219282 0.000600 -0.302263
v -0.219282 -0.003649 -0.302263
v 0.218716 -0.003649 -0.302263
v 0.218716 -0.003649 0.290926
v 0.218716 0.000601 0.290926
v 0.218716 0.000600 -0.302263
v 0.164822 0.000600 0.238840
v 0.164822 0.000601 -0.250177
v -0.165388 0.000601 -0.250177
v -0.165388 0.000600 0.238840
vn -0.0000 -0.0000 1.0000
vn -0.0000 -0.0000 -1.0000
vn -0.0000 1.0000 -0.0000
vn -0.0000 0.0001 1.0000
vn 1.0000 -0.0000 -0.0000
vn -1.0000 -0.0000 -0.0000
vn -0.0000 -1.0000 -0.0000
vt -19.250460 -9.574757
vt -19.250460 -9.574932
vt -19.250284 -9.574932
vt -19.250284 -9.574757
vt -19.040348 -0.200416
vt -19.112328 1.751057
vt -19.112328 -0.200416
vt -19.040348 1.751057
vt -20.709984 -0.987780
vt -18.758385 1.615430
vt -20.709984 1.615430
vt -18.758385 -0.987780
vt -19.061764 -0.190279
vt -19.133732 1.761129
vt -19.133732 -0.190279
vt -19.061764 1.761129
vt -19.099220 1.559012
vt -19.080912 -0.998008
vt -19.080902 1.559012
vt -19.099228 -0.998008
vt -19.954315 -1.016076
vt -20.026293 1.587184
vt -20.026293 -1.016076
vt -19.954315 1.587183
vt -20.004282 1.587219
vt -19.932302 -1.016111
vt -19.932302 1.587220
vt -20.004282 -1.016111
vt -18.797777 -0.992839
vt -20.717503 -1.016029
vt -18.765934 -1.016029
vt -20.685652 -0.992839
vt -20.685652 1.563947
vt -18.765934 1.587138
vt -20.717503 1.587137
vt -18.797777 1.563947
vt -19.104151 -0.165141
vt -19.122461 1.722116
vt -19.122461 -0.165141
vt -19.104151 1.722116
vt -19.069990 -0.997888
vt -19.088305 1.558892
vt -19.088305 -0.997889
vt -19.069990 1.558892
vt -19.132187 1.722939
vt -19.113861 -0.165964
vt -19.113861 1.722939
vt -19.132187 -0.165964
s 1
usemtl M_RobothorWallDecorInset_3_4_1
f 5/1/1 6/2/1 8/3/1 7/4/1
f 13/5/2 15/6/2 14/7/2
f 13/5/2 16/8/2 15/6/2
f 14/9/3 18/10/3 17/11/3
f 14/9/3 15/12/3 18/10/3
f 17/13/4 20/14/1 19/15/4
f 17/13/4 18/16/1 20/14/1
f 21/17/5 23/18/5 22/19/5
f 21/17/5 24/20/5 23/18/5
f 14/21/5 19/22/5 13/23/5
f 14/21/5 17/24/5 19/22/5
f 18/25/6 16/26/6 20/27/6
f 18/25/6 15/28/6 16/26/6
f 25/29/7 16/30/7 13/31/7
f 25/29/7 24/32/7 16/30/7
f 21/33/7 19/34/7 20/35/7
f 21/33/7 26/36/7 19/34/7
f 26/36/7 13/31/7 19/34/7
f 26/36/7 25/29/7 13/31/7
f 24/32/7 20/35/7 16/30/7
f 24/32/7 21/33/7 20/35/7
f 26/37/2 22/38/2 27/39/2
f 26/37/2 21/40/2 22/38/2
f 25/41/6 27/42/6 28/43/6
f 25/41/6 26/44/6 27/42/6
f 24/45/1 28/46/1 23/47/1
f 24/45/1 25/48/1 28/46/1
