# Blender 4.1.1
# www.blender.org
mtllib AlarmClockButton_29_AlarmClockButton_29_1_GeomSubset_2.mtl
o AlarmClockButton_29_AlarmClockButton_29_1_GeomSubset_2
v 0.000500 0.001192 -0.336723
v -0.000500 0.001192 -0.336723
v 0.000500 0.002193 -0.336723
v -0.000500 0.002193 -0.336723
v 0.000500 0.001192 -0.336723
v -0.000500 0.001192 -0.336723
v 0.000500 0.002193 -0.336723
v -0.000500 0.002193 -0.336723
v 0.000500 0.001192 -0.336723
v -0.000500 0.001192 -0.336723
v 0.000500 0.002193 -0.336723
v -0.000500 0.002193 -0.336723
v 0.000500 0.001192 -0.336723
v -0.000500 0.001192 -0.336723
v 0.000500 0.002193 -0.336723
v -0.000500 0.002193 -0.336723
v 0.000500 0.001192 -0.336723
v -0.000500 0.001192 -0.336723
v 0.000500 0.002193 -0.336723
v -0.000500 0.002193 -0.336723
v -0.024981 0.016111 0.075519
v -0.014423 0.026668 0.075519
v 0.000000 0.030534 0.075519
v 0.014423 0.026668 0.075519
v 0.024981 0.016111 0.075519
v 0.028846 0.001688 0.075519
v 0.024981 -0.012731 0.075519
v 0.014423 -0.023288 0.075519
v 0.000000 -0.027153 0.075519
v -0.014423 -0.023288 0.075519
v -0.024981 -0.012731 0.075519
v -0.028846 0.001688 0.075519
v -0.024981 0.016111 0.082218
v -0.023518 0.015270 0.085221
v -0.013578 0.025206 0.085221
v -0.014423 0.026668 0.082218
v 0.000000 0.030534 0.082218
v 0.000000 0.028849 0.085221
v 0.013578 0.025206 0.085221
v 0.014423 0.026668 0.082218
v 0.024981 0.016111 0.082218
v 0.023518 0.015270 0.085221
v 0.027156 0.001688 0.085221
v 0.028846 0.001688 0.082218
v 0.024981 -0.012731 0.082218
v 0.023518 -0.011890 0.085221
v 0.013578 -0.021826 0.085221
v 0.014423 -0.023288 0.082218
v 0.000000 -0.027153 0.082218
v 0.000000 -0.025466 0.085221
v -0.013578 -0.021826 0.085221
v -0.014423 -0.023288 0.082218
v -0.024981 -0.012731 0.082218
v -0.023518 -0.011890 0.085221
v -0.027156 0.001688 0.085221
v -0.028846 0.001688 0.082218
v 0.000000 0.001688 0.086464
v -0.011539 0.021674 0.085032
v -0.019985 0.013226 0.085032
v -0.010481 0.019844 0.085032
v -0.018154 0.012171 0.085032
v 0.000000 0.024765 0.085032
v 0.000000 0.022655 0.085032
v 0.011539 0.021674 0.085032
v 0.010481 0.019844 0.085032
v 0.019985 0.013226 0.085032
v 0.018154 0.012171 0.085032
v 0.023077 0.001688 0.085032
v 0.020963 0.001688 0.085032
v 0.019985 -0.009846 0.085032
v 0.018154 -0.008788 0.085032
v 0.011539 -0.018292 0.085032
v 0.010481 -0.016461 0.085032
v 0.000000 -0.021385 0.085032
v 0.000000 -0.019271 0.085032
v -0.011539 -0.018292 0.085032
v -0.010481 -0.016461 0.085032
v -0.019985 -0.009846 0.085032
v -0.018154 -0.008788 0.085032
v -0.023077 0.001688 0.085032
v -0.020963 0.001688 0.085032
v -0.020475 0.013512 0.086292
v -0.019985 0.013226 0.085891
v -0.023642 0.001688 0.086292
v -0.023077 0.001688 0.085891
v -0.011821 0.022163 0.086292
v -0.011539 0.021674 0.085891
v 0.000000 0.025333 0.086292
v 0.000000 0.024765 0.085891
v 0.011821 0.022163 0.086292
v 0.011539 0.021674 0.085891
v 0.020475 0.013512 0.086292
v 0.019985 0.013226 0.085891
v 0.023643 0.001688 0.086292
v 0.023077 0.001688 0.085891
v 0.020475 -0.010131 0.086292
v 0.019985 -0.009846 0.085891
v 0.011821 -0.018784 0.086292
v 0.011539 -0.018292 0.085891
v 0.000000 -0.021950 0.086292
v 0.000000 -0.021385 0.085891
v -0.011821 -0.018784 0.086292
v -0.011539 -0.018292 0.085891
v -0.020475 -0.010131 0.086292
v -0.019985 -0.009846 0.085891
v -0.017725 0.011922 0.086464
v -0.018154 0.012171 0.085985
v -0.010233 0.019415 0.086464
v -0.010481 0.019844 0.085985
v 0.000000 0.022158 0.086464
v 0.000000 0.022655 0.085985
v 0.010234 0.019415 0.086464
v 0.010481 0.019844 0.085985
v 0.017725 0.011922 0.086464
v 0.018154 0.012171 0.085985
v 0.020467 0.001688 0.086464
v 0.020963 0.001688 0.085985
v 0.017725 -0.008541 0.086464
v 0.018154 -0.008788 0.085985
v 0.010233 -0.016034 0.086464
v 0.010481 -0.016461 0.085985
v 0.000000 -0.018775 0.086464
v 0.000000 -0.019271 0.085985
v -0.010233 -0.016034 0.086464
v -0.010481 -0.016461 0.085985
v -0.017725 -0.008541 0.086464
v -0.018154 -0.008788 0.085985
v -0.020467 0.001688 0.086464
v -0.020963 0.001688 0.085985
vn -0.0000 -0.0000 -1.0000
vn 0.5822 -0.3360 -0.7404
vn 0.7884 -0.4553 -0.4137
vn 0.4553 -0.7884 -0.4137
vn 0.3454 -0.5983 -0.7230
vn 0.6912 -0.0000 -0.7227
vn 0.9105 0.0001 -0.4136
vn -0.0000 -0.9105 -0.4134
vn -0.0000 -0.6723 -0.7402
vn -0.4553 -0.7885 -0.4134
vn -0.3457 -0.5986 -0.7226
vn -0.7884 -0.4553 -0.4136
vn -0.5823 -0.3361 -0.7403
vn -0.9104 0.0001 -0.4136
vn -0.6912 0.0001 -0.7227
vn -0.7886 0.4553 -0.4133
vn -0.5825 0.3367 -0.7398
vn -0.4555 0.7885 -0.4134
vn -0.3459 0.5990 -0.7222
vn -0.0000 0.9105 -0.4136
vn 0.0001 0.6727 -0.7399
vn 0.4555 0.7885 -0.4133
vn 0.3459 0.5991 -0.7221
vn 0.7886 0.4553 -0.4133
vn 0.5825 0.3366 -0.7398
vn 0.8660 -0.5000 -0.0000
vn 0.5001 -0.8660 -0.0000
vn 0.2590 -0.9659 -0.0000
vn -0.2590 -0.9659 -0.0000
vn -0.5001 -0.8660 -0.0000
vn -0.8660 -0.5000 -0.0000
vn -0.9659 -0.2588 -0.0000
vn -0.9659 0.2590 -0.0000
vn -0.8660 0.5001 -0.0000
vn -0.5001 0.8660 -0.0000
vn -0.2590 0.9659 -0.0000
vn 0.2590 0.9659 -0.0000
vn 0.5001 0.8660 -0.0000
vn 0.8660 0.5001 -0.0000
vn 0.9659 0.2590 -0.0000
vn 0.9659 -0.2588 -0.0000
vt -6.812961 -5.283067
vt -6.791447 -5.283067
vt -6.791447 -5.261518
vt -6.812961 -5.261518
vt -7.304504 0.462818
vt -7.304082 0.463062
vt -7.311613 0.470593
vt -7.311856 0.470171
vt -6.859574 0.380623
vt -6.859039 0.380901
vt -6.859039 0.392350
vt -6.859574 0.392350
vt -7.321899 0.473350
vt -7.321899 0.472863
vt -7.332185 0.470593
vt -7.331942 0.470171
vt -7.339715 0.463062
vt -7.339294 0.462818
vt -6.822021 0.403789
vt -6.822557 0.404067
vt -6.822557 0.392340
vt -6.822021 0.392340
vt -6.822557 0.380622
vt -6.822021 0.380900
vt -6.822557 0.372039
vt -6.822021 0.372517
vt -7.331942 0.435382
vt -7.332185 0.434963
vt -7.321899 0.432206
vt -7.321899 0.432693
vt -7.311613 0.434963
vt -7.311856 0.435382
vt -6.859039 0.412174
vt -6.859574 0.412651
vt -6.859574 0.404068
vt -6.859039 0.403790
vt -7.321899 0.452774
vt -7.341985 0.452774
vt -7.339294 0.442737
vt -7.304504 0.442737
vt -7.301812 0.452774
vt -6.859574 0.372039
vt -6.860640 0.380623
vt -6.860640 0.372039
vt -6.791395 0.227302
vt -6.791395 0.216887
vt -6.790448 0.216887
vt -6.790448 0.227302
vt -6.791395 0.237717
vt -6.790448 0.237717
vt -6.822557 0.412651
vt -6.823622 0.412651
vt -6.823622 0.404067
vt -6.823622 0.392340
vt -6.823622 0.380622
vt -6.823622 0.372039
vt -6.775969 0.682260
vt -6.775969 0.692674
vt -6.776916 0.692674
vt -6.776916 0.682260
vt -6.775969 0.671845
vt -6.776916 0.671845
vt -6.860640 0.412651
vt -6.860640 0.404068
vt -6.860640 0.392350
s 1
usemtl M_AlarmClockButton_29_2
f 9/1/1 10/2/1 12/3/1 11/4/1
f 106/5/2 107/6/3 109/7/4 108/8/5
f 107/9/3 106/10/2 128/11/6 129/12/7
f 108/8/5 109/7/4 111/13/8 110/14/9
f 110/14/9 111/13/8 113/15/10 112/16/11
f 112/16/11 113/15/10 115/17/12 114/18/13
f 114/19/13 115/20/12 117/21/14 116/22/15
f 116/22/15 117/21/14 119/23/16 118/24/17
f 118/24/17 119/23/16 121/25/18 120/26/19
f 120/27/19 121/28/18 123/29/20 122/30/21
f 122/30/21 123/29/20 125/31/22 124/32/23
f 124/33/23 125/34/22 127/35/24 126/36/25
f 126/36/25 127/35/24 129/12/7 128/11/6
f 57/37/1 106/5/2 108/8/5 110/14/9
f 57/37/1 110/14/9 112/16/11 114/18/13
f 57/37/1 114/18/13 116/38/15 118/39/17
f 57/37/1 118/39/17 120/27/19 122/30/21
f 57/37/1 122/30/21 124/32/23 126/40/25
f 57/37/1 126/40/25 128/41/6 106/5/2
f 109/42/4 107/9/3 61/43/26 60/44/27
f 111/45/8 109/46/4 60/47/27 63/48/28
f 113/49/10 111/45/8 63/48/29 65/50/30
f 115/20/12 113/51/10 65/52/30 67/53/31
f 117/21/14 115/20/12 67/53/31 69/54/32
f 119/23/16 117/21/14 69/54/33 71/55/34
f 121/25/18 119/23/16 71/55/34 73/56/35
f 123/57/20 121/58/18 73/59/35 75/60/36
f 125/61/22 123/57/20 75/60/37 77/62/38
f 127/35/24 125/34/22 77/63/38 79/64/39
f 129/12/7 127/35/24 79/64/39 81/65/40
f 107/9/3 129/12/7 81/65/41 61/43/26
