# Blender 4.1.1
# www.blender.org
mtllib MeshTelevision_29_0_GeomSubset_2.mtl
o MeshTelevision_29_0_GeomSubset_2
v 0.000735 -0.060996 0.041774
v -0.000735 -0.060996 0.041774
v 0.000735 -0.059526 0.041774
v -0.000735 -0.059526 0.041774
v 0.000735 -0.060996 0.041774
v -0.000735 -0.060996 0.041774
v 0.000735 -0.059526 0.041774
v -0.000735 -0.059526 0.041774
v 0.000735 -0.060996 0.041774
v -0.000735 -0.060996 0.041774
v 0.000735 -0.059526 0.041774
v -0.000735 -0.059526 0.041774
v 0.000735 -0.060996 0.041774
v -0.000735 -0.060996 0.041774
v 0.000735 -0.059526 0.041774
v -0.000735 -0.059526 0.041774
v 0.000735 -0.060996 0.041774
v -0.000735 -0.060996 0.041774
v 0.000735 -0.059526 0.041774
v -0.000735 -0.059526 0.041774
v 0.494496 -0.060261 0.387587
v -0.494496 -0.060261 -0.294267
v 0.494496 -0.102845 0.387587
v -0.494496 -0.102845 0.387587
v -0.494496 -0.060261 0.387587
v 0.494496 -0.060261 -0.294267
v -0.494496 -0.102845 -0.294267
v 0.494496 -0.102845 -0.294267
v 0.481433 -0.102845 0.372916
v 0.481433 -0.102845 -0.239482
v -0.481433 -0.102845 -0.239482
v -0.481433 -0.102845 0.372916
v 0.469227 -0.091088 0.365153
v 0.469227 -0.091088 -0.231719
v -0.469227 -0.091088 -0.231719
v -0.469227 -0.091088 0.365153
v -0.235427 -0.060261 -0.295962
v 0.235587 -0.060261 -0.295817
v -0.235534 -0.102845 -0.296106
v 0.235532 -0.102845 -0.296106
v -0.212996 -0.102845 -0.255123
v 0.212996 -0.102845 -0.255123
v 0.212996 -0.060261 -0.255123
v -0.212996 -0.060261 -0.255123
v -0.241745 -0.060261 -0.307147
v 0.241744 -0.060261 -0.307147
v -0.241745 -0.146460 -0.307147
v 0.241744 -0.146460 -0.307147
v -0.212996 -0.118518 -0.255123
v 0.212996 -0.118518 -0.255123
v 0.000000 -0.118518 -0.255123
v 0.000000 -0.102845 -0.255123
v 0.000000 -0.102845 -0.239482
v 0.000000 -0.091088 -0.231719
v 0.000000 -0.091088 0.365153
v 0.000000 -0.102845 0.372916
v 0.000000 -0.102845 0.387587
v 0.000000 -0.060261 0.387587
v 0.000000 -0.060261 -0.239482
v 0.000000 -0.060261 -0.255123
v 0.000000 -0.060261 -0.307147
v 0.000000 -0.146460 -0.307147
v 0.212996 -0.102845 -0.239482
v 0.212996 -0.091088 -0.231719
v 0.212996 -0.091088 0.365153
v 0.212996 -0.102845 0.372916
v 0.212996 -0.102845 0.387587
v 0.212996 -0.060261 0.387587
v 0.212996 -0.060261 -0.239482
v -0.212996 -0.102845 -0.239482
v -0.212996 -0.091088 -0.231719
v -0.212996 -0.091088 0.365153
v -0.212996 -0.102845 0.372916
v -0.212996 -0.102845 0.387587
v -0.212996 -0.060261 0.387587
v -0.212996 -0.060261 -0.239482
v 0.000000 -0.060261 -0.295817
v -0.494496 -0.060261 -0.239482
v -0.494496 -0.102845 -0.239482
v 0.494496 -0.060261 -0.239482
v 0.494496 -0.102845 -0.239482
v -0.494496 -0.060261 -0.255123
v 0.494496 -0.060261 -0.255123
v 0.494496 -0.102845 -0.255123
v -0.494496 -0.102845 -0.255123
v 0.494496 -0.102846 -0.242745
v 0.212996 -0.102845 -0.242745
v 0.000000 -0.102845 -0.242745
v -0.212996 -0.102845 -0.242745
v -0.494496 -0.102846 -0.242745
v 0.494496 -0.060261 -0.242745
v 0.212996 -0.060261 -0.242745
v 0.000000 -0.060261 -0.242745
v -0.212996 -0.060261 -0.242745
v -0.494496 -0.060261 -0.242745
v -0.490816 -0.099164 -0.255123
v -0.490816 -0.063942 -0.255123
v -0.490816 -0.063942 -0.242745
v -0.490816 -0.099165 -0.242744
v 0.490816 -0.063942 -0.242745
v 0.212996 -0.063942 -0.242745
v 0.212996 -0.063942 -0.255123
v 0.490816 -0.063942 -0.255123
v -0.212996 -0.063942 -0.255123
v 0.000000 -0.063942 -0.255123
v 0.000000 -0.063942 -0.242745
v -0.212996 -0.063942 -0.242745
v 0.490816 -0.099165 -0.242744
v 0.490816 -0.099164 -0.255123
v 0.212996 -0.099164 -0.255123
v 0.212996 -0.099164 -0.242744
v 0.000000 -0.099164 -0.255123
v 0.000000 -0.099164 -0.242745
v -0.212996 -0.099164 -0.242745
v -0.212996 -0.099164 -0.255123
v 0.494496 -0.102845 0.416651
v 0.212996 -0.102845 0.416651
v 0.212996 -0.060261 0.416651
v 0.494496 -0.060261 0.416651
v 0.000000 -0.102845 0.416651
v 0.000000 -0.060261 0.416651
v -0.212996 -0.102845 0.416651
v -0.212996 -0.060261 0.416651
v -0.494496 -0.102845 0.416651
v -0.494496 -0.060261 0.416651
v 0.000000 -0.102845 0.394770
v 0.212996 -0.102845 0.394770
v 0.494496 -0.102845 0.394770
v 0.494496 -0.060261 0.394770
v 0.212996 -0.060261 0.394770
v 0.000000 -0.060261 0.394770
v -0.212996 -0.060261 0.394770
v -0.494496 -0.060261 0.394770
v -0.494496 -0.102845 0.394770
v -0.212996 -0.102845 0.394770
v 0.489896 -0.098244 0.387587
v 0.212996 -0.098244 0.387587
v 0.212996 -0.098244 0.394770
v 0.489896 -0.098244 0.394770
v 0.489896 -0.064861 0.387587
v 0.212996 -0.064861 0.387587
v 0.489896 -0.064861 0.394770
v 0.212996 -0.064861 0.394770
v 0.000000 -0.098244 0.387587
v -0.212996 -0.098244 0.387587
v -0.212996 -0.098244 0.394770
v 0.000000 -0.098244 0.394770
v 0.000000 -0.064861 0.387587
v -0.212996 -0.064861 0.387587
v 0.000000 -0.064861 0.394770
v -0.212996 -0.064861 0.394770
v -0.489896 -0.098244 0.387587
v -0.489896 -0.098244 0.394770
v -0.489896 -0.064861 0.387587
v -0.489896 -0.064861 0.394770
vn -0.0000 -0.0000 -1.0000
vn -0.0000 1.0000 -0.0000
vt -18.894508 -17.623213
vt -18.893694 -17.623213
vt -18.893694 -17.622398
vt -18.894508 -17.622398
vt 0.000000 0.706679
vt 0.000000 0.070664
vt 0.273035 0.070664
vt 0.273035 0.706679
vt 0.500000 0.706679
vt 0.500000 0.070664
vt 0.726965 0.070664
vt 0.726965 0.706680
vt 1.000000 0.070664
vt 1.000000 0.706680
s 1
usemtl M_Television_29_2
f 9/1/1 10/2/1 12/3/1 11/4/1
f 33/5/2 34/6/2 64/7/2 65/8/2
f 55/9/2 54/10/2 71/11/2 72/12/2
f 65/8/2 64/7/2 54/10/2 55/9/2
f 72/12/2 71/11/2 35/13/2 36/14/2
