# Blender 4.1.1
# www.blender.org
mtllib MeshBookFront_27_1_GeomSubset_2.mtl
o MeshBookFront_27_1_GeomSubset_2
v -0.137379 -0.196821 0.007750
v -0.137379 0.196821 0.007750
v -0.137379 0.196821 0.008509
v -0.137379 -0.196821 0.008509
v 0.145937 0.196821 0.005972
v 0.142741 0.196821 0.007750
v 0.144296 0.196821 0.008509
v 0.147204 0.196821 0.006810
v 0.142741 -0.196821 0.007750
v 0.145937 -0.196821 0.005972
v 0.144296 -0.196821 0.008509
v 0.147204 -0.196821 0.006810
v 0.147696 -0.196821 -0.004043
v 0.149400 -0.196821 -0.004043
v 0.149400 0.196821 -0.004043
v 0.147696 0.196821 -0.004043
v 0.148891 -0.196821 0.001384
v 0.148891 0.196821 0.001384
v 0.147196 0.196821 0.000965
v 0.147196 -0.196821 0.000965
v 0.149144 -0.196821 -0.001330
v 0.149144 0.196821 -0.001330
v 0.147470 0.196821 -0.001539
v 0.147470 -0.196821 -0.001539
v 0.148013 -0.196821 0.004097
v 0.148013 0.196821 0.004097
v 0.146600 0.196821 0.003469
v 0.146600 -0.196821 0.003468
v 0.145439 0.196821 -0.004043
v -0.137379 0.196821 -0.004043
v -0.137379 -0.196821 -0.004043
v 0.145439 -0.196821 -0.004043
v 0.144899 0.196821 0.001854
v -0.137379 0.196821 0.001854
v -0.137379 -0.196821 0.001854
v 0.144899 -0.196821 0.001854
v 0.145439 -0.194671 -0.007009
v 0.147696 -0.196821 -0.004043
v 0.145439 0.194671 -0.007009
v 0.147696 0.196821 -0.004043
v -0.135591 -0.194671 -0.004795
v -0.135591 0.194671 -0.004795
v -0.137379 -0.196821 0.007750
v -0.137379 0.196821 0.007750
v 0.142741 0.196821 0.007750
v 0.145937 0.196821 0.005972
v 0.145937 -0.196821 0.005972
v 0.142741 -0.196821 0.007750
v 0.147196 0.196821 0.000965
v 0.147196 -0.196821 0.000965
v 0.046755 0.196821 0.007750
v 0.048194 0.196821 0.001854
v 0.048554 0.196821 -0.004043
v 0.049054 0.194671 -0.016162
v 0.049054 -0.194671 -0.016162
v 0.048554 -0.196821 -0.004043
v 0.048194 -0.196821 0.001854
v 0.046755 -0.196821 0.007750
v -0.040523 0.196821 0.007750
v -0.039805 0.196821 0.001854
v -0.039626 0.196821 -0.004043
v -0.038624 0.194671 -0.012566
v -0.038624 -0.194671 -0.012566
v -0.039626 -0.196821 -0.004043
v -0.039805 -0.196821 0.001854
v -0.040523 -0.196821 0.007750
v 0.021725 0.196821 0.007750
v 0.022925 0.196821 0.001854
v 0.023224 0.196821 -0.004043
v 0.023890 0.194671 -0.015639
v 0.023890 -0.194671 -0.015639
v 0.023224 -0.196821 -0.004043
v 0.022925 -0.196821 0.001854
v 0.021725 -0.196821 0.007750
v -0.009399 0.196821 0.007750
v -0.008440 0.196821 0.001854
v -0.008201 0.196821 -0.004043
v -0.007368 0.194671 -0.014407
v -0.007368 -0.194671 -0.014407
v -0.008201 -0.196821 -0.004043
v -0.008440 -0.196821 0.001854
v -0.009399 -0.196821 0.007750
v 0.122448 0.196821 0.007750
v 0.124463 0.196821 0.001854
v 0.124965 0.196821 -0.004043
v 0.125065 0.194671 -0.012939
v 0.125065 -0.194671 -0.012939
v 0.124965 -0.196821 -0.004043
v 0.124463 -0.196821 0.001854
v 0.122448 -0.196821 0.007750
v 0.105391 0.196821 0.007750
v 0.107261 0.196821 0.001854
v 0.107727 0.196821 -0.004043
v 0.107929 0.194671 -0.015329
v 0.107929 -0.194671 -0.015329
v 0.107727 -0.196821 -0.004043
v 0.107261 -0.196821 0.001854
v 0.105391 -0.196821 0.007750
v 0.086716 0.196821 0.007750
v 0.088443 0.196821 0.001854
v 0.088874 0.196821 -0.004043
v 0.089175 0.194671 -0.016291
v 0.089175 -0.194671 -0.016291
v 0.088874 -0.196821 -0.004043
v 0.088443 -0.196821 0.001854
v 0.086716 -0.196821 0.007750
v 0.068041 0.196821 0.007750
v 0.069624 0.196821 0.001854
v 0.070020 0.196821 -0.004043
v 0.070419 0.194671 -0.016349
v 0.070419 -0.194671 -0.016349
v 0.070020 -0.196821 -0.004043
v 0.069624 -0.196821 0.001854
v 0.068041 -0.196821 0.007750
v -0.071618 0.196821 0.007750
v -0.071257 0.196821 0.001854
v -0.071167 0.196821 -0.004043
v -0.069917 0.194671 -0.010557
v -0.069917 -0.194671 -0.010557
v -0.071167 -0.196821 -0.004043
v -0.071257 -0.196821 0.001854
v -0.071618 -0.196821 0.007750
v -0.102759 0.196821 0.007750
v -0.102576 0.196821 0.001854
v -0.102531 0.196821 -0.004043
v -0.101156 0.194671 -0.008205
v -0.101156 -0.194671 -0.008205
v -0.102531 -0.196821 -0.004043
v -0.102576 -0.196821 0.001854
v -0.102759 -0.196821 0.007750
v 0.147425 -0.194945 -0.005713
v 0.147425 0.194945 -0.005713
v 0.148206 -0.196525 -0.004514
v 0.148206 0.196525 -0.004514
v 0.148888 -0.196525 -0.004514
v 0.148888 0.196525 -0.004514
v 0.135262 0.196821 0.007750
v 0.137347 0.196821 0.001854
v 0.137868 0.196821 -0.004043
v 0.137919 0.194671 -0.010059
v 0.137919 -0.194671 -0.010059
v 0.137868 -0.196821 -0.004043
v 0.137347 -0.196821 0.001854
v 0.135262 -0.196821 0.007750
v 0.148613 -0.195076 -0.004624
v 0.148613 -0.196821 -0.004043
v 0.148613 0.195076 -0.004624
v 0.148613 0.196821 -0.004043
v -0.127364 0.196821 0.007750
v -0.127317 0.196821 0.001854
v -0.127305 0.196821 -0.004043
v -0.125837 0.194671 -0.006061
v -0.125837 -0.194671 -0.006061
v -0.127305 -0.196821 -0.004043
v -0.127317 -0.196821 0.001854
v -0.127364 -0.196821 0.007750
vn -1.0000 -0.0000 -0.0000
vn 0.1166 -0.0000 0.9932
vn 0.1287 -0.0000 0.9917
vn 0.0028 -0.0000 1.0000
vn 0.0148 -0.0000 0.9999
vn 0.0491 -0.0000 0.9988
vn 0.0614 -0.0000 0.9981
vn 0.0290 -0.0000 0.9996
vn -0.3157 -0.0000 0.9489
vn -0.1838 -0.0000 0.9830
vn -0.0966 -0.0000 0.9953
vn -0.0272 -0.0000 0.9996
vn 0.0696 -0.0000 0.9976
vn 0.0814 -0.0000 0.9967
vn -0.5101 -0.0000 0.8601
vn -0.6298 -0.0000 0.7768
vn -0.6757 -0.0000 0.7372
vt 2.501883 0.501092
vt 2.501883 0.748916
vt 2.342245 0.501092
vt 2.342245 0.748916
vt 2.336572 0.748916
vt 2.336572 0.501092
vt 2.456401 0.501092
vt 2.456401 0.748916
vt 2.443973 0.748916
vt 2.443973 0.501092
vt 2.411155 0.501092
vt 2.411155 0.748916
vt 2.392974 0.748916
vt 2.392974 0.501092
vt 2.429336 0.748916
vt 2.429336 0.501092
vt 2.495662 0.501092
vt 2.495662 0.748916
vt 2.488187 0.748916
vt 2.488187 0.501092
vt 2.478219 0.748916
vt 2.478219 0.501092
vt 2.467310 0.748916
vt 2.467310 0.501092
vt 2.374772 0.748916
vt 2.374772 0.501092
vt 2.356601 0.748916
vt 2.356601 0.501092
vt 2.500036 0.501092
vt 2.501192 0.501092
vt 2.501192 0.748916
vt 2.500036 0.748916
s 1
usemtl M_BookFront_27_2
f 146/1/1 148/2/1 147/2/1 145/1/1
f 153/3/2 152/4/2 42/5/3 41/6/3
f 111/7/4 110/8/4 54/9/5 55/10/5
f 79/11/6 78/12/6 62/13/7 63/14/7
f 55/10/5 54/9/5 70/15/8 71/16/8
f 71/16/8 70/15/8 78/12/6 79/11/6
f 141/17/9 140/18/9 86/19/10 87/20/10
f 87/20/10 86/19/10 94/21/11 95/22/11
f 95/22/11 94/21/11 102/23/12 103/24/12
f 103/24/12 102/23/12 110/8/4 111/7/4
f 63/14/7 62/13/7 118/25/13 119/26/13
f 119/26/13 118/25/13 126/27/14 127/28/14
f 37/29/15 131/30/16 132/31/16 39/32/15
f 37/29/15 39/32/15 140/18/9 141/17/9
f 131/30/16 145/1/17 147/2/17 132/31/16
f 127/28/14 126/27/14 152/4/2 153/3/2
