# Blender 4.1.1
# www.blender.org
mtllib FridgeDrawer4_18_FridgeDrawer4C6_4_GeomSubset_4.mtl
o FridgeDrawer4_18_FridgeDrawer4C6_4_GeomSubset_4
v -0.000154 0.015229 -0.841603
v -0.000163 0.015229 -0.841603
v -0.000154 0.015238 -0.841603
v -0.000163 0.015238 -0.841603
v -0.000154 0.015229 -0.841603
v -0.000163 0.015229 -0.841603
v -0.000154 0.015238 -0.841603
v -0.000163 0.015238 -0.841603
v -0.000154 0.015229 -0.841603
v -0.000163 0.015229 -0.841603
v -0.000154 0.015238 -0.841603
v -0.000163 0.015238 -0.841603
v -0.000154 0.015229 -0.841603
v -0.000163 0.015229 -0.841603
v -0.000154 0.015238 -0.841603
v -0.000163 0.015238 -0.841603
v -0.000154 0.015229 -0.841603
v -0.000163 0.015229 -0.841603
v -0.000154 0.015238 -0.841603
v -0.000163 0.015238 -0.841603
v -0.000154 0.015229 -0.841603
v -0.000163 0.015229 -0.841603
v -0.000154 0.015238 -0.841603
v -0.000163 0.015238 -0.841603
v -0.000154 0.015229 -0.841603
v -0.000163 0.015229 -0.841603
v -0.000154 0.015237 -0.841603
v -0.000163 0.015237 -0.841603
v -0.027887 0.119722 0.145230
v -0.447011 0.119721 0.145230
v -0.027887 0.057353 -0.083298
v -0.027887 0.052915 -0.085699
v -0.447011 0.052913 -0.085699
v -0.447011 0.057352 -0.083298
v -0.027887 0.119722 0.151774
v -0.027887 0.057353 0.151774
v -0.027887 0.052915 0.151774
v -0.027886 -0.173477 0.151774
v -0.447011 0.057352 0.151774
v -0.447011 0.119721 0.151774
v -0.447011 0.052913 0.151774
v -0.447010 -0.173479 0.151774
v -0.447010 -0.140436 -0.085699
v -0.447010 -0.158768 -0.067367
v -0.027886 -0.158767 -0.067367
v -0.027886 -0.140435 -0.085699
v -0.027886 -0.157371 -0.074382
v -0.447010 -0.157372 -0.074382
v -0.027886 -0.153397 -0.080329
v -0.447010 -0.153398 -0.080329
v -0.027886 -0.147450 -0.084304
v -0.447010 -0.147451 -0.084304
v -0.032441 0.112222 0.147464
v -0.442457 0.112221 0.147464
v -0.439942 0.053192 -0.078777
v -0.034956 0.053193 -0.078777
v -0.442607 -0.151005 -0.065931
v -0.440049 -0.167327 0.152826
v -0.034848 -0.167325 0.152826
v -0.032289 -0.151004 -0.065931
v -0.439942 0.051406 -0.079743
v -0.034956 0.051407 -0.079743
v -0.037732 0.057353 0.151774
v -0.034849 0.113481 0.151774
v -0.037732 0.052915 0.151774
v -0.442539 -0.150107 -0.071373
v -0.442539 -0.147838 -0.074769
v -0.442539 -0.144442 -0.077038
v -0.442590 -0.139663 -0.077850
v -0.437166 0.052913 0.151774
v -0.440050 0.113480 0.151774
v -0.437166 0.057352 0.151774
v -0.032306 -0.139661 -0.077850
v -0.032358 -0.144441 -0.077038
v -0.032358 -0.147837 -0.074769
v -0.032358 -0.150106 -0.071373
v -0.037169 0.052609 0.131809
v -0.034220 -0.163320 0.131809
v -0.437729 0.052607 0.131809
v -0.437735 0.056499 0.131809
v -0.442034 0.102297 0.131809
v -0.440676 -0.163321 0.131809
v -0.037163 0.056500 0.131809
v -0.032864 0.102298 0.131809
v -0.027887 0.110949 0.131809
v -0.447011 0.110947 0.131809
v -0.447010 -0.170064 0.131809
v -0.027886 -0.170063 0.131809
v -0.027887 0.057353 0.131809
v -0.027887 0.052915 0.131809
v -0.447011 0.052913 0.131809
v -0.447011 0.057352 0.131809
v -0.027886 -0.185925 0.151774
v -0.447010 -0.185926 0.151774
v -0.447010 -0.182512 0.131809
v -0.027886 -0.182511 0.131809
vn -0.0000 -0.0000 -1.0000
vn -0.0000 -0.3892 -0.9212
vn -0.0000 -0.1689 -0.9856
vn -0.0009 -0.1689 -0.9856
vn -0.0000 -0.7071 -0.7071
vn -0.0000 -0.9155 -0.4023
vn 0.0006 -0.9868 -0.1620
vn -0.0000 -0.9868 -0.1620
vn -0.0000 0.5208 -0.8537
vn -0.0000 0.4757 -0.8796
vn -0.0000 -0.4758 0.8796
vn -0.0000 -0.4249 0.9052
vn -0.0000 0.1810 0.9835
vn -0.0000 0.1811 0.9835
vn -0.0000 0.9824 0.1867
vn -0.0000 0.9239 0.3827
vn -0.0000 0.7071 0.7071
vn -0.0000 0.3827 0.9239
vn 0.9996 -0.0016 0.0275
vn 0.9995 0.0134 0.0298
vn 0.9999 0.0138 0.0105
vn 0.9999 0.0006 0.0105
vn -0.9996 -0.0016 0.0275
vn -0.9988 -0.0094 0.0472
vn -0.9997 0.0213 0.0101
vn -0.9999 0.0006 0.0106
vn -0.9917 -0.0883 0.0935
vn -0.9999 0.0137 0.0105
vn -0.9995 0.0134 0.0298
vn 0.9997 0.0212 0.0101
vn 0.9988 -0.0094 0.0472
vn 0.9917 -0.0883 0.0935
vn -0.0000 -0.9852 -0.1714
vn -0.0011 -0.9852 -0.1714
vn -0.0000 0.8665 -0.4991
vn -0.0028 0.8665 -0.4991
vn -0.0000 0.9739 -0.2271
vn -0.0000 -0.8371 0.5471
vn -0.0000 -0.9703 0.2418
vn -0.0000 0.9984 0.0566
vn -1.0000 -0.0000 -0.0000
vn 1.0000 -0.0000 -0.0000
vt -68.866554 -111.457520
vt -68.866554 -111.457527
vt -68.866547 -111.457527
vt -68.866547 -111.457520
vt -71.440269 -0.661310
vt -71.425751 -0.661468
vt -71.425751 0.585117
vt -71.440269 0.584960
vt -71.450592 -0.661310
vt -71.450592 0.584960
vt -71.457489 -0.661310
vt -71.457489 0.584960
vt -70.920654 -1.081630
vt -70.904221 -1.081422
vt -70.904221 0.157624
vt -70.920654 0.157830
vt -70.845222 0.577069
vt -70.845222 -0.653419
vt -70.839798 -0.653419
vt -70.839798 0.577069
vt -72.203148 -1.097223
vt -72.189590 -1.097223
vt -72.189590 0.182437
vt -72.203148 0.182437
vt -71.599266 -1.097223
vt -71.599266 0.182437
vt -71.943367 -1.090415
vt -71.943367 0.175629
vt -71.964561 0.175629
vt -71.964561 -1.090415
vt -71.547554 -1.097223
vt -71.547554 0.182437
vt -71.559685 0.182437
vt -71.559685 -1.097223
vt -71.577843 0.182437
vt -71.577843 -1.097223
vt -71.557716 -0.062675
vt -71.557716 0.589040
vt -72.154541 0.551868
vt -72.170959 0.549160
vt -72.181213 0.542310
vt -72.188065 0.532060
vt -72.190514 0.517635
vt -72.196228 -0.059047
vt -71.334824 0.439067
vt -71.334824 0.450813
vt -71.970413 0.440831
vt -71.973328 0.435440
vt -71.334824 0.589042
vt -71.967621 -0.141245
vt -71.965172 -0.155669
vt -71.958321 -0.165919
vt -71.948067 -0.172769
vt -71.931648 -0.175478
vt -71.334824 -0.212650
vt -72.193306 -0.064438
vt -71.557716 -0.074421
vt -71.557716 -0.212648
vt -71.517975 0.151999
vt -71.517975 -1.075798
vt -71.044312 -0.655261
vt -71.044312 0.595798
vt -71.688187 0.589400
vt -71.688187 -0.648864
vt -71.760834 -1.099306
vt -71.101936 -1.099306
vt -71.101936 0.184520
vt -71.760834 0.184520
vt -71.341721 0.175629
vt -71.341721 -1.090415
vt -71.262978 0.166919
vt -71.262978 0.328635
vt -71.912025 0.166919
vt -71.262978 0.153527
vt -71.919273 0.153527
vt -71.491394 -0.344166
vt -71.491394 0.328636
vt -72.092377 0.294550
vt -72.113541 0.290340
vt -72.131493 0.278349
vt -72.143478 0.260404
vt -72.147690 0.239237
vt -72.147690 -0.344166
vt -71.491394 -0.519274
vt -71.491394 -0.357557
vt -72.140442 -0.357557
vt -71.919273 -0.429874
vt -71.915062 -0.451041
vt -71.903069 -0.468987
vt -71.885124 -0.480977
vt -71.863953 -0.485188
vt -71.262978 -0.519273
s 1
usemtl M_FridgeDrawer4C6_4
f 17/1/1 18/2/1 20/3/1 19/4/1
f 68/5/2 69/6/3 73/7/4 74/8/2
f 67/9/5 68/5/2 74/8/2 75/10/5
f 66/11/6 67/9/5 75/10/5 76/12/6
f 57/13/7 66/14/6 76/15/6 60/16/8
f 62/17/9 73/7/4 69/6/3 61/18/9
f 55/19/10 56/20/10 62/17/9 61/18/9
f 34/21/11 33/22/12 32/23/12 31/24/11
f 32/23/12 33/22/12 43/25/13 46/26/14
f 44/27/15 45/28/15 47/29/16 48/30/16
f 48/31/16 47/32/16 49/33/17 50/34/17
f 50/34/17 49/33/17 51/35/18 52/36/18
f 52/36/18 51/35/18 46/26/14 43/25/13
f 77/37/19 78/38/20 60/39/21 76/40/21 75/41/21 74/42/21 73/43/21 62/44/22
f 79/45/23 80/46/24 55/47/25 61/48/26
f 80/46/24 81/49/27 55/47/25
f 79/45/23 61/48/26 69/50/28 68/51/28 67/52/28 66/53/28 57/54/28 82/55/29
f 77/37/19 62/44/22 56/56/30 83/57/31
f 83/57/31 56/56/30 84/58/32
f 57/13/7 60/16/8 78/59/33 82/60/34
f 81/61/35 84/62/36 56/63/37 55/64/37
f 86/65/38 34/66/39 31/67/39 85/68/38
f 88/69/40 45/28/15 44/27/15 87/70/40
f 89/71/41 85/72/41 31/73/41
f 90/74/41 89/71/41 31/73/41 32/75/41
f 91/76/42 87/77/42 44/78/42 48/79/42 50/80/42 52/81/42 43/82/42 33/83/42
f 86/84/42 92/85/42 34/86/42
f 91/76/42 33/83/42 34/86/42 92/85/42
f 90/74/41 32/75/41 46/87/41 51/88/41 49/89/41 47/90/41 45/91/41 88/92/41
