# Blender 4.1.0
# www.blender.org
mtllib FridgeDrawer2_18_FridgeDrawer2C6_2_GeomSubset_4.mtl
o FridgeDrawer2_18_FridgeDrawer2C6_2_GeomSubset_4
v 0.000154 0.015229 -0.841603
v 0.000163 0.015229 -0.841603
v 0.000154 0.015237 -0.841603
v 0.000163 0.015237 -0.841603
v 0.000154 0.015229 -0.841603
v 0.000163 0.015229 -0.841603
v 0.000154 0.015237 -0.841603
v 0.000163 0.015237 -0.841603
v 0.000154 0.015229 -0.841603
v 0.000163 0.015229 -0.841603
v 0.000154 0.015237 -0.841603
v 0.000163 0.015237 -0.841603
v 0.000154 0.015229 -0.841603
v 0.000163 0.015229 -0.841603
v 0.000154 0.015237 -0.841603
v 0.000163 0.015237 -0.841603
v 0.000154 0.015229 -0.841603
v 0.000163 0.015229 -0.841603
v 0.000154 0.015237 -0.841603
v 0.000163 0.015237 -0.841603
v 0.000154 0.015229 -0.841603
v 0.000163 0.015229 -0.841603
v 0.000154 0.015237 -0.841603
v 0.000163 0.015237 -0.841603
v 0.000154 0.015229 -0.841603
v 0.000163 0.015229 -0.841603
v 0.000154 0.015237 -0.841603
v 0.000163 0.015237 -0.841603
v 0.027887 0.119722 0.292065
v 0.447011 0.119721 0.292065
v 0.027887 0.057353 0.196658
v 0.027887 0.052915 0.194256
v 0.447011 0.052913 0.194256
v 0.447011 0.057352 0.196658
v 0.027887 0.119722 0.298609
v 0.027887 0.057353 0.298609
v 0.027887 0.052915 0.298609
v 0.027886 -0.173477 0.298609
v 0.447011 0.057352 0.298609
v 0.447011 0.119721 0.298609
v 0.447011 0.052913 0.298609
v 0.447010 -0.173479 0.298609
v 0.447010 -0.140436 0.194256
v 0.447010 -0.158768 0.212588
v 0.027886 -0.158767 0.212589
v 0.027886 -0.140435 0.194256
v 0.027886 -0.157371 0.205573
v 0.447010 -0.157372 0.205573
v 0.027886 -0.153397 0.199626
v 0.447010 -0.153398 0.199626
v 0.027886 -0.147450 0.195652
v 0.447010 -0.147451 0.195652
v 0.032441 0.112222 0.294299
v 0.442457 0.112221 0.294299
v 0.439942 0.053192 0.201179
v 0.034956 0.053193 0.201179
v 0.442607 -0.151005 0.214024
v 0.440049 -0.167327 0.299661
v 0.034848 -0.167325 0.299661
v 0.032289 -0.151004 0.214024
v 0.439942 0.051406 0.200212
v 0.034956 0.051407 0.200212
v 0.037732 0.057353 0.298609
v 0.034849 0.113481 0.298609
v 0.037732 0.052915 0.298609
v 0.442539 -0.150107 0.208583
v 0.442539 -0.147838 0.205186
v 0.442539 -0.144442 0.202917
v 0.442590 -0.139663 0.202106
v 0.437166 0.052913 0.298609
v 0.440050 0.113480 0.298609
v 0.437166 0.057352 0.298609
v 0.032306 -0.139661 0.202106
v 0.032358 -0.144441 0.202917
v 0.032358 -0.147837 0.205186
v 0.032358 -0.150106 0.208583
v 0.037169 0.052609 0.278644
v 0.034220 -0.163320 0.278644
v 0.437729 0.052607 0.278644
v 0.437735 0.056499 0.278644
v 0.442034 0.102297 0.278644
v 0.440676 -0.163321 0.278644
v 0.037163 0.056500 0.278644
v 0.032864 0.102298 0.278644
v 0.027887 0.110949 0.278644
v 0.447011 0.110947 0.278644
v 0.447010 -0.170064 0.278644
v 0.027886 -0.170063 0.278644
v 0.027887 0.057353 0.278644
v 0.027887 0.052915 0.278644
v 0.447011 0.052913 0.278644
v 0.447011 0.057352 0.278644
v 0.027886 -0.185925 0.298609
v 0.447010 -0.185926 0.298609
v 0.447010 -0.182512 0.278644
v 0.027886 -0.182511 0.278644
vn -0.0000 -0.0000 1.0000
vn -0.0000 0.3519 0.9360
vn -0.0000 0.0139 0.9999
vn 0.0008 0.0139 0.9999
vn -0.0000 0.7072 0.7071
vn -0.0000 0.9417 0.3365
vn -0.0000 0.9827 0.1853
vn -0.0000 0.0048 1.0000
vn -0.0000 -0.8389 0.5443
vn 0.0001 0.8239 -0.5668
vn -0.0000 0.0123 -0.9999
vn -0.0000 0.8239 -0.5668
vn -0.0000 -0.0070 -1.0000
vn -0.0000 -0.9853 -0.1711
vn -0.0000 -0.9239 -0.3827
vn -0.0000 -0.7071 -0.7071
vn -0.0000 -0.3827 -0.9239
vn 0.9995 -0.0138 -0.0290
vn 0.9995 -0.0143 -0.0287
vn 0.9995 -0.0141 -0.0287
vn -0.9995 -0.0138 -0.0290
vn -0.9952 0.0833 -0.0523
vn -0.9974 0.0644 -0.0311
vn -0.9995 -0.0141 -0.0287
vn -0.9936 0.0905 -0.0672
vn -0.9995 -0.0143 -0.0287
vn -0.9995 -0.0139 -0.0295
vn 0.9974 0.0644 -0.0311
vn 0.9952 0.0833 -0.0523
vn 0.9936 0.0905 -0.0672
vn -0.0000 0.9823 0.1872
vn -0.0000 -0.8446 0.5354
vn -0.0000 0.8370 -0.5472
vn -0.0000 -0.9857 -0.1686
vn -1.0000 -0.0000 -0.0000
vn 1.0000 -0.0000 -0.0000
vt -68.800888 -111.597702
vt -68.800888 -111.597710
vt -68.800880 -111.597710
vt -68.800880 -111.597702
vt -71.599365 -1.054115
vt -71.583702 -1.054285
vt -71.583702 0.290410
vt -71.599365 0.290241
vt -71.610497 -1.054115
vt -71.610497 0.290241
vt -71.617935 -1.054115
vt -71.617935 0.290241
vt -71.348366 -1.006388
vt -71.331802 -1.006179
vt -71.331802 0.242354
vt -71.348366 0.242562
vt -70.957481 0.281728
vt -70.957481 -1.045603
vt -70.951630 -1.045603
vt -70.951630 0.281728
vt -72.060043 -1.063851
vt -72.045471 -1.063851
vt -72.045471 0.312473
vt -72.060043 0.312473
vt -71.410545 -1.063851
vt -71.410545 0.312473
vt -71.637131 -1.012736
vt -71.637131 0.261357
vt -71.658455 0.261357
vt -71.658455 -1.012736
vt -71.354927 -1.063851
vt -71.354927 0.312473
vt -71.367981 0.312473
vt -71.367981 -1.063851
vt -71.387512 0.312473
vt -71.387512 -1.063851
vt -71.177002 -0.151153
vt -71.177002 0.500685
vt -71.372078 0.463506
vt -71.388504 0.460797
vt -71.398750 0.453946
vt -71.405602 0.443694
vt -71.408051 0.429267
vt -71.413773 -0.147525
vt -71.294006 0.350731
vt -71.294006 0.362479
vt -71.527855 0.352495
vt -71.530769 0.347103
vt -71.294006 0.500733
vt -71.525055 -0.229689
vt -71.522606 -0.244116
vt -71.515755 -0.254369
vt -71.505501 -0.261220
vt -71.489075 -0.263929
vt -71.294006 -0.301108
vt -71.410851 -0.152916
vt -71.177002 -0.162901
vt -71.177002 -0.301155
vt -71.545059 0.236685
vt -71.545059 -1.000511
vt -70.790688 -1.052460
vt -70.790688 0.288585
vt -72.236038 -1.063851
vt -72.236038 0.312473
vt -71.436333 0.261357
vt -71.436333 -1.012736
vt -70.921440 0.372882
vt -70.921440 0.534599
vt -71.168823 0.372882
vt -70.921440 0.359490
vt -71.176064 0.359490
vt -71.046860 -0.138201
vt -71.046860 0.534599
vt -71.246178 0.500514
vt -71.267342 0.496303
vt -71.285286 0.484313
vt -71.297279 0.466368
vt -71.301491 0.445200
vt -71.301491 -0.138201
vt -71.046860 -0.313309
vt -71.046860 -0.151593
vt -71.294243 -0.151593
vt -71.176064 -0.223909
vt -71.171852 -0.245077
vt -71.159866 -0.263022
vt -71.141922 -0.275013
vt -71.120750 -0.279223
vt -70.921440 -0.313309
s 1
usemtl M_FridgeDrawer2C6_4
f 17/1/1 18/2/1 20/3/1 19/4/1
f 68/5/2 69/6/3 73/7/4 74/8/2
f 67/9/5 68/5/2 74/8/2 75/10/5
f 66/11/6 67/9/5 75/10/5 76/12/6
f 57/13/7 66/14/6 76/15/6 60/16/7
f 62/17/8 73/7/4 69/6/3 61/18/8
f 55/19/9 56/20/9 62/17/8 61/18/8
f 34/21/10 33/22/11 32/23/11 31/24/12
f 32/23/11 33/22/11 43/25/13 46/26/13
f 44/27/14 45/28/14 47/29/15 48/30/15
f 48/31/15 47/32/15 49/33/16 50/34/16
f 50/34/16 49/33/16 51/35/17 52/36/17
f 52/36/17 51/35/17 46/26/13 43/25/13
f 77/37/18 78/38/19 60/39/19 76/40/19 75/41/19 74/42/19 73/43/19 62/44/20
f 79/45/21 80/46/22 55/47/23 61/48/24
f 80/46/22 81/49/25 55/47/23
f 79/45/21 61/48/24 69/50/26 68/51/26 67/52/26 66/53/26 57/54/26 82/55/27
f 77/37/18 62/44/20 56/56/28 83/57/29
f 83/57/29 56/56/28 84/58/30
f 57/13/7 60/16/7 78/59/31 82/60/31
f 81/61/32 84/62/32 56/20/9 55/19/9
f 86/63/33 34/21/10 31/24/12 85/64/33
f 88/65/34 45/28/14 44/27/14 87/66/34
f 89/67/35 85/68/35 31/69/35
f 90/70/35 89/67/35 31/69/35 32/71/35
f 91/72/36 87/73/36 44/74/36 48/75/36 50/76/36 52/77/36 43/78/36 33/79/36
f 86/80/36 92/81/36 34/82/36
f 91/72/36 33/79/36 34/82/36 92/81/36
f 90/70/35 32/71/35 46/83/35 51/84/35 49/85/35 47/86/35 45/87/35 88/88/35
