# Blender 4.1.0
# www.blender.org
mtllib FridgeDrawer1_18_FridgeDrawer1C6_1_GeomSubset_0.mtl
o FridgeDrawer1_18_FridgeDrawer1C6_1_GeomSubset_0
v 0.000154 0.015229 -0.841603
v 0.000163 0.015229 -0.841603
v 0.000154 0.015237 -0.841603
v 0.000163 0.015237 -0.841603
v 0.000154 0.015229 -0.841603
v 0.000163 0.015229 -0.841603
v 0.000154 0.015237 -0.841603
v 0.000163 0.015237 -0.841603
v 0.000154 0.015229 -0.841603
v 0.000163 0.015229 -0.841603
v 0.000154 0.015237 -0.841603
v 0.000163 0.015237 -0.841603
v 0.000154 0.015229 -0.841603
v 0.000163 0.015229 -0.841603
v 0.000154 0.015237 -0.841603
v 0.000163 0.015237 -0.841603
v 0.000154 0.015229 -0.841603
v 0.000163 0.015229 -0.841603
v 0.000154 0.015237 -0.841603
v 0.000163 0.015237 -0.841603
v 0.000154 0.015229 -0.841603
v 0.000163 0.015229 -0.841603
v 0.000154 0.015237 -0.841603
v 0.000163 0.015237 -0.841603
v 0.000154 0.015229 -0.841603
v 0.000163 0.015229 -0.841603
v 0.000154 0.015237 -0.841603
v 0.000163 0.015237 -0.841603
v -0.446718 0.119724 0.292065
v -0.027593 0.119722 0.292065
v -0.446718 0.057354 0.196658
v -0.446718 0.052916 0.194256
v -0.027594 0.052915 0.194256
v -0.027594 0.057353 0.196658
v -0.446718 0.119724 0.298609
v -0.446718 0.057354 0.298609
v -0.446718 0.052916 0.298609
v -0.446719 -0.173476 0.298609
v -0.027594 0.057353 0.298609
v -0.027593 0.119722 0.298609
v -0.027594 0.052915 0.298609
v -0.027594 -0.173477 0.298609
v -0.027594 -0.140434 0.194256
v -0.027594 -0.158766 0.212588
v -0.446719 -0.158765 0.212589
v -0.446719 -0.140433 0.194256
v -0.446719 -0.157370 0.205573
v -0.027594 -0.157371 0.205573
v -0.446719 -0.153396 0.199626
v -0.027594 -0.153397 0.199626
v -0.446719 -0.147448 0.195652
v -0.027594 -0.147450 0.195652
v -0.442164 0.112224 0.294299
v -0.032147 0.112223 0.294299
v -0.034663 0.053193 0.201179
v -0.439649 0.053194 0.201179
v -0.031998 -0.151003 0.214024
v -0.034556 -0.167325 0.299661
v -0.439757 -0.167324 0.299661
v -0.442315 -0.151002 0.214024
v -0.034663 0.051407 0.200212
v -0.439649 0.051408 0.200212
v -0.436873 0.057354 0.298609
v -0.439756 0.113482 0.298609
v -0.436873 0.052916 0.298609
v -0.032066 -0.150106 0.208583
v -0.032066 -0.147837 0.205186
v -0.032066 -0.144440 0.202917
v -0.032014 -0.139661 0.202106
v -0.037439 0.052915 0.298609
v -0.034555 0.113481 0.298609
v -0.037439 0.057353 0.298609
v -0.442299 -0.139660 0.202106
v -0.442247 -0.144439 0.202917
v -0.442247 -0.147835 0.205186
v -0.442247 -0.150105 0.208583
v -0.437436 0.052610 0.278644
v -0.440385 -0.163318 0.278644
v -0.036876 0.052609 0.278644
v -0.036870 0.056501 0.278644
v -0.032570 0.102299 0.278644
v -0.033928 -0.163319 0.278644
v -0.437441 0.056502 0.278644
v -0.441741 0.102300 0.278644
v -0.446718 0.110950 0.278644
v -0.027593 0.110949 0.278644
v -0.027594 -0.170063 0.278644
v -0.446719 -0.170062 0.278644
v -0.446718 0.057354 0.278644
v -0.446718 0.052916 0.278644
v -0.027594 0.052915 0.278644
v -0.027594 0.057353 0.278644
v -0.446719 -0.185924 0.298609
v -0.027594 -0.185925 0.298609
v -0.027594 -0.182510 0.278644
v -0.446719 -0.182509 0.278644
vn -0.0000 -0.0000 1.0000
vn -0.0000 -0.8654 0.5011
vn -0.0000 -0.9599 0.2802
vn -0.0262 -0.0987 0.9948
vn -0.0087 -0.0268 0.9996
vn 0.0087 -0.0268 0.9996
vn 0.0262 -0.0986 0.9948
vn -0.0621 0.0027 0.9981
vn 0.0620 0.0027 0.9981
vn -0.0001 0.9155 -0.4022
vn -0.0000 1.0000 -0.0000
vn -0.0000 0.9155 -0.4022
vn 0.9995 -0.0134 -0.0303
vn 0.9995 -0.0137 -0.0298
vn 0.9995 -0.0139 -0.0290
vn 0.9995 -0.0132 -0.0302
vn -0.9925 0.0820 -0.0906
vn -0.9952 0.0833 -0.0523
vn -0.9995 -0.0138 -0.0290
vn -0.9995 -0.0132 -0.0302
vn -0.9915 0.0881 -0.0953
vn -0.9936 0.0906 -0.0672
vn -0.9995 -0.0134 -0.0303
vn -0.9995 -0.0141 -0.0292
vn 0.9925 0.0820 -0.0906
vn 0.9952 0.0833 -0.0523
vn 0.9936 0.0905 -0.0672
vn 0.9915 0.0881 -0.0953
vn -0.0000 0.9823 0.1872
vn -0.0000 -0.8446 0.5354
vn -0.0000 0.8370 -0.5472
vn -0.0000 -0.9857 -0.1686
vn -1.0000 -0.0000 -0.0000
vn 1.0000 -0.0000 -0.0000
vn -0.0000 -0.0000 -1.0000
vt -170.848938 -110.532585
vt -170.848938 -110.532669
vt -170.848846 -110.532669
vt -170.848846 -110.532585
vt -170.277832 0.749189
vt -170.277832 -0.673803
vt -170.262878 -0.665446
vt -170.262878 0.740832
vt -171.148468 0.701568
vt -171.168350 0.724097
vt -171.168350 -0.632200
vt -171.148468 -0.609671
vt -170.239761 0.701568
vt -170.219543 0.724097
vt -170.421356 0.724097
vt -170.421356 0.692236
vt -170.435730 0.724097
vt -170.435730 0.692236
vt -170.435730 -0.632200
vt -170.435730 -0.600340
vt -170.421356 -0.600340
vt -170.421356 -0.632200
vt -170.219543 -0.632200
vt -170.239761 -0.609671
vt -170.424484 0.766090
vt -170.446960 0.766090
vt -170.446960 -0.674194
vt -170.424484 -0.674194
vt -170.097977 0.932135
vt -170.165985 0.919182
vt -170.165985 0.220993
vt -170.101395 0.220004
vt -170.144867 0.750740
vt -170.209457 0.747983
vt -170.209457 0.735395
vt -170.144867 0.736385
vt -170.144867 0.932288
vt -170.158844 0.928217
vt -170.209457 0.896118
vt -170.141479 0.024013
vt -170.209457 0.036970
vt -170.101395 0.205653
vt -170.165985 0.208410
vt -170.165985 0.060325
vt -170.115326 0.028237
vt -170.101395 0.024167
vt -170.219345 0.697091
vt -170.287857 0.695043
vt -170.287857 -0.626110
vt -170.219345 -0.628157
vt -170.332153 0.747722
vt -170.332153 -0.672335
vt -170.378372 -0.674194
vt -170.378372 0.766090
vt -170.402191 0.727827
vt -170.402191 -0.635931
vt -170.337189 -0.635931
vt -170.337189 0.727827
vt -170.177628 0.235369
vt -170.177628 0.436895
vt -170.198776 0.436895
vt -170.242142 0.408546
vt -170.242142 0.235369
vt -170.242142 0.221029
vt -170.177628 0.221029
vt -170.134674 -0.334849
vt -170.134674 0.396700
vt -170.199173 0.385667
vt -170.199173 -0.334849
vt -170.134674 -0.349191
vt -170.199173 -0.349191
vt -170.199173 -0.522376
vt -170.155792 -0.550727
vt -170.134674 -0.550727
vt -170.177628 -0.510480
vt -170.242142 -0.499448
vt -171.208633 0.724097
vt -171.208633 -0.632200
vt -170.242142 -0.539668
vt -170.177628 -0.550700
vt -170.353653 0.722995
vt -170.353653 -0.631099
vt -170.313431 -0.631099
vt -170.313431 0.722995
vt -170.134674 0.436923
vt -170.199173 0.425890
s 1
usemtl M_FridgeDrawer1C6_0
f 1/1/1 2/2/1 4/3/1 3/4/1
f 53/5/2 54/6/2 71/7/3 64/8/3
f 59/9/4 38/10/5 42/11/6 58/12/7
f 64/13/1 35/14/1 36/15/1 63/16/1
f 63/16/1 36/15/1 37/17/8 65/18/8
f 58/12/7 42/11/6 41/19/9 70/20/9
f 72/21/1 39/22/1 40/23/1 71/24/1
f 70/20/9 41/19/9 39/22/1 72/21/1
f 65/18/8 37/17/8 38/10/5 59/9/4
f 71/24/1 40/23/1 35/14/1 64/13/1
f 29/25/10 35/26/11 40/27/11 30/28/12
f 59/29/13 78/30/14 77/31/15 65/32/16
f 72/33/17 80/34/18 79/35/19 70/36/20
f 72/33/17 71/37/21 54/38/21 81/39/22 80/34/18
f 58/40/23 70/36/20 79/35/19 82/41/24
f 63/42/25 65/32/16 77/31/15 83/43/26
f 63/42/25 83/43/26 84/44/27 53/45/28 64/46/28
f 78/47/29 59/48/29 58/49/29 82/50/29
f 54/6/2 53/5/2 84/51/30 81/52/30
f 86/53/31 85/54/31 29/25/10 30/28/12
f 96/55/32 95/56/32 94/57/32 93/58/32
f 36/59/33 35/60/33 29/61/33 85/62/33 89/63/33
f 90/64/33 37/65/33 36/59/33 89/63/33
f 41/66/34 42/67/34 87/68/34 91/69/34
f 39/70/34 92/71/34 86/72/34 30/73/34 40/74/34
f 92/71/34 39/70/34 41/66/34 91/69/34
f 38/75/33 37/65/33 90/64/33 88/76/33
f 42/11/6 38/10/5 93/77/1 94/78/1
f 38/75/33 88/76/33 96/79/33 93/80/33
f 88/81/35 87/82/35 95/83/35 96/84/35
f 87/68/34 42/67/34 94/85/34 95/86/34
