# Blender 4.1.0
# www.blender.org
mtllib MeshFridgeMaindoor2C6_7_GeomSubset_5.mtl
o MeshFridgeMaindoor2C6_7_GeomSubset_5
v 0.000154 0.022932 -0.841603
v 0.000163 0.022932 -0.841603
v 0.000154 0.022940 -0.841603
v 0.000163 0.022940 -0.841603
v 0.000154 0.022932 -0.841603
v 0.000163 0.022932 -0.841603
v 0.000154 0.022940 -0.841603
v 0.000163 0.022940 -0.841603
v 0.000154 0.022932 -0.841603
v 0.000163 0.022932 -0.841603
v 0.000154 0.022940 -0.841603
v 0.000163 0.022940 -0.841603
v 0.000154 0.022932 -0.841603
v 0.000163 0.022932 -0.841603
v 0.000154 0.022940 -0.841603
v 0.000163 0.022940 -0.841603
v 0.000154 0.022932 -0.841603
v 0.000163 0.022932 -0.841603
v 0.000154 0.022940 -0.841603
v 0.000163 0.022940 -0.841603
v 0.000154 0.022932 -0.841603
v 0.000163 0.022932 -0.841603
v 0.000154 0.022940 -0.841603
v 0.000163 0.022940 -0.841603
v 0.000154 0.022932 -0.841603
v 0.000163 0.022932 -0.841603
v 0.000154 0.022940 -0.841603
v 0.000163 0.022940 -0.841603
v 0.539465 -0.266174 0.793017
v 0.000486 -0.277487 0.793017
v 0.539465 -0.266174 -0.183340
v 0.000486 -0.277489 -0.183340
v 0.000486 -0.187189 0.793017
v 0.539466 -0.187191 0.793017
v 0.000486 -0.187189 -0.183340
v 0.539466 -0.187191 -0.183340
v 0.117875 -0.285410 -0.101865
v 0.117875 -0.285410 0.750015
v 0.064861 -0.285409 0.750015
v 0.064861 -0.285409 -0.101865
v 0.117875 -0.311437 -0.101865
v 0.117875 -0.311437 0.750015
v 0.064861 -0.311437 0.750015
v 0.064861 -0.311437 -0.101865
v 0.113205 -0.285410 -0.106052
v 0.113205 -0.285410 0.754203
v 0.069531 -0.285409 0.754203
v 0.069531 -0.285409 -0.106052
v 0.113205 -0.274659 -0.106052
v 0.113205 -0.274659 0.754203
v 0.069531 -0.274659 0.754203
v 0.069531 -0.274659 -0.106052
v 0.109292 -0.318452 -0.101865
v 0.109292 -0.318452 0.750015
v 0.073444 -0.318452 0.750015
v 0.073444 -0.318452 -0.101865
v 0.117875 -0.285410 -0.122007
v 0.113583 -0.285410 -0.125855
v 0.113583 -0.285410 0.774006
v 0.117875 -0.285410 0.770159
v 0.064861 -0.285409 0.770159
v 0.069152 -0.285409 0.774006
v 0.069152 -0.285409 -0.125855
v 0.064861 -0.285409 -0.122007
v 0.113583 -0.311437 -0.125855
v 0.117875 -0.311437 -0.122007
v 0.117875 -0.311437 0.770159
v 0.113583 -0.311437 0.774006
v 0.069152 -0.311437 0.774006
v 0.064861 -0.311437 0.770159
v 0.064861 -0.311437 -0.122007
v 0.069152 -0.311437 -0.125855
v 0.113205 -0.285410 -0.117820
v 0.108913 -0.285410 -0.121668
v 0.108913 -0.285410 0.769819
v 0.113205 -0.285410 0.765973
v 0.069531 -0.285409 0.765973
v 0.073823 -0.285409 0.769819
v 0.073823 -0.285409 -0.121668
v 0.069531 -0.285409 -0.117820
v 0.113205 -0.274659 -0.117820
v 0.108913 -0.274659 -0.121668
v 0.113205 -0.274659 0.765973
v 0.108913 -0.274659 0.769819
v 0.069531 -0.274659 0.765973
v 0.073823 -0.274659 0.769819
v 0.069531 -0.274659 -0.117820
v 0.073823 -0.274659 -0.121668
v 0.109292 -0.318452 -0.114312
v 0.105000 -0.318452 -0.118160
v 0.109292 -0.318452 0.762464
v 0.105000 -0.318452 0.766311
v 0.073444 -0.318452 0.762464
v 0.077735 -0.318452 0.766311
v 0.073444 -0.318452 -0.114312
v 0.077735 -0.318452 -0.118160
v 0.539465 -0.266174 0.828702
v 0.000486 -0.277487 0.828702
v 0.000486 -0.187189 0.828702
v 0.539466 -0.187191 0.828702
v 0.082532 -0.187190 0.735984
v 0.060317 -0.187190 0.716068
v 0.475848 -0.187191 0.716068
v 0.453633 -0.187191 0.735984
v 0.060317 -0.187190 -0.106391
v 0.082532 -0.187190 -0.126307
v 0.453633 -0.187191 -0.126307
v 0.475848 -0.187191 -0.106391
v 0.082532 -0.257120 0.735984
v 0.060316 -0.257120 0.716068
v 0.475848 -0.257121 0.716068
v 0.453633 -0.257121 0.735984
v 0.060317 -0.257120 -0.106391
v 0.082532 -0.257120 -0.126307
v 0.475848 -0.257121 -0.106391
v 0.453633 -0.257121 -0.126307
v 0.485442 -0.187191 0.764501
v 0.507657 -0.187191 0.744586
v 0.052617 -0.187190 0.764501
v 0.030401 -0.187189 0.744586
v 0.030401 -0.187189 -0.134908
v 0.052617 -0.187190 -0.154824
v 0.485442 -0.187191 -0.154824
v 0.507657 -0.187191 -0.134908
v 0.052112 -0.179268 0.723422
v 0.074328 -0.179268 0.743340
v 0.461837 -0.179269 0.743340
v 0.484053 -0.179269 0.723422
v 0.074328 -0.179268 -0.133663
v 0.052112 -0.179268 -0.113747
v 0.484053 -0.179269 -0.113747
v 0.461837 -0.179269 -0.133663
v 0.499453 -0.179269 0.737229
v 0.477237 -0.179269 0.757145
v 0.038606 -0.179268 0.737229
v 0.060822 -0.179268 0.757145
v 0.038606 -0.179268 -0.127552
v 0.060822 -0.179268 -0.147468
v 0.499453 -0.179269 -0.127552
v 0.477237 -0.179269 -0.147468
v 0.066823 -0.187190 0.730150
v 0.066823 -0.257120 0.730150
v 0.469341 -0.257121 0.730150
v 0.469342 -0.187191 0.730150
v 0.066824 -0.187190 -0.120474
v 0.066823 -0.257120 -0.120474
v 0.469342 -0.187191 -0.120474
v 0.469341 -0.257121 -0.120474
v 0.492946 -0.179269 0.751312
v 0.477546 -0.179269 0.737507
v 0.477546 -0.179269 -0.127829
v 0.492946 -0.179269 -0.141635
v 0.058619 -0.179268 -0.127829
v 0.045113 -0.179268 -0.141635
v 0.058619 -0.179268 0.737507
v 0.045113 -0.179268 0.751312
v 0.036908 -0.187189 0.758667
v 0.501150 -0.187191 0.758667
v 0.036908 -0.187189 -0.148990
v 0.501150 -0.187191 -0.148990
v 0.539465 -0.266174 0.817386
v 0.000486 -0.277487 0.817386
v 0.000486 -0.187189 0.817386
v 0.539466 -0.187191 0.817386
v 0.539465 -0.271832 0.828702
v 0.000486 -0.283147 0.828702
v 0.539465 -0.271832 0.817386
v 0.000486 -0.283147 0.817386
v 0.359805 -0.277490 -0.183340
v 0.359894 -0.279753 0.793017
v 0.359806 -0.187190 0.828702
v 0.359805 -0.277488 0.828702
v 0.359806 -0.187190 -0.183340
v 0.359806 -0.187190 -0.154824
v 0.359806 -0.179269 -0.147468
v 0.359806 -0.187190 0.764501
v 0.359806 -0.179269 0.757145
v 0.359806 -0.187190 -0.126307
v 0.359806 -0.179269 -0.133663
v 0.359806 -0.187190 0.735984
v 0.359806 -0.179269 0.743340
v 0.359806 -0.187190 0.793017
v 0.359805 -0.257121 -0.126307
v 0.359805 -0.257121 0.735984
v 0.359805 -0.283148 0.828702
v 0.359805 -0.283148 0.817386
v 0.359805 -0.277488 0.817386
v 0.359806 -0.187190 0.817386
v 0.537627 -0.268558 0.793017
v 0.002506 -0.279752 0.793017
v 0.537627 -0.268558 -0.181529
v 0.002506 -0.279752 -0.181529
v 0.537627 -0.268558 0.815575
v 0.002506 -0.279752 0.815575
v 0.359894 -0.279753 -0.181529
v 0.359894 -0.279753 0.815575
v 0.536941 -0.264064 -0.184471
v 0.003011 -0.275225 -0.184471
v 0.003011 -0.189454 -0.184471
v 0.536941 -0.189455 -0.184471
v 0.359717 -0.275226 -0.184471
v 0.359806 -0.189455 -0.184471
v -0.003940 -0.274671 0.793023
v -0.003946 -0.274675 -0.180513
v -0.003952 -0.189994 0.793023
v -0.003964 -0.189980 -0.180513
v -0.003932 -0.274659 0.814558
v -0.003932 -0.190018 0.814558
v 0.067703 -0.242395 -0.013034
v 0.475156 -0.242397 -0.013034
v 0.475156 -0.242397 -0.109560
v 0.460388 -0.242397 -0.122233
v 0.081840 -0.242395 -0.122233
v 0.067703 -0.242395 -0.109560
v 0.475157 -0.200982 -0.109560
v 0.461019 -0.188308 -0.109560
v 0.460388 -0.200982 -0.122233
v 0.081841 -0.188307 -0.109560
v 0.067703 -0.200981 -0.109560
v 0.081841 -0.200981 -0.122233
v 0.067703 -0.200981 -0.013034
v 0.081841 -0.188307 -0.013034
v 0.461019 -0.188308 -0.013034
v 0.475157 -0.200982 -0.013034
v 0.081841 -0.192020 -0.118521
v 0.461019 -0.192021 -0.118521
v 0.071844 -0.242395 -0.118521
v 0.071844 -0.200981 -0.118521
v 0.470384 -0.242397 -0.118521
v 0.470385 -0.200982 -0.118521
v 0.071844 -0.192020 -0.013034
v 0.071844 -0.192020 -0.109560
v 0.471016 -0.192021 -0.109560
v 0.471016 -0.192021 -0.013034
v 0.469636 -0.193259 -0.117284
v 0.073224 -0.193257 -0.117284
v 0.078559 -0.232664 -0.013260
v 0.464301 -0.232665 -0.013260
v 0.078559 -0.202917 -0.013260
v 0.084000 -0.198040 -0.013260
v 0.458860 -0.198041 -0.013260
v 0.464301 -0.202918 -0.013260
v 0.080152 -0.199468 -0.013260
v 0.462707 -0.199469 -0.013260
v 0.078559 -0.232664 -0.104920
v 0.464301 -0.232665 -0.104920
v 0.078559 -0.202917 -0.104920
v 0.084000 -0.198040 -0.104920
v 0.458481 -0.198041 -0.104920
v 0.464301 -0.202918 -0.104920
v 0.080152 -0.199468 -0.104920
v 0.462329 -0.199469 -0.104920
v 0.067708 -0.242391 -0.002960
v 0.475152 -0.242393 -0.002960
v 0.067828 -0.201003 -0.002963
v 0.081865 -0.188419 -0.002963
v 0.460994 -0.188420 -0.002963
v 0.475032 -0.201004 -0.002963
v 0.071918 -0.192086 -0.002962
v 0.470942 -0.192088 -0.002962
v 0.078815 -0.232434 -0.003192
v 0.464044 -0.232435 -0.003192
v 0.078936 -0.202985 -0.003194
v 0.084075 -0.198377 -0.003194
v 0.458785 -0.198378 -0.003194
v 0.463924 -0.202986 -0.003194
v 0.080420 -0.199708 -0.003194
v 0.462440 -0.199709 -0.003194
v 0.065811 -0.244091 -0.010431
v 0.477049 -0.244092 -0.010431
v 0.065842 -0.200649 -0.010412
v 0.081470 -0.186639 -0.010412
v 0.461389 -0.186640 -0.010412
v 0.477017 -0.200650 -0.010412
v 0.070414 -0.190737 -0.010414
v 0.472446 -0.190738 -0.010414
v 0.065811 -0.244089 -0.005562
v 0.477048 -0.244090 -0.005562
v 0.065903 -0.200661 -0.005546
v 0.081485 -0.186693 -0.005546
v 0.461375 -0.186694 -0.005546
v 0.476956 -0.200662 -0.005546
v 0.070448 -0.190769 -0.005548
v 0.472412 -0.190770 -0.005548
v 0.067703 -0.242395 0.289995
v 0.475156 -0.242397 0.289995
v 0.475156 -0.242397 0.193469
v 0.460388 -0.242397 0.180795
v 0.081840 -0.242395 0.180795
v 0.067703 -0.242395 0.193469
v 0.475157 -0.200982 0.193469
v 0.461019 -0.188308 0.193469
v 0.460388 -0.200982 0.180795
v 0.081841 -0.188307 0.193469
v 0.067703 -0.200981 0.193469
v 0.081841 -0.200981 0.180795
v 0.067703 -0.200981 0.289995
v 0.081841 -0.188307 0.289995
v 0.461019 -0.188308 0.289995
v 0.475157 -0.200982 0.289995
v 0.081841 -0.192020 0.184507
v 0.461019 -0.192021 0.184507
v 0.071844 -0.242395 0.184507
v 0.071844 -0.200981 0.184507
v 0.470384 -0.242397 0.184507
v 0.470385 -0.200982 0.184507
v 0.071844 -0.192020 0.289995
v 0.071844 -0.192020 0.193469
v 0.471016 -0.192021 0.193469
v 0.471016 -0.192021 0.289995
v 0.469636 -0.193259 0.185745
v 0.073224 -0.193257 0.185745
v 0.078559 -0.232664 0.289768
v 0.464301 -0.232665 0.289768
v 0.078559 -0.202917 0.289768
v 0.084000 -0.198040 0.289768
v 0.458860 -0.198041 0.289768
v 0.464301 -0.202918 0.289768
v 0.080152 -0.199468 0.289768
v 0.462707 -0.199469 0.289768
v 0.078559 -0.232664 0.198109
v 0.464301 -0.232665 0.198109
v 0.078559 -0.202917 0.198109
v 0.084000 -0.198040 0.198109
v 0.458481 -0.198041 0.198109
v 0.464301 -0.202918 0.198109
v 0.080152 -0.199468 0.198109
v 0.462329 -0.199469 0.198109
v 0.067708 -0.242391 0.300069
v 0.475152 -0.242393 0.300069
v 0.067828 -0.201003 0.300066
v 0.081865 -0.188419 0.300066
v 0.460994 -0.188420 0.300066
v 0.475032 -0.201004 0.300066
v 0.071918 -0.192086 0.300067
v 0.470942 -0.192088 0.300067
v 0.078815 -0.232434 0.299837
v 0.464044 -0.232435 0.299837
v 0.078936 -0.202985 0.299834
v 0.084075 -0.198377 0.299834
v 0.458785 -0.198378 0.299834
v 0.463924 -0.202986 0.299834
v 0.080420 -0.199708 0.299835
v 0.462440 -0.199709 0.299835
v 0.065811 -0.244091 0.292599
v 0.477049 -0.244092 0.292599
v 0.065842 -0.200649 0.292617
v 0.081470 -0.186639 0.292617
v 0.461389 -0.186640 0.292617
v 0.477017 -0.200650 0.292617
v 0.070414 -0.190737 0.292614
v 0.472446 -0.190738 0.292614
v 0.065811 -0.244089 0.297468
v 0.477048 -0.244090 0.297468
v 0.065903 -0.200661 0.297483
v 0.081485 -0.186693 0.297483
v 0.461375 -0.186694 0.297483
v 0.476956 -0.200662 0.297483
v 0.070448 -0.190769 0.297481
v 0.472412 -0.190770 0.297481
v 0.067703 -0.242395 0.586500
v 0.475156 -0.242397 0.586500
v 0.475156 -0.242397 0.489974
v 0.460388 -0.242397 0.477301
v 0.081840 -0.242395 0.477301
v 0.067703 -0.242395 0.489974
v 0.475157 -0.200982 0.489974
v 0.461019 -0.188308 0.489974
v 0.460388 -0.200982 0.477301
v 0.081841 -0.188307 0.489974
v 0.067703 -0.200981 0.489974
v 0.081841 -0.200981 0.477301
v 0.067703 -0.200981 0.586500
v 0.081841 -0.188307 0.586500
v 0.461019 -0.188308 0.586500
v 0.475157 -0.200982 0.586500
v 0.081841 -0.192020 0.481013
v 0.461019 -0.192021 0.481013
v 0.071844 -0.242395 0.481013
v 0.071844 -0.200981 0.481013
v 0.470384 -0.242397 0.481013
v 0.470385 -0.200982 0.481013
v 0.071844 -0.192020 0.586500
v 0.071844 -0.192020 0.489974
v 0.471016 -0.192021 0.489974
v 0.471016 -0.192021 0.586500
v 0.469636 -0.193259 0.482250
v 0.073224 -0.193257 0.482250
v 0.078559 -0.232664 0.586274
v 0.464301 -0.232665 0.586274
v 0.078559 -0.202917 0.586274
v 0.084000 -0.198040 0.586274
v 0.458860 -0.198041 0.586274
v 0.464301 -0.202918 0.586274
v 0.080152 -0.199468 0.586274
v 0.462707 -0.199469 0.586274
v 0.078559 -0.232664 0.494614
v 0.464301 -0.232665 0.494614
v 0.078559 -0.202917 0.494614
v 0.084000 -0.198040 0.494614
v 0.458481 -0.198041 0.494614
v 0.464301 -0.202918 0.494614
v 0.080152 -0.199468 0.494614
v 0.462329 -0.199469 0.494614
v 0.067708 -0.242391 0.596574
v 0.475152 -0.242393 0.596574
v 0.067828 -0.201003 0.596571
v 0.081865 -0.188419 0.596571
v 0.460994 -0.188420 0.596571
v 0.475032 -0.201004 0.596571
v 0.071918 -0.192086 0.596572
v 0.470942 -0.192088 0.596572
v 0.078815 -0.232434 0.596342
v 0.464044 -0.232435 0.596342
v 0.078936 -0.202985 0.596340
v 0.084075 -0.198377 0.596340
v 0.458785 -0.198378 0.596340
v 0.463924 -0.202986 0.596340
v 0.080420 -0.199708 0.596340
v 0.462440 -0.199709 0.596340
v 0.065811 -0.244091 0.589104
v 0.477049 -0.244092 0.589104
v 0.065842 -0.200649 0.589122
v 0.081470 -0.186639 0.589122
v 0.461389 -0.186640 0.589122
v 0.477017 -0.200650 0.589122
v 0.070414 -0.190737 0.589120
v 0.472446 -0.190738 0.589120
v 0.065811 -0.244089 0.593973
v 0.477048 -0.244090 0.593973
v 0.065903 -0.200661 0.593988
v 0.081485 -0.186693 0.593988
v 0.461375 -0.186694 0.593988
v 0.476956 -0.200662 0.593988
v 0.070448 -0.190769 0.593987
v 0.472412 -0.190770 0.593987
v 0.277957 -0.281883 0.180175
v 0.300518 -0.281883 0.122825
v 0.313826 -0.281883 0.170072
v 0.264649 -0.281883 0.132928
v 0.343253 -0.281883 0.083461
v 0.303997 -0.281883 0.079152
v 0.309172 -0.281883 0.031997
v 0.335168 -0.281883 0.034850
v 0.348429 -0.281883 0.036306
v 0.256790 -0.281882 0.028221
v 0.264201 -0.281883 0.028221
v 0.228558 -0.281882 0.028221
v 0.228558 -0.281882 -0.019218
v 0.264201 -0.281883 -0.019218
v 0.252015 -0.286509 0.305354
v 0.214752 -0.286509 0.305683
v 0.214332 -0.286509 0.258247
v 0.234811 -0.286509 0.258066
v 0.251595 -0.286509 0.257917
vn -0.0000 -0.0000 1.0000
vn -0.0000 -1.0000 -0.0000
vt 5.646933 -121.224083
vt 7.358486 -121.224083
vt 7.358486 -119.512527
vt 5.646933 -119.512527
vt 0.832590 0.893890
vt 0.832590 0.989195
vt 0.760237 0.989195
vt 0.760237 0.893890
vt 0.549224 0.893890
vt 0.549224 0.801783
vt 0.600000 0.801783
vt 0.625901 0.801783
vt 0.625901 0.893890
vt 0.695107 0.801783
vt 0.695107 0.893890
vt 0.680719 0.893890
vt 0.760237 0.801783
vt 0.800000 0.801783
vt 0.832590 0.801783
s 1
usemtl M_FridgeMaindoor2C6_5
f 21/1/1 22/2/1 24/3/1 23/4/1
f 438/5/2 439/6/2 437/7/2 440/8/2
f 442/9/2 443/10/2 444/11/2 445/12/2 441/13/2
f 448/13/2 449/12/2 450/14/2 447/15/2 446/16/2
f 452/8/2 453/17/2 454/18/2 455/19/2 451/5/2
