# Blender 4.1.0
# www.blender.org
mtllib DrawermeshCoffeeTableDrawer_222_1_1_GeomSubset_1.mtl
o DrawermeshCoffeeTableDrawer_222_1_1_GeomSubset_1
v 0.272004 -0.224947 0.061399
v 0.264545 -0.224955 0.056807
v 0.255402 -0.224947 0.056804
v 0.247939 -0.224955 0.061391
v 0.255403 -0.224955 0.051180
v 0.247945 -0.224955 0.046588
v 0.264547 -0.224947 0.051183
v 0.272009 -0.224947 0.046596
v 0.247945 -0.224436 0.046588
v 0.247939 -0.224436 0.061391
v 0.272009 -0.224432 0.046596
v 0.272004 -0.224432 0.061399
v 0.255402 -0.243094 0.056804
v 0.255403 -0.243097 0.051180
v 0.264545 -0.243097 0.056807
v 0.264545 -0.245764 0.056807
v 0.255402 -0.245764 0.056804
v -0.236538 -0.243097 0.056634
v -0.236538 -0.245768 0.056634
v -0.245682 -0.243094 0.056631
v -0.245682 -0.245764 0.056631
v -0.245682 -0.224947 0.056631
v -0.236538 -0.224955 0.056634
v 0.264547 -0.243094 0.051183
v 0.264547 -0.245764 0.051183
v 0.255403 -0.245764 0.051180
v -0.236536 -0.245764 0.051010
v -0.236536 -0.243094 0.051010
v -0.245680 -0.245764 0.051006
v -0.245680 -0.243097 0.051006
v -0.236536 -0.224947 0.051010
v -0.245680 -0.224955 0.051006
v -0.253144 -0.224947 0.061218
v -0.229079 -0.224947 0.061226
v -0.229074 -0.224947 0.046423
v -0.253139 -0.224947 0.046414
v -0.229079 -0.224432 0.061226
v -0.229074 -0.224436 0.046423
v -0.253144 -0.224432 0.061218
v -0.253139 -0.224432 0.046414
v -0.357301 -0.221594 0.001988
v -0.357301 -0.216280 0.001988
v -0.357333 -0.216280 0.095575
v -0.357333 -0.221594 0.095575
v 0.354856 -0.221594 -0.000494
v 0.354856 -0.216280 -0.000494
v -0.354571 -0.216280 -0.000739
v -0.354571 -0.221594 -0.000739
v 0.354855 -0.224325 0.002234
v -0.354572 -0.224325 0.001989
v -0.354604 -0.224325 0.095576
v 0.354823 -0.224325 0.095821
v 0.357552 -0.221594 0.095822
v 0.357552 -0.216280 0.095822
v 0.357584 -0.216280 0.002235
v 0.357584 -0.221594 0.002235
v -0.354605 -0.221594 0.098305
v 0.354822 -0.221594 0.098550
v 0.354855 -0.213553 0.002234
v -0.354572 -0.213553 0.001989
v -0.354604 -0.213556 0.095576
v -0.354605 -0.216280 0.098305
v 0.354822 -0.216280 0.098550
v 0.354823 -0.213553 0.095821
v -0.349045 -0.213553 0.007520
v 0.349325 -0.213553 0.007761
v -0.349074 -0.213553 0.090049
v 0.349296 -0.213553 0.090291
v 0.349325 -0.021822 0.007761
v 0.349296 -0.021822 0.090291
v -0.349074 -0.021822 0.090050
v -0.349045 -0.021822 0.007520
v 0.337831 -0.033289 0.090287
v 0.337858 -0.033285 0.012361
v -0.337581 -0.033289 0.012127
v -0.337608 -0.033289 0.090054
v 0.337830 -0.202086 0.090287
v 0.337858 -0.202086 0.012361
v -0.337608 -0.202086 0.090053
v -0.337581 -0.202086 0.012127
vn -1.0000 -0.0000 -0.0003
vn 0.0003 -0.0000 -1.0000
vn -0.0000 -1.0000 -0.0000
vn 1.0000 -0.0000 0.0003
vn -0.5776 -0.5775 0.5770
vn -0.5775 -0.5776 0.5769
vn 0.5773 -0.5771 0.5777
vn -0.5772 -0.5773 -0.5775
vn 0.5772 -0.5771 -0.5777
vn 0.5771 0.5768 -0.5782
vn -0.5769 0.5776 -0.5776
vn -0.5775 0.5774 0.5772
vn 0.5770 0.5776 0.5774
vn -0.0002 -0.7072 0.7070
vn -0.0002 -0.7069 0.7074
vn -0.0002 -0.7068 0.7074
vn -0.7068 -0.7074 -0.0002
vn -0.7074 -0.7068 -0.0002
vn 0.7071 -0.7071 0.0002
vn 0.7074 -0.7069 0.0002
vn 0.7068 -0.7074 0.0002
vn 0.0002 -0.7071 -0.7072
vn 0.0002 -0.7067 -0.7075
vn 0.0002 0.7072 -0.7070
vn 0.0002 0.7068 -0.7074
vn -0.7070 0.7072 -0.0002
vn -0.7072 0.7070 -0.0002
vn -0.7069 0.7073 -0.0002
vn -0.7073 0.7070 -0.0002
vn -0.0000 0.7065 0.7078
vn -0.0002 0.7067 0.7075
vn -0.0002 0.7063 0.7079
vn -0.0002 0.7080 0.7062
vn 0.7074 0.7068 0.0001
vn 0.7069 0.7074 0.0002
vn 0.7068 0.7074 0.0002
vn 0.7071 0.7071 0.0002
vn 0.7069 -0.0000 0.7074
vn 0.7068 -0.0000 0.7074
vn -0.7074 -0.0000 0.7068
vn -0.7067 -0.0000 -0.7075
vn -0.7072 -0.0000 -0.7070
vn 0.7075 -0.0000 -0.7067
vn 0.7072 -0.0000 -0.7070
vn -0.0003 -0.0000 1.0000
vn -0.0000 1.0000 -0.0005
vn -0.0000 1.0000 -0.0000
vn 0.0004 1.0000 0.0002
vn 0.0001 1.0000 0.0003
vn -0.0000 1.0000 0.0003
vn -1.0000 -0.0000 -0.0004
vn -0.0000 -1.0000 -0.0001
vn 1.0000 -0.0000 0.0004
vt 0.967714 0.663565
vt 0.962909 0.748203
vt 0.962909 0.663565
vt 0.967714 0.748203
vt 0.967714 0.651652
vt 0.962909 0.010059
vt 0.962909 0.651652
vt 0.967714 0.010059
vt 0.651652 0.663565
vt 0.010059 0.748203
vt 0.010059 0.663565
vt 0.651652 0.748203
vt 0.010059 0.750671
vt 0.007591 0.748203
vt 0.651652 0.750671
vt 0.654119 0.748203
vt 0.007591 0.663565
vt 0.010059 0.661097
vt 0.654119 0.663565
vt 0.651652 0.661097
vt 0.967714 0.654119
vt 0.962909 0.654119
vt 0.962909 0.007591
vt 0.967714 0.007591
vt 0.015059 0.668565
vt 0.646652 0.668565
vt 0.015059 0.743203
vt 0.646652 0.743203
vt 0.960441 0.646652
vt 0.787044 0.015059
vt 0.787044 0.646652
vt 0.960441 0.015059
vt 0.960441 0.668565
vt 0.787044 0.743203
vt 0.787044 0.668565
vt 0.960441 0.743203
vt 0.636282 0.743203
vt 0.025428 0.672728
vt 0.636282 0.672728
vt 0.025428 0.743203
vt 0.950072 0.743203
vt 0.797413 0.672728
vt 0.950072 0.672728
vt 0.797413 0.743203
vt 0.950072 0.636282
vt 0.950072 0.025428
vt 0.797413 0.025428
vt 0.797413 0.636282
s 1
usemtl M_CoffeeTableDrawer_222_1_1
f 41/1/1 43/2/1 42/3/1
f 41/1/1 44/4/1 43/2/1
f 45/5/2 47/6/2 46/7/2
f 45/5/2 48/8/2 47/6/2
f 49/9/3 51/10/3 50/11/3
f 49/9/3 52/12/3 51/10/3
f 53/4/4 55/3/4 54/2/4
f 53/4/4 56/1/4 55/3/4
f 57/13/5 44/14/6 51/10/5
f 58/15/7 52/12/7 53/16/7
f 41/17/8 48/18/8 50/11/8
f 56/19/9 49/9/9 45/20/9
f 46/20/10 59/9/10 55/19/10
f 47/18/11 42/17/11 60/11/11
f 43/14/12 62/13/12 61/10/12
f 63/15/13 54/16/13 64/12/13
f 58/15/14 51/10/14 52/12/15
f 58/15/14 57/13/16 51/10/14
f 44/14/17 50/11/18 51/10/17
f 44/14/17 41/17/17 50/11/18
f 52/12/19 56/19/19 53/16/20
f 52/12/19 49/9/21 56/19/19
f 49/9/22 48/18/23 45/20/23
f 49/9/22 50/11/23 48/18/23
f 46/20/24 60/11/24 59/9/24
f 46/20/24 47/18/25 60/11/24
f 61/10/26 42/17/27 43/14/28
f 61/10/26 60/11/29 42/17/27
f 64/12/30 62/13/31 63/15/32
f 64/12/30 61/10/33 62/13/31
f 54/16/34 59/9/35 64/12/36
f 54/16/34 55/19/37 59/9/35
f 53/21/38 63/7/39 58/5/38
f 53/21/38 54/22/39 63/7/39
f 43/23/40 57/8/40 62/6/40
f 43/23/40 44/24/40 57/8/40
f 47/6/41 41/24/42 42/23/41
f 47/6/41 48/8/41 41/24/42
f 45/5/43 55/22/43 56/21/44
f 45/5/43 46/7/44 55/22/43
f 57/8/45 63/7/45 62/6/45
f 57/8/45 58/5/45 63/7/45
f 65/25/46 59/9/46 60/11/46
f 65/25/46 66/26/47 59/9/46
f 67/27/48 65/25/46 60/11/46
f 67/27/48 60/11/46 61/10/49
f 68/28/50 67/27/48 61/10/49
f 68/28/50 61/10/49 64/12/47
f 66/26/47 64/12/47 59/9/46
f 66/26/47 68/28/50 64/12/47
f 69/26/47 71/27/47 70/28/47
f 69/26/47 72/25/47 71/27/47
f 66/29/2 72/30/2 69/31/2
f 66/29/2 65/32/2 72/30/2
f 65/33/51 71/34/51 72/35/51
f 65/33/51 67/36/51 71/34/51
f 73/37/3 75/38/3 74/39/52
f 73/37/3 76/40/3 75/38/3
f 68/36/53 69/35/53 70/34/53
f 68/36/53 66/33/53 69/35/53
f 77/41/51 74/42/1 78/43/51
f 77/41/51 73/44/1 74/42/1
f 77/45/45 67/32/45 68/29/45
f 77/45/45 79/46/45 67/32/45
f 79/46/45 71/30/45 67/32/45
f 79/46/45 76/47/45 71/30/45
f 76/47/45 70/31/45 71/30/45
f 76/47/45 73/48/45 70/31/45
f 73/48/45 68/29/45 70/31/45
f 73/48/45 77/45/45 68/29/45
f 80/46/45 74/48/45 75/47/45
f 80/46/45 78/45/45 74/48/45
f 79/40/47 78/39/47 80/38/47
f 79/40/47 77/37/47 78/39/47
f 76/44/4 80/43/4 75/42/4
f 76/44/4 79/41/4 80/43/4
