# Blender 4.1.0
# www.blender.org
mtllib DrawermeshCoffeeTableDrawer_222_4_4_GeomSubset_0.mtl
o DrawermeshCoffeeTableDrawer_222_4_4_GeomSubset_0
v 0.272004 0.224665 0.061399
v 0.247939 0.224661 0.061391
v 0.255402 0.224665 0.056804
v 0.264545 0.224661 0.056807
v 0.255403 0.224661 0.051180
v 0.247945 0.224661 0.046588
v 0.264547 0.224665 0.051183
v 0.272009 0.224665 0.046596
v 0.247939 0.224142 0.061391
v 0.247945 0.224142 0.046588
v 0.272004 0.224150 0.061399
v 0.272009 0.224150 0.046596
v 0.255403 0.242811 0.051180
v 0.255402 0.242811 0.056804
v 0.264545 0.242804 0.056807
v 0.255401 0.245478 0.056804
v 0.264545 0.245478 0.056807
v -0.236538 0.242804 0.056634
v -0.236538 0.245478 0.056634
v -0.245682 0.242811 0.056631
v -0.245682 0.245478 0.056631
v -0.245682 0.224665 0.056631
v -0.236538 0.224661 0.056634
v 0.264547 0.242811 0.051183
v 0.264547 0.245478 0.051183
v 0.255403 0.245478 0.051180
v -0.236537 0.245478 0.051010
v -0.236537 0.242811 0.051010
v -0.245680 0.245478 0.051006
v -0.245680 0.242804 0.051006
v -0.236536 0.224665 0.051010
v -0.245680 0.224661 0.051006
v -0.253144 0.224665 0.061218
v -0.229079 0.224661 0.061226
v -0.229074 0.224661 0.046423
v -0.253139 0.224665 0.046414
v -0.229074 0.224150 0.046423
v -0.229079 0.224150 0.061226
v -0.253139 0.224150 0.046414
v -0.253144 0.224150 0.061218
v -0.357333 0.221510 0.095575
v -0.357333 0.216200 0.095575
v -0.357301 0.216192 0.001988
v -0.357301 0.221506 0.001988
v -0.337608 0.033201 0.090054
v -0.337582 0.033205 0.012127
v 0.337857 0.033205 0.012361
v 0.337831 0.033201 0.090287
v -0.337608 0.201998 0.090053
v -0.337581 0.202005 0.012127
v 0.354822 0.221510 0.098550
v 0.354822 0.216200 0.098550
v -0.354605 0.216192 0.098305
v -0.354605 0.221506 0.098305
v 0.349325 0.213469 0.007761
v 0.349325 0.021734 0.007761
v 0.349296 0.021734 0.090291
v 0.349296 0.213465 0.090291
v -0.354572 0.224238 0.001989
v 0.354855 0.224241 0.002234
v 0.354823 0.224238 0.095821
v -0.354605 0.224238 0.095576
v 0.357584 0.221510 0.002235
v 0.357584 0.216200 0.002235
v 0.357552 0.216200 0.095822
v 0.357552 0.221510 0.095822
v -0.354571 0.221506 -0.000739
v -0.354571 0.216192 -0.000739
v 0.354856 0.216200 -0.000494
v 0.354856 0.221510 -0.000494
v -0.354572 0.213469 0.001989
v 0.354855 0.213469 0.002234
v 0.354823 0.213469 0.095821
v -0.354605 0.213465 0.095576
v -0.349045 0.213469 0.007520
v -0.349074 0.213469 0.090049
v -0.349045 0.021734 0.007520
v -0.349074 0.021734 0.090050
v 0.337831 0.201998 0.090287
v 0.337857 0.202005 0.012361
vn 0.0001 1.0000 -0.0004
vn 0.0004 1.0000 -0.0003
vn -0.0003 1.0000 -0.0000
vn -0.0000 1.0000 0.0005
vn -0.0000 1.0000 -0.0002
vn 0.0002 1.0000 -0.0001
vn -0.0002 1.0000 0.0010
vn -0.0000 1.0000 0.0008
vn -1.0000 -0.0000 -0.0004
vn -0.0001 -1.0000 0.0001
vn 0.0003 -1.0000 -0.0000
vn -0.0001 -1.0000 -0.0000
vn -0.0000 -1.0000 0.0001
vn 1.0000 -0.0000 0.0003
vn 1.0000 -0.0007 0.0003
vn 0.0003 -0.0000 -1.0000
vn -0.0003 -0.0000 1.0000
vn -1.0000 -0.0000 -0.0002
vn 1.0000 -0.0000 0.0004
vn 0.0004 -0.0000 -1.0000
vn -0.0000 1.0000 0.0003
vn -0.0000 1.0000 -0.0000
vn -0.0000 1.0000 0.0009
vn -0.0000 1.0000 -0.0011
vn 1.0000 -0.0000 0.0002
vn 1.0000 -0.0000 0.0008
vn 1.0000 0.0001 0.0004
vn -0.0000 -1.0000 -0.0000
vn -0.0000 -1.0000 0.0008
vn 0.0001 1.0000 0.0001
vn 0.0002 1.0000 -0.0008
vn -0.0001 1.0000 -0.0005
vn -0.0000 1.0000 -0.0005
vn -0.0000 1.0000 0.0007
vn -0.0001 1.0000 0.0007
vn -0.0007 1.0000 -0.0004
vn -0.0000 1.0000 -0.0008
vn -1.0000 -0.0000 -0.0003
vt 0.000000 0.000000
s 1
usemtl M_CoffeeTableDrawer_222_4_0
f 1/1/1 3/1/2 2/1/3
f 1/1/1 4/1/4 3/1/2
f 2/1/3 3/1/2 5/1/5
f 2/1/3 5/1/5 6/1/6
f 6/1/6 5/1/5 7/1/7
f 6/1/6 7/1/7 8/1/8
f 8/1/8 4/1/4 1/1/1
f 8/1/8 7/1/7 4/1/4
f 6/1/9 9/1/9 2/1/9
f 6/1/9 10/1/9 9/1/9
f 10/1/10 11/1/11 9/1/12
f 10/1/10 12/1/13 11/1/11
f 12/1/14 1/1/14 11/1/14
f 12/1/14 8/1/15 1/1/14
f 6/1/16 12/1/16 10/1/16
f 6/1/16 8/1/16 12/1/16
f 9/1/17 1/1/17 2/1/17
f 9/1/17 11/1/17 1/1/17
f 3/1/18 13/1/18 5/1/18
f 3/1/18 14/1/18 13/1/18
f 15/1/17 16/1/17 14/1/17
f 15/1/17 17/1/17 16/1/17
f 4/1/17 15/1/17 14/1/17
f 4/1/17 14/1/17 3/1/17
f 16/1/17 18/1/17 14/1/17
f 16/1/17 19/1/17 18/1/17
f 20/1/17 18/1/17 19/1/17
f 20/1/17 19/1/17 21/1/17
f 22/1/17 18/1/17 20/1/17
f 22/1/17 23/1/17 18/1/17
f 7/1/19 15/1/19 4/1/19
f 7/1/19 24/1/19 15/1/19
f 24/1/19 17/1/19 15/1/19
f 24/1/19 25/1/19 17/1/19
f 5/1/16 24/1/16 7/1/16
f 5/1/16 13/1/16 24/1/16
f 13/1/16 25/1/16 24/1/16
f 13/1/16 26/1/16 25/1/16
f 13/1/16 27/1/16 26/1/16
f 13/1/16 28/1/16 27/1/16
f 28/1/20 29/1/20 27/1/20
f 28/1/20 30/1/20 29/1/20
f 31/1/20 30/1/20 28/1/20
f 31/1/20 32/1/20 30/1/20
f 25/1/21 16/1/22 17/1/22
f 25/1/21 26/1/21 16/1/22
f 26/1/21 19/1/22 16/1/22
f 26/1/4 27/1/4 19/1/4
f 29/1/22 19/1/22 27/1/23
f 29/1/22 21/1/24 19/1/22
f 18/1/25 27/1/25 19/1/26
f 18/1/25 28/1/25 27/1/25
f 23/1/14 28/1/25 18/1/25
f 23/1/14 31/1/27 28/1/25
f 14/1/28 28/1/28 13/1/28
f 14/1/29 18/1/29 28/1/29
f 33/1/30 23/1/31 22/1/32
f 33/1/30 34/1/33 23/1/31
f 34/1/33 31/1/34 23/1/31
f 34/1/33 35/1/35 31/1/34
f 35/1/35 32/1/36 31/1/34
f 35/1/35 36/1/37 32/1/36
f 36/1/37 22/1/32 32/1/36
f 36/1/37 33/1/30 22/1/32
f 35/1/14 38/1/14 37/1/14
f 35/1/14 34/1/14 38/1/14
f 37/1/28 40/1/28 39/1/28
f 37/1/28 38/1/28 40/1/28
f 39/1/38 33/1/38 36/1/38
f 39/1/38 40/1/38 33/1/38
f 35/1/20 39/1/20 36/1/20
f 35/1/20 37/1/20 39/1/20
f 38/1/17 33/1/17 40/1/17
f 38/1/17 34/1/17 33/1/17
f 32/1/9 20/1/9 30/1/9
f 32/1/9 22/1/9 20/1/9
f 30/1/9 20/1/9 21/1/9
f 30/1/9 21/1/9 29/1/9
