# Blender 4.1.1
# www.blender.org
mtllib MeshBox_5_FlapOuter_2_2.mtl
o Box_5_FlapOuter_2
v -0.168704 -0.173927 0.088917
v -0.168704 0.155421 0.088917
v -0.167664 -0.173927 0.089875
v -0.167664 0.155421 0.089875
v -0.091756 -0.173927 0.017644
v -0.091830 -0.173927 0.018200
v -0.091756 0.155421 0.017644
v -0.091830 0.155421 0.018200
v -0.092276 -0.173927 0.017165
v -0.092870 -0.173927 0.017241
v -0.092276 0.155421 0.017165
v -0.092870 0.155421 0.017242
vn 0.6774 -0.0000 -0.7356
vn -0.9532 -0.0000 0.3024
vn -0.9757 -0.0000 -0.2192
vn -0.9757 -0.0000 -0.2191
vn -0.0001 1.0000 0.0001
vn -0.0003 1.0000 0.0006
vn -0.0002 -1.0000 0.0003
vn -0.0000 -1.0000 -0.0000
vn 0.2029 -0.0000 0.9792
vn -0.2781 -0.0000 0.9606
vn -0.2781 -0.0000 0.9605
vn 0.6869 -0.0000 0.7268
vn -0.6869 -0.0000 -0.7268
vn -0.0000 1.0000 -0.0000
vt 0.007082 0.033919
vt 0.007082 0.966081
vt 0.001625 0.966081
vt 0.001625 0.033919
vt 0.015418 1.010670
vt 0.013919 1.012197
vt 0.013919 -0.012197
vt 0.015418 -0.010670
vt 0.018417 1.010670
vt 0.019916 1.012197
vt 0.019916 -0.012197
vt 0.018417 -0.010670
vt 0.346770 0.033918
vt 0.346770 0.966082
vt 0.036999 0.966082
vt 0.036999 0.033918
vt 0.374992 0.966082
vt 0.374992 0.033918
vt 0.684763 0.033918
vt 0.684763 0.966082
vt 0.720407 0.012601
vt 0.720407 0.322373
vt 0.714950 0.322373
vt 0.714950 0.012601
vt 0.702563 0.322372
vt 0.702563 0.012602
vt 0.708020 0.012602
vt 0.708020 0.322372
s 1
usemtl M_Box_5_FlapOuter_2_0
f 1/1/1 2/2/1 4/3/1 3/4/1
f 5/5/2 6/6/3 8/7/4 7/8/2
f 6/6/5 5/5/6 9/9/6 10/10/5
f 7/8/7 8/7/8 12/11/8 11/12/7
f 10/10/9 9/9/10 11/12/11 12/11/9
f 5/5/2 7/8/2 11/12/11 9/9/10
f 10/13/9 12/14/9 2/15/12 1/16/12
f 3/17/13 4/18/13 8/19/4 6/20/3
f 8/21/8 4/22/8 2/23/8 12/24/8
f 3/25/14 6/26/5 10/27/5 1/28/14
