# Blender 4.1.0
# www.blender.org
mtllib MeshBox_5_FlapInner_1_3.mtl
o Box_5_FlapInner_1
v -0.118703 -0.217352 0.079287
v 0.088552 -0.217352 0.079287
v -0.118703 -0.215877 0.080299
v 0.088552 -0.215877 0.080299
v -0.118703 -0.173324 0.017392
v -0.118703 -0.173160 0.018039
v 0.088552 -0.173331 0.017387
v 0.088552 -0.173160 0.018039
v -0.118703 -0.174074 0.016877
v -0.118703 -0.174635 0.017028
v 0.088552 -0.174069 0.016881
v 0.088552 -0.174635 0.017027
vn -0.0000 -0.5657 0.8246
vn -0.0000 0.7865 -0.6176
vn -0.0000 0.8282 0.5604
vn -0.0001 0.8282 0.5604
vn -1.0000 -0.0000 -0.0000
vn 1.0000 -0.0000 -0.0000
vn -0.0000 -0.8217 -0.5699
vn -0.0000 0.2667 -0.9638
vn -0.0000 0.2666 -0.9638
vn -0.0000 -0.8246 -0.5658
vn -0.0000 0.8246 0.5657
vt -0.588591 -0.558704
vt -0.588591 0.037333
vt -0.594048 0.037333
vt -0.594048 -0.558704
vt 0.321623 -0.557408
vt 0.322757 -0.558706
vt 0.322750 0.037334
vt 0.321596 0.036013
vt 0.318846 -0.557409
vt 0.317695 -0.558706
vt 0.317695 0.037334
vt 0.318866 0.036014
vt 0.219641 -0.558707
vt 0.219615 0.037335
vt -0.043545 0.037335
vt -0.043545 -0.558707
vt -0.227223 -0.558707
vt -0.227223 0.037335
vt -0.490153 0.037335
vt -0.490182 -0.558707
vt -0.605334 -0.114408
vt -0.605334 0.148522
vt -0.610791 0.148522
vt -0.610790 -0.114638
vt -0.618449 -0.562206
vt -0.618449 -0.299204
vt -0.623905 -0.299020
vt -0.623906 -0.562206
s 1
usemtl M_Box_5_FlapInner_1_0
f 1/1/1 2/2/1 4/3/1 3/4/1
f 5/5/2 6/6/3 8/7/4 7/8/2
f 6/6/5 5/5/5 9/9/5 10/10/5
f 7/8/6 8/7/6 12/11/6 11/12/6
f 10/10/7 9/9/8 11/12/9 12/11/7
f 5/5/2 7/8/2 11/12/9 9/9/8
f 10/13/7 12/14/7 2/15/10 1/16/10
f 3/17/11 4/18/11 8/19/4 6/20/3
f 8/21/6 4/22/6 2/23/6 12/24/6
f 3/25/5 6/26/5 10/27/5 1/28/5
