# Blender 4.1.0
# www.blender.org
mtllib MeshBox_19_FlapOuter_2_2.mtl
o Box_19_FlapOuter_2
v -0.120029 -0.152422 0.145504
v 0.113162 -0.152422 0.145504
v -0.120029 -0.150976 0.147569
v 0.113162 -0.150976 0.147569
v -0.120028 -0.083765 0.099725
v -0.120029 -0.083699 0.100449
v 0.113162 -0.083765 0.099725
v 0.113162 -0.083699 0.100449
v -0.120028 -0.084488 0.098693
v -0.120029 -0.085145 0.098384
v 0.113162 -0.084488 0.098693
v 0.113162 -0.085145 0.098384
vn -0.0000 -0.8191 0.5736
vn -0.0000 0.9123 -0.4096
vn -0.0000 0.9959 -0.0899
vn -1.0000 0.0002 -0.0001
vn -1.0000 0.0002 -0.0002
vn 1.0000 0.0001 -0.0001
vn -0.0000 0.4249 -0.9052
vn -0.0000 0.6968 -0.7173
vn -0.0000 -0.5737 -0.8191
vn -0.0000 0.5737 0.8191
vn 1.0000 -0.0000 -0.0000
vn -1.0000 -0.0000 -0.0000
vt 0.007082 0.033919
vt 0.007082 0.966081
vt 0.001625 0.966081
vt 0.001625 0.033919
vt 0.015418 1.010670
vt 0.013919 1.012197
vt 0.013919 -0.012197
vt 0.015418 -0.010670
vt 0.018417 1.010670
vt 0.019916 1.012197
vt 0.019916 -0.012197
vt 0.018417 -0.010670
vt 0.346770 0.033918
vt 0.346770 0.966082
vt 0.036999 0.966082
vt 0.036999 0.033918
vt 0.374992 0.966082
vt 0.374992 0.033918
vt 0.684763 0.033918
vt 0.684763 0.966082
vt 0.720407 0.012601
vt 0.720407 0.322373
vt 0.714950 0.322373
vt 0.714950 0.012601
vt 0.702563 0.322372
vt 0.702563 0.012602
vt 0.708020 0.012602
vt 0.708020 0.322372
s 1
usemtl M_Box_19_FlapOuter_2_0
f 1/1/1 2/2/1 4/3/1 3/4/1
f 5/5/2 6/6/3 8/7/3 7/8/2
f 6/6/4 5/5/5 9/9/5 10/10/4
f 7/8/6 8/7/6 12/11/6 11/12/6
f 10/10/7 9/9/8 11/12/8 12/11/7
f 5/5/2 7/8/2 11/12/8 9/9/8
f 10/13/9 12/14/9 2/15/9 1/16/9
f 3/17/10 4/18/10 8/19/10 6/20/10
f 8/21/6 4/22/11 2/23/11 12/24/6
f 3/25/12 6/26/4 10/27/4 1/28/12
