# Blender 4.1.0
# www.blender.org
mtllib ToasterLever2_25_ToasterLever2_25_2_GeomSubset_0.mtl
o ToasterLever2_25_ToasterLever2_25_2_GeomSubset_0
v -0.057751 -0.162759 0.046544
v -0.057751 -0.159262 0.046544
v -0.061249 -0.162759 0.046544
v -0.061249 -0.159262 0.046544
v -0.057751 -0.162759 0.046544
v -0.057751 -0.159262 0.046544
v -0.061249 -0.162759 0.046544
v -0.061249 -0.159262 0.046544
v -0.057751 -0.162759 0.046544
v -0.057751 -0.159262 0.046544
v -0.061249 -0.162759 0.046544
v -0.061249 -0.159262 0.046544
v -0.057751 -0.162759 0.046544
v -0.057751 -0.159262 0.046544
v -0.061249 -0.162759 0.046544
v -0.061249 -0.159262 0.046544
v -0.057751 -0.162759 0.046544
v -0.057751 -0.159262 0.046544
v -0.061249 -0.162759 0.046544
v -0.061249 -0.159262 0.046544
v -0.057751 -0.162759 0.046544
v -0.057751 -0.159262 0.046544
v -0.061249 -0.162759 0.046544
v -0.061249 -0.159262 0.046544
v -0.057427 -0.165841 0.050281
v -0.057427 -0.165841 0.043715
v -0.061574 -0.165841 0.050281
v -0.061574 -0.165841 0.043715
v -0.059500 -0.165841 0.043715
v -0.059500 -0.165841 0.050281
v -0.048739 -0.169440 0.050281
v -0.048228 -0.169651 0.050057
v -0.048017 -0.169739 0.049515
v -0.050225 -0.173043 0.049515
v -0.050386 -0.172881 0.050057
v -0.050777 -0.172491 0.050281
v -0.053828 -0.174529 0.050281
v -0.053616 -0.175040 0.050057
v -0.053529 -0.175251 0.049515
v -0.057427 -0.176027 0.049515
v -0.057449 -0.175802 0.050057
v -0.057502 -0.175260 0.050281
v -0.048008 -0.165766 0.050281
v -0.047466 -0.165819 0.050057
v -0.047241 -0.165841 0.049515
v -0.048017 -0.169739 0.044481
v -0.048228 -0.169651 0.043939
v -0.048739 -0.169440 0.043715
v -0.050225 -0.173043 0.044481
v -0.050386 -0.172881 0.043939
v -0.050777 -0.172491 0.043715
v -0.053529 -0.175251 0.044481
v -0.053616 -0.175040 0.043939
v -0.053828 -0.174529 0.043715
v -0.057502 -0.175260 0.043715
v -0.057449 -0.175802 0.043939
v -0.057427 -0.176027 0.044481
v -0.047241 -0.165841 0.044481
v -0.047466 -0.165819 0.043939
v -0.048008 -0.165766 0.043715
v -0.059500 -0.176027 0.049515
v -0.059500 -0.175802 0.050057
v -0.059500 -0.175260 0.050281
v -0.061498 -0.175260 0.050281
v -0.061551 -0.175802 0.050057
v -0.061574 -0.176027 0.049515
v -0.065471 -0.175251 0.049515
v -0.065384 -0.175040 0.050057
v -0.065172 -0.174529 0.050281
v -0.059500 -0.176027 0.044481
v -0.059500 -0.175802 0.043939
v -0.059500 -0.175260 0.043715
v -0.065471 -0.175251 0.044481
v -0.065384 -0.175040 0.043939
v -0.065172 -0.174529 0.043715
v -0.061574 -0.176027 0.044481
v -0.061551 -0.175802 0.043939
v -0.061498 -0.175260 0.043715
v -0.068775 -0.173043 0.049515
v -0.068613 -0.172881 0.050057
v -0.068223 -0.172491 0.050281
v -0.068775 -0.173043 0.044481
v -0.068613 -0.172881 0.043939
v -0.068223 -0.172491 0.043715
v -0.070983 -0.169739 0.049515
v -0.070772 -0.169651 0.050057
v -0.070261 -0.169440 0.050281
v -0.070983 -0.169739 0.044481
v -0.070772 -0.169651 0.043939
v -0.070261 -0.169440 0.043715
v -0.071758 -0.165841 0.049515
v -0.071534 -0.165819 0.050057
v -0.070992 -0.165766 0.050281
v -0.070992 -0.165766 0.043715
v -0.071534 -0.165819 0.043939
v -0.071758 -0.165841 0.044481
v -0.048008 -0.154374 0.050057
v -0.048008 -0.154917 0.050281
v -0.047466 -0.154917 0.050057
v -0.047241 -0.154917 0.049515
v -0.047466 -0.154374 0.049515
v -0.048008 -0.154150 0.049515
v -0.048008 -0.154374 0.043939
v -0.048008 -0.154150 0.044481
v -0.047466 -0.154374 0.044481
v -0.047241 -0.154917 0.044481
v -0.047466 -0.154917 0.043939
v -0.048008 -0.154917 0.043715
v -0.057427 -0.154917 0.050281
v -0.057427 -0.154374 0.050057
v -0.057427 -0.154150 0.049515
v -0.057427 -0.154917 0.043715
v -0.057427 -0.154374 0.043939
v -0.057427 -0.154150 0.044481
v -0.070992 -0.154374 0.050057
v -0.070992 -0.154150 0.049515
v -0.071534 -0.154374 0.049515
v -0.071758 -0.154917 0.049515
v -0.071534 -0.154917 0.050057
v -0.070992 -0.154917 0.050281
v -0.070992 -0.154374 0.043939
v -0.070992 -0.154917 0.043715
v -0.071534 -0.154917 0.043939
v -0.071758 -0.154917 0.044481
v -0.071534 -0.154374 0.044481
v -0.070992 -0.154150 0.044481
v -0.059500 -0.154150 0.049515
v -0.059500 -0.154374 0.050057
v -0.059500 -0.154917 0.050281
v -0.061574 -0.154150 0.049515
v -0.061574 -0.154374 0.050057
v -0.061574 -0.154917 0.050281
v -0.059500 -0.154917 0.043715
v -0.059500 -0.154374 0.043939
v -0.059500 -0.154150 0.044481
v -0.061574 -0.154917 0.043715
v -0.061574 -0.154374 0.043939
v -0.061574 -0.154150 0.044481
v -0.047566 -0.154474 0.049957
v -0.047566 -0.154474 0.044039
v -0.071434 -0.154474 0.049957
v -0.071434 -0.154474 0.044039
v -0.068775 -0.173043 0.045661
v -0.065471 -0.175251 0.045661
v -0.061574 -0.176027 0.045661
v -0.059500 -0.176027 0.045661
v -0.057427 -0.176027 0.045661
v -0.053529 -0.175251 0.045661
v -0.050225 -0.173043 0.045661
v -0.048017 -0.169739 0.045661
v -0.047241 -0.165841 0.045661
v -0.047241 -0.154917 0.045661
v -0.047466 -0.154374 0.045661
v -0.048008 -0.154150 0.045661
v -0.057427 -0.154150 0.045661
v -0.059500 -0.154150 0.045661
v -0.061574 -0.154150 0.045661
v -0.070992 -0.154150 0.045661
v -0.071534 -0.154374 0.045661
v -0.071758 -0.154917 0.045661
v -0.071758 -0.165841 0.045661
v -0.070983 -0.169739 0.045661
v -0.068775 -0.173043 0.048335
v -0.065471 -0.175251 0.048335
v -0.061574 -0.176027 0.048335
v -0.059500 -0.176027 0.048335
v -0.057427 -0.176027 0.048335
v -0.053529 -0.175251 0.048335
v -0.050225 -0.173043 0.048335
v -0.048017 -0.169739 0.048335
v -0.047241 -0.165841 0.048335
v -0.047241 -0.154917 0.048335
v -0.047466 -0.154374 0.048335
v -0.048008 -0.154150 0.048335
v -0.057427 -0.154150 0.048335
v -0.059500 -0.154150 0.048335
v -0.061574 -0.154150 0.048335
v -0.070992 -0.154150 0.048335
v -0.071534 -0.154374 0.048335
v -0.071758 -0.154917 0.048335
v -0.071758 -0.165841 0.048335
v -0.070983 -0.169739 0.048335
v -0.056505 -0.155186 0.044482
v -0.056505 -0.144167 0.044482
v -0.056505 -0.155186 0.048188
v -0.056505 -0.144167 0.048188
v -0.062495 -0.155186 0.048188
v -0.062495 -0.144167 0.048188
v -0.062495 -0.155186 0.044482
v -0.062495 -0.144167 0.044482
vn -0.9199 -0.0000 0.3922
vn -0.0000 -0.9199 0.3922
vn 0.9199 -0.0000 0.3922
vn -0.0000 0.9199 0.3922
vn 0.5923 -0.8057 -0.0067
vn 0.5924 -0.8057 -0.0000
vn 0.8555 -0.5177 -0.0057
vn 0.8556 -0.5177 -0.0000
vn -0.9841 -0.1778 -0.0000
vn -0.0000 -0.1778 -0.9841
vn 0.9841 -0.1778 -0.0000
vn -0.0000 -0.1778 0.9841
vn -0.9841 -0.1777 -0.0000
vn -0.0000 -0.1777 -0.9841
vn 0.9841 -0.1777 -0.0000
vn -0.0000 -0.1777 0.9841
vn -0.8556 -0.5177 -0.0000
vn -0.8556 -0.5177 0.0042
vn -0.5923 -0.8057 -0.0000
vn -0.5923 -0.8057 0.0111
vn 0.7703 0.5394 -0.3403
vn 0.8057 0.5924 -0.0000
vn 0.7703 0.5394 0.3403
vn 0.5177 0.8556 -0.0030
vn 0.5177 0.8556 -0.0000
vn 0.9365 -0.0000 -0.3505
vn 0.9365 0.3505 -0.0000
vn 0.9365 -0.0000 0.3505
vn 0.9365 -0.3505 -0.0000
vn 0.4282 -0.9037 -0.0000
vn 0.4282 -0.9037 0.0016
vn -0.9034 0.4287 -0.0006
vn -0.9034 0.4287 -0.0000
vn -0.0000 0.8073 -0.5901
vn -0.5901 0.8073 -0.0000
vn -0.0000 0.8073 0.5901
vn 0.5901 0.8073 -0.0000
vn -0.0000 0.1777 -0.9841
vn -0.9841 0.1777 -0.0000
vn -0.0000 0.1777 0.9841
vn 0.9841 0.1777 -0.0000
vn -0.0000 0.1778 -0.9841
vn -0.9841 0.1778 -0.0000
vn -0.0000 0.1778 0.9841
vn 0.9841 0.1778 -0.0000
vn 0.9034 0.4287 -0.0000
vn 0.9034 0.4287 0.0006
vn -0.4284 -0.9036 -0.0018
vn -0.4284 -0.9036 -0.0000
vn -0.9365 0.3505 -0.0000
vn -0.9365 -0.0000 -0.3505
vn -0.9365 -0.3505 -0.0000
vn -0.9365 -0.0000 0.3505
vn -0.5174 0.8541 -0.0535
vn -0.5177 0.8556 -0.0000
vn -0.5174 0.8541 0.0534
vn -0.7968 0.5792 -0.1720
vn -0.8056 0.5924 -0.0000
vn -0.7969 0.5792 0.1720
vn 1.0000 -0.0000 -0.0000
vn -0.0000 -0.0000 1.0000
vn -1.0000 -0.0000 -0.0000
vn -0.0000 -0.0000 -1.0000
vt -66.403275 -17.503057
vt -66.344162 -17.503057
vt -66.344162 -17.443951
vt -66.403275 -17.443951
vt -66.472748 0.714622
vt -66.472748 0.739186
vt -66.502502 0.739186
vt -66.502502 0.714622
vt -66.239273 0.667800
vt -66.239273 0.708991
vt -66.267532 0.708991
vt -66.267532 0.667800
vt -66.267532 0.645888
vt -66.239273 0.645888
vt -66.267532 0.623976
vt -66.239273 0.623976
vt -66.239273 0.582784
vt -66.267532 0.582784
vt -66.355637 0.922328
vt -66.355637 0.946893
vt -66.385391 0.946893
vt -66.385391 0.922328
vt -66.355637 0.885564
vt -66.385391 0.885564
vt -66.355637 0.842199
vt -66.385391 0.842199
vt -66.355637 0.720648
vt -66.385391 0.720648
vt -66.355637 0.714618
vt -66.385391 0.714618
vt -66.618988 0.775889
vt -66.618988 0.770188
vt -66.590851 0.770188
vt -66.590851 0.775889
vt -66.618988 0.874979
vt -66.590851 0.874979
vt -66.618988 0.896793
vt -66.590851 0.896793
vt -66.618988 0.918606
vt -66.590851 0.918606
vt -66.618988 1.017696
vt -66.590851 1.017696
vt -66.618988 1.023397
vt -66.590851 1.023397
vt -66.472748 0.940861
vt -66.472748 0.946891
vt -66.502502 0.946891
vt -66.502502 0.940861
vt -66.502502 0.819313
vt -66.472748 0.819313
vt -66.472748 0.775949
vt -66.502502 0.775949
vt -66.283073 1.225102
vt -66.283073 1.040697
vt -66.236946 1.040697
vt -66.236946 1.225102
vt -66.366539 1.225103
vt -66.366539 1.040695
vt -66.320412 1.040695
vt -66.320412 1.225103
vt -66.450005 1.225110
vt -66.450005 1.040689
vt -66.403870 1.040689
vt -66.403870 1.225110
vt -66.533470 1.225111
vt -66.533470 1.040688
vt -66.487335 1.040688
vt -66.487335 1.225111
s 1
usemtl M_ToasterLever2_25_0
f 1/1/1 2/2/2 4/3/3 3/4/4
f 164/5/5 163/6/6 143/7/6 144/8/6
f 165/9/7 164/10/8 144/11/8 145/12/8
f 146/13/9 166/14/10 165/9/11 145/12/12
f 147/15/13 167/16/14 166/14/15 146/13/16
f 168/17/17 167/16/17 147/15/18 148/18/17
f 169/19/19 168/20/19 148/21/20 149/22/19
f 170/23/21 169/19/22 149/22/23 150/24/22
f 171/25/24 170/23/25 150/24/25 151/26/25
f 172/27/26 171/25/27 151/26/28 152/28/29
f 173/29/30 172/27/30 152/28/31 153/30/30
f 174/31/32 173/32/33 153/33/33 154/34/33
f 175/35/34 174/31/35 154/34/36 155/36/37
f 176/37/38 175/35/39 155/36/40 156/38/41
f 177/39/42 176/37/43 156/38/44 157/40/45
f 178/41/34 177/39/35 157/40/36 158/42/37
f 179/43/46 178/41/46 158/42/47 159/44/46
f 180/45/48 179/46/49 159/47/49 160/48/49
f 161/49/50 181/50/51 180/45/52 160/48/53
f 182/51/54 181/50/55 161/49/56 162/52/55
f 163/6/57 182/51/58 162/52/59 143/7/58
f 183/53/60 184/54/60 186/55/60 185/56/60
f 185/57/61 186/58/61 188/59/61 187/60/61
f 187/61/62 188/62/62 190/63/62 189/64/62
f 189/65/63 190/66/63 184/67/63 183/68/63
