# Blender 4.1.0
# www.blender.org
mtllib DrawermeshDresserDrawer_218_4_4.mtl
o DresserDrawer_218_4
v 0.012834 -0.250490 -0.522330
v 0.012834 -0.268896 -0.522330
v 0.754525 -0.268896 -0.522330
v 0.754525 -0.250494 -0.522330
v 0.754525 -0.277071 -0.514157
v 0.012834 -0.277067 -0.514157
v 0.012834 -0.277071 -0.104935
v 0.754524 -0.277071 -0.104935
v 0.762697 -0.250494 -0.514157
v 0.762697 -0.268896 -0.514157
v 0.762697 -0.268896 -0.104935
v 0.762697 -0.250490 -0.104935
v 0.754525 -0.250494 -0.096762
v 0.754525 -0.268896 -0.096762
v 0.012834 -0.268896 -0.096762
v 0.012834 -0.250490 -0.096762
v 0.004661 -0.250490 -0.104935
v 0.004661 -0.268896 -0.104935
v 0.004661 -0.268896 -0.514157
v 0.004661 -0.250494 -0.514157
v 0.026745 -0.242319 -0.500246
v 0.026745 0.081503 -0.500246
v 0.026746 0.081503 -0.118846
v 0.026745 -0.242319 -0.118846
v 0.754525 -0.242323 -0.514157
v 0.754525 -0.242323 -0.104935
v 0.012834 -0.242319 -0.514157
v 0.012834 -0.242319 -0.104935
v 0.740613 -0.242323 -0.500246
v 0.740613 -0.242323 -0.118846
v 0.740613 0.081499 -0.500246
v 0.740613 0.081499 -0.118846
v 0.051436 0.056814 -0.118846
v 0.051436 0.056814 -0.475994
v 0.051435 -0.217631 -0.475994
v 0.051436 -0.217631 -0.118846
v 0.715923 -0.217631 -0.475994
v 0.715923 -0.217631 -0.118846
v 0.715924 0.056810 -0.118846
v 0.715924 0.056810 -0.475994
vn -0.0000 -0.0000 -1.0000
vn -0.0000 -1.0000 -0.0000
vn 0.9561 0.2926 -0.0168
vn 0.9561 -0.2927 0.0168
vn 0.9561 -0.2927 -0.0168
vn 0.9561 0.2927 -0.0168
vn 1.0000 -0.0000 -0.0000
vn 0.9561 -0.2926 0.0168
vn -0.0000 -0.0000 1.0000
vn -0.9561 0.2927 0.0168
vn -0.9561 -0.2926 -0.0168
vn -0.9561 -0.2926 0.0168
vn -0.9561 0.2926 -0.0168
vn -1.0000 -0.0000 -0.0000
vn 0.9560 0.2927 -0.0169
vn 0.0221 0.6983 -0.7155
vn 0.1818 0.9270 -0.3279
vn 0.7217 0.6911 0.0394
vn 0.2885 0.8044 0.5194
vn 0.0225 0.6984 0.7153
vn -0.0225 0.6984 -0.7153
vn -0.9561 0.2927 -0.0165
vn -0.1819 0.9272 -0.3275
vn -0.0221 0.6982 0.7155
vn -0.2884 0.8042 0.5197
vn -0.9560 0.2927 0.0169
vn 0.9561 -0.2926 0.0164
vn 0.0225 -0.6985 0.7153
vn 0.2885 -0.8043 0.5194
vn 0.9560 -0.2927 -0.0166
vn 0.2884 -0.8044 -0.5194
vn 0.0224 -0.6985 -0.7153
vn -0.0222 -0.6982 -0.7155
vn -0.2884 -0.8042 -0.5198
vn -0.9561 -0.2927 -0.0169
vn -0.0227 -0.6985 0.7152
vn -0.9561 -0.2926 0.0163
vn -0.2886 -0.8044 0.5193
vn 0.7217 0.6910 0.0398
vn 0.1820 0.9270 -0.3279
vn 0.2884 0.8042 0.5196
vn 0.7217 0.6911 0.0397
vn 0.9561 0.2926 -0.0169
vn 0.1820 0.9270 -0.3278
vn -0.1819 0.9273 -0.3270
vn 0.0223 0.6988 -0.7150
vn -0.0223 0.6988 -0.7150
vn -0.1819 0.9270 -0.3281
vn 0.1819 0.9269 -0.3282
vn 0.0223 0.6980 -0.7157
vn 0.2884 0.8046 0.5190
vn -0.0223 0.6988 0.7150
vn 0.0223 0.6988 0.7150
vn 0.2884 0.8041 0.5199
vn -0.2883 0.8040 0.5200
vn -0.0223 0.6980 0.7157
vn -0.2884 0.8042 0.5196
vn -0.2883 0.8043 0.5196
vn -0.1818 0.9271 -0.3278
vn -0.9561 0.2927 -0.0168
vn 0.2883 -0.8043 0.5196
vn 0.9560 -0.2928 -0.0169
vn 0.2884 -0.8043 0.5196
vn 0.2884 -0.8042 -0.5197
vn -0.0223 -0.6979 -0.7158
vn 0.2884 -0.8040 -0.5201
vn -0.2883 -0.8039 -0.5201
vn -0.0223 -0.6985 -0.7153
vn 0.0223 -0.6985 -0.7153
vn 0.0223 -0.6982 0.7156
vn -0.2884 -0.8042 0.5198
vn 0.2883 -0.8042 0.5198
vn 0.0223 -0.6984 0.7153
vn -0.0223 -0.6984 0.7153
vn -0.2884 -0.8043 0.5195
vn -0.2883 -0.8043 -0.5196
vn -0.2884 -0.8042 0.5197
vn -0.9560 -0.2927 0.0169
vn -0.9560 -0.2927 -0.0169
vn 0.0221 0.6983 0.7154
vn 0.9560 -0.2927 0.0170
vn 0.7217 0.6911 0.0399
vn 0.0222 0.6982 0.7155
vn 0.0223 -0.6983 0.7155
vn 0.0223 -0.6983 -0.7155
vn 0.9560 0.2928 -0.0168
vn 0.9561 -0.2927 -0.0169
vn 0.0222 -0.6982 -0.7155
vn 0.0223 0.6983 -0.7155
vn 0.9561 0.2927 -0.0169
vn -0.0223 0.6982 -0.7155
vn -0.0222 -0.6983 -0.7154
vn -0.9561 -0.2926 -0.0169
vn -0.9560 0.2927 -0.0168
vn -0.0223 0.6983 -0.7154
vn -0.9561 0.2927 0.0167
vn -0.0223 -0.6982 0.7155
vn -0.0224 0.6982 0.7155
vn -0.9560 0.2928 0.0170
vn -0.9561 -0.2927 0.0170
vn -0.0222 -0.6984 0.7154
vn -0.0000 1.0000 -0.0000
vn 0.1819 0.9271 -0.3278
vn 0.1820 0.9271 -0.3278
vn -0.1819 0.9271 -0.3277
vn -0.1819 0.9271 -0.3278
vt 0.106030 0.264035
vt 0.372606 0.257421
vt 0.106030 0.257421
vt 0.372606 0.264035
vt 0.372606 0.516392
vt 0.106030 0.663473
vt 0.106030 0.516392
vt 0.372606 0.663473
vt 0.264035 0.516392
vt 0.257421 0.663473
vt 0.257421 0.516392
vt 0.264035 0.663473
vt 0.266973 0.521392
vt 0.383360 0.658473
vt 0.383360 0.521392
vt 0.266973 0.658473
vt 0.375544 0.264035
vt 0.372606 0.266973
vt 0.264035 0.513454
vt 0.266973 0.516392
vt 0.106030 0.266973
vt 0.103093 0.264035
vt 0.375544 0.257421
vt 0.372606 0.254484
vt 0.257421 0.513454
vt 0.254484 0.516392
vt 0.103093 0.257421
vt 0.106030 0.254484
vt 0.375544 0.663473
vt 0.375544 0.516392
vt 0.266973 0.663473
vt 0.254484 0.663473
vt 0.367607 0.521392
vt 0.367607 0.658473
vt 0.111030 0.521392
vt 0.111030 0.658473
vt 0.374486 0.658473
vt 0.275847 0.530108
vt 0.374486 0.530108
vt 0.275847 0.658473
vt 0.119904 0.658473
vt 0.358732 0.530108
vt 0.119904 0.530108
vt 0.358732 0.658473
vt 0.367607 0.266973
vt 0.111030 0.383360
vt 0.367607 0.383360
vt 0.111030 0.266973
vt 0.358732 0.275847
vt 0.119904 0.275847
vt 0.119904 0.374486
vt 0.358732 0.374486
s 1
usemtl M_DresserDrawer_218_4_0
f 1/1/1 3/2/1 2/3/1
f 1/1/1 4/4/1 3/2/1
f 5/5/2 7/6/2 6/7/2
f 5/5/2 8/8/2 7/6/2
f 9/9/3 11/10/4 10/11/5
f 9/9/6 12/12/7 11/10/8
f 13/4/9 15/3/9 14/2/9
f 13/4/9 16/1/9 15/3/9
f 17/12/10 19/11/11 18/10/12
f 17/12/10 20/9/13 19/11/11
f 21/13/14 23/14/14 22/15/14
f 21/13/14 24/16/14 23/14/14
f 9/17/15 4/4/16 25/18/17
f 12/17/18 26/18/19 13/4/20
f 1/19/21 20/9/22 27/20/23
f 16/1/24 28/21/25 17/22/26
f 11/23/27 14/2/28 8/24/29
f 10/23/30 5/24/31 3/2/32
f 2/25/33 6/26/34 19/11/35
f 15/3/36 18/27/37 7/28/38
f 12/29/39 25/5/40 26/8/41
f 12/29/42 9/30/43 25/5/44
f 27/21/45 4/4/46 1/1/47
f 27/21/48 25/18/49 4/4/50
f 26/18/51 16/1/52 13/4/53
f 26/18/54 28/21/55 16/1/56
f 28/31/57 20/9/13 17/12/10
f 28/31/58 27/20/59 20/9/60
f 8/8/61 10/30/62 11/29/4
f 8/8/63 5/5/64 10/30/5
f 2/3/65 5/24/66 6/28/67
f 2/3/68 3/2/69 5/24/31
f 14/2/70 7/28/71 8/24/72
f 14/2/73 15/3/74 7/28/75
f 18/10/12 6/26/76 7/32/77
f 18/10/78 19/11/79 6/26/76
f 13/4/80 11/23/81 12/17/82
f 13/4/83 14/2/84 11/23/4
f 3/2/85 9/17/86 10/23/87
f 3/2/88 4/4/89 9/17/90
f 19/11/35 1/19/91 2/25/92
f 19/11/93 20/9/94 1/19/95
f 17/22/96 15/3/97 16/1/98
f 17/22/99 18/27/100 15/3/101
f 29/33/102 26/8/102 25/5/103
f 29/33/102 30/34/102 26/8/102
f 21/35/102 29/33/102 25/5/104
f 21/35/102 25/5/103 27/7/105
f 30/34/102 28/6/102 26/8/102
f 30/34/102 24/36/102 28/6/102
f 24/36/102 27/7/106 28/6/102
f 24/36/102 21/35/102 27/7/106
f 31/33/102 23/36/102 32/34/102
f 31/33/102 22/35/102 23/36/102
f 33/37/7 35/38/7 34/39/7
f 33/37/7 36/40/7 35/38/7
f 30/16/7 31/15/7 32/14/7
f 30/16/7 29/13/7 31/15/7
f 36/41/102 37/42/102 35/43/102
f 36/41/102 38/44/102 37/42/102
f 29/45/1 22/46/1 31/47/1
f 29/45/1 21/48/1 22/46/1
f 38/49/9 24/48/9 30/45/9
f 38/49/9 36/50/9 24/48/9
f 36/50/9 23/46/9 24/48/9
f 36/50/9 33/51/9 23/46/9
f 33/51/9 32/47/9 23/46/9
f 33/51/9 39/52/9 32/47/9
f 39/52/9 30/45/9 32/47/9
f 39/52/9 38/49/9 30/45/9
f 35/50/9 40/52/9 34/51/9
f 35/50/9 37/49/9 40/52/9
f 39/44/2 34/43/2 40/42/2
f 39/44/2 33/41/2 34/43/2
f 38/40/14 40/39/14 37/38/14
f 38/40/14 39/37/14 40/39/14
