# Blender 4.1.0
# www.blender.org
mtllib MeshPsCoffeeTable_213_1_1.mtl
o PsCoffeeTable_213_1
v 0.726524 0.367149 -0.122380
v -0.730912 0.367147 -0.122380
v -0.730255 0.366494 -0.122380
v -0.728647 0.364891 -0.122380
v -0.728647 0.346715 -0.122380
v -0.728647 0.333542 -0.122380
v -0.729812 0.332381 -0.122380
v -0.731421 0.330780 -0.122380
v -0.751996 0.330780 -0.122380
v -0.766907 0.330780 -0.122380
v -0.768073 0.331940 -0.122380
v -0.769634 0.333494 -0.122380
v -0.769635 -0.333889 -0.122380
v -0.768516 -0.332774 -0.122380
v -0.766907 -0.331173 -0.122380
v -0.746332 -0.331173 -0.122380
v -0.731421 -0.331173 -0.122380
v -0.730255 -0.332333 -0.122380
v -0.728647 -0.333935 -0.122380
v -0.728647 -0.347472 -0.122380
v 0.724255 0.347469 -0.122380
v 0.724255 0.364891 -0.122380
v 0.725421 0.366053 -0.122380
v 0.765290 0.333542 -0.122380
v 0.764125 0.332381 -0.122380
v 0.762516 0.330780 -0.122380
v 0.747605 0.330780 -0.122380
v 0.727030 0.330780 -0.122380
v 0.725864 0.331940 -0.122380
v 0.724255 0.333542 -0.122380
v 0.724255 0.346715 -0.122380
v -0.728647 -0.352112 -0.122380
v -0.728647 -0.365288 -0.122380
v -0.729812 -0.366448 -0.122380
v -0.730445 -0.367078 -0.122380
v 0.726054 -0.367078 -0.122380
v 0.725864 -0.366889 -0.122380
v 0.724255 -0.365288 -0.122380
v 0.724255 -0.352112 -0.122380
v 0.724255 -0.333935 -0.122380
v 0.725421 -0.332774 -0.122380
v 0.727030 -0.331173 -0.122380
v 0.741942 -0.331173 -0.122380
v 0.762516 -0.331173 -0.122380
v 0.763682 -0.332333 -0.122380
v 0.765290 -0.333935 -0.122380
v -0.530393 -0.252643 -0.122380
v 0.726296 -0.331904 -0.122380
v 0.765402 -0.333935 -0.122380
v 0.725862 0.331942 -0.122380
v 0.686275 0.329301 -0.122380
v 0.765402 0.333542 -0.122380
vn 0.0022 0.0047 1.0000
vn -0.0022 0.0047 1.0000
vn -0.0021 0.0047 1.0000
vn -0.0023 0.0043 1.0000
vn -0.0023 -0.0043 1.0000
vn -0.0023 0.0042 1.0000
vn -0.0022 0.0042 1.0000
vn -0.0023 -0.0042 1.0000
vn 0.0021 0.0047 1.0000
vn -0.0021 -0.0044 1.0000
vn -0.0000 -0.0000 1.0000
vn -0.0021 -0.0043 1.0000
vn -0.0021 0.0044 1.0000
vn -0.0022 -0.0042 1.0000
vn -0.0021 0.0042 1.0000
vn -0.0021 -0.0042 1.0000
vn 0.0021 0.0044 1.0000
vn -0.0021 0.0043 1.0000
vn 0.0023 0.0043 1.0000
vn 0.0023 0.0042 1.0000
vn 0.0023 -0.0042 1.0000
vn 0.0022 0.0042 1.0000
vn 0.0022 -0.0042 1.0000
vn 0.0021 0.0042 1.0000
vn 0.0020 0.0042 1.0000
vn -0.0005 -0.0000 1.0000
vn -0.0022 -0.0047 1.0000
vn 0.0021 -0.0047 1.0000
vn -0.0021 -0.0047 1.0000
vn 0.0022 -0.0047 1.0000
vn 0.0021 -0.0043 1.0000
vn 0.0021 -0.0042 1.0000
vn -0.0021 -0.0045 1.0000
vn 0.0021 -0.0045 1.0000
vn 0.0021 0.0043 1.0000
vt 0.925355 0.587239
vt -0.551619 0.587239
vt 0.924238 0.585750
vt -0.550953 0.586352
vt -0.549323 0.584178
vt -0.590860 0.541574
vt -0.590860 -0.364019
vt -0.589278 0.539465
vt -0.588097 0.537890
vt -0.589726 -0.362507
vt -0.588095 -0.360333
vt 0.923056 0.584175
vt -0.549322 -0.382452
vt -0.348411 -0.253778
vt -0.549322 -0.364082
vt -0.549323 0.559513
vt -0.572985 0.537890
vt -0.567245 -0.360333
vt -0.552135 0.537890
vt -0.552133 -0.360333
vt 0.923056 0.560534
vt 0.884567 0.535884
vt -0.549323 0.541638
vt -0.550952 -0.361908
vt -0.550504 0.540063
vt 0.964754 0.543015
vt 0.964640 0.542332
vt 0.964754 -0.364673
vt 0.963459 0.540060
vt 0.961830 0.537887
vt 0.964640 -0.364373
vt 0.963011 -0.361909
vt 0.961830 -0.360334
vt 0.946719 0.537887
vt 0.940979 -0.360333
vt 0.925868 0.537887
vt 0.925868 -0.360333
vt 0.925123 -0.361326
vt 0.924686 0.539462
vt 0.924684 0.539465
vt -0.551144 -0.409055
vt 0.924879 -0.409055
vt -0.550503 -0.408200
vt -0.549322 -0.406625
vt 0.924686 -0.408798
vt 0.923056 -0.406625
vt 0.924238 -0.362507
vt 0.923056 -0.364082
vt -0.549322 -0.388748
vt 0.923056 -0.388748
vt 0.923056 0.541635
vt 0.923056 0.559510
s 1
usemtl M_PsCoffeeTable_213_1_0
f 1/1/1 2/2/2 23/3/1
f 2/2/2 3/4/2 23/3/1
f 3/4/2 4/5/3 23/3/1
f 12/6/4 13/7/5 11/8/6
f 11/8/6 13/7/5 10/9/7
f 13/7/5 14/10/8 10/9/7
f 14/10/8 15/11/8 10/9/7
f 23/3/1 4/5/3 22/12/9
f 20/13/10 47/14/11 19/15/12
f 4/5/3 5/16/13 22/12/9
f 10/9/7 15/11/8 9/17/7
f 15/11/8 16/18/14 9/17/7
f 9/17/7 16/18/14 8/19/15
f 16/18/14 17/20/16 8/19/15
f 22/12/9 5/16/13 21/21/17
f 21/21/17 5/16/13 51/22/11
f 5/16/13 6/23/15 51/22/11
f 19/15/12 47/14/11 18/24/16
f 18/24/16 47/14/11 17/20/16
f 17/20/16 47/14/11 8/19/15
f 8/19/15 47/14/11 7/25/18
f 7/25/18 47/14/11 6/23/15
f 6/23/15 47/14/11 51/22/11
f 52/26/11 24/27/19 49/28/11
f 24/27/19 25/29/20 49/28/11
f 25/29/20 26/30/20 49/28/11
f 49/28/11 26/30/20 46/31/11
f 46/31/11 26/30/20 45/32/21
f 45/32/21 26/30/20 44/33/21
f 26/30/20 27/34/22 44/33/21
f 44/33/21 27/34/22 43/35/23
f 27/34/22 28/36/24 43/35/23
f 43/35/23 28/36/24 42/37/23
f 47/14/11 48/38/11 51/22/11
f 48/38/11 42/37/23 51/22/11
f 42/37/23 28/36/24 51/22/11
f 28/36/24 29/39/25 51/22/11
f 29/39/25 50/40/26 51/22/11
f 35/41/27 36/42/28 34/43/29
f 34/43/29 36/42/28 33/44/29
f 36/42/28 37/45/30 33/44/29
f 37/45/30 38/46/28 33/44/29
f 48/38/11 47/14/11 41/47/31
f 41/47/31 47/14/11 40/48/32
f 33/44/29 38/46/28 32/49/33
f 38/46/28 39/50/34 32/49/33
f 32/49/33 39/50/34 20/13/10
f 39/50/34 40/48/32 20/13/10
f 47/14/11 20/13/10 40/48/32
f 50/40/26 30/51/35 51/22/11
f 21/21/17 51/22/11 31/52/17
f 51/22/11 30/51/35 31/52/17
