# Blender 4.1.1
# www.blender.org
mtllib MeshTvStand_220_0_GeomSubset_1.mtl
o MeshTvStand_220_0_GeomSubset_1
v 0.618242 0.162627 0.134140
v 0.618099 0.162627 -0.279575
v 0.618094 0.180076 -0.296100
v 0.618248 0.180076 0.150665
v 0.618093 -0.183137 -0.296100
v 0.618099 -0.165688 -0.279575
v 0.618248 -0.183137 0.150665
v 0.618242 -0.165689 0.134140
v 0.602215 0.162627 0.134146
v 0.602221 0.180076 0.150670
v 0.602068 0.180076 -0.296094
v 0.602073 0.162623 -0.279570
v 0.602067 -0.183137 -0.296095
v 0.602073 -0.165688 -0.279570
v 0.602221 -0.183137 0.150670
v 0.602215 -0.165689 0.134146
v 0.601112 0.163672 0.137331
v -0.600991 0.163672 0.137746
v -0.618502 0.181182 0.137752
v 0.618623 0.181186 0.137325
v -0.618502 -0.184247 0.137752
v -0.600991 -0.166738 0.137746
v 0.618623 -0.184247 0.137325
v 0.601112 -0.166738 0.137331
v 0.601117 0.163672 0.152562
v 0.618628 0.181182 0.152556
v -0.618497 0.181186 0.152984
v -0.600985 0.163672 0.152978
v -0.618497 -0.184247 0.152984
v -0.600985 -0.166738 0.152978
v 0.618628 -0.184247 0.152556
v 0.601117 -0.166738 0.152562
v -0.601499 0.162623 0.134561
v -0.601641 0.162627 -0.279154
v -0.601647 0.180076 -0.295678
v -0.601493 0.180076 0.151086
v -0.601647 -0.183137 -0.295679
v -0.601642 -0.165688 -0.279154
v -0.601493 -0.183137 0.151086
v -0.601499 -0.165689 0.134561
v -0.617525 0.162627 0.134567
v -0.617519 0.180076 0.151092
v -0.617674 0.180076 -0.295673
v -0.617668 0.162623 -0.279148
v -0.617674 -0.183137 -0.295673
v -0.617668 -0.165688 -0.279148
v -0.617520 -0.183137 0.151092
v -0.617525 -0.165689 0.134567
v 0.600985 0.163672 -0.225337
v -0.601116 0.163672 -0.224921
v -0.618628 0.181186 -0.224915
v 0.618497 0.181182 -0.225343
v -0.618628 -0.184247 -0.224915
v -0.601117 -0.166738 -0.224921
v 0.618497 -0.184247 -0.225343
v 0.600985 -0.166738 -0.225337
v 0.600990 0.163672 -0.210105
v 0.618502 0.181182 -0.210111
v -0.618623 0.181182 -0.209684
v -0.601111 0.163672 -0.209690
v -0.618623 -0.184247 -0.209684
v -0.601112 -0.166738 -0.209690
v 0.618502 -0.184247 -0.210111
v 0.600990 -0.166738 -0.210105
v 0.601049 0.163672 -0.039527
v -0.601052 0.163672 -0.039112
v -0.618564 0.181182 -0.039105
v 0.618561 0.181182 -0.039533
v -0.618564 -0.184247 -0.039105
v -0.601053 -0.166734 -0.039112
v 0.618560 -0.184247 -0.039533
v 0.601049 -0.166734 -0.039527
v 0.601054 0.163672 -0.024296
v 0.618566 0.181182 -0.024302
v -0.618558 0.181182 -0.023874
v -0.601047 0.163672 -0.023880
v -0.618559 -0.184247 -0.023874
v -0.601047 -0.166738 -0.023880
v 0.618566 -0.184247 -0.024302
v 0.601054 -0.166734 -0.024296
v 0.601113 -0.166734 0.144589
v -0.600989 -0.166734 0.145005
v -0.600989 0.163672 0.145005
v 0.601113 0.163672 0.144589
v 0.601114 -0.166738 0.148387
v 0.601114 0.163672 0.148387
v -0.600987 0.163672 0.148803
v -0.600987 -0.166738 0.148803
v 0.600987 -0.166738 -0.218078
v -0.601115 -0.166738 -0.217663
v -0.601115 0.163672 -0.217663
v 0.600987 0.163672 -0.218078
v 0.600988 -0.166734 -0.214281
v 0.600988 0.163672 -0.214281
v -0.601113 0.163672 -0.213865
v -0.601114 -0.166734 -0.213865
v 0.601051 -0.166738 -0.032269
v -0.601051 -0.166738 -0.031853
v -0.601050 0.163672 -0.031853
v 0.601051 0.163672 -0.032269
v 0.601052 -0.166738 -0.028471
v 0.601053 0.163672 -0.028471
v -0.601049 0.163672 -0.028055
v -0.601049 -0.166738 -0.028055
vn 0.0003 -0.0000 1.0000
vn -0.0003 -0.0000 -1.0000
vn -0.0000 1.0000 -0.0005
vn -0.0000 1.0000 0.0020
vn -0.0000 1.0000 -0.0008
vn -0.0000 -1.0000 -0.0000
vn -1.0000 -0.0000 0.0003
vn 1.0000 -0.0000 -0.0005
vn 1.0000 -0.0000 0.0002
vn -0.0000 1.0000 -0.0035
vn -0.0000 1.0000 -0.0034
vn -0.0000 1.0000 -0.0011
vn -0.0000 1.0000 -0.0045
vn 1.0000 -0.0000 -0.0003
vn -0.0000 1.0000 0.0005
vn -0.0000 1.0000 0.0007
vn -0.0000 1.0000 -0.0000
vn -1.0000 -0.0000 0.0005
s 1
usemtl M_TvStand_220_1
f 81//1 83//1 82//1
f 81//1 84//1 83//1
f 85//2 87//2 86//2
f 85//2 88//2 87//2
f 82//3 85//3 81//4
f 82//3 88//5 85//3
f 84//6 87//6 83//6
f 84//6 86//6 87//6
f 81//7 86//7 84//7
f 81//7 85//7 86//7
f 83//8 88//8 82//9
f 83//8 87//8 88//8
f 89//1 91//1 90//1
f 89//1 92//1 91//1
f 93//2 95//2 94//2
f 93//2 96//2 95//2
f 90//10 93//11 89//12
f 90//10 96//13 93//11
f 92//6 95//6 91//6
f 92//6 94//6 95//6
f 89//7 94//7 92//7
f 89//7 93//7 94//7
f 91//8 96//14 90//14
f 91//8 95//8 96//14
f 97//1 99//1 98//1
f 97//1 100//1 99//1
f 101//2 103//2 102//2
f 101//2 104//2 103//2
f 98//15 101//15 97//16
f 98//15 104//17 101//15
f 100//6 103//6 99//6
f 100//6 102//6 103//6
f 97//7 102//18 100//18
f 97//7 101//7 102//18
f 99//14 104//8 98//9
f 99//14 103//14 104//8
