# Blender 4.1.1
# www.blender.org
mtllib MeshBook_13_0_GeomSubset_1.mtl
o MeshBook_13_0_GeomSubset_1
v -0.100638 -0.139970 -0.014561
v -0.100638 0.139970 -0.014561
v -0.100638 0.139970 -0.015293
v -0.100638 -0.139970 -0.015293
v 0.104275 0.139970 -0.012846
v 0.101963 0.139970 -0.014561
v 0.103088 0.139970 -0.015293
v 0.105190 0.139970 -0.013654
v 0.101963 -0.139970 -0.014561
v 0.104275 -0.139970 -0.012846
v 0.103088 -0.139970 -0.015293
v 0.105190 -0.139970 -0.013654
v 0.105546 -0.139970 -0.003185
v 0.106779 -0.139970 -0.003185
v 0.106779 0.139970 -0.003185
v 0.105546 0.139970 -0.003185
v 0.106411 -0.139970 -0.008420
v 0.106411 0.139970 -0.008420
v 0.105185 0.139970 -0.008016
v 0.105185 -0.139970 -0.008016
v 0.106594 -0.139970 -0.005802
v 0.106594 0.139970 -0.005802
v 0.105384 0.139970 -0.005600
v 0.105384 -0.139970 -0.005600
v 0.105776 -0.139970 -0.011037
v 0.105776 0.139970 -0.011037
v 0.104754 0.139970 -0.010431
v 0.104754 -0.139970 -0.010431
v 0.103913 0.139970 -0.003185
v -0.100638 0.139970 -0.003185
v -0.100638 -0.139970 -0.003185
v 0.103913 -0.139970 -0.003185
v 0.103523 0.139970 -0.008873
v -0.100638 0.139970 -0.008873
v -0.100638 -0.139970 -0.008873
v 0.103523 -0.139970 -0.008873
v 0.103913 -0.138440 -0.000324
v 0.105546 -0.139970 -0.003185
v 0.103913 0.138440 -0.000324
v 0.105546 0.139970 -0.003185
v -0.099344 -0.138440 -0.002460
v -0.099344 0.138440 -0.002460
v -0.100638 -0.139970 -0.014561
v -0.100638 0.139970 -0.014561
v 0.101963 0.139970 -0.014561
v 0.104275 0.139970 -0.012846
v 0.104275 -0.139970 -0.012846
v 0.101963 -0.139970 -0.014561
v 0.105185 0.139970 -0.008016
v 0.105185 -0.139970 -0.008016
v 0.032540 0.139970 -0.014561
v 0.033580 0.139970 -0.008873
v 0.033841 0.139970 -0.003185
v 0.034202 0.138440 0.008506
v 0.034202 -0.138440 0.008506
v 0.033841 -0.139970 -0.003185
v 0.033580 -0.139970 -0.008873
v 0.032540 -0.139970 -0.014561
v -0.030585 0.139970 -0.014561
v -0.030066 0.139970 -0.008873
v -0.029935 0.139970 -0.003185
v -0.029212 0.138440 0.005037
v -0.029212 -0.138440 0.005037
v -0.029935 -0.139970 -0.003185
v -0.030066 -0.139970 -0.008873
v -0.030585 -0.139970 -0.014561
v 0.014437 0.139970 -0.014561
v 0.015304 0.139970 -0.008873
v 0.015520 0.139970 -0.003185
v 0.016003 0.138440 0.008002
v 0.016003 -0.138440 0.008002
v 0.015520 -0.139970 -0.003185
v 0.015304 -0.139970 -0.008873
v 0.014437 -0.139970 -0.014561
v -0.008074 0.139970 -0.014561
v -0.007381 0.139970 -0.008873
v -0.007208 0.139970 -0.003185
v -0.006605 0.138440 0.006813
v -0.006605 -0.138440 0.006813
v -0.007208 -0.139970 -0.003185
v -0.007381 -0.139970 -0.008873
v -0.008074 -0.139970 -0.014561
v 0.087286 0.139970 -0.014561
v 0.088743 0.139970 -0.008873
v 0.089107 0.139970 -0.003185
v 0.089179 0.138440 0.005397
v 0.089179 -0.138440 0.005397
v 0.089107 -0.139970 -0.003185
v 0.088743 -0.139970 -0.008873
v 0.087286 -0.139970 -0.014561
v 0.074949 0.139970 -0.014561
v 0.076302 0.139970 -0.008873
v 0.076640 0.139970 -0.003185
v 0.076784 0.138440 0.007702
v 0.076784 -0.138440 0.007702
v 0.076640 -0.139970 -0.003185
v 0.076302 -0.139970 -0.008873
v 0.074949 -0.139970 -0.014561
v 0.061442 0.139970 -0.014561
v 0.062691 0.139970 -0.008873
v 0.063003 0.139970 -0.003185
v 0.063220 0.138440 0.008631
v 0.063220 -0.138440 0.008631
v 0.063003 -0.139970 -0.003185
v 0.062691 -0.139970 -0.008873
v 0.061442 -0.139970 -0.014561
v 0.047936 0.139970 -0.014561
v 0.049080 0.139970 -0.008873
v 0.049366 0.139970 -0.003185
v 0.049656 0.138440 0.008686
v 0.049656 -0.138440 0.008686
v 0.049366 -0.139970 -0.003185
v 0.049080 -0.139970 -0.008873
v 0.047936 -0.139970 -0.014561
v -0.053075 0.139970 -0.014561
v -0.052814 0.139970 -0.008873
v -0.052750 0.139970 -0.003185
v -0.051844 0.138440 0.003099
v -0.051844 -0.138440 0.003099
v -0.052750 -0.139970 -0.003185
v -0.052814 -0.139970 -0.008873
v -0.053075 -0.139970 -0.014561
v -0.075597 0.139970 -0.014561
v -0.075467 0.139970 -0.008873
v -0.075434 0.139970 -0.003185
v -0.074439 0.138440 0.000830
v -0.074439 -0.138440 0.000830
v -0.075434 -0.139970 -0.003185
v -0.075467 -0.139970 -0.008873
v -0.075597 -0.139970 -0.014561
v 0.105350 -0.138635 -0.001574
v 0.105350 0.138635 -0.001574
v 0.105916 -0.139759 -0.002730
v 0.105916 0.139759 -0.002730
v 0.106409 -0.139759 -0.002730
v 0.106409 0.139759 -0.002730
v 0.096553 0.139970 -0.014561
v 0.098061 0.139970 -0.008873
v 0.098439 0.139970 -0.003185
v 0.098475 0.138440 0.002619
v 0.098475 -0.138440 0.002619
v 0.098439 -0.139970 -0.003185
v 0.098061 -0.139970 -0.008873
v 0.096553 -0.139970 -0.014561
v 0.106209 -0.138729 -0.002625
v 0.106209 -0.139970 -0.003185
v 0.106209 0.138728 -0.002625
v 0.106209 0.139970 -0.003185
v -0.093393 0.139970 -0.014561
v -0.093360 0.139970 -0.008873
v -0.093352 0.139970 -0.003185
v -0.092290 0.138440 -0.001238
v -0.092290 -0.138440 -0.001238
v -0.093352 -0.139970 -0.003185
v -0.093360 -0.139970 -0.008873
v -0.093393 -0.139970 -0.014561
vn 1.0000 -0.0000 -0.0000
vn -0.0000 -1.0000 -0.0000
vn -0.0000 1.0000 -0.0000
vn -0.3251 -0.7251 -0.6071
vn -0.0844 -0.9564 -0.2795
vn 0.0366 -0.9021 -0.4300
vn 0.0401 -0.8664 -0.4977
vn 0.8838 -0.0000 -0.4680
vn 0.8838 -0.0000 -0.4678
vn 0.0401 0.8664 -0.4977
vn 0.0366 0.9021 -0.4301
vn -0.3249 0.7252 -0.6071
vn -0.0845 0.9564 -0.2796
vn -0.1335 0.8829 -0.4502
vn -0.2909 0.7298 -0.6187
vn -0.1335 -0.8829 -0.4502
vn -0.2911 -0.7298 -0.6187
vn 0.0662 0.6269 -0.7763
vn 0.0499 0.7559 -0.6528
vn 0.4888 -0.0000 -0.8724
vn 0.0499 -0.7560 -0.6527
vn 0.0660 -0.6274 -0.7759
vn 0.0004 -0.9990 -0.0436
vn 0.0001 -0.9991 -0.0424
vn 0.0013 -0.9914 -0.1307
vn 0.0002 -0.9917 -0.1285
vn 0.0001 0.9991 -0.0424
vn 0.0004 0.9990 -0.0437
vn 0.0013 0.9914 -0.1307
vn 0.0002 0.9917 -0.1285
vn 0.0033 -0.9968 -0.0794
vn 0.0020 -0.9983 -0.0582
vn 0.0077 -0.9824 -0.1867
vn 0.0051 -0.9880 -0.1546
vn 0.0020 0.9983 -0.0582
vn 0.0033 0.9968 -0.0794
vn 0.0077 0.9824 -0.1868
vn 0.0051 0.9879 -0.1548
vn 0.0009 -0.9989 -0.0476
vn 0.0027 -0.9905 -0.1376
vn 0.0009 0.9989 -0.0476
vn 0.0027 0.9905 -0.1376
vn -0.0104 -0.9970 -0.0766
vn -0.0353 -0.9891 -0.1429
vn -0.0237 -0.9825 -0.1846
vn -0.0642 -0.9583 -0.2784
vn -0.0354 0.9891 -0.1429
vn -0.0104 0.9970 -0.0767
vn -0.0237 0.9825 -0.1846
vn -0.0642 0.9583 -0.2785
vn -0.0037 -0.9986 -0.0519
vn -0.0098 -0.9894 -0.1449
vn -0.0037 0.9986 -0.0519
vn -0.0096 0.9894 -0.1446
vn -0.0008 -0.9990 -0.0438
vn -0.0024 -0.9914 -0.1308
vn -0.0008 0.9990 -0.0438
vn -0.0024 0.9914 -0.1308
vn 0.0059 -0.9922 -0.1242
vn 0.0116 -0.9688 -0.2477
vn 0.0059 0.9922 -0.1242
vn 0.0117 0.9687 -0.2478
vn 0.0133 -0.9713 -0.2373
vn 0.0213 -0.9225 -0.3855
vn 0.0133 0.9713 -0.2374
vn 0.0213 0.9224 -0.3856
vn -0.4489 0.5556 -0.6998
vn -0.4493 -0.5554 -0.6998
vt 1.949220 0.942390
vt 1.949220 0.944267
vt 1.852291 0.944267
vt 1.852291 0.942390
vt 1.949220 0.059227
vt 1.919916 0.049146
vt 1.837377 0.045180
vt 1.852029 0.052423
vt 1.837259 0.045180
vt 1.919798 0.049147
vt 1.949102 0.059226
vt 1.851911 0.052423
vt 1.851911 0.910697
vt 1.949102 0.910844
vt 1.949101 0.942425
vt 1.851911 0.942425
vt 1.852029 0.942425
vt 1.949220 0.942425
vt 1.949220 0.910844
vt 1.852029 0.910697
vt 1.754837 0.043604
vt 1.754838 0.050722
vt 1.754835 0.942425
vt 1.754838 0.910661
vt 1.754838 0.944267
vt 1.754837 0.942390
vt 1.754740 0.910664
vt 1.754715 0.942427
vt 1.754720 0.043604
vt 1.754720 0.050722
vt 1.679410 0.050723
vt 1.705109 0.044458
vt 1.679528 0.050722
vt 1.705225 0.044458
vt 1.746915 0.942418
vt 1.729192 0.906024
vt 1.746915 0.944267
vt 1.746915 0.942425
vt 1.729345 0.906030
vt 1.746910 0.942417
vt 1.852029 0.357325
vt 1.949220 0.361861
vt 1.949220 0.294746
vt 1.852029 0.289757
vt 1.754837 0.356192
vt 1.754837 0.288509
vt 1.545340 0.354615
vt 1.542765 0.287248
vt 1.754720 0.288509
vt 1.754720 0.356192
vt 1.545222 0.354614
vt 1.542648 0.287248
vt 1.851911 0.289757
vt 1.851911 0.357326
vt 1.949102 0.294746
vt 1.949102 0.361861
vt 1.852029 0.634777
vt 1.949220 0.637045
vt 1.949220 0.538911
vt 1.852029 0.535888
vt 1.754837 0.634210
vt 1.754837 0.535132
vt 1.614705 0.631056
vt 1.582985 0.532503
vt 1.754719 0.535132
vt 1.754720 0.634210
vt 1.614587 0.631056
vt 1.582866 0.532504
vt 1.851911 0.535889
vt 1.851911 0.634777
vt 1.949102 0.538911
vt 1.949101 0.637045
vt 1.949220 0.440779
vt 1.852029 0.436999
vt 1.754837 0.436054
vt 1.558565 0.433951
vt 1.754720 0.436054
vt 1.558448 0.433951
vt 1.851911 0.436999
vt 1.949102 0.440779
vt 1.852029 0.116856
vt 1.949220 0.123205
vt 1.949220 0.082809
vt 1.852029 0.076232
vt 1.754837 0.115269
vt 1.754837 0.074589
vt 1.593524 0.114954
vt 1.632384 0.074431
vt 1.754720 0.074589
vt 1.754720 0.115269
vt 1.593406 0.114954
vt 1.632267 0.074431
vt 1.851911 0.076232
vt 1.851911 0.116856
vt 1.949102 0.082809
vt 1.949102 0.123205
vt 1.949220 0.176986
vt 1.852029 0.171090
vt 1.754837 0.169616
vt 1.563232 0.168985
vt 1.754720 0.169616
vt 1.563115 0.168985
vt 1.851911 0.171090
vt 1.949102 0.176986
vt 1.949220 0.235866
vt 1.852029 0.230423
vt 1.754837 0.229063
vt 1.546224 0.228117
vt 1.754720 0.229063
vt 1.546107 0.228117
vt 1.851911 0.230423
vt 1.949102 0.235866
vt 1.949220 0.735081
vt 1.852029 0.733947
vt 1.754838 0.733663
vt 1.650572 0.729721
vt 1.754719 0.733663
vt 1.650454 0.729720
vt 1.851911 0.733947
vt 1.949102 0.735080
vt 1.949219 0.833263
vt 1.852028 0.832695
vt 1.754837 0.832553
vt 1.691982 0.828217
vt 1.754720 0.832553
vt 1.691864 0.828217
vt 1.851911 0.832695
vt 1.949102 0.833263
vt 1.729448 0.040714
vt 1.754720 0.040714
vt 1.754837 0.040715
vt 1.729566 0.040714
s 1
usemtl M_Book_13_1
f 43/1/1 44/2/1 34/3/1 35/4/1
f 45/5/2 46/6/2 49/7/2 33/8/2
f 50/9/3 47/10/3 48/11/3 36/12/3
f 155/13/3 156/14/3 43/15/3 35/16/3
f 34/17/2 44/18/2 149/19/2 150/20/2
f 33/8/2 49/7/2 40/21/4 29/22/5
f 30/23/6 34/17/2 150/20/2 151/24/7
f 35/4/1 34/3/1 30/25/8 31/26/9
f 154/27/10 155/13/3 35/16/3 31/28/11
f 38/29/12 50/9/3 36/12/3 32/30/13
f 38/29/12 32/30/13 37/31/14 131/32/15
f 39/33/16 29/22/5 40/21/4 132/34/17
f 154/27/10 31/28/11 41/35/18 153/36/19
f 31/26/9 30/25/8 42/37/20 41/38/20
f 30/23/6 151/24/7 152/39/21 42/40/22
f 52/41/2 51/42/2 107/43/2 108/44/2
f 53/45/23 52/41/2 108/44/2 109/46/24
f 54/47/25 53/45/23 109/46/24 110/48/26
f 112/49/27 56/50/28 55/51/29 111/52/30
f 112/49/27 113/53/3 57/54/3 56/50/28
f 113/53/3 114/55/3 58/56/3 57/54/3
f 60/57/2 59/58/2 75/59/2 76/60/2
f 61/61/31 60/57/2 76/60/2 77/62/32
f 62/63/33 61/61/31 77/62/32 78/64/34
f 80/65/35 64/66/36 63/67/37 79/68/38
f 80/65/35 81/69/3 65/70/3 64/66/36
f 81/69/3 82/71/3 66/72/3 65/70/3
f 67/73/2 51/42/2 52/41/2 68/74/2
f 68/74/2 52/41/2 53/45/23 69/75/39
f 70/76/40 69/75/39 53/45/23 54/47/25
f 56/50/28 72/77/41 71/78/42 55/51/29
f 56/50/28 57/54/3 73/79/3 72/77/41
f 57/54/3 58/56/3 74/80/3 73/79/3
f 75/59/2 67/73/2 68/74/2 76/60/2
f 76/60/2 68/74/2 69/75/39 77/62/32
f 78/64/34 77/62/32 69/75/39 70/76/40
f 72/77/41 80/65/35 79/68/38 71/78/42
f 72/77/41 73/79/3 81/69/3 80/65/35
f 73/79/3 74/80/3 82/71/3 81/69/3
f 84/81/2 83/82/2 137/83/2 138/84/2
f 85/85/43 84/81/2 138/84/2 139/86/44
f 86/87/45 85/85/43 139/86/44 140/88/46
f 142/89/47 88/90/48 87/91/49 141/92/50
f 142/89/47 143/93/3 89/94/3 88/90/48
f 143/93/3 144/95/3 90/96/3 89/94/3
f 91/97/2 83/82/2 84/81/2 92/98/2
f 92/98/2 84/81/2 85/85/43 93/99/51
f 94/100/52 93/99/51 85/85/43 86/87/45
f 88/90/48 96/101/53 95/102/54 87/91/49
f 88/90/48 89/94/3 97/103/3 96/101/53
f 89/94/3 90/96/3 98/104/3 97/103/3
f 99/105/2 91/97/2 92/98/2 100/106/2
f 100/106/2 92/98/2 93/99/51 101/107/55
f 102/108/56 101/107/55 93/99/51 94/100/52
f 96/101/53 104/109/57 103/110/58 95/102/54
f 96/101/53 97/103/3 105/111/3 104/109/57
f 97/103/3 98/104/3 106/112/3 105/111/3
f 107/43/2 99/105/2 100/106/2 108/44/2
f 108/44/2 100/106/2 101/107/55 109/46/24
f 110/48/26 109/46/24 101/107/55 102/108/56
f 104/109/57 112/49/27 111/52/30 103/110/58
f 104/109/57 105/111/3 113/53/3 112/49/27
f 105/111/3 106/112/3 114/55/3 113/53/3
f 115/113/2 59/58/2 60/57/2 116/114/2
f 116/114/2 60/57/2 61/61/31 117/115/59
f 118/116/60 117/115/59 61/61/31 62/63/33
f 64/66/36 120/117/61 119/118/62 63/67/37
f 64/66/36 65/70/3 121/119/3 120/117/61
f 65/70/3 66/72/3 122/120/3 121/119/3
f 123/121/2 115/113/2 116/114/2 124/122/2
f 124/122/2 116/114/2 117/115/59 125/123/63
f 126/124/64 125/123/63 117/115/59 118/116/60
f 120/117/61 128/125/65 127/126/66 119/118/62
f 120/117/61 121/119/3 129/127/3 128/125/65
f 121/119/3 122/120/3 130/128/3 129/127/3
f 137/83/2 45/5/2 33/8/2 138/84/2
f 138/84/2 33/8/2 29/22/5 139/86/44
f 140/88/46 139/86/44 29/22/5 39/33/16
f 32/30/13 142/89/47 141/92/50 37/31/14
f 32/30/13 36/12/3 143/93/3 142/89/47
f 36/12/3 48/11/3 144/95/3 143/93/3
f 38/29/12 131/32/15 145/129/67 146/130/67
f 132/34/17 40/21/4 148/131/68 147/132/68
f 150/20/2 149/19/2 123/121/2 124/122/2
f 151/24/7 150/20/2 124/122/2 125/123/63
f 152/39/21 151/24/7 125/123/63 126/124/64
f 128/125/65 154/27/10 153/36/19 127/126/66
f 128/125/65 129/127/3 155/13/3 154/27/10
f 129/127/3 130/128/3 156/14/3 155/13/3
