# Blender 4.1.0
# www.blender.org
mtllib Sink_18_Sink_18_0_GeomSubset_2.mtl
o Sink_18_Sink_18_0_GeomSubset_2
v 0.071048 0.019053 -0.071237
v 0.063887 0.036342 -0.071237
v 0.052495 0.051188 -0.071237
v 0.037648 0.062578 -0.071237
v 0.020360 0.069740 -0.071237
v 0.001807 0.072183 -0.071237
v -0.016747 0.069740 -0.071237
v -0.034035 0.062578 -0.071237
v -0.048881 0.051188 -0.071237
v -0.060273 0.036342 -0.071237
v -0.067435 0.019053 -0.071237
v -0.069877 0.000500 -0.071237
v -0.067435 -0.018053 -0.071237
v -0.060273 -0.035342 -0.071237
v -0.048881 -0.050188 -0.071237
v -0.034035 -0.061579 -0.071237
v -0.016747 -0.068741 -0.071237
v 0.001807 -0.071184 -0.071237
v 0.020360 -0.068741 -0.071237
v 0.037648 -0.061579 -0.071237
v 0.052495 -0.050188 -0.071237
v 0.063887 -0.035342 -0.071237
v 0.071048 -0.018053 -0.071237
v 0.073491 0.000500 -0.071237
v 0.137628 0.036894 -0.053872
v 0.123581 0.070807 -0.053872
v 0.101235 0.099928 -0.053872
v 0.072113 0.122274 -0.053872
v 0.038200 0.136322 -0.053872
v 0.001807 0.141113 -0.053872
v -0.034587 0.136322 -0.053872
v -0.068500 0.122274 -0.053872
v -0.097621 0.099928 -0.053872
v -0.119967 0.070807 -0.053872
v -0.134015 0.036894 -0.053872
v -0.138806 0.000500 -0.053872
v -0.134015 -0.035895 -0.053872
v -0.119967 -0.069807 -0.053872
v -0.097621 -0.098929 -0.053872
v -0.068500 -0.121275 -0.053872
v -0.034587 -0.135323 -0.053872
v 0.001807 -0.140113 -0.053872
v 0.038200 -0.135323 -0.053872
v 0.072113 -0.121275 -0.053872
v 0.101235 -0.098929 -0.053872
v 0.123581 -0.069807 -0.053872
v 0.137628 -0.035895 -0.053872
v 0.142420 0.000500 -0.053872
v 0.198989 0.053335 -0.025671
v 0.178595 0.102568 -0.025671
v 0.146154 0.144847 -0.025671
v 0.103876 0.177289 -0.025671
v 0.054642 0.197683 -0.025671
v 0.001807 0.204637 -0.025671
v -0.051028 0.197683 -0.025671
v -0.100262 0.177289 -0.025671
v -0.142541 0.144847 -0.025671
v -0.174982 0.102568 -0.025671
v -0.195376 0.053335 -0.025671
v -0.202332 0.000500 -0.025671
v -0.195376 -0.052335 -0.025671
v -0.174982 -0.101569 -0.025671
v -0.142541 -0.143846 -0.025671
v -0.100262 -0.176290 -0.025671
v -0.051028 -0.196682 -0.025671
v 0.001807 -0.203638 -0.025671
v 0.054642 -0.196682 -0.025671
v 0.103876 -0.176290 -0.025671
v 0.146154 -0.143846 -0.025671
v 0.178596 -0.101569 -0.025671
v 0.198989 -0.052335 -0.025671
v 0.205945 0.000500 -0.025671
v 0.252772 0.067745 0.012281
v 0.226817 0.130409 0.012281
v 0.185526 0.184219 0.012281
v 0.131716 0.225509 0.012281
v 0.069053 0.251464 0.012281
v 0.001807 0.260317 0.012281
v -0.065439 0.251466 0.012281
v -0.128102 0.225509 0.012281
v -0.181913 0.184219 0.012281
v -0.223203 0.130409 0.012281
v -0.249159 0.067745 0.012281
v -0.258012 0.000500 0.012281
v -0.249159 -0.066746 0.012281
v -0.223203 -0.129410 0.012281
v -0.181913 -0.183220 0.012281
v -0.128103 -0.224510 0.012281
v -0.065439 -0.250467 0.012281
v 0.001807 -0.259318 0.012281
v 0.069053 -0.250467 0.012281
v 0.131716 -0.224510 0.012281
v 0.185526 -0.183220 0.012281
v 0.226817 -0.129410 0.012281
v 0.252772 -0.066746 0.012281
v 0.261625 0.000500 0.012281
v 0.296911 0.079573 0.058525
v 0.266390 0.153258 0.058525
v 0.217838 0.216531 0.058525
v 0.154564 0.265083 0.058525
v 0.080880 0.295603 0.058525
v 0.001807 0.306013 0.058525
v -0.077266 0.295603 0.058525
v -0.150950 0.265083 0.058525
v -0.214225 0.216531 0.058525
v -0.262777 0.153258 0.058525
v -0.293297 0.079573 0.058525
v -0.303708 0.000500 0.058525
v -0.293297 -0.078573 0.058525
v -0.262777 -0.152258 0.058525
v -0.214225 -0.215532 0.058525
v -0.150951 -0.264084 0.058525
v -0.077266 -0.294603 0.058525
v 0.001807 -0.305014 0.058525
v 0.080880 -0.294603 0.058525
v 0.154564 -0.264084 0.058525
v 0.217838 -0.215532 0.058525
v 0.266390 -0.152258 0.058525
v 0.296911 -0.078573 0.058525
v 0.307321 0.000500 0.058525
v 0.067794 0.018181 -0.055461
v 0.131208 0.035172 -0.038921
v 0.117825 0.067483 -0.038921
v 0.060970 0.034658 -0.055461
v 0.096535 0.095228 -0.038921
v 0.050114 0.048806 -0.055461
v 0.068790 0.116517 -0.038921
v 0.035964 0.059663 -0.055461
v 0.036480 0.129900 -0.038921
v 0.019488 0.066488 -0.055461
v 0.001807 0.134466 -0.038921
v 0.001807 0.068816 -0.055461
v -0.032866 0.129900 -0.038921
v -0.015874 0.066488 -0.055461
v -0.065176 0.116517 -0.038921
v -0.032351 0.059663 -0.055461
v -0.092922 0.095227 -0.038921
v -0.046500 0.048806 -0.055461
v -0.114211 0.067483 -0.038921
v -0.057356 0.034658 -0.055461
v -0.127595 0.035172 -0.038921
v -0.064181 0.018183 -0.055461
v -0.132160 0.000500 -0.038921
v -0.066509 0.000500 -0.055461
v -0.127594 -0.034174 -0.038921
v -0.064181 -0.017183 -0.055461
v -0.114212 -0.066482 -0.038921
v -0.057356 -0.033659 -0.055461
v -0.092922 -0.094229 -0.038921
v -0.046500 -0.047806 -0.055461
v -0.065176 -0.115518 -0.038921
v -0.032351 -0.058664 -0.055461
v -0.032866 -0.128901 -0.038921
v -0.015874 -0.065489 -0.055461
v 0.001807 -0.133467 -0.038921
v 0.001807 -0.067816 -0.055461
v 0.036480 -0.128901 -0.038921
v 0.019488 -0.065489 -0.055461
v 0.068789 -0.115518 -0.038921
v 0.035965 -0.058664 -0.055461
v 0.096536 -0.094227 -0.038921
v 0.050114 -0.047806 -0.055461
v 0.117825 -0.066484 -0.038921
v 0.060970 -0.033659 -0.055461
v 0.131208 -0.034174 -0.038921
v 0.067794 -0.017182 -0.055461
v 0.135773 0.000500 -0.038921
v 0.070123 0.000500 -0.055461
v 0.189584 0.050814 -0.012092
v 0.170162 0.097700 -0.012092
v 0.139269 0.137961 -0.012092
v 0.099007 0.168855 -0.012093
v 0.052121 0.188277 -0.012092
v 0.001807 0.194900 -0.012093
v -0.048507 0.188277 -0.012092
v -0.095394 0.168855 -0.012092
v -0.135655 0.137961 -0.012092
v -0.166549 0.097700 -0.012092
v -0.185969 0.050813 -0.012093
v -0.192594 0.000500 -0.012093
v -0.185970 -0.049814 -0.012092
v -0.166549 -0.096701 -0.012092
v -0.135655 -0.136962 -0.012093
v -0.095393 -0.167855 -0.012093
v -0.048508 -0.187277 -0.012092
v 0.001807 -0.193900 -0.012092
v 0.052121 -0.187277 -0.012092
v 0.099007 -0.167855 -0.012092
v 0.139269 -0.136962 -0.012092
v 0.170162 -0.096700 -0.012093
v 0.189583 -0.049814 -0.012093
v 0.196207 0.000500 -0.012092
v 0.240668 0.064503 0.023955
v 0.215965 0.124144 0.023956
v 0.176666 0.175359 0.023955
v 0.125451 0.214658 0.023956
v 0.065809 0.239362 0.023956
v 0.001807 0.247787 0.023956
v -0.062196 0.239362 0.023956
v -0.121837 0.214658 0.023956
v -0.173052 0.175359 0.023956
v -0.212351 0.124144 0.023956
v -0.237055 0.064501 0.023955
v -0.245482 0.000502 0.023956
v -0.237055 -0.063503 0.023956
v -0.212351 -0.123145 0.023956
v -0.173052 -0.174360 0.023955
v -0.121838 -0.213657 0.023956
v -0.062197 -0.238362 0.023956
v 0.001806 -0.246788 0.023956
v 0.065810 -0.238362 0.023956
v 0.125451 -0.213657 0.023955
v 0.176666 -0.174357 0.023955
v 0.215965 -0.123145 0.023956
v 0.240669 -0.063502 0.023956
v 0.249095 0.000500 0.023956
v 0.282518 0.075716 0.067802
v 0.253485 0.145807 0.067801
v 0.207301 0.205994 0.067801
v 0.147113 0.252179 0.067801
v 0.077023 0.281210 0.067801
v 0.001807 0.291112 0.067801
v -0.073410 0.281210 0.067801
v -0.143500 0.252179 0.067801
v -0.203688 0.205994 0.067801
v -0.249872 0.145807 0.067801
v -0.278904 0.075716 0.067801
v -0.288806 0.000500 0.067801
v -0.278905 -0.074716 0.067802
v -0.249872 -0.144808 0.067801
v -0.203688 -0.204995 0.067801
v -0.143500 -0.251180 0.067801
v -0.073410 -0.280212 0.067801
v 0.001807 -0.290114 0.067801
v 0.077024 -0.280212 0.067801
v 0.147113 -0.251180 0.067801
v 0.207302 -0.204995 0.067801
v 0.253485 -0.144808 0.067802
v 0.282518 -0.074716 0.067801
v 0.292420 0.000500 0.067801
v 0.087428 -0.319041 0.119929
v 0.089068 -0.325164 0.116714
v 0.001807 -0.336651 0.116714
v 0.001807 -0.330313 0.119929
v -0.085454 -0.325164 0.116714
v -0.083814 -0.319041 0.119929
v -0.166769 -0.291482 0.116714
v -0.163600 -0.285994 0.119929
v -0.236595 -0.237901 0.116714
v -0.232113 -0.233422 0.119929
v -0.290175 -0.168076 0.116714
v -0.284686 -0.164907 0.119929
v -0.323857 -0.086762 0.116714
v -0.317734 -0.085121 0.119929
v -0.335345 0.000500 0.116714
v -0.329006 0.000500 0.119929
v -0.323857 0.087761 0.116714
v -0.317734 0.086120 0.119929
v -0.290175 0.169075 0.116714
v -0.284686 0.165907 0.119929
v -0.236595 0.238902 0.116714
v -0.232113 0.234420 0.119929
v -0.166769 0.292482 0.116714
v -0.163600 0.286992 0.119929
v -0.085454 0.326163 0.116714
v -0.083814 0.320041 0.119929
v 0.001807 0.337652 0.116714
v 0.001807 0.331312 0.119929
v 0.089068 0.326163 0.116714
v 0.087428 0.320041 0.119929
v 0.170383 0.292482 0.116714
v 0.167213 0.286991 0.119929
v 0.240208 0.238901 0.116714
v 0.235727 0.234420 0.119929
v 0.293789 0.169075 0.116714
v 0.288299 0.165907 0.119929
v 0.327470 0.087761 0.116714
v 0.321348 0.086120 0.119929
v 0.338958 0.000500 0.116714
v 0.332620 0.000500 0.119929
v 0.327470 -0.086762 0.116714
v 0.321348 -0.085121 0.119929
v 0.293789 -0.168076 0.116714
v 0.288300 -0.164907 0.119929
v 0.240209 -0.237901 0.116714
v 0.235727 -0.233422 0.119929
v 0.170382 -0.291482 0.116714
v 0.167213 -0.285994 0.119929
v 0.328454 0.088025 0.109267
v 0.328814 0.088121 0.113456
v 0.294671 0.169585 0.109267
v 0.294993 0.169770 0.113456
v 0.240929 0.239623 0.109267
v 0.241192 0.239884 0.113456
v 0.170892 0.293363 0.109267
v 0.171078 0.293685 0.113456
v 0.089332 0.327148 0.109267
v 0.089428 0.327507 0.113456
v 0.001807 0.338671 0.109267
v 0.001807 0.339041 0.113456
v -0.085718 0.327148 0.109267
v -0.085814 0.327507 0.113456
v -0.167278 0.293363 0.109267
v -0.167464 0.293685 0.113456
v -0.237316 0.239623 0.109267
v -0.237579 0.239884 0.113456
v -0.291058 0.169585 0.109267
v -0.291380 0.169770 0.113456
v -0.324841 0.088025 0.109267
v -0.325200 0.088121 0.113456
v -0.336364 0.000500 0.109267
v -0.336736 0.000500 0.113456
v -0.324841 -0.087026 0.109267
v -0.325200 -0.087120 0.113456
v -0.291058 -0.168585 0.109267
v -0.291380 -0.168771 0.113456
v -0.237316 -0.238623 0.109267
v -0.237578 -0.238885 0.113456
v -0.167278 -0.292364 0.109267
v -0.167465 -0.292687 0.113456
v -0.085718 -0.326149 0.109267
v -0.085814 -0.326507 0.113456
v 0.001807 -0.337671 0.109267
v 0.001807 -0.338042 0.113456
v 0.089332 -0.326149 0.109267
v 0.089428 -0.326507 0.113456
v 0.170892 -0.292364 0.109267
v 0.171078 -0.292687 0.113456
v 0.240929 -0.238623 0.109267
v 0.241193 -0.238885 0.113456
v 0.294671 -0.168585 0.109267
v 0.294993 -0.168771 0.113456
v 0.328454 -0.087026 0.109267
v 0.328814 -0.087122 0.113456
v 0.339977 0.000500 0.109267
v 0.340349 0.000500 0.113456
v 0.313232 0.083946 0.117210
v 0.317089 0.084980 0.119516
v 0.281024 0.161706 0.117210
v 0.284481 0.163702 0.119516
v 0.229786 0.228479 0.117210
v 0.232609 0.231301 0.119516
v 0.163013 0.279715 0.117210
v 0.165009 0.283172 0.119516
v 0.085253 0.311925 0.117210
v 0.086286 0.315781 0.119516
v 0.001807 0.322912 0.117210
v 0.001807 0.326903 0.119516
v -0.081639 0.311925 0.117210
v -0.082672 0.315781 0.119516
v -0.159399 0.279715 0.117210
v -0.161395 0.283172 0.119516
v -0.226173 0.228479 0.117210
v -0.228995 0.231303 0.119516
v -0.277410 0.161706 0.117210
v -0.280867 0.163702 0.119516
v -0.309619 0.083946 0.117210
v -0.313475 0.084980 0.119516
v -0.320605 0.000500 0.117210
v -0.324597 0.000500 0.119516
v -0.309619 -0.082947 0.117210
v -0.313475 -0.083979 0.119516
v -0.277410 -0.160707 0.117210
v -0.280867 -0.162702 0.119516
v -0.226172 -0.227479 0.117210
v -0.228995 -0.230302 0.119516
v -0.159399 -0.278717 0.117210
v -0.161395 -0.282174 0.119516
v -0.081639 -0.310926 0.117210
v -0.082672 -0.314782 0.119516
v 0.001807 -0.321912 0.117210
v 0.001807 -0.325904 0.119516
v 0.085254 -0.310926 0.117210
v 0.086286 -0.314782 0.119516
v 0.163013 -0.278717 0.117210
v 0.165009 -0.282174 0.119516
v 0.229787 -0.227479 0.117210
v 0.232610 -0.230302 0.119516
v 0.281024 -0.160706 0.117210
v 0.284481 -0.162702 0.119516
v 0.313232 -0.082947 0.117210
v 0.317089 -0.083979 0.119516
v 0.324218 0.000500 0.117210
v 0.328211 0.000500 0.119516
v 0.071048 0.019053 -0.113300
v 0.063887 0.036342 -0.113300
v 0.052495 0.051188 -0.113300
v 0.037648 0.062578 -0.113300
v 0.020360 0.069740 -0.113300
v 0.001807 0.072183 -0.113300
v -0.016747 0.069740 -0.113300
v -0.034035 0.062578 -0.113300
v -0.048881 0.051188 -0.113300
v -0.060273 0.036342 -0.113300
v -0.067435 0.019053 -0.113300
v -0.069877 0.000500 -0.113300
v -0.067435 -0.018053 -0.113300
v -0.060273 -0.035342 -0.113300
v -0.048881 -0.050188 -0.113300
v -0.034035 -0.061579 -0.113300
v -0.016747 -0.068741 -0.113300
v 0.001807 -0.071184 -0.113300
v 0.020360 -0.068741 -0.113300
v 0.037648 -0.061579 -0.113300
v 0.052495 -0.050188 -0.113300
v 0.063887 -0.035342 -0.113300
v 0.071048 -0.018053 -0.113300
v 0.073491 0.000500 -0.113300
v 0.038488 0.010329 -0.055461
v 0.034696 0.019486 -0.055461
v 0.028660 0.027352 -0.055461
v 0.020795 0.033387 -0.055461
v 0.011637 0.037182 -0.055461
v 0.001807 0.038476 -0.055461
v -0.008023 0.037182 -0.055461
v -0.017181 0.033387 -0.055461
v -0.025046 0.027352 -0.055461
v -0.031082 0.019486 -0.055461
v -0.034875 0.010329 -0.055461
v -0.036168 0.000500 -0.055461
v -0.034875 -0.009329 -0.055461
v -0.031082 -0.018487 -0.055461
v -0.025047 -0.026353 -0.055461
v -0.017181 -0.032388 -0.055461
v -0.008022 -0.036182 -0.055461
v 0.001807 -0.037476 -0.055461
v 0.011636 -0.036182 -0.055461
v 0.020795 -0.032388 -0.055461
v 0.028660 -0.026353 -0.055461
v 0.034696 -0.018488 -0.055461
v 0.038488 -0.009329 -0.055461
v 0.039782 0.000500 -0.055461
v 0.001807 0.000500 -0.113300
v 0.022926 0.006159 -0.068852
v 0.020743 0.011431 -0.068852
v 0.017267 0.015961 -0.068852
v 0.012739 0.019435 -0.068852
v 0.007466 0.021620 -0.068852
v 0.001807 0.022364 -0.068852
v -0.003853 0.021620 -0.068852
v -0.009125 0.019435 -0.068852
v -0.013654 0.015961 -0.068852
v -0.017129 0.011431 -0.068852
v -0.019312 0.006159 -0.068852
v -0.020057 0.000500 -0.068852
v -0.019312 -0.005159 -0.068852
v -0.017129 -0.010432 -0.068852
v -0.013654 -0.014961 -0.068852
v -0.009125 -0.018436 -0.068852
v -0.003852 -0.020620 -0.068852
v 0.001807 -0.021365 -0.068852
v 0.007465 -0.020620 -0.068852
v 0.012739 -0.018436 -0.068852
v 0.017267 -0.014961 -0.068852
v 0.020743 -0.010432 -0.068852
v 0.022926 -0.005159 -0.068852
v 0.023670 0.000500 -0.068852
v 0.001807 0.000500 -0.068852
v 0.030516 0.017021 -0.058723
v 0.018421 0.029116 -0.058723
v 0.001900 0.033544 -0.058723
v -0.014622 0.029116 -0.058723
v -0.026717 0.017021 -0.058723
v -0.031144 0.000500 -0.058723
v -0.026717 -0.016022 -0.058723
v -0.014622 -0.028116 -0.058723
v 0.001900 -0.032543 -0.058723
v 0.018421 -0.028116 -0.058723
v 0.030516 -0.016022 -0.058723
v 0.034943 0.000500 -0.058723
v 0.028737 0.015993 -0.053826
v 0.017394 0.027336 -0.053826
v 0.001900 0.031488 -0.053826
v -0.013594 0.027336 -0.053826
v -0.024937 0.015993 -0.053826
v -0.029088 0.000500 -0.053826
v -0.024937 -0.014994 -0.053826
v -0.013594 -0.026337 -0.053826
v 0.001900 -0.030488 -0.053826
v 0.017394 -0.026337 -0.053826
v 0.028737 -0.014994 -0.053826
v 0.032888 0.000500 -0.053826
v 0.001900 0.000500 -0.047671
v 0.024750 0.013693 -0.050132
v 0.016309 0.008819 -0.047671
v 0.010219 0.014909 -0.047671
v 0.015093 0.023351 -0.050132
v 0.001900 0.017137 -0.047671
v 0.001900 0.026886 -0.050132
v -0.006419 0.014909 -0.047671
v -0.011293 0.023351 -0.050132
v -0.012509 0.008819 -0.047671
v -0.020950 0.013693 -0.050132
v -0.014738 0.000500 -0.047671
v -0.024485 0.000500 -0.050132
v -0.012509 -0.007819 -0.047671
v -0.020950 -0.012693 -0.050132
v -0.006419 -0.013909 -0.047671
v -0.011293 -0.022350 -0.050132
v 0.001900 -0.016137 -0.047671
v 0.001900 -0.025886 -0.050132
v 0.010219 -0.013909 -0.047671
v 0.015093 -0.022350 -0.050132
v 0.016309 -0.007819 -0.047671
v 0.024750 -0.012693 -0.050132
v 0.018538 0.000500 -0.047671
v 0.028285 0.000500 -0.050132
v 0.024316 0.013442 -0.058723
v 0.014842 0.022917 -0.058723
v 0.001900 0.026384 -0.058723
v -0.011042 0.022917 -0.058723
v -0.020517 0.013442 -0.058723
v -0.023984 0.000500 -0.058723
v -0.020517 -0.012442 -0.058723
v -0.011042 -0.021917 -0.058723
v 0.001900 -0.025384 -0.058723
v 0.014842 -0.021917 -0.058723
v 0.024316 -0.012442 -0.058723
v 0.027784 0.000500 -0.058723
v 0.024316 0.013442 -0.071882
v 0.014842 0.022917 -0.071882
v 0.001900 0.000500 -0.071882
v 0.001900 0.026384 -0.071882
v -0.011042 0.022917 -0.071882
v -0.020517 0.013442 -0.071882
v -0.023984 0.000500 -0.071882
v -0.020517 -0.012442 -0.071882
v -0.011042 -0.021917 -0.071882
v 0.001900 -0.025384 -0.071882
v 0.014842 -0.021917 -0.071882
v 0.024316 -0.012442 -0.071882
v 0.027784 0.000500 -0.071882
v 0.009015 0.309380 0.099858
v 0.005968 0.310705 0.102601
v 0.001807 0.311190 0.103605
v -0.002354 0.310705 0.102601
v -0.005401 0.309380 0.099858
v -0.006516 0.307568 0.096112
v -0.005401 0.305757 0.092365
v -0.002354 0.304431 0.089623
v 0.001807 0.303945 0.088619
v 0.005968 0.304431 0.089623
v 0.009015 0.305757 0.092365
v 0.010130 0.307568 0.096112
v 0.009249 0.308072 0.100640
v 0.006104 0.309442 0.103472
v 0.001807 0.309943 0.104509
v -0.002490 0.309442 0.103472
v -0.005635 0.308072 0.100640
v -0.006787 0.306202 0.096772
v -0.005635 0.304332 0.092904
v -0.002490 0.302963 0.090072
v 0.001807 0.302462 0.089035
v 0.006104 0.302963 0.090072
v 0.009249 0.304332 0.092904
v 0.010401 0.306202 0.096772
v 0.009815 0.307649 0.101208
v 0.006431 0.309122 0.104256
v 0.001807 0.309662 0.105371
v -0.002817 0.309122 0.104256
v -0.006202 0.307649 0.101208
v -0.007441 0.305637 0.097045
v -0.006202 0.303624 0.092883
v -0.002817 0.302151 0.089835
v 0.001807 0.301611 0.088720
v 0.006431 0.302151 0.089835
v 0.009815 0.303624 0.092883
v 0.011055 0.305637 0.097045
v 0.010382 0.308357 0.101229
v 0.006758 0.309935 0.104492
v 0.001807 0.310513 0.105686
v -0.003144 0.309935 0.104492
v -0.006768 0.308357 0.101229
v -0.008095 0.306202 0.096772
v -0.006768 0.304048 0.092315
v -0.003144 0.302470 0.089052
v 0.001807 0.301892 0.087858
v 0.006758 0.302470 0.089052
v 0.010382 0.304048 0.092315
v 0.011708 0.306202 0.096772
v 0.010616 0.309781 0.100691
v 0.006893 0.311403 0.104043
v 0.001807 0.311996 0.105270
v -0.003279 0.311403 0.104043
v -0.007003 0.309781 0.100691
v -0.008366 0.307568 0.096112
v -0.007003 0.305354 0.091533
v -0.003279 0.303733 0.088181
v 0.001807 0.303141 0.086954
v 0.006893 0.303733 0.088181
v 0.010616 0.305354 0.091533
v 0.011979 0.307568 0.096112
v 0.010382 0.311089 0.099909
v 0.006758 0.312666 0.103172
v 0.001807 0.313243 0.104366
v -0.003144 0.312666 0.103172
v -0.006768 0.311089 0.099909
v -0.008095 0.308933 0.095452
v -0.006768 0.306779 0.090994
v -0.003144 0.305201 0.087731
v 0.001807 0.304624 0.086537
v 0.006758 0.305201 0.087731
v 0.010382 0.306779 0.090994
v 0.011708 0.308933 0.095452
v 0.009815 0.311512 0.099341
v 0.006431 0.312985 0.102388
v 0.001807 0.313524 0.103504
v -0.002817 0.312985 0.102388
v -0.006202 0.311512 0.099341
v -0.007441 0.309500 0.095178
v -0.006202 0.307486 0.091015
v -0.002817 0.306013 0.087968
v 0.001807 0.305474 0.086852
v 0.006431 0.306013 0.087968
v 0.009815 0.307486 0.091015
v 0.011055 0.309500 0.095178
v 0.009249 0.310804 0.099320
v 0.006104 0.312173 0.102152
v 0.001807 0.312674 0.103188
v -0.002490 0.312173 0.102152
v -0.005635 0.310804 0.099320
v -0.006787 0.308933 0.095452
v -0.005635 0.307063 0.091583
v -0.002490 0.305694 0.088751
v 0.001807 0.305193 0.087715
v 0.006104 0.305694 0.088751
v 0.009249 0.307063 0.091583
v 0.010401 0.308933 0.095452
v 0.009422 0.308334 0.100625
v 0.006203 0.309734 0.103522
v 0.001807 0.310247 0.104583
v -0.002590 0.309734 0.103522
v -0.005808 0.308334 0.100625
v -0.006986 0.306420 0.096667
v -0.005808 0.304507 0.092709
v -0.002590 0.303106 0.089811
v 0.001807 0.302593 0.088751
v 0.006203 0.303106 0.089811
v 0.009422 0.304507 0.092709
v 0.010600 0.306420 0.096667
v 0.001807 0.306420 0.096667
vn -0.0000 -0.9003 0.4352
vn -0.0000 -0.9003 0.4353
vn -0.0001 -0.9003 0.4352
vn 0.0001 -0.9003 0.4352
vt -30.044550 0.545007
vt -30.034781 0.526206
vt -30.027624 0.534152
vt -30.025009 0.545007
vt -30.027624 0.555861
vt -30.034781 0.563807
vt -30.044550 0.566716
vt -30.054327 0.563807
vt -30.061478 0.555861
vt -30.064098 0.545007
vt -30.061478 0.534152
vt -30.054327 0.526206
vt -30.044550 0.523297
s 1
usemtl M_Sink_18_2
f 641/1/1 629/2/1 630/3/1 631/4/1
f 641/1/1 631/4/1 632/5/1 633/6/1
f 641/1/1 633/6/1 634/7/2 635/8/1
f 641/1/1 635/8/1 636/9/3 637/10/1
f 641/1/1 637/10/1 638/11/4 639/12/1
f 641/1/1 639/12/1 640/13/2 629/2/1
