# Blender 4.1.1
# www.blender.org
mtllib CabinetdoormeshDeskDoor_310_2_3.mtl
o DeskDoor_310_2
v 0.112901 -0.062501 0.395836
v 0.468207 -0.062501 0.395836
v 0.468207 -0.062501 0.749975
v 0.112901 -0.062501 0.749975
v 0.468998 -0.061342 0.392604
v 0.471006 -0.061342 0.394923
v 0.112110 -0.061342 0.392604
v 0.478011 -0.052328 0.382196
v 0.103097 -0.052328 0.382196
v 0.110102 -0.061342 0.394923
v 0.101089 -0.052328 0.384515
v 0.480019 -0.052328 0.384515
v 0.471006 -0.061342 0.750888
v 0.110102 -0.061342 0.750888
v 0.101089 -0.052328 0.761297
v 0.103097 -0.052328 0.763615
v 0.112110 -0.061342 0.753207
v 0.468998 -0.061342 0.753207
v 0.480019 -0.052328 0.761297
v 0.478011 -0.052328 0.763615
v 0.101089 -0.045138 0.761297
v 0.101687 -0.044539 0.760605
v 0.101687 -0.044539 0.385206
v 0.101089 -0.045138 0.384515
v 0.103696 -0.044539 0.762924
v 0.104486 -0.043380 0.759692
v 0.103097 -0.045138 0.763615
v 0.477412 -0.044539 0.762924
v 0.476621 -0.043380 0.759692
v 0.479420 -0.044539 0.760605
v 0.478011 -0.045138 0.763615
v 0.480019 -0.045138 0.761296
v 0.479420 -0.044539 0.385206
v 0.476621 -0.043380 0.386119
v 0.101568 -0.049529 0.764954
v 0.099929 -0.049529 0.763061
v 0.479539 -0.049529 0.764954
v 0.101568 -0.047937 0.764954
v 0.479539 -0.047937 0.764954
v 0.481178 -0.049529 0.763061
v 0.099929 -0.047937 0.763061
v 0.481178 -0.049529 0.382750
v 0.481178 -0.047937 0.763061
v 0.481178 -0.047937 0.382750
v 0.479539 -0.047937 0.380857
v 0.479539 -0.049529 0.380857
v 0.101568 -0.049529 0.380857
v 0.101568 -0.047937 0.380857
v 0.478011 -0.045138 0.382196
v 0.103097 -0.045138 0.382196
v 0.099929 -0.047937 0.382750
v 0.099929 -0.049529 0.382750
v 0.103696 -0.044539 0.382887
v 0.477412 -0.044539 0.382887
v 0.104486 -0.043380 0.386119
v 0.480019 -0.045138 0.384515
vn -0.0058 0.9998 0.0171
vn 0.0058 0.9998 -0.0171
vn 0.0064 0.9998 0.0176
vn -0.0064 0.9998 -0.0176
vn -0.0059 0.7609 0.6488
vn 0.0064 0.7605 0.6493
vn 0.0031 0.9991 0.0415
vn -0.5383 0.6861 0.4893
vn 0.1253 0.8716 0.4739
vn -0.5254 0.8383 -0.1456
vn -0.0058 0.7609 0.6488
vn -0.0094 0.9993 0.0354
vn -0.0093 0.7152 0.6989
vn 0.0031 0.7109 0.7033
vn 0.0141 0.8119 0.5837
vn -0.0971 0.7394 0.6662
vn -0.6903 0.7150 -0.1104
vn -0.7345 0.6777 0.0354
vn 0.0141 0.8119 0.5836
vn -0.0140 0.8055 0.5925
vn -0.1333 0.8767 0.4622
vn 0.5388 0.6862 0.4888
vn 0.5189 0.8415 -0.1505
vn -0.0413 0.7663 0.6411
vn 0.7294 0.6834 0.0317
vn 0.6935 0.7135 -0.0998
vn -0.0412 0.7664 0.6411
vn 0.0912 0.7489 0.6564
vn 0.7294 0.6833 0.0316
vn -0.0971 0.7393 0.6664
vn 0.0597 0.7703 0.6349
vn -0.6904 0.7150 -0.1102
vn -0.7025 0.7115 0.0176
vn -0.0655 0.9978 -0.0066
vn -0.0753 0.9970 0.0179
vn -0.7026 0.7114 0.0176
vn -0.7030 0.7110 -0.0171
vn -0.0657 0.9978 -0.0067
vn 0.7581 0.6518 -0.0179
vn 0.6573 0.7532 0.0246
vn 0.6423 0.7661 -0.0232
vn 0.7582 0.6518 -0.0180
vn 0.7518 0.6593 0.0066
vn 0.6574 0.7532 0.0246
vn 0.0969 0.7392 -0.6665
vn -0.0598 0.7702 -0.6350
vn 0.6903 0.7151 0.1101
vn 0.0971 0.7394 -0.6662
vn 0.6903 0.7150 0.1104
vn 0.7345 0.6777 -0.0354
vn -0.1253 0.8716 -0.4740
vn 0.5254 0.8383 0.1454
vn 0.5383 0.6861 -0.4894
vn 0.7027 0.7113 -0.0176
vn 0.0657 0.9978 0.0066
vn 0.0756 0.9970 -0.0180
vn 0.0058 0.7610 -0.6488
vn -0.0063 0.7606 -0.6492
vn -0.0031 0.9991 -0.0414
vn 0.0058 0.7609 -0.6488
vn -0.0031 0.9991 -0.0415
vn 0.0093 0.9993 -0.0354
vn 0.1332 0.8767 -0.4622
vn -0.5388 0.6862 -0.4887
vn -0.5189 0.8415 0.1505
vn 0.0412 0.7664 -0.6410
vn -0.0912 0.7489 -0.6564
vn -0.7294 0.6834 -0.0316
vn 0.0413 0.7663 -0.6411
vn -0.7293 0.6834 -0.0318
vn -0.6935 0.7135 0.0998
vn 0.7030 0.7110 0.0171
vn 0.4694 -0.8827 -0.0232
vn 0.8882 -0.4590 0.0202
vn 0.8833 -0.4683 -0.0238
vn 0.4701 -0.8823 -0.0232
vn 0.4533 -0.8913 0.0052
vn 0.8886 -0.4583 0.0202
vn -0.2570 -0.7834 -0.5659
vn 0.3011 -0.6569 -0.6912
vn 0.7533 -0.6080 -0.2508
vn 0.0915 -0.8553 -0.5101
vn 0.5384 -0.6862 -0.4891
vn 0.5542 -0.8287 -0.0788
vn -0.2569 -0.7838 -0.5654
vn 0.7533 -0.6083 -0.2501
vn 0.6149 -0.7211 0.3193
vn -0.0057 -0.7609 -0.6488
vn 0.0101 -0.9627 -0.2704
vn -0.0077 -0.9643 -0.2647
vn -0.0057 -0.7613 -0.6483
vn 0.0062 -0.7610 -0.6487
vn 0.0101 -0.9629 -0.2698
vn -0.5379 -0.6865 -0.4892
vn -0.1024 -0.8556 -0.5075
vn -0.5528 -0.8290 -0.0846
vn -0.3116 -0.6544 -0.6890
vn -0.6042 -0.7274 0.3253
vn -0.7518 -0.6072 -0.2571
vn -0.3116 -0.6547 -0.6887
vn 0.2691 -0.7941 -0.5450
vn -0.6041 -0.7273 0.3257
vn -0.7023 -0.7116 -0.0178
vn -0.2919 -0.9561 0.0238
vn -0.3020 -0.9531 -0.0202
vn -0.7023 -0.7117 -0.0178
vn -0.7027 -0.7113 0.0173
vn -0.2919 -0.9562 0.0238
vn -0.0141 0.8119 -0.5837
vn 0.0093 0.7151 -0.6989
vn -0.0031 0.7109 -0.7033
vn -0.0141 0.8119 -0.5836
vn 0.0140 0.8055 -0.5925
vn 0.0093 0.7152 -0.6989
vn -0.0275 0.5776 -0.8159
vn 0.0140 0.1148 -0.9933
vn -0.0141 0.1257 -0.9920
vn 0.2539 0.3373 -0.9065
vn 0.8125 0.5338 0.2343
vn 0.9618 0.2435 -0.1248
vn 0.2539 0.3370 -0.9066
vn -0.0680 0.5969 -0.7994
vn 0.8127 0.5337 0.2340
vn -0.0275 0.5773 -0.8161
vn 0.0271 0.5713 -0.8203
vn 0.0140 0.1145 -0.9933
vn -0.0271 0.2799 -0.9596
vn 0.0271 -0.2799 -0.9596
vn -0.0275 -0.2729 -0.9617
vn 0.0275 0.2729 -0.9617
vn -0.8165 0.5299 0.2292
vn -0.2673 0.3224 -0.9081
vn -0.9626 0.2360 -0.1328
vn -0.8165 0.5299 0.2291
vn 0.0666 0.5959 -0.8003
vn -0.2671 0.3223 -0.9081
vn 0.0275 -0.5775 -0.8159
vn -0.0271 -0.5715 -0.8202
vn -0.0049 -0.3414 -0.9399
vn 0.0992 -0.4753 -0.8742
vn 0.9254 -0.3757 0.0500
vn 0.8165 -0.5300 0.2291
vn 0.0995 -0.4753 -0.8742
vn 0.8165 -0.5298 0.2293
vn -0.0664 -0.5959 -0.8003
vn 0.0275 -0.5774 -0.8160
vn -0.0049 -0.3413 -0.9400
vn 0.0141 -0.3517 -0.9360
vn -0.0077 -0.5341 -0.8454
vn 0.0141 -0.9246 -0.3806
vn -0.0049 -0.9204 -0.3909
vn -0.0077 -0.5338 -0.8456
vn 0.0101 -0.5287 -0.8488
vn 0.0141 -0.9245 -0.3809
vn -0.6574 0.7531 -0.0246
vn -0.7582 0.6517 0.0179
vn -0.7519 0.6592 -0.0067
vn -0.6574 0.7531 -0.0245
vn -0.6424 0.7660 0.0232
vn -0.7582 0.6518 0.0179
vn -0.8691 0.4941 -0.0233
vn -0.9958 0.0881 0.0232
vn -0.9974 0.0683 -0.0246
vn -0.8694 0.4935 -0.0233
vn -0.8684 0.4954 0.0232
vn -0.9959 0.0875 0.0232
vn -0.9644 0.2635 -0.0232
vn -0.9644 -0.2635 0.0232
vn -0.9638 -0.2656 -0.0233
vn -0.9638 0.2656 0.0233
vn -0.9536 -0.2800 0.1108
vn -0.1152 0.2636 -0.9577
vn -0.1150 -0.2656 -0.9572
vn -0.9536 -0.2801 0.1105
vn -0.9557 0.2729 0.1104
vn -0.1149 0.2636 -0.9578
vn -0.0969 -0.4984 -0.8615
vn 0.0680 -0.5971 -0.7993
vn -0.8125 -0.5337 0.2345
vn -0.0966 -0.4982 -0.8617
vn -0.8126 -0.5338 0.2340
vn -0.9199 -0.3887 0.0524
vn 0.0271 0.2799 0.9596
vn -0.0271 -0.2799 0.9596
vn 0.0275 -0.2729 0.9617
vn -0.0275 0.2729 0.9617
vn 0.0275 0.5772 0.8161
vn -0.0271 0.5712 0.8204
vn -0.0140 0.1144 0.9933
vn 0.0275 0.5775 0.8159
vn -0.0140 0.1147 0.9933
vn 0.0141 0.1256 0.9920
vn -0.0275 -0.5774 0.8160
vn 0.0271 -0.5713 0.8203
vn 0.0049 -0.3413 0.9399
vn -0.0275 -0.5773 0.8160
vn 0.0049 -0.3412 0.9400
vn -0.0141 -0.3516 0.9360
vn 0.0965 -0.4983 0.8616
vn 0.8125 -0.5338 -0.2342
vn 0.9198 -0.3889 -0.0524
vn 0.0967 -0.4982 0.8616
vn -0.0681 -0.5970 0.7993
vn 0.8126 -0.5336 -0.2342
vn 0.9536 -0.2800 -0.1105
vn 0.9557 0.2729 -0.1103
vn 0.1149 0.2636 0.9578
vn 0.9536 -0.2800 -0.1107
vn 0.1152 0.2636 0.9577
vn 0.1149 -0.2656 0.9572
vn -0.1154 -0.2636 0.9577
vn -0.9536 0.2800 -0.1109
vn -0.9557 -0.2729 -0.1108
vn -0.1148 -0.2636 0.9578
vn -0.1146 0.2656 0.9572
vn -0.9536 0.2801 -0.1103
vn 0.9644 0.2635 0.0232
vn 0.9644 -0.2635 -0.0232
vn 0.9638 -0.2656 0.0233
vn 0.9638 0.2656 -0.0233
vn 0.8693 0.4938 0.0233
vn 0.8682 0.4957 -0.0232
vn 0.9959 0.0878 -0.0232
vn 0.8691 0.4940 0.0233
vn 0.9958 0.0881 -0.0232
vn 0.9974 0.0683 0.0246
vn 0.2671 0.3224 0.9082
vn 0.8165 0.5299 -0.2291
vn -0.0666 0.5958 0.8003
vn 0.2672 0.3223 0.9081
vn 0.9626 0.2361 0.1329
vn 0.8165 0.5299 -0.2292
vn -0.0141 -0.9245 0.3810
vn 0.0077 -0.5338 0.8456
vn -0.0101 -0.5286 0.8488
vn -0.0141 -0.9248 0.3802
vn 0.0049 -0.9206 0.3905
vn 0.0077 -0.5345 0.8452
vn 0.3112 -0.6552 0.6884
vn 0.6037 -0.7275 -0.3261
vn 0.7513 -0.6079 0.2567
vn 0.1022 -0.8554 0.5079
vn 0.5526 -0.8291 0.0850
vn 0.5378 -0.6863 0.4896
vn 0.3120 -0.6541 0.6891
vn -0.2686 -0.7939 0.5454
vn 0.6045 -0.7272 -0.3253
vn 0.2570 -0.7838 0.5653
vn -0.7532 -0.6085 0.2500
vn -0.6148 -0.7211 -0.3194
vn 0.2571 -0.7835 0.5657
vn -0.3010 -0.6571 0.6911
vn -0.7532 -0.6082 0.2506
vn -0.0916 -0.8554 0.5098
vn -0.5385 -0.6864 0.4888
vn -0.5542 -0.8287 0.0784
vn 0.0057 -0.7611 0.6486
vn -0.0101 -0.9628 0.2702
vn 0.0077 -0.9644 0.2644
vn 0.0056 -0.7613 0.6484
vn -0.0062 -0.7609 0.6488
vn -0.0101 -0.9628 0.2700
vn -0.0062 -0.9998 0.0178
vn 0.0057 -0.9998 0.0173
vn 0.0063 -0.9998 -0.0178
vn -0.0057 -0.9998 -0.0172
vn 0.7023 -0.7116 0.0178
vn 0.2919 -0.9561 -0.0238
vn 0.3020 -0.9531 0.0202
vn 0.7022 -0.7118 0.0178
vn 0.7026 -0.7114 -0.0173
vn 0.2918 -0.9562 -0.0238
vn -0.8879 -0.4596 -0.0202
vn -0.4688 -0.8830 0.0233
vn -0.4520 -0.8920 -0.0052
vn -0.8879 -0.4595 -0.0201
vn -0.8830 -0.4688 0.0237
vn -0.4689 -0.8829 0.0233
vn -0.2542 0.3372 0.9065
vn -0.8126 0.5335 -0.2345
vn -0.9619 0.2433 0.1246
vn -0.2539 0.3373 0.9065
vn 0.0682 0.5971 0.7993
vn -0.8125 0.5338 -0.2343
vn -0.8166 -0.5298 -0.2290
vn -0.0994 -0.4750 0.8743
vn -0.9255 -0.3754 -0.0500
vn -0.8164 -0.5299 -0.2295
vn 0.0666 -0.5961 0.8002
vn -0.0995 -0.4756 0.8740
vn -0.8691 -0.4940 0.0233
vn -0.9500 -0.3122 -0.0052
vn -0.9555 -0.2940 0.0233
vn -0.8694 -0.4935 0.0233
vn -0.8684 -0.4954 -0.0232
vn -0.9502 -0.3116 -0.0052
vn 0.8691 -0.4940 -0.0233
vn 0.9500 -0.3122 0.0052
vn 0.9555 -0.2940 -0.0233
vn 0.8692 -0.4938 -0.0233
vn 0.8682 -0.4957 0.0232
vn 0.9501 -0.3120 0.0052
vn 0.9536 0.2800 0.1103
vn 0.1148 -0.2636 -0.9578
vn 0.1146 0.2656 -0.9572
vn 0.9536 0.2800 0.1109
vn 0.9556 -0.2729 0.1108
vn 0.1155 -0.2636 -0.9577
vt 1.359092 0.307236
vt 1.545506 0.091271
vt 1.359092 0.091271
vt 1.545506 0.307236
vt 1.357390 0.090790
vt 1.358611 0.089569
vt 1.357390 0.307717
vt 1.351912 0.085311
vt 1.351912 0.313195
vt 1.358611 0.308938
vt 1.353132 0.314416
vt 1.353132 0.084090
vt 1.545987 0.089569
vt -0.447221 0.308938
vt -0.640075 0.314416
vt -0.441742 0.314416
vt -0.634597 0.308938
vt -0.440522 0.313196
vt -0.446000 0.307717
vt -0.447702 0.307236
vt -0.447702 0.091271
vt -0.446000 0.090790
vt -0.447221 0.089569
vt -0.441742 0.084090
vt -0.440522 0.085311
vt -0.634116 0.307236
vt -0.639711 0.314052
vt -0.442106 0.314052
vt -0.440886 0.312832
vt -0.442587 0.312351
vt -0.440886 0.085675
vt -0.442587 0.086156
vt -0.442106 0.084454
vt -0.441742 0.084090
vt -0.639711 0.084454
vt -0.639231 0.086156
vt 0.519290 -0.188305
vt 0.741696 -0.182826
vt 0.524769 -0.182826
vt 0.747175 -0.188305
vt 0.518362 -0.190006
vt 0.518070 -0.188305
vt 0.517365 -0.190006
vt 0.748104 -0.190006
vt 0.518362 -0.190974
vt 0.748104 -0.190974
vt 0.748396 -0.188305
vt 0.749100 -0.190006
vt 0.519290 -0.192676
vt 0.518070 -0.192676
vt 0.517365 -0.190974
vt 0.747175 -0.192676
vt 0.519654 -0.193039
vt 0.746811 -0.193039
vt -0.441742 -0.188305
vt -0.634597 -0.182826
vt -0.447221 -0.182826
vt -0.640075 -0.188305
vt -0.440814 -0.190006
vt -0.641004 -0.190006
vt -0.440814 -0.190974
vt -0.641004 -0.190974
vt -0.439817 -0.190006
vt -0.439817 -0.190974
vt -0.441743 -0.192676
vt -0.440522 -0.192676
vt 0.747175 -0.188305
vt 0.749100 -0.190974
vt 1.352203 -0.190974
vt 1.552394 -0.190007
vt 1.352203 -0.190006
vt 1.552394 -0.190974
vt 1.551466 -0.188305
vt 1.353132 -0.188305
vt 1.351207 -0.190007
vt 1.351912 -0.188305
vt 1.352275 0.085675
vt 1.352275 0.312832
vt 1.353496 0.314052
vt 1.353977 0.312351
vt 1.353496 0.084454
vt 1.353977 0.086156
vt 1.550621 0.086156
vt 1.550621 0.312351
vt 1.551101 0.314052
vt -0.442106 -0.193039
vt -0.640075 -0.192676
vt -0.639711 -0.193039
vt 1.351207 -0.190974
vt 1.353132 -0.192676
vt 1.351912 -0.192676
vt 1.551465 -0.192676
vt -0.441742 -0.192676
s 1
usemtl M_DeskDoor_310_2_0
f 1/1/1 3/2/2 2/3/3
f 1/1/1 4/4/4 3/2/2
f 1/1/5 2/3/6 5/5/7
f 2/3/8 6/6/9 5/5/10
f 1/1/11 5/5/7 7/7/12
f 7/7/13 5/5/14 8/8/15
f 6/6/16 8/8/17 5/5/18
f 7/7/13 8/8/19 9/9/20
f 10/10/21 1/1/22 7/7/23
f 11/11/24 7/7/25 9/9/26
f 11/11/27 10/10/28 7/7/29
f 6/6/30 12/12/31 8/8/32
f 2/3/33 13/13/34 6/6/35
f 2/3/36 3/2/37 13/13/38
f 14/14/39 11/15/40 15/16/41
f 14/14/42 10/17/43 11/15/44
f 14/14/45 15/16/46 16/18/47
f 14/14/48 16/18/49 17/19/50
f 14/14/51 17/19/52 4/20/53
f 4/20/54 10/17/55 14/14/56
f 3/21/57 4/20/58 17/19/59
f 3/21/60 17/19/61 18/22/62
f 13/23/63 3/21/64 18/22/65
f 19/24/66 13/23/67 18/22/68
f 19/24/69 18/22/70 20/25/71
f 4/20/54 1/26/72 10/17/55
f 21/16/73 23/27/74 22/28/75
f 21/16/76 24/15/77 23/27/78
f 21/16/79 22/28/80 25/29/81
f 22/28/82 26/30/83 25/29/84
f 21/16/85 25/29/86 27/18/87
f 26/30/88 28/31/89 25/29/90
f 26/30/91 29/32/92 28/31/93
f 29/32/94 30/33/95 28/31/96
f 30/33/97 31/25/98 28/31/99
f 30/33/100 32/34/101 31/25/102
f 29/32/103 33/35/104 30/33/105
f 29/32/106 34/36/107 33/35/108
f 16/37/109 18/38/110 17/39/111
f 16/37/112 20/40/113 18/38/114
f 35/41/115 20/40/116 16/37/117
f 15/42/118 35/41/119 16/37/120
f 15/42/121 36/43/122 35/41/123
f 35/41/124 37/44/125 20/40/126
f 38/45/127 37/44/128 35/41/129
f 38/45/127 39/46/130 37/44/128
f 37/44/131 19/47/132 20/40/133
f 37/44/134 40/48/135 19/47/136
f 39/46/137 38/45/138 27/49/139
f 21/50/140 27/49/141 38/45/142
f 21/50/143 38/45/144 41/51/145
f 39/46/146 27/49/147 31/52/148
f 25/53/149 31/52/150 27/49/151
f 25/53/152 28/54/153 31/52/154
f 19/55/155 6/56/156 13/57/157
f 19/55/158 12/58/159 6/56/160
f 40/59/161 12/58/162 19/55/163
f 40/59/164 42/60/165 12/58/166
f 43/61/167 42/60/168 40/59/169
f 43/61/167 44/62/170 42/60/168
f 37/63/171 43/61/172 40/59/173
f 37/63/174 39/64/175 43/61/176
f 32/65/177 43/61/178 39/64/179
f 32/65/180 39/64/181 31/66/182
f 45/46/183 47/41/184 46/44/185
f 45/46/183 48/45/186 47/41/184
f 46/44/187 47/41/188 9/37/189
f 46/44/190 9/37/191 8/67/192
f 48/45/193 45/46/194 49/52/195
f 48/45/196 49/52/197 50/49/198
f 24/50/199 48/45/200 50/49/201
f 24/50/202 51/51/203 48/45/204
f 47/41/205 48/45/206 51/51/207
f 47/41/208 51/51/209 52/43/210
f 42/48/211 45/46/212 46/44/213
f 42/48/214 44/68/215 45/46/216
f 51/69/217 36/70/218 52/71/219
f 51/69/217 41/72/220 36/70/218
f 52/71/221 36/70/222 15/73/223
f 52/71/224 15/73/225 11/74/226
f 11/74/227 47/75/228 52/71/229
f 11/74/230 9/76/231 47/75/232
f 50/9/233 54/77/234 53/78/235
f 50/9/236 49/8/237 54/77/238
f 23/79/239 50/9/240 53/78/241
f 23/79/242 53/78/243 55/80/244
f 23/79/245 24/11/246 50/9/247
f 56/12/248 54/77/249 49/8/250
f 56/12/251 33/81/252 54/77/253
f 33/81/254 34/82/255 54/77/256
f 34/82/257 53/78/258 54/77/259
f 34/82/260 55/80/261 53/78/262
f 55/80/263 34/82/264 29/83/265
f 55/80/263 29/83/265 26/84/266
f 55/80/267 22/85/268 23/79/269
f 55/80/270 26/84/271 22/85/272
f 30/86/273 56/87/274 32/65/275
f 30/86/276 33/88/277 56/87/278
f 12/74/279 46/75/280 8/76/281
f 12/74/282 42/71/283 46/75/284
f 45/89/285 56/90/286 49/91/287
f 45/89/288 44/69/289 56/90/290
f 44/69/291 32/92/292 56/90/293
f 44/69/294 43/72/295 32/92/296
f 41/61/297 24/87/298 21/93/299
f 41/61/300 51/62/301 24/87/302
f 38/64/303 36/59/304 41/61/305
f 38/64/306 35/63/307 36/59/308
