# Blender 4.1.1
# www.blender.org
mtllib CabinetdoormeshDeskDoor_310_4_5.mtl
o DeskDoor_310_4
v -0.939475 -0.062501 0.395836
v -0.600393 -0.062501 0.395836
v -0.600393 -0.062501 0.749975
v -0.939475 -0.062501 0.749975
v -0.599603 -0.061342 0.392604
v -0.597594 -0.061342 0.394923
v -0.940266 -0.061342 0.392604
v -0.590588 -0.052328 0.382196
v -0.949280 -0.052328 0.382196
v -0.942274 -0.061342 0.394923
v -0.951288 -0.052328 0.384515
v -0.588581 -0.052328 0.384515
v -0.597594 -0.061342 0.750888
v -0.949280 -0.052328 0.763615
v -0.940266 -0.061342 0.753207
v -0.599603 -0.061342 0.753207
v -0.590588 -0.052328 0.763615
v -0.950807 -0.049529 0.764954
v -0.952447 -0.049529 0.763061
v -0.951288 -0.052328 0.761297
v -0.589061 -0.049529 0.764954
v -0.950807 -0.047937 0.764954
v -0.589061 -0.047937 0.764954
v -0.588581 -0.052328 0.761296
v -0.587421 -0.049529 0.763061
v -0.949280 -0.045138 0.763615
v -0.952447 -0.047937 0.763061
v -0.951288 -0.045138 0.761297
v -0.590588 -0.045138 0.763615
v -0.948682 -0.044539 0.762924
v -0.591187 -0.044539 0.762924
v -0.587421 -0.049529 0.382750
v -0.587421 -0.047937 0.763061
v -0.587421 -0.047937 0.382750
v -0.588581 -0.045138 0.761296
v -0.942274 -0.061342 0.750888
v -0.952447 -0.047937 0.382750
v -0.952447 -0.049529 0.382750
v -0.589061 -0.047937 0.380857
v -0.589061 -0.049529 0.380857
v -0.950807 -0.049529 0.380857
v -0.950807 -0.047937 0.380857
v -0.590588 -0.045138 0.382196
v -0.949280 -0.045138 0.382196
v -0.950689 -0.044539 0.760605
v -0.950689 -0.044539 0.385206
v -0.951288 -0.045138 0.384515
v -0.947890 -0.043380 0.759692
v -0.591978 -0.043380 0.759692
v -0.589179 -0.044539 0.760605
v -0.589179 -0.044539 0.385206
v -0.591978 -0.043380 0.386119
v -0.947890 -0.043380 0.386119
v -0.948682 -0.044539 0.382887
v -0.591187 -0.044539 0.382887
v -0.588581 -0.045138 0.384515
vn -0.0060 0.9998 0.0171
vn 0.0060 0.9998 -0.0171
vn 0.0065 0.9998 0.0176
vn -0.0066 0.9998 -0.0177
vn -0.0060 0.7611 0.6486
vn 0.0065 0.7607 0.6490
vn 0.0033 0.9991 0.0412
vn -0.5380 0.6865 0.4891
vn 0.1255 0.8717 0.4737
vn -0.5251 0.8385 -0.1457
vn -0.0060 0.7608 0.6490
vn 0.0033 0.9991 0.0417
vn -0.0095 0.9993 0.0357
vn -0.0095 0.7152 0.6989
vn 0.0033 0.7110 0.7032
vn 0.0143 0.8119 0.5836
vn -0.0969 0.7392 0.6664
vn -0.6902 0.7152 -0.1099
vn -0.7344 0.6777 0.0357
vn -0.0095 0.7151 0.6989
vn 0.0143 0.8118 0.5837
vn -0.0142 0.8054 0.5925
vn 0.5387 0.6864 0.4886
vn 0.5188 0.8415 -0.1507
vn -0.1333 0.8767 0.4621
vn 0.7294 0.6833 0.0316
vn -0.0410 0.7664 0.6410
vn 0.0913 0.7489 0.6564
vn 0.7292 0.6836 0.0319
vn 0.6934 0.7137 -0.0996
vn -0.0415 0.7663 0.6412
vn -0.0970 0.7392 0.6664
vn 0.0597 0.7702 0.6349
vn -0.6903 0.7151 -0.1101
vn -0.7025 0.7115 0.0176
vn -0.0657 0.9978 -0.0066
vn -0.0755 0.9970 0.0179
vn -0.7024 0.7116 0.0176
vn -0.7028 0.7112 -0.0171
vn -0.0655 0.9978 -0.0067
vn -0.0143 0.8118 -0.5837
vn 0.0095 0.7152 -0.6989
vn -0.0033 0.7109 -0.7033
vn -0.0143 0.8119 -0.5837
vn 0.0142 0.8055 -0.5925
vn -0.0277 0.5774 -0.8160
vn 0.0141 0.1147 -0.9933
vn -0.0143 0.1255 -0.9920
vn 0.9617 0.2438 -0.1250
vn -0.0683 0.5971 -0.7992
vn 0.8125 0.5339 0.2342
vn 0.9619 0.2433 -0.1251
vn 0.2540 0.3369 -0.9067
vn -0.0681 0.5968 -0.7995
vn -0.0277 0.5772 -0.8162
vn 0.0273 0.5712 -0.8204
vn 0.0142 0.1144 -0.9933
vn -0.0273 0.2800 -0.9596
vn 0.0273 -0.2800 -0.9596
vn -0.0277 -0.2729 -0.9616
vn 0.0277 0.2729 -0.9616
vn -0.8168 0.5296 0.2287
vn -0.2675 0.3219 -0.9082
vn -0.9628 0.2355 -0.1329
vn -0.8164 0.5301 0.2292
vn 0.0667 0.5961 -0.8001
vn -0.2671 0.3227 -0.9080
vn 0.0277 -0.5775 -0.8159
vn -0.0273 -0.5715 -0.8202
vn -0.0051 -0.3414 -0.9399
vn 0.9253 -0.3760 0.0502
vn 0.8163 -0.5300 0.2297
vn -0.0664 -0.5963 -0.8000
vn 0.9255 -0.3756 0.0491
vn -0.0668 -0.5955 -0.8006
vn 0.0989 -0.4748 -0.8745
vn 0.0277 -0.5771 -0.8162
vn -0.0051 -0.3410 -0.9401
vn 0.0143 -0.3514 -0.9361
vn -0.0078 -0.5346 -0.8450
vn 0.0143 -0.9249 -0.3801
vn -0.0051 -0.9207 -0.3903
vn -0.0078 -0.5333 -0.8459
vn 0.0101 -0.5282 -0.8491
vn 0.0143 -0.9243 -0.3815
vn -0.6575 0.7531 -0.0245
vn -0.7583 0.6517 0.0179
vn -0.7519 0.6592 -0.0067
vn -0.6573 0.7532 -0.0246
vn -0.6423 0.7661 0.0232
vn -0.7582 0.6518 0.0179
vn -0.8691 0.4940 -0.0232
vn -0.9958 0.0881 0.0232
vn -0.9974 0.0683 -0.0246
vn -0.8694 0.4936 -0.0233
vn -0.8683 0.4955 0.0232
vn -0.9959 0.0876 0.0232
vn -0.9644 0.2635 -0.0232
vn -0.9644 -0.2635 0.0232
vn -0.9638 -0.2656 -0.0233
vn -0.9644 0.2635 -0.0231
vn -0.9638 0.2656 0.0233
vn -0.1153 0.2636 -0.9577
vn -0.1151 -0.2656 -0.9572
vn -0.9536 -0.2801 0.1106
vn -0.1150 0.2636 -0.9578
vn -0.9536 -0.2801 0.1103
vn -0.9557 0.2729 0.1102
vn -0.0969 -0.4986 -0.8614
vn 0.0682 -0.5973 -0.7991
vn -0.8124 -0.5339 0.2345
vn -0.0969 -0.4980 -0.8617
vn -0.8127 -0.5336 0.2339
vn -0.9200 -0.3885 0.0523
vn 0.7582 0.6518 -0.0180
vn 0.6573 0.7532 0.0246
vn 0.6424 0.7660 -0.0232
vn 0.7582 0.6518 -0.0179
vn 0.7518 0.6593 0.0067
vn 0.6902 0.7153 0.1100
vn 0.0968 0.7392 -0.6665
vn -0.0598 0.7702 -0.6350
vn 0.6902 0.7152 0.1104
vn 0.7344 0.6778 -0.0354
vn 0.0971 0.7395 -0.6662
vn 0.5252 0.8384 0.1456
vn 0.5381 0.6864 -0.4892
vn -0.1253 0.8716 -0.4738
vn 0.7022 0.7117 -0.0176
vn 0.0653 0.9978 0.0066
vn 0.0751 0.9970 -0.0179
vn 0.7026 0.7113 -0.0176
vn 0.7030 0.7110 0.0171
vn 0.0659 0.9978 0.0067
vn 0.0060 0.7610 -0.6487
vn -0.0065 0.7606 -0.6491
vn -0.0033 0.9991 -0.0414
vn 0.0060 0.7608 -0.6490
vn -0.0033 0.9991 -0.0417
vn 0.0095 0.9993 -0.0357
vn 0.1335 0.8767 -0.4622
vn -0.5385 0.6865 -0.4887
vn -0.5186 0.8416 0.1506
vn 0.0411 0.7663 -0.6412
vn -0.0912 0.7487 -0.6566
vn -0.7294 0.6833 -0.0318
vn 0.0415 0.7664 -0.6410
vn -0.7292 0.6836 -0.0317
vn -0.6934 0.7136 0.0998
vn 0.9644 0.2635 0.0232
vn 0.9644 -0.2635 -0.0232
vn 0.9638 -0.2656 0.0233
vn 0.9638 0.2656 -0.0233
vn 0.8696 0.4932 0.0233
vn 0.8686 0.4950 -0.0232
vn 0.9959 0.0870 -0.0232
vn 0.8695 0.4934 0.0233
vn 0.9959 0.0873 -0.0232
vn 0.9974 0.0676 0.0246
vn 0.0273 0.2799 0.9596
vn -0.0273 -0.2800 0.9596
vn 0.0277 -0.2729 0.9616
vn -0.0277 0.2729 0.9616
vn 0.0277 0.5771 0.8162
vn -0.0273 0.5711 0.8204
vn -0.0141 0.1143 0.9933
vn 0.9625 0.2363 0.1333
vn 0.8165 0.5301 -0.2289
vn -0.0666 0.5958 0.8003
vn 0.9625 0.2362 0.1331
vn 0.2671 0.3224 0.9081
vn 0.0277 0.5773 0.8161
vn -0.0141 0.1146 0.9933
vn 0.0143 0.1254 0.9920
vn -0.0277 -0.5774 0.8160
vn 0.0273 -0.5714 0.8202
vn 0.0051 -0.3413 0.9400
vn -0.0277 -0.5771 0.8162
vn 0.0051 -0.3409 0.9401
vn -0.0143 -0.3512 0.9362
vn 0.9536 -0.2801 -0.1105
vn 0.1152 0.2636 0.9577
vn 0.1149 -0.2656 0.9572
vn 0.9536 -0.2801 -0.1102
vn 0.9557 0.2729 -0.1101
vn 0.1149 0.2636 0.9578
vn -0.1154 -0.2636 0.9577
vn -0.9536 0.2800 -0.1107
vn -0.9557 -0.2729 -0.1106
vn -0.1147 -0.2636 0.9578
vn -0.1145 0.2656 0.9572
vn -0.9537 0.2800 -0.1100
vn 0.4677 -0.8836 -0.0232
vn 0.8874 -0.4606 0.0202
vn 0.8824 -0.4700 -0.0238
vn 0.4687 -0.8830 -0.0232
vn 0.4520 -0.8920 0.0052
vn 0.8879 -0.4596 0.0202
vn 0.7533 -0.6082 -0.2501
vn -0.2567 -0.7838 -0.5654
vn 0.3013 -0.6574 -0.6907
vn 0.5541 -0.8287 -0.0788
vn 0.0915 -0.8553 -0.5100
vn 0.5384 -0.6863 -0.4890
vn 0.7533 -0.6080 -0.2509
vn 0.6151 -0.7213 0.3183
vn -0.2569 -0.7834 -0.5659
vn -0.0058 -0.7611 -0.6486
vn 0.0101 -0.9627 -0.2703
vn -0.0078 -0.9643 -0.2646
vn -0.0058 -0.7615 -0.6481
vn 0.0064 -0.7612 -0.6485
vn 0.0101 -0.9629 -0.2697
vn -0.5376 -0.6866 -0.4894
vn -0.1021 -0.8555 -0.5077
vn -0.5525 -0.8292 -0.0849
vn -0.3115 -0.6549 -0.6886
vn -0.6038 -0.7276 0.3257
vn -0.7516 -0.6076 -0.2569
vn -0.3122 -0.6554 -0.6878
vn 0.2687 -0.7946 -0.5445
vn -0.6039 -0.7269 0.3269
vn -0.7022 -0.7117 -0.0178
vn -0.2920 -0.9561 0.0238
vn -0.3020 -0.9531 -0.0202
vn -0.7020 -0.7119 -0.0177
vn -0.7025 -0.7115 0.0173
vn -0.2918 -0.9562 0.0238
vn -0.0064 -0.9998 0.0178
vn 0.0064 -0.9998 -0.0178
vn -0.0059 -0.9998 -0.0172
vn 0.0058 -0.9998 0.0173
vn 0.7022 -0.7118 0.0178
vn 0.7026 -0.7114 -0.0173
vn 0.2918 -0.9562 -0.0238
vn 0.7021 -0.7118 0.0178
vn 0.3018 -0.9532 0.0202
vn 0.5527 -0.8290 0.0851
vn 0.5379 -0.6862 0.4896
vn 0.1024 -0.8553 0.5079
vn 0.0058 -0.7615 0.6482
vn -0.0063 -0.7612 0.6485
vn -0.0102 -0.9629 0.2697
vn 0.6044 -0.7273 -0.3252
vn 0.7521 -0.6069 0.2571
vn 0.3120 -0.6542 0.6890
vn -0.0142 -0.9247 0.3805
vn 0.0078 -0.5343 0.8453
vn -0.0102 -0.5292 0.8484
vn 0.0058 -0.7608 0.6490
vn -0.0101 -0.9626 0.2707
vn 0.0078 -0.9642 0.2649
vn -0.0142 -0.9246 0.3806
vn 0.0051 -0.9205 0.3908
vn 0.0078 -0.5342 0.8453
vn -0.0916 -0.8554 0.5099
vn -0.5384 -0.6863 0.4889
vn -0.5541 -0.8287 0.0786
vn 0.6038 -0.7276 -0.3257
vn 0.3114 -0.6549 0.6886
vn -0.2693 -0.7941 0.5449
vn 0.2570 -0.7839 0.5653
vn -0.7531 -0.6085 0.2500
vn -0.6147 -0.7212 -0.3193
vn 0.2570 -0.7834 0.5659
vn -0.3011 -0.6569 0.6912
vn -0.7532 -0.6081 0.2508
vn -0.8875 -0.4603 -0.0202
vn -0.4682 -0.8833 0.0233
vn -0.4513 -0.8924 -0.0052
vn -0.8887 -0.4581 -0.0202
vn -0.8838 -0.4673 0.0238
vn -0.4704 -0.8822 0.0232
vn -0.2542 0.3369 0.9066
vn -0.8128 0.5335 -0.2340
vn -0.9620 0.2430 0.1248
vn -0.2538 0.3372 0.9066
vn 0.0683 0.5970 0.7993
vn -0.8126 0.5339 -0.2339
vn -0.0681 -0.5966 0.7996
vn 0.9200 -0.3885 -0.0518
vn 0.0965 -0.4977 0.8620
vn -0.0679 -0.5972 0.7992
vn 0.8125 -0.5338 -0.2345
vn 0.9198 -0.3887 -0.0525
vn -0.8167 -0.5298 -0.2286
vn -0.0994 -0.4748 0.8744
vn -0.9256 -0.3752 -0.0497
vn -0.8163 -0.5302 -0.2293
vn 0.0667 -0.5960 0.8002
vn -0.0993 -0.4756 0.8741
vn -0.8693 -0.4937 0.0233
vn -0.9501 -0.3118 -0.0052
vn -0.9556 -0.2936 0.0233
vn -0.8694 -0.4936 0.0233
vn -0.8683 -0.4954 -0.0231
vn -0.9502 -0.3117 -0.0052
vn 0.8693 -0.4938 -0.0233
vn 0.9501 -0.3118 0.0052
vn 0.9556 -0.2937 -0.0233
vn 0.8697 -0.4931 -0.0233
vn 0.8686 -0.4949 0.0232
vn 0.9504 -0.3111 0.0052
vn 0.1155 -0.2636 -0.9577
vn 0.9536 0.2801 0.1107
vn 0.9556 -0.2729 0.1106
vn 0.1148 -0.2636 -0.9578
vn 0.1146 0.2656 -0.9572
vn 0.9537 0.2800 0.1102
vt 1.359092 0.946903
vt 1.545506 0.740799
vt 1.359092 0.740799
vt 1.545506 0.946903
vt 1.357390 0.740318
vt 1.358611 0.739097
vt 1.357390 0.947384
vt 1.351912 0.734839
vt 1.351912 0.952863
vt 1.358611 0.948604
vt 1.353132 0.954083
vt 1.353132 0.733619
vt 1.545987 0.739097
vt -0.120377 -0.188305
vt 0.092168 -0.182826
vt -0.114898 -0.182826
vt 0.097647 -0.188305
vt -0.121306 -0.190006
vt -0.122302 -0.190006
vt -0.121597 -0.188305
vt 0.098575 -0.190006
vt -0.121305 -0.190974
vt 0.098575 -0.190974
vt 0.098867 -0.188305
vt 0.099572 -0.190006
vt -0.120377 -0.192676
vt -0.122302 -0.190974
vt -0.121597 -0.192676
vt 0.097647 -0.192676
vt -0.120013 -0.193039
vt 0.097283 -0.193039
vt -0.441742 -0.188305
vt -0.634597 -0.182826
vt -0.447221 -0.182826
vt -0.640075 -0.188305
vt -0.440814 -0.190006
vt -0.641004 -0.190006
vt -0.440814 -0.190974
vt -0.641004 -0.190974
vt -0.439817 -0.190006
vt -0.439817 -0.190974
vt -0.441743 -0.192676
vt -0.440522 -0.192676
vt -0.447221 0.948604
vt -0.640075 0.954083
vt -0.441742 0.954083
vt -0.634597 0.948604
vt -0.440522 0.952863
vt -0.446000 0.947384
vt -0.447702 0.946903
vt -0.634116 0.946903
vt -0.447702 0.740799
vt -0.446000 0.740318
vt -0.447221 0.739097
vt -0.441742 0.733619
vt -0.440522 0.734839
vt 1.352203 -0.190974
vt 1.552394 -0.190007
vt 1.352203 -0.190006
vt 1.552394 -0.190974
vt 1.551466 -0.188305
vt 1.353132 -0.188305
vt -0.120377 -0.188305
vt -0.121597 -0.188305
vt 0.097647 -0.188305
vt 0.099572 -0.190974
vt -0.639711 0.953719
vt -0.442106 0.953719
vt -0.440886 0.952499
vt -0.442587 0.952018
vt -0.440886 0.735203
vt -0.442587 0.735684
vt -0.442106 0.733982
vt -0.441742 0.733619
vt -0.639711 0.733982
vt -0.639231 0.735684
vt 1.353977 0.952018
vt 1.550621 0.735684
vt 1.550621 0.952018
vt 1.353977 0.735684
vt 1.551101 0.953719
vt 1.353496 0.953719
vt 1.352275 0.952499
vt 1.352275 0.735203
vt 1.353496 0.733982
vt -0.442106 -0.193039
vt -0.640075 -0.192676
vt -0.639711 -0.193039
vt 1.353132 -0.188305
vt 1.351207 -0.190007
vt 1.351912 -0.188305
vt 1.351912 -0.192676
vt 1.353132 -0.192675
vt 1.351207 -0.190974
vt 1.351207 -0.190974
vt 1.353132 -0.192676
vt 1.551465 -0.192676
vt 1.552394 -0.190974
vt -0.440814 -0.190974
vt -0.640075 -0.192675
vt -0.441742 -0.192676
vt -0.641004 -0.190974
vt -0.439817 -0.190974
s 1
usemtl M_DeskDoor_310_4_0
f 1/1/1 3/2/2 2/3/3
f 1/1/1 4/4/4 3/2/2
f 1/1/5 2/3/6 5/5/7
f 2/3/8 6/6/9 5/5/10
f 1/1/11 5/5/12 7/7/13
f 7/7/14 5/5/15 8/8/16
f 6/6/17 8/8/18 5/5/19
f 7/7/20 8/8/21 9/9/22
f 1/1/23 7/7/24 10/10/25
f 7/7/26 11/11/27 10/10/28
f 7/7/29 9/9/30 11/11/31
f 6/6/32 12/12/33 8/8/34
f 2/3/35 13/13/36 6/6/37
f 2/3/38 3/2/39 13/13/40
f 14/14/41 16/15/42 15/16/43
f 14/14/44 17/17/45 16/15/42
f 18/18/46 17/17/47 14/14/48
f 14/14/49 19/19/50 18/18/51
f 14/14/52 20/20/53 19/19/54
f 18/18/55 21/21/56 17/17/57
f 22/22/58 21/21/59 18/18/60
f 22/22/58 23/23/61 21/21/59
f 21/21/62 24/24/63 17/17/64
f 21/21/65 25/25/66 24/24/67
f 23/23/68 22/22/69 26/26/70
f 26/26/71 22/22/72 27/27/73
f 26/26/74 27/27/75 28/28/76
f 23/23/77 26/26/78 29/29/79
f 30/30/80 29/29/81 26/26/82
f 30/30/83 31/31/84 29/29/85
f 24/32/86 6/33/87 13/34/88
f 24/32/89 12/35/90 6/33/91
f 25/36/92 12/35/93 24/32/94
f 25/36/95 32/37/96 12/35/97
f 33/38/98 32/37/99 25/36/100
f 33/38/101 34/39/102 32/37/99
f 33/38/103 25/36/104 21/40/105
f 33/38/106 21/40/107 23/41/108
f 35/42/109 33/38/110 23/41/111
f 35/42/112 23/41/113 29/43/114
f 36/44/115 11/45/116 20/46/117
f 36/44/118 10/47/119 11/45/116
f 14/48/120 36/44/121 20/46/122
f 14/48/123 15/49/124 36/44/125
f 15/49/126 4/50/127 36/44/128
f 4/50/129 10/47/130 36/44/131
f 4/50/132 1/51/133 10/47/134
f 3/52/135 4/50/136 15/49/137
f 3/52/138 15/49/139 16/53/140
f 13/54/141 3/52/142 16/53/143
f 24/55/144 13/54/145 16/53/146
f 24/55/147 16/53/148 17/56/149
f 37/57/150 19/58/151 38/59/152
f 37/57/150 27/60/153 19/58/151
f 38/59/154 19/58/155 20/61/156
f 38/59/157 20/61/158 11/62/159
f 39/23/160 41/18/161 40/21/162
f 39/23/160 42/22/163 41/18/161
f 40/21/164 41/18/165 9/63/166
f 9/63/167 41/18/168 38/19/169
f 9/63/170 38/19/169 11/64/171
f 40/21/172 9/63/173 8/65/174
f 42/22/175 39/23/176 43/29/177
f 42/22/178 43/29/179 44/26/180
f 41/18/181 37/27/182 38/19/183
f 41/18/184 42/22/185 37/27/186
f 32/25/187 39/23/188 40/21/189
f 32/25/190 34/66/191 39/23/192
f 28/46/193 46/67/194 45/68/195
f 28/46/196 47/45/197 46/67/198
f 30/69/199 28/46/200 45/68/201
f 30/69/202 45/68/203 48/70/204
f 30/69/205 26/48/206 28/46/207
f 48/70/208 31/71/209 30/69/210
f 48/70/211 49/72/212 31/71/213
f 49/72/214 50/73/215 31/71/216
f 50/73/217 29/56/218 31/71/219
f 50/73/220 35/74/221 29/56/222
f 49/72/223 51/75/224 50/73/225
f 49/72/226 52/76/227 51/75/228
f 53/77/229 49/78/230 48/79/231
f 53/77/229 52/80/232 49/78/230
f 53/77/233 48/79/234 45/81/235
f 53/77/236 45/81/235 46/82/237
f 54/83/238 53/77/239 46/82/240
f 52/80/241 53/77/242 54/83/243
f 44/9/244 54/83/245 46/82/246
f 44/9/247 55/84/248 54/83/249
f 52/80/250 54/83/251 55/84/252
f 44/9/253 43/8/254 55/84/255
f 51/85/256 52/80/257 55/84/258
f 44/9/259 46/82/260 47/11/261
f 56/12/262 55/84/263 43/8/264
f 56/12/265 51/85/266 55/84/267
f 50/86/268 56/87/269 35/42/270
f 50/86/271 51/88/272 56/87/273
f 12/89/274 40/90/275 8/91/276
f 12/89/277 32/59/278 40/90/279
f 37/57/280 44/92/281 47/93/282
f 37/57/283 42/94/284 44/92/285
f 39/95/286 56/96/287 43/92/288
f 39/95/289 34/57/290 56/96/291
f 34/57/292 35/97/293 56/96/294
f 34/57/295 33/98/296 35/97/297
f 27/99/298 47/100/299 28/101/300
f 27/99/301 37/102/302 47/100/303
f 19/36/304 22/103/305 18/40/306
f 19/36/307 27/99/308 22/103/309
