# Blender 4.1.0
# www.blender.org
mtllib DrawermeshSideTableDrawer_203_1_GeomSubset_0.mtl
o DrawermeshSideTableDrawer_203_1_GeomSubset_0
v -0.195223 -0.158445 0.323446
v -0.187669 -0.158444 0.319486
v -0.187669 -0.155408 0.319487
v -0.195223 -0.155409 0.323447
v -0.180115 -0.155409 0.323447
v -0.180115 -0.158445 0.323446
v -0.176987 -0.158448 0.333008
v -0.180115 -0.158452 0.342569
v -0.180115 -0.155416 0.342570
v -0.176987 -0.155413 0.333009
v -0.187669 -0.158453 0.346530
v -0.187669 -0.155417 0.346531
v -0.195223 -0.155416 0.342570
v -0.195223 -0.158452 0.342569
v -0.198351 -0.158448 0.333008
v -0.198351 -0.155413 0.333009
v -0.193200 -0.155413 0.333009
v -0.191580 -0.155414 0.337959
v -0.191580 -0.155411 0.328058
v -0.187669 -0.155415 0.340010
v -0.183758 -0.155414 0.337959
v -0.182138 -0.155413 0.333009
v -0.183758 -0.155411 0.328058
v -0.187669 -0.155410 0.326007
v -0.187669 -0.160492 0.321701
v -0.181354 -0.160494 0.325013
v -0.178738 -0.160496 0.333007
v -0.181354 -0.160499 0.341001
v -0.187669 -0.160500 0.344312
v -0.193984 -0.160499 0.341001
v -0.196600 -0.160496 0.333007
v -0.193984 -0.160494 0.325013
v -0.187669 -0.147707 0.326010
v -0.191580 -0.147708 0.328060
v -0.183758 -0.147708 0.328060
v 0.215991 -0.158445 0.323446
v 0.223545 -0.158444 0.319486
v 0.223545 -0.155408 0.319487
v 0.215991 -0.155409 0.323447
v 0.231098 -0.155409 0.323447
v 0.231098 -0.158445 0.323446
v -0.193200 -0.147709 0.333011
v -0.191580 -0.147711 0.337962
v -0.187669 -0.147712 0.340013
v -0.183758 -0.147711 0.337962
v -0.182138 -0.147709 0.333011
v 0.234227 -0.158448 0.333008
v 0.231098 -0.158452 0.342569
v 0.231098 -0.155416 0.342570
v 0.234227 -0.155413 0.333009
v 0.223545 -0.158453 0.346530
v 0.223545 -0.155417 0.346531
v 0.215991 -0.155416 0.342570
v 0.215991 -0.158452 0.342569
v 0.212862 -0.158448 0.333008
v 0.212862 -0.155413 0.333009
v 0.218013 -0.155413 0.333009
v 0.219633 -0.155414 0.337959
v 0.219633 -0.155411 0.328058
v 0.223545 -0.155415 0.340010
v 0.227456 -0.155414 0.337959
v 0.229076 -0.155413 0.333009
v 0.227456 -0.155411 0.328058
v 0.223545 -0.155410 0.326007
v 0.223545 -0.160492 0.321701
v 0.229860 -0.160494 0.325013
v 0.232476 -0.160496 0.333007
v 0.229860 -0.160499 0.341001
v 0.223545 -0.160500 0.344312
v 0.217229 -0.160499 0.341001
v 0.214613 -0.160496 0.333007
v 0.217229 -0.160494 0.325013
v 0.223545 -0.147707 0.326010
v 0.219633 -0.147708 0.328060
v 0.227456 -0.147708 0.328060
v 0.218013 -0.147709 0.333011
v 0.219633 -0.147711 0.337962
v 0.223545 -0.147712 0.340013
v 0.227456 -0.147711 0.337962
v 0.229076 -0.147709 0.333011
v -0.000003 -0.153096 0.277896
v -0.000003 0.072881 0.277975
v -0.307945 0.072881 0.277975
v -0.307945 -0.137494 0.277902
v 0.307940 -0.137494 0.277902
v 0.307940 0.072881 0.277975
v 0.307940 -0.137526 0.368773
v 0.307940 0.072850 0.368846
v -0.000003 -0.158561 0.380628
v -0.000003 -0.158521 0.266032
v -0.317480 -0.142436 0.266038
v -0.317480 -0.142476 0.380634
v 0.317475 -0.142476 0.380634
v 0.317475 -0.142436 0.266038
v -0.317309 -0.137016 0.266040
v -0.000003 -0.153092 0.266034
v 0.317304 -0.137016 0.266040
v 0.317304 -0.137055 0.380636
v -0.317309 -0.137055 0.380636
v -0.000003 -0.153131 0.380630
v -0.000003 -0.153127 0.368768
v -0.307945 -0.137526 0.368773
v -0.000003 0.072850 0.368846
v -0.307945 0.072850 0.368846
v 0.299552 0.062232 0.368842
v 0.299552 0.062259 0.290522
v 0.008386 0.062259 0.290522
v 0.008386 0.062232 0.368842
v 0.008386 -0.142048 0.290451
v 0.008386 -0.142075 0.368772
v 0.299552 -0.127324 0.368777
v -0.008391 0.062232 0.368842
v -0.008391 -0.142075 0.368772
v -0.299557 -0.127324 0.368777
v -0.299557 0.062232 0.368842
v -0.299557 -0.127297 0.290456
v -0.299557 0.062259 0.290522
v -0.008391 0.062259 0.290522
v -0.008391 -0.142048 0.290451
v 0.299552 -0.127297 0.290456
vn -0.7065 -0.3764 -0.5993
vn -0.0870 0.6394 -0.7640
vn -0.0837 -0.3686 -0.9258
vn -0.7053 -0.3733 -0.6027
vn -0.5920 0.6312 -0.5011
vn -0.0806 0.6362 -0.7673
vn 0.0918 -0.3771 -0.9216
vn 0.0699 0.6306 -0.7730
vn 0.5846 0.6353 -0.5046
vn 0.7085 -0.3694 -0.6012
vn 0.9264 -0.3700 -0.0699
vn 0.5920 0.6309 0.5015
vn 0.7053 -0.3737 0.6024
vn 0.7741 0.6303 -0.0593
vn 0.7734 0.6313 0.0575
vn 0.9268 -0.3689 0.0709
vn 0.7065 -0.3768 0.5991
vn 0.0871 0.6389 0.7644
vn 0.0837 -0.3692 0.9256
vn 0.0805 0.6357 0.7677
vn -0.0918 -0.3778 0.9213
vn -0.0698 0.6301 0.7734
vn -0.5846 0.6350 0.5050
vn -0.7085 -0.3699 0.6010
vn -0.7734 0.6314 -0.0571
vn -0.9268 -0.3688 -0.0711
vn -0.9264 -0.3700 0.0698
vn -0.7741 0.6302 0.0596
vn -0.7751 0.6301 -0.0454
vn -0.4602 0.8041 0.3764
vn -0.5944 0.8041 0.0002
vn -0.7734 0.6303 -0.0675
vn -0.5502 0.6300 0.5481
vn -0.3684 0.8040 0.4668
vn -0.5659 0.6303 -0.5315
vn -0.7756 0.6301 0.0368
vn -0.5944 0.8041 0.0003
vn -0.5022 0.6304 -0.5920
vn -0.5943 0.8042 -0.0133
vn -0.3686 0.8042 -0.4662
vn -0.4982 0.6299 0.5958
vn 0.0173 0.8039 0.5946
vn -0.3685 0.8039 0.4668
vn -0.5685 0.6300 0.5291
vn -0.0431 0.6299 0.7754
vn -0.0001 0.8040 0.5947
vn 0.0404 0.6299 0.7756
vn 0.4582 0.8039 0.3791
vn -0.0001 0.8039 0.5947
vn 0.0714 0.6300 0.7733
vn 0.5548 0.6300 0.5433
vn 0.3685 0.8039 0.4668
vn 0.5022 0.6300 0.5923
vn 0.5943 0.8042 0.0140
vn 0.3687 0.8040 0.4666
vn 0.5659 0.6299 0.5319
vn 0.7756 0.6302 -0.0362
vn 0.5944 0.8041 0.0003
vn 0.7751 0.6301 0.0458
vn 0.4604 0.8043 -0.3758
vn 0.7735 0.6301 0.0679
vn 0.5502 0.6303 -0.5477
vn 0.3684 0.8043 -0.4662
vn 0.4982 0.6304 -0.5954
vn -0.0172 0.8043 -0.5939
vn 0.3686 0.8043 -0.4661
vn 0.5685 0.6304 -0.5287
vn 0.0431 0.6304 -0.7750
vn -0.0000 0.8043 -0.5942
vn -0.0405 0.6304 -0.7752
vn -0.4582 0.8042 -0.3785
vn -0.0001 0.8043 -0.5942
vn -0.0714 0.6304 -0.7730
vn -0.5548 0.6303 -0.5430
vn -0.3684 0.8043 -0.4663
vn 0.0820 -0.3536 -0.9318
vn 0.3403 -0.8918 -0.2983
vn 0.0557 -0.8936 -0.4455
vn 0.0938 -0.3464 -0.9334
vn 0.7020 -0.3322 -0.6300
vn 0.3654 -0.8830 -0.2946
vn 0.7149 -0.2980 -0.6325
vn 0.5241 -0.8516 0.0076
vn 0.4189 -0.8589 -0.2947
vn 0.7341 -0.2812 -0.6181
vn 0.9623 -0.2682 0.0449
vn 0.5335 -0.8455 0.0204
vn 0.9621 -0.2687 -0.0461
vn 0.4181 -0.8524 0.3139
vn 0.5303 -0.8477 -0.0166
vn 0.9581 -0.2796 -0.0622
vn 0.7202 -0.2938 0.6285
vn 0.4189 -0.8590 0.2944
vn 0.6934 -0.3240 0.6436
vn 0.0540 -0.8931 0.4466
vn 0.3706 -0.8812 0.2934
vn 0.7122 -0.3442 0.6118
vn 0.0748 -0.3588 0.9304
vn 0.0654 -0.8978 0.4355
vn -0.0820 -0.3542 0.9316
vn -0.3401 -0.8920 0.2977
vn -0.0558 -0.8939 0.4448
vn -0.3275 -0.8992 0.2900
vn 0.3275 -0.8992 0.2900
vn -0.0000 -0.8993 0.4374
vn -0.0938 -0.3470 0.9332
vn -0.7019 -0.3326 0.6298
vn -0.3654 -0.8832 0.2940
vn -0.7150 -0.2985 0.6322
vn -0.5241 -0.8516 -0.0082
vn -0.4189 -0.8591 0.2940
vn -0.4372 -0.8991 -0.0214
vn 0.4372 -0.8991 -0.0209
vn 0.3116 -0.8992 0.3070
vn -0.4362 -0.8991 -0.0359
vn 0.2981 -0.8993 0.3202
vn -0.3221 -0.8992 0.2960
vn -0.7340 -0.2816 0.6180
vn -0.9623 -0.2682 -0.0451
vn -0.5335 -0.8455 -0.0210
vn -0.9621 -0.2688 0.0459
vn -0.4180 -0.8523 -0.3145
vn -0.5302 -0.8478 0.0160
vn 0.3275 -0.8991 -0.2906
vn -0.3275 -0.8991 -0.2906
vn -0.0000 -0.8990 -0.4380
vn -0.2981 -0.8990 -0.3208
vn 0.3221 -0.8990 -0.2967
vn 0.4362 -0.8992 0.0353
vn -0.3117 -0.8991 -0.3075
vn 0.4372 -0.8991 0.0207
vn -0.4372 -0.8991 0.0203
vn -0.9581 -0.2797 0.0619
vn -0.7201 -0.2934 -0.6287
vn -0.4189 -0.8588 -0.2950
vn -0.6934 -0.3235 -0.6439
vn -0.0541 -0.8928 -0.4472
vn -0.3706 -0.8810 -0.2940
vn -0.7122 -0.3438 -0.6120
vn -0.0748 -0.3582 -0.9307
vn -0.0654 -0.8975 -0.4362
vn -0.0506 0.8034 -0.5933
vn -0.7674 0.0199 -0.6408
vn -0.0902 0.0003 -0.9959
vn -0.0023 0.7858 -0.6185
vn -0.4564 0.8043 -0.3805
vn -0.7678 0.0095 -0.6407
vn 0.5077 0.7856 -0.3536
vn 0.0535 0.8044 -0.5916
vn 0.0903 0.0096 -0.9959
vn 0.4553 0.8039 -0.3828
vn 0.0907 0.0201 -0.9957
vn 0.7597 0.0042 -0.6503
vn -0.0871 0.6394 -0.7639
vn -0.0838 -0.3686 -0.9258
vn -0.7052 -0.3733 -0.6027
vn 0.5845 0.6354 -0.5046
vn 0.7086 -0.3694 -0.6012
vn -0.5941 0.8029 -0.0496
vn -0.7597 0.0036 0.6503
vn -0.9971 -0.0000 -0.0762
vn -0.4552 0.8036 0.3834
vn -0.4484 0.8018 -0.3951
vn -0.5926 0.8042 0.0456
vn -0.9971 0.0014 0.0762
vn -0.4510 0.8042 -0.3872
vn -0.9971 0.0030 0.0763
vn -0.7591 0.0002 -0.6509
vn 0.0506 0.8030 0.5938
vn 0.7674 0.0195 0.6409
vn 0.0903 -0.0003 0.9959
vn 0.0022 0.7853 0.6191
vn 0.4564 0.8041 0.3810
vn 0.7678 0.0090 0.6407
vn -0.5078 0.7854 0.3541
vn -0.0536 0.8040 0.5922
vn -0.0903 0.0089 0.9959
vn -0.0907 0.0194 0.9957
vn 0.5941 0.8028 0.0502
vn 0.9971 -0.0000 0.0762
vn 0.4484 0.8015 0.3956
vn 0.5926 0.8042 -0.0451
vn 0.9971 0.0014 -0.0763
vn 0.4510 0.8039 0.3877
vn 0.9971 0.0030 -0.0762
vn 0.7591 -0.0002 0.6509
vn 0.9264 -0.3701 -0.0700
vn 0.7052 -0.3738 0.6025
vn 0.7741 0.6302 -0.0591
vn 0.7734 0.6313 0.0576
vn 0.0870 0.6389 0.7644
vn 0.0838 -0.3692 0.9256
vn 0.0806 0.6357 0.7677
vn -0.0918 -0.3777 0.9214
vn -0.5846 0.6350 0.5051
vn -0.7086 -0.3698 0.6010
vn -0.7733 0.6314 -0.0571
vn -0.9264 -0.3701 0.0697
vn -0.7741 0.6303 0.0596
vn -0.7751 0.6302 -0.0453
vn -0.4603 0.8040 0.3765
vn -0.7734 0.6303 -0.0676
vn -0.5501 0.6300 0.5482
vn -0.5659 0.6303 -0.5314
vn -0.7756 0.6302 0.0367
vn -0.5943 0.8041 -0.0133
vn -0.3685 0.8043 -0.4662
vn -0.4983 0.6299 0.5957
vn 0.0172 0.8040 0.5944
vn -0.3684 0.8039 0.4668
vn 0.0404 0.6299 0.7757
vn -0.0001 0.8039 0.5948
vn 0.3686 0.8039 0.4667
vn 0.5022 0.6299 0.5924
vn 0.7756 0.6302 -0.0363
vn 0.7752 0.6301 0.0457
vn 0.4602 0.8043 -0.3760
vn 0.7735 0.6301 0.0680
vn 0.5502 0.6304 -0.5477
vn 0.3684 0.8043 -0.4663
vn 0.4983 0.6305 -0.5952
vn -0.0172 0.8044 -0.5939
vn 0.3685 0.8043 -0.4662
vn 0.5684 0.6304 -0.5287
vn 0.0430 0.6303 -0.7751
vn -0.0000 0.8043 -0.5943
vn -0.0713 0.6304 -0.7730
vn 0.5240 -0.8517 0.0076
vn 0.7340 -0.2811 -0.6182
vn 0.9623 -0.2681 0.0449
vn 0.5336 -0.8455 0.0204
vn 0.9621 -0.2689 -0.0460
vn 0.4181 -0.8525 0.3138
vn 0.5301 -0.8478 -0.0167
vn 0.9581 -0.2795 -0.0622
vn 0.7202 -0.2937 0.6285
vn 0.4190 -0.8590 0.2944
vn 0.6934 -0.3239 0.6436
vn 0.0541 -0.8931 0.4466
vn 0.3706 -0.8813 0.2934
vn 0.7121 -0.3442 0.6119
vn 0.0748 -0.3587 0.9305
vn 0.0653 -0.8977 0.4356
vn -0.3402 -0.8920 0.2977
vn -0.0558 -0.8939 0.4449
vn -0.0000 -0.8993 0.4373
vn -0.7020 -0.3326 0.6298
vn -0.5240 -0.8517 -0.0082
vn -0.5336 -0.8455 -0.0210
vn -0.9621 -0.2688 0.0458
vn -0.5302 -0.8477 0.0160
vn 0.3275 -0.8990 -0.2907
vn -0.3275 -0.8990 -0.2907
vn -0.0000 -0.8989 -0.4381
vn -0.2981 -0.8991 -0.3207
vn 0.3221 -0.8991 -0.2966
vn -0.3116 -0.8991 -0.3076
vn -0.9581 -0.2797 0.0620
vn -0.4188 -0.8589 -0.2950
vn -0.6934 -0.3234 -0.6439
vn -0.3706 -0.8811 -0.2940
vn -0.0748 -0.3582 -0.9306
vn -0.0505 0.8034 -0.5933
vn -0.0021 0.7857 -0.6186
vn -0.7678 0.0094 -0.6407
vn 0.0537 0.8045 -0.5916
vn 0.4552 0.8039 -0.3828
vn 0.7597 0.0041 -0.6503
vn -0.7597 0.0037 0.6503
vn -0.9971 -0.0000 -0.0763
vn -0.9971 0.0029 0.0762
vn 0.0902 -0.0003 0.9959
vn -0.5077 0.7854 0.3541
vn -0.0537 0.8040 0.5922
vn -0.0906 0.0193 0.9957
vn 0.9971 -0.0001 0.0762
vn 0.9971 0.0014 -0.0762
vn 0.4510 0.8039 0.3878
vt 0.897952 0.338194
vt 0.902454 0.339624
vt 0.902454 0.338194
vt 0.897952 0.339624
vt 0.906957 0.339624
vt 0.906957 0.338194
vt 0.338194 0.899502
vt 0.339624 0.904004
vt 0.338194 0.904004
vt 0.339624 0.899502
vt 0.338194 0.894999
vt 0.339624 0.894999
vt 0.896087 0.899502
vt 0.900123 0.901833
vt 0.899158 0.899502
vt 0.897952 0.904004
vt 0.897952 0.894999
vt 0.900123 0.897170
vt 0.902454 0.902799
vt 0.902454 0.905869
vt 0.904786 0.901833
vt 0.906957 0.904004
vt 0.905752 0.899502
vt 0.908822 0.899502
vt 0.904786 0.897170
vt 0.906957 0.894999
vt 0.902454 0.896205
vt 0.902454 0.893134
vt 0.906219 0.895737
vt 0.902454 0.894178
vt 0.907778 0.899502
vt 0.906219 0.903266
vt 0.902454 0.904825
vt 0.898690 0.903266
vt 0.897131 0.899502
vt 0.898690 0.895737
vt 0.900123 0.343251
vt 0.902454 0.343251
vt 0.900123 0.339624
vt 0.904786 0.339624
vt 0.904786 0.343251
vt 0.143061 0.338194
vt 0.147563 0.339624
vt 0.147563 0.338194
vt 0.143061 0.339624
vt 0.152066 0.339624
vt 0.152066 0.338194
vt 0.343251 0.901833
vt 0.343251 0.899502
vt 0.339624 0.901833
vt 0.339624 0.897170
vt 0.343251 0.897170
vt 0.141196 0.899502
vt 0.145232 0.901833
vt 0.144266 0.899502
vt 0.143061 0.904004
vt 0.143061 0.894999
vt 0.145232 0.897170
vt 0.147563 0.902799
vt 0.147563 0.905869
vt 0.149895 0.901833
vt 0.152066 0.904004
vt 0.150860 0.899502
vt 0.153930 0.899502
vt 0.149895 0.897170
vt 0.152066 0.894999
vt 0.147563 0.896205
vt 0.147563 0.893134
vt 0.151327 0.895737
vt 0.147563 0.894178
vt 0.152887 0.899502
vt 0.151327 0.903266
vt 0.147563 0.904825
vt 0.143799 0.903266
vt 0.142240 0.899502
vt 0.143799 0.895737
vt 0.145232 0.343251
vt 0.147563 0.343251
vt 0.145232 0.339624
vt 0.149895 0.339624
vt 0.149895 0.343251
s 1
usemtl M_SideTableDrawer_203_0
f 1/1/1 3/2/2 2/3/3
f 1/1/4 4/4/5 3/2/6
f 2/3/7 3/2/8 5/5/9
f 2/3/7 5/5/9 6/6/10
f 7/7/11 9/8/12 8/9/13
f 7/7/11 10/10/14 9/8/12
f 6/11/10 10/10/15 7/7/16
f 6/11/10 5/12/9 10/10/15
f 8/6/17 12/2/18 11/3/19
f 8/6/13 9/5/12 12/2/20
f 11/3/21 12/2/22 13/4/23
f 11/3/21 13/4/23 14/1/24
f 14/9/24 16/10/25 15/7/26
f 14/9/24 13/8/23 16/10/25
f 15/7/27 16/10/28 4/12/5
f 15/7/27 4/12/5 1/11/4
f 16/13/29 18/14/30 17/15/31
f 16/13/32 13/16/33 18/14/34
f 4/17/35 16/13/36 17/15/37
f 4/17/38 17/15/39 19/18/40
f 13/16/41 20/19/42 18/14/43
f 13/16/44 12/20/45 20/19/46
f 12/20/47 21/21/48 20/19/49
f 12/20/50 9/22/51 21/21/52
f 9/22/53 22/23/54 21/21/55
f 9/22/56 10/24/57 22/23/58
f 10/24/59 23/25/60 22/23/58
f 10/24/61 5/26/62 23/25/63
f 5/26/64 24/27/65 23/25/66
f 5/26/67 3/28/68 24/27/69
f 3/28/70 19/18/71 24/27/72
f 3/28/73 4/17/74 19/18/75
f 2/28/76 26/29/77 25/30/78
f 2/28/79 6/26/80 26/29/81
f 6/26/82 27/31/83 26/29/84
f 6/26/85 7/24/86 27/31/87
f 7/24/88 28/32/89 27/31/90
f 7/24/91 8/22/92 28/32/93
f 8/22/94 29/33/95 28/32/96
f 8/22/97 11/20/98 29/33/99
f 11/20/100 30/34/101 29/33/102
f 30/34/103 28/32/104 29/33/105
f 11/20/106 14/16/107 30/34/108
f 14/16/109 31/35/110 30/34/111
f 31/35/112 27/31/113 28/32/114
f 31/35/115 28/32/116 30/34/117
f 14/16/118 15/13/119 31/35/120
f 15/13/121 32/36/122 31/35/123
f 26/29/124 32/36/125 25/30/126
f 32/36/127 26/29/128 27/31/129
f 32/36/130 27/31/131 31/35/132
f 15/13/133 1/17/134 32/36/135
f 1/17/136 25/30/137 32/36/138
f 1/17/139 2/28/140 25/30/141
f 24/2/142 34/37/143 33/38/144
f 24/2/145 19/39/146 34/37/147
f 23/40/148 24/2/149 33/38/150
f 23/40/151 33/38/152 35/41/153
f 36/42/1 38/43/154 37/44/155
f 36/42/156 39/45/5 38/43/6
f 37/44/7 38/43/8 40/46/157
f 37/44/7 40/46/157 41/47/158
f 17/10/159 43/48/160 42/49/161
f 17/10/159 18/50/162 43/48/160
f 19/51/163 17/10/164 42/49/165
f 19/51/166 42/49/167 34/52/168
f 20/2/169 45/41/170 44/38/171
f 20/2/172 21/40/173 45/41/174
f 18/39/175 20/2/176 44/38/177
f 18/39/162 44/38/178 43/37/160
f 22/10/179 35/52/153 46/49/180
f 22/10/179 23/51/151 35/52/153
f 21/50/181 22/10/182 46/49/183
f 21/50/184 46/49/185 45/48/186
f 47/7/187 49/8/12 48/9/188
f 47/7/187 50/10/189 49/8/12
f 41/11/158 50/10/190 47/7/16
f 41/11/158 40/12/157 50/10/190
f 48/47/17 52/43/191 51/44/192
f 48/47/188 49/46/12 52/43/193
f 51/44/194 52/43/22 53/45/195
f 51/44/194 53/45/195 54/42/196
f 54/9/196 56/10/197 55/7/26
f 54/9/196 53/8/195 56/10/197
f 55/7/198 56/10/199 39/12/5
f 55/7/198 39/12/5 36/11/156
f 56/53/200 58/54/201 57/55/31
f 56/53/202 53/56/203 58/54/34
f 39/57/204 56/53/205 57/55/37
f 39/57/38 57/55/206 59/58/207
f 53/56/208 60/59/209 58/54/210
f 53/56/44 52/60/45 60/59/46
f 52/60/211 61/61/48 60/59/212
f 52/60/50 49/62/51 61/61/213
f 49/62/214 62/63/54 61/61/213
f 49/62/56 50/64/215 62/63/58
f 50/64/216 63/65/217 62/63/58
f 50/64/218 40/66/219 63/65/220
f 40/66/221 64/67/222 63/65/223
f 40/66/224 38/68/225 64/67/226
f 38/68/70 59/58/71 64/67/72
f 38/68/227 39/57/74 59/58/75
f 37/68/76 66/69/77 65/70/78
f 37/68/79 41/66/80 66/69/81
f 41/66/82 67/71/228 66/69/84
f 41/66/229 47/64/230 67/71/231
f 47/64/232 68/72/233 67/71/234
f 47/64/235 48/62/236 68/72/237
f 48/62/238 69/73/239 68/72/240
f 48/62/241 51/60/242 69/73/243
f 51/60/100 70/74/244 69/73/245
f 70/74/103 68/72/104 69/73/246
f 51/60/106 54/56/247 70/74/108
f 54/56/109 71/75/248 70/74/111
f 71/75/112 67/71/113 68/72/114
f 71/75/115 68/72/116 70/74/117
f 54/56/118 55/53/119 71/75/249
f 55/53/250 72/76/122 71/75/251
f 66/69/252 72/76/253 65/70/254
f 72/76/255 66/69/256 67/71/129
f 72/76/257 67/71/131 71/75/132
f 55/53/258 36/57/134 72/76/259
f 36/57/260 65/70/137 72/76/261
f 36/57/139 37/68/262 65/70/141
f 64/43/263 74/77/143 73/78/144
f 64/43/264 59/79/146 74/77/265
f 63/80/148 64/43/266 73/78/150
f 63/80/267 73/78/152 75/81/268
f 57/10/159 77/48/269 76/49/270
f 57/10/159 58/50/162 77/48/269
f 59/51/163 57/10/164 76/49/165
f 59/51/166 76/49/271 74/52/168
f 60/43/169 79/81/170 78/78/272
f 60/43/172 61/80/173 79/81/174
f 58/79/273 60/43/274 78/78/177
f 58/79/162 78/78/275 77/77/269
f 62/10/179 75/52/268 80/49/276
f 62/10/179 63/51/267 75/52/268
f 61/50/181 62/10/182 80/49/277
f 61/50/278 80/49/185 79/48/186
