# Blender 4.1.1
# www.blender.org
mtllib DrawermeshDresserDrawer_220_1_1_GeomSubset_0.mtl
o DrawermeshDresserDrawer_220_1_1_GeomSubset_0
v -0.449321 -0.252696 0.220043
v 0.436763 -0.252704 0.220044
v 0.436763 -0.252704 0.478363
v -0.449321 -0.252696 0.478364
v 0.504290 -0.215610 0.479806
v 0.504290 -0.238819 0.479806
v 0.504290 -0.238819 0.213365
v 0.504290 -0.215610 0.213365
v -0.522951 -0.215610 0.213365
v -0.522951 -0.238822 0.213365
v -0.522951 -0.238815 0.479806
v -0.522951 -0.215610 0.479806
v -0.511876 -0.249122 0.213365
v 0.493216 -0.249122 0.213365
v 0.493215 -0.249122 0.479806
v -0.511876 -0.249122 0.479806
v -0.511877 -0.215610 0.485127
v -0.511876 -0.238819 0.485127
v 0.493215 -0.238815 0.485127
v 0.493216 -0.215610 0.485127
v -0.459567 0.171937 0.470749
v -0.459567 0.171937 0.238213
v 0.440904 0.171944 0.238213
v 0.440904 0.171944 0.470749
v 0.493216 -0.215610 0.208044
v 0.493215 -0.238815 0.208044
v -0.511876 -0.238819 0.208044
v -0.511877 -0.215610 0.208044
v 0.493216 -0.205299 0.479806
v -0.511877 -0.205303 0.479806
v 0.493216 -0.205299 0.213365
v -0.511877 -0.205303 0.213365
v -0.493025 -0.205303 0.470748
v 0.474364 -0.205299 0.470748
v -0.493024 -0.205303 0.222422
v 0.474364 -0.205299 0.222422
v -0.493025 0.203076 0.222422
v -0.493025 0.203076 0.470748
v 0.474363 0.203080 0.470748
v 0.474363 0.203080 0.222422
v 0.440905 -0.174167 0.238212
v 0.440905 -0.174167 0.470748
v -0.459566 -0.174167 0.470748
v -0.459566 -0.174167 0.238212
vn -0.0000 1.0000 -0.0000
vt 0.000000 0.000000
vt 1.000000 1.000000
vt 0.000000 1.000000
vt 1.000000 0.000000
s 1
usemtl M_DresserDrawer_220_1_0
f 1/1/1 3/2/1 2/3/1
f 1/1/1 4/4/1 3/2/1
