# Blender 4.1.0
# www.blender.org
mtllib MeshWindowHung_32X60_0_GeomSubset_2.mtl
o MeshWindowHung_32X60_0_GeomSubset_2
v -0.406608 0.040625 -0.733911
v 0.406193 0.040626 -0.733911
v -0.406608 0.040625 0.790089
v 0.406193 0.040626 0.790089
v -0.406607 -0.040626 -0.733911
v -0.406607 -0.040626 0.790089
v 0.406193 -0.040625 0.790089
v 0.406193 -0.040625 -0.733911
v -0.431843 0.120779 -0.733911
v 0.431429 0.120780 -0.733911
v 0.431429 -0.120779 -0.733911
v -0.431843 -0.120780 -0.733911
v -0.431843 0.092218 -0.788951
v -0.431843 0.120779 -0.752185
v 0.431429 -0.092218 -0.788951
v 0.431429 -0.120779 -0.752185
v -0.431843 -0.092219 -0.788951
v -0.431843 -0.120780 -0.752185
v 0.431429 0.092219 -0.788951
v 0.431429 0.120780 -0.752185
v -0.340872 0.040625 0.724324
v -0.340872 0.040625 -0.667500
v -0.340872 -0.040625 0.724324
v -0.340872 -0.040625 -0.667500
v 0.340457 0.040625 0.724324
v 0.340457 -0.040625 0.724324
v 0.340457 -0.040625 -0.667500
v 0.340457 0.040625 -0.667500
v -0.340872 0.031819 0.724324
v -0.340872 0.031819 -0.667500
v -0.340872 -0.031820 0.724324
v -0.340872 -0.031820 -0.667500
v 0.340457 0.031820 0.724324
v 0.340457 -0.031819 0.724324
v 0.340457 -0.031819 -0.667500
v 0.340457 0.031820 -0.667500
v -0.363711 0.031819 0.747597
v -0.363711 0.031819 -0.733911
v -0.363711 -0.031820 0.747597
v -0.363711 -0.031820 -0.733911
v 0.363296 0.031820 0.747597
v 0.363296 -0.031819 0.747597
v 0.363296 -0.031819 -0.733911
v 0.363296 0.031820 -0.733911
v 0.362801 0.000022 -0.008320
v -0.363543 0.000021 -0.008320
v 0.362801 0.000022 0.747217
v -0.363543 0.000021 0.747217
v 0.362801 -0.031843 0.747217
v -0.363543 -0.031844 0.747217
v 0.362801 -0.031843 -0.008320
v -0.363543 -0.031844 -0.008320
v 0.362801 0.000022 -0.008320
v -0.363543 0.000021 -0.008320
v -0.363543 0.000021 0.747217
v 0.362801 0.000022 0.747217
v 0.362801 -0.031843 0.747217
v -0.363543 -0.031844 0.747217
v -0.363543 -0.031844 -0.008320
v 0.362801 -0.031843 -0.008320
v 0.362801 0.000022 -0.008320
v -0.363543 0.000021 -0.008320
v -0.363543 0.000021 0.747217
v 0.362801 0.000022 0.747217
v 0.362801 -0.031843 0.747217
v -0.363543 -0.031844 0.747217
v -0.363543 -0.031844 -0.008320
v 0.362801 -0.031843 -0.008320
v 0.324222 0.000022 0.031144
v -0.324964 0.000021 0.031144
v -0.324964 0.000021 0.707752
v 0.324222 0.000022 0.707752
v 0.324222 -0.031843 0.707752
v -0.324964 -0.031844 0.707752
v -0.324964 -0.031844 0.031144
v 0.324222 -0.031843 0.031144
v 0.362801 0.031705 -0.733959
v -0.363543 0.031704 -0.733959
v 0.362801 0.031705 0.031144
v -0.363543 0.031704 0.031144
v 0.362801 -0.000160 0.031144
v -0.363543 -0.000161 0.031144
v 0.362801 -0.000160 -0.733959
v -0.363543 -0.000161 -0.733959
v 0.362801 0.031705 -0.733959
v -0.363543 0.031704 -0.733959
v -0.363543 0.031704 0.031144
v 0.362801 0.031705 0.031144
v 0.362801 -0.000160 0.031144
v -0.363543 -0.000161 0.031144
v -0.363543 -0.000161 -0.733959
v 0.362801 -0.000160 -0.733959
v 0.362801 0.031705 -0.733959
v -0.363543 0.031704 -0.733959
v -0.363543 0.031704 0.031144
v 0.362801 0.031705 0.031144
v 0.362801 -0.000160 0.031144
v -0.363543 -0.000161 0.031144
v -0.363543 -0.000161 -0.733959
v 0.362801 -0.000160 -0.733959
v 0.324222 0.031705 -0.651356
v -0.324964 0.031704 -0.651356
v -0.324964 0.031704 -0.008320
v 0.324222 0.031705 -0.008320
v 0.324222 -0.000160 -0.008320
v -0.324964 -0.000161 -0.008320
v -0.324964 -0.000161 -0.651356
v 0.324222 -0.000160 -0.651356
v 0.324222 -0.010460 0.031144
v -0.324964 -0.010461 0.031144
v -0.324964 -0.010461 0.707752
v 0.324222 -0.010460 0.707752
v 0.324222 -0.019734 0.707752
v -0.324964 -0.019735 0.707752
v -0.324964 -0.019735 0.031144
v 0.324222 -0.019734 0.031144
v 0.324222 0.020216 -0.651356
v -0.324964 0.020215 -0.651356
v -0.324964 0.020215 -0.008320
v 0.324222 0.020216 -0.008320
v 0.324222 0.010941 -0.008320
v -0.324964 0.010941 -0.008320
v -0.324964 0.010941 -0.651356
v 0.324222 0.010941 -0.651356
v 0.029449 0.022278 0.029985
v -0.030592 0.022278 0.029985
v 0.020424 0.022278 0.048287
v -0.021568 0.022278 0.048287
v 0.020424 -0.000182 0.048287
v -0.021568 -0.000182 0.048287
v 0.029449 -0.000182 0.029985
v -0.030592 -0.000182 0.029985
v 0.025127 0.022278 0.044837
v 0.025127 -0.000182 0.044837
v -0.026270 -0.000182 0.044837
v -0.026270 0.022278 0.044837
v 0.027877 0.022278 0.039139
v 0.027877 -0.000182 0.039139
v -0.029020 -0.000182 0.039139
v -0.029020 0.022278 0.039139
v -0.048319 -0.000182 0.029985
v -0.048319 0.022278 0.029985
v 0.047175 -0.000182 0.029985
v 0.047175 0.022278 0.029985
v -0.046569 -0.000182 0.036393
v -0.042972 -0.000182 0.039139
v -0.046569 0.022278 0.036393
v -0.042972 0.022278 0.039139
v 0.045425 0.022278 0.036393
v 0.041829 0.022278 0.039139
v 0.045425 -0.000182 0.036393
v 0.041829 -0.000182 0.039139
v -0.042972 0.022278 0.029985
v -0.042972 -0.000182 0.029985
v 0.041829 -0.000182 0.029985
v 0.041829 0.022278 0.029985
v 0.026649 0.026896 0.029985
v -0.027792 0.026896 0.029985
v -0.026367 0.026896 0.039139
v 0.025223 0.026896 0.039139
v -0.023873 0.026896 0.043473
v 0.022729 0.026896 0.043473
v -0.019609 0.026896 0.045684
v 0.018466 0.026896 0.045684
v -0.021062 0.024770 0.047510
v -0.025651 0.024770 0.044679
v -0.028336 0.024770 0.039139
v -0.029869 0.024770 0.029985
v 0.028726 0.024770 0.029985
v 0.027192 0.024770 0.039139
v 0.024508 0.024770 0.044679
v 0.019919 0.024770 0.047510
v -0.007147 0.008298 0.048273
v -0.004368 0.005519 0.048273
v -0.000572 0.004502 0.048273
v 0.003224 0.005519 0.048273
v 0.006003 0.008298 0.048273
v 0.007021 0.012094 0.048273
v 0.006003 0.015890 0.048273
v 0.003224 0.018669 0.048273
v -0.000572 0.019686 0.048273
v -0.004368 0.018669 0.048273
v -0.007147 0.015890 0.048273
v -0.008164 0.012094 0.048273
v -0.007147 0.008298 0.052975
v -0.004368 0.005519 0.052975
v -0.000572 0.004502 0.052975
v 0.003224 0.005519 0.052975
v 0.006003 0.008298 0.052975
v 0.007021 0.012094 0.052975
v 0.006003 0.015890 0.052975
v 0.003224 0.018669 0.052975
v -0.000572 0.019686 0.052975
v -0.004368 0.018669 0.052975
v -0.007147 0.015890 0.052975
v -0.008164 0.012094 0.052975
v -0.000572 0.012094 0.052975
v 0.018568 0.008298 0.048273
v 0.018568 0.008298 0.052975
v 0.018568 0.012094 0.048273
v 0.018568 0.012094 0.052975
v 0.018568 0.015890 0.048273
v 0.018568 0.015890 0.052975
v -0.000572 0.012094 0.048273
v 0.028324 0.010102 0.048273
v 0.028324 0.012094 0.048273
v 0.028324 0.012094 0.053701
v 0.028324 0.010102 0.053701
v 0.028324 0.014087 0.048273
v 0.028324 0.014087 0.053701
v 0.034275 0.010693 0.047141
v 0.034275 0.012094 0.047141
v 0.036325 0.012094 0.053701
v 0.036325 0.010693 0.053701
v 0.034275 0.013495 0.047141
v 0.036325 0.013495 0.053701
v 0.039868 0.010927 0.039614
v 0.039868 0.012094 0.039614
v 0.051907 0.012094 0.039565
v 0.051907 0.010927 0.039565
v 0.039868 0.013261 0.039614
v 0.051907 0.013261 0.039565
v 0.036975 0.010927 0.045639
v 0.039156 0.010927 0.042349
v 0.036975 0.012094 0.045639
v 0.039156 0.012094 0.042349
v 0.045130 0.012094 0.051440
v 0.050277 0.012094 0.045996
v 0.045111 0.010927 0.051443
v 0.050279 0.010927 0.045979
v 0.036975 0.013261 0.045639
v 0.039156 0.013261 0.042349
v 0.045111 0.013261 0.051443
v 0.050279 0.013261 0.045979
vn 0.0424 0.9324 -0.3588
vn -0.0425 0.9324 -0.3589
vn -0.0440 0.9989 0.0137
vn 0.0440 0.9989 0.0136
vn 0.0739 0.0280 0.9969
vn -0.0739 0.0280 0.9969
vn -0.0738 -0.0000 0.9973
vn 0.0738 -0.0000 0.9973
vn -0.0000 -1.0000 -0.0000
vn -0.9647 -0.0000 0.2634
vn -0.8635 -0.0000 0.5044
vn 0.9647 -0.0000 0.2634
vn 0.8635 -0.0000 0.5044
vn 0.7753 -0.0000 0.6316
vn 0.7752 0.0258 0.6312
vn -0.7752 0.0258 0.6312
vn -0.7753 -0.0000 0.6316
vn 0.0516 0.9974 0.0509
vn -0.0517 0.9974 0.0510
vn -0.0170 0.9118 0.4103
vn 0.0169 0.9118 0.4103
vn 0.9006 -0.0000 0.4347
vn 0.9145 0.0569 0.4006
vn -0.9145 0.0570 0.4006
vn -0.9006 -0.0000 0.4347
vn -0.0000 -0.0000 -1.0000
vn -0.0000 -0.0000 1.0000
vn -0.1547 -0.0001 0.9880
vn -0.1547 -0.0000 0.9880
vn -0.0000 1.0000 -0.0000
vn 0.1547 0.0001 0.9880
vn 0.1547 -0.0000 0.9880
vn -0.9498 0.2681 0.1611
vn -0.8380 0.4913 0.2374
vn -0.8588 0.4921 0.1427
vn 0.9498 0.2683 0.1611
vn 0.8588 0.4921 0.1427
vn 0.8380 0.4913 0.2374
vn -0.0609 0.4599 0.8859
vn -0.6549 0.4855 0.5791
vn 0.0609 0.4598 0.8859
vn 0.6550 0.4855 0.5791
vn -0.8660 -0.5000 -0.0000
vn -0.5000 -0.8660 -0.0000
vn 0.5000 -0.8660 -0.0000
vn -0.0041 -0.0000 -1.0000
vn 0.5000 0.8660 -0.0000
vn -0.5000 0.8660 -0.0000
vn -0.8660 0.5000 -0.0000
vn -1.0000 -0.0000 -0.0000
vn 0.7071 0.7071 -0.0000
vn 0.7071 -0.7071 -0.0000
vn -0.0500 -0.0000 -0.9987
vn -0.0439 -0.0000 -0.9990
vn -0.0742 -0.0000 0.9972
vn -0.0526 -0.0000 0.9986
vn -0.0502 -0.0000 0.9987
vn 0.1818 -0.9833 -0.0000
vn 0.1340 -0.9910 -0.0069
vn 0.1357 -0.9907 -0.0067
vn 0.1817 0.9833 -0.0000
vn 0.1357 0.9907 -0.0067
vn 0.1341 0.9909 -0.0070
vn -0.0527 -0.0000 0.9986
vn -0.1869 -0.0000 -0.9824
vn 0.1121 -0.0003 0.9937
vn 0.1159 -0.0000 0.9933
vn 0.0563 -0.9982 -0.0206
vn 0.0541 -0.9983 -0.0212
vn 0.0537 0.9983 -0.0212
vn 0.0563 0.9982 -0.0207
vn 0.1120 0.0004 0.9937
vn 0.0156 -0.9998 -0.0129
vn 0.0090 -0.9999 -0.0074
vn -0.9015 0.0001 -0.4327
vn -0.6882 0.0001 -0.7255
vn -0.6924 0.0001 -0.7215
vn -0.9015 0.0001 -0.4328
vn -0.6882 -0.0000 -0.7255
vn -0.9015 -0.0000 -0.4328
vn 0.4744 -0.0000 0.8803
vn 0.8672 -0.0000 0.4980
vn 0.8693 0.0059 0.4942
vn 0.4676 0.0047 0.8839
vn 0.4676 -0.0047 0.8839
vn 0.8693 -0.0059 0.4943
vn 0.0156 0.9998 -0.0129
vn 0.0088 0.9999 -0.0074
vn -0.4861 -0.0000 -0.8739
vn -0.9677 -0.0000 -0.2519
vn 0.9693 -0.0010 0.2459
vn 0.9693 -0.0000 0.2459
vn 0.9693 0.0010 0.2459
vt -31.385109 3.071583
vt -31.385109 3.029045
vt -31.377954 3.030159
vt -31.377954 3.070469
vt -31.230291 3.063560
vt -31.230291 3.030140
vt -31.212418 3.030140
vt -31.212418 3.063560
vt -31.682238 3.105757
vt -31.682238 3.061305
vt -31.675087 3.060078
vt -31.675087 3.106985
vt -30.936277 2.986890
vt -30.936277 2.967508
vt -30.930746 2.967508
vt -30.930746 2.986890
vt -30.875202 2.986888
vt -30.875202 2.967510
vt -30.869675 2.967510
vt -30.869675 2.986888
vt -31.066376 2.993105
vt -31.066376 2.972916
vt -31.063276 2.972916
vt -31.063276 2.993105
vt -31.689384 3.099935
vt -31.689384 3.067128
vt -31.686689 3.063454
vt -31.686689 3.103608
vt -30.993090 2.988955
vt -30.993090 2.968765
vt -30.989986 2.968765
vt -30.989986 2.988955
vt -31.374569 3.068520
vt -31.374569 3.032107
vt -31.372841 3.035438
vt -31.372841 3.065189
vt -31.071499 2.993105
vt -31.071499 2.972916
vt -30.998211 2.988955
vt -30.998211 2.968765
vt -31.594877 3.050405
vt -31.612425 3.050405
vt -31.612425 3.046227
vt -31.594877 3.046227
vt -31.675087 3.050406
vt -31.682238 3.050406
vt -31.680092 3.047596
vt -31.675087 3.046228
vt -30.811749 2.985972
vt -30.811749 2.968426
vt -30.800850 2.968426
vt -30.800850 2.985972
vt -30.684458 2.971278
vt -30.691610 2.971278
vt -30.691610 2.967100
vt -30.686604 2.968467
vt -31.612425 3.116658
vt -31.594877 3.116658
vt -31.594877 3.120835
vt -31.612425 3.120835
vt -30.630537 2.978002
vt -30.623384 2.978002
vt -30.625530 2.980812
vt -30.630537 2.982179
vt -30.739775 2.968426
vt -30.739775 2.985972
vt -30.750673 2.985972
vt -30.750673 2.968426
vt -31.682238 3.116657
vt -31.675087 3.116657
vt -31.675087 3.120834
vt -31.680092 3.119467
vt -30.928377 2.967508
vt -30.928377 2.986890
vt -30.867306 2.967510
vt -30.867306 2.986888
vt -30.684458 2.982182
vt -30.691610 2.980954
vt -31.594877 3.060077
vt -31.612425 3.060077
vt -31.612425 3.106986
vt -31.594877 3.106986
vt -30.630537 2.968331
vt -30.623384 2.967103
vt -31.592930 3.060641
vt -31.592930 3.106421
vt -31.006441 2.988955
vt -30.998211 2.991195
vt -31.006441 2.991195
vt -31.079727 2.972916
vt -31.079727 2.970676
vt -31.071499 2.970676
vt -30.990685 2.991195
vt -30.993231 2.991195
vt -31.232273 3.063157
vt -31.232273 3.030543
vt -31.066521 2.970676
vt -31.063974 2.970676
vt -31.232273 3.026891
vt -31.233967 3.031699
vt -31.233967 3.028306
vt -30.994316 2.993106
vt -30.998211 2.993106
vt -31.006441 2.993106
vt -31.591267 3.062265
vt -31.591267 3.104797
vt -31.079727 2.968765
vt -31.071499 2.968765
vt -31.067602 2.968765
vt -31.232273 3.066809
vt -31.233967 3.065394
vt -31.233967 3.062001
vt -30.571497 2.966425
vt -30.571497 2.964052
vt -30.567482 2.964052
vt -30.567482 2.966425
vt -31.528111 3.029581
vt -31.528111 3.032579
vt -31.531822 3.032579
vt -31.531822 3.029581
vt -31.528111 3.035576
vt -31.531822 3.035576
vt -30.523460 2.964063
vt -30.522545 2.964063
vt -30.522545 2.973470
vt -30.523460 2.973470
vt -30.521635 2.964063
vt -30.521635 2.973470
vt -31.452234 3.035576
vt -31.452234 3.032579
vt -31.448521 3.032579
vt -31.448521 3.035576
vt -31.452234 3.029581
vt -31.448521 3.029581
vt -30.571497 2.975281
vt -30.571497 2.972908
vt -30.567482 2.972908
vt -30.567482 2.975281
vt -30.571497 2.969666
vt -30.567482 2.969666
vt -31.306105 3.034487
vt -31.300962 3.031519
vt -31.300167 3.034487
vt -31.300962 3.037455
vt -31.303133 3.039628
vt -31.306105 3.040424
vt -31.309071 3.039628
vt -31.311245 3.037455
vt -31.150284 2.988972
vt -31.147312 2.989768
vt -31.147312 2.998806
vt -31.150284 2.998806
vt -31.303133 3.049452
vt -31.306105 3.049452
vt -31.144341 2.988972
vt -31.144341 2.998806
vt -31.309071 3.049452
vt -31.147312 2.983825
vt -31.152458 2.980854
vt -31.150284 2.978678
vt -31.147312 2.977882
vt -31.152458 2.986797
vt -31.153255 2.983825
vt -31.142166 2.986797
vt -31.142166 2.980854
vt -31.141369 2.983825
vt -31.144341 2.978678
vt -31.306105 3.028551
vt -31.303133 3.029346
vt -31.312040 3.034487
vt -31.311245 3.031519
vt -31.309071 3.029346
vt -31.452234 3.047691
vt -31.452234 3.037771
vt -31.448521 3.037771
vt -31.448521 3.047691
vt -31.528111 3.037770
vt -31.531822 3.037770
vt -31.528111 3.047691
vt -31.531822 3.047691
vt -31.147312 3.006444
vt -31.148870 3.006444
vt -31.304546 3.057082
vt -31.306105 3.057082
vt -31.528111 3.055395
vt -31.532396 3.055395
vt -31.145752 3.006444
vt -31.447947 3.055395
vt -31.452234 3.055395
vt -31.307661 3.057082
vt -31.147312 3.011101
vt -31.148409 3.011101
vt -31.305008 3.063337
vt -31.306105 3.063337
vt -31.527216 3.060092
vt -31.532396 3.061711
vt -31.146215 3.011101
vt -31.447947 3.061712
vt -31.453127 3.060093
vt -31.307198 3.063337
vt -31.526030 3.062225
vt -31.523432 3.063947
vt -31.526297 3.072730
vt -31.530615 3.068648
vt -30.423862 2.963671
vt -30.423862 2.966395
vt -30.424828 2.966395
vt -30.424828 2.963671
vt -30.425797 2.966395
vt -30.425797 2.963671
vt -30.473688 2.973698
vt -30.473688 2.969057
vt -30.472692 2.969041
vt -30.472692 2.973700
vt -30.474684 2.973700
vt -30.474684 2.969041
vt -31.456909 3.063947
vt -31.454311 3.062226
vt -31.449728 3.068649
vt -31.454044 3.072730
vt -31.147312 3.013215
vt -31.148228 3.013215
vt -31.305189 3.070207
vt -31.306105 3.070221
vt -31.146399 3.013215
vt -31.307016 3.070207
vt -30.424828 2.961406
vt -30.423862 2.961406
vt -30.474684 2.963574
vt -30.473688 2.963574
vt -31.521273 3.064509
vt -31.521235 3.074015
vt -30.425797 2.961406
vt -31.459106 3.074015
vt -31.459068 3.064509
vt -30.472692 2.963574
s 1
usemtl M_WindowHung_32X60_2
f 157/1/1 158/2/2 159/3/3 160/4/4
f 127/5/5 128/6/6 130/7/7 129/8/8
f 138/9/9 139/10/9 132/11/9 131/12/9
f 142/13/10 141/14/10 145/15/11 147/16/11
f 143/17/12 144/18/12 149/19/13 151/20/13
f 134/21/14 133/22/15 127/23/5 129/24/8
f 129/25/9 130/26/9 135/27/9 134/28/9
f 136/29/16 135/30/17 130/31/7 128/32/6
f 162/33/18 161/34/19 163/35/20 164/36/21
f 138/37/22 137/38/23 133/22/15 134/21/14
f 134/28/9 135/27/9 139/10/9 138/9/9
f 140/39/24 139/40/25 135/30/17 136/29/16
f 160/4/4 159/3/3 161/34/19 162/33/18
f 153/41/26 154/42/26 141/43/26 142/44/26
f 154/45/9 146/46/9 145/47/9 141/48/9
f 139/49/27 140/50/27 148/51/28 146/52/29
f 148/53/30 153/54/30 142/55/30 147/56/30
f 155/57/26 156/58/26 144/59/26 143/60/26
f 156/61/30 150/62/30 149/63/30 144/64/30
f 137/65/27 138/66/27 152/67/31 150/68/32
f 152/69/9 155/70/9 143/71/9 151/72/9
f 145/15/11 146/73/29 148/74/28 147/16/11
f 149/19/13 150/75/32 152/76/31 151/20/13
f 140/77/30 126/78/30 153/54/30 148/53/30
f 126/79/26 132/80/26 154/42/26 153/41/26
f 132/11/9 139/10/9 146/46/9 154/45/9
f 138/9/9 131/12/9 155/70/9 152/69/9
f 131/81/26 125/82/26 156/58/26 155/57/26
f 125/83/30 137/84/30 150/62/30 156/61/30
f 126/79/26 125/82/26 131/81/26 132/80/26
f 125/82/26 126/79/26 168/85/26 169/86/26
f 126/87/33 140/39/24 167/88/34 168/89/35
f 137/38/23 125/90/36 169/91/37 170/92/38
f 136/29/16 128/32/6 165/93/39 166/94/40
f 128/6/6 127/5/5 172/95/41 165/96/39
f 127/23/5 133/22/15 171/97/42 172/98/41
f 140/39/24 136/29/16 166/94/40 167/88/34
f 133/22/15 137/38/23 170/92/38 171/97/42
f 166/99/40 165/96/39 163/100/20 161/101/19
f 167/88/34 166/94/40 161/102/19 159/103/3
f 168/89/35 167/88/34 159/103/3 158/104/2
f 169/86/26 168/85/26 158/105/2 157/106/1
f 170/92/38 169/91/37 157/107/1 160/108/4
f 171/97/42 170/92/38 160/108/4 162/109/18
f 172/95/41 171/110/42 162/111/18 164/112/21
f 165/96/39 172/95/41 164/112/21 163/100/20
f 173/113/43 174/114/44 186/115/44 185/116/43
f 174/117/44 175/118/9 187/119/9 186/120/44
f 175/118/9 176/121/45 188/122/45 187/119/9
f 217/123/46 218/124/46 219/125/46 220/126/46
f 218/124/46 221/127/46 222/128/46 219/125/46
f 180/129/47 181/130/30 193/131/30 192/132/47
f 181/130/30 182/133/48 194/134/48 193/131/30
f 182/135/48 183/136/49 195/137/49 194/138/48
f 183/136/49 184/139/50 196/140/50 195/137/49
f 184/139/50 173/113/43 185/116/43 196/140/50
f 197/141/27 186/142/27 187/143/27 188/144/27
f 197/141/27 188/144/27 189/145/27 190/146/27
f 197/141/27 190/146/27 191/147/27 192/148/27
f 177/149/26 178/150/26 200/151/26 198/152/26
f 190/146/27 189/145/27 199/153/27 201/154/27
f 178/150/26 179/155/26 202/156/26 200/151/26
f 191/147/27 190/146/27 201/154/27 203/157/27
f 204/158/26 174/159/26 173/160/26 184/161/26
f 204/158/26 176/162/26 175/163/26 174/159/26
f 204/158/26 178/150/26 177/149/26 176/162/26
f 204/158/26 180/164/26 179/155/26 178/150/26
f 204/158/26 182/165/26 181/166/26 180/164/26
f 204/158/26 184/161/26 183/167/26 182/165/26
f 197/141/27 196/168/27 185/169/27 186/142/27
f 197/141/27 192/148/27 193/170/27 194/171/27
f 197/141/27 194/171/27 195/172/27 196/168/27
f 202/173/30 179/174/30 191/175/30 203/176/30
f 179/174/51 180/129/47 192/132/47 191/175/51
f 176/121/45 177/177/52 189/178/52 188/122/45
f 177/177/9 198/179/9 199/180/9 189/178/9
f 198/152/26 200/151/26 206/181/53 205/182/54
f 201/154/55 199/153/55 208/183/56 207/184/57
f 199/180/58 198/179/58 205/185/59 208/186/60
f 200/151/26 202/156/26 209/187/54 206/181/53
f 202/173/61 203/176/61 210/188/62 209/189/63
f 203/157/55 201/154/55 207/184/57 210/190/64
f 205/182/54 206/181/53 212/191/65 211/192/65
f 207/184/57 208/183/56 214/193/66 213/194/67
f 208/186/60 205/185/59 211/195/68 214/196/69
f 206/181/53 209/187/54 215/197/65 212/191/65
f 209/189/63 210/188/62 216/198/70 215/199/71
f 210/190/64 207/184/57 213/194/67 216/200/72
f 223/201/73 224/202/9 230/203/9 229/204/74
f 224/205/75 223/206/76 225/207/77 226/208/78
f 226/208/78 225/207/77 231/209/79 232/210/80
f 227/211/81 228/212/82 234/213/83 233/214/84
f 228/212/82 227/211/81 229/215/85 230/216/86
f 232/217/30 231/218/87 233/219/88 234/220/30
f 211/192/89 212/191/89 225/221/77 223/222/76
f 213/194/67 214/193/66 229/223/85 227/224/81
f 214/196/69 211/195/68 223/201/73 229/204/74
f 212/191/89 215/197/89 231/225/79 225/221/77
f 215/199/71 216/198/70 233/219/88 231/218/87
f 216/200/72 213/194/67 227/224/81 233/226/84
f 224/205/75 226/208/78 218/227/90 217/228/90
f 228/212/82 230/216/86 220/229/91 219/230/92
f 230/203/9 224/202/9 217/231/9 220/232/9
f 226/208/78 232/210/80 221/233/90 218/227/90
f 232/217/30 234/220/30 222/234/30 221/235/30
f 234/213/83 228/212/82 219/230/92 222/236/93
