# Blender 4.1.1
# www.blender.org
mtllib MeshLightSwitch_8_0_GeomSubset_1.mtl
o MeshLightSwitch_8_0_GeomSubset_1
v 0.000500 -0.000500 0.000000
v -0.000500 -0.000500 0.000000
v 0.000500 0.000500 0.000000
v -0.000500 0.000500 0.000000
v 0.000500 -0.000500 0.000000
v -0.000500 -0.000500 0.000000
v 0.000500 0.000500 0.000000
v -0.000500 0.000500 0.000000
v 0.000500 -0.000500 0.000000
v -0.000500 -0.000500 0.000000
v 0.000500 0.000500 0.000000
v -0.000500 0.000500 0.000000
v 0.053194 -0.007910 -0.057904
v 0.051082 -0.007910 -0.058779
v 0.051082 -0.010023 -0.057904
v 0.051082 -0.010898 -0.055793
v 0.053194 -0.010023 -0.055793
v 0.054069 -0.007910 -0.055793
v -0.053194 -0.007910 -0.057904
v -0.054069 -0.007910 -0.055793
v -0.053194 -0.010023 -0.055793
v -0.051082 -0.010898 -0.055793
v -0.051082 -0.010023 -0.057904
v -0.051082 -0.007910 -0.058779
v 0.053194 -0.007910 0.057904
v 0.054069 -0.007910 0.055793
v 0.053194 -0.010023 0.055793
v 0.051082 -0.010898 0.055793
v 0.051082 -0.010023 0.057904
v 0.051082 -0.007910 0.058779
v -0.053194 -0.007910 0.057904
v -0.051082 -0.007910 0.058779
v -0.051082 -0.010023 0.057904
v -0.051082 -0.010898 0.055793
v -0.053194 -0.010023 0.055793
v -0.054069 -0.007910 0.055793
v 0.054069 0.000000 0.055793
v 0.053194 0.000000 0.057904
v 0.051082 0.000000 0.058779
v -0.051082 0.000000 0.058779
v -0.053194 0.000000 0.057904
v -0.054069 0.000000 0.055793
v 0.051082 0.000000 -0.058779
v 0.053194 0.000000 -0.057904
v 0.054069 0.000000 -0.055793
v -0.054069 0.000000 -0.055793
v -0.053194 0.000000 -0.057904
v -0.051082 0.000000 -0.058779
v 0.052806 -0.009634 -0.057516
v -0.052806 -0.009634 -0.057516
v 0.052806 -0.009634 0.057516
v -0.052806 -0.009634 0.057516
v -0.001215 -0.010898 0.055793
v -0.001215 -0.010023 0.057904
v -0.001215 -0.007910 0.058779
v -0.001215 0.000000 0.058779
v -0.001215 -0.010898 -0.055793
v -0.001215 -0.010023 -0.057904
v -0.001215 -0.007910 -0.058779
v -0.001215 0.000000 -0.058779
v -0.051082 -0.010898 0.000000
v -0.053194 -0.010023 0.000000
v -0.054069 -0.007910 0.000000
v -0.054069 0.000000 0.000000
v -0.051082 -0.010898 0.027896
v -0.053194 -0.010023 0.027896
v -0.054069 -0.007910 0.027896
v -0.054069 0.000000 0.027896
v -0.051082 -0.010898 -0.027896
v -0.053194 -0.010023 -0.027896
v -0.054069 -0.007910 -0.027896
v -0.054069 0.000000 -0.027896
v 0.051082 -0.010898 0.000000
v 0.053194 -0.010023 0.000000
v 0.054069 -0.007910 0.000000
v 0.054069 0.000000 0.000000
v 0.051082 -0.010898 0.027896
v 0.053194 -0.010023 0.027896
v 0.054069 -0.007910 0.027896
v 0.054069 0.000000 0.027896
v 0.051082 -0.010898 -0.027896
v 0.053194 -0.010023 -0.027896
v 0.054069 -0.007910 -0.027896
v 0.054069 0.000000 -0.027896
v 0.013597 -0.010897 0.014995
v -0.000297 -0.010897 0.018053
v -0.013811 -0.010897 0.014995
v -0.016046 -0.010897 0.008219
v -0.013811 -0.010897 -0.014995
v -0.000297 -0.010897 -0.018053
v 0.013597 -0.010897 -0.014995
v 0.015914 -0.010897 -0.008219
v -0.016570 -0.010897 0.000000
v -0.016046 -0.010897 -0.008219
v 0.016457 -0.010897 0.000000
v 0.015914 -0.010897 0.008219
v -0.007739 -0.010897 0.017436
v -0.026149 -0.010898 0.055793
v -0.026149 -0.010023 0.057904
v -0.026149 -0.007910 0.058779
v -0.026149 0.000000 0.058779
v 0.007305 -0.010897 0.017436
v 0.024934 -0.010898 0.055793
v 0.024934 -0.010023 0.057904
v 0.024934 -0.007910 0.058779
v 0.024934 0.000000 0.058779
v 0.007305 -0.010897 -0.017436
v 0.024934 -0.010898 -0.055793
v 0.024934 -0.010023 -0.057904
v 0.024934 -0.007910 -0.058779
v 0.024934 0.000000 -0.058779
v -0.007739 -0.010897 -0.017436
v -0.026149 -0.010898 -0.055793
v -0.026149 -0.010023 -0.057904
v -0.026149 -0.007910 -0.058779
v -0.026149 0.000000 -0.058779
v 0.012185 -0.010897 0.013444
v 0.014262 -0.010897 0.007369
v -0.000273 -0.010897 0.016186
v 0.006544 -0.010897 0.015632
v -0.012388 -0.010897 0.013444
v -0.006945 -0.010897 0.015632
v -0.014392 -0.010897 0.007369
v -0.014862 -0.010897 0.000000
v -0.012388 -0.010897 -0.013444
v -0.014392 -0.010897 -0.007369
v -0.000273 -0.010897 -0.016186
v -0.006945 -0.010897 -0.015632
v 0.012185 -0.010897 -0.013444
v 0.006544 -0.010897 -0.015632
v 0.014262 -0.010897 -0.007369
v 0.014749 -0.010897 0.000000
v 0.013597 -0.012213 0.014995
v 0.013123 -0.012809 0.014539
v 0.015914 -0.012213 0.008219
v 0.015324 -0.012809 0.008101
v -0.000297 -0.012213 0.018053
v -0.000297 -0.012809 0.017455
v 0.007305 -0.012213 0.017436
v 0.007171 -0.012809 0.016849
v -0.013811 -0.012213 0.014995
v -0.013331 -0.012809 0.014545
v -0.007739 -0.012213 0.017436
v -0.007600 -0.012809 0.016849
v -0.016046 -0.012213 0.008219
v -0.015456 -0.012809 0.008105
v -0.016570 -0.012213 0.000000
v -0.015973 -0.012809 0.000000
v -0.013811 -0.012213 -0.014995
v -0.013331 -0.012809 -0.014545
v -0.016046 -0.012213 -0.008219
v -0.015456 -0.012809 -0.008105
v -0.000297 -0.012213 -0.018053
v -0.000297 -0.012809 -0.017455
v -0.007739 -0.012213 -0.017436
v -0.007600 -0.012809 -0.016849
v 0.013597 -0.012213 -0.014995
v 0.013123 -0.012809 -0.014539
v 0.007305 -0.012213 -0.017436
v 0.007171 -0.012809 -0.016848
v 0.015914 -0.012213 -0.008219
v 0.015324 -0.012809 -0.008101
v 0.016457 -0.012213 0.000000
v 0.015859 -0.012809 0.000000
v 0.012659 -0.012809 0.013900
v 0.012185 -0.012213 0.013444
v 0.014852 -0.012809 0.007487
v 0.014262 -0.012213 0.007369
v -0.000273 -0.012809 0.016784
v -0.000273 -0.012213 0.016186
v 0.006679 -0.012809 0.016220
v 0.006544 -0.012213 0.015632
v -0.012868 -0.012809 0.013894
v -0.012388 -0.012213 0.013444
v -0.007084 -0.012809 0.016220
v -0.006945 -0.012213 0.015632
v -0.014983 -0.012809 0.007483
v -0.014392 -0.012213 0.007369
v -0.015460 -0.012809 0.000000
v -0.014862 -0.012213 0.000000
v -0.012868 -0.012809 -0.013894
v -0.012388 -0.012213 -0.013444
v -0.014983 -0.012809 -0.007483
v -0.014392 -0.012213 -0.007369
v -0.000273 -0.012809 -0.016784
v -0.000273 -0.012213 -0.016186
v -0.007084 -0.012809 -0.016219
v -0.006945 -0.012213 -0.015632
v 0.012659 -0.012809 -0.013899
v 0.012185 -0.012213 -0.013444
v 0.006679 -0.012809 -0.016220
v 0.006544 -0.012213 -0.015632
v 0.014852 -0.012809 -0.007487
v 0.014262 -0.012213 -0.007369
v 0.015347 -0.012809 0.000000
v 0.014749 -0.012213 0.000000
vn -0.0000 -0.0000 -1.0000
vt 1.271059 0.742956
vt 1.271059 0.741083
vt 1.272932 0.741083
vt 1.272932 0.742956
s 1
usemtl M_LightSwitch_8_1
f 5/1/1 6/2/1 8/3/1 7/4/1
