# Blender 4.1.0
# www.blender.org
mtllib ToiletPaperHanger_5_ToiletPaperHanger_5_0.mtl
o ToiletPaperHanger_5
v 0.086187 -0.065021 0.005747
v 0.086187 -0.061765 0.010620
v 0.086187 -0.056893 0.013875
v 0.086187 -0.051146 0.015018
v 0.086187 -0.045399 0.013875
v 0.086187 -0.040526 0.010620
v 0.086187 -0.037271 0.005747
v 0.086187 -0.036127 -0.000000
v 0.086187 -0.037271 -0.005747
v 0.086187 -0.040526 -0.010620
v 0.086187 -0.045399 -0.013875
v 0.086187 -0.051146 -0.015018
v 0.086187 -0.056893 -0.013875
v 0.086187 -0.061765 -0.010620
v 0.086187 -0.065021 -0.005747
v 0.086187 -0.066164 -0.000000
v -0.080241 -0.078925 0.010663
v -0.080241 -0.072885 0.019703
v -0.080241 -0.063844 0.025743
v -0.080241 -0.053182 0.027864
v -0.080241 -0.053182 -0.027864
v -0.080241 -0.063844 -0.025743
v -0.080241 -0.072885 -0.019703
v -0.080241 -0.078925 -0.010663
v -0.080241 -0.081045 -0.000000
v -0.080241 -0.053182 -0.000000
v 0.086187 -0.051146 -0.000000
v -0.062880 -0.063844 0.025743
v 0.081174 -0.056893 0.013875
v 0.081174 -0.061765 0.010620
v -0.062880 -0.072885 0.019703
v 0.081174 -0.065021 0.005747
v -0.062880 -0.078925 0.010663
v 0.081174 -0.066164 -0.000000
v -0.062880 -0.081045 -0.000000
v 0.081174 -0.065021 -0.005747
v -0.062880 -0.078925 -0.010663
v 0.081174 -0.061765 -0.010620
v -0.062880 -0.072885 -0.019703
v 0.081174 -0.056893 -0.013875
v -0.062880 -0.063844 -0.025743
v 0.081174 -0.051146 -0.015018
v -0.062880 -0.053182 -0.027864
v 0.081174 -0.045399 -0.013875
v 0.081174 -0.040526 -0.010620
v 0.081174 -0.037271 -0.005747
v 0.081174 -0.036127 -0.000000
v 0.081174 -0.037271 0.005747
v 0.081174 -0.040526 0.010620
v 0.081174 -0.045399 0.013875
v 0.081174 -0.051146 0.015018
v -0.062880 -0.053182 0.027864
v -0.062880 -0.055613 0.010783
v 0.081174 -0.055613 0.010783
v 0.081174 -0.051146 0.011671
v -0.062880 -0.051146 0.011671
v -0.062880 -0.059399 0.008253
v 0.081174 -0.059399 0.008253
v -0.062880 -0.061929 0.004466
v 0.081174 -0.061929 0.004467
v -0.062880 -0.062817 -0.000000
v 0.081174 -0.062817 -0.000000
v -0.062880 -0.061929 -0.004466
v 0.081174 -0.061929 -0.004467
v -0.062880 -0.059399 -0.008253
v 0.081174 -0.059399 -0.008253
v -0.062880 -0.055613 -0.010783
v 0.081174 -0.055613 -0.010783
v -0.062880 -0.051146 -0.011671
v 0.081174 -0.051146 -0.011671
v -0.062880 -0.046680 -0.010783
v 0.081174 -0.046680 -0.010783
v -0.062880 -0.042893 -0.008253
v 0.081174 -0.042893 -0.008253
v -0.062880 -0.040363 -0.004466
v 0.081174 -0.040363 -0.004467
v -0.062880 -0.039474 -0.000000
v 0.081174 -0.039474 -0.000000
v -0.062880 -0.040363 0.004466
v 0.081174 -0.040363 0.004467
v -0.062880 -0.042893 0.008253
v 0.081174 -0.042893 0.008253
v -0.062880 -0.046680 0.010783
v 0.081174 -0.046680 0.010783
v -0.080241 0.043056 0.027864
v -0.080241 0.043056 -0.000000
v -0.080241 0.043056 -0.027864
v -0.062880 0.043055 -0.027864
v -0.062880 0.043055 0.027864
v -0.062880 0.043056 -0.000000
v -0.107331 0.043056 0.047311
v -0.107331 0.043056 -0.000000
v -0.107331 0.043055 -0.047311
v 0.107334 0.043055 -0.047311
v 0.107334 0.043055 0.047311
v 0.107335 0.043056 -0.000000
v -0.107331 0.053100 0.047311
v -0.107331 0.053100 -0.000000
v -0.107331 0.053100 -0.047311
v 0.107334 0.053099 -0.047311
v 0.107334 0.053099 0.047311
v 0.107334 0.053100 -0.000000
v -0.105675 0.043056 -0.050903
v 0.105678 0.043055 -0.050903
v -0.105675 0.053100 -0.050903
v 0.105678 0.053099 -0.050903
v -0.101597 0.043056 -0.052995
v 0.101600 0.043055 -0.052995
v -0.101597 0.053100 -0.052995
v 0.101601 0.053100 -0.052995
vn -1.0000 -0.0000 -0.0000
vn 1.0000 -0.0000 -0.0000
vn -0.0000 -0.3827 0.9239
vn -0.0000 -0.0000 1.0000
vn -0.0000 -0.7071 0.7071
vn -0.0000 -0.9239 0.3827
vn -0.0000 -1.0000 -0.0000
vn -0.0000 -0.9239 -0.3827
vn -0.0000 -0.7071 -0.7071
vn -0.0000 -0.3827 -0.9239
vn -0.0000 -0.0000 -1.0000
vn -0.0000 0.3826 -0.9239
vn -0.0000 0.7071 -0.7071
vn -0.0000 0.9239 -0.3827
vn -0.0000 1.0000 -0.0000
vn -0.0000 0.9239 0.3827
vn -0.0000 0.7071 0.7071
vn -0.0000 0.3826 0.9239
vn -0.0000 0.3827 0.9239
vn -0.0000 0.3827 -0.9239
vn -0.0000 -0.0199 -0.9998
vn -0.0000 -0.0199 0.9998
vn -0.9995 -0.0000 -0.0325
vn 0.0101 -0.0000 -0.9999
vn -0.0102 -0.0000 -0.9999
vn -0.0101 -0.0000 -0.9999
vn 0.9995 -0.0000 -0.0326
vn -0.0000 -1.0000 -0.0002
vn -0.7040 -0.0000 -0.7102
vn 0.7040 -0.0000 -0.7102
vn -0.0000 -1.0000 0.0002
vn -0.0000 1.0000 0.0002
vt 0.810746 0.151532
vt 0.849228 0.113049
vt 0.861025 0.130706
vt 0.865168 0.151532
vt 0.756324 0.151532
vt 0.760467 0.130706
vt 0.772264 0.113049
vt 0.789920 0.101252
vt 0.810746 0.097110
vt 0.831572 0.101252
vt 0.529383 0.560716
vt 0.558716 0.560716
vt 0.556483 0.571940
vt 0.550124 0.581456
vt 0.550124 0.539974
vt 0.556483 0.549491
vt 0.529383 0.531381
vt 0.540608 0.533616
vt 0.508641 0.539974
vt 0.518158 0.533615
vt 0.500050 0.560716
vt 0.502283 0.549491
vt 0.508641 0.581456
vt 0.502283 0.571940
vt 0.529383 0.590048
vt 0.518158 0.587815
vt 0.540608 0.587815
vt 0.499676 0.411448
vt 0.499676 0.094753
vt 0.509496 0.094753
vt 0.509496 0.411448
vt 0.491353 0.411448
vt 0.491353 0.094753
vt 0.485790 0.411448
vt 0.485790 0.094753
vt 0.578129 0.111052
vt 0.578128 0.395150
vt 0.569320 0.395150
vt 0.569320 0.111052
vt 0.560511 0.395150
vt 0.560511 0.111052
vt 0.654036 0.094752
vt 0.654036 0.411449
vt 0.648473 0.411449
vt 0.648473 0.094752
vt 0.640149 0.411449
vt 0.640149 0.094752
vt 0.630330 0.411449
vt 0.630330 0.094752
vt 0.620510 0.411449
vt 0.620510 0.094752
vt 0.612186 0.411449
vt 0.612186 0.094752
vt 0.606625 0.411449
vt 0.606625 0.094752
vt 0.698964 0.111049
vt 0.698964 0.395153
vt 0.690155 0.395153
vt 0.690155 0.111049
vt 0.681346 0.395153
vt 0.681346 0.111049
vt 0.533201 0.094753
vt 0.533201 0.411448
vt 0.527640 0.411448
vt 0.527640 0.094753
vt 0.519315 0.411448
vt 0.519315 0.094753
vt 0.333102 0.772519
vt 0.333102 0.779677
vt 0.322079 0.779677
vt 0.322079 0.772519
vt 0.333102 0.790389
vt 0.322079 0.790389
vt 0.333102 0.803023
vt 0.322079 0.803023
vt 0.333102 0.815659
vt 0.322080 0.815659
vt 0.333102 0.826371
vt 0.322080 0.826371
vt 0.333102 0.833529
vt 0.322080 0.833529
vt 0.242222 0.763340
vt 0.242222 0.774674
vt 0.232335 0.774674
vt 0.232335 0.763340
vt 0.242222 0.786008
vt 0.232335 0.786008
vt 0.356725 0.772522
vt 0.356725 0.779679
vt 0.345703 0.779679
vt 0.345703 0.772522
vt 0.356725 0.790391
vt 0.345703 0.790391
vt 0.356724 0.803025
vt 0.345703 0.803025
vt 0.356724 0.815659
vt 0.345703 0.815659
vt 0.356724 0.826370
vt 0.345703 0.826370
vt 0.356724 0.833527
vt 0.345703 0.833527
vt 0.218599 0.763340
vt 0.218599 0.774674
vt 0.208711 0.774674
vt 0.208712 0.763340
vt 0.218599 0.786009
vt 0.208712 0.786009
vt 0.784636 0.541164
vt 0.784636 0.559311
vt 0.749787 0.559311
vt 0.749787 0.541164
vt 0.784636 0.529039
vt 0.749787 0.529039
vt 0.299553 0.791822
vt 0.299553 0.812851
vt 0.265316 0.812851
vt 0.265316 0.791822
vt 0.299553 0.770792
vt 0.265316 0.770792
vt 0.717947 0.831374
vt 0.717947 0.843499
vt 0.683098 0.843499
vt 0.683098 0.831374
vt 0.717947 0.813226
vt 0.683098 0.813226
vt 0.717947 0.791822
vt 0.683098 0.791822
vt 0.784636 0.580715
vt 0.749787 0.580715
vt 0.445576 0.795787
vt 0.447809 0.807011
vt 0.441272 0.807011
vt 0.439538 0.798288
vt 0.955238 0.721939
vt 0.951095 0.742765
vt 0.921876 0.726688
vt 0.923612 0.717964
vt 0.939298 0.760422
vt 0.916935 0.734083
vt 0.439218 0.786272
vt 0.434596 0.790893
vt 0.921642 0.772219
vt 0.909539 0.739024
vt 0.429702 0.779913
vt 0.427201 0.785951
vt 0.900816 0.776361
vt 0.900816 0.740759
vt 0.418478 0.777680
vt 0.418478 0.784217
vt 0.879990 0.772219
vt 0.892092 0.739024
vt 0.407253 0.779913
vt 0.409754 0.785951
vt 0.862334 0.760422
vt 0.884697 0.734083
vt 0.397737 0.786272
vt 0.402359 0.790893
vt 0.850537 0.742765
vt 0.879755 0.726688
vt 0.391379 0.795787
vt 0.397417 0.798288
vt 0.846394 0.721939
vt 0.878020 0.717964
vt 0.389146 0.807011
vt 0.395683 0.807011
vt 0.391379 0.818236
vt 0.397417 0.815735
vt 0.397737 0.827752
vt 0.402359 0.823130
vt 0.407253 0.834111
vt 0.409754 0.828070
vt 0.418478 0.836345
vt 0.418478 0.829807
vt 0.429702 0.834110
vt 0.427201 0.828071
vt 0.439218 0.827752
vt 0.434596 0.823130
vt 0.445576 0.818236
vt 0.439538 0.815735
vt 0.865168 0.339495
vt 0.810746 0.339495
vt 0.756324 0.339495
vt 0.683098 0.598636
vt 0.717947 0.598637
vt 0.784636 0.773900
vt 0.749787 0.773901
vt 0.846394 0.533978
vt 0.879755 0.709240
vt 0.884697 0.701845
vt 0.892092 0.696904
vt 0.900816 0.695168
vt 0.900816 0.533977
vt 0.909539 0.696904
vt 0.955238 0.533978
vt 0.916935 0.701845
vt 0.921876 0.709240
vt 0.182481 0.532974
vt 0.236903 0.532974
vt 0.274885 0.585885
vt 0.182481 0.585885
vt 0.128059 0.532974
vt 0.090077 0.585885
vt 0.128059 0.499067
vt 0.090077 0.166617
vt 0.236903 0.499067
vt 0.274885 0.166617
vt 0.182481 0.499067
vt 0.182481 0.166616
vt 0.656420 0.683133
vt 0.656420 0.775708
vt 0.636765 0.775708
vt 0.636765 0.683133
vt 0.656420 0.590558
vt 0.636765 0.590558
vt 0.456359 0.171564
vt 0.456359 0.569380
vt 0.436693 0.569381
vt 0.436695 0.171564
vt 0.366554 0.585884
vt 0.366554 0.166615
vt 0.386171 0.166615
vt 0.386172 0.585883
vt 0.595594 0.683133
vt 0.595593 0.590559
vt 0.615247 0.590559
vt 0.615249 0.683133
vt 0.595594 0.775708
vt 0.615247 0.775708
vt 0.083060 0.582649
vt 0.083061 0.169852
vt 0.636765 0.583528
vt 0.656419 0.583528
vt 0.406085 0.585884
vt 0.406085 0.166614
vt 0.413101 0.169850
vt 0.413101 0.582650
vt 0.595594 0.583529
vt 0.615247 0.583529
vt 0.078975 0.574685
vt 0.078975 0.177816
vt 0.456358 0.577363
vt 0.436694 0.577364
vt 0.417187 0.177813
vt 0.417187 0.574686
vt 0.436695 0.163582
vt 0.456359 0.163581
s 1
usemtl M_ToiletPaperHanger_5_0
f 26/1/1 18/2/1 19/3/1 20/4/1
f 26/1/1 21/5/1 22/6/1 23/7/1
f 26/1/1 23/7/1 24/8/1 25/9/1
f 26/1/1 25/9/1 17/10/1 18/2/1
f 27/11/2 4/12/2 3/13/2 2/14/2
f 27/11/2 6/15/2 5/16/2 4/12/2
f 27/11/2 8/17/2 7/18/2 6/15/2
f 27/11/2 10/19/2 9/20/2 8/17/2
f 27/11/2 12/21/2 11/22/2 10/19/2
f 27/11/2 14/23/2 13/24/2 12/21/2
f 27/11/2 16/25/2 15/26/2 14/23/2
f 27/11/2 2/14/2 1/27/2 16/25/2
f 53/28/3 54/29/3 55/30/4 56/31/4
f 54/29/3 53/28/3 57/32/5 58/33/5
f 58/33/5 57/32/5 59/34/6 60/35/6
f 60/36/6 59/37/6 61/38/7 62/39/7
f 62/39/7 61/38/7 63/40/8 64/41/8
f 64/42/8 63/43/8 65/44/9 66/45/9
f 66/45/9 65/44/9 67/46/10 68/47/10
f 68/47/10 67/46/10 69/48/11 70/49/11
f 70/49/11 69/48/11 71/50/12 72/51/12
f 72/51/12 71/50/12 73/52/13 74/53/13
f 74/53/13 73/52/13 75/54/14 76/55/14
f 76/56/14 75/57/14 77/58/15 78/59/15
f 78/59/15 77/58/15 79/60/16 80/61/16
f 80/62/16 79/63/16 81/64/17 82/65/17
f 82/65/17 81/64/17 83/66/18 84/67/19
f 84/67/19 83/66/18 56/31/4 55/30/4
f 1/68/6 2/69/5 30/70/5 32/71/6
f 2/69/5 3/72/3 29/73/3 30/70/5
f 3/72/3 4/74/4 51/75/4 29/73/3
f 4/74/4 5/76/19 50/77/19 51/75/4
f 5/76/19 6/78/17 49/79/17 50/77/19
f 6/78/17 7/80/16 48/81/16 49/79/17
f 7/82/16 8/83/15 47/84/15 48/85/16
f 8/83/15 9/86/14 46/87/14 47/84/15
f 9/88/14 10/89/13 45/90/13 46/91/14
f 10/89/13 11/92/20 44/93/20 45/90/13
f 11/92/20 12/94/11 42/95/11 44/93/20
f 12/94/11 13/96/10 40/97/10 42/95/11
f 13/96/10 14/98/9 38/99/9 40/97/10
f 14/98/9 15/100/8 36/101/8 38/99/9
f 15/102/8 16/103/7 34/104/7 36/105/8
f 16/103/7 1/106/6 32/107/6 34/104/7
f 31/108/5 28/109/3 19/110/3 18/111/5
f 33/112/6 31/108/5 18/111/5 17/113/6
f 35/114/7 33/115/6 17/116/6 25/117/7
f 37/118/8 35/114/7 25/117/7 24/119/8
f 39/120/9 37/121/8 24/122/8 23/123/9
f 41/124/10 39/120/9 23/123/9 22/125/10
f 43/126/21 41/124/10 22/125/10 21/127/21
f 28/109/3 52/128/22 20/129/22 19/110/3
f 29/130/1 51/131/1 55/132/1 54/133/1
f 52/134/2 28/135/2 53/136/2 56/137/2
f 28/135/2 31/138/2 57/139/2 53/136/2
f 30/140/1 29/130/1 54/133/1 58/141/1
f 31/138/2 33/142/2 59/143/2 57/139/2
f 32/144/1 30/140/1 58/141/1 60/145/1
f 33/142/2 35/146/2 61/147/2 59/143/2
f 34/148/1 32/144/1 60/145/1 62/149/1
f 35/146/2 37/150/2 63/151/2 61/147/2
f 36/152/1 34/148/1 62/149/1 64/153/1
f 37/150/2 39/154/2 65/155/2 63/151/2
f 38/156/1 36/152/1 64/153/1 66/157/1
f 39/154/2 41/158/2 67/159/2 65/155/2
f 40/160/1 38/156/1 66/157/1 68/161/1
f 41/158/2 43/162/2 69/163/2 67/159/2
f 42/164/1 40/160/1 68/161/1 70/165/1
f 44/166/1 42/164/1 70/165/1 72/167/1
f 45/168/1 44/166/1 72/167/1 74/169/1
f 46/170/1 45/168/1 74/169/1 76/171/1
f 47/172/1 46/170/1 76/171/1 78/173/1
f 48/174/1 47/172/1 78/173/1 80/175/1
f 49/176/1 48/174/1 80/175/1 82/177/1
f 50/178/1 49/176/1 82/177/1 84/179/1
f 51/131/1 50/178/1 84/179/1 55/132/1
f 26/1/1 20/4/1 85/180/1 86/181/1
f 21/5/1 26/1/1 86/181/1 87/182/1
f 43/126/21 21/127/21 87/183/11 88/184/11
f 20/129/22 52/128/22 89/185/4 85/186/4
f 88/187/2 71/188/2 69/163/2 43/162/2
f 73/189/2 71/188/2 88/187/2
f 75/190/2 73/189/2 88/187/2
f 77/191/2 75/190/2 88/187/2 90/192/2
f 79/193/2 77/191/2 90/192/2 89/194/2
f 81/195/2 79/193/2 89/194/2
f 83/196/2 81/195/2 89/194/2
f 89/194/2 52/134/2 56/137/2 83/196/2
f 86/197/7 85/198/7 91/199/7 92/200/7
f 87/201/7 86/197/7 92/200/7 93/202/7
f 88/203/7 87/201/7 93/202/7 94/204/7
f 85/198/7 89/205/7 95/206/7 91/199/7
f 90/207/7 88/203/7 94/204/7 96/208/7
f 89/205/7 90/207/7 96/208/7 95/206/7
f 92/209/1 91/210/1 97/211/1 98/212/1
f 93/213/23 92/209/1 98/212/1 99/214/23
f 108/215/24 107/216/25 109/217/26 110/218/24
f 91/219/4 95/220/4 101/221/4 97/222/4
f 96/223/2 94/224/27 100/225/27 102/226/2
f 95/227/2 96/223/2 102/226/2 101/228/2
f 94/204/28 93/202/28 103/229/28 104/230/28
f 93/213/23 99/214/23 105/231/29 103/232/29
f 99/233/15 100/234/15 106/235/15 105/236/15
f 100/225/27 94/224/27 104/237/30 106/238/30
f 104/230/31 103/229/31 107/239/31 108/240/31
f 103/241/29 105/242/29 109/217/26 107/216/25
f 105/236/32 106/235/32 110/243/32 109/244/32
f 106/245/30 104/246/30 108/215/24 110/218/24
