# Blender 4.1.0
# www.blender.org
mtllib MeshWindowHung_48X32_0_GeomSubset_1.mtl
o MeshWindowHung_48X32_0_GeomSubset_1
v -0.609600 0.040624 -0.380264
v 0.609600 0.040626 -0.380264
v -0.609600 0.040624 0.432506
v 0.609600 0.040626 0.432506
v -0.609600 -0.040626 -0.380264
v -0.609600 -0.040626 0.432506
v 0.609600 -0.040624 0.432506
v 0.609600 -0.040624 -0.380264
v -0.634836 0.120779 -0.380264
v 0.634836 0.120780 -0.380264
v 0.634836 -0.120779 -0.380264
v -0.634836 -0.120780 -0.380264
v -0.634836 0.092218 -0.435304
v -0.634836 0.120779 -0.398538
v 0.634836 -0.092217 -0.435304
v 0.634836 -0.120779 -0.398538
v -0.634836 -0.092219 -0.435304
v -0.634836 -0.120780 -0.398538
v 0.634836 0.092219 -0.435304
v 0.634836 0.120780 -0.398538
v -0.543864 0.040624 0.366740
v -0.543864 0.040624 -0.313853
v -0.543864 -0.040625 0.366740
v -0.543864 -0.040625 -0.313853
v 0.543864 0.040626 0.366740
v 0.543864 -0.040624 0.366740
v 0.543864 -0.040624 -0.313853
v 0.543864 0.040626 -0.313853
v -0.543864 0.031819 0.366740
v -0.543864 0.031819 -0.313853
v -0.543864 -0.031820 0.366740
v -0.543864 -0.031820 -0.313853
v 0.543864 0.031820 0.366740
v 0.543864 -0.031819 0.366740
v 0.543864 -0.031819 -0.313853
v 0.543864 0.031820 -0.313853
v -0.566703 0.031819 0.390013
v -0.566703 0.031819 -0.380264
v -0.566703 -0.031820 0.390013
v -0.566703 -0.031820 -0.380264
v 0.566703 0.031820 0.390013
v 0.566703 -0.031819 0.390013
v 0.566703 -0.031819 -0.380264
v 0.566703 0.031820 -0.380264
v 0.566209 0.000022 -0.010434
v -0.566536 0.000020 -0.010434
v 0.566209 0.000022 0.389633
v -0.566536 0.000020 0.389633
v 0.566209 -0.031843 0.389633
v -0.566536 -0.031844 0.389633
v 0.566209 -0.031843 -0.010434
v -0.566536 -0.031844 -0.010434
v 0.566209 0.000022 -0.010434
v -0.566536 0.000020 -0.010434
v -0.566536 0.000020 0.389633
v 0.566209 0.000022 0.389633
v 0.566209 -0.031843 0.389633
v -0.566536 -0.031844 0.389633
v -0.566536 -0.031844 -0.010434
v 0.566209 -0.031843 -0.010434
v 0.566209 0.000022 -0.010434
v -0.566536 0.000020 -0.010434
v -0.566536 0.000020 0.389633
v 0.566209 0.000022 0.389633
v 0.566209 -0.031843 0.389633
v -0.566536 -0.031844 0.389633
v -0.566536 -0.031844 -0.010434
v 0.566209 -0.031843 -0.010434
v 0.527629 0.000022 0.029031
v -0.527957 0.000021 0.029031
v -0.527957 0.000021 0.350168
v 0.527629 0.000022 0.350168
v 0.527629 -0.031843 0.350168
v -0.527957 -0.031844 0.350168
v -0.527957 -0.031844 0.029031
v 0.527629 -0.031843 0.029031
v 0.566209 0.031705 -0.380312
v -0.566536 0.031704 -0.380312
v 0.566209 0.031705 0.029031
v -0.566536 0.031704 0.029031
v 0.566209 -0.000160 0.029031
v -0.566536 -0.000161 0.029031
v 0.566209 -0.000160 -0.380312
v -0.566536 -0.000161 -0.380312
v 0.566209 0.031705 -0.380312
v -0.566536 0.031704 -0.380312
v -0.566536 0.031704 0.029031
v 0.566209 0.031705 0.029031
v 0.566209 -0.000160 0.029031
v -0.566536 -0.000161 0.029031
v -0.566536 -0.000161 -0.380312
v 0.566209 -0.000160 -0.380312
v 0.566209 0.031705 -0.380312
v -0.566536 0.031704 -0.380312
v -0.566536 0.031704 0.029031
v 0.566209 0.031705 0.029031
v 0.566209 -0.000160 0.029031
v -0.566536 -0.000161 0.029031
v -0.566536 -0.000161 -0.380312
v 0.566209 -0.000160 -0.380312
v 0.527629 0.031705 -0.297709
v -0.527957 0.031704 -0.297709
v -0.527957 0.031704 -0.010434
v 0.527629 0.031705 -0.010434
v 0.527629 -0.000160 -0.010434
v -0.527957 -0.000161 -0.010434
v -0.527957 -0.000161 -0.297709
v 0.527629 -0.000160 -0.297709
v 0.527629 -0.010460 0.029031
v -0.527957 -0.010461 0.029031
v -0.527957 -0.010461 0.350168
v 0.527629 -0.010460 0.350168
v 0.527629 -0.019734 0.350168
v -0.527957 -0.019735 0.350168
v -0.527957 -0.019735 0.029031
v 0.527629 -0.019734 0.029031
v 0.527629 0.020216 -0.297709
v -0.527957 0.020214 -0.297709
v -0.527957 0.020214 -0.010434
v 0.527629 0.020216 -0.010434
v 0.527629 0.010941 -0.010434
v -0.527957 0.010940 -0.010434
v -0.527957 0.010940 -0.297709
v 0.527629 0.010941 -0.297709
v 0.029656 0.022278 0.027871
v -0.030385 0.022278 0.027871
v 0.020632 0.022278 0.046174
v -0.021360 0.022278 0.046174
v 0.020632 -0.000182 0.046174
v -0.021360 -0.000182 0.046174
v 0.029656 -0.000182 0.027871
v -0.030385 -0.000182 0.027871
v 0.025334 0.022278 0.042724
v 0.025334 -0.000182 0.042724
v -0.026063 -0.000182 0.042724
v -0.026063 0.022278 0.042724
v 0.028085 0.022278 0.037025
v 0.028085 -0.000182 0.037025
v -0.028813 -0.000182 0.037025
v -0.028813 0.022278 0.037025
v -0.048111 -0.000182 0.027871
v -0.048111 0.022278 0.027871
v 0.047383 -0.000182 0.027871
v 0.047383 0.022278 0.027871
v -0.046361 -0.000182 0.034279
v -0.042765 -0.000182 0.037025
v -0.046361 0.022278 0.034279
v -0.042765 0.022278 0.037025
v 0.045633 0.022278 0.034279
v 0.042036 0.022278 0.037025
v 0.045633 -0.000182 0.034279
v 0.042036 -0.000182 0.037025
v -0.042765 0.022278 0.027871
v -0.042765 -0.000182 0.027871
v 0.042036 -0.000182 0.027871
v 0.042036 0.022278 0.027871
v 0.026856 0.026896 0.027871
v -0.027585 0.026896 0.027871
v -0.026159 0.026896 0.037025
v 0.025431 0.026896 0.037025
v -0.023665 0.026896 0.041359
v 0.022937 0.026896 0.041359
v -0.019402 0.026896 0.043571
v 0.018673 0.026896 0.043571
v -0.020855 0.024770 0.045396
v -0.025444 0.024770 0.042566
v -0.028128 0.024770 0.037025
v -0.029662 0.024770 0.027871
v 0.028933 0.024770 0.027871
v 0.027399 0.024770 0.037025
v 0.024715 0.024770 0.042566
v 0.020126 0.024770 0.045396
v -0.006939 0.008298 0.046160
v -0.004160 0.005519 0.046160
v -0.000364 0.004502 0.046160
v 0.003432 0.005519 0.046160
v 0.006211 0.008298 0.046160
v 0.007228 0.012094 0.046160
v 0.006211 0.015890 0.046160
v 0.003432 0.018669 0.046160
v -0.000364 0.019686 0.046160
v -0.004160 0.018669 0.046160
v -0.006939 0.015890 0.046160
v -0.007957 0.012094 0.046160
v -0.006939 0.008298 0.050862
v -0.004160 0.005519 0.050862
v -0.000364 0.004502 0.050862
v 0.003432 0.005519 0.050862
v 0.006211 0.008298 0.050862
v 0.007228 0.012094 0.050862
v 0.006211 0.015890 0.050862
v 0.003432 0.018669 0.050862
v -0.000364 0.019686 0.050862
v -0.004160 0.018669 0.050862
v -0.006939 0.015890 0.050862
v -0.007957 0.012094 0.050862
v -0.000364 0.012094 0.050862
v 0.018775 0.008298 0.046160
v 0.018775 0.008298 0.050862
v 0.018775 0.012094 0.046160
v 0.018775 0.012094 0.050862
v 0.018775 0.015890 0.046160
v 0.018775 0.015890 0.050862
v -0.000364 0.012094 0.046160
v 0.028532 0.010102 0.046160
v 0.028532 0.012094 0.046160
v 0.028532 0.012094 0.051588
v 0.028532 0.010102 0.051588
v 0.028532 0.014086 0.046160
v 0.028532 0.014086 0.051588
v 0.034482 0.010693 0.045028
v 0.034482 0.012094 0.045028
v 0.036532 0.012094 0.051588
v 0.036532 0.010693 0.051588
v 0.034482 0.013495 0.045028
v 0.036532 0.013495 0.051588
v 0.040075 0.010927 0.037501
v 0.040075 0.012094 0.037501
v 0.052114 0.012094 0.037451
v 0.052114 0.010927 0.037451
v 0.040075 0.013261 0.037501
v 0.052114 0.013261 0.037451
v 0.037182 0.010927 0.043525
v 0.039363 0.010927 0.040235
v 0.037183 0.012094 0.043525
v 0.039363 0.012094 0.040236
v 0.045337 0.012094 0.049327
v 0.050485 0.012094 0.043883
v 0.045318 0.010927 0.049329
v 0.050486 0.010927 0.043865
v 0.037183 0.013261 0.043525
v 0.039363 0.013261 0.040236
v 0.045318 0.013261 0.049329
v 0.050486 0.013261 0.043865
vn -1.0000 -0.0000 -0.0000
vn -0.0000 -0.0000 1.0000
vn 1.0000 -0.0000 -0.0000
vn -0.0000 -0.0000 -1.0000
vn -0.0000 1.0000 -0.0000
vn -0.0000 -1.0000 -0.0000
vt -17.868196 2.999043
vt -17.860950 2.999043
vt -17.860950 3.249958
vt -17.868196 3.249958
vt -21.927919 0.096739
vt -21.920675 0.096739
vt -21.920675 0.921383
vt -21.927919 0.921383
vt -17.921892 3.249914
vt -17.929136 3.249914
vt -17.929136 2.999086
vt -17.921892 2.999086
vt -21.981619 0.921379
vt -21.988863 0.921379
vt -21.988863 0.096745
vt -21.981619 0.096745
vt -22.472914 0.096724
vt -22.222025 0.096724
vt -22.222025 0.921399
vt -22.472914 0.921399
vt -22.806734 2.164295
vt -22.555845 2.164295
vt -22.555845 2.988970
vt -22.806734 2.988970
vt -18.199259 2.979585
vt -18.192015 2.979585
vt -18.192015 3.203987
vt -18.199259 3.203987
vt -22.315170 2.164337
vt -22.307924 2.164337
vt -22.307924 2.988927
vt -22.315170 2.988927
vt -18.252954 3.204019
vt -18.260201 3.204019
vt -18.260201 2.979553
vt -18.252954 2.979553
vt -22.239592 2.988917
vt -22.246836 2.988917
vt -22.246836 2.164347
vt -22.239592 2.164347
vt -22.018524 2.164293
vt -21.794090 2.164293
vt -21.794090 2.988971
vt -22.018524 2.988971
vt -21.417194 2.215857
vt -21.192760 2.215857
vt -21.192760 3.040535
vt -21.417194 3.040535
s 1
usemtl M_WindowHung_48X32_1
f 110/1/1 115/2/1 114/3/1 111/4/1
f 111/5/2 114/6/2 113/7/2 112/8/2
f 112/9/3 113/10/3 116/11/3 109/12/3
f 109/13/4 116/14/4 115/15/4 110/16/4
f 110/17/5 111/18/5 112/19/5 109/20/5
f 114/21/6 115/22/6 116/23/6 113/24/6
f 118/25/1 123/26/1 122/27/1 119/28/1
f 119/29/2 122/30/2 121/31/2 120/32/2
f 120/33/3 121/34/3 124/35/3 117/36/3
f 117/37/4 124/38/4 123/39/4 118/40/4
f 118/41/5 119/42/5 120/43/5 117/44/5
f 122/45/6 123/46/6 124/47/6 121/48/6
