# Blender 4.1.0
# www.blender.org
mtllib MeshTelevision_20_0_GeomSubset_4.mtl
o MeshTelevision_20_0_GeomSubset_4
v -0.000799 -0.032675 0.038808
v 0.000799 -0.032675 0.038808
v -0.000799 -0.031077 0.038808
v 0.000799 -0.031077 0.038808
v -0.000799 -0.032675 0.038808
v 0.000799 -0.032675 0.038808
v -0.000799 -0.031077 0.038808
v 0.000799 -0.031077 0.038808
v -0.000799 -0.032675 0.038808
v 0.000799 -0.032675 0.038808
v -0.000799 -0.031077 0.038808
v 0.000799 -0.031077 0.038808
v -0.000799 -0.032675 0.038808
v 0.000799 -0.032675 0.038808
v -0.000799 -0.031077 0.038808
v 0.000799 -0.031077 0.038808
v -0.000799 -0.032675 0.038808
v 0.000799 -0.032675 0.038808
v -0.000799 -0.031077 0.038808
v 0.000799 -0.031077 0.038808
v -0.471018 -0.110985 -0.227047
v 0.471018 -0.110985 -0.227047
v -0.471018 -0.110985 0.368608
v 0.471018 -0.110985 0.368608
v -0.471018 -0.064700 0.368608
v 0.471018 -0.064700 0.368608
v -0.471018 -0.064700 -0.227047
v 0.471018 -0.064700 -0.227047
v -0.343675 -0.031876 0.288087
v 0.343674 -0.031876 0.288087
v 0.343674 -0.031876 -0.146527
v -0.343675 -0.031876 -0.146527
v 0.622259 -0.064700 -0.227047
v 0.622259 -0.110985 -0.227047
v 0.622259 -0.064700 0.368608
v 0.622259 -0.110985 0.368608
v -0.622259 -0.064700 -0.227047
v -0.622259 -0.110985 -0.227047
v -0.622259 -0.110985 0.368608
v -0.622259 -0.064700 0.368608
v 0.496018 -0.110985 -0.202047
v 0.496018 -0.110985 0.343607
v 0.596496 -0.110985 -0.202047
v 0.596496 -0.110985 0.343607
v -0.496018 -0.110985 0.343607
v -0.596496 -0.110985 0.343607
v -0.596496 -0.110985 -0.202047
v -0.496018 -0.110985 -0.202047
v 0.496018 -0.123171 -0.179334
v 0.496018 -0.123171 0.320894
v 0.596496 -0.123171 -0.179334
v 0.596496 -0.123171 0.320894
v -0.496018 -0.123171 0.320894
v -0.596496 -0.123171 0.320894
v -0.596496 -0.123171 -0.179334
v -0.496018 -0.123171 -0.179334
v -0.596496 -0.121141 0.336399
v -0.496018 -0.121141 0.336399
v -0.496018 -0.121141 -0.194839
v -0.596496 -0.121141 -0.194839
v -0.596496 -0.118266 0.342160
v -0.496018 -0.118266 0.342160
v -0.496018 -0.118266 -0.200599
v -0.596496 -0.118266 -0.200599
v 0.496018 -0.121141 0.336399
v 0.596496 -0.121141 0.336399
v 0.596496 -0.121141 -0.194839
v 0.496018 -0.121141 -0.194839
v 0.496018 -0.118266 0.342160
v 0.596496 -0.118266 0.342160
v 0.596496 -0.118266 -0.200599
v 0.496018 -0.118266 -0.200599
v -0.438120 -0.099411 -0.190937
v 0.438121 -0.099411 -0.190937
v 0.438121 -0.099411 0.332497
v -0.438120 -0.099411 0.332497
v 0.000000 -0.110985 0.368608
v 0.000000 -0.064700 0.368608
v 0.000000 -0.031876 0.288087
v 0.000000 -0.031876 -0.146527
v 0.000000 -0.064700 -0.227047
v 0.000000 -0.110985 -0.227047
v 0.000000 -0.099411 -0.190937
v 0.000000 -0.099411 0.332497
v -0.471018 -0.064700 -0.312324
v 0.000000 -0.064700 -0.312324
v 0.000000 -0.083159 -0.312324
v -0.471018 -0.083159 -0.312324
v 0.471018 -0.064700 -0.312324
v 0.471018 -0.083159 -0.312324
v 0.622259 -0.064700 -0.312324
v 0.622259 -0.083159 -0.312324
v -0.622259 -0.083159 -0.312324
v -0.622259 -0.064700 -0.312324
v -0.622259 -0.110985 -0.241049
v -0.471018 -0.110985 -0.241049
v 0.000000 -0.110985 -0.241049
v 0.471018 -0.110985 -0.241049
v 0.622259 -0.110985 -0.241049
v 0.622259 -0.064700 -0.241049
v 0.471018 -0.064700 -0.241049
v 0.000000 -0.064700 -0.241049
v -0.471018 -0.064700 -0.241049
v -0.622259 -0.064700 -0.241049
v -0.471018 -0.101612 -0.227047
v 0.000000 -0.101612 -0.227047
v -0.471018 -0.101612 -0.241049
v 0.000000 -0.101612 -0.241049
v 0.471018 -0.101612 -0.227047
v 0.622259 -0.101612 -0.227047
v 0.471018 -0.101612 -0.241049
v 0.622259 -0.101612 -0.241049
v -0.622259 -0.101612 -0.227047
v -0.622259 -0.101612 -0.241049
v 0.622259 -0.101612 0.368608
v -0.622259 -0.101612 0.368608
v 0.622259 -0.073785 -0.312324
v 0.471018 -0.073785 -0.312324
v 0.000000 -0.073785 -0.312324
v -0.471018 -0.073785 -0.312324
v -0.622259 -0.073785 -0.312324
v -0.622259 -0.096678 -0.306303
v -0.471018 -0.096678 -0.306303
v 0.000000 -0.096678 -0.306303
v 0.471018 -0.096678 -0.306303
v 0.622259 -0.096678 -0.306303
v 0.622259 -0.087304 -0.306303
v 0.622259 -0.064700 -0.306303
v 0.471018 -0.064700 -0.306303
v 0.000000 -0.064700 -0.306303
v -0.471018 -0.064700 -0.306303
v -0.622259 -0.064700 -0.306303
v -0.622259 -0.087304 -0.306303
v -0.622259 -0.105222 -0.293281
v -0.471018 -0.105222 -0.293281
v 0.000000 -0.105222 -0.293281
v 0.471018 -0.105222 -0.293281
v 0.622259 -0.105222 -0.293281
v 0.622259 -0.095849 -0.293281
v 0.622259 -0.064700 -0.293281
v 0.471018 -0.064700 -0.293281
v 0.000000 -0.064700 -0.293281
v -0.471018 -0.064700 -0.293281
v -0.622259 -0.064700 -0.293281
v -0.622259 -0.095849 -0.293281
v -0.622259 -0.110985 -0.275371
v -0.471018 -0.110985 -0.275371
v 0.000000 -0.110985 -0.275371
v 0.471018 -0.110985 -0.275371
v 0.622259 -0.110985 -0.275371
v 0.622259 -0.101612 -0.275371
v 0.622259 -0.064700 -0.275371
v 0.471018 -0.064700 -0.275371
v 0.000000 -0.064700 -0.275371
v -0.471018 -0.064700 -0.275371
v -0.622259 -0.064700 -0.275371
v -0.622259 -0.101612 -0.275371
v -0.471018 -0.064700 0.424253
v 0.000000 -0.064700 0.424253
v 0.000000 -0.083159 0.424253
v -0.471018 -0.083159 0.424253
v 0.471018 -0.064700 0.424253
v 0.471018 -0.083159 0.424253
v 0.622259 -0.064700 0.424253
v 0.622259 -0.083159 0.424253
v -0.622259 -0.083159 0.424253
v -0.622259 -0.064700 0.424253
v 0.622259 -0.073785 0.424253
v 0.471018 -0.073785 0.424253
v 0.000000 -0.073785 0.424253
v -0.471018 -0.073785 0.424253
v -0.622259 -0.073785 0.424253
v -0.622259 -0.096678 0.418237
v -0.471018 -0.096678 0.418237
v 0.000000 -0.096678 0.418237
v 0.471018 -0.096678 0.418237
v 0.622259 -0.096678 0.418237
v 0.622259 -0.087304 0.418237
v 0.622259 -0.064700 0.418237
v 0.471018 -0.064700 0.418237
v 0.000000 -0.064700 0.418237
v -0.471018 -0.064700 0.418237
v -0.622259 -0.064700 0.418237
v -0.622259 -0.087304 0.418237
v -0.622259 -0.105222 0.405225
v -0.471018 -0.105222 0.405225
v 0.000000 -0.105222 0.405225
v 0.471018 -0.105222 0.405225
v 0.622259 -0.105222 0.405225
v 0.622259 -0.095849 0.405225
v 0.622259 -0.064700 0.405225
v 0.471018 -0.064700 0.405225
v 0.000000 -0.064700 0.405225
v -0.471018 -0.064700 0.405225
v -0.622259 -0.064700 0.405225
v -0.622259 -0.095849 0.405225
v -0.622259 -0.110985 0.387329
v -0.471018 -0.110985 0.387329
v 0.000000 -0.110985 0.387329
v 0.471018 -0.110985 0.387329
v 0.622259 -0.110985 0.387329
v 0.622259 -0.101612 0.387329
v 0.622259 -0.064700 0.387329
v 0.471018 -0.064700 0.387329
v 0.000000 -0.064700 0.387329
v -0.471018 -0.064700 0.387329
v -0.622259 -0.064700 0.387329
v -0.622259 -0.101612 0.387329
v -0.452032 -0.110985 -0.208062
v -0.442949 -0.107000 -0.198014
v 0.000000 -0.110985 -0.207570
v 0.000000 -0.107219 -0.198125
v 0.451541 -0.110985 -0.207570
v 0.442949 -0.107000 -0.198014
v 0.442949 -0.107000 0.339575
v 0.451541 -0.110985 0.349130
v -0.451541 -0.110985 0.349130
v -0.442949 -0.107000 0.339575
v 0.000000 -0.110985 0.349130
v 0.000000 -0.107219 0.339685
vn -0.0000 -0.0000 1.0000
vt -7.173947 -17.520275
vt -7.173111 -17.520275
vt -7.173111 -17.519438
vt -7.173947 -17.519438
s 1
usemtl M_Television_20_4
f 17/1/1 18/2/1 20/3/1 19/4/1
