# Blender 4.1.0
# www.blender.org
mtllib ToasterLever2_29_ToasterLever2_29_2_GeomSubset_4.mtl
o ToasterLever2_29_ToasterLever2_29_2_GeomSubset_4
v 0.059442 -0.164502 0.051985
v 0.059698 -0.164502 0.051985
v 0.059442 -0.164247 0.051985
v 0.059698 -0.164247 0.051985
v 0.059442 -0.164502 0.051985
v 0.059698 -0.164502 0.051985
v 0.059442 -0.164247 0.051985
v 0.059698 -0.164247 0.051985
v 0.059442 -0.164502 0.051985
v 0.059698 -0.164502 0.051985
v 0.059442 -0.164247 0.051985
v 0.059698 -0.164247 0.051985
v 0.059442 -0.164502 0.051985
v 0.059698 -0.164502 0.051985
v 0.059442 -0.164247 0.051985
v 0.059698 -0.164247 0.051985
v 0.059442 -0.164502 0.051985
v 0.059698 -0.164502 0.051985
v 0.059442 -0.164247 0.051985
v 0.059698 -0.164247 0.051985
v 0.059442 -0.164502 0.051985
v 0.059698 -0.164502 0.051985
v 0.059442 -0.164247 0.051985
v 0.059698 -0.164247 0.051985
v 0.061643 -0.169815 0.055722
v 0.061643 -0.169815 0.049155
v 0.057497 -0.169815 0.055722
v 0.057497 -0.169815 0.049155
v 0.059570 -0.169815 0.049155
v 0.059570 -0.169815 0.055722
v 0.070331 -0.173413 0.055722
v 0.070842 -0.173625 0.055497
v 0.071053 -0.173713 0.054955
v 0.068845 -0.177017 0.054955
v 0.068684 -0.176855 0.055497
v 0.068293 -0.176464 0.055722
v 0.065242 -0.178503 0.055722
v 0.065454 -0.179013 0.055497
v 0.065541 -0.179225 0.054955
v 0.061643 -0.180000 0.054955
v 0.061621 -0.179775 0.055497
v 0.061568 -0.179234 0.055722
v 0.071062 -0.169739 0.055722
v 0.071604 -0.169793 0.055497
v 0.071828 -0.169815 0.054955
v 0.071053 -0.173713 0.049921
v 0.070842 -0.173625 0.049380
v 0.070331 -0.173413 0.049155
v 0.068845 -0.177017 0.049921
v 0.068684 -0.176855 0.049380
v 0.068293 -0.176464 0.049155
v 0.065541 -0.179225 0.049921
v 0.065454 -0.179013 0.049380
v 0.065242 -0.178503 0.049155
v 0.061568 -0.179234 0.049155
v 0.061621 -0.179775 0.049380
v 0.061643 -0.180000 0.049921
v 0.071828 -0.169815 0.049921
v 0.071604 -0.169793 0.049380
v 0.071062 -0.169739 0.049155
v 0.059570 -0.180000 0.054955
v 0.059570 -0.179775 0.055497
v 0.059570 -0.179234 0.055722
v 0.057572 -0.179234 0.055722
v 0.057519 -0.179775 0.055497
v 0.057497 -0.180000 0.054955
v 0.053599 -0.179225 0.054955
v 0.053687 -0.179013 0.055497
v 0.053898 -0.178503 0.055722
v 0.059570 -0.180000 0.049921
v 0.059570 -0.179775 0.049380
v 0.059570 -0.179234 0.049155
v 0.053599 -0.179225 0.049921
v 0.053687 -0.179013 0.049380
v 0.053898 -0.178503 0.049155
v 0.057497 -0.180000 0.049921
v 0.057519 -0.179775 0.049380
v 0.057572 -0.179234 0.049155
v 0.050295 -0.177017 0.054955
v 0.050457 -0.176855 0.055497
v 0.050847 -0.176464 0.055722
v 0.050295 -0.177017 0.049921
v 0.050457 -0.176855 0.049380
v 0.050847 -0.176464 0.049155
v 0.048087 -0.173713 0.054955
v 0.048298 -0.173625 0.055497
v 0.048809 -0.173413 0.055722
v 0.048087 -0.173713 0.049921
v 0.048298 -0.173625 0.049380
v 0.048809 -0.173413 0.049155
v 0.047312 -0.169815 0.054955
v 0.047536 -0.169793 0.055497
v 0.048078 -0.169739 0.055722
v 0.048078 -0.169739 0.049155
v 0.047536 -0.169793 0.049380
v 0.047312 -0.169815 0.049921
v 0.071062 -0.158348 0.055497
v 0.071062 -0.158890 0.055722
v 0.071604 -0.158890 0.055497
v 0.071828 -0.158890 0.054955
v 0.071604 -0.158348 0.054955
v 0.071062 -0.158124 0.054955
v 0.071062 -0.158348 0.049380
v 0.071062 -0.158124 0.049921
v 0.071604 -0.158348 0.049921
v 0.071828 -0.158890 0.049921
v 0.071604 -0.158890 0.049380
v 0.071062 -0.158890 0.049155
v 0.061643 -0.158890 0.055722
v 0.061643 -0.158348 0.055497
v 0.061643 -0.158124 0.054955
v 0.061643 -0.158890 0.049155
v 0.061643 -0.158348 0.049380
v 0.061643 -0.158124 0.049921
v 0.048078 -0.158348 0.055497
v 0.048078 -0.158124 0.054955
v 0.047536 -0.158348 0.054955
v 0.047312 -0.158890 0.054955
v 0.047536 -0.158890 0.055497
v 0.048078 -0.158890 0.055722
v 0.048078 -0.158348 0.049380
v 0.048078 -0.158890 0.049155
v 0.047536 -0.158890 0.049380
v 0.047312 -0.158890 0.049921
v 0.047536 -0.158348 0.049921
v 0.048078 -0.158124 0.049921
v 0.059570 -0.158124 0.054955
v 0.059570 -0.158348 0.055497
v 0.059570 -0.158890 0.055722
v 0.057497 -0.158124 0.054955
v 0.057497 -0.158348 0.055497
v 0.057497 -0.158890 0.055722
v 0.059570 -0.158890 0.049155
v 0.059570 -0.158348 0.049380
v 0.059570 -0.158124 0.049921
v 0.057497 -0.158890 0.049155
v 0.057497 -0.158348 0.049380
v 0.057497 -0.158124 0.049921
v 0.071504 -0.158448 0.055398
v 0.071504 -0.158448 0.049479
v 0.047636 -0.158448 0.055398
v 0.047636 -0.158448 0.049479
v 0.050295 -0.177017 0.051101
v 0.053599 -0.179225 0.051101
v 0.057497 -0.180000 0.051101
v 0.059570 -0.180000 0.051101
v 0.061643 -0.180000 0.051101
v 0.065541 -0.179225 0.051101
v 0.068845 -0.177017 0.051101
v 0.071053 -0.173713 0.051101
v 0.071828 -0.169815 0.051101
v 0.071828 -0.158890 0.051101
v 0.071604 -0.158348 0.051101
v 0.071062 -0.158124 0.051101
v 0.061643 -0.158124 0.051101
v 0.059570 -0.158124 0.051101
v 0.057497 -0.158124 0.051101
v 0.048078 -0.158124 0.051101
v 0.047536 -0.158348 0.051101
v 0.047312 -0.158890 0.051101
v 0.047312 -0.169815 0.051101
v 0.048087 -0.173713 0.051101
v 0.050295 -0.177017 0.053775
v 0.053599 -0.179225 0.053775
v 0.057497 -0.180000 0.053775
v 0.059570 -0.180000 0.053775
v 0.061643 -0.180000 0.053775
v 0.065541 -0.179225 0.053775
v 0.068845 -0.177017 0.053775
v 0.071053 -0.173713 0.053775
v 0.071828 -0.169815 0.053775
v 0.071828 -0.158890 0.053775
v 0.071604 -0.158348 0.053775
v 0.071062 -0.158124 0.053775
v 0.061643 -0.158124 0.053775
v 0.059570 -0.158124 0.053775
v 0.057497 -0.158124 0.053775
v 0.048078 -0.158124 0.053775
v 0.047536 -0.158348 0.053775
v 0.047312 -0.158890 0.053775
v 0.047312 -0.169815 0.053775
v 0.048087 -0.173713 0.053775
v 0.062565 -0.159160 0.049923
v 0.062565 -0.148141 0.049923
v 0.062565 -0.159160 0.053629
v 0.062565 -0.148141 0.053629
v 0.056575 -0.159160 0.053629
v 0.056575 -0.148141 0.053629
v 0.056575 -0.159160 0.049923
v 0.056575 -0.148141 0.049923
vn -0.0000 1.0000 0.0021
vn -1.0000 -0.0000 0.0021
vn -0.0000 -1.0000 0.0021
vn 1.0000 -0.0000 0.0021
vt 13.443103 -18.487274
vt 13.837043 -18.487274
vt 13.837043 -18.093334
vt 13.443103 -18.093334
s 1
usemtl M_ToasterLever2_29_4
f 17/1/1 18/2/2 20/3/3 19/4/4
