# Blender 4.1.0
# www.blender.org
mtllib MeshPsDesk_204_6_7.mtl
o PsDesk_204_6
v -0.869278 -0.351427 -0.128638
v -0.869123 0.251022 -0.315736
v -0.869123 0.251086 -0.129001
v -0.869278 -0.351491 -0.315683
v -0.623682 0.251022 -0.315736
v -0.623527 -0.351491 -0.315683
v -0.623682 0.251086 -0.129001
v -0.623527 -0.351427 -0.128638
vn 1.0000 -0.0003 -0.0000
vn -0.0000 0.0001 1.0000
vn -0.0000 -1.0000 0.0003
vn -0.0000 -0.0006 -1.0000
vn -0.0000 -0.0003 -1.0000
vn -1.0000 0.0001 -0.0000
vt 0.118067 0.484222
vt -0.183767 0.369953
vt -0.183767 0.484222
vt 0.118067 0.369953
vt 0.098785 0.118067
vt -0.025090 -0.183767
vt 0.098785 -0.183767
vt -0.025090 0.118067
vt 0.974910 0.369953
vt 1.098785 0.484222
vt 1.098785 0.369953
vt 0.974910 0.484222
vt 0.974910 0.118067
vt 1.098785 -0.183767
vt 0.974910 -0.183767
vt 1.098785 0.118067
s 1
usemtl M_PsDesk_204_6_0
f 1/1/1 2/2/1 3/3/1
f 1/1/1 4/4/1 2/2/1
f 4/5/2 5/6/2 2/7/2
f 4/5/2 6/8/2 5/6/2
f 5/9/3 3/10/3 2/11/3
f 5/9/3 7/12/3 3/10/3
f 8/13/4 3/14/4 7/15/4
f 8/13/5 1/16/5 3/14/5
f 6/4/6 7/3/6 5/2/6
f 6/4/6 8/1/6 7/3/6
