# Blender 4.1.0
# www.blender.org
mtllib LightSwitchDial_3_LightSwitchDial_3_1_GeomSubset_1.mtl
o LightSwitchDial_3_LightSwitchDial_3_1_GeomSubset_1
v -0.000500 -0.000500 0.000000
v 0.000500 -0.000500 0.000000
v -0.000500 0.000500 0.000000
v 0.000500 0.000500 0.000000
v -0.000500 -0.000500 0.000000
v 0.000500 -0.000500 0.000000
v -0.000500 0.000500 0.000000
v 0.000500 0.000500 0.000000
v -0.000500 -0.000500 0.000000
v 0.000500 -0.000500 0.000000
v -0.000500 0.000500 0.000000
v 0.000500 0.000500 0.000000
v -0.019663 -0.025950 -0.023486
v -0.017811 -0.026286 -0.024179
v -0.017802 -0.027597 -0.022689
v -0.017794 -0.027715 -0.020699
v -0.019658 -0.026991 -0.020960
v -0.020426 -0.025327 -0.021753
v 0.019663 -0.025950 -0.023486
v 0.020426 -0.025327 -0.021753
v 0.019663 -0.026993 -0.020968
v 0.017811 -0.027719 -0.020714
v 0.017810 -0.027598 -0.022693
v 0.017811 -0.026286 -0.024179
v -0.019663 -0.016566 0.027520
v -0.017811 -0.017333 0.027468
v -0.017801 -0.016686 0.029344
v -0.017794 -0.015017 0.030433
v -0.019658 -0.014884 0.029674
v -0.020426 -0.014750 0.027835
v 0.019663 -0.016566 0.027520
v 0.020426 -0.014750 0.027835
v 0.019663 -0.014891 0.029672
v 0.017811 -0.015032 0.030429
v 0.017810 -0.016690 0.029343
v 0.017811 -0.017333 0.027468
v -0.017828 -0.017470 0.002895
v -0.017827 -0.017344 0.004758
v -0.019665 -0.016572 0.004648
v -0.020426 -0.014709 0.004382
v -0.020426 -0.014836 0.002527
v -0.020426 -0.015217 0.000691
v -0.019665 -0.017076 0.000956
v -0.017827 -0.017847 0.001066
v 0.017828 -0.017470 0.002895
v 0.017827 -0.017847 0.001066
v 0.019665 -0.017076 0.000956
v 0.020426 -0.015217 0.000691
v 0.020426 -0.014836 0.002527
v 0.020426 -0.014709 0.004382
v 0.019665 -0.016572 0.004648
v 0.017827 -0.017344 0.004758
v -0.020426 0.000792 0.031740
v -0.019665 0.001059 0.033731
v -0.017827 0.001170 0.034555
v 0.017827 0.001170 0.034555
v 0.019665 0.001059 0.033731
v 0.020426 0.000792 0.031740
v -0.017827 -0.011748 -0.032429
v -0.019665 -0.011638 -0.031604
v -0.020426 -0.011371 -0.029613
v 0.020426 -0.011371 -0.029613
v 0.019665 -0.011638 -0.031604
v 0.017827 -0.011749 -0.032429
v -0.020426 -0.005713 -0.000670
v -0.020426 -0.005465 0.001176
v -0.020426 -0.005217 0.003023
v 0.020426 -0.005217 0.003023
v 0.020426 -0.005465 0.001176
v 0.020426 -0.005713 -0.000670
v -0.019319 -0.027157 -0.022508
v 0.019323 -0.027158 -0.022511
v -0.019319 -0.016310 0.029052
v 0.019323 -0.016314 0.029050
v -0.019665 -0.016699 0.002789
v 0.019665 -0.016699 0.002789
vn -0.0000 -0.0000 1.0000
vn -0.0201 -0.5229 -0.8522
vn -0.3814 -0.4759 -0.7925
vn -0.3852 -0.4556 -0.8025
vn -0.0186 -0.4935 -0.8695
vn -0.9231 -0.2076 -0.3238
vn -0.9985 -0.0549 -0.0064
vn -0.9988 -0.0244 -0.0433
vn -0.9239 -0.1883 -0.3331
vn -0.0196 -0.9248 0.3799
vn -0.0134 -0.9982 -0.0584
vn 0.0131 -0.9982 -0.0584
vn 0.0196 -0.9248 0.3800
vn -0.0133 -0.7492 -0.6622
vn 0.0201 -0.5229 -0.8521
vn 0.0132 -0.7491 -0.6623
vn -0.9225 -0.3590 0.1415
vn -0.9226 -0.3537 0.1540
vn -0.9993 -0.0343 0.0147
vn -0.3773 -0.8531 0.3603
vn -0.0217 -0.9171 0.3981
vn -0.3800 -0.8492 0.3666
vn 0.9985 -0.0548 -0.0063
vn 0.9231 -0.2074 -0.3239
vn 0.9239 -0.1883 -0.3331
vn 0.9988 -0.0244 -0.0433
vn 0.3815 -0.4757 -0.7926
vn 0.0186 -0.4935 -0.8696
vn 0.3848 -0.4556 -0.8027
vn 0.3781 -0.8527 0.3604
vn 0.3817 -0.8485 0.3666
vn 0.0217 -0.9171 0.3980
vn 0.9230 -0.3580 0.1411
vn 0.9993 -0.0342 0.0146
vn 0.9230 -0.3528 0.1537
vn -0.0205 -0.9994 0.0263
vn -0.3823 -0.9239 0.0174
vn -0.3855 -0.9227 0.0054
vn -0.0213 -0.9998 0.0056
vn -0.9233 -0.3839 0.0150
vn -0.9986 -0.0450 0.0267
vn -0.9991 -0.0429 0.0002
vn -0.9240 -0.3825 0.0015
vn -0.0201 -0.2797 0.9599
vn -0.0134 -0.5457 0.8379
vn 0.0132 -0.5458 0.8378
vn 0.0201 -0.2797 0.9599
vn -0.0132 -0.9460 0.3240
vn 0.0204 -0.9994 0.0263
vn 0.0132 -0.9460 0.3239
vn -0.9225 -0.1149 0.3684
vn -0.9232 -0.0944 0.3726
vn -0.9984 -0.0140 0.0555
vn -0.3802 -0.2503 0.8904
vn -0.0187 -0.2468 0.9689
vn -0.3839 -0.2282 0.8947
vn 0.9986 -0.0449 0.0265
vn 0.9233 -0.3839 0.0148
vn 0.9240 -0.3825 0.0015
vn 0.9991 -0.0429 0.0002
vn 0.3824 -0.9239 0.0172
vn 0.0213 -0.9998 0.0056
vn 0.3855 -0.9227 0.0055
vn 0.3814 -0.2499 0.8900
vn 0.3850 -0.2279 0.8943
vn 0.0186 -0.2468 0.9689
vn 0.9231 -0.1146 0.3672
vn 0.9984 -0.0140 0.0553
vn 0.9238 -0.0939 0.3712
vn -0.0212 -0.9906 0.1350
vn 0.0213 -0.9906 0.1349
vn -0.9981 -0.0618 0.0076
vn -1.0000 -0.0000 -0.0000
vn 0.9981 -0.0618 0.0076
vn 1.0000 -0.0000 -0.0000
vn -0.8728 -0.4519 -0.1845
vn -0.3267 -0.6845 -0.6517
vn -0.3251 -0.9455 -0.0176
vn 0.3273 -0.6825 -0.6535
vn 0.8738 -0.4493 -0.1861
vn 0.3270 -0.9448 -0.0199
vn -0.8727 -0.3839 0.3018
vn -0.3264 -0.9048 0.2736
vn -0.3253 -0.4840 0.8124
vn 0.3269 -0.9054 0.2707
vn 0.8736 -0.3840 0.2989
vn 0.3275 -0.4856 0.8105
vn -0.3902 -0.9123 0.1244
vn -0.9270 -0.3717 0.0508
vn 0.3902 -0.9123 0.1244
vn 0.9270 -0.3717 0.0508
vt 1.269078 0.679263
vt 1.272060 0.679263
vt 1.272060 0.682245
vt 1.269078 0.682245
vt 0.638329 0.604374
vt 0.637614 0.608316
vt 0.607149 0.608321
vt 0.607384 0.604409
vt 0.418935 0.400566
vt 0.417707 0.403978
vt 0.390234 0.388505
vt 0.390760 0.384586
vt 0.547387 0.380947
vt 0.547373 0.376962
vt 0.618704 0.376954
vt 0.618706 0.380918
vt 0.641119 0.604354
vt 0.638329 0.528550
vt 0.641122 0.528551
vt 0.420983 0.405539
vt 0.401466 0.448683
vt 0.397805 0.448160
vt 0.543655 0.380424
vt 0.547321 0.424543
vt 0.543640 0.424324
vt 0.455861 0.403979
vt 0.454633 0.400567
vt 0.482808 0.384588
vt 0.483333 0.388507
vt 0.637614 0.524608
vt 0.607384 0.528515
vt 0.607148 0.524603
vt 0.622415 0.380408
vt 0.622420 0.424324
vt 0.618739 0.424543
vt 0.452581 0.405524
vt 0.475763 0.448160
vt 0.472102 0.448683
vt 0.547355 0.477428
vt 0.543645 0.477531
vt 0.543640 0.431719
vt 0.547321 0.431938
vt 0.400460 0.500974
vt 0.396887 0.501595
vt 0.396806 0.455427
vt 0.400473 0.455950
vt 0.557338 0.602149
vt 0.553991 0.602163
vt 0.553982 0.530743
vt 0.557308 0.530741
vt 0.547374 0.481185
vt 0.618705 0.477428
vt 0.618704 0.481184
vt 0.397149 0.505215
vt 0.365766 0.513201
vt 0.366291 0.509282
vt 0.557606 0.605887
vt 0.589801 0.602216
vt 0.589580 0.605902
vt 0.476680 0.501594
vt 0.473107 0.500973
vt 0.473094 0.455950
vt 0.476762 0.455427
vt 0.622415 0.477531
vt 0.618739 0.431938
vt 0.622420 0.431719
vt 0.557589 0.527026
vt 0.589580 0.527022
vt 0.589801 0.530708
vt 0.476403 0.505209
vt 0.507276 0.509281
vt 0.507801 0.513200
vt 0.547320 0.428207
vt 0.618739 0.428207
vt 0.397055 0.451775
vt 0.378609 0.449116
vt 0.379097 0.445481
vt 0.378121 0.452751
vt 0.476512 0.451775
vt 0.494958 0.449116
vt 0.495446 0.452751
vt 0.494471 0.445481
vt 0.421310 0.402493
vt 0.640183 0.607584
vt 0.544333 0.377325
vt 0.640184 0.525331
vt 0.452257 0.402488
vt 0.621734 0.377318
vt 0.399958 0.503989
vt 0.544333 0.480600
vt 0.554743 0.605208
vt 0.621734 0.480597
vt 0.473604 0.503986
vt 0.554738 0.527708
vt 0.543640 0.427994
vt 0.400723 0.452290
vt 0.622420 0.427994
vt 0.472845 0.452290
s 1
usemtl M_LightSwitchDial_3_1
f 5/1/1 6/2/1 8/3/1 7/4/1
f 14/5/2 13/6/3 60/7/4 59/8/5
f 13/9/6 18/10/7 61/11/8 60/12/9
f 16/13/10 15/14/11 23/15/12 22/16/13
f 15/17/14 14/5/2 24/18/15 23/19/16
f 18/10/7 17/20/17 43/21/18 42/22/19
f 17/23/20 16/13/10 44/24/21 43/25/22
f 20/26/23 19/27/24 63/28/25 62/29/26
f 19/30/27 24/18/15 64/31/28 63/32/29
f 22/16/13 21/33/30 47/34/31 46/35/32
f 21/36/33 20/26/23 48/37/34 47/38/35
f 26/39/36 25/40/37 39/41/38 38/42/39
f 25/43/40 30/44/41 40/45/42 39/46/43
f 28/47/44 27/48/45 35/49/46 34/50/47
f 27/51/48 26/39/36 36/52/49 35/53/50
f 30/44/41 29/54/51 54/55/52 53/56/53
f 29/57/54 28/47/44 55/58/55 54/59/56
f 32/60/57 31/61/58 51/62/59 50/63/60
f 31/64/61 36/52/49 52/65/62 51/66/63
f 34/50/47 33/67/64 57/68/65 56/69/66
f 33/70/67 32/60/57 58/71/68 57/72/69
f 38/42/39 37/73/70 45/74/71 52/65/62
f 37/73/70 44/24/21 46/35/32 45/74/71
f 42/22/19 41/75/72 66/76/73 65/77/73
f 41/75/72 40/45/42 67/78/73 66/76/73
f 50/63/60 49/79/74 69/80/75 68/81/75
f 49/79/74 48/37/34 70/82/75 69/80/75
f 16/13/10 22/16/13 46/35/32 44/24/21
f 28/47/44 34/50/47 56/69/66 55/58/55
f 14/5/2 59/8/5 64/31/28 24/18/15
f 20/26/23 62/29/26 70/82/75 48/37/34
f 61/11/8 18/10/7 42/22/19 65/77/73
f 67/78/73 40/45/42 30/44/41 53/56/53
f 50/63/60 68/81/75 58/71/68 32/60/57
f 38/42/39 52/65/62 36/52/49 26/39/36
f 17/20/17 18/10/7 13/9/6 71/83/76
f 13/6/3 14/5/2 15/17/14 71/84/77
f 15/14/11 16/13/10 17/23/20 71/85/78
f 23/19/16 24/18/15 19/30/27 72/86/79
f 19/27/24 20/26/23 21/36/33 72/87/80
f 21/33/30 22/16/13 23/15/12 72/88/81
f 29/54/51 30/44/41 25/43/40 73/89/82
f 25/40/37 26/39/36 27/51/48 73/90/83
f 27/48/45 28/47/44 29/57/54 73/91/84
f 35/53/50 36/52/49 31/64/61 74/92/85
f 31/61/58 32/60/57 33/70/67 74/93/86
f 33/67/64 34/50/47 35/49/46 74/94/87
f 43/25/22 44/24/21 37/73/70 75/95/88
f 37/73/70 38/42/39 39/41/38 75/95/88
f 39/46/43 40/45/42 41/75/72 75/96/89
f 41/75/72 42/22/19 43/21/18 75/96/89
f 51/66/63 52/65/62 45/74/71 76/97/90
f 45/74/71 46/35/32 47/34/31 76/97/90
f 47/38/35 48/37/34 49/79/74 76/98/91
f 49/79/74 50/63/60 51/62/59 76/98/91
