# Blender 4.1.0
# www.blender.org
mtllib MeshPaperTowel_1_1.mtl
o PaperTowel_1
v -0.007781 0.013123 0.106439
v -0.002192 0.012012 0.106439
v 0.002547 0.008845 0.106439
v 0.005713 0.004107 0.106439
v 0.006825 -0.001483 0.106439
v 0.005544 -0.006996 0.106439
v 0.002547 -0.011811 0.106439
v -0.002192 -0.014977 0.106439
v -0.007781 -0.016089 0.106439
v -0.013371 -0.014977 0.106439
v -0.018109 -0.011811 0.106439
v -0.021275 -0.007072 0.106439
v -0.022387 -0.001483 0.106439
v -0.021275 0.004107 0.106439
v -0.018109 0.008845 0.106439
v -0.013371 0.012012 0.106439
v -0.013373 0.012017 -0.106439
v -0.018113 0.008849 -0.106439
v -0.021281 0.004109 -0.106439
v -0.022393 -0.001483 -0.106439
v -0.021281 -0.007074 -0.106439
v -0.018113 -0.011815 -0.106439
v -0.013373 -0.014982 -0.106439
v -0.007781 -0.016095 -0.106439
v -0.002189 -0.014982 -0.106439
v 0.002551 -0.011815 -0.106439
v 0.005550 -0.006998 -0.106439
v 0.006831 -0.001483 -0.106439
v 0.005718 0.004109 -0.106439
v 0.002551 0.008849 -0.106439
v -0.002189 0.012017 -0.106439
v -0.007781 0.013129 -0.106439
v -0.007781 0.014430 0.106439
v -0.007781 0.014436 -0.106439
v -0.013873 0.013224 -0.106439
v -0.013871 0.013219 0.106439
v -0.001692 0.013219 0.106439
v -0.001689 0.013224 -0.106439
v 0.003471 0.009769 0.106439
v 0.003475 0.009773 -0.106439
v 0.006920 0.004607 0.106439
v 0.006926 0.004609 -0.106439
v 0.008136 -0.001504 0.106439
v 0.008142 -0.001504 -0.106439
v 0.006745 -0.007493 0.106439
v 0.006750 -0.007495 -0.106439
v 0.003489 -0.012723 0.106439
v 0.003493 -0.012727 -0.106439
v -0.001692 -0.016184 0.106439
v -0.001689 -0.016190 -0.106439
v -0.007781 -0.017396 0.106439
v -0.007781 -0.017401 -0.106439
v -0.013871 -0.016184 0.106439
v -0.013873 -0.016190 -0.106439
v -0.019033 -0.012735 0.106439
v -0.019037 -0.012739 -0.106439
v -0.022483 -0.007572 0.106439
v -0.022488 -0.007575 -0.106439
v -0.023694 -0.001483 0.106439
v -0.023700 -0.001483 -0.106439
v -0.022483 0.004607 0.106439
v -0.022488 0.004609 -0.106439
v -0.019033 0.009769 0.106439
v -0.019037 0.009773 -0.106439
v -0.013371 0.012012 0.105640
v -0.018109 0.008845 0.105640
v -0.021275 0.004107 0.105640
v -0.022387 -0.001483 0.105640
v -0.021275 -0.007072 0.105640
v -0.018109 -0.011811 0.105640
v -0.013371 -0.014977 0.105640
v -0.007781 -0.016089 0.105640
v -0.002192 -0.014977 0.105640
v 0.002547 -0.011811 0.105640
v 0.005544 -0.006996 0.105640
v 0.006825 -0.001483 0.105640
v 0.005713 0.004107 0.105640
v 0.002547 0.008845 0.105640
v -0.002192 0.012012 0.105640
v -0.007781 0.013123 0.105640
v -0.018113 0.008849 -0.105277
v -0.021281 0.004109 -0.105277
v -0.022393 -0.001483 -0.105277
v -0.021281 -0.007074 -0.105277
v -0.018113 -0.011815 -0.105277
v -0.013373 -0.014982 -0.105277
v -0.007781 -0.016095 -0.105277
v -0.002189 -0.014982 -0.105277
v 0.002551 -0.011815 -0.105277
v 0.005550 -0.006998 -0.105277
v 0.006831 -0.001483 -0.105277
v 0.005718 0.004109 -0.105277
v 0.002551 0.008849 -0.105277
v -0.002189 0.012017 -0.105277
v -0.007781 0.013129 -0.105277
v -0.013373 0.012017 -0.105277
v 0.003018 -0.012267 0.106889
v 0.006144 -0.007244 0.106889
v -0.001942 -0.015581 0.106889
v -0.007781 -0.016742 0.106889
v -0.013621 -0.015581 0.106889
v -0.018571 -0.012273 0.106889
v -0.021879 -0.007322 0.106889
v -0.023041 -0.001483 0.106889
v -0.021879 0.004357 0.106889
v -0.018571 0.009307 0.106889
v -0.001942 0.012615 0.106889
v -0.007781 0.013777 0.106889
v -0.013621 0.012615 0.106889
v 0.003009 0.009307 0.106889
v 0.006317 0.004357 0.106889
v 0.007480 -0.001493 0.106889
v -0.023046 -0.001483 -0.106866
v -0.021884 0.004359 -0.106866
v -0.013623 0.012621 -0.106866
v -0.007781 0.013783 -0.106866
v -0.018575 0.009311 -0.106866
v -0.001939 0.012621 -0.106866
v 0.003013 0.009311 -0.106866
v 0.006322 0.004359 -0.106866
v 0.007486 -0.001493 -0.106866
v 0.006150 -0.007246 -0.106866
v 0.003022 -0.012271 -0.106866
v -0.001939 -0.015586 -0.106866
v -0.007781 -0.016748 -0.106866
v -0.013623 -0.015586 -0.106866
v -0.018575 -0.012277 -0.106866
v -0.021884 -0.007325 -0.106866
vn -0.0000 -1.0000 -0.0000
vn 0.3826 -0.9239 -0.0000
vn 0.3308 -0.7987 -0.5026
vn -0.0000 -0.8645 -0.5026
vn -0.3826 -0.9239 -0.0000
vn 0.0001 -0.8645 -0.5026
vn -0.3308 -0.7987 -0.5026
vn -0.7071 -0.7071 -0.0000
vn -0.3827 -0.9239 -0.0000
vn -0.3308 -0.7988 -0.5026
vn -0.6113 -0.6113 -0.5026
vn -0.9239 -0.3827 -0.0000
vn -0.6113 -0.6114 -0.5026
vn -0.7987 -0.3309 -0.5026
vn -0.9999 0.0159 -0.0000
vn -0.9239 -0.3826 -0.0000
vn -0.7987 -0.3308 -0.5026
vn -0.8626 0.0137 -0.5056
vn -0.9240 0.3825 -0.0000
vn -0.9999 0.0160 -0.0000
vn -0.8627 0.0137 -0.5056
vn -0.8019 0.3320 -0.4967
vn -0.7184 0.6956 -0.0000
vn -0.9239 0.3826 -0.0000
vn -0.6198 0.6001 -0.5057
vn -0.3827 0.9239 -0.0000
vn -0.7184 0.6957 -0.0000
vn -0.6198 0.6001 -0.5056
vn -0.3309 0.7987 -0.5026
vn -0.0000 1.0000 -0.0000
vn -0.3826 0.9239 -0.0000
vn -0.3308 0.7987 -0.5026
vn -0.0000 0.8645 -0.5026
vn 0.3826 0.9239 -0.0000
vn -0.0001 0.8645 -0.5026
vn 0.3308 0.7987 -0.5026
vn 0.7071 0.7071 -0.0000
vn 0.3827 0.9239 -0.0000
vn 0.3308 0.7988 -0.5026
vn 0.6113 0.6113 -0.5026
vn 0.9239 0.3827 -0.0000
vn 0.6113 0.6114 -0.5026
vn 0.7987 0.3309 -0.5026
vn 1.0000 -0.0000 -0.0000
vn 0.9239 0.3826 -0.0000
vn 0.7987 0.3308 -0.5026
vn 0.8645 -0.0000 -0.5026
vn 0.9239 -0.3826 -0.0000
vn 0.8645 0.0001 -0.5026
vn 0.7987 -0.3308 -0.5026
vn 0.7071 -0.7071 -0.0000
vn 0.9239 -0.3827 -0.0000
vn 0.7988 -0.3308 -0.5026
vn 0.6113 -0.6113 -0.5026
vn 0.3827 -0.9239 -0.0000
vn 0.6114 -0.6113 -0.5026
vn -0.0000 0.8965 0.4430
vn -0.0000 0.8916 -0.4528
vn -0.3412 0.8238 -0.4528
vn -0.3431 0.8283 0.4430
vn 0.3431 0.8283 0.4430
vn 0.3412 0.8238 -0.4528
vn 0.6339 0.6339 0.4430
vn 0.6305 0.6305 -0.4528
vn 0.8283 0.3431 0.4430
vn 0.8238 0.3412 -0.4528
vn 0.8969 -0.0143 0.4420
vn 0.8921 -0.0142 -0.4516
vn 0.8273 -0.3425 0.4453
vn 0.8227 -0.3406 -0.4552
vn 0.6445 -0.6240 0.4420
vn 0.6410 -0.6206 -0.4516
vn 0.3431 -0.8283 0.4430
vn 0.3412 -0.8238 -0.4528
vn -0.0000 -0.8965 0.4430
vn -0.0000 -0.8916 -0.4528
vn -0.3431 -0.8283 0.4430
vn -0.3412 -0.8238 -0.4528
vn -0.6339 -0.6339 0.4430
vn -0.6305 -0.6305 -0.4528
vn -0.8283 -0.3431 0.4430
vn -0.8238 -0.3412 -0.4528
vn -0.8965 -0.0000 0.4430
vn -0.8916 -0.0000 -0.4528
vn -0.8283 0.3431 0.4430
vn -0.8238 0.3412 -0.4528
vn -0.6339 0.6339 0.4430
vn -0.6305 0.6305 -0.4528
vn -0.0629 0.0260 -0.9977
vn -0.0681 -0.0000 -0.9977
vn -0.8916 -0.0000 -0.4527
vn -0.8238 0.3412 -0.4527
vn 0.0548 -0.0227 0.9982
vn 0.0547 -0.0529 0.9971
vn 0.6444 -0.6240 0.4420
vn -0.0000 0.0681 -0.9977
vn -0.0260 0.0629 -0.9977
vn -0.3412 0.8238 -0.4527
vn -0.0000 0.8916 -0.4527
vn -0.0481 0.0481 -0.9977
vn -0.6305 0.6305 -0.4527
vn 0.0270 -0.0651 0.9975
vn 0.3430 -0.8283 0.4430
vn 0.0260 0.0629 -0.9977
vn 0.3412 0.8238 -0.4527
vn -0.0261 0.0629 -0.9977
vn -0.0481 0.0482 -0.9977
vn 0.0269 -0.0651 0.9975
vn -0.0000 -0.0705 0.9975
vn 0.0482 0.0481 -0.9977
vn 0.6305 0.6305 -0.4527
vn -0.0269 -0.0651 0.9975
vn 0.0629 0.0260 -0.9977
vn 0.8238 0.3412 -0.4527
vn -0.0270 -0.0651 0.9975
vn -0.0498 -0.0499 0.9975
vn 0.0733 -0.0012 -0.9973
vn -0.0651 -0.0270 0.9975
vn 0.0529 -0.0218 -0.9984
vn 0.0734 -0.0012 -0.9973
vn 0.8227 -0.3405 -0.4552
vn -0.0651 -0.0269 0.9975
vn -0.0705 -0.0000 0.9975
vn -0.8283 -0.3430 0.4430
vn 0.0527 -0.0511 -0.9973
vn 0.0529 -0.0219 -0.9984
vn -0.0651 0.0269 0.9975
vn 0.0261 -0.0629 -0.9977
vn 0.0528 -0.0511 -0.9973
vn 0.3413 -0.8238 -0.4527
vn -0.0651 0.0270 0.9975
vn -0.0499 0.0498 0.9975
vn -0.0000 -0.0681 -0.9977
vn 0.0260 -0.0629 -0.9977
vn 0.3412 -0.8238 -0.4527
vn -0.0000 -0.8916 -0.4527
vn -0.0000 0.0705 0.9975
vn 0.0269 0.0651 0.9975
vn -0.0498 0.0498 0.9975
vn -0.0270 0.0651 0.9975
vn -0.0260 -0.0629 -0.9977
vn -0.3412 -0.8238 -0.4527
vn 0.0270 0.0651 0.9975
vn 0.0498 0.0499 0.9975
vn -0.0269 0.0651 0.9975
vn -0.3430 0.8283 0.4430
vn -0.0482 -0.0481 -0.9977
vn -0.6305 -0.6305 -0.4527
vn 0.0498 0.0498 0.9975
vn 0.0651 0.0270 0.9975
vn -0.0629 -0.0260 -0.9977
vn -0.8238 -0.3413 -0.4527
vn 0.0760 -0.0012 0.9971
vn 0.8283 0.3430 0.4430
vn -0.8238 -0.3412 -0.4527
vn 0.3334 -0.8049 0.4909
vn 0.6160 -0.6161 0.4908
vn 0.6161 -0.6161 0.4908
vn 0.8049 -0.3334 0.4909
vn 0.8049 -0.3334 0.4908
vn 0.8712 -0.0000 0.4909
vn 0.8713 -0.0000 0.4908
vn 0.8049 0.3334 0.4908
vn 0.8049 0.3334 0.4909
vn 0.6161 0.6160 0.4908
vn 0.6161 0.6161 0.4908
vn 0.3334 0.8049 0.4909
vn 0.3334 0.8049 0.4908
vn -0.0000 0.8712 0.4908
vn -0.0000 0.8713 0.4908
vn -0.3334 0.8049 0.4908
vn -0.3334 0.8049 0.4909
vn -0.6247 0.6049 0.4939
vn -0.8079 0.3345 0.4852
vn -0.7185 0.6956 -0.0000
vn -0.8694 0.0139 0.4938
vn -0.8695 0.0139 0.4938
vn -0.8049 -0.3334 0.4908
vn -0.8049 -0.3334 0.4909
vn -0.6161 -0.6160 0.4909
vn -0.6161 -0.6161 0.4908
vn -0.3334 -0.8049 0.4909
vn -0.3334 -0.8049 0.4908
vn -0.0000 -0.8712 0.4909
vn -0.0000 -0.8713 0.4908
vn -0.8694 0.0138 0.4939
vn -0.8079 0.3344 0.4852
vn 0.0652 0.0270 0.9975
vn -0.0001 0.0705 0.9975
vn 0.0269 0.0652 0.9975
vn -0.0499 0.0499 0.9975
vn -0.3333 -0.8049 0.4909
vn -0.0000 0.0706 0.9975
vn -0.0652 0.0269 0.9975
vn 0.8049 -0.3333 0.4909
vn -0.0706 -0.0000 0.9975
vn -0.0705 -0.0001 0.9975
vn -0.0652 -0.0270 0.9975
vn 0.6161 0.6160 0.4909
vn -0.0499 -0.0499 0.9975
vn -0.0269 -0.0652 0.9975
vn -0.0000 0.8712 0.4909
vn 0.3333 0.8049 0.4909
vn 0.0001 -0.0705 0.9975
vn 0.0001 -0.0706 0.9975
vn -0.6247 0.6048 0.4939
vn 0.7987 0.3308 -0.5025
vn -0.0630 -0.0260 -0.9977
vn 0.3309 0.7987 -0.5026
vn -0.0260 -0.0630 -0.9977
vn 0.3308 0.7987 -0.5025
vn -0.0000 0.8645 -0.5025
vn -0.0001 -0.0681 -0.9977
vn -0.6198 0.6002 -0.5056
vn -0.8627 0.0138 -0.5056
vn -0.7988 -0.3308 -0.5026
vn -0.6113 -0.6113 -0.5025
vn -0.6114 -0.6113 -0.5026
vn -0.3309 -0.7987 -0.5026
vn -0.0260 0.0630 -0.9977
vn -0.3308 -0.7987 -0.5025
vn 0.7987 -0.3309 -0.5026
vn -0.0482 0.0481 -0.9977
vn 0.3308 -0.7988 -0.5025
vn 0.0001 0.0681 -0.9977
vn 0.7987 -0.3308 -0.5025
vn 0.8645 -0.0000 -0.5025
vn -0.0681 0.0001 -0.9977
vt 0.075839 0.508827
vt 0.062933 0.508853
vt 0.062933 0.506275
vt 0.075848 0.506255
vt 0.088718 0.508824
vt 0.088731 0.506260
vt 0.101552 0.508821
vt 0.101564 0.506272
vt 0.114294 0.508782
vt 0.114299 0.506229
vt 0.127160 0.508826
vt 0.127179 0.506249
vt 0.139940 0.508884
vt 0.139946 0.506317
vt 0.152823 0.508815
vt 0.152823 0.506217
vt 0.165882 0.508833
vt 0.165911 0.506233
vt 0.178860 0.508948
vt 0.178912 0.506357
vt 0.191812 0.509225
vt 0.191918 0.506632
vt 0.204720 0.509881
vt 0.204955 0.507258
vt 0.217284 0.511248
vt 0.217552 0.508735
vt 0.024096 0.509810
vt 0.011486 0.511198
vt 0.011204 0.508784
vt 0.023888 0.507229
vt 0.037048 0.509188
vt 0.036974 0.506589
vt 0.050002 0.508942
vt 0.049982 0.506355
vt 0.876184 0.483347
vt 0.876133 0.015281
vt 0.890507 0.015242
vt 0.890568 0.483333
vt 0.861791 0.483370
vt 0.861772 0.015310
vt 0.847383 0.483395
vt 0.847464 0.015334
vt 0.832926 0.483414
vt 0.833351 0.015326
vt 0.818238 0.483387
vt 0.819004 0.015389
vt 0.803940 0.483639
vt 0.804703 0.015118
vt 0.789602 0.483373
vt 0.790386 0.015372
vt 0.775247 0.483448
vt 0.775709 0.015332
vt 0.761127 0.483479
vt 0.761282 0.015310
vt 0.746825 0.483648
vt 0.746948 0.015189
vt 0.732488 0.484208
vt 0.732767 0.014689
vt 0.718222 0.486040
vt 0.718373 0.012900
vt 0.933454 0.483956
vt 0.933602 0.014421
vt 0.947879 0.012555
vt 0.947857 0.485716
vt 0.919264 0.483465
vt 0.919249 0.014993
vt 0.904938 0.483347
vt 0.904881 0.015173
vt 0.919202 0.013132
vt 0.933444 0.012579
vt 0.803938 0.485490
vt 0.789587 0.485326
vt 0.876129 0.013413
vt 0.890501 0.013374
vt 0.904866 0.013306
vt 0.775250 0.485266
vt 0.861769 0.013447
vt 0.761143 0.485355
vt 0.847461 0.013486
vt 0.746872 0.485535
vt 0.833351 0.013539
vt 0.732646 0.486078
vt 0.819020 0.013468
vt 0.718772 0.487910
vt 0.804706 0.013300
vt 0.947329 0.487522
vt 0.933312 0.485783
vt 0.790372 0.013429
vt 0.919226 0.485344
vt 0.775711 0.013442
vt 0.904929 0.485242
vt 0.761290 0.013441
vt 0.876186 0.485249
vt 0.861793 0.485273
vt 0.890568 0.485233
vt 0.746986 0.013341
vt 0.847386 0.485303
vt 0.732909 0.012893
vt 0.832927 0.485338
vt 0.718901 0.011127
vt 0.818252 0.485363
vt 0.947327 0.010714
vt 0.062635 0.987432
vt 0.049709 0.987329
vt 0.049739 0.985557
vt 0.062650 0.985662
vt 0.036755 0.987079
vt 0.036821 0.985303
vt 0.023766 0.986481
vt 0.023919 0.984682
vt 0.011165 0.985061
vt 0.011349 0.983320
vt 0.217213 0.985040
vt 0.204549 0.986513
vt 0.204410 0.984747
vt 0.217024 0.983372
vt 0.191543 0.987115
vt 0.191492 0.985340
vt 0.178638 0.987333
vt 0.178621 0.985574
vt 0.165870 0.987459
vt 0.165863 0.985702
vt 0.152983 0.987465
vt 0.152991 0.985693
vt 0.140192 0.987412
vt 0.140192 0.985648
vt 0.127356 0.987518
vt 0.127349 0.985736
vt 0.114306 0.987543
vt 0.114313 0.985762
vt 0.101362 0.987524
vt 0.101370 0.985752
vt 0.088450 0.987504
vt 0.088457 0.985735
vt 0.075545 0.987478
vt 0.075554 0.985709
vt 0.140195 0.989049
vt 0.127368 0.989286
vt 0.114282 0.989252
vt 0.101340 0.989226
vt 0.075521 0.989178
vt 0.062606 0.989134
vt 0.088427 0.989204
vt 0.049666 0.989035
vt 0.036679 0.988790
vt 0.023610 0.988184
vt 0.010714 0.986653
vt 0.217695 0.986719
vt 0.204678 0.988265
vt 0.191576 0.988827
vt 0.178639 0.989024
vt 0.165881 0.989091
vt 0.152980 0.989215
vt 0.010714 0.507133
vt 0.023754 0.505501
vt 0.205113 0.505582
vt 0.218006 0.507172
vt 0.191998 0.504943
vt 0.178958 0.504673
vt 0.165944 0.504547
vt 0.152815 0.504476
vt 0.139944 0.504707
vt 0.127185 0.504529
vt 0.114294 0.504629
vt 0.101583 0.504619
vt 0.088751 0.504596
vt 0.049981 0.504674
vt 0.062946 0.504600
vt 0.075867 0.504586
vt 0.036938 0.504895
s 1
usemtl M_PaperTowel_1_0
f 95/1/1 96/2/2 17/3/3 32/4/4
f 94/5/5 95/1/1 32/4/6 31/6/7
f 93/7/8 94/5/9 31/6/10 30/8/11
f 92/9/12 93/7/8 30/8/13 29/10/14
f 91/11/15 92/9/16 29/10/17 28/12/18
f 90/13/19 91/11/20 28/12/21 27/14/22
f 89/15/23 90/13/24 27/14/22 26/16/25
f 88/17/26 89/15/27 26/16/28 25/18/29
f 87/19/30 88/17/31 25/18/32 24/20/33
f 86/21/34 87/19/30 24/20/35 23/22/36
f 85/23/37 86/21/38 23/22/39 22/24/40
f 84/25/41 85/23/37 22/24/42 21/26/43
f 83/27/44 84/28/45 21/29/46 20/30/47
f 82/31/48 83/27/44 20/30/49 19/32/50
f 81/33/51 82/31/52 19/32/53 18/34/54
f 96/2/55 81/33/51 18/34/56 17/3/3
f 33/35/57 34/36/58 35/37/59 36/38/60
f 37/39/61 38/40/62 34/36/58 33/35/57
f 39/41/63 40/42/64 38/40/62 37/39/61
f 41/43/65 42/44/66 40/42/64 39/41/63
f 43/45/67 44/46/68 42/44/66 41/43/65
f 45/47/69 46/48/70 44/46/68 43/45/67
f 47/49/71 48/50/72 46/48/70 45/47/69
f 49/51/73 50/52/74 48/50/72 47/49/71
f 51/53/75 52/54/76 50/52/74 49/51/73
f 53/55/77 54/56/78 52/54/76 51/53/75
f 55/57/79 56/58/80 54/56/78 53/55/77
f 57/59/81 58/60/82 56/58/80 55/57/79
f 59/61/83 60/62/84 58/63/82 57/64/81
f 61/65/85 62/66/86 60/62/84 59/61/83
f 63/67/87 64/68/88 62/66/86 61/65/85
f 36/38/60 35/37/59 64/68/88 63/67/87
f 114/69/89 113/70/90 60/62/91 62/66/92
f 98/71/93 97/72/94 47/49/95 45/47/69
f 116/73/96 115/74/97 35/37/98 34/36/99
f 117/75/100 114/69/89 62/66/92 64/68/101
f 97/72/94 99/76/102 49/51/103 47/49/95
f 118/77/104 116/73/96 34/36/99 38/40/105
f 115/74/106 117/75/107 64/68/101 35/37/98
f 99/76/108 100/78/109 51/53/75 49/51/103
f 119/79/110 118/77/104 38/40/105 40/42/111
f 100/78/109 101/80/112 53/55/77 51/53/75
f 120/81/113 119/79/110 40/42/111 42/44/114
f 101/80/115 102/82/116 55/57/79 53/55/77
f 121/83/117 120/81/113 42/44/114 44/46/68
f 102/82/116 103/84/118 57/59/81 55/57/79
f 122/85/119 121/83/120 44/46/68 46/48/121
f 103/86/122 104/87/123 59/61/83 57/64/124
f 123/88/125 122/85/126 46/48/70 48/50/72
f 104/87/123 105/89/127 61/65/85 59/61/83
f 124/90/128 123/88/129 48/50/72 50/52/130
f 105/89/131 106/91/132 63/67/87 61/65/85
f 125/92/133 124/90/134 50/52/135 52/54/136
f 108/93/137 107/94/138 37/39/61 33/35/57
f 106/91/139 109/95/140 36/38/60 63/67/87
f 126/96/141 125/92/133 52/54/136 54/56/142
f 107/94/143 110/97/144 39/41/63 37/39/61
f 109/95/145 108/93/137 33/35/57 36/38/146
f 127/98/147 126/96/141 54/56/78 56/58/148
f 110/97/149 111/99/150 41/43/65 39/41/63
f 128/100/151 127/98/147 56/58/80 58/60/152
f 111/99/150 112/101/153 43/45/67 41/43/154
f 113/70/90 128/102/151 58/63/155 60/62/91
f 112/101/153 98/71/93 45/47/69 43/45/67
f 16/103/156 15/104/157 66/105/51 65/106/55
f 15/104/158 14/107/159 67/108/52 66/105/51
f 14/107/160 13/109/161 68/110/44 67/108/48
f 13/109/162 12/111/163 69/112/45 68/110/44
f 12/113/164 11/114/165 70/115/37 69/116/41
f 11/114/166 10/117/167 71/118/38 70/115/37
f 10/117/168 9/119/169 72/120/30 71/118/34
f 9/119/170 8/121/171 73/122/31 72/120/30
f 8/121/172 7/123/173 74/124/27 73/122/26
f 7/123/173 6/125/174 75/126/24 74/124/175
f 6/125/174 5/127/176 76/128/20 75/126/19
f 5/127/177 4/129/178 77/130/16 76/128/15
f 4/129/179 3/131/180 78/132/8 77/130/12
f 3/131/181 2/133/182 79/134/9 78/132/8
f 2/133/183 1/135/184 80/136/1 79/134/5
f 1/135/185 16/103/156 65/106/2 80/136/1
f 65/106/55 66/105/51 81/33/51 96/2/55
f 66/105/51 67/108/52 82/31/52 81/33/51
f 67/108/48 68/110/44 83/27/44 82/31/48
f 68/110/44 69/112/45 84/28/45 83/27/44
f 69/116/41 70/115/37 85/23/37 84/25/41
f 70/115/37 71/118/38 86/21/38 85/23/37
f 71/118/34 72/120/30 87/19/30 86/21/34
f 72/120/30 73/122/31 88/17/31 87/19/30
f 73/122/26 74/124/27 89/15/27 88/17/26
f 74/124/175 75/126/24 90/13/24 89/15/175
f 75/126/19 76/128/20 91/11/20 90/13/19
f 76/128/15 77/130/16 92/9/16 91/11/15
f 77/130/12 78/132/8 93/7/8 92/9/12
f 78/132/8 79/134/9 94/5/9 93/7/8
f 79/134/5 80/136/1 95/1/1 94/5/5
f 80/136/1 65/106/2 96/2/2 95/1/1
f 5/127/186 6/125/187 98/137/93 112/138/153
f 4/129/179 5/127/176 112/138/153 111/139/188
f 3/131/181 4/129/178 111/139/150 110/140/144
f 16/103/156 1/135/184 108/141/189 109/142/140
f 2/133/182 3/131/181 110/140/144 107/143/190
f 15/104/158 16/103/156 109/142/140 106/144/191
f 1/135/184 2/133/192 107/143/190 108/141/193
f 14/107/159 15/104/158 106/144/132 105/145/194
f 13/109/161 14/107/195 105/145/194 104/146/196
f 12/111/164 13/109/161 104/146/197 103/147/198
f 11/114/199 12/113/164 103/148/118 102/149/200
f 10/117/167 11/114/166 102/149/200 101/150/201
f 9/119/202 10/117/203 101/150/201 100/151/204
f 8/121/172 9/119/202 100/151/205 99/152/102
f 7/123/206 8/121/171 99/152/102 97/153/94
f 6/125/174 7/123/206 97/153/94 98/137/93
f 20/30/47 21/29/207 128/154/151 113/155/90
f 21/26/46 22/24/40 127/156/147 128/157/208
f 22/24/40 23/22/209 126/158/210 127/156/147
f 23/22/211 24/20/212 125/159/213 126/158/141
f 24/20/33 25/18/32 124/160/134 125/159/133
f 25/18/32 26/16/214 123/161/129 124/160/128
f 26/16/28 27/14/22 122/162/126 123/161/129
f 27/14/22 28/12/215 121/163/120 122/162/126
f 28/12/21 29/10/17 120/164/113 121/163/120
f 29/10/216 30/8/217 119/165/110 120/164/113
f 30/8/218 31/6/219 118/166/104 119/165/110
f 17/3/3 18/34/54 117/167/107 115/168/220
f 31/6/221 32/4/4 116/169/96 118/166/104
f 18/34/54 19/32/222 114/170/89 117/167/223
f 32/4/4 17/3/224 115/168/106 116/169/225
f 19/32/226 20/30/227 113/155/228 114/170/89
