# Blender 4.1.0
# www.blender.org
mtllib FridgeDrawer1D1FridgeDrawer1D1_1_GeomSubset_1.mtl
o FridgeDrawer1D1FridgeDrawer1D1_1_GeomSubset_1
v -0.043033 0.037125 -0.960710
v -0.043023 0.037125 -0.960710
v -0.043033 0.037135 -0.960710
v -0.043023 0.037135 -0.960710
v -0.043033 0.037125 -0.960710
v -0.043023 0.037125 -0.960710
v -0.043033 0.037135 -0.960710
v -0.043023 0.037135 -0.960710
v -0.043033 0.037125 -0.960710
v -0.043023 0.037125 -0.960710
v -0.043033 0.037135 -0.960710
v -0.043023 0.037135 -0.960710
v -0.043033 0.037125 -0.960710
v -0.043023 0.037125 -0.960710
v -0.043033 0.037135 -0.960710
v -0.043023 0.037135 -0.960710
v -0.043033 0.037125 -0.960710
v -0.043023 0.037125 -0.960710
v -0.043033 0.037135 -0.960710
v -0.043023 0.037135 -0.960710
v -0.043033 0.037125 -0.960710
v -0.043023 0.037125 -0.960710
v -0.043033 0.037135 -0.960710
v -0.043023 0.037135 -0.960710
v -0.043033 0.037125 -0.960710
v -0.043023 0.037125 -0.960710
v -0.043033 0.037135 -0.960710
v -0.043023 0.037135 -0.960710
v -0.057208 0.233956 -0.247911
v 0.518251 0.233956 -0.247911
v -0.057208 -0.286304 -0.247911
v 0.518251 -0.286304 -0.247911
v 0.175736 0.233956 -0.247911
v 0.093488 0.233956 -0.247911
v 0.367556 0.233956 -0.247911
v 0.285307 0.233956 -0.247911
v 0.175736 -0.310454 -0.247911
v 0.093810 -0.305317 -0.247911
v 0.367233 -0.305317 -0.247911
v 0.285307 -0.310454 -0.247911
v 0.093488 0.233956 -0.490791
v -0.057208 0.233956 -0.490791
v 0.367556 0.233956 -0.490791
v 0.518251 0.233956 -0.490791
v 0.285307 0.233956 -0.490791
v 0.175736 0.233956 -0.490791
v -0.047134 0.223882 -0.247911
v 0.508178 0.223882 -0.247911
v -0.047134 -0.277419 -0.247911
v 0.508178 -0.277419 -0.247911
v 0.175736 0.223882 -0.247911
v 0.093488 0.223882 -0.247911
v 0.367556 0.223882 -0.247911
v 0.285307 0.223882 -0.247911
v 0.176051 -0.300380 -0.247911
v 0.094755 -0.295283 -0.247911
v 0.366288 -0.295283 -0.247911
v 0.284992 -0.300380 -0.247911
v -0.047134 0.223882 -0.481269
v 0.508178 0.223882 -0.481269
v 0.175736 0.223882 -0.481269
v 0.093488 0.223882 -0.481269
v 0.367556 0.223882 -0.481269
v 0.285307 0.223882 -0.481269
v -0.057208 0.233956 -0.256881
v 0.093488 0.233956 -0.256881
v -0.057208 -0.286304 -0.256881
v 0.093810 -0.305317 -0.256881
v 0.518251 -0.286304 -0.256881
v 0.367233 -0.305317 -0.256881
v 0.518251 0.233956 -0.256881
v 0.367556 0.233956 -0.256881
v 0.285307 -0.310454 -0.256881
v 0.175736 -0.310454 -0.256881
v 0.175736 0.233956 -0.256881
v 0.285307 0.233956 -0.256881
v 0.284992 -0.300380 -0.256881
v 0.366288 -0.295283 -0.256881
v 0.508178 -0.277419 -0.256881
v 0.508178 0.223882 -0.256881
v 0.367556 0.223882 -0.256881
v 0.285307 0.223882 -0.256881
v 0.175736 0.223882 -0.256881
v 0.093488 0.223882 -0.256881
v -0.047134 0.223882 -0.256881
v -0.047134 -0.277419 -0.256881
v 0.094755 -0.295283 -0.256881
v 0.176051 -0.300380 -0.256881
v -0.058588 0.235336 -0.249747
v 0.519632 0.235336 -0.249747
v -0.058588 -0.287521 -0.249747
v 0.519632 -0.287521 -0.249747
v 0.175736 0.235336 -0.249747
v 0.093488 0.235336 -0.249747
v 0.367556 0.235336 -0.249747
v 0.285307 0.235336 -0.249747
v 0.175692 -0.311834 -0.249747
v 0.093680 -0.306692 -0.249747
v 0.367363 -0.306692 -0.249747
v 0.285351 -0.311834 -0.249747
v -0.058588 0.235336 -0.255046
v 0.093488 0.235336 -0.255046
v -0.058588 -0.287521 -0.255046
v 0.093680 -0.306692 -0.255046
v 0.519632 -0.287521 -0.255046
v 0.367363 -0.306692 -0.255046
v 0.519632 0.235336 -0.255046
v 0.367556 0.235336 -0.255046
v 0.285351 -0.311834 -0.255046
v 0.175692 -0.311834 -0.255046
v 0.175736 0.235336 -0.255046
v 0.285307 0.235336 -0.255046
v 0.093810 -0.305317 -0.452841
v 0.093787 -0.267367 -0.490791
v -0.057208 -0.286304 -0.452841
v -0.057208 -0.248354 -0.490791
v 0.367256 -0.267367 -0.490791
v 0.367233 -0.305317 -0.452841
v 0.518251 -0.248354 -0.490791
v 0.518251 -0.286304 -0.452841
v 0.175736 -0.272504 -0.490791
v 0.175736 -0.310454 -0.452841
v 0.285307 -0.310454 -0.452841
v 0.285307 -0.272504 -0.490791
v -0.047134 -0.239469 -0.481269
v -0.047134 -0.277419 -0.443319
v 0.508178 -0.277419 -0.443319
v 0.508178 -0.239469 -0.481269
v 0.176028 -0.262430 -0.481269
v 0.176051 -0.300380 -0.443319
v 0.094755 -0.295283 -0.443319
v 0.094662 -0.257333 -0.481269
v 0.366381 -0.257333 -0.481269
v 0.366288 -0.295283 -0.443319
v 0.285015 -0.262430 -0.481269
v 0.284992 -0.300380 -0.443319
v 0.367247 -0.281890 -0.487903
v 0.285307 -0.287027 -0.487903
v 0.367240 -0.294202 -0.479676
v 0.285307 -0.299339 -0.479676
v 0.367235 -0.302429 -0.467364
v 0.285307 -0.307566 -0.467364
v 0.175736 -0.287027 -0.487903
v 0.093796 -0.281890 -0.487903
v 0.175736 -0.299339 -0.479676
v 0.093803 -0.294202 -0.479676
v 0.175736 -0.307566 -0.467364
v 0.093808 -0.302429 -0.467364
v 0.518251 -0.262877 -0.487903
v 0.518251 -0.275189 -0.479676
v 0.518251 -0.283416 -0.467364
v -0.057208 -0.262877 -0.487903
v -0.057208 -0.275189 -0.479676
v -0.057208 -0.283416 -0.467364
v -0.047134 -0.253992 -0.478381
v 0.094698 -0.271856 -0.478381
v -0.047134 -0.266304 -0.470154
v 0.094728 -0.284168 -0.470154
v -0.047134 -0.274530 -0.457842
v 0.094748 -0.292394 -0.457842
v 0.366345 -0.271856 -0.478381
v 0.508178 -0.253992 -0.478381
v 0.366315 -0.284168 -0.470154
v 0.508178 -0.266304 -0.470154
v 0.366295 -0.292394 -0.457842
v 0.508178 -0.274530 -0.457842
v 0.176037 -0.276953 -0.478381
v 0.285006 -0.276953 -0.478381
v 0.176044 -0.289265 -0.470154
v 0.284999 -0.289265 -0.470154
v 0.176049 -0.297492 -0.457842
v 0.284994 -0.297492 -0.457842
vn -0.0000 -0.0000 1.0000
vn -0.0000 0.9819 -0.1896
vn -0.0000 0.9818 -0.1900
vn -0.0000 0.9818 0.1900
vn -0.0000 0.9819 0.1896
vn 0.0263 -0.9817 -0.1883
vn 0.1014 -0.9769 -0.1881
vn 0.1014 -0.9769 0.1881
vn 0.0263 -0.9817 0.1884
vn -0.1014 -0.9769 -0.1881
vn -0.0263 -0.9817 -0.1884
vn -0.0263 -0.9817 0.1884
vn -0.1014 -0.9769 0.1881
vn -0.0000 0.9905 -0.1374
vn -0.0000 0.9905 0.1374
vn 0.9897 -0.0000 -0.1433
vn 0.9905 -0.0000 -0.1377
vn 0.9905 -0.0000 0.1376
vn 0.9897 -0.0000 0.1433
vn 0.1236 -0.9820 -0.1431
vn 0.1236 -0.9820 0.1431
vn -0.1236 -0.9820 -0.1431
vn -0.1236 -0.9820 0.1431
vn -0.9905 -0.0000 -0.1377
vn -0.9897 -0.0000 -0.1433
vn -0.9897 -0.0000 0.1433
vn -0.9905 -0.0000 0.1376
vn -0.1023 0.9948 -0.0000
vn -0.0268 0.9996 -0.0000
vn -0.1024 0.9947 -0.0000
vn -0.1249 0.9922 -0.0000
vn -1.0000 -0.0000 -0.0000
vn -0.0000 -1.0000 -0.0000
vn 1.0000 -0.0000 -0.0000
vn 0.1023 0.9948 -0.0000
vn 0.1249 0.9922 -0.0000
vn 0.1024 0.9947 -0.0000
vn 0.0268 0.9996 -0.0000
vn -0.0000 0.7991 0.6012
vn -0.0000 0.7990 0.6013
vn -0.0000 0.7994 0.6008
vn 0.7995 -0.0000 0.6006
vn 0.7996 -0.0000 0.6006
vn 0.0998 -0.7931 0.6009
vn 0.0824 -0.7949 0.6011
vn 0.0214 -0.7989 0.6011
vn -0.0214 -0.7989 0.6011
vn -0.0824 -0.7949 0.6012
vn -0.0999 -0.7931 0.6009
vn -0.7994 -0.0000 0.6008
vn -0.0000 1.0000 -0.0059
vn -0.0000 1.0000 -0.0079
vn -1.0000 -0.0000 -0.0080
vn -1.0000 -0.0000 -0.0077
vn -0.1249 -0.9921 -0.0092
vn -0.1031 -0.9946 -0.0071
vn -0.0268 -0.9996 -0.0071
vn 0.0268 -0.9996 -0.0071
vn 0.1031 -0.9946 -0.0071
vn 0.1249 -0.9921 -0.0092
vn 1.0000 -0.0002 -0.0077
vn 1.0000 -0.0000 -0.0079
vt -137.538727 -114.565849
vt -137.538727 -114.565956
vt -137.538467 -114.565956
vt -137.538467 -114.565849
vt -142.850937 0.790012
vt -142.850937 1.171250
vt -142.876419 1.145764
vt -142.876419 0.790012
vt -144.167114 1.171250
vt -144.144638 1.145764
vt -144.215210 0.789198
vt -144.189835 0.786806
vt -144.228210 0.581938
vt -144.202728 0.581140
vt -144.228210 0.304739
vt -144.202728 0.305536
vt -144.215210 0.097479
vt -144.189835 0.099870
vt -144.167114 -0.284573
vt -144.144638 -0.259087
vt -142.850937 -0.284573
vt -142.876419 -0.259087
vt -142.850937 0.096664
vt -142.876419 0.096664
vt -142.850937 0.304739
vt -142.876419 0.304739
vt -142.850937 0.581938
vt -142.876419 0.581938
vt -143.104095 0.093525
vt -143.104095 0.303484
vt -143.117615 0.303484
vt -143.117615 0.093525
vt -143.094574 0.303044
vt -143.094574 0.093194
vt -143.081009 0.093194
vt -143.081009 0.303044
vt -143.094574 0.793482
vt -143.094574 0.583633
vt -143.081009 0.583633
vt -143.081009 0.793482
vt -143.104095 0.583193
vt -143.104095 0.793151
vt -143.117615 0.793151
vt -143.117615 0.583193
vt -143.104095 -0.294687
vt -143.117615 -0.294687
vt -143.036407 1.080285
vt -143.036407 -0.278167
vt -143.022644 -0.278167
vt -143.022644 1.080285
vt -143.094574 -0.296424
vt -143.081009 -0.296424
vt -143.094574 1.183101
vt -143.081009 1.183101
vt -143.015991 1.080283
vt -143.015991 -0.278164
vt -143.002228 -0.278164
vt -143.002228 1.080283
vt -143.104095 1.181364
vt -143.117615 1.181364
vt -143.059235 0.089155
vt -143.059235 0.290762
vt -143.081482 0.290762
vt -143.081482 0.089155
vt -143.081482 -0.262718
vt -143.059235 -0.262718
vt -142.999786 1.004762
vt -142.999786 -0.235567
vt -142.977585 -0.235567
vt -142.977585 1.004762
vt -143.061035 0.086791
vt -143.061035 -0.261139
vt -143.038849 -0.261139
vt -143.038849 0.086791
vt -143.061035 0.290292
vt -143.038849 0.290292
vt -143.061035 0.561397
vt -143.038849 0.561397
vt -143.061035 0.764897
vt -143.038849 0.764897
vt -143.061035 1.112828
vt -143.038849 1.112828
vt -142.979370 1.004764
vt -142.979370 -0.235569
vt -142.957169 -0.235569
vt -142.957169 1.004764
vt -143.059235 0.762533
vt -143.059235 1.114407
vt -143.081482 1.114407
vt -143.081482 0.762533
vt -143.059235 0.560927
vt -143.081482 0.560927
vt -142.847443 0.790012
vt -142.847443 1.174741
vt -142.847443 0.581938
vt -142.847443 0.304739
vt -142.847443 0.096664
vt -142.847443 -0.288064
vt -143.017868 -0.274582
vt -143.017868 1.077123
vt -144.218689 0.097151
vt -144.170197 -0.288064
vt -144.231705 0.304629
vt -144.231705 0.582048
vt -144.218689 0.789525
vt -144.170197 1.174741
vt -142.997452 -0.275002
vt -142.997452 1.076698
vt -143.099411 0.793151
vt -143.099411 1.177841
vt -143.020752 1.076698
vt -143.020752 -0.275002
vt -143.099258 1.179570
vt -143.099258 0.793151
vt -143.099258 0.583522
vt -143.099258 0.303155
vt -143.099258 0.093526
vt -143.099258 -0.292893
vt -143.041183 1.077123
vt -143.041183 -0.274582
vt -143.099411 -0.291164
vt -143.099411 0.093525
vt -143.099411 0.303484
vt -143.099411 0.583193
s 1
usemtl M_FridgeDrawer1D1_1
f 5/1/1 6/2/1 8/3/1 7/4/1
f 34/5/1 29/6/1 47/7/1 52/8/1
f 29/6/1 31/9/1 49/10/1 47/7/1
f 31/9/1 38/11/1 56/12/1 49/10/1
f 38/11/1 37/13/1 55/14/1 56/12/1
f 37/13/1 40/15/1 58/16/1 55/14/1
f 40/15/1 39/17/1 57/18/1 58/16/1
f 39/17/1 32/19/1 50/20/1 57/18/1
f 32/19/1 30/21/1 48/22/1 50/20/1
f 30/21/1 35/23/1 53/24/1 48/22/1
f 35/23/1 36/25/1 54/26/1 53/24/1
f 36/25/1 33/27/1 51/28/1 54/26/1
f 33/27/1 34/5/1 52/8/1 51/28/1
f 108/29/2 112/30/3 96/31/4 95/32/5
f 109/33/6 106/34/7 99/35/8 100/36/9
f 104/37/10 110/38/11 97/39/12 98/40/13
f 111/41/3 102/42/2 94/43/5 93/44/4
f 112/30/3 111/41/3 93/44/4 96/31/4
f 110/38/11 109/33/6 100/36/9 97/39/12
f 107/45/14 108/29/2 95/32/5 90/46/15
f 105/47/16 107/48/17 90/49/18 92/50/19
f 106/34/7 105/51/20 92/52/21 99/35/8
f 103/53/22 104/37/10 98/40/13 91/54/23
f 101/55/24 103/56/25 91/57/26 89/58/27
f 102/42/2 101/59/14 89/60/15 94/43/5
f 78/61/28 77/62/29 58/63/29 57/64/30
f 78/61/28 57/64/30 50/65/31 79/66/31
f 80/67/32 79/68/32 50/69/32 48/70/32
f 81/71/33 80/72/33 48/73/33 53/74/33
f 82/75/33 81/71/33 53/74/33 54/76/33
f 83/77/33 82/75/33 54/76/33 51/78/33
f 84/79/33 83/77/33 51/78/33 52/80/33
f 85/81/33 84/79/33 52/80/33 47/82/33
f 86/83/34 85/84/34 47/85/34 49/86/34
f 87/87/35 86/88/36 49/89/36 56/90/37
f 88/91/38 87/87/35 56/90/37 55/92/38
f 77/62/29 88/91/38 55/92/38 58/63/29
f 29/6/39 34/5/40 94/93/5 89/94/15
f 34/5/40 33/27/41 93/95/4 94/93/5
f 33/27/41 36/25/41 96/96/4 93/95/4
f 36/25/41 35/23/41 95/97/5 96/96/4
f 35/23/41 30/21/41 90/98/15 95/97/5
f 30/99/42 32/100/43 92/50/19 90/49/18
f 32/19/44 39/17/45 99/101/8 92/102/21
f 39/17/45 40/15/46 100/103/9 99/101/8
f 40/15/46 37/13/47 97/104/12 100/103/9
f 37/13/47 38/11/48 98/105/13 97/104/12
f 38/11/48 31/9/49 91/106/23 98/105/13
f 31/107/50 29/108/50 89/58/27 91/57/26
f 66/109/51 65/110/52 101/59/14 102/42/2
f 65/111/53 67/112/54 103/56/25 101/55/24
f 67/113/55 68/114/56 104/37/10 103/53/22
f 68/114/56 74/115/57 110/38/11 104/37/10
f 74/115/57 73/116/58 109/33/6 110/38/11
f 73/116/58 70/117/59 106/34/7 109/33/6
f 70/117/59 69/118/60 105/51/20 106/34/7
f 69/119/61 71/120/62 107/48/17 105/47/16
f 71/121/52 72/122/51 108/29/2 107/45/14
f 72/122/51 76/123/51 112/30/3 108/29/2
f 76/123/51 75/124/51 111/41/3 112/30/3
f 75/124/51 66/109/51 102/42/2 111/41/3
