# Blender 4.1.0
# www.blender.org
mtllib FridgeDrawer2_27_FridgeDrawer2E3_3_GeomSubset_1.mtl
o FridgeDrawer2_27_FridgeDrawer2E3_3_GeomSubset_1
v -0.000994 -0.055211 -0.941303
v -0.000984 -0.055211 -0.941303
v -0.000994 -0.055202 -0.941303
v -0.000984 -0.055202 -0.941303
v -0.000994 -0.055211 -0.941303
v -0.000984 -0.055211 -0.941303
v -0.000994 -0.055202 -0.941303
v -0.000984 -0.055202 -0.941303
v -0.000994 -0.055211 -0.941303
v -0.000984 -0.055211 -0.941303
v -0.000994 -0.055202 -0.941303
v -0.000984 -0.055202 -0.941303
v -0.000994 -0.055211 -0.941303
v -0.000984 -0.055211 -0.941303
v -0.000994 -0.055202 -0.941303
v -0.000984 -0.055202 -0.941303
v -0.000994 -0.055211 -0.941303
v -0.000984 -0.055211 -0.941303
v -0.000994 -0.055202 -0.941303
v -0.000984 -0.055202 -0.941303
v -0.000994 -0.055211 -0.941303
v -0.000984 -0.055211 -0.941303
v -0.000994 -0.055202 -0.941303
v -0.000984 -0.055202 -0.941303
v -0.000994 -0.055211 -0.941303
v -0.000984 -0.055211 -0.941303
v -0.000994 -0.055202 -0.941303
v -0.000984 -0.055202 -0.941303
v -0.424974 -0.262794 -0.784551
v -0.430543 -0.258397 -0.790025
v -0.425390 -0.258487 -0.794423
v -0.420020 -0.262794 -0.789768
v 0.431684 -0.262793 -0.789768
v 0.436947 -0.258395 -0.794423
v 0.442207 -0.258486 -0.790116
v 0.436638 -0.262793 -0.784551
v -0.418239 -0.049744 -0.546598
v -0.425284 -0.045088 -0.550996
v -0.430543 -0.049396 -0.550906
v -0.424975 -0.053560 -0.546598
v 0.436639 -0.053559 -0.546598
v 0.442207 -0.049485 -0.550996
v 0.437055 -0.045087 -0.550905
v 0.429903 -0.049742 -0.546598
v -0.430543 -0.049576 -0.789935
v -0.425175 -0.045088 -0.789935
v -0.425175 -0.049576 -0.794423
v 0.436839 -0.049575 -0.794423
v 0.436839 -0.045087 -0.789935
v 0.442207 -0.049575 -0.789935
v -0.425175 -0.258306 -0.546598
v -0.430543 -0.258306 -0.551086
v -0.425175 -0.262794 -0.551086
v 0.436839 -0.262793 -0.551086
v 0.442207 -0.258305 -0.551086
v 0.436839 -0.258305 -0.546598
v -0.404982 -0.262794 -0.776127
v -0.399880 -0.258356 -0.771535
v -0.405189 -0.258387 -0.767128
v -0.410640 -0.262794 -0.771714
v 0.422304 -0.262793 -0.771714
v 0.416853 -0.258345 -0.767087
v 0.411603 -0.258404 -0.771535
v 0.416646 -0.262793 -0.776127
v 0.416853 -0.258305 -0.551086
v 0.422222 -0.262793 -0.551086
v 0.422222 -0.258305 -0.546598
v -0.410558 -0.258306 -0.546598
v -0.410558 -0.262794 -0.551086
v -0.405189 -0.258306 -0.551086
v -0.405189 -0.068149 -0.551034
v -0.399908 -0.063713 -0.551013
v -0.405548 -0.059220 -0.546598
v -0.410654 -0.063999 -0.546598
v 0.422317 -0.063998 -0.546598
v 0.417215 -0.059168 -0.546598
v 0.411528 -0.063712 -0.551050
v 0.416852 -0.068148 -0.551034
v 0.416852 -0.068200 -0.767047
v 0.411484 -0.063712 -0.767047
v 0.411484 -0.068200 -0.771535
v -0.399820 -0.068201 -0.771535
v -0.399820 -0.063713 -0.767047
v -0.405189 -0.068201 -0.767047
v -0.405564 -0.254767 -0.773319
v 0.417229 -0.254765 -0.773319
v -0.405564 -0.254767 -0.554116
v 0.417229 -0.254765 -0.554116
v -0.405564 -0.238876 -0.554116
v 0.417229 -0.238875 -0.554116
v -0.405564 -0.238876 -0.773319
v 0.417229 -0.238875 -0.773319
v 0.427187 -0.261264 -0.593580
v 0.426670 -0.264345 -0.593662
v 0.423935 -0.262390 -0.595820
v 0.338795 -0.284291 -0.595820
v 0.339528 -0.286531 -0.593498
v 0.423935 -0.262390 -0.565231
v 0.426524 -0.264382 -0.567470
v 0.427187 -0.261264 -0.567470
v 0.338795 -0.284291 -0.565231
v 0.339528 -0.286531 -0.567552
v 0.418338 -0.257504 -0.567612
v 0.419920 -0.259464 -0.565231
v 0.422286 -0.258169 -0.567612
v 0.336964 -0.277223 -0.565231
v 0.336363 -0.274955 -0.567552
v 0.419920 -0.259464 -0.595820
v 0.418365 -0.257498 -0.593468
v 0.422264 -0.258155 -0.593468
v 0.336363 -0.274955 -0.593498
v 0.336964 -0.277223 -0.595820
v -0.000988 -0.323071 -0.567552
v -0.000988 -0.320744 -0.565231
v 0.162470 -0.315675 -0.565231
v 0.162817 -0.317982 -0.567552
v -0.000989 -0.303622 -0.565231
v -0.000989 -0.301298 -0.567552
v 0.162817 -0.297802 -0.567552
v 0.163056 -0.300116 -0.565231
v -0.000989 -0.301298 -0.593498
v -0.000989 -0.303622 -0.595820
v 0.163056 -0.300116 -0.595820
v 0.162817 -0.297802 -0.593498
v -0.000988 -0.320744 -0.595820
v -0.000988 -0.323071 -0.593498
v 0.162817 -0.317982 -0.593498
v 0.162470 -0.315675 -0.595820
v 0.249804 -0.302331 -0.565231
v 0.250381 -0.304602 -0.567552
v 0.250381 -0.288590 -0.567552
v 0.250813 -0.290885 -0.565231
v 0.250813 -0.290885 -0.595820
v 0.250381 -0.288590 -0.593498
v 0.250381 -0.304602 -0.593498
v 0.249804 -0.302331 -0.595820
v -0.412271 -0.262391 -0.595820
v -0.414860 -0.264384 -0.593580
v -0.415522 -0.261266 -0.593580
v -0.327131 -0.284292 -0.595820
v -0.327863 -0.286533 -0.593498
v -0.415522 -0.261266 -0.567470
v -0.415006 -0.264347 -0.567388
v -0.412271 -0.262391 -0.565231
v -0.327131 -0.284292 -0.565231
v -0.327863 -0.286533 -0.567552
v -0.410623 -0.258171 -0.567612
v -0.408256 -0.259466 -0.565231
v -0.406673 -0.257505 -0.567612
v -0.325300 -0.277224 -0.565231
v -0.324698 -0.274956 -0.567552
v -0.410600 -0.258156 -0.593468
v -0.406673 -0.257505 -0.593438
v -0.408256 -0.259466 -0.595820
v -0.324698 -0.274956 -0.593498
v -0.325300 -0.277224 -0.595820
v -0.151153 -0.317982 -0.567552
v -0.150805 -0.315676 -0.565231
v -0.151392 -0.300117 -0.565231
v -0.151153 -0.297802 -0.567552
v -0.151153 -0.297802 -0.593498
v -0.151392 -0.300117 -0.595820
v -0.150805 -0.315676 -0.595820
v -0.151153 -0.317982 -0.593498
v -0.238717 -0.304603 -0.567552
v -0.238139 -0.302332 -0.565231
v -0.239149 -0.290886 -0.565231
v -0.238717 -0.288591 -0.567552
v -0.238717 -0.288591 -0.593498
v -0.239149 -0.290886 -0.595820
v -0.238139 -0.302332 -0.595820
v -0.238717 -0.304603 -0.593498
vn -0.0000 -0.0000 1.0000
vn -0.3706 -0.9288 -0.0054
vn -0.0016 -0.9019 -0.4319
vn 0.0011 -0.9945 0.1048
vn 0.1087 -0.9941 0.0037
vn -0.6185 -0.7855 -0.0205
vn -0.2215 -0.9750 0.0156
vn -0.7511 -0.4966 0.4350
vn -0.0052 -0.0000 -1.0000
vn -0.6453 0.0005 -0.7640
vn -0.7613 0.4901 -0.4245
vn -0.0049 0.0209 -0.9998
vn -0.0076 -0.7351 -0.6779
vn 0.0072 -0.7350 -0.6781
vn 0.0018 -0.9025 -0.4307
vn 0.3681 -0.9298 -0.0054
vn -0.1091 -0.9940 0.0039
vn -0.0011 -0.9945 0.1052
vn 0.6375 0.0005 -0.7704
vn 0.0052 0.0002 -1.0000
vn 0.0050 0.0210 -0.9998
vn 0.7620 0.4853 -0.4288
vn 0.6142 -0.7888 -0.0214
vn 0.7509 -0.4967 0.4352
vn 0.2196 -0.9755 0.0157
vn -0.0012 0.5153 0.8570
vn -0.3431 0.0090 0.9393
vn 0.1184 -0.0043 0.9930
vn 0.0015 -0.1324 0.9912
vn -0.0078 0.6776 0.7354
vn 0.0012 0.5164 0.8563
vn 0.0083 0.6772 0.7357
vn -0.6376 0.7704 -0.0004
vn -0.0053 1.0000 -0.0002
vn -0.0050 0.9998 -0.0183
vn -0.6135 0.0231 0.7893
vn -0.2188 -0.0178 0.9756
vn 0.3452 0.0089 0.9385
vn -0.0016 -0.1324 0.9912
vn -0.1184 -0.0043 0.9930
vn 0.6178 0.0221 0.7860
vn 0.2208 -0.0178 0.9752
vn 0.0052 1.0000 -0.0000
vn 0.6453 0.7639 -0.0004
vn 0.0050 0.9998 -0.0184
vn 0.2106 -0.9774 0.0161
vn 0.2112 -0.0182 0.9773
vn -0.2112 -0.0182 0.9773
vn -0.2115 -0.9772 0.0160
vn 0.0025 -0.7224 0.6914
vn -0.0026 -0.7224 0.6915
vn 0.6400 -0.0003 0.7683
vn 0.0056 -0.0001 1.0000
vn 0.0054 -0.0229 0.9997
vn 0.7616 -0.4857 0.4290
vn 0.6288 -0.7775 0.0125
vn 0.7568 -0.4901 0.4325
vn -0.6306 -0.7760 0.0123
vn -0.7576 -0.4895 0.4319
vn -0.0056 0.0030 1.0000
vn -0.6439 -0.0003 0.7651
vn -0.7623 -0.4871 0.4263
vn -0.0054 -0.0230 0.9997
vn -0.6287 -0.0140 0.7775
vn 0.6289 -0.0139 0.7774
vn 0.0056 -1.0000 -0.0010
vn 0.6423 -0.7665 0.0002
vn 0.0054 -0.9998 0.0203
vn 0.0026 -0.6989 0.7152
vn -0.0025 -0.6988 0.7153
vn -0.6408 -0.7677 0.0002
vn -0.0056 -1.0000 0.0002
vn -0.0054 -0.9998 0.0203
vn -1.0000 -0.0000 -0.0000
vn 1.0000 -0.0000 -0.0000
vn 0.4426 0.4132 -0.7958
vn 0.1211 -0.3883 -0.9135
vn -0.0300 0.1862 -0.9821
vn 0.3993 0.9141 -0.0706
vn 0.9824 -0.1870 0.0026
vn 0.1771 -0.6424 -0.7456
vn 0.1537 -0.6707 -0.7256
vn 0.0524 -0.2311 -0.9715
vn 0.1238 -0.6938 -0.7094
vn 0.0296 -0.1672 -0.9855
vn 0.1223 -0.3910 0.9122
vn 0.4478 0.4072 0.7960
vn 0.3996 0.9140 0.0706
vn -0.0300 0.1868 0.9819
vn 0.1788 -0.6497 0.7388
vn 0.0529 -0.2328 0.9711
vn 0.1547 -0.6738 0.7225
vn 0.0296 -0.1672 0.9855
vn 0.1238 -0.6936 0.7096
vn -0.1921 0.9769 0.0940
vn -0.1920 0.9769 -0.0939
vn -0.1813 0.9799 0.0831
vn -0.0410 0.2200 0.9746
vn -0.0917 0.6995 0.7087
vn -0.0219 0.1654 0.9860
vn -0.0408 0.2193 -0.9748
vn -0.1813 0.9799 -0.0831
vn -0.0219 0.1654 -0.9860
vn -0.0917 0.6997 -0.7085
vn -0.0000 -0.9967 0.0809
vn -0.0000 -0.1273 0.9919
vn -0.0104 -0.1355 0.9907
vn -0.0557 -0.7036 0.7084
vn 0.0732 -0.9941 0.0796
vn 0.0097 -0.1351 0.9908
vn 0.0002 0.7070 0.7072
vn -0.0000 0.9966 0.0828
vn 0.0373 0.7056 0.7076
vn 0.0070 0.1283 0.9917
vn -0.0066 0.1278 0.9918
vn -0.0503 0.9952 0.0840
vn -0.0000 0.9966 -0.0828
vn 0.0002 0.7070 -0.7072
vn 0.0070 0.1283 -0.9917
vn 0.0372 0.7056 -0.7077
vn -0.0503 0.9952 -0.0840
vn -0.0066 0.1278 -0.9918
vn -0.0001 -0.7069 -0.7073
vn -0.0000 -0.9967 -0.0809
vn -0.0557 -0.7037 -0.7084
vn -0.0104 -0.1355 -0.9907
vn 0.0097 -0.1351 -0.9908
vn 0.0732 -0.9941 -0.0796
vn -0.1224 -0.3912 -0.9121
vn -0.4477 0.4035 -0.7979
vn -0.3989 0.9143 -0.0708
vn 0.0299 0.1867 -0.9820
vn -0.1787 -0.6498 -0.7388
vn -0.0529 -0.2328 -0.9711
vn -0.1547 -0.6739 -0.7225
vn -0.9824 -0.1867 -0.0026
vn -0.0296 -0.1672 -0.9855
vn -0.1238 -0.6938 -0.7094
vn -0.4426 0.4169 0.7939
vn -0.1211 -0.3883 0.9136
vn 0.0300 0.1868 0.9819
vn -0.3989 0.9143 0.0705
vn -0.1771 -0.6424 0.7456
vn -0.1534 -0.6708 0.7256
vn -0.0524 -0.2311 0.9715
vn -0.1238 -0.6936 0.7096
vn -0.0296 -0.1672 0.9855
vn 0.1921 0.9768 0.0941
vn 0.1920 0.9769 -0.0941
vn 0.0410 0.2200 0.9746
vn 0.1813 0.9799 0.0831
vn 0.0218 0.1654 0.9860
vn 0.0917 0.6995 0.7087
vn 0.1813 0.9799 -0.0831
vn 0.0410 0.2200 -0.9746
vn 0.0917 0.6997 -0.7086
vn 0.0219 0.1654 -0.9860
vn 0.2467 -0.9691 -0.0000
vn 0.2228 -0.9749 -0.0000
vn 0.5340 0.8455 -0.0000
vn -0.0000 -0.0000 -1.0000
vn -0.1307 0.9914 -0.0000
vn 0.1754 -0.9845 -0.0000
vn -0.2467 -0.9691 -0.0000
vn -0.2228 -0.9749 -0.0000
vn -0.5337 0.8457 -0.0000
vn 0.0534 0.9986 -0.0000
vn -0.0774 -0.9970 -0.0000
vn 0.1307 0.9914 -0.0000
vn -0.1757 -0.9845 -0.0000
vt -142.597839 -110.793381
vt -142.597839 -110.793427
vt -142.597717 -110.793427
vt -142.597717 -110.793381
vt -144.194717 1.465920
vt -144.209244 1.452135
vt -144.171280 1.410288
vt -144.158997 1.426033
vt -142.933228 0.253840
vt -142.920746 0.269379
vt -142.920746 0.932029
vt -142.933472 0.932029
vt -142.932968 0.241358
vt -143.525925 0.254097
vt -143.525925 0.241358
vt -143.141449 1.458176
vt -143.153534 1.473237
vt -143.153778 -0.945278
vt -143.141449 -0.930518
vt -144.209244 -0.917847
vt -144.194717 -0.931633
vt -144.158997 -0.891746
vt -144.171280 -0.876002
vt -143.664459 0.265514
vt -143.664200 0.253289
vt -143.071503 0.253289
vt -143.071503 0.266028
vt -143.676682 0.281309
vt -143.663940 0.943952
vt -143.676682 0.943952
vt -143.427292 1.525178
vt -143.438599 1.545161
vt -143.469574 1.502675
vt -143.455399 1.487529
vt -143.413467 1.546075
vt -143.427292 -0.990891
vt -143.413467 -1.012108
vt -143.526443 0.932541
vt -143.538666 0.932287
vt -143.538666 0.254097
vt -143.514618 0.944768
vt -142.933472 0.944768
vt -143.438599 -1.010874
vt -143.455246 -0.953253
vt -143.469574 -0.968388
vt -143.071243 0.944208
vt -143.082809 0.956691
vt -143.663940 0.956691
vt -143.058762 0.944467
vt -143.058762 0.266028
vt -143.739441 1.472631
vt -143.752029 1.472631
vt -143.752029 -0.944977
vt -143.739441 -0.944977
vt -144.046005 1.545753
vt -144.059311 1.545753
vt -144.059311 1.502391
vt -144.046005 1.502391
vt -144.059311 -1.011468
vt -144.046005 -1.011468
vt -144.046005 -0.968103
vt -144.059311 -0.968103
vt -143.442398 1.390286
vt -143.454865 1.404605
vt -143.454865 -0.901383
vt -143.442535 -0.887230
vt -143.770630 0.291025
vt -143.770538 0.278490
vt -143.229752 0.278490
vt -143.229752 0.291254
vt -143.783173 0.277983
vt -143.770401 0.905436
vt -143.783173 0.905436
vt -143.356354 0.297479
vt -143.343704 0.284323
vt -143.343704 0.911749
vt -143.356461 0.911749
vt -143.356186 0.284830
vt -143.897095 0.297594
vt -143.897095 0.284830
vt -143.356461 0.924512
vt -143.909042 0.924512
vt -143.897247 0.911897
vt -143.770401 0.918200
vt -143.229599 0.905584
vt -143.217804 0.918200
vt -143.216995 0.905644
vt -143.216995 0.291254
vt -143.468719 1.470797
vt -143.468719 -0.936380
vt -143.909851 0.911853
vt -143.909851 0.297594
vt -142.908707 -0.886896
vt -142.896118 -0.886896
vt -142.896118 1.390119
vt -142.908707 1.390119
vt -142.791901 1.879389
vt -143.392487 1.879146
vt -143.392487 -0.376297
vt -142.792007 -0.376419
vt -143.923462 1.462639
vt -143.923721 -0.934680
vt -143.259201 -0.934080
vt -143.259201 1.462337
vt -143.545074 1.466478
vt -143.545074 1.425804
vt -143.545074 -0.932193
vt -143.545074 -0.891516
vt -144.209961 1.481416
vt -144.222198 1.467079
vt -144.222198 -0.932492
vt -144.210205 -0.947130
vt -143.426254 1.561678
vt -143.426514 -1.027392
vt -144.158508 1.396091
vt -144.146240 1.410864
vt -144.146133 -0.876577
vt -144.158508 -0.861970
vt -143.481888 1.486463
vt -143.481888 -0.952176
vt -143.439713 -0.979142
vt -143.436401 -0.969594
vt -143.444992 -0.957805
vt -143.448837 -0.964689
vt -143.705200 0.501269
vt -143.694870 0.501544
vt -143.694870 0.589093
vt -143.705338 0.589093
vt -143.430664 -0.977626
vt -143.365524 -0.721762
vt -143.372101 -0.719612
vt -143.312469 -0.460014
vt -143.319138 -0.458319
vt -143.225220 -0.969643
vt -143.221924 -0.979191
vt -143.212830 -0.964802
vt -143.216629 -0.957853
vt -143.231079 -0.977245
vt -143.289536 -0.719651
vt -143.296112 -0.721801
vt -143.342499 -0.458347
vt -143.349167 -0.460043
vt -143.285995 -0.896526
vt -143.285995 -0.907550
vt -143.213821 -0.907488
vt -143.213821 -0.896601
vt -143.210876 -0.953208
vt -143.262115 -0.712507
vt -143.268784 -0.714274
vt -143.302155 -0.460043
vt -143.308899 -0.461312
vt -143.450760 -0.953239
vt -143.392853 -0.714235
vt -143.399506 -0.712469
vt -143.352737 -0.461284
vt -143.359482 -0.460014
vt -143.403397 0.278044
vt -143.396561 0.278044
vt -143.381683 0.717945
vt -143.388458 0.718966
vt -143.388458 -0.202931
vt -143.381683 -0.201913
vt -143.346298 0.278044
vt -143.339462 0.278044
vt -143.329208 0.718966
vt -143.335999 0.719669
vt -143.335999 -0.203635
vt -143.329208 -0.202931
vt -143.322174 0.278043
vt -143.315338 0.278043
vt -143.325638 0.719650
vt -143.332428 0.718948
vt -143.332428 -0.202913
vt -143.325638 -0.203616
vt -143.265076 0.278043
vt -143.258240 0.278043
vt -143.273178 0.718948
vt -143.279953 0.717927
vt -143.279953 -0.201895
vt -143.273178 -0.202913
vt -143.436401 1.485628
vt -143.439713 1.495174
vt -143.448837 1.480722
vt -143.444992 1.473839
vt -143.430557 1.493229
vt -143.372101 1.235645
vt -143.365524 1.237795
vt -143.704422 0.501548
vt -143.693970 0.501548
vt -143.694092 0.589363
vt -143.704422 0.589088
vt -143.319138 0.974351
vt -143.312469 0.976048
vt -143.221924 1.495223
vt -143.225220 1.485677
vt -143.216629 1.473887
vt -143.212830 1.480837
vt -143.230972 1.493708
vt -143.296112 1.237834
vt -143.289536 1.235684
vt -143.349167 0.976077
vt -143.342499 0.974380
vt -143.285995 1.417627
vt -143.285995 1.406601
vt -143.213898 1.406601
vt -143.213821 1.417565
vt -143.210876 1.469240
vt -143.268784 1.230307
vt -143.262115 1.228540
vt -143.308899 0.977346
vt -143.302155 0.976077
vt -143.450745 1.469191
vt -143.399506 1.228502
vt -143.392853 1.230269
vt -143.359482 0.976048
vt -143.352737 0.977317
vt -143.308472 -0.920131
vt -143.235168 -0.919721
vt -143.235397 -0.676238
vt -143.308014 -0.676238
vt -143.213730 -0.667682
vt -143.286163 -0.667682
vt -143.684448 0.501920
vt -143.684494 0.588616
vt -143.213730 -0.183205
vt -143.213730 0.274079
vt -143.286163 0.274079
vt -143.286163 -0.183205
vt -143.235397 -0.181663
vt -143.235397 0.276792
vt -143.308014 0.276792
vt -143.308014 -0.181663
vt -143.213730 -0.427653
vt -143.286163 -0.427653
vt -143.235397 -0.426736
vt -143.308014 -0.426736
vt -143.308243 1.435126
vt -143.308014 1.191643
vt -143.235397 1.191643
vt -143.234940 1.435536
vt -143.286163 1.177758
vt -143.213730 1.177758
vt -143.714844 0.501924
vt -143.714798 0.588612
vt -143.213730 0.693283
vt -143.286163 0.693283
vt -143.235397 0.697069
vt -143.308014 0.697069
vt -143.213730 0.937730
vt -143.286163 0.937730
vt -143.235397 0.942142
vt -143.308014 0.942142
vt -143.698654 0.494035
vt -143.698654 0.596602
vt -143.700653 0.494040
vt -143.700653 0.596596
s 1
usemtl M_FridgeDrawer2E3_1
f 5/1/1 6/2/1 8/3/1 7/4/1
f 29/5/2 32/6/3 57/7/4 60/8/5
f 30/9/6 29/10/2 53/11/7 52/12/8
f 31/13/9 30/9/10 45/14/11 47/15/12
f 32/16/3 31/17/13 34/18/14 33/19/15
f 33/20/15 36/21/16 61/22/17 64/23/18
f 35/24/19 34/25/20 48/26/21 50/27/22
f 36/28/16 35/24/23 55/29/24 54/30/25
f 37/31/26 40/32/27 74/33/28 73/34/29
f 38/35/30 37/31/26 44/36/31 43/37/32
f 39/38/33 38/39/34 46/40/35 45/14/11
f 40/41/27 39/38/36 52/12/8 51/42/37
f 41/43/38 44/36/31 76/44/39 75/45/40
f 42/46/41 41/47/38 56/48/42 55/29/24
f 43/49/43 42/46/44 50/27/22 49/50/45
f 47/51/12 46/52/35 49/53/45 48/54/21
f 51/55/37 53/56/7 69/57/46 68/58/47
f 54/59/25 56/60/42 67/61/48 66/62/49
f 58/63/50 57/64/4 64/65/18 63/66/51
f 59/67/52 58/68/53 82/69/54 84/70/55
f 60/71/5 59/67/56 70/72/57 69/73/46
f 62/74/58 61/75/17 66/76/49 65/77/59
f 63/78/60 62/74/61 79/79/62 81/80/63
f 65/77/59 67/81/48 75/82/40 78/83/64
f 68/84/47 70/72/57 71/85/65 74/86/28
f 72/87/66 71/85/67 84/70/55 83/88/68
f 73/34/29 72/89/69 77/90/70 76/44/39
f 78/83/71 77/91/72 80/92/73 79/79/62
f 81/93/63 80/94/73 83/95/68 82/96/54
f 72/97/66 83/98/68 80/99/73 77/100/72
f 82/96/54 58/63/53 63/66/60 81/93/63
f 62/74/74 65/77/74 78/83/74 79/79/74
f 84/70/75 71/85/75 70/72/75 59/67/75
f 38/101/34 43/102/43 49/103/45 46/104/35
f 47/51/12 48/54/21 34/18/20 31/17/9
f 35/24/75 50/27/75 42/46/75 55/29/75
f 45/14/74 30/9/74 52/12/74 39/38/74
f 37/31/26 73/34/29 76/44/39 44/36/31
f 41/43/38 75/45/40 67/61/48 56/60/42
f 51/55/37 68/58/47 74/33/28 40/32/27
f 53/105/7 29/5/2 60/8/5 69/106/46
f 32/6/3 33/20/15 64/23/18 57/7/4
f 36/21/16 54/107/25 66/108/49 61/22/17
f 29/5/2 30/109/6 31/110/13 32/6/3
f 33/20/15 34/111/14 35/112/23 36/21/16
f 37/31/26 38/35/30 39/113/36 40/32/27
f 41/43/38 42/114/41 43/37/32 44/36/31
f 45/14/11 46/40/35 47/15/12
f 48/26/21 49/50/45 50/27/22
f 51/42/37 52/12/8 53/11/7
f 54/30/25 55/29/24 56/48/42
f 57/7/4 58/115/50 59/116/56 60/8/5
f 61/22/17 62/117/58 63/118/51 64/23/18
f 65/77/59 66/76/49 67/81/48
f 68/84/47 69/73/46 70/72/57
f 71/119/65 72/89/69 73/34/29 74/33/28
f 75/45/40 76/44/39 77/90/70 78/120/64
f 79/79/62 80/92/73 81/80/63
f 82/69/54 83/88/68 84/70/55
f 93/121/76 95/122/77 108/123/78 110/124/79
f 94/125/80 93/126/80 100/127/80 99/128/80
f 95/122/77 94/129/81 97/130/82 96/131/83
f 96/131/83 97/130/82 135/132/84 136/133/85
f 98/134/86 100/135/87 105/136/88 104/137/89
f 99/138/90 98/134/86 101/139/91 102/140/92
f 102/140/92 101/139/91 129/141/93 130/142/94
f 103/143/95 105/144/88 110/145/79 109/146/96
f 104/137/89 103/147/95 107/148/97 106/149/98
f 106/149/98 107/148/97 131/150/99 132/151/100
f 109/152/96 108/123/78 112/153/101 111/154/102
f 111/154/102 112/153/101 133/155/103 134/156/104
f 113/157/105 114/158/106 158/159/107 157/160/108
f 114/158/106 113/157/105 116/161/109 115/162/110
f 115/162/110 116/161/109 130/142/94 129/141/93
f 117/163/111 118/164/112 160/165/113 159/166/114
f 118/164/112 117/163/111 120/167/115 119/168/116
f 119/168/116 120/167/115 132/151/100 131/150/99
f 121/169/117 122/170/118 162/171/119 161/172/120
f 122/170/118 121/169/117 124/173/121 123/174/122
f 123/174/122 124/173/121 134/156/104 133/155/103
f 125/175/123 126/176/124 164/177/125 163/178/126
f 126/176/124 125/175/123 128/179/127 127/180/128
f 127/180/128 128/179/127 136/133/85 135/132/84
f 137/181/129 139/182/130 152/183/131 154/184/132
f 138/185/133 137/181/129 140/186/134 141/187/135
f 139/188/136 138/189/136 143/190/136 142/191/136
f 141/187/135 140/186/134 171/192/137 172/193/138
f 142/194/139 144/195/140 148/196/141 147/197/142
f 144/195/140 143/198/143 146/199/144 145/200/145
f 145/200/145 146/199/144 165/201/146 166/202/147
f 147/203/142 149/204/148 153/205/149 152/206/131
f 149/207/148 148/196/141 150/208/150 151/209/151
f 151/209/151 150/208/150 167/210/152 168/211/153
f 154/184/132 153/212/149 155/213/154 156/214/155
f 156/214/155 155/213/154 169/215/156 170/216/157
f 157/160/108 158/159/107 166/202/147 165/201/146
f 159/166/114 160/165/113 168/211/153 167/210/152
f 161/172/120 162/171/119 170/216/157 169/215/156
f 163/178/126 164/177/125 172/193/138 171/192/137
f 94/217/158 99/218/158 102/219/159 97/220/159
f 98/134/86 104/137/89 106/149/98 101/139/91
f 103/143/95 109/146/96 111/221/102 107/222/97
f 108/123/78 95/122/77 96/131/83 112/153/101
f 110/223/79 105/224/88 100/127/160 93/126/160
f 115/162/110 120/167/115 117/163/1 114/158/106
f 124/225/121 121/226/117 118/227/112 119/228/116
f 128/179/127 125/175/161 122/170/161 123/174/122
f 116/229/109 113/230/105 126/231/124 127/232/128
f 129/141/93 132/151/100 120/167/115 115/162/110
f 134/233/162 124/225/121 119/228/116 131/234/162
f 136/133/85 128/179/127 123/174/122 133/155/103
f 130/235/163 116/229/109 127/232/128 135/236/163
f 101/139/91 106/149/98 132/151/100 129/141/93
f 111/221/102 134/233/162 131/234/162 107/222/97
f 96/131/83 136/133/85 133/155/103 112/153/101
f 102/219/159 130/235/163 135/236/163 97/220/159
f 138/237/164 141/238/165 146/239/165 143/240/164
f 144/195/140 145/200/145 150/208/150 148/196/141
f 149/204/148 151/241/151 155/242/154 153/205/149
f 154/184/132 156/214/155 140/186/134 137/181/129
f 152/243/131 139/188/166 142/191/166 147/244/142
f 158/159/107 114/158/106 117/163/1 159/166/114
f 161/245/167 160/246/167 118/227/112 121/226/117
f 163/178/126 162/171/119 122/170/161 125/175/161
f 157/247/168 164/248/168 126/231/124 113/230/105
f 166/202/147 158/159/107 159/166/114 167/210/152
f 169/249/169 168/250/169 160/246/167 161/245/167
f 171/192/137 170/216/157 162/171/119 163/178/126
f 165/251/170 172/252/170 164/248/168 157/247/168
f 145/200/145 166/202/147 167/210/152 150/208/150
f 155/242/154 151/241/151 168/250/169 169/249/169
f 140/186/134 156/214/155 170/216/157 171/192/137
f 146/239/165 141/238/165 172/252/170 165/251/170
f 93/126/76 94/125/81 95/253/77
f 98/254/86 99/128/90 100/127/87
f 103/147/95 104/137/89 105/136/88
f 108/123/78 109/152/96 110/124/79
f 137/255/129 138/189/133 139/188/130
f 142/191/139 143/190/143 144/256/140
f 147/197/142 148/196/141 149/207/148
f 152/183/131 153/212/149 154/184/132
