# Blender 4.1.0
# www.blender.org
mtllib DrawermeshDresserDrawer_213_9_3.mtl
o DresserDrawer_213_9
v -0.802060 -0.384250 -0.175990
v -0.803841 -0.384254 -0.177030
v -0.805622 -0.384250 -0.175990
v -0.801323 -0.384250 -0.173477
v -0.806358 -0.384250 -0.173477
v -0.802060 -0.384250 -0.170965
v -0.805622 -0.384250 -0.170965
v -0.803841 -0.384254 -0.169925
v -0.805622 -0.353130 -0.175990
v -0.806358 -0.353130 -0.173477
v -0.805622 -0.353130 -0.170965
v -0.803841 -0.353130 -0.169925
v -0.802060 -0.353128 -0.170965
v -0.801323 -0.353128 -0.173477
v -0.802060 -0.353128 -0.175990
v -0.803841 -0.353130 -0.177030
v -0.731719 -0.384248 -0.175989
v -0.733500 -0.384254 -0.177030
v -0.735279 -0.384250 -0.175989
v -0.730981 -0.384250 -0.173477
v -0.736018 -0.384250 -0.173477
v -0.731719 -0.384248 -0.170965
v -0.735281 -0.384250 -0.170965
v -0.733500 -0.384250 -0.169925
v -0.735279 -0.353130 -0.175989
v -0.736018 -0.353130 -0.173477
v -0.735279 -0.353130 -0.170965
v -0.733500 -0.353132 -0.169925
v -0.731719 -0.353128 -0.170965
v -0.730981 -0.353130 -0.173477
v -0.731719 -0.353128 -0.175989
v -0.733500 -0.353132 -0.177030
v -0.697602 -0.375711 -0.173477
v -0.696079 -0.375709 -0.173477
v -0.696079 -0.376817 -0.169995
v -0.697602 -0.376819 -0.169995
v -0.697602 -0.376819 -0.176960
v -0.696079 -0.376817 -0.176960
v -0.732672 -0.382138 -0.176959
v -0.732672 -0.381030 -0.173477
v -0.803427 -0.382137 -0.176959
v -0.803427 -0.381028 -0.173477
v -0.732672 -0.382138 -0.169995
v -0.803427 -0.382137 -0.169995
v -0.838469 -0.375711 -0.173477
v -0.838469 -0.376817 -0.169994
v -0.838468 -0.376817 -0.176959
v -0.840833 -0.376819 -0.176959
v -0.840833 -0.375713 -0.173477
v -0.840833 -0.376819 -0.169994
v -0.696079 -0.379493 -0.168552
v -0.697602 -0.379493 -0.168552
v -0.696079 -0.382167 -0.169995
v -0.697602 -0.382165 -0.169995
v -0.732672 -0.384813 -0.168552
v -0.732672 -0.387489 -0.169995
v -0.803427 -0.384809 -0.168552
v -0.803427 -0.387485 -0.169995
v -0.838468 -0.379493 -0.168552
v -0.838468 -0.382165 -0.169994
v -0.840833 -0.379495 -0.168552
v -0.840833 -0.382167 -0.169994
v -0.696079 -0.383277 -0.173477
v -0.697602 -0.383273 -0.173477
v -0.696079 -0.382167 -0.176960
v -0.697602 -0.382165 -0.176960
v -0.732672 -0.388593 -0.173477
v -0.732672 -0.387489 -0.176959
v -0.803427 -0.388591 -0.173477
v -0.803427 -0.387485 -0.176959
v -0.838468 -0.383273 -0.173477
v -0.838468 -0.382165 -0.176959
v -0.840832 -0.383277 -0.173477
v -0.840833 -0.382167 -0.176959
v -0.696079 -0.379493 -0.178402
v -0.697602 -0.379493 -0.178402
v -0.732672 -0.384813 -0.178402
v -0.803427 -0.384809 -0.178402
v -0.838468 -0.379493 -0.178402
v -0.840833 -0.379495 -0.178402
v -0.531040 -0.358455 -0.342956
v -0.531040 -0.363759 -0.342956
v -0.531040 -0.363759 -0.151572
v -0.531040 -0.358455 -0.151572
v -0.535981 -0.369567 -0.342956
v -1.034917 -0.369567 -0.342956
v -1.034917 -0.369567 -0.151572
v -0.535981 -0.369567 -0.151572
v -1.039858 -0.358453 -0.151572
v -1.039858 -0.363759 -0.151572
v -1.039858 -0.363759 -0.342956
v -1.039858 -0.358453 -0.342956
v -0.535981 -0.358455 -0.146767
v -0.535981 -0.363759 -0.146767
v -1.034917 -0.363757 -0.146767
v -1.034917 -0.358453 -0.146767
v -1.034917 -0.358453 -0.347761
v -1.034917 -0.363757 -0.347761
v -0.535981 -0.363759 -0.347761
v -0.535981 -0.358455 -0.347761
v -0.535981 -0.352643 -0.342956
v -1.034917 -0.352643 -0.342956
v -1.034917 -0.352643 -0.151572
v -0.535981 -0.352643 -0.151572
v -1.024872 -0.352647 -0.333189
v -0.546026 -0.352647 -0.333189
v -1.024872 -0.352647 -0.161339
v -0.546026 -0.352647 -0.161339
v -0.546026 0.093508 -0.333189
v -0.546026 0.093508 -0.161339
v -1.024872 0.093508 -0.161339
v -1.024872 0.093508 -0.333189
v -1.016364 -0.342647 -0.161339
v -1.016364 -0.342647 -0.324134
v -0.554533 -0.342645 -0.324134
v -0.554533 -0.342645 -0.161339
v -1.016364 0.083510 -0.161339
v -0.554533 0.083510 -0.161339
v -1.016364 0.083510 -0.324134
v -0.554533 0.083510 -0.324134
vn -0.0003 -1.0000 -0.0022
vn -0.0003 -1.0000 -0.0023
vn -0.0003 -1.0000 -0.0007
vn -0.0000 -1.0000 -0.0000
vn -0.0003 -1.0000 -0.0000
vn -0.0003 -1.0000 -0.0001
vn -0.0003 -1.0000 0.0023
vn -0.0003 -1.0000 0.0008
vn -0.8159 -0.0000 -0.5782
vn -1.0000 -0.0000 -0.0000
vn -1.0000 -0.0000 -0.0001
vn -0.8159 -0.0000 0.5782
vn -1.0000 -0.0000 0.0001
vn -0.8158 -0.0000 0.5783
vn -0.5047 -0.0000 0.8633
vn -0.8159 -0.0000 0.5783
vn -0.5045 -0.0000 0.8634
vn 0.5045 -0.0000 0.8634
vn 0.8159 -0.0000 0.5782
vn 0.8158 -0.0000 0.5783
vn 1.0000 -0.0000 -0.0000
vn 0.8159 -0.0000 -0.5782
vn -0.5043 -0.0000 -0.8635
vn -0.5044 -0.0000 -0.8635
vn -0.8158 -0.0000 -0.5783
vn 0.8158 -0.0000 -0.5783
vn 0.5044 -0.0000 -0.8635
vn 0.0003 -1.0000 -0.0034
vn 0.0003 -1.0000 -0.0029
vn 0.0003 -1.0000 -0.0026
vn 0.0003 -1.0000 0.0009
vn 0.0003 -1.0000 0.0004
vn 0.0003 -1.0000 -0.0001
vn 0.0002 -1.0000 0.0005
vn 0.0003 -1.0000 -0.0004
vn 0.0002 -1.0000 0.0002
vn 0.0003 -1.0000 -0.0005
vn 0.0003 -1.0000 -0.0009
vn 0.0005 -1.0000 -0.0002
vn 0.0003 -1.0000 0.0010
vn 0.0003 -1.0000 0.0003
vn 0.0004 -1.0000 -0.0006
vn -1.0000 0.0001 -0.0001
vn -0.5046 -0.0000 0.8633
vn -0.8158 -0.0000 0.5784
vn -0.5044 -0.0000 0.8635
vn 0.5044 -0.0000 0.8635
vn 0.8157 -0.0000 0.5785
vn 0.8158 -0.0000 0.5784
vn 1.0000 -0.0000 0.0001
vn 0.8158 0.0001 0.5783
vn 1.0000 -0.0000 -0.0001
vn 1.0000 -0.0001 -0.0000
vn 0.8160 -0.0000 -0.5781
vn -0.5048 -0.0000 -0.8633
vn 0.5049 -0.0000 -0.8632
vn 0.5045 -0.0000 -0.8634
vn -0.1437 0.9896 0.0009
vn -0.0000 0.7924 0.6100
vn -0.0000 1.0000 0.0009
vn -0.1437 0.9896 -0.0006
vn -0.1164 0.8013 0.5868
vn -0.0000 0.7933 0.6088
vn -0.1164 0.8004 -0.5881
vn -0.1437 0.9896 -0.0008
vn -0.0000 1.0000 -0.0008
vn -0.1164 0.8011 -0.5871
vn -0.0000 1.0000 0.0005
vn 0.0001 0.7934 -0.6086
vn -0.0398 0.7885 -0.6138
vn -0.1165 0.8014 -0.5867
vn -0.0398 0.7879 -0.6145
vn -0.0512 0.9987 -0.0003
vn -0.1437 0.9896 -0.0000
vn -0.0511 0.9987 -0.0002
vn -0.1165 0.8010 0.5872
vn 0.0397 0.7883 -0.6140
vn -0.0397 0.7880 -0.6143
vn 0.0397 0.7889 -0.6132
vn 0.0512 0.9987 0.0013
vn -0.0512 0.9987 0.0007
vn 0.0512 0.9987 -0.0007
vn -0.0397 0.7888 0.6133
vn -0.0511 0.9987 -0.0013
vn -0.0512 0.9987 -0.0011
vn -0.0398 0.7887 0.6135
vn -0.1165 0.8015 0.5865
vn 0.0512 0.9987 0.0001
vn 0.0397 0.7879 0.6145
vn -0.0397 0.7882 0.6141
vn 0.1405 0.9901 0.0007
vn 0.0397 0.7874 0.6152
vn 0.0512 0.9987 0.0010
vn 0.1405 0.9901 0.0003
vn 0.1138 0.8008 0.5880
vn 0.0398 0.7877 0.6147
vn 0.1139 0.8009 -0.5878
vn 0.0512 0.9987 0.0005
vn 0.0398 0.7884 -0.6139
vn 0.1138 0.8007 -0.5881
vn 0.1405 0.9901 -0.0001
vn -0.0004 0.7934 -0.6087
vn 0.1405 0.9901 0.0004
vn 0.1138 0.8010 -0.5877
vn -0.0004 0.7931 -0.6091
vn -0.0005 1.0000 -0.0002
vn -0.0005 1.0000 -0.0000
vn 0.1138 0.8009 0.5879
vn 0.1405 0.9901 0.0002
vn -0.0005 1.0000 -0.0010
vn -0.0004 0.7937 0.6083
vn 0.1138 0.8014 0.5871
vn -0.1164 0.8009 0.5874
vn 0.0002 0.4748 0.8801
vn -0.0000 0.7928 0.6094
vn -0.1164 0.8011 0.5871
vn -0.0691 0.4739 0.8779
vn -0.0000 0.4748 0.8801
vn 0.0686 -0.4739 0.8779
vn -0.0000 -0.7932 0.6089
vn -0.0005 -0.4747 0.8802
vn 0.0686 -0.4735 0.8781
vn 0.1128 -0.7748 0.6220
vn -0.0000 -0.7929 0.6094
vn 0.0252 -0.4746 0.8798
vn 0.1127 -0.7750 0.6218
vn 0.0686 -0.4738 0.8780
vn 0.0252 -0.4750 0.8796
vn 0.0400 -0.7974 0.6022
vn 0.1128 -0.7753 0.6214
vn -0.0252 -0.4746 0.8798
vn 0.0399 -0.7970 0.6026
vn 0.0252 -0.4746 0.8799
vn -0.0252 -0.4751 0.8796
vn -0.0399 -0.7974 0.6022
vn 0.0399 -0.7973 0.6022
vn 0.0397 0.7878 0.6147
vn 0.0225 0.4746 0.8799
vn -0.0225 0.4748 0.8798
vn 0.0397 0.7876 0.6149
vn -0.0225 0.4745 0.8800
vn -0.0397 0.7879 0.6146
vn -0.0397 0.7876 0.6150
vn -0.0690 0.4730 0.8784
vn -0.1163 0.8004 0.5881
vn -0.0398 0.7886 0.6136
vn -0.0226 0.4754 0.8795
vn -0.0692 0.4744 0.8776
vn 0.1139 0.8011 0.5876
vn 0.0225 0.4748 0.8798
vn 0.0398 0.7880 0.6144
vn 0.0677 0.4738 0.8780
vn -0.0670 -0.4738 0.8781
vn -0.0400 -0.7972 0.6024
vn -0.0252 -0.4749 0.8797
vn -0.0669 -0.4734 0.8783
vn -0.1103 -0.7753 0.6219
vn -0.0399 -0.7969 0.6028
vn 0.0002 -0.4742 0.8804
vn -0.1102 -0.7753 0.6219
vn -0.0669 -0.4740 0.8780
vn 0.0002 -0.4738 0.8806
vn 0.0004 -0.7926 0.6097
vn -0.1103 -0.7750 0.6223
vn -0.0004 0.7931 0.6091
vn 0.0676 0.4735 0.8782
vn 0.1139 0.8008 0.5880
vn -0.0003 0.7936 0.6085
vn -0.0003 0.4753 0.8798
vn 0.0676 0.4741 0.8779
vn 0.1127 -0.7760 0.6206
vn -0.0000 -1.0000 -0.0015
vn -0.0001 -0.7940 0.6079
vn 0.1127 -0.7745 0.6224
vn 0.1440 -0.9896 0.0008
vn -0.0000 -1.0000 0.0009
vn 0.1441 -0.9896 -0.0001
vn -0.0000 -0.7933 -0.6088
vn -0.0000 -1.0000 -0.0001
vn 0.1441 -0.9896 0.0006
vn 0.1127 -0.7755 -0.6212
vn -0.0000 -0.7937 -0.6083
vn 0.0492 -0.9988 -0.0000
vn 0.1127 -0.7751 -0.6217
vn 0.0493 -0.9988 -0.0009
vn 0.0399 -0.7966 -0.6032
vn 0.1126 -0.7746 -0.6223
vn -0.0493 -0.9988 0.0003
vn 0.0399 -0.7973 -0.6022
vn 0.0492 -0.9988 0.0002
vn -0.0492 -0.9988 -0.0002
vn -0.0400 -0.7969 -0.6027
vn 0.0400 -0.7970 -0.6027
vn -0.0399 -0.7969 0.6027
vn -0.0493 -0.9988 0.0005
vn 0.0492 -0.9988 0.0003
vn 0.0492 -0.9988 -0.0002
vn 0.0399 -0.7973 0.6023
vn 0.0399 -0.7966 0.6032
vn 0.1440 -0.9896 0.0010
vn 0.1127 -0.7745 0.6225
vn 0.0400 -0.7972 0.6024
vn 0.0492 -0.9988 -0.0001
vn 0.1440 -0.9896 -0.0001
vn -0.1102 -0.7754 0.6217
vn -0.0400 -0.7970 0.6027
vn -0.1103 -0.7757 0.6214
vn -0.1410 -0.9900 -0.0006
vn -0.0492 -0.9988 -0.0001
vn -0.0400 -0.7970 -0.6026
vn -0.0493 -0.9988 -0.0001
vn -0.1410 -0.9900 -0.0001
vn -0.1103 -0.7757 -0.6214
vn -0.0400 -0.7973 -0.6023
vn 0.0005 -1.0000 -0.0009
vn -0.1103 -0.7751 -0.6222
vn -0.1410 -0.9900 -0.0011
vn 0.0006 -1.0000 0.0013
vn 0.0004 -0.7940 -0.6079
vn -0.1103 -0.7764 -0.6205
vn 0.0004 -0.7938 0.6082
vn -0.1411 -0.9900 -0.0013
vn -0.1103 -0.7761 0.6209
vn 0.0004 -0.7930 0.6092
vn 0.0005 -1.0000 0.0001
vn 0.1127 -0.7747 -0.6222
vn -0.0003 -0.4743 -0.8804
vn -0.0000 -0.7929 -0.6094
vn 0.0686 -0.4740 -0.8779
vn -0.0000 -0.4751 -0.8799
vn -0.0690 0.4734 -0.8781
vn -0.0000 0.7930 -0.6092
vn 0.0003 0.4748 -0.8801
vn -0.0690 0.4737 -0.8780
vn -0.1165 0.8009 -0.5873
vn 0.0001 0.7932 -0.6089
vn -0.0226 0.4753 -0.8795
vn -0.1165 0.8013 -0.5868
vn -0.0692 0.4741 -0.8778
vn -0.0223 0.4739 -0.8803
vn -0.0396 0.7873 -0.6153
vn -0.1164 0.8003 -0.5882
vn 0.0225 0.4746 -0.8799
vn -0.0397 0.7877 -0.6148
vn -0.0225 0.4744 -0.8800
vn 0.0225 0.4749 -0.8797
vn 0.0397 0.7882 -0.6142
vn -0.0397 0.7879 -0.6145
vn -0.0399 -0.7970 -0.6026
vn -0.0252 -0.4744 -0.8799
vn 0.0252 -0.4746 -0.8798
vn -0.0399 -0.7974 -0.6022
vn 0.0252 -0.4751 -0.8796
vn 0.0399 -0.7974 -0.6021
vn 0.0400 -0.7974 -0.6021
vn 0.0687 -0.4743 -0.8777
vn 0.1127 -0.7754 -0.6213
vn 0.0400 -0.7970 -0.6026
vn 0.0252 -0.4746 -0.8799
vn 0.0686 -0.4737 -0.8780
vn -0.1102 -0.7753 -0.6218
vn -0.0251 -0.4743 -0.8800
vn -0.0399 -0.7969 -0.6028
vn -0.1103 -0.7757 -0.6213
vn -0.0671 -0.4742 -0.8779
vn -0.0253 -0.4748 -0.8797
vn 0.0676 0.4730 -0.8785
vn 0.0398 0.7880 -0.6144
vn 0.0225 0.4747 -0.8799
vn 0.0676 0.4734 -0.8782
vn 0.1139 0.8009 -0.5879
vn 0.0398 0.7883 -0.6140
vn -0.0002 0.4754 -0.8798
vn 0.1139 0.8012 -0.5875
vn 0.0676 0.4737 -0.8781
vn -0.0002 0.4751 -0.8800
vn -0.0004 0.7932 -0.6090
vn 0.0004 -0.7926 -0.6098
vn -0.0670 -0.4732 -0.8784
vn -0.1103 -0.7750 -0.6223
vn 0.0004 -0.7929 -0.6093
vn 0.0002 -0.4742 -0.8804
vn -0.0670 -0.4737 -0.8781
vn 1.0000 -0.0003 -0.0000
vn 1.0000 0.0003 -0.0000
vn -1.0000 -0.0001 -0.0000
vn -1.0000 0.0004 -0.0000
vn -1.0000 0.0001 -0.0000
vn -1.0000 -0.0010 -0.0000
vn 0.9141 0.4050 -0.0194
vn 0.9141 -0.4050 0.0194
vn 0.9141 -0.4049 -0.0194
vn 0.9141 0.4050 -0.0193
vn 0.9141 0.4050 0.0194
vn 0.9141 -0.4049 0.0194
vn -0.9142 0.4048 0.0194
vn -0.9141 -0.4051 -0.0193
vn -0.9141 -0.4051 0.0194
vn -0.9141 0.4049 0.0194
vn -0.9142 0.4049 -0.0194
vn -0.9141 -0.4050 -0.0194
vn 0.0074 0.3964 0.9180
vn -0.0074 -0.3963 0.9181
vn 0.0074 -0.3963 0.9181
vn -0.0074 0.3963 0.9181
vn -0.0074 0.3964 -0.9180
vn 0.0074 -0.3961 -0.9182
vn -0.0074 -0.3965 -0.9180
vn 0.0074 0.3963 -0.9181
vn 0.0073 0.3962 -0.9181
vn 0.2460 0.7320 -0.6354
vn -0.0072 0.3963 -0.9181
vn -0.9141 0.4049 -0.0196
vn -0.2460 0.7317 -0.6357
vn -0.9141 0.4049 0.0196
vn -0.0073 0.3961 0.9182
vn -0.2460 0.7317 0.6357
vn 0.2460 0.7320 0.6354
vn 0.0073 0.3964 0.9181
vn 0.0072 -0.3959 -0.9183
vn 0.9142 -0.4049 -0.0197
vn 0.2459 -0.7315 -0.6360
vn -0.0070 -0.3962 -0.9181
vn -0.2459 -0.7318 -0.6357
vn -0.9141 -0.4050 -0.0198
vn -0.9141 -0.4050 0.0198
vn -0.2458 -0.7317 0.6358
vn -0.0069 -0.3961 0.9182
vn 0.9141 -0.4050 0.0196
vn 0.0071 -0.3961 0.9182
vn 0.2459 -0.7317 0.6357
vn 0.0074 0.3966 -0.9180
vn -0.2460 0.7320 -0.6354
vn 0.2460 0.7321 -0.6352
vn 0.0074 0.3962 -0.9182
vn -0.0074 0.3962 -0.9181
vn -0.2459 0.7316 -0.6358
vn -0.2460 0.7318 0.6356
vn -0.9141 0.4050 -0.0194
vn -0.9141 0.4050 0.0194
vn -0.2460 0.7318 -0.6356
vn 0.9141 0.4051 0.0194
vn 0.9141 0.4051 -0.0194
vn 0.2459 0.7320 -0.6354
vn 0.2460 0.7319 0.6355
vn 0.2460 0.7320 0.6353
vn -0.2460 0.7319 0.6355
vn -0.0074 0.3965 0.9180
vn 0.2459 -0.7316 -0.6359
vn -0.2459 -0.7318 -0.6356
vn -0.0074 -0.3963 -0.9181
vn -0.9141 -0.4050 0.0194
vn -0.2459 -0.7320 -0.6354
vn -0.2459 -0.7318 0.6356
vn -0.2460 -0.7320 -0.6354
vn 0.2459 -0.7318 0.6356
vn 0.9141 -0.4050 -0.0194
vn 0.2460 -0.7318 0.6356
vn 0.2459 -0.7317 -0.6358
vn -0.2459 -0.7317 0.6357
vn 0.0074 -0.3961 0.9182
vn -0.0074 -0.3961 0.9182
vn -0.2459 -0.7317 0.6358
vn 0.9141 0.4049 -0.0194
vn 0.0073 -0.3962 -0.9181
vn 0.9141 -0.4050 -0.0193
vn 0.0074 -0.3962 -0.9181
vn -0.9141 -0.4051 -0.0190
vn -0.0077 0.3964 -0.9180
vn -0.0077 -0.3966 -0.9180
vn -0.9141 -0.4050 -0.0193
vn -0.9141 0.4049 -0.0192
vn -0.0075 0.3964 -0.9180
vn -0.0079 -0.3962 0.9181
vn -0.9141 0.4050 0.0189
vn -0.9141 -0.4050 0.0190
vn -0.0074 0.3964 0.9181
vn -0.9141 0.4050 0.0193
vn 0.9141 -0.4051 0.0194
vn 0.0074 0.3965 0.9180
vn 0.0074 -0.3964 0.9181
vn -0.0000 1.0000 -0.0004
vn -0.0000 1.0000 0.0001
vn -0.0000 1.0000 -0.0000
vn -0.0001 1.0000 -0.0000
vn -0.0001 1.0000 0.0001
vn 0.0001 1.0000 -0.0000
vn 0.0001 1.0000 0.0002
vn -0.0000 1.0000 0.0003
vn -0.0000 1.0000 -0.0001
vn -0.0000 -0.0000 -1.0000
vn -0.0000 -0.0000 1.0000
vt 0.495903 0.454096
vt 0.497331 0.454096
vt 0.496617 0.453467
vt 0.495607 0.455615
vt 0.497627 0.455615
vt 0.495903 0.457133
vt 0.497331 0.457133
vt 0.496617 0.457762
vt 0.136828 0.454096
vt 0.121267 0.455615
vt 0.121267 0.454096
vt 0.136828 0.455615
vt 0.121267 0.457133
vt 0.136828 0.457133
vt 0.497331 0.136828
vt 0.496617 0.121267
vt 0.497331 0.121267
vt 0.496617 0.136828
vt 0.495903 0.121267
vt 0.495903 0.136828
vt 0.496617 0.136828
vt 0.467699 0.454096
vt 0.469127 0.454096
vt 0.468413 0.453467
vt 0.467403 0.455615
vt 0.469422 0.455615
vt 0.467699 0.457133
vt 0.469127 0.457133
vt 0.468413 0.457762
vt 0.136828 0.454096
vt 0.121267 0.455615
vt 0.121267 0.454096
vt 0.136828 0.455615
vt 0.121267 0.457133
vt 0.136828 0.457133
vt 0.469127 0.136828
vt 0.468413 0.121267
vt 0.469126 0.121267
vt 0.468413 0.136828
vt 0.467699 0.121267
vt 0.467699 0.136828
vt 0.454019 0.455615
vt 0.453409 0.457720
vt 0.453409 0.455615
vt 0.454019 0.457720
vt 0.454019 0.453510
vt 0.453409 0.453510
vt 0.468081 0.453510
vt 0.468081 0.455615
vt 0.496451 0.453510
vt 0.496451 0.455615
vt 0.468081 0.457720
vt 0.496451 0.457720
vt 0.510501 0.455615
vt 0.510501 0.457720
vt 0.510501 0.453510
vt 0.511449 0.453510
vt 0.511449 0.455615
vt 0.511449 0.457720
vt 0.454019 0.133111
vt 0.453409 0.134448
vt 0.453409 0.133111
vt 0.454019 0.134448
vt 0.453409 0.135786
vt 0.454019 0.135786
vt 0.468081 0.137108
vt 0.468081 0.138445
vt 0.496451 0.137108
vt 0.496451 0.138445
vt 0.496451 0.135771
vt 0.468081 0.135771
vt 0.510501 0.133111
vt 0.510501 0.134448
vt 0.510501 0.135786
vt 0.511449 0.134448
vt 0.511449 0.135786
vt 0.511449 0.133111
vt 0.496451 0.455615
vt 0.496451 0.457720
vt 0.496451 0.137108
vt 0.496451 0.138445
vt 0.133111 0.457720
vt 0.133111 0.453510
vt 0.132558 0.455615
vt 0.134448 0.458592
vt 0.134448 0.452638
vt 0.135786 0.457720
vt 0.135786 0.453510
vt 0.136340 0.455615
vt 0.133111 0.453510
vt 0.133111 0.457720
vt 0.132557 0.455615
vt 0.134448 0.452638
vt 0.134448 0.458592
vt 0.135786 0.453510
vt 0.135786 0.457720
vt 0.136339 0.455615
vt 0.123929 0.353172
vt 0.126582 0.468856
vt 0.126582 0.353172
vt 0.123929 0.468856
vt 0.389216 0.353172
vt 0.589269 0.468856
vt 0.589269 0.353172
vt 0.389216 0.468856
vt 0.389216 0.123929
vt 0.589269 0.126582
vt 0.389216 0.126582
vt 0.589269 0.123929
vt 0.123929 0.350268
vt 0.121025 0.353172
vt 0.123929 0.471760
vt 0.121025 0.468856
vt 0.126582 0.350268
vt 0.129487 0.353172
vt 0.129487 0.468856
vt 0.126582 0.471760
vt 0.589269 0.121025
vt 0.389216 0.121025
vt 0.589269 0.350268
vt 0.389216 0.350268
vt 0.389216 0.471760
vt 0.589269 0.471760
vt 0.585242 0.359076
vt 0.393243 0.359076
vt 0.585242 0.462952
vt 0.393243 0.462952
vt 0.581831 0.462952
vt 0.396654 0.364550
vt 0.581831 0.364550
vt 0.396654 0.462952
vt 0.393243 0.121025
vt 0.585242 -0.102052
vt 0.393243 -0.102052
vt 0.585242 0.121025
vt 0.121025 0.359076
vt -0.102052 0.462952
vt -0.102052 0.359076
vt 0.121025 0.462952
vt 0.396654 0.116025
vt 0.581831 0.116025
vt 0.581831 -0.097052
vt 0.581831 0.902948
vt 0.393243 0.897948
vt 0.585242 0.897948
vt 0.396654 0.902948
vt 0.393243 1.121025
vt 0.396654 1.116025
vt 0.396654 -0.097052
vt 0.902948 0.462952
vt 1.116025 0.364550
vt 0.902948 0.364550
vt 1.116025 0.462952
vt 0.116025 0.462952
vt -0.097052 0.364550
vt 0.116025 0.364550
vt -0.097052 0.462952
s 1
usemtl M_DresserDrawer_213_9_0
f 1/1/1 3/2/2 2/3/3
f 3/2/4 1/1/4 4/4/4
f 3/2/4 4/4/4 5/5/4
f 5/5/5 4/4/5 6/6/6
f 5/5/4 6/6/4 7/7/4
f 7/7/7 6/6/7 8/8/8
f 3/9/9 10/10/10 9/11/9
f 3/9/9 5/12/11 10/10/11
f 5/12/10 11/13/12 10/10/10
f 5/12/13 7/14/14 11/13/12
f 7/15/14 12/16/15 11/17/16
f 7/15/14 8/18/17 12/16/17
f 8/18/18 13/19/19 12/16/18
f 8/18/18 6/20/20 13/19/20
f 6/14/19 14/10/21 13/13/19
f 6/14/19 4/12/21 14/10/21
f 4/12/21 15/11/22 14/10/21
f 4/12/21 1/9/22 15/11/22
f 2/21/23 9/17/9 16/16/23
f 2/21/24 3/15/25 9/17/25
f 1/20/26 2/21/27 16/16/27
f 1/20/22 16/16/27 15/19/26
f 17/22/28 19/23/29 18/24/30
f 19/23/31 17/22/32 20/25/33
f 19/23/34 20/25/35 21/26/4
f 21/26/36 20/25/37 22/27/38
f 21/26/39 22/27/38 23/28/39
f 23/28/40 22/27/41 24/29/42
f 19/30/9 26/31/11 25/32/9
f 19/30/9 21/33/11 26/31/10
f 21/33/10 27/34/14 26/31/13
f 21/33/43 23/35/12 27/34/14
f 23/36/14 28/37/44 27/38/45
f 23/36/14 24/39/46 28/37/46
f 24/39/47 29/40/20 28/37/47
f 24/39/47 22/41/48 29/40/20
f 22/35/49 30/31/50 29/34/20
f 22/35/51 20/33/21 30/31/21
f 20/33/52 31/32/22 30/31/52
f 20/33/53 17/30/22 31/32/54
f 18/39/55 25/38/25 32/37/55
f 18/39/55 19/36/25 25/38/25
f 17/41/26 18/39/56 32/37/57
f 17/41/26 32/37/57 31/40/22
f 33/42/58 35/43/59 34/44/60
f 33/42/61 36/45/62 35/43/63
f 37/46/64 33/42/65 34/44/66
f 37/46/67 34/44/68 38/47/69
f 39/48/70 33/42/58 37/46/71
f 39/48/72 40/49/73 33/42/74
f 40/49/75 36/45/76 33/42/74
f 41/50/77 40/49/75 39/48/78
f 41/50/79 42/51/80 40/49/81
f 42/51/82 43/52/83 40/49/84
f 40/49/85 43/52/86 36/45/87
f 42/51/88 44/53/89 43/52/90
f 45/54/91 44/53/92 42/51/93
f 45/54/94 46/55/95 44/53/96
f 47/56/97 42/51/98 41/50/99
f 47/56/100 45/54/101 42/51/88
f 48/57/102 45/54/103 47/56/104
f 48/57/105 49/58/106 45/54/101
f 49/58/107 46/55/108 45/54/109
f 49/58/110 50/59/111 46/55/112
f 36/60/113 51/61/114 35/62/115
f 36/60/116 52/63/117 51/61/118
f 52/63/119 53/64/120 51/61/121
f 52/63/122 54/65/123 53/64/124
f 55/66/125 54/65/126 52/63/127
f 55/66/128 56/67/129 54/65/130
f 57/68/131 56/67/132 55/66/133
f 57/68/134 58/69/135 56/67/136
f 44/70/137 57/68/138 55/66/139
f 44/70/140 55/66/141 43/71/142
f 43/71/143 52/63/144 36/60/145
f 43/71/146 55/66/147 52/63/148
f 46/72/149 57/68/150 44/70/151
f 46/72/149 59/73/152 57/68/150
f 59/73/153 58/69/154 57/68/155
f 59/73/156 60/74/157 58/69/158
f 61/75/159 60/74/160 59/73/161
f 61/75/162 62/76/163 60/74/164
f 50/77/165 59/73/166 46/72/167
f 50/77/168 61/75/169 59/73/170
f 54/45/171 63/44/172 53/43/173
f 54/45/174 64/42/175 63/44/176
f 64/42/177 65/47/178 63/44/179
f 64/42/180 66/46/181 65/47/182
f 67/49/183 66/46/184 64/42/177
f 67/49/185 68/48/186 66/46/187
f 69/78/188 68/48/189 67/49/190
f 69/78/191 70/50/192 68/48/193
f 58/79/194 69/78/195 67/49/196
f 58/79/154 67/49/197 56/52/198
f 56/52/199 64/42/200 54/45/201
f 56/52/202 67/49/203 64/42/204
f 60/55/205 69/78/188 58/79/206
f 60/55/207 71/54/208 69/78/209
f 71/54/208 70/50/210 69/78/211
f 71/54/212 72/56/213 70/50/214
f 73/58/215 72/56/216 71/54/217
f 73/58/218 74/57/219 72/56/220
f 62/59/221 71/54/222 60/55/223
f 62/59/224 73/58/225 71/54/212
f 66/65/226 75/61/227 65/64/228
f 66/65/181 76/63/229 75/61/230
f 76/63/231 38/62/232 75/61/233
f 76/63/234 37/60/235 38/62/236
f 77/66/237 37/60/238 76/63/239
f 77/66/240 39/71/241 37/60/242
f 78/80/243 39/71/244 77/66/245
f 78/80/246 41/70/247 39/71/248
f 70/81/249 78/80/250 77/66/251
f 70/81/252 77/66/253 68/67/254
f 68/67/255 76/63/256 66/65/257
f 68/67/258 77/66/259 76/63/260
f 72/74/261 78/80/262 70/81/263
f 72/74/264 79/73/265 78/80/266
f 79/73/267 41/70/268 78/80/269
f 79/73/270 47/72/271 41/70/272
f 80/75/273 47/72/274 79/73/275
f 80/75/276 48/77/277 47/72/271
f 74/76/278 79/73/279 72/74/280
f 74/76/281 80/75/282 79/73/283
f 35/82/21 38/83/21 34/84/284
f 38/83/21 35/82/21 51/85/21
f 38/83/21 51/85/21 75/86/21
f 75/86/21 51/85/21 53/87/21
f 75/86/21 53/87/21 65/88/21
f 65/88/21 53/87/21 63/89/285
f 48/90/286 50/91/286 49/92/287
f 50/91/10 48/90/10 80/93/10
f 50/91/10 80/93/10 61/94/10
f 61/94/10 80/93/10 74/95/10
f 61/94/10 74/95/10 62/96/10
f 62/96/288 74/95/10 73/97/289
f 81/98/290 83/99/291 82/100/292
f 81/98/293 84/101/294 83/99/295
f 85/102/4 87/103/4 86/104/4
f 85/102/4 88/105/4 87/103/4
f 89/101/296 91/100/297 90/99/298
f 89/101/299 92/98/300 91/100/301
f 93/106/302 95/107/303 94/108/304
f 93/106/302 96/109/305 95/107/303
f 97/109/306 99/108/307 98/107/308
f 97/109/306 100/106/309 99/108/307
f 100/110/310 101/111/311 81/98/290
f 97/110/312 92/98/313 102/111/314
f 89/101/315 96/112/316 103/113/317
f 84/101/294 104/113/318 93/112/319
f 99/114/320 82/100/321 85/115/322
f 98/114/323 86/115/324 91/100/325
f 90/99/326 87/116/327 95/117/328
f 83/99/329 94/117/330 88/116/331
f 100/106/332 102/118/333 101/119/334
f 100/106/335 97/109/336 102/118/337
f 103/113/338 92/98/339 89/101/340
f 103/113/338 102/111/341 92/98/339
f 84/101/342 101/111/311 104/113/318
f 84/101/342 81/98/343 101/111/344
f 104/119/345 96/109/305 93/106/302
f 104/119/346 103/118/347 96/109/348
f 85/102/349 98/120/308 99/121/307
f 85/102/322 86/104/350 98/120/351
f 90/99/352 86/115/353 87/116/354
f 90/99/352 91/100/301 86/115/355
f 88/116/356 82/100/357 83/99/291
f 88/116/358 85/115/359 82/100/357
f 94/122/304 87/103/360 88/105/356
f 94/122/361 95/123/362 87/103/363
f 81/98/364 99/114/365 100/110/309
f 81/98/343 82/100/366 99/114/367
f 91/100/368 97/110/369 98/114/370
f 91/100/371 92/98/372 97/110/373
f 95/117/374 89/101/375 90/99/376
f 95/117/303 96/112/377 89/101/378
f 93/112/302 83/99/379 84/101/294
f 93/112/380 94/117/381 83/99/379
f 105/124/382 101/102/382 102/104/382
f 105/124/383 106/125/383 101/102/383
f 107/126/384 105/124/384 102/104/384
f 107/126/385 102/104/385 103/103/385
f 106/125/384 104/105/386 101/102/384
f 106/125/387 108/127/388 104/105/388
f 108/127/68 103/103/389 104/105/68
f 108/127/383 107/126/390 103/103/390
f 109/125/384 111/126/384 110/127/384
f 109/125/384 112/124/384 111/126/384
f 113/128/384 115/129/384 114/130/384
f 113/128/384 116/131/384 115/129/384
f 106/132/391 112/133/391 109/134/391
f 106/132/391 105/135/391 112/133/391
f 105/136/10 111/137/10 112/138/10
f 105/136/10 107/139/10 111/137/10
f 108/139/21 109/138/21 110/137/21
f 108/139/21 106/136/21 109/138/21
f 116/140/392 107/135/392 108/132/392
f 116/140/392 113/141/392 107/135/392
f 113/141/392 111/133/392 107/135/392
f 113/141/392 117/142/392 111/133/392
f 117/143/392 110/144/392 111/145/392
f 117/143/392 118/146/392 110/144/392
f 118/146/392 108/147/392 110/144/392
f 118/146/392 116/148/392 108/147/392
f 114/141/392 120/149/392 119/142/392
f 114/141/392 115/140/392 120/149/392
f 118/131/4 119/130/4 120/129/4
f 118/131/4 117/128/4 119/130/4
f 117/150/21 114/151/21 119/152/21
f 117/150/21 113/153/21 114/151/21
f 116/154/10 120/155/10 115/156/10
f 116/154/10 118/157/10 120/155/10
