# Blender 4.1.0
# www.blender.org
mtllib DrawermeshDresserDrawer_213_5_1.mtl
o DresserDrawer_213_5
v -0.802060 -0.384250 0.024193
v -0.803841 -0.384250 0.023153
v -0.805622 -0.384250 0.024193
v -0.801323 -0.384250 0.026706
v -0.806358 -0.384250 0.026706
v -0.802060 -0.384250 0.029218
v -0.805621 -0.384250 0.029218
v -0.803841 -0.384254 0.030259
v -0.805622 -0.353130 0.024193
v -0.806358 -0.353130 0.026706
v -0.805621 -0.353130 0.029218
v -0.803841 -0.353130 0.030259
v -0.802060 -0.353128 0.029218
v -0.801323 -0.353128 0.026706
v -0.802060 -0.353128 0.024193
v -0.803841 -0.353130 0.023153
v -0.731719 -0.384248 0.024194
v -0.733500 -0.384250 0.023153
v -0.735281 -0.384250 0.024194
v -0.730981 -0.384250 0.026706
v -0.736018 -0.384250 0.026706
v -0.731719 -0.384248 0.029218
v -0.735279 -0.384250 0.029218
v -0.733500 -0.384254 0.030258
v -0.735279 -0.353130 0.024194
v -0.736018 -0.353130 0.026706
v -0.735279 -0.353130 0.029218
v -0.733500 -0.353132 0.030258
v -0.731719 -0.353128 0.029218
v -0.730981 -0.353130 0.026706
v -0.731719 -0.353128 0.024194
v -0.733500 -0.353132 0.023153
v -0.697602 -0.375711 0.026706
v -0.696079 -0.375709 0.026706
v -0.696079 -0.376817 0.030188
v -0.697602 -0.376819 0.030188
v -0.697602 -0.376819 0.023224
v -0.696079 -0.376817 0.023224
v -0.732672 -0.382138 0.023224
v -0.732672 -0.381030 0.026706
v -0.803427 -0.382137 0.023224
v -0.803427 -0.381028 0.026706
v -0.732672 -0.382138 0.030188
v -0.803427 -0.382137 0.030189
v -0.838468 -0.375711 0.026706
v -0.838468 -0.376817 0.030189
v -0.838469 -0.376817 0.023224
v -0.840833 -0.376819 0.023224
v -0.840833 -0.375713 0.026706
v -0.840833 -0.376819 0.030189
v -0.696079 -0.379493 0.031631
v -0.697602 -0.379493 0.031631
v -0.696079 -0.382165 0.030188
v -0.697602 -0.382165 0.030188
v -0.732672 -0.384813 0.031631
v -0.732672 -0.387489 0.030188
v -0.803427 -0.384809 0.031631
v -0.803427 -0.387485 0.030189
v -0.838468 -0.379493 0.031631
v -0.838468 -0.382165 0.030189
v -0.840832 -0.379493 0.031631
v -0.840833 -0.382167 0.030189
v -0.696079 -0.383273 0.026706
v -0.697602 -0.383273 0.026706
v -0.696079 -0.382167 0.023224
v -0.697602 -0.382165 0.023224
v -0.732672 -0.388593 0.026706
v -0.732672 -0.387489 0.023224
v -0.803427 -0.388591 0.026706
v -0.803427 -0.387485 0.023224
v -0.838468 -0.383273 0.026706
v -0.838469 -0.382165 0.023224
v -0.840832 -0.383277 0.026706
v -0.840833 -0.382167 0.023224
v -0.696079 -0.379493 0.021781
v -0.697602 -0.379493 0.021781
v -0.732672 -0.384813 0.021781
v -0.803427 -0.384809 0.021781
v -0.838469 -0.379493 0.021781
v -0.840833 -0.379495 0.021781
v -0.535981 -0.358455 0.058821
v -0.535981 -0.363759 0.058821
v -1.034917 -0.363757 0.058821
v -1.034917 -0.358453 0.058821
v -0.535981 -0.369567 -0.137367
v -1.034917 -0.369567 -0.137367
v -1.034917 -0.369567 0.054017
v -0.535981 -0.369567 0.054017
v -0.546026 -0.352647 -0.127600
v -0.546026 0.093508 -0.127600
v -1.024872 0.093508 -0.127600
v -1.024872 -0.352647 -0.127600
v -0.531040 -0.358455 -0.137367
v -0.531040 -0.363757 -0.137367
v -0.531040 -0.363759 0.054017
v -0.531040 -0.358455 0.054017
v -1.034917 -0.358453 -0.142172
v -1.034917 -0.363757 -0.142172
v -0.535981 -0.363759 -0.142172
v -0.535981 -0.358455 -0.142172
v -0.546026 -0.352647 0.044250
v -0.546026 0.093508 0.044250
v -1.039858 -0.358453 0.054017
v -1.039858 -0.363759 0.054017
v -1.039858 -0.363759 -0.137367
v -1.039858 -0.358453 -0.137367
v -1.034917 -0.352643 0.054017
v -1.034917 -0.352643 -0.137367
v -0.535981 -0.352643 0.054017
v -0.535981 -0.352643 -0.137367
v -1.024872 -0.352647 0.044250
v -1.024872 0.093508 0.044250
v -1.016364 0.083510 0.044250
v -1.016364 0.083510 -0.118545
v -1.016364 -0.342647 -0.118545
v -1.016364 -0.342647 0.044250
v -0.554533 -0.342645 0.044250
v -0.554533 0.083510 0.044250
v -0.554533 0.083510 -0.118545
v -0.554533 -0.342645 -0.118545
vn -0.0003 -1.0000 -0.0018
vn -0.0003 -1.0000 -0.0019
vn -0.0003 -1.0000 -0.0003
vn -0.0000 -1.0000 -0.0000
vn -0.0003 -1.0000 0.0002
vn -0.0003 -1.0000 0.0005
vn -0.0003 -1.0000 -0.0021
vn -0.8159 0.0001 -0.5782
vn -1.0000 -0.0000 0.0001
vn -0.8159 -0.0000 -0.5782
vn -1.0000 -0.0000 -0.0000
vn -1.0000 -0.0000 0.0002
vn -0.8159 -0.0000 0.5782
vn -0.8158 -0.0000 0.5783
vn -0.5048 -0.0000 0.8632
vn -0.8159 -0.0000 0.5783
vn 0.5045 -0.0000 0.8634
vn 0.8159 -0.0000 0.5782
vn 0.8158 -0.0000 0.5783
vn 1.0000 -0.0000 -0.0000
vn 1.0000 -0.0000 -0.0001
vn 0.8159 -0.0000 -0.5782
vn -0.5043 -0.0000 -0.8635
vn -0.8159 -0.0000 -0.5783
vn 0.8158 -0.0000 -0.5783
vn 0.5044 -0.0000 -0.8635
vn 0.0003 -1.0000 -0.0021
vn 0.0003 -1.0000 -0.0006
vn 0.0005 -1.0000 0.0009
vn 0.0003 -1.0000 0.0008
vn 0.0005 -1.0000 -0.0009
vn 0.0003 -1.0000 -0.0004
vn 0.0002 -1.0000 0.0003
vn 0.0002 -1.0000 0.0001
vn 0.0003 -1.0000 -0.0007
vn 0.0003 -1.0000 -0.0009
vn 0.0005 -1.0000 -0.0002
vn 0.0003 -1.0000 0.0030
vn 0.0003 -1.0000 0.0026
vn -0.8158 -0.0001 0.5784
vn -0.8158 -0.0000 0.5784
vn -0.5046 -0.0000 0.8633
vn -0.8157 -0.0000 0.5784
vn 0.5044 -0.0000 0.8635
vn 0.8158 -0.0000 0.5784
vn 0.8159 -0.0000 0.5783
vn 0.8158 0.0001 0.5783
vn 0.8159 -0.0000 -0.5781
vn -0.5048 -0.0000 -0.8632
vn -0.8158 -0.0000 -0.5783
vn -0.5044 -0.0000 -0.8635
vn -0.5046 -0.0000 -0.8634
vn 0.8158 0.0001 -0.5784
vn 0.5046 -0.0000 -0.8634
vn -0.1437 0.9896 0.0009
vn -0.0000 0.7924 0.6100
vn -0.0000 1.0000 0.0009
vn -0.1437 0.9896 -0.0004
vn -0.1164 0.8013 0.5868
vn -0.0000 0.7932 0.6089
vn -0.1164 0.8003 -0.5882
vn -0.1437 0.9896 -0.0009
vn -0.0000 1.0000 -0.0009
vn -0.1164 0.8012 -0.5870
vn -0.0000 1.0000 0.0006
vn 0.0001 0.7935 -0.6086
vn -0.0398 0.7885 -0.6138
vn -0.1437 0.9896 0.0010
vn -0.1165 0.8014 -0.5867
vn -0.0398 0.7879 -0.6145
vn -0.0512 0.9987 -0.0003
vn -0.1437 0.9896 -0.0000
vn -0.0511 0.9987 -0.0002
vn -0.1165 0.8010 0.5872
vn -0.1437 0.9896 0.0001
vn 0.0397 0.7883 -0.6140
vn -0.0397 0.7880 -0.6143
vn 0.0397 0.7889 -0.6132
vn 0.0512 0.9987 0.0013
vn -0.0512 0.9987 0.0007
vn 0.0512 0.9987 -0.0007
vn -0.0397 0.7888 0.6133
vn -0.0511 0.9987 -0.0013
vn -0.0512 0.9987 -0.0012
vn -0.0398 0.7887 0.6135
vn -0.1165 0.8015 0.5865
vn 0.0512 0.9987 0.0001
vn 0.0397 0.7878 0.6146
vn -0.0397 0.7882 0.6141
vn 0.1406 0.9901 0.0007
vn 0.0397 0.7873 0.6153
vn 0.0512 0.9987 0.0010
vn 0.1405 0.9901 -0.0008
vn 0.1139 0.8016 0.5869
vn 0.0398 0.7882 0.6141
vn 0.1138 0.8004 -0.5886
vn 0.0512 0.9987 -0.0005
vn 0.0397 0.7878 -0.6147
vn 0.1138 0.8006 -0.5882
vn 0.1405 0.9901 -0.0003
vn 0.0512 0.9987 -0.0000
vn -0.0004 0.7932 -0.6089
vn 0.1405 0.9901 0.0001
vn 0.1138 0.8008 -0.5880
vn -0.0004 0.7936 -0.6084
vn -0.0005 1.0000 0.0005
vn 0.1405 0.9901 0.0006
vn -0.0005 1.0000 -0.0007
vn 0.1138 0.8015 0.5870
vn 0.1405 0.9901 -0.0006
vn -0.0005 1.0000 0.0002
vn -0.0004 0.7931 0.6091
vn 0.1139 0.8010 0.5878
vn -0.1165 0.8009 0.5874
vn 0.0002 0.4748 0.8801
vn -0.0000 0.7928 0.6094
vn -0.1164 0.8011 0.5870
vn -0.0691 0.4740 0.8778
vn 0.0002 0.4751 0.8799
vn 0.0686 -0.4743 0.8777
vn -0.0002 -0.7935 0.6086
vn -0.0005 -0.4750 0.8800
vn 0.0686 -0.4735 0.8781
vn 0.1127 -0.7748 0.6221
vn -0.0000 -0.7929 0.6094
vn 0.0252 -0.4746 0.8798
vn 0.1127 -0.7750 0.6218
vn 0.0686 -0.4738 0.8780
vn 0.0252 -0.4750 0.8796
vn 0.0400 -0.7974 0.6022
vn 0.1128 -0.7753 0.6214
vn -0.0252 -0.4746 0.8799
vn 0.0399 -0.7970 0.6026
vn 0.0252 -0.4746 0.8799
vn -0.0252 -0.4751 0.8796
vn -0.0399 -0.7974 0.6022
vn 0.0399 -0.7974 0.6022
vn 0.0397 0.7877 0.6147
vn 0.0225 0.4744 0.8800
vn -0.0225 0.4748 0.8798
vn 0.0397 0.7875 0.6150
vn -0.0225 0.4745 0.8800
vn -0.0397 0.7879 0.6146
vn -0.0396 0.7875 0.6150
vn -0.0690 0.4730 0.8783
vn -0.1163 0.8004 0.5881
vn -0.0398 0.7886 0.6136
vn -0.0226 0.4754 0.8795
vn -0.0692 0.4744 0.8776
vn 0.1139 0.8013 0.5874
vn 0.0225 0.4747 0.8799
vn 0.0398 0.7879 0.6145
vn 0.1138 0.8009 0.5879
vn 0.0677 0.4736 0.8781
vn 0.0224 0.4742 0.8801
vn -0.0670 -0.4738 0.8781
vn -0.0400 -0.7972 0.6024
vn -0.0252 -0.4748 0.8797
vn -0.0669 -0.4734 0.8783
vn -0.1103 -0.7753 0.6219
vn -0.0399 -0.7969 0.6028
vn -0.0000 -0.4751 0.8799
vn -0.1103 -0.7758 0.6212
vn -0.0669 -0.4740 0.8780
vn 0.0003 -0.4736 0.8808
vn 0.0005 -0.7922 0.6103
vn -0.1102 -0.7748 0.6226
vn -0.0004 0.7933 0.6088
vn 0.0677 0.4740 0.8779
vn 0.1139 0.8012 0.5875
vn -0.0005 0.7933 0.6088
vn -0.0000 0.4748 0.8801
vn 0.1128 -0.7745 0.6224
vn -0.0000 -1.0000 0.0013
vn -0.0001 -0.7926 0.6097
vn 0.1127 -0.7755 0.6212
vn 0.1441 -0.9896 -0.0005
vn -0.0000 -1.0000 -0.0002
vn 0.1440 -0.9896 -0.0002
vn -0.0000 -0.7931 -0.6091
vn 0.1441 -0.9896 0.0005
vn 0.1127 -0.7754 -0.6213
vn -0.0000 -0.7936 -0.6085
vn 0.0492 -0.9988 -0.0000
vn 0.1127 -0.7751 -0.6217
vn 0.1441 -0.9896 -0.0000
vn 0.0493 -0.9988 -0.0009
vn 0.0399 -0.7966 -0.6032
vn 0.1126 -0.7746 -0.6223
vn -0.0493 -0.9988 0.0003
vn 0.0399 -0.7973 -0.6023
vn 0.0492 -0.9988 0.0002
vn -0.0492 -0.9988 -0.0002
vn -0.0400 -0.7969 -0.6027
vn 0.0400 -0.7970 -0.6027
vn -0.0399 -0.7969 0.6027
vn -0.0493 -0.9988 0.0005
vn 0.0492 -0.9988 0.0003
vn 0.0492 -0.9988 -0.0002
vn 0.0399 -0.7973 0.6023
vn 0.0399 -0.7966 0.6032
vn 0.1440 -0.9896 0.0011
vn 0.1126 -0.7745 0.6225
vn 0.0400 -0.7972 0.6024
vn 0.0492 -0.9988 -0.0001
vn 0.1440 -0.9896 -0.0000
vn -0.1102 -0.7754 0.6217
vn -0.0400 -0.7970 0.6027
vn -0.1104 -0.7757 0.6214
vn -0.1410 -0.9900 -0.0006
vn -0.0492 -0.9988 -0.0001
vn -0.0400 -0.7970 -0.6026
vn -0.0493 -0.9988 -0.0001
vn -0.1410 -0.9900 0.0009
vn -0.1105 -0.7764 -0.6205
vn -0.0401 -0.7978 -0.6015
vn 0.0005 -1.0000 0.0002
vn -0.1103 -0.7755 -0.6216
vn -0.1410 -0.9900 -0.0005
vn 0.0005 -1.0000 0.0010
vn 0.0004 -0.7937 -0.6083
vn -0.1103 -0.7760 -0.6210
vn 0.0004 -0.7936 0.6085
vn -0.1411 -0.9900 -0.0014
vn -0.1102 -0.7762 0.6208
vn 0.0004 -0.7928 0.6094
vn 0.0005 -1.0000 0.0006
vn -0.1410 -0.9900 -0.0001
vn 0.1127 -0.7746 -0.6224
vn -0.0002 -0.4741 -0.8805
vn -0.0000 -0.7927 -0.6096
vn 0.1127 -0.7755 -0.6212
vn 0.0686 -0.4740 -0.8779
vn -0.0000 -0.4751 -0.8799
vn -0.0691 0.4732 -0.8782
vn -0.0000 0.7929 -0.6094
vn 0.0003 0.4746 -0.8802
vn -0.0690 0.4737 -0.8780
vn -0.1165 0.8010 -0.5872
vn 0.0001 0.7932 -0.6089
vn -0.0226 0.4753 -0.8795
vn -0.1165 0.8013 -0.5868
vn -0.0692 0.4741 -0.8778
vn -0.0223 0.4739 -0.8803
vn -0.0397 0.7873 -0.6153
vn 0.0225 0.4747 -0.8799
vn -0.0397 0.7877 -0.6148
vn -0.0225 0.4744 -0.8800
vn 0.0225 0.4749 -0.8797
vn 0.0397 0.7882 -0.6142
vn -0.0397 0.7879 -0.6145
vn -0.0399 -0.7970 -0.6026
vn -0.0252 -0.4745 -0.8799
vn 0.0252 -0.4746 -0.8798
vn -0.0399 -0.7974 -0.6022
vn 0.0252 -0.4751 -0.8796
vn 0.0399 -0.7974 -0.6021
vn 0.0400 -0.7974 -0.6021
vn 0.0687 -0.4743 -0.8777
vn 0.0252 -0.4746 -0.8799
vn 0.0686 -0.4737 -0.8780
vn -0.1102 -0.7753 -0.6219
vn -0.0251 -0.4743 -0.8800
vn -0.0399 -0.7969 -0.6028
vn -0.1103 -0.7757 -0.6214
vn -0.0671 -0.4742 -0.8779
vn -0.0252 -0.4748 -0.8797
vn 0.0676 0.4730 -0.8785
vn 0.0398 0.7880 -0.6144
vn 0.0676 0.4734 -0.8782
vn 0.1139 0.8009 -0.5879
vn 0.0398 0.7883 -0.6140
vn -0.0003 0.4750 -0.8800
vn 0.1138 0.8010 -0.5877
vn 0.0676 0.4736 -0.8782
vn -0.0004 0.4745 -0.8802
vn -0.0004 0.7930 -0.6092
vn 0.0004 -0.7929 -0.6093
vn -0.0670 -0.4735 -0.8783
vn -0.1103 -0.7752 -0.6220
vn 0.0004 -0.7932 -0.6089
vn 0.0003 -0.4747 -0.8802
vn -0.0670 -0.4739 -0.8780
vn 1.0000 -0.0001 -0.0000
vn 1.0000 0.0001 -0.0000
vn -1.0000 0.0001 -0.0000
vn -1.0000 -0.0004 0.0001
vn -1.0000 0.0001 0.0001
vn -1.0000 0.0005 -0.0000
vn -1.0000 0.0003 -0.0000
vn -1.0000 -0.0005 -0.0000
vn 0.0074 0.3964 0.9180
vn -0.0074 -0.3963 0.9181
vn 0.0074 -0.3963 0.9181
vn -0.0074 0.3963 0.9181
vn -0.0000 -0.0000 -1.0000
vn 0.9141 0.4050 -0.0194
vn 0.9141 -0.4049 0.0194
vn 0.9141 -0.4049 -0.0194
vn 0.9141 0.4050 0.0194
vn -0.0074 0.3964 -0.9180
vn 0.0074 -0.3962 -0.9181
vn -0.0075 -0.3964 -0.9181
vn 0.0075 0.3964 -0.9181
vn -0.9142 0.4049 0.0194
vn -0.9141 -0.4049 -0.0194
vn -0.9141 -0.4049 0.0194
vn -0.9142 0.4048 0.0194
vn -0.9142 0.4048 -0.0194
vn -0.9141 -0.4050 -0.0194
vn -0.9141 0.4049 0.0196
vn -0.0072 0.3961 0.9182
vn -0.2460 0.7317 0.6357
vn -0.9141 0.4049 -0.0196
vn -0.2460 0.7317 -0.6357
vn -0.0072 0.3963 -0.9181
vn 0.9141 0.4049 0.0195
vn 0.2460 0.7320 0.6354
vn 0.0073 0.3963 0.9181
vn 0.9141 0.4049 -0.0194
vn 0.0073 0.3963 -0.9181
vn 0.2460 0.7320 -0.6354
vn -0.9141 -0.4049 0.0199
vn -0.2458 -0.7316 0.6359
vn -0.0070 -0.3960 0.9182
vn -0.9141 -0.4050 -0.0198
vn -0.0070 -0.3960 -0.9182
vn -0.2459 -0.7316 -0.6359
vn 0.9141 -0.4049 0.0197
vn 0.0071 -0.3961 0.9182
vn 0.2459 -0.7317 0.6357
vn 0.9141 -0.4049 -0.0196
vn 0.2459 -0.7317 -0.6357
vn 0.0071 -0.3960 -0.9182
vn -0.2460 0.7318 0.6356
vn -0.9141 0.4050 -0.0194
vn -0.9141 0.4050 0.0194
vn -0.2460 0.7318 -0.6356
vn -0.9141 0.4049 -0.0194
vn 0.2460 0.7320 -0.6353
vn 0.9141 0.4051 0.0194
vn 0.9141 0.4051 -0.0194
vn 0.2459 0.7320 -0.6354
vn 0.0074 0.3967 -0.9179
vn -0.2460 0.7320 -0.6354
vn 0.2460 0.7322 -0.6352
vn 0.0074 0.3962 -0.9181
vn -0.0074 0.3962 -0.9181
vn -0.2459 0.7316 -0.6358
vn 0.2460 0.7319 0.6355
vn 0.2460 0.7320 0.6353
vn -0.2460 0.7319 0.6355
vn -0.0074 0.3965 0.9180
vn -0.9141 -0.4050 0.0194
vn -0.2460 -0.7318 -0.6356
vn -0.2459 -0.7318 0.6356
vn -0.2459 -0.7318 -0.6356
vn 0.2459 -0.7318 0.6356
vn 0.9141 -0.4050 -0.0194
vn 0.9141 -0.4050 0.0194
vn 0.2460 -0.7318 0.6356
vn 0.2459 -0.7318 -0.6356
vn 0.2460 -0.7317 -0.6357
vn -0.0074 -0.3964 -0.9181
vn 0.2460 -0.7316 -0.6358
vn -0.2459 -0.7316 -0.6358
vn -0.0074 -0.3962 -0.9181
vn -0.2459 -0.7317 0.6357
vn 0.2460 -0.7317 0.6357
vn 0.0074 -0.3961 0.9182
vn -0.0074 -0.3961 0.9182
vn -0.2459 -0.7316 0.6358
vn -0.0075 0.3965 -0.9180
vn -0.9142 -0.4049 -0.0193
vn -0.9141 0.4049 -0.0192
vn -0.0077 0.3964 -0.9180
vn -0.0077 -0.3965 -0.9180
vn -0.9141 -0.4050 -0.0190
vn -0.0079 -0.3963 0.9181
vn -0.9141 0.4050 0.0189
vn -0.9141 -0.4050 0.0190
vn -0.0074 0.3964 0.9181
vn -0.9141 0.4049 0.0194
vn 0.0074 0.3965 0.9180
vn 0.0074 -0.3964 0.9181
vn 0.9141 -0.4050 0.0193
vn 0.0077 -0.3962 -0.9181
vn 0.9141 0.4050 -0.0192
vn 0.9141 -0.4050 -0.0192
vn 0.0074 0.3964 -0.9181
vn -0.0000 1.0000 -0.0003
vn -0.0001 1.0000 0.0001
vn -0.0000 1.0000 -0.0004
vn -0.0000 1.0000 0.0004
vn -0.0000 1.0000 -0.0000
vn -0.0001 1.0000 0.0002
vn -0.0000 1.0000 0.0001
vn -0.0000 -0.0000 1.0000
vt 0.495903 0.553626
vt 0.497331 0.553626
vt 0.496617 0.552997
vt 0.495607 0.555144
vt 0.497627 0.555144
vt 0.495903 0.556663
vt 0.497331 0.556663
vt 0.496617 0.557292
vt 0.136828 0.553626
vt 0.121267 0.555144
vt 0.121267 0.553626
vt 0.136828 0.555144
vt 0.121267 0.556663
vt 0.136828 0.556663
vt 0.497331 0.136828
vt 0.496617 0.121267
vt 0.497331 0.121267
vt 0.496617 0.136828
vt 0.495903 0.121267
vt 0.495903 0.136828
vt 0.496617 0.136828
vt 0.467699 0.553626
vt 0.469127 0.553626
vt 0.468413 0.552997
vt 0.467403 0.555145
vt 0.469422 0.555145
vt 0.467699 0.556663
vt 0.469127 0.556663
vt 0.468413 0.557292
vt 0.136828 0.553626
vt 0.121267 0.555145
vt 0.121267 0.553626
vt 0.136828 0.555145
vt 0.121267 0.556663
vt 0.136828 0.556663
vt 0.469127 0.136828
vt 0.468413 0.121267
vt 0.469126 0.121267
vt 0.468413 0.136828
vt 0.467699 0.121267
vt 0.467699 0.136828
vt 0.454019 0.555144
vt 0.453409 0.557249
vt 0.453409 0.555144
vt 0.454019 0.557249
vt 0.454019 0.553039
vt 0.453409 0.553039
vt 0.468081 0.553040
vt 0.468081 0.555145
vt 0.496451 0.553040
vt 0.496451 0.555145
vt 0.468081 0.557249
vt 0.496451 0.557249
vt 0.510501 0.555145
vt 0.510501 0.557250
vt 0.510501 0.553040
vt 0.511449 0.553040
vt 0.511449 0.555145
vt 0.511449 0.557250
vt 0.454019 0.133111
vt 0.453409 0.134448
vt 0.453409 0.133111
vt 0.454019 0.134448
vt 0.453409 0.135786
vt 0.454019 0.135786
vt 0.468081 0.137108
vt 0.468081 0.138445
vt 0.496451 0.137108
vt 0.496451 0.138445
vt 0.496451 0.135771
vt 0.468081 0.135771
vt 0.510501 0.133111
vt 0.510501 0.134448
vt 0.510501 0.135786
vt 0.511449 0.134448
vt 0.511449 0.135786
vt 0.511449 0.133111
vt 0.496451 0.555145
vt 0.496451 0.557249
vt 0.496451 0.137108
vt 0.496451 0.138445
vt 0.133111 0.557249
vt 0.133111 0.553039
vt 0.132558 0.555144
vt 0.134448 0.558122
vt 0.134448 0.552167
vt 0.135786 0.557249
vt 0.135786 0.553039
vt 0.136340 0.555144
vt 0.133111 0.553040
vt 0.133111 0.557250
vt 0.132557 0.555145
vt 0.134448 0.552167
vt 0.134448 0.558122
vt 0.135786 0.553040
vt 0.135786 0.557250
vt 0.136339 0.555145
vt 0.389216 0.123929
vt 0.589269 0.126582
vt 0.389216 0.126582
vt 0.589269 0.123929
vt 0.389216 0.455969
vt 0.589269 0.571653
vt 0.589269 0.455969
vt 0.389216 0.571653
vt 0.393243 0.121025
vt 0.585242 -0.102052
vt 0.393243 -0.102052
vt 0.585242 0.121025
vt 0.123929 0.455969
vt 0.126582 0.571653
vt 0.126582 0.455969
vt 0.123929 0.571653
vt 0.121025 0.565749
vt -0.102052 0.461873
vt -0.102052 0.565749
vt 0.121025 0.461873
vt 0.123929 0.574557
vt 0.121025 0.571653
vt 0.121025 0.455969
vt 0.123929 0.453065
vt 0.129487 0.571653
vt 0.126582 0.574557
vt 0.126582 0.453065
vt 0.129487 0.455969
vt 0.389216 0.453065
vt 0.589269 0.453065
vt 0.389216 0.121025
vt 0.589269 0.121025
vt 0.389216 0.129487
vt 0.589269 0.129487
vt 0.585242 0.565749
vt 0.585242 0.461873
vt 0.393243 0.461873
vt 0.393243 0.565749
vt 0.902948 0.565749
vt 1.116025 0.467347
vt 0.902948 0.467347
vt 1.116025 0.565749
vt 0.396654 0.116025
vt 0.581831 0.116025
vt 0.581831 -0.097052
vt 0.581831 0.902948
vt 0.393243 0.897948
vt 0.585242 0.897948
vt 0.396654 0.902948
vt 0.393243 1.121025
vt 0.396654 1.116025
vt 0.396654 -0.097052
vt 0.581831 0.565749
vt 0.396654 0.467347
vt 0.581831 0.467347
vt 0.396654 0.565749
vt 0.116025 0.565749
vt -0.097052 0.467347
vt 0.116025 0.467347
vt -0.097052 0.565749
s 1
usemtl M_DresserDrawer_213_5_0
f 1/1/1 3/2/2 2/3/3
f 3/2/4 1/1/5 4/4/4
f 3/2/4 4/4/4 5/5/4
f 5/5/4 4/4/4 6/6/4
f 5/5/4 6/6/4 7/7/4
f 7/7/6 6/6/5 8/8/7
f 3/9/8 10/10/9 9/11/10
f 3/9/8 5/12/9 10/10/11
f 5/12/12 11/13/13 10/10/9
f 5/12/12 7/14/13 11/13/13
f 7/15/14 12/16/15 11/17/16
f 7/15/16 8/18/15 12/16/15
f 8/18/17 13/19/18 12/16/17
f 8/18/17 6/20/19 13/19/19
f 6/14/18 14/10/20 13/13/18
f 6/14/18 4/12/20 14/10/20
f 4/12/21 15/11/22 14/10/20
f 4/12/21 1/9/22 15/11/22
f 2/21/23 9/17/10 16/16/23
f 2/21/23 3/15/24 9/17/10
f 1/20/25 2/21/26 16/16/26
f 1/20/22 16/16/26 15/19/25
f 17/22/27 19/23/28 18/24/29
f 19/23/30 17/22/31 20/25/32
f 19/23/33 20/25/28 21/26/4
f 21/26/34 20/25/35 22/27/36
f 21/26/37 22/27/36 23/28/37
f 23/28/38 22/27/39 24/29/39
f 19/30/10 26/31/11 25/32/10
f 19/30/10 21/33/11 26/31/11
f 21/33/9 27/34/40 26/31/9
f 21/33/9 23/35/14 27/34/41
f 23/36/41 28/37/42 27/38/43
f 23/36/14 24/39/42 28/37/42
f 24/39/44 29/40/18 28/37/44
f 24/39/44 22/41/45 29/40/46
f 22/35/19 30/31/20 29/34/18
f 22/35/47 20/33/20 30/31/20
f 20/33/21 31/32/22 30/31/21
f 20/33/20 17/30/25 31/32/48
f 18/39/49 25/38/50 32/37/51
f 18/39/52 19/36/10 25/38/10
f 17/41/53 18/39/54 32/37/54
f 17/41/25 32/37/54 31/40/22
f 33/42/55 35/43/56 34/44/57
f 33/42/58 36/45/59 35/43/60
f 37/46/61 33/42/62 34/44/63
f 37/46/64 34/44/65 38/47/66
f 39/48/67 33/42/68 37/46/69
f 39/48/70 40/49/71 33/42/72
f 40/49/73 36/45/74 33/42/75
f 41/50/76 40/49/73 39/48/77
f 41/50/78 42/51/79 40/49/80
f 42/51/81 43/52/82 40/49/83
f 40/49/84 43/52/85 36/45/86
f 42/51/87 44/53/88 43/52/89
f 45/54/90 44/53/91 42/51/92
f 45/54/93 46/55/94 44/53/95
f 47/56/96 42/51/97 41/50/98
f 47/56/99 45/54/100 42/51/101
f 48/57/102 45/54/103 47/56/104
f 48/57/105 49/58/106 45/54/107
f 49/58/108 46/55/109 45/54/110
f 49/58/111 50/59/112 46/55/113
f 36/60/114 51/61/115 35/62/116
f 36/60/117 52/63/118 51/61/119
f 52/63/120 53/64/121 51/61/122
f 52/63/123 54/65/124 53/64/125
f 55/66/126 54/65/127 52/63/128
f 55/66/129 56/67/130 54/65/131
f 57/68/132 56/67/133 55/66/134
f 57/68/135 58/69/136 56/67/137
f 44/70/138 57/68/139 55/66/140
f 44/70/141 55/66/142 43/71/143
f 43/71/144 52/63/145 36/60/146
f 43/71/147 55/66/148 52/63/149
f 46/72/150 57/68/151 44/70/152
f 46/72/153 59/73/154 57/68/155
f 59/73/156 58/69/157 57/68/158
f 59/73/159 60/74/160 58/69/161
f 61/75/162 60/74/163 59/73/164
f 61/75/165 62/76/166 60/74/167
f 50/77/168 59/73/169 46/72/170
f 50/77/171 61/75/172 59/73/169
f 54/45/173 63/44/174 53/43/175
f 54/45/176 64/42/177 63/44/178
f 64/42/179 65/47/180 63/44/4
f 64/42/181 66/46/182 65/47/183
f 67/49/184 66/46/185 64/42/186
f 67/49/187 68/48/188 66/46/189
f 69/78/190 68/48/191 67/49/192
f 69/78/193 70/50/194 68/48/195
f 58/79/196 69/78/197 67/49/198
f 58/79/157 67/49/199 56/52/200
f 56/52/201 64/42/202 54/45/203
f 56/52/204 67/49/205 64/42/206
f 60/55/207 69/78/190 58/79/208
f 60/55/209 71/54/210 69/78/211
f 71/54/210 70/50/212 69/78/213
f 71/54/214 72/56/215 70/50/216
f 73/58/217 72/56/218 71/54/219
f 73/58/220 74/57/221 72/56/222
f 62/59/223 71/54/224 60/55/225
f 62/59/226 73/58/227 71/54/228
f 66/65/229 75/61/230 65/64/231
f 66/65/232 76/63/233 75/61/234
f 76/63/235 38/62/236 75/61/237
f 76/63/238 37/60/239 38/62/240
f 77/66/241 37/60/242 76/63/243
f 77/66/244 39/71/245 37/60/61
f 78/80/246 39/71/247 77/66/248
f 78/80/249 41/70/250 39/71/251
f 70/81/252 78/80/253 77/66/254
f 70/81/255 77/66/256 68/67/257
f 68/67/258 76/63/259 66/65/182
f 68/67/195 77/66/260 76/63/261
f 72/74/262 78/80/263 70/81/264
f 72/74/265 79/73/266 78/80/267
f 79/73/268 41/70/269 78/80/246
f 79/73/270 47/72/271 41/70/272
f 80/75/273 47/72/274 79/73/275
f 80/75/276 48/77/277 47/72/99
f 74/76/278 79/73/279 72/74/280
f 74/76/281 80/75/282 79/73/283
f 35/82/284 38/83/284 34/84/284
f 38/83/20 35/82/20 51/85/20
f 38/83/20 51/85/20 75/86/20
f 75/86/20 51/85/20 53/87/20
f 75/86/20 53/87/20 65/88/20
f 65/88/285 53/87/285 63/89/285
f 48/90/286 50/91/286 49/92/286
f 50/91/11 48/90/11 80/93/11
f 50/91/287 80/93/11 61/94/11
f 61/94/288 80/93/288 74/95/288
f 61/94/286 74/95/286 62/96/289
f 62/96/290 74/95/288 73/97/291
f 81/98/292 83/99/293 82/100/294
f 81/98/292 84/101/295 83/99/293
f 85/102/4 87/103/4 86/104/4
f 85/102/4 88/105/4 87/103/4
f 89/106/296 91/107/296 90/108/296
f 89/106/296 92/109/296 91/107/296
f 93/110/297 95/111/298 94/112/299
f 93/110/297 96/113/300 95/111/298
f 97/101/301 99/100/302 98/99/303
f 97/101/301 100/98/304 99/100/302
f 101/114/20 90/115/20 102/116/20
f 101/114/20 89/117/20 90/115/20
f 103/113/305 105/112/306 104/111/307
f 103/113/308 106/110/309 105/112/310
f 103/113/311 84/118/312 107/119/313
f 106/110/314 108/120/315 97/121/316
f 96/113/317 109/119/318 81/118/319
f 93/110/320 100/121/321 110/120/322
f 104/111/323 87/122/324 83/123/325
f 105/112/326 98/124/327 86/125/328
f 95/111/329 82/123/330 88/122/331
f 94/112/332 85/125/333 99/124/334
f 107/119/335 106/110/336 103/113/337
f 107/119/335 108/120/338 106/110/339
f 96/113/300 110/120/340 109/119/318
f 96/113/341 93/110/342 110/120/343
f 100/126/344 108/104/345 110/102/346
f 100/126/347 97/127/348 108/104/349
f 109/128/350 84/101/295 81/98/292
f 109/128/351 107/129/352 84/101/353
f 104/111/354 86/125/355 87/122/356
f 104/111/354 105/112/310 86/125/357
f 88/122/358 94/112/359 95/111/360
f 88/122/361 85/125/362 94/112/359
f 85/130/363 98/99/364 99/100/302
f 85/130/365 86/131/366 98/99/367
f 82/100/294 87/131/368 88/130/369
f 82/100/370 83/99/371 87/131/372
f 97/121/373 105/112/374 106/110/375
f 97/121/376 98/124/377 105/112/378
f 83/123/379 103/113/380 104/111/381
f 83/123/293 84/118/382 103/113/383
f 81/118/292 95/111/298 96/113/300
f 81/118/384 82/123/385 95/111/386
f 99/124/387 93/110/388 94/112/389
f 99/124/302 100/121/390 93/110/342
f 111/132/391 108/104/392 107/103/391
f 111/132/391 92/133/392 108/104/392
f 92/133/391 110/102/393 108/104/391
f 92/133/394 89/134/394 110/102/394
f 89/134/395 109/105/396 110/102/395
f 89/134/395 101/135/396 109/105/396
f 101/135/65 107/103/397 109/105/65
f 101/135/397 111/132/393 107/103/393
f 90/134/395 112/132/395 102/135/395
f 90/134/395 91/133/395 112/132/395
f 92/117/11 112/116/11 91/115/11
f 92/117/11 111/114/11 112/116/11
f 113/136/20 115/137/20 114/138/20
f 113/136/20 116/139/20 115/137/20
f 117/140/398 111/109/398 101/106/398
f 117/140/398 116/141/398 111/109/398
f 116/141/398 112/107/398 111/109/398
f 116/141/398 113/142/398 112/107/398
f 113/143/398 102/144/398 112/145/398
f 113/143/398 118/146/398 102/144/398
f 118/146/398 101/147/398 102/144/398
f 118/146/398 117/148/398 101/147/398
f 115/141/398 119/149/398 114/142/398
f 115/141/398 120/140/398 119/149/398
f 116/150/395 120/151/395 115/152/395
f 116/150/395 117/153/395 120/151/395
f 118/153/4 114/152/4 119/151/4
f 118/153/4 113/150/4 114/152/4
f 117/154/11 119/155/11 120/156/11
f 117/154/11 118/157/11 119/155/11
