# Blender 4.1.0
# www.blender.org
mtllib MeshPlate_4_0_GeomSubset_1.mtl
o MeshPlate_4_0_GeomSubset_1
v 0.044323 0.094767 -0.041725
v 0.035669 0.098351 -0.041725
v 0.035191 0.097196 -0.043168
v 0.043844 0.093612 -0.043168
v -0.035669 0.098351 -0.041725
v -0.044323 0.094767 -0.041725
v -0.043844 0.093612 -0.043168
v -0.035191 0.097196 -0.043168
v 0.098351 0.035669 -0.041725
v 0.094767 0.044323 -0.041725
v 0.093612 0.043844 -0.043168
v 0.097196 0.035191 -0.043168
v -0.094767 0.044323 -0.041725
v -0.098351 0.035669 -0.041725
v -0.097196 0.035191 -0.043168
v -0.093612 0.043844 -0.043168
v -0.098351 -0.035669 -0.041725
v -0.094767 -0.044323 -0.041725
v -0.093612 -0.043844 -0.043168
v -0.097196 -0.035191 -0.043168
v -0.044323 -0.094767 -0.041725
v -0.035669 -0.098351 -0.041725
v -0.035191 -0.097196 -0.043168
v -0.043844 -0.093612 -0.043168
v 0.035669 -0.098351 -0.041725
v 0.044323 -0.094767 -0.041725
v 0.043844 -0.093612 -0.043168
v 0.035191 -0.097196 -0.043168
v 0.094767 -0.044323 -0.041725
v 0.098351 -0.035669 -0.041725
v 0.097196 -0.035191 -0.043168
v 0.093612 -0.043844 -0.043168
v 0.035669 0.098351 -0.039799
v 0.044323 0.094767 -0.039799
v 0.043844 0.093612 -0.038355
v 0.035191 0.097196 -0.038355
v 0.094767 0.044323 -0.039799
v 0.098351 0.035669 -0.039799
v 0.097196 0.035191 -0.038355
v 0.093612 0.043844 -0.038355
v -0.044323 0.094767 -0.039799
v -0.035669 0.098351 -0.039799
v -0.035191 0.097196 -0.038355
v -0.043844 0.093612 -0.038355
v -0.098351 0.035669 -0.039799
v -0.094767 0.044323 -0.039799
v -0.093612 0.043844 -0.038355
v -0.097196 0.035191 -0.038355
v -0.094767 -0.044323 -0.039799
v -0.098351 -0.035669 -0.039799
v -0.097196 -0.035191 -0.038355
v -0.093612 -0.043844 -0.038355
v -0.035669 -0.098351 -0.039799
v -0.044323 -0.094767 -0.039799
v -0.043844 -0.093612 -0.038355
v -0.035191 -0.097196 -0.038355
v 0.044323 -0.094767 -0.039799
v 0.035669 -0.098351 -0.039799
v 0.035191 -0.097196 -0.038355
v 0.043844 -0.093612 -0.038355
v 0.098351 -0.035669 -0.039799
v 0.094767 -0.044323 -0.039799
v 0.093612 -0.043844 -0.038355
v 0.097196 -0.035191 -0.038355
v 0.030880 0.086789 -0.043822
v 0.039534 0.083205 -0.043822
v 0.040948 0.086620 -0.043168
v 0.032295 0.090204 -0.043168
v 0.083205 0.039534 -0.043822
v 0.086789 0.030880 -0.043822
v 0.090205 0.032295 -0.043168
v 0.086620 0.040948 -0.043168
v -0.039533 0.083205 -0.043822
v -0.030880 0.086789 -0.043822
v -0.032295 0.090204 -0.043168
v -0.040948 0.086620 -0.043168
v -0.086789 0.030880 -0.043822
v -0.083205 0.039534 -0.043822
v -0.086620 0.040948 -0.043168
v -0.090204 0.032295 -0.043168
v -0.083205 -0.039534 -0.043822
v -0.086789 -0.030880 -0.043822
v -0.090204 -0.032295 -0.043168
v -0.086620 -0.040948 -0.043168
v -0.030880 -0.086789 -0.043822
v -0.039533 -0.083205 -0.043822
v -0.040948 -0.086620 -0.043168
v -0.032295 -0.090204 -0.043168
v 0.039534 -0.083205 -0.043822
v 0.030880 -0.086789 -0.043822
v 0.032295 -0.090204 -0.043168
v 0.040948 -0.086620 -0.043168
v 0.086789 -0.030880 -0.043822
v 0.083205 -0.039534 -0.043822
v 0.086620 -0.040948 -0.043168
v 0.090205 -0.032295 -0.043168
v 0.039534 0.083205 -0.039009
v 0.030880 0.086789 -0.039009
v 0.032295 0.090204 -0.038355
v 0.040948 0.086620 -0.038355
v -0.030880 0.086789 -0.039009
v -0.039533 0.083205 -0.039009
v -0.040948 0.086620 -0.038355
v -0.032295 0.090204 -0.038355
v 0.086789 0.030880 -0.039009
v 0.083205 0.039534 -0.039009
v 0.086620 0.040948 -0.038355
v 0.090205 0.032295 -0.038355
v -0.083205 0.039534 -0.039009
v -0.086789 0.030880 -0.039009
v -0.090204 0.032295 -0.038355
v -0.086620 0.040948 -0.038355
v -0.086789 -0.030880 -0.039009
v -0.083205 -0.039534 -0.039009
v -0.086620 -0.040948 -0.038355
v -0.090204 -0.032295 -0.038355
v -0.039533 -0.083205 -0.039009
v -0.030880 -0.086789 -0.039009
v -0.032295 -0.090204 -0.038355
v -0.040948 -0.086620 -0.038355
v 0.030880 -0.086789 -0.039009
v 0.039534 -0.083205 -0.039009
v 0.040948 -0.086620 -0.038355
v 0.032295 -0.090204 -0.038355
v 0.083205 -0.039534 -0.039009
v 0.086789 -0.030880 -0.039009
v 0.090205 -0.032295 -0.038355
v 0.086620 -0.040948 -0.038355
v 0.020279 0.061195 -0.053167
v 0.028932 0.057611 -0.053167
v 0.030347 0.061026 -0.052514
v 0.021694 0.064610 -0.052514
v 0.064610 0.021693 -0.052514
v 0.061026 0.030347 -0.052514
v 0.057611 0.028932 -0.053167
v 0.061195 0.020279 -0.053167
v -0.021693 0.064610 -0.052514
v -0.030347 0.061026 -0.052514
v -0.028932 0.057611 -0.053167
v -0.020279 0.061195 -0.053167
v -0.061026 0.030347 -0.052514
v -0.064610 0.021693 -0.052514
v -0.061195 0.020279 -0.053167
v -0.057611 0.028932 -0.053167
v -0.064610 -0.021693 -0.052514
v -0.061026 -0.030347 -0.052514
v -0.057611 -0.028932 -0.053167
v -0.061195 -0.020279 -0.053167
v -0.030347 -0.061026 -0.052514
v -0.021693 -0.064610 -0.052514
v -0.020279 -0.061195 -0.053167
v -0.028932 -0.057611 -0.053167
v 0.021694 -0.064610 -0.052514
v 0.030347 -0.061026 -0.052514
v 0.028932 -0.057611 -0.053167
v 0.020279 -0.061195 -0.053167
v 0.061026 -0.030347 -0.052514
v 0.064610 -0.021693 -0.052514
v 0.061195 -0.020279 -0.053167
v 0.057611 -0.028932 -0.053167
v 0.021694 0.064610 -0.047701
v 0.030347 0.061026 -0.047701
v 0.028932 0.057611 -0.048354
v 0.020279 0.061195 -0.048354
v 0.061195 0.020279 -0.048354
v 0.057611 0.028932 -0.048354
v 0.061026 0.030347 -0.047701
v 0.064610 0.021693 -0.047701
v -0.020279 0.061195 -0.048354
v -0.028932 0.057611 -0.048354
v -0.030347 0.061026 -0.047701
v -0.021693 0.064610 -0.047701
v -0.057611 0.028932 -0.048354
v -0.061195 0.020279 -0.048354
v -0.064610 0.021693 -0.047701
v -0.061026 0.030347 -0.047701
v -0.061195 -0.020279 -0.048354
v -0.057611 -0.028932 -0.048354
v -0.061026 -0.030347 -0.047701
v -0.064610 -0.021693 -0.047701
v -0.028932 -0.057611 -0.048354
v -0.020279 -0.061195 -0.048354
v -0.021693 -0.064610 -0.047701
v -0.030347 -0.061026 -0.047701
v 0.020279 -0.061195 -0.048354
v 0.028932 -0.057611 -0.048354
v 0.030347 -0.061026 -0.047701
v 0.021694 -0.064610 -0.047701
v 0.057611 -0.028932 -0.048354
v 0.061195 -0.020279 -0.048354
v 0.064610 -0.021693 -0.047701
v 0.061026 -0.030347 -0.047701
v 0.012238 0.000000 -0.053167
v 0.008653 -0.008653 -0.053167
v 0.000000 -0.012238 -0.053167
v -0.008653 -0.008653 -0.053167
v -0.012238 0.000000 -0.053167
v -0.008653 0.008653 -0.053167
v 0.000000 0.012238 -0.053167
v 0.008653 0.008653 -0.053167
v 0.008653 0.008653 -0.048354
v 0.000000 0.012238 -0.048354
v -0.008653 0.008653 -0.048354
v -0.012238 0.000000 -0.048354
v -0.008653 -0.008653 -0.048354
v 0.000000 -0.012238 -0.048354
v 0.008653 -0.008653 -0.048354
v 0.012238 0.000000 -0.048354
v 0.000000 0.000000 -0.048354
v 0.000000 0.000000 -0.053167
v 0.035701 0.098497 -0.039685
v 0.044403 0.094892 -0.039685
v 0.043896 0.093686 -0.038190
v 0.035207 0.097285 -0.038190
v 0.094892 0.044404 -0.039685
v 0.098497 0.035701 -0.039685
v 0.097285 0.035207 -0.038190
v 0.093686 0.043896 -0.038190
v -0.044404 0.094892 -0.039685
v -0.035701 0.098497 -0.039685
v -0.035207 0.097285 -0.038190
v -0.043896 0.093686 -0.038190
v -0.098497 0.035701 -0.039685
v -0.094892 0.044404 -0.039685
v -0.093685 0.043896 -0.038190
v -0.097285 0.035207 -0.038190
v -0.094892 -0.044404 -0.039685
v -0.098497 -0.035701 -0.039685
v -0.097285 -0.035207 -0.038190
v -0.093685 -0.043896 -0.038190
v -0.035701 -0.098497 -0.039685
v -0.044404 -0.094892 -0.039685
v -0.043896 -0.093686 -0.038190
v -0.035207 -0.097285 -0.038190
v 0.044403 -0.094892 -0.039685
v 0.035701 -0.098497 -0.039685
v 0.035207 -0.097285 -0.038190
v 0.043896 -0.093686 -0.038190
v 0.098497 -0.035701 -0.039685
v 0.094892 -0.044404 -0.039685
v 0.093686 -0.043896 -0.038190
v 0.097285 -0.035207 -0.038190
v 0.039507 0.083165 -0.038827
v 0.030871 0.086743 -0.038827
v 0.032291 0.090188 -0.038168
v 0.040939 0.086606 -0.038168
v -0.030871 0.086743 -0.038827
v -0.039507 0.083165 -0.038827
v -0.040939 0.086606 -0.038168
v -0.032291 0.090188 -0.038168
v 0.086742 0.030871 -0.038827
v 0.083165 0.039507 -0.038827
v 0.086606 0.040939 -0.038168
v 0.090188 0.032291 -0.038168
v -0.083165 0.039507 -0.038827
v -0.086742 0.030871 -0.038827
v -0.090188 0.032291 -0.038168
v -0.086606 0.040939 -0.038168
v -0.086742 -0.030871 -0.038827
v -0.083165 -0.039507 -0.038827
v -0.086606 -0.040939 -0.038168
v -0.090188 -0.032291 -0.038168
v -0.039507 -0.083165 -0.038827
v -0.030871 -0.086743 -0.038827
v -0.032291 -0.090188 -0.038168
v -0.040939 -0.086606 -0.038168
v 0.030871 -0.086743 -0.038827
v 0.039507 -0.083165 -0.038827
v 0.040939 -0.086606 -0.038168
v 0.032291 -0.090188 -0.038168
v 0.083165 -0.039507 -0.038827
v 0.086742 -0.030871 -0.038827
v 0.090188 -0.032291 -0.038168
v 0.086606 -0.040939 -0.038168
v 0.021684 0.064560 -0.047520
v 0.030318 0.060984 -0.047520
v 0.028921 0.057595 -0.048167
v 0.020276 0.061176 -0.048167
v 0.061176 0.020276 -0.048167
v 0.057595 0.028921 -0.048167
v 0.060984 0.030318 -0.047520
v 0.064560 0.021684 -0.047520
v -0.020276 0.061176 -0.048167
v -0.028921 0.057595 -0.048167
v -0.030318 0.060984 -0.047520
v -0.021684 0.064560 -0.047520
v -0.057595 0.028921 -0.048167
v -0.061176 0.020276 -0.048167
v -0.064560 0.021684 -0.047520
v -0.060984 0.030318 -0.047520
v -0.061176 -0.020276 -0.048167
v -0.057595 -0.028921 -0.048167
v -0.060984 -0.030318 -0.047520
v -0.064560 -0.021684 -0.047520
v -0.028921 -0.057595 -0.048167
v -0.020276 -0.061176 -0.048167
v -0.021684 -0.064560 -0.047520
v -0.030318 -0.060984 -0.047520
v 0.020276 -0.061176 -0.048167
v 0.028921 -0.057595 -0.048167
v 0.030318 -0.060984 -0.047520
v 0.021684 -0.064560 -0.047520
v 0.057595 -0.028921 -0.048167
v 0.061176 -0.020276 -0.048167
v 0.064560 -0.021684 -0.047520
v 0.060984 -0.030318 -0.047520
v 0.008653 0.008653 -0.048166
v 0.000000 0.012238 -0.048166
v -0.008653 0.008653 -0.048166
v -0.012238 0.000000 -0.048166
v -0.008653 -0.008653 -0.048166
v 0.000000 -0.012238 -0.048166
v 0.008653 -0.008653 -0.048166
v 0.012238 0.000000 -0.048166
v 0.000000 0.000000 -0.048166
vn 0.6408 0.7053 0.3032
vn 0.0456 0.9518 0.3033
vn 0.0095 0.2399 0.9708
vn 0.1629 0.1764 0.9707
vn -0.0027 -0.0428 0.9991
vn -0.0284 -0.0322 0.9991
vn 0.9518 0.0456 0.3032
vn 0.7053 0.6408 0.3032
vn 0.1764 0.1630 0.9707
vn 0.2399 0.0095 0.9708
vn -0.0322 -0.0284 0.9991
vn -0.0428 -0.0027 0.9991
vn -0.0456 0.9519 0.3031
vn -0.6408 0.7052 0.3032
vn -0.1630 0.1764 0.9707
vn -0.0095 0.2399 0.9708
vn 0.0284 -0.0322 0.9991
vn 0.0027 -0.0428 0.9991
vn -0.7053 0.6408 0.3032
vn -0.9518 0.0455 0.3032
vn -0.2400 0.0095 0.9707
vn -0.1764 0.1629 0.9707
vn 0.0428 -0.0027 0.9991
vn 0.0322 -0.0284 0.9991
vn -0.9518 -0.0456 0.3032
vn -0.7052 -0.6409 0.3032
vn -0.1764 -0.1629 0.9707
vn -0.2400 -0.0095 0.9707
vn 0.0322 0.0284 0.9991
vn 0.0428 0.0027 0.9991
vn -0.6408 -0.7053 0.3031
vn -0.0455 -0.9518 0.3032
vn -0.0095 -0.2399 0.9708
vn -0.1630 -0.1764 0.9707
vn 0.0027 0.0428 0.9991
vn 0.0284 0.0322 0.9991
vn 0.0456 -0.9518 0.3033
vn 0.6408 -0.7053 0.3032
vn 0.1629 -0.1764 0.9707
vn 0.0095 -0.2399 0.9708
vn -0.0284 0.0322 0.9991
vn -0.0027 0.0428 0.9991
vn 0.7053 -0.6408 0.3032
vn 0.9518 -0.0456 0.3032
vn 0.2399 -0.0095 0.9708
vn 0.1764 -0.1629 0.9707
vn -0.0428 0.0027 0.9991
vn -0.0322 0.0284 0.9991
vn -0.2114 -0.2429 0.9467
vn -0.0223 -0.3212 0.9468
vn -0.0174 -0.3456 0.9382
vn -0.2321 -0.2567 0.9382
vn 0.0223 -0.3212 0.9468
vn 0.2114 -0.2429 0.9467
vn 0.2321 -0.2567 0.9382
vn 0.0174 -0.3456 0.9382
vn -0.3212 -0.0223 0.9468
vn -0.2429 -0.2114 0.9467
vn -0.2567 -0.2321 0.9382
vn -0.3455 -0.0174 0.9382
vn 0.2429 -0.2114 0.9467
vn 0.3212 -0.0223 0.9468
vn 0.3455 -0.0174 0.9382
vn 0.2567 -0.2321 0.9382
vn 0.3212 0.0223 0.9468
vn 0.2429 0.2114 0.9467
vn 0.2567 0.2321 0.9382
vn 0.3455 0.0174 0.9382
vn 0.2114 0.2429 0.9467
vn 0.0223 0.3212 0.9468
vn 0.0174 0.3456 0.9382
vn 0.2321 0.2567 0.9382
vn -0.0223 0.3212 0.9468
vn -0.2114 0.2429 0.9467
vn -0.2321 0.2567 0.9382
vn -0.0174 0.3456 0.9382
vn -0.2429 0.2114 0.9467
vn -0.3212 0.0223 0.9468
vn -0.3455 0.0174 0.9382
vn -0.2567 0.2321 0.9382
vn -0.0016 -0.0274 0.9996
vn -0.0182 -0.0205 0.9996
vn -0.0000 -0.0000 1.0000
vn -0.0274 -0.0016 0.9996
vn -0.0205 -0.0182 0.9996
vn 0.0016 -0.0274 0.9996
vn 0.0182 -0.0205 0.9996
vn 0.0205 -0.0182 0.9996
vn 0.0274 -0.0016 0.9996
vn 0.0274 0.0016 0.9996
vn 0.0205 0.0182 0.9996
vn 0.0182 0.0205 0.9996
vn 0.0016 0.0274 0.9996
vn -0.0016 0.0274 0.9996
vn -0.0182 0.0205 0.9996
vn -0.0205 0.0182 0.9996
vn -0.0274 0.0016 0.9996
vt 0.854539 2.473516
vt 0.834130 2.481971
vt 0.833001 2.479246
vt 0.853411 2.470792
vt 0.826171 2.462756
vt 0.846580 2.454302
vt 0.981971 2.334130
vt 0.973517 2.354539
vt 0.970793 2.353411
vt 0.979246 2.333001
vt 0.954302 2.346580
vt 0.962756 2.326170
vt 0.665870 2.481971
vt 0.645461 2.473516
vt 0.646589 2.470792
vt 0.666999 2.479246
vt 0.653420 2.454302
vt 0.673829 2.462756
vt 0.526483 2.354539
vt 0.518029 2.334130
vt 0.520754 2.333001
vt 0.529208 2.353411
vt 0.537244 2.326170
vt 0.545699 2.346580
vt 0.518029 2.165870
vt 0.526483 2.145461
vt 0.529208 2.146589
vt 0.520754 2.166999
vt 0.545699 2.153420
vt 0.537244 2.173830
vt 0.645461 2.026484
vt 0.665870 2.018029
vt 0.666999 2.020754
vt 0.646589 2.029208
vt 0.673829 2.037244
vt 0.653420 2.045698
vt 0.834130 2.018029
vt 0.854539 2.026484
vt 0.853411 2.029208
vt 0.833001 2.020754
vt 0.846580 2.045698
vt 0.826171 2.037244
vt 0.973517 2.145461
vt 0.981971 2.165870
vt 0.979246 2.166999
vt 0.970793 2.146589
vt 0.962756 2.173830
vt 0.954302 2.153420
vt 0.843244 2.446246
vt 0.822834 2.454700
vt 0.801166 2.402390
vt 0.821576 2.393936
vt 0.677166 2.454700
vt 0.656757 2.446246
vt 0.678424 2.393936
vt 0.698834 2.402390
vt 0.954700 2.322834
vt 0.946246 2.343244
vt 0.893936 2.321576
vt 0.902390 2.301166
vt 0.553754 2.343244
vt 0.545300 2.322834
vt 0.597610 2.301166
vt 0.606064 2.321576
vt 0.545300 2.177166
vt 0.553754 2.156756
vt 0.606064 2.178424
vt 0.597610 2.198834
vt 0.656757 2.053754
vt 0.677166 2.045300
vt 0.698834 2.097610
vt 0.678424 2.106064
vt 0.822834 2.045300
vt 0.843244 2.053754
vt 0.821576 2.106064
vt 0.801166 2.097610
vt 0.946246 2.156756
vt 0.954700 2.177166
vt 0.902390 2.198834
vt 0.893936 2.178424
vt 0.797829 2.394334
vt 0.818239 2.385880
vt 0.750000 2.278864
vt 0.770410 2.270410
vt 0.894334 2.297829
vt 0.885880 2.318239
vt 0.778864 2.250000
vt 0.702170 2.394334
vt 0.681761 2.385880
vt 0.729590 2.270410
vt 0.614120 2.318239
vt 0.605666 2.297829
vt 0.721136 2.250000
vt 0.605666 2.202171
vt 0.614120 2.181761
vt 0.729590 2.229590
vt 0.681761 2.114120
vt 0.702170 2.105666
vt 0.750000 2.221136
vt 0.797829 2.105666
vt 0.818239 2.114120
vt 0.770410 2.229590
vt 0.885880 2.181761
vt 0.894334 2.202171
vt 0.750000 2.250000
s 1
usemtl M_Plate_4_1
f 212/1/1 211/2/2 214/3/3 213/4/4
f 213/4/4 214/3/3 245/5/5 246/6/6
f 216/7/7 215/8/8 218/9/9 217/10/10
f 217/10/10 218/9/9 253/11/11 254/12/12
f 220/13/13 219/14/14 222/15/15 221/16/16
f 221/16/16 222/15/15 249/17/17 250/18/18
f 224/19/19 223/20/20 226/21/21 225/22/22
f 225/22/22 226/21/21 257/23/23 258/24/24
f 228/25/25 227/26/26 230/27/27 229/28/28
f 229/28/28 230/27/27 261/29/29 262/30/30
f 232/31/31 231/32/32 234/33/33 233/34/34
f 233/34/34 234/33/33 265/35/35 266/36/36
f 236/37/37 235/38/38 238/39/39 237/40/40
f 237/40/40 238/39/39 269/41/41 270/42/42
f 240/43/43 239/44/44 242/45/45 241/46/46
f 241/46/46 242/45/45 273/47/47 274/48/48
f 243/49/49 244/50/50 275/51/51 276/52/52
f 244/50/50 243/49/49 246/6/6 245/5/5
f 247/53/53 248/54/54 285/55/55 286/56/56
f 248/54/54 247/53/53 250/18/18 249/17/17
f 251/57/57 252/58/58 281/59/59 282/60/60
f 252/58/58 251/57/57 254/12/12 253/11/11
f 255/61/61 256/62/62 289/63/63 290/64/64
f 256/62/62 255/61/61 258/24/24 257/23/23
f 259/65/65 260/66/66 293/67/67 294/68/68
f 260/66/66 259/65/65 262/30/30 261/29/29
f 263/69/69 264/70/70 297/71/71 298/72/72
f 264/70/70 263/69/69 266/36/36 265/35/35
f 267/73/73 268/74/74 301/75/75 302/76/76
f 268/74/74 267/73/73 270/42/42 269/41/41
f 271/77/77 272/78/78 305/79/79 306/80/80
f 272/78/78 271/77/77 274/48/48 273/47/47
f 276/52/52 275/51/51 278/81/81 277/82/82
f 277/82/82 278/81/81 308/83/83 307/84/83
f 279/85/84 280/86/85 307/84/83 314/87/83
f 280/86/85 279/85/84 282/60/60 281/59/59
f 283/88/86 284/89/87 309/90/83 308/83/83
f 284/89/87 283/88/86 286/56/56 285/55/55
f 287/91/88 288/92/89 310/93/83 309/90/83
f 288/92/89 287/91/88 290/64/64 289/63/63
f 291/94/90 292/95/91 311/96/83 310/93/83
f 292/95/91 291/94/90 294/68/68 293/67/67
f 295/97/92 296/98/93 312/99/83 311/96/83
f 296/98/93 295/97/92 298/72/72 297/71/71
f 299/100/94 300/101/95 313/102/83 312/99/83
f 300/101/95 299/100/94 302/76/76 301/75/75
f 303/103/96 304/104/97 314/87/83 313/102/83
f 304/104/97 303/103/96 306/80/80 305/79/79
f 212/1/1 213/4/4 218/9/9 215/8/8
f 214/3/3 211/2/2 220/13/13 221/16/16
f 222/15/15 219/14/14 224/19/19 225/22/22
f 226/21/21 223/20/20 228/25/25 229/28/28
f 230/27/27 227/26/26 232/31/31 233/34/34
f 234/33/33 231/32/32 236/37/37 237/40/40
f 238/39/39 235/38/38 240/43/43 241/46/46
f 242/45/45 239/44/44 216/7/7 217/10/10
f 244/50/50 245/5/5 250/18/18 247/53/53
f 246/6/6 243/49/49 252/58/58 253/11/11
f 248/54/54 249/17/17 258/24/24 255/61/61
f 256/62/62 257/23/23 262/30/30 259/65/65
f 260/66/66 261/29/29 266/36/36 263/69/69
f 264/70/70 265/35/35 270/42/42 267/73/73
f 268/74/74 269/41/41 274/48/48 271/77/77
f 272/78/78 273/47/47 254/12/12 251/57/57
f 276/52/52 277/82/82 280/86/85 281/59/59
f 278/81/81 275/51/51 286/56/56 283/88/86
f 284/89/87 285/55/55 290/64/64 287/91/88
f 288/92/89 289/63/63 294/68/68 291/94/90
f 292/95/91 293/67/67 298/72/72 295/97/92
f 296/98/93 297/71/71 302/76/76 299/100/94
f 300/101/95 301/75/75 306/80/80 303/103/96
f 304/104/97 305/79/79 282/60/60 279/85/84
f 278/81/81 283/88/86 308/83/83
f 284/89/87 287/91/88 309/90/83
f 288/92/89 291/94/90 310/93/83
f 292/95/91 295/97/92 311/96/83
f 296/98/93 299/100/94 312/99/83
f 300/101/95 303/103/96 313/102/83
f 304/104/97 279/85/84 314/87/83
f 280/86/85 277/82/82 307/84/83
f 244/50/50 247/53/53 286/56/56 275/51/51
f 248/54/54 255/61/61 290/64/64 285/55/55
f 256/62/62 259/65/65 294/68/68 289/63/63
f 260/66/66 263/69/69 298/72/72 293/67/67
f 264/70/70 267/73/73 302/76/76 297/71/71
f 268/74/74 271/77/77 306/80/80 301/75/75
f 272/78/78 251/57/57 282/60/60 305/79/79
f 252/58/58 243/49/49 276/52/52 281/59/59
f 214/3/3 221/16/16 250/18/18 245/5/5
f 222/15/15 225/22/22 258/24/24 249/17/17
f 226/21/21 229/28/28 262/30/30 257/23/23
f 230/27/27 233/34/34 266/36/36 261/29/29
f 234/33/33 237/40/40 270/42/42 265/35/35
f 238/39/39 241/46/46 274/48/48 269/41/41
f 242/45/45 217/10/10 254/12/12 273/47/47
f 218/9/9 213/4/4 246/6/6 253/11/11
f 310/93/83 315/105/83 308/83/83 309/90/83
f 307/84/83 308/83/83 315/105/83 314/87/83
f 312/99/83 315/105/83 310/93/83 311/96/83
f 314/87/83 315/105/83 312/99/83 313/102/83
