# Blender 4.1.0
# www.blender.org
mtllib MeshClothesDryerKnob_2_3_GeomSubset_1.mtl
o MeshClothesDryerKnob_2_3_GeomSubset_1
v 0.042000 -0.324159 0.414840
v 0.030908 -0.324159 0.425932
v 0.000603 -0.324159 0.425932
v -0.010489 -0.324159 0.414840
v -0.014549 -0.324159 0.399688
v -0.010489 -0.324159 0.384535
v 0.000603 -0.324159 0.373443
v 0.030908 -0.324159 0.373443
v 0.042000 -0.324159 0.384535
v 0.046060 -0.324159 0.399688
v 0.012725 -0.324159 0.429180
v 0.018786 -0.324159 0.429180
v 0.021639 -0.324159 0.370507
v 0.009873 -0.324159 0.370507
v 0.013740 -0.324159 0.432585
v 0.017771 -0.324159 0.432585
v 0.013684 -0.342784 0.426878
v 0.017827 -0.342784 0.426878
v 0.019733 -0.341030 0.375944
v 0.011778 -0.341030 0.375944
v 0.017133 -0.341463 0.429878
v 0.014378 -0.341463 0.429878
v 0.015756 -0.342746 0.375324
v 0.015756 -0.324159 0.369272
v 0.015756 -0.324159 0.429807
v 0.015756 -0.324159 0.433301
v 0.015756 -0.342681 0.430457
v 0.011264 -0.336545 0.414854
v 0.008948 -0.336594 0.384968
v 0.012868 -0.344324 0.414857
v 0.011101 -0.343683 0.384961
v 0.022563 -0.336594 0.384968
v 0.020247 -0.336545 0.414854
v 0.020410 -0.343683 0.384961
v 0.018643 -0.344324 0.414857
v 0.015756 -0.346779 0.414869
v 0.015756 -0.346199 0.384973
v 0.021820 -0.338001 0.399677
v 0.019720 -0.344443 0.399649
v 0.015756 -0.346944 0.399649
v 0.011791 -0.344443 0.399649
v 0.009691 -0.338001 0.399677
v 0.022563 -0.324159 0.384246
v 0.020079 -0.324159 0.414386
v 0.015756 -0.324159 0.384097
v 0.015756 -0.324159 0.414251
v 0.008948 -0.324159 0.384246
v 0.011432 -0.324159 0.414386
v 0.009685 -0.324159 0.399688
v 0.015756 -0.324159 0.399686
v 0.021826 -0.324159 0.399688
v 0.042000 -0.328464 0.414840
v 0.039463 -0.331942 0.414842
v 0.029698 -0.332124 0.423844
v 0.030908 -0.328690 0.425932
v 0.000603 -0.328690 0.425932
v 0.001813 -0.332124 0.423844
v -0.010489 -0.328464 0.414840
v -0.007819 -0.331973 0.414842
v -0.014549 -0.328644 0.399688
v -0.012060 -0.332018 0.399687
v -0.010489 -0.328513 0.384535
v -0.007882 -0.332039 0.384593
v 0.001825 -0.332189 0.375452
v 0.000603 -0.328718 0.373443
v 0.030908 -0.328718 0.373443
v 0.029686 -0.332189 0.375452
v 0.042000 -0.328513 0.384535
v 0.039393 -0.332039 0.384593
v 0.046060 -0.328644 0.399688
v 0.043571 -0.332018 0.399687
v 0.021604 -0.329019 0.370496
v 0.021323 -0.332921 0.372054
v 0.015756 -0.333369 0.370359
v 0.015756 -0.329282 0.369239
v 0.018786 -0.329222 0.429180
v 0.018678 -0.333407 0.428195
v 0.012725 -0.329222 0.429180
v 0.012833 -0.333407 0.428195
v 0.009907 -0.329016 0.370496
v 0.010188 -0.332921 0.372054
v 0.013740 -0.329168 0.432585
v 0.013881 -0.333401 0.431987
v 0.017630 -0.333401 0.431987
v 0.017771 -0.329168 0.432585
v 0.015756 -0.329064 0.433268
v 0.015756 -0.333301 0.432708
v 0.015756 -0.345135 0.427378
v 0.016856 -0.343783 0.427022
v 0.016457 -0.342952 0.429060
v 0.015756 -0.343415 0.429259
v 0.014655 -0.343783 0.427022
v 0.015055 -0.342952 0.429060
v 0.015756 -0.346653 0.416265
v 0.017574 -0.345150 0.416261
v 0.013937 -0.345150 0.416261
vn -0.0000 -0.9779 0.2092
vn 0.7117 -0.6823 0.1672
vn 0.6956 -0.5809 0.4228
vn -0.0000 -0.7948 0.6068
vn -0.7117 -0.6824 0.1671
vn -0.6956 -0.5809 0.4228
vn -0.0000 -0.9893 0.1458
vn 0.7016 -0.7028 0.1174
vn -0.7016 -0.7028 0.1175
vt -19.808048 0.949297
vt -19.810974 0.948526
vt -19.812769 0.952940
vt -19.811769 0.953370
vt -19.804754 0.925233
vt -19.808012 0.925226
s 1
usemtl M_ClothesDryerKnob_2_1
f 88/1/1 89/2/2 90/3/3 91/4/4
f 92/2/5 88/1/1 91/4/4 93/3/6
f 89/2/2 88/1/1 94/5/7 95/6/8
f 94/5/7 88/1/1 92/2/5 96/6/9
