# Blender 4.1.0
# www.blender.org
mtllib DrawermeshCoffeeTableDrawer_315_1_1_GeomSubset_1.mtl
o DrawermeshCoffeeTableDrawer_315_1_1_GeomSubset_1
v 0.248179 -0.346231 0.081930
v 0.241369 -0.346229 0.074931
v 0.233023 -0.346229 0.074931
v 0.226212 -0.346231 0.081930
v 0.233023 -0.346224 0.066354
v 0.226212 -0.346224 0.059356
v 0.241369 -0.346224 0.066354
v 0.248179 -0.346224 0.059356
v 0.226212 -0.345434 0.059356
v 0.226212 -0.345443 0.081930
v 0.248179 -0.345434 0.059356
v 0.248179 -0.345443 0.081930
v 0.233023 -0.373899 0.074922
v 0.233023 -0.373895 0.066345
v 0.241369 -0.373899 0.074922
v 0.241369 -0.377968 0.074920
v 0.233023 -0.377968 0.074920
v -0.216029 -0.373897 0.074922
v -0.216029 -0.377968 0.074920
v -0.224375 -0.373897 0.074922
v -0.224375 -0.377968 0.074920
v -0.224375 -0.346229 0.074931
v -0.216029 -0.346229 0.074931
v 0.241369 -0.373895 0.066345
v 0.241369 -0.377966 0.066343
v 0.233023 -0.377966 0.066343
v -0.216029 -0.377966 0.066343
v -0.216029 -0.373895 0.066345
v -0.224375 -0.377966 0.066343
v -0.224375 -0.373895 0.066345
v -0.216029 -0.346224 0.066354
v -0.224375 -0.346224 0.066354
v -0.231185 -0.346231 0.081930
v -0.209219 -0.346231 0.081930
v -0.209219 -0.346222 0.059356
v -0.231185 -0.346222 0.059356
v -0.209219 -0.345443 0.081930
v -0.209219 -0.345434 0.059356
v -0.231185 -0.345443 0.081930
v -0.231185 -0.345434 0.059356
v -0.326280 -0.341079 -0.008334
v -0.326280 -0.332979 -0.008331
v -0.326280 -0.333028 0.134382
v -0.326280 -0.341131 0.134379
v 0.323788 -0.341079 -0.012495
v 0.323788 -0.332977 -0.012492
v -0.323789 -0.332977 -0.012492
v -0.323789 -0.341079 -0.012495
v 0.323788 -0.345243 -0.008335
v -0.323789 -0.345243 -0.008335
v -0.323789 -0.345291 0.134378
v 0.323788 -0.345291 0.134378
v 0.326280 -0.341131 0.134379
v 0.326280 -0.333028 0.134382
v 0.326280 -0.332979 -0.008331
v 0.326280 -0.341079 -0.008334
v -0.323789 -0.341131 0.138540
v 0.323788 -0.341131 0.138540
v 0.323788 -0.328817 -0.008330
v -0.323789 -0.328817 -0.008330
v -0.323789 -0.328869 0.134383
v -0.323789 -0.333030 0.138543
v 0.323788 -0.333030 0.138543
v 0.323788 -0.328869 0.134383
v -0.318743 -0.328821 0.000101
v 0.318742 -0.328821 0.000101
v -0.318743 -0.328863 0.125952
v 0.318742 -0.328863 0.125952
v 0.318742 -0.036445 0.000202
v 0.318742 -0.036491 0.126054
v -0.318743 -0.036491 0.126054
v -0.318743 -0.036445 0.000202
v 0.308276 -0.053974 0.126047
v 0.308276 -0.053934 0.007216
v -0.308276 -0.053934 0.007216
v -0.308276 -0.053974 0.126047
v 0.308276 -0.311380 0.125958
v 0.308276 -0.311338 0.007127
v -0.308276 -0.311380 0.125958
v -0.308276 -0.311338 0.007127
vn -1.0000 -0.0000 -0.0000
vn -0.0000 0.0004 -1.0000
vn -0.0000 -1.0000 -0.0003
vn 1.0000 -0.0000 -0.0000
vn -0.7633 -0.4571 0.4566
vn 0.7630 -0.4572 0.4570
vn 0.7632 -0.4572 0.4567
vn -0.7634 -0.4565 -0.4570
vn 0.7633 -0.4569 -0.4567
vn 0.7632 0.4571 -0.4568
vn -0.7633 0.4569 -0.4567
vn -0.7637 0.4569 0.4561
vn -0.7637 0.4569 0.4560
vn 0.7635 0.4569 0.4564
vn -0.0000 -0.7073 0.7069
vn -0.8580 -0.5137 -0.0002
vn -0.8579 -0.5137 -0.0002
vn -0.8579 -0.5138 -0.0002
vn 0.8579 -0.5139 -0.0002
vn 0.8581 -0.5135 -0.0002
vn -0.0000 -0.7068 -0.7074
vn -0.0000 -0.7071 -0.7071
vn -0.0000 0.7073 -0.7069
vn -0.8579 0.5138 0.0002
vn -0.8581 0.5136 0.0002
vn -0.0000 0.7070 0.7072
vn -0.0000 0.7066 0.7076
vn 0.8578 0.5140 0.0002
vn 0.8580 0.5137 0.0002
vn 0.8579 -0.0002 0.5138
vn -0.8580 -0.0002 0.5136
vn -0.8580 0.0002 -0.5136
vn 0.8583 0.0002 -0.5132
vn 0.8579 0.0002 -0.5138
vn -0.0000 -0.0004 1.0000
vn 0.0001 1.0000 0.0004
vn -0.0001 1.0000 0.0004
vn 0.0002 1.0000 0.0004
vn -0.0003 1.0000 0.0005
vn 0.0001 1.0000 0.0001
vn -0.0000 1.0000 0.0004
vn -0.0000 0.0003 -1.0000
vn -0.0000 -0.0003 1.0000
vn 0.0001 -0.0004 1.0000
vt 0.967714 0.663565
vt 0.962909 0.748203
vt 0.962909 0.663565
vt 0.967714 0.748203
vt 0.967714 0.651652
vt 0.962909 0.010059
vt 0.962909 0.651652
vt 0.967714 0.010059
vt 0.651652 0.663565
vt 0.010059 0.748203
vt 0.010059 0.663565
vt 0.651652 0.748203
vt 0.010059 0.750671
vt 0.007591 0.748203
vt 0.651652 0.750671
vt 0.654119 0.748203
vt 0.007591 0.663565
vt 0.010059 0.661097
vt 0.654119 0.663565
vt 0.651652 0.661097
vt 0.967714 0.654119
vt 0.962909 0.654119
vt 0.962909 0.007591
vt 0.967714 0.007591
vt 0.015059 0.668565
vt 0.646652 0.668565
vt 0.015059 0.743203
vt 0.646652 0.743203
vt 0.960441 0.646652
vt 0.787044 0.015059
vt 0.787044 0.646652
vt 0.960441 0.015059
vt 0.960441 0.668565
vt 0.787044 0.743203
vt 0.787044 0.668565
vt 0.960441 0.743203
vt 0.636282 0.743203
vt 0.025428 0.672728
vt 0.636282 0.672728
vt 0.025428 0.743203
vt 0.950072 0.743203
vt 0.797413 0.672728
vt 0.950072 0.672728
vt 0.797413 0.743203
vt 0.950072 0.636282
vt 0.950072 0.025428
vt 0.797413 0.025428
vt 0.797413 0.636282
s 1
usemtl M_CoffeeTableDrawer_315_1_1
f 41/1/1 43/2/1 42/3/1
f 41/1/1 44/4/1 43/2/1
f 45/5/2 47/6/2 46/7/2
f 45/5/2 48/8/2 47/6/2
f 49/9/3 51/10/3 50/11/3
f 49/9/3 52/12/3 51/10/3
f 53/4/4 55/3/4 54/2/4
f 53/4/4 56/1/4 55/3/4
f 57/13/5 44/14/5 51/10/5
f 58/15/6 52/12/7 53/16/6
f 41/17/8 48/18/8 50/11/8
f 56/19/9 49/9/9 45/20/9
f 46/20/10 59/9/10 55/19/10
f 47/18/11 42/17/11 60/11/11
f 43/14/12 62/13/12 61/10/13
f 63/15/14 54/16/14 64/12/14
f 58/15/15 51/10/15 52/12/15
f 58/15/15 57/13/15 51/10/15
f 44/14/16 50/11/16 51/10/17
f 44/14/16 41/17/18 50/11/16
f 52/12/19 56/19/20 53/16/19
f 52/12/19 49/9/20 56/19/20
f 49/9/21 48/18/21 45/20/22
f 49/9/21 50/11/21 48/18/21
f 46/20/23 60/11/23 59/9/23
f 46/20/23 47/18/23 60/11/23
f 61/10/24 42/17/25 43/14/24
f 61/10/24 60/11/25 42/17/25
f 64/12/26 62/13/26 63/15/27
f 64/12/26 61/10/26 62/13/26
f 54/16/28 59/9/29 64/12/28
f 54/16/28 55/19/29 59/9/29
f 53/21/30 63/7/30 58/5/30
f 53/21/30 54/22/30 63/7/30
f 43/23/31 57/8/31 62/6/31
f 43/23/31 44/24/31 57/8/31
f 47/6/32 41/24/32 42/23/32
f 47/6/32 48/8/32 41/24/32
f 45/5/33 55/22/34 56/21/34
f 45/5/33 46/7/33 55/22/34
f 57/8/35 63/7/35 62/6/35
f 57/8/35 58/5/35 63/7/35
f 65/25/36 59/9/37 60/11/36
f 65/25/36 66/26/38 59/9/37
f 67/27/39 65/25/36 60/11/36
f 67/27/39 60/11/36 61/10/40
f 68/28/40 67/27/39 61/10/40
f 68/28/40 61/10/40 64/12/40
f 66/26/38 64/12/40 59/9/37
f 66/26/38 68/28/40 64/12/40
f 69/26/41 71/27/41 70/28/41
f 69/26/41 72/25/41 71/27/41
f 66/29/42 72/30/42 69/31/42
f 66/29/42 65/32/42 72/30/42
f 65/33/1 71/34/1 72/35/1
f 65/33/1 67/36/1 71/34/1
f 73/37/3 75/38/3 74/39/3
f 73/37/3 76/40/3 75/38/3
f 68/36/4 69/35/4 70/34/4
f 68/36/4 66/33/4 69/35/4
f 77/41/1 74/42/1 78/43/1
f 77/41/1 73/44/1 74/42/1
f 77/45/43 67/32/43 68/29/43
f 77/45/43 79/46/43 67/32/43
f 79/46/43 71/30/35 67/32/43
f 79/46/43 76/47/44 71/30/35
f 76/47/44 70/31/35 71/30/35
f 76/47/44 73/48/35 70/31/35
f 73/48/35 68/29/43 70/31/35
f 73/48/35 77/45/43 68/29/43
f 80/46/43 74/48/43 75/47/43
f 80/46/43 78/45/43 74/48/43
f 79/40/41 78/39/41 80/38/41
f 79/40/41 77/37/41 78/39/41
f 76/44/4 80/43/4 75/42/4
f 76/44/4 79/41/4 80/43/4
