# Blender 4.1.1
# www.blender.org
mtllib DrawermeshCoffeeTableDrawer_315_3_6_GeomSubset_0.mtl
o DrawermeshCoffeeTableDrawer_315_3_6_GeomSubset_0
v 0.248100 0.346229 -0.238070
v 0.241290 0.346229 -0.245069
v 0.232944 0.346229 -0.245069
v 0.226134 0.346229 -0.238070
v 0.232944 0.346223 -0.253646
v 0.226134 0.346221 -0.260644
v 0.241290 0.346223 -0.253646
v 0.248100 0.346221 -0.260644
v 0.226134 0.345434 -0.260644
v 0.226134 0.345439 -0.238070
v 0.248100 0.345434 -0.260644
v 0.248100 0.345439 -0.238070
v 0.232944 0.373897 -0.245078
v 0.232944 0.373895 -0.253655
v 0.241290 0.373897 -0.245078
v 0.241290 0.377967 -0.245080
v 0.232944 0.377967 -0.245080
v -0.216108 0.373897 -0.245078
v -0.216108 0.377967 -0.245080
v -0.224454 0.373897 -0.245078
v -0.224454 0.377967 -0.245080
v -0.224454 0.346227 -0.245069
v -0.216108 0.346227 -0.245069
v 0.241290 0.373895 -0.253655
v 0.241290 0.377965 -0.253657
v 0.232944 0.377965 -0.253657
v -0.216108 0.377965 -0.253657
v -0.216108 0.373895 -0.253655
v -0.224454 0.377965 -0.253657
v -0.224454 0.373895 -0.253655
v -0.216108 0.346223 -0.253646
v -0.224454 0.346223 -0.253646
v -0.231264 0.346229 -0.238070
v -0.209298 0.346229 -0.238070
v -0.209298 0.346221 -0.260644
v -0.231264 0.346221 -0.260644
v -0.209298 0.345439 -0.238070
v -0.209298 0.345433 -0.260644
v -0.231264 0.345439 -0.238070
v -0.231264 0.345433 -0.260644
v 0.323710 0.341079 -0.330555
v 0.323710 0.332977 -0.330552
v -0.323868 0.332976 -0.330552
v -0.323868 0.341079 -0.330555
v -0.323868 0.341130 -0.179520
v -0.323868 0.333030 -0.179518
v 0.323710 0.333030 -0.179518
v 0.323710 0.341131 -0.179520
v 0.323710 0.345243 -0.326396
v -0.323868 0.345243 -0.326396
v -0.323868 0.345290 -0.183683
v 0.323710 0.345291 -0.183683
v 0.326201 0.341131 -0.183681
v 0.326201 0.333028 -0.183679
v 0.326201 0.332979 -0.326392
v 0.326201 0.341079 -0.326394
v -0.326359 0.341079 -0.326394
v -0.326359 0.332978 -0.326392
v -0.326359 0.333028 -0.183679
v -0.326359 0.341130 -0.183681
v 0.323710 0.328817 -0.326390
v -0.323868 0.328817 -0.326390
v -0.323868 0.328868 -0.183677
v 0.323710 0.328868 -0.183677
v -0.318821 0.328820 -0.317959
v 0.318663 0.328821 -0.317959
v -0.318821 0.328862 -0.192108
v 0.318663 0.328863 -0.192108
v 0.318663 0.036445 -0.317858
v 0.318663 0.036491 -0.192007
v -0.318821 0.036491 -0.192007
v -0.318821 0.036445 -0.317858
v -0.308355 0.053973 -0.192013
v -0.308355 0.053933 -0.310845
v -0.308355 0.311338 -0.310933
v -0.308355 0.311380 -0.192102
v 0.308197 0.311380 -0.192102
v 0.308198 0.053974 -0.192013
v 0.308198 0.053934 -0.310845
v 0.308197 0.311338 -0.310933
vn -0.0001 -1.0000 -0.0003
vn 0.0007 -1.0000 -0.0004
vn 0.0001 -1.0000 0.0005
vn 0.0012 -1.0000 0.0004
vn 0.0007 -1.0000 0.0006
vn -0.0000 -1.0000 0.0003
vn 0.0002 -1.0000 0.0005
vn 0.0002 -1.0000 0.0007
vn 1.0000 -0.0000 -0.0000
vn -0.0000 1.0000 -0.0002
vn -1.0000 -0.0000 -0.0000
vn -0.0000 -0.0000 1.0000
vn -0.0000 -0.0000 -1.0000
vn -0.0000 -0.0004 -1.0000
vn -0.0000 0.0001 -1.0000
vn -0.0000 -0.0005 -1.0000
vn -0.0000 -0.0003 -1.0000
vn -0.0000 0.0003 1.0000
vn -0.0000 0.0004 1.0000
vn -0.0000 0.0005 1.0000
vn -0.0000 -1.0000 0.0002
vn -0.0000 -1.0000 -0.0002
vn -0.0000 -1.0000 -0.0005
vn -0.0001 -1.0000 0.0009
vn -1.0000 -0.0003 -0.0000
vn -1.0000 -0.0005 -0.0000
vn -0.0000 1.0000 -0.0003
vt 0.000000 0.000000
s 1
usemtl M_CoffeeTableDrawer_315_3_0
f 1/1/1 3/1/2 2/1/3
f 1/1/1 4/1/4 3/1/2
f 4/1/4 5/1/5 3/1/2
f 4/1/4 6/1/6 5/1/5
f 6/1/6 7/1/7 5/1/5
f 6/1/6 8/1/8 7/1/7
f 8/1/8 2/1/3 7/1/7
f 8/1/8 1/1/1 2/1/3
f 6/1/9 10/1/9 9/1/9
f 6/1/9 4/1/9 10/1/9
f 9/1/10 12/1/10 11/1/10
f 9/1/10 10/1/10 12/1/10
f 11/1/11 1/1/11 8/1/11
f 11/1/11 12/1/11 1/1/11
f 6/1/12 11/1/12 8/1/12
f 6/1/12 9/1/12 11/1/12
f 10/1/13 1/1/13 12/1/13
f 10/1/13 4/1/13 1/1/13
f 3/1/9 14/1/9 13/1/9
f 3/1/9 5/1/9 14/1/9
f 15/1/14 17/1/15 16/1/16
f 15/1/14 13/1/14 17/1/15
f 2/1/17 13/1/14 15/1/14
f 2/1/17 3/1/17 13/1/14
f 17/1/15 13/1/14 18/1/16
f 17/1/15 18/1/16 19/1/16
f 20/1/16 19/1/16 18/1/16
f 20/1/16 21/1/16 19/1/16
f 22/1/17 20/1/17 18/1/17
f 22/1/17 18/1/17 23/1/17
f 7/1/11 15/1/11 24/1/11
f 7/1/11 2/1/11 15/1/11
f 24/1/11 15/1/11 16/1/11
f 24/1/11 16/1/11 25/1/11
f 5/1/18 24/1/19 14/1/19
f 5/1/18 7/1/18 24/1/19
f 14/1/19 24/1/19 25/1/20
f 14/1/19 25/1/20 26/1/20
f 14/1/19 26/1/20 27/1/20
f 14/1/19 27/1/20 28/1/20
f 28/1/19 27/1/20 29/1/20
f 28/1/19 29/1/20 30/1/19
f 31/1/18 28/1/19 30/1/19
f 31/1/18 30/1/19 32/1/18
f 25/1/21 17/1/22 26/1/21
f 25/1/21 16/1/21 17/1/22
f 26/1/21 17/1/22 19/1/22
f 26/1/21 19/1/22 27/1/21
f 29/1/21 27/1/21 19/1/21
f 29/1/23 19/1/23 21/1/23
f 18/1/9 27/1/9 19/1/9
f 18/1/9 28/1/9 27/1/9
f 13/1/10 28/1/10 18/1/10
f 13/1/10 14/1/10 28/1/10
f 33/1/6 23/1/22 34/1/6
f 33/1/6 22/1/6 23/1/22
f 34/1/6 23/1/22 31/1/6
f 34/1/6 31/1/6 35/1/6
f 35/1/6 31/1/6 32/1/24
f 35/1/6 32/1/24 36/1/6
f 36/1/6 22/1/6 33/1/6
f 36/1/6 32/1/24 22/1/6
f 35/1/25 37/1/25 34/1/26
f 35/1/25 38/1/11 37/1/25
f 38/1/27 39/1/27 37/1/27
f 38/1/27 40/1/27 39/1/27
f 40/1/9 33/1/9 39/1/9
f 40/1/9 36/1/9 33/1/9
f 35/1/12 40/1/12 38/1/12
f 35/1/12 36/1/12 40/1/12
f 37/1/13 33/1/13 34/1/13
f 37/1/13 39/1/13 33/1/13
f 23/1/11 28/1/11 31/1/11
f 23/1/11 18/1/11 28/1/11
f 32/1/9 20/1/9 22/1/9
f 32/1/9 30/1/9 20/1/9
f 30/1/9 21/1/9 20/1/9
f 30/1/9 29/1/9 21/1/9
