# Blender 4.1.0
# www.blender.org
mtllib ToasterLever_14_ToasterLever_14_1_GeomSubset_5.mtl
o ToasterLever_14_ToasterLever_14_1_GeomSubset_5
v 0.002036 -0.216880 0.052277
v 0.002036 -0.212808 0.052277
v -0.002036 -0.216880 0.052277
v -0.002036 -0.212808 0.052277
v 0.002036 -0.216880 0.052277
v 0.002036 -0.212808 0.052277
v -0.002036 -0.216880 0.052277
v -0.002036 -0.212808 0.052277
v 0.002036 -0.216880 0.052277
v 0.002036 -0.212808 0.052277
v -0.002036 -0.216880 0.052277
v -0.002036 -0.212808 0.052277
v 0.002036 -0.216880 0.052277
v 0.002036 -0.212808 0.052277
v -0.002036 -0.216880 0.052277
v -0.002036 -0.212808 0.052277
v 0.002036 -0.216880 0.052277
v 0.002036 -0.212808 0.052277
v -0.002036 -0.216880 0.052277
v -0.002036 -0.212808 0.052277
v 0.002036 -0.216880 0.052276
v 0.002036 -0.212808 0.052276
v -0.002036 -0.216880 0.052276
v -0.002036 -0.212808 0.052276
v 0.010317 -0.227373 0.048806
v 0.010317 -0.225224 0.047858
v 0.012466 -0.225224 0.048806
v 0.013357 -0.225224 0.050670
v 0.012466 -0.227373 0.050670
v 0.010317 -0.228263 0.050670
v 0.010317 -0.202440 0.048806
v 0.010317 -0.201550 0.050670
v 0.012466 -0.202440 0.050670
v 0.013357 -0.204590 0.050670
v 0.012466 -0.204590 0.048806
v 0.010317 -0.204590 0.047858
v -0.012466 -0.227373 0.050670
v -0.010317 -0.228263 0.050670
v -0.013357 -0.225224 0.050670
v -0.012466 -0.202440 0.050670
v -0.013357 -0.204590 0.050670
v -0.010317 -0.201550 0.050670
v -0.010317 -0.227373 0.048806
v -0.012466 -0.225224 0.048806
v -0.010317 -0.225224 0.047858
v -0.010317 -0.202440 0.048806
v -0.010317 -0.204590 0.047858
v -0.012466 -0.204590 0.048806
v 0.012071 -0.226978 0.049226
v 0.012071 -0.202835 0.049226
v -0.012071 -0.226978 0.049226
v -0.012071 -0.202835 0.049226
v 0.003163 -0.202780 0.050343
v 0.003163 -0.187135 0.050343
v 0.003163 -0.202780 0.054257
v 0.003163 -0.187135 0.054257
v -0.003163 -0.202780 0.054257
v -0.003163 -0.187135 0.054257
v -0.003163 -0.202780 0.050343
v -0.003163 -0.187135 0.050343
v 0.010317 -0.228263 0.054299
v 0.010317 -0.227373 0.056164
v -0.010317 -0.227373 0.056164
v -0.010317 -0.228263 0.054299
v 0.010317 -0.225224 0.057112
v -0.010317 -0.225224 0.057112
v 0.012466 -0.225224 0.056164
v 0.012466 -0.204590 0.056164
v 0.010317 -0.204590 0.057112
v 0.013357 -0.225224 0.054299
v 0.013357 -0.204590 0.054299
v 0.010317 -0.202440 0.056164
v -0.010317 -0.202440 0.056164
v -0.010317 -0.204590 0.057112
v 0.010317 -0.201550 0.054299
v -0.010317 -0.201550 0.054299
v -0.013357 -0.225224 0.054299
v -0.012466 -0.225224 0.056164
v -0.012466 -0.204590 0.056164
v -0.013357 -0.204590 0.054299
v 0.012071 -0.226978 0.055743
v 0.012466 -0.227373 0.054299
v 0.012466 -0.202440 0.054299
v 0.012071 -0.202835 0.055743
v -0.012466 -0.227373 0.054299
v -0.012071 -0.226978 0.055743
v -0.012466 -0.202440 0.054299
v -0.012071 -0.202835 0.055743
v 0.000000 -0.227373 0.056164
v 0.000000 -0.228263 0.054299
v 0.000000 -0.228263 0.050670
v 0.000000 -0.227373 0.048806
v 0.000000 -0.225224 0.047858
v 0.000000 -0.204590 0.047858
v 0.000000 -0.202440 0.048806
v 0.000000 -0.201550 0.050670
v 0.000000 -0.201550 0.054299
v 0.000000 -0.202440 0.056164
v 0.000000 -0.204590 0.057112
v 0.000000 -0.225224 0.057112
vn -0.8471 -0.0000 0.5314
vn -0.0000 -0.8471 0.5314
vn 0.8471 -0.0000 0.5314
vn -0.0000 0.8471 0.5314
vt -88.303970 -18.597717
vt -87.512978 -18.597717
vt -87.512978 -17.806725
vt -88.303970 -17.806725
s 1
usemtl M_ToasterLever_14_5
f 21/1/1 22/2/2 24/3/3 23/4/4
