# Blender 4.1.0
# www.blender.org
mtllib MeshPsRobothorDeskNorrasen_1.mtl
o PsRobothorDeskNorrasen
v 0.271093 0.121056 0.291344
v 0.276818 0.121061 0.127469
v -0.316797 0.121037 0.291458
v -0.322535 0.121043 0.127475
v 0.291919 -0.099427 0.291347
v 0.291924 -0.102253 0.127504
v 0.291919 0.099427 0.291347
v 0.291924 0.102261 0.127503
v -0.336924 0.102243 0.127487
v -0.336924 -0.102253 0.127493
v -0.336919 0.099400 0.291462
v -0.336920 -0.099426 0.291346
v 0.270693 -0.120616 0.291641
v 0.270563 -0.102297 0.291392
v 0.276294 -0.105154 0.127653
v 0.276452 -0.121617 0.127394
v 0.279304 -0.102153 0.127658
v 0.273540 -0.099313 0.291396
v 0.277249 -0.103101 0.127705
v 0.271508 -0.100262 0.291344
v -0.325341 0.102153 0.127655
v -0.319578 0.099311 0.291396
v -0.316601 0.102296 0.291391
v -0.322332 0.105156 0.127651
v -0.323287 0.103101 0.127702
v -0.317545 0.100262 0.291344
v 0.273540 0.099312 0.291396
v 0.271508 0.100262 0.291344
v 0.277250 0.103101 0.127695
v 0.279304 0.102153 0.127648
v 0.270570 0.102318 0.291383
v 0.276301 0.105180 0.127653
v -0.319578 -0.099313 0.291395
v -0.317545 -0.100262 0.291344
v -0.323286 -0.103101 0.127716
v -0.325341 -0.102153 0.127669
v -0.316600 -0.102297 0.291392
v -0.322331 -0.105154 0.127664
v -0.316731 -0.121617 0.291641
v -0.322489 -0.121865 0.127405
vn -0.0000 -1.0000 -0.0000
vn -1.0000 -0.0000 -0.0000
vn 1.0000 -0.0000 -0.0000
vn -0.9994 -0.0083 -0.0349
vn -0.9985 0.0409 -0.0357
vn -0.9986 0.0397 -0.0357
vn -0.0493 0.9986 -0.0191
vn -0.0453 0.9988 -0.0190
vn -0.7046 0.7086 -0.0370
vn -0.7081 0.7051 -0.0371
vn -0.0061 -0.9998 -0.0172
vn 0.0490 -0.9986 -0.0191
vn 0.0531 -0.9984 -0.0193
vn 0.9993 0.0114 -0.0349
vn 0.9986 -0.0386 -0.0357
vn 0.9987 -0.0373 -0.0357
vn 0.7049 -0.7083 -0.0370
vn 0.7084 -0.7048 -0.0371
vn -0.0491 -0.9986 -0.0191
vn -0.7115 -0.7017 -0.0371
vn -0.7080 -0.7053 -0.0371
vn -0.0450 -0.9988 -0.0190
vn -0.9991 -0.0222 -0.0356
vn -0.9992 -0.0206 -0.0355
vn 0.0524 0.9984 -0.0192
vn 0.7081 0.7051 -0.0371
vn 0.7046 0.7087 -0.0370
vn 0.0480 0.9987 -0.0191
vn 0.9985 0.0396 -0.0366
vn 0.9986 0.0385 -0.0357
vn 0.9994 -0.0080 -0.0349
vn 0.0068 0.9998 -0.0172
vn -0.0072 0.9998 -0.0172
vn -0.0000 -0.0132 -0.9999
vn -0.0000 -0.0011 -1.0000
vn -0.0001 -0.0012 -1.0000
vn 0.0071 -0.9998 -0.0172
vn -0.9990 0.0298 -0.0347
vn -0.0000 -0.0156 0.9999
vn -0.0000 -0.0011 1.0000
vn -0.0153 -0.0000 0.9999
vn -0.0154 -0.0000 0.9999
vn -0.0000 0.0008 1.0000
vn 0.0138 -0.0000 0.9999
vn 0.0177 0.0001 0.9998
vn -0.0164 0.0001 0.9999
vn -0.0163 0.0001 0.9999
vn -0.0149 -0.0000 0.9999
vn -0.0000 0.0114 0.9999
vn 0.0119 -0.0000 0.9999
vn -0.0005 0.0003 -1.0000
vn -0.0037 0.0003 -1.0000
vn 0.0149 -0.0000 -0.9999
vn 0.0148 -0.0000 -0.9999
vn -0.0000 -0.0000 -1.0000
vn -0.0127 -0.0000 -0.9999
vn -0.0126 -0.0000 -0.9999
vn 0.0008 -0.0000 -1.0000
vn -0.0027 -0.0000 -1.0000
vn -0.0001 0.0007 -1.0000
vt -19.705763 0.716828
vt -20.057327 0.704551
vt -19.862646 -0.332669
vt -19.683334 -0.134273
vt -19.487642 0.393951
vt -19.763699 0.389207
vt -19.763700 -0.001417
vt -19.487644 -0.006178
vt -19.136013 -0.142228
vt -19.136011 0.260500
vt -19.515446 0.018534
vt -19.487576 -0.136185
vt -19.493258 -0.217549
vt -19.437641 -0.217549
vt -19.443541 0.123313
vt -19.491720 0.123314
vt -19.401106 1.204890
vt -19.412981 0.864109
vt -19.409542 0.864111
vt -19.397667 1.204892
vt -19.434204 -0.217549
vt -19.440105 0.123314
vt -19.543320 0.191598
vt -19.617525 0.191598
vt -19.631779 -0.217371
vt -19.579855 -0.217546
vt -19.586937 0.191524
vt -19.620964 0.191597
vt -19.635216 -0.217372
vt -19.576418 -0.217546
vt -19.583500 0.191524
vt -19.258890 -0.217372
vt -19.255453 -0.217374
vt -19.268867 0.167540
vt -19.272305 0.167541
vt -19.386972 -0.217549
vt -19.383535 -0.217549
vt -19.376869 0.167461
vt -19.380306 0.167460
vt -19.773993 1.204891
vt -19.777430 1.204890
vt -19.763763 0.812724
vt -19.760326 0.812724
vt -19.813618 -0.217549
vt -19.810181 -0.217549
vt -19.803391 0.174712
vt -19.806828 0.174712
vt -19.769165 -0.217549
vt -19.768688 0.174712
s 1
usemtl M_PsRobothorDeskNorrasen_0
f 2/1/1 1/2/1 3/3/1 4/4/1
f 6/5/2 5/6/2 7/7/2 8/8/2
f 10/9/3 9/10/3 11/11/3 12/12/3
f 13/13/4 14/14/5 15/15/6 16/16/4
f 18/17/7 17/18/8 19/19/9 20/20/10
f 20/21/10 19/22/9 15/15/6 14/14/5
f 9/23/11 21/24/12 22/25/13 11/11/11
f 3/3/14 23/26/15 24/27/16 4/4/14
f 22/25/13 21/24/12 25/28/17 26/29/18
f 26/30/18 25/31/17 24/27/16 23/26/15
f 27/32/19 28/33/20 29/34/21 30/35/22
f 28/36/20 31/37/23 32/38/24 29/39/21
f 33/40/25 34/41/26 35/42/27 36/43/28
f 34/44/26 37/45/29 38/46/30 35/47/27
f 39/48/31 40/49/31 38/46/30 37/45/29
f 5/6/32 6/5/32 17/18/8 18/17/7
f 10/9/33 12/12/33 33/40/25 36/43/28
f 39/48/34 37/45/35 14/14/36 13/13/34
f 27/32/19 30/35/22 8/8/37 7/7/37
f 1/2/38 2/1/38 32/38/24 31/37/23
f 16/16/39 15/15/40 38/46/40 40/49/39
f 15/15/40 19/22/41 29/39/42 32/38/43
f 19/19/41 17/18/44 30/35/44 29/34/42
f 24/27/43 25/31/45 35/47/45 38/46/40
f 25/28/45 21/24/46 36/43/47 35/42/45
f 10/9/48 36/43/47 21/24/46 9/10/48
f 4/4/49 24/27/43 32/38/43 2/1/49
f 24/27/43 38/46/40 15/15/40 32/38/43
f 6/5/50 8/8/50 30/35/44 17/18/44
f 11/11/51 22/25/52 33/40/52 12/12/51
f 22/25/52 26/29/53 34/41/54 33/40/52
f 26/30/53 23/26/55 37/45/35 34/44/54
f 31/37/55 28/36/56 20/21/57 14/14/36
f 28/33/56 27/32/58 18/17/58 20/20/57
f 27/32/58 7/7/59 5/6/59 18/17/58
f 37/45/35 23/26/55 31/37/55 14/14/36
f 23/26/55 3/3/60 1/2/60 31/37/55
