# Blender 4.1.1
# www.blender.org
mtllib MeshBox_29_FlapInner_1_3.mtl
o Box_29_FlapInner_1
v 0.095003 -0.189405 0.116815
v -0.094975 -0.189405 0.116815
v 0.095003 -0.188247 0.118949
v -0.094975 -0.188247 0.118949
v 0.095003 -0.146237 0.095470
v 0.095003 -0.146480 0.096293
v -0.094975 -0.146237 0.095470
v -0.094975 -0.146480 0.096293
v 0.095003 -0.146815 0.094402
v 0.095003 -0.147639 0.094158
v -0.094975 -0.146815 0.094402
v -0.094975 -0.147639 0.094158
vn -0.0000 0.8790 -0.4768
vn -0.0000 -0.9986 0.0536
vn -0.0000 -0.9174 -0.3980
vn -0.0001 -0.9174 -0.3980
vn -1.0000 0.0001 -0.0001
vn -1.0000 -0.0001 -0.0000
vn 1.0000 0.0001 -0.0000
vn 1.0000 0.0001 -0.0001
vn 1.0000 0.0004 -0.0002
vn -0.0000 -0.1663 0.9861
vn -0.0000 -0.5896 0.8077
vn -0.0000 0.4768 0.8790
vn -0.0000 -0.4768 -0.8790
vn 1.0000 -0.0000 -0.0000
vn -1.0000 -0.0000 -0.0000
vt -0.588591 -0.558704
vt -0.588591 0.037333
vt -0.594048 0.037333
vt -0.594048 -0.558704
vt 0.321788 -0.556807
vt 0.323151 -0.558706
vt 0.323151 0.037334
vt 0.321788 0.035436
vt 0.319059 -0.556807
vt 0.317695 -0.558706
vt 0.317695 0.037334
vt 0.319059 0.035436
vt 0.217775 -0.558707
vt 0.217775 0.037335
vt -0.043545 0.037335
vt -0.043545 -0.558707
vt -0.227224 -0.558707
vt -0.227224 0.037335
vt -0.488544 0.037335
vt -0.488544 -0.558707
vt -0.605334 -0.112799
vt -0.605334 0.148521
vt -0.610790 0.148522
vt -0.610790 -0.112798
vt -0.618449 -0.562205
vt -0.618449 -0.300885
vt -0.623906 -0.300885
vt -0.623906 -0.562206
s 1
usemtl M_Box_29_FlapInner_1_0
f 1/1/1 2/2/1 4/3/1 3/4/1
f 5/5/2 6/6/3 8/7/4 7/8/2
f 6/6/5 5/5/6 9/9/5 10/10/5
f 7/8/7 8/7/8 12/11/8 11/12/9
f 10/10/10 9/9/11 11/12/11 12/11/10
f 5/5/2 7/8/2 11/12/11 9/9/11
f 10/13/10 12/14/10 2/15/12 1/16/12
f 3/17/13 4/18/13 8/19/4 6/20/3
f 8/21/8 4/22/14 2/23/14 12/24/8
f 3/25/15 6/26/5 10/27/5 1/28/15
