# Blender 4.1.0
# www.blender.org
mtllib MeshBox_29_FlapOuter_2_2.mtl
o Box_29_FlapOuter_2
v 0.186935 -0.146782 0.140925
v 0.186935 0.144965 0.140925
v 0.185817 -0.146782 0.143081
v 0.185817 0.144965 0.143081
v 0.097784 -0.146782 0.096737
v 0.097891 -0.146782 0.097477
v 0.097784 0.144965 0.096737
v 0.097891 0.144965 0.097477
v 0.098343 -0.146782 0.095659
v 0.099010 -0.146782 0.095321
v 0.098343 0.144965 0.095659
v 0.099010 0.144965 0.095321
vn 0.8877 -0.0000 0.4604
vn -0.9705 -0.0000 -0.2409
vn -0.4659 -0.0000 0.8848
vn -0.4659 0.0001 0.8848
vn -0.9705 -0.0000 -0.2410
vn -0.0000 -1.0000 -0.0000
vn 0.0007 1.0000 0.0004
vn 0.0001 1.0000 -0.0000
vn 0.4550 0.0002 -0.8905
vn -0.7560 -0.0000 -0.6546
vn 0.4550 -0.0000 -0.8905
vn 0.4604 -0.0000 -0.8877
vn -0.4604 -0.0000 0.8877
vn -0.0000 1.0000 -0.0000
vt 0.007082 0.033919
vt 0.007082 0.966081
vt 0.001625 0.966081
vt 0.001625 0.033919
vt 0.015418 1.010670
vt 0.013919 1.012197
vt 0.013919 -0.012197
vt 0.015418 -0.010670
vt 0.018417 1.010670
vt 0.019916 1.012197
vt 0.019916 -0.012197
vt 0.018417 -0.010670
vt 0.346770 0.033918
vt 0.346770 0.966082
vt 0.036999 0.966082
vt 0.036999 0.033918
vt 0.374992 0.966082
vt 0.374992 0.033918
vt 0.684763 0.033918
vt 0.684763 0.966082
vt 0.720407 0.012601
vt 0.720407 0.322373
vt 0.714950 0.322373
vt 0.714950 0.012601
vt 0.702563 0.322372
vt 0.702563 0.012602
vt 0.708020 0.012602
vt 0.708020 0.322372
s 1
usemtl M_Box_29_FlapOuter_2_0
f 1/1/1 2/2/1 4/3/1 3/4/1
f 5/5/2 6/6/3 8/7/4 7/8/5
f 6/6/6 5/5/6 9/9/6 10/10/6
f 7/8/7 8/7/8 12/11/8 11/12/7
f 10/10/9 9/9/10 11/12/10 12/11/11
f 5/5/2 7/8/5 11/12/10 9/9/10
f 10/13/9 12/14/11 2/15/12 1/16/12
f 3/17/13 4/18/13 8/19/4 6/20/3
f 8/21/8 4/22/14 2/23/14 12/24/8
f 3/25/6 6/26/6 10/27/6 1/28/6
