# Blender 4.1.0
# www.blender.org
mtllib MeshDeskDrawer_313_5_6.mtl
o DeskDrawer_313_5
v 0.351288 -0.326082 -0.147135
v 0.349807 -0.326081 -0.148115
v 0.348326 -0.326082 -0.147135
v 0.351901 -0.326082 -0.144767
v 0.347712 -0.326082 -0.144767
v 0.351288 -0.326082 -0.142400
v 0.348326 -0.326082 -0.142400
v 0.349807 -0.326081 -0.141420
v 0.348326 -0.299722 -0.147135
v 0.347712 -0.299722 -0.144767
v 0.348326 -0.299722 -0.142400
v 0.349807 -0.299722 -0.141420
v 0.351288 -0.299722 -0.142400
v 0.351901 -0.299722 -0.144767
v 0.351288 -0.299722 -0.147135
v 0.349807 -0.299722 -0.148115
v 0.409786 -0.326082 -0.147134
v 0.408305 -0.326081 -0.148115
v 0.406824 -0.326082 -0.147134
v 0.410399 -0.326081 -0.144767
v 0.406211 -0.326081 -0.144767
v 0.409786 -0.326081 -0.142400
v 0.406824 -0.326081 -0.142400
v 0.408305 -0.326081 -0.141420
v 0.406824 -0.299722 -0.147134
v 0.406211 -0.299722 -0.144767
v 0.406824 -0.299722 -0.142400
v 0.408305 -0.299722 -0.141420
v 0.409786 -0.299722 -0.142400
v 0.410399 -0.299722 -0.144767
v 0.409786 -0.299722 -0.147134
v 0.408305 -0.299722 -0.148115
v 0.438158 -0.318847 -0.144767
v 0.439424 -0.318847 -0.144767
v 0.439424 -0.319786 -0.141486
v 0.438158 -0.319786 -0.141486
v 0.438158 -0.319786 -0.148049
v 0.439424 -0.319786 -0.148049
v 0.408993 -0.324291 -0.148049
v 0.408993 -0.323354 -0.144767
v 0.350150 -0.324291 -0.148049
v 0.350150 -0.323354 -0.144767
v 0.408993 -0.324291 -0.141486
v 0.350150 -0.324291 -0.141485
v 0.321009 -0.318848 -0.144767
v 0.321009 -0.319786 -0.141485
v 0.321009 -0.319786 -0.148049
v 0.319043 -0.319786 -0.148049
v 0.319043 -0.318848 -0.144767
v 0.319043 -0.319786 -0.141485
v 0.439424 -0.322051 -0.140126
v 0.438158 -0.322051 -0.140126
v 0.439424 -0.324316 -0.141486
v 0.438158 -0.324316 -0.141486
v 0.408993 -0.326557 -0.140126
v 0.408993 -0.328821 -0.141486
v 0.350151 -0.326557 -0.140126
v 0.350151 -0.328821 -0.141485
v 0.321009 -0.322051 -0.140126
v 0.321009 -0.324316 -0.141485
v 0.319043 -0.322051 -0.140126
v 0.319043 -0.324316 -0.141485
v 0.439424 -0.325254 -0.144767
v 0.438158 -0.325254 -0.144767
v 0.439424 -0.324316 -0.148049
v 0.438158 -0.324316 -0.148049
v 0.408993 -0.329759 -0.144767
v 0.408993 -0.328821 -0.148049
v 0.350151 -0.329759 -0.144767
v 0.350150 -0.328821 -0.148049
v 0.321009 -0.325254 -0.144767
v 0.321009 -0.324316 -0.148049
v 0.319043 -0.325254 -0.144767
v 0.319043 -0.324316 -0.148049
v 0.439424 -0.322051 -0.149408
v 0.438158 -0.322051 -0.149408
v 0.408993 -0.326557 -0.149408
v 0.350150 -0.326557 -0.149408
v 0.321009 -0.322051 -0.149408
v 0.319043 -0.322051 -0.149408
v 0.576676 -0.304231 -0.304471
v 0.576676 -0.308725 -0.304471
v 0.576676 -0.308725 -0.124126
v 0.576676 -0.304231 -0.124125
v 0.572567 -0.313644 -0.304471
v 0.157637 -0.313646 -0.304471
v 0.157637 -0.313645 -0.124126
v 0.572567 -0.313644 -0.124126
v 0.153528 -0.304232 -0.124125
v 0.153528 -0.308726 -0.124126
v 0.153528 -0.308726 -0.304471
v 0.153528 -0.304232 -0.304471
v 0.572567 -0.304231 -0.119598
v 0.572567 -0.308725 -0.119598
v 0.157637 -0.308726 -0.119598
v 0.157637 -0.304232 -0.119598
v 0.157637 -0.304232 -0.308999
v 0.157637 -0.308726 -0.308999
v 0.572567 -0.308725 -0.308999
v 0.572567 -0.304231 -0.308999
v 0.572567 -0.299311 -0.304471
v 0.157637 -0.299311 -0.304471
v 0.157637 -0.299311 -0.124126
v 0.572567 -0.299311 -0.124126
v 0.165992 -0.299311 -0.295267
v 0.564213 -0.299311 -0.295267
v 0.165992 -0.299311 -0.133329
v 0.564213 -0.299311 -0.133329
v 0.564212 0.078580 -0.295267
v 0.564212 0.078580 -0.133329
v 0.165990 0.078579 -0.133329
v 0.165990 0.078579 -0.295267
v 0.173066 -0.290843 -0.133329
v 0.173066 -0.290843 -0.286734
v 0.557137 -0.290842 -0.286734
v 0.557137 -0.290842 -0.133329
v 0.173065 0.070110 -0.133329
v 0.557136 0.070110 -0.133329
v 0.173065 0.070110 -0.286734
v 0.557136 0.070110 -0.286734
vn 0.5800 -0.6837 -0.4429
vn -0.5800 -0.6837 -0.4430
vn -0.0000 -0.5513 -0.8343
vn -0.5801 -0.6840 -0.4423
vn 0.5800 -0.6840 -0.4424
vn 0.6745 -0.7383 -0.0000
vn -0.5800 -0.6840 -0.4424
vn -0.6745 -0.7383 -0.0000
vn 0.6745 -0.7383 -0.0001
vn 0.5801 -0.6840 0.4422
vn 0.5801 -0.6841 0.4423
vn -0.5801 -0.6840 0.4423
vn -0.5800 -0.6837 0.4429
vn 0.5800 -0.6837 0.4429
vn -0.0000 -0.5512 0.8344
vn -0.5800 -0.6841 -0.4423
vn -1.0000 -0.0000 -0.0000
vn -0.7952 -0.0000 -0.6064
vn -0.6744 -0.7383 -0.0000
vn -0.6744 -0.7383 -0.0001
vn -0.7952 -0.0000 0.6063
vn -0.5800 -0.6841 0.4423
vn -0.5800 -0.6841 0.4422
vn -0.0000 -0.0002 1.0000
vn -0.7952 -0.0000 0.6064
vn -0.0000 -0.5524 0.8336
vn -0.0000 -0.0001 1.0000
vn 0.7952 -0.0000 0.6064
vn -0.0000 -0.0000 1.0000
vn 0.5800 -0.6841 0.4423
vn 0.5800 -0.6841 0.4422
vn 1.0000 -0.0000 -0.0000
vn 0.7952 -0.0000 0.6063
vn 0.6744 -0.7383 -0.0000
vn 0.7952 -0.0000 -0.6064
vn 0.5800 -0.6841 -0.4423
vn 0.7952 0.0001 -0.6064
vn 0.0001 -0.5523 -0.8336
vn -0.7951 -0.0000 -0.6065
vn -0.0000 -0.0000 -1.0000
vn -0.0000 -0.5524 -0.8336
vn -0.7951 -0.0000 -0.6064
vn -0.0000 -0.0001 -1.0000
vn 0.7951 -0.0000 -0.6064
vn -0.5800 -0.6837 -0.4429
vn -0.0000 -0.5512 -0.8344
vn -0.5801 -0.6837 -0.4427
vn 0.5801 -0.6837 -0.4427
vn 0.6744 -0.7384 -0.0004
vn -0.5800 -0.6843 -0.4419
vn 0.6746 -0.7382 0.0003
vn -0.6746 -0.7382 0.0003
vn 0.5801 -0.6841 0.4422
vn -0.6742 -0.7385 0.0008
vn 0.5801 -0.6834 0.4431
vn -0.5801 -0.6834 0.4433
vn -0.5800 -0.6840 0.4423
vn 0.5800 -0.6840 0.4424
vn -0.7952 -0.0000 -0.6063
vn -0.6744 -0.7383 0.0001
vn -0.7951 -0.0000 0.6064
vn -0.5800 -0.6841 0.4424
vn -0.7951 -0.0000 0.6065
vn -0.0001 -0.5523 0.8336
vn 0.7951 -0.0000 0.6065
vn 0.7951 -0.0000 0.6064
vn 0.7952 -0.0000 -0.6063
vn 0.6744 -0.7384 -0.0000
vn -0.5800 -0.6842 -0.4423
vn -0.0001 -0.5524 -0.8336
vn -0.0752 0.9972 -0.0000
vn 0.5453 0.6596 0.5173
vn 0.5769 0.8168 -0.0000
vn -0.0752 0.9972 -0.0002
vn -0.0603 0.7930 0.6063
vn 0.5453 0.6598 0.5170
vn -0.0603 0.7928 -0.6064
vn -0.0604 0.7928 -0.6064
vn 0.5769 0.8168 0.0001
vn 0.5453 0.6597 -0.5172
vn -0.0602 0.7772 -0.6263
vn -0.0752 0.9972 0.0002
vn -0.0604 0.7929 -0.6063
vn -0.0601 0.7768 -0.6269
vn -0.0775 0.9970 -0.0005
vn -0.0752 0.9972 -0.0005
vn -0.0775 0.9970 -0.0001
vn -0.0604 0.7929 0.6063
vn 0.0602 0.7768 -0.6269
vn 0.0602 0.7772 -0.6264
vn 0.0776 0.9970 0.0001
vn -0.0775 0.9970 0.0001
vn 0.0776 0.9970 -0.0001
vn -0.0601 0.7772 0.6264
vn -0.0775 0.9970 0.0005
vn -0.0601 0.7768 0.6269
vn -0.0603 0.7925 0.6068
vn 0.0775 0.9970 0.0005
vn 0.0602 0.7768 0.6269
vn 0.0753 0.9972 -0.0004
vn 0.0603 0.7773 0.6262
vn 0.0776 0.9970 -0.0004
vn 0.0753 0.9972 0.0002
vn 0.0603 0.7926 0.6067
vn 0.0602 0.7769 0.6267
vn 0.0603 0.7927 -0.6067
vn 0.0776 0.9970 -0.0002
vn 0.0602 0.7770 -0.6267
vn 0.0604 0.7930 -0.6062
vn 0.0752 0.9972 0.0004
vn 0.0776 0.9970 0.0004
vn -0.5454 0.6592 -0.5176
vn 0.0752 0.9972 -0.0007
vn 0.0604 0.7924 -0.6070
vn -0.5451 0.6601 -0.5168
vn -0.5770 0.8167 0.0006
vn 0.0753 0.9972 0.0006
vn -0.5770 0.8167 -0.0006
vn 0.0603 0.7933 0.6059
vn 0.0753 0.9972 -0.0006
vn -0.5768 0.8169 0.0003
vn -0.5454 0.6593 0.5176
vn 0.0604 0.7925 0.6069
vn -0.0603 0.7926 0.6067
vn 0.4934 -0.0002 0.8698
vn -0.0603 0.7931 0.6061
vn -0.0046 0.0303 0.9995
vn 0.4934 0.0004 0.8698
vn -0.0046 0.0292 0.9996
vn 0.5455 -0.6599 0.5168
vn 0.4933 -0.0004 0.8699
vn -0.0046 0.0299 0.9995
vn 0.0601 -0.7770 0.6267
vn 0.5453 -0.6596 0.5173
vn 0.0046 -0.0296 0.9996
vn 0.0602 -0.7769 0.6267
vn 0.0046 -0.0299 0.9995
vn 0.0604 -0.7928 0.6065
vn 0.0602 -0.7771 0.6265
vn -0.0046 -0.0296 0.9996
vn 0.0603 -0.7926 0.6067
vn 0.0046 -0.0295 0.9996
vn -0.0046 -0.0300 0.9995
vn -0.0604 -0.7929 0.6064
vn 0.0603 -0.7928 0.6064
vn 0.0602 0.7772 0.6264
vn -0.0602 0.7770 0.6266
vn -0.0046 0.0296 0.9996
vn -0.0601 0.7771 0.6265
vn 0.0604 0.7927 0.6066
vn -0.0046 -0.0299 0.9995
vn 0.0602 0.7770 0.6267
vn 0.0604 0.7926 0.6067
vn 0.0046 0.0296 0.9996
vn 0.0045 0.0293 0.9996
vn -0.0604 -0.7930 0.6062
vn -0.0046 -0.0303 0.9995
vn 0.0046 0.0300 0.9995
vn -0.0602 -0.7769 0.6267
vn -0.0603 -0.7926 0.6067
vn -0.4934 -0.0002 0.8698
vn -0.0602 -0.7772 0.6264
vn 0.0046 0.0295 0.9996
vn -0.4935 0.0006 0.8697
vn -0.5453 -0.6594 0.5176
vn -0.0602 -0.7767 0.6269
vn -0.5453 0.6596 0.5173
vn 0.0604 0.7927 0.6067
vn 0.0046 0.0297 0.9995
vn 0.0601 -0.7770 0.6266
vn 0.5768 -0.8169 -0.0000
vn 0.5453 -0.6595 0.5174
vn 0.0601 -0.7772 0.6264
vn 0.0775 -0.9970 -0.0001
vn 0.5769 -0.8168 -0.0001
vn 0.0775 -0.9970 -0.0002
vn 0.5453 -0.6596 -0.5173
vn 0.0601 -0.7770 -0.6266
vn 0.5454 -0.6596 -0.5172
vn 0.0752 -0.9972 0.0004
vn 0.0602 -0.7774 -0.6261
vn 0.0775 -0.9970 0.0005
vn 0.0752 -0.9972 -0.0002
vn 0.0604 -0.7927 -0.6066
vn -0.0753 -0.9972 -0.0002
vn 0.0603 -0.7927 -0.6066
vn -0.0752 -0.9972 -0.0002
vn -0.0603 -0.7927 -0.6066
vn -0.0603 -0.7927 0.6067
vn -0.0752 -0.9972 0.0002
vn 0.0752 -0.9972 0.0002
vn -0.0604 -0.7927 0.6066
vn 0.0603 -0.7927 0.6066
vn 0.0775 -0.9970 0.0002
vn 0.0604 -0.7931 0.6061
vn 0.0752 -0.9972 -0.0004
vn 0.0776 -0.9970 -0.0004
vn -0.0603 -0.7771 0.6264
vn -0.0753 -0.9972 -0.0001
vn -0.0601 -0.7767 0.6270
vn -0.0776 -0.9970 0.0006
vn -0.0753 -0.9972 0.0005
vn -0.0776 -0.9970 -0.0003
vn -0.0604 -0.7926 -0.6067
vn -0.0753 -0.9972 -0.0003
vn -0.0776 -0.9970 0.0001
vn -0.0602 -0.7772 -0.6264
vn -0.0604 -0.7929 -0.6064
vn -0.5768 -0.8169 -0.0003
vn -0.0602 -0.7768 -0.6268
vn -0.0776 -0.9970 -0.0004
vn -0.5770 -0.8168 0.0005
vn -0.5453 -0.6599 -0.5170
vn -0.0602 -0.7773 -0.6262
vn -0.5453 -0.6598 0.5170
vn -0.0602 -0.7773 0.6262
vn -0.5453 -0.6595 0.5174
vn -0.5769 -0.8168 0.0002
vn -0.0776 -0.9970 0.0002
vn 0.4934 0.0001 -0.8698
vn 0.5453 -0.6596 -0.5172
vn 0.0601 -0.7774 -0.6261
vn -0.0046 0.0292 -0.9996
vn 0.4933 -0.0005 -0.8698
vn -0.0046 0.0304 -0.9995
vn 0.5455 0.6599 -0.5167
vn 0.4933 0.0004 -0.8699
vn -0.0046 0.0297 -0.9995
vn -0.0603 0.7927 -0.6066
vn 0.5453 0.6596 -0.5172
vn 0.0047 -0.0299 -0.9995
vn -0.0604 0.7927 -0.6067
vn -0.0046 0.0296 -0.9996
vn 0.0045 -0.0296 -0.9996
vn -0.0602 0.7771 -0.6265
vn -0.0603 0.7928 -0.6065
vn -0.0046 -0.0300 -0.9995
vn -0.0602 0.7769 -0.6267
vn 0.0046 -0.0300 -0.9995
vn -0.0046 -0.0295 -0.9996
vn -0.0602 0.7772 -0.6264
vn -0.0045 -0.0300 -0.9995
vn 0.0046 -0.0299 -0.9995
vn 0.0046 -0.0295 -0.9996
vn 0.0603 -0.7926 -0.6067
vn -0.0046 0.0299 -0.9995
vn 0.0601 -0.7770 -0.6267
vn 0.0604 -0.7928 -0.6065
vn 0.0046 -0.0298 -0.9995
vn -0.0602 -0.7771 -0.6265
vn -0.0046 -0.0298 -0.9995
vn -0.0604 -0.7928 -0.6065
vn 0.0046 0.0295 -0.9996
vn -0.0047 -0.0300 -0.9995
vn 0.0046 0.0294 -0.9996
vn -0.0047 -0.0302 -0.9995
vn 0.0046 0.0296 -0.9995
vn 0.0604 0.7927 -0.6067
vn 0.0602 0.7770 -0.6266
vn -0.4934 0.0002 -0.8698
vn 0.0604 0.7929 -0.6063
vn 0.0046 0.0301 -0.9995
vn -0.4935 -0.0006 -0.8697
vn -0.5453 0.6594 -0.5176
vn 0.0604 0.7925 -0.6069
vn -0.5453 -0.6596 -0.5173
vn 0.0046 0.0299 -0.9995
vn -0.0602 -0.7769 -0.6267
vn 0.5449 0.6600 0.5172
vn 0.5449 0.6600 -0.5172
vn 0.5763 0.8173 -0.0000
vn 0.5454 0.6596 -0.5172
vn 0.5454 0.6596 0.5172
vn 0.4933 -0.0001 0.8698
vn 0.4934 -0.0000 0.8698
vn 0.4934 -0.0001 -0.8698
vn 0.4934 -0.0000 -0.8698
vn 0.4934 0.0001 0.8698
vn 0.5454 -0.6596 0.5172
vn 0.5453 -0.6596 0.5172
vn 0.5453 -0.6597 -0.5172
vn 0.5453 -0.6597 -0.5171
vn 0.5768 -0.8169 0.0001
vn -0.5456 0.6594 -0.5172
vn -0.5456 0.6593 0.5173
vn -0.5774 0.8164 0.0001
vn -0.5452 0.6597 0.5172
vn -0.5452 0.6597 -0.5172
vn -0.4934 -0.0000 -0.8698
vn -0.5453 0.6597 0.5172
vn -0.4934 0.0001 0.8698
vn -0.4934 -0.0000 0.8698
vn -0.4935 -0.0002 -0.8697
vn -0.5448 -0.6600 -0.5172
vn -0.5453 -0.6596 -0.5172
vn -0.5453 -0.6597 0.5172
vn -0.5456 -0.6593 0.5172
vn -0.5456 -0.6593 -0.5173
vn -0.5774 -0.8165 -0.0000
vn -0.0000 -1.0000 -0.0000
vn 0.6298 0.5259 -0.5716
vn -0.6298 0.5259 -0.5716
vn -0.6298 0.5259 0.5716
vn 0.6298 0.5259 0.5716
vn 0.6297 -0.5261 -0.5716
vn -0.6298 -0.5260 -0.5716
vn -0.6297 -0.5261 0.5716
vn 0.6297 -0.5261 0.5716
vn -0.0000 0.6771 -0.7359
vn -0.7673 0.6413 -0.0000
vn -0.7676 0.6410 -0.0000
vn 0.7676 0.6410 -0.0000
vn -0.0000 0.6771 0.7359
vn -0.0000 -0.6770 -0.7360
vn -0.0000 -0.6772 -0.7358
vn -0.7674 -0.6411 -0.0000
vn -0.7675 -0.6410 -0.0000
vn 0.7674 -0.6411 -0.0000
vn -0.0000 -0.6772 0.7358
vn -0.0000 -0.6769 0.7361
vn 0.7405 -0.0000 -0.6721
vn -0.7405 -0.0000 -0.6721
vn -0.7405 -0.0000 0.6721
vn 0.7405 -0.0000 0.6721
vn -0.0000 1.0000 -0.0000
vt 0.495903 0.454096
vt 0.497331 0.454096
vt 0.496617 0.453467
vt 0.495607 0.455615
vt 0.497627 0.455615
vt 0.495903 0.457133
vt 0.497331 0.457133
vt 0.496617 0.457762
vt 0.136828 0.454096
vt 0.121267 0.455615
vt 0.121267 0.454096
vt 0.136828 0.455615
vt 0.121267 0.457133
vt 0.136828 0.457133
vt 0.497331 0.136828
vt 0.496617 0.121267
vt 0.497331 0.121267
vt 0.496617 0.136828
vt 0.495903 0.121267
vt 0.495903 0.136828
vt 0.496617 0.136828
vt 0.467699 0.454096
vt 0.469127 0.454096
vt 0.468413 0.453467
vt 0.467403 0.455615
vt 0.469422 0.455615
vt 0.467699 0.457133
vt 0.469127 0.457133
vt 0.468413 0.457762
vt 0.136828 0.454096
vt 0.121267 0.455615
vt 0.121267 0.454096
vt 0.136828 0.455615
vt 0.121267 0.457133
vt 0.136828 0.457133
vt 0.469127 0.136828
vt 0.468413 0.121267
vt 0.469126 0.121267
vt 0.468413 0.136828
vt 0.467699 0.121267
vt 0.467699 0.136828
vt 0.454019 0.455615
vt 0.453409 0.457720
vt 0.453409 0.455615
vt 0.454019 0.457720
vt 0.454019 0.453510
vt 0.453409 0.453510
vt 0.468081 0.453510
vt 0.468081 0.455615
vt 0.496451 0.453510
vt 0.496451 0.455615
vt 0.468081 0.457720
vt 0.496451 0.457720
vt 0.510501 0.455615
vt 0.510501 0.457720
vt 0.510501 0.453510
vt 0.511449 0.453510
vt 0.511449 0.455615
vt 0.511449 0.457720
vt 0.454019 0.133111
vt 0.453409 0.134448
vt 0.453409 0.133111
vt 0.454019 0.134448
vt 0.453409 0.135786
vt 0.454019 0.135786
vt 0.468081 0.137108
vt 0.468081 0.138445
vt 0.496451 0.137108
vt 0.496451 0.138445
vt 0.496451 0.135771
vt 0.468081 0.135771
vt 0.510501 0.133111
vt 0.510501 0.134448
vt 0.510501 0.135786
vt 0.511449 0.134448
vt 0.511449 0.135786
vt 0.511449 0.133111
vt 0.496451 0.455615
vt 0.496451 0.457720
vt 0.496451 0.137108
vt 0.496451 0.138445
vt 0.133111 0.457720
vt 0.133111 0.453510
vt 0.132558 0.455615
vt 0.134448 0.458592
vt 0.134448 0.452638
vt 0.135786 0.457720
vt 0.135786 0.453510
vt 0.136340 0.455615
vt 0.133111 0.453510
vt 0.133111 0.457720
vt 0.132557 0.455615
vt 0.134448 0.452638
vt 0.134448 0.458592
vt 0.135786 0.453510
vt 0.135786 0.457720
vt 0.136339 0.455615
vt 0.123929 0.353172
vt 0.126582 0.468856
vt 0.126582 0.353172
vt 0.123929 0.468856
vt 0.389216 0.353172
vt 0.589269 0.468856
vt 0.589269 0.353172
vt 0.389216 0.468856
vt 0.389216 0.123929
vt 0.589269 0.126582
vt 0.389216 0.126582
vt 0.589269 0.123929
vt 0.123929 0.350268
vt 0.121025 0.353172
vt 0.123929 0.471760
vt 0.121025 0.468856
vt 0.126582 0.350268
vt 0.129487 0.353172
vt 0.129487 0.468856
vt 0.126582 0.471760
vt 0.589269 0.121025
vt 0.389216 0.121025
vt 0.589269 0.350268
vt 0.389216 0.350268
vt 0.389216 0.471760
vt 0.589269 0.471760
vt 0.585242 0.359076
vt 0.393243 0.359076
vt 0.585242 0.462952
vt 0.393243 0.462952
vt 0.581831 0.462952
vt 0.396654 0.364550
vt 0.581831 0.364550
vt 0.396654 0.462952
vt 0.393243 0.121025
vt 0.585242 -0.102052
vt 0.393243 -0.102052
vt 0.585242 0.121025
vt 0.121025 0.359076
vt -0.102052 0.462952
vt -0.102052 0.359076
vt 0.121025 0.462952
vt 0.396654 0.116025
vt 0.581831 0.116025
vt 0.581831 -0.097052
vt 0.581831 0.902948
vt 0.393243 0.897948
vt 0.585242 0.897948
vt 0.396654 0.902948
vt 0.393243 1.121025
vt 0.396654 1.116025
vt 0.396654 -0.097052
vt 0.902948 0.462952
vt 1.116025 0.364550
vt 0.902948 0.364550
vt 1.116025 0.462952
vt 0.116025 0.462952
vt -0.097052 0.364550
vt 0.116025 0.364550
vt -0.097052 0.462952
s 1
usemtl M_DeskDrawer_313_5_0
f 1/1/1 3/2/2 2/3/3
f 3/2/4 1/1/5 4/4/6
f 3/2/7 4/4/6 5/5/8
f 5/5/8 4/4/9 6/6/10
f 5/5/8 6/6/11 7/7/12
f 7/7/13 6/6/14 8/8/15
f 3/9/16 10/10/17 9/11/18
f 3/9/16 5/12/19 10/10/17
f 5/12/20 11/13/21 10/10/17
f 5/12/19 7/14/22 11/13/21
f 7/15/23 12/16/24 11/17/25
f 7/15/23 8/18/26 12/16/27
f 8/18/26 13/19/28 12/16/29
f 8/18/26 6/20/30 13/19/28
f 6/14/31 14/10/32 13/13/33
f 6/14/30 4/12/34 14/10/32
f 4/12/34 15/11/35 14/10/32
f 4/12/6 1/9/36 15/11/37
f 2/21/38 9/17/39 16/16/40
f 2/21/41 3/15/16 9/17/42
f 1/20/36 2/21/41 16/16/43
f 1/20/36 16/16/40 15/19/44
f 17/22/1 19/23/45 18/24/46
f 19/23/47 17/22/48 20/25/49
f 19/23/50 20/25/51 21/26/52
f 21/26/8 20/25/9 22/27/53
f 21/26/54 22/27/55 23/28/56
f 23/28/57 22/27/58 24/29/26
f 19/30/16 26/31/17 25/32/59
f 19/30/16 21/33/19 26/31/17
f 21/33/60 27/34/61 26/31/17
f 21/33/8 23/35/62 27/34/25
f 23/36/22 28/37/29 27/38/63
f 23/36/22 24/39/26 28/37/27
f 24/39/64 29/40/65 28/37/29
f 24/39/26 22/41/30 29/40/66
f 22/35/30 30/31/32 29/34/66
f 22/35/30 20/33/34 30/31/32
f 20/33/34 31/32/67 30/31/32
f 20/33/68 17/30/36 31/32/67
f 18/39/41 25/38/18 32/37/40
f 18/39/41 19/36/69 25/38/18
f 17/41/36 18/39/70 32/37/43
f 17/41/36 32/37/40 31/40/35
f 33/42/71 35/43/72 34/44/73
f 33/42/74 36/45/75 35/43/76
f 37/46/77 33/42/71 34/44/73
f 37/46/78 34/44/79 38/47/80
f 39/48/81 33/42/82 37/46/83
f 39/48/84 40/49/85 33/42/86
f 40/49/87 36/45/88 33/42/74
f 41/50/89 40/49/85 39/48/84
f 41/50/90 42/51/91 40/49/92
f 42/51/93 43/52/94 40/49/87
f 40/49/95 43/52/96 36/45/97
f 42/51/98 44/53/99 43/52/96
f 45/54/100 44/53/101 42/51/102
f 45/54/103 46/55/104 44/53/105
f 47/56/106 42/51/107 41/50/108
f 47/56/109 45/54/110 42/51/111
f 48/57/112 45/54/113 47/56/114
f 48/57/115 49/58/116 45/54/117
f 49/58/118 46/55/119 45/54/120
f 49/58/121 50/59/122 46/55/123
f 36/60/124 51/61/125 35/62/72
f 36/60/126 52/63/127 51/61/128
f 52/63/129 53/64/130 51/61/131
f 52/63/132 54/65/133 53/64/134
f 55/66/135 54/65/136 52/63/132
f 55/66/137 56/67/138 54/65/139
f 57/68/140 56/67/141 55/66/142
f 57/68/143 58/69/144 56/67/145
f 44/70/105 57/68/143 55/66/137
f 44/70/146 55/66/142 43/71/94
f 43/71/147 52/63/148 36/60/124
f 43/71/149 55/66/135 52/63/132
f 46/72/150 57/68/151 44/70/152
f 46/72/153 59/73/154 57/68/151
f 59/73/155 58/69/156 57/68/157
f 59/73/158 60/74/159 58/69/160
f 61/75/161 60/74/162 59/73/163
f 61/75/164 62/76/165 60/74/166
f 50/77/167 59/73/154 46/72/168
f 50/77/167 61/75/161 59/73/169
f 54/45/170 63/44/171 53/43/172
f 54/45/173 64/42/174 63/44/175
f 64/42/176 65/47/177 63/44/175
f 64/42/176 66/46/178 65/47/179
f 67/49/180 66/46/181 64/42/182
f 67/49/183 68/48/184 66/46/178
f 69/78/185 68/48/186 67/49/183
f 69/78/187 70/50/188 68/48/184
f 58/79/189 69/78/190 67/49/191
f 58/79/192 67/49/191 56/52/193
f 56/52/193 64/42/194 54/45/170
f 56/52/195 67/49/196 64/42/197
f 60/55/198 69/78/199 58/79/144
f 60/55/200 71/54/201 69/78/202
f 71/54/203 70/50/204 69/78/205
f 71/54/206 72/56/207 70/50/208
f 73/58/209 72/56/210 71/54/211
f 73/58/212 74/57/213 72/56/214
f 62/59/215 71/54/211 60/55/216
f 62/59/217 73/58/218 71/54/219
f 66/65/178 75/61/220 65/64/221
f 66/65/222 76/63/223 75/61/224
f 76/63/225 38/62/226 75/61/227
f 76/63/228 37/60/229 38/62/230
f 77/66/231 37/60/232 76/63/233
f 77/66/234 39/71/235 37/60/236
f 78/80/237 39/71/238 77/66/239
f 78/80/240 41/70/90 39/71/241
f 70/81/208 78/80/242 77/66/243
f 70/81/204 77/66/244 68/67/245
f 68/67/186 76/63/246 66/65/247
f 68/67/248 77/66/249 76/63/228
f 72/74/250 78/80/251 70/81/252
f 72/74/207 79/73/253 78/80/254
f 79/73/255 41/70/89 78/80/256
f 79/73/257 47/72/258 41/70/259
f 80/75/260 47/72/261 79/73/262
f 80/75/263 48/77/264 47/72/265
f 74/76/266 79/73/267 72/74/268
f 74/76/266 80/75/260 79/73/267
f 35/82/269 38/83/270 34/84/271
f 38/83/272 35/82/273 51/85/274
f 38/83/80 51/85/275 75/86/276
f 75/86/277 51/85/278 53/87/279
f 75/86/220 53/87/280 65/88/281
f 65/88/282 53/87/134 63/89/283
f 48/90/284 50/91/285 49/92/286
f 50/91/287 48/90/288 80/93/289
f 50/91/290 80/93/289 61/94/291
f 61/94/292 80/93/293 74/95/294
f 61/94/292 74/95/295 62/96/296
f 62/96/297 74/95/298 73/97/299
f 81/98/32 83/99/32 82/100/32
f 81/98/32 84/101/32 83/99/32
f 85/102/300 87/103/300 86/104/300
f 85/102/300 88/105/300 87/103/300
f 89/101/17 91/100/17 90/99/17
f 89/101/17 92/98/17 91/100/17
f 93/106/29 95/107/29 94/108/29
f 93/106/29 96/109/29 95/107/29
f 97/109/40 99/108/40 98/107/40
f 97/109/40 100/106/40 99/108/40
f 100/110/301 101/111/301 81/98/301
f 97/110/302 92/98/302 102/111/302
f 89/101/303 96/112/303 103/113/303
f 84/101/304 104/113/304 93/112/304
f 99/114/305 82/100/305 85/115/305
f 98/114/306 86/115/306 91/100/306
f 90/99/307 87/116/307 95/117/307
f 83/99/308 94/117/308 88/116/308
f 100/106/309 102/118/309 101/119/309
f 100/106/309 97/109/309 102/118/309
f 103/113/310 92/98/310 89/101/310
f 103/113/311 102/111/311 92/98/311
f 84/101/312 101/111/312 104/113/312
f 84/101/312 81/98/312 101/111/312
f 104/119/313 96/109/313 93/106/313
f 104/119/313 103/118/313 96/109/313
f 85/102/314 98/120/314 99/121/314
f 85/102/315 86/104/315 98/120/315
f 90/99/316 86/115/316 87/116/316
f 90/99/317 91/100/317 86/115/317
f 88/116/318 82/100/318 83/99/318
f 88/116/318 85/115/318 82/100/318
f 94/122/319 87/103/319 88/105/319
f 94/122/320 95/123/320 87/103/320
f 81/98/321 99/114/321 100/110/321
f 81/98/321 82/100/321 99/114/321
f 91/100/322 97/110/322 98/114/322
f 91/100/322 92/98/322 97/110/322
f 95/117/323 89/101/323 90/99/323
f 95/117/323 96/112/323 89/101/323
f 93/112/324 83/99/324 84/101/324
f 93/112/324 94/117/324 83/99/324
f 105/124/325 101/102/325 102/104/325
f 105/124/325 106/125/325 101/102/325
f 107/126/325 105/124/325 102/104/325
f 107/126/325 102/104/325 103/103/325
f 106/125/325 104/105/325 101/102/325
f 106/125/325 108/127/325 104/105/325
f 108/127/325 103/103/325 104/105/325
f 108/127/325 107/126/325 103/103/325
f 109/125/325 111/126/325 110/127/325
f 109/125/325 112/124/325 111/126/325
f 113/128/325 115/129/325 114/130/325
f 113/128/325 116/131/325 115/129/325
f 106/132/40 112/133/40 109/134/40
f 106/132/40 105/135/40 112/133/40
f 105/136/17 111/137/17 112/138/17
f 105/136/17 107/139/17 111/137/17
f 108/139/32 109/138/32 110/137/32
f 108/139/32 106/136/32 109/138/32
f 116/140/29 107/135/29 108/132/29
f 116/140/29 113/141/29 107/135/29
f 113/141/29 111/133/29 107/135/29
f 113/141/29 117/142/29 111/133/29
f 117/143/29 110/144/29 111/145/29
f 117/143/29 118/146/29 110/144/29
f 118/146/29 108/147/29 110/144/29
f 118/146/29 116/148/29 108/147/29
f 114/141/29 120/149/29 119/142/29
f 114/141/29 115/140/29 120/149/29
f 118/131/300 119/130/300 120/129/300
f 118/131/300 117/128/300 119/130/300
f 117/150/32 114/151/32 119/152/32
f 117/150/32 113/153/32 114/151/32
f 116/154/17 120/155/17 115/156/17
f 116/154/17 118/157/17 120/155/17
