# Blender 4.1.1
# www.blender.org
mtllib MeshBox_16_FlapInner_2_4.mtl
o Box_16_FlapInner_2
v 0.282112 0.124697 0.123382
v 0.282112 -0.121387 0.123382
v 0.281622 0.124697 0.126050
v 0.281622 -0.121387 0.126050
v 0.162814 0.124697 0.103544
v 0.163359 0.124697 0.104334
v 0.162814 -0.121387 0.103544
v 0.163359 -0.121387 0.104333
v 0.163059 0.124697 0.102210
v 0.163849 0.124697 0.101666
v 0.163059 -0.121387 0.102210
v 0.163849 -0.121387 0.101666
vn -0.9836 -0.0000 -0.1806
vn 0.9659 -0.0000 -0.2589
vn 0.7516 -0.0000 -0.6596
vn -0.0000 -1.0000 -0.0000
vn -0.0000 1.0000 -0.0000
vn 0.4683 0.0001 0.8836
vn 0.8109 -0.0000 0.5851
vn 0.4682 -0.0000 0.8836
vn -0.1806 -0.0000 0.9836
vn 0.1806 -0.0000 -0.9836
vt 0.920932 0.201981
vt 0.920932 0.798018
vt 0.915475 0.798018
vt 0.915475 0.201981
vt 0.007825 0.203618
vt 0.009189 0.201980
vt 0.009189 0.798020
vt 0.007825 0.796382
vt 0.005097 0.203618
vt 0.003732 0.201980
vt 0.003732 0.798020
vt 0.005097 0.796382
vt 0.368945 0.201979
vt 0.368945 0.798021
vt 0.105770 0.798021
vt 0.105770 0.201979
vt 0.818766 0.201979
vt 0.818766 0.798021
vt 0.555591 0.798021
vt 0.555591 0.201979
vt 0.932218 0.353967
vt 0.932218 0.090792
vt 0.937675 0.090792
vt 0.937675 0.353967
vt 0.945333 0.801519
vt 0.945333 0.538346
vt 0.950790 0.538346
vt 0.950790 0.801519
s 1
usemtl M_Box_16_FlapInner_2_0
f 1/1/1 2/2/1 4/3/1 3/4/1
f 5/5/2 6/6/3 8/7/3 7/8/2
f 6/6/4 5/5/4 9/9/4 10/10/4
f 7/8/5 8/7/5 12/11/5 11/12/5
f 10/10/6 9/9/7 11/12/7 12/11/8
f 5/5/2 7/8/2 11/12/7 9/9/7
f 10/13/6 12/14/8 2/15/9 1/16/9
f 3/17/10 4/18/10 8/19/3 6/20/3
f 8/21/5 4/22/5 2/23/5 12/24/5
f 3/25/4 6/26/4 10/27/4 1/28/4
