# Blender 4.1.1
# www.blender.org
mtllib ToasterLever_13_ToasterLever_13_1_GeomSubset_2.mtl
o ToasterLever_13_ToasterLever_13_1_GeomSubset_2
v -0.002036 -0.220749 0.039601
v -0.002036 -0.216678 0.039601
v 0.002036 -0.220749 0.039601
v 0.002036 -0.216678 0.039601
v -0.002036 -0.220749 0.039601
v -0.002036 -0.216678 0.039601
v 0.002036 -0.220749 0.039601
v 0.002036 -0.216678 0.039601
v -0.002036 -0.220749 0.039601
v -0.002036 -0.216678 0.039601
v 0.002036 -0.220749 0.039601
v 0.002036 -0.216678 0.039601
v -0.002036 -0.220749 0.039601
v -0.002036 -0.216678 0.039601
v 0.002036 -0.220749 0.039601
v 0.002036 -0.216678 0.039601
v -0.002036 -0.220749 0.039601
v -0.002036 -0.216678 0.039601
v 0.002036 -0.220749 0.039601
v 0.002036 -0.216678 0.039601
v -0.002036 -0.220749 0.039601
v -0.002036 -0.216678 0.039601
v 0.002036 -0.220749 0.039601
v 0.002036 -0.216678 0.039601
v 0.000000 -0.225779 0.039601
v -0.001975 -0.211037 0.040419
v -0.001511 -0.211037 0.041113
v -0.000818 -0.211037 0.041576
v 0.000000 -0.211037 0.041739
v 0.000818 -0.211037 0.041576
v 0.001512 -0.211037 0.041113
v 0.001975 -0.211037 0.040419
v 0.002138 -0.211037 0.039601
v 0.001975 -0.211037 0.038783
v 0.001512 -0.211037 0.038090
v 0.000818 -0.211037 0.037626
v 0.000000 -0.211037 0.037463
v -0.000818 -0.211037 0.037626
v -0.001511 -0.211037 0.038090
v -0.001975 -0.211037 0.038783
v -0.002138 -0.211037 0.039601
v -0.001975 -0.201847 0.040419
v -0.001511 -0.201847 0.041113
v -0.000818 -0.201847 0.041576
v 0.000000 -0.201847 0.041739
v 0.000818 -0.201847 0.041576
v 0.001512 -0.201847 0.041113
v 0.001975 -0.201847 0.040419
v 0.002138 -0.201847 0.039601
v 0.001975 -0.201847 0.038783
v 0.001512 -0.201847 0.038090
v 0.000818 -0.201847 0.037626
v 0.000000 -0.201847 0.037463
v -0.000818 -0.201847 0.037626
v -0.001511 -0.201847 0.038090
v -0.001975 -0.201847 0.038783
v -0.002138 -0.201847 0.039601
v -0.006330 -0.211398 0.042223
v -0.005930 -0.211037 0.042057
v -0.004845 -0.211398 0.044446
v -0.004539 -0.211037 0.044140
v -0.002622 -0.211398 0.045931
v -0.002456 -0.211037 0.045531
v 0.000000 -0.211398 0.046453
v 0.000000 -0.211037 0.046020
v 0.002622 -0.211398 0.045931
v 0.002456 -0.211037 0.045531
v 0.004845 -0.211398 0.044446
v 0.004539 -0.211037 0.044140
v 0.006330 -0.211398 0.042223
v 0.005930 -0.211037 0.042057
v 0.006852 -0.211398 0.039601
v 0.006419 -0.211037 0.039601
v 0.006330 -0.211398 0.036979
v 0.005930 -0.211037 0.037145
v 0.004845 -0.211398 0.034756
v 0.004539 -0.211037 0.035062
v 0.002622 -0.211398 0.033271
v 0.002456 -0.211037 0.033671
v 0.000000 -0.211398 0.032749
v 0.000000 -0.211037 0.033182
v -0.002622 -0.211398 0.033271
v -0.002456 -0.211037 0.033671
v -0.004845 -0.211398 0.034756
v -0.004539 -0.211037 0.035062
v -0.006330 -0.211398 0.036979
v -0.005930 -0.211037 0.037145
v -0.006852 -0.211398 0.039601
v -0.006419 -0.211037 0.039601
v -0.005930 -0.225779 0.042057
v -0.006330 -0.225419 0.042223
v -0.004845 -0.225419 0.044446
v -0.004539 -0.225779 0.044140
v -0.002456 -0.225779 0.045531
v -0.002622 -0.225419 0.045931
v 0.000000 -0.225419 0.046453
v 0.000000 -0.225779 0.046020
v 0.002456 -0.225779 0.045531
v 0.002622 -0.225419 0.045931
v 0.004845 -0.225419 0.044446
v 0.004539 -0.225779 0.044140
v 0.005930 -0.225779 0.042057
v 0.006330 -0.225419 0.042223
v 0.006852 -0.225419 0.039601
v 0.006419 -0.225779 0.039601
v 0.005930 -0.225779 0.037145
v 0.006330 -0.225419 0.036979
v 0.004845 -0.225419 0.034756
v 0.004539 -0.225779 0.035062
v 0.002456 -0.225779 0.033671
v 0.002622 -0.225419 0.033271
v 0.000000 -0.225419 0.032749
v 0.000000 -0.225779 0.033182
v -0.002456 -0.225779 0.033671
v -0.002622 -0.225419 0.033271
v -0.004845 -0.225419 0.034756
v -0.004539 -0.225779 0.035062
v -0.005930 -0.225779 0.037145
v -0.006330 -0.225419 0.036979
v -0.006852 -0.225419 0.039601
v -0.006419 -0.225779 0.039601
vn 0.8471 -0.0000 -0.5314
vn -0.0000 -0.8471 -0.5314
vn -0.8471 -0.0000 -0.5314
vn -0.0000 0.8471 -0.5314
vt -46.930313 -17.700754
vt -46.866486 -17.700754
vt -46.866486 -17.636938
vt -46.930313 -17.636938
s 1
usemtl M_ToasterLever_13_2
f 9/1/1 10/2/2 12/3/3 11/4/4
