# Blender 4.1.1
# www.blender.org
mtllib LightSwitchDialCa_25_LightSwitchDialCa_25_5_GeomSubset_2.mtl
o LightSwitchDialCa_25_LightSwitchDialCa_25_5_GeomSubset_2
v 0.000500 0.000937 0.000000
v -0.000500 0.000937 0.000000
v 0.000500 0.001937 0.000000
v -0.000500 0.001937 0.000000
v 0.000500 0.000937 0.000000
v -0.000500 0.000937 0.000000
v 0.000500 0.001937 0.000000
v -0.000500 0.001937 0.000000
v 0.000500 0.000937 0.000000
v -0.000500 0.000937 0.000000
v 0.000500 0.001937 0.000000
v -0.000500 0.001937 0.000000
v 0.022812 -0.014275 -0.044791
v 0.022812 -0.015371 -0.043696
v 0.023908 -0.014275 -0.043696
v -0.000083 -0.014275 -0.043696
v 0.001012 -0.015371 -0.043696
v 0.001012 -0.014275 -0.044791
v 0.023908 -0.014275 -0.021896
v 0.022812 -0.015371 -0.021896
v 0.022812 -0.014275 -0.020801
v 0.001012 -0.014275 -0.020801
v 0.001012 -0.015371 -0.021896
v -0.000083 -0.014275 -0.021896
v 0.023908 -0.004417 -0.021896
v 0.022812 -0.004417 -0.020801
v 0.001012 -0.004417 -0.020801
v -0.000083 -0.004417 -0.021896
v 0.022812 -0.004417 -0.044791
v 0.023908 -0.004417 -0.043696
v -0.000083 -0.004417 -0.043696
v 0.001012 -0.004417 -0.044791
vn -0.0000 -0.0000 -1.0000
vt 57.002308 -5.452385
vt 57.002293 -5.458394
vt 57.008312 -5.458394
vt 57.008297 -5.452378
s 1
usemtl M_LightSwitchDialCa_25_2
f 9/1/1 10/2/1 12/3/1 11/4/1
