# Blender 4.1.1
# www.blender.org
mtllib LightSwitchDialAa_25_LightSwitchDialAa_25_1_GeomSubset_2.mtl
o LightSwitchDialAa_25_LightSwitchDialAa_25_1_GeomSubset_2
v 0.000500 0.000937 0.000000
v -0.000500 0.000937 0.000000
v 0.000500 0.001937 0.000000
v -0.000500 0.001937 0.000000
v 0.000500 0.000937 0.000000
v -0.000500 0.000937 0.000000
v 0.000500 0.001937 0.000000
v -0.000500 0.001937 0.000000
v 0.000500 0.000937 0.000000
v -0.000500 0.000937 0.000000
v 0.000500 0.001937 0.000000
v -0.000500 0.001937 0.000000
v 0.022812 -0.014275 0.021263
v 0.022812 -0.015371 0.022358
v 0.023908 -0.014275 0.022358
v -0.000083 -0.014275 0.022358
v 0.001012 -0.015371 0.022358
v 0.001012 -0.014275 0.021263
v 0.023908 -0.014275 0.044159
v 0.022812 -0.015371 0.044159
v 0.022812 -0.014275 0.045254
v 0.001012 -0.014275 0.045254
v 0.001012 -0.015371 0.044159
v -0.000083 -0.014275 0.044159
v 0.023908 -0.004417 0.044159
v 0.022812 -0.004417 0.045254
v 0.001012 -0.004417 0.045254
v -0.000083 -0.004417 0.044159
v 0.022812 -0.004417 0.021263
v 0.023908 -0.004417 0.022358
v -0.000083 -0.004417 0.022358
v 0.001012 -0.004417 0.021263
vn -0.0000 -0.0000 -1.0000
vt 56.968929 -5.455804
vt 56.968914 -5.461815
vt 56.974937 -5.461815
vt 56.974922 -5.455797
s 1
usemtl M_LightSwitchDialAa_25_2
f 9/1/1 10/2/1 12/3/1 11/4/1
