# Blender 4.1.1
# www.blender.org
mtllib MeshSink_21_0_GeomSubset_2.mtl
o MeshSink_21_0_GeomSubset_2
v -0.089765 0.015093 -0.082451
v -0.084598 0.028242 -0.082451
v -0.076423 0.039719 -0.082451
v -0.065958 0.049235 -0.082451
v -0.054510 0.058035 -0.082451
v -0.031124 0.066077 -0.082451
v 0.031455 0.066077 -0.082451
v 0.054771 0.058035 -0.082451
v 0.066201 0.049235 -0.082451
v 0.076661 0.039719 -0.082451
v 0.084833 0.028242 -0.082451
v 0.090000 0.015093 -0.082451
v 0.091766 0.001030 -0.082451
v 0.090000 -0.013032 -0.082451
v 0.084833 -0.026182 -0.082451
v 0.076661 -0.037659 -0.082451
v 0.066201 -0.047174 -0.082451
v 0.054771 -0.055974 -0.082451
v 0.031455 -0.064016 -0.082451
v -0.031124 -0.064016 -0.082451
v -0.054510 -0.055974 -0.082451
v -0.065958 -0.047174 -0.082451
v -0.076423 -0.037659 -0.082451
v -0.084598 -0.026182 -0.082451
v -0.089765 -0.013032 -0.082451
v -0.091531 0.001030 -0.082451
v -0.241002 0.047293 -0.061971
v -0.262966 0.052542 -0.036963
v -0.244196 0.100569 -0.036802
v -0.224084 0.090403 -0.061971
v -0.214223 0.141802 -0.036802
v -0.197173 0.127424 -0.061971
v -0.175160 0.173445 -0.036802
v -0.162101 0.155830 -0.061971
v -0.129670 0.193335 -0.036802
v -0.121259 0.173687 -0.061971
v -0.080314 0.200263 -0.036670
v -0.077001 0.179837 -0.061971
v 0.077449 0.179862 -0.061941
v 0.080754 0.200112 -0.036989
v 0.130102 0.193341 -0.036802
v 0.121707 0.173687 -0.061971
v 0.175593 0.173455 -0.036802
v 0.162550 0.155830 -0.061971
v 0.214658 0.141816 -0.036802
v 0.197622 0.127424 -0.061971
v 0.244636 0.100584 -0.036802
v 0.224533 0.090403 -0.061971
v 0.263481 0.052570 -0.036802
v 0.241450 0.047293 -0.061971
v 0.269910 0.001040 -0.036802
v 0.247221 0.001030 -0.061971
v 0.263485 -0.050488 -0.036802
v 0.241450 -0.045232 -0.061971
v 0.244644 -0.098508 -0.036802
v 0.224533 -0.088342 -0.061971
v 0.214672 -0.139744 -0.036802
v 0.197622 -0.125361 -0.061971
v 0.175610 -0.171384 -0.036801
v 0.162550 -0.153770 -0.061971
v 0.130120 -0.191274 -0.036802
v 0.121707 -0.171625 -0.061971
v 0.080763 -0.198202 -0.036670
v 0.077449 -0.177776 -0.061971
v -0.077001 -0.177802 -0.061942
v -0.080305 -0.198052 -0.036989
v -0.129652 -0.191281 -0.036802
v -0.121259 -0.171625 -0.061971
v -0.175145 -0.171394 -0.036802
v -0.162101 -0.153770 -0.061971
v -0.214210 -0.139756 -0.036802
v -0.197173 -0.125361 -0.061971
v -0.244187 -0.098523 -0.036802
v -0.224084 -0.088342 -0.061971
v -0.263032 -0.050508 -0.036802
v -0.241002 -0.045232 -0.061971
v -0.269461 0.001021 -0.036802
v -0.246772 0.001030 -0.061971
v -0.274198 0.055718 -0.009550
v -0.254201 0.106676 -0.009550
v -0.222388 0.150435 -0.009550
v -0.180932 0.184014 -0.009550
v -0.132653 0.205122 -0.009550
v -0.080305 0.212405 -0.009530
v 0.080712 0.212404 -0.009550
v 0.133102 0.205122 -0.009550
v 0.181380 0.184014 -0.009550
v 0.222838 0.150435 -0.009550
v 0.254649 0.106676 -0.009550
v 0.274647 0.055718 -0.009550
v 0.281468 0.001030 -0.009550
v 0.274647 -0.053657 -0.009550
v 0.254649 -0.104614 -0.009550
v 0.222838 -0.148374 -0.009550
v 0.181381 -0.181953 -0.009550
v 0.133102 -0.203062 -0.009550
v 0.080753 -0.210344 -0.009531
v -0.080263 -0.210342 -0.009550
v -0.132652 -0.203062 -0.009550
v -0.180932 -0.181953 -0.009550
v -0.222389 -0.148374 -0.009550
v -0.254201 -0.104614 -0.009550
v -0.274199 -0.053657 -0.009550
v -0.281019 0.001030 -0.009550
v -0.277995 0.056791 0.018993
v -0.257605 0.108752 0.018993
v -0.225169 0.153370 0.018993
v -0.182897 0.187608 0.018993
v -0.133670 0.209131 0.018994
v -0.080263 0.216550 0.018983
v 0.080712 0.216550 0.018983
v 0.134119 0.209131 0.018994
v 0.183346 0.187608 0.018993
v 0.225617 0.153370 0.018993
v 0.258054 0.108752 0.018993
v 0.278444 0.056791 0.018993
v 0.285399 0.001030 0.018993
v 0.278444 -0.054730 0.018993
v 0.258054 -0.106690 0.018993
v 0.225617 -0.151310 0.018993
v 0.183346 -0.185547 0.018993
v 0.134120 -0.207070 0.018993
v 0.080712 -0.214490 0.018983
v -0.080263 -0.214490 0.018983
v -0.133670 -0.207070 0.018993
v -0.182897 -0.185547 0.018993
v -0.225169 -0.151310 0.018993
v -0.257605 -0.106690 0.018993
v -0.277996 -0.054730 0.018993
v -0.284950 0.001030 0.018993
v 0.074282 0.157422 -0.080533
v 0.073447 0.153066 -0.082450
v -0.072999 0.153066 -0.082450
v -0.073834 0.157432 -0.080521
v 0.113034 0.152041 -0.080526
v 0.111068 0.147837 -0.082450
v 0.148750 0.136423 -0.080526
v 0.145802 0.132649 -0.082450
v 0.179426 0.111580 -0.080526
v 0.175622 0.108499 -0.082450
v 0.202963 0.079200 -0.080526
v 0.198504 0.077023 -0.082450
v 0.217761 0.041493 -0.080526
v 0.212888 0.040366 -0.082450
v 0.222807 0.001030 -0.080526
v 0.217794 0.001030 -0.082450
v 0.217761 -0.039434 -0.080526
v 0.212888 -0.038306 -0.082450
v 0.202963 -0.077139 -0.080526
v 0.198504 -0.074960 -0.082450
v 0.179426 -0.109519 -0.080526
v 0.175622 -0.106438 -0.082450
v 0.148750 -0.134363 -0.080526
v 0.145802 -0.130590 -0.082450
v 0.113034 -0.149983 -0.080525
v 0.111068 -0.145774 -0.082450
v 0.074407 -0.155369 -0.080521
v 0.073448 -0.151006 -0.082450
v -0.073957 -0.155347 -0.080527
v -0.072998 -0.150999 -0.082450
v -0.212440 0.040366 -0.082450
v -0.217312 0.041493 -0.080526
v -0.202515 0.079200 -0.080526
v -0.198055 0.077020 -0.082450
v -0.217346 0.001030 -0.082450
v -0.222358 0.001030 -0.080526
v -0.178977 0.111580 -0.080526
v -0.175173 0.108499 -0.082450
v -0.148301 0.136426 -0.080526
v -0.145353 0.132649 -0.082450
v -0.112585 0.152044 -0.080524
v -0.110620 0.147837 -0.082450
v -0.112585 -0.149981 -0.080526
v -0.110620 -0.145774 -0.082450
v -0.148301 -0.134363 -0.080526
v -0.145353 -0.130590 -0.082450
v -0.178977 -0.109519 -0.080526
v -0.175173 -0.106438 -0.082450
v -0.202515 -0.077140 -0.080526
v -0.198055 -0.074960 -0.082450
v -0.217312 -0.039434 -0.080526
v -0.212440 -0.038306 -0.082450
v -0.017204 0.005801 -0.082451
v -0.015248 0.010247 -0.082451
v -0.017871 0.001030 -0.082451
v -0.012137 0.014065 -0.082451
v -0.007041 0.017251 -0.082451
v -0.000001 0.018975 -0.082451
v -0.003361 -0.016777 -0.082451
v -0.008083 -0.014933 -0.082451
v -0.000001 -0.017192 -0.082451
v -0.012137 -0.012004 -0.082451
v -0.015248 -0.008186 -0.082451
v -0.017204 -0.003740 -0.082451
v 0.007037 0.017251 -0.082451
v 0.012135 0.014065 -0.082451
v 0.015245 0.010247 -0.082451
v 0.017200 0.005801 -0.082451
v 0.017868 0.001030 -0.082451
v 0.017200 -0.003740 -0.082451
v 0.015245 -0.008186 -0.082451
v 0.012135 -0.012004 -0.082451
v 0.008080 -0.014933 -0.082451
v 0.003359 -0.016777 -0.082451
v 0.000148 0.066077 -0.082451
v 0.000224 0.153066 -0.082450
v 0.000224 0.157427 -0.080527
v 0.000224 0.179849 -0.061956
v 0.000220 0.200188 -0.036830
v 0.000203 0.212405 -0.009540
v 0.000224 0.216550 0.018983
v 0.000224 -0.214490 0.018983
v 0.000245 -0.210344 -0.009540
v 0.000229 -0.198128 -0.036830
v 0.000224 -0.177788 -0.061956
v 0.000225 -0.155359 -0.080524
v 0.000225 -0.151001 -0.082450
v 0.000148 -0.064016 -0.082451
v -0.089765 0.015093 -0.089973
v -0.084598 0.028242 -0.089973
v -0.214583 0.040973 -0.089973
v -0.199976 0.078192 -0.089973
v -0.076423 0.039719 -0.089973
v -0.176742 0.110154 -0.089973
v -0.065958 0.049235 -0.089973
v -0.146464 0.134678 -0.089973
v -0.054510 0.058035 -0.089973
v -0.111180 0.150105 -0.089973
v -0.031124 0.066077 -0.089973
v -0.073288 0.155374 -0.089973
v 0.031455 0.066077 -0.089973
v 0.054771 0.058035 -0.089973
v 0.073739 0.155371 -0.089973
v 0.111636 0.150101 -0.089973
v 0.066201 0.049235 -0.089973
v 0.146911 0.134680 -0.089973
v 0.076661 0.039719 -0.089973
v 0.177192 0.110154 -0.089973
v 0.084833 0.028242 -0.089973
v 0.200426 0.078192 -0.089973
v 0.090000 0.015093 -0.089973
v 0.215032 0.040973 -0.089973
v 0.091766 0.001030 -0.089973
v 0.220014 0.001032 -0.089973
v 0.090000 -0.013032 -0.089973
v 0.215032 -0.038912 -0.089973
v 0.084833 -0.026182 -0.089973
v 0.200426 -0.076130 -0.089973
v 0.076661 -0.037659 -0.089973
v 0.177191 -0.108093 -0.089973
v 0.066201 -0.047174 -0.089973
v 0.146912 -0.132617 -0.089973
v 0.054771 -0.055974 -0.089973
v 0.111652 -0.148035 -0.089973
v 0.031455 -0.064016 -0.089973
v 0.073675 -0.153315 -0.089973
v -0.031124 -0.064016 -0.089973
v -0.054510 -0.055974 -0.089973
v -0.073228 -0.153308 -0.089973
v -0.111195 -0.148037 -0.089973
v -0.065958 -0.047174 -0.089973
v -0.146462 -0.132620 -0.089973
v -0.076423 -0.037659 -0.089973
v -0.176742 -0.108093 -0.089973
v -0.084598 -0.026182 -0.089973
v -0.199977 -0.076130 -0.089973
v -0.089765 -0.013032 -0.089973
v -0.214583 -0.038911 -0.089973
v -0.091531 0.001030 -0.089973
v -0.219565 0.001029 -0.089973
v -0.246870 0.048953 -0.066072
v -0.269590 0.054413 -0.039959
v -0.250081 0.104164 -0.039932
v -0.229346 0.093610 -0.066072
v -0.219027 0.146882 -0.039932
v -0.201469 0.131958 -0.066072
v -0.178554 0.179663 -0.039931
v -0.165138 0.161382 -0.066072
v -0.131424 0.200271 -0.039931
v -0.122831 0.179880 -0.066071
v -0.080754 0.207323 -0.039910
v -0.077356 0.186201 -0.066072
v 0.077805 0.186204 -0.066067
v 0.081199 0.207297 -0.039964
v 0.131870 0.200271 -0.039931
v 0.123280 0.179880 -0.066072
v 0.179000 0.179666 -0.039931
v 0.165587 0.161384 -0.066071
v 0.219472 0.146887 -0.039931
v 0.201918 0.131959 -0.066071
v 0.250528 0.104168 -0.039931
v 0.229795 0.093610 -0.066071
v 0.270051 0.054419 -0.039931
v 0.247318 0.048953 -0.066072
v 0.276710 0.001031 -0.039931
v 0.253297 0.001030 -0.066071
v 0.270051 -0.052356 -0.039931
v 0.247319 -0.046892 -0.066072
v 0.250530 -0.102102 -0.039931
v 0.229795 -0.091548 -0.066071
v 0.219475 -0.144823 -0.039931
v 0.201918 -0.129899 -0.066071
v 0.179004 -0.177603 -0.039931
v 0.165588 -0.159323 -0.066071
v 0.131872 -0.198211 -0.039931
v 0.123282 -0.177820 -0.066072
v 0.081203 -0.205263 -0.039910
v 0.077802 -0.184141 -0.066071
v -0.077354 -0.184142 -0.066069
v -0.080751 -0.205237 -0.039964
v -0.131420 -0.198211 -0.039931
v -0.122831 -0.177820 -0.066072
v -0.178551 -0.177605 -0.039931
v -0.165139 -0.159321 -0.066071
v -0.219023 -0.144827 -0.039931
v -0.201469 -0.129898 -0.066072
v -0.250079 -0.102107 -0.039931
v -0.229346 -0.091548 -0.066071
v -0.269602 -0.052358 -0.039932
v -0.246871 -0.046892 -0.066071
v -0.276260 0.001028 -0.039931
v -0.252849 0.001030 -0.066071
v -0.281218 0.057703 -0.011578
v -0.260495 0.110513 -0.011577
v -0.227527 0.155862 -0.011578
v -0.184566 0.190658 -0.011578
v -0.134535 0.212533 -0.011577
v -0.080751 0.220009 -0.011574
v 0.081193 0.220007 -0.011578
v 0.134984 0.212533 -0.011578
v 0.185015 0.190657 -0.011578
v 0.227977 0.155862 -0.011577
v 0.260944 0.110513 -0.011578
v 0.281668 0.057703 -0.011578
v 0.288736 0.001029 -0.011578
v 0.281668 -0.055642 -0.011578
v 0.260944 -0.108452 -0.011578
v 0.227978 -0.153800 -0.011577
v 0.185015 -0.188599 -0.011578
v 0.134984 -0.210472 -0.011577
v 0.081199 -0.217947 -0.011574
v -0.080743 -0.217947 -0.011578
v -0.134533 -0.210472 -0.011578
v -0.184566 -0.188599 -0.011578
v -0.227528 -0.153801 -0.011577
v -0.260495 -0.108451 -0.011579
v -0.281219 -0.055642 -0.011578
v -0.288287 0.001030 -0.011578
v 0.000225 -0.153312 -0.089973
v 0.000148 -0.064016 -0.089973
v 0.000224 0.186191 -0.066082
v 0.000220 0.207373 -0.039803
v 0.000230 -0.205188 -0.040071
v 0.000224 -0.184131 -0.066084
v 0.000203 0.220007 -0.011584
v 0.000245 -0.217947 -0.011584
v 0.074622 0.162358 -0.086069
v 0.000224 0.155374 -0.089973
v 0.000224 0.162344 -0.086087
v 0.114258 0.156853 -0.086063
v 0.151112 0.140740 -0.086063
v 0.182763 0.115104 -0.086063
v 0.207052 0.081692 -0.086062
v 0.222320 0.042782 -0.086063
v 0.227528 0.001030 -0.086063
v 0.222320 -0.040723 -0.086063
v 0.207051 -0.079631 -0.086063
v 0.182764 -0.113042 -0.086062
v 0.151110 -0.138679 -0.086063
v 0.114254 -0.154795 -0.086063
v 0.074682 -0.160288 -0.086079
v 0.000224 -0.160278 -0.086080
v -0.221871 0.042783 -0.086063
v -0.206604 0.081692 -0.086063
v -0.227079 0.001032 -0.086063
v -0.182315 0.115104 -0.086063
v -0.150661 0.140740 -0.086063
v -0.113813 0.156858 -0.086059
v -0.074085 0.162349 -0.086080
v -0.074301 -0.160283 -0.086064
v -0.113807 -0.154793 -0.086063
v -0.150662 -0.138679 -0.086062
v -0.182315 -0.113042 -0.086063
v -0.206604 -0.079630 -0.086063
v -0.221871 -0.040723 -0.086063
v 0.000148 0.066077 -0.089973
v -0.285675 0.058962 0.015542
v -0.264489 0.112947 0.015542
v -0.230790 0.159304 0.015542
v -0.186873 0.194876 0.015542
v -0.135728 0.217236 0.015545
v -0.080783 0.224920 0.015570
v 0.081232 0.224920 0.015570
v 0.136178 0.217236 0.015545
v 0.187322 0.194876 0.015542
v 0.231240 0.159304 0.015542
v 0.264940 0.112947 0.015542
v 0.286125 0.058962 0.015542
v 0.293349 0.001030 0.015542
v 0.286124 -0.056902 0.015542
v 0.264938 -0.110886 0.015542
v 0.231240 -0.157244 0.015542
v 0.187321 -0.192815 0.015542
v 0.136178 -0.215176 0.015545
v 0.081233 -0.222859 0.015570
v -0.080784 -0.222859 0.015571
v -0.135729 -0.215176 0.015545
v -0.186873 -0.192815 0.015542
v -0.230791 -0.157244 0.015542
v -0.264490 -0.110886 0.015542
v -0.285676 -0.056902 0.015542
v -0.292900 0.001029 0.015542
v 0.000224 0.224934 0.015580
v 0.000224 -0.222874 0.015580
v -0.000001 -0.000601 -0.089973
v -0.259150 0.109692 0.020315
v -0.262192 0.111475 0.019831
v -0.279719 0.057278 0.020315
v -0.283097 0.058201 0.019831
v -0.226431 0.154702 0.020315
v -0.228935 0.157224 0.019831
v -0.183788 0.189240 0.020315
v -0.185594 0.192329 0.019831
v -0.134131 0.210947 0.020316
v -0.135121 0.214393 0.019833
v -0.080380 0.218430 0.020315
v -0.080695 0.221970 0.019843
v 0.134581 0.210947 0.020316
v 0.135571 0.214393 0.019833
v 0.080828 0.218430 0.020315
v 0.081144 0.221970 0.019843
v 0.184239 0.189238 0.020315
v 0.186043 0.192329 0.019831
v 0.226879 0.154702 0.020315
v 0.229384 0.157224 0.019831
v 0.259599 0.109692 0.020315
v 0.262641 0.111475 0.019831
v 0.280167 0.057278 0.020315
v 0.283546 0.058201 0.019831
v 0.287183 0.001030 0.020315
v 0.290677 0.001030 0.019831
v 0.280167 -0.055217 0.020315
v 0.283546 -0.056140 0.019831
v 0.259599 -0.107632 0.020315
v 0.262641 -0.109414 0.019831
v 0.226879 -0.152642 0.020315
v 0.229384 -0.155162 0.019831
v 0.184239 -0.187179 0.020315
v 0.186043 -0.190267 0.019831
v 0.134581 -0.208887 0.020316
v 0.135571 -0.212334 0.019833
v 0.080828 -0.216370 0.020315
v 0.081145 -0.219910 0.019843
v -0.134132 -0.208887 0.020316
v -0.135122 -0.212334 0.019833
v -0.080380 -0.216370 0.020315
v -0.080695 -0.219910 0.019843
v -0.183788 -0.187179 0.020315
v -0.185594 -0.190267 0.019831
v -0.226430 -0.152642 0.020315
v -0.228935 -0.155164 0.019831
v -0.259151 -0.107632 0.020315
v -0.262192 -0.109414 0.019831
v -0.279719 -0.055217 0.020315
v -0.283097 -0.056140 0.019831
v -0.286734 0.001030 0.020315
v -0.290229 0.001030 0.019831
v 0.000224 0.218433 0.020317
v 0.000224 0.221974 0.019848
v 0.000224 -0.216370 0.020317
v 0.000224 -0.219913 0.019848
v -0.012293 0.004401 -0.085733
v -0.010896 0.007577 -0.085733
v -0.012770 0.000991 -0.085733
v -0.008673 0.010305 -0.085733
v -0.005031 0.012581 -0.085733
v -0.000001 0.013813 -0.085733
v -0.002402 -0.011733 -0.085733
v -0.005775 -0.010417 -0.085733
v -0.000001 -0.012029 -0.085733
v -0.008673 -0.008324 -0.085733
v -0.010896 -0.005596 -0.085733
v -0.012293 -0.002419 -0.085733
v 0.005029 0.012581 -0.085733
v 0.008670 0.010305 -0.085733
v 0.010893 0.007577 -0.085733
v 0.012291 0.004401 -0.085733
v 0.012767 0.000991 -0.085733
v 0.012291 -0.002419 -0.085733
v 0.010893 -0.005596 -0.085733
v 0.008670 -0.008324 -0.085733
v 0.005773 -0.010417 -0.085733
v 0.002399 -0.011733 -0.085733
v -0.000001 0.000000 -0.085733
v -0.015878 0.009167 -0.081166
v -0.009167 0.015878 -0.081166
v 0.009166 0.015878 -0.081166
v 0.015877 0.009167 -0.081166
v 0.018333 0.000000 -0.081166
v 0.009166 -0.015878 -0.081166
v 0.000000 -0.018334 -0.081166
v -0.009167 -0.015878 -0.081166
v -0.018335 0.000000 -0.081166
v -0.014891 0.008597 -0.079109
v -0.008597 0.014890 -0.079109
v 0.008597 0.014890 -0.079109
v 0.014890 0.008597 -0.079109
v 0.017194 0.000000 -0.079109
v 0.008597 -0.014890 -0.079109
v 0.000000 -0.017194 -0.079109
v -0.008597 -0.014890 -0.079109
v -0.017193 0.000000 -0.079109
v 0.000000 0.000000 -0.076522
v -0.012679 0.007319 -0.077557
v -0.007995 0.004615 -0.076522
v -0.004616 0.007996 -0.076522
v -0.007320 0.012678 -0.077557
v 0.000000 0.009231 -0.076522
v 0.000000 0.014640 -0.077557
v 0.004616 0.007996 -0.076522
v 0.007319 0.012678 -0.077557
v 0.007993 0.004615 -0.076522
v 0.012677 0.007319 -0.077557
v 0.009231 0.000000 -0.076522
v 0.014640 0.000000 -0.077557
v 0.007993 -0.004615 -0.076522
v 0.012677 -0.007319 -0.077557
v 0.004616 -0.007994 -0.076522
v 0.007319 -0.012678 -0.077557
v 0.000000 -0.009231 -0.076522
v 0.000000 -0.014640 -0.077557
v -0.004616 -0.007994 -0.076522
v -0.007320 -0.012678 -0.077557
v -0.007995 -0.004615 -0.076522
v -0.012679 -0.007319 -0.077557
v -0.009232 0.000000 -0.076522
v -0.014641 0.000000 -0.077557
v -0.012439 0.007181 -0.081166
v -0.007181 0.012438 -0.081166
v 0.000000 0.014362 -0.081166
v 0.007181 0.012438 -0.081166
v 0.012438 0.007181 -0.081166
v 0.014362 0.000000 -0.081166
v 0.012438 -0.007181 -0.081166
v 0.007181 -0.012438 -0.081166
v 0.000000 -0.014362 -0.081166
v -0.007181 -0.012438 -0.081166
v -0.012439 -0.007181 -0.081166
v -0.014362 0.000000 -0.081166
v -0.012439 0.007181 -0.086696
v -0.007181 0.012438 -0.086696
v 0.000000 0.000000 -0.086696
v 0.000000 0.014362 -0.086696
v 0.007181 0.012438 -0.086696
v 0.012438 0.007181 -0.086696
v 0.014362 0.000000 -0.086696
v 0.012438 -0.007181 -0.086696
v 0.007181 -0.012438 -0.086696
v 0.000000 -0.014362 -0.086696
v -0.007181 -0.012438 -0.086696
v -0.012439 -0.007181 -0.086696
v -0.014362 0.000000 -0.086696
v -0.008244 0.015018 -0.080598
v 0.000000 0.017249 -0.080609
v 0.000000 0.016411 -0.079528
v -0.007836 0.014371 -0.079579
v 0.008242 0.015018 -0.080598
v 0.007835 0.014371 -0.079579
v 0.000000 0.014532 -0.078406
v -0.006814 0.012695 -0.078379
v 0.006814 0.012695 -0.078379
v 0.017127 -0.000370 -0.080598
v 0.014937 -0.008624 -0.080609
v 0.014211 -0.008206 -0.079528
v 0.016364 -0.000399 -0.079579
v 0.008883 -0.014647 -0.080598
v 0.008528 -0.013972 -0.079579
v 0.012585 -0.007266 -0.078406
v 0.014401 -0.000447 -0.078379
v 0.007587 -0.012249 -0.078379
v -0.008884 -0.014647 -0.080598
v -0.014938 -0.008624 -0.080609
v -0.014213 -0.008206 -0.079528
v -0.008528 -0.013972 -0.079579
v -0.017128 -0.000370 -0.080598
v -0.016365 -0.000399 -0.079579
v -0.012586 -0.007266 -0.078406
v -0.007588 -0.012249 -0.078379
v -0.014401 -0.000447 -0.078379
v -0.006939 0.012502 -0.080598
v 0.000000 0.014362 -0.080598
v 0.006939 0.012502 -0.080598
v 0.014240 -0.000455 -0.080598
v 0.012438 -0.007181 -0.080598
v 0.007514 -0.012104 -0.080598
v -0.007442 -0.012177 -0.080598
v -0.012439 -0.007181 -0.080598
v -0.014266 -0.000358 -0.080598
v -0.015519 0.215731 0.010330
v -0.013471 0.215972 0.012364
v -0.010673 0.216058 0.013109
v -0.010673 0.214751 0.001994
v -0.013471 0.214839 0.002738
v -0.015519 0.215078 0.004773
v -0.016269 0.215404 0.007551
v -0.015677 0.213640 0.010668
v -0.013562 0.213888 0.012768
v -0.010673 0.213978 0.013537
v -0.010673 0.212628 0.002060
v -0.013562 0.212719 0.002829
v -0.015677 0.212966 0.004929
v -0.016451 0.213303 0.007799
v -0.016057 0.212796 0.010989
v -0.013782 0.213062 0.013249
v -0.010673 0.213159 0.014076
v -0.010673 0.211707 0.001726
v -0.013782 0.211804 0.002553
v -0.016057 0.212069 0.004813
v -0.016891 0.212433 0.007901
v -0.016438 0.213693 0.011105
v -0.014001 0.213977 0.013525
v -0.010673 0.214081 0.014410
v -0.010673 0.212526 0.001187
v -0.014001 0.212629 0.002072
v -0.016438 0.212914 0.004493
v -0.017331 0.213303 0.007799
v -0.016597 0.215805 0.010948
v -0.014093 0.216098 0.013434
v -0.010673 0.216204 0.014344
v -0.010673 0.214606 0.000759
v -0.014093 0.214713 0.001669
v -0.016597 0.215005 0.004155
v -0.017513 0.215404 0.007551
v -0.016438 0.217896 0.010610
v -0.014001 0.218180 0.013030
v -0.010673 0.218284 0.013916
v -0.010673 0.216729 0.000692
v -0.014001 0.216834 0.001578
v -0.016438 0.217118 0.003998
v -0.017331 0.217506 0.007304
v -0.016057 0.218740 0.010289
v -0.013782 0.219006 0.012550
v -0.010673 0.219104 0.013377
v -0.010673 0.217650 0.001026
v -0.013782 0.217748 0.001854
v -0.016057 0.218014 0.004114
v -0.016891 0.218377 0.007202
v -0.015677 0.217844 0.010173
v -0.013562 0.218091 0.012274
v -0.010673 0.218181 0.013043
v -0.010673 0.216831 0.001565
v -0.013562 0.216921 0.002334
v -0.015677 0.217169 0.004435
v -0.016451 0.217506 0.007304
v -0.015793 0.213983 0.010695
v -0.013629 0.214237 0.012844
v -0.010673 0.214329 0.013631
v -0.010673 0.212947 0.001888
v -0.013629 0.213040 0.002674
v -0.015793 0.213292 0.004823
v -0.016585 0.213638 0.007759
v -0.010673 0.213638 0.007759
v 0.011121 0.216058 0.013109
v 0.013920 0.215972 0.012364
v 0.011121 0.213978 0.013537
v 0.014011 0.213888 0.012768
v 0.015968 0.215731 0.010330
v 0.016126 0.213640 0.010668
v 0.016718 0.215404 0.007551
v 0.016900 0.213303 0.007799
v 0.015968 0.215078 0.004773
v 0.016126 0.212966 0.004929
v 0.013920 0.214839 0.002738
v 0.014011 0.212719 0.002829
v 0.011121 0.214751 0.001994
v 0.011121 0.212628 0.002060
v 0.011121 0.213159 0.014076
v 0.014230 0.213062 0.013249
v 0.016506 0.212796 0.010989
v 0.017339 0.212433 0.007901
v 0.016506 0.212069 0.004813
v 0.014230 0.211804 0.002553
v 0.011121 0.211707 0.001726
v 0.011121 0.214081 0.014410
v 0.014450 0.213977 0.013525
v 0.016887 0.213693 0.011105
v 0.017779 0.213303 0.007799
v 0.016887 0.212914 0.004493
v 0.014450 0.212629 0.002072
v 0.011121 0.212526 0.001187
v 0.011121 0.216204 0.014344
v 0.014541 0.216098 0.013434
v 0.017045 0.215805 0.010948
v 0.017961 0.215404 0.007551
v 0.017045 0.215005 0.004155
v 0.014541 0.214713 0.001669
v 0.011121 0.214606 0.000759
v 0.011121 0.218284 0.013916
v 0.014450 0.218180 0.013030
v 0.016887 0.217896 0.010610
v 0.017779 0.217506 0.007304
v 0.016887 0.217118 0.003998
v 0.014450 0.216834 0.001578
v 0.011121 0.216729 0.000692
v 0.011121 0.219104 0.013377
v 0.014230 0.219006 0.012550
v 0.016506 0.218740 0.010289
v 0.017339 0.218377 0.007202
v 0.016506 0.218014 0.004114
v 0.014230 0.217748 0.001854
v 0.011121 0.217650 0.001026
v 0.011121 0.218181 0.013043
v 0.014011 0.218091 0.012274
v 0.016126 0.217844 0.010173
v 0.016900 0.217506 0.007304
v 0.016126 0.217169 0.004435
v 0.014011 0.216921 0.002334
v 0.011121 0.216831 0.001565
v 0.011121 0.214329 0.013631
v 0.011121 0.213638 0.007759
v 0.014077 0.214237 0.012844
v 0.016242 0.213983 0.010695
v 0.017033 0.213638 0.007759
v 0.016242 0.213292 0.004823
v 0.014077 0.213040 0.002674
v 0.011121 0.212947 0.001888
vn -0.0000 0.9931 -0.1169
vn 0.0007 0.9931 -0.1170
vn -0.0000 0.9931 -0.1170
vn -0.0000 0.9932 -0.1168
vt -30.077850 0.866031
vt -30.070946 0.853987
vt -30.065889 0.859078
vt -30.064035 0.866031
vt -30.077850 0.917301
vt -30.064035 0.917301
vt -30.065889 0.924255
vt -30.070946 0.929346
vt -30.077850 0.931209
vt -30.084757 0.929346
vt -30.089813 0.924255
vt -30.091658 0.917301
vt -30.091658 0.866031
vt -30.089813 0.859078
vt -30.084757 0.853987
vt -30.077850 0.852124
s 1
usemtl M_Sink_21_2
f 662/1/1 655/2/1 656/3/2 657/4/1
f 720/5/1 719/6/1 721/7/3 722/8/1
f 720/5/1 722/8/1 723/9/1 724/10/4
f 720/5/1 724/10/4 725/11/4 726/12/4
f 662/1/1 658/13/4 659/14/4 660/15/4
f 662/1/1 660/15/4 661/16/1 655/2/1
f 662/1/1 657/4/1 719/6/1 720/5/1
f 658/13/4 662/1/1 720/5/1 726/12/4
