# Blender 4.1.1
# www.blender.org
mtllib AlarmClock_30_AlarmClock_30_0_GeomSubset_0.mtl
o AlarmClock_30_AlarmClock_30_0_GeomSubset_0
v 0.000500 0.003293 -0.328682
v -0.000500 0.003293 -0.328682
v 0.000500 0.004293 -0.328682
v -0.000500 0.004293 -0.328682
v 0.000500 0.003293 -0.328682
v -0.000500 0.003293 -0.328682
v 0.000500 0.004293 -0.328682
v -0.000500 0.004293 -0.328682
v 0.000500 0.003293 -0.328682
v -0.000500 0.003293 -0.328682
v 0.000500 0.004293 -0.328682
v -0.000500 0.004293 -0.328682
v 0.000500 0.003293 -0.328682
v -0.000500 0.003293 -0.328682
v 0.000500 0.004293 -0.328682
v -0.000500 0.004293 -0.328682
v 0.000500 0.003293 -0.328682
v -0.000500 0.003293 -0.328682
v 0.000500 0.004293 -0.328682
v -0.000500 0.004293 -0.328682
v 0.097968 -0.038451 -0.045456
v 0.098022 -0.039624 -0.042944
v 0.099900 -0.037817 -0.043627
v -0.099900 -0.037817 -0.043627
v -0.097968 -0.039607 -0.042894
v -0.097968 -0.038451 -0.045456
v 0.099900 0.002793 0.073889
v 0.097968 0.001005 0.074629
v 0.097968 0.003425 0.075720
v -0.097968 0.003425 0.075720
v -0.097910 0.000987 0.074574
v -0.099900 0.002793 0.073889
v 0.096843 0.015957 0.067805
v 0.099900 0.014449 0.069497
v 0.098065 0.015122 0.071266
v -0.096843 0.015957 0.067804
v -0.098030 0.015091 0.071279
v -0.099900 0.014497 0.069519
v 0.096371 -0.024198 -0.048059
v 0.097983 -0.026828 -0.049878
v 0.099900 -0.026166 -0.048145
v -0.096366 -0.024198 -0.048061
v -0.099900 -0.026190 -0.048094
v -0.098026 -0.026788 -0.049895
v 0.031850 -0.002764 0.007708
v 0.033107 -0.003839 0.010685
v 0.029922 -0.001773 0.009617
v -0.029920 -0.001773 0.009617
v -0.033082 -0.003848 0.010658
v -0.031847 -0.002764 0.007707
v -0.031869 -0.005491 0.000148
v -0.032805 -0.008394 -0.002462
v -0.029989 -0.006519 -0.001730
v 0.030007 -0.006482 -0.001647
v 0.032849 -0.008359 -0.002359
v 0.031883 -0.005462 0.000230
v 0.031840 0.017660 0.000424
v 0.031840 0.010467 0.007613
v 0.029946 0.012530 0.009617
v 0.029946 0.019629 0.002519
v -0.029946 0.019629 0.002519
v -0.029985 0.012569 0.009617
v -0.031840 0.010536 0.007649
v -0.031840 0.017660 0.000424
v -0.031840 0.010592 -0.006749
v -0.031840 0.003420 0.000409
v -0.029926 0.001518 -0.001583
v -0.029921 0.008642 -0.008685
v 0.029924 0.008642 -0.008682
v 0.029952 0.001542 -0.001571
v 0.031847 0.003416 0.000389
v 0.031840 0.010592 -0.006749
v 0.032875 0.020563 -0.067206
v 0.031840 0.017719 -0.065296
v 0.029941 0.019629 -0.065308
v -0.032875 0.020563 -0.067206
v -0.029924 0.019629 -0.065291
v -0.031840 0.017740 -0.065318
v -0.032739 0.007569 -0.067207
v -0.031840 0.010560 -0.065289
v -0.029954 0.008642 -0.065321
v 0.032739 0.007569 -0.067207
v 0.029931 0.008642 -0.065297
v 0.031840 0.010545 -0.065304
v 0.050259 0.036435 -0.067206
v 0.051278 0.038991 -0.069012
v 0.053463 0.037226 -0.069012
v -0.053463 0.037226 -0.069012
v -0.051317 0.038991 -0.068973
v -0.050297 0.036453 -0.067206
v -0.051522 0.037059 -0.078682
v -0.051151 0.038991 -0.076750
v -0.053490 0.037103 -0.076750
v 0.053490 0.037103 -0.076750
v 0.051327 0.038991 -0.076925
v 0.051523 0.037059 -0.078682
v -0.066888 -0.035018 -0.069084
v -0.068570 -0.033014 -0.069028
v -0.065570 -0.030987 -0.067207
v -0.066554 -0.033041 -0.078682
v -0.068547 -0.032909 -0.076765
v -0.066844 -0.035018 -0.076765
v 0.068557 -0.032953 -0.069083
v 0.066950 -0.035018 -0.069029
v 0.065570 -0.030987 -0.067207
v 0.066554 -0.033041 -0.078682
v 0.066844 -0.035018 -0.076765
v 0.068547 -0.032909 -0.076765
v -0.088017 -0.030978 -0.017925
v 0.088072 -0.030990 -0.017956
v -0.087976 -0.002259 0.065183
v 0.088034 -0.002242 0.065233
v -0.085093 -0.026366 -0.015238
v 0.085148 -0.026377 -0.015268
v -0.085056 -0.000434 0.059799
v 0.085114 -0.000421 0.059847
v -0.031840 0.015140 0.004888
v -0.031840 0.008049 -0.002318
v -0.029923 0.006122 -0.004282
v 0.029938 0.006133 -0.004275
v 0.031843 0.008045 -0.002328
v 0.031840 0.015104 0.004870
v 0.029946 0.017119 0.006920
v -0.029966 0.017140 0.006920
vn -0.0000 -0.0000 -1.0000
vn -0.5189 0.6677 0.5338
vn -0.7237 0.5997 0.3414
vn -0.6635 -0.3665 0.6523
vn -0.5028 -0.3239 0.8014
vn -0.5551 0.8156 0.1631
vn 0.5209 0.6715 0.5271
vn 0.5426 0.8259 0.1529
vn -0.5528 0.5167 -0.6538
vn -0.7391 0.2360 -0.6309
vn 0.7216 0.6063 0.3343
vn 0.5136 -0.3332 0.7907
vn 0.6724 -0.3687 0.6418
vn 0.7317 0.2448 -0.6362
vn 0.5397 0.5324 -0.6520
vn -0.5263 0.1669 -0.8337
vn -0.5132 -0.7503 -0.4169
vn -0.6546 -0.7052 -0.2726
vn 0.5213 0.1725 -0.8357
vn 0.6454 -0.7106 -0.2802
vn 0.5040 -0.7510 -0.4266
vn -0.3370 -0.9409 -0.0339
vn -0.3076 -0.6944 0.6506
vn 0.3336 -0.9420 -0.0371
vn 0.3105 -0.6967 0.6466
vn -0.7985 -0.5957 -0.0870
vn -0.5508 -0.5161 -0.6560
vn -0.6376 -0.3065 -0.7068
vn -0.8840 -0.0980 -0.4572
vn -0.3794 -0.9251 -0.0152
vn -0.6977 -0.4444 0.5620
vn -0.2457 -0.7924 0.5583
vn 0.3835 -0.9234 -0.0182
vn 0.5508 -0.5128 -0.6585
vn 0.8027 -0.5894 -0.0912
vn 0.8834 -0.0983 -0.4582
vn 0.6390 -0.3072 -0.7051
vn 0.2440 -0.7921 0.5596
vn 0.6998 -0.4420 0.5613
vn 0.3653 -0.4737 0.8014
vn 0.7470 0.1579 0.6457
vn 0.9127 0.1277 0.3881
vn -0.3691 -0.4699 0.8019
vn -0.9117 0.1292 0.3900
vn -0.7472 0.1625 0.6445
vn -0.9120 -0.3954 -0.1090
vn -0.6346 -0.6818 -0.3639
vn -0.4504 -0.6594 -0.6019
vn -0.7246 -0.2863 -0.6268
vn -0.8971 -0.3161 -0.3089
vn -0.9046 0.3978 0.1530
vn -0.9299 0.2610 0.2593
vn -0.6608 -0.5369 -0.5245
vn 0.6611 -0.5390 -0.5220
vn 0.6332 -0.6840 -0.3622
vn 0.9117 -0.3967 -0.1071
vn 0.7207 -0.2852 -0.6319
vn 0.4516 -0.6620 -0.5981
vn 0.8967 -0.3191 -0.3068
vn 0.9302 0.2610 0.2579
vn 0.9048 0.3976 0.1525
vn 0.7336 0.6073 0.3050
vn 0.4524 0.6185 -0.6425
vn 0.7255 0.3109 -0.6140
vn 0.7953 0.4360 0.4211
vn -0.7952 0.4353 0.4221
vn -0.7312 0.6099 0.3056
vn -0.7227 0.3102 -0.6176
vn -0.4536 0.6217 -0.6385
vn -0.3090 -0.2888 -0.9061
vn -0.3013 0.3034 -0.9040
vn 0.3096 -0.2879 -0.9062
vn 0.3001 0.3039 -0.9042
vn -0.0000 0.9452 -0.3266
vn -0.0001 0.5029 -0.8644
vn -0.7660 0.6077 -0.2096
vn -0.0002 0.9472 0.3207
vn 0.7664 0.6072 -0.2095
vn 0.7659 0.6078 -0.2097
vt -20.184292 -5.243518
vt -20.181309 -5.243518
vt -20.181309 -5.240534
vt -20.184292 -5.240534
vt -19.700262 0.654153
vt -19.701609 0.658016
vt -19.726225 0.648470
vt -19.724829 0.644807
vt -19.916124 0.497275
vt -19.921326 0.497164
vt -19.921326 0.091202
vt -19.916021 0.091202
vt -19.697783 0.659460
vt -19.783646 0.907915
vt -19.787424 0.906352
vt -19.640007 0.657919
vt -19.641354 0.654051
vt -19.616676 0.644660
vt -19.615408 0.648471
vt -19.643801 0.659472
vt -19.554092 0.906544
vt -19.557917 0.907993
vt -19.788755 0.910220
vt -19.813478 0.900808
vt -19.812056 0.897070
vt -20.013689 0.492769
vt -20.018591 0.492769
vt -20.018629 0.096070
vt -20.013689 0.095952
vt -19.552757 0.910417
vt -19.529335 0.897298
vt -19.528076 0.901022
vt -19.815241 0.893494
vt -19.730385 0.648652
vt -20.322596 0.494427
vt -20.329546 0.496882
vt -20.329573 0.103031
vt -20.322596 0.105415
vt -19.526243 0.893672
vt -19.611197 0.648539
vt -20.425217 0.500482
vt -20.430599 0.497184
vt -20.430599 0.102671
vt -20.425297 0.099271
vt -19.869839 0.781160
vt -19.871901 0.785130
vt -19.901638 0.785130
vt -19.897348 0.780963
vt -19.867605 0.787350
vt -19.864231 0.765612
vt -19.858208 0.760229
vt -20.279261 0.760093
vt -20.283390 0.766461
vt -20.283409 0.634127
vt -20.279261 0.640449
vt -19.996685 0.785457
vt -19.998745 0.781484
vt -19.971083 0.781364
vt -19.966860 0.785457
vt -20.001001 0.787622
vt -20.010456 0.760335
vt -20.004417 0.765763
vt -20.006557 0.761856
vt -19.989840 0.762164
vt -19.985884 0.766306
vt -20.310297 0.639069
vt -20.306522 0.633401
vt -20.306595 0.765590
vt -20.310369 0.759869
vt -19.862110 0.761709
vt -19.882690 0.765943
vt -19.878794 0.761868
vt -19.912304 0.766016
vt -19.916403 0.770371
vt -19.916403 0.629353
vt -19.912426 0.629378
vt -19.906990 0.775261
vt -19.897608 0.751102
vt -19.892317 0.760294
vt -20.186163 0.647957
vt -20.186163 0.639310
vt -20.068449 0.639310
vt -20.068487 0.647957
vt -19.952173 0.770694
vt -19.956268 0.766337
vt -19.956102 0.629609
vt -19.952173 0.629665
vt -19.961510 0.775622
vt -19.976257 0.760634
vt -19.970972 0.751419
vt -19.975023 0.747393
vt -19.975023 0.629603
vt -19.971033 0.629669
vt -20.290186 0.841496
vt -20.281525 0.841491
vt -20.281513 0.959282
vt -20.290182 0.959254
vt -19.893555 0.747084
vt -19.897512 0.629362
vt -19.893555 0.629375
vt -19.918343 0.625406
vt -19.891321 0.625405
vt -20.191916 0.784947
vt -20.186152 0.781217
vt -20.068533 0.781184
vt -20.062735 0.784947
vt -19.950230 0.625681
vt -19.977257 0.625681
vt -20.405342 0.835950
vt -20.401630 0.841431
vt -20.401585 0.959267
vt -20.405342 0.964794
vt -19.990061 0.095826
vt -19.989996 0.492965
vt -20.401424 0.099390
vt -20.401424 0.500454
vt -20.207821 0.233477
vt -20.207874 0.366415
vt -20.089884 0.106374
vt -20.181469 0.234033
vt -20.089888 0.493478
vt -20.181675 0.365898
vt -20.250582 0.640320
vt -20.250662 0.760142
vt -20.326529 0.759759
vt -20.326479 0.639197
vt -20.325994 0.500567
vt -20.326036 0.099275
vt -20.426571 0.504409
vt -20.426525 0.095435
vt -20.312368 0.635285
vt -20.312426 0.763645
vt -19.911180 0.779522
vt -19.957352 0.779847
vt -19.980267 0.756550
vt -19.888340 0.756247
vt -20.191874 0.833978
vt -20.198076 0.831722
vt -20.193907 0.827584
vt -20.206104 0.827106
vt -20.208441 0.834504
vt -20.213184 0.829702
vt -20.235596 0.803565
vt -20.237780 0.810826
vt -20.242355 0.806169
vt -20.227449 0.827513
vt -20.221159 0.829914
vt -20.225435 0.834174
vt -19.864290 0.111819
vt -19.864355 0.476660
vt -19.672638 0.091324
vt -19.692095 0.111905
vt -19.672527 0.497164
vt -19.691992 0.476582
vt -19.858725 0.117878
vt -19.858786 0.470602
vt -19.703249 0.117955
vt -19.703150 0.470531
vt -20.335773 0.759728
vt -20.335747 0.639202
vt -20.241444 0.640359
vt -20.241489 0.760142
s 1
usemtl M_AlarmClock_30_0
f 1/1/1 2/2/1 4/3/1 3/4/1
f 21/5/2 23/6/3 41/7/4 40/8/5
f 22/9/6 21/10/2 26/11/7 25/12/8
f 23/6/3 22/13/6 28/14/9 27/15/10
f 24/16/11 26/17/7 44/18/12 43/19/13
f 25/20/8 24/16/11 32/21/14 31/22/15
f 27/15/10 29/23/16 35/24/17 34/25/18
f 29/26/16 28/27/9 31/28/15 30/29/19
f 30/30/19 32/21/14 38/31/20 37/32/21
f 34/25/18 33/33/22 39/34/23 41/7/4
f 33/35/22 35/36/17 37/37/21 36/38/24
f 36/39/24 38/31/20 43/19/13 42/40/25
f 40/41/5 39/42/23 42/43/25 44/44/12
f 45/45/26 47/46/27 59/47/28 58/48/29
f 46/49/30 45/45/26 56/50/31 55/51/32
f 47/52/27 46/53/30 49/54/33 48/55/34
f 48/56/34 50/57/35 63/58/36 62/59/37
f 50/57/35 49/60/33 52/61/38 51/62/39
f 51/62/39 53/63/40 67/64/41 66/65/42
f 53/66/40 52/67/38 55/68/32 54/69/43
f 54/70/43 56/50/31 71/71/44 70/72/45
f 57/73/46 60/74/47 75/75/48 74/76/49
f 122/77/50 57/73/46 72/78/51 121/79/52
f 60/80/47 123/81/53 124/82/54 61/83/55
f 61/84/55 64/85/56 78/86/57 77/87/58
f 64/85/56 117/88/59 118/89/60 65/90/61
f 65/90/61 68/91/62 81/92/63 80/93/64
f 68/94/62 119/95/65 120/96/66 69/97/67
f 69/98/67 72/78/51 84/99/68 83/100/69
f 74/76/49 73/101/70 82/102/71 84/99/68
f 73/103/70 75/104/48 77/105/58 76/106/72
f 76/107/72 78/86/57 80/93/64 79/108/73
f 79/109/73 81/110/63 83/111/69 82/112/71
f 29/26/16 30/29/19 37/113/21 35/114/17
f 40/41/5 44/44/12 26/115/7 21/116/2
f 24/16/11 43/19/13 38/31/20 32/21/14
f 41/7/4 23/6/3 27/15/10 34/25/18
f 33/35/22 36/38/24 49/117/33 46/118/30
f 36/38/24 42/119/25 52/120/38 49/117/33
f 42/119/25 39/121/23 55/122/32 52/120/38
f 39/121/23 33/35/22 46/118/30 55/122/32
f 47/52/27 48/55/34 62/123/37 59/124/28
f 50/57/35 51/62/39 66/65/42 63/58/36
f 53/66/40 54/69/43 70/125/45 67/126/41
f 56/50/31 45/45/26 58/48/29 71/71/44
f 60/80/47 61/83/55 77/105/58 75/104/48
f 64/85/56 65/90/61 80/93/64 78/86/57
f 68/94/62 69/97/67 83/111/69 81/110/63
f 72/78/51 57/73/46 74/76/49 84/99/68
f 21/5/2 22/13/6 23/6/3
f 24/16/11 25/20/8 26/17/7
f 27/15/10 28/14/9 29/23/16
f 30/30/19 31/22/15 32/21/14
f 33/35/22 34/127/18 35/36/17
f 36/38/24 37/37/21 38/128/20
f 39/42/23 40/41/5 41/129/4
f 42/43/25 43/130/13 44/44/12
f 45/45/26 46/49/30 47/46/27
f 48/56/34 49/60/33 50/57/35
f 51/131/39 52/67/38 53/66/40
f 54/69/43 55/68/32 56/132/31
f 57/73/46 122/77/50 123/133/53 60/74/47
f 61/84/55 124/134/54 117/88/59 64/85/56
f 65/90/61 118/89/60 119/135/65 68/91/62
f 69/98/67 120/136/66 121/79/52 72/78/51
f 73/137/70 74/138/49 75/139/48
f 76/140/72 77/141/58 78/142/57
f 79/143/73 80/144/64 81/145/63
f 82/146/71 83/147/69 84/148/68
f 22/9/74 25/12/74 109/149/74 110/150/74
f 25/12/74 31/151/74 111/152/74 109/149/74
f 31/151/74 28/153/74 112/154/74 111/152/74
f 28/153/74 22/9/74 110/150/74 112/154/74
f 110/150/75 109/149/75 113/155/75 114/156/75
f 109/149/76 111/152/76 115/157/76 113/155/76
f 111/152/77 112/154/77 116/158/77 115/157/77
f 112/154/78 110/150/78 114/156/78 116/158/79
f 117/88/59 63/58/36 66/65/42 118/89/60
f 119/135/65 118/89/60 66/65/42 67/64/41
f 120/159/66 119/160/65 67/126/41 70/125/45
f 121/79/52 120/136/66 70/72/45 71/71/44
f 58/48/29 122/77/50 121/79/52 71/71/44
f 123/133/53 122/77/50 58/48/29 59/47/28
f 124/161/54 123/162/53 59/124/28 62/123/37
f 117/88/59 124/134/54 62/59/37 63/58/36
