# Blender 4.1.0
# www.blender.org
mtllib FridgeDrawer2_15_FridgeDrawer2C3_2_GeomSubset_4.mtl
o FridgeDrawer2_15_FridgeDrawer2C3_2_GeomSubset_4
v 0.000162 0.042564 -0.884604
v 0.000172 0.042564 -0.884604
v 0.000162 0.042573 -0.884604
v 0.000172 0.042573 -0.884604
v 0.000162 0.042564 -0.884604
v 0.000172 0.042564 -0.884604
v 0.000162 0.042573 -0.884604
v 0.000172 0.042573 -0.884604
v 0.000162 0.042564 -0.884604
v 0.000172 0.042564 -0.884604
v 0.000162 0.042573 -0.884604
v 0.000172 0.042573 -0.884604
v 0.000162 0.042564 -0.884604
v 0.000172 0.042564 -0.884604
v 0.000162 0.042573 -0.884604
v 0.000172 0.042573 -0.884604
v 0.000162 0.042564 -0.884604
v 0.000172 0.042564 -0.884604
v 0.000162 0.042573 -0.884604
v 0.000172 0.042573 -0.884604
v 0.000162 0.042564 -0.884604
v 0.000172 0.042564 -0.884604
v 0.000162 0.042573 -0.884604
v 0.000172 0.042573 -0.884604
v 0.000162 0.042564 -0.884604
v 0.000172 0.042564 -0.884604
v 0.000162 0.042573 -0.884604
v 0.000172 0.042573 -0.884604
v 0.029354 0.157252 0.046485
v 0.470528 0.157250 0.046485
v 0.029354 0.088797 -0.053823
v 0.029354 0.083926 -0.056348
v 0.470528 0.083925 -0.056348
v 0.470528 0.088796 -0.053823
v 0.029354 0.157252 0.053365
v 0.029354 0.088797 0.053365
v 0.029354 0.083926 0.053365
v 0.029353 -0.164553 0.053365
v 0.470528 0.088796 0.053365
v 0.470528 0.157250 0.053365
v 0.470528 0.083925 0.053365
v 0.470527 -0.164554 0.053365
v 0.470527 -0.128288 -0.056348
v 0.470527 -0.148408 -0.037075
v 0.029353 -0.148407 -0.037074
v 0.029353 -0.128287 -0.056348
v 0.029353 -0.146875 -0.044450
v 0.470527 -0.146877 -0.044450
v 0.029353 -0.142514 -0.050702
v 0.470527 -0.142515 -0.050702
v 0.029353 -0.135986 -0.054880
v 0.470527 -0.135988 -0.054880
v 0.034147 0.149020 0.048834
v 0.465734 0.149019 0.048834
v 0.463087 0.084230 -0.049070
v 0.036795 0.084231 -0.049070
v 0.465892 -0.139888 -0.035565
v 0.463199 -0.157802 0.054471
v 0.036681 -0.157801 0.054471
v 0.033988 -0.139887 -0.035565
v 0.463087 0.082270 -0.050086
v 0.036795 0.082271 -0.050086
v 0.039717 0.088797 0.053365
v 0.036682 0.150401 0.053365
v 0.039717 0.083926 0.053365
v 0.465820 -0.138903 -0.041286
v 0.465820 -0.136412 -0.044856
v 0.465820 -0.132685 -0.047242
v 0.465875 -0.127439 -0.048095
v 0.460164 0.083925 0.053365
v 0.463200 0.150400 0.053365
v 0.460164 0.088796 0.053365
v 0.034006 -0.127438 -0.048095
v 0.034060 -0.132683 -0.047242
v 0.034060 -0.136411 -0.044856
v 0.034060 -0.138902 -0.041286
v 0.039124 0.083590 0.032374
v 0.036020 -0.153404 0.032374
v 0.460758 0.083589 0.032374
v 0.460764 0.087860 0.032374
v 0.465289 0.138126 0.032374
v 0.463860 -0.153406 0.032374
v 0.039118 0.087862 0.032374
v 0.034593 0.138128 0.032374
v 0.029354 0.147622 0.032374
v 0.470528 0.147620 0.032374
v 0.470527 -0.160807 0.032374
v 0.029353 -0.160806 0.032374
v 0.029354 0.088797 0.032374
v 0.029354 0.083926 0.032374
v 0.470528 0.083925 0.032374
v 0.470528 0.088796 0.032374
v 0.029353 -0.178215 0.053365
v 0.470527 -0.178216 0.053365
v 0.470527 -0.174469 0.032374
v 0.029353 -0.174467 0.032374
vn -0.0000 -0.0000 1.0000
vn -0.0000 0.3389 0.9408
vn -0.0000 0.0133 0.9999
vn 0.0007 0.0133 0.9999
vn -0.0000 0.6918 0.7221
vn -0.0000 0.9369 0.3495
vn -0.0000 0.9369 0.3496
vn -0.0000 0.9812 0.1931
vn -0.0000 0.0045 1.0000
vn -0.0000 -0.8280 0.5608
vn -0.0000 0.8123 -0.5833
vn -0.0000 0.0118 -0.9999
vn -0.0001 -0.0067 -1.0000
vn -0.0000 -0.0067 -1.0000
vn -0.0000 -0.9840 -0.1784
vn -0.0000 -0.9179 -0.3968
vn -0.0000 -0.6918 -0.7221
vn -0.0000 -0.3687 -0.9296
vn -0.0000 -0.3689 -0.9295
vn 0.9995 -0.0132 -0.0290
vn 0.9995 -0.0134 -0.0294
vn 0.9995 -0.0137 -0.0287
vn 0.9995 -0.0136 -0.0287
vn -0.9995 -0.0133 -0.0291
vn -0.9954 0.0799 -0.0523
vn -0.9976 0.0625 -0.0312
vn -0.9995 -0.0135 -0.0287
vn -0.9939 0.0868 -0.0677
vn -0.9995 -0.0137 -0.0287
vn -0.9995 -0.0135 -0.0292
vn 0.9976 0.0625 -0.0312
vn 0.9954 0.0798 -0.0523
vn 0.9939 0.0868 -0.0677
vn -0.0000 0.9808 0.1951
vn -0.0000 -0.8339 0.5519
vn -0.0000 0.8260 -0.5637
vn -0.0000 -0.9844 -0.1758
vn -1.0000 -0.0000 -0.0000
vn 1.0000 -0.0000 -0.0000
vt -68.793945 -112.227509
vt -68.793945 -112.227524
vt -68.793938 -112.227524
vt -68.793938 -112.227509
vt -71.582649 -1.027437
vt -71.567062 -1.027599
vt -71.567062 0.255664
vt -71.582649 0.255502
vt -71.593719 -1.027437
vt -71.593719 0.255502
vt -71.601120 -1.027437
vt -71.601120 0.255502
vt -71.343094 -0.985303
vt -71.327217 -0.985102
vt -71.327217 0.213216
vt -71.343094 0.213415
vt -70.943924 0.247378
vt -70.943924 -1.019314
vt -70.938103 -1.019314
vt -70.938103 0.247378
vt -72.053352 -1.036425
vt -72.038849 -1.036425
vt -72.038849 0.276812
vt -72.053352 0.276812
vt -71.407158 -1.036425
vt -71.407158 0.276812
vt -71.622498 -0.991164
vt -71.622498 0.231551
vt -71.642937 0.231551
vt -71.642937 -0.991164
vt -71.351830 -1.036425
vt -71.351830 0.276812
vt -71.364807 0.276812
vt -71.364807 -1.036425
vt -71.384239 0.276812
vt -71.384239 -1.036425
vt -71.177551 -0.153922
vt -71.177551 0.497901
vt -71.364410 0.460723
vt -71.380142 0.458014
vt -71.389961 0.451163
vt -71.396530 0.440911
vt -71.398872 0.426484
vt -71.404350 -0.150294
vt -71.292885 0.347950
vt -71.292885 0.359698
vt -71.516884 0.349713
vt -71.519676 0.344322
vt -71.292885 0.497949
vt -71.514206 -0.232458
vt -71.511856 -0.246885
vt -71.505295 -0.257137
vt -71.495476 -0.263988
vt -71.479736 -0.266697
vt -71.292885 -0.303875
vt -71.401550 -0.155686
vt -71.177551 -0.165670
vt -71.177551 -0.303921
vt -71.531654 0.207775
vt -71.531654 -0.979663
vt -70.777954 -1.025858
vt -70.777954 0.253922
vt -72.228455 -1.036425
vt -72.228455 0.276812
vt -71.430023 0.231551
vt -71.430023 -0.991164
vt -70.925896 0.370413
vt -70.925896 0.532130
vt -71.162865 0.370413
vt -70.925896 0.357022
vt -71.169807 0.357022
vt -71.049522 -0.140670
vt -71.049522 0.532131
vt -71.240448 0.498045
vt -71.260719 0.493835
vt -71.277908 0.481844
vt -71.289398 0.463899
vt -71.293427 0.442731
vt -71.293427 -0.140670
vt -71.049522 -0.315778
vt -71.049522 -0.154061
vt -71.286491 -0.154061
vt -71.169807 -0.226378
vt -71.165771 -0.247545
vt -71.154289 -0.265490
vt -71.137100 -0.277481
vt -71.116821 -0.281691
vt -70.925896 -0.315777
s 1
usemtl M_FridgeDrawer2C3_4
f 17/1/1 18/2/1 20/3/1 19/4/1
f 68/5/2 69/6/3 73/7/4 74/8/2
f 67/9/5 68/5/2 74/8/2 75/10/5
f 66/11/6 67/9/5 75/10/5 76/12/7
f 57/13/8 66/14/6 76/15/7 60/16/8
f 62/17/9 73/7/4 69/6/3 61/18/9
f 55/19/10 56/20/10 62/17/9 61/18/9
f 34/21/11 33/22/12 32/23/12 31/24/11
f 32/23/12 33/22/12 43/25/13 46/26/14
f 44/27/15 45/28/15 47/29/16 48/30/16
f 48/31/16 47/32/16 49/33/17 50/34/17
f 50/34/17 49/33/17 51/35/18 52/36/19
f 52/36/19 51/35/18 46/26/14 43/25/13
f 77/37/20 78/38/21 60/39/22 76/40/22 75/41/22 74/42/22 73/43/22 62/44/23
f 79/45/24 80/46/25 55/47/26 61/48/27
f 80/46/25 81/49/28 55/47/26
f 79/45/24 61/48/27 69/50/29 68/51/29 67/52/29 66/53/29 57/54/29 82/55/30
f 77/37/20 62/44/23 56/56/31 83/57/32
f 83/57/32 56/56/31 84/58/33
f 57/13/8 60/16/8 78/59/34 82/60/34
f 81/61/35 84/62/35 56/20/10 55/19/10
f 86/63/36 34/21/11 31/24/11 85/64/36
f 88/65/37 45/28/15 44/27/15 87/66/37
f 89/67/38 85/68/38 31/69/38
f 90/70/38 89/67/38 31/69/38 32/71/38
f 91/72/39 87/73/39 44/74/39 48/75/39 50/76/39 52/77/39 43/78/39 33/79/39
f 86/80/39 92/81/39 34/82/39
f 91/72/39 33/79/39 34/82/39 92/81/39
f 90/70/38 32/71/38 46/83/38 51/84/38 49/85/38 47/86/38 45/87/38 88/88/38
