# Blender 4.1.1
# www.blender.org
mtllib MeshFridgeMaindoor1C3_4_GeomSubset_3.mtl
o MeshFridgeMaindoor1C3_4_GeomSubset_3
v -0.000162 0.034965 -0.884604
v -0.000172 0.034965 -0.884604
v -0.000162 0.034974 -0.884604
v -0.000172 0.034974 -0.884604
v -0.000162 0.034965 -0.884604
v -0.000172 0.034965 -0.884604
v -0.000162 0.034974 -0.884604
v -0.000172 0.034974 -0.884604
v -0.000162 0.034965 -0.884604
v -0.000172 0.034965 -0.884604
v -0.000162 0.034974 -0.884604
v -0.000172 0.034974 -0.884604
v -0.000162 0.034965 -0.884604
v -0.000172 0.034965 -0.884604
v -0.000162 0.034974 -0.884604
v -0.000172 0.034974 -0.884604
v -0.000162 0.034965 -0.884604
v -0.000172 0.034965 -0.884604
v -0.000162 0.034974 -0.884604
v -0.000172 0.034974 -0.884604
v -0.000162 0.034965 -0.884604
v -0.000172 0.034965 -0.884604
v -0.000162 0.034974 -0.884604
v -0.000172 0.034974 -0.884604
v -0.000162 0.034965 -0.884604
v -0.000172 0.034965 -0.884604
v -0.000162 0.034974 -0.884604
v -0.000172 0.034974 -0.884604
v 0.572220 -0.282343 0.849388
v 0.004886 -0.294764 0.849388
v 0.572220 -0.282343 -0.156329
v 0.004886 -0.294764 -0.156329
v 0.004886 -0.195656 0.849388
v 0.572220 -0.195655 0.849388
v 0.004886 -0.195656 -0.156329
v 0.572220 -0.195654 -0.156329
v 0.572220 -0.282343 0.871041
v 0.004886 -0.294764 0.871041
v 0.004886 -0.195656 0.871041
v 0.572220 -0.195655 0.871041
v 0.091248 -0.195656 0.773561
v 0.067864 -0.195656 0.752622
v 0.505256 -0.195655 0.752622
v 0.481872 -0.195655 0.773561
v 0.067864 -0.195656 -0.075428
v 0.091248 -0.195656 -0.096367
v 0.481872 -0.195655 -0.096367
v 0.505256 -0.195655 -0.075428
v 0.091248 -0.272408 0.773561
v 0.067864 -0.272408 0.752622
v 0.505256 -0.272407 0.752622
v 0.481872 -0.272407 0.773561
v 0.067864 -0.272408 -0.075428
v 0.091248 -0.272408 -0.096367
v 0.505256 -0.272407 -0.075428
v 0.481872 -0.272407 -0.096367
v 0.515354 -0.195655 0.803542
v 0.538738 -0.195655 0.782604
v 0.059759 -0.195656 0.803542
v 0.036375 -0.195656 0.782604
v 0.036375 -0.195656 -0.105409
v 0.059759 -0.195656 -0.126348
v 0.515354 -0.195655 -0.126348
v 0.538738 -0.195655 -0.105409
v 0.059227 -0.186962 0.760354
v 0.082612 -0.186962 0.781294
v 0.490508 -0.186961 0.781294
v 0.513892 -0.186961 0.760354
v 0.082612 -0.186962 -0.104100
v 0.059228 -0.186962 -0.083161
v 0.513892 -0.186961 -0.083161
v 0.490508 -0.186961 -0.104100
v 0.530102 -0.186961 0.774870
v 0.506718 -0.186961 0.795809
v 0.045011 -0.186962 0.774870
v 0.068395 -0.186962 0.795809
v 0.045011 -0.186962 -0.097676
v 0.068395 -0.186962 -0.118615
v 0.530102 -0.186961 -0.097676
v 0.506718 -0.186961 -0.118615
v 0.074713 -0.195656 0.767427
v 0.074713 -0.272408 0.767427
v 0.498407 -0.272407 0.767427
v 0.498407 -0.195655 0.767427
v 0.074713 -0.195656 -0.090234
v 0.074713 -0.272408 -0.090234
v 0.498407 -0.195655 -0.090234
v 0.498407 -0.272407 -0.090234
v 0.523253 -0.186961 0.789676
v 0.507043 -0.186961 0.775161
v 0.507043 -0.186961 -0.097967
v 0.523253 -0.186961 -0.112482
v 0.066077 -0.186962 -0.097967
v 0.051860 -0.186962 -0.112482
v 0.066077 -0.186962 0.775161
v 0.051860 -0.186962 0.789676
v 0.043224 -0.195656 0.797409
v 0.531889 -0.195655 0.797409
v 0.043224 -0.195656 -0.120215
v 0.531889 -0.195655 -0.120215
v 0.572220 -0.282343 0.857526
v 0.004886 -0.294764 0.857526
v 0.004886 -0.195656 0.857526
v 0.572220 -0.195655 0.857526
v 0.572220 -0.288553 0.871041
v 0.004886 -0.300975 0.871041
v 0.572220 -0.288553 0.857526
v 0.004886 -0.300975 0.857526
v 0.383109 -0.294763 -0.156329
v 0.383202 -0.297248 0.849388
v 0.383109 -0.195655 0.871041
v 0.383109 -0.294763 0.871041
v 0.383109 -0.195655 -0.156329
v 0.383109 -0.195655 -0.126348
v 0.383109 -0.186961 -0.118615
v 0.383109 -0.195655 0.803542
v 0.383109 -0.186961 0.795809
v 0.383109 -0.195655 -0.096367
v 0.383109 -0.186961 -0.104100
v 0.383109 -0.195655 0.773561
v 0.383109 -0.186961 0.781294
v 0.383109 -0.195655 0.849388
v 0.383109 -0.272407 -0.096367
v 0.383109 -0.272407 0.773561
v 0.383109 -0.300974 0.871041
v 0.383109 -0.300974 0.857526
v 0.383109 -0.294763 0.857526
v 0.383109 -0.195655 0.857526
v 0.570286 -0.284960 0.849388
v 0.007012 -0.297249 0.849388
v 0.570286 -0.284960 -0.154426
v 0.007012 -0.297249 -0.154426
v 0.570286 -0.284960 0.855622
v 0.007012 -0.297249 0.855622
v 0.383202 -0.297248 -0.154426
v 0.383202 -0.297248 0.855622
v 0.569563 -0.280027 -0.157519
v 0.007543 -0.292281 -0.157519
v 0.007543 -0.198139 -0.157519
v 0.569563 -0.198137 -0.157519
v 0.383016 -0.292280 -0.157519
v 0.383109 -0.198138 -0.157519
v 0.000227 -0.291671 0.849394
v 0.000221 -0.291677 -0.153357
v 0.000214 -0.198733 0.849394
v 0.000201 -0.198720 -0.153357
v 0.000236 -0.291660 0.854553
v 0.000235 -0.198762 0.854553
v 0.075639 -0.275255 0.211479
v 0.504528 -0.275253 0.211479
v 0.504528 -0.275253 0.095348
v 0.488983 -0.275253 0.082023
v 0.090520 -0.275255 0.082023
v 0.075639 -0.275255 0.095348
v 0.504528 -0.210792 0.095348
v 0.489647 -0.196880 0.095348
v 0.488983 -0.210792 0.082023
v 0.090520 -0.196881 0.095348
v 0.075639 -0.210793 0.095348
v 0.090520 -0.210793 0.082023
v 0.075639 -0.210793 0.211479
v 0.090520 -0.196881 0.211479
v 0.489647 -0.196880 0.211479
v 0.504528 -0.210792 0.211479
v 0.090520 -0.200957 0.085926
v 0.489647 -0.200956 0.085926
v 0.079998 -0.275255 0.085926
v 0.079998 -0.210793 0.085926
v 0.499505 -0.275253 0.085926
v 0.499505 -0.210792 0.085926
v 0.079998 -0.200957 0.211479
v 0.079998 -0.200957 0.095348
v 0.500169 -0.200956 0.095348
v 0.500169 -0.200956 0.211479
v 0.498717 -0.202314 0.087227
v 0.081450 -0.202315 0.087227
v 0.087066 -0.264574 0.211241
v 0.493101 -0.264573 0.211241
v 0.087065 -0.212917 0.211241
v 0.092793 -0.207564 0.211241
v 0.487374 -0.207563 0.211241
v 0.493101 -0.212916 0.211241
v 0.088743 -0.209131 0.211241
v 0.491424 -0.209130 0.211241
v 0.087066 -0.264574 0.100226
v 0.493101 -0.264572 0.100226
v 0.087065 -0.212917 0.100226
v 0.092793 -0.207564 0.100226
v 0.486975 -0.207563 0.100226
v 0.493101 -0.212916 0.100226
v 0.088743 -0.209131 0.100226
v 0.491025 -0.209130 0.100226
v 0.075644 -0.275250 0.222070
v 0.504523 -0.275249 0.222070
v 0.075771 -0.210817 0.222068
v 0.090546 -0.197005 0.222068
v 0.489621 -0.197004 0.222068
v 0.504396 -0.210816 0.222068
v 0.080075 -0.201029 0.222068
v 0.500092 -0.201028 0.222068
v 0.087336 -0.264322 0.221827
v 0.492831 -0.264320 0.221827
v 0.087463 -0.212990 0.221824
v 0.092872 -0.207935 0.221824
v 0.487295 -0.207934 0.221824
v 0.492704 -0.212989 0.221824
v 0.089024 -0.209395 0.221825
v 0.491142 -0.209394 0.221825
v 0.073647 -0.277117 0.214216
v 0.506520 -0.277116 0.214216
v 0.073680 -0.210429 0.214236
v 0.090130 -0.195052 0.214236
v 0.490037 -0.195050 0.214236
v 0.506487 -0.210428 0.214236
v 0.078492 -0.199550 0.214233
v 0.501674 -0.199549 0.214233
v 0.073648 -0.277115 0.219335
v 0.506520 -0.277113 0.219335
v 0.073744 -0.210442 0.219352
v 0.090146 -0.195110 0.219352
v 0.490021 -0.195109 0.219352
v 0.506423 -0.210441 0.219352
v 0.078528 -0.199584 0.219350
v 0.501638 -0.199582 0.219350
v 0.075639 -0.275255 0.567616
v 0.504528 -0.275253 0.567616
v 0.504528 -0.275253 0.451484
v 0.488983 -0.275253 0.438160
v 0.090520 -0.275255 0.438160
v 0.075639 -0.275255 0.451484
v 0.504528 -0.210792 0.451484
v 0.489647 -0.196880 0.451484
v 0.488983 -0.210792 0.438160
v 0.090520 -0.196881 0.451484
v 0.075639 -0.210793 0.451484
v 0.090520 -0.210793 0.438160
v 0.075639 -0.210793 0.567616
v 0.090520 -0.196881 0.567616
v 0.489647 -0.196880 0.567616
v 0.504528 -0.210792 0.567616
v 0.090520 -0.200957 0.442063
v 0.489647 -0.200956 0.442063
v 0.079998 -0.275255 0.442063
v 0.079998 -0.210793 0.442063
v 0.499505 -0.275253 0.442063
v 0.499505 -0.210792 0.442063
v 0.079998 -0.200957 0.567616
v 0.079998 -0.200957 0.451484
v 0.500169 -0.200956 0.451484
v 0.500169 -0.200956 0.567616
v 0.498717 -0.202314 0.443364
v 0.081450 -0.202315 0.443364
v 0.087066 -0.264574 0.567378
v 0.493101 -0.264573 0.567378
v 0.087065 -0.212917 0.567378
v 0.092793 -0.207564 0.567378
v 0.487374 -0.207563 0.567378
v 0.493101 -0.212916 0.567378
v 0.088743 -0.209131 0.567378
v 0.491424 -0.209130 0.567378
v 0.087066 -0.264574 0.456362
v 0.493101 -0.264573 0.456362
v 0.087065 -0.212917 0.456362
v 0.092793 -0.207564 0.456362
v 0.486975 -0.207563 0.456362
v 0.493101 -0.212916 0.456362
v 0.088743 -0.209131 0.456362
v 0.491025 -0.209130 0.456362
v 0.075644 -0.275250 0.578207
v 0.504523 -0.275249 0.578207
v 0.075771 -0.210817 0.578204
v 0.090546 -0.197005 0.578204
v 0.489621 -0.197004 0.578204
v 0.504396 -0.210816 0.578204
v 0.080075 -0.201029 0.578205
v 0.500092 -0.201028 0.578205
v 0.087336 -0.264322 0.577964
v 0.492831 -0.264320 0.577964
v 0.087463 -0.212990 0.577961
v 0.092872 -0.207935 0.577961
v 0.487295 -0.207934 0.577961
v 0.492704 -0.212989 0.577961
v 0.089024 -0.209395 0.577962
v 0.491142 -0.209394 0.577962
v 0.073647 -0.277117 0.570354
v 0.506520 -0.277116 0.570354
v 0.073680 -0.210429 0.570373
v 0.090130 -0.195052 0.570373
v 0.490037 -0.195051 0.570373
v 0.506487 -0.210428 0.570373
v 0.078492 -0.199550 0.570370
v 0.501674 -0.199549 0.570370
v 0.073648 -0.277115 0.575472
v 0.506520 -0.277113 0.575472
v 0.073744 -0.210442 0.575489
v 0.090146 -0.195110 0.575489
v 0.490021 -0.195109 0.575489
v 0.506423 -0.210441 0.575489
v 0.078528 -0.199584 0.575487
v 0.501638 -0.199582 0.575487
v 0.266183 -0.299142 0.373745
v 0.255749 -0.299142 0.442950
v 0.230169 -0.299142 0.439094
v 0.205337 -0.299142 0.435349
v 0.198617 -0.299142 0.363559
v 0.188183 -0.299142 0.432763
v 0.119308 -0.305330 -0.114343
v 0.119313 -0.315158 -0.104598
v 0.112391 -0.308559 -0.102272
v 0.154943 -0.308525 -0.102252
v 0.148034 -0.315136 -0.104585
v 0.148030 -0.305307 -0.114330
v 0.112071 -0.308649 0.775763
v 0.118991 -0.315417 0.777356
v 0.118981 -0.306413 0.788149
v 0.147702 -0.306391 0.788162
v 0.147714 -0.315394 0.777370
v 0.154623 -0.308616 0.775783
v 0.112065 -0.299617 0.773642
v 0.118975 -0.297382 0.786028
v 0.118976 -0.292840 0.772046
v 0.147697 -0.292829 0.772068
v 0.147696 -0.297358 0.786042
v 0.154617 -0.299584 0.773662
v 0.112382 -0.299750 -0.099165
v 0.119292 -0.292990 -0.096833
v 0.119300 -0.296521 -0.111236
v 0.148022 -0.296498 -0.111222
v 0.148014 -0.292978 -0.096819
v 0.154934 -0.299717 -0.099145
v 0.119283 -0.332885 -0.030239
v 0.112377 -0.326188 -0.028234
v 0.147995 -0.332738 -0.031091
v 0.154914 -0.325971 -0.029496
v 0.119282 -0.344618 0.043977
v 0.112361 -0.337761 0.044944
v 0.148001 -0.344558 0.043572
v 0.154910 -0.337671 0.044345
v 0.119032 -0.351886 0.117452
v 0.112111 -0.344992 0.117966
v 0.147754 -0.351849 0.117244
v 0.154662 -0.344937 0.117657
v 0.119010 -0.356414 0.190570
v 0.112087 -0.349512 0.190909
v 0.147731 -0.356382 0.190437
v 0.154639 -0.349465 0.190713
v 0.118984 -0.359096 0.263897
v 0.112062 -0.352186 0.263899
v 0.147705 -0.359073 0.263910
v 0.154614 -0.352153 0.263919
v 0.118957 -0.359315 0.336796
v 0.112036 -0.352406 0.336798
v 0.147678 -0.359292 0.336809
v 0.154588 -0.352372 0.336818
v 0.118930 -0.359185 0.409695
v 0.112009 -0.352276 0.409697
v 0.147652 -0.359163 0.409708
v 0.154561 -0.352242 0.409717
v 0.118899 -0.356591 0.482947
v 0.111980 -0.349683 0.482674
v 0.147620 -0.356571 0.483081
v 0.154532 -0.349654 0.482872
v 0.118866 -0.352149 0.556102
v 0.111949 -0.345250 0.555630
v 0.147588 -0.352130 0.556321
v 0.154500 -0.345220 0.555955
v 0.119063 -0.345002 0.629141
v 0.112145 -0.338106 0.628560
v 0.147783 -0.344982 0.629407
v 0.154697 -0.338077 0.628956
v 0.119003 -0.333407 0.703289
v 0.112104 -0.326612 0.701735
v 0.147719 -0.333359 0.703981
v 0.154647 -0.326541 0.702760
v 0.119053 -0.310717 0.698664
v 0.112123 -0.317534 0.699885
v 0.147767 -0.310669 0.699355
v 0.154667 -0.317463 0.700909
v 0.119059 -0.322000 0.627421
v 0.112145 -0.328904 0.627873
v 0.147779 -0.321980 0.627688
v 0.154695 -0.328875 0.628268
v 0.118859 -0.329129 0.554705
v 0.111946 -0.336039 0.555072
v 0.147581 -0.329109 0.554925
v 0.154497 -0.336011 0.555397
v 0.118886 -0.333549 0.482142
v 0.111974 -0.340465 0.482352
v 0.147608 -0.333529 0.482276
v 0.154526 -0.340437 0.482549
v 0.118913 -0.336133 0.409713
v 0.112001 -0.343054 0.409704
v 0.147634 -0.336110 0.409726
v 0.154554 -0.343020 0.409724
v 0.118938 -0.336263 0.336814
v 0.112028 -0.343184 0.336805
v 0.147661 -0.336240 0.336827
v 0.154580 -0.343149 0.336825
v 0.118965 -0.336044 0.263915
v 0.112055 -0.342964 0.263906
v 0.147686 -0.336021 0.263929
v 0.154607 -0.342930 0.263927
v 0.118988 -0.333380 0.191595
v 0.112079 -0.340296 0.191320
v 0.147709 -0.333347 0.191462
v 0.154631 -0.340250 0.191123
v 0.119012 -0.328874 0.118998
v 0.112102 -0.335785 0.118585
v 0.147732 -0.328836 0.118790
v 0.154653 -0.335730 0.118276
v 0.119265 -0.321707 0.046878
v 0.112355 -0.328595 0.046105
v 0.147984 -0.321647 0.046473
v 0.154904 -0.328505 0.045506
v 0.119306 -0.310443 -0.024239
v 0.112385 -0.317210 -0.025834
v 0.148017 -0.310296 -0.025091
v 0.154924 -0.316992 -0.027095
v 0.119053 -0.292840 0.714468
v 0.147768 -0.292840 0.715190
v 0.148017 -0.292840 -0.041056
v 0.119306 -0.292840 -0.039976
v 0.301009 -0.299142 0.555602
v 0.290576 -0.299142 0.624807
v 0.264995 -0.299142 0.620950
v 0.240163 -0.299142 0.617206
v 0.233443 -0.299142 0.545415
v 0.223009 -0.299142 0.614620
vn -0.0000 -0.0000 -1.0000
vn 0.7026 -0.6480 0.2940
vn 0.8928 -0.0000 0.4504
vn 0.8928 -0.0000 -0.4504
vn 0.7027 -0.6479 -0.2940
vn -0.7026 -0.6480 -0.2940
vn -0.8928 -0.0001 -0.4504
vn -0.8928 -0.0000 0.4504
vn -0.7026 -0.6480 0.2940
vn -0.3531 -0.0001 0.9356
vn -0.2289 -0.6088 0.7596
vn -0.6953 -0.0000 0.7187
vn 0.2022 -0.6106 0.7657
vn 0.3167 -0.0000 0.9485
vn 0.6953 -0.0000 0.7187
vn -0.6952 -0.0000 -0.7188
vn -0.2289 -0.6087 -0.7596
vn -0.3531 -0.0000 -0.9356
vn 0.3166 -0.0000 -0.9485
vn 0.2023 -0.6105 -0.7657
vn 0.6953 -0.0000 -0.7188
vn 0.0001 -0.5468 -0.8372
vn -0.0000 -0.0000 1.0000
vn -0.0000 -0.5468 0.8372
vn -0.0000 -1.0000 -0.0000
vt -85.877251 -113.934555
vt -85.877251 -113.934593
vt -85.877220 -113.934593
vt -85.877220 -113.934555
vt -90.509964 2.568272
vt -90.721329 2.568272
vt -90.721329 0.287835
vt -90.509964 0.287835
vt -90.626633 0.287839
vt -90.415268 0.287839
vt -90.415268 2.568268
vt -90.626633 2.568268
vt -90.320473 0.641302
vt -90.532021 0.641302
vt -90.532021 0.595726
vt -90.320473 0.595726
vt -90.415268 2.609040
vt -90.626633 2.609040
vt -90.532021 1.717936
vt -90.320473 1.717936
vt -90.320473 1.763509
vt -90.532021 1.763509
vt -90.509964 2.609045
vt -90.721329 2.609045
vt -90.626633 0.247062
vt -90.415268 0.247062
vt -90.437325 0.595722
vt -90.225777 0.595722
vt -90.225777 0.641298
vt -90.437325 0.641298
vt -90.437325 1.717940
vt -90.225777 1.717940
vt -90.225777 1.763514
vt -90.437325 1.763514
vt -90.721329 0.247057
vt -90.509964 0.247057
vt -90.225777 1.445728
vt -90.437325 1.445728
vt -90.320473 1.445727
vt -90.532021 1.445727
vt -91.182907 2.630850
vt -91.454414 2.630850
vt -91.499863 2.613991
vt -91.518692 2.573285
vt -91.518692 0.296861
vt -91.499863 0.256159
vt -91.454414 0.239296
vt -91.182907 0.239296
vt -90.380539 0.239296
vt -90.335083 0.256159
vt -90.316254 0.296861
vt -90.316254 2.573285
vt -90.335083 2.613991
vt -90.380539 2.630850
s 1
usemtl M_FridgeMaindoor1C3_3
f 13/1/1 14/2/1 16/3/1 15/4/1
f 43/5/2 51/6/3 55/7/4 48/8/5
f 45/9/6 53/10/7 50/11/8 42/12/9
f 49/13/10 41/14/11 81/15/12 82/16/12
f 82/17/12 81/18/12 42/12/9 50/11/8
f 44/19/13 52/20/14 83/21/15 84/22/15
f 84/23/15 83/24/15 51/6/3 43/5/2
f 53/10/7 45/9/6 85/25/16 86/26/16
f 86/27/16 85/28/16 46/29/17 54/30/18
f 56/31/19 47/32/20 87/33/21 88/34/21
f 88/35/21 87/36/21 48/8/5 55/7/4
f 54/30/18 46/29/17 118/37/22 123/38/1
f 123/38/1 118/37/22 47/32/20 56/31/19
f 124/39/23 52/20/14 44/19/13 120/40/24
f 124/39/23 120/40/24 41/14/11 49/13/10
f 123/41/25 56/42/25 88/43/25 55/44/25 51/45/25 83/46/25 52/47/25 124/48/25
f 124/48/25 49/49/25 82/50/25 50/51/25 53/52/25 86/53/25 54/54/25 123/41/25
