# Blender 4.1.1
# www.blender.org
mtllib Fp430_Cube_1283Fp430_Cube_1283_0_GeomSubset_1.mtl
o Fp430_Cube_1283Fp430_Cube_1283_0_GeomSubset_1
v 0.272522 0.272428 0.244968
v 0.272522 -0.272617 0.244779
v 0.272522 -0.000073 0.184144
v 0.272522 0.038845 0.180551
v 0.272522 0.076440 0.169868
v 0.272522 0.111432 0.152459
v 0.272522 0.142629 0.128917
v 0.272522 0.168970 0.100043
v 0.272522 0.189556 0.066821
v 0.272522 0.203687 0.030381
v 0.272522 0.210882 -0.008034
v 0.272522 0.210895 -0.047118
v 0.272522 0.272617 -0.300077
v 0.272522 0.203727 -0.085538
v 0.272522 0.189621 -0.121987
v 0.272522 0.169058 -0.155224
v 0.272522 0.142737 -0.184116
v 0.272522 0.111556 -0.207680
v 0.272522 0.076576 -0.225113
v 0.272522 0.038988 -0.235821
v 0.272522 0.000073 -0.239441
v 0.272522 -0.038845 -0.235848
v 0.272522 -0.272428 -0.300265
v 0.272522 -0.076440 -0.225166
v 0.272522 -0.111432 -0.207757
v 0.272522 -0.142629 -0.184214
v 0.272522 -0.168970 -0.155341
v 0.272522 -0.189556 -0.122118
v 0.272522 -0.203687 -0.085679
v 0.272522 -0.210882 -0.047263
v 0.272522 -0.210896 -0.008180
v 0.272522 -0.203727 0.030241
v 0.272522 -0.189621 0.066690
v 0.272522 -0.169058 0.099926
v 0.272522 -0.142738 0.128818
v 0.272522 -0.111557 0.152382
v 0.272522 -0.076576 0.169815
v 0.272522 -0.038989 0.180524
v 0.000000 -0.272449 -0.239535
v -0.272522 -0.272428 -0.300265
v 0.038916 -0.272450 -0.235929
v 0.076508 -0.272454 -0.225233
v 0.111494 -0.272460 -0.207813
v 0.142683 -0.272468 -0.184260
v 0.169014 -0.272478 -0.155376
v 0.189588 -0.272490 -0.122147
v 0.203707 -0.272502 -0.085703
v 0.210889 -0.272516 -0.047285
v 0.210889 -0.272529 -0.008201
v 0.203707 -0.272542 0.030217
v 0.189589 -0.272555 0.066661
v 0.169014 -0.272567 0.099890
v 0.142684 -0.272576 0.128773
v 0.111494 -0.272585 0.152326
v 0.076508 -0.272591 0.169747
v 0.038917 -0.272594 0.180443
v -0.272522 -0.272617 0.244779
v 0.000000 -0.272596 0.184049
v -0.038917 -0.272594 0.180443
v -0.076508 -0.272591 0.169747
v -0.111494 -0.272585 0.152327
v -0.142683 -0.272576 0.128773
v -0.169014 -0.272567 0.099890
v -0.189589 -0.272555 0.066661
v -0.203707 -0.272542 0.030217
v -0.210889 -0.272529 -0.008201
v -0.210889 -0.272516 -0.047285
v -0.203707 -0.272502 -0.085703
v -0.189589 -0.272490 -0.122147
v -0.169014 -0.272478 -0.155376
v -0.142683 -0.272468 -0.184259
v -0.111494 -0.272460 -0.207812
v -0.076508 -0.272454 -0.225233
v -0.038917 -0.272450 -0.235929
v -0.272522 0.272428 0.244968
v -0.272522 0.272617 -0.300077
v -0.203707 0.272542 -0.085514
v -0.189589 0.272555 -0.121958
v -0.169014 0.272566 -0.155188
v -0.142683 0.272576 -0.184071
v -0.111494 0.272585 -0.207624
v -0.076508 0.272591 -0.225045
v -0.038917 0.272594 -0.235741
v 0.000000 0.272595 -0.239347
v -0.210889 0.272529 -0.047096
v -0.210889 0.272516 -0.008013
v -0.203707 0.272503 0.030405
v -0.189589 0.272490 0.066849
v -0.169014 0.272478 0.100079
v -0.142683 0.272468 0.128962
v -0.111494 0.272460 0.152515
v -0.076508 0.272454 0.169936
v -0.038917 0.272450 0.180632
v 0.000000 0.272449 0.184238
v 0.038917 0.272450 0.180632
v 0.076508 0.272454 0.169936
v 0.111494 0.272460 0.152515
v 0.142684 0.272468 0.128962
v 0.169014 0.272478 0.100079
v 0.189589 0.272490 0.066849
v 0.203707 0.272503 0.030405
v 0.210889 0.272516 -0.008013
v 0.210889 0.272529 -0.047096
v 0.203707 0.272542 -0.085514
v 0.189588 0.272555 -0.121959
v 0.169014 0.272566 -0.155188
v 0.142683 0.272576 -0.184071
v 0.111494 0.272585 -0.207624
v 0.076508 0.272591 -0.225045
v 0.038916 0.272594 -0.235741
v -0.272522 -0.203687 -0.085679
v -0.272522 -0.189556 -0.122118
v -0.272522 -0.168970 -0.155340
v -0.272522 -0.142629 -0.184214
v -0.272522 -0.111432 -0.207757
v -0.272522 -0.076440 -0.225165
v -0.272522 -0.038845 -0.235848
v -0.272522 -0.210882 -0.047263
v -0.272522 0.000073 -0.239441
v -0.272522 -0.210896 -0.008180
v -0.272522 -0.203727 0.030241
v -0.272522 -0.189621 0.066690
v -0.272522 -0.169058 0.099926
v -0.272522 -0.142737 0.128818
v -0.272522 -0.111556 0.152382
v -0.272522 -0.076576 0.169815
v -0.272522 -0.038989 0.180524
v -0.272522 0.038988 -0.235821
v -0.272522 0.076576 -0.225113
v -0.272522 0.111556 -0.207680
v -0.272522 0.142737 -0.184116
v -0.272522 0.169058 -0.155224
v -0.272522 0.189621 -0.121987
v -0.272522 0.203727 -0.085538
v -0.272522 0.210896 -0.047118
v -0.272522 0.210882 -0.008034
v -0.272522 -0.000073 0.184144
v -0.272522 0.038845 0.180551
v -0.272522 0.076440 0.169868
v -0.272522 0.111432 0.152459
v -0.272522 0.142629 0.128917
v -0.272522 0.168970 0.100043
v -0.272522 0.189556 0.066821
v -0.272522 0.203687 0.030381
v 0.254808 -0.254720 -0.282545
v 0.254808 -0.254897 0.227072
v 0.254808 -0.210882 -0.047263
v 0.254808 -0.203687 -0.085679
v 0.254808 -0.189556 -0.122118
v 0.254808 -0.168970 -0.155341
v 0.254808 -0.142629 -0.184214
v 0.254808 -0.111432 -0.207757
v 0.254808 -0.076440 -0.225166
v 0.254808 -0.038845 -0.235848
v 0.254808 0.254896 -0.282369
v 0.254808 0.000073 -0.239441
v 0.254808 -0.210896 -0.008180
v 0.254808 -0.203727 0.030241
v 0.254808 -0.189621 0.066690
v 0.254808 -0.169058 0.099926
v 0.254808 -0.142738 0.128818
v 0.254808 -0.111557 0.152382
v 0.254808 -0.076576 0.169815
v 0.254808 -0.038989 0.180524
v 0.254808 0.254720 0.227248
v 0.254808 0.038988 -0.235821
v 0.254808 0.076576 -0.225113
v 0.254808 0.111556 -0.207680
v 0.254808 0.142737 -0.184116
v 0.254808 0.169058 -0.155224
v 0.254808 0.189621 -0.121987
v 0.254808 0.203727 -0.085538
v 0.254808 0.210895 -0.047118
v 0.254808 0.210882 -0.008034
v 0.254808 -0.000073 0.184144
v 0.254808 0.038845 0.180551
v 0.254808 0.076440 0.169868
v 0.254808 0.111432 0.152459
v 0.254808 0.142629 0.128917
v 0.254808 0.168970 0.100043
v 0.254808 0.189556 0.066821
v 0.254808 0.203687 0.030381
v -0.254808 -0.254897 0.227072
v -0.254808 0.254720 0.227248
v 0.000000 -0.254735 -0.239529
v -0.254808 -0.254720 -0.282545
v -0.038917 -0.254737 -0.235923
v -0.076508 -0.254740 -0.225227
v -0.111494 -0.254746 -0.207806
v -0.142683 -0.254754 -0.184253
v -0.169014 -0.254764 -0.155370
v -0.189589 -0.254776 -0.122141
v -0.203707 -0.254788 -0.085696
v -0.210889 -0.254802 -0.047279
v -0.210889 -0.254815 -0.008195
v -0.203707 -0.254828 0.030223
v -0.189589 -0.254841 0.066667
v -0.169014 -0.254852 0.099897
v -0.142683 -0.254863 0.128780
v -0.111494 -0.254871 0.152333
v -0.076508 -0.254877 0.169754
v -0.038917 -0.254880 0.180449
v 0.000000 -0.254882 0.184055
v 0.038917 -0.254880 0.180449
v 0.076508 -0.254877 0.169754
v 0.111494 -0.254871 0.152333
v 0.142684 -0.254863 0.128779
v 0.169014 -0.254852 0.099896
v 0.189589 -0.254841 0.066667
v 0.203707 -0.254828 0.030223
v 0.210889 -0.254815 -0.008195
v 0.210889 -0.254802 -0.047279
v 0.203707 -0.254788 -0.085697
v 0.189588 -0.254776 -0.122141
v 0.169014 -0.254764 -0.155370
v 0.142683 -0.254754 -0.184253
v 0.111494 -0.254746 -0.207806
v 0.076508 -0.254740 -0.225227
v 0.038916 -0.254737 -0.235923
v 0.210889 0.254815 -0.047103
v 0.203707 0.254828 -0.085521
v 0.189588 0.254841 -0.121965
v 0.169014 0.254852 -0.155194
v 0.142683 0.254862 -0.184077
v 0.111494 0.254871 -0.207630
v 0.076508 0.254877 -0.225051
v 0.038916 0.254880 -0.235747
v 0.000000 0.254882 -0.239353
v 0.210889 0.254802 -0.008019
v 0.203707 0.254788 0.030399
v 0.189589 0.254776 0.066843
v 0.169014 0.254764 0.100073
v 0.142684 0.254754 0.128956
v 0.111494 0.254746 0.152509
v 0.076508 0.254740 0.169930
v 0.038917 0.254736 0.180625
v 0.000000 0.254735 0.184232
v -0.038917 0.254736 0.180625
v -0.076508 0.254740 0.169930
v -0.111494 0.254746 0.152509
v -0.142683 0.254754 0.128956
v -0.169014 0.254764 0.100073
v -0.189589 0.254776 0.066843
v -0.203707 0.254788 0.030399
v -0.210889 0.254802 -0.008019
v -0.210889 0.254815 -0.047102
v -0.254808 0.254896 -0.282369
v -0.203707 0.254828 -0.085520
v -0.189589 0.254841 -0.121964
v -0.169014 0.254852 -0.155194
v -0.142683 0.254862 -0.184077
v -0.111494 0.254871 -0.207630
v -0.076508 0.254877 -0.225051
v -0.038917 0.254880 -0.235747
v -0.254808 -0.000073 0.184144
v -0.254808 0.038845 0.180551
v -0.254808 0.076440 0.169868
v -0.254808 0.111432 0.152459
v -0.254808 0.142629 0.128917
v -0.254808 0.168970 0.100043
v -0.254808 0.189556 0.066821
v -0.254808 0.203687 0.030381
v -0.254808 0.210882 -0.008034
v -0.254808 0.210896 -0.047118
v -0.254808 0.203727 -0.085538
v -0.254808 0.189621 -0.121987
v -0.254808 0.169058 -0.155224
v -0.254808 0.142737 -0.184116
v -0.254808 0.111556 -0.207680
v -0.254808 0.076576 -0.225113
v -0.254808 0.038988 -0.235821
v -0.254808 0.000073 -0.239441
v -0.254808 -0.038845 -0.235848
v -0.254808 -0.076440 -0.225165
v -0.254808 -0.111432 -0.207757
v -0.254808 -0.142629 -0.184214
v -0.254808 -0.168970 -0.155340
v -0.254808 -0.189556 -0.122118
v -0.254808 -0.203687 -0.085679
v -0.254808 -0.210882 -0.047263
v -0.254808 -0.210896 -0.008180
v -0.254808 -0.203727 0.030241
v -0.254808 -0.189621 0.066690
v -0.254808 -0.169058 0.099926
v -0.254808 -0.142737 0.128818
v -0.254808 -0.111556 0.152382
v -0.254808 -0.076576 0.169815
v -0.254808 -0.038989 0.180524
v 0.269524 -0.244942 0.268737
v 0.266387 -0.242081 0.278361
v 0.266387 -0.265103 0.278353
v 0.269524 -0.268236 0.268729
v 0.272062 -0.247251 0.244263
v 0.272062 -0.270766 0.244255
v 0.253337 -0.252056 0.289906
v 0.253337 -0.230168 0.289914
v 0.266387 0.234861 0.278526
v 0.253337 0.223285 0.290070
v 0.272062 0.239904 0.244432
v 0.269524 0.237645 0.268904
v 0.269524 0.268031 0.268914
v 0.266387 0.264891 0.278537
v 0.272062 0.270578 0.244442
v 0.253337 0.251837 0.290080
v 0.242381 0.270578 0.244442
v 0.240121 0.268031 0.268914
v 0.237328 0.264891 0.278537
v 0.225709 0.251837 0.290080
v -0.226546 0.264891 0.278537
v -0.215321 0.251837 0.290080
v -0.229244 0.268031 0.268914
v -0.231427 0.270578 0.244442
v -0.269281 0.270578 0.244442
v -0.266743 0.268031 0.268914
v -0.263606 0.264891 0.278537
v -0.250556 0.251837 0.290080
v -0.269281 0.239904 0.244432
v -0.266743 0.237645 0.268904
v -0.263606 0.234861 0.278526
v -0.250556 0.223285 0.290070
v -0.266743 -0.244942 0.268737
v -0.263606 -0.242081 0.278361
v -0.266743 -0.268236 0.268729
v -0.263606 -0.265103 0.278353
v -0.250556 -0.230168 0.289914
v -0.250556 -0.252056 0.289906
v -0.269281 -0.270766 0.244255
v -0.269281 -0.247251 0.244263
v -0.231427 -0.270766 0.244255
v -0.229244 -0.268236 0.268729
v -0.226546 -0.265103 0.278353
v -0.215321 -0.252056 0.289906
v 0.237328 -0.265103 0.278353
v 0.225709 -0.252056 0.289906
v 0.240121 -0.268236 0.268729
v 0.242381 -0.270766 0.244255
v -0.193471 -0.226657 0.297613
v -0.225154 -0.226657 0.297613
v -0.178788 -0.180293 0.303403
v -0.153590 -0.180293 0.303403
v 0.203092 -0.226657 0.297613
v 0.161811 -0.180293 0.303403
v 0.227935 -0.226657 0.297613
v 0.181569 -0.180293 0.303403
v 0.227935 -0.206975 0.297620
v 0.181569 -0.164640 0.303409
v -0.153590 -0.164640 0.303409
v -0.178788 -0.164640 0.303409
v 0.161811 -0.164640 0.303409
v -0.225154 -0.206975 0.297620
v 0.227935 0.200759 0.297761
v 0.181569 0.159645 0.303521
v 0.227935 0.226432 0.297770
v 0.181569 0.180064 0.303528
v 0.161811 0.159645 0.303521
v 0.161811 0.180064 0.303528
v 0.203092 0.226432 0.297770
v -0.193471 0.226432 0.297770
v -0.153590 0.180064 0.303528
v -0.153590 0.159645 0.303521
v -0.225154 0.226432 0.297770
v -0.225154 0.200759 0.297761
v -0.178788 0.180064 0.303528
v -0.178788 0.159645 0.303521
vn -0.9782 0.0001 -0.2077
vn -0.5648 0.5651 -0.6014
vn -0.8361 0.0002 -0.5486
vn -0.6811 0.6812 -0.2683
vn -0.9947 -0.0000 -0.1032
vn -0.6996 0.6997 -0.1449
vn -0.3137 0.3140 -0.8961
vn -0.4876 0.0003 -0.8731
vn -0.8361 0.0002 -0.5487
vn -0.6811 -0.6810 -0.2688
vn -0.5648 -0.5646 -0.6018
vn -0.6996 -0.6996 -0.1454
vn -0.3136 -0.3133 -0.8964
vn -0.0000 -0.9946 -0.1035
vn -0.0000 -0.9781 -0.2080
vn -0.0000 -0.8359 -0.5489
vn -0.0000 -0.4873 -0.8732
vn 0.6996 -0.6996 -0.1454
vn 0.6811 -0.6810 -0.2688
vn 0.5648 -0.5646 -0.6018
vn 0.3137 -0.3133 -0.8964
vn 0.9947 -0.0000 -0.1032
vn 0.9782 0.0001 -0.2077
vn 0.8360 0.0002 -0.5487
vn 0.4876 0.0003 -0.8731
vn 0.8361 0.0002 -0.5486
vn 0.6811 0.6812 -0.2683
vn 0.5648 0.5651 -0.6014
vn 0.3137 0.3140 -0.8961
vn 0.6996 0.6997 -0.1449
vn -0.0000 0.9947 -0.1028
vn -0.0000 0.9783 -0.2073
vn -0.0000 0.8362 -0.5484
vn -0.0000 0.4879 -0.8729
vn 0.1263 0.1266 -0.9839
vn -0.0000 0.2079 -0.9782
vn 0.0465 0.0469 -0.9978
vn -0.0000 0.0623 -0.9981
vn -0.1263 0.1266 -0.9839
vn -0.0465 0.0469 -0.9978
vn -0.2075 0.0003 -0.9782
vn -0.0619 0.0004 -0.9981
vn -0.0000 0.0004 -1.0000
vn 0.0619 0.0004 -0.9981
vn 0.2076 0.0003 -0.9782
vn -0.2076 0.0003 -0.9782
vn -0.0619 0.0003 -0.9981
vn -0.1263 -0.1260 -0.9840
vn -0.0465 -0.0461 -0.9979
vn -0.0000 0.0003 -1.0000
vn -0.0000 -0.0616 -0.9981
vn -0.0000 -0.2072 -0.9783
vn 0.1263 -0.1260 -0.9840
vn 0.0465 -0.0461 -0.9979
vn 0.0619 0.0003 -0.9981
vt 0.965053 0.787941
vt 0.955873 0.811648
vt 0.955873 0.784573
vt 0.965053 0.815337
vt 0.987367 0.790667
vt 0.987367 0.818321
vt 0.943099 0.796300
vt 0.943099 0.770558
vt 0.955873 0.223669
vt 0.943099 0.237278
vt 0.987367 0.217752
vt 0.965053 0.220399
vt 0.965053 0.184663
vt 0.955873 0.188352
vt 0.987367 0.181678
vt 0.943099 0.203700
vt 0.848299 0.783415
vt 0.825985 0.815337
vt 0.825985 0.780758
vt 0.848299 0.818322
vt 0.816806 0.811648
vt 0.816806 0.777473
vt 0.804031 0.796300
vt 0.804031 0.763809
vt 0.816805 0.231937
vt 0.804031 0.245138
vt 0.825985 0.228764
vt 0.848299 0.226196
vt 0.848299 0.181678
vt 0.825985 0.184663
vt 0.816805 0.188352
vt 0.804031 0.203700
vt 0.778765 0.782248
vt 0.756451 0.815336
vt 0.756451 0.779601
vt 0.778765 0.818321
vt 0.747272 0.811648
vt 0.747272 0.776330
vt 0.734497 0.796300
vt 0.734497 0.762722
vt 0.756451 0.212059
vt 0.747272 0.215427
vt 0.756451 0.184663
vt 0.747272 0.188352
vt 0.734497 0.229442
vt 0.734497 0.203700
vt 0.778765 0.181679
vt 0.778765 0.209333
vt 0.917833 0.773803
vt 0.895519 0.815337
vt 0.895519 0.771236
vt 0.917833 0.818322
vt 0.886340 0.811648
vt 0.886340 0.768063
vt 0.873565 0.796300
vt 0.873565 0.754862
vt 0.886340 0.222527
vt 0.873565 0.236192
vt 0.886340 0.188352
vt 0.873565 0.203700
vt 0.895519 0.184663
vt 0.895519 0.219242
vt 0.917833 0.181678
vt 0.917833 0.216585
vt 0.169052 0.753061
vt 0.160346 0.724059
vt 0.188398 0.724059
vt 0.137854 0.753061
vt 0.201399 0.671122
vt 0.223710 0.671122
vt 0.539522 0.724059
vt 0.502971 0.671122
vt 0.561518 0.724059
vt 0.520465 0.671122
vt 0.561518 0.701588
vt 0.520465 0.653251
vt 0.584010 0.728071
vt 0.584010 0.753061
vt 0.559548 0.753061
vt 0.223710 0.653251
vt 0.201399 0.653251
vt 0.502971 0.653251
vt 0.160346 0.701588
vt 0.584010 0.210356
vt 0.561518 0.236072
vt 0.520465 0.283010
vt 0.561518 0.206761
vt 0.520465 0.259697
vt 0.502971 0.283010
vt 0.502971 0.259697
vt 0.539522 0.206761
vt 0.559547 0.177758
vt 0.584010 0.177758
vt 0.188398 0.206761
vt 0.223710 0.259697
vt 0.223710 0.283010
vt 0.169052 0.177758
vt 0.137854 0.177758
vt 0.160346 0.206761
vt 0.137854 0.210357
vt 0.160346 0.236072
vt 0.201399 0.259697
vt 0.201399 0.283010
vt 0.137854 0.728071
s 1
usemtl M_Fp430_Cube_1283_1
f 289/1/1 291/2/2 290/3/3
f 289/1/1 292/4/4 291/2/2
f 293/5/5 292/4/4 289/1/1
f 293/5/5 294/6/6 292/4/4
f 290/3/3 291/2/2 295/7/7
f 290/3/3 295/7/7 296/8/8
f 297/9/9 290/3/3 296/8/8
f 297/9/9 296/8/8 298/10/8
f 299/11/5 293/5/5 289/1/1
f 299/11/5 289/1/1 300/12/1
f 300/12/1 290/3/3 297/9/9
f 300/12/1 289/1/1 290/3/3
f 301/13/10 300/12/1 297/9/9
f 301/13/10 297/9/9 302/14/11
f 302/14/11 297/9/9 298/10/8
f 303/15/12 300/12/1 301/13/10
f 303/15/12 299/11/5 300/12/1
f 302/14/11 298/10/8 304/16/13
f 305/17/14 301/18/10 306/19/15
f 305/17/14 303/20/12 301/18/10
f 306/19/15 301/18/10 302/21/11
f 306/19/15 302/21/11 307/22/16
f 307/22/16 302/21/11 304/23/13
f 307/22/16 304/23/13 308/24/17
f 309/25/16 307/22/16 308/24/17
f 309/25/16 308/24/17 310/26/17
f 311/27/15 307/22/16 309/25/16
f 311/27/15 306/19/15 307/22/16
f 312/28/14 306/19/15 311/27/15
f 312/28/14 305/17/14 306/19/15
f 313/29/18 312/28/14 311/27/15
f 313/29/18 311/27/15 314/30/19
f 314/30/19 311/27/15 309/25/16
f 314/30/19 309/25/16 315/31/20
f 315/31/20 309/25/16 310/26/17
f 315/31/20 310/26/17 316/32/21
f 317/33/22 314/34/19 318/35/23
f 317/33/22 313/36/18 314/34/19
f 318/35/23 314/34/19 315/37/20
f 318/35/23 315/37/20 319/38/24
f 319/38/24 315/37/20 316/39/21
f 319/38/24 316/39/21 320/40/25
f 321/41/23 318/35/23 319/38/24
f 321/41/23 319/38/24 322/42/26
f 322/42/26 319/38/24 320/40/25
f 323/43/27 321/41/23 322/42/26
f 323/43/27 322/42/26 324/44/28
f 324/44/28 322/42/26 325/45/25
f 322/42/26 320/40/25 325/45/25
f 324/44/28 325/45/25 326/46/29
f 327/47/30 321/41/23 323/43/27
f 327/47/30 328/48/22 321/41/23
f 328/48/22 318/35/23 321/41/23
f 328/48/22 317/33/22 318/35/23
f 329/49/31 323/50/27 330/51/32
f 329/49/31 327/52/30 323/50/27
f 330/51/32 323/50/27 324/53/28
f 330/51/32 324/53/28 331/54/33
f 331/54/33 324/53/28 326/55/29
f 331/54/33 326/55/29 332/56/34
f 333/57/33 331/54/33 332/56/34
f 333/57/33 332/56/34 334/58/34
f 291/59/2 333/57/33 334/58/34
f 291/59/2 334/58/34 295/60/7
f 292/61/4 333/57/33 291/59/2
f 292/61/4 335/62/32 333/57/33
f 335/62/32 331/54/33 333/57/33
f 335/62/32 330/51/32 331/54/33
f 294/63/6 335/62/32 292/61/4
f 294/63/6 336/64/31 335/62/32
f 336/64/31 330/51/32 335/62/32
f 336/64/31 329/49/31 330/51/32
f 332/65/34 338/66/35 337/67/36
f 332/65/34 326/68/29 338/66/35
f 337/67/36 338/66/35 339/69/37
f 337/67/36 339/69/37 340/70/38
f 341/71/36 337/67/36 340/70/38
f 341/71/36 340/70/38 342/72/38
f 343/73/39 341/71/36 342/72/38
f 343/73/39 342/72/38 344/74/40
f 345/75/41 343/73/39 344/74/40
f 345/75/41 344/74/40 346/76/42
f 342/72/38 346/76/42 344/74/40
f 296/77/8 343/73/39 345/75/41
f 296/77/8 295/78/7 343/73/39
f 295/78/7 341/71/36 343/73/39
f 295/78/7 334/79/34 341/71/36
f 334/79/34 337/67/36 341/71/36
f 334/79/34 332/65/34 337/67/36
f 339/69/37 347/80/43 340/70/38
f 339/69/37 348/81/44 347/80/43
f 338/66/35 348/81/44 339/69/37
f 340/70/38 349/82/43 342/72/38
f 340/70/38 347/80/43 349/82/43
f 342/72/38 349/82/43 346/76/42
f 338/66/35 350/83/45 348/81/44
f 326/68/29 350/83/45 338/66/35
f 298/84/8 296/77/8 345/75/41
f 298/84/8 345/75/41 351/85/46
f 351/85/46 345/75/41 346/76/42
f 351/85/46 346/76/42 352/86/47
f 349/82/43 352/86/47 346/76/42
f 353/87/48 351/85/46 352/86/47
f 353/87/48 352/86/47 354/88/49
f 355/89/50 354/88/49 352/86/47
f 347/80/43 355/89/50 349/82/43
f 349/82/43 355/89/50 352/86/47
f 355/89/50 356/90/51 354/88/49
f 357/91/52 354/88/49 356/90/51
f 357/91/52 353/87/48 354/88/49
f 308/92/17 353/87/48 357/91/52
f 308/92/17 304/93/13 353/87/48
f 304/93/13 351/85/46 353/87/48
f 304/93/13 298/84/8 351/85/46
f 358/94/52 357/91/52 356/90/51
f 358/94/52 356/90/51 359/95/51
f 360/96/50 356/90/51 355/89/50
f 360/96/50 359/95/51 356/90/51
f 310/97/17 357/91/52 358/94/52
f 310/97/17 308/92/17 357/91/52
f 316/98/21 310/97/17 358/94/52
f 316/98/21 358/94/52 361/99/53
f 361/99/53 358/94/52 359/95/51
f 320/100/25 316/98/21 361/99/53
f 320/100/25 361/99/53 362/101/45
f 362/101/45 361/99/53 363/102/54
f 361/99/53 359/95/51 363/102/54
f 362/101/45 363/102/54 364/103/55
f 364/103/55 359/95/51 360/96/50
f 364/103/55 363/102/54 359/95/51
f 348/81/44 364/103/55 360/96/50
f 348/81/44 360/96/50 347/80/43
f 347/80/43 360/96/50 355/89/50
f 350/83/45 364/103/55 348/81/44
f 350/83/45 362/101/45 364/103/55
f 325/104/25 362/101/45 350/83/45
f 325/104/25 320/100/25 362/101/45
f 326/68/29 325/104/25 350/83/45
