# Blender 4.1.0
# www.blender.org
mtllib MeshBin_5_0_GeomSubset_2.mtl
o MeshBin_5_0_GeomSubset_2
v -0.000500 -0.002093 -0.365368
v 0.000500 -0.002093 -0.365368
v -0.000500 -0.001093 -0.365368
v 0.000500 -0.001093 -0.365368
v -0.000500 -0.002093 -0.365368
v 0.000500 -0.002093 -0.365368
v -0.000500 -0.001093 -0.365368
v 0.000500 -0.001093 -0.365368
v -0.000500 -0.002093 -0.365368
v 0.000500 -0.002093 -0.365368
v -0.000500 -0.001093 -0.365368
v 0.000500 -0.001093 -0.365368
v -0.208340 0.059850 0.182358
v -0.177219 0.059850 0.190831
v -0.208340 0.059850 0.217697
v -0.177219 0.059850 0.217697
v -0.208340 0.067509 0.217697
v -0.177219 0.067509 0.217697
v -0.208340 0.067509 0.182358
v -0.177219 0.067509 0.190831
v -0.208340 -0.067904 0.182358
v -0.177219 -0.067904 0.190831
v -0.208340 -0.067904 0.217697
v -0.177219 -0.067904 0.217697
v -0.208340 -0.060244 0.217697
v -0.177219 -0.060244 0.217697
v -0.208340 -0.060244 0.182358
v -0.177219 -0.060244 0.190831
v -0.120665 -0.111942 -0.233275
v -0.139488 -0.096926 -0.233303
v -0.152064 -0.074454 -0.233327
v -0.156481 -0.047946 -0.233341
v -0.149752 -0.046370 -0.245923
v -0.135918 -0.045324 -0.256317
v -0.116787 -0.044946 -0.263154
v -0.094821 -0.045285 -0.265544
v -0.094675 -0.071316 -0.263121
v -0.095307 -0.093851 -0.256228
v -0.096629 -0.109873 -0.245796
v -0.098463 -0.117215 -0.233245
v -0.152064 0.071269 -0.233276
v -0.139488 0.093742 -0.233237
v -0.120665 0.108757 -0.233199
v -0.098463 0.114030 -0.233165
v -0.096389 0.106609 -0.245735
v -0.094856 0.090406 -0.256183
v -0.094075 0.067615 -0.263087
v -0.094150 0.041295 -0.265514
v -0.116368 0.041060 -0.263127
v -0.135716 0.041625 -0.256292
v -0.149695 0.042916 -0.245897
v -0.156481 0.044761 -0.233309
v -0.134858 0.150693 0.215119
v -0.158474 0.145467 0.215119
v -0.178492 0.130541 0.215119
v -0.191860 0.108189 0.215119
v -0.196543 0.081819 0.215119
v -0.192122 -0.111516 0.215119
v -0.179533 -0.133986 0.215119
v -0.160697 -0.148988 0.215119
v -0.138485 -0.154236 0.215119
v -0.196543 -0.085005 0.215119
v -0.116681 -0.106486 -0.244611
v -0.135922 -0.093180 -0.242970
v -0.146975 -0.070263 -0.244690
v -0.134151 -0.065482 -0.255295
v -0.114574 -0.068577 -0.261509
v -0.112246 -0.091679 -0.255239
v -0.128907 -0.085248 -0.252137
v -0.146916 0.066902 -0.244652
v -0.135849 0.089909 -0.242916
v -0.116521 0.103229 -0.244550
v -0.111925 0.088249 -0.255195
v -0.114180 0.064923 -0.261479
v -0.133946 0.061931 -0.255264
v -0.128715 0.081842 -0.252094
v -0.141319 -0.139000 0.254372
v -0.138533 0.136092 0.254372
v -0.185042 0.083753 0.254372
v -0.184991 -0.087025 0.254372
v -0.156964 0.134215 0.254372
v -0.173700 0.123295 0.254372
v -0.183354 0.104354 0.254372
v -0.183358 -0.107826 0.254372
v -0.174223 -0.126665 0.254372
v -0.158516 -0.137188 0.254372
v -0.137390 -0.127401 0.249044
v -0.134682 0.124492 0.249044
v -0.179899 0.076567 0.249044
v -0.179849 -0.079809 0.249044
v -0.152601 0.122773 0.249044
v -0.168872 0.112775 0.249044
v -0.178257 0.095431 0.249044
v -0.178262 -0.098856 0.249044
v -0.169381 -0.116106 0.249044
v -0.154110 -0.125742 0.249044
v -0.134003 -0.117871 0.239015
v -0.131353 0.114981 0.239015
v -0.174549 0.071364 0.239015
v -0.174537 -0.074525 0.239015
v -0.148950 0.113246 0.239015
v -0.164207 0.104436 0.239015
v -0.172787 0.089018 0.239015
v -0.172870 -0.092309 0.239015
v -0.164830 -0.107619 0.239015
v -0.150526 -0.116116 0.239015
v -0.102793 -0.090786 -0.222853
v -0.100760 0.087892 -0.222542
v -0.133906 0.054422 -0.222536
v -0.133896 -0.057525 -0.222567
v -0.114263 0.086560 -0.221893
v -0.125969 0.079800 -0.221574
v -0.132553 0.067969 -0.221883
v -0.132617 -0.071171 -0.221978
v -0.126448 -0.082919 -0.221752
v -0.115472 -0.089440 -0.222209
v -0.142817 -0.167153 0.239015
v -0.139755 -0.171593 0.215119
v -0.136069 0.168134 0.215119
v -0.136034 0.163801 0.239015
v -0.209011 0.081136 0.239015
v -0.211118 0.083508 0.215119
v -0.211111 -0.086572 0.215119
v -0.207917 -0.085212 0.239015
v -0.163658 0.162249 0.215119
v -0.161679 0.160157 0.239015
v -0.188815 0.143661 0.215119
v -0.188532 0.142778 0.239015
v -0.205691 0.115141 0.215119
v -0.205752 0.111881 0.239015
v -0.206037 -0.118088 0.215119
v -0.204674 -0.114877 0.239015
v -0.190154 -0.146734 0.215119
v -0.189592 -0.145964 0.239015
v -0.166140 -0.165621 0.215119
v -0.163556 -0.165103 0.239015
v -0.141937 -0.150712 0.254372
v -0.139140 0.148058 0.254372
v -0.195104 -0.087819 0.254372
v -0.195189 0.084600 0.254372
v -0.160371 0.146328 0.254372
v -0.181390 0.132963 0.254372
v -0.193478 0.108897 0.254372
v -0.193441 -0.112112 0.254372
v -0.181962 -0.135971 0.254372
v -0.161970 -0.148989 0.254372
v 0.000000 -0.090801 -0.222787
v 0.000000 -0.117900 0.239015
v 0.000000 -0.127447 0.249044
v 0.000000 -0.139050 0.254372
v 0.000000 -0.150823 0.254372
v 0.000000 -0.166985 0.239015
v 0.000000 -0.171443 0.215119
v 0.000000 -0.154057 0.215119
v 0.000000 -0.117215 -0.233202
v 0.000000 -0.109834 -0.245760
v 0.000000 -0.093721 -0.256196
v 0.000000 -0.071059 -0.263086
v 0.000000 -0.044884 -0.265502
v 0.000000 0.041697 -0.265472
v 0.000000 0.067869 -0.263041
v 0.000000 0.090530 -0.256136
v 0.000000 0.106644 -0.245688
v 0.000000 0.114030 -0.233122
v 0.000000 0.150693 0.215119
v 0.000000 0.168140 0.215119
v 0.000000 0.164538 0.239015
v 0.000000 0.148135 0.254372
v 0.000000 0.136137 0.254372
v 0.000000 0.124534 0.249044
v 0.000000 0.115001 0.239015
v 0.000000 0.087901 -0.222526
v 0.000000 0.054422 -0.222536
v 0.000000 -0.057525 -0.222567
v 0.000000 0.079800 -0.221574
v 0.000000 0.067969 -0.221883
v 0.000000 -0.071171 -0.221978
v 0.000000 -0.082919 -0.221752
v -0.099771 0.079800 -0.221574
v -0.100223 0.067969 -0.221883
v -0.101070 0.054423 -0.222536
v -0.102164 -0.057525 -0.222567
v -0.101645 -0.071171 -0.221978
v -0.101507 -0.082919 -0.221752
v 0.208340 0.059850 0.182358
v 0.177219 0.059850 0.190831
v 0.208340 0.059850 0.217697
v 0.177219 0.059850 0.217697
v 0.208340 0.067509 0.217697
v 0.177219 0.067509 0.217697
v 0.208340 0.067509 0.182358
v 0.177219 0.067509 0.190831
v 0.208340 -0.067904 0.182358
v 0.177219 -0.067904 0.190831
v 0.208340 -0.067904 0.217697
v 0.177219 -0.067904 0.217697
v 0.208340 -0.060244 0.217697
v 0.177219 -0.060244 0.217697
v 0.208340 -0.060244 0.182358
v 0.177219 -0.060244 0.190831
v 0.120665 -0.111942 -0.233275
v 0.139488 -0.096926 -0.233303
v 0.152064 -0.074454 -0.233327
v 0.156481 -0.047946 -0.233341
v 0.149752 -0.046370 -0.245923
v 0.135918 -0.045324 -0.256317
v 0.116787 -0.044946 -0.263154
v 0.094821 -0.045285 -0.265544
v 0.094675 -0.071316 -0.263121
v 0.095307 -0.093851 -0.256228
v 0.096629 -0.109873 -0.245796
v 0.098463 -0.117215 -0.233245
v 0.152064 0.071269 -0.233276
v 0.139488 0.093742 -0.233237
v 0.120665 0.108757 -0.233199
v 0.098463 0.114030 -0.233165
v 0.096389 0.106609 -0.245735
v 0.094856 0.090406 -0.256183
v 0.094075 0.067615 -0.263087
v 0.094150 0.041295 -0.265514
v 0.116368 0.041060 -0.263127
v 0.135716 0.041625 -0.256292
v 0.149695 0.042916 -0.245897
v 0.156481 0.044761 -0.233309
v 0.134858 0.150693 0.215119
v 0.158474 0.145467 0.215119
v 0.178492 0.130541 0.215119
v 0.191860 0.108189 0.215119
v 0.196543 0.081819 0.215119
v 0.192122 -0.111516 0.215119
v 0.179533 -0.133986 0.215119
v 0.160697 -0.148988 0.215119
v 0.138485 -0.154236 0.215119
v 0.196543 -0.085005 0.215119
v 0.116681 -0.106486 -0.244611
v 0.135922 -0.093180 -0.242970
v 0.146975 -0.070263 -0.244690
v 0.134151 -0.065482 -0.255295
v 0.114574 -0.068577 -0.261509
v 0.112246 -0.091679 -0.255239
v 0.128907 -0.085248 -0.252137
v 0.146916 0.066902 -0.244652
v 0.135849 0.089909 -0.242916
v 0.116521 0.103229 -0.244550
v 0.111925 0.088249 -0.255195
v 0.114180 0.064923 -0.261479
v 0.133946 0.061931 -0.255264
v 0.128715 0.081842 -0.252094
v 0.141319 -0.139000 0.254372
v 0.138533 0.136092 0.254372
v 0.185042 0.083753 0.254372
v 0.184991 -0.087025 0.254372
v 0.156964 0.134215 0.254372
v 0.173700 0.123295 0.254372
v 0.183354 0.104354 0.254372
v 0.183358 -0.107826 0.254372
v 0.174223 -0.126665 0.254372
v 0.158516 -0.137188 0.254372
v 0.137390 -0.127401 0.249044
v 0.134682 0.124492 0.249044
v 0.179899 0.076567 0.249044
v 0.179849 -0.079809 0.249044
v 0.152601 0.122773 0.249044
v 0.168872 0.112775 0.249044
v 0.178257 0.095431 0.249044
v 0.178262 -0.098856 0.249044
v 0.169381 -0.116106 0.249044
v 0.154110 -0.125742 0.249044
v 0.134003 -0.117871 0.239015
v 0.131353 0.114981 0.239015
v 0.174549 0.071364 0.239015
v 0.174537 -0.074525 0.239015
v 0.148950 0.113246 0.239015
v 0.164207 0.104436 0.239015
v 0.172787 0.089018 0.239015
v 0.172870 -0.092309 0.239015
v 0.164830 -0.107619 0.239015
v 0.150526 -0.116116 0.239015
v 0.102793 -0.090786 -0.222853
v 0.100760 0.087892 -0.222542
v 0.133906 0.054422 -0.222536
v 0.133896 -0.057525 -0.222567
v 0.114263 0.086560 -0.221893
v 0.125969 0.079800 -0.221574
v 0.132553 0.067969 -0.221883
v 0.132617 -0.071171 -0.221978
v 0.126448 -0.082919 -0.221752
v 0.115472 -0.089440 -0.222209
v 0.142817 -0.167153 0.239015
v 0.139755 -0.171593 0.215119
v 0.136069 0.168134 0.215119
v 0.136034 0.163801 0.239015
v 0.209011 0.081136 0.239015
v 0.211118 0.083508 0.215119
v 0.211111 -0.086572 0.215119
v 0.207917 -0.085212 0.239015
v 0.163658 0.162249 0.215119
v 0.161679 0.160157 0.239015
v 0.188815 0.143661 0.215119
v 0.188532 0.142778 0.239015
v 0.205691 0.115141 0.215119
v 0.205752 0.111881 0.239015
v 0.206037 -0.118088 0.215119
v 0.204674 -0.114877 0.239015
v 0.190154 -0.146734 0.215119
v 0.189592 -0.145964 0.239015
v 0.166140 -0.165621 0.215119
v 0.163556 -0.165103 0.239015
v 0.141937 -0.150712 0.254372
v 0.139140 0.148058 0.254372
v 0.195104 -0.087819 0.254372
v 0.195189 0.084600 0.254372
v 0.160371 0.146328 0.254372
v 0.181390 0.132963 0.254372
v 0.193478 0.108897 0.254372
v 0.193441 -0.112112 0.254372
v 0.181962 -0.135971 0.254372
v 0.161970 -0.148989 0.254372
v 0.099771 0.079800 -0.221574
v 0.100223 0.067969 -0.221883
v 0.101070 0.054423 -0.222536
v 0.102164 -0.057525 -0.222567
v 0.101645 -0.071171 -0.221978
v 0.101507 -0.082919 -0.221752
v -0.075007 -0.132762 -0.056569
v 0.075007 -0.132762 -0.056569
v -0.075007 -0.145103 0.092937
v 0.075007 -0.145103 0.092937
v 0.095560 0.128493 -0.077052
v -0.095560 0.128493 -0.077052
v 0.095560 0.144216 0.113421
v -0.095560 0.144216 0.113421
vn -0.0000 -0.0000 1.0000
vn -0.0000 -0.9966 -0.0823
vn -0.0000 0.9966 -0.0823
vt 0.000000 0.000000
vt 1.000000 0.000000
vt 1.000000 1.000000
vt 0.000000 1.000000
s 1
usemtl M_Bin_5_2
f 9/1/1 10/2/1 12/3/1 11/4/1
f 325/1/2 326/2/2 328/3/2 327/4/2
f 329/1/3 330/2/3 332/3/3 331/4/3
