# Blender 4.1.1
# www.blender.org
mtllib FridgeDrawer1_9_FridgeDrawer1B3_1_GeomSubset_4.mtl
o FridgeDrawer1_9_FridgeDrawer1B3_1_GeomSubset_4
v 0.002324 0.027207 -0.887726
v 0.002316 0.027207 -0.887726
v 0.002324 0.027215 -0.887726
v 0.002316 0.027215 -0.887726
v 0.002324 0.027207 -0.887726
v 0.002316 0.027207 -0.887726
v 0.002324 0.027215 -0.887726
v 0.002316 0.027215 -0.887726
v 0.002324 0.027207 -0.887726
v 0.002316 0.027207 -0.887726
v 0.002324 0.027215 -0.887726
v 0.002316 0.027215 -0.887726
v 0.002324 0.027207 -0.887726
v 0.002316 0.027207 -0.887726
v 0.002324 0.027215 -0.887726
v 0.002316 0.027215 -0.887726
v 0.002324 0.027207 -0.887726
v 0.002316 0.027207 -0.887726
v 0.002324 0.027215 -0.887726
v 0.002316 0.027215 -0.887726
v 0.002324 0.027207 -0.887726
v 0.002316 0.027207 -0.887726
v 0.002324 0.027215 -0.887726
v 0.002316 0.027215 -0.887726
v 0.002324 0.027207 -0.887726
v 0.002316 0.027207 -0.887726
v 0.002324 0.027215 -0.887726
v 0.002316 0.027215 -0.887726
v 0.299469 0.178961 -0.565239
v 0.035244 0.178961 -0.565239
v 0.299469 0.115793 -0.697172
v 0.299469 0.111298 -0.699847
v 0.035244 0.111299 -0.699847
v 0.035244 0.115794 -0.697172
v 0.299469 0.178961 -0.557949
v 0.299469 0.115793 -0.557949
v 0.299469 0.111298 -0.557949
v 0.299468 -0.200051 -0.557949
v 0.035244 0.115794 -0.557949
v 0.035244 0.178961 -0.557949
v 0.035244 0.111299 -0.557949
v 0.035243 -0.200051 -0.557949
v 0.035243 -0.166585 -0.699847
v 0.035243 -0.185152 -0.679424
v 0.299468 -0.185152 -0.679424
v 0.299468 -0.166586 -0.699847
v 0.299468 -0.183739 -0.687240
v 0.035243 -0.183738 -0.687240
v 0.299468 -0.179714 -0.693866
v 0.035243 -0.179713 -0.693866
v 0.299468 -0.173691 -0.698293
v 0.035243 -0.173690 -0.698293
v 0.041662 0.111580 -0.692136
v 0.293050 0.111580 -0.692136
v 0.039241 -0.177289 -0.677825
v 0.041564 -0.193820 -0.556776
v 0.293147 -0.193821 -0.556776
v 0.295470 -0.177290 -0.677825
v 0.041662 0.109772 -0.693212
v 0.293050 0.109771 -0.693212
v 0.290530 0.115793 -0.557949
v 0.293148 0.172640 -0.557949
v 0.290530 0.111298 -0.557949
v 0.039303 -0.176380 -0.683887
v 0.039303 -0.174082 -0.687671
v 0.039303 -0.170642 -0.690199
v 0.039256 -0.165802 -0.691103
v 0.044183 0.111299 -0.557949
v 0.041565 0.172640 -0.557949
v 0.044183 0.115794 -0.557949
v 0.295455 -0.165803 -0.691103
v 0.295408 -0.170643 -0.690199
v 0.295408 -0.174083 -0.687671
v 0.295408 -0.176381 -0.683887
v 0.291041 0.110988 -0.580192
v 0.293717 -0.189764 -0.580192
v 0.043671 0.110989 -0.580192
v 0.043666 0.114930 -0.580192
v 0.039763 0.161315 -0.580192
v 0.040994 -0.189763 -0.580192
v 0.291046 0.114930 -0.580192
v 0.294950 0.161314 -0.580192
v 0.299469 0.170075 -0.580192
v 0.035244 0.170075 -0.580192
v 0.035243 -0.196593 -0.580192
v 0.299468 -0.196593 -0.580192
v 0.299469 0.115793 -0.580192
v 0.299469 0.111298 -0.580192
v 0.035244 0.111299 -0.580192
v 0.035244 0.115794 -0.580192
v 0.299468 -0.212658 -0.557949
v 0.035243 -0.212657 -0.557949
v 0.035243 -0.209199 -0.580192
v 0.299468 -0.209200 -0.580192
vn -0.0000 -0.0000 -1.0000
vn -0.0000 -0.4153 -0.9097
vn -0.0000 -0.1870 -0.9824
vn -0.0009 -0.1870 -0.9824
vn -0.0000 -0.7346 -0.6785
vn -0.0000 -0.9268 -0.3757
vn 0.0001 -0.9891 -0.1472
vn -0.0000 -0.9891 -0.1472
vn -0.0000 0.5656 -0.8247
vn -0.0000 0.4443 -0.8959
vn -0.0000 -0.5825 0.8128
vn -0.0000 -0.4566 0.8897
vn -0.0000 0.1995 0.9799
vn -0.0000 0.9850 0.1726
vn -0.0000 0.9344 0.3563
vn -0.0000 0.9344 0.3562
vn -0.0000 0.7354 0.6776
vn -0.0000 0.7355 0.6776
vn -0.0000 0.4098 0.9122
vn 0.9997 -0.0024 0.0227
vn 0.9997 0.0088 0.0236
vn 0.9998 0.0091 0.0176
vn 0.9998 -0.0013 0.0179
vn -0.9997 -0.0024 0.0227
vn -0.9995 -0.0063 0.0314
vn -0.9997 0.0183 0.0172
vn -0.9998 -0.0013 0.0178
vn -0.9959 -0.0661 0.0617
vn -0.9998 0.0091 0.0176
vn -0.9997 0.0088 0.0236
vn 0.9997 0.0182 0.0172
vn 0.9995 -0.0063 0.0314
vn 0.9959 -0.0661 0.0617
vn -0.0000 -0.9869 -0.1616
vn -0.0000 0.8956 -0.4448
vn -0.0000 -0.8650 0.5018
vn -0.0000 0.9934 0.1145
vn -1.0000 -0.0000 -0.0000
vn 1.0000 -0.0000 -0.0000
vt -69.239067 -112.329605
vt -69.239067 -112.329620
vt -69.239059 -112.329620
vt -69.239059 -112.329605
vt -69.245216 -112.329605
vt -69.245216 -112.329620
vt -69.245201 -112.329620
vt -69.245201 -112.329605
vt -69.251358 -112.329605
vt -69.251358 -112.329620
vt -69.251350 -112.329620
vt -69.251350 -112.329605
vt -70.769661 -0.513797
vt -70.769516 -0.499293
vt -71.537239 -0.499293
vt -71.537102 -0.513797
vt -70.769661 -0.524104
vt -71.537102 -0.524104
vt -70.769661 -0.530992
vt -71.537102 -0.530992
vt -71.552856 -0.417058
vt -71.534721 -0.416873
vt -71.534721 0.349281
vt -71.552856 0.349466
vt -71.530037 0.326486
vt -70.776726 0.326486
vt -70.776726 0.331907
vt -71.530037 0.331907
vt -70.794281 -0.930912
vt -70.794281 -0.917385
vt -71.589417 -0.917385
vt -71.589417 -0.930912
vt -70.794281 -0.081148
vt -71.589417 -0.081148
vt -71.529091 -0.443692
vt -71.529091 0.346369
vt -71.552460 0.346369
vt -71.552460 -0.443692
vt -70.794281 -0.029528
vt -71.589417 -0.029528
vt -71.589417 -0.041640
vt -70.794281 -0.041640
vt -71.589417 -0.059766
vt -70.794281 -0.059766
vt -71.424454 -0.820290
vt -71.424454 0.075914
vt -71.715378 0.038744
vt -71.733444 0.036036
vt -71.744720 0.029187
vt -71.752251 0.018937
vt -71.754944 0.004514
vt -71.761230 -0.816663
vt -71.272423 -0.074051
vt -71.272423 -0.062305
vt -71.606003 -0.072287
vt -71.609215 -0.077678
vt -71.272423 0.075915
vt -71.602928 -0.898855
vt -71.600235 -0.913278
vt -71.592697 -0.923527
vt -71.581429 -0.930377
vt -71.563362 -0.933085
vt -71.272423 -0.970255
vt -71.758026 -0.822053
vt -71.424454 -0.832036
vt -71.424454 -0.970255
vt -71.844933 0.344223
vt -71.844933 -0.411815
vt -71.659790 -0.432103
vt -71.659790 0.363175
vt -72.008659 0.357255
vt -72.008659 -0.426182
vt -71.725159 -0.461916
vt -71.359238 -0.461916
vt -71.359238 0.364593
vt -71.725159 0.364593
vt -71.232376 0.346369
vt -71.232376 -0.443692
vt -71.730164 -0.052700
vt -71.730164 0.109016
vt -72.078674 -0.052700
vt -71.730164 -0.066092
vt -72.086647 -0.066092
vt -71.570160 -0.808257
vt -71.570160 0.109017
vt -71.865791 0.074932
vt -71.889076 0.070721
vt -71.908813 0.058730
vt -71.922005 0.040785
vt -71.926636 0.019618
vt -71.926636 -0.808257
vt -71.570160 -0.983365
vt -71.570160 -0.821648
vt -71.918671 -0.821648
vt -72.086647 -0.893965
vt -72.082016 -0.915133
vt -72.068825 -0.933078
vt -72.049088 -0.945069
vt -72.025803 -0.949279
vt -71.730164 -0.983365
s 1
usemtl M_FridgeDrawer1B3_4
f 17/1/1 18/2/1 20/3/1 19/4/1
f 21/5/1 22/6/1 24/7/1 23/8/1
f 25/9/1 26/10/1 28/11/1 27/12/1
f 66/13/2 67/14/3 71/15/4 72/16/2
f 65/17/5 66/13/2 72/16/2 73/18/5
f 64/19/6 65/17/5 73/18/5 74/20/6
f 55/21/7 64/22/6 74/23/6 58/24/8
f 60/25/9 71/15/4 67/14/3 59/26/9
f 53/27/10 54/28/10 60/25/9 59/26/9
f 34/29/11 33/30/12 32/31/12 31/32/11
f 32/31/12 33/30/12 43/33/13 46/34/13
f 44/35/14 45/36/14 47/37/15 48/38/16
f 48/39/16 47/40/15 49/41/17 50/42/18
f 50/42/18 49/41/17 51/43/19 52/44/19
f 52/44/19 51/43/19 46/34/13 43/33/13
f 75/45/20 76/46/21 58/47/22 74/48/22 73/49/22 72/50/22 71/51/22 60/52/23
f 77/53/24 78/54/25 53/55/26 59/56/27
f 78/54/25 79/57/28 53/55/26
f 77/53/24 59/56/27 67/58/29 66/59/29 65/60/29 64/61/29 55/62/29 80/63/30
f 75/45/20 60/52/23 54/64/31 81/65/32
f 81/65/32 54/64/31 82/66/33
f 55/21/7 58/24/8 76/67/34 80/68/34
f 79/69/35 82/70/35 54/71/10 53/72/10
f 84/73/36 34/74/11 31/75/11 83/76/36
f 86/77/37 45/36/14 44/35/14 85/78/37
f 87/79/38 83/80/38 31/81/38
f 88/82/38 87/79/38 31/81/38 32/83/38
f 89/84/39 85/85/39 44/86/39 48/87/39 50/88/39 52/89/39 43/90/39 33/91/39
f 84/92/39 90/93/39 34/94/39
f 89/84/39 33/91/39 34/94/39 90/93/39
f 88/82/38 32/83/38 46/95/38 51/96/38 49/97/38 47/98/38 45/99/38 86/100/38
