# Blender 4.1.0
# www.blender.org
mtllib LidMeshLaptopLid_12_1_GeomSubset_5.mtl
o LidMeshLaptopLid_12_1_GeomSubset_5
v -0.000632 0.177154 -0.171937
v 0.000632 0.177154 -0.171937
v -0.000632 0.178420 -0.171937
v 0.000632 0.178420 -0.171937
v -0.000632 0.177154 -0.171937
v 0.000632 0.177154 -0.171937
v -0.000632 0.178420 -0.171937
v 0.000632 0.178420 -0.171937
v -0.000632 0.177154 -0.171937
v 0.000632 0.177154 -0.171937
v -0.000632 0.178420 -0.171937
v 0.000632 0.178420 -0.171937
v -0.000632 0.177154 -0.171937
v 0.000632 0.177154 -0.171937
v -0.000632 0.178420 -0.171937
v 0.000632 0.178420 -0.171937
v -0.000632 0.177154 -0.171937
v 0.000632 0.177154 -0.171937
v -0.000632 0.178420 -0.171937
v 0.000632 0.178420 -0.171937
v -0.000632 0.177154 -0.171937
v 0.000632 0.177154 -0.171937
v -0.000632 0.178420 -0.171937
v 0.000632 0.178420 -0.171937
v -0.244110 0.181432 0.165276
v -0.239800 0.185553 0.165276
v -0.233349 0.188308 0.165276
v -0.225741 0.189275 0.165276
v -0.225741 0.188308 0.172878
v -0.225741 0.185553 0.179325
v -0.225741 0.181432 0.183633
v -0.225741 0.181432 -0.178185
v -0.225741 0.185553 -0.173876
v -0.225741 0.188308 -0.167433
v -0.225741 0.189275 -0.159828
v -0.233349 0.188308 -0.159828
v -0.239800 0.185553 -0.159828
v -0.244110 0.181432 -0.159828
v -0.232604 0.180955 0.182612
v -0.239171 0.180293 0.178697
v -0.243087 0.180955 0.172134
v -0.239171 0.185152 0.171099
v -0.232604 0.187654 0.172134
v -0.231568 0.185152 0.178697
v -0.237216 0.183902 0.176742
v -0.243087 0.180955 -0.166687
v -0.239171 0.180293 -0.173247
v -0.232604 0.180955 -0.177163
v -0.231568 0.185152 -0.173247
v -0.232604 0.187654 -0.166687
v -0.239171 0.185152 -0.165650
v -0.237216 0.183902 -0.171294
v 0.000027 0.181432 0.183633
v 0.000027 0.185553 0.179325
v 0.000027 0.188308 0.172878
v 0.000027 0.189275 0.165276
v 0.000027 0.189275 -0.159828
v 0.000027 0.188308 -0.167433
v 0.000027 0.185553 -0.173876
v 0.000027 0.181432 -0.178185
v 0.243981 0.181432 0.165276
v 0.239674 0.185553 0.165276
v 0.233228 0.188308 0.165276
v 0.225626 0.189275 0.165276
v 0.225626 0.188308 0.172878
v 0.225626 0.185553 0.179325
v 0.225626 0.181432 0.183633
v 0.225626 0.181432 -0.178185
v 0.225626 0.185553 -0.173876
v 0.225626 0.188308 -0.167433
v 0.225626 0.189275 -0.159828
v 0.233228 0.188308 -0.159828
v 0.239674 0.185553 -0.159828
v 0.243981 0.181432 -0.159828
v 0.232483 0.180955 0.182612
v 0.239045 0.180293 0.178697
v 0.242959 0.180955 0.172134
v 0.239045 0.185152 0.171099
v 0.232483 0.187654 0.172134
v 0.231448 0.185152 0.178697
v 0.237092 0.183902 0.176742
v 0.242959 0.180955 -0.166687
v 0.239045 0.180293 -0.173247
v 0.232483 0.180955 -0.177163
v 0.231448 0.185152 -0.173247
v 0.232483 0.187654 -0.166687
v 0.239045 0.185152 -0.165650
v 0.237092 0.183902 -0.171294
v -0.245623 0.170168 -0.159828
v -0.245623 0.170168 0.165276
v -0.233349 0.170168 0.183633
v -0.225741 0.170168 0.185143
v -0.239800 0.170168 0.179325
v -0.244110 0.170168 0.172878
v -0.244110 0.170168 -0.167433
v -0.239800 0.170168 -0.173876
v -0.233349 0.170168 -0.178185
v -0.225741 0.170168 -0.179696
v -0.000035 0.170168 0.185143
v -0.000035 0.170168 -0.179696
v 0.245493 0.170168 0.165276
v 0.245493 0.170168 -0.159828
v 0.225626 0.170168 0.185143
v 0.233228 0.170168 0.183633
v 0.239674 0.170168 0.179325
v 0.243981 0.170168 0.172878
v 0.243981 0.170168 -0.167433
v 0.239674 0.170168 -0.173876
v 0.233228 0.170168 -0.178185
v 0.225626 0.170168 -0.179696
v -0.000065 0.170168 0.165276
v -0.000065 0.170168 0.183633
v -0.000065 0.170168 0.179325
v -0.000065 0.170168 0.172878
v -0.000065 0.170168 -0.167433
v -0.000065 0.170168 -0.159828
v -0.000065 0.170168 -0.173876
v -0.000065 0.170168 -0.178185
v 0.220450 0.170168 -0.159828
v 0.220450 0.170168 -0.167433
v 0.220450 0.170168 -0.173876
v 0.220450 0.170168 -0.178185
v 0.220450 0.170168 -0.179696
v 0.220450 0.181432 -0.178185
v 0.220450 0.185553 -0.173876
v 0.220450 0.188308 -0.167433
v 0.220450 0.189275 -0.159828
v 0.220450 0.189275 0.165276
v 0.220450 0.188308 0.172878
v 0.220450 0.185553 0.179325
v 0.220450 0.181432 0.183633
v 0.220450 0.170168 0.185143
v 0.220450 0.170168 0.183633
v 0.220450 0.170168 0.179325
v 0.220450 0.170168 0.172878
v 0.220450 0.170168 0.165276
v -0.220546 0.170168 0.165276
v -0.220546 0.170168 0.172878
v -0.220546 0.170168 0.179325
v -0.220546 0.170168 0.183633
v -0.220546 0.170168 0.185143
v -0.220546 0.181432 0.183633
v -0.220546 0.185553 0.179325
v -0.220546 0.188308 0.172878
v -0.220546 0.189275 0.165276
v -0.220546 0.189275 -0.159828
v -0.220546 0.188308 -0.167433
v -0.220546 0.185553 -0.173876
v -0.220546 0.181432 -0.178185
v -0.220546 0.170168 -0.179696
v -0.220546 0.170168 -0.178185
v -0.220546 0.170168 -0.173876
v -0.220546 0.170168 -0.167433
v -0.220546 0.170168 -0.159828
v -0.220546 0.170168 -0.136167
v -0.245623 0.170168 -0.136167
v -0.244110 0.181432 -0.136167
v -0.239800 0.185553 -0.136167
v -0.233349 0.188308 -0.136167
v -0.225741 0.189275 -0.136167
v -0.220546 0.189275 -0.136167
v 0.000027 0.189275 -0.136167
v 0.220450 0.189275 -0.136167
v 0.225626 0.189275 -0.136167
v 0.233228 0.188308 -0.136167
v 0.239674 0.185553 -0.136167
v 0.243981 0.181432 -0.136167
v 0.245493 0.170168 -0.136167
v 0.220450 0.170168 -0.136167
v -0.000065 0.170168 -0.136167
v 0.220450 0.174483 -0.136167
v -0.000065 0.174483 -0.136167
v 0.220450 0.174483 0.165276
v -0.000065 0.174483 0.165276
v -0.220546 0.174483 -0.136167
v -0.220546 0.174483 0.165276
v 0.043544 0.190122 -0.042939
v -0.043544 0.190122 -0.042939
v 0.043544 0.190122 0.048387
v -0.043544 0.190122 0.048387
v 0.220450 0.174283 -0.136167
v -0.000065 0.174283 -0.136167
v 0.220450 0.174283 0.165276
v -0.000065 0.174283 0.165276
v -0.220546 0.174283 -0.136167
v -0.220546 0.174283 0.165276
vn -0.0000 -1.0000 -0.0000
vt 9.499294 0.500039
vt 9.499294 0.000001
vt 9.999292 0.000001
vt 9.999292 0.500039
vt 9.499294 1.000001
vt 9.999292 1.000001
s 1
usemtl M_LaptopLid_12_5
f 182/1/1 181/2/1 183/3/1 184/4/1
f 185/5/1 182/1/1 184/4/1 186/6/1
