# Blender 4.1.0
# www.blender.org
mtllib BedsheetMade_17_BedsheetMade_3_2.mtl
o BedsheetMade_3
v 0.783313 0.776773 -0.051195
v 0.760085 0.777963 0.021522
v 0.701321 0.778008 0.049092
v 0.568645 0.777818 0.054979
v 0.502128 0.777797 0.056298
v 0.102527 0.777733 0.057701
v -0.429994 0.777727 0.054026
v -0.496312 0.777863 0.051992
v -0.561993 0.778001 0.044760
v -0.593108 0.777955 0.033186
v -0.625247 0.777228 -0.028334
v -0.631497 0.776786 -0.061027
v 0.789041 0.615992 -0.048611
v 0.761333 0.616083 0.024393
v 0.701973 0.616198 0.051483
v 0.569035 0.616191 0.060226
v 0.502391 0.616158 0.061310
v 0.102550 0.616084 0.061138
v -0.430567 0.616123 0.059424
v -0.497125 0.616137 0.056535
v -0.563356 0.616097 0.049770
v -0.594030 0.616040 0.036989
v -0.629070 0.615760 -0.025903
v -0.633928 0.615680 -0.058971
v 0.788350 -0.220070 -0.048135
v 0.759232 -0.219907 0.023885
v 0.701035 -0.219916 0.052158
v 0.568417 -0.219903 0.060287
v 0.501928 -0.219904 0.061559
v 0.102654 -0.219934 0.061801
v -0.429581 -0.219947 0.060123
v -0.495984 -0.219947 0.056931
v -0.562050 -0.219950 0.049628
v -0.593227 -0.219946 0.037916
v -0.627976 -0.219979 -0.024832
v -0.633972 -0.219991 -0.057960
v 0.788384 -0.624575 -0.048038
v 0.760235 -0.624699 0.024678
v 0.700921 -0.624747 0.052106
v 0.568314 -0.624818 0.059447
v 0.501877 -0.624834 0.061891
v 0.102568 -0.624813 0.061876
v -0.429901 -0.624804 0.059639
v -0.496351 -0.624761 0.057189
v -0.562353 -0.624743 0.049019
v -0.593674 -0.624775 0.037312
v -0.627855 -0.624209 -0.025650
v -0.634703 -0.623880 -0.058650
v 0.807126 -0.838076 -0.045027
v 0.760567 -0.840489 0.023758
v 0.701047 -0.840783 0.049278
v 0.568675 -0.841015 0.058706
v 0.502065 -0.840902 0.058580
v 0.102466 -0.840678 0.058953
v -0.430210 -0.840964 0.056515
v -0.496665 -0.840935 0.054610
v -0.561998 -0.840679 0.045856
v -0.592964 -0.840541 0.033483
v -0.631925 -0.839398 -0.027247
v -0.650631 -0.838380 -0.058032
v 0.810265 -0.913207 -0.031552
v 0.746470 -0.920400 0.018497
v 0.701630 -0.921969 0.045525
v 0.568492 -0.921996 0.052617
v 0.501797 -0.921749 0.052697
v 0.102408 -0.921514 0.052176
v -0.429970 -0.921943 0.051352
v -0.496654 -0.922075 0.048528
v -0.562706 -0.921972 0.043339
v -0.590268 -0.920945 0.032145
v -0.630958 -0.917165 -0.017511
v -0.668813 -0.907333 -0.036919
v 0.829816 -0.928347 -0.016006
v 0.755631 -0.946030 0.024813
v 0.701730 -0.948855 0.042033
v 0.568234 -0.948658 0.046621
v 0.501556 -0.948367 0.046737
v 0.102397 -0.948284 0.047324
v -0.429649 -0.948889 0.047551
v -0.496316 -0.948741 0.043183
v -0.562979 -0.949113 0.040203
v -0.591499 -0.947974 0.030168
v -0.648168 -0.935774 -0.004403
v -0.685487 -0.927232 -0.025564
v 0.772243 -0.960553 -0.100892
v 0.721375 -0.993874 -0.066243
v 0.680423 -1.001160 -0.048077
v 0.564827 -1.010258 -0.050229
v 0.500353 -1.004371 -0.052050
v 0.102345 -1.005319 -0.051040
v -0.424480 -1.009254 -0.048631
v -0.487255 -0.992945 -0.053753
v -0.539276 -1.010418 -0.041683
v -0.549112 -0.999903 -0.058159
v -0.600500 -0.981898 -0.094895
v -0.627567 -0.961329 -0.108861
v 0.742565 -0.983229 -0.142564
v 0.706899 -1.019502 -0.087703
v 0.662685 -1.018377 -0.079475
v 0.557502 -1.025402 -0.084046
v 0.496127 -1.014178 -0.086965
v 0.101988 -1.014794 -0.086066
v -0.415201 -1.025954 -0.081817
v -0.473104 -1.014333 -0.081973
v -0.513540 -1.036954 -0.065470
v -0.519394 -1.023002 -0.079403
v -0.560371 -1.000601 -0.121913
v -0.586815 -0.980774 -0.148757
vn 0.9437 0.0260 0.3296
vn 0.7718 0.0242 0.6354
vn 0.7634 0.0053 0.6459
vn 0.9335 0.0058 0.3585
vn 0.1744 0.0210 0.9844
vn 0.1809 0.0053 0.9835
vn 0.0432 0.0268 0.9987
vn 0.0481 0.0070 0.9988
vn 0.0034 0.0275 0.9996
vn 0.0022 0.0074 1.0000
vn -0.0022 0.0268 0.9996
vn -0.0019 0.0072 1.0000
vn -0.0075 0.0281 0.9996
vn -0.0066 0.0077 0.9999
vn -0.0712 0.0305 0.9970
vn -0.0752 0.0078 0.9971
vn -0.1915 0.0296 0.9810
vn -0.1921 0.0074 0.9814
vn -0.7623 0.0262 0.6467
vn -0.7583 0.0063 0.6519
vn -0.9262 0.0220 0.3764
vn -0.9242 0.0055 0.3819
vn -0.9858 0.0214 0.1663
vn -0.9867 0.0055 0.1627
vn 0.7615 0.0001 0.6482
vn 0.9306 -0.0003 0.3659
vn 0.1812 -0.0001 0.9835
vn 0.0487 -0.0002 0.9988
vn 0.0024 0.0004 1.0000
vn -0.0021 0.0005 1.0000
vn -0.0064 0.0002 1.0000
vn -0.0769 0.0001 0.9970
vn -0.1925 -0.0004 0.9813
vn -0.7576 -0.0005 0.6528
vn -0.9231 -0.0002 0.3847
vn -0.9852 -0.0001 0.1717
vn 0.7444 0.0090 0.6677
vn 0.9143 0.0177 0.4045
vn 0.1779 -0.0032 0.9840
vn 0.0486 -0.0039 0.9988
vn 0.0030 -0.0049 1.0000
vn -0.0021 -0.0055 1.0000
vn -0.0066 -0.0056 1.0000
vn -0.0797 -0.0053 0.9968
vn -0.1973 -0.0060 0.9803
vn -0.7516 -0.0027 0.6596
vn -0.9091 0.0067 0.4166
vn -0.9662 0.0172 0.2573
vn 0.6921 -0.0027 0.7218
vn 0.8511 0.0233 0.5245
vn 0.1753 -0.0288 0.9841
vn 0.0471 -0.0276 0.9985
vn 0.0018 -0.0344 0.9994
vn -0.0022 -0.0346 0.9994
vn -0.0062 -0.0333 0.9994
vn -0.0778 -0.0290 0.9966
vn -0.2006 -0.0236 0.9794
vn -0.7323 -0.0048 0.6810
vn -0.8540 0.0470 0.5181
vn -0.8695 0.1052 0.4825
vn 0.5656 0.0850 0.8203
vn 0.6797 0.2023 0.7051
vn 0.1696 -0.0687 0.9831
vn 0.0394 -0.1051 0.9937
vn -0.0002 -0.1171 0.9931
vn -0.0015 -0.1075 0.9942
vn -0.0049 -0.1007 0.9949
vn -0.0674 -0.0926 0.9934
vn -0.1801 -0.0699 0.9812
vn -0.6533 0.0585 0.7548
vn -0.7157 0.2048 0.6677
vn -0.5306 0.3942 0.7504
vn 0.5015 -0.6775 0.5381
vn 0.6040 -0.6726 0.4275
vn 0.1147 -0.6987 0.7061
vn 0.0149 -0.7259 0.6876
vn -0.0012 -0.7459 0.6661
vn 0.0034 -0.7356 0.6774
vn -0.0000 -0.7267 0.6870
vn -0.0115 -0.7280 0.6854
vn -0.0596 -0.7017 0.7100
vn -0.5593 -0.6661 0.4935
vn -0.5851 -0.6518 0.4826
vn -0.6102 -0.6775 0.4106
vn 0.4397 -0.8650 0.2417
vn 0.5125 -0.8463 0.1456
vn 0.0836 -0.8657 0.4936
vn 0.0127 -0.8683 0.4959
vn 0.0044 -0.8867 0.4623
vn 0.0047 -0.8792 0.4765
vn 0.0164 -0.8728 0.4878
vn 0.0509 -0.8310 0.5540
vn 0.0371 -0.8801 0.4734
vn -0.4715 -0.8534 0.2221
vn -0.4533 -0.8782 0.1528
vn -0.4784 -0.8756 0.0667
vn 0.5381 -0.8107 0.2306
vn 0.6769 -0.7311 0.0860
vn 0.0791 -0.8902 0.4486
vn -0.0212 -0.9160 0.4005
vn 0.0080 -0.9625 0.2710
vn 0.0106 -0.9465 0.3224
vn 0.0234 -0.9316 0.3628
vn 0.0491 -0.7730 0.6325
vn 0.3027 -0.6871 0.6604
vn -0.5717 -0.8201 0.0253
vn -0.4860 -0.8738 0.0143
vn -0.5204 -0.8407 -0.1498
vt 1.000000 1.000000
vt 0.920000 1.000000
vt 0.920000 0.914286
vt 1.000000 0.914286
vt 0.880000 1.000000
vt 0.880000 0.914286
vt 0.800000 1.000000
vt 0.800000 0.914286
vt 0.760000 1.000000
vt 0.760000 0.914286
vt 0.520000 1.000000
vt 0.520000 0.914286
vt 0.200000 1.000000
vt 0.200000 0.914286
vt 0.160000 1.000000
vt 0.160000 0.914286
vt 0.120000 1.000000
vt 0.120000 0.914286
vt 0.100000 1.000000
vt 0.100000 0.914286
vt 0.040000 1.000000
vt 0.040000 0.914286
vt 0.000000 1.000000
vt 0.000000 0.914286
vt 0.920000 0.471429
vt 1.000000 0.471429
vt 0.880000 0.471429
vt 0.800000 0.471429
vt 0.760000 0.471429
vt 0.520000 0.471429
vt 0.200000 0.471429
vt 0.160000 0.471429
vt 0.120000 0.471429
vt 0.100000 0.471429
vt 0.040000 0.471429
vt 0.000000 0.471429
vt 0.920000 0.257143
vt 1.000000 0.257143
vt 0.880000 0.257143
vt 0.800000 0.257143
vt 0.760000 0.257143
vt 0.520000 0.257143
vt 0.200000 0.257143
vt 0.160000 0.257143
vt 0.120000 0.257143
vt 0.100000 0.257143
vt 0.040000 0.257143
vt 0.000000 0.257143
vt 0.920000 0.142857
vt 1.000000 0.142857
vt 0.880000 0.142857
vt 0.800000 0.142857
vt 0.760000 0.142857
vt 0.520000 0.142857
vt 0.200000 0.142857
vt 0.160000 0.142857
vt 0.120000 0.142857
vt 0.100000 0.142857
vt 0.040000 0.142857
vt 0.000000 0.142857
vt 0.920000 0.100000
vt 1.000000 0.100000
vt 0.880000 0.100000
vt 0.800000 0.100000
vt 0.760000 0.100000
vt 0.520000 0.100000
vt 0.200000 0.100000
vt 0.160000 0.100000
vt 0.120000 0.100000
vt 0.100000 0.100000
vt 0.040000 0.100000
vt 0.000000 0.100000
vt 0.920000 0.085714
vt 1.000000 0.085714
vt 0.880000 0.085714
vt 0.800000 0.085714
vt 0.760000 0.085714
vt 0.520000 0.085714
vt 0.200000 0.085714
vt 0.160000 0.085714
vt 0.120000 0.085714
vt 0.100000 0.085714
vt 0.040000 0.085714
vt 0.000000 0.085714
vt 0.920000 0.028571
vt 1.000000 0.028571
vt 0.880000 0.028572
vt 0.800000 0.028571
vt 0.760000 0.028571
vt 0.520000 0.028572
vt 0.200000 0.028571
vt 0.160000 0.028572
vt 0.120000 0.028572
vt 0.100000 0.028571
vt 0.040000 0.028572
vt 0.000000 0.028571
vt 0.920000 0.000000
vt 1.000000 0.000000
vt 0.880000 0.000000
vt 0.800000 0.000000
vt 0.760000 0.000000
vt 0.520000 0.000000
vt 0.200000 0.000000
vt 0.160000 0.000000
vt 0.120000 0.000000
vt 0.100000 0.000000
vt 0.040000 0.000000
vt 0.000000 0.000000
s 1
usemtl M_BedsheetMade_3_0
f 1/1/1 2/2/2 14/3/3 13/4/4
f 2/2/2 3/5/5 15/6/6 14/3/3
f 3/5/5 4/7/7 16/8/8 15/6/6
f 4/7/7 5/9/9 17/10/10 16/8/8
f 5/9/9 6/11/11 18/12/12 17/10/10
f 6/11/11 7/13/13 19/14/14 18/12/12
f 7/13/13 8/15/15 20/16/16 19/14/14
f 8/15/15 9/17/17 21/18/18 20/16/16
f 9/17/17 10/19/19 22/20/20 21/18/18
f 10/19/19 11/21/21 23/22/22 22/20/20
f 11/21/21 12/23/23 24/24/24 23/22/22
f 13/4/4 14/3/3 26/25/25 25/26/26
f 14/3/3 15/6/6 27/27/27 26/25/25
f 15/6/6 16/8/8 28/28/28 27/27/27
f 16/8/8 17/10/10 29/29/29 28/28/28
f 17/10/10 18/12/12 30/30/30 29/29/29
f 18/12/12 19/14/14 31/31/31 30/30/30
f 19/14/14 20/16/16 32/32/32 31/31/31
f 20/16/16 21/18/18 33/33/33 32/32/32
f 21/18/18 22/20/20 34/34/34 33/33/33
f 22/20/20 23/22/22 35/35/35 34/34/34
f 23/22/22 24/24/24 36/36/36 35/35/35
f 25/26/26 26/25/25 38/37/37 37/38/38
f 26/25/25 27/27/27 39/39/39 38/37/37
f 27/27/27 28/28/28 40/40/40 39/39/39
f 28/28/28 29/29/29 41/41/41 40/40/40
f 29/29/29 30/30/30 42/42/42 41/41/41
f 30/30/30 31/31/31 43/43/43 42/42/42
f 31/31/31 32/32/32 44/44/44 43/43/43
f 32/32/32 33/33/33 45/45/45 44/44/44
f 33/33/33 34/34/34 46/46/46 45/45/45
f 34/34/34 35/35/35 47/47/47 46/46/46
f 35/35/35 36/36/36 48/48/48 47/47/47
f 37/38/38 38/37/37 50/49/49 49/50/50
f 38/37/37 39/39/39 51/51/51 50/49/49
f 39/39/39 40/40/40 52/52/52 51/51/51
f 40/40/40 41/41/41 53/53/53 52/52/52
f 41/41/41 42/42/42 54/54/54 53/53/53
f 42/42/42 43/43/43 55/55/55 54/54/54
f 43/43/43 44/44/44 56/56/56 55/55/55
f 44/44/44 45/45/45 57/57/57 56/56/56
f 45/45/45 46/46/46 58/58/58 57/57/57
f 46/46/46 47/47/47 59/59/59 58/58/58
f 47/47/47 48/48/48 60/60/60 59/59/59
f 49/50/50 50/49/49 62/61/61 61/62/62
f 50/49/49 51/51/51 63/63/63 62/61/61
f 51/51/51 52/52/52 64/64/64 63/63/63
f 52/52/52 53/53/53 65/65/65 64/64/64
f 53/53/53 54/54/54 66/66/66 65/65/65
f 54/54/54 55/55/55 67/67/67 66/66/66
f 55/55/55 56/56/56 68/68/68 67/67/67
f 56/56/56 57/57/57 69/69/69 68/68/68
f 57/57/57 58/58/58 70/70/70 69/69/69
f 58/58/58 59/59/59 71/71/71 70/70/70
f 59/59/59 60/60/60 72/72/72 71/71/71
f 61/62/62 62/61/61 74/73/73 73/74/74
f 62/61/61 63/63/63 75/75/75 74/73/73
f 63/63/63 64/64/64 76/76/76 75/75/75
f 64/64/64 65/65/65 77/77/77 76/76/76
f 65/65/65 66/66/66 78/78/78 77/77/77
f 66/66/66 67/67/67 79/79/79 78/78/78
f 67/67/67 68/68/68 80/80/80 79/79/79
f 68/68/68 69/69/69 81/81/81 80/80/80
f 69/69/69 70/70/70 82/82/82 81/81/81
f 70/70/70 71/71/71 83/83/83 82/82/82
f 71/71/71 72/72/72 84/84/84 83/83/83
f 73/74/74 74/73/73 86/85/85 85/86/86
f 74/73/73 75/75/75 87/87/87 86/85/85
f 75/75/75 76/76/76 88/88/88 87/87/87
f 76/76/76 77/77/77 89/89/89 88/88/88
f 77/77/77 78/78/78 90/90/90 89/89/89
f 78/78/78 79/79/79 91/91/91 90/90/90
f 79/79/79 80/80/80 92/92/92 91/91/91
f 80/80/80 81/81/81 93/93/93 92/92/92
f 81/81/81 82/82/82 94/94/94 93/93/93
f 82/82/82 83/83/83 95/95/95 94/94/94
f 83/83/83 84/84/84 96/96/96 95/95/95
f 85/86/86 86/85/85 98/97/97 97/98/98
f 86/85/85 87/87/87 99/99/99 98/97/97
f 87/87/87 88/88/88 100/100/100 99/99/99
f 88/88/88 89/89/89 101/101/101 100/100/100
f 89/89/89 90/90/90 102/102/102 101/101/101
f 90/90/90 91/91/91 103/103/103 102/102/102
f 91/91/91 92/92/92 104/104/104 103/103/103
f 92/92/92 93/93/93 105/105/105 104/104/104
f 93/93/93 94/94/94 106/106/106 105/105/105
f 94/94/94 95/95/95 107/107/107 106/106/106
f 95/95/95 96/96/96 108/108/108 107/107/107
