# Blender 4.1.0
# www.blender.org
mtllib DrawermeshRobothorDresserDrawer_1_Anes_1.mtl
o RobothorDresserDrawer_1_Anes
v 0.461524 -0.009082 0.060888
v -0.464908 -0.009924 0.060888
v -0.465086 0.185133 0.060888
v 0.461346 0.185975 0.060888
v -0.465086 0.185133 0.246298
v 0.461346 0.185975 0.246298
v -0.464908 -0.009924 0.246298
v -0.449002 0.175706 0.068461
v 0.445280 0.176519 0.068461
v 0.445280 0.176518 0.246630
v -0.449002 0.175706 0.246630
v 0.461524 -0.009082 0.246298
v -0.448833 -0.009909 0.068461
v 0.445449 -0.009096 0.068461
v 0.445449 -0.009096 0.246630
v -0.448833 -0.009909 0.246630
v 0.461688 -0.189643 0.060888
v -0.464744 -0.190486 0.060888
v 0.461688 -0.189643 0.246298
v 0.160651 -0.189917 0.246298
v 0.159010 -0.189918 0.242328
v 0.154324 -0.189923 0.235949
v 0.148178 -0.189928 0.230626
v 0.140811 -0.189935 0.226569
v -0.159083 -0.190208 0.242328
v -0.160724 -0.190209 0.246298
v -0.464744 -0.190485 0.246298
v -0.154397 -0.190204 0.235949
v -0.148251 -0.190198 0.230626
v -0.140884 -0.190191 0.226569
v -0.132535 -0.190183 0.223982
v -0.123444 -0.190175 0.223074
v 0.123578 -0.189951 0.223094
v 0.445604 -0.180216 0.068461
v -0.448678 -0.181029 0.068461
v 0.445604 -0.180216 0.246630
v -0.448678 -0.181029 0.246630
v 0.160780 -0.180475 0.246630
v -0.160870 -0.180767 0.246630
v 0.159002 -0.180476 0.242328
v 0.154315 -0.180481 0.235949
v 0.148169 -0.180486 0.230626
v 0.140802 -0.180493 0.226569
v 0.132454 -0.180500 0.223982
v 0.123507 -0.180508 0.223088
v -0.123453 -0.180733 0.223074
v -0.159092 -0.180765 0.242328
v -0.154406 -0.180761 0.235949
v -0.148259 -0.180755 0.230626
v -0.140892 -0.180749 0.226569
v -0.132544 -0.180741 0.223982
v -0.160724 -0.190209 0.246298
v 0.132462 -0.189943 0.223982
v -0.132535 -0.190183 0.223982
v -0.148259 -0.180755 0.230626
v -0.154405 -0.180761 0.235949
vn -0.0000 -0.0000 -1.0000
vn -0.0009 1.0000 -0.0000
vn -1.0000 -0.0009 -0.0000
vn 0.0009 -1.0000 -0.0000
vn 1.0000 0.0009 -0.0000
vn -0.0000 -0.0000 1.0000
vn 0.0009 -1.0000 -0.0003
vn 0.0009 -1.0000 -0.0004
vn -0.0000 0.0351 0.9994
vn -0.0207 -0.0000 0.9998
vn -0.0206 -0.0000 0.9998
vn 0.0206 -0.0000 0.9998
vn 0.0207 -0.0000 0.9998
vn -0.0000 -0.0351 0.9994
vn -0.0010 1.0000 0.0008
vn 0.9242 0.0008 0.3819
vn 0.8544 0.0008 0.5196
vn -0.8544 -0.0008 0.5196
vn -0.9242 -0.0008 0.3819
vn -0.7339 -0.0007 0.6793
vn -0.5703 -0.0005 0.8215
vn -0.3894 -0.0004 0.9211
vn -0.1974 -0.0002 0.9803
vn -0.1975 -0.0002 0.9803
vn -0.0036 0.0002 1.0000
vn -0.0035 0.0003 1.0000
vn 0.0034 0.0003 1.0000
vn 0.0035 0.0003 1.0000
vn 0.1965 0.0002 0.9805
vn 0.0035 -0.0000 1.0000
vn 0.3894 0.0004 0.9211
vn 0.3895 0.0004 0.9210
vn 0.5412 0.0005 0.8409
vn 0.7588 0.0007 0.6513
vn 0.8544 0.0008 0.5197
vt 2.245769 2.349227
vt 0.318540 2.350977
vt 0.318171 1.945206
vt 2.245402 1.943453
vt 2.179532 -0.575838
vt 0.252303 -0.575838
vt 0.252303 -0.961542
vt 2.179532 -0.961542
vt -2.039664 -1.296703
vt -2.039664 -0.910998
vt -2.445437 -0.910999
vt -2.445437 -1.296703
vt -1.636418 -1.622478
vt 0.223931 -1.622479
vt 0.223931 -1.251837
vt -1.636419 -1.251837
vt -1.664724 -1.724874
vt -1.664724 -1.339172
vt -2.070494 -1.339169
vt -2.070497 -1.724875
vt 0.247864 -2.471859
vt -1.612487 -2.473550
vt -1.612133 -2.859681
vt 0.248216 -2.857989
vt -2.382220 -2.736557
vt -2.382221 -3.107199
vt -1.996091 -3.107199
vt -1.996091 -2.736557
vt -2.409851 -3.215656
vt -2.409851 -2.845015
vt -2.795979 -2.845015
vt -2.795979 -3.215655
vt 2.246111 2.724844
vt 0.318880 2.726595
vt 2.179532 -1.004010
vt 1.553294 -1.004010
vt 1.549881 -1.012270
vt 2.179532 -1.389714
vt 1.540132 -1.025540
vt 1.527346 -1.036612
vt 1.512021 -1.045054
vt 0.888160 -1.012270
vt 0.884746 -1.004009
vt 0.252301 -1.004010
vt 0.897909 -1.025540
vt 0.910694 -1.036612
vt 0.926019 -1.045054
vt 0.943387 -1.050435
vt 0.962298 -1.052325
vt 0.252301 -1.389714
vt 1.476173 -1.052281
vt -1.664047 -1.296703
vt -1.664048 -0.910998
vt -2.446113 -1.724875
vt -2.446113 -1.339170
vt 0.248539 -3.213965
vt -1.611812 -3.215656
vt -1.640116 -2.736557
vt -1.640116 -3.107199
vt -3.151955 -3.215655
vt -3.151955 -2.845015
vt 2.245401 1.900986
vt 0.318172 1.899235
vt 0.351628 1.879623
vt 2.211978 1.881313
vt 0.318538 1.493462
vt 0.351982 1.493493
vt 2.245770 1.495215
vt 2.212330 1.495184
vt 1.619874 1.119028
vt 2.246111 1.119598
vt 2.212653 1.139210
vt 1.620139 1.138670
vt 0.318882 1.117846
vt 0.352302 1.137518
vt 0.951325 1.118422
vt 0.951022 1.138062
vt -0.371538 -1.195334
vt -0.367841 -1.204285
vt 0.224674 -1.204285
vt 0.224674 -0.833643
vt -0.381289 -1.182063
vt -0.394075 -1.170992
vt -0.409399 -1.162552
vt -0.959122 -1.155279
vt -1.635678 -0.833643
vt -1.635678 -1.204285
vt -1.036959 -1.204285
vt -1.033262 -1.195334
vt -1.023511 -1.182063
vt -1.010725 -1.170992
vt -0.995401 -1.162551
vt -0.978034 -1.157168
vt -2.506344 -1.824828
vt -2.498084 -1.824826
vt -2.498084 -1.805185
vt -2.507034 -1.805187
vt -2.498084 -1.757375
vt -2.498084 -1.737733
vt -2.506344 -1.737736
vt -2.507034 -1.757378
vt -2.484813 -1.737724
vt -2.484813 -1.757367
vt -2.473742 -1.737713
vt -2.473742 -1.757355
vt -2.489067 -1.959183
vt -2.473742 -1.959170
vt -2.473760 -1.939528
vt -2.489085 -1.939541
vt -2.506436 -1.959200
vt -2.506452 -1.939557
vt -2.524915 -1.959215
vt -2.525065 -1.939573
vt -3.038791 -1.959684
vt -3.038808 -1.940041
vt -3.057702 -1.959701
vt -3.057720 -1.940058
vt -3.075069 -1.959717
vt -3.075088 -1.940075
vt -3.090395 -1.959730
vt -3.090413 -1.940087
vt -2.484813 -1.824819
vt -2.473742 -1.824806
vt -2.473742 -1.805163
vt -2.484813 -1.805177
vt -0.426766 -1.157169
vt -0.445377 -1.155308
vt 1.494653 -1.050435
s 1
usemtl M_RobothorDresserDrawer_1_Anes_0
f 1/1/1 2/2/1 3/3/1 4/4/1
f 4/5/2 3/6/2 5/7/2
f 5/7/2 6/8/2 4/5/2
f 2/9/3 7/10/3 5/11/3
f 5/11/3 3/12/3 2/9/3
f 8/13/4 9/14/4 10/15/4 11/16/4
f 4/17/5 6/18/5 12/19/5
f 12/19/5 1/20/5 4/17/5
f 9/21/6 8/22/6 13/23/6
f 13/23/6 14/24/6 9/21/6
f 10/25/3 9/26/3 14/27/3
f 14/27/3 15/28/3 10/25/3
f 8/29/5 11/30/5 16/31/5
f 16/31/5 13/32/5 8/29/5
f 1/1/1 17/33/1 18/34/1 2/2/1
f 19/35/4 20/36/4 21/37/4 17/38/4
f 17/38/4 21/37/4 22/39/4
f 17/38/4 22/39/4 23/40/4
f 17/38/4 23/40/4 24/41/4
f 25/42/4 26/43/4 27/44/4 28/45/4
f 29/46/4 28/45/4 27/44/4 30/47/4
f 31/48/7 30/47/8 27/44/4 32/49/4
f 32/49/4 27/44/4 18/50/4
f 33/51/4 32/49/4 18/50/4 17/38/4
f 2/9/3 18/52/3 27/53/3
f 27/53/3 7/10/3 2/9/3
f 17/54/5 1/20/5 12/19/5
f 12/19/5 19/55/5 17/54/5
f 34/56/6 14/24/6 13/23/6 35/57/6
f 36/58/3 15/28/3 14/27/3
f 14/27/3 34/59/3 36/58/3
f 35/60/5 13/32/5 16/31/5
f 16/31/5 37/61/5 35/60/5
f 6/62/9 5/63/9 11/64/9
f 11/64/9 10/65/9 6/62/9
f 5/63/10 7/66/11 16/67/11
f 16/67/11 11/64/10 5/63/10
f 12/68/12 6/62/13 10/65/13
f 10/65/13 15/69/12 12/68/12
f 20/70/14 19/71/14 36/72/14
f 36/72/14 38/73/14 20/70/14
f 7/66/11 27/74/11 37/75/11
f 37/75/11 16/67/11 7/66/11
f 19/71/12 12/68/12 15/69/12
f 15/69/12 36/72/12 19/71/12
f 37/75/14 27/74/14 26/76/14
f 26/76/14 39/77/14 37/75/14
f 40/78/2 38/79/2 36/80/2
f 40/78/2 36/80/2 34/81/2
f 41/82/2 40/78/2 34/81/2
f 42/83/2 41/82/2 34/81/2
f 43/84/2 42/83/2 34/81/2
f 46/85/2 35/86/2 37/87/2
f 37/87/2 39/88/2 47/89/2
f 37/87/2 47/89/2 48/90/2
f 37/87/2 48/90/2 49/91/2
f 37/87/2 49/91/2 50/92/2
f 37/87/2 50/92/2 51/93/15
f 46/85/2 37/87/2 51/93/15
f 52/94/16 25/95/17 47/96/17 39/97/16
f 40/98/18 21/99/18 20/100/19 38/101/19
f 22/102/20 21/99/18 40/98/18 41/103/20
f 23/104/21 22/102/20 41/103/20 42/105/21
f 24/106/22 23/107/21 42/108/21 43/109/22
f 53/110/23 24/106/22 43/109/22 44/111/24
f 33/112/25 53/110/23 44/111/24 45/113/26
f 32/114/27 33/112/25 45/113/26 46/115/28
f 54/116/29 32/114/28 46/115/30 51/117/29
f 30/118/31 54/116/29 51/117/29 50/119/32
f 29/120/33 30/118/31 50/119/32 55/121/33
f 28/122/34 29/123/33 55/124/33
f 55/124/33 56/125/34 28/122/34
f 25/95/35 28/122/34 56/125/34 47/96/35
f 44/126/2 34/81/2 45/127/2
f 53/128/4 17/38/4 24/41/4
f 33/51/4 17/38/4 53/128/4
f 34/81/2 44/126/2 43/84/2
f 45/127/2 34/81/2 35/86/2 46/85/2
