# Blender 4.1.1
# www.blender.org
mtllib Fp325_Dresser1ShelvingUnit_325_2_GeomSubset_1.mtl
o Fp325_Dresser1ShelvingUnit_325_2_GeomSubset_1
v 0.456985 -0.151503 -1.103255
v 0.456985 -0.151503 1.005778
v 0.456985 -0.112538 1.005777
v 0.456985 -0.112538 -1.103255
v 0.533338 -0.154934 -1.103255
v 0.533338 -0.154934 1.005778
v 0.462522 -0.154934 1.005778
v 0.462522 -0.154934 -1.103255
v 0.538875 -0.112538 -1.103255
v 0.538875 -0.112538 1.005777
v 0.538875 -0.151503 1.005778
v 0.538875 -0.151503 -1.103255
v 0.462522 -0.112538 -1.104933
v 0.533338 -0.112538 -1.104933
v 0.533338 -0.151503 -1.104933
v 0.462522 -0.151503 -1.104933
v 0.533338 -0.112538 1.007455
v 0.462522 -0.112538 1.007455
v 0.462522 -0.151503 1.007456
v 0.533338 -0.151503 1.007456
v 0.462522 -0.109102 -1.103255
v 0.462522 -0.109103 1.005778
v 0.533339 -0.109103 1.005778
v 0.533339 -0.109102 -1.103255
v 0.456985 0.136699 -1.103255
v 0.456985 0.136699 1.005778
v 0.456985 0.175666 1.005778
v 0.456985 0.175663 -1.103255
v 0.533338 0.133266 -1.103255
v 0.533338 0.133266 1.005778
v 0.462522 0.133266 1.005778
v 0.462522 0.133266 -1.103255
v 0.538874 0.175663 -1.103255
v 0.538874 0.175666 1.005778
v 0.538874 0.136701 1.005778
v 0.538874 0.136699 -1.103255
v 0.462521 0.175663 -1.104933
v 0.533338 0.175667 -1.104933
v 0.533338 0.136699 -1.104933
v 0.462522 0.136699 -1.104933
v 0.533338 0.175666 1.007455
v 0.462521 0.175663 1.007455
v 0.462522 0.136699 1.007455
v 0.533338 0.136701 1.007455
v 0.462521 0.179098 -1.103255
v 0.462521 0.179098 1.005778
v 0.533338 0.179098 1.005778
v 0.533338 0.179098 -1.103255
v -0.462206 -0.112538 -1.104933
v -0.462206 -0.151503 -1.104933
v -0.533022 -0.151503 -1.104933
v -0.533023 -0.112538 -1.104933
v -0.533022 -0.154938 -1.103255
v -0.462206 -0.154938 -1.103255
v -0.462206 -0.154934 1.005778
v -0.533022 -0.154934 1.005778
v -0.538559 -0.112538 -1.103255
v -0.538559 -0.151503 -1.103255
v -0.538559 -0.151503 1.005778
v -0.538559 -0.112538 1.005778
v -0.533023 -0.112538 1.007455
v -0.533022 -0.151503 1.007456
v -0.462206 -0.151503 1.007456
v -0.462206 -0.112538 1.007455
v -0.456670 -0.151503 -1.103255
v -0.456670 -0.112538 -1.103255
v -0.456670 -0.112538 1.005777
v -0.456670 -0.151503 1.005778
v -0.462206 -0.109106 -1.103255
v -0.533023 -0.109106 -1.103255
v -0.533023 -0.109106 1.005778
v -0.462206 -0.109106 1.005778
v -0.533023 0.133266 -1.103255
v -0.462207 0.133266 -1.103255
v -0.462207 0.133266 1.005778
v -0.533023 0.133266 1.005778
v -0.538559 0.175661 -1.103255
v -0.538560 0.136699 -1.103255
v -0.538560 0.136699 1.005778
v -0.538559 0.175661 1.005778
v -0.533023 0.175661 1.007456
v -0.533023 0.136699 1.007456
v -0.462207 0.136699 1.007456
v -0.462207 0.175661 1.007456
v -0.456670 0.136699 -1.103255
v -0.456670 0.175661 -1.103255
v -0.456670 0.175661 1.005778
v -0.456670 0.136699 1.005778
v -0.462207 0.179094 -1.103255
v -0.533023 0.179094 -1.103255
v -0.533023 0.179094 1.005778
v -0.462207 0.179094 1.005778
v -0.462207 0.136699 -1.104933
v -0.462207 0.175661 -1.104933
v -0.533023 0.136699 -1.104933
v -0.533023 0.175661 -1.104933
v 0.496003 -0.108856 -0.996458
v 0.496003 -0.108857 0.999548
v 0.496003 0.134183 0.999548
v 0.496003 0.134184 -0.996458
v 0.536955 0.134183 0.999548
v 0.536955 0.134184 -0.996458
v 0.536956 -0.108857 0.999548
v 0.536956 -0.108856 -0.996458
v -0.497469 -0.108856 -0.996458
v -0.497469 0.134180 -0.996458
v -0.497469 0.134180 0.999548
v -0.497469 -0.108857 0.999548
v -0.538422 0.134180 -0.996458
v -0.538422 0.134180 0.999548
v -0.538422 -0.108856 -0.996458
v -0.538422 -0.108857 0.999548
v 0.465024 0.154945 -0.996458
v 0.465024 0.154945 0.999548
v -0.464710 0.154945 0.999548
v -0.464710 0.154945 -0.996458
v -0.464710 0.180339 0.999548
v -0.464710 0.180340 -0.996458
v 0.465024 0.180341 0.999548
v 0.465024 0.180342 -0.996458
v 0.008198 -0.153275 0.475002
v 0.008198 -0.153275 0.507219
v -0.464709 -0.153277 0.507219
v -0.447872 -0.153275 0.475002
v -0.447872 -0.153277 0.539436
v 0.008198 -0.153275 0.539436
v 0.465025 -0.153273 0.507219
v 0.448187 -0.153273 0.539436
v -0.464709 -0.127884 -0.996458
v -0.464709 -0.153277 -0.996458
v -0.464709 -0.153277 0.001545
v -0.464709 -0.153277 0.999548
v -0.464709 -0.127884 0.999548
v 0.448187 -0.153275 -0.030672
v 0.448187 0.064830 -0.030672
v 0.448187 0.064831 -0.964241
v 0.448187 -0.153275 -0.964241
v 0.465025 -0.127879 0.999548
v 0.465025 -0.153275 0.999548
v 0.465025 -0.153273 0.001545
v 0.465025 -0.153275 -0.996458
v 0.465025 -0.127878 -0.996458
v 0.008198 -0.153275 -0.996458
v 0.008198 -0.153275 0.999548
v -0.447872 -0.153275 -0.964241
v -0.447872 0.064831 -0.964241
v -0.447872 0.064830 -0.030672
v -0.447872 -0.153275 -0.030672
v 0.008198 -0.153275 0.967331
v 0.008198 0.064830 0.967331
v 0.008198 0.064830 0.033762
v 0.008198 -0.153275 0.033762
v 0.008198 -0.153275 -0.964241
v 0.008198 -0.153275 -0.030672
v 0.008198 -0.153275 0.001545
v -0.447872 -0.153277 0.033762
v -0.447872 -0.153277 0.967331
v 0.448187 -0.153275 0.033762
v 0.448187 -0.153275 0.967331
v 0.448187 0.064830 0.033762
v 0.448187 0.064830 0.967331
v 0.008198 0.064831 -0.964241
v 0.008198 0.064830 -0.030672
v -0.447872 0.064829 0.033762
v -0.447872 0.064828 0.967331
v 0.448187 -0.153275 0.475002
v -0.447872 0.064830 0.475002
v 0.008198 0.064830 0.475002
v 0.448187 0.064830 0.475002
v 0.448187 0.064830 0.539436
v 0.008198 0.064830 0.539436
v -0.447872 0.064829 0.539436
v 0.008198 -0.153275 -0.527440
v 0.008198 -0.153275 -0.495223
v -0.464709 -0.153277 -0.495223
v -0.447872 -0.153277 -0.527440
v -0.447872 -0.153275 -0.463007
v 0.008198 -0.153275 -0.463007
v 0.465025 -0.153273 -0.495223
v 0.448187 -0.153275 -0.463007
v 0.448187 -0.153273 -0.527440
v -0.447872 0.064829 -0.527440
v 0.008198 0.064831 -0.527440
v 0.448187 0.064832 -0.527440
v 0.448187 0.064831 -0.463007
v 0.008198 0.064831 -0.463007
v -0.447872 0.064829 -0.463006
v -0.538781 -0.158039 1.012952
v 0.538781 -0.158038 1.012952
v 0.538781 -0.158039 1.076985
v -0.538781 -0.158039 1.076985
v -0.545733 0.178466 1.012952
v -0.545732 -0.153731 1.012952
v -0.545732 -0.153731 1.076985
v -0.545733 0.178466 1.076985
v -0.538781 0.178466 1.094978
v -0.538781 -0.153731 1.094978
v 0.538781 -0.153729 1.094978
v 0.538780 0.178468 1.094978
v 0.545733 -0.153729 1.012952
v 0.545732 0.178468 1.012952
v 0.545732 0.178468 1.076985
v 0.545733 -0.153729 1.076985
v 0.538780 0.182777 1.012952
v -0.538781 0.182777 1.012952
v -0.538781 0.182775 1.076985
v 0.538780 0.182777 1.076985
v 0.538781 -0.153729 0.994959
v 0.538780 0.178468 0.994959
v -0.538781 -0.153731 0.994960
v -0.538781 0.178466 0.994959
vn -0.0000 1.0000 -0.0000
vn 1.0000 -0.0000 -0.0000
vn -0.0000 -0.0000 -1.0000
vn -1.0000 -0.0000 -0.0000
vn -0.0000 -1.0000 -0.0000
vn -0.5160 0.8332 0.1990
vn -0.5162 0.8329 0.1995
vn -0.5163 0.8328 -0.1995
vn -0.5162 -0.8329 0.1995
vn -0.5162 -0.8329 -0.1995
vn 0.5162 0.8329 0.1994
vn 0.5162 0.8329 -0.1994
vn 0.5164 -0.8328 0.1995
vn 0.5162 -0.8329 -0.1995
vn -0.9328 -0.0000 0.3604
vn -0.5268 0.8500 -0.0000
vn -0.5269 0.8499 -0.0000
vn -0.9328 -0.0000 -0.3604
vn -0.5268 -0.8500 -0.0000
vn 0.0003 -0.9725 0.2329
vn -0.0000 -0.9725 0.2329
vn -0.0000 -0.9725 0.2330
vn -0.0002 -0.9726 -0.2327
vn -0.0000 -0.9725 -0.2329
vn 0.5268 -0.8500 -0.0000
vn 0.5270 -0.8499 -0.0000
vn 0.9328 -0.0000 0.3604
vn 0.9328 -0.0000 -0.3604
vn 0.5268 0.8500 -0.0000
vn -0.0000 0.9725 0.2329
vn -0.0000 0.9726 0.2324
vn -0.0000 0.9725 -0.2328
vn -0.0006 0.9725 -0.2329
vn -0.0000 0.9725 -0.2329
vn -0.0000 -0.0000 1.0000
vt 0.399260 0.824345
vt -0.196423 0.841905
vt -0.196423 0.824345
vt 0.399260 0.841905
vt 0.451269 0.824345
vt 0.267772 0.841905
vt 0.267772 0.824345
vt 0.451269 0.841905
vt 0.399260 0.451269
vt -0.196423 0.267772
vt 0.399260 0.267772
vt -0.196423 0.451269
vt 0.803577 0.824345
vt 1.399261 0.841905
vt 1.399261 0.824345
vt 0.803577 0.841905
vt 0.267772 0.821553
vt 0.265391 0.824345
vt 0.265391 0.841905
vt 0.267772 0.844698
vt 0.451269 0.821553
vt 0.453651 0.824345
vt 0.451269 0.844697
vt 0.453651 0.841905
vt 0.399260 0.821553
vt -0.196423 0.821553
vt 0.803577 0.844697
vt 1.399261 0.844697
vt 0.803577 0.821553
vt 1.399261 0.821553
vt 0.399260 0.844698
vt -0.196423 0.844698
vt 0.803577 0.451269
vt 1.399261 0.267772
vt 0.803577 0.267772
vt 1.399261 0.451269
s 1
usemtl M_ShelvingUnit_325_1
f 188/1/1 190/2/1 189/3/1
f 188/1/1 191/4/1 190/2/1
f 192/5/2 194/6/2 193/7/2
f 192/5/2 195/8/2 194/6/2
f 196/9/3 198/10/3 197/11/3
f 196/9/3 199/12/3 198/10/3
f 200/7/4 202/8/4 201/5/4
f 200/7/4 203/6/4 202/8/4
f 204/13/5 206/14/5 205/15/5
f 204/13/5 207/16/5 206/14/5
f 208/17/6 189/18/7 200/7/7
f 190/19/8 198/20/8 203/6/8
f 209/21/9 201/5/9 204/22/9
f 199/23/10 207/24/10 202/8/10
f 210/17/11 193/7/11 188/18/11
f 197/20/12 191/19/12 194/6/12
f 211/21/13 205/22/13 192/5/13
f 196/23/14 195/8/14 206/24/14
f 209/21/15 200/7/15 201/5/15
f 209/21/15 208/17/15 200/7/15
f 189/18/16 203/6/17 200/7/16
f 189/18/16 190/19/17 203/6/17
f 198/20/18 202/8/18 203/6/18
f 198/20/18 199/23/18 202/8/18
f 207/24/19 201/5/19 202/8/19
f 207/24/19 204/22/19 201/5/19
f 211/25/20 204/3/21 205/1/22
f 211/25/20 209/26/21 204/3/21
f 199/27/23 206/14/24 207/16/24
f 199/27/23 196/28/24 206/14/24
f 195/8/25 205/22/26 206/24/25
f 195/8/25 192/5/26 205/22/26
f 210/17/27 192/5/27 193/7/27
f 210/17/27 211/21/27 192/5/27
f 196/23/28 194/6/28 195/8/28
f 196/23/28 197/20/28 194/6/28
f 191/19/29 193/7/29 194/6/29
f 191/19/29 188/18/29 193/7/29
f 208/29/30 188/15/30 189/13/30
f 208/29/30 210/30/31 188/15/30
f 197/31/32 190/2/33 191/4/32
f 197/31/32 198/32/34 190/2/33
f 209/33/35 210/34/35 208/35/35
f 209/33/35 211/36/35 210/34/35
