# Blender 4.1.0
# www.blender.org
mtllib FridgeDrawer1_16_FridgeDrawer1C4_1_GeomSubset_0.mtl
o FridgeDrawer1_16_FridgeDrawer1C4_1_GeomSubset_0
v 0.000160 0.023406 -1.093784
v 0.000169 0.023406 -1.093784
v 0.000160 0.023416 -1.093784
v 0.000169 0.023416 -1.093784
v 0.000160 0.023406 -1.093784
v 0.000169 0.023406 -1.093784
v 0.000160 0.023416 -1.093784
v 0.000169 0.023416 -1.093784
v 0.000160 0.023406 -1.093784
v 0.000169 0.023406 -1.093784
v 0.000160 0.023416 -1.093784
v 0.000169 0.023416 -1.093784
v 0.000160 0.023406 -1.093784
v 0.000169 0.023406 -1.093784
v 0.000160 0.023416 -1.093784
v 0.000169 0.023416 -1.093784
v 0.000160 0.023406 -1.093784
v 0.000169 0.023406 -1.093784
v 0.000160 0.023416 -1.093784
v 0.000169 0.023416 -1.093784
v 0.000160 0.023406 -1.093784
v 0.000169 0.023406 -1.093784
v 0.000160 0.023416 -1.093784
v 0.000169 0.023416 -1.093784
v 0.000160 0.023406 -1.093784
v 0.000169 0.023406 -1.093784
v 0.000160 0.023416 -1.093784
v 0.000169 0.023416 -1.093784
v -0.463973 0.144465 0.364119
v -0.028659 0.144465 0.364119
v -0.463973 0.072208 0.242441
v -0.463973 0.067066 0.239378
v -0.028659 0.067066 0.239378
v -0.028659 0.072208 0.242441
v -0.463973 0.144465 0.372465
v -0.463973 0.072208 0.372465
v -0.463973 0.067066 0.372465
v -0.463973 -0.195217 0.372465
v -0.028659 0.072208 0.372465
v -0.028659 0.144465 0.372465
v -0.028659 0.067066 0.372465
v -0.028659 -0.195217 0.372465
v -0.028659 -0.156936 0.239378
v -0.028659 -0.178174 0.262758
v -0.463973 -0.178174 0.262758
v -0.463973 -0.156936 0.239378
v -0.463973 -0.176557 0.253811
v -0.028659 -0.176557 0.253811
v -0.463973 -0.171954 0.246226
v -0.028659 -0.171954 0.246226
v -0.463973 -0.165063 0.241158
v -0.028659 -0.165063 0.241158
v -0.459243 0.135777 0.366968
v -0.033389 0.135777 0.366968
v -0.036002 0.067389 0.248207
v -0.456631 0.067389 0.248207
v -0.033233 -0.169180 0.264589
v -0.035890 -0.188090 0.373807
v -0.456742 -0.188090 0.373807
v -0.459399 -0.169180 0.264589
v -0.036002 0.065320 0.246974
v -0.456631 0.065320 0.246974
v -0.453747 0.072208 0.372465
v -0.456742 0.137235 0.372465
v -0.453747 0.067066 0.372465
v -0.033304 -0.168141 0.257649
v -0.033304 -0.165512 0.253318
v -0.033304 -0.161577 0.250424
v -0.033250 -0.156040 0.249389
v -0.038885 0.067066 0.372465
v -0.035890 0.137235 0.372465
v -0.038885 0.072208 0.372465
v -0.459382 -0.156040 0.249389
v -0.459328 -0.161577 0.250424
v -0.459328 -0.165512 0.253318
v -0.459328 -0.168141 0.257649
v -0.454332 0.066712 0.347002
v -0.457394 -0.183449 0.347002
v -0.038300 0.066712 0.347002
v -0.038294 0.071221 0.347002
v -0.033828 0.124279 0.347002
v -0.035238 -0.183449 0.347002
v -0.454337 0.071221 0.347002
v -0.458804 0.124279 0.347002
v -0.463973 0.134301 0.347002
v -0.028659 0.134301 0.347002
v -0.028659 -0.191262 0.347002
v -0.463973 -0.191262 0.347002
v -0.463973 0.072208 0.347002
v -0.463973 0.067066 0.347002
v -0.028659 0.067066 0.347002
v -0.028659 0.072208 0.347002
v -0.463973 -0.209638 0.372465
v -0.028659 -0.209638 0.372465
v -0.028659 -0.205682 0.347002
v -0.463973 -0.205682 0.347002
vn -0.0000 -0.0000 1.0000
vn -0.0000 -0.8861 0.4636
vn -0.0000 -0.9666 0.2564
vn -0.0329 -0.1064 0.9938
vn -0.0100 -0.0317 0.9994
vn 0.0100 -0.0317 0.9994
vn 0.0329 -0.1064 0.9938
vn -0.0761 0.0030 0.9971
vn 0.0761 0.0030 0.9971
vn -0.0000 0.9288 -0.3707
vn -0.0000 1.0000 -0.0000
vn 0.9996 -0.0120 -0.0246
vn 0.9996 -0.0124 -0.0240
vn 0.9996 -0.0124 -0.0236
vn 0.9996 -0.0118 -0.0246
vn -0.9945 0.0736 -0.0739
vn -0.9963 0.0747 -0.0427
vn -0.9996 -0.0124 -0.0236
vn -0.9996 -0.0118 -0.0246
vn -0.9938 0.0792 -0.0778
vn -0.9952 0.0814 -0.0540
vn -0.9996 -0.0120 -0.0246
vn -0.9996 -0.0126 -0.0237
vn 0.9945 0.0736 -0.0739
vn 0.9963 0.0747 -0.0427
vn 0.9952 0.0814 -0.0540
vn 0.9938 0.0792 -0.0778
vn -0.0000 0.9853 0.1706
vn -0.0000 -0.8666 0.4990
vn -0.0000 0.8598 -0.5106
vn -0.0000 -0.9881 -0.1535
vn -1.0000 -0.0000 -0.0000
vn 1.0000 -0.0000 -0.0000
vn -0.0000 -0.0000 -1.0000
vt -169.521179 -113.220016
vt -169.521103 -113.220016
vt -169.521103 -113.219940
vt -169.521179 -113.219940
vt -170.193558 0.663134
vt -170.193558 -0.598271
vt -170.177292 -0.590863
vt -170.177292 0.655726
vt -171.120102 0.628576
vt -171.140015 0.648781
vt -171.140015 -0.567613
vt -171.120102 -0.547408
vt -170.211029 0.628576
vt -170.190826 0.648781
vt -170.392746 0.648781
vt -170.392746 0.620207
vt -170.407120 0.648781
vt -170.407120 0.620207
vt -170.407120 -0.567613
vt -170.407120 -0.539039
vt -170.392746 -0.539039
vt -170.392746 -0.567613
vt -170.190826 -0.567613
vt -170.211029 -0.547408
vt -170.364334 0.680024
vt -170.388824 0.680024
vt -170.388824 -0.598856
vt -170.364334 -0.598856
vt -169.964417 0.399724
vt -170.039246 0.386773
vt -170.039246 -0.311327
vt -169.968170 -0.312316
vt -169.913589 0.218340
vt -169.984634 0.215584
vt -169.984634 0.202998
vt -169.913589 0.203987
vt -169.913589 0.399856
vt -169.928925 0.395786
vt -169.984634 0.363692
vt -169.909836 -0.508260
vt -169.984634 -0.495305
vt -169.968170 -0.326665
vt -170.039246 -0.323909
vt -170.039246 -0.471975
vt -169.983490 -0.504059
vt -169.968170 -0.508128
vt -170.123703 0.622402
vt -170.199005 0.620569
vt -170.199005 -0.562078
vt -170.123703 -0.563911
vt -170.252716 0.661833
vt -170.252716 -0.596970
vt -170.314026 -0.598856
vt -170.314026 0.680024
vt -170.334671 0.651231
vt -170.334671 -0.570063
vt -170.263229 -0.570063
vt -170.263229 0.651231
vt -170.072433 0.262878
vt -170.072433 0.464408
vt -170.095703 0.464408
vt -170.143448 0.436057
vt -170.143448 0.262878
vt -170.143448 0.248537
vt -170.072433 0.248537
vt -170.019943 -0.307322
vt -170.019943 0.424160
vt -170.090958 0.413128
vt -170.090958 -0.307322
vt -170.019943 -0.321661
vt -170.090958 -0.321661
vt -170.090958 -0.494831
vt -170.043228 -0.523180
vt -170.019943 -0.523180
vt -170.072433 -0.482987
vt -170.143448 -0.471955
vt -171.180313 0.648781
vt -171.180313 -0.567613
vt -170.143448 -0.512176
vt -170.072433 -0.523209
vt -170.276108 0.647412
vt -170.276108 -0.566244
vt -170.235886 -0.566244
vt -170.235886 0.647412
vt -170.019943 0.464378
vt -170.090958 0.453346
s 1
usemtl M_FridgeDrawer1C4_0
f 1/1/1 2/2/1 4/3/1 3/4/1
f 53/5/2 54/6/2 71/7/3 64/8/3
f 59/9/4 38/10/5 42/11/6 58/12/7
f 64/13/1 35/14/1 36/15/1 63/16/1
f 63/16/1 36/15/1 37/17/8 65/18/8
f 58/12/7 42/11/6 41/19/9 70/20/9
f 72/21/1 39/22/1 40/23/1 71/24/1
f 70/20/9 41/19/9 39/22/1 72/21/1
f 65/18/8 37/17/8 38/10/5 59/9/4
f 71/24/1 40/23/1 35/14/1 64/13/1
f 29/25/10 35/26/11 40/27/11 30/28/10
f 59/29/12 78/30/13 77/31/14 65/32/15
f 72/33/16 80/34/17 79/35/18 70/36/19
f 72/33/16 71/37/20 54/38/20 81/39/21 80/34/17
f 58/40/22 70/36/19 79/35/18 82/41/23
f 63/42/24 65/32/15 77/31/14 83/43/25
f 63/42/24 83/43/25 84/44/26 53/45/27 64/46/27
f 78/47/28 59/48/28 58/49/28 82/50/28
f 54/6/2 53/5/2 84/51/29 81/52/29
f 86/53/30 85/54/30 29/25/10 30/28/10
f 96/55/31 95/56/31 94/57/31 93/58/31
f 36/59/32 35/60/32 29/61/32 85/62/32 89/63/32
f 90/64/32 37/65/32 36/59/32 89/63/32
f 41/66/33 42/67/33 87/68/33 91/69/33
f 39/70/33 92/71/33 86/72/33 30/73/33 40/74/33
f 92/71/33 39/70/33 41/66/33 91/69/33
f 38/75/32 37/65/32 90/64/32 88/76/32
f 42/11/6 38/10/5 93/77/1 94/78/1
f 38/75/32 88/76/32 96/79/32 93/80/32
f 88/81/34 87/82/34 95/83/34 96/84/34
f 87/68/33 42/67/33 94/85/33 95/86/33
