# Blender 4.1.1
# www.blender.org
mtllib FridgeDrawer1_16_FridgeDrawer1C4_1_GeomSubset_0.mtl
o FridgeDrawer1_16_FridgeDrawer1C4_1_GeomSubset_0
v -0.000160 0.023406 -1.093784
v -0.000169 0.023406 -1.093784
v -0.000160 0.023416 -1.093784
v -0.000169 0.023416 -1.093784
v -0.000160 0.023406 -1.093784
v -0.000169 0.023406 -1.093784
v -0.000160 0.023416 -1.093784
v -0.000169 0.023416 -1.093784
v -0.000160 0.023406 -1.093784
v -0.000169 0.023406 -1.093784
v -0.000160 0.023416 -1.093784
v -0.000169 0.023416 -1.093784
v -0.000160 0.023406 -1.093784
v -0.000169 0.023406 -1.093784
v -0.000160 0.023416 -1.093784
v -0.000169 0.023416 -1.093784
v -0.000160 0.023406 -1.093784
v -0.000169 0.023406 -1.093784
v -0.000160 0.023416 -1.093784
v -0.000169 0.023416 -1.093784
v -0.000160 0.023406 -1.093784
v -0.000169 0.023406 -1.093784
v -0.000160 0.023416 -1.093784
v -0.000169 0.023416 -1.093784
v -0.000160 0.023406 -1.093784
v -0.000169 0.023406 -1.093784
v -0.000160 0.023416 -1.093784
v -0.000169 0.023416 -1.093784
v 0.463973 0.144465 0.364119
v 0.028659 0.144465 0.364119
v 0.463973 0.072208 0.242441
v 0.463973 0.067066 0.239378
v 0.028659 0.067066 0.239378
v 0.028659 0.072208 0.242441
v 0.463973 0.144465 0.372465
v 0.463973 0.072208 0.372465
v 0.463973 0.067066 0.372465
v 0.463973 -0.195217 0.372465
v 0.028659 0.072208 0.372465
v 0.028659 0.144465 0.372465
v 0.028659 0.067066 0.372465
v 0.028659 -0.195217 0.372465
v 0.028659 -0.156936 0.239378
v 0.028659 -0.178174 0.262758
v 0.463973 -0.178174 0.262758
v 0.463973 -0.156936 0.239378
v 0.463973 -0.176557 0.253811
v 0.028659 -0.176557 0.253811
v 0.463973 -0.171954 0.246226
v 0.028659 -0.171954 0.246226
v 0.463973 -0.165063 0.241158
v 0.028659 -0.165063 0.241158
v 0.459243 0.135777 0.366968
v 0.033389 0.135777 0.366968
v 0.036002 0.067389 0.248207
v 0.456631 0.067389 0.248207
v 0.033233 -0.169181 0.264589
v 0.035890 -0.188090 0.373807
v 0.456742 -0.188090 0.373807
v 0.459399 -0.169181 0.264589
v 0.036002 0.065320 0.246974
v 0.456631 0.065320 0.246974
v 0.453747 0.072208 0.372465
v 0.456742 0.137235 0.372465
v 0.453747 0.067066 0.372465
v 0.033304 -0.168141 0.257649
v 0.033304 -0.165512 0.253318
v 0.033304 -0.161577 0.250424
v 0.033250 -0.156040 0.249389
v 0.038885 0.067066 0.372465
v 0.035890 0.137235 0.372465
v 0.038885 0.072208 0.372465
v 0.459382 -0.156040 0.249389
v 0.459328 -0.161577 0.250424
v 0.459328 -0.165512 0.253318
v 0.459328 -0.168141 0.257649
v 0.454332 0.066712 0.347002
v 0.457394 -0.183449 0.347002
v 0.038300 0.066712 0.347002
v 0.038294 0.071221 0.347002
v 0.033828 0.124279 0.347002
v 0.035238 -0.183449 0.347002
v 0.454337 0.071221 0.347002
v 0.458804 0.124279 0.347002
v 0.463973 0.134301 0.347002
v 0.028659 0.134301 0.347002
v 0.028659 -0.191262 0.347002
v 0.463973 -0.191262 0.347002
v 0.463973 0.072208 0.347002
v 0.463973 0.067066 0.347002
v 0.028659 0.067066 0.347002
v 0.028659 0.072208 0.347002
v 0.463973 -0.209638 0.372465
v 0.028659 -0.209638 0.372465
v 0.028659 -0.205682 0.347002
v 0.463973 -0.205682 0.347002
vn -0.0000 -0.0000 -1.0000
vn -0.0000 0.9459 -0.3244
vn -0.0000 0.9666 -0.2564
vn -0.0448 0.0777 -0.9960
vn -0.0298 0.0596 -0.9978
vn 0.0298 0.0596 -0.9978
vn 0.0448 0.0777 -0.9960
vn -0.0024 -0.0001 -1.0000
vn -0.0008 -0.0000 -1.0000
vn 0.0024 -0.0001 -1.0000
vn 0.0008 -0.0000 -1.0000
vn -0.0000 -0.9840 0.1781
vn -0.0000 -1.0000 -0.0000
vn 0.9996 0.0120 0.0246
vn 0.9996 0.0124 0.0240
vn 0.9997 -0.0029 0.0236
vn 0.9997 -0.0004 0.0231
vn -0.9996 -0.0084 0.0285
vn -0.9994 -0.0106 0.0321
vn -0.9997 -0.0029 0.0235
vn -0.9997 -0.0004 0.0231
vn -0.9938 -0.0792 0.0778
vn -0.9945 -0.0802 0.0673
vn -0.9996 0.0120 0.0246
vn 0.9996 -0.0084 0.0285
vn 0.9994 -0.0106 0.0321
vn 0.9945 -0.0802 0.0673
vn 0.9938 -0.0792 0.0778
vn -0.0000 -0.9853 -0.1706
vn -0.0000 0.8666 -0.4990
vn -0.0000 -0.8598 0.5106
vn -0.0000 0.9881 0.1535
vn -1.0000 -0.0000 -0.0000
vn 1.0000 -0.0000 -0.0000
vn -0.0000 -0.0000 1.0000
vt -169.521179 -113.220016
vt -169.521103 -113.220016
vt -169.521103 -113.219940
vt -169.521179 -113.219940
vt -170.193558 0.663134
vt -170.193558 -0.598271
vt -170.177292 -0.590863
vt -170.177292 0.655726
vt -171.120102 0.628576
vt -171.140015 0.648781
vt -171.140015 -0.567613
vt -171.120102 -0.547408
vt -170.211029 0.628576
vt -170.190826 0.648781
vt -170.392746 0.648781
vt -170.392746 0.620207
vt -170.407120 0.648781
vt -170.407120 0.620207
vt -170.407120 -0.567613
vt -170.407120 -0.539039
vt -170.392746 -0.539039
vt -170.392746 -0.567613
vt -170.190826 -0.567613
vt -170.211029 -0.547408
vt -170.364334 0.680024
vt -170.388824 0.680024
vt -170.388824 -0.598856
vt -170.364334 -0.598856
vt -169.964417 0.399724
vt -170.039246 0.386773
vt -170.039246 -0.311327
vt -169.968170 -0.312316
vt -169.913589 0.218340
vt -169.984634 0.215584
vt -169.984634 0.202998
vt -169.913589 0.203987
vt -169.913589 0.399856
vt -169.928925 0.395786
vt -169.984634 0.363692
vt -169.909836 -0.508260
vt -169.984634 -0.495305
vt -169.968170 -0.326665
vt -170.039246 -0.323909
vt -170.039246 -0.471975
vt -169.983490 -0.504059
vt -169.968170 -0.508128
vt -170.123703 0.622402
vt -170.199005 0.620569
vt -170.199005 -0.562078
vt -170.123703 -0.563911
vt -170.252716 0.661833
vt -170.252716 -0.596970
vt -170.314026 -0.598856
vt -170.314026 0.680024
vt -170.334671 0.651231
vt -170.334671 -0.570063
vt -170.263229 -0.570063
vt -170.263229 0.651231
vt -170.072433 0.262878
vt -170.072433 0.464408
vt -170.095703 0.464408
vt -170.143448 0.436057
vt -170.143448 0.262878
vt -170.143448 0.248537
vt -170.072433 0.248537
vt -170.019943 -0.307322
vt -170.019943 0.424160
vt -170.090958 0.413128
vt -170.090958 -0.307322
vt -170.019943 -0.321661
vt -170.090958 -0.321661
vt -170.090958 -0.494831
vt -170.043228 -0.523180
vt -170.019943 -0.523180
vt -170.072433 -0.482987
vt -170.143448 -0.471955
vt -171.180313 0.648781
vt -171.180313 -0.567613
vt -170.143448 -0.512176
vt -170.072433 -0.523209
vt -170.276108 0.647412
vt -170.276108 -0.566244
vt -170.235886 -0.566244
vt -170.235886 0.647412
vt -170.019943 0.464378
vt -170.090958 0.453346
s 1
usemtl M_FridgeDrawer1C4_0
f 1/1/1 2/2/1 4/3/1 3/4/1
f 53/5/2 54/6/2 71/7/3 64/8/3
f 59/9/4 38/10/5 42/11/6 58/12/7
f 64/13/1 35/14/1 36/15/1 63/16/1
f 63/16/1 36/15/1 37/17/8 65/18/9
f 58/12/7 42/11/6 41/19/10 70/20/11
f 72/21/1 39/22/1 40/23/1 71/24/1
f 70/20/11 41/19/10 39/22/1 72/21/1
f 65/18/9 37/17/8 38/10/5 59/9/4
f 71/24/1 40/23/1 35/14/1 64/13/1
f 29/25/12 35/26/13 40/27/13 30/28/12
f 59/29/14 78/30/15 77/31/16 65/32/17
f 72/33/18 80/34/19 79/35/20 70/36/21
f 72/33/18 71/37/22 54/38/22 81/39/23 80/34/19
f 58/40/24 70/36/21 79/35/20 82/41/24
f 63/42/25 65/32/17 77/31/16 83/43/26
f 63/42/25 83/43/26 84/44/27 53/45/28 64/46/28
f 78/47/29 59/48/29 58/49/29 82/50/29
f 54/6/2 53/5/2 84/51/30 81/52/30
f 86/53/31 85/54/31 29/25/12 30/28/12
f 96/55/32 95/56/32 94/57/32 93/58/32
f 36/59/33 35/60/33 29/61/33 85/62/33 89/63/33
f 90/64/33 37/65/33 36/59/33 89/63/33
f 41/66/34 42/67/34 87/68/34 91/69/34
f 39/70/34 92/71/34 86/72/34 30/73/34 40/74/34
f 92/71/34 39/70/34 41/66/34 91/69/34
f 38/75/33 37/65/33 90/64/33 88/76/33
f 42/11/6 38/10/5 93/77/1 94/78/1
f 38/75/33 88/76/33 96/79/33 93/80/33
f 88/81/35 87/82/35 95/83/35 96/84/35
f 87/68/34 42/67/34 94/85/34 95/86/34
