# Blender 4.1.0
# www.blender.org
mtllib FridgeDrawer2_16_FridgeDrawer2C4_2_GeomSubset_0.mtl
o FridgeDrawer2_16_FridgeDrawer2C4_2_GeomSubset_0
v 0.000160 0.023406 -1.093784
v 0.000169 0.023406 -1.093784
v 0.000160 0.023416 -1.093784
v 0.000169 0.023416 -1.093784
v 0.000160 0.023406 -1.093784
v 0.000169 0.023406 -1.093784
v 0.000160 0.023416 -1.093784
v 0.000169 0.023416 -1.093784
v 0.000160 0.023406 -1.093784
v 0.000169 0.023406 -1.093784
v 0.000160 0.023416 -1.093784
v 0.000169 0.023416 -1.093784
v 0.000160 0.023406 -1.093784
v 0.000169 0.023406 -1.093784
v 0.000160 0.023416 -1.093784
v 0.000169 0.023416 -1.093784
v 0.000160 0.023406 -1.093784
v 0.000169 0.023406 -1.093784
v 0.000160 0.023416 -1.093784
v 0.000169 0.023416 -1.093784
v 0.000160 0.023406 -1.093784
v 0.000169 0.023406 -1.093784
v 0.000160 0.023416 -1.093784
v 0.000169 0.023416 -1.093784
v 0.000160 0.023406 -1.093784
v 0.000169 0.023406 -1.093784
v 0.000160 0.023416 -1.093784
v 0.000169 0.023416 -1.093784
v 0.028964 0.144465 0.364119
v 0.464277 0.144465 0.364119
v 0.028964 0.072208 0.242441
v 0.028964 0.067066 0.239378
v 0.464277 0.067066 0.239378
v 0.464277 0.072208 0.242441
v 0.028964 0.144465 0.372465
v 0.028964 0.072208 0.372465
v 0.028964 0.067066 0.372465
v 0.028964 -0.195217 0.372465
v 0.464277 0.072208 0.372465
v 0.464277 0.144465 0.372465
v 0.464277 0.067066 0.372465
v 0.464277 -0.195217 0.372465
v 0.464277 -0.156936 0.239378
v 0.464277 -0.178174 0.262758
v 0.028964 -0.178174 0.262758
v 0.028964 -0.156936 0.239378
v 0.028964 -0.176557 0.253811
v 0.464277 -0.176557 0.253811
v 0.028964 -0.171954 0.246226
v 0.464277 -0.171954 0.246226
v 0.028964 -0.165063 0.241158
v 0.464277 -0.165063 0.241158
v 0.033693 0.135777 0.366968
v 0.459547 0.135777 0.366968
v 0.456934 0.067389 0.248207
v 0.036306 0.067389 0.248207
v 0.459703 -0.169180 0.264589
v 0.457046 -0.188090 0.373807
v 0.036194 -0.188090 0.373807
v 0.033537 -0.169180 0.264589
v 0.456934 0.065320 0.246974
v 0.036306 0.065320 0.246974
v 0.039189 0.072208 0.372465
v 0.036194 0.137235 0.372465
v 0.039189 0.067066 0.372465
v 0.459632 -0.168141 0.257649
v 0.459632 -0.165512 0.253318
v 0.459632 -0.161577 0.250424
v 0.459686 -0.156040 0.249389
v 0.454051 0.067066 0.372465
v 0.457046 0.137235 0.372465
v 0.454051 0.072208 0.372465
v 0.033554 -0.156040 0.249389
v 0.033608 -0.161577 0.250424
v 0.033608 -0.165512 0.253318
v 0.033608 -0.168141 0.257649
v 0.038604 0.066712 0.347002
v 0.035542 -0.183449 0.347002
v 0.454636 0.066712 0.347002
v 0.454642 0.071221 0.347002
v 0.459108 0.124279 0.347002
v 0.457698 -0.183449 0.347002
v 0.038598 0.071221 0.347002
v 0.034133 0.124279 0.347002
v 0.028964 0.134301 0.347002
v 0.464277 0.134301 0.347002
v 0.464277 -0.191262 0.347002
v 0.028964 -0.191262 0.347002
v 0.028964 0.072208 0.347002
v 0.028964 0.067066 0.347002
v 0.464277 0.067066 0.347002
v 0.464277 0.072208 0.347002
v 0.028964 -0.209638 0.372465
v 0.464277 -0.209638 0.372465
v 0.464277 -0.205682 0.347002
v 0.028964 -0.205682 0.347002
vn -0.0000 -0.0000 1.0000
vn -0.0000 -0.8861 0.4636
vn -0.0000 -0.9666 0.2564
vn -0.0330 -0.1064 0.9938
vn -0.0100 -0.0317 0.9994
vn 0.0100 -0.0317 0.9994
vn 0.0329 -0.1064 0.9938
vn -0.0761 0.0030 0.9971
vn 0.0761 0.0030 0.9971
vn 0.0001 0.9288 -0.3707
vn -0.0000 1.0000 -0.0000
vn -0.0000 0.9288 -0.3707
vn 0.9996 -0.0120 -0.0246
vn 0.9996 -0.0123 -0.0242
vn 0.9996 -0.0124 -0.0236
vn 0.9996 -0.0118 -0.0246
vn -0.9945 0.0736 -0.0739
vn -0.9963 0.0747 -0.0427
vn -0.9996 -0.0124 -0.0236
vn -0.9996 -0.0118 -0.0246
vn -0.9938 0.0792 -0.0778
vn -0.9952 0.0814 -0.0540
vn -0.9996 -0.0120 -0.0246
vn -0.9996 -0.0126 -0.0237
vn 0.9945 0.0736 -0.0739
vn 0.9963 0.0747 -0.0427
vn 0.9952 0.0814 -0.0540
vn 0.9938 0.0792 -0.0778
vn -0.0000 0.9853 0.1706
vn -0.0000 -0.8666 0.4990
vn -0.0000 0.8598 -0.5106
vn -0.0000 -0.9881 -0.1535
vn -1.0000 -0.0000 -0.0000
vn 1.0000 -0.0000 -0.0000
vn -0.0000 -0.0000 -1.0000
vt -169.521179 -113.220016
vt -169.521103 -113.220016
vt -169.521103 -113.219940
vt -169.521179 -113.219940
vt -170.193573 0.663223
vt -170.193573 -0.598360
vt -170.177292 -0.590952
vt -170.177292 0.655814
vt -171.120071 0.628538
vt -171.139999 0.648741
vt -171.139999 -0.567574
vt -171.120071 -0.547371
vt -170.211044 0.628538
vt -170.190872 0.648741
vt -170.392746 0.648741
vt -170.392746 0.620169
vt -170.407135 0.648741
vt -170.407135 0.620169
vt -170.407135 -0.567574
vt -170.407135 -0.539002
vt -170.392746 -0.539002
vt -170.392746 -0.567574
vt -170.190872 -0.567574
vt -170.211044 -0.547371
vt -170.364334 0.680077
vt -170.388840 0.680077
vt -170.388840 -0.598909
vt -170.364334 -0.598909
vt -169.964417 0.399659
vt -170.039246 0.386711
vt -170.039246 -0.311290
vt -169.968170 -0.312279
vt -169.913589 0.218324
vt -169.984650 0.215568
vt -169.984650 0.202982
vt -169.913589 0.203972
vt -169.913589 0.399829
vt -169.928925 0.395759
vt -169.984650 0.363667
vt -169.909836 -0.508233
vt -169.984650 -0.495279
vt -169.968170 -0.326626
vt -170.039246 -0.323870
vt -170.039246 -0.471915
vt -169.983490 -0.503995
vt -169.968170 -0.508063
vt -170.123703 0.622392
vt -170.199005 0.620559
vt -170.199005 -0.562069
vt -170.123703 -0.563901
vt -170.252716 0.661922
vt -170.252716 -0.597059
vt -170.314041 -0.598909
vt -170.314041 0.680077
vt -170.334671 0.651273
vt -170.334671 -0.570105
vt -170.263229 -0.570105
vt -170.263229 0.651273
vt -170.072433 0.262880
vt -170.072433 0.464412
vt -170.095703 0.464412
vt -170.143448 0.436061
vt -170.143448 0.262880
vt -170.143448 0.248539
vt -170.072433 0.248539
vt -170.019943 -0.307352
vt -170.019943 0.424210
vt -170.090958 0.413177
vt -170.090958 -0.307352
vt -170.019943 -0.321694
vt -170.090958 -0.321694
vt -170.090958 -0.494883
vt -170.043228 -0.523234
vt -170.019943 -0.523234
vt -170.072433 -0.482991
vt -170.143448 -0.471959
vt -171.180298 0.648741
vt -171.180298 -0.567574
vt -170.143448 -0.512180
vt -170.072433 -0.523213
vt -170.276108 0.647466
vt -170.276108 -0.566298
vt -170.235886 -0.566298
vt -170.235886 0.647466
vt -170.019943 0.464433
vt -170.090958 0.453400
s 1
usemtl M_FridgeDrawer2C4_0
f 1/1/1 2/2/1 4/3/1 3/4/1
f 53/5/2 54/6/2 71/7/3 64/8/3
f 59/9/4 38/10/5 42/11/6 58/12/7
f 64/13/1 35/14/1 36/15/1 63/16/1
f 63/16/1 36/15/1 37/17/8 65/18/8
f 58/12/7 42/11/6 41/19/9 70/20/9
f 72/21/1 39/22/1 40/23/1 71/24/1
f 70/20/9 41/19/9 39/22/1 72/21/1
f 65/18/8 37/17/8 38/10/5 59/9/4
f 71/24/1 40/23/1 35/14/1 64/13/1
f 29/25/10 35/26/11 40/27/11 30/28/12
f 59/29/13 78/30/14 77/31/15 65/32/16
f 72/33/17 80/34/18 79/35/19 70/36/20
f 72/33/17 71/37/21 54/38/21 81/39/22 80/34/18
f 58/40/23 70/36/20 79/35/19 82/41/24
f 63/42/25 65/32/16 77/31/15 83/43/26
f 63/42/25 83/43/26 84/44/27 53/45/28 64/46/28
f 78/47/29 59/48/29 58/49/29 82/50/29
f 54/6/2 53/5/2 84/51/30 81/52/30
f 86/53/31 85/54/31 29/25/10 30/28/12
f 96/55/32 95/56/32 94/57/32 93/58/32
f 36/59/33 35/60/33 29/61/33 85/62/33 89/63/33
f 90/64/33 37/65/33 36/59/33 89/63/33
f 41/66/34 42/67/34 87/68/34 91/69/34
f 39/70/34 92/71/34 86/72/34 30/73/34 40/74/34
f 92/71/34 39/70/34 41/66/34 91/69/34
f 38/75/33 37/65/33 90/64/33 88/76/33
f 42/11/6 38/10/5 93/77/1 94/78/1
f 38/75/33 88/76/33 96/79/33 93/80/33
f 88/81/35 87/82/35 95/83/35 96/84/35
f 87/68/34 42/67/34 94/85/34 95/86/34
