# Blender 4.1.1
# www.blender.org
mtllib MeshFridgeMaindoor2C4_7_GeomSubset_5.mtl
o MeshFridgeMaindoor2C4_7_GeomSubset_5
v -0.000160 0.023407 -1.093784
v -0.000169 0.023407 -1.093784
v -0.000160 0.023416 -1.093784
v -0.000169 0.023416 -1.093784
v -0.000160 0.023407 -1.093784
v -0.000169 0.023407 -1.093784
v -0.000160 0.023416 -1.093784
v -0.000169 0.023416 -1.093784
v -0.000160 0.023407 -1.093784
v -0.000169 0.023407 -1.093784
v -0.000160 0.023416 -1.093784
v -0.000169 0.023416 -1.093784
v -0.000160 0.023407 -1.093784
v -0.000169 0.023407 -1.093784
v -0.000160 0.023416 -1.093784
v -0.000169 0.023416 -1.093784
v -0.000160 0.023407 -1.093784
v -0.000169 0.023407 -1.093784
v -0.000160 0.023416 -1.093784
v -0.000169 0.023416 -1.093784
v -0.000160 0.023407 -1.093784
v -0.000169 0.023407 -1.093784
v -0.000160 0.023416 -1.093784
v -0.000169 0.023416 -1.093784
v -0.000160 0.023407 -1.093784
v -0.000169 0.023407 -1.093784
v -0.000160 0.023416 -1.093784
v -0.000169 0.023416 -1.093784
v -0.560302 -0.311531 1.012118
v -0.000505 -0.324641 1.012118
v -0.560302 -0.311531 -0.055101
v -0.000505 -0.324641 -0.055101
v -0.000505 -0.220026 1.012118
v -0.560302 -0.220026 1.012118
v -0.000505 -0.220026 -0.055101
v -0.560302 -0.220026 -0.055101
v -0.560302 -0.311531 1.057629
v -0.000505 -0.324641 1.057629
v -0.000505 -0.220026 1.057629
v -0.560302 -0.220026 1.057629
v -0.085720 -0.220026 0.939381
v -0.062647 -0.220026 0.913981
v -0.494228 -0.220026 0.913981
v -0.471154 -0.220026 0.939381
v -0.062647 -0.220027 0.043035
v -0.085720 -0.220027 0.017635
v -0.471154 -0.220026 0.017635
v -0.494228 -0.220026 0.043035
v -0.085720 -0.301043 0.939381
v -0.062647 -0.301043 0.913981
v -0.494228 -0.301043 0.913981
v -0.471154 -0.301043 0.939381
v -0.062647 -0.301043 0.043035
v -0.085720 -0.301043 0.017635
v -0.494228 -0.301043 0.043035
v -0.471154 -0.301043 0.017635
v -0.504192 -0.220026 0.975749
v -0.527265 -0.220026 0.950351
v -0.054650 -0.220026 0.975749
v -0.031576 -0.220026 0.950351
v -0.031576 -0.220027 0.006666
v -0.054650 -0.220027 -0.018733
v -0.504192 -0.220026 -0.018733
v -0.527265 -0.220026 0.006666
v -0.054125 -0.210850 0.923360
v -0.077199 -0.210850 0.948761
v -0.479676 -0.210850 0.948761
v -0.502749 -0.210850 0.923360
v -0.077199 -0.210850 0.008255
v -0.054125 -0.210850 0.033655
v -0.502750 -0.210850 0.033655
v -0.479676 -0.210850 0.008255
v -0.518744 -0.210850 0.940969
v -0.495670 -0.210850 0.966369
v -0.040097 -0.210850 0.940969
v -0.063171 -0.210850 0.966369
v -0.040097 -0.210850 0.016048
v -0.063171 -0.210850 -0.009352
v -0.518744 -0.210850 0.016048
v -0.495670 -0.210850 -0.009352
v -0.069405 -0.220026 0.931940
v -0.069405 -0.301043 0.931940
v -0.487470 -0.301043 0.931940
v -0.487470 -0.220026 0.931940
v -0.069405 -0.220027 0.025074
v -0.069405 -0.301043 0.025074
v -0.487470 -0.220026 0.025074
v -0.487470 -0.301043 0.025074
v -0.511986 -0.210850 0.958929
v -0.495991 -0.210850 0.941322
v -0.495991 -0.210850 0.015694
v -0.511986 -0.210850 -0.001913
v -0.060883 -0.210850 0.015694
v -0.046856 -0.210850 -0.001913
v -0.060883 -0.210850 0.941322
v -0.046856 -0.210850 0.958929
v -0.038334 -0.220026 0.968310
v -0.520507 -0.220026 0.968310
v -0.038334 -0.220027 -0.011294
v -0.520507 -0.220026 -0.011294
v -0.560302 -0.311531 1.022802
v -0.000505 -0.324641 1.022802
v -0.000505 -0.220026 1.022802
v -0.560302 -0.220026 1.022802
v -0.560302 -0.318087 1.057629
v -0.000505 -0.331197 1.057629
v -0.560302 -0.318087 1.022802
v -0.000505 -0.331197 1.022802
v -0.373703 -0.324641 -0.055101
v -0.373795 -0.327263 1.012118
v -0.373703 -0.220026 1.057629
v -0.373703 -0.324641 1.057629
v -0.373703 -0.220027 -0.055101
v -0.373703 -0.220027 -0.018733
v -0.373703 -0.210850 -0.009352
v -0.373703 -0.220026 0.975749
v -0.373703 -0.210850 0.966369
v -0.373703 -0.220027 0.017635
v -0.373703 -0.210850 0.008255
v -0.373703 -0.220026 0.939381
v -0.373703 -0.210850 0.948761
v -0.373703 -0.220026 1.012118
v -0.373703 -0.301043 0.017635
v -0.373703 -0.301043 0.939381
v -0.373703 -0.331197 1.057629
v -0.373703 -0.331197 1.022802
v -0.373703 -0.324641 1.022802
v -0.373703 -0.220026 1.022802
v -0.558394 -0.314293 1.012118
v -0.002603 -0.327263 1.012118
v -0.558394 -0.314293 -0.052793
v -0.002603 -0.327263 -0.052793
v -0.558394 -0.314293 1.020493
v -0.002603 -0.327263 1.020493
v -0.373795 -0.327263 -0.052793
v -0.373795 -0.327263 1.020493
v -0.557681 -0.309088 -0.056545
v -0.003127 -0.322019 -0.056545
v -0.003127 -0.222649 -0.056545
v -0.557681 -0.222648 -0.056545
v -0.373611 -0.322019 -0.056545
v -0.373703 -0.222648 -0.056545
v 0.004092 -0.321375 1.012125
v 0.004098 -0.321381 -0.051497
v 0.004104 -0.223275 1.012125
v 0.004117 -0.223261 -0.051497
v 0.004083 -0.321364 1.019195
v 0.004083 -0.223305 1.019195
v -0.070319 -0.283984 0.162099
v -0.493510 -0.283984 0.162099
v -0.493510 -0.283984 0.038995
v -0.478171 -0.283984 0.022831
v -0.085002 -0.283984 0.022831
v -0.070319 -0.283984 0.038995
v -0.493510 -0.236005 0.038995
v -0.478826 -0.221322 0.038995
v -0.478171 -0.236005 0.022831
v -0.085002 -0.221322 0.038995
v -0.070319 -0.236005 0.038995
v -0.085002 -0.236005 0.022831
v -0.070319 -0.236005 0.162099
v -0.085002 -0.221322 0.162099
v -0.478826 -0.221322 0.162099
v -0.493510 -0.236005 0.162099
v -0.085002 -0.225623 0.027565
v -0.478826 -0.225623 0.027565
v -0.074619 -0.283984 0.027565
v -0.074619 -0.236005 0.027565
v -0.488553 -0.283984 0.027565
v -0.488553 -0.236005 0.027565
v -0.074619 -0.225623 0.162099
v -0.074619 -0.225623 0.038995
v -0.489209 -0.225623 0.038995
v -0.489209 -0.225623 0.162099
v -0.487775 -0.227056 0.029143
v -0.076053 -0.227056 0.029143
v -0.081593 -0.272709 0.161810
v -0.482235 -0.272709 0.161810
v -0.081593 -0.238247 0.161810
v -0.087244 -0.232596 0.161810
v -0.476583 -0.232596 0.161810
v -0.482235 -0.238247 0.161810
v -0.083248 -0.234252 0.161810
v -0.480580 -0.234252 0.161810
v -0.081593 -0.272709 0.044912
v -0.482235 -0.272709 0.044912
v -0.081593 -0.238247 0.044912
v -0.087244 -0.232596 0.044912
v -0.476190 -0.232596 0.044911
v -0.482235 -0.238247 0.044912
v -0.083248 -0.234252 0.044912
v -0.480186 -0.234252 0.044911
v -0.070323 -0.283980 0.174947
v -0.493504 -0.283980 0.174947
v -0.070448 -0.236031 0.174944
v -0.085028 -0.221451 0.174944
v -0.478800 -0.221451 0.174944
v -0.493380 -0.236031 0.174944
v -0.074696 -0.225699 0.174944
v -0.489132 -0.225699 0.174944
v -0.081860 -0.272443 0.174651
v -0.481968 -0.272443 0.174651
v -0.081985 -0.238326 0.174648
v -0.087322 -0.232988 0.174648
v -0.476506 -0.232988 0.174648
v -0.481843 -0.238326 0.174648
v -0.083526 -0.234529 0.174649
v -0.480302 -0.234529 0.174649
v -0.068353 -0.285950 0.165420
v -0.495475 -0.285950 0.165420
v -0.068386 -0.235620 0.165443
v -0.084617 -0.219388 0.165443
v -0.479211 -0.219388 0.165443
v -0.495442 -0.235620 0.165443
v -0.073134 -0.224137 0.165440
v -0.490694 -0.224137 0.165440
v -0.068353 -0.285948 0.171629
v -0.495474 -0.285948 0.171629
v -0.068449 -0.235634 0.171650
v -0.084632 -0.219452 0.171650
v -0.479195 -0.219452 0.171650
v -0.495379 -0.235634 0.171650
v -0.073170 -0.224172 0.171647
v -0.490659 -0.224172 0.171647
v -0.070319 -0.283984 0.470241
v -0.493510 -0.283984 0.470241
v -0.493510 -0.283984 0.347137
v -0.478171 -0.283984 0.330973
v -0.085002 -0.283984 0.330973
v -0.070319 -0.283984 0.347137
v -0.493510 -0.236005 0.347137
v -0.478826 -0.221322 0.347137
v -0.478171 -0.236005 0.330973
v -0.085002 -0.221322 0.347137
v -0.070319 -0.236005 0.347137
v -0.085002 -0.236005 0.330973
v -0.070319 -0.236005 0.470241
v -0.085002 -0.221322 0.470241
v -0.478826 -0.221322 0.470241
v -0.493510 -0.236005 0.470241
v -0.085002 -0.225623 0.335707
v -0.478826 -0.225623 0.335707
v -0.074619 -0.283984 0.335707
v -0.074619 -0.236005 0.335707
v -0.488553 -0.283984 0.335707
v -0.488553 -0.236005 0.335707
v -0.074619 -0.225623 0.470241
v -0.074619 -0.225623 0.347137
v -0.489209 -0.225623 0.347137
v -0.489209 -0.225623 0.470241
v -0.487775 -0.227056 0.337285
v -0.076053 -0.227056 0.337285
v -0.081593 -0.272709 0.469953
v -0.482235 -0.272709 0.469953
v -0.081593 -0.238247 0.469953
v -0.087244 -0.232596 0.469953
v -0.476583 -0.232596 0.469953
v -0.482235 -0.238247 0.469953
v -0.083248 -0.234252 0.469953
v -0.480580 -0.234252 0.469953
v -0.081593 -0.272709 0.353054
v -0.482235 -0.272709 0.353054
v -0.081593 -0.238247 0.353054
v -0.087244 -0.232596 0.353054
v -0.476190 -0.232596 0.353054
v -0.482235 -0.238247 0.353054
v -0.083248 -0.234252 0.353054
v -0.480186 -0.234252 0.353054
v -0.070323 -0.283980 0.483089
v -0.493504 -0.283980 0.483089
v -0.070448 -0.236031 0.483086
v -0.085028 -0.221451 0.483086
v -0.478800 -0.221451 0.483086
v -0.493380 -0.236031 0.483086
v -0.074696 -0.225699 0.483087
v -0.489132 -0.225699 0.483087
v -0.081860 -0.272443 0.482794
v -0.481968 -0.272443 0.482794
v -0.081985 -0.238326 0.482791
v -0.087322 -0.232988 0.482791
v -0.476506 -0.232988 0.482791
v -0.481843 -0.238326 0.482791
v -0.083526 -0.234529 0.482791
v -0.480302 -0.234529 0.482791
v -0.068353 -0.285950 0.473562
v -0.495475 -0.285950 0.473562
v -0.068386 -0.235620 0.473585
v -0.084617 -0.219388 0.473585
v -0.479211 -0.219388 0.473585
v -0.495442 -0.235620 0.473585
v -0.073134 -0.224137 0.473582
v -0.490694 -0.224137 0.473582
v -0.068353 -0.285948 0.479772
v -0.495474 -0.285948 0.479772
v -0.068449 -0.235634 0.479792
v -0.084632 -0.219452 0.479792
v -0.479195 -0.219452 0.479792
v -0.495379 -0.235634 0.479792
v -0.073170 -0.224172 0.479789
v -0.490659 -0.224172 0.479789
v -0.070319 -0.283984 0.774684
v -0.493510 -0.283984 0.774684
v -0.493510 -0.283984 0.651579
v -0.478171 -0.283984 0.635415
v -0.085002 -0.283984 0.635415
v -0.070319 -0.283984 0.651579
v -0.493510 -0.236005 0.651579
v -0.478826 -0.221322 0.651579
v -0.478171 -0.236005 0.635415
v -0.085002 -0.221322 0.651579
v -0.070319 -0.236005 0.651579
v -0.085002 -0.236005 0.635415
v -0.070319 -0.236005 0.774684
v -0.085002 -0.221322 0.774684
v -0.478826 -0.221322 0.774684
v -0.493510 -0.236005 0.774684
v -0.085002 -0.225623 0.640150
v -0.478826 -0.225623 0.640150
v -0.074619 -0.283984 0.640150
v -0.074619 -0.236005 0.640150
v -0.488553 -0.283984 0.640150
v -0.488553 -0.236005 0.640150
v -0.074619 -0.225623 0.774684
v -0.074619 -0.225623 0.651579
v -0.489209 -0.225623 0.651579
v -0.489209 -0.225623 0.774684
v -0.487775 -0.227056 0.641728
v -0.076053 -0.227056 0.641728
v -0.081593 -0.272709 0.774395
v -0.482235 -0.272709 0.774395
v -0.081593 -0.238247 0.774395
v -0.087244 -0.232596 0.774395
v -0.476583 -0.232596 0.774395
v -0.482235 -0.238247 0.774395
v -0.083248 -0.234252 0.774395
v -0.480580 -0.234252 0.774395
v -0.081593 -0.272709 0.657496
v -0.482235 -0.272709 0.657496
v -0.081593 -0.238247 0.657496
v -0.087244 -0.232596 0.657496
v -0.476190 -0.232596 0.657495
v -0.482235 -0.238247 0.657496
v -0.083248 -0.234252 0.657496
v -0.480186 -0.234252 0.657495
v -0.070323 -0.283980 0.787531
v -0.493504 -0.283980 0.787531
v -0.070448 -0.236031 0.787528
v -0.085028 -0.221452 0.787528
v -0.478800 -0.221452 0.787528
v -0.493380 -0.236031 0.787528
v -0.074696 -0.225699 0.787529
v -0.489132 -0.225699 0.787529
v -0.081860 -0.272443 0.787236
v -0.481968 -0.272443 0.787236
v -0.081985 -0.238326 0.787233
v -0.087322 -0.232988 0.787233
v -0.476506 -0.232988 0.787233
v -0.481843 -0.238326 0.787233
v -0.083526 -0.234529 0.787234
v -0.480302 -0.234529 0.787234
v -0.068353 -0.285950 0.778005
v -0.495475 -0.285950 0.778005
v -0.068386 -0.235620 0.778028
v -0.084617 -0.219388 0.778028
v -0.479211 -0.219388 0.778028
v -0.495442 -0.235620 0.778028
v -0.073134 -0.224137 0.778025
v -0.490694 -0.224137 0.778025
v -0.068353 -0.285948 0.784214
v -0.495474 -0.285948 0.784214
v -0.068449 -0.235634 0.784234
v -0.084632 -0.219452 0.784234
v -0.479195 -0.219452 0.784234
v -0.495379 -0.235634 0.784234
v -0.073170 -0.224172 0.784232
v -0.490659 -0.224172 0.784232
v -0.057868 -0.353307 0.918606
v -0.061167 -0.358338 0.918606
v -0.066305 -0.362329 0.918606
v -0.072779 -0.364893 0.918606
v -0.079956 -0.365776 0.918606
v -0.087133 -0.364893 0.918606
v -0.093608 -0.362329 0.918606
v -0.098745 -0.358338 0.918606
v -0.102044 -0.353307 0.918606
v -0.103181 -0.348484 0.918606
v -0.056731 -0.348484 0.918606
v -0.057868 -0.353307 0.970819
v -0.061167 -0.358338 0.970819
v -0.066305 -0.362329 0.970819
v -0.072779 -0.364893 0.970819
v -0.079956 -0.365776 0.970819
v -0.087133 -0.364893 0.970819
v -0.093608 -0.362329 0.970819
v -0.098745 -0.358338 0.970819
v -0.102044 -0.353307 0.970819
v -0.103181 -0.348484 0.970819
v -0.056731 -0.348484 0.970819
v -0.079956 -0.348484 0.918606
v -0.079956 -0.348484 0.970819
v -0.098371 -0.348484 0.970819
v -0.098371 -0.348484 0.918606
v -0.079956 -0.348484 0.918606
v -0.061542 -0.348484 0.970819
v -0.061542 -0.348484 0.918606
v -0.093840 -0.320291 0.970819
v -0.079956 -0.320291 0.970819
v -0.093840 -0.320291 0.918606
v -0.079956 -0.320291 0.918606
v -0.066073 -0.320291 0.970819
v -0.066073 -0.320291 0.918606
v -0.098371 -0.348484 0.918606
v -0.061542 -0.348484 0.918606
v -0.057868 -0.353307 0.058178
v -0.061167 -0.358338 0.058178
v -0.066305 -0.362329 0.058178
v -0.072779 -0.364893 0.058178
v -0.079956 -0.365776 0.058178
v -0.087133 -0.364893 0.058178
v -0.093608 -0.362329 0.058178
v -0.098745 -0.358338 0.058178
v -0.102044 -0.353307 0.058178
v -0.103181 -0.348484 0.058178
v -0.056731 -0.348484 0.058178
v -0.057868 -0.353307 0.006878
v -0.061167 -0.358338 0.006878
v -0.066305 -0.362329 0.006878
v -0.072779 -0.364893 0.006878
v -0.079956 -0.365776 0.006878
v -0.087133 -0.364893 0.006878
v -0.093608 -0.362329 0.006878
v -0.098745 -0.358338 0.006878
v -0.102044 -0.353307 0.006878
v -0.103181 -0.348484 0.006878
v -0.056731 -0.348484 0.006878
v -0.079956 -0.348484 0.058178
v -0.079956 -0.348484 0.006878
v -0.098371 -0.348484 0.006878
v -0.098371 -0.348484 0.058178
v -0.079956 -0.348484 0.058178
v -0.061542 -0.348484 0.006878
v -0.061542 -0.348484 0.058178
v -0.093840 -0.320291 0.006878
v -0.079956 -0.320291 0.006878
v -0.093840 -0.320291 0.058178
v -0.079956 -0.320291 0.058178
v -0.066073 -0.320291 0.006878
v -0.066073 -0.320291 0.058178
v -0.098371 -0.348484 0.058178
v -0.061542 -0.348484 0.058178
vn -0.0000 -0.0000 -1.0000
vt 5.646933 -121.224083
vt 7.358486 -121.224083
vt 7.358486 -119.512527
vt 5.646933 -119.512527
s 1
usemtl M_FridgeMaindoor2C4_5
f 21/1/1 22/2/1 24/3/1 23/4/1
