# Blender 4.1.0
# www.blender.org
mtllib MeshCountertopL_8X4_0_GeomSubset_0.mtl
o MeshCountertopL_8X4_0_GeomSubset_0
v -1.219356 0.608772 0.418626
v -1.219356 0.608772 0.388626
v -0.609756 -0.000828 0.418626
v -0.609756 -0.000828 0.388626
v -1.219356 -0.610429 0.418626
v -1.219356 -0.610430 0.388626
v -0.609756 -0.610429 0.418626
v -0.609756 -0.610429 0.388626
v 1.219045 0.608772 0.418626
v 1.219045 0.608772 0.388626
v 1.219045 -0.000828 0.388626
v 1.219045 -0.000828 0.418626
v -0.628716 0.018129 0.388626
v -0.629760 -0.610429 0.388626
v 1.219045 0.019171 0.388626
v 1.219045 0.019171 0.418626
v -0.629760 0.019171 0.418626
v -0.629760 -0.610429 0.418626
v -0.628716 0.018129 -0.437404
v -0.629760 -0.610429 -0.437404
v 1.219045 0.019171 -0.437404
v -0.648721 0.038135 -0.437143
v -0.649760 -0.610426 -0.437273
v -0.649763 0.039177 -0.517143
v -0.649760 -0.610426 -0.517273
v -1.219356 -0.610431 -0.517404
v -1.219356 0.608772 -0.517404
v 1.219046 0.608772 -0.517404
v 1.219043 0.039171 -0.437274
v 1.219043 0.039171 -0.517274
vn -0.0000 -1.0000 -0.0000
vn 1.0000 -0.0000 -0.0000
vn -1.0000 -0.0000 -0.0000
vn -0.0000 -0.0000 1.0000
vn -0.0000 1.0000 -0.0000
vn -0.0000 -0.0000 -1.0000
vt -9.840594 1.030573
vt -8.919346 1.030573
vt -8.919346 1.077447
vt -9.840594 1.077447
vt -8.888080 1.095475
vt -9.809357 1.095475
vt -9.809357 1.048601
vt -8.888080 1.048601
vt -10.441349 1.012544
vt -8.536341 1.012544
vt -8.536343 1.059418
vt -10.441349 1.059418
vt -11.642849 1.427090
vt -11.642850 -0.477909
vt -10.721607 -0.477909
vt -10.721607 0.505838
vt -8.888078 1.113503
vt -9.840607 1.113503
vt -9.840607 1.066629
vt -8.888078 1.066629
vt -11.642904 0.713266
vt -7.832789 0.713265
vt -7.832788 0.760138
vt -11.642905 0.760139
vt -11.042069 0.994515
vt -8.184623 0.994514
vt -8.184623 1.041390
vt -11.042069 1.041390
vt -7.832847 0.505838
vt -7.832847 1.427090
vt -11.030561 1.369069
vt -11.061817 1.369069
vt -11.060188 0.386939
vt -11.030561 0.416561
vt -8.173047 0.385312
vt -8.173047 0.416561
vt -9.840606 1.095475
vt -9.840606 1.048601
vt -10.690350 0.474590
vt -7.832847 0.474590
vt -10.690350 -0.477909
vt -8.888091 1.030573
vt -8.888091 1.077447
s 1
usemtl M_CountertopL_8X4_0
f 6/1/1 14/2/1 18/3/1 5/4/1
f 9/5/2 16/6/2 15/7/2 10/8/2
f 2/9/3 6/10/3 5/11/3 1/12/3
f 1/13/4 5/14/4 18/15/4 17/16/4
f 3/17/2 7/18/2 8/19/2 4/20/2
f 1/21/5 9/22/5 10/23/5 2/24/5
f 4/25/1 11/26/1 12/27/1 3/28/1
f 16/29/4 9/30/4 1/13/4 17/16/4
f 8/31/6 14/32/6 13/33/6 4/34/6
f 4/34/6 13/33/6 15/35/6 11/36/6
f 16/6/2 12/37/2 11/38/2 15/7/2
f 3/39/4 12/40/4 16/29/4 17/16/4
f 18/15/4 7/41/4 3/39/4 17/16/4
f 14/2/1 8/42/1 7/43/1 18/3/1
