# Blender 4.1.0
# www.blender.org
mtllib MeshTelevision_28_0_GeomSubset_3.mtl
o MeshTelevision_28_0_GeomSubset_3
v -0.000749 -0.040187 0.053933
v 0.000749 -0.040187 0.053933
v -0.000749 -0.038688 0.053933
v 0.000749 -0.038688 0.053933
v -0.000749 -0.040187 0.053933
v 0.000749 -0.040187 0.053933
v -0.000749 -0.038688 0.053933
v 0.000749 -0.038688 0.053933
v -0.000749 -0.040187 0.053933
v 0.000749 -0.040187 0.053933
v -0.000749 -0.038688 0.053933
v 0.000749 -0.038688 0.053933
v -0.000749 -0.040187 0.053933
v 0.000749 -0.040187 0.053933
v -0.000749 -0.038688 0.053933
v 0.000749 -0.038688 0.053933
v -0.000749 -0.040187 0.053933
v 0.000749 -0.040187 0.053933
v -0.000749 -0.038688 0.053933
v 0.000749 -0.038688 0.053933
v -0.503532 -0.039437 0.405609
v 0.503532 -0.039437 -0.250095
v -0.503532 -0.066927 0.405609
v 0.503533 -0.066927 0.405609
v 0.503533 -0.039437 0.405609
v -0.503532 -0.039437 -0.250095
v 0.503533 -0.081801 -0.250095
v -0.503532 -0.081801 -0.250095
v 0.503533 -0.066927 -0.197200
v -0.503532 -0.066927 -0.197200
v -0.503532 -0.039437 -0.197200
v 0.503533 -0.039437 -0.197200
v -0.477521 -0.066927 0.384052
v -0.477521 -0.066927 -0.142823
v 0.477521 -0.066927 -0.142823
v 0.477521 -0.066927 0.384052
v -0.462945 -0.051515 0.369665
v -0.462945 -0.051515 -0.128437
v 0.462945 -0.051515 -0.128437
v 0.462945 -0.051515 0.369665
v -0.503532 -0.081801 -0.235780
v 0.503533 -0.081801 -0.235780
v 0.503532 -0.039437 -0.235780
v -0.503532 -0.039437 -0.235780
v -0.503532 -0.079339 -0.221465
v 0.503533 -0.079339 -0.221465
v 0.503532 -0.039437 -0.221465
v -0.503532 -0.039437 -0.221465
v -0.503532 -0.073578 -0.207151
v 0.503533 -0.073578 -0.207151
v 0.503533 -0.039437 -0.207151
v -0.503532 -0.039437 -0.207151
v 0.503532 -0.039437 -0.272808
v -0.503532 -0.039437 -0.272808
v 0.503533 -0.081801 -0.272808
v -0.503532 -0.081801 -0.272808
v -0.322160 -0.066927 -0.181356
v -0.322160 -0.073578 -0.191306
v -0.322160 -0.079339 -0.205621
v -0.322160 -0.081801 -0.219935
v -0.322160 -0.081801 -0.234250
v -0.322160 -0.081801 -0.272808
v -0.322160 -0.039437 -0.272808
v -0.322160 -0.039437 -0.250095
v -0.322160 -0.039437 -0.235780
v -0.322160 -0.039437 -0.221465
v -0.322160 -0.039437 -0.207151
v -0.322160 -0.039437 -0.197200
v -0.322160 -0.039437 0.405609
v -0.322160 -0.066927 0.405609
v -0.322159 -0.066927 0.384052
v -0.322159 -0.051515 0.369665
v -0.322159 -0.051515 -0.128437
v -0.322159 -0.066927 -0.142823
v -0.161080 -0.066927 -0.175154
v -0.161080 -0.073578 -0.185104
v -0.161080 -0.079339 -0.199419
v -0.161080 -0.081801 -0.213733
v -0.161080 -0.081801 -0.228048
v -0.161080 -0.081801 -0.272808
v -0.161080 -0.039437 -0.272808
v -0.161080 -0.039437 -0.250094
v -0.161080 -0.039437 -0.235780
v -0.161080 -0.039437 -0.221465
v -0.161080 -0.039437 -0.207150
v -0.161080 -0.039437 -0.197200
v -0.161080 -0.039437 0.405609
v -0.161080 -0.066927 0.405609
v -0.161079 -0.066927 0.384052
v -0.161079 -0.051515 0.369665
v -0.161079 -0.051515 -0.128437
v -0.161079 -0.066927 -0.142823
v 0.000000 -0.066927 -0.171019
v 0.000000 -0.073578 -0.180969
v 0.000000 -0.079339 -0.195284
v 0.000000 -0.081801 -0.209599
v 0.000000 -0.081801 -0.223913
v 0.000000 -0.081801 -0.272808
v 0.000000 -0.039437 -0.272808
v 0.000000 -0.039437 -0.250094
v 0.000000 -0.039437 -0.235780
v 0.000000 -0.039437 -0.221465
v 0.000000 -0.039437 -0.207150
v 0.000000 -0.039437 -0.197200
v 0.000000 -0.039437 0.405609
v 0.000000 -0.066927 0.405609
v 0.000000 -0.066927 0.384052
v 0.000000 -0.051515 0.369665
v 0.000000 -0.051515 -0.128437
v 0.000000 -0.066927 -0.142823
v 0.161079 -0.066927 -0.175154
v 0.161079 -0.073578 -0.185104
v 0.161079 -0.079339 -0.199419
v 0.161079 -0.081801 -0.213733
v 0.161079 -0.081801 -0.228048
v 0.161079 -0.081801 -0.272808
v 0.161079 -0.039437 -0.272808
v 0.161079 -0.039437 -0.250094
v 0.161079 -0.039437 -0.235780
v 0.161079 -0.039437 -0.221465
v 0.161079 -0.039437 -0.207150
v 0.161079 -0.039437 -0.197200
v 0.161079 -0.039437 0.405609
v 0.161079 -0.066927 0.405609
v 0.161079 -0.066927 0.384052
v 0.161079 -0.051515 0.369665
v 0.161079 -0.051515 -0.128437
v 0.161079 -0.066927 -0.142823
v 0.322159 -0.066927 -0.181356
v 0.322159 -0.073578 -0.191306
v 0.322159 -0.079339 -0.205621
v 0.322159 -0.081801 -0.219935
v 0.322159 -0.081801 -0.234250
v 0.322159 -0.081801 -0.272808
v 0.322159 -0.039437 -0.272808
v 0.322159 -0.039437 -0.250095
v 0.322159 -0.039437 -0.235780
v 0.322159 -0.039437 -0.221465
v 0.322159 -0.039437 -0.207151
v 0.322159 -0.039437 -0.197200
v 0.322159 -0.039437 0.405609
v 0.322159 -0.066927 0.405609
v 0.322159 -0.066927 0.384052
v 0.322159 -0.051515 0.369665
v 0.322159 -0.051515 -0.128437
v 0.322159 -0.066927 -0.142823
v -0.503532 -0.060646 -0.197201
v -0.503532 -0.044121 -0.197200
v -0.503532 -0.044121 -0.207151
v -0.503532 -0.060646 -0.207151
v -0.503532 -0.060646 0.400925
v -0.503532 -0.044121 0.400925
v -0.503532 -0.044121 -0.235780
v -0.503532 -0.060646 -0.235780
v -0.503532 -0.044121 -0.250095
v -0.503532 -0.060646 -0.250095
v -0.503532 -0.044121 -0.221465
v -0.503532 -0.060646 -0.221465
v -0.503532 -0.044121 -0.268124
v -0.503532 -0.060646 -0.268124
v 0.503533 -0.044121 -0.207151
v 0.503533 -0.044121 -0.197200
v 0.503533 -0.060634 -0.197201
v 0.503533 -0.060634 -0.207151
v 0.503533 -0.044121 0.400925
v 0.503533 -0.060634 0.400925
v 0.503532 -0.044121 -0.250095
v 0.503532 -0.044121 -0.235780
v 0.503533 -0.060634 -0.235780
v 0.503533 -0.060634 -0.250095
v 0.503532 -0.044121 -0.221465
v 0.503533 -0.060634 -0.221465
v 0.503533 -0.060634 -0.268124
v 0.503532 -0.044121 -0.268124
v -0.514776 -0.055962 -0.197201
v -0.514776 -0.048806 -0.197200
v -0.514776 -0.048806 -0.207151
v -0.514776 -0.055962 -0.207151
v -0.514776 -0.055962 0.396241
v -0.514776 -0.048806 0.396241
v -0.514776 -0.048806 -0.235780
v -0.514776 -0.055962 -0.235780
v -0.514776 -0.048806 -0.250095
v -0.514776 -0.055962 -0.250095
v -0.514776 -0.048806 -0.221465
v -0.514776 -0.055962 -0.221465
v -0.514776 -0.048806 -0.263440
v -0.514776 -0.055962 -0.263440
v 0.514775 -0.048806 -0.207151
v 0.514775 -0.048806 -0.197200
v 0.514775 -0.055951 -0.197201
v 0.514775 -0.055951 -0.207151
v 0.514775 -0.048806 0.396241
v 0.514775 -0.055951 0.396241
v 0.514775 -0.048806 -0.250095
v 0.514775 -0.048806 -0.235780
v 0.514775 -0.055951 -0.235780
v 0.514775 -0.055951 -0.250095
v 0.514775 -0.048806 -0.221465
v 0.514775 -0.055951 -0.221465
v 0.514775 -0.055951 -0.263440
v 0.514775 -0.048806 -0.263440
vn -0.0000 -0.0000 1.0000
vn -1.0000 -0.0000 -0.0000
vn 1.0000 -0.0000 -0.0000
vn -0.3846 0.9231 -0.0000
vn -0.3845 -0.9231 -0.0000
vn -0.3845 -0.0000 0.9231
vn -0.3845 -0.0000 -0.9231
vn 0.3847 0.9231 -0.0000
vn 0.3845 -0.9231 -0.0000
vn 0.3846 -0.0000 0.9231
vn 0.3846 0.9231 -0.0000
vn 0.3846 -0.0000 -0.9231
vt -7.187095 -17.571449
vt -7.186203 -17.571449
vt -7.186203 -17.570557
vt -7.187095 -17.570557
vt -7.091392 0.091138
vt -7.105369 0.091138
vt -7.105369 0.071704
vt -7.091392 0.071704
vt -7.101436 0.267348
vt -7.101436 0.286783
vt -7.115391 0.286782
vt -7.115391 0.267348
vt -7.091392 1.250225
vt -7.105369 1.250225
vt -7.101436 1.445886
vt -7.115391 1.445886
vt -7.101436 0.183470
vt -7.101436 0.211430
vt -7.115391 0.211430
vt -7.115391 0.183470
vt -7.091392 0.015786
vt -7.105369 0.015786
vt -7.105369 -0.012173
vt -7.091392 -0.012173
vt -7.101436 0.239389
vt -7.115391 0.239389
vt -7.091392 0.043745
vt -7.105369 0.043745
vt -7.115391 0.157405
vt -7.101436 0.157405
vt -7.105369 -0.038238
vt -7.091392 -0.038238
vt -7.038289 1.144639
vt -7.038289 1.164866
vt -7.061145 1.164866
vt -7.061145 1.144639
vt -7.050759 0.052690
vt -7.050759 0.072917
vt -7.073615 0.072917
vt -7.073615 0.052690
vt -7.108243 0.593415
vt -7.108243 0.626987
vt -7.131085 0.617471
vt -7.131085 0.602933
vt -7.038289 -0.071251
vt -7.061145 -0.061728
vt -7.050759 1.288825
vt -7.073615 1.279302
vt -7.038289 1.223065
vt -7.038289 1.252164
vt -7.061145 1.252164
vt -7.061145 1.223065
vt -7.050759 -0.034609
vt -7.050759 -0.005510
vt -7.073615 -0.005510
vt -7.073615 -0.034609
vt -7.038289 1.193965
vt -7.061145 1.193965
vt -7.050759 0.023590
vt -7.073615 0.023590
vt -7.038289 1.288815
vt -7.061145 1.279292
vt -7.120702 0.593399
vt -7.120702 0.627003
vt -7.143566 0.617477
vt -7.143566 0.602925
vt -7.050759 -0.071261
vt -7.073615 -0.061738
vt -7.086084 1.164868
vt -7.086084 1.144641
vt -7.063230 1.144641
vt -7.063230 1.164868
vt -7.098555 0.072923
vt -7.098555 0.052696
vt -7.075700 0.052696
vt -7.075700 0.072923
vt -7.086084 -0.071254
vt -7.063230 -0.061732
vt -7.156030 0.626979
vt -7.156030 0.593416
vt -7.133179 0.602937
vt -7.133179 0.617459
vt -7.098555 1.288817
vt -7.075700 1.279295
vt -7.086084 1.252167
vt -7.086084 1.223068
vt -7.063230 1.223068
vt -7.063230 1.252167
vt -7.098555 -0.005503
vt -7.098555 -0.034602
vt -7.075700 -0.034602
vt -7.075700 -0.005503
vt -7.086084 1.193968
vt -7.063230 1.193968
vt -7.098555 0.023597
vt -7.075700 0.023597
vt -7.098555 -0.071253
vt -7.075700 -0.061731
vt -7.168501 0.626982
vt -7.168502 0.593414
vt -7.145648 0.602936
vt -7.145647 0.617460
vt -7.086084 1.288818
vt -7.063230 1.279296
s 1
usemtl M_Television_28_3
f 13/1/1 14/2/1 16/3/1 15/4/1
f 175/5/2 176/6/2 177/7/2 178/8/2
f 189/9/3 190/10/3 191/11/3 192/12/3
f 179/13/2 180/14/2 176/6/2 175/5/2
f 191/11/3 190/10/3 193/15/3 194/16/3
f 195/17/3 196/18/3 197/19/3 198/20/3
f 182/21/2 181/22/2 183/23/2 184/24/2
f 196/18/3 199/25/3 200/26/3 197/19/3
f 186/27/2 185/28/2 181/22/2 182/21/2
f 199/25/3 189/9/3 192/12/3 200/26/3
f 178/8/2 177/7/2 185/28/2 186/27/2
f 195/17/3 198/20/3 201/29/3 202/30/3
f 184/24/2 183/23/2 187/31/2 188/32/2
f 148/33/4 149/34/4 177/35/4 176/36/4
f 150/37/5 147/38/5 175/39/5 178/40/5
f 151/41/6 152/42/6 180/43/6 179/44/6
f 152/45/4 148/33/4 176/36/4 180/46/4
f 147/38/5 151/47/5 179/48/5 175/39/5
f 153/49/4 155/50/4 183/51/4 181/52/4
f 156/53/5 154/54/5 182/55/5 184/56/5
f 157/57/4 153/49/4 181/52/4 185/58/4
f 154/54/5 158/59/5 186/60/5 182/55/5
f 149/34/4 157/57/4 185/58/4 177/35/4
f 158/59/5 150/37/5 178/40/5 186/60/5
f 155/50/4 159/61/4 187/62/4 183/51/4
f 159/63/7 160/64/7 188/65/7 187/66/7
f 160/67/5 156/53/5 184/56/5 188/68/5
f 161/69/8 162/70/8 190/71/8 189/72/8
f 163/73/9 164/74/9 192/75/9 191/76/9
f 162/70/8 165/77/8 193/78/8 190/71/8
f 165/79/10 166/80/10 194/81/10 193/82/10
f 166/83/9 163/73/9 191/76/9 194/84/9
f 167/85/11 168/86/11 196/87/11 195/88/11
f 169/89/9 170/90/9 198/91/9 197/92/9
f 168/86/11 171/93/8 199/94/8 196/87/11
f 172/95/9 169/89/9 197/92/9 200/96/9
f 171/93/8 161/69/8 189/72/8 199/94/8
f 164/74/9 172/95/9 200/96/9 192/75/9
f 170/90/9 173/97/9 201/98/9 198/91/9
f 173/99/12 174/100/12 202/101/12 201/102/12
f 174/103/11 167/85/11 195/88/11 202/104/11
