# Blender 4.1.0
# www.blender.org
mtllib MeshWindowSlider_48X24_0_GeomSubset_0.mtl
o MeshWindowSlider_48X24_0_GeomSubset_0
v -0.609600 -0.040626 0.305325
v -0.609600 -0.040626 -0.304275
v 0.609600 -0.040624 -0.304275
v 0.578781 -0.040624 -0.272957
v -0.578780 -0.040626 -0.272957
v -0.578780 -0.040626 0.274006
v -0.578781 0.040624 0.274006
v -0.578781 0.040624 -0.272957
v 0.578780 0.040626 -0.272957
v 0.609600 0.040626 -0.304275
v -0.609600 0.040624 -0.304275
v -0.609600 0.040624 0.305325
v 0.578780 0.040626 0.274006
v 0.578781 -0.040624 0.274006
v 0.609600 0.040626 0.305325
v 0.609600 -0.040624 0.305325
v 0.578780 0.031626 0.274006
v 0.578781 -0.031624 0.274006
v -0.578780 -0.031626 0.274006
v -0.578781 0.031624 0.274006
v -0.578781 0.031624 -0.272957
v -0.578780 -0.031626 -0.272957
v 0.578781 -0.031624 -0.272957
v 0.578780 0.031626 -0.272957
v 0.578780 0.035123 0.274006
v 0.578781 -0.035122 0.274006
v -0.578780 -0.035123 0.274006
v -0.578781 0.035122 0.274006
v -0.578781 0.035122 -0.272957
v -0.578780 -0.035123 -0.272957
v 0.578781 -0.035122 -0.272957
v 0.578780 0.035123 -0.272957
v 0.543074 0.035123 0.237622
v 0.543074 -0.035122 0.237622
v -0.543074 -0.035123 0.237622
v -0.543074 0.035122 0.237622
v -0.543074 0.035122 -0.236572
v -0.543074 -0.035123 -0.236572
v 0.543074 -0.035122 -0.236572
v 0.543074 0.035123 -0.236572
v 0.543074 0.021626 0.237622
v 0.543074 -0.021624 0.237622
v -0.543074 -0.021626 0.237622
v -0.543074 0.021624 0.237622
v -0.543074 0.021624 -0.236572
v -0.543074 -0.021626 -0.236572
v 0.543074 -0.021624 -0.236572
v 0.543074 0.021626 -0.236572
v 0.578780 0.021626 0.274006
v 0.578780 -0.021624 0.274006
v -0.578780 -0.021626 0.274006
v -0.578780 0.021624 0.274006
v -0.578780 0.021624 -0.272957
v -0.578780 -0.021626 -0.272957
v 0.578780 -0.021624 -0.272957
v 0.578780 0.021626 -0.272957
v 0.577912 0.021585 -0.273478
v -0.019520 0.021584 -0.273478
v 0.577912 0.021585 0.274528
v -0.019520 0.021584 0.274528
v 0.577912 0.000001 0.274528
v -0.019520 0.000000 0.274528
v 0.577912 0.000001 -0.273478
v -0.019520 0.000000 -0.273478
v 0.517912 0.021585 -0.213478
v 0.040480 0.021584 -0.213478
v 0.040480 0.021584 0.214528
v 0.517912 0.021585 0.214528
v 0.517912 0.000001 0.214528
v 0.040480 0.000000 0.214528
v 0.040480 0.000000 -0.213478
v 0.517912 0.000001 -0.213478
v 0.000000 0.000000 -0.273478
v -0.576795 -0.000001 -0.273478
v 0.000000 0.000000 0.274528
v -0.576795 -0.000001 0.274528
v 0.000000 -0.021292 0.274528
v -0.576795 -0.021292 0.274528
v 0.000000 -0.021292 -0.273478
v -0.576795 -0.021292 -0.273478
v -0.060000 0.000000 -0.213478
v -0.516795 -0.000001 -0.213478
v -0.516795 -0.000001 0.214528
v -0.060000 0.000000 0.214528
v -0.060000 -0.021292 0.214528
v -0.516795 -0.021292 0.214528
v -0.516795 -0.021292 -0.213478
v -0.060000 -0.021292 -0.213478
v 0.517912 0.016752 -0.213478
v 0.040480 0.016752 -0.213478
v 0.040480 0.016752 0.214528
v 0.517912 0.016752 0.214528
v 0.517912 0.005302 0.214528
v 0.040480 0.005302 0.214528
v 0.040480 0.005302 -0.213478
v 0.517912 0.005302 -0.213478
v -0.060000 -0.015021 0.214528
v -0.516795 -0.015021 0.214528
v -0.516795 -0.015021 -0.213478
v -0.060000 -0.015021 -0.213478
v -0.060000 -0.005297 -0.213478
v -0.516795 -0.005297 -0.213478
v -0.516795 -0.005297 0.214528
v -0.060000 -0.005297 0.214528
v -0.019520 0.021427 -0.045967
v -0.026949 0.021427 -0.045967
v -0.019520 0.021427 0.047691
v -0.026949 0.021427 0.047691
v -0.019520 0.000965 0.053865
v -0.026949 0.000965 0.053865
v -0.019520 0.000965 -0.052141
v -0.026949 0.000965 -0.052141
v -0.026949 0.021427 0.029327
v -0.019520 0.021427 0.029327
v -0.019520 0.000965 0.034975
v -0.026949 0.000965 0.034975
v -0.026949 0.021427 -0.027603
v -0.019520 0.021427 -0.027603
v -0.019520 0.000965 -0.033251
v -0.026949 0.000965 -0.033251
v -0.032711 0.000965 -0.033251
v -0.032711 0.021427 -0.027603
v -0.032711 0.000965 0.034975
v -0.032711 0.021427 0.029327
v -0.039396 0.005384 0.009942
v -0.039396 0.001547 0.006104
v -0.039396 0.000142 0.000862
v -0.039396 0.001729 -0.004380
v -0.039396 0.010626 -0.004380
v -0.039396 0.019524 -0.004380
v -0.039396 0.021110 0.000862
v -0.039396 0.019706 0.006104
v -0.039396 0.015868 0.009942
v -0.039396 0.010626 0.011346
v -0.032711 0.005384 0.009942
v -0.032711 0.001547 0.006104
v -0.032711 0.000142 0.000862
v -0.032711 0.001729 -0.004380
v -0.032711 0.010626 -0.004380
v -0.032711 0.019524 -0.004380
v -0.032711 0.021110 0.000862
v -0.032711 0.019706 0.006104
v -0.032711 0.015868 0.009942
v -0.032711 0.010626 0.011346
v -0.039396 0.010626 0.000862
v -0.032711 0.010626 0.000862
v -0.040480 0.007221 -0.059314
v -0.036049 0.007221 -0.059314
v -0.040480 0.010626 -0.059314
v -0.036049 0.010626 -0.059314
v -0.040480 0.014032 -0.059314
v -0.036049 0.014032 -0.059314
v -0.038944 0.008327 -0.081427
v -0.036049 0.008327 -0.081427
v -0.038944 0.010626 -0.081427
v -0.036049 0.010626 -0.081427
v -0.038944 0.012926 -0.081427
v -0.036049 0.012926 -0.081427
v -0.025635 0.007221 -0.061748
v -0.025635 0.010626 -0.061748
v -0.025635 0.008327 -0.078889
v -0.025635 0.010626 -0.078889
v -0.025635 0.014032 -0.061748
v -0.025635 0.012926 -0.078889
v -0.036049 0.015225 -0.045848
v -0.040232 0.015225 -0.045848
v -0.040232 0.010626 -0.045848
v -0.040232 0.006027 -0.045848
v -0.036049 0.006027 -0.045848
v -0.036049 0.010626 -0.045848
vn -0.0000 -1.0000 -0.0000
vn -0.0000 1.0000 -0.0000
vn -0.0000 -0.0000 -1.0000
vn -0.0000 -0.0000 1.0000
vn 1.0000 -0.0000 -0.0000
vn -1.0000 -0.0000 -0.0000
vt -6.074087 -1.763394
vt -6.008575 -1.696820
vt -8.600240 -1.696820
vt -8.534726 -1.763394
vt -6.008575 -1.647459
vt -6.074087 -1.580886
vt -8.534727 -1.580886
vt -8.600240 -1.647460
vt -8.469213 0.215459
vt -8.469213 0.123522
vt -6.008575 0.123522
vt -6.008575 0.215459
vt -8.600240 -0.303523
vt -6.008575 -0.303522
vt -6.008575 -0.130809
vt -8.600240 -0.130809
vt -9.921654 -0.136226
vt -11.084337 -0.136226
vt -11.084337 -0.228163
vt -9.921654 -0.228163
vt -8.494937 0.576152
vt -8.494937 0.748868
vt -9.790770 0.748868
vt -9.790770 0.576152
vt -8.534727 -0.418201
vt -8.600240 -0.351628
vt -8.600239 -2.992653
vt -8.534726 -2.926079
vt -8.469213 0.353621
vt -8.469213 0.261684
vt -6.008575 0.261684
vt -6.008575 0.353621
vt -8.600240 -0.090001
vt -6.008575 -0.090000
vt -6.008575 0.082714
vt -8.600240 0.082714
vt -9.921654 0.001936
vt -11.084337 0.001936
vt -11.084337 -0.090001
vt -9.921654 -0.090001
vt -8.494937 0.363900
vt -8.494937 0.536614
vt -9.790770 0.536614
vt -9.790770 0.363900
vt -6.074087 -0.418201
vt -6.008575 -0.351628
vt -6.008574 -2.992653
vt -6.074087 -2.926079
vt -8.469213 0.399846
vt -6.008575 0.399846
vt -6.008575 0.418977
vt -8.469213 0.418977
vt -6.008575 0.481778
vt -8.469213 0.481778
vt -8.469213 0.462647
vt -6.008575 0.462647
vt -9.921654 0.067293
vt -11.084337 0.067293
vt -11.084337 0.048161
vt -9.921654 0.048161
vt -11.084337 0.110961
vt -9.921654 0.110961
vt -9.921654 0.130093
vt -11.084337 0.130093
vt -8.469213 0.525447
vt -6.008575 0.525448
vt -6.008575 0.544579
vt -8.469213 0.544579
vt -6.008575 0.607381
vt -8.469213 0.607380
vt -8.469213 0.588249
vt -6.008575 0.588249
vt -9.921654 0.192894
vt -11.084337 0.192894
vt -11.084337 0.173763
vt -9.921654 0.173763
vt -10.953312 0.236564
vt -9.790627 0.236564
vt -9.790627 0.255696
vt -10.953312 0.255696
vt -8.469213 0.651049
vt -6.008575 0.651049
vt -6.008575 0.658483
vt -8.469213 0.658483
vt -6.008575 0.708724
vt -8.469213 0.708724
vt -8.469213 0.701289
vt -6.008575 0.701289
vt -9.790627 0.306799
vt -10.953312 0.306799
vt -10.953312 0.299365
vt -9.790627 0.299365
vt -10.979177 0.349605
vt -9.816492 0.349605
vt -9.816492 0.357040
vt -10.979177 0.357040
vt -8.469213 0.751530
vt -6.008575 0.751530
vt -6.008575 0.758965
vt -8.469213 0.758965
vt -6.008575 0.809207
vt -8.469213 0.809207
vt -8.469213 0.801771
vt -6.008575 0.801771
vt -9.816492 0.407281
vt -10.979177 0.407281
vt -10.979177 0.399846
vt -9.816492 0.399846
vt -10.979177 0.450086
vt -9.816492 0.450086
vt -9.816492 0.457521
vt -10.979177 0.457521
vt -8.469213 0.852011
vt -6.008575 0.852011
vt -6.084477 0.929355
vt -8.393312 0.929355
vt -6.008575 3.220471
vt -8.469213 3.220471
vt -8.393312 3.143126
vt -6.084477 3.143127
vt -6.008575 2.057786
vt -6.084477 2.135130
vt -6.008575 2.014696
vt -6.084477 1.937353
vt -8.469213 2.057786
vt -8.393312 2.135130
vt -8.469213 2.014696
vt -8.393312 1.937353
vt -10.803771 0.993100
vt -8.494936 0.993100
vt -8.494936 1.021791
vt -10.803771 1.021791
vt -8.494936 0.953561
vt -10.803771 0.953561
vt -10.803771 0.924868
vt -8.494936 0.924868
vt -10.981299 2.764726
vt -11.989297 2.764726
vt -11.989297 2.736034
vt -10.981299 2.736034
vt -11.989297 2.811395
vt -10.981299 2.811395
vt -10.981299 2.840088
vt -11.989297 2.840088
vt -10.803771 0.856637
vt -8.494936 0.856637
vt -8.494936 0.885330
vt -10.803771 0.885330
vt -8.494937 0.817098
vt -10.803773 0.817098
vt -10.803773 0.788406
vt -8.494937 0.788406
vt -10.981299 2.915448
vt -11.989297 2.915448
vt -11.989297 2.886756
vt -10.981299 2.886756
vt -11.989297 2.962117
vt -10.981299 2.962117
vt -10.981299 2.990809
vt -11.989297 2.990809
vt -10.879675 3.348897
vt -8.570839 3.348897
vt -8.494937 3.426240
vt -10.955576 3.426240
vt -8.570839 1.138675
vt -10.879675 1.138675
vt -10.955575 1.061331
vt -8.494937 1.061331
vt -8.570839 2.146672
vt -8.494937 2.224016
vt -8.570839 2.340899
vt -8.494937 2.263556
vt -10.879675 2.146672
vt -10.955575 2.224016
vt -10.879675 2.340899
vt -10.955576 2.263556
vt -9.764904 0.278478
vt -8.494937 0.278478
vt -8.494937 0.324359
vt -9.764904 0.324359
vt -9.764904 0.193057
vt -8.494937 0.193057
vt -8.494937 0.238938
vt -9.764904 0.238938
vt -9.921654 -0.579846
vt -9.921654 -0.533965
vt -11.086555 -0.533965
vt -11.086555 -0.579846
vt -9.921654 -0.491925
vt -9.921654 -0.446043
vt -11.086555 -0.446044
vt -11.086555 -0.491925
vt -9.895930 -1.011384
vt -8.625962 -1.011384
vt -8.753506 -0.883842
vt -9.768388 -0.883842
vt -8.625962 0.153517
vt -8.753506 0.025975
vt -9.895930 0.153517
vt -9.768388 0.025975
vt -9.895930 -2.215826
vt -8.625962 -2.215826
vt -8.753506 -2.088283
vt -9.768388 -2.088283
vt -8.625962 -1.050925
vt -8.753506 -1.178466
vt -9.895930 -1.050925
vt -9.768388 -1.178466
vt -9.816493 0.546209
vt -10.831375 0.546209
vt -10.831375 0.500328
vt -9.816493 0.500328
vt -12.931723 1.361223
vt -12.021904 1.361224
vt -12.021904 1.407106
vt -12.931723 1.407106
vt -12.931723 1.321685
vt -12.931723 1.275804
vt -12.021904 1.275804
vt -12.021904 1.321685
vt -9.816492 0.588249
vt -9.816492 0.634130
vt -10.831375 0.634130
vt -10.831375 0.588249
vt -9.852061 -2.300626
vt -8.625961 -2.300626
vt -8.625961 -2.255365
vt -9.852061 -2.255365
vt -9.852060 -2.385424
vt -8.625961 -2.385424
vt -8.625961 -2.340165
vt -9.852060 -2.340165
vt -9.921654 -0.404005
vt -9.921654 -0.358744
vt -11.086555 -0.358744
vt -11.086555 -0.404005
vt -9.921654 -0.316083
vt -9.921654 -0.270824
vt -11.086555 -0.270824
vt -11.086555 -0.316083
vt -11.147752 -2.992653
vt -9.921653 -2.992653
vt -10.049196 -2.865111
vt -11.020210 -2.865111
vt -9.921653 -1.827752
vt -10.049196 -1.955293
vt -11.147752 -1.827752
vt -11.020210 -1.955293
vt -11.147752 -1.785622
vt -9.921653 -1.785622
vt -10.049196 -1.658080
vt -11.020210 -1.658080
vt -9.921654 -0.620719
vt -10.049196 -0.748262
vt -11.147753 -0.620720
vt -11.020210 -0.748262
vt -10.981299 3.082738
vt -11.952314 3.082738
vt -11.952314 3.037478
vt -10.981299 3.037478
vt -12.931723 1.191003
vt -12.021904 1.191003
vt -12.021904 1.236264
vt -12.931723 1.236264
vt -12.931723 1.151464
vt -12.931723 1.106204
vt -12.021904 1.106204
vt -12.021904 1.151464
vt -10.981299 3.125400
vt -10.981299 3.170660
vt -11.952314 3.170660
vt -11.952314 3.125400
s 1
usemtl M_WindowSlider_48X24_0
f 5/1/1 2/2/1 3/3/1 4/4/1
f 11/5/2 8/6/2 9/7/2 10/8/2
f 49/9/3 50/10/3 51/11/3 52/12/3
f 15/13/4 12/14/4 1/15/4 16/16/4
f 53/17/5 52/18/5 51/19/5 54/20/5
f 11/21/6 2/22/6 1/23/6 12/24/6
f 10/8/2 9/7/2 13/25/2 15/26/2
f 16/27/1 14/28/1 4/4/1 3/3/1
f 55/29/4 56/30/4 53/31/4 54/32/4
f 3/33/3 2/34/3 11/35/3 10/36/3
f 55/37/6 50/38/6 49/39/6 56/40/6
f 3/41/5 10/42/5 15/43/5 16/44/5
f 15/26/2 13/25/2 7/45/2 12/46/2
f 7/45/2 8/6/2 11/5/2 12/46/2
f 16/27/1 1/47/1 6/48/1 14/28/1
f 1/47/1 2/2/1 5/1/1 6/48/1
f 14/49/3 6/50/3 19/51/3 18/52/3
f 7/53/3 13/54/3 17/55/3 20/56/3
f 8/57/5 7/58/5 20/59/5 21/60/5
f 6/61/5 5/62/5 22/63/5 19/64/5
f 9/65/4 8/66/4 21/67/4 24/68/4
f 5/69/4 4/70/4 23/71/4 22/72/4
f 4/73/6 14/74/6 18/75/6 23/76/6
f 13/77/6 9/78/6 24/79/6 17/80/6
f 18/81/4 19/82/4 27/83/4 26/84/4
f 20/85/4 17/86/4 25/87/4 28/88/4
f 21/89/6 20/90/6 28/91/6 29/92/6
f 19/93/6 22/94/6 30/95/6 27/96/6
f 24/97/3 21/98/3 29/99/3 32/100/3
f 22/101/3 23/102/3 31/103/3 30/104/3
f 23/105/5 18/106/5 26/107/5 31/108/5
f 17/109/5 24/110/5 32/111/5 25/112/5
f 26/113/1 27/114/1 35/115/1 34/116/1
f 28/117/2 25/118/2 33/119/2 36/120/2
f 29/121/2 28/117/2 36/120/2 37/122/2
f 27/114/1 30/123/1 38/124/1 35/115/1
f 32/125/2 29/121/2 37/122/2 40/126/2
f 30/123/1 31/127/1 39/128/1 38/124/1
f 31/127/1 26/113/1 34/116/1 39/128/1
f 25/118/2 32/125/2 40/126/2 33/119/2
f 34/129/3 35/130/3 43/131/3 42/132/3
f 36/133/3 33/134/3 41/135/3 44/136/3
f 37/137/5 36/138/5 44/139/5 45/140/5
f 35/141/5 38/142/5 46/143/5 43/144/5
f 40/145/4 37/146/4 45/147/4 48/148/4
f 38/149/4 39/150/4 47/151/4 46/152/4
f 39/153/6 34/154/6 42/155/6 47/156/6
f 33/157/6 40/158/6 48/159/6 41/160/6
f 42/161/2 43/162/2 51/163/2 50/164/2
f 44/165/1 41/166/1 49/167/1 52/168/1
f 45/169/1 44/165/1 52/168/1 53/170/1
f 43/162/2 46/171/2 54/172/2 51/163/2
f 48/173/1 45/169/1 53/170/1 56/174/1
f 46/171/2 47/175/2 55/176/2 54/172/2
f 47/175/2 42/161/2 50/164/2 55/176/2
f 41/166/1 48/173/1 56/174/1 49/167/1
f 59/177/4 60/178/4 62/179/4 61/180/4
f 63/181/3 64/182/3 58/183/3 57/184/3
f 58/185/6 64/186/6 62/187/6 60/188/6
f 63/189/5 57/190/5 59/191/5 61/192/5
f 57/193/2 58/194/2 66/195/2 65/196/2
f 58/194/2 60/197/2 67/198/2 66/195/2
f 60/197/2 59/199/2 68/200/2 67/198/2
f 59/199/2 57/193/2 65/196/2 68/200/2
f 61/201/1 62/202/1 70/203/1 69/204/1
f 62/202/1 64/205/1 71/206/1 70/203/1
f 64/205/1 63/207/1 72/208/1 71/206/1
f 63/207/1 61/201/1 69/204/1 72/208/1
f 67/209/3 68/210/3 69/211/3 70/212/3
f 68/213/6 65/214/6 72/215/6 69/216/6
f 67/217/5 70/218/5 71/219/5 66/220/5
f 66/221/4 71/222/4 72/223/4 65/224/4
f 75/225/4 76/226/4 78/227/4 77/228/4
f 79/229/3 80/230/3 74/231/3 73/232/3
f 74/233/6 80/234/6 78/235/6 76/236/6
f 79/237/5 73/238/5 75/239/5 77/240/5
f 73/241/2 74/242/2 82/243/2 81/244/2
f 74/242/2 76/245/2 83/246/2 82/243/2
f 76/245/2 75/247/2 84/248/2 83/246/2
f 75/247/2 73/241/2 81/244/2 84/248/2
f 77/249/1 78/250/1 86/251/1 85/252/1
f 78/250/1 80/253/1 87/254/1 86/251/1
f 80/253/1 79/255/1 88/256/1 87/254/1
f 79/255/1 77/249/1 85/252/1 88/256/1
f 83/257/3 84/258/3 85/259/3 86/260/3
f 84/261/6 81/262/6 88/263/6 85/264/6
f 83/265/5 86/266/5 87/267/5 82/268/5
f 82/269/4 87/270/4 88/271/4 81/272/4
