# Blender 4.1.0
# www.blender.org
mtllib RollRoll_0.mtl
o Roll
v 0.908327 2.285975 -24.606977
v 0.908328 2.298668 -24.628460
v 0.908327 2.315167 -24.609751
v 0.908327 2.292276 -24.599831
v 0.908327 2.289925 -24.624672
v 0.908327 2.314269 -24.619238
v 0.908327 2.301575 -24.597752
v 0.908327 2.285076 -24.616467
v 0.908327 2.307967 -24.626385
v 0.908327 2.310318 -24.601542
v 1.029170 2.285975 -24.606977
v 1.029170 2.298668 -24.628460
v 1.029170 2.315167 -24.609747
v 1.029170 2.292276 -24.599829
v 1.029170 2.289925 -24.624672
v 1.029170 2.314270 -24.619238
v 1.029170 2.301574 -24.597752
v 1.029170 2.285076 -24.616467
v 1.029170 2.307967 -24.626385
v 1.029170 2.310318 -24.601542
v 0.908327 2.301776 -24.595640
v 1.029170 2.301776 -24.595640
v 1.029170 2.291195 -24.598001
v 0.908327 2.291195 -24.598001
v 1.029170 2.284025 -24.606134
v 0.908327 2.284025 -24.606134
v 1.029170 2.283003 -24.616928
v 0.908327 2.283003 -24.616928
v 1.029170 2.288520 -24.626265
v 0.908327 2.288519 -24.626266
v 1.029170 2.298468 -24.630575
v 0.908328 2.298468 -24.630575
v 1.029170 2.309048 -24.628214
v 0.908328 2.309048 -24.628214
v 1.029170 2.316218 -24.620081
v 0.908327 2.316218 -24.620081
v 1.029170 2.317241 -24.609283
v 0.908327 2.317240 -24.609283
v 1.029170 2.311723 -24.599951
v 0.908327 2.311723 -24.599951
v 0.909240 2.301776 -24.595640
v 0.909240 2.291195 -24.598001
v 0.909240 2.284025 -24.606134
v 0.909240 2.283003 -24.616928
v 0.909240 2.288520 -24.626266
v 0.909240 2.298468 -24.630575
v 0.909240 2.309048 -24.628214
v 0.909240 2.316218 -24.620081
v 0.909240 2.317240 -24.609283
v 0.909240 2.311723 -24.599951
v 1.027761 2.291195 -24.598001
v 1.027761 2.284025 -24.606134
v 1.027761 2.283003 -24.616928
v 1.027761 2.288520 -24.626265
v 1.027762 2.298468 -24.630575
v 1.027762 2.309048 -24.628214
v 1.027761 2.316218 -24.620081
v 1.027761 2.317241 -24.609283
v 1.027761 2.311723 -24.599951
v 1.027761 2.301776 -24.595640
v 0.912324 2.301575 -24.597752
v 0.912324 2.292276 -24.599831
v 0.912324 2.285975 -24.606977
v 0.912324 2.285076 -24.616467
v 0.912324 2.289925 -24.624672
v 0.912325 2.298668 -24.628460
v 0.912324 2.307967 -24.626385
v 0.912324 2.314269 -24.619238
v 0.912324 2.315167 -24.609751
v 0.912324 2.310318 -24.601542
v 1.025996 2.292276 -24.599829
v 1.025996 2.285975 -24.606977
v 1.025996 2.285076 -24.616467
v 1.025996 2.289925 -24.624672
v 1.025996 2.298668 -24.628460
v 1.025996 2.307967 -24.626385
v 1.025996 2.314270 -24.619238
v 1.025996 2.315167 -24.609747
v 1.025996 2.310318 -24.601542
v 1.025996 2.301574 -24.597752
vn -0.0000 -0.0944 -0.9955
vn 0.7837 -0.0587 -0.6183
vn 0.7838 0.3161 -0.5346
vn -0.0000 0.5090 -0.8608
vn 0.7837 0.5701 -0.2467
vn -0.0000 0.9177 -0.3972
vn 0.7837 0.6062 0.1353
vn -0.0000 0.9760 0.2178
vn 0.7837 0.4109 0.4657
vn -0.0000 0.6616 0.7498
vn 0.7837 0.0587 0.6183
vn -0.0000 0.0944 0.9955
vn 0.7837 -0.3161 0.5347
vn -0.0000 -0.5089 0.8608
vn 0.7837 -0.5700 0.2467
vn -0.0000 -0.9177 0.3973
vn 0.7837 -0.6062 -0.1353
vn -0.0000 -0.9760 -0.2179
vn 0.7837 -0.4109 -0.4658
vn -0.0000 -0.6616 -0.7498
vn -0.0000 0.0945 0.9955
vn 0.6437 -0.3895 0.6588
vn 0.6437 0.0723 0.7618
vn -0.0000 -0.9177 0.3972
vn 0.6437 -0.7023 0.3040
vn 0.6437 -0.7469 -0.1667
vn 0.6437 -0.5064 -0.5738
vn -0.0000 -0.0945 -0.9955
vn 0.6437 -0.0724 -0.7618
vn -0.0000 0.5089 -0.8608
vn 0.6437 0.3895 -0.6588
vn 0.6437 0.7023 -0.3040
vn -0.0000 0.9760 0.2180
vn 0.6437 0.7469 0.1668
vn -0.0000 0.6616 0.7499
vn 0.6437 0.5063 0.5738
vn -0.7837 -0.6063 -0.1353
vn -0.6437 0.7469 0.1668
vn -0.6437 0.7023 -0.3039
vn -0.7837 -0.5700 0.2467
vn -0.7837 0.3162 -0.5346
vn -0.6437 -0.3895 0.6588
vn -0.6437 0.0723 0.7618
vn -0.7838 -0.0585 -0.6183
vn -0.7837 0.4110 0.4657
vn -0.6436 -0.5064 -0.5738
vn -0.6436 -0.7470 -0.1668
vn -0.7837 0.6062 0.1353
vn -0.6437 -0.7023 0.3040
vn -0.7837 0.5700 -0.2468
vn -0.6436 0.3895 -0.6588
vn -0.7838 -0.3161 0.5346
vn -0.6437 -0.0724 -0.7619
vn -0.7838 0.0587 0.6183
vn -0.6437 0.5063 0.5738
vn -0.7837 -0.4110 -0.4657
vn 0.0001 -0.6616 -0.7498
vn 0.0001 -0.9760 -0.2179
vn -0.0000 -0.6617 -0.7498
vn -0.0000 -0.0943 -0.9955
vn -0.0000 -0.9760 -0.2178
vn -0.0000 0.6617 0.7498
vn -0.0000 0.9760 0.2179
vn -0.0000 0.5090 -0.8607
vt 0.393578 0.325677
vt 0.370010 0.325677
vt 0.370010 0.394733
vt 0.393578 0.394733
vt 0.393578 0.953281
vt 0.370010 0.953281
vt 0.370010 0.900199
vt 0.393578 0.900199
vt 0.370010 0.829729
vt 0.393578 0.829729
vt 0.370010 0.768787
vt 0.393578 0.768787
vt 0.393578 0.412196
vt 0.370010 0.412196
vt 0.370010 0.347262
vt 0.393578 0.347262
vt 0.370010 0.278206
vt 0.393578 0.278206
vt 0.393578 0.756068
vt 0.370010 0.756068
vt 0.370010 0.809149
vt 0.393578 0.809149
vt 0.370010 0.879619
vt 0.393578 0.879619
vt 0.370010 0.940561
vt 0.393578 0.940561
vt 0.393578 0.260743
vt 0.370010 0.260743
vt 0.380469 0.324187
vt 0.380469 0.402759
vt 0.370010 0.402759
vt 0.370010 0.324187
vt 0.380469 0.966858
vt 0.380469 0.906464
vt 0.370010 0.906464
vt 0.370010 0.966858
vt 0.380469 0.826293
vt 0.370010 0.826293
vt 0.380469 0.756961
vt 0.370010 0.756961
vt 0.380469 0.422631
vt 0.380469 0.348752
vt 0.370010 0.348752
vt 0.370010 0.422631
vt 0.380469 0.270180
vt 0.370010 0.270180
vt 0.380469 0.742490
vt 0.380469 0.802884
vt 0.370010 0.802884
vt 0.370010 0.742490
vt 0.380469 0.883055
vt 0.370010 0.883055
vt 0.380469 0.952387
vt 0.370010 0.952387
vt 0.380469 0.250307
vt 0.370010 0.250307
vt 0.224734 0.879619
vt 0.209342 0.883055
vt 0.216931 0.802884
vt 0.231405 0.809149
vt 0.394733 0.953281
vt 0.402759 0.966858
vt 0.456008 0.906464
vt 0.441534 0.900199
vt 0.324187 0.984399
vt 0.325677 0.968697
vt 0.412196 0.768787
vt 0.422631 0.756961
vt 0.348752 0.724949
vt 0.347262 0.740651
vt 0.463597 0.826293
vt 0.448205 0.829729
vt 0.270180 0.742490
vt 0.278206 0.756068
vt 0.250307 0.952387
vt 0.260743 0.940561
vt 0.267421 0.250307
vt 0.267421 0.324187
vt 0.260645 0.324187
vt 0.260645 0.250307
vt 0.267421 0.883055
vt 0.267421 0.952387
vt 0.260645 0.952387
vt 0.260645 0.883055
vt 0.267421 0.802884
vt 0.260645 0.802884
vt 0.267421 0.742490
vt 0.260645 0.742490
vt 0.267421 0.348752
vt 0.267421 0.270180
vt 0.260645 0.270180
vt 0.260645 0.348752
vt 0.267421 0.422631
vt 0.260645 0.422631
vt 0.267421 0.826293
vt 0.267421 0.756961
vt 0.260645 0.756961
vt 0.260645 0.826293
vt 0.267421 0.906464
vt 0.260645 0.906464
vt 0.267421 0.966858
vt 0.260645 0.966858
vt 0.267421 0.402759
vt 0.260645 0.402759
vt -0.619531 0.324187
vt -0.619531 0.250307
vt -0.619531 0.952387
vt -0.619531 0.883055
vt -0.619531 0.802884
vt -0.619531 0.742490
vt -0.619531 0.270180
vt -0.619531 0.348752
vt -0.619531 0.422631
vt -0.619531 0.756961
vt -0.619531 0.826293
vt -0.619531 0.906464
vt -0.619531 0.966858
vt -0.619531 0.402759
vt 0.267421 0.260743
vt 0.237740 0.260743
vt 0.237740 0.325677
vt 0.267421 0.325677
vt 0.267421 0.879619
vt 0.237740 0.879619
vt 0.237740 0.940561
vt 0.267421 0.940561
vt 0.267421 0.809149
vt 0.237740 0.809149
vt 0.267421 0.756068
vt 0.237740 0.756068
vt 0.267421 0.347262
vt 0.237740 0.347262
vt 0.237740 0.278206
vt 0.267421 0.278206
vt 0.267421 0.412196
vt 0.237740 0.412196
vt 0.267421 0.829729
vt 0.237740 0.829729
vt 0.237740 0.768787
vt 0.267421 0.768787
vt 0.267421 0.900199
vt 0.237740 0.900199
vt 0.267421 0.953281
vt 0.237740 0.953281
vt 0.237740 0.394733
vt 0.267421 0.394733
vt -0.606422 0.260743
vt -0.606422 0.325677
vt -0.606422 0.879619
vt -0.606422 0.940561
vt -0.606422 0.809149
vt -0.606422 0.756068
vt -0.606422 0.347262
vt -0.606422 0.278206
vt -0.606422 0.412196
vt -0.606422 0.829729
vt -0.606422 0.768787
vt -0.606422 0.900199
vt -0.606422 0.953281
vt -0.606422 0.394733
s 1
usemtl M_Roll_0
f 80/1/1 17/2/2 14/3/3 71/4/4
f 71/5/4 14/6/3 11/7/5 72/8/6
f 72/8/6 11/7/5 18/9/7 73/10/8
f 73/10/8 18/9/7 15/11/9 74/12/10
f 74/13/10 15/14/9 12/15/11 75/16/12
f 75/16/12 12/15/11 19/17/13 76/18/14
f 76/19/14 19/20/13 16/21/15 77/22/16
f 77/22/16 16/21/15 13/23/17 78/24/18
f 78/24/18 13/23/17 20/25/19 79/26/20
f 79/27/20 20/28/19 17/2/2 80/1/1
f 60/29/21 51/30/14 23/31/22 22/32/23
f 51/33/14 52/34/24 25/35/25 23/36/22
f 52/34/24 53/37/18 27/38/26 25/35/25
f 53/37/18 54/39/20 29/40/27 27/38/26
f 54/41/20 55/42/28 31/43/29 29/44/27
f 55/42/28 56/45/30 33/46/31 31/43/29
f 56/47/30 57/48/6 35/49/32 33/50/31
f 57/48/6 58/51/33 37/52/34 35/49/32
f 58/51/33 59/53/35 39/54/36 37/52/34
f 59/55/35 60/29/21 22/32/23 39/56/36
f 3/57/37 38/58/38 36/59/39 6/60/40
f 14/61/3 23/62/22 25/63/25 11/64/5
f 4/61/41 24/62/42 21/65/43 7/66/44
f 15/67/9 29/68/27 31/69/29 12/70/11
f 5/67/45 30/68/46 28/71/47 8/72/48
f 8/72/48 28/71/47 26/63/49 1/64/50
f 16/60/15 35/59/32 37/58/34 13/57/17
f 6/60/40 36/59/39 34/73/51 9/74/52
f 9/74/52 34/73/51 32/69/53 2/70/54
f 17/66/2 22/65/23 23/62/22 14/61/3
f 7/66/44 21/65/43 40/75/55 10/76/56
f 10/76/56 40/75/55 38/58/38 3/57/37
f 18/72/7 27/71/26 29/68/27 15/67/9
f 11/64/5 25/63/25 27/71/26 18/72/7
f 1/64/50 26/63/49 24/62/42 4/61/41
f 19/74/13 33/73/31 35/59/32 16/60/15
f 12/70/11 31/69/29 33/73/31 19/74/13
f 2/70/54 32/69/53 30/68/46 5/67/45
f 20/76/19 39/75/36 22/65/23 17/66/2
f 13/57/17 37/58/34 39/75/36 20/76/19
f 40/77/55 21/78/43 41/79/21 50/80/35
f 38/81/38 40/82/55 50/83/35 49/84/33
f 36/85/39 38/81/38 49/84/33 48/86/6
f 34/87/51 36/85/39 48/86/6 47/88/30
f 32/89/53 34/90/51 47/91/30 46/92/28
f 30/93/46 32/89/53 46/92/28 45/94/57
f 28/95/47 30/96/46 45/97/57 44/98/58
f 26/99/49 28/95/47 44/98/58 43/100/24
f 24/101/42 26/99/49 43/100/24 42/102/14
f 21/78/43 24/103/42 42/104/14 41/79/21
f 50/80/35 41/79/21 60/105/21 59/106/35
f 49/84/33 50/83/35 59/107/35 58/108/33
f 48/86/6 49/84/33 58/108/33 57/109/6
f 47/88/30 48/86/6 57/109/6 56/110/30
f 46/92/28 47/91/30 56/111/30 55/112/28
f 45/94/57 46/92/28 55/112/28 54/113/20
f 44/98/58 45/97/57 54/114/20 53/115/18
f 43/100/24 44/98/58 53/115/18 52/116/24
f 42/102/14 43/100/24 52/116/24 51/117/14
f 41/79/21 42/104/14 51/118/14 60/105/21
f 10/119/56 70/120/59 61/121/60 7/122/44
f 3/123/37 69/124/61 70/125/59 10/126/56
f 6/127/40 68/128/16 69/124/61 3/123/37
f 9/129/52 67/130/14 68/128/16 6/127/40
f 2/131/54 66/132/21 67/133/14 9/134/52
f 5/135/45 65/136/62 66/132/21 2/131/54
f 8/137/48 64/138/63 65/139/62 5/140/45
f 1/141/50 63/142/6 64/138/63 8/137/48
f 4/143/41 62/144/64 63/142/6 1/141/50
f 7/122/44 61/121/60 62/145/64 4/146/41
f 70/120/59 79/147/20 80/148/1 61/121/60
f 69/124/61 78/149/18 79/150/20 70/125/59
f 68/128/16 77/151/16 78/149/18 69/124/61
f 67/130/14 76/152/14 77/151/16 68/128/16
f 66/132/21 75/153/12 76/154/14 67/133/14
f 65/136/62 74/155/10 75/153/12 66/132/21
f 64/138/63 73/156/8 74/157/10 65/139/62
f 63/142/6 72/158/6 73/156/8 64/138/63
f 62/144/64 71/159/4 72/158/6 63/142/6
f 61/121/60 80/148/1 71/160/4 62/145/64
