# Blender 4.1.0
# www.blender.org
mtllib MeshSideTable_215_0_GeomSubset_0.mtl
o MeshSideTable_215_0_GeomSubset_0
v 0.548935 -0.000386 0.134433
v 0.530229 -0.088189 0.134426
v 0.530161 -0.088190 0.330638
v 0.548867 -0.000387 0.330644
v 0.530229 0.087416 0.134426
v 0.530161 0.087416 0.330638
v 0.475383 0.169234 0.134407
v 0.475316 0.169234 0.330619
v 0.475316 -0.170009 0.330619
v 0.475383 -0.170008 0.134407
v 0.388137 -0.240268 0.134377
v 0.274436 -0.294179 0.134338
v 0.274368 -0.294180 0.330549
v 0.388070 -0.240268 0.330589
v 0.141960 -0.328069 0.330503
v 0.142029 -0.328071 0.134292
v -0.000063 -0.339629 0.134243
v -0.000131 -0.339629 0.330454
v -0.142222 -0.328069 0.330405
v -0.142154 -0.328071 0.134194
v -0.274630 -0.294180 0.330360
v -0.274562 -0.294179 0.134148
v -0.388331 -0.240268 0.330320
v -0.388263 -0.240267 0.134109
v -0.475577 -0.170008 0.330290
v -0.475509 -0.170008 0.134079
v -0.530354 -0.088190 0.134060
v -0.530422 -0.088189 0.330271
v -0.549129 -0.000387 0.330265
v -0.549061 -0.000387 0.134053
v -0.530422 0.087416 0.330271
v -0.530355 0.087416 0.134060
v -0.475577 0.169234 0.330290
v -0.475510 0.169233 0.134079
v -0.388263 0.239493 0.134109
v -0.388331 0.239494 0.330320
v -0.274630 0.293406 0.330360
v -0.274562 0.293406 0.134148
v -0.142222 0.327296 0.330405
v -0.142154 0.327296 0.134194
v -0.000131 0.338855 0.330454
v -0.000063 0.338856 0.134243
v 0.141960 0.327297 0.330503
v 0.142028 0.327296 0.134292
v 0.274368 0.293406 0.330549
v 0.274436 0.293406 0.134338
v 0.388137 0.239494 0.134377
v 0.388069 0.239493 0.330589
v 0.141298 -0.324118 0.334495
v -0.000132 -0.335624 0.334446
v -0.141562 -0.324119 0.334397
v -0.273269 -0.290408 0.334352
v 0.273004 -0.290407 0.334541
v -0.386196 -0.236863 0.334313
v 0.385932 -0.236863 0.334580
v -0.472601 -0.167280 0.334283
v 0.472337 -0.167280 0.334610
v 0.526415 -0.086605 0.334628
v -0.526679 -0.086605 0.334264
v -0.545049 -0.000387 0.334258
v 0.544784 -0.000387 0.334635
v -0.526679 0.085831 0.334264
v 0.526415 0.085831 0.334628
v -0.472601 0.166506 0.334283
v 0.472337 0.166506 0.334610
v -0.386196 0.236089 0.334313
v 0.385932 0.236089 0.334580
v -0.273269 0.289634 0.334352
v 0.273004 0.289635 0.334541
v -0.141562 0.323344 0.334397
v 0.141297 0.323344 0.334495
v -0.000132 0.334849 0.334446
v 0.545904 -0.000386 0.131466
v 0.527448 -0.087012 0.131460
v 0.473173 -0.167982 0.131441
v 0.386551 -0.237739 0.131411
v 0.273425 -0.291377 0.131372
v 0.141538 -0.325134 0.131327
v 0.527448 0.086239 0.131460
v 0.473173 0.167208 0.131441
v 0.386551 0.236965 0.131411
v 0.273425 0.290604 0.131372
v -0.273549 -0.291377 0.131183
v -0.141662 -0.325134 0.131229
v -0.000062 -0.336655 0.131278
v -0.386675 -0.237737 0.131144
v -0.473297 -0.167982 0.131114
v -0.527572 -0.087012 0.131095
v -0.546028 -0.000387 0.131089
v -0.527572 0.086240 0.131095
v -0.473297 0.167208 0.131114
v -0.386675 0.236964 0.131144
v -0.273549 0.290603 0.131183
v -0.141662 0.324361 0.131229
v 0.141538 0.324360 0.131327
v -0.000062 0.335881 0.131278
v 0.578260 -0.000386 0.111397
v 0.558555 -0.092877 0.111390
v 0.558548 -0.092878 0.130075
v 0.578254 -0.000387 0.130082
v 0.558555 0.092106 0.111390
v 0.558548 0.092104 0.130075
v 0.500781 0.178292 0.111370
v 0.500774 0.178293 0.130055
v 0.500774 -0.179067 0.130055
v 0.500781 -0.179067 0.111370
v 0.408876 -0.253077 0.111338
v 0.289103 -0.309867 0.111297
v 0.289096 -0.309869 0.129982
v 0.408869 -0.253078 0.130023
v 0.149617 -0.345570 0.129934
v 0.149624 -0.345568 0.111249
v -0.000055 -0.357744 0.111197
v -0.000061 -0.357746 0.129882
v -0.149740 -0.345568 0.129830
v -0.149734 -0.345568 0.111145
v -0.289219 -0.309867 0.129782
v -0.289212 -0.309869 0.111097
v -0.408992 -0.253077 0.129741
v -0.408985 -0.253078 0.111056
v -0.500897 -0.179067 0.129709
v -0.500890 -0.179067 0.111024
v -0.558665 -0.092877 0.111004
v -0.558671 -0.092878 0.129689
v -0.578377 -0.000386 0.129682
v -0.578370 -0.000387 0.110997
v -0.558671 0.092104 0.129689
v -0.558665 0.092104 0.111004
v -0.500897 0.178292 0.129709
v -0.500890 0.178292 0.111024
v -0.408986 0.252304 0.111056
v -0.408992 0.252303 0.129741
v -0.289219 0.309093 0.129782
v -0.289213 0.309093 0.111097
v -0.149741 0.344794 0.129830
v -0.149734 0.344794 0.111145
v -0.000062 0.356971 0.129882
v -0.000055 0.356973 0.111197
v 0.149617 0.344794 0.129934
v 0.149624 0.344794 0.111249
v 0.289096 0.309093 0.129982
v 0.289102 0.309093 0.111297
v 0.408875 0.252304 0.111338
v 0.408869 0.252303 0.130023
v 0.149181 -0.342969 0.132560
v -0.000062 -0.355109 0.132508
v -0.149306 -0.342969 0.132457
v -0.288323 -0.307386 0.132409
v 0.288199 -0.307386 0.132608
v -0.407587 -0.250837 0.132368
v 0.407463 -0.250837 0.132649
v -0.498939 -0.177271 0.132336
v 0.498814 -0.177271 0.132681
v -0.556208 -0.091836 0.132316
v 0.556084 -0.091835 0.132701
v -0.575693 -0.000386 0.132309
v 0.575567 -0.000386 0.132707
v -0.556209 0.091062 0.132316
v 0.556084 0.091062 0.132701
v -0.498939 0.176497 0.132336
v 0.498814 0.176497 0.132681
v -0.407588 0.250063 0.132368
v 0.407462 0.250063 0.132649
v -0.288324 0.306612 0.132409
v 0.288198 0.306612 0.132608
v -0.149307 0.342195 0.132457
v 0.149181 0.342195 0.132560
v -0.000062 0.354337 0.132508
v 0.573178 -0.000387 0.106423
v 0.553893 -0.090905 0.106416
v 0.497074 -0.175668 0.106397
v 0.406216 -0.248837 0.106365
v 0.287407 -0.305170 0.106324
v 0.148802 -0.340648 0.106276
v 0.553893 0.090132 0.106416
v 0.497074 0.174894 0.106397
v 0.406216 0.248062 0.106365
v 0.287406 0.304397 0.106324
v -0.287513 -0.305170 0.106126
v -0.148908 -0.340648 0.106173
v -0.000053 -0.352757 0.106225
v -0.406323 -0.248837 0.106084
v -0.497180 -0.175670 0.106053
v -0.553999 -0.090906 0.106033
v -0.573285 -0.000387 0.106027
v -0.554000 0.090130 0.106033
v -0.497181 0.174893 0.106053
v -0.406323 0.248062 0.106084
v -0.287513 0.304397 0.106126
v -0.148908 0.339872 0.106173
v 0.148802 0.339872 0.106276
v -0.000053 0.351982 0.106225
v 0.578377 -0.000387 -0.225169
v 0.558671 -0.092877 -0.225176
v 0.558665 -0.092877 -0.206491
v 0.578370 -0.000386 -0.206484
v 0.558671 0.092104 -0.225176
v 0.558664 0.092104 -0.206491
v 0.500897 0.178293 -0.225196
v 0.500890 0.178292 -0.206511
v 0.500890 -0.179067 -0.206511
v 0.500897 -0.179066 -0.225196
v 0.408992 -0.253078 -0.225228
v 0.289219 -0.309869 -0.225269
v 0.289213 -0.309867 -0.206584
v 0.408986 -0.253077 -0.206543
v 0.149734 -0.345568 -0.206633
v 0.149740 -0.345568 -0.225317
v 0.000061 -0.357746 -0.225369
v 0.000055 -0.357744 -0.206684
v -0.149624 -0.345568 -0.206736
v -0.149618 -0.345568 -0.225421
v -0.289103 -0.309869 -0.206784
v -0.289096 -0.309869 -0.225469
v -0.408876 -0.253078 -0.206826
v -0.408869 -0.253078 -0.225510
v -0.500781 -0.179067 -0.206857
v -0.500774 -0.179066 -0.225542
v -0.558549 -0.092877 -0.225562
v -0.558555 -0.092878 -0.206877
v -0.578261 -0.000387 -0.206884
v -0.578254 -0.000387 -0.225569
v -0.558555 0.092104 -0.206877
v -0.558549 0.092104 -0.225562
v -0.500781 0.178292 -0.206857
v -0.500775 0.178292 -0.225542
v -0.408870 0.252303 -0.225510
v -0.408876 0.252304 -0.206826
v -0.289103 0.309093 -0.206784
v -0.289096 0.309093 -0.225469
v -0.149625 0.344794 -0.206736
v -0.149618 0.344794 -0.225421
v 0.000055 0.356973 -0.206684
v 0.000062 0.356971 -0.225369
v 0.149733 0.344794 -0.206633
v 0.149740 0.344794 -0.225317
v 0.289212 0.309093 -0.206584
v 0.289219 0.309095 -0.225269
v 0.408992 0.252303 -0.225228
v 0.408985 0.252304 -0.206543
v 0.149298 -0.342969 -0.204006
v 0.000054 -0.355110 -0.204058
v -0.149190 -0.342969 -0.204109
v -0.288207 -0.307385 -0.204157
v 0.288315 -0.307386 -0.203958
v -0.407471 -0.250836 -0.204199
v 0.407579 -0.250837 -0.203917
v -0.498823 -0.177272 -0.204230
v 0.498931 -0.177271 -0.203885
v -0.556092 -0.091836 -0.204250
v 0.556200 -0.091836 -0.203866
v -0.575576 -0.000387 -0.204257
v 0.575684 -0.000387 -0.203859
v -0.556093 0.091062 -0.204250
v 0.556200 0.091063 -0.203866
v -0.498823 0.176497 -0.204230
v 0.498931 0.176497 -0.203885
v -0.407471 0.250063 -0.204199
v 0.407579 0.250063 -0.203917
v -0.288207 0.306612 -0.204157
v 0.288315 0.306612 -0.203958
v -0.149190 0.342195 -0.204109
v 0.149297 0.342195 -0.204006
v 0.000054 0.354337 -0.204058
v 0.573294 -0.000386 -0.230143
v 0.554009 -0.090905 -0.230150
v 0.497190 -0.175668 -0.230170
v 0.406333 -0.248837 -0.230201
v 0.287524 -0.305170 -0.230242
v 0.148918 -0.340648 -0.230290
v 0.554009 0.090132 -0.230150
v 0.497190 0.174894 -0.230170
v 0.406333 0.248062 -0.230201
v 0.287523 0.304397 -0.230242
v -0.287397 -0.305170 -0.230441
v -0.148792 -0.340648 -0.230393
v 0.000063 -0.352757 -0.230341
v -0.406206 -0.248836 -0.230482
v -0.497064 -0.175668 -0.230513
v -0.553883 -0.090905 -0.230533
v -0.573168 -0.000387 -0.230539
v -0.553883 0.090132 -0.230533
v -0.497064 0.174894 -0.230513
v -0.406207 0.248062 -0.230482
v -0.287397 0.304397 -0.230441
v -0.148792 0.339872 -0.230393
v 0.148918 0.339872 -0.230290
v 0.000063 0.351982 -0.230341
v -0.570402 -0.003133 0.110762
v -0.558944 -0.005574 0.110759
v -0.553690 0.019793 -0.446015
v -0.565148 0.022234 -0.446011
v -0.550105 0.022121 -0.446012
v -0.553032 0.022885 -0.449073
v -0.555359 -0.003245 0.110755
v -0.558344 -0.002758 0.113818
v -0.569801 -0.000318 0.113822
v -0.046179 0.347705 0.109128
v -0.046179 0.335991 0.108972
v -0.030218 0.343229 -0.447545
v -0.030219 0.354943 -0.447388
v -0.027196 0.340208 -0.447583
v -0.043157 0.332970 0.108931
v -0.043246 0.335951 0.112034
v -0.043246 0.347665 0.112190
v -0.043157 0.350725 0.109168
v 0.046068 -0.348296 0.122701
v 0.046069 -0.336582 0.122562
v 0.030493 -0.343229 -0.453434
v 0.030493 -0.354944 -0.453295
v 0.027471 -0.340209 -0.453469
v 0.043046 -0.333561 0.122524
v 0.043130 -0.336547 0.125622
v 0.043130 -0.348261 0.125761
v 0.043046 -0.351317 0.122734
v 0.565422 0.022234 -0.445621
v 0.553965 0.019793 -0.445632
v 0.558835 -0.005573 0.111145
v 0.570292 -0.003133 0.111157
v 0.555249 -0.003245 0.111139
v 0.558231 -0.002758 0.114204
v 0.550380 0.022121 -0.445632
v 0.553308 0.022886 -0.448691
v 0.569689 -0.000317 0.114215
v 0.043048 0.332969 0.108961
v 0.027472 0.340208 -0.447564
v 0.043135 0.335951 0.112063
v 0.046070 0.335990 0.109003
v -0.043164 -0.333561 0.122494
v -0.027191 -0.340208 -0.453488
v -0.043250 -0.336547 0.125592
v -0.046186 -0.336582 0.122530
v 0.542972 0.056890 -0.445634
v 0.537033 0.082255 0.111133
v 0.539358 0.085842 0.111139
v 0.539955 0.083027 0.114198
v 0.545297 0.060477 -0.445635
v 0.545959 0.057383 -0.448694
v -0.027110 0.354982 -0.450448
v -0.027110 0.343268 -0.450604
v 0.027387 0.343270 -0.450586
v 0.027387 0.354982 -0.450429
v 0.030494 0.343229 -0.447524
v 0.030494 0.354943 -0.447367
v -0.551525 0.085468 0.113828
v -0.540067 0.083027 0.113824
v -0.554510 0.085955 0.110766
v -0.572726 0.000455 0.110760
v -0.537143 0.082254 0.110761
v -0.564489 0.025327 -0.449070
v -0.545682 0.057383 -0.449071
v -0.557140 0.059824 -0.449068
v -0.567472 0.025822 -0.446007
v -0.560064 0.060589 -0.446004
v -0.542697 0.056890 -0.446009
v -0.556480 0.062917 -0.446008
v -0.545022 0.060475 -0.446012
v -0.027196 0.357965 -0.447345
v 0.027472 0.357965 -0.447326
v 0.043048 0.350725 0.109198
v 0.046070 0.347704 0.109160
v -0.030213 -0.354944 -0.453316
v -0.030213 -0.343230 -0.453455
v -0.046187 -0.348296 0.122669
v -0.043250 -0.348261 0.125731
v -0.043164 -0.351316 0.122705
v 0.043135 0.347665 0.112220
v 0.027390 -0.354980 -0.456357
v 0.027390 -0.343266 -0.456496
v -0.027107 -0.343266 -0.456515
v -0.027107 -0.354980 -0.456376
v -0.539468 0.085842 0.110766
v -0.550926 0.088283 0.110769
v 0.550816 0.088284 0.111150
v 0.556755 0.062917 -0.445624
v 0.554401 0.085955 0.111149
v 0.551412 0.085468 0.114209
v 0.560339 0.060589 -0.445617
v 0.557417 0.059824 -0.448682
v 0.564766 0.025327 -0.448680
v 0.567747 0.025822 -0.445615
v 0.572617 0.000455 0.111156
v 0.027471 -0.357965 -0.453259
v -0.027191 -0.357965 -0.453278
vn 1.0000 -0.0000 0.0003
vn 0.9173 -0.3978 0.0188
vn 0.9174 -0.3977 -0.0135
vn 0.9998 -0.0000 0.0188
vn 0.9175 0.3978 0.0003
vn 0.9173 0.3977 0.0189
vn 0.7307 0.6827 0.0003
vn 0.7306 0.6825 0.0191
vn 0.7305 -0.6826 0.0190
vn 0.7306 -0.6826 -0.0138
vn 0.5257 -0.8507 0.0002
vn 0.3360 -0.9417 0.0193
vn 0.3361 -0.9418 0.0001
vn 0.5256 -0.8505 0.0192
vn 0.1634 -0.9866 0.0001
vn -0.0000 -1.0000 -0.0000
vn -0.1634 -0.9866 -0.0001
vn -0.3360 -0.9417 0.0191
vn -0.3360 -0.9419 -0.0001
vn -0.5256 -0.8505 0.0189
vn -0.5256 -0.8506 -0.0144
vn -0.7306 -0.6826 0.0186
vn -0.7306 -0.6827 -0.0142
vn -0.9174 -0.3979 -0.0003
vn -0.9174 -0.3978 -0.0141
vn -1.0000 -0.0000 -0.0003
vn -0.9999 -0.0000 -0.0141
vn -0.9175 0.3978 -0.0003
vn -0.9174 0.3979 -0.0003
vn -0.7307 0.6827 -0.0003
vn -0.7306 0.6826 -0.0143
vn -0.5257 0.8507 -0.0002
vn -0.5256 0.8506 -0.0145
vn -0.3360 0.9419 -0.0001
vn -0.1634 0.9866 -0.0001
vn -0.1632 0.9866 -0.0001
vn -0.0000 1.0000 -0.0000
vn 0.1633 0.9866 0.0001
vn 0.1635 0.9866 0.0001
vn 0.3360 0.9419 0.0001
vn 0.5255 0.8506 0.0193
vn 0.5257 0.8507 0.0002
vn 0.0050 -0.0327 0.9995
vn -0.0003 -0.0000 1.0000
vn -0.0004 -0.1577 0.9875
vn -0.0059 -0.0089 0.9999
vn -0.0049 -0.0043 1.0000
vn -0.0050 -0.0020 1.0000
vn -0.0051 0.0001 1.0000
vn -0.0049 0.0020 1.0000
vn 0.0045 0.0022 1.0000
vn -0.0049 0.0041 1.0000
vn 0.0046 0.0046 1.0000
vn -0.0052 0.0138 0.9999
vn -0.0058 0.0326 0.9995
vn 0.6990 -0.0013 0.7152
vn 0.6421 -0.2798 0.7138
vn 0.2369 0.6643 0.7089
vn 0.1154 0.6963 0.7084
vn 0.2370 0.6643 0.7089
vn 0.1151 0.6964 0.7083
vn 0.3704 0.5993 0.7097
vn 0.5129 -0.4805 0.7114
vn 0.3699 -0.5995 0.7097
vn 0.2367 -0.6645 0.7088
vn 0.1150 -0.6964 0.7084
vn -0.0002 -0.7060 0.7083
vn -0.1156 -0.6964 0.7082
vn -0.1160 -0.6964 0.7083
vn -0.2375 -0.6643 0.7087
vn -0.6434 -0.2779 0.7133
vn -0.6994 0.0013 0.7147
vn -0.6426 0.2797 0.7133
vn -0.5135 0.4805 0.7109
vn -0.3703 0.5997 0.7094
vn -0.2371 0.6645 0.7087
vn -0.1155 0.6963 0.7084
vn -0.0002 0.7059 0.7083
vn 0.6995 0.0011 -0.7147
vn 0.0038 -0.0015 -1.0000
vn 0.6995 0.0009 -0.7147
vn 0.0037 -0.0031 -1.0000
vn 0.0037 -0.0054 -1.0000
vn 0.3708 -0.5993 -0.7095
vn 0.0040 -0.0102 -0.9999
vn 0.2374 -0.6644 -0.7086
vn 0.1158 -0.6963 -0.7083
vn 0.1157 -0.6964 -0.7083
vn 0.6426 0.2795 -0.7134
vn 0.5136 0.4804 -0.7109
vn 0.5136 0.4803 -0.7110
vn 0.3704 0.5996 -0.7095
vn 0.0045 0.0066 -1.0000
vn 0.2372 0.6645 -0.7087
vn 0.0055 0.0143 -0.9999
vn 0.0003 -0.0000 -1.0000
vn -0.0030 0.0015 -1.0000
vn -0.0029 0.0030 -1.0000
vn -0.0030 0.0054 -1.0000
vn 0.0002 -0.7060 -0.7082
vn -0.1150 -0.6963 -0.7084
vn -0.1151 -0.6963 -0.7084
vn -0.2366 -0.6645 -0.7088
vn -0.2367 -0.6645 -0.7088
vn -0.3699 -0.5996 -0.7097
vn -0.5131 -0.4803 -0.7113
vn -0.6423 -0.2796 -0.7137
vn -0.6990 -0.0011 -0.7151
vn -0.6428 0.2780 -0.7138
vn -0.2369 0.6644 -0.7088
vn -0.2369 0.6643 -0.7089
vn -0.1153 0.6963 -0.7085
vn -0.1150 0.6963 -0.7084
vn 0.0002 0.7059 -0.7083
vn 0.1155 0.6965 -0.7082
vn 0.1154 0.6963 -0.7084
vt 0.819941 0.790752
vt 0.863842 0.888858
vt 0.863842 0.790752
vt 0.819941 0.888858
vt 0.776039 0.790752
vt 0.776039 0.888858
vt 0.735130 0.790752
vt 0.735130 0.888858
vt 0.904751 0.888858
vt 0.904751 0.790752
vt 0.101637 0.790752
vt 0.044786 0.888858
vt 0.044786 0.790752
vt 0.101637 0.888858
vt -0.021417 0.888858
vt -0.021417 0.790752
vt 0.145260 0.790752
vt 0.145260 0.888858
vt 0.978583 0.790752
vt 0.907537 0.888858
vt 0.907537 0.790752
vt 0.978583 0.888858
vt 0.836491 0.888858
vt 0.836491 0.790752
vt 0.770288 0.888858
vt 0.770288 0.790752
vt 0.713437 0.888858
vt 0.713437 0.790752
vt 0.669814 0.888858
vt 0.669814 0.790752
vt 0.776040 0.888858
vt 0.776040 0.790752
vt 0.770287 0.888858
vt 0.770287 0.790752
vt 0.978582 0.888858
vt 0.978582 0.790752
vt 1.044786 0.888858
vt 1.044786 0.790752
vt 0.981807 -0.021748
vt 0.981807 -0.163178
vt 0.987559 -0.092463
vt 0.964951 -0.229031
vt 0.964951 0.044105
vt 0.938178 -0.285495
vt 0.938178 0.100569
vt 0.903387 -0.328698
vt 0.903387 0.143771
vt 0.863050 0.170811
vt 0.863050 -0.355737
vt 0.819941 -0.364921
vt 0.819941 0.179995
vt 0.776832 -0.355737
vt 0.776831 0.170811
vt 0.736494 -0.328698
vt 0.736494 0.143771
vt 0.701703 -0.285495
vt 0.701703 0.100569
vt 0.674931 -0.229031
vt 0.674930 0.044105
vt 0.658075 -0.163178
vt 0.658075 -0.021748
vt 0.652322 -0.092463
vt 0.863842 0.172683
vt 0.819941 0.182036
vt 0.673044 0.044786
vt 0.656099 -0.021418
vt 0.700000 0.101637
vt 0.735130 0.145260
vt 0.776039 0.172683
vt 0.904751 0.145260
vt 0.939881 0.101637
vt 0.966837 0.044786
vt 0.983782 0.978583
vt 0.964951 1.044105
vt 0.981807 0.978252
vt 0.966837 1.044786
vt 0.989562 0.907537
vt 0.987559 0.907537
vt 0.983782 0.836491
vt 0.981807 0.836822
vt 0.966837 0.770288
vt 0.964951 0.770969
vt 0.939881 0.713437
vt 0.938178 0.714505
vt 0.904751 0.669814
vt 0.903387 0.671302
vt 0.863842 0.642391
vt 0.863050 0.644263
vt 0.819941 0.633038
vt 0.819941 0.635079
vt 0.776040 0.642391
vt 0.776832 0.644263
vt 0.735130 0.669814
vt 0.736494 0.671302
vt 0.700001 0.713437
vt 0.701703 0.714505
vt 0.673045 0.770287
vt 0.674931 0.770969
vt 0.656099 0.836491
vt 0.658075 0.836822
vt 0.650320 0.907537
vt 0.652322 0.907537
vt 0.656099 0.978582
vt 0.658075 0.978252
vt 0.863254 0.171292
vt 0.819941 0.180520
vt 0.903738 0.144154
vt 0.938616 0.100844
vt 0.965436 0.044281
vt 0.982315 -0.021663
vt 0.983782 -0.021417
vt 0.776628 0.171292
vt 0.736143 0.144154
vt 0.701265 0.100844
vt 0.674445 0.044280
vt 0.965436 -0.229207
vt 0.982315 -0.163263
vt 0.988074 -0.092463
vt 0.938616 -0.285770
vt 0.903738 -0.329080
vt 0.863254 -0.356218
vt 0.819941 -0.365446
vt 0.776628 -0.356218
vt 0.736143 -0.329081
vt 0.701265 -0.285770
vt 0.674445 -0.229207
vt 0.657567 -0.163263
vt 0.657567 -0.021663
vt 0.651807 -0.092463
vt 0.988074 0.907537
vt 0.982315 0.978337
vt 0.982315 0.836737
vt 0.965436 0.770793
vt 0.938616 0.714230
vt 0.903738 0.670920
vt 0.863254 0.643782
vt 0.819941 0.634554
vt 0.776628 0.643782
vt 0.736143 0.670919
vt 0.701265 0.714230
vt 0.674445 0.770793
vt 0.657567 0.836737
vt 0.651807 0.907537
vt 0.657567 0.978337
vt 0.674445 1.044280
vt 0.673044 1.044786
s 1
usemtl M_SideTable_215_0
f 1/1/1 3/2/2 2/3/3
f 1/1/1 4/4/4 3/2/2
f 5/5/5 4/4/4 1/1/1
f 5/5/5 6/6/6 4/4/4
f 7/7/7 6/6/6 5/5/5
f 7/7/7 8/8/8 6/6/6
f 2/3/3 3/2/2 9/9/9
f 2/3/3 9/9/9 10/10/10
f 11/11/11 13/12/12 12/13/13
f 11/11/11 14/14/14 13/12/12
f 12/13/13 13/12/12 15/15/15
f 12/13/13 15/15/15 16/16/15
f 10/17/10 14/14/14 11/11/11
f 10/17/10 9/18/9 14/14/14
f 16/19/15 18/20/16 17/21/16
f 16/19/15 15/22/15 18/20/16
f 17/21/16 18/20/16 19/23/17
f 17/21/16 19/23/17 20/24/17
f 20/24/17 19/23/17 21/25/18
f 20/24/17 21/25/18 22/26/19
f 22/26/19 21/25/18 23/27/20
f 22/26/19 23/27/20 24/28/21
f 24/28/21 23/27/20 25/29/22
f 24/28/21 25/29/22 26/30/23
f 26/10/23 28/2/24 27/3/25
f 26/10/23 25/9/22 28/2/24
f 27/3/25 28/2/24 29/4/26
f 27/3/25 29/4/26 30/1/27
f 30/1/27 29/4/26 31/31/28
f 30/1/27 31/31/28 32/32/29
f 32/32/29 31/31/28 33/8/30
f 32/32/29 33/8/30 34/7/31
f 34/30/31 36/27/32 35/28/33
f 34/30/31 33/29/30 36/27/32
f 35/28/33 36/27/32 37/33/34
f 35/28/33 37/33/34 38/34/34
f 38/34/34 37/33/34 39/23/35
f 38/34/34 39/23/35 40/24/36
f 40/24/36 39/23/35 41/20/37
f 40/24/36 41/20/37 42/21/37
f 42/21/37 41/20/37 43/35/38
f 42/21/37 43/35/38 44/36/39
f 44/36/39 43/35/38 45/37/40
f 44/36/39 45/37/40 46/38/40
f 46/13/40 48/14/41 47/11/42
f 46/13/40 45/12/40 48/14/41
f 47/11/42 48/14/41 8/18/8
f 47/11/42 8/18/8 7/17/7
f 49/39/43 51/40/44 50/41/45
f 51/40/44 49/39/43 52/42/44
f 52/42/44 49/39/43 53/43/44
f 52/42/44 53/43/44 54/44/46
f 54/44/46 53/43/44 55/45/44
f 54/44/46 55/45/44 56/46/47
f 56/46/47 55/45/44 57/47/44
f 56/46/47 57/47/44 58/48/44
f 56/46/47 58/48/44 59/49/48
f 59/49/48 58/48/44 60/50/49
f 60/50/49 58/48/44 61/51/44
f 60/50/49 61/51/44 62/52/50
f 62/52/50 61/51/44 63/53/51
f 62/52/50 63/53/51 64/54/52
f 64/54/52 63/53/51 65/55/53
f 64/54/52 65/55/53 66/56/44
f 66/56/44 65/55/53 67/57/44
f 66/56/44 67/57/44 68/58/54
f 68/58/54 67/57/44 69/59/44
f 68/58/54 69/59/44 70/60/55
f 70/60/55 69/59/44 71/61/44
f 70/60/55 71/61/44 72/62/44
f 3/63/2 61/51/56 58/48/57
f 3/63/2 4/64/4 61/51/56
f 4/64/4 63/53/51 61/51/56
f 45/65/58 71/61/59 69/59/60
f 45/65/58 43/66/61 71/61/59
f 48/67/41 69/59/60 67/57/62
f 48/67/41 45/65/58 69/59/60
f 8/68/8 67/57/62 65/55/53
f 8/68/8 48/67/41 67/57/62
f 6/69/6 65/55/53 63/53/51
f 6/69/6 8/68/8 65/55/53
f 4/64/4 6/69/6 63/53/51
f 9/70/9 3/63/2 58/48/57
f 9/70/9 58/48/57 57/47/63
f 14/71/14 9/70/9 57/47/63
f 14/71/14 57/47/63 55/45/64
f 13/72/12 14/71/14 55/45/64
f 13/72/12 55/45/64 53/43/65
f 15/73/66 53/74/65 49/75/43
f 15/73/66 13/76/12 53/74/65
f 18/77/67 15/73/66 49/75/43
f 18/77/67 49/75/43 50/78/45
f 19/79/68 18/77/67 50/78/45
f 19/79/68 50/78/45 51/80/69
f 21/81/18 19/79/68 51/80/69
f 21/81/18 51/80/69 52/82/70
f 23/83/20 21/81/18 52/82/70
f 23/83/20 52/82/70 54/84/46
f 25/85/22 23/83/20 54/84/46
f 25/85/22 54/84/46 56/86/47
f 28/87/71 25/85/22 56/86/47
f 28/87/71 56/86/47 59/88/48
f 29/89/72 28/87/71 59/88/48
f 29/89/72 59/88/48 60/90/49
f 31/91/73 29/89/72 60/90/49
f 31/91/73 60/90/49 62/92/50
f 33/93/74 31/91/73 62/92/50
f 33/93/74 62/92/50 64/94/52
f 36/95/75 33/93/74 64/94/52
f 36/95/75 64/94/52 66/96/75
f 37/97/76 36/95/75 66/96/75
f 37/97/76 66/96/75 68/98/54
f 39/99/77 37/97/76 68/98/54
f 39/99/77 68/98/54 70/100/55
f 41/101/78 39/99/77 70/100/55
f 41/101/78 70/100/55 72/102/78
f 43/103/61 41/101/78 72/102/78
f 43/103/61 72/102/78 71/104/59
f 1/64/79 74/105/80 73/106/81
f 1/64/79 2/63/3 74/105/80
f 2/63/3 75/107/82 74/105/80
f 2/63/3 10/70/10 75/107/82
f 10/70/10 76/108/83 75/107/82
f 10/70/10 11/71/84 76/108/83
f 11/71/84 77/109/85 76/108/83
f 11/71/84 12/72/86 77/109/85
f 12/72/86 78/110/87 77/109/85
f 12/72/86 16/111/88 78/110/87
f 5/69/89 1/64/79 73/106/81
f 5/69/89 73/106/81 79/112/89
f 7/68/90 5/69/89 79/112/89
f 7/68/90 79/112/89 80/113/91
f 47/67/92 7/68/90 80/113/91
f 47/67/92 80/113/91 81/114/93
f 46/65/94 47/67/92 81/114/93
f 46/65/94 81/114/93 82/115/95
f 78/110/96 83/116/96 77/109/85
f 78/110/96 84/117/96 83/116/96
f 84/117/96 78/110/96 85/118/96
f 77/109/85 83/116/96 86/119/96
f 77/109/85 86/119/96 76/108/83
f 76/108/83 86/119/96 87/120/96
f 76/108/83 87/120/96 75/107/82
f 75/107/82 87/120/96 88/121/96
f 75/107/82 88/121/96 74/105/80
f 74/105/80 88/121/96 89/122/96
f 74/105/80 89/122/96 73/106/96
f 73/106/96 89/122/96 90/123/97
f 73/106/96 90/123/97 79/112/96
f 79/112/96 90/123/97 91/124/98
f 79/112/96 91/124/98 80/113/96
f 80/113/96 91/124/98 92/125/99
f 80/113/96 92/125/99 81/114/93
f 81/114/93 92/125/99 93/126/96
f 81/114/93 93/126/96 82/115/95
f 82/115/95 93/126/96 94/127/96
f 82/115/95 94/127/96 95/128/96
f 95/128/96 94/127/96 96/129/96
f 16/73/88 85/130/100 78/131/87
f 16/73/88 17/77/100 85/130/100
f 17/77/100 84/132/101 85/130/100
f 17/77/100 20/79/102 84/132/101
f 20/79/102 83/133/103 84/132/101
f 20/79/102 22/81/104 83/133/103
f 22/81/104 86/134/105 83/133/103
f 22/81/104 24/83/21 86/134/105
f 24/83/21 87/135/106 86/134/105
f 24/83/21 26/85/23 87/135/106
f 26/85/23 88/136/107 87/135/106
f 26/85/23 27/87/25 88/136/107
f 27/87/25 89/137/108 88/136/107
f 27/87/25 30/89/27 89/137/108
f 30/89/27 90/138/97 89/137/108
f 30/89/27 32/91/109 90/138/97
f 32/91/109 91/139/98 90/138/97
f 32/91/109 34/93/31 91/139/98
f 34/93/31 92/140/99 91/139/98
f 34/93/31 35/95/33 92/140/99
f 35/95/33 93/141/110 92/140/99
f 35/95/33 38/97/111 93/141/110
f 38/97/111 94/142/112 93/141/110
f 38/97/111 40/99/113 94/142/112
f 40/99/113 96/143/114 94/142/112
f 40/99/113 42/101/114 96/143/114
f 42/101/114 95/144/115 96/143/114
f 42/101/114 44/103/116 95/144/115
f 44/103/116 82/145/95 95/144/115
f 44/103/116 46/146/94 82/145/95
