# Blender 4.1.0
# www.blender.org
mtllib AlarmClockButton_27_AlarmClockButton_27_1_GeomSubset_0.mtl
o AlarmClockButton_27_AlarmClockButton_27_1_GeomSubset_0
v -0.000500 -0.000501 -0.313355
v 0.000500 -0.000501 -0.313355
v -0.000500 0.000501 -0.313355
v 0.000500 0.000501 -0.313355
v -0.000500 -0.000501 -0.313355
v 0.000500 -0.000501 -0.313355
v -0.000500 0.000501 -0.313355
v 0.000500 0.000501 -0.313355
v -0.000500 -0.000501 -0.313355
v 0.000500 -0.000501 -0.313355
v -0.000500 0.000501 -0.313355
v 0.000500 0.000501 -0.313355
v -0.000500 -0.000501 -0.313355
v 0.000500 -0.000501 -0.313355
v -0.000500 0.000501 -0.313355
v 0.000500 0.000501 -0.313355
v -0.000500 -0.000501 -0.313355
v 0.000500 -0.000501 -0.313355
v -0.000500 0.000501 -0.313355
v 0.000500 0.000501 -0.313355
v -0.058006 -0.015991 0.053420
v -0.055106 -0.018628 0.053420
v -0.055106 -0.015991 0.055162
v 0.055106 -0.015991 0.055162
v 0.055106 -0.018628 0.053420
v 0.058006 -0.015991 0.053420
v -0.058006 0.015992 0.053420
v -0.055106 0.015992 0.055162
v -0.055106 0.018628 0.053420
v 0.055106 0.018628 0.053420
v 0.055106 0.015992 0.055162
v 0.058006 0.015992 0.053420
v -0.055106 -0.018628 0.037503
v -0.058006 -0.015991 0.037503
v 0.058006 -0.015991 0.037503
v 0.055106 -0.018628 0.037503
v -0.058006 0.015992 0.037503
v -0.055106 0.018628 0.037503
v 0.055106 0.018628 0.037503
v 0.058006 0.015992 0.037503
v -0.036737 0.018628 0.037503
v -0.036737 0.018628 0.058413
v -0.036737 0.015992 0.060155
v -0.036737 -0.015991 0.060155
v -0.036737 -0.018628 0.058413
v -0.036737 -0.018628 0.037503
v -0.018369 0.018628 0.037503
v -0.018369 0.018628 0.061468
v -0.018369 0.015992 0.063211
v -0.018369 -0.015991 0.063211
v -0.018369 -0.018628 0.061468
v -0.018369 -0.018628 0.037503
v 0.000000 0.018628 0.037503
v 0.000000 0.018628 0.062616
v 0.000000 0.015992 0.064358
v 0.000000 -0.015991 0.064358
v 0.000000 -0.018628 0.062616
v 0.000000 -0.018628 0.037503
v 0.018369 0.018628 0.037503
v 0.018369 0.018628 0.061468
v 0.018369 0.015992 0.063211
v 0.018369 -0.015991 0.063211
v 0.018369 -0.018628 0.061468
v 0.018369 -0.018628 0.037503
v 0.036737 0.018628 0.037503
v 0.036737 0.018628 0.058413
v 0.036737 0.015992 0.060155
v 0.036737 -0.015991 0.060155
v 0.036737 -0.018628 0.058413
v 0.036737 -0.018628 0.037503
vn -0.0000 -0.0000 1.0000
vt -20.436859 -6.067932
vt -19.440842 -6.067932
vt -19.440842 -5.071916
vt -20.436859 -5.071916
s 1
usemtl M_AlarmClockButton_27_0
f 1/1/1 2/2/1 4/3/1 3/4/1
