# Blender 4.1.0
# www.blender.org
mtllib FridgeDrawer1_11_FridgeDrawer1B5_1_GeomSubset_4.mtl
o FridgeDrawer1_11_FridgeDrawer1B5_1_GeomSubset_4
v -0.002630 0.042570 -0.984512
v -0.002622 0.042570 -0.984512
v -0.002630 0.042579 -0.984512
v -0.002622 0.042579 -0.984512
v -0.002630 0.042570 -0.984512
v -0.002622 0.042570 -0.984512
v -0.002630 0.042579 -0.984512
v -0.002622 0.042579 -0.984512
v -0.002630 0.042570 -0.984512
v -0.002622 0.042570 -0.984512
v -0.002630 0.042579 -0.984512
v -0.002622 0.042579 -0.984512
v -0.002630 0.042570 -0.984512
v -0.002622 0.042570 -0.984512
v -0.002630 0.042579 -0.984512
v -0.002622 0.042579 -0.984512
v -0.002630 0.042570 -0.984512
v -0.002622 0.042570 -0.984512
v -0.002630 0.042579 -0.984512
v -0.002622 0.042579 -0.984512
v -0.002630 0.042570 -0.984512
v -0.002622 0.042570 -0.984512
v -0.002630 0.042579 -0.984512
v -0.002622 0.042579 -0.984512
v -0.002630 0.042570 -0.984512
v -0.002622 0.042570 -0.984512
v -0.002630 0.042579 -0.984512
v -0.002622 0.042579 -0.984512
v -0.296638 0.214333 -0.648088
v -0.035202 0.214333 -0.648088
v -0.296638 0.142836 -0.761408
v -0.296638 0.137748 -0.764260
v -0.035202 0.137749 -0.764260
v -0.035202 0.142837 -0.761408
v -0.296638 0.214333 -0.640315
v -0.296638 0.142836 -0.640315
v -0.296638 0.137748 -0.640315
v -0.296637 -0.214654 -0.640315
v -0.035202 0.142837 -0.640315
v -0.035202 0.214333 -0.640315
v -0.035202 0.137749 -0.640315
v -0.035201 -0.214653 -0.640315
v -0.035201 -0.176775 -0.764260
v -0.035201 -0.197790 -0.742486
v -0.296637 -0.197790 -0.742486
v -0.296637 -0.176776 -0.764260
v -0.296637 -0.196191 -0.750818
v -0.035201 -0.196190 -0.750818
v -0.296637 -0.191635 -0.757882
v -0.035201 -0.191634 -0.757882
v -0.296637 -0.184818 -0.762602
v -0.035201 -0.184817 -0.762602
v -0.041553 0.138068 -0.756038
v -0.290287 0.138067 -0.756038
v -0.039157 -0.188891 -0.740781
v -0.041455 -0.207601 -0.639065
v -0.290382 -0.207602 -0.639065
v -0.292681 -0.188891 -0.740781
v -0.041553 0.136020 -0.757186
v -0.290287 0.136020 -0.757186
v -0.287793 0.142836 -0.640315
v -0.290384 0.207178 -0.640315
v -0.287793 0.137748 -0.640315
v -0.039218 -0.187862 -0.747244
v -0.039218 -0.185260 -0.751278
v -0.039218 -0.181367 -0.753973
v -0.039172 -0.175889 -0.754937
v -0.044047 0.137749 -0.640315
v -0.041456 0.207179 -0.640315
v -0.044047 0.142837 -0.640315
v -0.292666 -0.175889 -0.754937
v -0.292619 -0.181368 -0.753973
v -0.292619 -0.185261 -0.751278
v -0.292619 -0.187862 -0.747244
v -0.288299 0.137397 -0.664029
v -0.290947 -0.203010 -0.664029
v -0.043540 0.137398 -0.664029
v -0.043536 0.141860 -0.664029
v -0.039673 0.194360 -0.664029
v -0.040891 -0.203009 -0.664029
v -0.288304 0.141859 -0.664029
v -0.292167 0.194359 -0.664029
v -0.296638 0.204275 -0.664029
v -0.035202 0.204276 -0.664029
v -0.035201 -0.210739 -0.664029
v -0.296637 -0.210740 -0.664029
v -0.296638 0.142836 -0.664029
v -0.296638 0.137748 -0.664029
v -0.035202 0.137749 -0.664029
v -0.035202 0.142837 -0.664029
v -0.296637 -0.228923 -0.640315
v -0.035201 -0.228922 -0.640315
v -0.035201 -0.225008 -0.664029
v -0.296637 -0.225009 -0.664029
vn -0.0000 -0.0000 1.0000
vn -0.0000 0.3632 0.9317
vn -0.0000 0.0101 0.9999
vn 0.0007 0.0101 0.9999
vn -0.0000 0.7193 0.6947
vn -0.0000 0.9453 0.3263
vn -0.0000 0.9838 0.1791
vn -0.0000 0.9838 0.1790
vn -0.0000 0.0034 1.0000
vn -0.0000 -0.8476 0.5307
vn -0.0000 0.8331 -0.5532
vn -0.0000 0.0091 -1.0000
vn 0.0001 0.0091 -1.0000
vn -0.0000 -0.0052 -1.0000
vn -0.0000 -0.9862 -0.1653
vn -0.0000 -0.9286 -0.3712
vn -0.0000 -0.9285 -0.3712
vn -0.0000 -0.7197 -0.6943
vn -0.0000 -0.3944 -0.9189
vn -0.0000 -0.3943 -0.9190
vn 0.9997 -0.0079 -0.0216
vn 0.9997 -0.0079 -0.0219
vn 0.9997 -0.0081 -0.0213
vn 0.9997 -0.0079 -0.0213
vn -0.9997 -0.0078 -0.0216
vn -0.9975 0.0608 -0.0369
vn -0.9985 0.0500 -0.0235
vn -0.9997 -0.0080 -0.0213
vn -0.9969 0.0635 -0.0458
vn -0.9997 -0.0081 -0.0213
vn -0.9997 -0.0078 -0.0221
vn 0.9985 0.0500 -0.0235
vn 0.9975 0.0608 -0.0369
vn 0.9969 0.0635 -0.0458
vn -0.0000 0.9835 0.1809
vn -0.0000 -0.8584 0.5129
vn -0.0000 0.8457 -0.5336
vn -0.0000 -0.9867 -0.1628
vn -1.0000 -0.0000 -0.0000
vn 1.0000 -0.0000 -0.0000
vt -68.916702 -112.289925
vt -68.916687 -112.289925
vt -68.916687 -112.289909
vt -68.916702 -112.289909
vt -68.922577 -112.289925
vt -68.922562 -112.289925
vt -68.922562 -112.289909
vt -68.922577 -112.289909
vt -68.928452 -112.289925
vt -68.928436 -112.289925
vt -68.928436 -112.289909
vt -68.928452 -112.289909
vt -70.837837 -0.438784
vt -70.837700 -0.423362
vt -71.551277 -0.423362
vt -71.551147 -0.438784
vt -70.837837 -0.449743
vt -71.551147 -0.449743
vt -70.837837 -0.457065
vt -71.551147 -0.457065
vt -71.437683 -0.333447
vt -71.420532 -0.333284
vt -71.420532 0.339168
vt -71.437683 0.339332
vt -71.544579 0.454642
vt -70.844406 0.454642
vt -70.844406 0.460405
vt -71.544579 0.460405
vt -71.181480 -0.808759
vt -71.181480 -0.794400
vt -71.919327 -0.794400
vt -71.919327 -0.808759
vt -71.181480 0.093270
vt -71.919327 0.093270
vt -71.509827 -0.338489
vt -71.509827 0.354443
vt -71.531914 0.354443
vt -71.531914 -0.338489
vt -71.181480 0.148064
vt -71.919327 0.148064
vt -71.919327 0.135208
vt -71.181480 0.135208
vt -71.919327 0.115966
vt -71.181480 0.115966
vt -71.195808 -0.792136
vt -71.195808 0.104068
vt -71.397881 0.066898
vt -71.414894 0.064189
vt -71.425514 0.057340
vt -71.432610 0.047090
vt -71.435150 0.032667
vt -71.441071 -0.788509
vt -71.070999 -0.045896
vt -71.070999 -0.034150
vt -71.313232 -0.044133
vt -71.316254 -0.049523
vt -71.070999 0.104070
vt -71.310333 -0.870702
vt -71.307800 -0.885125
vt -71.300705 -0.895375
vt -71.290085 -0.902224
vt -71.273064 -0.904932
vt -71.070999 -0.942102
vt -71.438049 -0.793899
vt -71.195808 -0.803881
vt -71.195808 -0.942101
vt -71.641365 0.334729
vt -71.641365 -0.328845
vt -70.839111 0.618864
vt -71.549866 0.618864
vt -71.181480 -0.982156
vt -71.919327 -0.982156
vt -71.301880 0.354443
vt -71.301880 -0.338489
vt -71.789520 -0.023314
vt -71.789520 0.138402
vt -72.045837 -0.023314
vt -71.789520 -0.036705
vt -72.053345 -0.036705
vt -71.655205 -0.778869
vt -71.655205 0.138403
vt -71.861717 0.104318
vt -71.883652 0.100107
vt -71.902245 0.088116
vt -71.914665 0.070172
vt -71.919029 0.049004
vt -71.919029 -0.778869
vt -71.655205 -0.953977
vt -71.655205 -0.792261
vt -71.911522 -0.792261
vt -72.053345 -0.864578
vt -72.048981 -0.885746
vt -72.036560 -0.903691
vt -72.017960 -0.915681
vt -71.996033 -0.919892
vt -71.789520 -0.953977
s 1
usemtl M_FridgeDrawer1B5_4
f 17/1/1 18/2/1 20/3/1 19/4/1
f 21/5/1 22/6/1 24/7/1 23/8/1
f 25/9/1 26/10/1 28/11/1 27/12/1
f 66/13/2 67/14/3 71/15/4 72/16/2
f 65/17/5 66/13/2 72/16/2 73/18/5
f 64/19/6 65/17/5 73/18/5 74/20/6
f 55/21/7 64/22/6 74/23/6 58/24/8
f 60/25/9 71/15/4 67/14/3 59/26/9
f 53/27/10 54/28/10 60/25/9 59/26/9
f 34/29/11 33/30/12 32/31/13 31/32/11
f 32/31/13 33/30/12 43/33/14 46/34/14
f 44/35/15 45/36/15 47/37/16 48/38/17
f 48/39/17 47/40/16 49/41/18 50/42/18
f 50/42/18 49/41/18 51/43/19 52/44/20
f 52/44/20 51/43/19 46/34/14 43/33/14
f 75/45/21 76/46/22 58/47/23 74/48/23 73/49/23 72/50/23 71/51/23 60/52/24
f 77/53/25 78/54/26 53/55/27 59/56/28
f 78/54/26 79/57/29 53/55/27
f 77/53/25 59/56/28 67/58/30 66/59/30 65/60/30 64/61/30 55/62/30 80/63/31
f 75/45/21 60/52/24 54/64/32 81/65/33
f 81/65/33 54/64/32 82/66/34
f 55/21/7 58/24/8 76/67/35 80/68/35
f 79/69/36 82/70/36 54/28/10 53/27/10
f 84/71/37 34/29/11 31/32/11 83/72/37
f 86/73/38 45/36/15 44/35/15 85/74/38
f 87/75/39 83/76/39 31/77/39
f 88/78/39 87/75/39 31/77/39 32/79/39
f 89/80/40 85/81/40 44/82/40 48/83/40 50/84/40 52/85/40 43/86/40 33/87/40
f 84/88/40 90/89/40 34/90/40
f 89/80/40 33/87/40 34/90/40 90/89/40
f 88/78/39 32/79/39 46/91/39 51/92/39 49/93/39 47/94/39 45/95/39 86/96/39
