# Blender 4.1.1
# www.blender.org
mtllib MeshPsSinkbasin_19_1.mtl
o PsSinkbasin_19
v -0.033961 0.019225 0.351334
v -0.026247 0.030774 0.351334
v -0.018999 0.023527 0.359293
v -0.024494 0.015301 0.359294
v -0.014700 0.038487 0.351334
v -0.010776 0.029020 0.359294
v -0.001074 0.041197 0.351334
v -0.001074 0.030949 0.359295
v 0.012549 0.038488 0.351334
v 0.008626 0.029017 0.359295
v 0.024100 0.030771 0.351334
v 0.016849 0.023525 0.359294
v 0.031812 0.019225 0.351334
v 0.022346 0.015301 0.359294
v 0.034523 0.005598 0.351334
v 0.024275 0.005599 0.359295
v 0.031812 -0.008026 0.351334
v 0.022345 -0.004101 0.359294
v 0.024098 -0.019575 0.351334
v 0.016848 -0.012326 0.359294
v 0.012548 -0.027289 0.351334
v 0.008626 -0.017819 0.359295
v -0.001074 -0.029999 0.351334
v -0.001075 -0.019750 0.359295
v -0.014701 -0.027287 0.351334
v -0.010775 -0.017818 0.359295
v -0.026250 -0.019572 0.351334
v -0.018997 -0.012326 0.359294
v -0.033962 -0.008025 0.351334
v -0.024495 -0.004100 0.359294
v -0.036672 0.005599 0.351334
v -0.026424 0.005599 0.359294
v -0.013417 0.017944 0.363287
v -0.017204 0.012279 0.363287
v -0.007755 0.021730 0.363287
v -0.001074 0.023058 0.363287
v 0.005607 0.021730 0.363286
v 0.011271 0.017944 0.363287
v 0.015054 0.012280 0.363287
v 0.016384 0.005599 0.363287
v 0.015054 -0.001081 0.363287
v 0.011270 -0.006744 0.363287
v 0.005606 -0.010529 0.363287
v -0.001074 -0.011858 0.363287
v -0.007757 -0.010530 0.363287
v -0.013418 -0.006746 0.363286
v -0.017203 -0.001082 0.363287
v -0.018533 0.005598 0.363287
v -0.007361 0.011886 0.365747
v -0.009299 0.009006 0.365744
v -0.004481 0.013822 0.365744
v -0.001075 0.014489 0.365747
v 0.002332 0.013823 0.365744
v 0.005211 0.011886 0.365747
v 0.007149 0.009006 0.365744
v 0.007817 0.005599 0.365747
v 0.007149 0.002193 0.365744
v 0.005211 -0.000687 0.365747
v 0.002336 -0.002622 0.365744
v -0.001074 -0.003290 0.365747
v -0.004483 -0.002623 0.365744
v -0.007360 -0.000687 0.365747
v -0.009299 0.002192 0.365744
v -0.009967 0.005600 0.365747
v -0.001075 0.005599 0.366573
v -0.026485 0.016125 0.351334
v -0.020524 0.025047 0.351334
v -0.011601 0.031010 0.351334
v -0.001074 0.033103 0.351334
v 0.009451 0.031010 0.351334
v 0.018375 0.025047 0.351334
v 0.024336 0.016125 0.351334
v 0.026428 0.005599 0.351334
v 0.024336 -0.004925 0.351334
v 0.018374 -0.013849 0.351334
v 0.009454 -0.019810 0.351334
v -0.001074 -0.021904 0.351334
v -0.011601 -0.019810 0.351334
v -0.020524 -0.013848 0.351334
v -0.026485 -0.004925 0.351334
v -0.028577 0.005599 0.351334
v -0.026485 0.016125 0.348225
v -0.020902 0.024309 0.349725
v -0.010443 0.031240 0.348225
v -0.001072 0.033104 0.348225
v 0.008659 0.031082 0.349725
v 0.019057 0.024026 0.348225
v 0.024336 0.016125 0.348225
v 0.026428 0.005599 0.348225
v 0.024336 -0.004927 0.348225
v 0.018753 -0.013109 0.349725
v 0.008294 -0.020042 0.348225
v -0.001074 -0.021904 0.348225
v -0.010808 -0.019883 0.349725
v -0.021206 -0.012827 0.348225
v -0.026485 -0.004926 0.348225
v -0.028577 0.005599 0.348225
v -0.008082 -0.017258 0.348225
v -0.001073 -0.019379 0.348225
v -0.001074 -0.019379 0.313870
v -0.008082 -0.017258 0.313870
v -0.010737 -0.020388 0.313870
v -0.021441 -0.013236 0.313870
v -0.024109 -0.004002 0.348225
v -0.019515 -0.009884 0.348225
v -0.019515 -0.009883 0.313870
v -0.024109 -0.004002 0.313870
v -0.026015 0.005599 0.348225
v -0.026015 0.005599 0.313871
v -0.024109 0.015200 0.348225
v -0.024110 0.015201 0.313870
v -0.019514 0.021081 0.348225
v -0.019515 0.021082 0.313870
v -0.021441 0.024434 0.313870
v -0.010737 0.031587 0.313870
v -0.001073 0.030578 0.348225
v -0.008081 0.028457 0.348225
v -0.008082 0.028457 0.313870
v -0.001074 0.030578 0.313870
v 0.005932 0.028457 0.348225
v 0.005932 0.028457 0.313870
v 0.008589 0.031587 0.313870
v 0.019291 0.024433 0.313870
v 0.021961 0.015200 0.348225
v 0.017366 0.021082 0.348225
v 0.017366 0.021081 0.313870
v 0.021961 0.015200 0.313870
v 0.023865 0.005599 0.348225
v 0.023865 0.005599 0.313870
v 0.021961 -0.004002 0.348225
v 0.021961 -0.004002 0.313870
v 0.017366 -0.009884 0.348225
v 0.017366 -0.009884 0.313870
v 0.019292 -0.013235 0.313870
v 0.008589 -0.020387 0.313870
v 0.005932 -0.017258 0.348225
v 0.005932 -0.017258 0.313870
v -0.001074 -0.109182 0.347869
v -0.001074 -0.158672 0.347869
v -0.112887 -0.158672 0.347869
v -0.162377 -0.109182 0.347869
v -0.162377 0.007491 0.347869
v -0.086076 0.016464 0.347869
v -0.083083 -0.025006 0.347869
v -0.030232 -0.010678 0.347869
v -0.017909 -0.023001 0.347869
v -0.001073 -0.027512 0.347869
v 0.110488 -0.158672 0.347869
v 0.159979 -0.109182 0.347869
v -0.034743 0.006157 0.347869
v -0.162377 0.163925 0.347869
v -0.083083 0.062766 0.347869
v -0.030233 0.022990 0.347869
v 0.015759 -0.023002 0.347869
v -0.017908 0.035314 0.347869
v 0.028082 -0.010678 0.347869
v 0.080933 -0.025006 0.347869
v 0.032593 0.006156 0.347869
v 0.083926 0.016464 0.347869
v -0.001074 0.039824 0.347869
v -0.001074 0.163925 0.347869
v 0.159979 0.007491 0.347869
v 0.028083 0.022990 0.347869
v 0.080933 0.062766 0.347869
v 0.015760 0.035313 0.347869
v 0.159979 0.163925 0.347869
v -0.021266 -0.005502 0.338714
v -0.012732 -0.014035 0.338714
v -0.001078 -0.017160 0.338714
v -0.024390 0.006157 0.338714
v -0.021267 0.017814 0.338714
v 0.010583 -0.014037 0.338714
v -0.012733 0.026347 0.338714
v 0.019117 -0.005501 0.338714
v -0.001077 0.029472 0.338714
v 0.022240 0.006155 0.338714
v 0.019117 0.017813 0.338714
v 0.010584 0.026347 0.338714
v -0.001074 0.006156 0.338714
vn 0.5667 -0.2348 -0.7897
vn 0.4337 -0.4337 -0.7898
vn 0.3770 -0.3771 -0.8460
vn 0.4927 -0.2041 -0.8459
vn 0.2347 -0.5667 -0.7898
vn 0.2041 -0.4927 -0.8459
vn -0.0000 -0.6134 -0.7897
vn -0.0000 -0.5333 -0.8459
vn -0.2347 -0.5667 -0.7898
vn -0.2041 -0.4927 -0.8460
vn -0.4337 -0.4337 -0.7898
vn -0.3770 -0.3771 -0.8460
vn -0.5667 -0.2348 -0.7898
vn -0.4927 -0.2041 -0.8459
vn -0.6135 -0.0000 -0.7897
vn -0.5333 -0.0000 -0.8459
vn -0.5667 0.2348 -0.7898
vn -0.4927 0.2041 -0.8459
vn -0.4337 0.4337 -0.7898
vn -0.3770 0.3771 -0.8460
vn -0.2347 0.5667 -0.7898
vn -0.2041 0.4926 -0.8460
vn -0.0000 0.6134 -0.7897
vn -0.0000 0.5333 -0.8459
vn 0.2348 0.5667 -0.7898
vn 0.2041 0.4927 -0.8460
vn 0.4337 0.4337 -0.7898
vn 0.3770 0.3771 -0.8460
vn 0.5667 0.2347 -0.7898
vn 0.4927 0.2041 -0.8459
vn 0.6135 -0.0000 -0.7897
vn 0.5333 -0.0000 -0.8459
vn 0.2528 -0.2529 -0.9339
vn 0.3304 -0.1369 -0.9339
vn 0.1368 -0.3304 -0.9339
vn -0.0000 -0.3575 -0.9339
vn -0.1369 -0.3304 -0.9339
vn -0.2529 -0.2528 -0.9339
vn -0.3304 -0.1369 -0.9339
vn -0.3576 -0.0000 -0.9339
vn -0.3304 0.1369 -0.9339
vn -0.2529 0.2528 -0.9339
vn -0.1369 0.3303 -0.9339
vn -0.0000 0.3575 -0.9339
vn 0.1369 0.3303 -0.9339
vn 0.2529 0.2529 -0.9339
vn 0.3303 0.1369 -0.9339
vn 0.3576 -0.0000 -0.9339
vn 0.1250 -0.1250 -0.9842
vn 0.1671 -0.0692 -0.9835
vn 0.0692 -0.1670 -0.9835
vn -0.0000 -0.1767 -0.9843
vn -0.0692 -0.1671 -0.9835
vn -0.1250 -0.1250 -0.9843
vn -0.1671 -0.0693 -0.9835
vn -0.1768 -0.0000 -0.9842
vn -0.1671 0.0693 -0.9835
vn -0.1250 0.1250 -0.9843
vn -0.0693 0.1671 -0.9835
vn -0.0000 0.1768 -0.9843
vn 0.0692 0.1671 -0.9835
vn 0.1250 0.1250 -0.9843
vn 0.1671 0.0693 -0.9835
vn 0.1769 -0.0000 -0.9842
vn -0.0000 -0.0000 -1.0000
vn -0.0000 -0.0000 1.0000
vn 0.6198 -0.7510 0.2276
vn 0.9215 -0.3877 0.0204
vn 0.9287 -0.3703 0.0192
vn 0.7796 -0.6179 0.1024
vn 0.4556 -0.8659 0.2065
vn 0.3050 -0.9495 0.0732
vn -0.0049 -0.9998 0.0174
vn 0.0135 -0.9998 0.0164
vn -0.4558 -0.8616 0.2234
vn -0.2767 -0.9557 0.1001
vn -0.6250 -0.7528 0.2065
vn -0.7634 -0.6419 0.0721
vn -0.9239 -0.3826 -0.0000
vn -1.0000 -0.0000 -0.0000
vn -0.9216 0.3876 0.0201
vn -0.9286 0.3705 0.0190
vn -0.6197 0.7511 0.2277
vn -0.7797 0.6178 0.1023
vn -0.4557 0.8658 0.2067
vn -0.3050 0.9495 0.0732
vn 0.0050 0.9998 0.0171
vn -0.0136 0.9998 0.0162
vn 0.4560 0.8615 0.2234
vn 0.2765 0.9558 0.0999
vn 0.6250 0.7528 0.2066
vn 0.7634 0.6419 0.0721
vn 0.9239 0.3826 0.0001
vn 1.0000 -0.0000 0.0001
vn 0.2897 0.9571 -0.0000
vn -0.0001 1.0000 -0.0000
vn 0.5846 0.8110 -0.0242
vn 0.5402 0.8412 -0.0241
vn 0.9043 0.4269 -0.0000
vn 0.7877 0.6161 -0.0000
vn 1.0000 -0.0000 -0.0000
vn 0.9043 -0.4269 -0.0000
vn 0.7877 -0.6160 -0.0000
vn 0.7876 -0.6161 -0.0000
vn 0.5285 -0.8486 -0.0243
vn 0.5733 -0.8190 -0.0243
vn -0.0000 -1.0000 -0.0000
vn 0.2897 -0.9571 -0.0000
vn -0.2898 -0.9571 -0.0000
vn -0.5846 -0.8109 -0.0242
vn -0.5402 -0.8412 -0.0241
vn -0.9043 -0.4269 -0.0000
vn -0.7877 -0.6160 -0.0000
vn -0.9043 0.4268 -0.0000
vn -0.7880 0.6156 -0.0000
vn -0.5285 0.8486 -0.0243
vn -0.5733 0.8190 -0.0243
vn -0.2898 0.9571 -0.0000
vn 0.2828 0.4266 0.8591
vn 0.1301 0.1962 0.9719
vn 0.1396 0.2106 0.9676
vn 0.2530 0.3816 0.8890
vn -0.6993 0.7148 -0.0111
vn -0.6970 0.7170 -0.0115
vn -0.6993 0.7147 -0.0111
vn 0.7621 0.6474 -0.0000
vn 0.8669 -0.4984 -0.0000
vn 0.1395 -0.1961 0.9706
vn 0.1575 -0.2215 0.9624
vn 0.3091 -0.4347 0.8459
vn 0.2738 -0.3851 0.8813
vn 0.9145 0.4044 -0.0118
vn 0.9161 0.4007 -0.0123
vn -0.1301 -0.1961 0.9719
vn -0.1397 -0.2105 0.9676
vn -0.7625 -0.6470 -0.0000
vn -0.2829 -0.4264 0.8591
vn -0.2531 -0.3815 0.8890
vn 0.6989 -0.7151 -0.0111
vn 0.6967 -0.7173 -0.0115
vn 0.6990 -0.7151 -0.0111
vn -0.8669 0.4985 -0.0000
vn -0.1395 0.1961 0.9706
vn -0.1576 0.2215 0.9623
vn -0.3092 0.4348 0.8458
vn -0.2739 0.3852 0.8813
vn -0.9144 -0.4046 -0.0118
vn -0.9160 -0.4010 -0.0123
vn -0.9144 -0.4047 -0.0118
vn -0.4606 -0.2659 -0.8469
vn -0.2670 -0.4623 -0.8456
vn -0.0000 -0.5311 -0.8473
vn -0.5315 -0.0000 -0.8470
vn -0.4601 0.2656 -0.8472
vn 0.2669 -0.4623 -0.8456
vn -0.2661 0.4609 -0.8466
vn 0.4606 -0.2659 -0.8469
vn 0.5315 -0.0000 -0.8471
vn -0.0000 0.5311 -0.8473
vn 0.4601 0.2656 -0.8472
vn 0.2661 0.4608 -0.8467
vn -0.5737 -0.3312 -0.7491
vn -0.3312 -0.5737 -0.7491
vn -0.0001 -0.6625 -0.7491
vn -0.6625 -0.0000 -0.7491
vn -0.5737 0.3312 -0.7491
vn 0.3312 -0.5737 -0.7491
vn -0.3312 0.5737 -0.7491
vn 0.5737 -0.3312 -0.7491
vn -0.0000 0.6624 -0.7491
vn 0.6624 -0.0000 -0.7491
vn 0.5737 0.3312 -0.7491
vn 0.3312 0.5737 -0.7491
vt 0.852132 0.911194
vt 0.850497 0.913641
vt 0.848962 0.912105
vt 0.850126 0.910362
vt 0.848051 0.915275
vt 0.847220 0.913270
vt 0.845164 0.915850
vt 0.845164 0.913678
vt 0.842277 0.915276
vt 0.843108 0.913269
vt 0.839830 0.913640
vt 0.841366 0.912105
vt 0.838196 0.911194
vt 0.840202 0.910362
vt 0.837622 0.908306
vt 0.839793 0.908307
vt 0.838195 0.905420
vt 0.840201 0.906251
vt 0.839830 0.902972
vt 0.841366 0.904508
vt 0.842278 0.901338
vt 0.843109 0.903345
vt 0.845164 0.900764
vt 0.845164 0.902936
vt 0.848051 0.901339
vt 0.847219 0.903345
vt 0.850498 0.902973
vt 0.848961 0.904508
vt 0.852132 0.905420
vt 0.850126 0.906251
vt 0.852706 0.908307
vt 0.850535 0.908307
vt 0.847779 0.910923
vt 0.848582 0.909722
vt 0.846580 0.911725
vt 0.845164 0.912006
vt 0.843748 0.911725
vt 0.842548 0.910922
vt 0.841746 0.909722
vt 0.841465 0.908307
vt 0.841746 0.906891
vt 0.842548 0.905692
vt 0.843748 0.904890
vt 0.845164 0.904607
vt 0.846580 0.904889
vt 0.847780 0.905691
vt 0.848582 0.906891
vt 0.848863 0.908306
vt 0.846496 0.909639
vt 0.846907 0.909029
vt 0.845886 0.910049
vt 0.845164 0.910190
vt 0.844442 0.910049
vt 0.843832 0.909639
vt 0.843421 0.909029
vt 0.843280 0.908307
vt 0.843422 0.907585
vt 0.843832 0.906975
vt 0.844441 0.906565
vt 0.845164 0.906423
vt 0.845886 0.906564
vt 0.846496 0.906975
vt 0.846907 0.907585
vt 0.847048 0.908307
vt 0.845164 0.908307
vt 0.664938 0.903391
vt 0.666445 0.905647
vt 0.664985 0.906253
vt 0.663820 0.904510
vt 0.662683 0.901885
vt 0.662078 0.903345
vt 0.660022 0.901355
vt 0.660022 0.902937
vt 0.657360 0.901885
vt 0.657966 0.903345
vt 0.655104 0.903392
vt 0.656223 0.904510
vt 0.653598 0.905647
vt 0.655059 0.906253
vt 0.653068 0.908309
vt 0.654650 0.908308
vt 0.653598 0.910969
vt 0.655059 0.910364
vt 0.655105 0.913225
vt 0.656223 0.912107
vt 0.657360 0.914732
vt 0.657965 0.913271
vt 0.660021 0.915261
vt 0.660022 0.913680
vt 0.662683 0.914731
vt 0.662078 0.913271
vt 0.664939 0.913225
vt 0.663820 0.912107
vt 0.666445 0.910969
vt 0.664985 0.910364
vt 0.666975 0.908308
vt 0.665393 0.908308
vt 0.521552 0.879753
vt 0.521552 0.881742
vt 0.520858 0.881742
vt 0.521193 0.879917
vt 0.521552 0.878423
vt 0.520858 0.878372
vt 0.193636 0.845132
vt 0.193636 0.843056
vt 0.194250 0.843284
vt 0.194250 0.845133
vt 0.193636 0.847208
vt 0.193953 0.847052
vt 0.421397 0.888424
vt 0.421397 0.889754
vt 0.421039 0.889770
vt 0.420705 0.888197
vt 0.421397 0.886435
vt 0.420705 0.886435
vt 0.421397 0.884088
vt 0.420705 0.884088
vt 0.421397 0.881741
vt 0.420705 0.881741
vt 0.421397 0.879752
vt 0.421039 0.879916
vt 0.421397 0.878422
vt 0.420705 0.878371
vt 0.180669 0.845134
vt 0.180669 0.847211
vt 0.180055 0.846982
vt 0.180055 0.845134
vt 0.180669 0.843057
vt 0.180352 0.843214
vt 0.521552 0.888425
vt 0.521552 0.889755
vt 0.521193 0.889771
vt 0.520858 0.888198
vt 0.521552 0.886436
vt 0.520858 0.886436
vt 0.521552 0.884089
vt 0.520858 0.884089
vt 0.284141 0.867250
vt 0.282660 0.867250
vt 0.282660 0.859992
vt 0.284140 0.859992
vt 0.513198 0.889884
vt 0.513198 0.888289
vt 0.520858 0.886230
vt 0.520858 0.887542
vt 0.513198 0.887542
vt 0.513198 0.886230
vt 0.513198 0.884089
vt 0.520858 0.881949
vt 0.513198 0.881949
vt 0.520858 0.880637
vt 0.513198 0.880637
vt 0.513198 0.879890
vt 0.513198 0.878295
vt 0.228052 0.860310
vt 0.229532 0.860310
vt 0.229533 0.867568
vt 0.228053 0.867568
vt 0.226572 0.860310
vt 0.226572 0.867568
vt 0.413045 0.889882
vt 0.413045 0.888287
vt 0.420705 0.886229
vt 0.420705 0.887540
vt 0.413045 0.887540
vt 0.413045 0.886229
vt 0.413045 0.884088
vt 0.420705 0.881947
vt 0.413045 0.881947
vt 0.420705 0.880636
vt 0.413045 0.880636
vt 0.413045 0.879888
vt 0.413045 0.878294
vt 0.281180 0.867250
vt 0.281180 0.859992
vt 0.164904 0.840794
vt 0.165302 0.842710
vt 0.164805 0.842711
vt 0.164388 0.841330
vt 0.284701 0.859992
vt 0.284717 0.867567
vt 0.164935 0.844555
vt 0.164388 0.844090
vt 0.280681 0.867250
vt 0.280618 0.859992
vt 0.353332 0.867487
vt 0.352297 0.869037
vt 0.351965 0.868460
vt 0.352866 0.867306
vt 0.353743 0.865423
vt 0.353240 0.865423
vt 0.353332 0.863358
vt 0.352866 0.863540
vt 0.352237 0.861753
vt 0.351965 0.862386
vt 0.146930 0.842639
vt 0.147297 0.840793
vt 0.147846 0.841259
vt 0.147427 0.842639
vt 0.230032 0.860310
vt 0.230094 0.867568
vt 0.147328 0.844555
vt 0.147846 0.844018
vt 0.226011 0.867568
vt 0.225996 0.859993
vt 0.323791 0.863303
vt 0.324828 0.861753
vt 0.325159 0.862331
vt 0.324258 0.863484
vt 0.323381 0.865367
vt 0.323884 0.865367
vt 0.323792 0.867432
vt 0.324258 0.867251
vt 0.324887 0.869037
vt 0.325159 0.868405
vt 0.407976 0.386524
vt 0.407976 0.376828
vt 0.429882 0.376828
vt 0.439578 0.386524
vt 0.439578 0.409382
vt 0.424629 0.411141
vt 0.424043 0.403016
vt 0.413689 0.405823
vt 0.411275 0.403409
vt 0.407976 0.402525
vt 0.376423 0.386524
vt 0.386119 0.376828
vt 0.414573 0.409121
vt 0.439578 0.440031
vt 0.424043 0.420212
vt 0.413689 0.412419
vt 0.404678 0.403408
vt 0.411274 0.414834
vt 0.402264 0.405823
vt 0.391909 0.403016
vt 0.401380 0.409121
vt 0.391323 0.411141
vt 0.407976 0.415717
vt 0.407976 0.440031
vt 0.376423 0.409382
vt 0.402264 0.412419
vt 0.391909 0.420212
vt 0.404679 0.414834
vt 0.376423 0.440031
vt 0.411932 0.406837
vt 0.410260 0.405165
vt 0.407977 0.404553
vt 0.412544 0.409121
vt 0.411933 0.411405
vt 0.405693 0.405165
vt 0.410260 0.413077
vt 0.404020 0.406837
vt 0.407977 0.413689
vt 0.403408 0.409121
vt 0.404021 0.411405
vt 0.405692 0.413077
vt 0.407976 0.409121
s 1
usemtl M_PsSinkbasin_19_0
f 1/1/1 2/2/2 3/3/3 4/4/4
f 2/2/2 5/5/5 6/6/6 3/3/3
f 5/5/5 7/7/7 8/8/8 6/6/6
f 7/7/7 9/9/9 10/10/10 8/8/8
f 9/9/9 11/11/11 12/12/12 10/10/10
f 11/11/11 13/13/13 14/14/14 12/12/12
f 13/13/13 15/15/15 16/16/16 14/14/14
f 15/15/15 17/17/17 18/18/18 16/16/16
f 17/17/17 19/19/19 20/20/20 18/18/18
f 19/19/19 21/21/21 22/22/22 20/20/20
f 21/21/21 23/23/23 24/24/24 22/22/22
f 23/23/23 25/25/25 26/26/26 24/24/24
f 25/25/25 27/27/27 28/28/28 26/26/26
f 27/27/27 29/29/29 30/30/30 28/28/28
f 29/29/29 31/31/31 32/32/32 30/30/30
f 31/31/31 1/1/1 4/4/4 32/32/32
f 4/4/4 3/3/3 33/33/33 34/34/34
f 3/3/3 6/6/6 35/35/35 33/33/33
f 6/6/6 8/8/8 36/36/36 35/35/35
f 8/8/8 10/10/10 37/37/37 36/36/36
f 10/10/10 12/12/12 38/38/38 37/37/37
f 12/12/12 14/14/14 39/39/39 38/38/38
f 14/14/14 16/16/16 40/40/40 39/39/39
f 16/16/16 18/18/18 41/41/41 40/40/40
f 18/18/18 20/20/20 42/42/42 41/41/41
f 20/20/20 22/22/22 43/43/43 42/42/42
f 22/22/22 24/24/24 44/44/44 43/43/43
f 24/24/24 26/26/26 45/45/45 44/44/44
f 26/26/26 28/28/28 46/46/46 45/45/45
f 28/28/28 30/30/30 47/47/47 46/46/46
f 30/30/30 32/32/32 48/48/48 47/47/47
f 32/32/32 4/4/4 34/34/34 48/48/48
f 34/34/34 33/33/33 49/49/49 50/50/50
f 33/33/33 35/35/35 51/51/51 49/49/49
f 35/35/35 36/36/36 52/52/52 51/51/51
f 36/36/36 37/37/37 53/53/53 52/52/52
f 37/37/37 38/38/38 54/54/54 53/53/53
f 38/38/38 39/39/39 55/55/55 54/54/54
f 39/39/39 40/40/40 56/56/56 55/55/55
f 40/40/40 41/41/41 57/57/57 56/56/56
f 41/41/41 42/42/42 58/58/58 57/57/57
f 42/42/42 43/43/43 59/59/59 58/58/58
f 43/43/43 44/44/44 60/60/60 59/59/59
f 44/44/44 45/45/45 61/61/61 60/60/60
f 45/45/45 46/46/46 62/62/62 61/61/61
f 46/46/46 47/47/47 63/63/63 62/62/62
f 47/47/47 48/48/48 64/64/64 63/63/63
f 48/48/48 34/34/34 50/50/50 64/64/64
f 65/65/65 49/49/49 51/51/51 52/52/52
f 65/65/65 52/52/52 53/53/53 54/54/54
f 65/65/65 54/54/54 55/55/55 56/56/56
f 65/65/65 56/56/56 57/57/57 58/58/58
f 65/65/65 58/58/58 59/59/59 60/60/60
f 65/65/65 60/60/60 61/61/61 62/62/62
f 65/65/65 62/62/62 63/63/63 64/64/64
f 65/65/65 64/64/64 50/50/50 49/49/49
f 2/66/66 1/67/66 66/68/66 67/69/66
f 5/70/66 2/66/66 67/69/66 68/71/66
f 7/72/66 5/70/66 68/71/66 69/73/66
f 9/74/66 7/72/66 69/73/66 70/75/66
f 11/76/66 9/74/66 70/75/66 71/77/66
f 13/78/66 11/76/66 71/77/66 72/79/66
f 15/80/66 13/78/66 72/79/66 73/81/66
f 17/82/66 15/80/66 73/81/66 74/83/66
f 19/84/66 17/82/66 74/83/66 75/85/66
f 21/86/66 19/84/66 75/85/66 76/87/66
f 23/88/66 21/86/66 76/87/66 77/89/66
f 25/90/66 23/88/66 77/89/66 78/91/66
f 27/92/66 25/90/66 78/91/66 79/93/66
f 29/94/66 27/92/66 79/93/66 80/95/66
f 31/96/66 29/94/66 80/95/66 81/97/66
f 1/67/66 31/96/66 81/97/66 66/68/66
f 67/98/67 66/99/68 82/100/69 83/101/70
f 68/102/71 67/98/67 83/101/70 84/103/72
f 69/104/73 68/105/71 84/106/72 85/107/74
f 70/108/75 69/104/73 85/107/74 86/109/76
f 71/110/77 70/111/75 86/112/76 87/113/78
f 72/114/79 71/110/77 87/113/78 88/115/79
f 73/116/80 72/114/79 88/115/79 89/117/80
f 74/118/81 73/116/80 89/117/80 90/119/82
f 75/120/83 74/118/81 90/119/82 91/121/84
f 76/122/85 75/120/83 91/121/84 92/123/86
f 77/124/87 76/125/85 92/126/86 93/127/88
f 78/128/89 77/124/87 93/127/88 94/129/90
f 79/130/91 78/131/89 94/132/90 95/133/92
f 80/134/93 79/130/91 95/133/92 96/135/93
f 81/136/94 80/134/93 96/135/93 97/137/94
f 66/99/68 81/136/94 97/137/94 82/100/69
f 98/138/95 99/139/96 100/140/96 101/141/95
f 95/133/92 94/132/90 102/142/97 103/143/98
f 104/144/99 105/145/100 106/146/100 107/147/99
f 108/137/101 104/144/99 107/147/99 109/148/101
f 110/149/102 108/137/101 109/148/101 111/150/102
f 112/151/103 110/149/102 111/150/102 113/152/104
f 84/103/72 83/101/70 114/153/105 115/154/106
f 116/155/107 117/156/108 118/157/108 119/158/107
f 120/159/109 116/155/107 119/158/107 121/160/109
f 87/113/78 86/112/76 122/161/110 123/162/111
f 124/163/112 125/164/113 126/165/113 127/166/112
f 128/117/80 124/163/112 127/166/112 129/167/80
f 130/168/114 128/117/80 129/167/80 131/169/114
f 132/170/115 130/168/114 131/169/114 133/171/115
f 92/123/86 91/121/84 134/172/116 135/173/117
f 99/139/96 136/174/118 137/175/118 100/140/96
f 94/176/119 93/177/120 99/178/121 98/179/122
f 102/180/123 94/181/124 98/138/125 101/141/124
f 93/177/120 92/182/66 136/183/66 99/178/121
f 92/184/126 135/185/126 137/175/126 136/174/126
f 96/186/66 95/187/66 105/188/66 104/189/66
f 95/133/127 103/143/127 106/146/127 105/145/127
f 97/190/66 96/186/66 104/189/66 108/191/66
f 82/192/128 97/190/66 108/191/66 110/193/129
f 83/194/130 82/192/128 110/193/129 112/195/131
f 114/153/132 83/101/133 112/151/132 113/152/133
f 85/196/134 84/197/66 117/198/66 116/199/135
f 84/200/136 115/201/136 118/157/136 117/156/136
f 86/202/137 85/196/134 116/199/135 120/203/138
f 122/204/139 86/205/140 120/159/141 121/160/140
f 88/206/66 87/207/66 125/208/66 124/209/66
f 87/113/142 123/162/142 126/165/142 125/164/142
f 89/210/66 88/206/66 124/209/66 128/211/66
f 90/212/143 89/210/66 128/211/66 130/213/144
f 91/214/145 90/212/143 130/213/144 132/215/146
f 134/172/147 91/121/148 132/170/149 133/171/148
f 138/216/65 139/217/65 140/218/65 141/219/65
f 141/219/65 142/220/65 143/221/65 144/222/65
f 145/223/150 146/224/151 141/219/65 144/222/65
f 138/216/65 141/219/65 146/224/151 147/225/152
f 149/226/65 148/227/65 139/217/65 138/216/65
f 150/228/153 145/223/150 144/222/65 143/221/65
f 142/220/65 151/229/65 152/230/65 143/221/65
f 153/231/154 150/228/153 143/221/65 152/230/65
f 147/225/152 154/232/155 149/226/65 138/216/65
f 155/233/156 153/231/154 152/230/65 151/229/65
f 154/232/155 156/234/157 157/235/65 149/226/65
f 156/234/157 158/236/158 159/237/65 157/235/65
f 160/238/159 155/233/156 151/229/65 161/239/65
f 162/240/65 149/226/65 157/235/65 159/237/65
f 158/236/158 163/241/160 164/242/65 159/237/65
f 163/241/160 165/243/161 166/244/65 164/242/65
f 165/243/161 160/238/159 161/239/65 166/244/65
f 166/244/65 162/240/65 159/237/65 164/242/65
f 146/224/151 145/223/150 167/245/162 168/246/163
f 147/225/152 146/224/151 168/246/163 169/247/164
f 145/223/150 150/228/153 170/248/165 167/245/162
f 150/228/153 153/231/154 171/249/166 170/248/165
f 154/232/155 147/225/152 169/247/164 172/250/167
f 153/231/154 155/233/156 173/251/168 171/249/166
f 156/234/157 154/232/155 172/250/167 174/252/169
f 155/233/156 160/238/159 175/253/170 173/251/168
f 158/236/158 156/234/157 174/252/169 176/254/171
f 163/241/160 158/236/158 176/254/171 177/255/172
f 160/238/159 165/243/161 178/256/173 175/253/170
f 165/243/161 163/241/160 177/255/172 178/256/173
f 179/257/65 169/247/65 168/246/65 167/245/65
f 179/257/65 167/245/65 170/248/65 171/249/65
f 179/257/65 171/249/65 173/251/65 175/253/65
f 179/257/65 174/252/65 172/250/65 169/247/65
f 179/257/65 177/255/65 176/254/65 174/252/65
f 179/257/65 175/253/65 178/256/65 177/255/65
