# Blender 4.1.0
# www.blender.org
mtllib MeshPsSinkbasin_19_1.mtl
o PsSinkbasin_19
v 0.033961 0.019226 0.351334
v 0.026247 0.030774 0.351334
v 0.018999 0.023527 0.359293
v 0.024494 0.015301 0.359294
v 0.014700 0.038487 0.351334
v 0.010776 0.029020 0.359294
v 0.001074 0.041197 0.351334
v 0.001074 0.030949 0.359295
v -0.012549 0.038488 0.351334
v -0.008626 0.029017 0.359295
v -0.024100 0.030771 0.351334
v -0.016849 0.023525 0.359294
v -0.031812 0.019226 0.351334
v -0.022346 0.015301 0.359294
v -0.034523 0.005598 0.351334
v -0.024275 0.005599 0.359295
v -0.031812 -0.008026 0.351334
v -0.022345 -0.004101 0.359294
v -0.024098 -0.019575 0.351334
v -0.016848 -0.012326 0.359294
v -0.012548 -0.027289 0.351334
v -0.008626 -0.017819 0.359295
v 0.001074 -0.029999 0.351334
v 0.001075 -0.019750 0.359295
v 0.014701 -0.027287 0.351334
v 0.010775 -0.017818 0.359295
v 0.026250 -0.019572 0.351334
v 0.018997 -0.012326 0.359294
v 0.033962 -0.008025 0.351334
v 0.024495 -0.004100 0.359294
v 0.036672 0.005599 0.351334
v 0.026424 0.005599 0.359294
v 0.013417 0.017944 0.363287
v 0.017204 0.012279 0.363287
v 0.007755 0.021730 0.363287
v 0.001074 0.023058 0.363287
v -0.005607 0.021730 0.363286
v -0.011271 0.017944 0.363287
v -0.015054 0.012280 0.363287
v -0.016384 0.005599 0.363287
v -0.015054 -0.001081 0.363287
v -0.011270 -0.006744 0.363287
v -0.005606 -0.010529 0.363287
v 0.001074 -0.011858 0.363287
v 0.007757 -0.010530 0.363287
v 0.013418 -0.006746 0.363286
v 0.017203 -0.001082 0.363287
v 0.018533 0.005598 0.363287
v 0.007361 0.011886 0.365747
v 0.009299 0.009006 0.365744
v 0.004481 0.013822 0.365744
v 0.001075 0.014489 0.365747
v -0.002332 0.013823 0.365744
v -0.005211 0.011887 0.365747
v -0.007149 0.009006 0.365744
v -0.007817 0.005599 0.365747
v -0.007149 0.002193 0.365744
v -0.005211 -0.000687 0.365747
v -0.002336 -0.002622 0.365744
v 0.001074 -0.003290 0.365747
v 0.004483 -0.002623 0.365744
v 0.007360 -0.000687 0.365747
v 0.009299 0.002192 0.365744
v 0.009967 0.005600 0.365747
v 0.001075 0.005599 0.366573
v 0.026485 0.016125 0.351334
v 0.020524 0.025047 0.351334
v 0.011601 0.031010 0.351334
v 0.001074 0.033103 0.351334
v -0.009451 0.031010 0.351334
v -0.018375 0.025047 0.351334
v -0.024336 0.016125 0.351334
v -0.026428 0.005599 0.351334
v -0.024336 -0.004925 0.351334
v -0.018374 -0.013849 0.351334
v -0.009454 -0.019810 0.351334
v 0.001074 -0.021904 0.351334
v 0.011601 -0.019810 0.351334
v 0.020524 -0.013848 0.351334
v 0.026485 -0.004925 0.351334
v 0.028577 0.005599 0.351334
v 0.026485 0.016125 0.348225
v 0.020902 0.024309 0.349725
v 0.010443 0.031240 0.348225
v 0.001072 0.033104 0.348225
v -0.008659 0.031082 0.349725
v -0.019057 0.024026 0.348225
v -0.024336 0.016125 0.348225
v -0.026428 0.005599 0.348225
v -0.024336 -0.004927 0.348225
v -0.018753 -0.013109 0.349725
v -0.008294 -0.020042 0.348225
v 0.001074 -0.021904 0.348225
v 0.010808 -0.019883 0.349725
v 0.021206 -0.012827 0.348225
v 0.026485 -0.004926 0.348225
v 0.028577 0.005599 0.348225
v 0.008082 -0.017258 0.348225
v 0.001073 -0.019379 0.348225
v 0.001074 -0.019379 0.313870
v 0.008082 -0.017258 0.313870
v 0.010737 -0.020388 0.313870
v 0.021441 -0.013236 0.313870
v 0.024109 -0.004002 0.348225
v 0.019515 -0.009883 0.348225
v 0.019515 -0.009883 0.313870
v 0.024109 -0.004002 0.313870
v 0.026015 0.005599 0.348225
v 0.026015 0.005599 0.313871
v 0.024109 0.015200 0.348225
v 0.024110 0.015201 0.313870
v 0.019514 0.021081 0.348225
v 0.019515 0.021082 0.313870
v 0.021441 0.024434 0.313870
v 0.010737 0.031587 0.313870
v 0.001073 0.030578 0.348225
v 0.008081 0.028457 0.348225
v 0.008082 0.028457 0.313870
v 0.001074 0.030578 0.313870
v -0.005932 0.028457 0.348225
v -0.005932 0.028457 0.313870
v -0.008589 0.031587 0.313870
v -0.019291 0.024434 0.313870
v -0.021961 0.015201 0.348225
v -0.017366 0.021082 0.348225
v -0.017366 0.021081 0.313870
v -0.021961 0.015201 0.313870
v -0.023865 0.005599 0.348225
v -0.023865 0.005599 0.313870
v -0.021961 -0.004002 0.348225
v -0.021961 -0.004002 0.313870
v -0.017366 -0.009883 0.348225
v -0.017366 -0.009883 0.313870
v -0.019292 -0.013235 0.313870
v -0.008589 -0.020387 0.313870
v -0.005932 -0.017258 0.348225
v -0.005932 -0.017258 0.313870
v 0.001074 -0.109182 0.347869
v 0.001074 -0.158672 0.347869
v 0.112887 -0.158672 0.347869
v 0.162377 -0.109182 0.347869
v 0.162377 0.007491 0.347869
v 0.086076 0.016464 0.347869
v 0.083083 -0.025006 0.347869
v 0.030232 -0.010678 0.347869
v 0.017909 -0.023001 0.347869
v 0.001073 -0.027512 0.347869
v -0.110488 -0.158672 0.347869
v -0.159979 -0.109182 0.347869
v 0.034743 0.006157 0.347869
v 0.162377 0.163925 0.347869
v 0.083083 0.062766 0.347869
v 0.030233 0.022990 0.347869
v -0.015759 -0.023002 0.347869
v 0.017908 0.035314 0.347869
v -0.028082 -0.010678 0.347869
v -0.080933 -0.025006 0.347869
v -0.032593 0.006156 0.347869
v -0.083926 0.016464 0.347869
v 0.001074 0.039824 0.347869
v 0.001074 0.163925 0.347869
v -0.159979 0.007491 0.347869
v -0.028083 0.022990 0.347869
v -0.080933 0.062766 0.347869
v -0.015760 0.035313 0.347869
v -0.159979 0.163925 0.347869
v 0.021266 -0.005502 0.338714
v 0.012732 -0.014035 0.338714
v 0.001078 -0.017160 0.338714
v 0.024390 0.006157 0.338714
v 0.021267 0.017814 0.338714
v -0.010583 -0.014037 0.338714
v 0.012733 0.026347 0.338714
v -0.019117 -0.005501 0.338714
v 0.001077 0.029472 0.338714
v -0.022240 0.006155 0.338714
v -0.019117 0.017813 0.338714
v -0.010584 0.026347 0.338714
v 0.001074 0.006156 0.338714
vn 0.5667 0.2348 0.7897
vn 0.4337 0.4337 0.7898
vn 0.3922 0.3922 0.8321
vn 0.5124 0.2123 0.8321
vn 0.2347 0.5667 0.7898
vn 0.2122 0.5124 0.8321
vn -0.0000 0.6134 0.7897
vn -0.0000 0.5546 0.8321
vn -0.2347 0.5667 0.7898
vn -0.2123 0.5124 0.8321
vn -0.4337 0.4337 0.7898
vn -0.3922 0.3922 0.8321
vn -0.5667 0.2348 0.7898
vn -0.5124 0.2122 0.8321
vn -0.6135 -0.0000 0.7897
vn -0.5546 -0.0000 0.8321
vn -0.5667 -0.2348 0.7898
vn -0.5124 -0.2122 0.8321
vn -0.4337 -0.4337 0.7898
vn -0.3922 -0.3922 0.8321
vn -0.2347 -0.5667 0.7898
vn -0.2122 -0.5124 0.8321
vn -0.0000 -0.6134 0.7897
vn -0.0000 -0.5546 0.8321
vn 0.2348 -0.5667 0.7898
vn 0.2123 -0.5124 0.8321
vn 0.4337 -0.4337 0.7898
vn 0.3922 -0.3922 0.8321
vn 0.5667 -0.2347 0.7898
vn 0.5124 -0.2122 0.8321
vn 0.6135 -0.0000 0.7897
vn 0.5546 -0.0000 0.8321
vn 0.2794 0.2794 0.9186
vn 0.3651 0.1512 0.9186
vn 0.1512 0.3651 0.9186
vn -0.0000 0.3952 0.9186
vn -0.1512 0.3651 0.9186
vn -0.2794 0.2794 0.9186
vn -0.3651 0.1512 0.9186
vn -0.3952 -0.0000 0.9186
vn -0.3651 -0.1512 0.9186
vn -0.2794 -0.2794 0.9186
vn -0.1512 -0.3651 0.9186
vn -0.0000 -0.3952 0.9186
vn 0.1512 -0.3651 0.9186
vn 0.2794 -0.2794 0.9186
vn 0.3651 -0.1512 0.9186
vn 0.3952 -0.0000 0.9186
vn 0.1492 0.1492 0.9775
vn 0.1971 0.0817 0.9770
vn 0.0817 0.1972 0.9770
vn -0.0000 0.2110 0.9775
vn -0.0817 0.1971 0.9770
vn -0.1492 0.1492 0.9775
vn -0.1971 0.0817 0.9770
vn -0.2110 -0.0000 0.9775
vn -0.1971 -0.0816 0.9770
vn -0.1492 -0.1492 0.9775
vn -0.0817 -0.1971 0.9770
vn -0.0000 -0.2110 0.9775
vn 0.0816 -0.1971 0.9770
vn 0.1492 -0.1492 0.9775
vn 0.1972 -0.0817 0.9770
vn 0.2110 -0.0000 0.9775
vn -0.0000 -0.0000 1.0000
vn -0.0000 -0.0000 -1.0000
vn 0.7071 0.7071 0.0002
vn 0.9239 0.3827 0.0002
vn 0.5790 0.8153 0.0002
vn 0.3827 0.9239 -0.0001
vn 0.5317 0.8469 -0.0001
vn -0.0000 1.0000 -0.0000
vn -0.3827 0.9239 0.0001
vn -0.5317 0.8469 0.0001
vn -0.7071 0.7071 -0.0001
vn -0.5790 0.8153 -0.0000
vn -0.9239 0.3826 -0.0000
vn -1.0000 -0.0000 -0.0000
vn -0.9239 -0.3827 -0.0000
vn -0.7071 -0.7071 -0.0000
vn -0.5790 -0.8153 -0.0000
vn -0.3827 -0.9239 -0.0002
vn -0.5317 -0.8469 -0.0001
vn -0.0000 -1.0000 -0.0001
vn 0.3827 -0.9239 -0.0000
vn 0.5317 -0.8469 -0.0000
vn 0.7071 -0.7071 -0.0000
vn 0.5790 -0.8153 -0.0000
vn 0.9239 -0.3826 -0.0001
vn 1.0000 -0.0000 -0.0001
vn 0.2897 -0.9571 -0.0000
vn -0.0001 -1.0000 -0.0000
vn 0.5331 -0.8461 -0.0000
vn 0.5777 -0.8163 -0.0000
vn 0.9149 -0.4037 -0.0000
vn 0.7884 -0.6152 -0.0000
vn 1.0000 -0.0000 -0.0000
vn 0.9149 0.4037 -0.0000
vn 0.7883 0.6153 -0.0000
vn 0.7884 0.6152 -0.0000
vn 0.5777 0.8163 -0.0000
vn 0.5330 0.8461 -0.0000
vn 0.2897 0.9571 -0.0000
vn -0.2898 0.9571 -0.0000
vn -0.5331 0.8461 -0.0000
vn -0.5777 0.8163 -0.0000
vn -0.9149 0.4037 -0.0000
vn -0.7883 0.6153 -0.0000
vn -0.9149 -0.4037 -0.0000
vn -0.7880 -0.6156 -0.0000
vn -0.5777 -0.8163 -0.0000
vn -0.5331 -0.8461 -0.0000
vn -0.2898 -0.9571 -0.0000
vn -0.0000 -0.0001 -1.0000
vn -0.7626 -0.6469 -0.0000
vn -0.7625 -0.6469 -0.0000
vn 0.7627 -0.6467 -0.0000
vn 0.8673 0.4978 -0.0000
vn 0.8672 -0.4979 -0.0000
vn -0.7625 0.6470 -0.0000
vn 0.7626 0.6469 -0.0000
vn 0.7625 0.6469 -0.0000
vn -0.8674 -0.4977 -0.0000
vn -0.8672 0.4979 -0.0000
vn -0.8672 0.4980 -0.0000
vn -0.0000 0.0001 1.0000
vn -0.0001 -0.0000 1.0000
vn 0.0001 -0.0000 1.0000
vn -0.0000 -0.0001 1.0000
vn -0.5737 0.3312 0.7491
vn -0.3312 0.5737 0.7491
vn -0.0001 0.6625 0.7491
vn -0.6625 -0.0000 0.7491
vn -0.5737 -0.3312 0.7491
vn 0.3312 0.5737 0.7491
vn -0.3312 -0.5737 0.7491
vn 0.5737 0.3312 0.7491
vn -0.0000 -0.6624 0.7491
vn 0.6624 -0.0000 0.7491
vn 0.5737 -0.3312 0.7491
vn 0.3312 -0.5737 0.7491
vt 0.852132 0.911194
vt 0.850497 0.913641
vt 0.848962 0.912105
vt 0.850126 0.910362
vt 0.848051 0.915275
vt 0.847220 0.913270
vt 0.845164 0.915850
vt 0.845164 0.913678
vt 0.842277 0.915276
vt 0.843108 0.913269
vt 0.839830 0.913640
vt 0.841366 0.912105
vt 0.838196 0.911194
vt 0.840202 0.910362
vt 0.837622 0.908306
vt 0.839793 0.908307
vt 0.838195 0.905420
vt 0.840201 0.906251
vt 0.839830 0.902972
vt 0.841366 0.904508
vt 0.842278 0.901338
vt 0.843109 0.903345
vt 0.845164 0.900764
vt 0.845164 0.902936
vt 0.848051 0.901339
vt 0.847219 0.903345
vt 0.850498 0.902973
vt 0.848961 0.904508
vt 0.852132 0.905420
vt 0.850126 0.906251
vt 0.852706 0.908307
vt 0.850535 0.908307
vt 0.847779 0.910923
vt 0.848582 0.909722
vt 0.846580 0.911725
vt 0.845164 0.912006
vt 0.843748 0.911725
vt 0.842548 0.910922
vt 0.841746 0.909722
vt 0.841465 0.908307
vt 0.841746 0.906891
vt 0.842548 0.905692
vt 0.843748 0.904890
vt 0.845164 0.904607
vt 0.846580 0.904889
vt 0.847780 0.905691
vt 0.848582 0.906891
vt 0.848863 0.908306
vt 0.846496 0.909639
vt 0.846907 0.909029
vt 0.845886 0.910049
vt 0.845164 0.910190
vt 0.844442 0.910049
vt 0.843832 0.909639
vt 0.843421 0.909029
vt 0.843280 0.908307
vt 0.843422 0.907585
vt 0.843832 0.906975
vt 0.844441 0.906565
vt 0.845164 0.906423
vt 0.845886 0.906564
vt 0.846496 0.906975
vt 0.846907 0.907585
vt 0.847048 0.908307
vt 0.845164 0.908307
vt 0.664938 0.903391
vt 0.666445 0.905647
vt 0.664985 0.906253
vt 0.663820 0.904510
vt 0.662683 0.901885
vt 0.662078 0.903345
vt 0.660022 0.901355
vt 0.660022 0.902937
vt 0.657360 0.901885
vt 0.657966 0.903345
vt 0.655104 0.903392
vt 0.656223 0.904510
vt 0.653598 0.905647
vt 0.655059 0.906253
vt 0.653068 0.908309
vt 0.654650 0.908308
vt 0.653598 0.910969
vt 0.655059 0.910364
vt 0.655105 0.913225
vt 0.656223 0.912107
vt 0.657360 0.914732
vt 0.657965 0.913271
vt 0.660021 0.915261
vt 0.660022 0.913680
vt 0.662683 0.914731
vt 0.662078 0.913271
vt 0.664939 0.913225
vt 0.663820 0.912107
vt 0.666445 0.910969
vt 0.664985 0.910364
vt 0.666975 0.908308
vt 0.665393 0.908308
vt 0.521552 0.879753
vt 0.521552 0.881742
vt 0.520858 0.881742
vt 0.521193 0.879917
vt 0.521552 0.878423
vt 0.520858 0.878372
vt 0.193636 0.845132
vt 0.193636 0.843056
vt 0.194250 0.843284
vt 0.194250 0.845133
vt 0.193636 0.847208
vt 0.193953 0.847052
vt 0.421397 0.888424
vt 0.421397 0.889754
vt 0.421039 0.889770
vt 0.420705 0.888197
vt 0.421397 0.886435
vt 0.420705 0.886435
vt 0.421397 0.884088
vt 0.420705 0.884088
vt 0.421397 0.881741
vt 0.420705 0.881741
vt 0.421397 0.879752
vt 0.421039 0.879916
vt 0.421397 0.878422
vt 0.420705 0.878371
vt 0.180669 0.845134
vt 0.180669 0.847211
vt 0.180055 0.846982
vt 0.180055 0.845134
vt 0.180669 0.843057
vt 0.180352 0.843214
vt 0.521552 0.888425
vt 0.521552 0.889755
vt 0.521193 0.889771
vt 0.520858 0.888198
vt 0.521552 0.886436
vt 0.520858 0.886436
vt 0.521552 0.884089
vt 0.520858 0.884089
vt 0.284141 0.867250
vt 0.282660 0.867250
vt 0.282660 0.859992
vt 0.284140 0.859992
vt 0.513198 0.889884
vt 0.513198 0.888289
vt 0.520858 0.886230
vt 0.520858 0.887542
vt 0.513198 0.887542
vt 0.513198 0.886230
vt 0.513198 0.884089
vt 0.520858 0.881949
vt 0.513198 0.881949
vt 0.520858 0.880637
vt 0.513198 0.880637
vt 0.513198 0.879890
vt 0.513198 0.878295
vt 0.228052 0.860310
vt 0.229532 0.860310
vt 0.229533 0.867568
vt 0.228053 0.867568
vt 0.226572 0.860310
vt 0.226572 0.867568
vt 0.413045 0.889882
vt 0.413045 0.888287
vt 0.420705 0.886229
vt 0.420705 0.887540
vt 0.413045 0.887540
vt 0.413045 0.886229
vt 0.413045 0.884088
vt 0.420705 0.881947
vt 0.413045 0.881947
vt 0.420705 0.880636
vt 0.413045 0.880636
vt 0.413045 0.879888
vt 0.413045 0.878294
vt 0.281180 0.867250
vt 0.281180 0.859992
vt 0.164904 0.840794
vt 0.165302 0.842710
vt 0.164805 0.842711
vt 0.164388 0.841330
vt 0.284701 0.859992
vt 0.284717 0.867567
vt 0.164935 0.844555
vt 0.164388 0.844090
vt 0.280681 0.867250
vt 0.280618 0.859992
vt 0.353332 0.867487
vt 0.352297 0.869037
vt 0.351965 0.868460
vt 0.352866 0.867306
vt 0.353743 0.865423
vt 0.353240 0.865423
vt 0.353332 0.863358
vt 0.352866 0.863540
vt 0.352237 0.861753
vt 0.351965 0.862386
vt 0.146930 0.842639
vt 0.147297 0.840793
vt 0.147846 0.841259
vt 0.147427 0.842639
vt 0.230032 0.860310
vt 0.230094 0.867568
vt 0.147328 0.844555
vt 0.147846 0.844018
vt 0.226011 0.867568
vt 0.225996 0.859993
vt 0.323791 0.863303
vt 0.324828 0.861753
vt 0.325159 0.862331
vt 0.324258 0.863484
vt 0.323381 0.865367
vt 0.323884 0.865367
vt 0.323792 0.867432
vt 0.324258 0.867251
vt 0.324887 0.869037
vt 0.325159 0.868405
vt 0.407976 0.386524
vt 0.407976 0.376828
vt 0.429882 0.376828
vt 0.439578 0.386524
vt 0.439578 0.409382
vt 0.424629 0.411141
vt 0.424043 0.403016
vt 0.413689 0.405823
vt 0.411275 0.403409
vt 0.407976 0.402525
vt 0.376423 0.386524
vt 0.386119 0.376828
vt 0.414573 0.409121
vt 0.439578 0.440031
vt 0.424043 0.420212
vt 0.413689 0.412419
vt 0.404678 0.403408
vt 0.411274 0.414834
vt 0.402264 0.405823
vt 0.391909 0.403016
vt 0.401380 0.409121
vt 0.391323 0.411141
vt 0.407976 0.415717
vt 0.407976 0.440031
vt 0.376423 0.409382
vt 0.402264 0.412419
vt 0.391909 0.420212
vt 0.404679 0.414834
vt 0.376423 0.440031
vt 0.411932 0.406837
vt 0.410260 0.405165
vt 0.407977 0.404553
vt 0.412544 0.409121
vt 0.411933 0.411405
vt 0.405693 0.405165
vt 0.410260 0.413077
vt 0.404020 0.406837
vt 0.407977 0.413689
vt 0.403408 0.409121
vt 0.404021 0.411405
vt 0.405692 0.413077
vt 0.407976 0.409121
s 1
usemtl M_PsSinkbasin_19_0
f 1/1/1 2/2/2 3/3/3 4/4/4
f 2/2/2 5/5/5 6/6/6 3/3/3
f 5/5/5 7/7/7 8/8/8 6/6/6
f 7/7/7 9/9/9 10/10/10 8/8/8
f 9/9/9 11/11/11 12/12/12 10/10/10
f 11/11/11 13/13/13 14/14/14 12/12/12
f 13/13/13 15/15/15 16/16/16 14/14/14
f 15/15/15 17/17/17 18/18/18 16/16/16
f 17/17/17 19/19/19 20/20/20 18/18/18
f 19/19/19 21/21/21 22/22/22 20/20/20
f 21/21/21 23/23/23 24/24/24 22/22/22
f 23/23/23 25/25/25 26/26/26 24/24/24
f 25/25/25 27/27/27 28/28/28 26/26/26
f 27/27/27 29/29/29 30/30/30 28/28/28
f 29/29/29 31/31/31 32/32/32 30/30/30
f 31/31/31 1/1/1 4/4/4 32/32/32
f 4/4/4 3/3/3 33/33/33 34/34/34
f 3/3/3 6/6/6 35/35/35 33/33/33
f 6/6/6 8/8/8 36/36/36 35/35/35
f 8/8/8 10/10/10 37/37/37 36/36/36
f 10/10/10 12/12/12 38/38/38 37/37/37
f 12/12/12 14/14/14 39/39/39 38/38/38
f 14/14/14 16/16/16 40/40/40 39/39/39
f 16/16/16 18/18/18 41/41/41 40/40/40
f 18/18/18 20/20/20 42/42/42 41/41/41
f 20/20/20 22/22/22 43/43/43 42/42/42
f 22/22/22 24/24/24 44/44/44 43/43/43
f 24/24/24 26/26/26 45/45/45 44/44/44
f 26/26/26 28/28/28 46/46/46 45/45/45
f 28/28/28 30/30/30 47/47/47 46/46/46
f 30/30/30 32/32/32 48/48/48 47/47/47
f 32/32/32 4/4/4 34/34/34 48/48/48
f 34/34/34 33/33/33 49/49/49 50/50/50
f 33/33/33 35/35/35 51/51/51 49/49/49
f 35/35/35 36/36/36 52/52/52 51/51/51
f 36/36/36 37/37/37 53/53/53 52/52/52
f 37/37/37 38/38/38 54/54/54 53/53/53
f 38/38/38 39/39/39 55/55/55 54/54/54
f 39/39/39 40/40/40 56/56/56 55/55/55
f 40/40/40 41/41/41 57/57/57 56/56/56
f 41/41/41 42/42/42 58/58/58 57/57/57
f 42/42/42 43/43/43 59/59/59 58/58/58
f 43/43/43 44/44/44 60/60/60 59/59/59
f 44/44/44 45/45/45 61/61/61 60/60/60
f 45/45/45 46/46/46 62/62/62 61/61/61
f 46/46/46 47/47/47 63/63/63 62/62/62
f 47/47/47 48/48/48 64/64/64 63/63/63
f 48/48/48 34/34/34 50/50/50 64/64/64
f 65/65/65 49/49/49 51/51/51 52/52/52
f 65/65/65 52/52/52 53/53/53 54/54/54
f 65/65/65 54/54/54 55/55/55 56/56/56
f 65/65/65 56/56/56 57/57/57 58/58/58
f 65/65/65 58/58/58 59/59/59 60/60/60
f 65/65/65 60/60/60 61/61/61 62/62/62
f 65/65/65 62/62/62 63/63/63 64/64/64
f 65/65/65 64/64/64 50/50/50 49/49/49
f 2/66/66 1/67/66 66/68/66 67/69/66
f 5/70/66 2/66/66 67/69/66 68/71/66
f 7/72/66 5/70/66 68/71/66 69/73/66
f 9/74/66 7/72/66 69/73/66 70/75/66
f 11/76/66 9/74/66 70/75/66 71/77/66
f 13/78/66 11/76/66 71/77/66 72/79/66
f 15/80/66 13/78/66 72/79/66 73/81/66
f 17/82/66 15/80/66 73/81/66 74/83/66
f 19/84/66 17/82/66 74/83/66 75/85/66
f 21/86/66 19/84/66 75/85/66 76/87/66
f 23/88/66 21/86/66 76/87/66 77/89/66
f 25/90/66 23/88/66 77/89/66 78/91/66
f 27/92/66 25/90/66 78/91/66 79/93/66
f 29/94/66 27/92/66 79/93/66 80/95/66
f 31/96/66 29/94/66 80/95/66 81/97/66
f 1/67/66 31/96/66 81/97/66 66/68/66
f 67/98/67 66/99/68 82/100/68 83/101/69
f 68/102/70 67/98/67 83/101/69 84/103/71
f 69/104/72 68/105/70 84/106/71 85/107/72
f 70/108/73 69/104/72 85/107/72 86/109/74
f 71/110/75 70/111/73 86/112/74 87/113/76
f 72/114/77 71/110/75 87/113/76 88/115/77
f 73/116/78 72/114/77 88/115/77 89/117/78
f 74/118/79 73/116/78 89/117/78 90/119/79
f 75/120/80 74/118/79 90/119/79 91/121/81
f 76/122/82 75/120/80 91/121/81 92/123/83
f 77/124/84 76/125/82 92/126/83 93/127/84
f 78/128/85 77/124/84 93/127/84 94/129/86
f 79/130/87 78/131/85 94/132/86 95/133/88
f 80/134/89 79/130/87 95/133/88 96/135/89
f 81/136/90 80/134/89 96/135/89 97/137/90
f 66/99/68 81/136/90 97/137/90 82/100/68
f 98/138/91 99/139/92 100/140/92 101/141/91
f 95/133/88 94/132/86 102/142/93 103/143/94
f 104/144/95 105/145/96 106/146/96 107/147/95
f 108/137/97 104/144/95 107/147/95 109/148/97
f 110/149/98 108/137/97 109/148/97 111/150/98
f 112/151/99 110/149/98 111/150/98 113/152/100
f 84/103/71 83/101/69 114/153/101 115/154/102
f 116/155/72 117/156/103 118/157/103 119/158/72
f 120/159/104 116/155/72 119/158/72 121/160/104
f 87/113/76 86/112/74 122/161/105 123/162/106
f 124/163/107 125/164/108 126/165/108 127/166/107
f 128/117/78 124/163/107 127/166/107 129/167/78
f 130/168/109 128/117/78 129/167/78 131/169/109
f 132/170/110 130/168/109 131/169/109 133/171/110
f 92/123/83 91/121/81 134/172/111 135/173/112
f 99/139/92 136/174/113 137/175/113 100/140/92
f 94/176/66 93/177/66 99/178/66 98/179/114
f 102/180/115 94/181/115 98/138/116 101/141/115
f 93/177/66 92/182/66 136/183/66 99/178/66
f 92/184/117 135/185/117 137/175/117 136/174/117
f 96/186/66 95/187/66 105/188/66 104/189/66
f 95/133/118 103/143/118 106/146/118 105/145/118
f 97/190/66 96/186/66 104/189/66 108/191/66
f 82/192/66 97/190/66 108/191/66 110/193/66
f 83/194/66 82/192/66 110/193/66 112/195/66
f 114/153/119 83/101/119 112/151/119 113/152/119
f 85/196/66 84/197/66 117/198/66 116/199/66
f 84/200/120 115/201/120 118/157/120 117/156/120
f 86/202/66 85/196/66 116/199/66 120/203/66
f 122/204/121 86/205/121 120/159/122 121/160/121
f 88/206/66 87/207/66 125/208/66 124/209/66
f 87/113/123 123/162/123 126/165/123 125/164/123
f 89/210/66 88/206/66 124/209/66 128/211/66
f 90/212/66 89/210/66 128/211/66 130/213/66
f 91/214/66 90/212/66 130/213/66 132/215/66
f 134/172/124 91/121/124 132/170/125 133/171/124
f 138/216/65 139/217/65 140/218/65 141/219/65
f 141/219/65 142/220/65 143/221/65 144/222/65
f 145/223/65 146/224/126 141/219/65 144/222/65
f 138/216/65 141/219/65 146/224/126 147/225/126
f 149/226/65 148/227/65 139/217/65 138/216/65
f 150/228/65 145/223/65 144/222/65 143/221/65
f 142/220/65 151/229/65 152/230/65 143/221/65
f 153/231/127 150/228/65 143/221/65 152/230/65
f 147/225/126 154/232/65 149/226/65 138/216/65
f 155/233/65 153/231/127 152/230/65 151/229/65
f 154/232/65 156/234/65 157/235/65 149/226/65
f 156/234/65 158/236/128 159/237/65 157/235/65
f 160/238/65 155/233/65 151/229/65 161/239/65
f 162/240/65 149/226/65 157/235/65 159/237/65
f 158/236/128 163/241/65 164/242/65 159/237/65
f 163/241/65 165/243/129 166/244/65 164/242/65
f 165/243/129 160/238/65 161/239/65 166/244/65
f 166/244/65 162/240/65 159/237/65 164/242/65
f 146/224/126 145/223/65 167/245/130 168/246/131
f 147/225/126 146/224/126 168/246/131 169/247/132
f 145/223/65 150/228/65 170/248/133 167/245/130
f 150/228/65 153/231/127 171/249/134 170/248/133
f 154/232/65 147/225/126 169/247/132 172/250/135
f 153/231/127 155/233/65 173/251/136 171/249/134
f 156/234/65 154/232/65 172/250/135 174/252/137
f 155/233/65 160/238/65 175/253/138 173/251/136
f 158/236/128 156/234/65 174/252/137 176/254/139
f 163/241/65 158/236/128 176/254/139 177/255/140
f 160/238/65 165/243/129 178/256/141 175/253/138
f 165/243/129 163/241/65 177/255/140 178/256/141
f 179/257/65 169/247/65 168/246/65 167/245/65
f 179/257/65 167/245/65 170/248/65 171/249/65
f 179/257/65 171/249/65 173/251/65 175/253/65
f 179/257/65 174/252/65 172/250/65 169/247/65
f 179/257/65 177/255/65 176/254/65 174/252/65
f 179/257/65 175/253/65 178/256/65 177/255/65
