# Blender 4.1.0
# www.blender.org
mtllib MeshTelevisionStand_8_1_GeomSubset_0.mtl
o MeshTelevisionStand_8_1_GeomSubset_0
v -0.000582 -0.033575 0.066572
v 0.000582 -0.033575 0.066572
v -0.000582 -0.032135 0.066572
v 0.000582 -0.032135 0.066572
v -0.000582 -0.033575 0.066572
v 0.000582 -0.033575 0.066572
v -0.000582 -0.032135 0.066572
v 0.000582 -0.032135 0.066572
v -0.000582 -0.033575 0.066572
v 0.000582 -0.033575 0.066572
v -0.000582 -0.032135 0.066572
v 0.000582 -0.032135 0.066572
v -0.000582 -0.033575 0.066572
v 0.000582 -0.033575 0.066572
v -0.000582 -0.032135 0.066572
v 0.000582 -0.032135 0.066572
v -0.000582 -0.033575 0.066572
v 0.000582 -0.033575 0.066572
v -0.000582 -0.032135 0.066572
v 0.000582 -0.032135 0.066572
v -0.287232 -0.271340 -0.382576
v -0.245586 -0.271340 -0.382576
v -0.237108 0.027610 -0.271437
v -0.295710 0.027610 -0.271437
v -0.295710 0.027611 -0.298926
v -0.237108 0.027611 -0.298926
v -0.237108 0.027610 0.012326
v -0.295710 0.027610 0.012326
v -0.295082 -0.138570 -0.284484
v -0.295545 -0.126361 -0.274866
v -0.295710 -0.111202 -0.271437
v -0.237736 -0.138570 -0.284484
v -0.237273 -0.126361 -0.274866
v -0.237108 -0.111202 -0.271437
v -0.237774 -0.130918 -0.311893
v -0.237283 -0.118676 -0.302332
v -0.237108 -0.103521 -0.298926
v -0.295044 -0.130918 -0.311893
v -0.295535 -0.118676 -0.302332
v -0.295710 -0.103521 -0.298926
v -0.287295 -0.254686 -0.394894
v -0.286733 -0.271340 -0.394894
v -0.245522 -0.254686 -0.394894
v -0.246086 -0.271340 -0.394894
v -0.244628 -0.254639 -0.370600
v -0.288190 -0.254639 -0.370600
v -0.287232 0.280644 -0.382576
v -0.245586 0.280644 -0.382576
v -0.237108 0.067206 -0.271437
v -0.295710 0.067206 -0.271437
v -0.295710 0.067205 -0.298926
v -0.237108 0.067205 -0.298926
v -0.237108 0.067206 0.012326
v -0.295710 0.067206 0.012326
v -0.295082 0.147876 -0.284484
v -0.295545 0.135667 -0.274866
v -0.295710 0.120509 -0.271437
v -0.237736 0.147876 -0.284484
v -0.237273 0.135667 -0.274866
v -0.237108 0.120509 -0.271437
v -0.237774 0.140224 -0.311893
v -0.237283 0.127982 -0.302332
v -0.237108 0.112827 -0.298926
v -0.295044 0.140224 -0.311893
v -0.295535 0.127982 -0.302332
v -0.295710 0.112827 -0.298926
v -0.287295 0.263992 -0.394894
v -0.286733 0.280645 -0.394894
v -0.245522 0.263992 -0.394894
v -0.246086 0.280645 -0.394894
v -0.244628 0.263945 -0.370600
v -0.288190 0.263945 -0.370600
v -0.237108 0.023854 0.032895
v -0.295710 0.023854 0.032895
v -0.237108 0.062373 0.042067
v -0.295710 0.062373 0.042067
v -0.237108 0.015379 0.048236
v -0.295710 0.015379 0.048236
v -0.237108 0.046276 0.072997
v -0.295710 0.046276 0.072997
v -0.237108 -0.000687 0.063220
v -0.295710 -0.000687 0.063220
v -0.237108 0.015830 0.099205
v -0.295710 0.015830 0.099205
v -0.237108 -0.022720 0.067426
v -0.295710 -0.022720 0.067426
v -0.237108 -0.022719 0.107021
v -0.295710 -0.022719 0.107021
v -0.334400 -0.022720 0.007034
v -0.334400 -0.022719 0.155620
v 0.000000 -0.022720 0.007034
v 0.000000 -0.022719 0.155619
v 0.287232 -0.271340 -0.382576
v 0.245587 -0.271340 -0.382576
v 0.237109 0.027610 -0.271437
v 0.295710 0.027610 -0.271437
v 0.295710 0.027611 -0.298926
v 0.237109 0.027611 -0.298926
v 0.237109 0.027610 0.012326
v 0.295710 0.027610 0.012326
v 0.295082 -0.138570 -0.284484
v 0.295545 -0.126361 -0.274866
v 0.295710 -0.111202 -0.271437
v 0.237736 -0.138570 -0.284484
v 0.237273 -0.126361 -0.274866
v 0.237109 -0.111202 -0.271437
v 0.237774 -0.130918 -0.311893
v 0.237283 -0.118676 -0.302332
v 0.237109 -0.103521 -0.298926
v 0.295044 -0.130918 -0.311893
v 0.295535 -0.118676 -0.302332
v 0.295710 -0.103521 -0.298926
v 0.287295 -0.254686 -0.394894
v 0.286733 -0.271340 -0.394894
v 0.245523 -0.254686 -0.394894
v 0.246086 -0.271340 -0.394894
v 0.244628 -0.254639 -0.370600
v 0.288190 -0.254639 -0.370600
v 0.287232 0.280644 -0.382576
v 0.245587 0.280644 -0.382576
v 0.237109 0.067206 -0.271437
v 0.295710 0.067206 -0.271437
v 0.295710 0.067205 -0.298926
v 0.237109 0.067205 -0.298926
v 0.237109 0.067206 0.012326
v 0.295710 0.067206 0.012326
v 0.295082 0.147876 -0.284484
v 0.295545 0.135667 -0.274866
v 0.295710 0.120509 -0.271437
v 0.237736 0.147876 -0.284484
v 0.237273 0.135667 -0.274866
v 0.237109 0.120509 -0.271437
v 0.237774 0.140224 -0.311893
v 0.237283 0.127982 -0.302332
v 0.237109 0.112827 -0.298926
v 0.295044 0.140224 -0.311893
v 0.295535 0.127982 -0.302332
v 0.295710 0.112827 -0.298926
v 0.287295 0.263992 -0.394894
v 0.286733 0.280645 -0.394894
v 0.245523 0.263992 -0.394894
v 0.246086 0.280645 -0.394894
v 0.244628 0.263945 -0.370600
v 0.288190 0.263945 -0.370600
v 0.237109 0.023854 0.032895
v 0.295710 0.023854 0.032895
v 0.237109 0.062373 0.042067
v 0.295710 0.062373 0.042067
v 0.237109 0.015379 0.048236
v 0.295710 0.015379 0.048236
v 0.237109 0.046276 0.072997
v 0.295710 0.046276 0.072997
v 0.237109 -0.000687 0.063220
v 0.295710 -0.000687 0.063220
v 0.237109 0.015830 0.099205
v 0.295710 0.015830 0.099205
v 0.237109 -0.022720 0.067426
v 0.295710 -0.022720 0.067426
v 0.237109 -0.022719 0.107021
v 0.295710 -0.022719 0.107021
v 0.334400 -0.022720 0.007034
v 0.334400 -0.022719 0.155620
v 0.334400 -0.039876 0.007034
v 0.334400 -0.039876 0.155620
v 0.000000 -0.039877 0.007034
v 0.000000 -0.039876 0.155619
v -0.334400 -0.039876 0.007034
v -0.334400 -0.039876 0.155620
vn -0.0000 -0.0000 1.0000
vn -0.0000 -1.0000 -0.0000
vn -1.0000 -0.0000 -0.0000
vn -0.0000 -0.0000 -1.0000
vn 1.0000 -0.0000 -0.0000
vn -0.0000 -0.5827 0.8127
vn -0.0000 -0.5945 0.8041
vn 0.9988 -0.0319 -0.0380
vn 0.9988 -0.0423 -0.0261
vn 0.9988 -0.0433 -0.0249
vn -0.0000 0.5638 -0.8259
vn -0.0000 0.5570 -0.8305
vn -0.0000 -0.0221 0.9998
vn 1.0000 -0.0014 -0.0004
vn 1.0000 -0.0009 -0.0003
vn -0.0010 0.0231 -0.9997
vn -0.0000 0.0232 -0.9997
vn -1.0000 -0.0008 -0.0003
vn -1.0000 -0.0014 -0.0004
vn -0.9989 -0.0417 -0.0220
vn -0.9998 -0.0196 -0.0060
vn -0.9997 -0.0214 -0.0065
vn -0.9988 -0.0429 -0.0234
vn -0.0000 -0.4266 0.9044
vn -0.0000 -0.4267 0.9044
vn -0.0000 -0.5985 0.8011
vn 0.9998 -0.0196 -0.0060
vn 0.9997 -0.0216 -0.0066
vn 0.9989 -0.0417 -0.0220
vn 0.9988 -0.0429 -0.0234
vn -0.0000 0.4240 -0.9057
vn -0.0000 0.4237 -0.9058
vn -0.9988 -0.0423 -0.0261
vn -0.9988 -0.0319 -0.0380
vn -0.9987 -0.0433 -0.0250
vn -0.0000 1.0000 0.0001
vn -0.0000 0.5828 0.8126
vn -0.0000 0.5945 0.8041
vn 0.9988 0.0319 -0.0380
vn 0.9988 0.0433 -0.0249
vn 0.9988 0.0422 -0.0262
vn -0.0000 -0.5638 -0.8259
vn -0.0000 -0.5570 -0.8305
vn -0.0000 0.0497 0.9988
vn 1.0000 0.0030 -0.0009
vn 1.0000 0.0022 -0.0007
vn -0.0000 -0.0556 -0.9985
vn 0.0006 -0.0556 -0.9985
vn -1.0000 0.0022 -0.0007
vn -1.0000 0.0030 -0.0009
vn -0.9989 0.0417 -0.0220
vn -0.9988 0.0429 -0.0234
vn -0.9997 0.0216 -0.0066
vn -0.9998 0.0196 -0.0060
vn -0.0000 0.4266 0.9044
vn -0.0000 0.4266 0.9045
vn -0.0000 0.5985 0.8011
vn 0.9997 0.0215 -0.0065
vn 0.9998 0.0196 -0.0060
vn 0.9988 0.0429 -0.0234
vn 0.9989 0.0417 -0.0220
vn -0.0000 -0.4238 -0.9058
vn -0.0000 -0.4239 -0.9057
vn -0.9988 0.0423 -0.0261
vn -0.9988 0.0433 -0.0249
vn -0.9988 0.0319 -0.0380
vn -0.0000 1.0000 -0.0000
vn -0.9988 -0.0422 -0.0262
vn -1.0000 -0.0009 -0.0003
vn -0.0000 0.0231 -0.9997
vn 1.0000 -0.0010 -0.0003
vn 0.9988 -0.0428 -0.0234
vn 0.9997 -0.0220 -0.0067
vn -0.0000 -0.4265 0.9045
vn -0.9998 -0.0211 -0.0063
vn -0.9998 -0.0193 -0.0059
vn -0.0000 0.4238 -0.9058
vn 0.9987 -0.0433 -0.0250
vn -0.9988 0.0422 -0.0262
vn -0.9987 0.0433 -0.0249
vn -1.0000 0.0029 -0.0009
vn -1.0000 0.0023 -0.0007
vn 1.0000 0.0024 -0.0007
vn 0.9997 0.0216 -0.0066
vn -0.0000 0.4267 0.9044
vn -0.9998 0.0214 -0.0065
vn -0.0000 -0.4240 -0.9056
vn -0.0000 -0.4236 -0.9059
vn 0.9988 0.0432 -0.0251
vt -44.216381 -17.675047
vt -44.215332 -17.675047
vt -44.215332 -17.673752
vt -44.216381 -17.673752
vt -44.383461 0.412302
vt -44.304005 0.412298
vt -44.303036 0.436374
vt -44.384438 0.436374
vt -44.118332 0.476430
vt -44.195686 0.476426
vt -44.195686 0.422727
vt -44.118336 0.422732
vt -44.026466 0.383548
vt -43.945393 0.383547
vt -43.945385 0.503543
vt -44.026463 0.503543
vt -44.028625 0.598868
vt -43.951263 0.598864
vt -43.951267 0.652566
vt -44.028625 0.652566
vt -44.151676 0.633369
vt -44.151676 0.719103
vt -44.186066 0.721084
vt -44.186062 0.631401
vt -44.612698 0.435437
vt -44.612694 0.411369
vt -44.580158 0.411369
vt -44.580063 0.458834
vt -44.351086 0.384909
vt -44.351086 0.502187
vt -44.604534 0.486319
vt -44.604527 0.400783
vt -44.481361 0.615916
vt -44.481365 0.736567
vt -44.767143 0.736568
vt -44.767147 0.615920
vt -44.299831 0.652566
vt -44.284824 0.598867
vt -44.294983 0.503543
vt -44.294991 0.383547
vt -43.862141 0.422733
vt -43.847134 0.476426
vt -43.793663 0.450941
vt -43.817516 0.469729
vt -43.832535 0.416075
vt -43.808613 0.397387
vt -44.450157 0.616263
vt -44.450157 0.736228
vt -44.425022 0.617213
vt -44.425018 0.735271
vt -44.329441 0.645869
vt -44.314430 0.592212
vt -44.353298 0.627082
vt -44.338345 0.573527
vt -44.326023 0.503190
vt -44.326019 0.383914
vt -43.566807 0.235231
vt -43.534279 0.235236
vt -43.534275 0.259306
vt -43.566906 0.282700
vt -44.638634 0.401926
vt -44.638626 0.485163
vt -44.383461 0.420114
vt -44.384430 0.396041
vt -44.303028 0.396042
vt -44.304008 0.420110
vt -44.645496 0.516689
vt -44.610363 0.514679
vt -44.610367 0.606328
vt -44.645500 0.604307
vt -43.534267 0.435437
vt -43.566887 0.458834
vt -43.566795 0.411369
vt -43.534260 0.411369
vt -43.795864 0.384909
vt -43.542427 0.400785
vt -43.542423 0.486315
vt -43.795868 0.502193
vt -44.308578 0.498850
vt -44.196442 0.498853
vt -44.196434 0.622145
vt -44.308586 0.622149
vt -43.847130 0.652570
vt -43.862137 0.598868
vt -43.851967 0.503543
vt -43.851971 0.383548
vt -44.284817 0.422733
vt -44.299820 0.476427
vt -44.353287 0.450941
vt -44.338345 0.397391
vt -44.314423 0.416073
vt -44.329441 0.469728
vt -44.340473 0.621798
vt -44.340473 0.499202
vt -44.366161 0.620821
vt -44.366161 0.500171
vt -43.832523 0.592211
vt -43.817513 0.645868
vt -43.808609 0.573527
vt -43.793659 0.627080
vt -43.820934 0.383908
vt -43.820930 0.503187
vt -44.580147 0.235231
vt -44.580051 0.282703
vt -44.612679 0.259306
vt -44.612679 0.235233
vt -43.508324 0.401931
vt -43.508324 0.485167
vt -44.703556 0.071471
vt -44.779129 0.189429
vt -44.779129 -0.100778
vt -44.703560 -0.005866
vt -44.589100 0.071471
vt -44.125992 0.189426
vt -44.589100 -0.005862
vt -44.125992 -0.100781
vt -44.303959 0.379768
vt -44.302982 0.403873
vt -44.384483 0.403873
vt -44.383503 0.379772
vt -44.028622 0.769442
vt -44.028622 0.715739
vt -43.951271 0.715742
vt -43.951263 0.769442
vt -44.026463 0.796557
vt -44.026470 0.676566
vt -43.945393 0.676566
vt -43.945389 0.796556
vt -44.618023 0.830171
vt -44.618023 0.883880
vt -44.695381 0.883877
vt -44.695385 0.830175
vt -44.151649 0.661244
vt -44.186035 0.663217
vt -44.186031 0.573522
vt -44.151646 0.575494
vt -44.033958 0.666740
vt -44.066589 0.690137
vt -44.066494 0.642676
vt -44.033958 0.642672
vt -44.351086 0.795198
vt -44.604523 0.779337
vt -44.604519 0.693800
vt -44.351086 0.677926
vt -44.481365 0.678699
vt -44.767181 0.678697
vt -44.767174 0.558036
vt -44.481365 0.558040
vt -44.346821 0.883876
vt -44.361828 0.830175
vt -44.294983 0.676566
vt -44.294983 0.796562
vt -44.284817 0.715739
vt -44.299831 0.769445
vt -44.353294 0.743951
vt -44.338348 0.690404
vt -44.314434 0.709086
vt -44.329441 0.762744
vt -44.450153 0.558374
vt -44.450157 0.678353
vt -44.425014 0.559332
vt -44.425014 0.677401
vt -44.332218 0.823515
vt -44.317204 0.877176
vt -44.308300 0.804835
vt -44.293358 0.858389
vt -44.326012 0.796203
vt -44.326019 0.676920
vt -44.580158 0.528241
vt -44.580059 0.575713
vt -44.612690 0.552313
vt -44.612690 0.528244
vt -44.638618 0.778178
vt -44.638622 0.694945
vt -44.304008 0.387601
vt -44.383461 0.387605
vt -44.384438 0.363528
vt -44.303036 0.363528
vt -44.645561 0.546438
vt -44.645554 0.458793
vt -44.610409 0.456778
vt -44.610409 0.548453
vt -45.112381 0.666735
vt -45.112389 0.642675
vt -45.079853 0.642676
vt -45.079758 0.690137
vt -43.795872 0.795194
vt -43.795868 0.677925
vt -43.542431 0.693797
vt -43.542439 0.779337
vt -44.308552 0.564285
vt -44.308552 0.440960
vt -44.196381 0.440959
vt -44.196381 0.564284
vt -44.799522 0.883878
vt -44.784512 0.830171
vt -43.851971 0.676562
vt -43.851971 0.796560
vt -43.862133 0.715743
vt -43.847134 0.769445
vt -43.793655 0.743952
vt -43.817509 0.762744
vt -43.832523 0.709083
vt -43.808605 0.690403
vt -44.340450 0.563933
vt -44.340458 0.441304
vt -44.366146 0.562963
vt -44.366146 0.442281
vt -44.829140 0.877176
vt -44.814125 0.823518
vt -44.852993 0.858389
vt -44.838043 0.804839
vt -43.820942 0.676919
vt -43.820938 0.796207
vt -43.566799 0.528242
vt -43.534264 0.528242
vt -43.534264 0.552313
vt -43.566891 0.575709
vt -43.508335 0.778182
vt -43.508331 0.694946
vt -43.548431 0.071475
vt -43.548435 -0.005866
vt -43.472870 -0.100778
vt -43.472870 0.189429
vt -43.662888 0.071475
vt -43.662891 -0.005862
vt -44.246738 0.480130
vt -44.536892 0.480130
vt -44.536888 0.446631
vt -44.246735 0.446632
vt -44.125996 0.108573
vt -43.472878 0.108568
vt -43.472874 0.142078
vt -44.125999 0.142082
vt -43.472870 0.303400
vt -44.125999 0.303399
vt -44.125992 0.269889
vt -43.472870 0.269892
vt -44.536892 0.426015
vt -44.246738 0.426024
vt -44.246735 0.459525
vt -44.536888 0.459525
vt -44.779114 0.108569
vt -44.779118 0.142082
vt -44.779121 0.303396
vt -44.779129 0.269893
vt -44.779121 0.060703
vt -44.125999 0.060706
vt -44.125996 0.350914
vt -44.779121 0.350912
vt -43.472870 0.060706
vt -43.472874 0.350911
s 1
usemtl M_TelevisionStand_8_0
f 1/1/1 2/2/1 4/3/1 3/4/1
f 42/5/2 44/6/2 22/7/2 21/8/2
f 24/9/3 50/10/3 51/11/3 25/12/3
f 25/13/4 51/14/4 52/15/4 26/16/4
f 26/17/5 52/18/5 49/19/5 23/20/5
f 21/21/6 22/22/6 45/23/7 46/24/7
f 22/25/8 44/26/8 43/27/9 45/28/10
f 38/29/11 35/30/11 43/31/12 41/32/12
f 31/33/13 34/34/13 23/35/1 24/36/1
f 34/37/14 37/38/15 26/17/5 23/20/5
f 37/39/16 40/40/17 25/13/4 26/16/4
f 40/41/18 31/42/19 24/9/3 25/12/3
f 29/43/20 30/44/21 39/45/22 38/46/23
f 30/44/21 31/42/19 40/41/18 39/45/22
f 31/33/13 30/47/24 33/48/25 34/34/13
f 30/47/24 29/49/26 32/50/26 33/48/25
f 34/37/14 33/51/27 36/52/28 37/38/15
f 33/51/27 32/53/29 35/54/30 36/52/28
f 37/39/16 36/55/31 39/56/32 40/40/17
f 36/55/31 35/30/11 38/29/11 39/56/32
f 41/57/33 42/58/34 21/59/34 46/60/35
f 42/61/4 41/32/4 43/31/4 44/62/4
f 46/24/7 45/23/7 32/50/26 29/49/26
f 45/28/10 43/27/9 35/54/30 32/53/29
f 41/57/33 46/60/35 29/43/20 38/46/23
f 68/63/36 47/64/36 48/65/36 70/66/36
f 47/67/37 72/68/38 71/69/38 48/70/37
f 48/71/39 71/72/40 69/73/41 70/74/39
f 64/75/42 67/76/43 69/77/43 61/78/42
f 57/79/44 50/80/1 49/81/1 60/82/44
f 60/83/45 49/19/5 52/18/5 63/84/46
f 63/85/47 52/15/4 51/14/4 66/86/48
f 66/87/49 51/11/3 50/10/3 57/88/50
f 55/89/51 64/90/52 65/91/53 56/92/54
f 56/92/54 65/91/53 66/87/49 57/88/50
f 57/79/44 60/82/44 59/93/55 56/94/56
f 56/94/56 59/93/55 58/95/57 55/96/57
f 60/83/45 63/84/46 62/97/58 59/98/59
f 59/98/59 62/97/58 61/99/60 58/100/61
f 63/85/47 66/86/48 65/101/62 62/102/63
f 62/102/63 65/101/62 64/75/42 61/78/42
f 67/103/64 72/104/65 47/105/66 68/106/66
f 68/107/4 70/108/4 69/77/4 67/76/4
f 72/68/38 55/96/57 58/95/57 71/69/38
f 71/72/40 58/100/61 61/99/60 69/73/41
f 67/103/64 64/90/52 55/89/51 72/104/65
f 86/109/67 89/110/67 90/111/67 88/112/67
f 85/113/67 91/114/67 89/110/67 86/109/67
f 87/115/67 92/116/67 91/114/67 85/113/67
f 88/112/67 90/111/67 92/116/67 87/115/67
f 114/117/2 93/118/2 94/119/2 116/120/2
f 96/121/5 97/122/5 123/123/5 122/124/5
f 97/125/4 98/126/4 124/127/4 123/128/4
f 98/129/3 95/130/3 121/131/3 124/132/3
f 93/133/6 118/134/7 117/135/7 94/136/6
f 94/137/34 117/138/35 115/139/68 116/140/34
f 110/141/11 113/142/12 115/143/12 107/144/11
f 103/145/13 96/146/1 95/147/1 106/148/13
f 106/149/19 95/130/3 98/129/3 109/150/69
f 109/151/70 98/126/4 97/125/4 112/152/16
f 112/153/71 97/122/5 96/121/5 103/154/14
f 101/155/29 110/156/72 111/157/73 102/158/27
f 102/158/27 111/157/73 112/153/71 103/154/14
f 103/145/13 106/148/13 105/159/74 102/160/25
f 102/160/25 105/159/74 104/161/26 101/162/26
f 106/149/19 109/150/69 108/163/75 105/164/76
f 105/164/76 108/163/75 107/165/23 104/166/20
f 109/151/70 112/152/16 111/167/77 108/168/32
f 108/168/32 111/167/77 110/141/11 107/144/11
f 113/169/9 118/170/78 93/171/8 114/172/8
f 114/173/4 116/174/4 115/143/4 113/142/4
f 118/134/7 101/162/26 104/161/26 117/135/7
f 117/138/35 104/166/20 107/165/23 115/139/68
f 113/169/9 110/156/72 101/155/29 118/170/78
f 140/175/36 142/176/36 120/177/36 119/178/36
f 119/179/37 120/180/37 143/181/38 144/182/38
f 120/183/66 142/184/66 141/185/79 143/186/80
f 136/187/42 133/188/42 141/189/43 139/190/43
f 129/191/44 132/192/44 121/193/1 122/194/1
f 132/195/81 135/196/82 124/132/3 121/131/3
f 135/197/48 138/198/47 123/128/4 124/127/4
f 138/199/83 129/200/45 122/124/5 123/123/5
f 127/201/61 128/202/59 137/203/84 136/204/60
f 128/202/59 129/200/45 138/199/83 137/203/84
f 129/191/44 128/205/85 131/206/85 132/192/44
f 128/205/85 127/207/57 130/208/57 131/206/85
f 132/195/81 131/209/54 134/210/86 135/196/82
f 131/209/54 130/211/51 133/212/52 134/210/86
f 135/197/48 134/213/87 137/214/88 138/198/47
f 134/213/87 133/188/42 136/187/42 137/214/88
f 139/215/41 140/216/39 119/217/39 144/218/89
f 140/219/4 139/190/4 141/189/4 142/220/4
f 144/182/38 143/181/38 130/208/57 127/207/57
f 143/186/80 141/185/79 133/212/52 130/211/51
f 139/215/41 144/218/89 127/201/61 136/204/60
f 158/221/67 160/222/67 162/223/67 161/224/67
f 157/225/67 158/221/67 161/224/67 91/114/67
f 159/226/67 157/225/67 91/114/67 92/116/67
f 160/222/67 159/226/67 92/116/67 162/223/67
f 161/227/5 162/228/5 164/229/5 163/230/5
f 91/231/4 161/232/4 163/233/4 165/234/4
f 162/235/1 92/236/1 166/237/1 164/238/1
f 90/239/3 89/240/3 167/241/3 168/242/3
f 89/243/4 91/231/4 165/234/4 167/244/4
f 92/236/1 90/245/1 168/246/1 166/237/1
f 167/247/2 165/248/2 166/249/2 168/250/2
f 165/248/2 163/251/2 164/252/2 166/249/2
