# Blender 4.1.0
# www.blender.org
mtllib AlarmClockButton_19_AlarmClockButton_19_1_GeomSubset_0.mtl
o AlarmClockButton_19_AlarmClockButton_19_1_GeomSubset_0
v -0.000500 -0.000500 -0.306432
v 0.000500 -0.000500 -0.306432
v -0.000500 0.000500 -0.306432
v 0.000500 0.000500 -0.306432
v -0.000500 -0.000500 -0.306432
v 0.000500 -0.000500 -0.306432
v -0.000500 0.000500 -0.306432
v 0.000500 0.000500 -0.306432
v -0.000500 -0.000500 -0.306432
v 0.000500 -0.000500 -0.306432
v -0.000500 0.000500 -0.306432
v 0.000500 0.000500 -0.306432
v -0.000500 -0.000500 -0.306432
v 0.000500 -0.000500 -0.306432
v -0.000500 0.000500 -0.306432
v 0.000500 0.000500 -0.306432
v -0.000500 -0.000500 -0.306432
v 0.000500 -0.000500 -0.306432
v -0.000500 0.000500 -0.306432
v 0.000500 0.000500 -0.306432
v -0.067163 -0.023144 0.055653
v -0.063805 -0.026742 0.055653
v -0.063805 -0.023144 0.057115
v 0.063805 -0.023144 0.057115
v 0.063805 -0.026742 0.055653
v 0.067163 -0.023144 0.055653
v -0.067163 0.020538 0.055653
v -0.063805 0.020538 0.057115
v -0.063805 0.024137 0.055653
v 0.063805 0.024137 0.055653
v 0.063805 0.020538 0.057115
v 0.067163 0.020538 0.055653
v -0.063805 -0.026742 0.042493
v -0.067163 -0.023144 0.042493
v 0.067163 -0.023144 0.042493
v 0.063805 -0.026742 0.042493
v -0.067163 0.020538 0.042493
v -0.063805 0.024137 0.042493
v 0.063805 0.024137 0.042493
v 0.067163 0.020538 0.042493
vn -0.0000 -0.0000 1.0000
vt -20.436859 -5.071916
vt -20.436859 -6.067932
vt -19.441111 -6.067932
vt -19.441111 -5.071916
s 1
usemtl M_AlarmClockButton_19_0
f 1/1/1 2/2/1 4/3/1 3/4/1
