# Blender 4.1.1
# www.blender.org
mtllib LightSwitchDial_14_LightSwitchDial_14_1_GeomSubset_2.mtl
o LightSwitchDial_14_LightSwitchDial_14_1_GeomSubset_2
v 0.002233 0.055594 -0.001247
v 0.001233 0.055594 -0.001247
v 0.002233 0.056594 -0.001247
v 0.001233 0.056594 -0.001247
v 0.002233 0.055594 -0.001247
v 0.001233 0.055594 -0.001247
v 0.002233 0.056594 -0.001247
v 0.001233 0.056594 -0.001247
v 0.002233 0.055594 -0.001247
v 0.001233 0.055594 -0.001247
v 0.002233 0.056594 -0.001247
v 0.001233 0.056594 -0.001247
v -0.018790 0.007261 0.007254
v -0.013975 0.007261 0.014461
v -0.006768 0.007261 0.019276
v 0.001733 0.007261 0.020967
v 0.010234 0.007261 0.019276
v 0.017441 0.007261 0.014461
v 0.022256 0.007261 0.007254
v 0.023947 0.007261 -0.001247
v 0.022256 0.007261 -0.009748
v 0.017441 0.007261 -0.016955
v 0.010234 0.007261 -0.021770
v 0.001733 0.007261 -0.023461
v -0.006768 0.007261 -0.021770
v -0.013975 0.007261 -0.016955
v -0.018790 0.007261 -0.009748
v -0.020481 0.007261 -0.001247
v -0.001482 -0.002275 -0.001247
v 0.001733 -0.002427 -0.001247
v 0.001733 -0.002275 -0.004462
v -0.000541 -0.002275 -0.003520
v 0.001733 -0.002275 0.001968
v -0.000541 -0.002275 0.001026
v 0.004006 -0.002275 0.001026
v 0.004948 -0.002275 -0.001247
v 0.004006 -0.002275 -0.003520
v 0.001733 -0.001315 -0.009499
v 0.001733 -0.001854 -0.007087
v -0.004103 -0.001315 -0.007082
v -0.002397 -0.001854 -0.005376
v -0.006520 -0.001315 -0.001247
v -0.004107 -0.001854 -0.001247
v -0.004103 -0.001315 0.004588
v -0.002397 -0.001854 0.002882
v 0.001733 -0.001315 0.007005
v 0.001733 -0.001854 0.004593
v 0.007568 -0.001315 0.004588
v 0.005862 -0.001854 0.002882
v 0.009985 -0.001315 -0.001247
v 0.007572 -0.001854 -0.001247
v 0.007568 -0.001315 -0.007082
v 0.005862 -0.001854 -0.005376
v 0.010743 -0.000658 0.007763
v 0.009024 -0.000867 0.006045
v 0.001733 -0.000658 0.011495
v 0.001733 -0.000867 0.009065
v 0.014475 -0.000658 -0.001247
v 0.012045 -0.000867 -0.001247
v 0.010743 -0.000658 -0.010257
v 0.009024 -0.000867 -0.008538
v 0.001733 -0.000658 -0.013989
v 0.001733 -0.000867 -0.011559
v -0.007277 -0.000658 -0.010257
v -0.005559 -0.000867 -0.008538
v -0.011010 -0.000658 -0.001247
v -0.008579 -0.000867 -0.001247
v -0.007277 -0.000658 0.007763
v -0.005559 -0.000867 0.006044
v -0.009143 -0.000658 0.003258
v -0.007069 -0.000867 0.002399
v -0.005311 -0.001315 0.001671
v -0.003252 -0.001854 0.000818
v -0.001011 -0.002275 -0.000110
v 0.001733 -0.002427 0.000361
v 0.004477 -0.002275 -0.000110
v 0.006717 -0.001854 0.000818
v 0.008777 -0.001315 0.001671
v 0.010534 -0.000867 0.002399
v 0.012609 -0.000658 0.003258
v -0.009143 -0.000658 -0.005752
v -0.007069 -0.000867 -0.004893
v -0.005311 -0.001315 -0.004165
v -0.003252 -0.001854 -0.003312
v -0.001011 -0.002275 -0.002384
v 0.001733 -0.002427 -0.002854
v 0.004477 -0.002275 -0.002384
v 0.006717 -0.001854 -0.003312
v 0.008777 -0.001315 -0.004165
v 0.010534 -0.000867 -0.004893
v 0.012609 -0.000658 -0.005752
v -0.002772 -0.000658 0.009629
v -0.001913 -0.000867 0.007555
v -0.001185 -0.001315 0.005797
v -0.000332 -0.001854 0.003738
v 0.000596 -0.002275 0.001497
v 0.000361 -0.002427 0.000125
v 0.000125 -0.002427 -0.001247
v 0.000361 -0.002427 -0.002619
v 0.000596 -0.002275 -0.003991
v -0.000332 -0.001854 -0.006231
v -0.001185 -0.001315 -0.008291
v -0.001913 -0.000867 -0.010049
v -0.002772 -0.000658 -0.012123
v 0.006238 -0.000658 0.009629
v 0.005379 -0.000867 0.007555
v 0.004650 -0.001315 0.005797
v 0.003797 -0.001854 0.003738
v 0.002869 -0.002275 0.001497
v 0.003105 -0.002427 0.000125
v 0.003340 -0.002427 -0.001247
v 0.003105 -0.002427 -0.002619
v 0.002869 -0.002275 -0.003991
v 0.003797 -0.001854 -0.006231
v 0.004650 -0.001315 -0.008291
v 0.005379 -0.000867 -0.010049
v 0.006238 -0.000658 -0.012123
v -0.018790 0.000134 0.007254
v -0.018044 -0.000658 0.006945
v -0.013975 0.000134 0.014461
v -0.013404 -0.000658 0.013890
v -0.006768 0.000134 0.019276
v -0.006459 -0.000658 0.018530
v 0.001733 0.000134 0.020967
v 0.001733 -0.000658 0.020160
v 0.010234 0.000134 0.019276
v 0.009925 -0.000658 0.018530
v 0.017441 0.000134 0.014461
v 0.016870 -0.000658 0.013890
v 0.022256 0.000134 0.007254
v 0.021510 -0.000658 0.006945
v 0.023947 0.000134 -0.001247
v 0.023139 -0.000658 -0.001247
v 0.022256 0.000134 -0.009748
v 0.021510 -0.000658 -0.009439
v 0.017441 0.000134 -0.016955
v 0.016870 -0.000658 -0.016384
v 0.010234 0.000134 -0.021770
v 0.009925 -0.000658 -0.021024
v 0.001733 0.000134 -0.023461
v 0.001733 -0.000658 -0.022654
v -0.006768 0.000134 -0.021770
v -0.006459 -0.000658 -0.021024
v -0.013975 0.000134 -0.016955
v -0.013404 -0.000658 -0.016384
v -0.018790 0.000134 -0.009748
v -0.018044 -0.000658 -0.009439
v -0.020481 0.000134 -0.001247
v -0.019674 -0.000658 -0.001247
v 0.004413 -0.001561 0.018836
v 0.004793 -0.001561 0.018457
v 0.004413 -0.001941 0.018457
v 0.004793 -0.000409 0.018457
v 0.004413 -0.000409 0.018836
v 0.004413 -0.001941 0.013516
v 0.004793 -0.001561 0.013516
v 0.004413 -0.001561 0.013137
v 0.004413 -0.000409 0.013137
v 0.004793 -0.000409 0.013516
v -0.000757 -0.001941 0.013516
v -0.000757 -0.001561 0.013137
v -0.001137 -0.001561 0.013516
v -0.001137 -0.000409 0.013516
v -0.000757 -0.000409 0.013137
v -0.000757 -0.001941 0.018457
v -0.001137 -0.001561 0.018457
v -0.000757 -0.001561 0.018836
v -0.000757 -0.000409 0.018836
v -0.001137 -0.000409 0.018457
v -0.009737 -0.001561 0.009282
v -0.010274 -0.001561 0.009282
v -0.010005 -0.001941 0.009550
v -0.010274 -0.000409 0.009282
v -0.009737 -0.000409 0.009282
v -0.013200 -0.001941 0.012745
v -0.013468 -0.001561 0.012476
v -0.013468 -0.001561 0.013014
v -0.013468 -0.000409 0.013014
v -0.013468 -0.000409 0.012476
v -0.012394 -0.001941 0.013551
v -0.012663 -0.001561 0.013819
v -0.012126 -0.001561 0.013819
v -0.012126 -0.000409 0.013819
v -0.012663 -0.000409 0.013819
v -0.009199 -0.001941 0.010356
v -0.008931 -0.001561 0.010625
v -0.008931 -0.001561 0.010088
v -0.008931 -0.000409 0.010088
v -0.008931 -0.000409 0.010625
v -0.013822 -0.001561 -0.001912
v -0.014202 -0.001561 -0.002292
v -0.014202 -0.001941 -0.001912
v -0.014202 -0.000409 -0.002292
v -0.013822 -0.000409 -0.001912
v -0.018720 -0.001941 -0.001912
v -0.018720 -0.001561 -0.002292
v -0.019100 -0.001561 -0.001912
v -0.019100 -0.000409 -0.001912
v -0.018720 -0.000409 -0.002292
v -0.018720 -0.001941 -0.000773
v -0.019100 -0.001561 -0.000773
v -0.018720 -0.001561 -0.000393
v -0.018720 -0.000409 -0.000393
v -0.019100 -0.000409 -0.000773
v -0.014202 -0.001941 -0.000773
v -0.014202 -0.001561 -0.000393
v -0.013822 -0.001561 -0.000773
v -0.013822 -0.000409 -0.000773
v -0.014202 -0.000409 -0.000393
v -0.008796 -0.001561 -0.012716
v -0.008796 -0.001561 -0.013253
v -0.009065 -0.001941 -0.012985
v -0.008796 -0.000409 -0.013253
v -0.008796 -0.000409 -0.012716
v -0.012259 -0.001941 -0.016179
v -0.011991 -0.001561 -0.016448
v -0.012528 -0.001561 -0.016448
v -0.012528 -0.000409 -0.016448
v -0.011991 -0.000409 -0.016448
v -0.013065 -0.001941 -0.015374
v -0.013333 -0.001561 -0.015642
v -0.013333 -0.001561 -0.015105
v -0.013333 -0.000409 -0.015105
v -0.013333 -0.000409 -0.015642
v -0.009870 -0.001941 -0.012179
v -0.010139 -0.001561 -0.011911
v -0.009602 -0.001561 -0.011911
v -0.009602 -0.000409 -0.011911
v -0.010139 -0.000409 -0.011911
v 0.002398 -0.001561 -0.016802
v 0.002778 -0.001561 -0.017182
v 0.002398 -0.001941 -0.017182
v 0.002778 -0.000409 -0.017182
v 0.002398 -0.000409 -0.016802
v 0.002398 -0.001941 -0.021700
v 0.002778 -0.001561 -0.021700
v 0.002398 -0.001561 -0.022079
v 0.002398 -0.000409 -0.022079
v 0.002778 -0.000409 -0.021700
v 0.001258 -0.001941 -0.021700
v 0.001258 -0.001561 -0.022079
v 0.000879 -0.001561 -0.021700
v 0.000879 -0.000409 -0.021700
v 0.001258 -0.000409 -0.022079
v 0.001258 -0.001941 -0.017182
v 0.000879 -0.001561 -0.017182
v 0.001258 -0.001561 -0.016802
v 0.001258 -0.000409 -0.016802
v 0.000879 -0.000409 -0.017182
v 0.013202 -0.001561 -0.011776
v 0.013739 -0.001561 -0.011776
v 0.013471 -0.001941 -0.012044
v 0.013739 -0.000409 -0.011776
v 0.013202 -0.000409 -0.011776
v 0.016665 -0.001941 -0.015239
v 0.016934 -0.001561 -0.014970
v 0.016934 -0.001561 -0.015507
v 0.016934 -0.000409 -0.015507
v 0.016934 -0.000409 -0.014970
v 0.015860 -0.001941 -0.016045
v 0.016128 -0.001561 -0.016313
v 0.015591 -0.001561 -0.016313
v 0.015591 -0.000409 -0.016313
v 0.016128 -0.000409 -0.016313
v 0.012665 -0.001941 -0.012850
v 0.012396 -0.001561 -0.013119
v 0.012396 -0.001561 -0.012582
v 0.012396 -0.000409 -0.012582
v 0.012396 -0.000409 -0.013119
v 0.017288 -0.001561 -0.000582
v 0.017668 -0.001561 -0.000202
v 0.017668 -0.001941 -0.000582
v 0.017668 -0.000409 -0.000202
v 0.017288 -0.000409 -0.000582
v 0.022185 -0.001941 -0.000582
v 0.022185 -0.001561 -0.000202
v 0.022565 -0.001561 -0.000582
v 0.022565 -0.000409 -0.000582
v 0.022185 -0.000409 -0.000202
v 0.022185 -0.001941 -0.001721
v 0.022565 -0.001561 -0.001721
v 0.022185 -0.001561 -0.002101
v 0.022185 -0.000409 -0.002101
v 0.022565 -0.000409 -0.001721
v 0.017668 -0.001941 -0.001721
v 0.017668 -0.001561 -0.002101
v 0.017288 -0.001561 -0.001721
v 0.017288 -0.000409 -0.001721
v 0.017668 -0.000409 -0.002101
v 0.012262 -0.001561 0.010222
v 0.012262 -0.001561 0.010759
v 0.012530 -0.001941 0.010491
v 0.012262 -0.000409 0.010759
v 0.012262 -0.000409 0.010222
v 0.015725 -0.001941 0.013686
v 0.015456 -0.001561 0.013954
v 0.015993 -0.001561 0.013954
v 0.015993 -0.000409 0.013954
v 0.015456 -0.000409 0.013954
v 0.016530 -0.001941 0.012880
v 0.016799 -0.001561 0.013148
v 0.016799 -0.001561 0.012611
v 0.016799 -0.000409 0.012611
v 0.016799 -0.000409 0.013148
v 0.013336 -0.001941 0.009685
v 0.013604 -0.001561 0.009417
v 0.013067 -0.001561 0.009417
v 0.013067 -0.000409 0.009417
v 0.013604 -0.000409 0.009417
vn -0.0000 -0.0000 -1.0000
vt 1.214318 0.732326
vt 1.214318 0.728044
vt 1.218599 0.728044
vt 1.218599 0.732326
s 1
usemtl M_LightSwitchDial_14_2
f 9/1/1 10/2/1 12/3/1 11/4/1
