# Blender 4.1.0
# www.blender.org
mtllib MeshTelevisionStand_18_1_GeomSubset_2.mtl
o MeshTelevisionStand_18_1_GeomSubset_2
v -0.000582 -0.039638 0.040933
v 0.000582 -0.039638 0.040933
v -0.000582 -0.038198 0.040933
v 0.000582 -0.038198 0.040933
v -0.000582 -0.039638 0.040933
v 0.000582 -0.039638 0.040933
v -0.000582 -0.038198 0.040933
v 0.000582 -0.038198 0.040933
v -0.000582 -0.039638 0.040933
v 0.000582 -0.039638 0.040933
v -0.000582 -0.038198 0.040933
v 0.000582 -0.038198 0.040933
v -0.000582 -0.039638 0.040933
v 0.000582 -0.039638 0.040933
v -0.000582 -0.038198 0.040933
v 0.000582 -0.038198 0.040933
v -0.000582 -0.039638 0.040933
v 0.000582 -0.039638 0.040933
v -0.000582 -0.038198 0.040933
v 0.000582 -0.038198 0.040933
v -0.287232 -0.277403 -0.408215
v -0.245586 -0.277403 -0.408215
v -0.237108 0.021547 -0.297076
v -0.295710 0.021547 -0.297076
v -0.295710 0.021548 -0.324565
v -0.237108 0.021548 -0.324565
v -0.237108 0.021547 -0.013312
v -0.295710 0.021547 -0.013312
v -0.295082 -0.144633 -0.310123
v -0.295545 -0.132424 -0.300505
v -0.295710 -0.117266 -0.297076
v -0.237736 -0.144633 -0.310123
v -0.237273 -0.132424 -0.300505
v -0.237108 -0.117266 -0.297076
v -0.237774 -0.136981 -0.337532
v -0.237283 -0.124740 -0.327971
v -0.237108 -0.109584 -0.324565
v -0.295044 -0.136981 -0.337532
v -0.295535 -0.124740 -0.327971
v -0.295710 -0.109584 -0.324565
v -0.287295 -0.260750 -0.420532
v -0.286733 -0.277403 -0.420532
v -0.245523 -0.260750 -0.420532
v -0.246085 -0.277403 -0.420532
v -0.244628 -0.260702 -0.396238
v -0.288190 -0.260702 -0.396238
v -0.287232 0.274581 -0.408215
v -0.245586 0.274581 -0.408215
v -0.237108 0.061142 -0.297076
v -0.295710 0.061142 -0.297076
v -0.295710 0.061142 -0.324565
v -0.237108 0.061142 -0.324565
v -0.237108 0.061142 -0.013312
v -0.295710 0.061142 -0.013312
v -0.295082 0.141812 -0.310123
v -0.295545 0.129604 -0.300505
v -0.295710 0.114445 -0.297076
v -0.237736 0.141812 -0.310123
v -0.237273 0.129604 -0.300505
v -0.237108 0.114445 -0.297076
v -0.237774 0.134161 -0.337532
v -0.237283 0.121919 -0.327971
v -0.237108 0.106764 -0.324565
v -0.295044 0.134161 -0.337532
v -0.295535 0.121919 -0.327971
v -0.295710 0.106764 -0.324565
v -0.287295 0.257928 -0.420532
v -0.286733 0.274582 -0.420532
v -0.245523 0.257928 -0.420532
v -0.246085 0.274582 -0.420532
v -0.244628 0.257881 -0.396238
v -0.288190 0.257881 -0.396238
v -0.237108 0.017791 0.007257
v -0.295710 0.017791 0.007257
v -0.237108 0.056309 0.016429
v -0.295710 0.056309 0.016429
v -0.237108 0.009315 0.022598
v -0.295710 0.009315 0.022598
v -0.237108 0.040213 0.047358
v -0.295710 0.040213 0.047358
v -0.237108 -0.006750 0.037582
v -0.295710 -0.006750 0.037582
v -0.237108 0.009767 0.073567
v -0.295710 0.009767 0.073567
v -0.237108 -0.028783 0.041788
v -0.295710 -0.028783 0.041788
v -0.237108 -0.028782 0.081382
v -0.295710 -0.028782 0.081382
v -0.334400 -0.028783 -0.018605
v -0.334400 -0.028782 0.129981
v 0.000000 -0.028783 -0.018605
v 0.000000 -0.028782 0.129981
v 0.287232 -0.277403 -0.408215
v 0.245586 -0.277403 -0.408215
v 0.237109 0.021547 -0.297076
v 0.295710 0.021547 -0.297076
v 0.295710 0.021548 -0.324565
v 0.237109 0.021548 -0.324565
v 0.237109 0.021547 -0.013312
v 0.295710 0.021547 -0.013312
v 0.295082 -0.144633 -0.310123
v 0.295545 -0.132424 -0.300505
v 0.295710 -0.117266 -0.297076
v 0.237736 -0.144633 -0.310123
v 0.237273 -0.132424 -0.300505
v 0.237109 -0.117266 -0.297076
v 0.237774 -0.136981 -0.337532
v 0.237283 -0.124740 -0.327971
v 0.237109 -0.109584 -0.324565
v 0.295044 -0.136981 -0.337532
v 0.295535 -0.124740 -0.327971
v 0.295710 -0.109584 -0.324565
v 0.287295 -0.260750 -0.420532
v 0.286733 -0.277403 -0.420532
v 0.245522 -0.260750 -0.420532
v 0.246085 -0.277403 -0.420532
v 0.244628 -0.260702 -0.396238
v 0.288190 -0.260702 -0.396238
v 0.287232 0.274581 -0.408215
v 0.245586 0.274581 -0.408215
v 0.237109 0.061142 -0.297076
v 0.295710 0.061142 -0.297076
v 0.295710 0.061142 -0.324565
v 0.237109 0.061142 -0.324565
v 0.237109 0.061142 -0.013312
v 0.295710 0.061142 -0.013312
v 0.295082 0.141812 -0.310123
v 0.295545 0.129604 -0.300505
v 0.295710 0.114445 -0.297076
v 0.237736 0.141812 -0.310123
v 0.237273 0.129604 -0.300505
v 0.237109 0.114445 -0.297076
v 0.237774 0.134161 -0.337532
v 0.237283 0.121919 -0.327971
v 0.237109 0.106764 -0.324565
v 0.295044 0.134161 -0.337532
v 0.295535 0.121919 -0.327971
v 0.295710 0.106764 -0.324565
v 0.287295 0.257928 -0.420532
v 0.286733 0.274582 -0.420532
v 0.245522 0.257928 -0.420532
v 0.246085 0.274582 -0.420532
v 0.244628 0.257881 -0.396238
v 0.288190 0.257881 -0.396238
v 0.237109 0.017791 0.007257
v 0.295710 0.017791 0.007257
v 0.237109 0.056309 0.016429
v 0.295710 0.056309 0.016429
v 0.237109 0.009315 0.022598
v 0.295710 0.009315 0.022598
v 0.237109 0.040213 0.047358
v 0.295710 0.040213 0.047358
v 0.237109 -0.006750 0.037582
v 0.295710 -0.006750 0.037582
v 0.237109 0.009767 0.073567
v 0.295710 0.009767 0.073567
v 0.237109 -0.028783 0.041788
v 0.295710 -0.028783 0.041788
v 0.237109 -0.028782 0.081382
v 0.295710 -0.028782 0.081382
v 0.334400 -0.028783 -0.018605
v 0.334400 -0.028782 0.129981
v 0.334400 -0.045940 -0.018605
v 0.334400 -0.045940 0.129981
v 0.000000 -0.045941 -0.018605
v 0.000000 -0.045940 0.129981
v -0.334400 -0.045940 -0.018605
v -0.334400 -0.045940 0.129981
vn -0.0000 -0.0000 1.0000
vt -19.021601 -17.429008
vt -19.020823 -17.429008
vt -19.020823 -17.428045
vt -19.021601 -17.428045
s 1
usemtl M_TelevisionStand_18_2
f 9/1/1 10/2/1 12/3/1 11/4/1
