# Blender 4.1.0
# www.blender.org
mtllib Fp314_Studydesk3Desk_314_0.mtl
o Desk_314
v -0.864388 -0.348919 0.241206
v -0.864390 0.368227 0.241206
v -0.864390 0.368227 0.321964
v -0.864388 -0.348919 0.321964
v -0.009632 0.368229 0.241206
v -0.009632 0.368229 0.321964
v -0.009631 -0.348917 0.241206
v -0.009631 -0.348917 0.321964
v -0.859362 -0.348919 0.245451
v -0.859362 -0.364129 0.245451
v -0.014655 -0.364125 0.245451
v -0.014656 -0.348917 0.245451
v 0.814083 -0.382538 0.327115
v -0.891817 -0.382543 0.327115
v -0.891817 -0.382543 0.379310
v 0.814083 -0.382538 0.379310
v 0.817174 0.376896 0.327115
v 0.817176 -0.379121 0.327115
v 0.817176 -0.379121 0.379310
v 0.817174 0.376896 0.379310
v 0.814080 0.376896 0.384114
v 0.814083 -0.379121 0.384114
v -0.891817 -0.379126 0.384114
v -0.891819 0.376892 0.384114
v -0.894910 -0.379126 0.327115
v -0.894913 0.376892 0.327115
v -0.894913 0.376892 0.379310
v -0.894910 -0.379127 0.379310
v -0.891819 0.380308 0.327115
v 0.814080 0.380312 0.327115
v 0.814080 0.380312 0.379310
v -0.891819 0.380308 0.379310
v -0.864272 -0.361000 -0.537891
v -0.879808 -0.361000 -0.537891
v -0.879808 -0.361000 0.321977
v -0.864271 -0.361000 0.321977
v -0.864273 0.377165 -0.540295
v -0.879811 0.377166 -0.540295
v -0.879808 -0.357858 -0.540295
v -0.864271 -0.357858 -0.540295
v -0.864272 0.380308 0.321977
v -0.879811 0.380308 0.321977
v -0.879811 0.380309 -0.537891
v -0.864273 0.380308 -0.537891
v -0.864271 -0.357858 0.324380
v -0.879808 -0.357858 0.324380
v -0.879811 0.377166 0.324380
v -0.864273 0.377165 0.324380
v -0.882654 -0.357858 -0.537891
v -0.882656 0.377166 -0.537891
v -0.882656 0.377165 0.321977
v -0.882654 -0.357858 0.321977
v 0.007110 -0.360996 -0.538254
v -0.009285 -0.360998 -0.538254
v -0.009285 -0.360998 0.322339
v 0.007110 -0.360996 0.322339
v 0.007108 0.377641 -0.540295
v -0.009287 0.377643 -0.540295
v -0.009284 -0.358329 -0.540295
v 0.007110 -0.358329 -0.540295
v 0.007108 0.380310 0.322339
v -0.009287 0.380311 0.322339
v -0.009287 0.380311 -0.538254
v 0.007108 0.380311 -0.538254
v 0.007110 -0.358329 0.324380
v -0.009284 -0.358329 0.324380
v -0.009287 0.377643 0.324380
v 0.007108 0.377643 0.324380
v -0.011701 -0.358329 -0.538254
v -0.011704 0.377643 -0.538254
v -0.011704 0.377643 0.322339
v -0.011701 -0.358329 0.322339
v 0.801936 -0.332159 0.096712
v 0.801936 -0.332159 0.324380
v 0.801934 0.380313 0.324380
v 0.801934 0.380313 0.096711
v 0.801936 -0.332159 -0.191513
v 0.801934 0.380313 -0.191513
v 0.801936 -0.332159 -0.483926
v 0.801934 0.380313 -0.483926
v 0.801936 -0.332159 -0.540295
v 0.801934 0.380313 -0.540295
v 0.001249 -0.332160 0.096712
v 0.001247 0.380310 0.096711
v 0.001247 0.380310 0.324380
v 0.001249 -0.332160 0.324380
v 0.001249 -0.332160 -0.191513
v 0.001247 0.380310 -0.191513
v 0.001249 -0.332160 -0.483926
v 0.001247 0.380310 -0.483926
v 0.001249 -0.332160 -0.540295
v 0.001247 0.380310 -0.540295
v 0.786071 -0.332159 -0.204913
v 0.786070 0.292822 -0.204913
v 0.017111 0.292819 -0.204913
v 0.017113 -0.332160 -0.204913
v 0.811267 -0.360995 -0.536570
v 0.798859 -0.360995 -0.536570
v 0.798859 -0.360995 0.320655
v 0.811267 -0.360995 0.320655
v 0.811265 0.375443 -0.540295
v 0.798856 0.375443 -0.540295
v 0.798858 -0.356125 -0.540295
v 0.811267 -0.356124 -0.540295
v 0.811265 0.380313 0.320655
v 0.798856 0.380312 0.320655
v 0.798856 0.380312 -0.536570
v 0.811265 0.380313 -0.536570
v 0.811267 -0.356124 0.324380
v 0.798858 -0.356125 0.324380
v 0.798856 0.375443 0.324380
v 0.811265 0.375443 0.324380
v 0.794448 -0.356125 -0.536570
v 0.794447 0.375443 -0.536570
v 0.794447 0.375443 0.320655
v 0.794448 -0.356125 0.320655
v 0.017113 -0.332160 0.110111
v 0.017111 0.292819 0.110111
v 0.786070 0.292822 0.110111
v 0.786071 -0.332159 0.110111
v 0.786071 -0.332159 -0.178114
v 0.786070 0.292822 -0.178114
v 0.786070 0.292822 0.083312
v 0.786071 -0.332159 0.083312
v 0.786071 -0.332159 -0.470527
v 0.017113 -0.332160 -0.470527
v 0.017113 -0.332160 -0.178114
v 0.017113 -0.332160 0.083312
v 0.786071 -0.332159 0.310981
v 0.017113 -0.332160 0.310981
v 0.017111 0.292819 0.310981
v 0.786070 0.292822 0.310981
v 0.786070 0.292822 -0.470527
v 0.017111 0.292819 -0.470527
v 0.017111 0.292819 -0.178114
v 0.017111 0.292819 0.083312
v -0.859362 -0.348919 0.317720
v -0.014656 -0.348917 0.317720
v -0.859362 -0.364129 0.317720
v -0.014655 -0.364125 0.317720
v -0.891817 -0.379126 0.322312
v -0.891819 0.376892 0.322312
v 0.814083 -0.379121 0.322312
v 0.814080 0.376896 0.322312
v -0.861426 -0.357858 -0.537891
v -0.861425 -0.357858 0.321977
v -0.861428 0.377165 -0.537891
v -0.861428 0.377165 0.321977
v 0.009527 -0.358329 -0.538254
v 0.009527 -0.358329 0.322339
v 0.009524 0.377643 -0.538254
v 0.009524 0.377643 0.322339
v 0.815676 -0.356124 -0.536570
v 0.815676 -0.356124 0.320655
v 0.815675 0.375443 -0.536570
v 0.815675 0.375443 0.320655
vn -1.0000 -0.0000 -0.0000
vn -0.0000 1.0000 -0.0000
vn 1.0000 -0.0000 -0.0000
vn -0.0000 -0.0000 -1.0000
vn -0.0000 -0.0000 1.0000
vn -0.0000 -1.0000 -0.0000
vn 0.0001 1.0000 -0.0000
vn 0.0001 -1.0000 -0.0000
vn -0.0002 -1.0000 -0.0000
vn -0.0001 1.0000 -0.0000
vn -0.0000 -1.0000 -0.0001
vn -0.0000 -1.0000 0.0001
vn 1.0000 0.0001 -0.0000
vn -0.6690 -0.6056 -0.4308
vn -0.6689 -0.6057 0.4309
vn -0.6689 0.6058 -0.4308
vn -0.6689 0.6058 0.4308
vn 0.6689 -0.6057 -0.4310
vn 0.6691 -0.6056 0.4308
vn 0.6689 0.6058 -0.4308
vn 0.6690 0.6059 0.4305
vn -0.8408 -0.0000 -0.5414
vn -0.7414 -0.6711 -0.0000
vn -0.7413 -0.6712 -0.0000
vn -0.8408 -0.0000 0.5414
vn -0.7412 0.6713 -0.0000
vn -0.0000 0.8149 -0.5796
vn -0.0000 0.8147 0.5800
vn -0.0000 0.8152 0.5792
vn 0.7412 0.6713 -0.0000
vn 0.8408 -0.0000 -0.5414
vn 0.8407 -0.0000 -0.5415
vn 0.8407 -0.0000 0.5415
vn 0.8408 -0.0000 0.5414
vn 0.7414 -0.6710 -0.0000
vn 0.7414 -0.6711 -0.0000
vn -0.0000 -0.8149 -0.5797
vn -0.0000 -0.8146 -0.5801
vn -0.0000 -0.8149 0.5797
vn -0.0000 -0.8147 0.5799
vn 0.5571 -0.5047 -0.6595
vn 0.5571 -0.5046 0.6596
vn 0.5572 0.5045 -0.6596
vn 0.5572 0.5044 0.6597
vn -0.5574 0.5047 -0.6593
vn -0.5570 -0.5046 -0.6596
vn -0.5570 -0.5046 0.6596
vn -0.5571 0.5046 0.6596
vn 0.6453 -0.0000 -0.7639
vn 0.7411 -0.6714 -0.0000
vn 0.7412 -0.6713 -0.0000
vn 0.6453 -0.0000 0.7640
vn 0.7410 0.6715 -0.0000
vn 0.7413 0.6712 -0.0000
vn -0.6452 -0.0000 -0.7640
vn -0.7411 -0.6714 -0.0000
vn -0.7413 -0.6711 -0.0000
vn -0.6452 -0.0000 0.7640
vn -0.7412 0.6712 -0.0000
vn -0.0000 -0.6076 0.7942
vn -0.0000 -0.6074 -0.7944
vn -0.0000 -0.6076 -0.7942
vn -0.0000 0.6075 0.7943
vn -0.0000 0.6076 0.7942
vn -0.0000 0.6075 -0.7943
vn 0.5570 -0.5044 -0.6598
vn 0.5570 -0.5044 0.6598
vn 0.5571 0.5046 -0.6595
vn 0.5571 0.5047 0.6594
vn -0.5571 0.5045 -0.6596
vn -0.5571 -0.5044 -0.6597
vn -0.5570 -0.5047 0.6596
vn -0.5571 0.5045 0.6597
vn 0.6454 -0.0000 -0.7639
vn 0.6452 -0.0000 -0.7640
vn 0.7410 -0.6715 -0.0000
vn 0.6452 -0.0000 0.7640
vn 0.6454 -0.0000 0.7639
vn 0.7411 0.6714 -0.0000
vn 0.7413 0.6711 -0.0000
vn 0.0001 -0.6078 0.7941
vn -0.0000 -0.6075 0.7943
vn 0.0001 -0.6075 -0.7943
vn -0.0000 0.6078 0.7941
vn 0.0001 0.6075 0.7943
vn 0.0001 0.6075 -0.7943
vn -0.0000 0.6072 -0.7945
vn 0.5572 -0.5045 -0.6596
vn 0.5572 -0.5045 0.6596
vn 0.5571 0.5045 -0.6596
vn 0.5571 0.5045 0.6596
vn -0.5571 -0.5046 -0.6595
vn -0.5571 -0.5046 0.6595
vn 0.7413 -0.6712 -0.0000
vn 0.6453 -0.0000 0.7639
vn -0.6453 -0.0000 -0.7639
vn -0.7412 -0.6713 -0.0000
vn -0.7411 -0.6713 -0.0000
vn -0.6453 -0.0000 0.7639
vn -0.0000 -0.6076 0.7943
vn -0.0000 -0.6076 -0.7943
vn -0.0000 -0.6075 -0.7943
vn -0.0000 0.6076 0.7943
vn -0.0000 0.6073 -0.7945
vt 0.072337 0.932965
vt 0.379361 0.978168
vt 0.379361 0.932965
vt 0.072337 0.978168
vt 0.608173 0.932965
vt 1.012276 0.978168
vt 1.012276 0.932965
vt 0.608173 0.978168
vt 0.610549 0.072337
vt 1.009900 0.065826
vt 0.610549 0.065826
vt 1.009900 0.072337
vt 0.608173 0.379361
vt 1.012276 0.072337
vt 0.608173 0.072337
vt 1.012276 0.379361
vt 0.012276 0.379361
vt -0.391827 0.072337
vt 0.012276 0.072337
vt -0.391827 0.379361
vt 0.401701 0.980159
vt -0.404795 0.985772
vt -0.404795 0.980159
vt 0.401701 0.985772
vt 0.383071 0.980159
vt 0.059405 0.985772
vt 0.059405 0.980159
vt 0.383071 0.985772
vt 0.401701 0.383071
vt -0.404795 0.059405
vt 0.401701 0.059405
vt -0.404795 0.383071
vt 0.595205 0.980159
vt 1.401701 0.985772
vt 1.401701 0.980159
vt 0.595205 0.985772
vt 0.608228 0.496881
vt 0.600883 0.978175
vt 0.600883 0.496881
vt 0.608228 0.978175
vt 0.608228 0.383188
vt 0.600883 0.068511
vt 0.600883 0.383188
vt 0.608228 0.068511
vt 0.068511 0.496881
vt 0.383188 0.978175
vt 0.383188 0.496881
vt 0.068511 0.978175
vt 0.020190 0.496678
vt 0.012439 0.978378
vt 0.012439 0.496678
vt 0.020190 0.978378
vt 0.020190 0.383391
vt 0.012439 0.068308
vt 0.012439 0.383391
vt 0.020190 0.068308
vt 0.068308 0.496678
vt 0.383391 0.978378
vt 0.383391 0.496678
vt 0.068308 0.978378
vt 0.079511 0.852087
vt 0.384533 0.979520
vt 0.079511 0.979520
vt 0.384533 0.852087
vt 0.079511 0.690759
vt 0.384533 0.690759
vt 0.079511 0.527087
vt 0.384533 0.527087
vt 0.079511 0.495536
vt 0.384533 0.495536
vt 0.388458 0.079511
vt 0.024919 0.347077
vt 0.388458 0.347077
vt 0.024919 0.079511
vt 0.395958 0.079511
vt 0.017419 0.384533
vt 0.017419 0.079511
vt 0.395958 0.384533
vt 0.395958 0.527087
vt 0.017419 0.495536
vt 0.017419 0.527087
vt 0.395958 0.495536
vt 0.395958 0.690759
vt 0.017419 0.690759
vt 0.395958 0.852087
vt 0.017419 0.852087
vt 0.395958 0.979520
vt 0.017419 0.979520
vt 0.400370 0.497621
vt 0.394504 0.977436
vt 0.394504 0.497621
vt 0.400370 0.977436
vt 0.400370 0.382448
vt 0.394504 0.069250
vt 0.394504 0.382448
vt 0.400370 0.069250
vt 0.069250 0.497621
vt 0.382448 0.977436
vt 0.382448 0.497621
vt 0.069250 0.977436
vt 0.079511 0.698259
vt 0.347077 0.844587
vt 0.347077 0.698259
vt 0.079511 0.844587
vt 0.388458 0.534587
vt 0.388458 0.683259
vt 0.024919 0.683259
vt 0.024919 0.534587
vt 0.388458 0.698259
vt 0.388458 0.844587
vt 0.024919 0.698259
vt 0.024919 0.844587
vt 0.388458 0.859587
vt 0.388458 0.972020
vt 0.024919 0.972020
vt 0.024919 0.859587
vt 0.079511 0.859587
vt 0.347077 0.972020
vt 0.347077 0.859587
vt 0.079511 0.972020
vt 0.079511 0.534587
vt 0.347077 0.683259
vt 0.347077 0.534587
vt 0.079511 0.683259
vt 0.610549 0.935341
vt 0.610549 0.975792
vt 1.009900 0.975792
vt 0.009900 0.975792
vt 0.012276 0.932965
vt 0.012276 0.978168
vt 0.009900 0.935341
vt -0.391827 0.932965
vt -0.389451 0.935341
vt -0.389451 0.975792
vt 0.072337 0.975792
vt 0.065826 0.935341
vt 0.065826 0.975792
vt 0.072337 0.935341
vt 0.009900 0.072337
vt -0.389451 0.065826
vt 0.009900 0.065826
vt -0.389451 0.072337
vt 0.595205 0.978696
vt 0.593743 0.980159
vt 0.595205 0.987235
vt 0.593743 0.985772
vt 0.401701 0.978696
vt 0.403164 0.980159
vt 0.401701 0.987235
vt 0.403164 0.985772
vt 0.595205 0.383071
vt 0.593743 0.059405
vt 0.593743 0.383071
vt 0.595205 0.059405
vt -0.404795 0.978696
vt 1.401701 0.987235
vt 0.403164 0.383071
vt 0.403164 0.059405
vt 1.401701 0.978696
vt -0.404795 0.987235
vt 1.401701 0.059405
vt 1.401701 0.383071
vt 0.068511 0.495536
vt 0.067165 0.496881
vt 0.608228 0.067165
vt 0.609574 0.068511
vt 0.383188 0.495536
vt 0.384533 0.496881
vt 0.609574 0.383188
vt 0.608228 0.384533
vt 0.600883 0.067165
vt 0.599538 0.068511
vt 0.600883 0.384533
vt 0.599538 0.383188
vt 0.067165 0.978175
vt 0.384533 0.978175
vt 0.020190 0.495536
vt 0.021333 0.496678
vt 0.021333 0.978378
vt 0.020190 0.979520
vt 0.012439 0.495536
vt 0.011297 0.496678
vt 0.012439 0.979520
vt 0.011297 0.978378
vt 0.068308 0.495536
vt 0.383391 0.495536
vt 0.383391 0.979520
vt 0.068308 0.979520
vt 0.402455 0.069250
vt 0.400370 0.067165
vt 0.400370 0.384533
vt 0.402455 0.382448
vt 0.392419 0.382448
vt 0.394504 0.384533
vt 0.394504 0.067165
vt 0.392419 0.069250
vt 0.402455 0.497621
vt 0.402455 0.977436
vt 0.392419 0.977436
vt 0.392419 0.497621
s 1
usemtl M_Desk_314_0
f 1/1/1 3/2/1 2/3/1
f 1/1/1 4/4/1 3/2/1
f 2/5/2 6/6/2 5/7/2
f 2/5/2 3/8/2 6/6/2
f 5/3/3 8/4/3 7/1/3
f 5/3/3 6/2/3 8/4/3
f 9/9/4 11/10/4 10/11/4
f 9/9/4 12/12/4 11/10/4
f 2/13/4 7/14/4 1/15/4
f 2/13/4 5/16/4 7/14/4
f 6/17/5 4/18/5 8/19/5
f 6/17/5 3/20/5 4/18/5
f 13/21/6 15/22/6 14/23/6
f 13/21/6 16/24/6 15/22/6
f 17/25/3 19/26/3 18/27/3
f 17/25/3 20/28/3 19/26/3
f 21/29/5 23/30/5 22/31/5
f 21/29/5 24/32/5 23/30/5
f 25/27/1 27/28/1 26/25/1
f 25/27/1 28/26/1 27/28/1
f 29/33/2 31/34/2 30/35/2
f 29/33/2 32/36/2 31/34/2
f 33/37/6 35/38/6 34/39/6
f 33/37/6 36/40/6 35/38/6
f 37/41/4 39/42/4 38/43/4
f 37/41/4 40/44/4 39/42/4
f 41/40/2 43/39/2 42/38/2
f 41/40/7 44/37/7 43/39/7
f 45/44/5 47/43/5 46/42/5
f 45/44/5 48/41/5 47/43/5
f 49/45/1 51/46/1 50/47/1
f 49/45/1 52/48/1 51/46/1
f 53/49/8 55/50/8 54/51/8
f 53/49/9 56/52/9 55/50/9
f 57/53/4 59/54/4 58/55/4
f 57/53/4 60/56/4 59/54/4
f 61/52/7 63/51/7 62/50/7
f 61/52/2 64/49/2 63/51/2
f 65/56/5 67/55/5 66/54/5
f 65/56/5 68/53/5 67/55/5
f 69/57/1 71/58/1 70/59/1
f 69/57/1 72/60/1 71/58/1
f 73/61/3 75/62/3 74/63/3
f 73/61/3 76/64/3 75/62/3
f 77/65/3 76/64/3 73/61/3
f 77/65/3 78/66/3 76/64/3
f 79/67/3 78/66/3 77/65/3
f 79/67/3 80/68/3 78/66/3
f 81/69/3 80/68/3 79/67/3
f 81/69/3 82/70/3 80/68/3
f 83/61/1 85/62/1 84/64/1
f 83/61/1 86/63/1 85/62/1
f 87/65/1 83/61/1 84/64/1
f 87/65/1 84/64/1 88/66/1
f 89/67/1 87/65/1 88/66/1
f 89/67/1 88/66/1 90/68/1
f 91/69/1 89/67/1 90/68/1
f 91/69/1 90/68/1 92/70/1
f 93/71/4 95/72/4 94/73/4
f 93/71/4 96/74/4 95/72/4
f 74/75/5 85/76/5 86/77/5
f 74/75/5 75/78/5 85/76/5
f 82/78/4 91/77/4 92/76/4
f 82/78/4 81/75/4 91/77/4
f 80/79/2 92/80/2 90/81/2
f 80/79/2 82/82/2 92/80/2
f 78/83/2 80/79/2 90/81/2
f 78/83/2 90/81/2 88/84/2
f 76/85/2 78/83/2 88/84/2
f 76/85/2 88/84/2 84/86/2
f 75/87/2 76/85/2 84/86/2
f 75/87/2 84/86/2 85/88/2
f 97/89/6 99/90/6 98/91/6
f 97/89/6 100/92/6 99/90/6
f 101/93/4 103/94/4 102/95/4
f 101/93/4 104/96/4 103/94/4
f 105/92/10 107/91/10 106/90/10
f 105/92/10 108/89/10 107/91/10
f 109/96/5 111/95/5 110/94/5
f 109/96/5 112/93/5 111/95/5
f 113/97/1 115/98/1 114/99/1
f 113/97/1 116/100/1 115/98/1
f 117/74/5 119/73/5 118/72/5
f 117/74/5 120/71/5 119/73/5
f 121/101/1 123/102/1 122/103/1
f 121/101/1 124/104/1 123/102/1
f 81/82/6 89/81/6 91/80/6
f 81/82/6 79/79/6 89/81/6
f 125/105/6 89/81/6 79/79/6
f 93/106/6 125/105/6 79/79/6
f 93/106/6 79/79/6 77/83/6
f 96/107/6 93/106/6 77/83/6
f 96/107/11 77/83/11 87/84/11
f 126/108/8 87/84/8 89/81/8
f 126/108/8 96/107/8 87/84/8
f 125/105/12 126/108/12 89/81/12
f 121/109/6 87/84/6 77/83/6
f 124/110/6 121/109/6 77/83/6
f 124/110/6 77/83/6 73/85/6
f 121/109/12 127/111/12 87/84/12
f 127/111/8 83/86/8 87/84/8
f 127/111/6 128/112/6 83/86/6
f 128/112/6 73/85/6 83/86/6
f 128/112/6 124/110/6 73/85/6
f 120/113/6 83/86/6 73/85/6
f 129/114/6 120/113/6 73/85/6
f 129/114/6 73/85/6 74/87/6
f 130/115/6 129/114/6 74/87/6
f 130/115/6 74/87/6 86/88/6
f 117/116/8 86/88/8 83/86/8
f 117/116/6 130/115/6 86/88/6
f 120/113/12 117/116/12 83/86/12
f 119/113/6 131/115/6 118/116/6
f 119/113/6 132/114/6 131/115/6
f 133/105/6 95/107/6 134/108/6
f 133/105/6 94/106/6 95/107/6
f 122/109/6 136/112/6 135/111/6
f 122/109/6 123/110/6 136/112/6
f 128/104/3 135/103/3 136/102/3
f 128/104/3 127/101/3 135/103/3
f 120/117/1 132/118/1 119/119/1
f 120/117/1 129/120/1 132/118/1
f 126/74/5 133/73/5 134/72/5
f 126/74/5 125/71/5 133/73/5
f 127/74/5 122/73/5 135/72/5
f 127/74/5 121/71/5 122/73/5
f 130/120/3 118/119/3 131/118/3
f 130/120/3 117/117/3 118/119/3
f 125/121/1 94/122/1 133/123/1
f 125/121/1 93/124/1 94/122/1
f 124/71/4 136/72/4 123/73/4
f 124/71/4 128/74/4 136/72/4
f 129/71/4 131/72/4 132/73/4
f 129/71/4 130/74/4 131/72/4
f 96/124/3 134/123/3 95/122/3
f 96/124/3 126/121/3 134/123/3
f 9/125/6 4/8/6 1/5/6
f 9/125/6 137/126/6 4/8/6
f 137/126/6 8/6/6 4/8/6
f 137/126/6 138/127/6 8/6/6
f 138/128/6 7/129/6 8/130/6
f 138/128/6 12/131/6 7/129/6
f 12/131/6 1/132/6 7/129/6
f 12/131/6 9/133/6 1/132/6
f 11/131/6 139/134/6 10/133/6
f 11/131/6 140/128/6 139/134/6
f 137/135/1 10/136/1 139/137/1
f 137/135/1 9/138/1 10/136/1
f 138/139/5 139/140/5 140/141/5
f 138/139/5 137/142/5 139/140/5
f 12/138/13 140/137/13 11/136/13
f 12/138/13 138/135/13 140/137/13
f 141/143/14 14/33/14 25/144/14
f 15/36/15 23/145/15 28/146/15
f 142/143/16 26/144/16 29/33/16
f 24/145/17 32/36/17 27/146/17
f 143/147/18 18/148/18 13/21/18
f 22/149/19 16/24/19 19/150/19
f 144/147/20 30/21/20 17/148/20
f 21/149/21 20/150/21 31/24/21
f 142/151/22 25/152/22 26/153/22
f 142/151/22 141/154/22 25/152/22
f 14/33/23 28/146/23 25/144/23
f 14/33/24 15/36/24 28/146/24
f 23/154/25 27/153/25 28/152/25
f 23/154/25 24/151/25 27/153/25
f 32/36/26 26/144/26 27/146/26
f 32/36/26 29/33/26 26/144/26
f 144/147/27 29/23/27 30/21/27
f 144/147/27 142/155/27 29/23/27
f 24/145/28 31/34/28 32/36/28
f 24/145/29 21/156/29 31/34/29
f 20/150/30 30/21/30 31/24/30
f 20/150/30 17/148/30 30/21/30
f 143/31/31 17/157/31 18/158/31
f 143/31/32 144/29/32 17/157/32
f 21/29/33 19/158/33 20/157/33
f 21/29/34 22/31/34 19/158/34
f 16/24/35 18/148/35 19/150/35
f 16/24/36 13/21/36 18/148/36
f 141/143/37 13/35/37 14/33/37
f 141/143/38 143/159/38 13/35/38
f 22/149/39 15/22/39 16/24/39
f 22/149/40 23/160/40 15/22/40
f 142/151/4 143/161/4 141/154/4
f 142/151/4 144/162/4 143/161/4
f 40/163/41 145/45/41 33/164/41
f 36/165/42 146/166/42 45/44/42
f 37/167/43 44/168/43 147/47/43
f 48/41/44 148/169/44 41/170/44
f 38/167/45 50/47/45 43/168/45
f 39/163/46 34/164/46 49/45/46
f 35/171/47 46/42/47 52/172/47
f 47/43/48 42/173/48 51/174/48
f 147/47/49 40/163/49 37/167/49
f 147/47/49 145/45/49 40/163/49
f 145/45/50 36/175/50 33/164/50
f 145/45/51 146/48/51 36/175/51
f 146/166/52 48/41/52 45/44/52
f 146/166/52 148/169/52 48/41/52
f 148/46/53 44/168/53 41/176/53
f 148/46/54 147/47/54 44/168/54
f 38/167/55 49/45/55 50/47/55
f 38/167/55 39/163/55 49/45/55
f 34/164/56 52/48/56 49/45/56
f 34/164/57 35/175/57 52/48/57
f 46/42/58 51/174/58 52/172/58
f 46/42/58 47/43/58 51/174/58
f 42/176/59 50/47/59 51/46/59
f 42/176/26 43/168/26 50/47/26
f 45/44/60 35/171/60 36/165/60
f 45/44/60 46/42/60 35/171/60
f 39/42/61 33/165/61 34/171/61
f 39/42/62 40/44/62 33/165/62
f 41/170/63 47/43/63 48/41/63
f 41/170/64 42/173/64 47/43/64
f 43/173/65 37/41/65 38/43/65
f 43/173/65 44/170/65 37/41/65
f 145/45/3 148/46/3 146/48/3
f 145/45/3 147/47/3 148/46/3
f 60/177/66 149/178/66 53/49/66
f 56/52/67 150/179/67 65/180/67
f 57/177/68 64/49/68 151/178/68
f 68/180/69 152/179/69 61/52/69
f 58/181/70 70/182/70 63/51/70
f 59/181/71 54/51/71 69/182/71
f 55/50/72 66/183/72 72/184/72
f 67/183/73 62/50/73 71/184/73
f 151/59/74 60/185/74 57/186/74
f 151/59/75 149/57/75 60/185/75
f 149/178/35 56/52/35 53/49/35
f 149/178/76 150/179/76 56/52/76
f 150/60/77 68/187/77 65/188/77
f 150/60/78 152/58/78 68/187/78
f 152/179/79 64/49/79 61/52/79
f 152/179/80 151/178/80 64/49/80
f 58/186/55 69/57/55 70/59/55
f 58/186/55 59/185/55 69/57/55
f 54/51/57 72/184/57 69/182/57
f 54/51/57 55/50/57 72/184/57
f 66/188/58 71/58/58 72/60/58
f 66/188/58 67/187/58 71/58/58
f 62/50/26 70/182/26 71/184/26
f 62/50/26 63/51/26 70/182/26
f 65/180/81 55/50/81 56/52/81
f 65/180/82 66/183/82 55/50/82
f 59/181/83 53/49/83 54/51/83
f 59/181/61 60/177/61 53/49/61
f 61/52/84 67/183/84 68/180/84
f 61/52/85 62/50/85 67/183/85
f 63/51/86 57/177/86 58/181/86
f 63/51/87 64/49/87 57/177/87
f 149/57/3 152/58/3 150/60/3
f 149/57/3 151/59/3 152/58/3
f 104/96/88 153/189/88 97/190/88
f 100/190/89 154/189/89 109/96/89
f 101/93/90 108/191/90 155/192/90
f 112/93/91 156/192/91 105/191/91
f 102/95/70 114/193/70 107/194/70
f 103/94/92 98/195/92 113/196/92
f 99/195/93 110/94/93 116/196/93
f 111/95/48 106/194/48 115/193/48
f 155/192/75 104/96/75 101/93/75
f 155/192/49 153/189/49 104/96/49
f 153/197/94 100/92/94 97/89/94
f 153/197/94 154/198/94 100/92/94
f 154/189/95 112/93/95 109/96/95
f 154/189/77 156/192/77 112/93/77
f 156/198/30 108/89/30 105/92/30
f 156/198/30 155/197/30 108/89/30
f 102/95/96 113/196/96 114/193/96
f 102/95/96 103/94/96 113/196/96
f 98/91/97 116/199/97 113/200/97
f 98/91/98 99/90/98 116/199/98
f 110/94/99 115/193/99 116/196/99
f 110/94/99 111/95/99 115/193/99
f 106/90/26 114/200/26 115/199/26
f 106/90/26 107/91/26 114/200/26
f 109/96/82 99/195/82 100/190/82
f 109/96/100 110/94/100 99/195/100
f 103/94/101 97/190/101 98/195/101
f 103/94/102 104/96/102 97/190/102
f 105/191/63 111/95/63 112/93/63
f 105/191/103 106/194/103 111/95/103
f 107/194/104 101/93/104 102/95/104
f 107/194/65 108/191/65 101/93/65
f 153/97/3 156/98/3 154/100/3
f 153/97/3 155/99/3 156/98/3
