# Blender 4.1.0
# www.blender.org
mtllib FridgeDrawer1_24_FridgeDrawer1D6_1_GeomSubset_1.mtl
o FridgeDrawer1_24_FridgeDrawer1D6_1_GeomSubset_1
v -0.116504 0.041805 -1.088934
v -0.116491 0.041805 -1.088934
v -0.116504 0.041815 -1.088934
v -0.116491 0.041815 -1.088934
v -0.116504 0.041805 -1.088934
v -0.116491 0.041805 -1.088934
v -0.116504 0.041815 -1.088934
v -0.116491 0.041815 -1.088934
v -0.116504 0.041805 -1.088934
v -0.116491 0.041805 -1.088934
v -0.116504 0.041815 -1.088934
v -0.116491 0.041815 -1.088934
v -0.116504 0.041805 -1.088934
v -0.116491 0.041805 -1.088934
v -0.116504 0.041815 -1.088934
v -0.116491 0.041815 -1.088934
v -0.116504 0.041805 -1.088934
v -0.116491 0.041805 -1.088934
v -0.116504 0.041815 -1.088934
v -0.116491 0.041815 -1.088934
v -0.116504 0.041805 -1.088934
v -0.116491 0.041805 -1.088934
v -0.116504 0.041815 -1.088934
v -0.116491 0.041815 -1.088934
v -0.116504 0.041804 -1.088934
v -0.116491 0.041804 -1.088934
v -0.116504 0.041814 -1.088934
v -0.116491 0.041814 -1.088934
v -0.134260 0.238636 -0.420977
v 0.586561 0.238636 -0.420977
v -0.134260 -0.281624 -0.420977
v 0.586561 -0.281624 -0.420977
v 0.157526 0.238636 -0.420977
v 0.054502 0.238636 -0.420977
v 0.397799 0.238636 -0.420977
v 0.294775 0.238636 -0.420977
v 0.157526 -0.305774 -0.420977
v 0.054905 -0.300637 -0.420977
v 0.397396 -0.300637 -0.420977
v 0.294775 -0.305774 -0.420977
v 0.054502 0.238636 -0.664022
v -0.134260 0.238636 -0.664022
v 0.397799 0.238636 -0.664022
v 0.586561 0.238636 -0.664022
v 0.294775 0.238636 -0.664022
v 0.157526 0.238636 -0.664022
v -0.121641 0.228562 -0.420977
v 0.573943 0.228562 -0.420977
v -0.121641 -0.272739 -0.420977
v 0.573943 -0.272739 -0.420977
v 0.157526 0.228562 -0.420977
v 0.054502 0.228562 -0.420977
v 0.397799 0.228562 -0.420977
v 0.294775 0.228562 -0.420977
v 0.157921 -0.295700 -0.420977
v 0.056090 -0.290603 -0.420977
v 0.396212 -0.290603 -0.420977
v 0.294381 -0.295700 -0.420977
v -0.121641 0.228562 -0.653213
v 0.573943 0.228562 -0.653213
v 0.157526 0.228562 -0.653213
v 0.054502 0.228562 -0.653213
v 0.397799 0.228562 -0.653213
v 0.294775 0.228562 -0.653213
v -0.134260 0.238636 -0.431159
v 0.054502 0.238636 -0.431159
v -0.134260 -0.281624 -0.431159
v 0.054905 -0.300637 -0.431159
v 0.586561 -0.281624 -0.431159
v 0.397396 -0.300637 -0.431159
v 0.586561 0.238636 -0.431159
v 0.397799 0.238636 -0.431159
v 0.294775 -0.305774 -0.431159
v 0.157526 -0.305774 -0.431159
v 0.157526 0.238636 -0.431159
v 0.294775 0.238636 -0.431159
v 0.294381 -0.295700 -0.431159
v 0.396212 -0.290603 -0.431159
v 0.573943 -0.272739 -0.431159
v 0.573943 0.228562 -0.431159
v 0.397799 0.228562 -0.431159
v 0.294775 0.228562 -0.431159
v 0.157526 0.228562 -0.431159
v 0.054502 0.228562 -0.431159
v -0.121641 0.228562 -0.431159
v -0.121641 -0.272739 -0.431159
v 0.056090 -0.290603 -0.431159
v 0.157921 -0.295700 -0.431159
v -0.135988 0.240016 -0.423060
v 0.588290 0.240016 -0.423060
v -0.135988 -0.282841 -0.423060
v 0.588290 -0.282841 -0.423060
v 0.157526 0.240016 -0.423060
v 0.054502 0.240016 -0.423060
v 0.397799 0.240016 -0.423060
v 0.294775 0.240016 -0.423060
v 0.157472 -0.307154 -0.423060
v 0.054743 -0.302012 -0.423060
v 0.397558 -0.302012 -0.423060
v 0.294830 -0.307154 -0.423060
v -0.135988 0.240016 -0.429075
v 0.054502 0.240016 -0.429075
v -0.135988 -0.282841 -0.429075
v 0.054743 -0.302012 -0.429075
v 0.588290 -0.282841 -0.429075
v 0.397558 -0.302012 -0.429075
v 0.588290 0.240016 -0.429075
v 0.397799 0.240016 -0.429075
v 0.294830 -0.307154 -0.429075
v 0.157472 -0.307154 -0.429075
v 0.157526 0.240016 -0.429075
v 0.294775 0.240016 -0.429075
v 0.054905 -0.300637 -0.620944
v 0.054877 -0.262687 -0.664022
v -0.134260 -0.281624 -0.620944
v -0.134260 -0.243674 -0.664022
v 0.397424 -0.262687 -0.664022
v 0.397396 -0.300637 -0.620944
v 0.586561 -0.243674 -0.664022
v 0.586561 -0.281624 -0.620944
v 0.157526 -0.267824 -0.664022
v 0.157526 -0.305774 -0.620944
v 0.294775 -0.305774 -0.620944
v 0.294775 -0.267824 -0.664022
v -0.121641 -0.234789 -0.653213
v -0.121641 -0.272739 -0.610135
v 0.573943 -0.272739 -0.610135
v 0.573943 -0.234789 -0.653213
v 0.157892 -0.257750 -0.653213
v 0.157921 -0.295700 -0.610135
v 0.056090 -0.290603 -0.610135
v 0.055973 -0.252653 -0.653213
v 0.396328 -0.252653 -0.653213
v 0.396212 -0.290603 -0.610135
v 0.294409 -0.257750 -0.653213
v 0.294381 -0.295700 -0.610135
v 0.397413 -0.277210 -0.660743
v 0.294775 -0.282347 -0.660743
v 0.397404 -0.289522 -0.651405
v 0.294775 -0.294659 -0.651405
v 0.397398 -0.297749 -0.637429
v 0.294775 -0.302885 -0.637429
v 0.157526 -0.282347 -0.660743
v 0.054888 -0.277210 -0.660743
v 0.157526 -0.294659 -0.651405
v 0.054897 -0.289522 -0.651405
v 0.157526 -0.302885 -0.637429
v 0.054903 -0.297749 -0.637429
v 0.586561 -0.258197 -0.660743
v 0.586561 -0.270509 -0.651405
v 0.586561 -0.278736 -0.637429
v -0.134260 -0.258197 -0.660743
v -0.134260 -0.270509 -0.651405
v -0.134260 -0.278736 -0.637429
v -0.121641 -0.249312 -0.649934
v 0.056018 -0.267176 -0.649934
v -0.121641 -0.261624 -0.640596
v 0.056056 -0.279487 -0.640596
v -0.121641 -0.269850 -0.626620
v 0.056081 -0.287714 -0.626620
v 0.396284 -0.267176 -0.649934
v 0.573943 -0.249312 -0.649934
v 0.396246 -0.279487 -0.640596
v 0.573943 -0.261624 -0.640596
v 0.396221 -0.287714 -0.626620
v 0.573943 -0.269850 -0.626620
v 0.157903 -0.272273 -0.649934
v 0.294398 -0.272273 -0.649934
v 0.157913 -0.284585 -0.640596
v 0.294389 -0.284585 -0.640596
v 0.157919 -0.292811 -0.626620
v 0.294383 -0.292811 -0.626620
vn -0.0000 -0.0000 1.0000
vn -0.0000 0.9858 -0.1677
vn -0.0000 0.9858 -0.1681
vn -0.0000 0.9858 0.1681
vn -0.0000 0.9858 0.1677
vn 0.0211 -0.9857 -0.1670
vn 0.0815 -0.9825 -0.1676
vn 0.0815 -0.9825 0.1676
vn 0.0211 -0.9857 0.1670
vn -0.0815 -0.9825 -0.1676
vn -0.0211 -0.9857 -0.1670
vn -0.0211 -0.9857 0.1670
vn -0.0815 -0.9825 0.1676
vn -0.0000 0.9933 -0.1152
vn -0.0000 0.9933 0.1152
vn 0.9863 -0.0000 -0.1651
vn 0.9872 -0.0000 -0.1596
vn 0.9872 -0.0000 0.1596
vn 0.9863 -0.0000 0.1651
vn 0.0993 -0.9879 -0.1191
vn 0.0993 -0.9879 0.1191
vn -0.0993 -0.9879 -0.1191
vn -0.0993 -0.9879 0.1190
vn -0.9872 -0.0000 -0.1596
vn -0.9863 -0.0000 -0.1651
vn -0.9863 -0.0000 0.1651
vn -0.9872 -0.0000 0.1596
vn -0.0000 0.9934 -0.1151
vn -0.0000 0.9934 0.1151
vn -0.0819 0.9966 -0.0000
vn -0.0214 0.9998 -0.0000
vn -0.0818 0.9966 -0.0000
vn -0.1000 0.9950 -0.0000
vn -1.0000 -0.0000 -0.0000
vn -0.0000 -1.0000 -0.0000
vn 1.0000 -0.0000 -0.0000
vn 0.0819 0.9966 -0.0000
vn 0.1000 0.9950 -0.0000
vn 0.0818 0.9966 -0.0000
vn 0.0214 0.9998 -0.0000
vn -0.0000 0.8337 0.5523
vn -0.0000 0.8336 0.5523
vn 0.7699 -0.0000 0.6382
vn 0.0833 -0.8287 0.5534
vn 0.0685 -0.8303 0.5531
vn 0.0177 -0.8334 0.5524
vn -0.0177 -0.8334 0.5524
vn -0.0685 -0.8303 0.5531
vn -0.0833 -0.8287 0.5534
vn -0.7696 -0.0000 0.6385
vn -0.0000 1.0000 -0.0059
vn -0.0000 1.0000 -0.0082
vn -1.0000 -0.0000 -0.0097
vn -1.0000 -0.0000 -0.0094
vn -0.1000 -0.9949 -0.0099
vn -0.0817 -0.9966 -0.0073
vn -0.0214 -0.9997 -0.0074
vn 0.0214 -0.9997 -0.0074
vn 0.0817 -0.9966 -0.0073
vn 0.1000 -0.9949 -0.0099
vn 1.0000 -0.0000 -0.0094
vn 1.0000 -0.0000 -0.0097
vn -0.0001 1.0000 -0.0082
vt -138.118134 -114.564163
vt -138.118134 -114.564285
vt -138.118011 -114.564285
vt -138.118011 -114.564163
vt -142.889465 0.936311
vt -142.889465 1.416123
vt -142.915070 1.384048
vt -142.915070 0.936311
vt -144.211914 1.416123
vt -144.189331 1.384048
vt -144.260239 0.935287
vt -144.234741 0.932276
vt -144.273300 0.674437
vt -144.247696 0.673432
vt -144.273300 0.325564
vt -144.247696 0.326567
vt -144.260239 0.064714
vt -144.234741 0.067724
vt -144.211914 -0.416123
vt -144.189331 -0.384048
vt -142.889465 -0.416123
vt -142.915070 -0.384048
vt -142.889465 0.063688
vt -142.915070 0.063688
vt -142.889465 0.325564
vt -142.915070 0.325564
vt -142.889465 0.674437
vt -142.915070 0.674437
vt -143.188843 0.064553
vt -143.188843 0.325910
vt -143.204117 0.325910
vt -143.204117 0.064553
vt -143.180954 0.325498
vt -143.180954 0.064484
vt -143.165665 0.064484
vt -143.165665 0.325498
vt -143.180954 0.935516
vt -143.180954 0.674502
vt -143.165665 0.674502
vt -143.165665 0.935516
vt -143.188843 0.674091
vt -143.188843 0.935447
vt -143.204117 0.935447
vt -143.204117 0.674091
vt -143.188843 -0.418692
vt -143.204117 -0.418692
vt -143.125198 1.046742
vt -143.125198 -0.323733
vt -143.109436 -0.323733
vt -143.109436 1.046742
vt -143.180954 -0.420132
vt -143.165665 -0.420132
vt -143.180954 1.420132
vt -143.165665 1.420132
vt -143.105530 1.046759
vt -143.105530 -0.323750
vt -143.089767 -0.323750
vt -143.089767 1.046759
vt -143.188843 1.418692
vt -143.204117 1.418692
vt -143.144028 0.058883
vt -143.144028 0.311206
vt -143.169266 0.311206
vt -143.169266 0.058883
vt -143.169266 -0.381509
vt -143.144028 -0.381509
vt -143.090576 0.966846
vt -143.090576 -0.273481
vt -143.065384 -0.273481
vt -143.065384 0.966846
vt -143.149582 0.055575
vt -143.149582 -0.380240
vt -143.124390 -0.380240
vt -143.124390 0.055575
vt -143.149582 0.310478
vt -143.124390 0.310478
vt -143.149582 0.650063
vt -143.124390 0.650063
vt -143.149582 0.904965
vt -143.124390 0.904965
vt -143.149582 1.340781
vt -143.124390 1.340781
vt -143.070923 0.966850
vt -143.070923 -0.273485
vt -143.045731 -0.273485
vt -143.045731 0.966850
vt -143.144028 0.901657
vt -143.144028 1.342049
vt -143.169266 1.342049
vt -143.169266 0.901657
vt -143.144028 0.649334
vt -143.169266 0.649334
vt -142.885956 0.936311
vt -142.885956 1.420517
vt -142.885956 0.674437
vt -142.885956 0.325564
vt -142.885956 0.063688
vt -142.885956 -0.420517
vt -143.103973 -0.320116
vt -143.103973 1.043552
vt -144.263733 0.064302
vt -144.215012 -0.420517
vt -144.276810 0.325425
vt -144.276810 0.674575
vt -144.263733 0.935698
vt -144.215012 1.420517
vt -143.084305 -0.320560
vt -143.084305 1.043142
vt -143.183563 0.935447
vt -143.183563 1.414307
vt -143.110992 1.043142
vt -143.110992 -0.320560
vt -143.186249 1.415740
vt -143.186249 0.935105
vt -143.186249 0.674364
vt -143.186249 0.325637
vt -143.186249 0.064896
vt -143.186249 -0.415740
vt -143.130661 1.043552
vt -143.130661 -0.320116
vt -143.183563 -0.414307
vt -143.183563 0.064553
vt -143.183563 0.325910
vt -143.183563 0.674091
s 1
usemtl M_FridgeDrawer1D6_1
f 5/1/1 6/2/1 8/3/1 7/4/1
f 34/5/1 29/6/1 47/7/1 52/8/1
f 29/6/1 31/9/1 49/10/1 47/7/1
f 31/9/1 38/11/1 56/12/1 49/10/1
f 38/11/1 37/13/1 55/14/1 56/12/1
f 37/13/1 40/15/1 58/16/1 55/14/1
f 40/15/1 39/17/1 57/18/1 58/16/1
f 39/17/1 32/19/1 50/20/1 57/18/1
f 32/19/1 30/21/1 48/22/1 50/20/1
f 30/21/1 35/23/1 53/24/1 48/22/1
f 35/23/1 36/25/1 54/26/1 53/24/1
f 36/25/1 33/27/1 51/28/1 54/26/1
f 33/27/1 34/5/1 52/8/1 51/28/1
f 108/29/2 112/30/3 96/31/4 95/32/5
f 109/33/6 106/34/7 99/35/8 100/36/9
f 104/37/10 110/38/11 97/39/12 98/40/13
f 111/41/3 102/42/2 94/43/5 93/44/4
f 112/30/3 111/41/3 93/44/4 96/31/4
f 110/38/11 109/33/6 100/36/9 97/39/12
f 107/45/14 108/29/2 95/32/5 90/46/15
f 105/47/16 107/48/17 90/49/18 92/50/19
f 106/34/7 105/51/20 92/52/21 99/35/8
f 103/53/22 104/37/10 98/40/13 91/54/23
f 101/55/24 103/56/25 91/57/26 89/58/27
f 102/42/2 101/59/28 89/60/29 94/43/5
f 78/61/30 77/62/31 58/63/31 57/64/32
f 78/61/30 57/64/32 50/65/33 79/66/33
f 80/67/34 79/68/34 50/69/34 48/70/34
f 81/71/35 80/72/35 48/73/35 53/74/35
f 82/75/35 81/71/35 53/74/35 54/76/35
f 83/77/35 82/75/35 54/76/35 51/78/35
f 84/79/35 83/77/35 51/78/35 52/80/35
f 85/81/35 84/79/35 52/80/35 47/82/35
f 86/83/36 85/84/36 47/85/36 49/86/36
f 87/87/37 86/88/38 49/89/38 56/90/39
f 88/91/40 87/87/37 56/90/39 55/92/40
f 77/62/31 88/91/40 55/92/40 58/63/31
f 29/6/41 34/5/41 94/93/5 89/94/29
f 34/5/41 33/27/41 93/95/4 94/93/5
f 33/27/41 36/25/41 96/96/4 93/95/4
f 36/25/41 35/23/42 95/97/5 96/96/4
f 35/23/42 30/21/42 90/98/15 95/97/5
f 30/99/43 32/100/43 92/50/19 90/49/18
f 32/19/44 39/17/45 99/101/8 92/102/21
f 39/17/45 40/15/46 100/103/9 99/101/8
f 40/15/46 37/13/47 97/104/12 100/103/9
f 37/13/47 38/11/48 98/105/13 97/104/12
f 38/11/48 31/9/49 91/106/23 98/105/13
f 31/107/50 29/108/50 89/58/27 91/57/26
f 66/109/51 65/110/52 101/59/28 102/42/2
f 65/111/53 67/112/54 103/56/25 101/55/24
f 67/113/55 68/114/56 104/37/10 103/53/22
f 68/114/56 74/115/57 110/38/11 104/37/10
f 74/115/57 73/116/58 109/33/6 110/38/11
f 73/116/58 70/117/59 106/34/7 109/33/6
f 70/117/59 69/118/60 105/51/20 106/34/7
f 69/119/61 71/120/62 107/48/17 105/47/16
f 71/121/63 72/122/51 108/29/2 107/45/14
f 72/122/51 76/123/51 112/30/3 108/29/2
f 76/123/51 75/124/51 111/41/3 112/30/3
f 75/124/51 66/109/51 102/42/2 111/41/3
