# Blender 4.1.1
# www.blender.org
mtllib Sink_12_Sink_12_0_GeomSubset_2.mtl
o Sink_12_Sink_12_0_GeomSubset_2
v 0.318182 0.153642 -0.074428
v 0.312391 0.153642 -0.080475
v 0.288815 0.146126 0.005295
v 0.301781 0.140044 0.021890
v 0.288788 0.140059 -0.000624
v 0.299515 0.146126 0.025196
v 0.252921 0.146126 -0.011246
v 0.256073 0.140079 -0.016029
v 0.318182 0.153616 0.097907
v 0.288921 0.107430 -0.000281
v 0.304260 0.140025 0.054804
v 0.256073 0.107430 -0.016029
v 0.238886 0.140079 -0.017293
v 0.301781 0.107430 0.021890
v 0.238886 0.146126 -0.011246
v 0.299575 0.146126 0.054379
v 0.304260 0.107430 0.054808
v 0.299665 0.146126 0.093294
v 0.315767 0.151157 0.100968
v 0.305191 0.139999 0.093294
v 0.312143 0.147787 0.101705
v 0.307737 0.144650 0.100035
v 0.302739 0.151183 0.097908
v 0.305191 0.107430 0.093294
v 0.237456 0.151213 0.097908
v 0.238286 0.146126 0.093294
v 0.183089 0.151260 0.097907
v 0.183061 0.146126 0.093294
v 0.288014 -0.211689 0.000732
v 0.301781 -0.211670 0.022993
v 0.126938 0.151340 0.097907
v 0.304244 -0.211653 0.054878
v 0.127056 0.146126 0.093294
v 0.305191 -0.211627 0.093294
v 0.060511 0.107430 -0.011246
v 0.060498 0.146126 0.001723
v 0.060511 0.146126 -0.011246
v 0.060487 0.146126 0.093293
v 0.307737 0.107430 0.100035
v 0.315767 0.107430 0.100968
v 0.312143 -0.219413 0.101705
v 0.312143 0.107430 0.101705
v 0.060511 0.107430 0.001723
v 0.060497 0.146126 0.022711
v 0.066524 0.107430 -0.017293
v 0.056020 0.084848 -0.011246
v 0.056460 0.151375 0.097907
v 0.060497 0.082158 -0.017293
v 0.060511 0.107430 0.022722
v 0.060491 0.146126 0.054379
v 0.060511 0.107430 0.054379
v 0.043227 0.065703 -0.011246
v 0.056460 0.107829 0.097907
v 0.046892 0.061309 -0.017293
v 0.060511 0.107430 0.093293
v 0.256073 -0.211707 -0.016029
v 0.001499 0.151375 0.097907
v 0.026845 0.048834 -0.017293
v 0.024082 0.052908 -0.011246
v 0.052203 0.086427 0.097907
v 0.056020 0.084848 0.093293
v 0.001499 0.107430 0.097907
v 0.001499 0.043694 -0.017293
v 0.043227 0.065703 0.093293
v 0.001499 0.048417 -0.011246
v 0.040307 0.068624 0.097907
v 0.307739 -0.216277 0.100035
v 0.315767 -0.222784 0.100968
v 0.024082 0.052908 0.093293
v 0.022502 0.056724 0.097907
v 0.312391 -0.231318 -0.050676
v 0.318182 -0.225269 -0.050676
v 0.312391 -0.225269 -0.056723
v 0.001499 0.052547 0.097907
v 0.001499 0.048417 0.093293
v 0.312575 -0.231318 0.095571
v 0.296570 -0.217753 0.024437
v 0.281688 -0.217753 0.003834
v 0.252921 -0.217753 -0.011246
v 0.238886 -0.211707 -0.017293
v 0.238886 -0.217753 -0.011246
v 0.298775 -0.217753 0.054358
v 0.318182 -0.225243 0.097907
v 0.299665 -0.217753 0.091125
v 0.310643 -0.229200 0.098830
v 0.307179 -0.225969 0.099681
v 0.302739 -0.222811 0.098014
v 0.237456 -0.222840 0.080454
v 0.237825 -0.231318 0.073643
v 0.237648 -0.229401 0.077467
v 0.237456 -0.225938 0.080168
v 0.238286 -0.217753 0.075557
v 0.183089 -0.222891 0.069019
v 0.182763 -0.229504 0.065758
v 0.183133 -0.225956 0.068750
v 0.183061 -0.217753 0.064286
v 0.182414 -0.231318 0.061931
v 0.126938 -0.222967 0.062140
v 0.127045 -0.229544 0.059110
v 0.126953 -0.226031 0.062050
v 0.127056 -0.217753 0.057646
v 0.127145 -0.231318 0.055355
v 0.056460 -0.223003 0.058012
v 0.056460 -0.229560 0.055081
v 0.056460 -0.226066 0.058012
v 0.056460 -0.217753 0.053612
v 0.056460 -0.231318 0.051322
v 0.001499 -0.223003 0.056122
v 0.001499 -0.229560 0.053209
v 0.001499 -0.226066 0.056122
v 0.001499 -0.217753 0.051743
v 0.001499 -0.231318 0.049452
v 0.312391 0.107430 -0.078279
v 0.318182 0.107430 -0.072232
v 0.238886 0.153642 -0.080475
v 0.238886 0.107430 -0.078279
v 0.318182 0.107430 0.097907
v 0.238775 0.146126 0.001723
v 0.238626 0.146126 0.024160
v 0.183259 0.153642 -0.080475
v 0.238886 0.107430 -0.017293
v 0.238462 0.146126 0.054379
v 0.183259 0.107430 -0.078279
v 0.183259 0.140079 -0.017293
v 0.183259 0.146126 -0.011246
v 0.183217 0.146126 0.001723
v 0.183259 0.107430 -0.017293
v 0.183173 0.146126 0.023410
v 0.127166 0.153642 -0.080475
v 0.183108 0.146126 0.054379
v 0.127166 0.107430 -0.078279
v 0.127166 0.146126 -0.011246
v 0.127166 0.140079 -0.017293
v 0.127141 0.146126 0.001723
v 0.127166 0.107430 -0.017293
v 0.127118 0.146126 0.022968
v 0.056460 0.153642 -0.080475
v 0.127077 0.146126 0.054379
v 0.056460 0.107430 -0.078279
v 0.066524 0.140079 -0.017293
v 0.060497 0.146126 -0.011246
v 0.001499 0.153642 -0.080475
v 0.238886 -0.225269 -0.056723
v 0.001499 0.107430 -0.078279
v 0.056020 0.084848 0.001723
v 0.183259 -0.225269 -0.056723
v 0.056020 0.084848 0.022722
v 0.183259 -0.211707 -0.017293
v 0.043227 0.065703 0.001723
v 0.056020 0.084848 0.054379
v 0.043227 0.065703 0.022722
v 0.024082 0.052908 0.001723
v 0.043227 0.065703 0.054379
v 0.127168 -0.225269 -0.056723
v 0.127166 -0.211707 -0.017293
v 0.024082 0.052908 0.022722
v 0.001499 0.048417 0.001723
v 0.024082 0.052908 0.054379
v 0.001499 0.048417 0.022722
v 0.001499 0.048417 0.054379
v 0.056460 -0.225269 -0.056723
v 0.238886 -0.231318 -0.050676
v 0.238782 -0.217753 0.001723
v 0.238626 -0.217753 0.024437
v 0.238462 -0.217753 0.049882
v 0.183259 -0.217753 -0.011246
v 0.183259 -0.231318 -0.050676
v 0.183225 -0.217753 0.001723
v 0.183173 -0.217753 0.024437
v 0.183108 -0.217753 0.046660
v 0.127166 -0.217753 -0.011246
v 0.127166 -0.231318 -0.050676
v 0.127148 -0.217753 0.001723
v 0.127118 -0.217753 0.024437
v 0.127077 -0.217753 0.044763
v 0.056460 -0.231318 -0.050676
v 0.056460 -0.217753 -0.011246
v 0.056460 -0.211707 -0.017293
v 0.056460 -0.217753 0.001723
v 0.056460 -0.217753 0.024437
v 0.056460 -0.217753 0.043610
v 0.001499 -0.211707 -0.017293
v 0.001499 -0.217753 -0.011246
v 0.001499 -0.231318 -0.050676
v 0.001499 -0.225269 -0.056723
v 0.001499 -0.217753 0.001723
v 0.001499 -0.217753 0.024437
v 0.001499 -0.217753 0.043075
v 0.002406 -0.039499 -0.070265
v 0.001499 -0.065379 -0.017293
v 0.014148 -0.061949 -0.017293
v 0.023635 -0.052460 -0.017293
v 0.027108 -0.039499 -0.017293
v 0.023635 -0.026539 -0.017293
v 0.013268 -0.016814 -0.017293
v 0.001499 -0.013620 -0.017293
v 0.288578 -0.039499 0.000102
v 0.301781 -0.039499 0.022304
v 0.304254 -0.039499 0.054834
v 0.305191 -0.039499 0.093294
v 0.312143 -0.039499 0.101705
v 0.256073 -0.039499 -0.016029
v 0.307738 -0.039499 0.100035
v 0.315767 -0.039499 0.100968
v 0.312391 -0.039499 -0.070265
v 0.318182 -0.039499 -0.064217
v 0.238885 -0.039499 -0.070265
v 0.318182 -0.039499 0.097907
v 0.238886 -0.039499 -0.017293
v 0.183259 -0.039499 -0.070265
v 0.183259 -0.039499 -0.017293
v 0.127166 -0.039499 -0.070265
v 0.127166 -0.039499 -0.017293
v 0.056460 -0.039499 -0.070265
v 0.059127 -0.039499 -0.017293
v 0.026830 -0.121406 -0.017293
v 0.001499 -0.122263 -0.017293
v -0.315185 0.153642 -0.074428
v -0.309394 0.153642 -0.080475
v -0.285818 0.146126 0.005295
v -0.298784 0.140044 0.021890
v -0.285791 0.140059 -0.000624
v -0.296518 0.146126 0.025196
v -0.249924 0.146126 -0.011246
v -0.253076 0.140079 -0.016029
v -0.315185 0.153616 0.097907
v -0.285924 0.107430 -0.000281
v -0.301263 0.140025 0.054804
v -0.253076 0.107430 -0.016029
v -0.235890 0.140079 -0.017293
v -0.298784 0.107430 0.021890
v -0.235890 0.146126 -0.011246
v -0.296578 0.146126 0.054379
v -0.301263 0.107430 0.054808
v -0.296668 0.146126 0.093294
v -0.312770 0.151157 0.100968
v -0.302195 0.139999 0.093294
v -0.309146 0.147787 0.101705
v -0.304740 0.144650 0.100035
v -0.299743 0.151183 0.097908
v -0.302195 0.107430 0.093294
v -0.234460 0.151213 0.097908
v -0.235289 0.146126 0.093294
v -0.180092 0.151260 0.097907
v -0.180064 0.146126 0.093294
v -0.285017 -0.211689 0.000732
v -0.298784 -0.211670 0.022993
v -0.123942 0.151340 0.097907
v -0.301247 -0.211653 0.054878
v -0.124059 0.146126 0.093294
v -0.302195 -0.211627 0.093294
v -0.057514 0.107430 -0.011246
v -0.057501 0.146126 0.001723
v -0.057514 0.146126 -0.011246
v -0.057490 0.146126 0.093293
v -0.304740 0.107430 0.100035
v -0.312770 0.107430 0.100968
v -0.309146 -0.219413 0.101705
v -0.309146 0.107430 0.101705
v -0.057514 0.107430 0.001723
v -0.057500 0.146126 0.022711
v -0.063528 0.107430 -0.017293
v -0.053023 0.084848 -0.011246
v -0.053463 0.151375 0.097907
v -0.057499 0.082158 -0.017293
v -0.057514 0.107430 0.022722
v -0.057494 0.146126 0.054379
v -0.057514 0.107430 0.054379
v -0.040230 0.065703 -0.011246
v -0.053463 0.107829 0.097907
v -0.043895 0.061309 -0.017293
v -0.057514 0.107430 0.093293
v -0.253076 -0.211707 -0.016029
v -0.023848 0.048834 -0.017293
v -0.021084 0.052908 -0.011246
v -0.049207 0.086427 0.097907
v -0.053023 0.084848 0.093293
v -0.040230 0.065703 0.093293
v -0.037310 0.068624 0.097907
v -0.304742 -0.216277 0.100035
v -0.312770 -0.222784 0.100968
v -0.021084 0.052908 0.093293
v -0.019505 0.056724 0.097907
v -0.309394 -0.231318 -0.050676
v -0.315185 -0.225269 -0.050676
v -0.309394 -0.225269 -0.056723
v -0.309578 -0.231318 0.095571
v -0.293573 -0.217753 0.024437
v -0.278691 -0.217753 0.003834
v -0.249924 -0.217753 -0.011246
v -0.235890 -0.211707 -0.017293
v -0.235890 -0.217753 -0.011246
v -0.295778 -0.217753 0.054358
v -0.315185 -0.225243 0.097907
v -0.296668 -0.217753 0.091125
v -0.307646 -0.229200 0.098830
v -0.304182 -0.225969 0.099681
v -0.299743 -0.222811 0.098014
v -0.234460 -0.222840 0.080454
v -0.234827 -0.231318 0.073643
v -0.234651 -0.229401 0.077467
v -0.234460 -0.225938 0.080168
v -0.235289 -0.217753 0.075557
v -0.180092 -0.222891 0.069019
v -0.179767 -0.229504 0.065758
v -0.180136 -0.225956 0.068750
v -0.180064 -0.217753 0.064286
v -0.179417 -0.231318 0.061931
v -0.123942 -0.222967 0.062140
v -0.124048 -0.229544 0.059110
v -0.123956 -0.226031 0.062050
v -0.124059 -0.217753 0.057646
v -0.124148 -0.231318 0.055355
v -0.053463 -0.223003 0.058012
v -0.053463 -0.229560 0.055081
v -0.053463 -0.226066 0.058012
v -0.053463 -0.217753 0.053612
v -0.053463 -0.231318 0.051322
v -0.309394 0.107430 -0.078279
v -0.315185 0.107430 -0.072232
v -0.235890 0.153642 -0.080475
v -0.235890 0.107430 -0.078279
v -0.315185 0.107430 0.097907
v -0.235778 0.146126 0.001723
v -0.235629 0.146126 0.024160
v -0.180263 0.153642 -0.080475
v -0.235890 0.107430 -0.017293
v -0.235465 0.146126 0.054379
v -0.180263 0.107430 -0.078279
v -0.180263 0.140079 -0.017293
v -0.180263 0.146126 -0.011246
v -0.180220 0.146126 0.001723
v -0.180263 0.107430 -0.017293
v -0.180176 0.146126 0.023410
v -0.124169 0.153642 -0.080475
v -0.180111 0.146126 0.054379
v -0.124169 0.107430 -0.078279
v -0.124169 0.146126 -0.011246
v -0.124169 0.140079 -0.017293
v -0.124144 0.146126 0.001723
v -0.124169 0.107430 -0.017293
v -0.124121 0.146126 0.022968
v -0.053463 0.153642 -0.080475
v -0.124080 0.146126 0.054379
v -0.053463 0.107430 -0.078279
v -0.063528 0.140079 -0.017293
v -0.057499 0.146126 -0.011246
v -0.235890 -0.225269 -0.056723
v -0.053023 0.084848 0.001723
v -0.180263 -0.225269 -0.056723
v -0.053023 0.084848 0.022722
v -0.180263 -0.211707 -0.017293
v -0.040230 0.065703 0.001723
v -0.053023 0.084848 0.054379
v -0.040230 0.065703 0.022722
v -0.021084 0.052908 0.001723
v -0.040230 0.065703 0.054379
v -0.124170 -0.225269 -0.056723
v -0.124169 -0.211707 -0.017293
v -0.021084 0.052908 0.022722
v -0.021084 0.052908 0.054379
v -0.053463 -0.225269 -0.056723
v -0.235890 -0.231318 -0.050676
v -0.235785 -0.217753 0.001723
v -0.235629 -0.217753 0.024437
v -0.235465 -0.217753 0.049882
v -0.180263 -0.217753 -0.011246
v -0.180263 -0.231318 -0.050676
v -0.180228 -0.217753 0.001723
v -0.180176 -0.217753 0.024437
v -0.180111 -0.217753 0.046660
v -0.124169 -0.217753 -0.011246
v -0.124169 -0.231318 -0.050676
v -0.124152 -0.217753 0.001723
v -0.124121 -0.217753 0.024437
v -0.124080 -0.217753 0.044763
v -0.053463 -0.231318 -0.050676
v -0.053463 -0.217753 -0.011246
v -0.053463 -0.211707 -0.017293
v -0.053463 -0.217753 0.001723
v -0.053463 -0.217753 0.024437
v -0.053463 -0.217753 0.043610
v -0.011151 -0.061949 -0.017293
v -0.020638 -0.052460 -0.017293
v -0.024111 -0.039499 -0.017293
v -0.020638 -0.026539 -0.017293
v -0.010271 -0.016814 -0.017293
v -0.285581 -0.039499 0.000102
v -0.298784 -0.039499 0.022304
v -0.301257 -0.039499 0.054834
v -0.302195 -0.039499 0.093294
v -0.309146 -0.039499 0.101705
v -0.253076 -0.039499 -0.016029
v -0.304741 -0.039499 0.100035
v -0.312770 -0.039499 0.100968
v -0.309394 -0.039499 -0.070265
v -0.315185 -0.039499 -0.064217
v -0.235889 -0.039499 -0.070265
v -0.315185 -0.039499 0.097907
v -0.235890 -0.039499 -0.017293
v -0.180263 -0.039499 -0.070265
v -0.180263 -0.039499 -0.017293
v -0.124169 -0.039499 -0.070265
v -0.124169 -0.039499 -0.017293
v -0.053463 -0.039499 -0.070265
v -0.056131 -0.039499 -0.017293
v -0.023833 -0.121406 -0.017293
v 0.001499 -0.058755 -0.021810
v 0.010910 -0.056203 -0.021810
v 0.017970 -0.049144 -0.021810
v 0.020553 -0.039499 -0.021810
v 0.017970 -0.029855 -0.021810
v 0.010256 -0.022620 -0.021810
v 0.001499 -0.020243 -0.021810
v -0.007913 -0.056203 -0.021810
v -0.014972 -0.049144 -0.021810
v -0.017556 -0.039499 -0.021810
v -0.014972 -0.029855 -0.021810
v -0.007259 -0.022620 -0.021810
v 0.001499 -0.039500 -0.021810
v 0.318182 0.221227 -0.077953
v 0.312391 0.227277 -0.077953
v 0.312391 0.221227 -0.084000
v 0.312575 0.227277 0.095572
v 0.318182 0.221202 0.097907
v 0.310643 0.225158 0.098830
v 0.315767 0.218742 0.100968
v 0.307179 0.221925 0.099681
v 0.312143 0.215372 0.101705
v 0.307737 0.212236 0.100035
v 0.302739 0.218768 0.097908
v 0.237648 0.225358 0.098830
v 0.237825 0.227277 0.095572
v 0.237456 0.221897 0.099681
v 0.237456 0.218798 0.097908
v 0.182763 0.225460 0.098830
v 0.182414 0.227277 0.095572
v 0.183133 0.221914 0.099681
v 0.183089 0.218847 0.097907
v 0.127045 0.225501 0.098830
v 0.127145 0.227277 0.095572
v 0.126954 0.221989 0.099681
v 0.126938 0.218925 0.097907
v 0.056460 0.225517 0.098830
v 0.056460 0.227277 0.095571
v 0.056460 0.222025 0.099681
v 0.056460 0.218961 0.097907
v 0.001499 0.227277 0.095571
v 0.001499 0.225517 0.098830
v 0.001499 0.222025 0.099681
v 0.001499 0.218961 0.097907
v 0.238886 0.227277 -0.077953
v 0.238886 0.221227 -0.084000
v 0.183259 0.227277 -0.077953
v 0.183259 0.221227 -0.084000
v 0.127166 0.221227 -0.084000
v 0.127168 0.227277 -0.077953
v 0.056460 0.227277 -0.077953
v 0.056460 0.221227 -0.084000
v 0.001499 0.221227 -0.084000
v 0.001499 0.227277 -0.077953
v -0.309394 0.221227 -0.084000
v -0.315185 0.221227 -0.077953
v -0.309394 0.227277 -0.077953
v -0.315185 0.221202 0.097907
v -0.309578 0.227277 0.095572
v -0.312770 0.218742 0.100968
v -0.307646 0.225158 0.098830
v -0.309146 0.215372 0.101705
v -0.304182 0.221925 0.099681
v -0.299743 0.218768 0.097908
v -0.304740 0.212236 0.100035
v -0.234827 0.227277 0.095572
v -0.234651 0.225358 0.098830
v -0.234460 0.221897 0.099681
v -0.234460 0.218798 0.097908
v -0.179417 0.227277 0.095572
v -0.179767 0.225460 0.098830
v -0.180136 0.221914 0.099681
v -0.180092 0.218847 0.097907
v -0.124148 0.227277 0.095572
v -0.124048 0.225501 0.098830
v -0.123957 0.221989 0.099681
v -0.123942 0.218925 0.097907
v -0.053463 0.227277 0.095571
v -0.053463 0.225517 0.098830
v -0.053463 0.222025 0.099681
v -0.053463 0.218961 0.097907
v -0.235890 0.221227 -0.084000
v -0.235890 0.227277 -0.077953
v -0.180263 0.221227 -0.084000
v -0.180263 0.227277 -0.077953
v -0.124170 0.227277 -0.077953
v -0.124169 0.221227 -0.084000
v -0.053463 0.221227 -0.084000
v -0.053463 0.227277 -0.077953
v -0.020703 -0.026681 -0.014923
v -0.011319 -0.017297 -0.014923
v 0.014317 -0.017297 -0.014923
v 0.023702 -0.026681 -0.014923
v 0.027137 -0.039500 -0.014923
v 0.014317 -0.061703 -0.014923
v 0.001500 -0.065138 -0.014923
v -0.011319 -0.061703 -0.014923
v -0.024138 -0.039500 -0.014923
v -0.019323 -0.027478 -0.012045
v -0.010522 -0.018678 -0.012045
v 0.013522 -0.018678 -0.012045
v 0.022322 -0.027478 -0.012045
v 0.025544 -0.039500 -0.012045
v 0.013522 -0.060322 -0.012045
v 0.001500 -0.063543 -0.012045
v -0.010522 -0.060322 -0.012045
v -0.022543 -0.039500 -0.012045
v 0.001500 -0.039500 -0.008429
v -0.016229 -0.029264 -0.009875
v -0.009679 -0.033046 -0.008429
v -0.004954 -0.028320 -0.008429
v -0.008737 -0.021771 -0.009875
v 0.001500 -0.026591 -0.008429
v 0.001500 -0.019028 -0.009875
v 0.007955 -0.028320 -0.008429
v 0.011735 -0.021771 -0.009875
v 0.012678 -0.033046 -0.008429
v 0.019228 -0.029264 -0.009875
v 0.014409 -0.039500 -0.008429
v 0.021972 -0.039500 -0.009875
v 0.012678 -0.045954 -0.008429
v 0.019228 -0.049736 -0.009875
v 0.007955 -0.050679 -0.008429
v 0.011735 -0.057229 -0.009875
v 0.001500 -0.052409 -0.008429
v 0.001500 -0.059972 -0.009875
v -0.004954 -0.050679 -0.008429
v -0.008737 -0.057229 -0.009875
v -0.009679 -0.045954 -0.008429
v -0.016229 -0.049736 -0.009875
v -0.011408 -0.039500 -0.008429
v -0.018973 -0.039500 -0.009875
v -0.015894 -0.029459 -0.014923
v -0.008541 -0.022107 -0.014923
v 0.001500 -0.019417 -0.014923
v 0.011542 -0.022107 -0.014923
v 0.018893 -0.029459 -0.014923
v 0.021584 -0.039500 -0.014923
v 0.018893 -0.049542 -0.014923
v 0.011542 -0.056893 -0.014923
v 0.001500 -0.059583 -0.014923
v -0.008541 -0.056893 -0.014923
v -0.015894 -0.049542 -0.014923
v -0.018583 -0.039500 -0.014923
v -0.015894 -0.029459 -0.022655
v -0.008541 -0.022107 -0.022655
v 0.001500 -0.039500 -0.022655
v 0.001500 -0.019417 -0.022655
v 0.011542 -0.022107 -0.022655
v 0.018893 -0.029459 -0.022655
v 0.021584 -0.039500 -0.022655
v 0.018893 -0.049542 -0.022655
v 0.011542 -0.056893 -0.022655
v 0.001500 -0.059583 -0.022655
v -0.008541 -0.056893 -0.022655
v -0.015894 -0.049542 -0.022655
v -0.018583 -0.039500 -0.022655
v -0.010028 -0.018500 -0.014127
v 0.001500 -0.015380 -0.014144
v 0.001500 -0.016552 -0.012631
v -0.009457 -0.019403 -0.012702
v 0.013026 -0.018500 -0.014127
v 0.012457 -0.019403 -0.012702
v 0.001500 -0.019179 -0.011063
v -0.008029 -0.021747 -0.011025
v 0.011028 -0.021747 -0.011025
v 0.025450 -0.040018 -0.014127
v 0.022388 -0.051560 -0.014144
v 0.021372 -0.050975 -0.012631
v 0.024383 -0.040059 -0.012702
v 0.013923 -0.059983 -0.014127
v 0.013426 -0.059039 -0.012702
v 0.019098 -0.049661 -0.011063
v 0.021639 -0.040125 -0.011025
v 0.012110 -0.056628 -0.011025
v -0.010923 -0.059983 -0.014127
v -0.019389 -0.051561 -0.014144
v -0.018374 -0.050975 -0.012631
v -0.010425 -0.059039 -0.012703
v -0.022451 -0.040018 -0.014127
v -0.021383 -0.040059 -0.012702
v -0.016100 -0.049660 -0.011063
v -0.009110 -0.056628 -0.011025
v -0.018638 -0.040125 -0.011025
v -0.008204 -0.022017 -0.014127
v 0.001500 -0.019417 -0.014127
v 0.011204 -0.022017 -0.014127
v 0.021413 -0.040137 -0.014127
v 0.018893 -0.049542 -0.014127
v 0.012008 -0.056426 -0.014127
v -0.008907 -0.056526 -0.014127
v -0.015894 -0.049542 -0.014127
v -0.018449 -0.040000 -0.014127
v -0.014245 0.049458 0.083803
v -0.012196 0.049458 0.085851
v -0.009398 0.049458 0.086601
v -0.009398 0.049458 0.075409
v -0.012196 0.049459 0.076159
v -0.014245 0.049458 0.078207
v -0.014994 0.049458 0.081005
v -0.014403 0.047587 0.083894
v -0.012287 0.047587 0.086009
v -0.009398 0.047587 0.086783
v -0.009398 0.047587 0.075227
v -0.012287 0.047587 0.076001
v -0.014403 0.047587 0.078116
v -0.015177 0.047587 0.081005
v -0.014783 0.046812 0.084114
v -0.012508 0.046812 0.086390
v -0.009398 0.046812 0.087223
v -0.009398 0.046812 0.074787
v -0.012508 0.046812 0.075620
v -0.014783 0.046812 0.077896
v -0.015616 0.046812 0.081005
v -0.015164 0.047587 0.084333
v -0.012727 0.047587 0.086770
v -0.009398 0.047587 0.087662
v -0.009398 0.047587 0.074347
v -0.012727 0.047587 0.075239
v -0.015164 0.047587 0.077676
v -0.016056 0.047587 0.081005
v -0.015322 0.049458 0.084425
v -0.012818 0.049458 0.086928
v -0.009398 0.049458 0.087844
v -0.009398 0.049459 0.074165
v -0.012818 0.049459 0.075081
v -0.015322 0.049458 0.077585
v -0.016238 0.049458 0.081005
v -0.015164 0.051330 0.084333
v -0.012727 0.051330 0.086770
v -0.009398 0.051330 0.087662
v -0.009398 0.051330 0.074347
v -0.012727 0.051330 0.075239
v -0.015164 0.051330 0.077676
v -0.016056 0.051330 0.081005
v -0.014783 0.052106 0.084114
v -0.012508 0.052106 0.086390
v -0.009398 0.052106 0.087223
v -0.009398 0.052106 0.074787
v -0.012508 0.052106 0.075620
v -0.014783 0.052106 0.077896
v -0.015616 0.052106 0.081005
v -0.014403 0.051330 0.083894
v -0.012287 0.051330 0.086009
v -0.009398 0.051330 0.086783
v -0.009398 0.051330 0.075227
v -0.012287 0.051330 0.076001
v -0.014403 0.051330 0.078116
v -0.015177 0.051330 0.081005
v -0.014518 0.047886 0.083961
v -0.012354 0.047886 0.086124
v -0.009398 0.047885 0.086917
v -0.009398 0.047885 0.075093
v -0.012354 0.047885 0.075885
v -0.014518 0.047885 0.078049
v -0.015310 0.047885 0.081005
v -0.009398 0.047885 0.081005
v 0.012396 0.049458 0.086601
v 0.015195 0.049458 0.085851
v 0.012396 0.047587 0.086783
v 0.015285 0.047587 0.086009
v 0.017242 0.049458 0.083803
v 0.017400 0.047587 0.083894
v 0.017992 0.049458 0.081005
v 0.018174 0.047587 0.081005
v 0.017242 0.049458 0.078207
v 0.017400 0.047587 0.078116
v 0.015195 0.049459 0.076159
v 0.015285 0.047587 0.076001
v 0.012396 0.049458 0.075409
v 0.012396 0.047587 0.075227
v 0.012396 0.046812 0.087223
v 0.015505 0.046812 0.086390
v 0.017781 0.046812 0.084114
v 0.018614 0.046812 0.081005
v 0.017781 0.046812 0.077896
v 0.015505 0.046812 0.075620
v 0.012396 0.046812 0.074787
v 0.012396 0.047587 0.087662
v 0.015725 0.047587 0.086770
v 0.018162 0.047587 0.084333
v 0.019054 0.047587 0.081005
v 0.018162 0.047587 0.077676
v 0.015725 0.047587 0.075239
v 0.012396 0.047587 0.074347
v 0.012396 0.049458 0.087844
v 0.015816 0.049458 0.086928
v 0.018319 0.049458 0.084425
v 0.019236 0.049458 0.081005
v 0.018319 0.049458 0.077585
v 0.015816 0.049459 0.075081
v 0.012396 0.049459 0.074165
v 0.012396 0.051330 0.087662
v 0.015725 0.051330 0.086770
v 0.018162 0.051330 0.084333
v 0.019054 0.051330 0.081005
v 0.018162 0.051330 0.077676
v 0.015725 0.051330 0.075239
v 0.012396 0.051330 0.074347
v 0.012396 0.052106 0.087223
v 0.015505 0.052106 0.086390
v 0.017781 0.052106 0.084114
v 0.018614 0.052106 0.081005
v 0.017781 0.052106 0.077896
v 0.015505 0.052106 0.075620
v 0.012396 0.052106 0.074787
v 0.012396 0.051330 0.086783
v 0.015285 0.051330 0.086009
v 0.017400 0.051330 0.083894
v 0.018174 0.051330 0.081005
v 0.017400 0.051330 0.078116
v 0.015285 0.051330 0.076001
v 0.012396 0.051330 0.075227
v 0.012396 0.047885 0.086917
v 0.012396 0.047885 0.081005
v 0.015352 0.047886 0.086124
v 0.017516 0.047886 0.083961
v 0.018308 0.047885 0.081005
v 0.017516 0.047885 0.078049
v 0.015352 0.047885 0.075885
v 0.012396 0.047885 0.075093
vn -0.0000 1.0000 -0.0000
vn 0.0001 1.0000 -0.0001
vn 0.0002 1.0000 -0.0001
vn 0.0001 1.0000 -0.0000
vn -0.0001 1.0000 -0.0000
vn -0.0002 1.0000 -0.0001
vn -0.0001 1.0000 -0.0001
vn -0.0000 1.0000 -0.0002
vn -0.0000 1.0000 -0.0001
vt -29.647964 0.827658
vt -29.641027 0.815659
vt -29.635962 0.820730
vt -29.634104 0.827658
vt -29.647964 0.878740
vt -29.634104 0.878740
vt -29.635962 0.885668
vt -29.641027 0.890740
vt -29.647964 0.892596
vt -29.654886 0.890740
vt -29.659952 0.885668
vt -29.661810 0.878740
vt -29.661810 0.827658
vt -29.659952 0.820730
vt -29.654886 0.815659
vt -29.647964 0.813803
s 1
usemtl M_Sink_12_2
f 664/1/1 657/2/2 658/3/3 659/4/4
f 722/5/1 721/6/5 723/7/6 724/8/7
f 722/5/1 724/8/7 725/9/8 726/10/9
f 722/5/1 726/10/9 727/11/1 728/12/1
f 664/1/1 660/13/1 661/14/1 662/15/9
f 664/1/1 662/15/9 663/16/8 657/2/2
f 664/1/1 659/4/4 721/6/5 722/5/1
f 660/13/1 664/1/1 722/5/1 728/12/1
