# Blender 4.1.0
# www.blender.org
mtllib MeshBin_9_0_GeomSubset_1.mtl
o MeshBin_9_0_GeomSubset_1
v 0.006861 -0.000855 -0.416881
v 0.007861 -0.000855 -0.416881
v 0.006861 0.000145 -0.416881
v 0.007861 0.000145 -0.416881
v 0.006861 -0.000855 -0.416881
v 0.007861 -0.000855 -0.416881
v 0.006861 0.000145 -0.416881
v 0.007861 0.000145 -0.416881
v 0.006861 -0.000855 -0.416881
v 0.007861 -0.000855 -0.416881
v 0.006861 0.000145 -0.416881
v 0.007861 0.000145 -0.416881
v -0.099272 0.150196 0.317951
v -0.117614 0.149201 0.317951
v -0.099272 -0.150906 0.317951
v -0.117614 -0.149911 0.317951
v 0.132336 0.149201 0.317951
v 0.113995 0.150196 0.317951
v 0.132336 -0.149911 0.317951
v 0.113995 -0.150906 0.317951
v -0.099272 -0.150906 -0.114267
v -0.117614 -0.149911 -0.140235
v -0.117614 0.149201 -0.140235
v -0.099272 0.150196 -0.140235
v 0.113995 0.150196 -0.140235
v 0.132336 0.149201 -0.140235
v 0.132336 -0.149911 -0.140235
v 0.113995 -0.150906 -0.114267
v -0.153187 0.145172 0.317951
v -0.186400 0.131415 0.317951
v -0.200158 0.098201 0.317951
v -0.200158 0.098201 -0.140235
v -0.186400 0.131415 -0.140235
v -0.153187 0.145172 -0.140235
v 0.167910 0.145172 0.317951
v 0.214881 0.098201 0.317951
v 0.201123 0.131415 0.317951
v 0.167910 0.145172 -0.140235
v 0.201123 0.131415 -0.140235
v 0.214881 0.098201 -0.140235
v -0.186400 -0.132125 0.317951
v -0.153187 -0.145882 0.317951
v -0.200158 -0.098912 0.317951
v -0.153187 -0.145882 -0.140235
v -0.186400 -0.132125 -0.140235
v -0.200158 -0.098912 -0.140235
v 0.201123 -0.132125 0.317951
v 0.214881 -0.098912 0.317951
v 0.167910 -0.145882 0.317951
v 0.214881 -0.098912 -0.140235
v 0.201123 -0.132125 -0.140235
v 0.167910 -0.145882 -0.140235
v -0.117614 -0.098136 0.051009
v -0.099272 -0.098786 0.051009
v 0.113995 -0.098786 0.051009
v 0.132336 -0.098136 0.051009
v 0.164500 -0.095502 0.051009
v 0.164500 0.094791 0.051009
v 0.132336 0.097426 0.051009
v 0.113995 0.098076 0.051009
v -0.099272 0.098076 0.051009
v -0.117614 0.097426 0.051009
v -0.149778 0.094791 0.051009
v -0.149778 -0.095502 0.051009
v -0.117614 0.121336 0.051009
v -0.117614 0.131582 0.070947
v -0.099272 0.132460 0.070947
v -0.099272 0.122146 0.051009
v -0.117614 -0.132293 0.070947
v -0.117614 -0.122047 0.051009
v -0.099272 -0.122856 0.051009
v -0.099272 -0.133170 0.070947
v 0.113995 0.122146 0.051009
v 0.113995 0.132460 0.070947
v 0.132336 0.131582 0.070947
v 0.132336 0.121336 0.051009
v 0.113995 -0.133170 0.070947
v 0.113995 -0.122856 0.051009
v 0.132336 -0.122047 0.051009
v 0.132336 -0.132293 0.070947
v -0.149778 -0.128738 0.070947
v -0.147794 -0.118769 0.051009
v -0.173280 -0.119004 0.070947
v -0.165649 -0.111373 0.051009
v -0.149778 0.128028 0.070947
v -0.147794 0.118058 0.051009
v -0.165649 0.110663 0.051009
v -0.173280 0.118293 0.070947
v -0.183014 0.094791 0.070947
v -0.173044 0.092808 0.051009
v -0.183014 -0.095502 0.070947
v -0.173044 -0.093519 0.051009
v 0.197736 -0.095502 0.070947
v 0.187767 -0.093519 0.051009
v 0.188002 -0.119004 0.070947
v 0.180371 -0.111373 0.051009
v 0.197736 0.094791 0.070947
v 0.187767 0.092808 0.051009
v 0.180371 0.110663 0.051009
v 0.188002 0.118293 0.070947
v 0.164500 0.128028 0.070947
v 0.162517 0.118058 0.051009
v 0.164500 -0.128738 0.070947
v 0.162517 -0.118769 0.051009
v -0.119409 0.147775 0.319451
v -0.100804 0.148760 0.319451
v -0.117614 0.135106 0.319451
v -0.099272 0.136007 0.319451
v -0.100804 -0.149470 0.319451
v -0.119409 -0.148485 0.319451
v -0.099272 -0.136717 0.319451
v -0.117614 -0.135817 0.319451
v 0.115526 0.148760 0.319451
v 0.134131 0.147775 0.319451
v 0.113995 0.136007 0.319451
v 0.132336 0.135106 0.319451
v 0.134131 -0.148485 0.319451
v 0.115526 -0.149470 0.319451
v 0.132336 -0.135817 0.319451
v 0.113995 -0.136717 0.319451
v -0.154801 -0.144494 0.319451
v -0.186522 -0.131356 0.319451
v -0.150460 -0.132167 0.319451
v -0.175904 -0.121628 0.319451
v -0.154801 0.143784 0.319451
v -0.150460 0.131457 0.319451
v -0.186522 0.130645 0.319451
v -0.175904 0.120917 0.319451
v -0.199661 0.098925 0.319451
v -0.186443 0.095473 0.319451
v -0.199661 -0.099635 0.319451
v -0.186443 -0.096184 0.319451
v 0.214383 -0.099635 0.319451
v 0.201244 -0.131356 0.319451
v 0.201165 -0.096184 0.319451
v 0.190626 -0.121628 0.319451
v 0.214383 0.098925 0.319451
v 0.201165 0.095473 0.319451
v 0.201244 0.130645 0.319451
v 0.190626 0.120917 0.319451
v 0.169524 0.143784 0.319451
v 0.165181 0.131457 0.319451
v 0.169524 -0.144494 0.319451
v 0.165181 -0.132167 0.319451
v -0.118676 0.161954 0.317951
v -0.099956 0.162950 0.317951
v -0.118132 0.157746 0.319005
v -0.098812 0.158712 0.319010
v -0.099272 -0.163659 0.317951
v -0.118676 -0.162665 0.317951
v -0.099493 -0.159424 0.319007
v -0.118132 -0.158456 0.319005
v 0.113995 0.162949 0.317951
v 0.133400 0.161954 0.317951
v 0.114215 0.158714 0.319007
v 0.132854 0.157746 0.319005
v 0.133399 -0.162665 0.317951
v 0.114679 -0.163661 0.317951
v 0.132854 -0.158456 0.319005
v 0.113534 -0.159422 0.319010
v -0.156418 -0.158372 0.317951
v -0.195759 -0.141484 0.317951
v -0.155032 -0.154277 0.319007
v -0.192271 -0.138262 0.319069
v -0.156417 0.157662 0.317951
v -0.155033 0.153566 0.319007
v -0.195760 0.140774 0.317951
v -0.192270 0.137552 0.319069
v -0.212893 0.100734 0.317951
v -0.208529 0.099620 0.319012
v -0.212894 -0.101443 0.317951
v -0.208529 -0.100329 0.319012
v 0.227615 -0.101445 0.317951
v 0.210482 -0.141484 0.317951
v 0.223251 -0.100330 0.319012
v 0.206992 -0.138262 0.319069
v 0.227615 0.100734 0.317951
v 0.223251 0.099619 0.319012
v 0.210482 0.140774 0.317951
v 0.206993 0.137552 0.319069
v 0.171138 0.157662 0.317951
v 0.169754 0.153566 0.319007
v 0.171140 -0.158372 0.317951
v 0.169753 -0.154277 0.319007
v -0.117614 0.131582 0.318826
v -0.099272 0.132460 0.318826
v -0.117614 -0.132293 0.318826
v -0.099272 -0.133170 0.318826
v 0.113995 0.132460 0.318826
v 0.132336 0.131582 0.318826
v 0.113995 -0.133170 0.318826
v 0.132336 -0.132293 0.318826
v -0.149778 -0.128738 0.318826
v -0.173280 -0.119004 0.318826
v -0.149778 0.128028 0.318826
v -0.173280 0.118293 0.318826
v -0.183014 0.094791 0.318826
v -0.183014 -0.095502 0.318826
v 0.197736 -0.095502 0.318826
v 0.188002 -0.119004 0.318826
v 0.197736 0.094791 0.318826
v 0.188002 0.118293 0.318826
v 0.164500 0.128028 0.318826
v 0.164500 -0.128738 0.318826
v -0.117614 -0.149911 -0.150492
v -0.099272 -0.150906 -0.124295
v -0.099272 0.150196 -0.150492
v -0.117614 0.149201 -0.150492
v 0.113995 -0.150906 -0.124295
v 0.132336 -0.149911 -0.150492
v 0.132336 0.149201 -0.150492
v 0.113995 0.150196 -0.150492
v -0.117617 -0.146388 -0.145363
v -0.099275 -0.147359 -0.119281
v -0.117614 0.145677 -0.145363
v -0.099272 0.146649 -0.145363
v 0.113997 -0.147359 -0.119281
v 0.132339 -0.146388 -0.145363
v 0.113995 0.146649 -0.145363
v 0.132336 0.145677 -0.145363
v 0.214881 0.098201 -0.150492
v 0.201123 0.131415 -0.150492
v 0.167910 0.145172 -0.150492
v 0.167910 -0.145882 -0.150492
v 0.201123 -0.132125 -0.150492
v 0.214881 -0.098912 -0.150492
v -0.200158 -0.098912 -0.150492
v -0.186400 -0.132125 -0.150492
v -0.153187 -0.145882 -0.150492
v -0.153187 0.145172 -0.150492
v -0.186400 0.131415 -0.150492
v -0.200158 0.098201 -0.150492
v -0.196729 -0.095483 -0.145363
v -0.182972 -0.128696 -0.145363
v -0.149759 -0.142453 -0.145363
v -0.196729 0.094773 -0.145363
v -0.182972 0.127986 -0.145363
v -0.149759 0.141743 -0.145363
v 0.211452 0.094773 -0.145363
v 0.197694 0.127986 -0.145363
v 0.164481 0.141743 -0.145363
v 0.211452 -0.095483 -0.145363
v 0.197694 -0.128696 -0.145363
v 0.164481 -0.142453 -0.145363
v -0.117040 -0.143054 -0.316881
v -0.117614 -0.149911 -0.301545
v -0.099272 -0.150906 -0.301545
v -0.099086 -0.144028 -0.316881
v -0.117614 0.149201 -0.301545
v -0.117040 0.142344 -0.316881
v -0.099086 0.143318 -0.316881
v -0.099272 0.150196 -0.301545
v 0.113808 -0.144028 -0.316881
v 0.113995 -0.150906 -0.301545
v 0.132336 -0.149911 -0.301545
v 0.131762 -0.143054 -0.316881
v 0.113995 0.150196 -0.301545
v 0.113808 0.143318 -0.316881
v 0.131762 0.142344 -0.316881
v 0.132336 0.149201 -0.301545
v 0.167910 -0.145882 -0.301545
v 0.166173 -0.139157 -0.316881
v 0.167910 0.145172 -0.301545
v 0.166173 0.138447 -0.316881
v 0.214881 0.098201 -0.301545
v 0.208003 0.096833 -0.316881
v 0.208003 -0.097544 -0.316881
v 0.214881 -0.098912 -0.301545
v -0.153187 -0.145882 -0.301545
v -0.151450 -0.139157 -0.316881
v -0.153187 0.145172 -0.301545
v -0.151450 0.138447 -0.316881
v -0.200158 -0.098912 -0.301545
v -0.193280 -0.097544 -0.316881
v -0.193280 0.096833 -0.316881
v -0.200158 0.098201 -0.301545
v 0.201123 0.131415 -0.301545
v 0.195859 0.126150 -0.316881
v 0.201123 -0.132125 -0.301545
v 0.195859 -0.126861 -0.316881
v -0.186400 -0.132125 -0.301545
v -0.181136 -0.126861 -0.316881
v -0.186400 0.131415 -0.301545
v -0.181136 0.126150 -0.316881
v -0.059855 -0.151989 0.040723
v 0.090160 -0.151989 0.040723
v -0.059855 -0.151989 0.190737
v 0.090160 -0.151989 0.190737
v 0.110713 0.152311 0.020170
v -0.080407 0.152311 0.020170
v 0.110713 0.152311 0.211290
v -0.080407 0.152311 0.211290
vn -0.0000 -0.0000 1.0000
vn -0.2625 -0.7859 0.5598
vn -0.0954 -0.8149 0.5717
vn -0.0391 -0.8159 0.5768
vn -0.3874 -0.7523 0.5329
vn 0.0331 -0.8161 -0.5770
vn 0.2820 -0.7830 -0.5545
vn 0.0828 -0.8114 -0.5786
vn 0.0870 -0.8135 -0.5750
vn -0.0034 0.8225 0.5687
vn -0.0767 0.8141 0.5756
vn -0.0781 0.8138 0.5759
vn -0.0036 0.8225 0.5687
vn -0.0767 0.8141 -0.5756
vn -0.0034 0.8225 -0.5687
vn -0.0036 0.8225 -0.5687
vn -0.0780 0.8138 -0.5759
vn 0.0954 -0.8131 0.5742
vn 0.2625 -0.7859 0.5598
vn 0.3874 -0.7523 0.5329
vn 0.0391 -0.8170 0.5753
vn -0.2819 -0.7830 -0.5545
vn -0.0331 -0.8160 -0.5771
vn -0.0869 -0.8137 -0.5747
vn -0.0829 -0.8114 -0.5786
vn 0.0767 0.8141 0.5756
vn 0.0034 0.8225 0.5687
vn 0.0036 0.8225 0.5687
vn 0.0781 0.8138 0.5759
vn 0.0034 0.8225 -0.5687
vn 0.0767 0.8141 -0.5756
vn 0.0781 0.8138 -0.5759
vn 0.0035 0.8225 -0.5687
vn -0.8047 0.0762 0.5888
vn -0.8047 -0.0762 0.5888
vn -0.8206 -0.0331 0.5706
vn -0.8205 0.0331 0.5706
vn -0.8047 -0.0762 -0.5888
vn -0.8047 0.0762 -0.5888
vn -0.8206 0.0331 -0.5706
vn -0.8206 -0.0330 -0.5706
vn 0.8046 -0.0762 0.5889
vn 0.8046 0.0762 0.5889
vn 0.8205 0.0331 0.5707
vn 0.8205 -0.0331 0.5707
vn 0.8046 0.0762 -0.5889
vn 0.8046 -0.0762 -0.5889
vn 0.8205 -0.0331 -0.5707
vn 0.8205 0.0331 -0.5707
vn 0.2220 -0.7402 0.6347
vn 0.1786 -0.7661 0.6174
vn 0.2220 -0.7402 -0.6347
vn 0.1786 -0.7660 -0.6175
vn 0.2220 0.7401 -0.6348
vn 0.1785 0.7661 -0.6175
vn 0.2220 0.7402 0.6347
vn 0.1785 0.7661 0.6175
vn -0.2220 0.7402 -0.6347
vn -0.1785 0.7661 -0.6175
vn -0.2220 0.7402 0.6347
vn -0.1785 0.7660 0.6175
vn -0.2220 -0.7402 0.6347
vn -0.1786 -0.7661 0.6174
vn -0.2220 -0.7402 -0.6347
vn -0.1786 -0.7661 -0.6174
vn -0.5138 0.5138 -0.6870
vn 0.5138 0.5138 0.6870
vn -0.5138 -0.5139 0.6870
vn -0.5138 -0.5138 0.6870
vn 0.5138 -0.5138 -0.6871
vn -0.5138 0.5139 0.6870
vn -0.5139 0.5138 0.6870
vn -0.5138 -0.5138 -0.6871
vn 0.5138 -0.5138 0.6870
vn 0.5138 0.5138 -0.6871
vn -0.0052 -0.0558 -0.9984
vn -0.0917 -0.9950 -0.0395
vn -0.2500 -0.9675 -0.0392
vn -0.0160 -0.0628 -0.9979
vn -0.0002 -0.0526 -0.9986
vn -0.0041 -0.9994 -0.0357
vn 0.0002 -0.0526 -0.9986
vn 0.0040 -0.9994 -0.0357
vn -0.0927 0.9949 -0.0406
vn -0.0052 0.0558 -0.9984
vn -0.0163 0.0628 -0.9979
vn -0.2499 0.9675 -0.0392
vn -0.0043 0.9991 -0.0410
vn -0.0002 0.0526 -0.9986
vn 0.0043 0.9991 -0.0410
vn 0.0002 0.0526 -0.9986
vn 0.0052 -0.0558 -0.9984
vn 0.0917 -0.9950 -0.0395
vn 0.0162 -0.0627 -0.9979
vn 0.2499 -0.9675 -0.0392
vn 0.0927 0.9949 -0.0406
vn 0.0052 0.0558 -0.9984
vn 0.2499 0.9675 -0.0392
vn 0.0160 0.0628 -0.9979
vn 0.0679 -0.0678 -0.9954
vn 0.7065 -0.7067 -0.0383
vn 0.7065 0.7067 -0.0383
vn 0.0677 0.0679 -0.9954
vn 0.9975 0.0594 -0.0393
vn 0.4955 0.0283 -0.8681
vn 0.9975 -0.0594 -0.0393
vn 0.4956 -0.0284 -0.8681
vn -0.7065 -0.7067 -0.0383
vn -0.0677 -0.0679 -0.9954
vn -0.0677 0.0680 -0.9954
vn -0.7065 0.7067 -0.0383
vn -0.9975 -0.0594 -0.0393
vn -0.4956 -0.0283 -0.8681
vn -0.9975 0.0594 -0.0393
vn -0.4956 0.0284 -0.8681
vn -0.0017 -1.0000 -0.0000
vn -0.0850 -0.9964 -0.0000
vn -0.0928 0.9957 -0.0000
vn -0.0043 1.0000 -0.0000
vn 0.0850 -0.9964 -0.0000
vn 0.0017 -1.0000 -0.0000
vn 0.0043 1.0000 -0.0000
vn 0.0928 0.9957 -0.0000
vn 0.2501 0.9682 -0.0000
vn 0.7071 0.7071 -0.0000
vn 0.9982 0.0597 -0.0000
vn 0.9982 -0.0597 -0.0000
vn 0.7071 -0.7071 -0.0000
vn 0.2501 -0.9682 -0.0000
vn -0.2501 -0.9682 -0.0000
vn -0.7071 -0.7071 -0.0000
vn -0.9982 -0.0597 -0.0000
vn -0.9982 0.0597 -0.0001
vn -0.7071 0.7071 -0.0000
vn -0.2506 0.9681 -0.0000
vt 0.000000 0.000000
vt 1.000000 0.000000
vt 1.000000 1.000000
vt 0.000000 1.000000
vt -0.654380 -0.733961
vt -0.538482 -0.568421
vt -0.538501 -0.536740
vt -0.654399 -0.701554
vt -0.538482 -0.505059
vt -0.654380 -0.669146
vt -0.265245 1.174451
vt -0.381111 1.174451
vt -0.381111 1.142052
vt -0.265245 1.142052
vt -0.381111 1.109654
vt -0.265245 1.109654
vt 0.809149 -0.568421
vt 0.925048 -0.733961
vt 0.925064 -0.701554
vt 0.809165 -0.536740
vt 0.925048 -0.669146
vt 0.809149 -0.505059
vt 1.197875 1.174451
vt 1.082009 1.174451
vt 1.082009 1.142052
vt 1.197875 1.142052
vt 1.082009 1.109654
vt 1.197875 1.109654
vt 0.014358 -0.736167
vt 1.262792 -0.736167
vt 1.241076 -0.703685
vt 0.036074 -0.703685
vt 1.262792 -0.671202
vt 0.014358 -0.671202
vt 0.203406 -0.736168
vt 1.451840 -0.736168
vt 1.430125 -0.703685
vt 0.225122 -0.703685
vt 1.451840 -0.671203
vt 0.203406 -0.671203
vt 1.149836 -0.733961
vt 1.128172 -0.701554
vt 1.149836 -0.669146
vt 1.422602 1.109654
vt 1.400943 1.142052
vt 1.422602 1.174451
vt -0.605838 1.109654
vt -0.584180 1.142052
vt -0.605838 1.174451
vt -0.879170 -0.733961
vt -0.857505 -0.701554
vt -0.879170 -0.669146
vt -0.196000 -0.671202
vt -0.174285 -0.703685
vt -0.815653 1.109654
vt -0.793995 1.142052
vt 1.662199 -0.736168
vt 1.640483 -0.703685
vt 1.632420 1.174451
vt 1.610758 1.142052
vt 1.473150 -0.736167
vt 1.451434 -0.703685
vt -1.089043 -0.733961
vt -1.067380 -0.701554
vt -0.006952 -0.671203
vt 0.014763 -0.703685
vt 1.359714 -0.669146
vt 1.338045 -0.701554
vt -0.815653 1.174451
vt -0.196000 -0.736167
vt -1.089043 -0.669146
vt 1.473150 -0.671202
vt 1.359714 -0.733961
vt -0.006952 -0.736168
vt 1.632420 1.109654
vt 1.662199 -0.671203
vt -0.650755 -1.785368
vt -0.654380 -1.688463
vt -0.879170 -1.688463
vt -0.868194 -1.785368
vt -0.537304 -1.785368
vt -0.538482 -1.688463
vt 0.807971 -1.785368
vt 0.809149 -1.688463
vt -0.381111 2.128686
vt -0.377487 2.225565
vt -0.594866 2.225565
vt -0.605838 2.128686
vt -0.265245 2.128686
vt -0.264067 2.225565
vt 1.082009 2.128686
vt 1.080832 2.225565
vt 0.921422 -1.785368
vt 0.925048 -1.688463
vt 1.138862 -1.785368
vt 1.149836 -1.688463
vt 1.197875 2.128686
vt 1.194251 2.225565
vt 1.422602 2.128686
vt 1.411630 2.225565
vt 1.326449 -1.785368
vt 1.359714 -1.688463
vt 1.632420 2.128686
vt 1.599165 2.225565
vt 1.451840 -1.692876
vt 1.443175 -1.790005
vt 1.628857 -1.790005
vt 1.662199 -1.692876
vt 0.203406 -1.692876
vt 0.212071 -1.790005
vt -0.006952 -1.692876
vt 0.026390 -1.790005
vt -1.089043 -1.688463
vt -1.055779 -1.785368
vt -0.782398 2.225565
vt -0.815653 2.128686
vt 1.262792 -1.692876
vt 1.254126 -1.790005
vt 1.439808 -1.790005
vt 1.473150 -1.692876
vt 0.014358 -1.692876
vt 0.023023 -1.790005
vt -0.196000 -1.692876
vt -0.162659 -1.790005
vt 1.335286 1.246182
vt 1.329197 1.358395
vt -0.454540 1.358395
vt -0.460628 1.246182
vt 1.329197 -0.196619
vt 1.335286 -0.084406
vt -0.460628 -0.084406
vt -0.454540 -0.196619
vt 1.304840 -0.411685
vt -0.430183 -0.411685
vt -0.430183 1.573461
vt 1.304840 1.573461
vt 1.227988 1.758997
vt -0.353330 1.758997
vt 1.227988 -0.597225
vt -0.353330 -0.597225
vt -0.170100 -0.673121
vt 1.044757 -0.673121
vt 1.044757 1.834895
vt -0.170100 1.834895
s 1
usemtl M_Bin_9_1
f 5/1/1 6/2/1 8/3/1 7/4/1
f 205/5/2 206/6/3 214/7/4 213/8/5
f 21/9/6 22/10/7 213/8/8 214/7/9
f 207/11/10 208/12/11 215/13/12 216/14/13
f 23/15/14 24/16/15 216/14/16 215/13/17
f 209/17/18 210/18/19 218/19/20 217/20/21
f 27/21/22 28/22/23 217/20/24 218/19/25
f 211/23/26 212/24/27 219/25/28 220/26/29
f 25/27/30 26/28/31 220/26/32 219/25/33
f 24/16/15 25/27/30 219/25/33 216/14/16
f 212/24/27 207/11/10 216/14/13 219/25/28
f 28/22/23 21/9/6 214/7/9 217/20/24
f 206/6/3 209/17/18 217/20/21 214/7/4
f 232/29/34 227/30/35 233/31/36 236/32/37
f 46/33/38 32/34/39 236/32/40 233/31/41
f 226/35/42 221/36/43 239/37/44 242/38/45
f 40/39/46 50/40/47 242/38/48 239/37/49
f 210/18/19 224/41/50 244/42/51 218/19/20
f 52/43/52 27/21/22 218/19/25 244/42/53
f 26/28/31 38/44/54 241/45/55 220/26/32
f 223/46/56 211/23/26 220/26/29 241/45/57
f 34/47/58 23/15/14 215/13/17 238/48/59
f 208/12/11 230/49/60 238/48/61 215/13/12
f 229/50/62 205/5/2 213/8/5 235/51/63
f 22/10/7 44/52/64 235/51/65 213/8/8
f 32/34/39 33/53/66 237/54/66 236/32/40
f 33/55/66 34/47/58 238/48/59 237/56/66
f 221/36/43 222/57/67 240/58/67 239/37/44
f 222/59/67 223/46/56 241/45/57 240/60/67
f 227/30/35 228/61/68 234/62/69 233/31/36
f 228/63/68 229/50/62 235/51/63 234/64/69
f 50/40/47 51/65/70 243/66/70 242/38/48
f 51/67/70 52/43/52 244/42/53 243/68/70
f 230/49/60 231/69/71 237/56/72 238/48/61
f 231/70/71 232/29/34 236/32/37 237/54/72
f 44/52/64 45/71/73 234/64/73 235/51/65
f 45/72/73 46/33/38 233/31/41 234/62/73
f 224/41/50 225/73/74 243/68/74 244/42/51
f 225/74/74 226/35/42 242/38/45 243/66/74
f 38/44/54 39/75/75 240/60/75 241/45/55
f 39/76/75 40/39/46 239/37/49 240/58/75
f 245/77/76 246/78/77 269/79/78 270/80/79
f 246/78/77 245/77/76 248/81/80 247/82/81
f 247/82/81 248/81/80 253/83/82 254/84/83
f 249/85/84 250/86/85 272/87/86 271/88/87
f 250/86/85 249/85/84 252/89/88 251/90/89
f 251/90/89 252/89/88 257/91/90 258/92/91
f 254/84/83 253/83/82 256/93/92 255/94/93
f 255/94/93 256/93/92 262/95/94 261/96/95
f 258/92/91 257/91/90 260/97/96 259/98/97
f 259/98/97 260/97/96 263/99/98 264/100/99
f 261/96/95 262/95/94 280/101/100 279/102/101
f 264/100/99 263/99/98 277/103/102 278/104/103
f 265/105/104 266/106/105 278/107/103 277/108/102
f 266/106/105 265/105/104 268/109/106 267/110/107
f 267/110/107 268/109/106 279/111/101 280/112/100
f 270/80/79 269/79/78 281/113/108 282/114/109
f 271/88/87 272/87/86 284/115/110 283/116/111
f 273/117/112 274/118/113 282/119/109 281/120/108
f 274/118/113 273/117/112 276/121/114 275/122/115
f 275/122/115 276/121/114 283/123/111 284/124/110
f 206/6/116 205/5/117 246/78/77 247/82/81
f 248/125/80 245/126/76 250/127/85 251/128/89
f 252/89/88 249/85/84 208/12/118 207/11/119
f 210/18/120 209/17/121 254/84/83 255/94/93
f 256/129/92 253/130/82 258/131/91 259/132/97
f 260/97/96 257/91/90 212/24/122 211/23/123
f 247/82/81 254/84/83 209/17/121 206/6/116
f 251/128/89 258/131/91 253/130/82 248/125/80
f 207/11/119 212/24/122 257/91/90 252/89/88
f 223/46/124 222/59/125 277/103/102 263/99/98
f 222/57/125 221/36/126 265/105/104 277/108/102
f 226/35/127 225/74/128 279/111/101 268/109/106
f 225/73/128 224/41/129 261/96/95 279/102/101
f 229/50/130 228/63/131 281/113/108 269/79/78
f 228/61/131 227/30/132 273/117/112 281/120/108
f 232/29/133 231/70/134 283/123/111 276/121/114
f 231/69/134 230/49/135 271/88/87 283/116/111
f 226/35/127 268/109/106 265/105/104 221/36/126
f 232/29/133 276/121/114 273/117/112 227/30/132
f 255/94/93 261/96/95 224/41/129 210/18/120
f 211/23/123 223/46/124 263/99/98 260/97/96
f 229/50/130 269/79/78 246/78/77 205/5/117
f 230/49/135 208/12/118 249/85/84 271/88/87
f 262/133/94 256/129/92 259/132/97 264/134/99
f 272/135/86 270/136/79 282/137/109 284/138/110
f 280/139/100 278/140/103 266/141/105 267/142/107
f 262/133/94 264/134/99 278/140/103 280/139/100
f 284/138/110 282/137/109 274/143/113 275/144/115
f 272/135/86 250/127/85 245/126/76 270/136/79
