# Blender 4.1.0
# www.blender.org
mtllib FridgebodymeshFridgeD4_0_GeomSubset_0.mtl
o FridgebodymeshFridgeD4_0_GeomSubset_0
v -0.070361 0.042273 -0.895570
v -0.070351 0.042273 -0.895570
v -0.070361 0.042282 -0.895570
v -0.070351 0.042282 -0.895570
v -0.070361 0.042273 -0.895570
v -0.070351 0.042273 -0.895570
v -0.070361 0.042282 -0.895570
v -0.070351 0.042282 -0.895570
v -0.070361 0.042273 -0.895570
v -0.070351 0.042273 -0.895570
v -0.070361 0.042282 -0.895570
v -0.070351 0.042282 -0.895570
v -0.070361 0.042273 -0.895570
v -0.070351 0.042273 -0.895570
v -0.070361 0.042282 -0.895570
v -0.070351 0.042282 -0.895570
v -0.070361 0.042273 -0.895570
v -0.070351 0.042273 -0.895570
v -0.070361 0.042282 -0.895570
v -0.070351 0.042282 -0.895570
v -0.070361 0.042273 -0.895570
v -0.070351 0.042273 -0.895570
v -0.070361 0.042282 -0.895570
v -0.070351 0.042282 -0.895570
v -0.070361 0.042273 -0.895570
v -0.070351 0.042273 -0.895570
v -0.070361 0.042282 -0.895570
v -0.070351 0.042282 -0.895570
v -0.565978 0.458504 -0.888092
v 0.564482 0.458507 -0.888092
v 0.564482 0.458507 -0.796302
v -0.565978 0.458504 -0.796302
v 0.564485 -0.307496 -0.888092
v -0.565976 -0.307499 -0.888092
v -0.119807 0.458505 -0.888092
v -0.159622 0.458505 -0.888092
v -0.159622 0.458505 0.888692
v -0.119807 0.458505 0.888692
v -0.159622 0.458505 -0.796302
v -0.119807 0.458505 -0.796302
v -0.159619 -0.307498 -0.888092
v -0.119804 -0.307498 -0.888092
v -0.159619 -0.307498 -0.796302
v -0.119804 -0.307498 -0.796302
v 0.529220 -0.307496 0.856877
v -0.530711 -0.307499 0.856877
v 0.529220 -0.307496 -0.764487
v -0.530711 -0.307499 -0.764487
v -0.084540 -0.307498 0.856877
v -0.194884 -0.307498 0.856877
v -0.194884 -0.307498 -0.764487
v -0.084540 -0.307498 -0.764487
v 0.560219 -0.307992 -0.877829
v -0.159619 -0.307994 -0.877829
v -0.119804 -0.307994 -0.877829
v -0.561712 0.458504 0.888692
v -0.565978 0.458504 0.884844
v 0.564482 0.458507 0.884844
v 0.560217 0.458507 0.888692
v 0.560219 -0.307496 0.884844
v 0.560219 -0.303770 0.888692
v 0.564485 -0.303770 0.884844
v -0.561710 -0.307499 0.884844
v -0.565976 -0.303774 0.884844
v -0.561710 -0.303774 0.888692
v 0.560219 -0.307496 -0.796302
v 0.564485 -0.307496 -0.796559
v 0.564485 -0.303770 -0.796302
v 0.561468 -0.307496 -0.793581
v -0.561714 -0.307606 -0.796357
v -0.562959 -0.307499 -0.793581
v -0.565976 -0.303774 -0.796302
v -0.565976 -0.307499 -0.796559
v -0.119804 -0.303772 0.888692
v -0.119804 -0.307498 0.884844
v -0.116788 -0.307498 0.885971
v -0.159619 -0.303772 0.888692
v -0.162636 -0.307498 0.885971
v -0.159619 -0.307498 0.884844
v 0.554531 -0.379469 -0.877829
v -0.556022 -0.379473 -0.877829
v -0.119804 -0.379471 -0.877829
v -0.159619 -0.379472 -0.877829
v -0.159619 -0.304393 -0.796302
v -0.119804 -0.304393 -0.796302
v 0.554531 -0.379469 -0.796559
v -0.556022 -0.379473 -0.796559
v 0.554531 -0.304888 -0.877829
v -0.556022 -0.304891 -0.877829
v 0.554531 -0.304888 -0.796559
v -0.556022 -0.304891 -0.796559
v -0.119804 -0.379471 -0.796559
v -0.159619 -0.379472 -0.796559
v -0.159619 -0.304890 -0.877829
v -0.119804 -0.304890 -0.877829
v 0.554531 -0.379469 -0.867694
v -0.556022 -0.379473 -0.867694
v -0.119804 -0.379471 -0.867694
v -0.159619 -0.379472 -0.867694
v 0.554531 -0.379469 -0.806694
v -0.556022 -0.379473 -0.806694
v 0.554531 -0.314700 -0.867694
v -0.556022 -0.314703 -0.867694
v 0.554531 -0.314700 -0.806694
v -0.556022 -0.314703 -0.806694
v -0.119804 -0.379471 -0.806694
v -0.159619 -0.379472 -0.806694
v 0.549554 -0.375122 -0.867823
v -0.551045 -0.375125 -0.867823
v -0.119804 -0.375124 -0.867823
v -0.159619 -0.375124 -0.867823
v 0.549554 -0.375122 -0.806565
v -0.551045 -0.375125 -0.806565
v 0.549554 -0.314575 -0.867823
v -0.551045 -0.314579 -0.867823
v 0.549554 -0.314575 -0.806565
v -0.551045 -0.314579 -0.806565
v -0.119804 -0.375124 -0.806565
v -0.159619 -0.375124 -0.806565
v -0.163459 -0.308740 -0.792839
v -0.115965 -0.308740 -0.792839
v 0.533059 -0.308738 0.860341
v -0.534550 -0.308742 0.860341
v 0.533059 -0.308738 -0.767951
v -0.534550 -0.308742 -0.767951
v -0.088379 -0.308740 0.860341
v -0.191045 -0.308741 0.860341
v -0.191045 -0.308741 -0.767951
v -0.088379 -0.308740 -0.767951
v 0.556382 -0.308738 0.881387
v -0.557873 -0.308742 0.881390
v 0.557641 -0.308738 -0.792866
v -0.559132 -0.308742 -0.792866
v -0.115996 -0.308740 0.882518
v -0.163426 -0.308740 0.882517
v -0.561718 -0.307683 -0.877829
v 0.529218 0.224701 0.856877
v -0.084541 0.224699 0.856877
v -0.530711 -0.202550 0.556652
v -0.530711 -0.211741 0.547158
v -0.530712 -0.193425 0.546027
v -0.194885 -0.211740 0.547158
v -0.194885 -0.202549 0.556652
v -0.194885 -0.193424 0.546027
v -0.530712 -0.020408 0.524558
v -0.530712 -0.020473 0.523425
v -0.530712 -0.011282 0.513932
v -0.194885 -0.020407 0.524558
v -0.194885 -0.011281 0.513932
v -0.194885 -0.020472 0.523425
v -0.194885 -0.043573 0.142395
v -0.194885 -0.052763 0.151888
v -0.194885 -0.035403 0.156237
v -0.530712 -0.035404 0.156237
v -0.530712 -0.052764 0.151888
v -0.530712 -0.043574 0.142395
v -0.194885 -0.011281 0.178572
v -0.194885 -0.019451 0.164729
v -0.194885 -0.020472 0.169079
v -0.530712 -0.020473 0.169079
v -0.530712 -0.019452 0.164729
v -0.530712 -0.011282 0.178572
v -0.530711 -0.215466 0.856877
v -0.530711 -0.202550 0.843535
v -0.194885 -0.215466 0.856877
v -0.194885 -0.202549 0.843535
v -0.530712 -0.057991 -0.682044
v -0.530712 -0.043574 -0.665192
v -0.194885 -0.057990 -0.682044
v -0.194885 -0.043573 -0.665192
v -0.084540 -0.242284 0.856877
v -0.084540 -0.271594 0.856877
v -0.084540 -0.271594 -0.764487
v -0.084540 -0.242284 -0.741395
v 0.529220 -0.271593 -0.764487
v 0.529219 -0.242282 -0.741395
v 0.529220 -0.271593 0.856877
v 0.529219 -0.242282 0.856877
v -0.083402 -0.247004 0.852002
v -0.083402 -0.266875 0.852002
v -0.083402 -0.266875 -0.758329
v -0.083402 -0.247004 -0.743448
v 0.528082 -0.266873 -0.758329
v 0.528082 -0.247002 -0.743448
v 0.528082 -0.266873 0.852002
v 0.528082 -0.247002 0.852002
v -0.530711 -0.265065 -0.757478
v -0.530711 -0.243484 -0.736386
v -0.530711 -0.265209 0.151888
v -0.530711 -0.242356 0.151888
v -0.194885 -0.243483 -0.736386
v -0.194884 -0.265064 -0.757478
v -0.194884 -0.265208 0.151888
v -0.194885 -0.242355 0.151888
v -0.527298 -0.260347 -0.748554
v -0.527299 -0.247218 -0.736764
v -0.527298 -0.260488 0.147013
v -0.527299 -0.247076 0.147013
v -0.198297 -0.247217 -0.736764
v -0.198297 -0.260346 -0.748554
v -0.198297 -0.260487 0.147013
v -0.198297 -0.247075 0.147013
v 0.529218 0.200482 -0.724718
v 0.529218 0.224701 -0.699702
v -0.084541 0.224699 -0.699702
v -0.084541 0.200481 -0.724718
v -0.084541 -0.075845 -0.734495
v -0.084541 -0.038611 -0.733073
v -0.084541 -0.075860 0.856877
v -0.084541 -0.038600 0.856877
v 0.529219 -0.038598 0.856877
v 0.529219 -0.075858 0.856877
v 0.529219 -0.075844 -0.734495
v 0.529219 -0.038609 -0.733073
v -0.083118 -0.068890 -0.727040
v -0.083118 -0.045566 -0.726149
v -0.083118 -0.068904 0.849693
v -0.083118 -0.045555 0.849693
v 0.527797 -0.045553 0.849693
v 0.527797 -0.068902 0.849693
v 0.527797 -0.068888 -0.727040
v 0.527797 -0.045564 -0.726149
v -0.490897 -0.158837 0.542252
v -0.234699 -0.158837 0.542252
v -0.490897 -0.054876 0.529350
v -0.234700 -0.054875 0.529350
v -0.479521 -0.148084 0.548670
v -0.246075 -0.148083 0.548670
v -0.479521 -0.063852 0.538218
v -0.246075 -0.063851 0.538218
v -0.479521 -0.148084 0.638471
v -0.246075 -0.148083 0.638471
v -0.479521 -0.063852 0.628019
v -0.246075 -0.063851 0.628019
v -0.533983 -0.045127 0.131900
v -0.191614 -0.045126 0.131900
v -0.191614 -0.045126 -0.012472
v -0.207540 -0.045126 -0.026840
v -0.518056 -0.045127 -0.026840
v -0.533983 -0.045127 -0.012472
v -0.191614 -0.266574 -0.012472
v -0.207540 -0.280485 -0.012472
v -0.207540 -0.266574 -0.026840
v -0.518056 -0.280486 -0.012472
v -0.533982 -0.266575 -0.012472
v -0.518056 -0.266575 -0.026840
v -0.533982 -0.266575 0.131900
v -0.518056 -0.280486 0.131900
v -0.207540 -0.280485 0.131900
v -0.191614 -0.266574 0.131900
v -0.518056 -0.276411 -0.022632
v -0.207540 -0.276410 -0.022632
v -0.529318 -0.045127 -0.022632
v -0.529317 -0.266575 -0.022632
v -0.196279 -0.045126 -0.022632
v -0.196278 -0.266574 -0.022632
v -0.529317 -0.276411 0.131900
v -0.529317 -0.276411 -0.012472
v -0.196278 -0.276410 -0.012472
v -0.196278 -0.276410 0.131900
v -0.197833 -0.275052 -0.021229
v -0.527762 -0.275053 -0.021229
v -0.521753 -0.055808 0.131644
v -0.203843 -0.055807 0.131644
v -0.521753 -0.264450 0.131644
v -0.515623 -0.269804 0.131644
v -0.209972 -0.269803 0.131644
v -0.203842 -0.264449 0.131644
v -0.519958 -0.268236 0.131644
v -0.205638 -0.268235 0.131644
v -0.521753 -0.055808 -0.007212
v -0.203843 -0.055807 -0.007212
v -0.521753 -0.264450 -0.007212
v -0.515623 -0.269804 -0.007212
v -0.209972 -0.269803 -0.007212
v -0.203842 -0.264449 -0.007212
v -0.519958 -0.268236 -0.007212
v -0.205638 -0.268235 -0.007212
v -0.533983 -0.045127 -0.330897
v -0.191614 -0.045126 -0.330897
v -0.191614 -0.045126 -0.475268
v -0.207540 -0.045126 -0.489637
v -0.518056 -0.045127 -0.489637
v -0.533983 -0.045127 -0.475268
v -0.191614 -0.266574 -0.475268
v -0.207540 -0.280485 -0.475268
v -0.207540 -0.266574 -0.489637
v -0.518056 -0.280486 -0.475268
v -0.533982 -0.266575 -0.475268
v -0.518056 -0.266575 -0.489637
v -0.533982 -0.266575 -0.330897
v -0.518056 -0.280486 -0.330897
v -0.207540 -0.280485 -0.330897
v -0.191614 -0.266574 -0.330897
v -0.518056 -0.276411 -0.485428
v -0.207540 -0.276410 -0.485428
v -0.529318 -0.045127 -0.485428
v -0.529317 -0.266575 -0.485428
v -0.196279 -0.045126 -0.485428
v -0.196278 -0.266574 -0.485428
v -0.529317 -0.276411 -0.330897
v -0.529317 -0.276411 -0.475268
v -0.196278 -0.276410 -0.475268
v -0.196278 -0.276410 -0.330897
v -0.197833 -0.275052 -0.484025
v -0.527762 -0.275053 -0.484025
v -0.521753 -0.055808 -0.331153
v -0.203843 -0.055807 -0.331153
v -0.521753 -0.264450 -0.331153
v -0.515623 -0.269804 -0.331153
v -0.209972 -0.269803 -0.331153
v -0.203842 -0.264449 -0.331153
v -0.519958 -0.268236 -0.331153
v -0.205638 -0.268235 -0.331153
v -0.521753 -0.055808 -0.470009
v -0.203843 -0.055807 -0.470009
v -0.521753 -0.264450 -0.470009
v -0.515623 -0.269804 -0.470009
v -0.209972 -0.269803 -0.470009
v -0.203842 -0.264449 -0.470009
v -0.519958 -0.268236 -0.470009
v -0.205638 -0.268235 -0.470009
v -0.530711 -0.266240 0.169079
v -0.530711 -0.266240 0.547158
v -0.194884 -0.266239 0.169079
v -0.194884 -0.266239 0.547158
v -0.530711 -0.266713 0.843535
v -0.194884 -0.266712 0.843535
v -0.119807 0.458505 0.547157
v -0.159622 0.458505 0.547157
v -0.119804 -0.307498 0.547158
v -0.159619 -0.307498 0.547158
v 0.564482 0.458507 0.547157
v -0.565978 0.458504 0.547158
v -0.565976 -0.303774 0.547158
v 0.564485 -0.303770 0.547158
v 0.560496 -0.307496 0.547158
v -0.561995 -0.307499 0.547158
v -0.530711 -0.307499 0.547158
v -0.534550 -0.308742 0.547158
v -0.194884 -0.307498 0.547158
v -0.191045 -0.308741 0.547158
v -0.084540 -0.307498 0.547158
v -0.088379 -0.308740 0.547158
v 0.529220 -0.307496 0.547158
v 0.533059 -0.308738 0.547158
v 0.556660 -0.308738 0.547158
v -0.115989 -0.308740 0.547158
v -0.163434 -0.308740 0.547158
v -0.558159 -0.308742 0.547158
v 0.529220 -0.271593 0.547158
v -0.084540 -0.271594 0.547158
v 0.529218 0.224701 0.547157
v -0.084541 0.224699 0.547157
v 0.528082 -0.247002 0.547158
v 0.528082 -0.266873 0.547158
v -0.083402 -0.247004 0.547158
v -0.083402 -0.266875 0.547158
v 0.529219 -0.242282 0.547158
v -0.084540 -0.242284 0.547158
v 0.529219 -0.038600 0.547158
v 0.529219 -0.075855 0.547158
v -0.084541 -0.038602 0.547158
v -0.084541 -0.075856 0.547158
v 0.527797 -0.045555 0.547158
v 0.527797 -0.068900 0.547158
v -0.083118 -0.068902 0.547158
v -0.083118 -0.045558 0.547158
v -0.159622 0.458505 0.169078
v -0.119804 -0.307498 0.169079
v -0.565978 0.458504 0.169078
v -0.565976 -0.303774 0.169079
v -0.562238 -0.307499 0.169079
v -0.530711 -0.307499 0.169079
v -0.191045 -0.308741 0.169079
v -0.084540 -0.307498 0.169079
v 0.533059 -0.308738 0.169079
v 0.556923 -0.308738 0.169079
v -0.163440 -0.308740 0.169079
v -0.084540 -0.271594 0.169079
v 0.529218 0.224701 0.169078
v 0.528082 -0.266873 0.169079
v -0.083402 -0.247004 0.169079
v -0.084540 -0.242284 0.169079
v 0.529219 -0.038603 0.169079
v -0.084541 -0.075853 0.169079
v 0.527797 -0.068896 0.169079
v -0.083118 -0.045561 0.169079
v -0.119807 0.458505 0.169078
v -0.159619 -0.307498 0.169079
v 0.564483 0.458507 0.169078
v 0.564485 -0.303770 0.169079
v 0.560757 -0.307496 0.169079
v -0.534550 -0.308742 0.169079
v -0.194884 -0.307498 0.169079
v -0.088379 -0.308740 0.169079
v 0.529220 -0.307496 0.169079
v -0.115983 -0.308740 0.169079
v -0.558404 -0.308742 0.169079
v 0.529220 -0.271593 0.169079
v -0.084542 0.224699 0.169079
v 0.528082 -0.247002 0.169079
v -0.083402 -0.266875 0.169079
v 0.529219 -0.242282 0.169079
v 0.529219 -0.075851 0.169079
v -0.084541 -0.038605 0.169079
v 0.527797 -0.045559 0.169079
v -0.083118 -0.068898 0.169079
v -0.159622 0.458505 0.151888
v -0.119804 -0.307498 0.151888
v -0.565978 0.458504 0.151888
v -0.565976 -0.303774 0.151888
v -0.562371 -0.307499 0.151888
v -0.530711 -0.307499 0.151888
v -0.191045 -0.308741 0.151888
v -0.084540 -0.307498 0.151888
v 0.533059 -0.308738 0.151888
v 0.557055 -0.308738 0.151888
v -0.163444 -0.308740 0.151888
v -0.084540 -0.271594 0.151888
v 0.529218 0.224701 0.151888
v 0.528082 -0.266873 0.151888
v -0.083402 -0.247004 0.151888
v -0.084540 -0.242284 0.151888
v 0.529219 -0.038604 0.151888
v -0.084541 -0.075852 0.151888
v 0.527797 -0.068895 0.151888
v -0.083118 -0.045562 0.151888
v -0.119807 0.458505 0.151888
v -0.159619 -0.307498 0.151888
v 0.564483 0.458507 0.151888
v 0.564485 -0.303770 0.151888
v 0.560888 -0.307496 0.151888
v -0.534550 -0.308742 0.151888
v -0.194884 -0.307498 0.151888
v -0.088379 -0.308740 0.151888
v 0.529220 -0.307496 0.151888
v -0.115980 -0.308740 0.151888
v -0.558538 -0.308742 0.151888
v 0.529220 -0.271593 0.151888
v -0.084542 0.224699 0.151888
v 0.528082 -0.247002 0.151888
v -0.083402 -0.266875 0.151888
v 0.529219 -0.242282 0.151888
v 0.529219 -0.075850 0.151888
v -0.084541 -0.038606 0.151888
v 0.527797 -0.045560 0.151888
v -0.083118 -0.068897 0.151888
v -0.087148 0.219421 -0.262686
v -0.087148 0.219421 -0.256272
v 0.532346 0.219423 -0.256272
v 0.532346 0.219423 -0.262686
v -0.087147 -0.248813 -0.262686
v -0.087147 -0.248813 -0.256272
v 0.532348 -0.248811 -0.256272
v 0.532348 -0.248811 -0.262686
v -0.087147 -0.263469 -0.262686
v -0.087147 -0.263469 -0.256272
v 0.532348 -0.263467 -0.256272
v 0.532348 -0.263467 -0.262686
v -0.087147 -0.248813 -0.263969
v -0.087147 -0.248813 -0.254988
v 0.532348 -0.248811 -0.254988
v 0.532348 -0.248811 -0.263969
v -0.087147 -0.263469 -0.263969
v -0.087147 -0.263469 -0.254988
v 0.532348 -0.263467 -0.254988
v 0.532348 -0.263467 -0.263969
v 0.163621 0.219422 -0.262686
v 0.075079 0.219421 -0.262686
v 0.075079 0.219421 -0.256272
v 0.163621 0.219422 -0.256272
v 0.281577 0.219422 -0.256272
v 0.370118 0.219422 -0.256272
v 0.370118 0.219422 -0.262686
v 0.281577 0.219422 -0.262686
v 0.075427 -0.265924 -0.256272
v 0.163622 -0.270548 -0.256272
v 0.281579 -0.270547 -0.256272
v 0.369773 -0.265923 -0.256272
v 0.163622 -0.270548 -0.262686
v 0.075427 -0.265924 -0.262686
v 0.369773 -0.265923 -0.262686
v 0.281579 -0.270547 -0.262686
v 0.075427 -0.280580 -0.262686
v 0.163622 -0.285202 -0.262686
v 0.163622 -0.285202 -0.256272
v 0.075427 -0.280580 -0.256272
v 0.281579 -0.285202 -0.262686
v 0.369773 -0.280579 -0.262686
v 0.369773 -0.280579 -0.256272
v 0.281579 -0.285202 -0.256272
v 0.163622 -0.270548 -0.254988
v 0.075427 -0.265924 -0.254988
v 0.075427 -0.280580 -0.254988
v 0.163622 -0.285202 -0.254988
v 0.281579 -0.285202 -0.254988
v 0.369773 -0.280579 -0.254988
v 0.369773 -0.265923 -0.254988
v 0.281579 -0.270547 -0.254988
v 0.075427 -0.265924 -0.263969
v 0.163622 -0.270548 -0.263969
v 0.163622 -0.285202 -0.263969
v 0.075427 -0.280580 -0.263969
v 0.281579 -0.270547 -0.263969
v 0.369773 -0.265923 -0.263969
v 0.369773 -0.280579 -0.263969
v 0.281579 -0.285202 -0.263969
v -0.087148 0.219421 0.111115
v -0.087148 0.219421 0.117530
v 0.532346 0.219423 0.117530
v 0.532346 0.219423 0.111115
v -0.087147 -0.248813 0.111115
v -0.087147 -0.248813 0.117530
v 0.532348 -0.248811 0.117530
v 0.532348 -0.248811 0.111115
v -0.087147 -0.263469 0.111115
v -0.087147 -0.263469 0.117530
v 0.532348 -0.263467 0.117530
v 0.532348 -0.263467 0.111115
v -0.087147 -0.248813 0.109832
v -0.087147 -0.248813 0.118813
v 0.532348 -0.248811 0.118813
v 0.532348 -0.248811 0.109832
v -0.087147 -0.263469 0.109832
v -0.087147 -0.263469 0.118813
v 0.532348 -0.263467 0.118813
v 0.532348 -0.263467 0.109832
v 0.163621 0.219422 0.111115
v 0.075079 0.219421 0.111115
v 0.075079 0.219421 0.117530
v 0.163621 0.219422 0.117530
v 0.281577 0.219422 0.117530
v 0.370118 0.219422 0.117530
v 0.370118 0.219422 0.111115
v 0.281577 0.219422 0.111115
v 0.075427 -0.265924 0.117530
v 0.163622 -0.270548 0.117530
v 0.281579 -0.270547 0.117530
v 0.369773 -0.265923 0.117530
v 0.163622 -0.270548 0.111115
v 0.075427 -0.265924 0.111115
v 0.369773 -0.265923 0.111115
v 0.281579 -0.270547 0.111115
v 0.075427 -0.280580 0.111115
v 0.163622 -0.285202 0.111115
v 0.163622 -0.285202 0.117530
v 0.075427 -0.280580 0.117530
v 0.281579 -0.285202 0.111115
v 0.369773 -0.280579 0.111115
v 0.369773 -0.280579 0.117530
v 0.281579 -0.285202 0.117530
v 0.163622 -0.270548 0.118813
v 0.075427 -0.265924 0.118813
v 0.075427 -0.280580 0.118813
v 0.163622 -0.285202 0.118813
v 0.281579 -0.285202 0.118813
v 0.369773 -0.280579 0.118813
v 0.369773 -0.265923 0.118813
v 0.281579 -0.270547 0.118813
v 0.075427 -0.265924 0.109832
v 0.163622 -0.270548 0.109832
v 0.163622 -0.285202 0.109832
v 0.075427 -0.280580 0.109832
v 0.281579 -0.270547 0.109832
v 0.369773 -0.265923 0.109832
v 0.369773 -0.280579 0.109832
v 0.281579 -0.285202 0.109832
v -0.087148 0.219421 0.498424
v -0.087148 0.219421 0.504838
v 0.532346 0.219423 0.504838
v 0.532346 0.219423 0.498424
v -0.087147 -0.248813 0.498424
v -0.087147 -0.248813 0.504838
v 0.532348 -0.248811 0.504838
v 0.532348 -0.248811 0.498424
v -0.087147 -0.263469 0.498424
v -0.087147 -0.263469 0.504838
v 0.532348 -0.263467 0.504838
v 0.532348 -0.263467 0.498424
v -0.087147 -0.248813 0.497141
v -0.087147 -0.248813 0.506121
v 0.532348 -0.248811 0.506121
v 0.532348 -0.248811 0.497141
v -0.087147 -0.263469 0.497141
v -0.087147 -0.263469 0.506121
v 0.532348 -0.263467 0.506121
v 0.532348 -0.263467 0.497141
v 0.163621 0.219422 0.498424
v 0.075079 0.219421 0.498424
v 0.075079 0.219421 0.504838
v 0.163621 0.219422 0.504838
v 0.281577 0.219422 0.504838
v 0.370118 0.219422 0.504838
v 0.370118 0.219422 0.498424
v 0.281577 0.219422 0.498424
v 0.075427 -0.265924 0.504838
v 0.163622 -0.270548 0.504838
v 0.281579 -0.270547 0.504838
v 0.369773 -0.265923 0.504838
v 0.163622 -0.270548 0.498424
v 0.075427 -0.265924 0.498424
v 0.369773 -0.265923 0.498424
v 0.281579 -0.270547 0.498424
v 0.075427 -0.280580 0.498424
v 0.163622 -0.285202 0.498424
v 0.163622 -0.285202 0.504838
v 0.075427 -0.280580 0.504838
v 0.281579 -0.285202 0.498424
v 0.369773 -0.280579 0.498424
v 0.369773 -0.280579 0.504838
v 0.281579 -0.285202 0.504838
v 0.163622 -0.270548 0.506121
v 0.075427 -0.265924 0.506121
v 0.075427 -0.280580 0.506121
v 0.163622 -0.285202 0.506121
v 0.281579 -0.285202 0.506121
v 0.369773 -0.280579 0.506121
v 0.369773 -0.265923 0.506121
v 0.281579 -0.270547 0.506121
v 0.075427 -0.265924 0.497141
v 0.163622 -0.270548 0.497141
v 0.163622 -0.285202 0.497141
v 0.075427 -0.280580 0.497141
v 0.281579 -0.270547 0.497141
v 0.369773 -0.265923 0.497141
v 0.369773 -0.280579 0.497141
v 0.281579 -0.285202 0.497141
vn -0.0000 -0.0000 1.0000
vn 0.5474 -0.6267 0.5546
vn 1.0000 -0.0025 -0.0000
vn 0.6135 -0.7897 0.0008
vn -0.0000 1.0000 -0.0000
vn -0.0000 -0.0030 1.0000
vn -0.0000 -0.0029 1.0000
vn -1.0000 -0.0000 -0.0000
vn 1.0000 -0.0000 -0.0000
vn 1.0000 -0.0045 -0.0000
vn 0.0056 -0.0044 1.0000
vn 0.0057 -0.0000 1.0000
vn -0.0096 0.0001 1.0000
vn -0.0095 -0.0042 0.9999
vn -0.6698 -0.0000 0.7425
vn -0.7639 -0.2546 0.5930
vn -0.3189 -0.8723 0.3706
vn -0.0003 -0.7708 0.6371
vn 0.0003 -0.7711 0.6367
vn 0.2341 -0.8563 0.4603
vn 0.7639 -0.2548 0.5929
vn 0.6698 -0.0000 0.7425
vn 0.5712 -0.8208 0.0003
vn -0.6832 -0.7303 0.0003
vn -0.5364 -0.8440 0.0003
vn 0.0194 -0.9998 0.0106
vn -0.0194 -0.9998 0.0107
vn -1.0000 -0.0026 -0.0000
vn -0.5508 -0.6206 0.5581
vn -0.6133 -0.7899 0.0008
vn -1.0000 -0.0052 -0.0000
vn 0.5364 -0.8439 0.0003
vn 0.6825 -0.7309 0.0003
vn -0.5428 -0.8398 0.0003
vn 1.0000 -0.0051 -0.0000
vn 0.5429 -0.8398 0.0003
vn -1.0000 -0.0045 -0.0000
vn -0.5710 -0.8209 0.0003
vt -170.992249 -110.748085
vt -170.992249 -110.748100
vt -170.992233 -110.748100
vt -170.992233 -110.748085
vt -171.975082 -2.498616
vt -171.975082 -2.499372
vt -171.964142 -2.498616
vt -171.975082 -2.490592
vt -170.531113 -2.495328
vt -170.531113 -1.489869
vt -170.648422 -1.489869
vt -170.648422 -2.495328
vt -168.949814 0.871142
vt -168.949814 0.988453
vt -171.195755 0.988453
vt -171.195755 0.871142
vt -168.529175 -2.495328
vt -168.516724 -2.483998
vt -168.516724 -1.489869
vt -171.832092 -2.495328
vt -171.844681 -1.489870
vt -171.844681 -2.483998
vt -171.676956 2.458058
vt -171.676956 1.462417
vt -169.429474 1.462416
vt -169.429474 2.458058
vt -169.716614 -2.498616
vt -169.716614 0.296985
vt -171.964142 0.296985
vt -171.195755 -1.132466
vt -168.949814 -1.132466
vt -168.949814 2.173166
vt -171.195755 2.173166
vt -169.429474 2.469405
vt -171.676956 2.469405
vt -171.206680 2.173166
vt -171.206680 0.997341
vt -171.206680 0.862255
vt -171.206680 -1.132466
vt -171.964142 2.457997
vt -169.716614 2.457997
vt -169.716614 2.469343
vt -171.964142 2.469343
vt -171.975082 0.296985
vt -169.418533 1.462416
vt -169.418533 2.458058
vt -171.206680 0.988453
vt -171.206680 0.871142
vt -171.975082 2.457997
vt -169.429474 -2.498677
vt -169.418533 -2.499434
vt -169.418152 -2.498839
vt -169.418533 -2.490654
vt -170.531113 -0.376825
vt -170.648422 -0.376825
vt -168.516724 -0.376825
vt -171.844681 -0.376825
vt -171.676956 0.347678
vt -169.429474 0.347679
vt -171.964142 1.462382
vt -169.716614 1.462380
vt -171.975082 1.462382
vt -169.418533 0.347679
vt -171.964142 0.347669
vt -169.716614 0.347668
vt -171.975082 0.347669
vt -170.531113 -0.326217
vt -170.648422 -0.326217
vt -168.516724 -0.326217
vt -171.844681 -0.326217
vt -171.676956 0.296992
vt -169.429474 0.296992
vt -169.418533 0.296992
vt -170.531113 2.465203
vt -170.648422 2.465203
vt -168.516724 2.465203
vt -171.844681 2.465203
vt -171.676956 -2.498677
s 1
usemtl M_FridgeD4_0
f 1/1/1 2/2/1 4/3/1 3/4/1
f 66/5/2 67/6/2 68/7/3 69/8/4
f 38/9/5 329/10/5 330/11/5 37/12/5
f 38/13/1 37/14/1 77/15/6 74/16/7
f 59/17/5 58/18/5 333/19/5 329/10/5 38/9/5
f 56/20/5 37/12/5 330/11/5 334/21/5 57/22/5
f 57/23/8 334/24/8 335/25/8 64/26/8
f 31/27/9 431/28/9 432/29/10 68/7/3
f 38/13/1 74/16/7 61/30/11 59/31/12
f 56/32/13 65/33/14 77/15/6 37/14/1
f 57/23/15 64/26/16 65/34/14 56/35/13
f 63/36/17 78/37/18 77/15/6 65/33/14
f 76/38/19 60/39/20 61/30/11 74/16/7
f 62/40/21 58/41/22 59/42/12 61/43/11
f 68/7/3 432/29/10 433/44/23 69/8/4
f 64/26/16 335/25/24 338/45/25 63/46/17
f 79/47/26 75/48/27 74/16/7 77/15/6
f 61/43/11 60/49/20 62/40/21
f 64/26/16 63/46/17 65/34/14
f 72/50/28 73/51/29 70/52/29 71/53/30
f 74/16/7 75/48/27 76/38/19
f 77/15/6 78/37/18 79/47/26
f 330/11/5 329/10/5 389/54/5 369/55/5
f 329/10/5 333/19/5 391/56/5 389/54/5
f 334/21/5 330/11/5 369/55/5 371/57/5
f 335/25/8 334/24/8 371/58/8 372/59/31
f 336/60/9 333/61/9 58/41/9 62/40/9
f 337/62/32 336/60/33 62/40/21 60/49/20
f 338/45/25 335/25/24 372/59/31 373/63/34
f 392/64/35 391/65/9 333/61/9 336/60/9
f 393/66/36 392/64/35 336/60/33 337/62/32
f 369/55/5 389/54/5 429/67/5 409/68/5
f 389/54/5 391/56/5 431/69/5 429/67/5
f 371/57/5 369/55/5 409/68/5 411/70/5
f 372/59/31 371/58/8 411/71/8 412/72/37
f 373/63/34 372/59/31 412/72/37 413/73/38
f 432/29/10 431/28/9 391/65/9 392/64/35
f 433/44/23 432/29/10 392/64/35 393/66/36
f 409/68/5 429/67/5 40/74/5 39/75/5
f 429/67/5 431/69/5 31/76/5 40/74/5
f 411/70/5 409/68/5 39/75/5 32/77/5
f 412/72/37 411/71/8 32/78/8 72/50/28
f 413/73/38 412/72/37 72/50/28 71/53/30
