# Blender 4.1.1
# www.blender.org
mtllib DrawermeshDeskDrawer_323_2_3.mtl
o DeskDrawer_323_2
v -0.385383 -0.262340 -0.039825
v -0.386703 -0.262340 -0.039825
v -0.386703 -0.263239 -0.036013
v -0.385383 -0.263239 -0.036013
v -0.385383 -0.263237 -0.043638
v -0.386703 -0.263237 -0.043638
v -0.354990 -0.267544 -0.043639
v -0.354990 -0.266647 -0.039826
v -0.293673 -0.267544 -0.043639
v -0.293673 -0.266647 -0.039826
v -0.354990 -0.267546 -0.036014
v -0.293673 -0.267546 -0.036014
v -0.263306 -0.262340 -0.039825
v -0.263306 -0.263239 -0.036013
v -0.263306 -0.263237 -0.043637
v -0.261256 -0.263237 -0.043637
v -0.261256 -0.262340 -0.039825
v -0.261256 -0.263239 -0.036013
v -0.386703 -0.265404 -0.034434
v -0.385383 -0.265404 -0.034434
v -0.386703 -0.267568 -0.036014
v -0.385383 -0.267568 -0.036014
v -0.354990 -0.269708 -0.034436
v -0.354990 -0.271873 -0.036016
v -0.293673 -0.269708 -0.034436
v -0.293673 -0.271873 -0.036016
v -0.263306 -0.265404 -0.034434
v -0.263306 -0.267568 -0.036014
v -0.261256 -0.265404 -0.034434
v -0.261256 -0.267568 -0.036014
v -0.386703 -0.268463 -0.039827
v -0.385383 -0.268463 -0.039827
v -0.386703 -0.267565 -0.043639
v -0.385383 -0.267565 -0.043639
v -0.354990 -0.272770 -0.039828
v -0.354990 -0.271871 -0.043641
v -0.293673 -0.272770 -0.039828
v -0.293673 -0.271871 -0.043640
v -0.263306 -0.268463 -0.039827
v -0.263306 -0.267565 -0.043639
v -0.261256 -0.268463 -0.039827
v -0.261256 -0.267565 -0.043639
v -0.386703 -0.265402 -0.045218
v -0.385383 -0.265402 -0.045218
v -0.354990 -0.269707 -0.045219
v -0.293673 -0.269707 -0.045219
v -0.263306 -0.265400 -0.045218
v -0.261256 -0.265400 -0.045218
v -0.672278 -0.258476 0.059839
v -0.043983 -0.258476 0.059839
v -0.043983 -0.250919 0.059841
v -0.672278 -0.250919 0.059841
v -0.050391 -0.248697 -0.196134
v -0.050391 0.073717 -0.196023
v -0.050391 0.073631 0.051281
v -0.050391 -0.248781 0.051170
v -0.041831 -0.258476 0.057658
v -0.041831 -0.258384 -0.202629
v -0.041831 -0.250829 -0.202626
v -0.041831 -0.250919 0.057660
v -0.674432 -0.258384 -0.202629
v -0.674432 -0.258476 0.057658
v -0.674432 -0.250919 0.057660
v -0.674432 -0.250829 -0.202626
v -0.043983 -0.258384 -0.204810
v -0.672278 -0.258384 -0.204810
v -0.672278 -0.250829 -0.204808
v -0.043983 -0.250829 -0.204808
v -0.672278 -0.260521 -0.202630
v -0.043983 -0.260521 -0.202630
v -0.043983 -0.260612 0.057657
v -0.672278 -0.260612 0.057657
v -0.043983 -0.248693 -0.202626
v -0.672278 -0.248693 -0.202626
v -0.665871 -0.248697 -0.196134
v -0.672278 -0.248783 0.057661
v -0.665871 -0.248781 0.051170
v -0.043983 -0.248783 0.057661
v -0.665871 0.073717 -0.196023
v -0.665871 0.073631 0.051281
v -0.657310 0.065140 0.051278
v -0.657310 0.065224 -0.187236
v -0.058952 0.065224 -0.187236
v -0.058952 0.065140 0.051278
v -0.657310 -0.240290 0.051172
v -0.058952 -0.240290 0.051172
v -0.058952 -0.240207 -0.187342
v -0.657310 -0.240207 -0.187342
vn 0.0688 -0.8932 -0.4444
vn -0.5585 -0.8262 0.0744
vn -0.5347 -0.7566 -0.3764
vn 0.0688 -0.8927 -0.4454
vn 0.0599 -0.9953 0.0764
vn -0.5583 -0.8264 0.0733
vn 0.0599 -0.9952 -0.0773
vn 0.0688 -0.8931 0.4445
vn -0.5348 -0.7564 0.3765
vn 0.0599 -0.9953 -0.0765
vn -0.5349 -0.7560 0.3772
vn -0.5582 -0.8264 -0.0735
vn -0.1978 -0.9744 -0.1064
vn -0.1966 -0.8756 0.4412
vn -0.1998 -0.9765 -0.0810
vn -0.1979 -0.9743 -0.1074
vn -0.1942 -0.8766 0.4404
vn -0.1967 -0.8760 0.4403
vn -0.1942 -0.8762 -0.4411
vn -0.1998 -0.9765 0.0811
vn -0.1967 -0.8757 -0.4411
vn -0.0597 -0.9929 -0.1029
vn 0.0713 -0.8931 0.4442
vn 0.0597 -0.9929 -0.1030
vn -0.0597 -0.9930 -0.1020
vn -0.0714 -0.8926 0.4451
vn 0.0713 -0.8926 0.4451
vn -0.0714 -0.8927 -0.4450
vn 0.0597 -0.9930 0.1021
vn 0.0713 -0.8927 -0.4450
vn -0.1979 -0.9744 0.1065
vn -0.0713 -0.8927 -0.4450
vn -0.0597 -0.9930 0.1021
vn 0.1967 -0.8751 -0.4421
vn 0.1980 -0.9745 0.1052
vn 0.1943 -0.8756 -0.4422
vn 0.1968 -0.8760 -0.4403
vn 0.2000 -0.9764 0.0820
vn 0.1980 -0.9743 0.1073
vn 0.2000 -0.9764 -0.0818
vn 0.1944 -0.8765 0.4405
vn 0.1980 -0.9743 -0.1071
vn 0.1999 -0.9765 -0.0807
vn 0.1968 -0.8755 0.4413
vn 0.1943 -0.8760 0.4414
vn 0.5583 -0.8263 -0.0742
vn -0.0688 -0.8932 0.4444
vn -0.0600 -0.9952 -0.0774
vn 0.5582 -0.8265 -0.0736
vn 0.5349 -0.7561 0.3770
vn -0.0689 -0.8928 0.4451
vn 0.5348 -0.7562 -0.3771
vn -0.0600 -0.9953 0.0766
vn -0.0689 -0.8928 -0.4451
vn 0.5348 -0.7563 -0.3770
vn 0.5583 -0.8263 0.0737
vn -0.0600 -0.9952 0.0768
vn 0.0599 -0.2263 -0.9722
vn -0.6133 -0.7519 -0.2417
vn -0.5584 -0.1975 -0.8057
vn 0.0599 -0.2277 -0.9719
vn 0.0054 -0.9403 -0.3404
vn -0.6135 -0.7522 -0.2404
vn 0.0054 0.9632 -0.2686
vn -0.5583 0.1983 -0.8056
vn -0.6135 0.7521 -0.2408
vn 0.0053 0.9631 -0.2691
vn -0.0597 0.2514 -0.9660
vn -0.5583 0.1979 -0.8057
vn 0.1322 0.9341 -0.3317
vn 0.0952 0.2509 -0.9633
vn 0.1355 0.9565 -0.2583
vn 0.1322 0.9338 -0.3325
vn 0.0932 0.2252 -0.9698
vn 0.0951 0.2499 -0.9636
vn 0.0053 0.9400 -0.3413
vn -0.0599 0.2267 -0.9721
vn -0.0054 0.9400 -0.3413
vn 0.0054 0.9403 -0.3404
vn 0.0599 0.2276 -0.9719
vn -0.0599 0.2275 -0.9719
vn -0.0597 -0.2516 -0.9660
vn 0.0054 -0.9631 -0.2689
vn -0.0053 -0.9632 -0.2688
vn -0.0597 -0.2526 -0.9657
vn -0.0053 -0.9634 -0.2679
vn 0.0596 -0.2525 -0.9657
vn -0.0953 -0.2506 -0.9634
vn -0.1323 -0.9340 -0.3317
vn -0.0935 -0.2260 -0.9696
vn -0.0951 -0.2491 -0.9638
vn -0.1354 -0.9560 -0.2603
vn -0.1322 -0.9335 -0.3332
vn 0.0936 -0.2258 -0.9697
vn 0.1356 -0.9564 -0.2587
vn 0.0954 -0.2506 -0.9634
vn 0.0934 -0.2246 -0.9700
vn 0.1323 -0.9335 -0.3332
vn 0.1356 -0.9561 -0.2599
vn -0.1356 0.9563 -0.2589
vn -0.0934 0.2257 -0.9697
vn -0.1324 0.9339 -0.3321
vn -0.1356 0.9564 -0.2588
vn -0.0952 0.2504 -0.9634
vn 0.6135 0.7521 -0.2408
vn 0.0597 0.2520 -0.9659
vn -0.0054 0.9633 -0.2685
vn 0.6133 0.7521 -0.2413
vn 0.5583 0.1978 -0.8057
vn 0.0598 0.2514 -0.9660
vn 0.5584 -0.1974 -0.8058
vn -0.0053 -0.9396 -0.3421
vn -0.0600 -0.2260 -0.9723
vn 0.5581 -0.1987 -0.8056
vn 0.6135 -0.7522 -0.2404
vn -0.0053 -0.9402 -0.3405
vn -0.0597 0.9928 0.1043
vn -0.5346 0.7572 -0.3754
vn -0.5584 0.8261 0.0754
vn -0.0596 0.9930 0.1023
vn -0.0713 0.8928 -0.4448
vn -0.5350 0.7562 -0.3767
vn -0.0713 0.8929 0.4446
vn -0.5584 0.8263 -0.0741
vn -0.5348 0.7564 0.3767
vn -0.0713 0.8924 0.4457
vn -0.0597 0.9931 -0.1014
vn -0.5582 0.8265 -0.0730
vn 0.1966 0.8753 0.4419
vn 0.1978 0.9745 -0.1054
vn 0.1942 0.8757 0.4420
vn 0.1967 0.8761 0.4401
vn 0.1998 0.9764 -0.0822
vn 0.1978 0.9743 -0.1075
vn 0.0689 0.8933 0.4442
vn -0.0599 0.9952 -0.0778
vn -0.0688 0.8933 0.4441
vn 0.0689 0.8924 0.4460
vn 0.0599 0.9953 -0.0756
vn -0.0599 0.9953 -0.0757
vn 0.0600 0.9952 0.0776
vn 0.0689 0.8932 -0.4443
vn -0.0688 0.8932 -0.4444
vn 0.0600 0.9953 0.0765
vn -0.0688 0.8927 -0.4453
vn -0.0599 0.9953 0.0765
vn 0.1997 0.9764 0.0824
vn 0.1941 0.8768 -0.4400
vn 0.1977 0.9743 0.1077
vn 0.1998 0.9765 0.0809
vn 0.1966 0.8756 -0.4412
vn 0.1942 0.8761 -0.4413
vn -0.1979 0.9745 0.1062
vn -0.1966 0.8755 -0.4414
vn -0.1998 0.9765 0.0807
vn -0.1980 0.9743 0.1076
vn -0.1944 0.8766 -0.4402
vn -0.1969 0.8761 -0.4401
vn -0.1943 0.8757 0.4421
vn -0.1999 0.9765 -0.0799
vn -0.1968 0.8751 0.4421
vn -0.1944 0.8765 0.4403
vn -0.1980 0.9743 -0.1074
vn -0.2000 0.9764 -0.0819
vn 0.5347 0.7566 0.3763
vn 0.0597 0.9929 -0.1031
vn 0.0714 0.8931 0.4442
vn 0.5350 0.7558 0.3776
vn 0.5582 0.8265 -0.0729
vn 0.0597 0.9931 -0.1013
vn 0.5583 0.8263 0.0745
vn 0.0713 0.8932 -0.4440
vn 0.0597 0.9929 0.1032
vn 0.5583 0.8263 0.0748
vn 0.5348 0.7567 -0.3760
vn 0.0714 0.8933 -0.4438
vn -0.0597 0.2527 0.9657
vn -0.6136 0.7523 0.2401
vn -0.5582 0.1990 0.8055
vn -0.0596 0.2523 0.9658
vn 0.0053 0.9633 0.2682
vn -0.6134 0.7522 0.2405
vn 0.0054 -0.9397 0.3420
vn -0.5586 -0.1972 0.8057
vn -0.6133 -0.7519 0.2418
vn 0.0054 -0.9404 0.3401
vn 0.0599 -0.2278 0.9719
vn -0.5582 -0.1988 0.8055
vn -0.1354 -0.9563 0.2593
vn -0.0932 -0.2253 0.9698
vn -0.1323 -0.9338 0.3325
vn -0.1355 -0.9566 0.2580
vn -0.0953 -0.2512 0.9632
vn -0.0935 -0.2265 0.9695
vn 0.0053 -0.9633 0.2685
vn 0.0597 -0.2519 0.9659
vn -0.0054 -0.9632 0.2686
vn 0.0053 -0.9635 0.2676
vn -0.0597 -0.2528 0.9657
vn 0.0597 -0.2528 0.9657
vn 0.0599 0.2275 0.9719
vn 0.0054 0.9402 0.3405
vn -0.0053 0.9402 0.3406
vn 0.0600 0.2266 0.9721
vn -0.0054 0.9399 0.3414
vn -0.0599 0.2266 0.9722
vn 0.0934 0.2255 0.9698
vn 0.1355 0.9563 0.2591
vn 0.0953 0.2501 0.9635
vn 0.0933 0.2251 0.9699
vn 0.1323 0.9337 0.3327
vn 0.1355 0.9562 0.2595
vn -0.0953 0.2502 0.9635
vn -0.1325 0.9339 0.3322
vn -0.0935 0.2255 0.9697
vn -0.0952 0.2493 0.9637
vn -0.1356 0.9561 0.2599
vn -0.1324 0.9336 0.3331
vn 0.1324 -0.9340 0.3317
vn 0.0953 -0.2507 0.9633
vn 0.1357 -0.9564 0.2585
vn 0.1325 -0.9340 0.3317
vn 0.0935 -0.2261 0.9696
vn 0.0954 -0.2508 0.9633
vn 0.6134 -0.7523 0.2405
vn -0.0600 -0.2275 0.9719
vn -0.0054 -0.9402 0.3405
vn 0.6136 -0.7523 0.2400
vn 0.5582 -0.1992 0.8054
vn -0.0600 -0.2281 0.9718
vn 0.5584 0.1973 0.8058
vn -0.0054 0.9629 0.2699
vn 0.0598 0.2508 0.9662
vn 0.5581 0.1986 0.8056
vn 0.6135 0.7522 0.2404
vn -0.0054 0.9634 0.2682
vn 0.5576 -0.7072 -0.4348
vn 0.5576 -0.7074 0.4344
vn 0.5338 -0.8456 -0.0003
vn 0.5588 -0.7065 0.4344
vn 0.5589 -0.7061 -0.4348
vn 0.6132 0.0007 -0.7899
vn 0.5583 -0.7069 0.4343
vn 0.6134 0.0001 -0.7897
vn 0.6134 -0.0003 0.7897
vn 0.6134 -0.0005 0.7898
vn 0.6133 -0.0000 -0.7898
vn 0.5587 0.7066 -0.4343
vn 0.5583 0.7069 -0.4343
vn 0.5583 0.7066 0.4348
vn 0.5583 0.7066 0.4349
vn 0.5348 0.8450 0.0003
vn -0.5589 -0.7063 0.4344
vn -0.5589 -0.7060 -0.4348
vn -0.5358 -0.8443 -0.0003
vn -0.5579 -0.7068 -0.4349
vn -0.5579 -0.7072 0.4344
vn -0.6135 -0.0005 0.7897
vn -0.5589 -0.7062 -0.4347
vn -0.6134 0.0001 0.7898
vn -0.6133 0.0007 -0.7899
vn -0.6134 0.0001 -0.7898
vn -0.6133 -0.0005 0.7898
vn -0.5587 0.7063 0.4348
vn -0.6136 0.0008 -0.7896
vn -0.5576 0.7071 0.4349
vn -0.5575 0.7075 -0.4343
vn -0.5590 0.7063 -0.4344
vn -0.5590 0.7060 0.4349
vn -0.5359 0.8443 0.0003
vn -0.0000 0.0003 -1.0000
vn -1.0000 -0.0000 -0.0000
vn 1.0000 -0.0000 -0.0000
vn -0.0000 -0.0003 1.0000
vn -0.0000 1.0000 0.0004
vn -0.0000 -1.0000 -0.0006
vn -0.0002 -1.0000 -0.0003
vn -0.0000 -1.0000 -0.0003
vn 0.0001 -1.0000 -0.0003
vn 0.0003 -1.0000 -0.0003
vn -0.0000 0.0004 -1.0000
vn 0.5784 0.5827 -0.5709
vn -0.5787 0.5827 -0.5706
vn 0.5783 0.5828 0.5709
vn -0.5788 0.5827 0.5705
vn 0.5780 -0.5827 0.5712
vn 0.5784 -0.5831 -0.5705
vn -0.5782 -0.5826 0.5712
vn -0.5789 -0.5824 -0.5707
vn 0.7043 0.7099 0.0002
vn -0.7042 0.7100 0.0002
vn -0.7048 0.7094 0.0003
vn -0.0000 0.7147 0.6995
vn -0.0000 0.7143 0.6998
vn -0.0000 0.7146 -0.6996
vn 0.7040 -0.7102 -0.0003
vn 0.7046 -0.7096 -0.0002
vn -0.7047 -0.7095 -0.0002
vn -0.7044 -0.7098 -0.0002
vn -0.0000 -0.7143 0.6998
vn -0.0000 -0.7146 0.6996
vn -0.0000 -0.7143 -0.6998
vn -0.7118 -0.0002 0.7024
vn -0.7118 0.0002 -0.7024
vn 0.7116 -0.0002 0.7025
vn 0.7116 0.0002 -0.7025
vt 0.260898 0.657213
vt 0.260287 0.659318
vt 0.260287 0.657213
vt 0.260898 0.659318
vt 0.260898 0.655108
vt 0.260287 0.655108
vt 0.274959 0.655108
vt 0.274959 0.657213
vt 0.303330 0.655108
vt 0.303330 0.657213
vt 0.274959 0.659318
vt 0.303330 0.659318
vt 0.317380 0.657214
vt 0.317380 0.659318
vt 0.317380 0.655109
vt 0.318328 0.655109
vt 0.318328 0.657214
vt 0.318328 0.659318
vt 0.260898 0.133111
vt 0.260287 0.134448
vt 0.260287 0.133111
vt 0.260898 0.134448
vt 0.260287 0.135786
vt 0.260898 0.135786
vt 0.274959 0.137108
vt 0.274959 0.138445
vt 0.303329 0.137108
vt 0.303329 0.138445
vt 0.303330 0.135771
vt 0.274959 0.135771
vt 0.317380 0.133111
vt 0.317380 0.134448
vt 0.317379 0.135786
vt 0.318328 0.134448
vt 0.318328 0.135786
vt 0.318328 0.133111
vt 0.303329 0.657213
vt 0.303329 0.659318
vt 0.317379 0.659318
vt 0.318328 0.657214
vt 0.318328 0.659318
vt 0.303330 0.137108
vt 0.303330 0.138445
vt 0.317380 0.135786
vt 0.318328 0.134448
vt 0.318328 0.135786
vt 0.135786 0.655108
vt 0.135786 0.659318
vt 0.136340 0.657213
vt 0.134448 0.654236
vt 0.134448 0.660190
vt 0.133111 0.655108
vt 0.133111 0.659318
vt 0.132558 0.657213
vt 0.135786 0.659318
vt 0.135786 0.655109
vt 0.136339 0.657214
vt 0.134448 0.660191
vt 0.134448 0.654236
vt 0.133111 0.659318
vt 0.133111 0.655109
vt 0.132557 0.657214
vt 0.390161 0.071494
vt 0.023216 0.075943
vt 0.023216 0.071494
vt 0.390161 0.075943
vt 0.077200 0.700135
vt 0.267031 0.842711
vt 0.267031 0.700135
vt 0.077200 0.842711
vt 0.071494 0.846454
vt 0.075943 0.696393
vt 0.071494 0.696393
vt 0.075943 0.846454
vt 0.390161 0.696393
vt 0.023216 0.846454
vt 0.023216 0.696393
vt 0.390161 0.846454
vt 0.026959 0.700135
vt 0.023216 0.696393
vt 0.386419 0.700135
vt 0.386419 0.842711
vt 0.026959 0.842711
vt 0.386419 0.077200
vt 0.026959 0.267031
vt 0.386419 0.267031
vt 0.026959 0.077200
vt 0.381419 0.842711
vt 0.031959 0.705203
vt 0.381419 0.705203
vt 0.031959 0.842711
vt 0.381419 0.082200
vt 0.031959 0.082200
vt 0.031959 0.262031
vt 0.381419 0.262031
vt 0.262031 0.842711
vt 0.082200 0.705203
vt 0.262031 0.705203
vt 0.082200 0.842711
vt 0.391419 0.071494
vt 0.390161 0.070237
vt 0.021959 0.071494
vt 0.023216 0.070237
vt 0.070237 0.696393
vt 0.071494 0.695135
vt 0.075943 0.695135
vt 0.077200 0.696393
vt 0.390161 0.077200
vt 0.391419 0.075943
vt 0.023216 0.695135
vt 0.021959 0.696393
vt 0.021959 0.075943
vt 0.023216 0.077200
vt 0.070237 0.846454
vt 0.021959 0.846454
vt 0.077200 0.846454
vt 0.390161 0.695135
s 1
usemtl M_DeskDrawer_323_2_0
f 1/1/1 3/2/2 2/3/3
f 1/1/4 4/4/5 3/2/6
f 5/5/7 1/1/8 2/3/9
f 5/5/10 2/3/11 6/6/12
f 7/7/13 1/1/14 5/5/15
f 7/7/16 8/8/17 1/1/18
f 8/8/19 4/4/20 1/1/21
f 9/9/22 8/8/23 7/7/24
f 9/9/25 10/10/26 8/8/27
f 10/10/28 11/11/29 8/8/30
f 8/8/19 11/11/31 4/4/20
f 10/10/32 12/12/33 11/11/29
f 13/13/34 12/12/35 10/10/36
f 13/13/37 14/14/38 12/12/39
f 15/15/40 10/10/41 9/9/42
f 15/15/43 13/13/44 10/10/45
f 16/16/46 13/13/47 15/15/48
f 16/16/49 17/17/50 13/13/51
f 17/17/52 14/14/53 13/13/54
f 17/17/55 18/18/56 14/14/57
f 4/19/58 19/20/59 3/21/60
f 4/19/61 20/22/62 19/20/63
f 20/22/64 21/23/65 19/20/66
f 20/22/67 22/24/68 21/23/69
f 23/25/70 22/24/71 20/22/72
f 23/25/73 24/26/74 22/24/75
f 25/27/76 24/26/77 23/25/78
f 25/27/79 26/28/80 24/26/81
f 12/29/82 25/27/83 23/25/84
f 12/29/85 23/25/86 11/30/87
f 11/30/88 20/22/89 4/19/90
f 11/30/91 23/25/92 20/22/93
f 14/31/94 25/27/95 12/29/96
f 14/31/97 27/32/98 25/27/99
f 27/32/100 26/28/101 25/27/102
f 27/32/103 28/33/104 26/28/101
f 29/34/105 28/33/106 27/32/107
f 29/34/108 30/35/109 28/33/110
f 18/36/111 27/32/112 14/31/113
f 18/36/114 29/34/115 27/32/116
f 22/4/117 31/3/118 21/2/119
f 22/4/120 32/1/121 31/3/122
f 32/1/123 33/6/124 31/3/125
f 32/1/126 34/5/127 33/6/128
f 35/8/129 34/5/130 32/1/131
f 35/8/132 36/7/133 34/5/134
f 37/37/135 36/7/136 35/8/137
f 37/37/138 38/9/139 36/7/140
f 26/38/141 37/37/142 35/8/143
f 26/38/144 35/8/145 24/11/146
f 24/11/147 32/1/148 22/4/149
f 24/11/150 35/8/151 32/1/152
f 28/39/153 37/37/154 26/38/155
f 28/39/156 39/13/157 37/37/158
f 39/13/159 38/9/160 37/37/161
f 39/13/162 40/15/163 38/9/164
f 41/40/165 40/15/166 39/13/167
f 41/40/168 42/16/169 40/15/170
f 30/41/171 39/13/172 28/39/173
f 30/41/174 41/40/175 39/13/176
f 34/24/177 43/20/178 33/23/179
f 34/24/180 44/22/181 43/20/182
f 44/22/183 6/21/184 43/20/185
f 44/22/186 5/19/187 6/21/188
f 45/25/189 5/19/190 44/22/191
f 45/25/192 7/30/193 5/19/194
f 46/42/195 7/30/196 45/25/197
f 46/42/198 9/29/199 7/30/200
f 38/43/201 46/42/202 45/25/203
f 38/43/204 45/25/205 36/26/206
f 36/26/207 44/22/208 34/24/209
f 36/26/210 45/25/211 44/22/212
f 40/44/213 46/42/214 38/43/215
f 40/44/216 47/32/217 46/42/218
f 47/32/219 9/29/220 46/42/221
f 47/32/222 15/31/223 9/29/224
f 48/45/225 15/31/226 47/32/227
f 48/45/228 16/36/229 15/31/230
f 42/46/231 47/32/232 40/44/233
f 42/46/234 48/45/235 47/32/236
f 33/47/237 21/48/238 31/49/239
f 21/48/240 33/47/241 43/50/242
f 21/48/243 43/50/244 19/51/245
f 19/51/246 43/50/247 6/52/248
f 19/51/245 6/52/249 3/53/250
f 3/53/251 6/52/249 2/54/252
f 30/55/253 42/56/254 41/57/255
f 42/56/256 30/55/257 29/58/258
f 42/56/259 29/58/260 48/59/261
f 48/59/262 29/58/263 18/60/264
f 48/59/265 18/60/266 16/61/267
f 16/61/268 18/60/269 17/62/270
f 49/63/271 51/64/271 50/65/271
f 49/63/271 52/66/271 51/64/271
f 53/67/272 55/68/272 54/69/272
f 53/67/272 56/70/272 55/68/272
f 57/71/272 59/72/272 58/73/272
f 57/71/272 60/74/272 59/72/272
f 61/73/273 63/74/273 62/71/273
f 61/73/273 64/72/273 63/74/273
f 65/65/274 67/66/274 66/63/274
f 65/65/274 68/64/274 67/66/274
f 69/75/275 71/76/275 70/77/275
f 69/75/275 72/78/275 71/76/275
f 53/79/276 74/75/276 73/80/276
f 53/79/276 75/81/276 74/75/276
f 75/81/277 76/78/277 74/75/277
f 75/81/278 77/82/278 76/78/278
f 77/82/278 78/76/278 76/78/278
f 77/82/278 56/83/278 78/76/278
f 56/83/279 73/80/279 78/76/279
f 56/83/280 53/79/280 73/80/280
f 79/81/278 55/83/278 80/82/278
f 79/81/278 54/79/278 55/83/278
f 75/84/274 54/85/274 79/86/274
f 75/84/274 53/87/274 54/85/274
f 81/88/275 83/89/275 82/90/275
f 81/88/275 84/91/275 83/89/275
f 77/70/273 79/69/273 80/68/273
f 77/70/273 75/67/273 79/69/273
f 85/92/271 56/87/271 77/84/271
f 85/92/271 86/93/271 56/87/271
f 86/93/271 55/85/271 56/87/271
f 86/93/271 84/94/271 55/85/271
f 84/94/281 80/86/281 55/85/281
f 84/94/281 81/95/281 80/86/281
f 81/95/271 77/84/271 80/86/271
f 81/95/271 85/92/271 77/84/271
f 87/93/271 82/95/271 83/94/271
f 87/93/271 88/92/271 82/95/271
f 84/96/273 87/97/273 83/98/273
f 84/96/273 86/99/273 87/97/273
f 85/99/272 82/98/272 88/97/272
f 85/99/272 81/96/272 82/98/272
f 86/91/278 88/90/278 87/89/278
f 86/91/278 85/88/278 88/90/278
f 62/100/282 49/63/282 72/101/282
f 57/102/283 71/103/283 50/65/283
f 61/73/284 69/104/284 66/105/284
f 58/102/285 65/65/285 70/103/285
f 64/72/286 67/106/286 74/107/286
f 76/108/287 52/66/287 63/109/287
f 73/80/288 68/110/288 59/111/288
f 60/112/289 51/64/289 78/113/289
f 61/73/290 72/114/290 69/104/290
f 61/73/290 62/71/290 72/114/290
f 70/77/291 57/115/291 58/111/291
f 70/77/292 71/76/292 57/115/292
f 69/101/293 65/65/293 66/63/293
f 69/101/294 70/103/294 65/65/294
f 49/63/295 71/103/295 72/101/295
f 49/63/295 50/65/295 71/103/295
f 74/107/296 63/74/296 64/72/296
f 74/107/297 76/116/297 63/74/297
f 59/111/298 78/76/298 73/80/298
f 59/111/299 60/115/299 78/76/299
f 67/117/300 73/80/300 74/75/300
f 67/117/301 68/110/301 73/80/301
f 76/108/302 51/64/302 52/66/302
f 76/108/302 78/113/302 51/64/302
f 58/102/303 68/64/303 65/65/303
f 58/102/303 59/112/303 68/64/303
f 60/112/304 50/65/304 51/64/304
f 60/112/304 57/102/304 50/65/304
f 66/105/305 64/72/305 61/73/305
f 66/105/305 67/106/305 64/72/305
f 52/66/306 62/100/306 63/109/306
f 52/66/306 49/63/306 62/100/306
