# Blender 4.1.1
# www.blender.org
mtllib Fp323_Studydesk3Desk_323_0.mtl
o Desk_323
v 0.666668 -0.257263 0.207647
v 0.666668 0.264193 0.207827
v 0.666668 0.264166 0.286233
v 0.666668 -0.257292 0.286053
v -0.025249 0.264193 0.207827
v -0.025249 0.264166 0.286233
v -0.025249 -0.257263 0.207647
v -0.025249 -0.257292 0.286053
v 0.662600 -0.257265 0.211768
v 0.662600 -0.268324 0.211764
v -0.021182 -0.268324 0.211764
v -0.021182 -0.257265 0.211768
v -0.692038 -0.281740 0.291045
v 0.688872 -0.281740 0.291045
v 0.688872 -0.281759 0.341720
v -0.692038 -0.281759 0.341720
v -0.694542 0.270462 0.291236
v -0.694542 -0.279257 0.291046
v -0.694542 -0.279274 0.341721
v -0.694542 0.270445 0.341911
v -0.692038 0.270445 0.346574
v -0.692038 -0.279276 0.346384
v 0.688872 -0.279276 0.346384
v 0.688872 0.270445 0.346574
v 0.691376 -0.279257 0.291046
v 0.691376 0.270462 0.291236
v 0.691376 0.270445 0.341911
v 0.691376 -0.279274 0.341721
v 0.688872 0.272947 0.291237
v -0.692038 0.272947 0.291237
v -0.692038 0.272930 0.341912
v 0.688872 0.272930 0.341912
v 0.666573 -0.265787 -0.548760
v 0.679151 -0.265787 -0.548760
v 0.679151 -0.266075 0.286062
v 0.666573 -0.266075 0.286062
v 0.666573 0.270952 -0.550908
v 0.679151 0.270952 -0.550908
v 0.679151 -0.263500 -0.551093
v 0.666573 -0.263500 -0.551093
v 0.666573 0.272949 0.286248
v 0.679151 0.272949 0.286248
v 0.679151 0.273237 -0.548574
v 0.666573 0.273237 -0.548574
v 0.666573 -0.263790 0.288396
v 0.679151 -0.263790 0.288396
v 0.679151 0.270662 0.288581
v 0.666573 0.270662 0.288581
v 0.681454 -0.263502 -0.548760
v 0.681454 0.270952 -0.548575
v 0.681454 0.270664 0.286247
v 0.681454 -0.263790 0.286062
v -0.038801 -0.265787 -0.549112
v -0.025530 -0.265787 -0.549112
v -0.025530 -0.266075 0.286414
v -0.038801 -0.266075 0.286414
v -0.038801 0.271298 -0.550908
v -0.025530 0.271298 -0.550908
v -0.025530 -0.263845 -0.551093
v -0.038801 -0.263845 -0.551093
v -0.038801 0.272949 0.286600
v -0.025530 0.272949 0.286600
v -0.025530 0.273237 -0.548926
v -0.038801 0.273237 -0.548926
v -0.038801 -0.264135 0.288396
v -0.025530 -0.264135 0.288396
v -0.025530 0.271009 0.288581
v -0.038801 0.271009 0.288581
v -0.023574 -0.263847 -0.549112
v -0.023574 0.271298 -0.548927
v -0.023574 0.271009 0.286599
v -0.023574 -0.264135 0.286414
v -0.682205 -0.245031 0.067365
v -0.682205 -0.245110 0.288402
v -0.682205 0.272947 0.288581
v -0.682205 0.273026 0.067544
v -0.682205 -0.244936 -0.212464
v -0.682205 0.273121 -0.212285
v -0.682205 -0.244835 -0.496360
v -0.682205 0.273220 -0.496181
v -0.682205 -0.244818 -0.551087
v -0.682205 0.273237 -0.550907
v -0.034058 -0.245031 0.067365
v -0.034058 0.273026 0.067544
v -0.034058 0.272947 0.288581
v -0.034058 -0.245110 0.288402
v -0.034058 -0.244936 -0.212464
v -0.034058 0.273121 -0.212285
v -0.034058 -0.244835 -0.496360
v -0.034058 0.273220 -0.496181
v -0.034058 -0.244818 -0.551087
v -0.034058 0.273237 -0.550907
v -0.669363 -0.244930 -0.225474
v -0.669363 0.209511 -0.225317
v -0.046899 0.209511 -0.225317
v -0.046899 -0.244930 -0.225474
v -0.689758 -0.265787 -0.547477
v -0.679714 -0.265787 -0.547477
v -0.679714 -0.266075 0.284779
v -0.689758 -0.266075 0.284779
v -0.689758 0.269697 -0.550909
v -0.679714 0.269697 -0.550909
v -0.679714 -0.262245 -0.551093
v -0.689758 -0.262245 -0.551093
v -0.689758 0.272949 0.284965
v -0.679714 0.272949 0.284965
v -0.679714 0.273237 -0.547291
v -0.689758 0.273237 -0.547291
v -0.689758 -0.262535 0.288396
v -0.679714 -0.262535 0.288396
v -0.679714 0.269407 0.288580
v -0.689758 0.269407 0.288580
v -0.676145 -0.262245 -0.547476
v -0.676145 0.269695 -0.547292
v -0.676145 0.269407 0.284964
v -0.676145 -0.262533 0.284780
v -0.046899 -0.245035 0.080374
v -0.046899 0.209402 0.080531
v -0.669363 0.209402 0.080531
v -0.669363 -0.245035 0.080374
v -0.669363 -0.244940 -0.199456
v -0.669363 0.209499 -0.199298
v -0.669363 0.209412 0.054513
v -0.669363 -0.245026 0.054356
v -0.669363 -0.244841 -0.483351
v -0.046899 -0.244841 -0.483351
v -0.046899 -0.244940 -0.199456
v -0.046899 -0.245026 0.054356
v -0.669363 -0.245104 0.275393
v -0.046899 -0.245104 0.275393
v -0.046899 0.209337 0.275550
v -0.669363 0.209337 0.275550
v -0.669363 0.209599 -0.483194
v -0.046899 0.209599 -0.483194
v -0.046899 0.209499 -0.199298
v -0.046899 0.209412 0.054513
v 0.662600 -0.257290 0.281932
v -0.021182 -0.257290 0.281932
v 0.662600 -0.268349 0.281928
v -0.021182 -0.268349 0.281928
v 0.688872 -0.279255 0.286382
v 0.688872 0.270464 0.286572
v -0.692038 -0.279255 0.286382
v -0.692038 0.270464 0.286572
v 0.664270 -0.263502 -0.548760
v 0.664270 -0.263790 0.286062
v 0.664270 0.270952 -0.548575
v 0.664270 0.270664 0.286247
v -0.040758 -0.263847 -0.549112
v -0.040758 -0.264135 0.286414
v -0.040758 0.271298 -0.548927
v -0.040758 0.271009 0.286599
v -0.693329 -0.262245 -0.547476
v -0.693329 -0.262533 0.284780
v -0.693329 0.269695 -0.547292
v -0.693329 0.269407 0.284964
vn -1.0000 -0.0000 -0.0000
vn -0.0000 -1.0000 -0.0003
vn 1.0000 -0.0000 -0.0000
vn -0.0000 -0.0003 1.0000
vn -0.0000 -0.0004 1.0000
vn -0.0000 0.0003 -1.0000
vn -0.0000 1.0000 0.0004
vn -0.0000 1.0000 0.0003
vn -0.0000 -1.0000 -0.0004
vn 0.0001 1.0000 0.0003
vn -0.0001 1.0000 0.0004
vn -0.0000 1.0000 -0.0000
vn -0.0001 1.0000 0.0003
vn 0.0001 1.0000 0.0004
vn -0.0000 1.0000 0.0005
vn -0.0000 1.0000 0.0013
vn -0.6586 0.6641 0.3539
vn -0.6591 0.6640 -0.3531
vn -0.6591 -0.6640 0.3532
vn -0.6589 -0.6638 -0.3538
vn 0.6586 0.6642 0.3536
vn 0.6591 0.6640 -0.3531
vn 0.6591 -0.6640 0.3533
vn 0.6590 -0.6636 -0.3540
vn -0.8810 -0.0002 0.4731
vn -0.7041 0.7101 0.0002
vn -0.7044 0.7098 0.0003
vn -0.8810 0.0002 -0.4731
vn -0.7044 -0.7098 -0.0002
vn -0.7046 -0.7096 -0.0002
vn -0.0000 -0.8827 0.4699
vn -0.0000 -0.8825 -0.4704
vn 0.7048 -0.7094 -0.0003
vn 0.7044 -0.7098 -0.0002
vn 0.8810 -0.0002 0.4731
vn 0.8810 0.0002 -0.4731
vn 0.7044 0.7098 0.0002
vn 0.7039 0.7103 0.0003
vn -0.0000 0.8825 0.4704
vn -0.0000 0.8827 -0.4700
vn 0.5786 0.5826 0.5707
vn 0.5783 0.5830 -0.5707
vn 0.5782 -0.5825 0.5713
vn 0.5780 -0.5819 -0.5721
vn -0.5781 -0.5830 0.5708
vn -0.5782 0.5829 0.5709
vn -0.5780 0.5834 -0.5706
vn -0.5779 -0.5825 -0.5715
vn 0.7118 -0.0002 0.7024
vn 0.7046 0.7096 0.0002
vn 0.7118 0.0002 -0.7024
vn -0.7116 -0.0002 0.7026
vn -0.7042 0.7100 0.0002
vn -0.7116 0.0002 -0.7026
vn -0.7042 -0.7100 -0.0002
vn -0.7040 -0.7102 -0.0002
vn -0.0000 0.7146 -0.6996
vn -0.0000 0.7138 -0.7004
vn -0.0000 0.7137 0.7005
vn -0.0000 0.7141 0.7001
vn -0.0000 -0.7136 -0.7005
vn -0.0000 -0.7140 -0.7001
vn -0.0000 -0.7146 0.6995
vn 0.5773 0.5824 0.5723
vn 0.5779 0.5832 -0.5708
vn 0.5775 -0.5830 0.5715
vn 0.5779 -0.5837 -0.5703
vn -0.5781 -0.5832 0.5707
vn -0.5775 0.5823 0.5722
vn -0.5782 0.5841 -0.5696
vn -0.5782 -0.5834 -0.5704
vn 0.7115 -0.0002 0.7027
vn 0.7037 0.7105 0.0002
vn 0.7040 0.7102 0.0002
vn 0.7115 0.0002 -0.7027
vn 0.7037 -0.7105 -0.0002
vn 0.7040 -0.7102 -0.0002
vn -0.7116 -0.0002 0.7025
vn -0.7117 -0.0002 0.7025
vn -0.7039 0.7103 0.0002
vn -0.7117 0.0002 -0.7025
vn -0.0000 0.7153 -0.6988
vn -0.0000 0.7135 0.7006
vn -0.0000 0.7141 0.7000
vn -0.0000 -0.7145 -0.6997
vn -0.0000 -0.7147 0.6994
vn -0.0000 -0.7153 0.6988
vn 0.5783 0.5828 0.5709
vn 0.5782 0.5831 -0.5706
vn 0.5783 -0.5831 0.5706
vn 0.5784 -0.5831 -0.5704
vn -0.5784 -0.5831 0.5705
vn -0.5784 0.5827 0.5709
vn -0.5783 0.5831 -0.5706
vn -0.5787 -0.5829 -0.5704
vn 0.7116 -0.0002 0.7026
vn 0.7043 0.7099 0.0002
vn 0.7116 0.0002 -0.7026
vn 0.7043 -0.7099 -0.0002
vn -0.7046 0.7096 0.0002
vn -0.7044 0.7098 0.0002
vn -0.7043 -0.7099 -0.0002
vn -0.0000 0.7147 -0.6994
vn -0.0000 0.7146 0.6995
vn -0.0000 0.7143 0.6998
vn -0.0000 -0.7146 -0.6995
vn -0.0000 -0.7141 -0.7001
vt 0.072337 0.932965
vt 0.379361 0.978168
vt 0.379361 0.932965
vt 0.072337 0.978168
vt 0.608173 0.932965
vt 1.012276 0.978168
vt 1.012276 0.932965
vt 0.608173 0.978168
vt 0.610549 0.072337
vt 1.009900 0.065826
vt 0.610549 0.065826
vt 1.009900 0.072337
vt 0.608173 0.379361
vt 1.012276 0.072337
vt 0.608173 0.072337
vt 1.012276 0.379361
vt 0.012276 0.379361
vt -0.391827 0.072337
vt 0.012276 0.072337
vt -0.391827 0.379361
vt 0.401701 0.980159
vt -0.404795 0.985772
vt -0.404795 0.980159
vt 0.401701 0.985772
vt 0.383071 0.980159
vt 0.059405 0.985772
vt 0.059405 0.980159
vt 0.383071 0.985772
vt 0.401701 0.383071
vt -0.404795 0.059405
vt 0.401701 0.059405
vt -0.404795 0.383071
vt 0.595205 0.980159
vt 1.401701 0.985772
vt 1.401701 0.980159
vt 0.595205 0.985772
vt 0.608228 0.496881
vt 0.600883 0.978175
vt 0.600883 0.496881
vt 0.608228 0.978175
vt 0.608228 0.383188
vt 0.600883 0.068511
vt 0.600883 0.383188
vt 0.608228 0.068511
vt 0.068511 0.496881
vt 0.383188 0.978175
vt 0.383188 0.496881
vt 0.068511 0.978175
vt 0.020190 0.496678
vt 0.012439 0.978378
vt 0.012439 0.496678
vt 0.020190 0.978378
vt 0.020190 0.383391
vt 0.012439 0.068308
vt 0.012439 0.383391
vt 0.020190 0.068308
vt 0.068308 0.496678
vt 0.383391 0.978378
vt 0.383391 0.496678
vt 0.068308 0.978378
vt 0.079511 0.852087
vt 0.384533 0.979520
vt 0.079511 0.979520
vt 0.384533 0.852087
vt 0.079511 0.690759
vt 0.384533 0.690759
vt 0.079511 0.527087
vt 0.384533 0.527087
vt 0.079511 0.495536
vt 0.384533 0.495536
vt 0.388458 0.079511
vt 0.024919 0.347077
vt 0.388458 0.347077
vt 0.024919 0.079511
vt 0.395958 0.079511
vt 0.017419 0.384533
vt 0.017419 0.079511
vt 0.395958 0.384533
vt 0.395958 0.527087
vt 0.017419 0.495536
vt 0.017419 0.527087
vt 0.395958 0.495536
vt 0.395958 0.690759
vt 0.017419 0.690759
vt 0.395958 0.852087
vt 0.017419 0.852087
vt 0.395958 0.979520
vt 0.017419 0.979520
vt 0.400370 0.497621
vt 0.394504 0.977436
vt 0.394504 0.497621
vt 0.400370 0.977436
vt 0.400370 0.382448
vt 0.394504 0.069250
vt 0.394504 0.382448
vt 0.400370 0.069250
vt 0.069250 0.497621
vt 0.382448 0.977436
vt 0.382448 0.497621
vt 0.069250 0.977436
vt 0.079511 0.698259
vt 0.347077 0.844587
vt 0.347077 0.698259
vt 0.079511 0.844587
vt 0.388458 0.534587
vt 0.388458 0.683259
vt 0.024919 0.683259
vt 0.024919 0.534587
vt 0.388458 0.698259
vt 0.388458 0.844587
vt 0.024919 0.698259
vt 0.024919 0.844587
vt 0.388458 0.859587
vt 0.388458 0.972020
vt 0.024919 0.972020
vt 0.024919 0.859587
vt 0.079511 0.859587
vt 0.347077 0.972020
vt 0.347077 0.859587
vt 0.079511 0.972020
vt 0.079511 0.534587
vt 0.347077 0.683259
vt 0.347077 0.534587
vt 0.079511 0.683259
vt 0.610549 0.935341
vt 0.610549 0.975792
vt 1.009900 0.975792
vt 0.009900 0.975792
vt 0.012276 0.932965
vt 0.012276 0.978168
vt 0.009900 0.935341
vt -0.391827 0.932965
vt -0.389451 0.935341
vt -0.389451 0.975792
vt 0.072337 0.975792
vt 0.065826 0.935341
vt 0.065826 0.975792
vt 0.072337 0.935341
vt 0.009900 0.072337
vt -0.389451 0.065826
vt 0.009900 0.065826
vt -0.389451 0.072337
vt 0.595205 0.978696
vt 0.593743 0.980159
vt 0.595205 0.987235
vt 0.593743 0.985772
vt 0.401701 0.978696
vt 0.403164 0.980159
vt 0.401701 0.987235
vt 0.403164 0.985772
vt 0.595205 0.383071
vt 0.593743 0.059405
vt 0.593743 0.383071
vt 0.595205 0.059405
vt -0.404795 0.978696
vt 1.401701 0.987235
vt 0.403164 0.383071
vt 0.403164 0.059405
vt 1.401701 0.978696
vt -0.404795 0.987235
vt 1.401701 0.059405
vt 1.401701 0.383071
vt 0.068511 0.495536
vt 0.067165 0.496881
vt 0.608228 0.067165
vt 0.609574 0.068511
vt 0.383188 0.495536
vt 0.384533 0.496881
vt 0.609574 0.383188
vt 0.608228 0.384533
vt 0.600883 0.067165
vt 0.599538 0.068511
vt 0.600883 0.384533
vt 0.599538 0.383188
vt 0.067165 0.978175
vt 0.384533 0.978175
vt 0.020190 0.495536
vt 0.021333 0.496678
vt 0.021333 0.978378
vt 0.020190 0.979520
vt 0.012439 0.495536
vt 0.011297 0.496678
vt 0.012439 0.979520
vt 0.011297 0.978378
vt 0.068308 0.495536
vt 0.383391 0.495536
vt 0.383391 0.979520
vt 0.068308 0.979520
vt 0.402455 0.069250
vt 0.400370 0.067165
vt 0.400370 0.384533
vt 0.402455 0.382448
vt 0.392419 0.382448
vt 0.394504 0.384533
vt 0.394504 0.067165
vt 0.392419 0.069250
vt 0.402455 0.497621
vt 0.402455 0.977436
vt 0.392419 0.977436
vt 0.392419 0.497621
s 1
usemtl M_Desk_323_0
f 1/1/1 3/2/1 2/3/1
f 1/1/1 4/4/1 3/2/1
f 2/5/2 6/6/2 5/7/2
f 2/5/2 3/8/2 6/6/2
f 5/3/3 8/4/3 7/1/3
f 5/3/3 6/2/3 8/4/3
f 9/9/4 11/10/4 10/11/4
f 9/9/5 12/12/5 11/10/5
f 2/13/4 7/14/4 1/15/4
f 2/13/4 5/16/4 7/14/4
f 6/17/6 4/18/6 8/19/6
f 6/17/6 3/20/6 4/18/6
f 13/21/7 15/22/7 14/23/7
f 13/21/7 16/24/7 15/22/7
f 17/25/3 19/26/3 18/27/3
f 17/25/3 20/28/3 19/26/3
f 21/29/6 23/30/6 22/31/6
f 21/29/6 24/32/6 23/30/6
f 25/27/1 27/28/1 26/25/1
f 25/27/1 28/26/1 27/28/1
f 29/33/2 31/34/2 30/35/2
f 29/33/2 32/36/2 31/34/2
f 33/37/8 35/38/8 34/39/8
f 33/37/8 36/40/8 35/38/8
f 37/41/4 39/42/4 38/43/4
f 37/41/4 40/44/4 39/42/4
f 41/40/2 43/39/2 42/38/2
f 41/40/2 44/37/2 43/39/2
f 45/44/6 47/43/6 46/42/6
f 45/44/6 48/41/6 47/43/6
f 49/45/1 51/46/1 50/47/1
f 49/45/1 52/48/1 51/46/1
f 53/49/8 55/50/8 54/51/8
f 53/49/8 56/52/8 55/50/8
f 57/53/4 59/54/4 58/55/4
f 57/53/4 60/56/4 59/54/4
f 61/52/2 63/51/2 62/50/2
f 61/52/2 64/49/2 63/51/2
f 65/56/6 67/55/6 66/54/6
f 65/56/6 68/53/6 67/55/6
f 69/57/1 71/58/1 70/59/1
f 69/57/1 72/60/1 71/58/1
f 73/61/3 75/62/3 74/63/3
f 73/61/3 76/64/3 75/62/3
f 77/65/3 76/64/3 73/61/3
f 77/65/3 78/66/3 76/64/3
f 79/67/3 78/66/3 77/65/3
f 79/67/3 80/68/3 78/66/3
f 81/69/3 80/68/3 79/67/3
f 81/69/3 82/70/3 80/68/3
f 83/61/1 85/62/1 84/64/1
f 83/61/1 86/63/1 85/62/1
f 87/65/1 83/61/1 84/64/1
f 87/65/1 84/64/1 88/66/1
f 89/67/1 87/65/1 88/66/1
f 89/67/1 88/66/1 90/68/1
f 91/69/1 89/67/1 90/68/1
f 91/69/1 90/68/1 92/70/1
f 93/71/4 95/72/4 94/73/4
f 93/71/4 96/74/4 95/72/4
f 74/75/6 85/76/6 86/77/6
f 74/75/6 75/78/6 85/76/6
f 82/78/4 91/77/4 92/76/4
f 82/78/4 81/75/4 91/77/4
f 80/79/2 92/80/2 90/81/2
f 80/79/2 82/82/2 92/80/2
f 78/83/2 80/79/2 90/81/2
f 78/83/2 90/81/2 88/84/2
f 76/85/2 78/83/2 88/84/2
f 76/85/2 88/84/2 84/86/2
f 75/87/9 76/85/9 84/86/9
f 75/87/9 84/86/9 85/88/9
f 97/89/8 99/90/8 98/91/8
f 97/89/8 100/92/8 99/90/8
f 101/93/4 103/94/4 102/95/4
f 101/93/4 104/96/4 103/94/4
f 105/92/2 107/91/2 106/90/2
f 105/92/2 108/89/2 107/91/2
f 109/96/6 111/95/6 110/94/6
f 109/96/6 112/93/6 111/95/6
f 113/97/1 115/98/1 114/99/1
f 113/97/1 116/100/1 115/98/1
f 117/74/6 119/73/6 118/72/6
f 117/74/6 120/71/6 119/73/6
f 121/101/1 123/102/1 122/103/1
f 121/101/1 124/104/1 123/102/1
f 81/82/8 89/81/8 91/80/8
f 81/82/8 79/79/8 89/81/8
f 125/105/7 89/81/7 79/79/7
f 93/106/10 125/105/10 79/79/10
f 93/106/11 79/79/11 77/83/11
f 96/107/7 93/106/7 77/83/7
f 96/107/7 77/83/7 87/84/7
f 126/108/11 87/84/11 89/81/11
f 126/108/10 96/107/10 87/84/10
f 125/105/7 126/108/7 89/81/7
f 121/109/12 87/84/12 77/83/12
f 124/110/8 121/109/8 77/83/8
f 124/110/13 77/83/13 73/85/13
f 121/109/8 127/111/8 87/84/8
f 127/111/8 83/86/8 87/84/8
f 127/111/10 128/112/10 83/86/10
f 128/112/7 73/85/7 83/86/7
f 128/112/7 124/110/7 73/85/7
f 120/113/8 83/86/8 73/85/8
f 129/114/11 120/113/11 73/85/11
f 129/114/11 73/85/11 74/87/11
f 130/115/7 129/114/7 74/87/7
f 130/115/7 74/87/7 86/88/7
f 117/116/14 86/88/14 83/86/14
f 117/116/14 130/115/14 86/88/14
f 120/113/12 117/116/12 83/86/12
f 119/113/8 131/115/8 118/116/8
f 119/113/8 132/114/8 131/115/8
f 133/105/8 95/107/8 134/108/8
f 133/105/8 94/106/8 95/107/8
f 122/109/8 136/112/8 135/111/8
f 122/109/8 123/110/8 136/112/8
f 128/104/3 135/103/3 136/102/3
f 128/104/3 127/101/3 135/103/3
f 120/117/1 132/118/1 119/119/1
f 120/117/1 129/120/1 132/118/1
f 126/74/6 133/73/6 134/72/6
f 126/74/6 125/71/6 133/73/6
f 127/74/6 122/73/6 135/72/6
f 127/74/6 121/71/6 122/73/6
f 130/120/3 118/119/3 131/118/3
f 130/120/3 117/117/3 118/119/3
f 125/121/1 94/122/1 133/123/1
f 125/121/1 93/124/1 94/122/1
f 124/71/4 136/72/4 123/73/4
f 124/71/4 128/74/4 136/72/4
f 129/71/4 131/72/4 132/73/4
f 129/71/4 130/74/4 131/72/4
f 96/124/3 134/123/3 95/122/3
f 96/124/3 126/121/3 134/123/3
f 9/125/11 4/8/11 1/5/11
f 9/125/14 137/126/14 4/8/14
f 137/126/15 8/6/15 4/8/15
f 137/126/16 138/127/16 8/6/16
f 138/128/11 7/129/11 8/130/11
f 138/128/14 12/131/14 7/129/14
f 12/131/15 1/132/15 7/129/15
f 12/131/15 9/133/15 1/132/15
f 11/131/7 139/134/7 10/133/7
f 11/131/7 140/128/7 139/134/7
f 137/135/1 10/136/1 139/137/1
f 137/135/1 9/138/1 10/136/1
f 138/139/6 139/140/6 140/141/6
f 138/139/6 137/142/6 139/140/6
f 12/138/3 140/137/3 11/136/3
f 12/138/3 138/135/3 140/137/3
f 141/143/17 14/33/17 25/144/17
f 15/36/18 23/145/18 28/146/18
f 142/143/19 26/144/19 29/33/19
f 24/145/20 32/36/20 27/146/20
f 143/147/21 18/148/21 13/21/21
f 22/149/22 16/24/22 19/150/22
f 144/147/23 30/21/23 17/148/23
f 21/149/24 20/150/24 31/24/24
f 142/151/25 25/152/25 26/153/25
f 142/151/25 141/154/25 25/152/25
f 14/33/26 28/146/26 25/144/26
f 14/33/27 15/36/27 28/146/27
f 23/154/28 27/153/28 28/152/28
f 23/154/28 24/151/28 27/153/28
f 32/36/29 26/144/29 27/146/29
f 32/36/30 29/33/30 26/144/30
f 144/147/31 29/23/31 30/21/31
f 144/147/31 142/155/31 29/23/31
f 24/145/32 31/34/32 32/36/32
f 24/145/32 21/156/32 31/34/32
f 20/150/33 30/21/33 31/24/33
f 20/150/34 17/148/34 30/21/34
f 143/31/35 17/157/35 18/158/35
f 143/31/35 144/29/35 17/157/35
f 21/29/36 19/158/36 20/157/36
f 21/29/36 22/31/36 19/158/36
f 16/24/37 18/148/37 19/150/37
f 16/24/38 13/21/38 18/148/38
f 141/143/39 13/35/39 14/33/39
f 141/143/39 143/159/39 13/35/39
f 22/149/40 15/22/40 16/24/40
f 22/149/40 23/160/40 15/22/40
f 142/151/4 143/161/4 141/154/4
f 142/151/4 144/162/4 143/161/4
f 40/163/41 145/45/41 33/164/41
f 36/165/42 146/166/42 45/44/42
f 37/167/43 44/168/43 147/47/43
f 48/41/44 148/169/44 41/170/44
f 38/167/45 50/47/45 43/168/45
f 39/163/46 34/164/46 49/45/46
f 35/171/47 46/42/47 52/172/47
f 47/43/48 42/173/48 51/174/48
f 147/47/49 40/163/49 37/167/49
f 147/47/49 145/45/49 40/163/49
f 145/45/37 36/175/37 33/164/37
f 145/45/50 146/48/50 36/175/50
f 146/166/51 48/41/51 45/44/51
f 146/166/51 148/169/51 48/41/51
f 148/46/34 44/168/34 41/176/34
f 148/46/34 147/47/34 44/168/34
f 38/167/52 49/45/52 50/47/52
f 38/167/52 39/163/52 49/45/52
f 34/164/53 52/48/53 49/45/53
f 34/164/53 35/175/53 52/48/53
f 46/42/54 51/174/54 52/172/54
f 46/42/54 47/43/54 51/174/54
f 42/176/55 50/47/55 51/46/55
f 42/176/56 43/168/56 50/47/56
f 45/44/57 35/171/57 36/165/57
f 45/44/58 46/42/58 35/171/58
f 39/42/59 33/165/59 34/171/59
f 39/42/60 40/44/60 33/165/60
f 41/170/61 47/43/61 48/41/61
f 41/170/62 42/173/62 47/43/62
f 43/173/63 37/41/63 38/43/63
f 43/173/63 44/170/63 37/41/63
f 145/45/3 148/46/3 146/48/3
f 145/45/3 147/47/3 148/46/3
f 60/177/64 149/178/64 53/49/64
f 56/52/65 150/179/65 65/180/65
f 57/177/66 64/49/66 151/178/66
f 68/180/67 152/179/67 61/52/67
f 58/181/68 70/182/68 63/51/68
f 59/181/69 54/51/69 69/182/69
f 55/50/70 66/183/70 72/184/70
f 67/183/71 62/50/71 71/184/71
f 151/59/72 60/185/72 57/186/72
f 151/59/72 149/57/72 60/185/72
f 149/178/73 56/52/73 53/49/73
f 149/178/74 150/179/74 56/52/74
f 150/60/75 68/187/75 65/188/75
f 150/60/75 152/58/75 68/187/75
f 152/179/76 64/49/76 61/52/76
f 152/179/77 151/178/77 64/49/77
f 58/186/78 69/57/78 70/59/78
f 58/186/79 59/185/79 69/57/79
f 54/51/53 72/184/53 69/182/53
f 54/51/80 55/50/80 72/184/80
f 66/188/81 71/58/81 72/60/81
f 66/188/81 67/187/81 71/58/81
f 62/50/55 70/182/55 71/184/55
f 62/50/55 63/51/55 70/182/55
f 65/180/58 55/50/58 56/52/58
f 65/180/82 66/183/82 55/50/82
f 59/181/83 53/49/83 54/51/83
f 59/181/84 60/177/84 53/49/84
f 61/52/85 67/183/85 68/180/85
f 61/52/85 62/50/85 67/183/85
f 63/51/86 57/177/86 58/181/86
f 63/51/87 64/49/87 57/177/87
f 149/57/3 152/58/3 150/60/3
f 149/57/3 151/59/3 152/58/3
f 104/96/88 153/189/88 97/190/88
f 100/190/89 154/189/89 109/96/89
f 101/93/90 108/191/90 155/192/90
f 112/93/91 156/192/91 105/191/91
f 102/95/92 114/193/92 107/194/92
f 103/94/93 98/195/93 113/196/93
f 99/195/94 110/94/94 116/196/94
f 111/95/95 106/194/95 115/193/95
f 155/192/96 104/96/96 101/93/96
f 155/192/96 153/189/96 104/96/96
f 153/197/97 100/92/97 97/89/97
f 153/197/50 154/198/50 100/92/50
f 154/189/98 112/93/98 109/96/98
f 154/189/98 156/192/98 112/93/98
f 156/198/77 108/89/77 105/92/77
f 156/198/99 155/197/99 108/89/99
f 102/95/79 113/196/79 114/193/79
f 102/95/79 103/94/79 113/196/79
f 98/91/100 116/199/100 113/200/100
f 98/91/101 99/90/101 116/199/101
f 110/94/81 115/193/81 116/196/81
f 110/94/81 111/95/81 115/193/81
f 106/90/102 114/200/102 115/199/102
f 106/90/102 107/91/102 114/200/102
f 109/96/103 99/195/103 100/190/103
f 109/96/103 110/94/103 99/195/103
f 103/94/104 97/190/104 98/195/104
f 103/94/105 104/96/105 97/190/105
f 105/191/106 111/95/106 112/93/106
f 105/191/107 106/194/107 111/95/107
f 107/194/86 101/93/86 102/95/86
f 107/194/86 108/191/86 101/93/86
f 153/97/3 156/98/3 154/100/3
f 153/97/3 155/99/3 156/98/3
