# Blender 4.1.1
# www.blender.org
mtllib DrawermeshDresserDrawer_319_8_2.mtl
o DresserDrawer_319_8
v -0.740360 -0.214381 -0.338228
v -0.740359 -0.231364 -0.338228
v -0.740359 -0.231364 -0.185169
v -0.740360 -0.214381 -0.185169
v -0.736714 -0.234587 -0.338228
v -0.004621 -0.234583 -0.338228
v -0.004621 -0.234583 -0.185169
v -0.736714 -0.234587 -0.185169
v -0.004622 -0.214381 -0.341501
v -0.004622 -0.231364 -0.341501
v -0.736714 -0.231364 -0.341501
v -0.736714 -0.214381 -0.341501
v -0.736714 -0.214381 -0.181896
v -0.736714 -0.231364 -0.181896
v -0.004622 -0.231364 -0.181896
v -0.004622 -0.214381 -0.181896
v -0.000976 -0.214381 -0.185169
v -0.000975 -0.231364 -0.185169
v -0.000975 -0.231364 -0.338228
v -0.000976 -0.214381 -0.338228
v -0.353522 -0.241766 -0.261705
v -0.353522 -0.246649 -0.261705
v -0.358544 -0.246649 -0.272590
v -0.358544 -0.241766 -0.272590
v -0.358544 -0.241766 -0.250821
v -0.358544 -0.246649 -0.250821
v -0.370668 -0.239161 -0.253448
v -0.370668 -0.241770 -0.246312
v -0.364163 -0.239161 -0.255867
v -0.361469 -0.239157 -0.261705
v -0.377172 -0.239157 -0.255867
v -0.382792 -0.241770 -0.250821
v -0.364163 -0.239161 -0.267544
v -0.370668 -0.241770 -0.277098
v -0.370668 -0.239161 -0.269963
v -0.382792 -0.241770 -0.272590
v -0.377172 -0.239157 -0.267544
v -0.387814 -0.241770 -0.261705
v -0.379866 -0.239157 -0.261705
v -0.364164 -0.234110 -0.267544
v -0.361470 -0.234110 -0.261705
v -0.364164 -0.234110 -0.255867
v -0.387814 -0.246653 -0.261705
v -0.382792 -0.246653 -0.250821
v -0.382792 -0.246653 -0.272590
v -0.370668 -0.234110 -0.269963
v -0.377172 -0.234110 -0.267544
v -0.370668 -0.246653 -0.277098
v -0.370668 -0.246653 -0.246312
v -0.379866 -0.234110 -0.261705
v -0.377172 -0.234110 -0.255867
v -0.370668 -0.234110 -0.253448
v -0.360834 -0.249297 -0.252877
v -0.356760 -0.249293 -0.261705
v -0.370668 -0.249297 -0.249220
v -0.380502 -0.249297 -0.252877
v -0.384575 -0.249293 -0.261705
v -0.380503 -0.249297 -0.270533
v -0.370667 -0.249297 -0.274190
v -0.360834 -0.249297 -0.270534
v -0.736714 -0.211161 -0.338228
v -0.004622 -0.211157 -0.338228
v -0.004622 -0.211157 -0.185169
v -0.736714 -0.211161 -0.185169
v -0.011636 -0.211153 -0.191466
v -0.011636 -0.211153 -0.331931
v -0.729699 -0.211161 -0.331931
v -0.729699 -0.211161 -0.191466
v -0.729702 0.178308 -0.331931
v -0.729702 0.178308 -0.191466
v -0.011638 0.178312 -0.191466
v -0.011638 0.178312 -0.331931
v -0.720339 -0.202887 -0.191466
v -0.020997 -0.202883 -0.191466
v -0.020998 0.170038 -0.191466
v -0.720342 0.170034 -0.191466
v -0.020997 -0.202883 -0.324263
v -0.020998 0.170038 -0.324263
v -0.720342 0.170034 -0.324263
v -0.720339 -0.202887 -0.324263
vn 1.0000 0.0001 -0.0000
vn -0.0000 1.0000 -0.0000
vn -0.0000 -0.0000 1.0000
vn -0.0000 -0.0000 -1.0000
vn -1.0000 -0.0001 -0.0000
vn -0.5372 0.5608 0.6300
vn -0.9203 -0.3905 0.0234
vn -0.5919 -0.4096 0.6942
vn -0.8421 0.5389 0.0214
vn -0.8421 0.5390 -0.0214
vn -0.5372 0.5608 -0.6300
vn -0.5919 -0.4097 -0.6941
vn -0.8421 0.5389 -0.0214
vn -0.9203 -0.3905 -0.0234
vn -0.2190 -0.9612 0.1677
vn 0.3639 -0.9270 0.0911
vn -0.1959 -0.9245 0.3270
vn -0.2191 -0.9610 0.1686
vn 0.2731 -0.9609 -0.0446
vn 0.3638 -0.9270 0.0919
vn -0.0373 -0.9515 0.3055
vn 0.3454 -0.9116 -0.2229
vn 0.0880 -0.9089 0.4075
vn -0.0381 -0.9516 0.3048
vn 0.1817 -0.9512 -0.2496
vn 0.3445 -0.9118 -0.2237
vn -0.2740 -0.9606 -0.0459
vn 0.2185 -0.9614 0.1671
vn 0.1955 -0.9249 0.3260
vn -0.2726 -0.9610 -0.0469
vn 0.1967 -0.9249 0.3253
vn -0.3631 -0.9274 0.0896
vn 0.1817 -0.9513 0.2491
vn 0.0873 -0.9091 -0.4074
vn 0.3445 -0.9119 0.2232
vn 0.1835 -0.9508 0.2498
vn -0.0367 -0.9518 -0.3045
vn 0.0884 -0.9093 -0.4067
vn 0.2735 -0.9608 0.0452
vn -0.1958 -0.9245 -0.3271
vn 0.3640 -0.9269 -0.0914
vn 0.2728 -0.9610 0.0456
vn -0.2194 -0.9611 -0.1676
vn -0.1964 -0.9245 -0.3268
vn 0.2195 -0.9612 -0.1673
vn -0.3634 -0.9272 -0.0906
vn 0.1963 -0.9247 -0.3263
vn 0.2191 -0.9617 -0.1644
vn -0.2734 -0.9607 0.0483
vn -0.3635 -0.9274 -0.0881
vn 0.0389 -0.9516 -0.3048
vn -0.3439 -0.9120 0.2236
vn -0.0866 -0.9093 -0.4069
vn 0.0388 -0.9515 -0.3051
vn -0.1809 -0.9514 0.2492
vn -0.3438 -0.9121 0.2234
vn -0.1810 -0.9513 -0.2495
vn -0.0866 -0.9093 0.4069
vn -0.3439 -0.9120 -0.2235
vn -0.1809 -0.9514 -0.2492
vn 0.0389 -0.9515 0.3051
vn -0.0866 -0.9092 0.4073
vn -0.4687 0.6921 0.5490
vn -0.9997 -0.0006 0.0252
vn -0.7408 0.6714 0.0186
vn -0.4682 0.6923 0.5491
vn -0.6487 -0.0003 0.7610
vn -0.9997 -0.0004 0.0257
vn -0.7407 0.6716 -0.0185
vn -0.6493 -0.0004 -0.7605
vn -0.4687 0.6922 -0.5488
vn -0.7408 0.6714 -0.0189
vn -0.9997 -0.0005 -0.0254
vn -0.6490 -0.0006 -0.7608
vn 0.5373 0.5607 -0.6300
vn 0.9203 -0.3906 -0.0235
vn 0.5919 -0.4097 -0.6941
vn 0.5377 0.5606 -0.6298
vn 0.8420 0.5390 -0.0210
vn 0.9203 -0.3905 -0.0229
vn 0.8420 0.5390 0.0209
vn 0.5376 0.5607 0.6298
vn 0.5923 -0.4096 0.6938
vn 0.8421 0.5389 0.0214
vn 0.5919 -0.4097 0.6941
vn 0.9203 -0.3905 0.0234
vn 0.0144 0.6718 0.7406
vn -0.6534 -0.0000 0.7570
vn -0.4950 0.6528 0.5734
vn 0.0146 0.6717 0.7407
vn 0.0197 -0.0000 0.9998
vn -0.6532 -0.0001 0.7572
vn 0.4948 0.6528 0.5736
vn 0.6531 -0.0000 0.7573
vn -0.0198 -0.0000 0.9998
vn 0.4952 0.6529 0.5731
vn -0.0191 -0.0000 0.9998
vn -0.0142 0.6717 0.7407
vn 0.5583 0.5195 0.6468
vn -0.0179 -0.3906 0.9204
vn 0.6061 -0.3738 0.7021
vn 0.5584 0.5195 0.6468
vn -0.0165 0.5389 0.8422
vn -0.0179 -0.3905 0.9204
vn 0.0164 0.5390 0.8422
vn -0.5583 0.5195 0.6468
vn -0.6060 -0.3739 0.7021
vn 0.0167 0.5390 0.8421
vn -0.6058 -0.3738 0.7024
vn 0.0183 -0.3906 0.9204
vn -0.0164 0.5389 -0.8422
vn 0.6060 -0.3739 -0.7021
vn -0.0179 -0.3905 -0.9204
vn 0.5584 0.5195 -0.6468
vn 0.6061 -0.3738 -0.7021
vn -0.5582 0.5195 -0.6470
vn 0.0183 -0.3906 -0.9204
vn -0.6058 -0.3738 -0.7023
vn -0.5584 0.5195 -0.6468
vn 0.0163 0.5390 -0.8422
vn 0.0179 -0.3905 -0.9204
vn 0.7406 0.6717 0.0190
vn 0.6487 -0.0000 0.7610
vn 0.4680 0.6925 0.5490
vn 0.7405 0.6718 0.0187
vn 0.9997 -0.0001 0.0252
vn 0.6491 -0.0000 0.7607
vn 0.4683 0.6925 -0.5487
vn 0.6491 -0.0000 -0.7607
vn 0.9997 -0.0000 -0.0252
vn 0.4679 0.6926 -0.5490
vn 0.9997 -0.0000 -0.0256
vn 0.7405 0.6717 -0.0190
vn -0.0145 0.6718 -0.7406
vn 0.6534 -0.0000 -0.7570
vn 0.4950 0.6528 -0.5734
vn -0.0144 0.6718 -0.7406
vn -0.0194 -0.0000 -0.9998
vn -0.4950 0.6528 -0.5734
vn -0.6534 -0.0000 -0.7570
vn 0.0194 -0.0000 -0.9998
vn -0.4949 0.6526 -0.5738
vn 0.0197 -0.0002 -0.9998
vn 0.0147 0.6716 -0.7408
vn -0.4254 0.8814 0.2051
vn -0.7264 0.4526 -0.5172
vn -0.8546 0.4734 -0.2134
vn -0.4237 0.8820 0.2065
vn -0.1302 0.8673 -0.4804
vn -0.7257 0.4546 -0.5165
vn -0.4246 0.8796 -0.2145
vn 0.1889 0.8672 -0.4607
vn -0.1708 0.4112 -0.8954
vn -0.4241 0.8803 -0.2127
vn -0.1705 0.4131 -0.8946
vn -0.4511 0.4323 -0.7808
vn -0.1898 0.8675 -0.4598
vn 0.4238 0.8801 -0.2141
vn 0.4508 0.4315 -0.7814
vn -0.1895 0.8685 -0.4581
vn 0.4514 0.4332 -0.7801
vn 0.1709 0.4144 -0.8939
vn 0.1293 0.8668 -0.4815
vn 0.4239 0.8822 0.2047
vn 0.8535 0.4750 -0.2141
vn 0.1294 0.8682 -0.4791
vn 0.8534 0.4764 -0.2114
vn 0.7253 0.4564 -0.5154
vn 0.4226 0.8826 -0.2062
vn 0.1287 0.8675 0.4804
vn 0.7248 0.4556 0.5168
vn 0.4245 0.8817 -0.2060
vn 0.7261 0.4537 0.5167
vn 0.8543 0.4743 0.2128
vn -0.2751 0.9106 0.3084
vn -0.2751 0.9106 -0.3084
vn -0.3935 0.9193 -0.0000
vn 0.4239 0.8801 0.2137
vn -0.1895 0.8676 0.4597
vn 0.1703 0.4123 0.8950
vn 0.4239 0.8805 0.2122
vn 0.1704 0.4137 0.8943
vn 0.4510 0.4329 0.7805
vn -0.2768 0.9101 -0.3083
vn -0.2768 0.9101 0.3084
vn -0.0000 0.9018 -0.4322
vn -0.0000 0.9018 0.4322
vn 0.2768 0.9101 0.3084
vn 0.1891 0.8678 0.4595
vn -0.4244 0.8801 0.2131
vn -0.4514 0.4319 0.7809
vn 0.1890 0.8672 0.4606
vn -0.4512 0.4307 0.7816
vn -0.1706 0.4114 0.8953
vn -0.1304 0.8675 0.4800
vn -0.8540 0.4751 0.2121
vn -0.7258 0.4549 0.5160
vn -0.1310 0.8665 0.4816
vn -0.4251 0.8816 -0.2049
vn -0.8544 0.4737 0.2138
vn 0.2769 0.9101 -0.3084
vn 0.2752 0.9106 -0.3084
vn 0.2751 0.9106 0.3084
vn 0.3935 0.9193 -0.0000
vn 0.5328 -0.6033 0.5935
vn -0.5327 -0.6024 0.5944
vn -0.5327 -0.6025 -0.5943
vn 0.5328 -0.6033 -0.5935
vn -0.5324 0.6036 -0.5935
vn -0.5325 0.6035 0.5935
vn 0.5329 0.6021 0.5945
vn 0.5329 0.6022 -0.5944
vn -0.6624 -0.7492 -0.0000
vn -0.0000 -0.7129 0.7013
vn -0.0000 -0.7115 0.7026
vn -0.0000 -0.7129 -0.7013
vn -0.0000 -0.7116 -0.7026
vn 0.6616 -0.7499 -0.0000
vn 0.6619 -0.7496 -0.0000
vn -0.6619 0.7496 -0.0000
vn -0.6616 0.7499 -0.0000
vn -0.0000 0.7121 0.7020
vn -0.0000 0.7129 0.7013
vn -0.0000 0.7121 -0.7020
vn -0.0000 0.7131 -0.7010
vn 0.6625 0.7491 -0.0000
vn 0.6627 0.7489 -0.0000
vn 0.6680 -0.0000 0.7441
vn 0.6685 -0.0000 0.7437
vn -0.6679 -0.0000 0.7442
vn -0.6680 -0.0000 0.7441
vn -0.6680 -0.0000 -0.7441
vn -0.6679 -0.0000 -0.7442
vn 0.6681 -0.0000 -0.7441
vn 0.6680 -0.0000 -0.7441
vn -0.0010 -1.0000 -0.0000
vn -0.0012 -1.0000 -0.0000
vn -0.0000 -1.0000 -0.0002
vn -0.0000 -1.0000 -0.0000
vn -0.0000 -1.0000 0.0008
vn -0.0000 -1.0000 -0.0011
vn -1.0000 -0.0000 -0.0000
vn 1.0000 -0.0000 -0.0000
vt 0.930780 0.600688
vt 0.920516 0.691757
vt 0.920516 0.600688
vt 0.930780 0.691757
vt 0.942937 0.600688
vt 1.333974 0.691757
vt 1.333974 0.600688
vt 0.942937 0.691757
vt 0.930780 0.333974
vt 0.920516 -0.057063
vt 0.920516 0.333974
vt 0.930780 -0.057063
vt 0.930780 0.942937
vt 0.920516 1.333974
vt 0.920516 0.942937
vt 0.930780 1.333974
vt 0.914226 0.646218
vt 0.911276 0.639743
vt 0.911276 0.646218
vt 0.914226 0.639743
vt 0.914226 0.652695
vt 0.911276 0.652695
vt 0.138455 0.651132
vt 0.144931 0.652695
vt 0.138455 0.655377
vt 0.141929 0.649692
vt 0.147614 0.646218
vt 0.143368 0.646218
vt 0.134981 0.649692
vt 0.131979 0.652695
vt 0.144931 0.639743
vt 0.141929 0.642745
vt 0.138455 0.637060
vt 0.138455 0.641306
vt 0.131979 0.639743
vt 0.134981 0.642745
vt 0.129297 0.646218
vt 0.133542 0.646218
vt 0.915804 0.646218
vt 0.918855 0.642745
vt 0.915804 0.642745
vt 0.918855 0.646218
vt 0.915804 0.649692
vt 0.918855 0.649692
vt 0.915804 0.141929
vt 0.918855 0.138455
vt 0.915804 0.138455
vt 0.918855 0.141929
vt 0.918855 0.134981
vt 0.915804 0.134981
vt 0.914226 0.138455
vt 0.911276 0.131979
vt 0.911276 0.138455
vt 0.914226 0.131979
vt 0.914226 0.144931
vt 0.911276 0.144931
vt 0.145884 0.646218
vt 0.143708 0.651471
vt 0.138455 0.653647
vt 0.133203 0.651471
vt 0.131027 0.646218
vt 0.133203 0.640966
vt 0.138455 0.638790
vt 0.143708 0.640966
vt 0.932728 0.942937
vt 0.930780 0.940990
vt 0.930780 0.335921
vt 0.932728 0.333974
vt 0.920516 0.335921
vt 0.918568 0.333974
vt 0.920516 0.940990
vt 0.918568 0.942937
vt 0.333974 0.691757
vt 0.335921 0.600688
vt 0.335921 0.691757
vt 0.333974 0.600688
vt 0.932728 1.333974
vt 0.932728 0.600688
vt 0.932728 0.691757
vt 0.918568 1.333974
vt 0.918568 0.691757
vt 0.918568 0.600688
vt 0.330227 0.688010
vt 0.330227 0.604435
vt -0.057063 0.600688
vt -0.053316 0.604435
vt 0.946684 0.688010
vt 1.330227 0.688010
vt 0.946684 0.604435
vt 1.330227 0.604435
vt 0.932728 0.604435
vt 1.168126 0.688010
vt 1.168126 0.604435
vt 0.932728 0.688010
vt 0.932728 0.946684
vt 1.168126 1.330227
vt 1.168126 0.946684
vt 0.932728 1.330227
vt 0.937728 0.951684
vt 0.937728 1.325227
vt 0.163126 0.325227
vt 0.168126 -0.053316
vt 0.168126 0.330227
vt 0.163126 -0.048316
vt 0.937728 0.325227
vt 1.168126 0.330227
vt 0.932728 0.330227
vt 1.163126 0.325227
vt 0.163126 0.951684
vt -0.067272 0.946684
vt 0.168126 0.946684
vt -0.062272 0.951684
vt 1.163126 -0.048316
vt 0.937728 -0.048316
vt 0.951684 0.688010
vt 1.325227 0.608998
vt 0.951684 0.608998
vt 1.325227 0.688010
vt 0.325227 0.688010
vt -0.048316 0.608998
vt 0.325227 0.608998
vt -0.048316 0.688010
vt 0.937728 0.688010
vt 1.163126 0.608998
vt 0.937728 0.608998
vt 1.163126 0.688010
vt 0.163126 0.688010
vt -0.062272 0.608998
vt 0.163126 0.608998
vt -0.062272 0.688010
s 1
usemtl M_DresserDrawer_319_8_0
f 1/1/1 3/2/1 2/3/1
f 1/1/1 4/4/1 3/2/1
f 5/5/2 7/6/2 6/7/2
f 5/5/2 8/8/2 7/6/2
f 9/9/3 11/10/3 10/11/3
f 9/9/3 12/12/3 11/10/3
f 13/13/4 15/14/4 14/15/4
f 13/13/4 16/16/4 15/14/4
f 17/4/5 19/3/5 18/2/5
f 17/4/5 20/1/5 19/3/5
f 21/17/6 23/18/7 22/19/8
f 21/17/6 24/20/9 23/18/7
f 25/21/10 21/17/11 22/19/12
f 25/21/13 22/19/12 26/22/14
f 27/23/15 25/24/16 28/25/17
f 27/23/18 29/26/19 25/24/20
f 29/26/21 21/27/22 25/24/23
f 29/26/24 30/28/25 21/27/26
f 31/29/27 27/23/28 28/25/29
f 31/29/30 28/25/31 32/30/32
f 30/28/33 24/31/34 21/27/35
f 30/28/36 33/32/37 24/31/38
f 33/32/39 34/33/40 24/31/41
f 33/32/42 35/34/43 34/33/44
f 35/34/45 36/35/46 34/33/47
f 35/34/48 37/36/49 36/35/50
f 37/36/51 38/37/52 36/35/53
f 37/36/54 39/38/55 38/37/56
f 39/38/57 32/30/58 38/37/59
f 39/38/60 31/29/61 32/30/62
f 30/39/63 40/40/64 33/41/65
f 30/39/66 41/42/67 40/40/68
f 29/43/69 41/42/70 30/39/71
f 29/43/72 42/44/73 41/42/74
f 38/17/75 44/22/76 43/19/77
f 38/17/78 32/21/79 44/22/80
f 36/20/81 38/17/82 43/19/83
f 36/20/84 43/19/85 45/18/86
f 33/45/87 46/46/88 35/47/89
f 33/45/90 40/48/91 46/46/92
f 35/47/93 46/46/94 47/49/95
f 35/47/96 47/49/97 37/50/98
f 34/51/99 45/52/100 48/53/101
f 34/51/102 36/54/103 45/52/104
f 24/55/105 34/51/106 48/53/107
f 24/55/108 48/53/109 23/56/110
f 32/54/111 49/53/112 44/52/113
f 32/54/111 28/51/114 49/53/115
f 28/51/116 26/56/117 49/53/118
f 28/51/119 25/55/120 26/56/121
f 37/41/122 50/42/123 39/39/124
f 37/41/125 47/40/126 50/42/127
f 39/39/128 50/42/129 51/44/130
f 39/39/131 51/44/132 31/43/133
f 31/50/134 52/46/135 27/47/136
f 31/50/137 51/49/138 52/46/135
f 27/47/139 52/46/140 42/48/141
f 27/47/142 42/48/143 29/45/144
f 26/24/145 54/57/146 53/58/147
f 26/24/148 22/27/149 54/57/150
f 49/25/151 26/24/152 53/58/153
f 49/25/154 53/58/155 55/59/156
f 44/30/157 49/25/158 55/59/159
f 44/30/160 55/59/161 56/60/162
f 43/37/163 44/30/164 56/60/165
f 43/37/166 56/60/167 57/61/168
f 45/35/169 43/37/170 57/61/171
f 45/35/172 57/61/173 58/62/174
f 56/60/175 58/62/176 57/61/177
f 48/33/178 45/35/179 58/62/180
f 48/33/181 58/62/182 59/63/183
f 58/62/184 56/60/185 59/63/186
f 59/63/186 56/60/185 55/59/187
f 59/63/186 55/59/187 53/58/188
f 23/31/189 48/33/190 59/63/191
f 23/31/192 59/63/193 60/64/194
f 22/27/195 60/64/196 54/57/197
f 22/27/198 23/31/199 60/64/200
f 59/63/186 53/58/188 60/64/201
f 60/64/202 53/58/203 54/57/204
f 12/13/205 61/65/205 1/66/205
f 20/67/206 62/68/206 9/9/206
f 17/67/207 16/9/207 63/68/207
f 13/13/208 4/66/208 64/65/208
f 18/69/209 7/70/209 15/11/209
f 19/69/210 10/11/210 6/70/210
f 11/15/211 2/71/211 5/72/211
f 14/15/212 8/72/212 3/71/212
f 63/73/213 20/74/213 17/75/213
f 63/73/213 62/76/213 20/74/213
f 12/13/214 62/77/214 61/65/214
f 12/13/215 9/16/215 62/77/215
f 64/65/216 16/16/216 13/13/216
f 64/65/217 63/77/217 16/16/217
f 61/78/218 4/4/218 1/1/218
f 61/78/219 64/79/219 4/4/219
f 18/75/220 6/76/220 7/73/220
f 18/75/221 19/74/221 6/76/221
f 5/72/222 10/14/222 11/15/222
f 5/72/223 6/80/223 10/14/223
f 14/15/224 7/80/224 8/72/224
f 14/15/225 15/14/225 7/80/225
f 2/3/226 8/81/226 5/82/226
f 2/3/227 3/2/227 8/81/227
f 1/66/228 11/15/228 12/13/228
f 1/66/229 2/71/229 11/15/229
f 19/69/230 9/9/230 10/11/230
f 19/69/231 20/67/231 9/9/231
f 17/67/232 15/11/232 16/9/232
f 17/67/233 18/69/233 15/11/233
f 3/71/234 13/13/234 14/15/234
f 3/71/235 4/66/235 13/13/235
f 65/83/236 62/76/236 63/73/236
f 65/83/237 66/84/237 62/76/237
f 66/84/238 61/85/238 62/76/238
f 66/84/239 67/86/239 61/85/239
f 68/87/240 63/6/240 64/8/240
f 68/87/241 65/88/241 63/6/241
f 67/89/239 68/87/239 64/8/239
f 67/89/239 64/8/239 61/5/239
f 69/89/239 71/88/239 70/87/239
f 69/89/239 72/90/239 71/88/239
f 66/91/242 71/92/242 72/93/242
f 66/91/242 65/94/242 71/92/242
f 67/95/3 72/96/3 69/97/3
f 67/95/3 66/98/3 72/96/3
f 68/94/243 69/93/243 70/92/243
f 68/94/243 67/91/243 69/93/243
f 73/99/4 65/98/4 68/95/4
f 73/99/4 74/100/4 65/98/4
f 75/101/4 70/102/4 71/103/4
f 75/101/4 76/104/4 70/102/4
f 74/105/4 71/106/4 65/107/4
f 74/105/4 75/108/4 71/106/4
f 76/109/4 68/110/4 70/111/4
f 76/109/4 73/112/4 68/110/4
f 77/105/4 79/113/4 78/108/4
f 77/105/4 80/114/4 79/113/4
f 76/115/2 78/116/2 79/117/2
f 76/115/2 75/118/2 78/116/2
f 74/119/239 80/120/239 77/121/239
f 74/119/239 73/122/239 80/120/239
f 73/123/242 79/124/242 80/125/242
f 73/123/242 76/126/242 79/124/242
f 75/127/243 77/128/243 78/129/243
f 75/127/243 74/130/243 77/128/243
