# Blender 4.1.1
# www.blender.org
mtllib DrawermeshDresserDrawer_319_5_8.mtl
o DresserDrawer_319_5
v 0.002850 -0.214307 -0.174916
v 0.002851 -0.231290 -0.174916
v 0.002851 -0.231290 -0.021856
v 0.002850 -0.214307 -0.021856
v 0.006497 -0.234513 -0.174916
v 0.738590 -0.234509 -0.174916
v 0.738590 -0.234509 -0.021856
v 0.006497 -0.234513 -0.021856
v 0.006497 -0.214307 -0.018584
v 0.006497 -0.231290 -0.018584
v 0.738590 -0.231286 -0.018584
v 0.738590 -0.214303 -0.018584
v 0.738590 -0.214303 -0.178189
v 0.738590 -0.231286 -0.178189
v 0.006497 -0.231290 -0.178189
v 0.006497 -0.214307 -0.178189
v 0.742236 -0.214303 -0.021856
v 0.742236 -0.231286 -0.021856
v 0.742236 -0.231286 -0.174916
v 0.742236 -0.214303 -0.174916
v 0.389235 -0.241696 -0.098252
v 0.389235 -0.246579 -0.098252
v 0.384213 -0.246579 -0.109136
v 0.384213 -0.241696 -0.109136
v 0.384213 -0.241696 -0.087367
v 0.384213 -0.246579 -0.087367
v 0.372089 -0.239083 -0.089995
v 0.372089 -0.241696 -0.082859
v 0.378593 -0.239083 -0.092413
v 0.381287 -0.239083 -0.098252
v 0.365585 -0.239083 -0.092413
v 0.359964 -0.241696 -0.087367
v 0.378593 -0.239083 -0.104091
v 0.372089 -0.241696 -0.113644
v 0.372089 -0.239083 -0.106509
v 0.359964 -0.241696 -0.109136
v 0.365585 -0.239083 -0.104091
v 0.354942 -0.241696 -0.098252
v 0.362891 -0.239083 -0.098252
v 0.378593 -0.234036 -0.104091
v 0.381286 -0.234036 -0.098252
v 0.378593 -0.234036 -0.092413
v 0.354942 -0.246579 -0.098252
v 0.359965 -0.246579 -0.087367
v 0.359965 -0.246579 -0.109136
v 0.372089 -0.234036 -0.106509
v 0.365586 -0.234036 -0.104091
v 0.372089 -0.246579 -0.113644
v 0.372089 -0.246579 -0.082859
v 0.362891 -0.234036 -0.098252
v 0.365586 -0.234036 -0.092413
v 0.372089 -0.234036 -0.089995
v 0.381922 -0.249222 -0.089423
v 0.385996 -0.249219 -0.098252
v 0.372089 -0.249222 -0.085767
v 0.362255 -0.249222 -0.089423
v 0.358181 -0.249219 -0.098252
v 0.362255 -0.249222 -0.107080
v 0.372089 -0.249222 -0.110737
v 0.381922 -0.249222 -0.107080
v 0.006497 -0.211083 -0.021856
v 0.738590 -0.211083 -0.021856
v 0.006497 -0.211083 -0.174916
v 0.738590 -0.211083 -0.174916
v 0.731575 -0.211079 -0.028154
v 0.731575 -0.211079 -0.168619
v 0.013511 -0.211083 -0.028154
v 0.013511 -0.211083 -0.168619
v 0.013509 0.178382 -0.168618
v 0.013509 0.178382 -0.028154
v 0.731574 0.178382 -0.028154
v 0.731574 0.178382 -0.168619
v 0.022872 -0.202813 -0.028154
v 0.022872 -0.202813 -0.161154
v 0.022870 0.170108 -0.161154
v 0.022870 0.170108 -0.028154
v 0.722214 -0.202809 -0.028154
v 0.722213 0.170116 -0.028154
v 0.722214 -0.202809 -0.161154
v 0.722213 0.170116 -0.161154
vn 1.0000 -0.0000 -0.0000
vn -0.0000 1.0000 -0.0000
vn -0.0000 -0.0000 -1.0000
vn -0.0000 -0.0000 1.0000
vn -1.0000 -0.0000 -0.0000
vn -0.5376 0.5607 0.6298
vn -0.9203 -0.3906 0.0229
vn -0.5923 -0.4096 0.6938
vn -0.5372 0.5608 0.6300
vn -0.8421 0.5389 0.0214
vn -0.9203 -0.3905 0.0234
vn -0.8421 0.5390 -0.0215
vn -0.5372 0.5608 -0.6300
vn -0.5919 -0.4097 -0.6941
vn -0.8420 0.5390 -0.0210
vn -0.5923 -0.4095 -0.6938
vn -0.9203 -0.3906 -0.0229
vn -0.2198 -0.9613 0.1658
vn 0.3630 -0.9275 0.0892
vn -0.1967 -0.9252 0.3245
vn -0.2197 -0.9611 0.1672
vn 0.2724 -0.9611 -0.0461
vn 0.3632 -0.9273 0.0906
vn -0.0389 -0.9517 0.3045
vn 0.3440 -0.9119 -0.2238
vn 0.0865 -0.9095 0.4066
vn -0.0385 -0.9511 0.3065
vn 0.1807 -0.9517 -0.2482
vn 0.3436 -0.9124 -0.2224
vn -0.2724 -0.9611 -0.0462
vn 0.2198 -0.9611 0.1671
vn 0.1967 -0.9245 0.3265
vn -0.2727 -0.9609 -0.0474
vn 0.1967 -0.9252 0.3246
vn -0.3630 -0.9275 0.0891
vn 0.1811 -0.9513 0.2495
vn 0.0866 -0.9093 -0.4069
vn 0.3439 -0.9120 0.2235
vn 0.1807 -0.9516 0.2487
vn -0.0387 -0.9514 -0.3057
vn 0.0868 -0.9089 -0.4080
vn 0.2727 -0.9609 0.0474
vn -0.1967 -0.9252 -0.3246
vn 0.3630 -0.9275 -0.0891
vn 0.2724 -0.9611 0.0462
vn -0.2197 -0.9611 -0.1671
vn -0.1966 -0.9245 -0.3265
vn 0.2198 -0.9613 -0.1658
vn -0.3631 -0.9275 -0.0892
vn 0.1967 -0.9252 -0.3245
vn 0.2198 -0.9611 -0.1671
vn -0.2724 -0.9611 0.0461
vn -0.3632 -0.9273 -0.0905
vn 0.0388 -0.9517 -0.3045
vn -0.3440 -0.9119 0.2238
vn -0.0865 -0.9095 -0.4066
vn 0.0385 -0.9511 -0.3065
vn -0.1807 -0.9517 0.2482
vn -0.3436 -0.9124 0.2224
vn -0.1811 -0.9513 -0.2495
vn -0.0866 -0.9093 0.4070
vn -0.3440 -0.9120 -0.2235
vn -0.1807 -0.9516 -0.2487
vn 0.0387 -0.9513 0.3057
vn -0.0868 -0.9089 0.4080
vn -0.4675 0.6929 0.5490
vn -0.9997 0.0003 0.0260
vn -0.7404 0.6719 0.0192
vn -0.4689 0.6921 0.5487
vn -0.6496 -0.0005 0.7603
vn -0.9997 -0.0006 0.0245
vn -0.7408 0.6714 -0.0194
vn -0.6486 -0.0003 -0.7611
vn -0.4681 0.6923 -0.5492
vn -0.7404 0.6719 -0.0181
vn -0.9997 0.0001 -0.0245
vn -0.6497 0.0001 -0.7602
vn 0.5376 0.5607 -0.6298
vn 0.9203 -0.3906 -0.0230
vn 0.5923 -0.4096 -0.6939
vn 0.5370 0.5610 -0.6300
vn 0.8419 0.5392 -0.0213
vn 0.9204 -0.3902 -0.0236
vn 0.8421 0.5389 0.0215
vn 0.5372 0.5608 0.6300
vn 0.5919 -0.4097 0.6941
vn 0.8419 0.5393 0.0209
vn 0.5925 -0.4093 0.6939
vn 0.9204 -0.3903 0.0230
vn 0.0147 0.6719 0.7405
vn -0.6531 -0.0000 0.7573
vn -0.4948 0.6528 0.5736
vn 0.0144 0.6719 0.7405
vn 0.0194 -0.0000 0.9998
vn -0.6534 0.0001 0.7570
vn 0.4952 0.6528 0.5733
vn 0.6537 -0.0000 0.7568
vn -0.0190 -0.0001 0.9998
vn 0.4948 0.6525 0.5739
vn -0.0199 -0.0002 0.9998
vn -0.0149 0.6717 0.7407
vn 0.5583 0.5195 0.6468
vn -0.0179 -0.3906 0.9204
vn 0.6061 -0.3738 0.7021
vn 0.5583 0.5197 0.6467
vn -0.0165 0.5390 0.8421
vn -0.0178 -0.3904 0.9205
vn 0.0164 0.5389 0.8422
vn -0.5584 0.5195 0.6468
vn -0.6061 -0.3738 0.7021
vn -0.6060 -0.3739 0.7021
vn 0.0179 -0.3905 0.9204
vn -0.0164 0.5390 -0.8421
vn 0.6060 -0.3738 -0.7021
vn -0.0179 -0.3905 -0.9204
vn -0.0164 0.5389 -0.8422
vn 0.5584 0.5195 -0.6468
vn 0.6061 -0.3738 -0.7021
vn -0.5584 0.5195 -0.6468
vn 0.0179 -0.3905 -0.9204
vn -0.6061 -0.3738 -0.7021
vn 0.0164 0.5390 -0.8422
vn 0.7408 0.6714 0.0194
vn 0.6486 -0.0004 0.7611
vn 0.4680 0.6923 0.5492
vn 0.7406 0.6717 0.0184
vn 0.9997 -0.0001 0.0247
vn 0.6495 -0.0001 0.7604
vn 0.4685 0.6923 -0.5489
vn 0.6491 -0.0003 -0.7607
vn 0.9997 -0.0004 -0.0252
vn 0.4679 0.6925 -0.5491
vn 0.9997 -0.0002 -0.0258
vn 0.7407 0.6715 -0.0192
vn -0.0149 0.6719 -0.7405
vn 0.6530 -0.0000 -0.7574
vn 0.4948 0.6527 -0.5737
vn -0.0141 0.6716 -0.7408
vn -0.0190 -0.0003 -0.9998
vn 0.6537 -0.0003 -0.7567
vn -0.4951 0.6530 -0.5732
vn -0.6537 -0.0000 -0.7568
vn 0.0190 0.0001 -0.9998
vn -0.4947 0.6528 -0.5737
vn 0.0199 -0.0000 -0.9998
vn 0.0149 0.6718 -0.7405
vn -0.4241 0.8820 0.2054
vn -0.7255 0.4540 -0.5173
vn -0.8538 0.4749 -0.2134
vn -0.4226 0.8826 0.2059
vn -0.1284 0.8675 -0.4806
vn -0.7246 0.4556 -0.5171
vn -0.4239 0.8801 -0.2138
vn 0.1896 0.8675 -0.4598
vn -0.1702 0.4122 -0.8951
vn -0.4243 0.8805 -0.2113
vn -0.1709 0.4143 -0.8940
vn -0.4514 0.4333 -0.7801
vn -0.1898 0.8675 -0.4598
vn 0.4238 0.8801 -0.2140
vn 0.4508 0.4315 -0.7814
vn -0.1894 0.8685 -0.4581
vn 0.4514 0.4332 -0.7801
vn 0.1709 0.4143 -0.8940
vn 0.1295 0.8669 -0.4814
vn 0.4238 0.8822 0.2051
vn 0.8536 0.4750 -0.2138
vn 0.1290 0.8680 -0.4796
vn 0.8532 0.4765 -0.2121
vn 0.7251 0.4561 -0.5160
vn 0.4226 0.8826 -0.2058
vn 0.1284 0.8675 0.4806
vn 0.7247 0.4555 0.5171
vn 0.4243 0.8820 -0.2052
vn 0.7256 0.4537 0.5173
vn 0.8539 0.4746 0.2135
vn -0.2752 0.9106 0.3083
vn -0.2751 0.9106 -0.3084
vn -0.3935 0.9193 -0.0000
vn 0.4239 0.8801 0.2139
vn -0.1896 0.8675 0.4599
vn 0.1702 0.4121 0.8951
vn 0.4242 0.8807 0.2110
vn 0.1709 0.4145 0.8939
vn 0.4513 0.4335 0.7800
vn -0.2768 0.9101 -0.3083
vn -0.2768 0.9101 0.3084
vn -0.0000 0.9018 -0.4322
vn -0.0000 0.9018 0.4322
vn 0.2768 0.9101 0.3084
vn 0.1898 0.8675 0.4599
vn -0.4238 0.8801 0.2141
vn -0.4508 0.4314 0.7815
vn 0.1894 0.8685 0.4581
vn -0.4514 0.4332 0.7801
vn -0.1709 0.4143 0.8940
vn -0.1289 0.8680 0.4796
vn -0.8532 0.4765 0.2121
vn -0.7250 0.4561 0.5160
vn -0.1291 0.8671 0.4812
vn -0.4235 0.8823 -0.2053
vn -0.8534 0.4754 0.2138
vn 0.2769 0.9101 -0.3084
vn 0.2751 0.9106 -0.3084
vn 0.2751 0.9106 0.3084
vn 0.3935 0.9193 -0.0000
vn 0.5327 -0.6025 -0.5943
vn -0.5328 -0.6033 -0.5935
vn 0.5326 -0.6025 0.5944
vn -0.5328 -0.6033 0.5935
vn -0.5334 0.6033 -0.5929
vn -0.5334 0.6033 0.5929
vn 0.5327 0.6023 -0.5945
vn 0.5328 0.6023 0.5945
vn -0.6619 -0.7496 -0.0000
vn -0.6616 -0.7499 -0.0000
vn -0.0000 -0.7125 -0.7017
vn -0.0000 -0.7131 -0.7010
vn -0.0000 -0.7125 0.7017
vn -0.0000 -0.7129 0.7013
vn 0.6623 -0.7493 -0.0000
vn -0.6623 0.7492 -0.0000
vn -0.6626 0.7490 -0.0000
vn -0.0000 0.7121 -0.7020
vn -0.0000 0.7115 -0.7027
vn -0.0000 0.7115 0.7027
vn -0.0000 0.7121 0.7021
vn 0.6624 0.7492 -0.0000
vn -0.6680 -0.0000 0.7441
vn -0.6680 -0.0000 -0.7441
vn 0.6680 -0.0000 -0.7442
vn 0.6680 -0.0000 0.7442
vn -0.0010 -1.0000 -0.0000
vn -0.0009 -1.0000 -0.0000
vn -0.0000 -1.0000 -0.0012
vn -0.0000 -1.0000 -0.0000
vn -0.0000 -1.0000 0.0006
vt 0.930780 0.697857
vt 0.920516 0.788926
vt 0.920516 0.697857
vt 0.930780 0.788926
vt 0.339912 0.697857
vt 0.730948 0.788926
vt 0.730948 0.697857
vt 0.339912 0.788926
vt 0.930780 0.339912
vt 0.920516 0.730948
vt 0.920516 0.339912
vt 0.930780 0.730948
vt 0.914226 0.743471
vt 0.911276 0.736995
vt 0.911276 0.743471
vt 0.914226 0.736995
vt 0.914226 0.749947
vt 0.911276 0.749947
vt 0.535187 0.748384
vt 0.541663 0.749947
vt 0.535187 0.752630
vt 0.538661 0.746945
vt 0.544346 0.743471
vt 0.540100 0.743471
vt 0.531713 0.746945
vt 0.528711 0.749947
vt 0.541663 0.736995
vt 0.538661 0.739997
vt 0.535187 0.734313
vt 0.535187 0.738558
vt 0.528711 0.736995
vt 0.531713 0.739997
vt 0.526029 0.743471
vt 0.530274 0.743471
vt 0.915804 0.743471
vt 0.918855 0.739997
vt 0.915804 0.739997
vt 0.918855 0.743471
vt 0.915804 0.746945
vt 0.918855 0.746945
vt 0.915804 0.538661
vt 0.918855 0.535187
vt 0.915804 0.535187
vt 0.918855 0.538661
vt 0.918855 0.531713
vt 0.915804 0.531713
vt 0.914226 0.535187
vt 0.911276 0.528711
vt 0.911276 0.535187
vt 0.914226 0.528711
vt 0.914226 0.541663
vt 0.911276 0.541663
vt 0.542616 0.743471
vt 0.540440 0.748724
vt 0.535187 0.750900
vt 0.529935 0.748724
vt 0.527759 0.743471
vt 0.529935 0.738219
vt 0.535187 0.736043
vt 0.540440 0.738218
vt 0.930780 0.337965
vt 0.932728 0.339912
vt 0.930780 0.732896
vt 0.932728 0.730948
vt 0.920516 0.732896
vt 0.918568 0.730948
vt 0.918568 0.339912
vt 0.920516 0.337965
vt 0.932728 0.788926
vt 0.932728 0.697857
vt 0.337965 0.788926
vt 0.337965 0.697857
vt 0.918568 0.697857
vt 0.918568 0.788926
vt 0.727202 0.785179
vt 0.727202 0.701604
vt 0.343658 0.785179
vt 0.343658 0.701604
vt 0.932728 0.701604
vt 1.168126 0.785179
vt 1.168126 0.701604
vt 0.932728 0.785179
vt 0.932728 0.343658
vt 1.168126 0.727202
vt 1.168126 0.343658
vt 0.932728 0.727202
vt 0.937728 0.785179
vt 1.163126 0.706045
vt 0.937728 0.706045
vt 1.163126 0.785179
vt 0.937728 0.348659
vt 0.937728 0.722202
vt 1.163126 0.722202
vt 0.163126 0.722202
vt 0.168126 0.343658
vt 0.168126 0.727202
vt 0.163126 0.348659
vt -0.067272 0.343658
vt -0.062272 0.348659
vt 1.163126 0.348659
vt 0.163126 0.785179
vt -0.062272 0.706045
vt 0.163126 0.706045
vt -0.062272 0.785179
vt 0.348659 0.785179
vt 0.722202 0.706045
vt 0.348659 0.706045
vt 0.722202 0.785179
s 1
usemtl M_DresserDrawer_319_5_0
f 1/1/1 3/2/1 2/3/1
f 1/1/1 4/4/1 3/2/1
f 5/5/2 7/6/2 6/7/2
f 5/5/2 8/8/2 7/6/2
f 9/9/3 11/10/3 10/11/3
f 9/9/3 12/12/3 11/10/3
f 13/12/4 15/11/4 14/10/4
f 13/12/4 16/9/4 15/11/4
f 17/4/5 19/3/5 18/2/5
f 17/4/5 20/1/5 19/3/5
f 21/13/6 23/14/7 22/15/8
f 21/13/9 24/16/10 23/14/11
f 25/17/12 21/13/13 22/15/14
f 25/17/15 22/15/16 26/18/17
f 27/19/18 25/20/19 28/21/20
f 27/19/21 29/22/22 25/20/23
f 29/22/24 21/23/25 25/20/26
f 29/22/27 30/24/28 21/23/29
f 31/25/30 27/19/31 28/21/32
f 31/25/33 28/21/34 32/26/35
f 30/24/36 24/27/37 21/23/38
f 30/24/39 33/28/40 24/27/41
f 33/28/42 34/29/43 24/27/44
f 33/28/45 35/30/46 34/29/47
f 35/30/48 36/31/49 34/29/50
f 35/30/51 37/32/52 36/31/53
f 37/32/54 38/33/55 36/31/56
f 37/32/57 39/34/58 38/33/59
f 39/34/60 32/26/61 38/33/62
f 39/34/63 31/25/64 32/26/65
f 30/35/66 40/36/67 33/37/68
f 30/35/69 41/38/70 40/36/71
f 29/39/72 41/38/73 30/35/74
f 29/39/75 42/40/76 41/38/77
f 38/13/78 44/18/79 43/15/80
f 38/13/81 32/17/82 44/18/83
f 36/16/84 38/13/85 43/15/86
f 36/16/87 43/15/88 45/14/89
f 33/41/90 46/42/91 35/43/92
f 33/41/93 40/44/94 46/42/95
f 35/43/96 46/42/97 47/45/98
f 35/43/99 47/45/100 37/46/101
f 34/47/102 45/48/103 48/49/104
f 34/47/105 36/50/106 45/48/107
f 24/51/108 34/47/109 48/49/110
f 24/51/108 48/49/111 23/52/112
f 32/50/113 49/49/114 44/48/115
f 32/50/116 28/47/117 49/49/118
f 28/47/119 26/52/120 49/49/121
f 28/47/119 25/51/122 26/52/120
f 37/37/123 50/38/124 39/35/125
f 37/37/126 47/36/127 50/38/128
f 39/35/129 50/38/130 51/40/131
f 39/35/132 51/40/133 31/39/134
f 31/46/135 52/42/136 27/43/137
f 31/46/138 51/45/139 52/42/140
f 27/43/141 52/42/142 42/44/143
f 27/43/144 42/44/145 29/41/146
f 26/20/147 54/53/148 53/54/149
f 26/20/150 22/23/151 54/53/152
f 49/21/153 26/20/154 53/54/155
f 49/21/156 53/54/157 55/55/158
f 44/26/159 49/21/160 55/55/161
f 44/26/162 55/55/163 56/56/164
f 43/33/165 44/26/166 56/56/167
f 43/33/168 56/56/169 57/57/170
f 45/31/171 43/33/172 57/57/173
f 45/31/174 57/57/175 58/58/176
f 56/56/177 58/58/178 57/57/179
f 48/29/180 45/31/181 58/58/182
f 48/29/183 58/58/184 59/59/185
f 58/58/186 56/56/187 59/59/188
f 59/59/188 56/56/187 55/55/189
f 59/59/188 55/55/189 53/54/190
f 23/27/191 48/29/192 59/59/193
f 23/27/194 59/59/195 60/60/196
f 22/23/197 60/60/198 54/53/199
f 22/23/200 23/27/201 60/60/202
f 59/59/188 53/54/190 60/60/203
f 60/60/204 53/54/205 54/53/206
f 9/9/207 4/61/207 61/62/207
f 17/63/208 12/12/208 62/64/208
f 16/9/209 63/62/209 1/61/209
f 20/63/210 64/64/210 13/12/210
f 18/65/211 7/66/211 11/10/211
f 19/65/212 14/10/212 6/66/212
f 10/11/213 8/67/213 3/68/213
f 15/11/214 2/68/214 5/67/214
f 62/69/215 20/1/215 17/4/215
f 62/69/216 64/70/216 20/1/216
f 61/62/217 12/12/217 9/9/217
f 61/62/218 62/64/218 12/12/218
f 16/9/219 64/64/219 63/62/219
f 16/9/220 13/12/220 64/64/220
f 4/71/221 63/5/221 61/8/221
f 4/71/221 1/72/221 63/5/221
f 18/2/222 6/73/222 7/74/222
f 18/2/223 19/3/223 6/73/223
f 10/11/224 7/66/224 8/67/224
f 10/11/225 11/10/225 7/66/225
f 5/67/226 14/10/226 15/11/226
f 5/67/227 6/66/227 14/10/227
f 8/8/228 2/72/228 3/71/228
f 8/8/228 5/5/228 2/72/228
f 13/12/229 19/65/229 20/63/229
f 13/12/229 14/10/229 19/65/229
f 11/10/230 17/63/230 18/65/230
f 11/10/230 12/12/230 17/63/230
f 3/68/231 9/9/231 10/11/231
f 3/68/231 4/61/231 9/9/231
f 1/61/232 15/11/232 16/9/232
f 1/61/232 2/68/232 15/11/232
f 65/75/233 64/7/233 62/6/233
f 65/75/234 66/76/234 64/7/234
f 67/77/235 65/75/235 62/6/235
f 67/77/236 62/6/236 61/8/236
f 66/76/237 63/5/237 64/7/237
f 66/76/237 68/78/237 63/5/237
f 68/78/236 61/8/236 63/5/236
f 68/78/236 67/77/236 61/8/236
f 69/78/236 71/75/236 70/77/236
f 69/78/236 72/76/236 71/75/236
f 66/79/5 71/80/5 72/81/5
f 66/79/5 65/82/5 71/80/5
f 68/83/4 72/84/4 69/85/4
f 68/83/4 66/86/4 72/84/4
f 67/82/1 69/81/1 70/80/1
f 67/82/1 68/79/1 69/81/1
f 73/87/5 75/88/5 74/89/5
f 73/87/5 76/90/5 75/88/5
f 73/91/3 65/86/3 67/83/3
f 73/91/3 77/92/3 65/86/3
f 77/92/3 71/84/3 65/86/3
f 77/92/3 78/93/3 71/84/3
f 78/94/3 70/95/3 71/96/3
f 78/94/3 76/97/3 70/95/3
f 76/97/3 67/98/3 70/95/3
f 76/97/3 73/99/3 67/98/3
f 79/92/3 75/100/3 80/93/3
f 79/92/3 74/91/3 75/100/3
f 78/101/1 79/102/1 80/103/1
f 78/101/1 77/104/1 79/102/1
f 76/105/2 80/106/2 75/107/2
f 76/105/2 78/108/2 80/106/2
f 77/108/236 74/107/236 79/106/236
f 77/108/236 73/105/236 74/107/236
