# Blender 4.1.0
# www.blender.org
mtllib LightSwitchDial_4_LightSwitchDial_4_1_GeomSubset_2.mtl
o LightSwitchDial_4_LightSwitchDial_4_1_GeomSubset_2
v -0.000500 -0.000500 0.000000
v 0.000500 -0.000500 0.000000
v -0.000500 0.000500 0.000000
v 0.000500 0.000500 0.000000
v -0.000500 -0.000500 0.000000
v 0.000500 -0.000500 0.000000
v -0.000500 0.000500 0.000000
v 0.000500 0.000500 0.000000
v -0.000500 -0.000500 0.000000
v 0.000500 -0.000500 0.000000
v -0.000500 0.000500 0.000000
v 0.000500 0.000500 0.000000
v -0.010685 -0.004512 0.002636
v 0.010685 -0.004512 0.002636
v -0.010685 -0.008435 -0.008807
v 0.010685 -0.008435 -0.008807
v -0.011031 -0.007446 -0.005922
v -0.011158 -0.006474 -0.003085
v -0.011031 -0.005501 -0.000248
v 0.011031 -0.007446 -0.005922
v 0.011158 -0.006474 -0.003085
v 0.011031 -0.005501 -0.000248
v 0.010280 -0.003608 0.005270
v -0.010280 -0.003608 0.005270
v -0.010280 -0.009338 -0.011441
v 0.010280 -0.009338 -0.011441
v 0.008260 -0.013343 -0.000730
v 0.009664 -0.012906 -0.000880
v 0.010363 -0.011813 -0.001254
v 0.010193 -0.013161 -0.004246
v 0.009499 -0.014260 -0.003866
v 0.008109 -0.014707 -0.003710
v -0.008109 -0.014707 -0.003710
v -0.009499 -0.014260 -0.003866
v -0.010193 -0.013161 -0.004246
v -0.008260 -0.013343 -0.000730
v -0.009664 -0.012906 -0.000880
v -0.010363 -0.011813 -0.001254
v 0.008109 -0.012591 0.002460
v 0.009499 -0.012143 0.002309
v 0.010193 -0.011042 0.001935
v -0.010193 -0.011042 0.001935
v -0.009499 -0.012143 0.002309
v -0.008109 -0.012591 0.002460
v 0.009770 -0.014910 -0.007171
v 0.009086 -0.016042 -0.006734
v 0.007730 -0.016530 -0.006534
v -0.007730 -0.016530 -0.006534
v -0.009086 -0.016042 -0.006734
v -0.009770 -0.014910 -0.007171
v 0.007730 -0.012298 0.005808
v 0.009086 -0.011789 0.005667
v 0.009770 -0.010628 0.005318
v -0.009770 -0.010628 0.005318
v -0.009086 -0.011789 0.005667
v -0.007729 -0.012297 0.005808
v -0.009151 -0.011256 0.008760
v -0.008458 -0.012538 0.009146
v -0.007143 -0.013095 0.009301
v 0.007155 -0.013096 0.009302
v 0.008459 -0.012539 0.009146
v 0.009151 -0.011256 0.008760
v 0.009151 -0.017519 -0.009504
v 0.008459 -0.018769 -0.009021
v 0.007155 -0.019304 -0.008803
v -0.007155 -0.019304 -0.008803
v -0.008459 -0.018769 -0.009021
v -0.009151 -0.017519 -0.009504
v -0.008096 -0.012003 0.012156
v -0.008801 -0.011693 0.010764
v -0.008149 -0.013107 0.010954
v -0.006893 -0.013685 0.010977
v -0.006751 -0.013419 0.012311
v -0.006816 -0.012126 0.012722
v 0.008096 -0.012003 0.012156
v 0.006816 -0.012126 0.012722
v 0.006786 -0.013430 0.012340
v 0.006941 -0.013714 0.011061
v 0.008155 -0.013134 0.011004
v 0.008801 -0.011693 0.010764
v 0.008030 -0.002242 0.009255
v 0.009303 -0.002391 0.008821
v 0.009929 -0.002750 0.007772
v -0.009303 -0.002391 0.008821
v -0.008030 -0.002242 0.009255
v -0.009929 -0.002750 0.007772
v 0.006809 -0.021453 -0.010986
v 0.006857 -0.020702 -0.012067
v 0.008106 -0.020233 -0.011714
v 0.008801 -0.019093 -0.010817
v 0.008155 -0.020376 -0.010122
v 0.006941 -0.020871 -0.009812
v 0.009303 -0.010556 -0.014991
v 0.008030 -0.010705 -0.015425
v 0.009929 -0.010196 -0.013943
v -0.008096 -0.020189 -0.011727
v -0.006816 -0.020636 -0.012098
v -0.006786 -0.021431 -0.010996
v -0.006941 -0.020871 -0.009812
v -0.008155 -0.020376 -0.010122
v -0.008801 -0.019093 -0.010817
v -0.009303 -0.010556 -0.014991
v -0.009929 -0.010196 -0.013943
v -0.008030 -0.010705 -0.015425
v -0.007787 -0.013108 0.012047
v 0.007797 -0.013121 0.012070
v 0.007807 -0.021042 -0.010966
v -0.007798 -0.021021 -0.010972
vn -0.0000 -0.0000 1.0000
vt 1.090628 0.688745
vt 1.090628 0.682895
vt 1.096475 0.682895
vt 1.096475 0.688745
s 1
usemtl M_LightSwitchDial_4_2
f 9/1/1 10/2/1 12/3/1 11/4/1
