# Blender 4.1.1
# www.blender.org
mtllib MeshTelevision_5_0_GeomSubset_2.mtl
o MeshTelevision_5_0_GeomSubset_2
v 0.000679 -0.023698 0.059237
v -0.000679 -0.023698 0.059237
v 0.000679 -0.022341 0.059237
v -0.000679 -0.022341 0.059237
v 0.000679 -0.023698 0.059237
v -0.000679 -0.023698 0.059237
v 0.000679 -0.022341 0.059237
v -0.000679 -0.022341 0.059237
v 0.000679 -0.023698 0.059237
v -0.000679 -0.023698 0.059237
v 0.000679 -0.022341 0.059237
v -0.000679 -0.022341 0.059237
v 0.000679 -0.023698 0.059237
v -0.000679 -0.023698 0.059237
v 0.000679 -0.022341 0.059237
v -0.000679 -0.022341 0.059237
v 0.000679 -0.023698 0.059237
v -0.000679 -0.023698 0.059237
v 0.000679 -0.022341 0.059237
v -0.000679 -0.022341 0.059237
v 0.558329 -0.045423 0.364255
v 0.558329 -0.034551 0.364255
v 0.558329 -0.034551 -0.195894
v 0.558329 -0.045423 -0.195894
v -0.000062 -0.079875 0.364255
v -0.000062 -0.079875 -0.195894
v 0.512770 -0.079875 0.364255
v 0.512770 -0.079875 -0.195894
v 0.536140 -0.074559 0.364255
v 0.536140 -0.074559 -0.195894
v 0.550954 -0.063364 0.364255
v 0.550954 -0.063364 -0.195894
v 0.558329 -0.045423 0.370154
v 0.550954 -0.063364 0.370154
v 0.558329 -0.034551 0.370154
v 0.558329 -0.034551 -0.201793
v 0.550954 -0.063364 -0.201793
v 0.558329 -0.045423 -0.201793
v -0.000062 -0.079875 0.370154
v -0.000062 -0.079875 -0.201793
v 0.512770 -0.079875 0.370154
v 0.512770 -0.079875 -0.201793
v 0.536140 -0.074559 0.370154
v 0.536140 -0.074559 -0.201793
v 0.558329 -0.045423 0.398493
v 0.550954 -0.063364 0.398493
v 0.550954 -0.034551 0.398493
v 0.558329 -0.034551 0.398493
v 0.558329 -0.034551 -0.230133
v 0.550954 -0.034551 -0.230133
v 0.550954 -0.063364 -0.230133
v 0.558329 -0.045423 -0.230133
v -0.000062 -0.079875 0.398493
v -0.000062 -0.034551 0.398493
v -0.000062 -0.034551 -0.230133
v -0.000062 -0.079875 -0.230133
v 0.512770 -0.034551 0.398493
v 0.512770 -0.079875 0.398493
v 0.512770 -0.079875 -0.230133
v 0.512770 -0.034551 -0.230133
v 0.536140 -0.074559 0.398493
v 0.536140 -0.034551 0.398493
v 0.536140 -0.034551 -0.230133
v 0.536140 -0.074559 -0.230133
v 0.554001 -0.044570 0.364255
v 0.547519 -0.060716 0.364255
v 0.547519 -0.060716 0.370154
v 0.554001 -0.044570 0.370154
v 0.553661 -0.037718 0.364255
v 0.553661 -0.037718 0.370154
v 0.553661 -0.037718 -0.195894
v 0.553661 -0.037718 -0.201793
v 0.554001 -0.044570 -0.195894
v 0.547519 -0.060715 -0.195894
v 0.554001 -0.044570 -0.201793
v 0.547519 -0.060715 -0.201793
v -0.000062 -0.075379 -0.195894
v -0.000062 -0.075379 -0.201793
v 0.512271 -0.075434 0.364255
v 0.512271 -0.075434 0.370154
v 0.512271 -0.075434 -0.195894
v 0.512271 -0.075434 -0.201793
v 0.534286 -0.070573 0.364255
v 0.534286 -0.070573 0.370154
v 0.534286 -0.070573 -0.195894
v 0.534286 -0.070573 -0.201793
v -0.000062 -0.075434 0.364255
v -0.000062 -0.075434 0.370154
v 0.450787 -0.079875 -0.175509
v -0.000062 -0.079875 -0.175509
v 0.450787 -0.079875 0.343870
v -0.000062 -0.079875 0.343870
v 0.433507 -0.058180 -0.155603
v -0.000062 -0.058180 -0.155603
v 0.433507 -0.058180 0.323963
v -0.000062 -0.058180 0.323963
v -0.558329 -0.045423 0.364255
v -0.558329 -0.034551 0.364255
v -0.558329 -0.034551 -0.195894
v -0.558329 -0.045423 -0.195894
v -0.512780 -0.079875 0.364255
v -0.512780 -0.079875 -0.195894
v -0.536145 -0.074559 0.364255
v -0.536145 -0.074559 -0.195894
v -0.550956 -0.063364 0.364255
v -0.550956 -0.063364 -0.195894
v -0.558329 -0.045423 0.370154
v -0.550956 -0.063364 0.370154
v -0.558329 -0.034551 0.370154
v -0.558329 -0.034551 -0.201793
v -0.550956 -0.063364 -0.201793
v -0.558329 -0.045423 -0.201793
v -0.512780 -0.079875 0.370154
v -0.512780 -0.079875 -0.201793
v -0.536145 -0.074559 0.370154
v -0.536145 -0.074559 -0.201793
v -0.558329 -0.045423 0.398493
v -0.550956 -0.063364 0.398493
v -0.550956 -0.034551 0.398493
v -0.558329 -0.034551 0.398493
v -0.558329 -0.034551 -0.230133
v -0.550956 -0.034551 -0.230133
v -0.550956 -0.063364 -0.230133
v -0.558329 -0.045423 -0.230133
v -0.512780 -0.034551 0.398493
v -0.512780 -0.079875 0.398493
v -0.512780 -0.079875 -0.230133
v -0.512780 -0.034551 -0.230133
v -0.536145 -0.074559 0.398493
v -0.536145 -0.034551 0.398493
v -0.536145 -0.034551 -0.230133
v -0.536145 -0.074559 -0.230133
v -0.554002 -0.044570 0.364255
v -0.547522 -0.060716 0.364255
v -0.547522 -0.060716 0.370154
v -0.554002 -0.044570 0.370154
v -0.553661 -0.037718 0.364255
v -0.553661 -0.037718 0.370154
v -0.553661 -0.037718 -0.195894
v -0.553661 -0.037718 -0.201793
v -0.554002 -0.044570 -0.195894
v -0.547522 -0.060715 -0.195894
v -0.554002 -0.044570 -0.201793
v -0.547522 -0.060715 -0.201793
v -0.512281 -0.075434 0.364255
v -0.512281 -0.075434 0.370154
v -0.512282 -0.075434 -0.195894
v -0.512282 -0.075434 -0.201793
v -0.534291 -0.070573 0.364255
v -0.534291 -0.070573 0.370154
v -0.534291 -0.070573 -0.195894
v -0.534291 -0.070573 -0.201793
v -0.450811 -0.079875 -0.175509
v -0.450811 -0.079875 0.343870
v -0.433535 -0.058180 -0.155603
v -0.433535 -0.058180 0.323963
v 0.550954 -0.023020 0.364255
v 0.550954 -0.023020 -0.195894
v 0.558329 -0.023020 -0.195894
v 0.558329 -0.023020 0.364255
v -0.000062 -0.023020 0.364255
v -0.000062 -0.023020 -0.195894
v 0.512770 -0.023020 -0.195894
v 0.512770 -0.023020 0.364255
v 0.536140 -0.023020 -0.195894
v 0.536140 -0.023020 0.364255
v 0.553661 -0.026187 0.364255
v 0.550954 -0.026187 0.364255
v 0.553661 -0.026187 0.370154
v 0.550954 -0.026187 0.370154
v 0.553661 -0.026186 -0.195894
v 0.550954 -0.026186 -0.195894
v 0.550954 -0.026186 -0.201793
v 0.553661 -0.026186 -0.201793
v 0.512770 -0.026187 0.364255
v -0.000062 -0.026187 0.364255
v 0.512770 -0.026187 0.370154
v -0.000062 -0.026187 0.370154
v 0.512770 -0.026186 -0.195894
v -0.000062 -0.026186 -0.195894
v -0.000062 -0.026186 -0.201793
v 0.512770 -0.026186 -0.201793
v 0.536140 -0.026187 0.364255
v 0.536140 -0.026187 0.370154
v 0.536140 -0.026186 -0.195894
v 0.536140 -0.026186 -0.201793
v 0.558329 -0.023020 0.370154
v 0.550954 -0.023020 0.370154
v 0.558329 -0.023020 0.398493
v 0.550954 -0.023020 0.398493
v 0.558329 -0.023020 -0.201793
v 0.550954 -0.023020 -0.201793
v 0.550954 -0.023020 -0.230133
v 0.558329 -0.023020 -0.230133
v 0.512770 -0.023020 0.370154
v -0.000062 -0.023020 0.370154
v 0.512770 -0.023020 0.398493
v -0.000062 -0.023020 0.398493
v 0.512770 -0.023020 -0.201793
v -0.000062 -0.023020 -0.201793
v -0.000062 -0.023020 -0.230133
v 0.512770 -0.023020 -0.230133
v 0.536140 -0.023020 0.370154
v 0.536140 -0.023020 0.398493
v 0.536140 -0.023020 -0.201793
v 0.536140 -0.023020 -0.230133
v -0.558329 -0.023020 0.364255
v -0.550956 -0.023020 0.364255
v -0.558329 -0.023020 -0.195894
v -0.550956 -0.023020 -0.195894
v -0.512780 -0.023020 0.364255
v -0.512780 -0.023020 -0.195894
v -0.536145 -0.023020 0.364255
v -0.536145 -0.023020 -0.195894
v -0.550956 -0.026187 0.364255
v -0.550956 -0.026187 0.370154
v -0.553661 -0.026187 0.370154
v -0.553661 -0.026187 0.364255
v -0.553661 -0.026186 -0.195894
v -0.553661 -0.026186 -0.201793
v -0.550956 -0.026186 -0.201793
v -0.550956 -0.026186 -0.195894
v -0.512780 -0.026187 0.370154
v -0.512780 -0.026187 0.364255
v -0.512780 -0.026186 -0.195894
v -0.512780 -0.026186 -0.201793
v -0.536145 -0.026187 0.370154
v -0.536145 -0.026187 0.364255
v -0.536145 -0.026186 -0.195894
v -0.536145 -0.026186 -0.201793
v -0.550956 -0.023020 0.370154
v -0.550956 -0.023020 0.398493
v -0.558329 -0.023020 0.398493
v -0.558329 -0.023020 0.370154
v -0.558329 -0.023020 -0.201793
v -0.558329 -0.023020 -0.230133
v -0.550956 -0.023020 -0.230133
v -0.550956 -0.023020 -0.201793
v -0.512780 -0.023020 0.398493
v -0.512780 -0.023020 0.370154
v -0.512780 -0.023020 -0.201793
v -0.512780 -0.023020 -0.230133
v -0.536145 -0.023020 0.398493
v -0.536145 -0.023020 0.370154
v -0.536145 -0.023020 -0.201793
v -0.536145 -0.023020 -0.230133
v 0.458722 -0.079875 0.349980
v -0.000061 -0.079875 0.349980
v -0.458742 -0.079875 0.349980
v -0.458742 -0.079875 -0.181619
v -0.000061 -0.079875 -0.181619
v 0.458722 -0.079875 -0.181619
v -0.000062 -0.058180 0.088567
v -0.000062 -0.058180 0.079794
v 0.433507 -0.058180 0.079794
v 0.433507 -0.058180 0.088567
v 0.450787 -0.079875 0.079794
v 0.450787 -0.079875 0.088567
v 0.458722 -0.079875 0.079794
v 0.458722 -0.079875 0.088567
v 0.512770 -0.079875 0.079794
v 0.512770 -0.079875 0.088567
v 0.536140 -0.074559 0.079794
v 0.536140 -0.074559 0.088567
v 0.550954 -0.063364 0.079794
v 0.550954 -0.063364 0.088567
v 0.558329 -0.045423 0.079794
v 0.558329 -0.045423 0.088567
v 0.558329 -0.034551 0.079794
v 0.558329 -0.034551 0.088567
v 0.558329 -0.023020 0.079794
v 0.558329 -0.023020 0.088567
v 0.550954 -0.023020 0.079794
v 0.550954 -0.023020 0.088567
v 0.536140 -0.023020 0.079794
v 0.536140 -0.023020 0.088567
v 0.512770 -0.023020 0.079794
v 0.512770 -0.023020 0.088567
v -0.000062 -0.023020 0.079794
v -0.000062 -0.023020 0.088567
v -0.512780 -0.023020 0.079794
v -0.512780 -0.023020 0.088567
v -0.536145 -0.023020 0.079794
v -0.536145 -0.023020 0.088567
v -0.550956 -0.023020 0.079794
v -0.550956 -0.023020 0.088567
v -0.558329 -0.023020 0.079794
v -0.558329 -0.023020 0.088567
v -0.558329 -0.034551 0.079794
v -0.558329 -0.034551 0.088567
v -0.558329 -0.045423 0.079794
v -0.558329 -0.045423 0.088567
v -0.550956 -0.063364 0.079794
v -0.550956 -0.063364 0.088567
v -0.536145 -0.074559 0.079794
v -0.536145 -0.074559 0.088567
v -0.512780 -0.079875 0.079794
v -0.512780 -0.079875 0.088567
v -0.458742 -0.079875 0.079794
v -0.458742 -0.079875 0.088567
v -0.450811 -0.079875 0.079794
v -0.450811 -0.079875 0.088567
v -0.433535 -0.058180 0.079794
v -0.433535 -0.058180 0.088567
vn -0.0000 -0.0000 -1.0000
vn -0.0000 1.0000 -0.0000
vt -18.604568 -17.577751
vt -18.604568 -17.578503
vt -18.603819 -17.578503
vt -18.603819 -17.577751
vt 0.500055 0.393731
vt 0.500055 0.383612
vt 1.000000 0.383612
vt 1.000000 0.393731
vt 0.000000 0.393731
vt 0.000000 0.383612
vt 0.500055 0.112118
vt 0.000000 0.112128
vt 1.000000 0.112109
vt 0.500055 0.665225
vt 0.000000 0.665215
vt 1.000000 0.665234
s 1
usemtl M_Television_5_2
f 9/1/1 10/2/1 12/3/1 11/4/1
f 253/5/2 254/6/2 303/7/2 304/8/2
f 254/6/2 253/5/2 256/9/2 255/10/2
f 94/11/2 254/6/2 255/10/2 93/12/2
f 94/11/2 155/13/2 303/7/2 254/6/2
f 253/5/2 96/14/2 95/15/2 256/9/2
f 253/5/2 304/8/2 156/16/2 96/14/2
