# Blender 4.1.0
# www.blender.org
mtllib Fp325_Dresser1ShelvingUnit_325_3_GeomSubset_0.mtl
o Fp325_Dresser1ShelvingUnit_325_3_GeomSubset_0
v -0.384021 -0.151503 -0.832403
v -0.384021 -0.151503 0.519541
v -0.384021 -0.112538 0.519541
v -0.384021 -0.112538 -0.832403
v -0.448183 -0.154934 -0.832403
v -0.448183 -0.154934 0.519541
v -0.388674 -0.154934 0.519541
v -0.388674 -0.154934 -0.832403
v -0.452836 -0.112538 -0.832403
v -0.452836 -0.112538 0.519541
v -0.452836 -0.151503 0.519541
v -0.452836 -0.151503 -0.832403
v -0.388674 -0.112538 -0.833478
v -0.448183 -0.112538 -0.833478
v -0.448183 -0.151503 -0.833478
v -0.388674 -0.151503 -0.833478
v -0.448183 -0.112538 0.520617
v -0.388674 -0.112538 0.520617
v -0.388674 -0.151503 0.520617
v -0.448183 -0.151503 0.520617
v -0.388674 -0.109103 -0.832403
v -0.388674 -0.109103 0.519541
v -0.448184 -0.109103 0.519541
v -0.448184 -0.109103 -0.832403
v -0.384021 0.136699 -0.832403
v -0.384021 0.136699 0.519541
v -0.384021 0.175667 0.519541
v -0.384021 0.175663 -0.832403
v -0.448183 0.133266 -0.832403
v -0.448183 0.133266 0.519541
v -0.388674 0.133266 0.519541
v -0.388674 0.133266 -0.832403
v -0.452836 0.175663 -0.832403
v -0.452836 0.175667 0.519541
v -0.452836 0.136701 0.519541
v -0.452836 0.136699 -0.832403
v -0.388673 0.175663 -0.833479
v -0.448183 0.175667 -0.833479
v -0.448183 0.136699 -0.833478
v -0.388674 0.136699 -0.833478
v -0.448183 0.175667 0.520617
v -0.388673 0.175663 0.520617
v -0.388674 0.136699 0.520617
v -0.448183 0.136701 0.520617
v -0.388673 0.179098 -0.832403
v -0.388673 0.179098 0.519541
v -0.448183 0.179098 0.519541
v -0.448183 0.179098 -0.832403
v 0.388408 -0.112538 -0.833478
v 0.388408 -0.151503 -0.833478
v 0.447918 -0.151503 -0.833478
v 0.447918 -0.112538 -0.833478
v 0.447918 -0.154938 -0.832403
v 0.388408 -0.154938 -0.832403
v 0.388408 -0.154934 0.519541
v 0.447918 -0.154934 0.519541
v 0.452571 -0.112538 -0.832403
v 0.452571 -0.151503 -0.832403
v 0.452571 -0.151503 0.519541
v 0.452571 -0.112538 0.519541
v 0.447918 -0.112538 0.520617
v 0.447918 -0.151503 0.520617
v 0.388408 -0.151503 0.520617
v 0.388408 -0.112538 0.520617
v 0.383756 -0.151503 -0.832403
v 0.383756 -0.112538 -0.832403
v 0.383756 -0.112538 0.519541
v 0.383756 -0.151503 0.519541
v 0.388408 -0.109106 -0.832403
v 0.447918 -0.109106 -0.832403
v 0.447918 -0.109106 0.519542
v 0.388408 -0.109106 0.519541
v 0.447918 0.133266 -0.832403
v 0.388409 0.133266 -0.832403
v 0.388409 0.133266 0.519541
v 0.447918 0.133266 0.519541
v 0.452571 0.175661 -0.832403
v 0.452571 0.136699 -0.832403
v 0.452571 0.136699 0.519541
v 0.452571 0.175661 0.519541
v 0.447918 0.175661 0.520617
v 0.447918 0.136699 0.520617
v 0.388409 0.136699 0.520617
v 0.388409 0.175661 0.520617
v 0.383757 0.136699 -0.832403
v 0.383757 0.175661 -0.832403
v 0.383757 0.175661 0.519541
v 0.383757 0.136699 0.519541
v 0.388409 0.179094 -0.832403
v 0.447918 0.179094 -0.832403
v 0.447918 0.179094 0.519541
v 0.388409 0.179094 0.519541
v 0.388409 0.136699 -0.833478
v 0.388409 0.175661 -0.833479
v 0.447918 0.136699 -0.833478
v 0.447918 0.175661 -0.833479
v -0.416809 -0.108856 -0.763943
v -0.416809 -0.108856 0.515548
v -0.416809 0.134184 0.515548
v -0.416809 0.134184 -0.763943
v -0.451223 0.134184 0.515548
v -0.451223 0.134184 -0.763943
v -0.451224 -0.108856 0.515548
v -0.451224 -0.108856 -0.763943
v 0.418041 -0.108856 -0.763943
v 0.418041 0.134180 -0.763943
v 0.418041 0.134180 0.515548
v 0.418041 -0.108856 0.515548
v 0.452455 0.134180 -0.763943
v 0.452455 0.134180 0.515548
v 0.452455 -0.108856 -0.763943
v 0.452455 -0.108856 0.515548
v -0.390777 0.154945 -0.763943
v -0.390777 0.154945 0.515548
v 0.390512 0.154945 0.515548
v 0.390512 0.154945 -0.763943
v 0.390512 0.180340 0.515548
v 0.390512 0.180340 -0.763943
v -0.390777 0.180341 0.515548
v -0.390777 0.180341 -0.763943
v -0.006889 -0.153275 0.179301
v -0.006889 -0.153275 0.199952
v 0.390512 -0.153277 0.199952
v 0.376363 -0.153275 0.179301
v 0.376363 -0.153277 0.220604
v -0.006889 -0.153275 0.220604
v -0.390777 -0.153273 0.199952
v -0.376628 -0.153273 0.220604
v 0.390512 -0.127884 -0.763943
v 0.390512 -0.153277 -0.763943
v 0.390512 -0.153277 -0.124198
v 0.390512 -0.153277 0.515548
v 0.390512 -0.127884 0.515548
v -0.376628 -0.153275 -0.144849
v -0.376628 0.064830 -0.144849
v -0.376628 0.064830 -0.743291
v -0.376628 -0.153275 -0.743291
v -0.390777 -0.127878 0.515548
v -0.390777 -0.153275 0.515548
v -0.390777 -0.153273 -0.124198
v -0.390777 -0.153275 -0.763943
v -0.390777 -0.127878 -0.763943
v -0.006889 -0.153275 -0.763943
v -0.006889 -0.153275 0.515548
v 0.376363 -0.153275 -0.743291
v 0.376363 0.064830 -0.743291
v 0.376363 0.064830 -0.144849
v 0.376363 -0.153275 -0.144849
v -0.006889 -0.153275 0.494896
v -0.006889 0.064830 0.494896
v -0.006889 0.064830 -0.103546
v -0.006889 -0.153275 -0.103546
v -0.006889 -0.153275 -0.743291
v -0.006889 -0.153275 -0.144849
v -0.006889 -0.153275 -0.124198
v 0.376363 -0.153277 -0.103546
v 0.376363 -0.153277 0.494896
v -0.376628 -0.153275 -0.103546
v -0.376628 -0.153275 0.494896
v -0.376628 0.064830 -0.103546
v -0.376628 0.064830 0.494896
v -0.006889 0.064830 -0.743291
v -0.006889 0.064830 -0.144849
v 0.376363 0.064829 -0.103546
v 0.376363 0.064829 0.494896
v -0.376628 -0.153275 0.179300
v 0.376363 0.064830 0.179301
v -0.006889 0.064830 0.179301
v -0.376628 0.064830 0.179301
v -0.376628 0.064830 0.220604
v -0.006889 0.064830 0.220604
v 0.376363 0.064829 0.220604
v -0.006889 -0.153275 -0.463291
v -0.006889 -0.153275 -0.442639
v 0.390512 -0.153277 -0.442639
v 0.376363 -0.153277 -0.463291
v 0.376363 -0.153275 -0.421987
v -0.006889 -0.153275 -0.421987
v -0.390777 -0.153273 -0.442639
v -0.376628 -0.153275 -0.421987
v -0.376628 -0.153273 -0.463291
v 0.376363 0.064829 -0.463291
v -0.006889 0.064830 -0.463291
v -0.376628 0.064832 -0.463291
v -0.376628 0.064830 -0.421987
v -0.006889 0.064830 -0.421987
v 0.376363 0.064829 -0.421987
v 0.452757 -0.158039 0.524140
v -0.452757 -0.158037 0.524140
v -0.452757 -0.158039 0.565187
v 0.452757 -0.158039 0.565187
v 0.458599 0.178466 0.524140
v 0.458599 -0.153731 0.524140
v 0.458599 -0.153731 0.565187
v 0.458599 0.178466 0.565187
v 0.452757 0.178466 0.576721
v 0.452757 -0.153731 0.576721
v -0.452757 -0.153729 0.576721
v -0.452757 0.178468 0.576721
v -0.458599 -0.153729 0.524140
v -0.458599 0.178468 0.524140
v -0.458599 0.178468 0.565187
v -0.458599 -0.153729 0.565187
v -0.452757 0.182777 0.524140
v 0.452757 0.182777 0.524140
v 0.452757 0.182775 0.565187
v -0.452757 0.182777 0.565187
v -0.452757 -0.153729 0.512606
v -0.452757 0.178468 0.512606
v 0.452757 -0.153731 0.512607
v 0.452757 0.178466 0.512606
vn 1.0000 -0.0000 -0.0000
vn -0.0000 -1.0000 -0.0000
vn -1.0000 -0.0000 -0.0000
vn -0.0000 -0.0000 -1.0000
vn -0.0000 -0.0000 1.0000
vn -0.0000 1.0000 -0.0000
vn 0.2153 -0.2920 -0.9319
vn 0.2159 -0.2922 -0.9317
vn 0.2155 -0.2922 0.9318
vn 0.2154 0.2919 -0.9319
vn 0.2155 0.2919 0.9319
vn -0.2153 -0.2920 -0.9319
vn -0.2156 -0.2921 -0.9318
vn -0.2155 -0.2922 0.9318
vn -0.2157 0.2921 -0.9317
vn -0.2155 0.2918 0.9319
vn -0.2155 0.2924 0.9317
vn 0.2251 -0.0000 -0.9743
vn 0.5935 -0.8048 -0.0000
vn 0.2253 -0.0000 0.9743
vn 0.5939 0.8045 -0.0000
vn 0.5935 0.8049 -0.0000
vn -0.0000 0.2987 -0.9544
vn -0.0000 0.2989 0.9543
vn -0.5940 0.8045 -0.0000
vn -0.5936 0.8047 -0.0000
vn -0.2251 -0.0000 -0.9743
vn -0.2253 -0.0000 0.9743
vn -0.5935 -0.8048 -0.0000
vn -0.5935 -0.8049 -0.0000
vn -0.0000 -0.2990 -0.9543
vn -0.0000 -0.2996 -0.9541
vn -0.0000 -0.2992 0.9542
vn 0.2158 -0.2922 -0.9317
vn 0.2155 -0.2920 0.9318
vn 0.2155 0.2919 -0.9318
vn 0.2153 0.2919 0.9319
vn -0.2153 -0.2918 -0.9319
vn -0.2155 -0.2919 0.9319
vn -0.2157 0.2922 -0.9317
vn -0.2155 0.2922 0.9318
vn 0.2253 -0.0000 -0.9743
vn 0.5942 -0.8043 -0.0000
vn 0.5937 -0.8047 -0.0000
vn 0.5940 0.8045 -0.0000
vn 0.5936 0.8048 -0.0000
vn -0.0000 0.2992 -0.9542
vn -0.0000 0.2989 -0.9543
vn -0.0000 0.2992 0.9542
vn -0.0000 0.2988 0.9543
vn -0.5935 0.8049 -0.0000
vn -0.5937 0.8047 -0.0000
vn -0.2253 -0.0000 -0.9743
vn -0.5939 -0.8045 -0.0000
vn -0.5937 -0.8047 -0.0000
vn -0.0000 -0.2988 -0.9543
vn -0.0000 -0.2989 0.9543
vn -0.0000 -0.2991 0.9542
vn -0.0000 -0.2994 0.9541
vn -0.2154 -0.2917 -0.9320
vn -0.2153 0.2919 -0.9319
vn -0.2154 0.2916 0.9320
vn -0.2154 0.2917 0.9319
vn 0.2153 -0.2917 -0.9320
vn 0.2152 0.2915 -0.9321
vn 0.2152 0.2916 0.9320
vn 0.2152 0.2915 0.9320
vn -0.2252 -0.0000 -0.9743
vn -0.5940 -0.8045 -0.0000
vn -0.5941 -0.8044 -0.0000
vn -0.5936 -0.8048 -0.0000
vn -0.2254 -0.0000 0.9743
vn -0.0000 0.2991 0.9542
vn 0.5941 0.8044 -0.0000
vn 0.5939 -0.8045 -0.0000
vn -0.0000 -0.2987 -0.9544
vn -0.0000 -0.2991 -0.9542
vn -0.2155 -0.2920 0.9318
vn -0.2155 0.2920 -0.9318
vn -0.2155 0.2920 0.9318
vn 0.2153 -0.2918 -0.9319
vn 0.2155 0.2921 -0.9318
vn 0.2155 0.2921 0.9318
vn -0.2254 -0.0000 -0.9743
vn -0.5938 -0.8046 -0.0000
vn -0.5938 0.8046 -0.0000
vn -0.0000 0.2991 -0.9542
vn 0.5942 0.8043 -0.0000
vn 0.5937 0.8047 -0.0000
vn -0.0000 -1.0000 -0.0001
vn -0.0001 -1.0000 -0.0000
vn -0.0001 -1.0000 0.0001
vn -0.0000 -1.0000 0.0001
vt 0.269002 0.495914
vt 0.290525 0.823232
vt 0.269002 0.823232
vt 0.290525 0.495914
vt 0.805193 0.495914
vt 0.826222 0.823232
vt 0.805193 0.823232
vt 0.826222 0.495914
vt 0.826222 0.290525
vt 0.805193 0.269002
vt 0.805193 0.290525
vt 0.826222 0.269002
vt 0.827867 0.269002
vt 0.826222 0.267106
vt 0.826222 0.292421
vt 0.827867 0.290525
vt 0.805193 0.267106
vt 0.803549 0.269002
vt 0.803549 0.290525
vt 0.805193 0.292421
vt 0.267106 0.823232
vt 0.267106 0.495914
vt 0.292421 0.495914
vt 0.292421 0.823232
vt 0.428198 0.495914
vt 0.449720 0.823232
vt 0.428198 0.823232
vt 0.449720 0.495914
vt 0.826222 0.449720
vt 0.805193 0.428198
vt 0.805193 0.449720
vt 0.826222 0.428198
vt 0.827867 0.428198
vt 0.826222 0.426302
vt 0.826222 0.451616
vt 0.827867 0.449720
vt 0.805193 0.426302
vt 0.803549 0.428198
vt 0.803549 0.449720
vt 0.805193 0.451616
vt 0.426302 0.823232
vt 0.426302 0.495914
vt 0.451616 0.495914
vt 0.451616 0.823232
vt 0.376522 0.290525
vt 0.397551 0.269002
vt 0.376522 0.269002
vt 0.397551 0.290525
vt 0.397551 0.495914
vt 0.376522 0.823232
vt 0.376522 0.495914
vt 0.397551 0.823232
vt 0.376522 0.267106
vt 0.374878 0.269002
vt 0.374878 0.290525
vt 0.376522 0.292421
vt 0.399195 0.269002
vt 0.397551 0.267106
vt 0.397551 0.292421
vt 0.399195 0.290525
vt 0.397551 0.449720
vt 0.376522 0.428198
vt 0.397551 0.428198
vt 0.376522 0.449720
vt 0.376522 0.426302
vt 0.374878 0.428198
vt 0.374878 0.449720
vt 0.376522 0.451616
vt 0.399195 0.428198
vt 0.397551 0.426302
vt 0.397551 0.451616
vt 0.399195 0.449720
vt 0.292558 0.512488
vt 0.426807 0.822265
vt 0.292558 0.822265
vt 0.426807 0.512488
vt 0.816280 0.512488
vt 0.804119 0.822265
vt 0.816280 0.822265
vt 0.804119 0.512488
vt 0.816280 0.426807
vt 0.804119 0.292558
vt 0.804119 0.426807
vt 0.816280 0.292558
vt 0.386993 0.512488
vt 0.399154 0.822265
vt 0.399154 0.512488
vt 0.386993 0.822265
vt 0.386993 0.426807
vt 0.399154 0.292558
vt 0.386993 0.292558
vt 0.399154 0.426807
vt 0.825479 0.512488
vt 1.377265 0.822265
vt 0.825479 0.822265
vt 1.377265 0.512488
vt 0.438277 0.512488
vt 0.452303 0.822265
vt 0.438277 0.822265
vt 0.452303 0.512488
vt 0.377265 0.512488
vt -0.174521 0.822265
vt 0.377265 0.822265
vt -0.174521 0.512488
vt 0.377265 0.438277
vt -0.174521 0.452303
vt 0.377265 0.452303
vt -0.174521 0.438277
vt 0.098104 0.662376
vt 0.377265 0.667377
vt 0.099352 0.667376
vt 0.372265 0.662377
vt 0.372265 0.672377
vt 0.096180 0.672377
vt 0.104876 0.672377
vt -0.174521 0.667377
vt -0.169521 0.672377
vt 0.282049 0.512488
vt 0.268023 0.667377
vt 0.268023 0.512488
vt 0.268023 0.822265
vt 0.282049 0.822265
vt 0.268023 0.662377
vt 0.388499 0.517488
vt 0.388499 0.662377
vt 0.268023 0.517488
vt 0.099463 0.268023
vt 0.377265 0.282049
vt 0.377265 0.268023
vt -0.174521 0.282049
vt -0.174521 0.268023
vt 0.098987 0.268023
vt 0.372265 0.517488
vt 0.099464 0.512488
vt 0.096180 0.517488
vt 0.098104 0.662377
vt 0.099353 0.667377
vt 0.104876 0.517489
vt -0.169521 0.517488
vt 0.372265 0.817265
vt 0.098104 0.817265
vt 0.101372 0.822265
vt 0.104876 0.672376
vt 0.096180 0.672376
vt 0.830479 0.517488
vt 0.825479 0.667377
vt 0.830479 0.662377
vt 1.103091 0.667376
vt 1.106952 0.662377
vt 0.830479 0.672377
vt 0.830479 0.817265
vt 1.103091 0.822264
vt 1.106952 0.817265
vt 0.106952 0.672378
vt -0.169521 0.817265
vt 0.106952 0.817265
vt 0.106952 0.517488
vt -0.169521 0.662377
vt 0.106952 0.662377
vt 0.096180 0.662377
vt 0.096179 0.517489
vt 0.096179 0.817266
vt 0.096179 0.672378
vt 0.096179 0.268023
vt 0.372265 0.388499
vt 0.096179 0.388499
vt 0.372265 0.268023
vt 0.106952 0.268023
vt -0.169521 0.388499
vt 0.106952 0.388499
vt -0.169521 0.268023
vt 0.830479 0.268023
vt 1.106952 0.388499
vt 0.830479 0.388499
vt 1.106952 0.268023
vt 0.268023 0.672377
vt 0.388499 0.817265
vt 0.388499 0.672377
vt 0.268023 0.817265
vt 0.096179 0.268022
vt 1.103091 0.667377
vt 1.103090 0.667376
s 1
usemtl M_ShelvingUnit_325_0
f 1/1/1 3/2/1 2/3/1
f 1/1/1 4/4/1 3/2/1
f 5/5/2 7/6/2 6/7/2
f 5/5/2 8/8/2 7/6/2
f 9/4/3 11/3/3 10/2/3
f 9/4/3 12/1/3 11/3/3
f 13/9/4 15/10/4 14/11/4
f 13/9/4 16/12/4 15/10/4
f 17/11/5 19/12/5 18/9/5
f 17/11/5 20/10/5 19/12/5
f 21/8/6 23/7/6 22/6/6
f 21/8/6 24/5/6 23/7/6
f 16/12/7 1/13/7 8/14/8
f 7/14/9 2/13/9 19/12/9
f 13/9/10 21/15/10 4/16/10
f 18/9/11 3/16/11 22/15/11
f 15/10/12 5/17/12 12/18/13
f 20/10/14 11/18/14 6/17/14
f 14/11/15 9/19/15 24/20/15
f 17/11/16 23/20/16 10/19/17
f 4/16/18 16/12/18 13/9/18
f 4/16/18 1/13/18 16/12/18
f 1/1/19 7/21/19 8/22/19
f 1/1/19 2/3/19 7/21/19
f 2/13/20 18/9/20 19/12/20
f 2/13/20 3/16/20 18/9/20
f 3/2/21 21/23/21 22/24/22
f 3/2/21 4/4/21 21/23/21
f 24/20/23 13/9/23 14/11/23
f 24/20/23 21/15/23 13/9/23
f 22/15/24 17/11/24 18/9/24
f 22/15/24 23/20/24 17/11/24
f 23/24/25 9/4/25 10/2/25
f 23/24/25 24/23/26 9/4/25
f 12/18/27 14/11/27 15/10/27
f 12/18/27 9/19/27 14/11/27
f 10/19/28 20/10/28 17/11/28
f 10/19/28 11/18/28 20/10/28
f 11/3/29 5/22/30 6/21/29
f 11/3/29 12/1/30 5/22/30
f 8/14/31 15/10/32 16/12/31
f 8/14/31 5/17/31 15/10/32
f 6/17/33 19/12/33 20/10/33
f 6/17/33 7/14/33 19/12/33
f 25/25/1 27/26/1 26/27/1
f 25/25/1 28/28/1 27/26/1
f 29/5/2 31/6/2 30/7/2
f 29/5/2 32/8/2 31/6/2
f 33/28/3 35/27/3 34/26/3
f 33/28/3 36/25/3 35/27/3
f 37/29/4 39/30/4 38/31/4
f 37/29/4 40/32/4 39/30/4
f 41/31/5 43/32/5 42/29/5
f 41/31/5 44/30/5 43/32/5
f 45/8/6 47/7/6 46/6/6
f 45/8/6 48/5/6 47/7/6
f 40/32/34 25/33/34 32/34/34
f 31/34/35 26/33/35 43/32/35
f 37/29/36 45/35/36 28/36/36
f 42/29/37 27/36/37 46/35/37
f 39/30/38 29/37/38 36/38/38
f 44/30/39 35/38/39 30/37/39
f 38/31/40 33/39/40 48/40/40
f 41/31/41 47/40/41 34/39/41
f 28/36/42 40/32/18 37/29/42
f 28/36/42 25/33/18 40/32/18
f 25/25/43 31/41/43 32/42/44
f 25/25/43 26/27/44 31/41/43
f 26/33/20 42/29/20 43/32/20
f 26/33/20 27/36/20 42/29/20
f 27/26/21 45/43/45 46/44/46
f 27/26/21 28/28/45 45/43/45
f 48/40/47 37/29/48 38/31/47
f 48/40/47 45/35/48 37/29/48
f 46/35/24 41/31/49 42/29/24
f 46/35/24 47/40/50 41/31/49
f 47/44/51 33/28/52 34/26/51
f 47/44/51 48/43/51 33/28/52
f 36/38/27 38/31/53 39/30/27
f 36/38/27 33/39/53 38/31/53
f 34/39/28 44/30/28 41/31/28
f 34/39/28 35/38/28 44/30/28
f 35/27/54 29/42/55 30/41/30
f 35/27/54 36/25/55 29/42/55
f 32/34/56 39/30/56 40/32/56
f 32/34/56 29/37/56 39/30/56
f 30/37/57 43/32/58 44/30/59
f 30/37/57 31/34/58 43/32/58
f 49/45/4 51/46/4 50/47/4
f 49/45/4 52/48/4 51/46/4
f 53/49/2 55/50/2 54/51/2
f 53/49/2 56/52/2 55/50/2
f 57/4/1 59/3/1 58/1/1
f 57/4/1 60/2/1 59/3/1
f 61/48/5 63/47/5 62/46/5
f 61/48/5 64/45/5 63/47/5
f 65/1/3 67/2/3 66/4/3
f 65/1/3 68/3/3 67/2/3
f 69/51/6 71/52/6 70/49/6
f 69/51/6 72/50/6 71/52/6
f 50/47/60 54/53/60 65/54/60
f 55/53/14 63/47/14 68/54/14
f 49/45/61 66/55/61 69/56/61
f 64/45/62 72/56/63 67/55/63
f 51/46/64 58/57/64 53/58/64
f 62/46/9 56/58/9 59/57/9
f 52/48/65 70/59/65 57/60/65
f 61/48/66 60/60/66 71/59/67
f 49/45/27 65/54/68 66/55/27
f 49/45/27 50/47/68 65/54/68
f 54/22/69 68/3/70 65/1/69
f 54/22/69 55/21/71 68/3/70
f 63/47/28 67/55/72 68/54/28
f 63/47/28 64/45/72 67/55/72
f 72/24/52 66/4/52 67/2/52
f 72/24/52 69/23/52 66/4/52
f 52/48/48 69/56/48 70/59/48
f 52/48/48 49/45/48 69/56/48
f 64/45/73 71/59/24 72/56/49
f 64/45/73 61/48/24 71/59/24
f 60/2/74 70/23/46 71/24/46
f 60/2/74 57/4/46 70/23/46
f 51/46/18 57/60/18 58/57/18
f 51/46/18 52/48/18 57/60/18
f 61/48/20 59/57/20 60/60/20
f 61/48/20 62/46/20 59/57/20
f 56/21/19 58/1/75 59/3/19
f 56/21/19 53/22/75 58/1/75
f 50/47/76 53/58/77 54/53/76
f 50/47/76 51/46/76 53/58/77
f 62/46/33 55/53/33 56/58/33
f 62/46/33 63/47/33 55/53/33
f 73/49/2 75/50/2 74/51/2
f 73/49/2 76/52/2 75/50/2
f 77/28/1 79/27/1 78/25/1
f 77/28/1 80/26/1 79/27/1
f 81/61/5 83/62/5 82/63/5
f 81/61/5 84/64/5 83/62/5
f 85/25/3 87/26/3 86/28/3
f 85/25/3 88/27/3 87/26/3
f 89/51/6 91/52/6 90/49/6
f 89/51/6 92/50/6 91/52/6
f 93/62/38 74/65/38 85/66/38
f 75/65/78 83/62/78 88/66/78
f 94/64/79 86/67/79 89/68/79
f 84/64/80 92/68/80 87/67/80
f 95/63/81 78/69/81 73/70/81
f 82/63/35 76/70/35 79/69/35
f 96/61/82 90/71/82 77/72/82
f 81/61/83 80/72/83 91/71/83
f 94/64/53 85/66/27 86/67/84
f 94/64/53 93/62/27 85/66/27
f 74/42/85 88/27/85 85/25/85
f 74/42/85 75/41/85 88/27/85
f 83/62/28 87/67/72 88/66/28
f 83/62/28 84/64/72 87/67/72
f 92/44/86 86/28/86 87/26/86
f 92/44/86 89/43/86 86/28/86
f 96/61/87 89/68/87 90/71/87
f 96/61/87 94/64/87 89/68/87
f 84/64/73 91/71/73 92/68/73
f 84/64/73 81/61/73 91/71/73
f 80/26/88 90/43/88 91/44/89
f 80/26/88 77/28/89 90/43/88
f 95/63/18 77/72/42 78/69/18
f 95/63/18 96/61/42 77/72/42
f 81/61/20 79/69/20 80/72/20
f 81/61/20 82/63/20 79/69/20
f 76/41/44 78/25/44 79/27/44
f 76/41/44 73/42/44 78/25/44
f 93/62/56 73/70/56 74/65/56
f 93/62/56 95/63/56 73/70/56
f 82/63/58 75/65/58 76/70/58
f 82/63/58 83/62/58 75/65/58
f 94/64/4 95/63/4 93/62/4
f 94/64/4 96/61/4 95/63/4
f 97/73/1 99/74/1 98/75/1
f 97/73/1 100/76/1 99/74/1
f 100/77/6 101/78/6 99/79/6
f 100/77/6 102/80/6 101/78/6
f 102/76/3 103/75/3 101/74/3
f 102/76/3 104/73/3 103/75/3
f 104/80/2 98/79/2 103/78/2
f 104/80/2 97/77/2 98/79/2
f 100/81/4 104/82/4 102/83/4
f 100/81/4 97/84/4 104/82/4
f 101/83/5 98/84/5 99/81/5
f 101/83/5 103/82/5 98/84/5
f 105/73/3 107/74/3 106/76/3
f 105/73/3 108/75/3 107/74/3
f 106/85/6 110/86/6 109/87/6
f 106/85/6 107/88/6 110/86/6
f 109/76/1 112/75/1 111/73/1
f 109/76/1 110/74/1 112/75/1
f 111/87/2 108/88/2 105/85/2
f 111/87/2 112/86/2 108/88/2
f 106/89/4 111/90/4 105/91/4
f 106/89/4 109/92/4 111/90/4
f 110/92/5 108/91/5 112/90/5
f 110/92/5 107/89/5 108/91/5
f 113/93/2 115/94/2 114/95/2
f 113/93/2 116/96/2 115/94/2
f 116/97/1 117/98/1 115/99/1
f 116/97/1 118/100/1 117/98/1
f 118/101/6 119/102/6 117/103/6
f 118/101/6 120/104/6 119/102/6
f 120/100/3 114/99/3 119/98/3
f 120/100/3 113/97/3 114/99/3
f 116/105/4 120/106/4 118/107/4
f 116/105/4 113/108/4 120/106/4
f 117/107/5 114/108/5 115/105/5
f 117/107/5 119/106/5 114/108/5
f 121/109/2 123/110/2 122/111/2
f 121/109/2 124/112/90 123/110/2
f 125/113/2 122/111/2 123/110/2
f 125/113/2 126/114/2 122/111/2
f 126/115/2 127/116/2 122/111/2
f 126/115/2 128/117/2 127/116/2
f 129/118/1 131/119/1 130/120/1
f 131/119/1 129/118/1 132/121/1
f 132/121/1 129/118/1 133/122/1
f 134/123/1 136/124/1 135/125/1
f 134/123/1 137/126/1 136/124/1
f 138/122/3 140/119/3 139/121/3
f 140/119/3 138/122/3 141/120/3
f 141/120/3 138/122/3 142/118/3
f 143/127/4 129/128/4 130/129/4
f 129/128/4 143/127/4 142/130/4
f 142/130/4 143/127/4 141/131/4
f 138/130/5 132/129/5 133/128/5
f 132/129/5 138/130/5 144/132/5
f 144/132/5 138/130/5 139/131/5
f 145/126/3 147/125/3 146/124/3
f 145/126/3 148/123/3 147/125/3
f 148/112/91 130/101/92 131/110/2
f 148/112/91 145/133/91 130/101/92
f 145/133/91 143/134/2 130/101/92
f 145/133/91 153/135/2 143/134/2
f 154/136/2 148/112/91 131/110/2
f 154/136/2 131/110/2 155/137/2
f 153/138/2 141/104/2 143/134/2
f 153/138/2 137/139/2 141/104/2
f 156/113/2 155/137/2 131/110/2
f 157/140/2 156/113/2 131/110/2
f 157/140/2 131/110/2 132/103/2
f 149/141/2 157/140/2 132/103/2
f 149/141/2 132/103/2 144/142/2
f 152/143/2 140/116/91 155/137/2
f 152/143/2 158/117/91 140/116/91
f 156/113/2 152/144/2 155/137/2
f 137/145/2 140/146/91 141/93/2
f 137/145/2 134/147/91 140/146/91
f 134/147/91 155/148/2 140/146/91
f 134/147/91 154/149/2 155/148/2
f 158/150/91 139/95/2 140/146/91
f 158/150/91 159/151/2 139/95/2
f 159/151/2 144/152/2 139/95/2
f 159/151/2 149/153/2 144/152/2
f 151/154/2 161/155/2 160/117/2
f 151/154/2 150/156/2 161/155/2
f 162/157/2 135/158/2 136/139/2
f 162/157/2 163/159/2 135/158/2
f 146/133/2 163/160/2 162/161/2
f 146/133/2 147/112/2 163/160/2
f 164/113/2 150/162/2 151/163/2
f 164/113/2 165/140/2 150/162/2
f 153/164/5 146/165/5 162/166/5
f 153/164/5 145/167/5 146/165/5
f 149/168/4 161/169/4 150/170/4
f 149/168/4 159/171/4 161/169/4
f 137/172/5 162/173/5 136/174/5
f 137/172/5 153/175/5 162/173/5
f 156/176/3 165/177/3 164/178/3
f 156/176/3 157/179/3 165/177/3
f 148/167/4 163/166/4 147/165/4
f 148/167/4 154/164/4 163/166/4
f 159/179/1 160/178/1 161/177/1
f 159/179/1 158/176/1 160/178/1
f 154/168/4 135/169/4 163/170/4
f 154/168/4 134/171/4 135/169/4
f 157/167/4 150/166/4 165/165/4
f 157/167/4 149/164/4 150/166/4
f 158/172/5 151/173/5 160/174/5
f 158/172/5 152/175/5 151/173/5
f 152/180/5 164/165/5 151/166/5
f 152/180/5 156/167/5 164/165/5
f 166/147/93 122/181/2 127/146/2
f 166/147/2 121/149/2 122/181/2
f 124/167/4 168/166/4 167/165/4
f 124/167/4 121/164/4 168/166/4
f 121/168/4 169/169/4 168/170/4
f 121/168/4 166/171/4 169/169/4
f 128/172/5 171/173/5 170/174/5
f 128/172/5 126/175/5 171/173/5
f 126/180/5 172/165/5 171/166/5
f 126/180/5 125/167/5 172/165/5
f 173/109/2 175/110/2 174/111/2
f 173/109/2 176/112/2 175/110/2
f 177/113/93 174/111/2 175/110/2
f 177/113/2 178/114/2 174/111/2
f 178/115/2 179/116/2 174/111/2
f 178/115/2 180/117/90 179/116/2
f 181/147/2 174/182/2 179/146/2
f 181/147/2 173/149/2 174/182/2
f 176/167/4 183/166/4 182/165/4
f 176/167/4 173/164/4 183/166/4
f 173/168/4 184/169/4 183/170/4
f 173/168/4 181/171/4 184/169/4
f 180/172/5 186/173/5 185/174/5
f 180/172/5 178/175/5 186/173/5
f 178/164/5 187/165/5 186/166/5
f 178/164/5 177/167/5 187/165/5
