# Blender 4.1.1
# www.blender.org
mtllib Fp224Cylinder_164Fp224_Cylinder_164_0_GeomSubset_1.mtl
o Fp224Cylinder_164Fp224_Cylinder_164_0_GeomSubset_1
v 0.000000 0.137339 0.089491
v -0.026816 0.134698 0.089490
v -0.023443 0.117683 0.248324
v 0.000000 0.119992 0.248325
v -0.045985 0.110845 0.248322
v -0.052602 0.126876 0.089488
v -0.066760 0.099741 0.248318
v -0.076366 0.114173 0.089483
v -0.084969 0.084797 0.248313
v -0.097196 0.097079 0.089477
v -0.099913 0.066587 0.248306
v -0.114290 0.076249 0.089470
v -0.111017 0.045813 0.248299
v -0.126993 0.052485 0.089462
v -0.117855 0.023271 0.248291
v -0.134815 0.026699 0.089453
v -0.120164 -0.000172 0.248283
v -0.137456 -0.000117 0.089444
v -0.117855 -0.023615 0.248275
v -0.134815 -0.026933 0.089434
v -0.111017 -0.046157 0.248267
v -0.126993 -0.052719 0.089425
v -0.099913 -0.066932 0.248260
v -0.114290 -0.076483 0.089417
v -0.084969 -0.085141 0.248254
v -0.097196 -0.097313 0.089410
v -0.066760 -0.100085 0.248249
v -0.076366 -0.114408 0.089404
v -0.045985 -0.111189 0.248245
v -0.052602 -0.127110 0.089400
v -0.023443 -0.118027 0.248242
v -0.026816 -0.134932 0.089397
v 0.000000 -0.120336 0.248242
v 0.000000 -0.137573 0.089396
v 0.023443 -0.118027 0.248242
v 0.026816 -0.134932 0.089397
v 0.045985 -0.111189 0.248245
v 0.052602 -0.127110 0.089400
v 0.066760 -0.100085 0.248249
v 0.076366 -0.114408 0.089404
v 0.084969 -0.085141 0.248254
v 0.097196 -0.097313 0.089410
v 0.099913 -0.066932 0.248260
v 0.114290 -0.076483 0.089417
v 0.111017 -0.046157 0.248267
v 0.126993 -0.052719 0.089425
v 0.117855 -0.023615 0.248275
v 0.134815 -0.026933 0.089434
v 0.120164 -0.000172 0.248283
v 0.137456 -0.000117 0.089444
v 0.117855 0.023271 0.248291
v 0.134815 0.026699 0.089453
v 0.111017 0.045813 0.248299
v 0.126993 0.052485 0.089462
v 0.099913 0.066588 0.248306
v 0.114290 0.076249 0.089470
v 0.084969 0.084797 0.248313
v 0.097196 0.097079 0.089477
v 0.066759 0.099741 0.248318
v 0.076366 0.114173 0.089483
v 0.045985 0.110845 0.248322
v 0.052602 0.126876 0.089488
v 0.023443 0.117683 0.248324
v 0.026816 0.134698 0.089490
v 0.000000 0.136172 0.087566
v 0.026588 0.133553 0.087566
v 0.000000 0.135005 0.089304
v -0.026361 0.132408 0.089303
v -0.022987 0.115393 0.248137
v 0.000000 0.117658 0.248138
v -0.045091 0.108688 0.248135
v -0.051709 0.124719 0.089301
v -0.065463 0.097800 0.248131
v -0.075069 0.112232 0.089296
v -0.083318 0.083146 0.248126
v -0.095545 0.095428 0.089290
v -0.097972 0.065290 0.248120
v -0.112349 0.074952 0.089283
v -0.108860 0.044919 0.248113
v -0.124836 0.051592 0.089275
v -0.115565 0.022815 0.248105
v -0.132525 0.026244 0.089267
v -0.117830 -0.000172 0.248097
v -0.135121 -0.000117 0.089257
v -0.115565 -0.023159 0.248089
v -0.132525 -0.026478 0.089248
v -0.108860 -0.045263 0.248081
v -0.124836 -0.051826 0.089240
v -0.097972 -0.065635 0.248074
v -0.112349 -0.075186 0.089232
v -0.083318 -0.083490 0.248068
v -0.095545 -0.095662 0.089224
v -0.065463 -0.098144 0.248063
v -0.075069 -0.112466 0.089219
v -0.045091 -0.109032 0.248059
v -0.051709 -0.124953 0.089214
v -0.022987 -0.115737 0.248057
v -0.026361 -0.132642 0.089212
v 0.000000 -0.118001 0.248056
v 0.000000 -0.135239 0.089211
v 0.022987 -0.115737 0.248057
v 0.026361 -0.132642 0.089212
v 0.045091 -0.109032 0.248059
v 0.051709 -0.124953 0.089214
v 0.065463 -0.098144 0.248063
v 0.075070 -0.112466 0.089219
v 0.083318 -0.083490 0.248068
v 0.095545 -0.095662 0.089224
v 0.097972 -0.065635 0.248074
v 0.112349 -0.075186 0.089232
v 0.108860 -0.045263 0.248081
v 0.124836 -0.051826 0.089240
v 0.115565 -0.023159 0.248089
v 0.132525 -0.026478 0.089248
v 0.117829 -0.000172 0.248097
v 0.135121 -0.000117 0.089257
v 0.115565 0.022816 0.248105
v 0.132525 0.026244 0.089267
v 0.108860 0.044920 0.248113
v 0.124836 0.051592 0.089275
v 0.097972 0.065291 0.248120
v 0.112349 0.074953 0.089283
v 0.083318 0.083146 0.248126
v 0.095545 0.095428 0.089290
v 0.065462 0.097800 0.248131
v 0.075069 0.112232 0.089296
v 0.045091 0.108688 0.248135
v 0.051709 0.124719 0.089301
v 0.022987 0.115393 0.248137
v 0.026361 0.132408 0.089303
v 0.133670 0.026472 0.087528
v 0.136289 -0.000116 0.087519
v 0.113320 0.075602 0.087545
v 0.125914 0.052039 0.087537
v 0.075718 0.113204 0.087558
v 0.096371 0.096254 0.087553
v 0.052155 0.125798 0.087563
v 0.133670 -0.026705 0.087510
v 0.125914 -0.052272 0.087501
v 0.113320 -0.075834 0.087493
v 0.096371 -0.096487 0.087486
v 0.075718 -0.113436 0.087480
v 0.052155 -0.126031 0.087476
v 0.026589 -0.133786 0.087473
v 0.000000 -0.136405 0.087472
v -0.026589 -0.133786 0.087473
v -0.052155 -0.126031 0.087476
v -0.075718 -0.113436 0.087480
v -0.096371 -0.096487 0.087486
v -0.113320 -0.075835 0.087493
v -0.125914 -0.052272 0.087501
v -0.133670 -0.026705 0.087510
v -0.136289 -0.000117 0.087519
v -0.133670 0.026472 0.087528
v -0.125914 0.052039 0.087537
v -0.113320 0.075601 0.087545
v -0.096371 0.096254 0.087553
v -0.075718 0.113204 0.087558
v -0.052155 0.125798 0.087563
v -0.026589 0.133553 0.087566
v -0.116710 0.023043 0.249386
v -0.109939 0.045366 0.249394
v -0.118997 -0.000172 0.249378
v -0.116710 -0.023388 0.249370
v -0.109939 -0.045710 0.249362
v -0.098942 -0.066283 0.249355
v -0.084143 -0.084316 0.249349
v -0.066111 -0.099115 0.249344
v -0.045538 -0.110111 0.249340
v -0.098942 0.065939 0.249401
v -0.084143 0.083971 0.249407
v -0.066111 0.098770 0.249412
v -0.045538 0.109766 0.249416
v -0.023215 0.116538 0.249418
v 0.000000 0.118824 0.249419
v 0.023215 0.116538 0.249418
v 0.045538 0.109766 0.249416
v 0.066111 0.098770 0.249412
v 0.084143 0.083971 0.249407
v 0.098942 0.065939 0.249401
v 0.109939 0.045366 0.249394
v 0.116710 0.023043 0.249386
v 0.118997 -0.000172 0.249378
v 0.116710 -0.023387 0.249370
v 0.109939 -0.045710 0.249362
v 0.098942 -0.066283 0.249355
v 0.084143 -0.084316 0.249349
v 0.066111 -0.099115 0.249344
v 0.045538 -0.110111 0.249340
v 0.023215 -0.116883 0.249338
v 0.000000 -0.119169 0.249337
v -0.023215 -0.116883 0.249338
v 0.000000 -0.000134 0.136785
v 0.004367 -0.013581 0.152485
v -0.011434 -0.008446 0.152487
v -0.011434 0.008169 0.152492
v 0.014134 -0.000139 0.152490
v 0.004367 0.013303 0.152494
v -0.014134 -0.000148 0.177901
v -0.004367 -0.013590 0.177896
v 0.011434 -0.008455 0.177898
v 0.011434 0.008160 0.177903
v -0.004367 0.013294 0.177905
v 0.000000 -0.000153 0.193605
v -0.015032 0.001988 0.146647
v -0.119978 0.001360 0.225075
v -0.119978 0.001358 0.229243
v -0.015032 0.001987 0.151085
v -0.015032 -0.002262 0.146645
v -0.119978 -0.001688 0.225074
v -0.119978 -0.001689 0.229242
v -0.015032 -0.002264 0.151083
v -0.002125 -0.015169 0.146641
v -0.001524 -0.120142 0.225034
v -0.001524 -0.120143 0.229201
v -0.002125 -0.015170 0.151079
v 0.002125 -0.015169 0.146641
v 0.001524 -0.120142 0.225034
v 0.002125 -0.015170 0.151079
v 0.001524 -0.120143 0.229201
v 0.015032 0.001988 0.146647
v 0.119977 0.001360 0.225075
v 0.119977 -0.001688 0.225074
v 0.015032 -0.002262 0.146645
v 0.119977 -0.001689 0.229242
v 0.015032 -0.002264 0.151083
v 0.119977 0.001358 0.229243
v 0.015032 0.001987 0.151085
v 0.001524 0.119814 0.225116
v -0.001524 0.119814 0.225116
v -0.001524 0.119812 0.229284
v 0.001524 0.119812 0.229284
v 0.002125 0.014895 0.146651
v 0.002125 0.014894 0.151089
v -0.002125 0.014895 0.146651
v -0.002125 0.014894 0.151089
v -0.011159 -0.006572 0.124474
v -0.011159 -0.006573 0.126696
v -0.012885 -0.000130 0.126698
v -0.012885 -0.000129 0.124476
v -0.006443 -0.011288 0.124473
v -0.006443 -0.011289 0.126694
v 0.000000 -0.013015 0.124472
v 0.000000 -0.013016 0.126693
v -0.011159 0.006312 0.126700
v -0.011159 0.006313 0.124479
v -0.006443 0.011029 0.126702
v -0.006443 0.011029 0.124480
v 0.000000 0.012756 0.124481
v 0.000000 0.012755 0.126702
v 0.006443 0.011029 0.124480
v 0.006443 0.011029 0.126702
v 0.011159 0.006313 0.124479
v 0.011159 0.006312 0.126700
v 0.012885 -0.000129 0.124476
v 0.012885 -0.000130 0.126698
v 0.011159 -0.006572 0.124474
v 0.011159 -0.006573 0.126696
v 0.006443 -0.011288 0.124473
v 0.006443 -0.011289 0.126694
v 0.007543 -0.004485 0.127468
v 0.008710 -0.000131 0.127469
v 0.007543 0.004224 0.127471
v 0.000000 -0.008841 0.127466
v -0.004355 -0.007674 0.127467
v 0.004355 -0.007674 0.127467
v -0.007543 -0.004485 0.127468
v -0.008710 -0.000131 0.127469
v -0.007543 0.004224 0.127471
v -0.004355 0.007412 0.127472
v 0.000000 0.008579 0.127472
v 0.004355 0.007412 0.127472
v -0.008857 -0.000131 0.128202
v -0.007670 -0.004559 0.128200
v -0.012907 -0.000138 0.148400
v -0.011178 0.006316 0.148403
v -0.011469 0.006483 0.150079
v -0.006622 0.011331 0.150081
v -0.006454 0.011040 0.148404
v 0.000000 0.013105 0.150081
v 0.000000 0.012769 0.148405
v 0.006622 0.011331 0.150081
v 0.006454 0.011040 0.148404
v 0.011469 0.006483 0.150079
v 0.011178 0.006316 0.148403
v -0.013243 -0.000138 0.150077
v -0.011178 -0.006591 0.148398
v -0.011469 -0.006760 0.150074
v -0.006454 -0.011316 0.148396
v -0.006622 -0.011607 0.150073
v 0.000000 -0.013045 0.148396
v 0.000000 -0.013381 0.150072
v 0.006454 -0.011316 0.148396
v 0.006622 -0.011607 0.150073
v 0.011178 -0.006591 0.148398
v 0.011469 -0.006760 0.150074
v 0.012907 -0.000138 0.148400
v 0.013243 -0.000138 0.150077
v 0.020272 -0.035252 0.155168
v 0.035112 -0.020412 0.155173
v -0.035112 -0.020412 0.155173
v -0.020272 -0.035252 0.155168
v 0.040544 -0.000140 0.155180
v 0.000000 -0.040684 0.155166
v 0.035112 0.020132 0.155187
v 0.020272 0.034972 0.155192
v 0.000000 0.040404 0.155194
v -0.020272 0.034972 0.155192
v -0.034387 -0.019994 0.156428
v -0.039707 -0.000141 0.156435
v -0.040544 -0.000140 0.155180
v -0.035112 0.020132 0.155187
v -0.019854 0.034247 0.156447
v -0.034387 0.019713 0.156442
v 0.034387 0.019713 0.156442
v 0.039707 -0.000141 0.156435
v 0.034387 -0.019994 0.156428
v 0.019853 -0.034528 0.156423
v 0.000000 -0.039848 0.156421
v -0.019854 -0.034528 0.156423
v 0.000000 -0.013667 0.153001
v 0.006764 -0.011855 0.153002
v 0.011715 -0.006903 0.153004
v -0.011715 -0.006903 0.153004
v -0.013528 -0.000139 0.153006
v -0.006764 -0.011855 0.153002
v -0.011715 0.006624 0.153008
v -0.010772 0.004281 0.152195
v -0.009214 0.006980 0.152196
v -0.007119 0.009075 0.152197
v -0.007119 0.009076 0.148913
v -0.009214 0.006981 0.148912
v -0.006764 0.011576 0.153010
v -0.004420 0.010633 0.152197
v -0.011539 0.001419 0.152194
v -0.010772 0.004282 0.148911
v -0.011539 0.001421 0.148910
v -0.011539 -0.001698 0.152193
v -0.008908 0.005005 0.148305
v -0.001559 0.011400 0.152198
v -0.001559 0.011401 0.148913
v -0.004420 0.010634 0.148913
v -0.005143 0.008770 0.148306
v -0.008908 -0.005281 0.148301
v -0.010286 -0.000138 0.148303
v -0.005143 -0.009046 0.148300
v 0.000000 -0.010424 0.148299
v 0.000000 0.010148 0.148306
v 0.005143 0.008770 0.148306
v 0.005143 -0.009046 0.148300
v 0.008908 0.005005 0.148305
v 0.008908 -0.005281 0.148301
v 0.010286 -0.000138 0.148303
v 0.001559 0.011401 0.148913
v -0.010772 -0.004558 0.148908
v -0.009214 -0.007257 0.148907
v -0.011539 -0.001696 0.148909
v -0.010772 -0.004559 0.152192
v -0.009214 -0.007258 0.152191
v -0.007119 -0.009353 0.152190
v -0.007119 -0.009352 0.148906
v -0.004420 -0.010911 0.152190
v -0.001559 -0.011678 0.152190
v -0.004420 -0.010910 0.148906
v -0.001559 -0.011677 0.148905
v 0.001559 -0.011678 0.152190
v 0.004420 -0.010911 0.152190
v 0.001559 -0.011677 0.148905
v 0.004420 -0.010910 0.148906
v 0.007119 -0.009353 0.152190
v 0.009214 -0.007258 0.152191
v 0.007119 -0.009352 0.148906
v 0.009214 -0.007257 0.148907
v 0.010772 -0.004559 0.152192
v 0.013528 -0.000139 0.153006
v 0.011715 0.006624 0.153008
v 0.019853 0.034247 0.156447
v 0.000000 0.039566 0.156449
v 0.000000 0.013388 0.153011
v 0.006764 0.011576 0.153010
v 0.011539 -0.001698 0.152193
v 0.010772 -0.004558 0.148908
v 0.011539 -0.001696 0.148909
v 0.009214 0.006980 0.152196
v 0.010772 0.004281 0.152195
v 0.011539 0.001419 0.152194
v 0.011539 0.001421 0.148910
v 0.010772 0.004282 0.148911
v 0.007119 0.009075 0.152197
v 0.009214 0.006981 0.148912
v 0.007119 0.009076 0.148913
v 0.004420 0.010633 0.152197
v 0.004420 0.010634 0.148913
v 0.001559 0.011400 0.152198
v 0.000000 -0.021994 -0.203979
v 0.010989 -0.019049 -0.203977
v 0.006443 -0.011178 -0.196174
v 0.000000 -0.012904 -0.196175
v -0.006443 -0.011178 -0.196174
v -0.010989 -0.019049 -0.203977
v -0.011159 -0.006461 -0.196173
v -0.019033 -0.011005 -0.203975
v 0.011159 -0.006461 -0.196173
v 0.019033 -0.011005 -0.203975
v 0.012885 -0.000019 -0.196171
v 0.021978 -0.000016 -0.203971
v 0.011159 0.006424 -0.196168
v 0.019033 0.010973 -0.203967
v 0.006443 0.011140 -0.196167
v 0.010989 0.019017 -0.203964
v 0.000000 0.012867 -0.196166
v 0.000000 0.021961 -0.203963
v -0.006443 0.011140 -0.196167
v -0.010989 0.019017 -0.203964
v -0.019033 0.010973 -0.203967
v -0.011159 0.006424 -0.196168
v -0.021978 -0.000016 -0.203971
v -0.012885 -0.000019 -0.196171
v -0.021583 -0.012476 -0.205704
v -0.024922 -0.000015 -0.205700
v 0.021583 0.012445 -0.205695
v 0.012461 0.021568 -0.205692
v -0.012461 -0.021599 -0.205707
v 0.000000 0.024906 -0.205691
v -0.021583 0.012445 -0.205695
v -0.012461 0.021568 -0.205692
v 0.000000 -0.024937 -0.205708
v 0.012461 -0.021599 -0.205707
v 0.021583 -0.012476 -0.205704
v 0.024922 -0.000015 -0.205700
v 0.000000 -0.027880 -0.211781
v 0.013933 -0.024146 -0.211780
v 0.000000 0.027853 -0.211762
v -0.013933 0.024120 -0.211763
v 0.024133 -0.013947 -0.211776
v 0.027866 -0.000013 -0.211771
v 0.024133 0.013920 -0.211766
v 0.013933 0.024120 -0.211763
v -0.013933 -0.024146 -0.211780
v -0.024133 -0.013947 -0.211776
v -0.027866 -0.000013 -0.211771
v -0.024133 0.013920 -0.211766
v 0.007670 0.004297 0.128203
v 0.008857 -0.000131 0.128202
v 0.007670 -0.004559 0.128200
v 0.004428 -0.007801 0.128199
v 0.004428 0.007539 0.128205
v 0.000000 0.008726 0.128205
v -0.004428 0.007539 0.128205
v -0.007670 0.004297 0.128203
v 0.000000 -0.008987 0.128199
v -0.004428 -0.007801 0.128199
v -0.055100 -0.056527 -0.248738
v 0.055100 -0.056527 -0.248738
v 0.055100 -0.056539 -0.213530
v -0.055100 -0.056539 -0.213530
v 0.056526 -0.055113 -0.213530
v 0.056526 -0.055101 -0.248737
v 0.056526 0.055088 -0.213492
v 0.056526 0.055100 -0.248699
v 0.055100 0.056513 -0.213491
v 0.055100 0.056525 -0.248699
v -0.055100 0.056513 -0.213491
v -0.055100 0.056525 -0.248699
v -0.056526 0.055088 -0.213492
v -0.056526 0.055100 -0.248699
v -0.056526 -0.055113 -0.213530
v -0.056526 -0.055101 -0.248737
v -0.055100 0.055087 -0.210650
v -0.055100 -0.055114 -0.210688
v 0.055100 -0.055114 -0.210688
v 0.055100 0.055087 -0.210650
v 0.055100 -0.055100 -0.251580
v 0.055100 0.055101 -0.251541
v -0.055100 0.055101 -0.251541
v -0.055100 -0.055100 -0.251580
vn -0.0000 -0.0003 1.0000
vn 0.7428 0.5395 0.3965
vn -0.2837 0.8731 0.3966
vn 0.7428 -0.5398 0.3961
vn -0.9181 -0.0002 0.3963
vn -0.2837 -0.8733 0.3960
vn 0.9181 0.0001 -0.3963
vn 0.2837 0.8733 -0.3960
vn -0.7428 0.5398 -0.3961
vn -0.7428 -0.5395 -0.3965
vn 0.2837 -0.8731 -0.3966
vn -0.0000 0.0003 -1.0000
s 1
usemtl M_Fp224_Cylinder_164_1
f 193//1 195//2 194//3
f 195//2 193//1 196//4
f 193//1 194//3 197//5
f 193//1 197//5 198//6
f 193//1 198//6 196//4
f 195//2 196//4 199//7
f 194//3 195//2 200//8
f 195//2 199//7 200//8
f 197//5 194//3 201//9
f 194//3 200//8 201//9
f 198//6 197//5 202//10
f 197//5 201//9 202//10
f 196//4 198//6 203//11
f 198//6 202//10 203//11
f 196//4 203//11 199//7
f 200//8 199//7 204//12
f 201//9 200//8 204//12
f 202//10 201//9 204//12
f 203//11 202//10 204//12
f 199//7 203//11 204//12
