# Blender 4.1.0
# www.blender.org
mtllib AlarmClockHandSecond_8_AlarmClockHandSecond_8_4.mtl
o AlarmClockHandSecond_8
v 0.010640 -0.029461 -0.005680
v 0.009769 -0.029461 -0.003941
v -0.055222 -0.029461 -0.038677
v -0.056093 -0.029461 -0.036938
v -0.055222 -0.028980 -0.038677
v -0.056093 -0.028980 -0.036938
v 0.010640 -0.028980 -0.005680
v 0.009769 -0.028980 -0.003941
vn -0.0000 -1.0000 -0.0000
vn -0.8941 -0.0000 -0.4479
vn -0.0000 1.0000 -0.0000
vn 0.8941 -0.0000 0.4479
vn -0.4479 -0.0000 0.8941
vn 0.4479 -0.0000 -0.8941
vt 0.375000 0.000000
vt 0.625000 0.000000
vt 0.625000 0.250000
vt 0.375000 0.250000
vt 0.625000 0.500000
vt 0.375000 0.500000
vt 0.625000 0.750000
vt 0.375000 0.750000
vt 0.625000 1.000000
vt 0.375000 1.000000
vt 0.875000 0.000000
vt 0.875000 0.250000
vt 0.125000 0.000000
vt 0.125000 0.250000
s 1
usemtl M_AlarmClockHandSecond_8_0
f 1/1/1 2/2/1 4/3/1 3/4/1
f 3/4/2 4/3/2 6/5/2 5/6/2
f 5/6/3 6/5/3 8/7/3 7/8/3
f 7/8/4 8/7/4 2/9/4 1/10/4
f 2/2/5 8/11/5 6/12/5 4/3/5
f 7/13/6 1/1/6 3/4/6 5/14/6
