# Blender 4.1.1
# www.blender.org
mtllib AlarmClock_14_AlarmClock_14_0_GeomSubset_4.mtl
o AlarmClock_14_AlarmClock_14_0_GeomSubset_4
v 0.000500 -0.000501 -0.359104
v -0.000500 -0.000501 -0.359104
v 0.000500 0.000500 -0.359104
v -0.000500 0.000500 -0.359104
v 0.000500 -0.000501 -0.359104
v -0.000500 -0.000501 -0.359104
v 0.000500 0.000500 -0.359104
v -0.000500 0.000500 -0.359104
v 0.000500 -0.000501 -0.359104
v -0.000500 -0.000501 -0.359104
v 0.000500 0.000500 -0.359104
v -0.000500 0.000500 -0.359104
v 0.000500 -0.000501 -0.359104
v -0.000500 -0.000501 -0.359104
v 0.000500 0.000500 -0.359104
v -0.000500 0.000500 -0.359104
v 0.000500 -0.000501 -0.359104
v -0.000500 -0.000501 -0.359104
v 0.000500 0.000500 -0.359104
v -0.000500 0.000500 -0.359104
v 0.000023 0.026539 0.067456
v -0.015380 0.026539 0.065429
v -0.029734 0.026539 0.059486
v -0.042060 0.026539 0.050032
v -0.051518 0.026539 0.037712
v -0.057464 0.026539 0.023364
v -0.059492 0.026539 0.007967
v -0.057464 0.026539 -0.007430
v -0.051518 0.026539 -0.021778
v -0.042060 0.026539 -0.034098
v -0.029734 0.026539 -0.043552
v -0.015380 0.026539 -0.049495
v 0.000023 0.026539 -0.051523
v 0.000023 0.026539 0.007967
v -0.025380 0.026539 -0.080545
v 0.000023 0.026539 -0.080545
v -0.025380 -0.026535 -0.080545
v 0.000023 -0.026535 -0.080545
v -0.025380 0.026539 -0.086612
v -0.025380 -0.026535 -0.086612
v 0.000023 0.026539 -0.086612
v 0.000023 -0.026535 -0.086612
v 0.015420 0.026539 0.065429
v 0.029768 0.026539 0.059486
v 0.042088 0.026539 0.050032
v 0.051543 0.026539 0.037712
v 0.057486 0.026539 0.023364
v 0.059513 0.026539 0.007967
v 0.057486 0.026539 -0.007430
v 0.051543 0.026539 -0.021778
v 0.042088 0.026539 -0.034098
v 0.029768 0.026539 -0.043552
v 0.015420 0.026539 -0.049495
v 0.025416 0.026539 -0.080545
v 0.025416 -0.026535 -0.080545
v 0.025416 0.026539 -0.086612
v 0.025416 -0.026535 -0.086612
v -0.029734 -0.016541 0.059486
v 0.000023 -0.016541 0.007967
v -0.015380 -0.016541 0.065429
v 0.000023 -0.016541 0.067456
v -0.051518 -0.016541 0.037712
v -0.042060 -0.016541 0.050032
v -0.059492 -0.016541 0.007967
v -0.057464 -0.016541 0.023364
v -0.051518 -0.016541 -0.021778
v -0.057464 -0.016541 -0.007430
v -0.029734 -0.016541 -0.043552
v -0.042060 -0.016541 -0.034098
v 0.000023 -0.016541 -0.051523
v -0.015380 -0.016541 -0.049495
v 0.015420 -0.016541 0.065429
v 0.029768 -0.016541 0.059486
v 0.042088 -0.016541 0.050032
v 0.051543 -0.016541 0.037712
v 0.057486 -0.016541 0.023364
v 0.059513 -0.016541 0.007967
v 0.057486 -0.016541 -0.007430
v 0.051543 -0.016541 -0.021778
v 0.042088 -0.016541 -0.034098
v 0.029768 -0.016541 -0.043552
v 0.015420 -0.016541 -0.049495
v -0.106440 0.022078 0.043969
v -0.106440 -0.022075 0.043969
v -0.100870 -0.022075 0.029103
v -0.100870 0.022078 0.029103
v -0.091125 -0.022075 0.003201
v -0.091125 0.022078 0.003201
v -0.081381 -0.022075 -0.022700
v -0.081381 0.022078 -0.022700
v -0.072301 -0.022075 -0.046837
v -0.072301 0.022078 -0.046837
v -0.064503 -0.022075 -0.067563
v -0.064503 0.022078 -0.067563
v -0.061190 -0.022075 -0.076370
v -0.061190 0.022078 -0.076370
v 0.106440 0.022078 0.043969
v 0.100873 0.022078 0.029103
v 0.100873 -0.022075 0.029103
v 0.106440 -0.022075 0.043969
v 0.091133 0.022078 0.003201
v 0.091133 -0.022075 0.003201
v 0.081392 0.022078 -0.022700
v 0.081392 -0.022075 -0.022700
v 0.072316 0.022078 -0.046837
v 0.072316 -0.022075 -0.046837
v 0.064522 0.022078 -0.067563
v 0.064522 -0.022075 -0.067563
v 0.061210 0.022078 -0.076369
v 0.061210 -0.022075 -0.076369
v -0.110013 0.018112 0.038397
v -0.110013 -0.018108 0.038397
v -0.105833 -0.018108 0.027241
v -0.105832 0.018112 0.027238
v -0.096087 -0.018108 0.001335
v -0.096087 0.018112 0.001335
v -0.086343 -0.018108 -0.024567
v -0.086343 0.018112 -0.024567
v -0.077262 -0.018108 -0.048703
v -0.077262 0.018112 -0.048703
v -0.069465 -0.018108 -0.069430
v -0.069465 0.018112 -0.069430
v -0.067548 -0.018108 -0.074525
v -0.067548 0.018112 -0.074525
v 0.110014 0.018112 0.038397
v 0.105836 0.018112 0.027242
v 0.105835 -0.018108 0.027239
v 0.110014 -0.018108 0.038397
v 0.096094 0.018112 0.001335
v 0.096094 -0.018108 0.001336
v 0.086354 0.018112 -0.024566
v 0.086354 -0.018108 -0.024566
v 0.077278 0.018112 -0.048703
v 0.077278 -0.018108 -0.048703
v 0.069484 0.018112 -0.069429
v 0.069484 -0.018108 -0.069429
v 0.067568 0.018112 -0.074524
v 0.067568 -0.018108 -0.074524
v 0.000023 -0.026535 0.069472
v 0.000023 -0.025950 0.068047
v 0.000023 -0.024536 0.067456
v -0.015902 -0.026535 0.067376
v -0.015533 -0.025950 0.066000
v -0.015380 -0.024536 0.065429
v -0.030742 -0.026535 0.061232
v -0.030029 -0.025950 0.059998
v -0.029734 -0.024536 0.059486
v -0.043485 -0.026535 0.051458
v -0.042478 -0.025950 0.050450
v -0.042060 -0.024536 0.050032
v -0.053264 -0.026535 0.038720
v -0.052030 -0.025950 0.038007
v -0.051518 -0.024536 0.037712
v -0.059492 -0.024536 0.007967
v -0.060082 -0.025950 0.007967
v -0.061508 -0.026535 0.007967
v -0.059411 -0.026535 -0.007952
v -0.058034 -0.025950 -0.007583
v -0.057464 -0.024536 -0.007430
v -0.053264 -0.026535 -0.022786
v -0.052030 -0.025950 -0.022073
v -0.051518 -0.024536 -0.021778
v -0.043485 -0.026535 -0.035524
v -0.042478 -0.025950 -0.034516
v -0.042060 -0.024536 -0.034098
v -0.030742 -0.026535 -0.045298
v -0.030029 -0.025950 -0.044064
v -0.029734 -0.024536 -0.043552
v -0.015902 -0.026535 -0.051443
v -0.015533 -0.025950 -0.050066
v -0.015380 -0.024536 -0.049495
v 0.000023 -0.026535 -0.053538
v 0.000023 -0.025950 -0.052113
v 0.000023 -0.024536 -0.051523
v 0.015942 -0.026535 0.067376
v 0.015573 -0.025950 0.066000
v 0.015420 -0.024536 0.065429
v 0.030776 -0.026535 0.061232
v 0.030063 -0.025950 0.059998
v 0.029768 -0.024536 0.059486
v 0.043514 -0.026535 0.051458
v 0.042506 -0.025950 0.050450
v 0.042088 -0.024536 0.050032
v 0.051543 -0.024536 0.037712
v 0.052054 -0.025950 0.038007
v 0.053288 -0.026535 0.038720
v 0.061528 -0.026535 0.007967
v 0.060103 -0.025950 0.007967
v 0.059513 -0.024536 0.007967
v 0.059433 -0.026535 -0.007952
v 0.058056 -0.025950 -0.007583
v 0.057486 -0.024536 -0.007430
v 0.053288 -0.026535 -0.022786
v 0.052054 -0.025950 -0.022073
v 0.051543 -0.024536 -0.021778
v 0.043514 -0.026535 -0.035524
v 0.042506 -0.025950 -0.034516
v 0.042088 -0.024536 -0.034098
v 0.030776 -0.026535 -0.045298
v 0.030063 -0.025950 -0.044064
v 0.029768 -0.024536 -0.043552
v 0.015942 -0.026535 -0.051443
v 0.015573 -0.025950 -0.050066
v 0.015420 -0.024536 -0.049495
v -0.057464 -0.024536 0.023364
v -0.058034 -0.025950 0.023517
v -0.059411 -0.026535 0.023886
v 0.057486 -0.024536 0.023364
v 0.058056 -0.025950 0.023517
v 0.059433 -0.026535 0.023886
v 0.000023 0.026539 0.092214
v -0.030860 0.026539 0.089042
v 0.000023 -0.026535 0.092214
v -0.030860 -0.026535 0.089042
v -0.059600 0.026539 0.079755
v -0.059600 -0.026535 0.079755
v -0.084309 0.026539 0.064963
v -0.084309 -0.026535 0.064963
v -0.105199 0.026539 0.047413
v -0.107261 0.024085 0.046159
v -0.107261 -0.024082 0.046159
v -0.105199 -0.026535 0.047413
v -0.098312 0.026539 0.028765
v -0.100870 0.023958 0.029103
v -0.100870 -0.023958 0.029103
v -0.098313 -0.026535 0.028781
v -0.088693 0.026539 0.003568
v -0.091125 0.024079 0.003201
v -0.091125 -0.024077 0.003201
v -0.088700 -0.026535 0.003592
v -0.079309 0.026539 -0.021377
v -0.081381 0.024079 -0.022700
v -0.081381 -0.024070 -0.022700
v -0.079334 -0.026535 -0.021326
v -0.070643 0.026539 -0.044838
v -0.072301 0.023941 -0.046837
v -0.072301 -0.023922 -0.046837
v -0.070680 -0.026535 -0.044789
v -0.063017 0.026539 -0.065347
v -0.064503 0.023870 -0.067563
v -0.064503 -0.023859 -0.067563
v -0.063036 -0.026535 -0.065326
v -0.057187 0.026539 -0.080102
v -0.059619 0.024106 -0.080545
v -0.059619 -0.024102 -0.080545
v -0.057187 -0.026535 -0.080102
v -0.057187 0.026539 -0.086612
v -0.059619 0.024106 -0.086612
v -0.057187 -0.026535 -0.086612
v -0.059619 -0.024102 -0.086612
v 0.030893 0.026539 0.089042
v 0.030893 -0.026535 0.089042
v 0.059620 0.026539 0.079755
v 0.059620 -0.026535 0.079755
v 0.084318 0.026539 0.064964
v 0.084318 -0.026535 0.064964
v 0.105200 0.026539 0.047413
v 0.107255 0.024066 0.046143
v 0.107255 -0.024061 0.046143
v 0.105200 -0.026535 0.047413
v 0.098316 0.026539 0.028765
v 0.100873 0.023960 0.029103
v 0.100873 -0.023959 0.029103
v 0.098317 -0.026535 0.028781
v 0.088701 0.026539 0.003568
v 0.091133 0.024079 0.003201
v 0.091133 -0.024077 0.003201
v 0.088707 -0.026535 0.003592
v 0.079320 0.026539 -0.021377
v 0.081392 0.024079 -0.022700
v 0.081392 -0.024070 -0.022700
v 0.079346 -0.026535 -0.021326
v 0.070658 0.026539 -0.044837
v 0.072316 0.023941 -0.046837
v 0.072316 -0.023922 -0.046837
v 0.070695 -0.026535 -0.044788
v 0.063036 0.026539 -0.065347
v 0.064522 0.023870 -0.067563
v 0.064522 -0.023859 -0.067563
v 0.063054 -0.026535 -0.065325
v 0.057208 0.026539 -0.080102
v 0.059640 0.024106 -0.080545
v 0.059640 -0.024102 -0.080545
v 0.057208 -0.026535 -0.080102
v 0.057208 0.026539 -0.086612
v 0.059640 0.024106 -0.086612
v 0.057208 -0.026535 -0.086612
v 0.059640 -0.024102 -0.086612
v -0.025380 0.028922 -0.086612
v -0.025380 0.032299 -0.091202
v 0.000023 0.032297 -0.091202
v 0.000023 0.028922 -0.086612
v 0.000023 -0.028917 -0.086612
v 0.000023 -0.032295 -0.091202
v -0.025380 -0.032295 -0.091202
v -0.025380 -0.028917 -0.086612
v 0.025416 0.028922 -0.086612
v 0.025416 0.032299 -0.091202
v 0.025416 -0.028917 -0.086612
v 0.025416 -0.032291 -0.091202
v -0.061749 0.024930 -0.086612
v -0.057985 0.028658 -0.086612
v -0.065284 0.028365 -0.091202
v -0.061188 0.032298 -0.091202
v -0.079365 0.038479 -0.091202
v -0.075749 0.042129 -0.091202
v -0.057986 -0.028654 -0.086612
v -0.061748 -0.024926 -0.086612
v -0.061184 -0.032295 -0.091202
v -0.065284 -0.028358 -0.091202
v -0.075624 -0.042080 -0.091202
v -0.079365 -0.038511 -0.091202
v -0.083634 0.042086 -0.095157
v -0.083634 -0.042253 -0.095157
v -0.079440 0.046533 -0.095157
v -0.083902 0.042085 -0.104480
v -0.079440 0.046533 -0.104480
v -0.025380 0.046533 -0.095157
v -0.025380 0.042175 -0.091202
v 0.000023 0.046533 -0.095157
v 0.000023 0.042201 -0.091202
v -0.079444 -0.042253 -0.108814
v -0.079435 -0.046207 -0.104480
v -0.025380 -0.046207 -0.104480
v -0.025380 -0.042253 -0.108814
v -0.083634 -0.042253 -0.104480
v -0.079155 0.042085 -0.109104
v -0.079435 -0.046207 -0.095157
v -0.025380 0.042086 -0.108814
v -0.025380 0.046533 -0.104480
v 0.000023 0.042086 -0.108814
v 0.000023 0.046533 -0.104480
v -0.025380 -0.042195 -0.091202
v -0.025381 -0.046207 -0.095157
v 0.000023 -0.042197 -0.091202
v 0.000023 -0.046207 -0.095157
v 0.000023 -0.046207 -0.104480
v 0.000023 -0.042253 -0.108814
v 0.025416 0.046533 -0.095157
v 0.025416 0.042201 -0.091202
v 0.025416 0.042086 -0.108814
v 0.025416 0.046533 -0.104480
v 0.025415 -0.042171 -0.091202
v 0.025416 -0.046207 -0.095157
v 0.025416 -0.046207 -0.104480
v 0.025416 -0.042253 -0.108814
v 0.058008 0.028658 -0.086612
v 0.061769 0.024930 -0.086612
v 0.061204 0.032299 -0.091202
v 0.065303 0.028362 -0.091202
v 0.075638 0.042084 -0.091202
v 0.079376 0.038514 -0.091202
v 0.061770 -0.024926 -0.086612
v 0.058006 -0.028654 -0.086612
v 0.065303 -0.028361 -0.091202
v 0.061207 -0.032294 -0.091202
v 0.079376 -0.038473 -0.091202
v 0.075761 -0.042125 -0.091202
v 0.083646 0.042086 -0.095157
v 0.083304 -0.042253 -0.095157
v 0.079166 0.046532 -0.095157
v 0.079166 0.046532 -0.104480
v 0.083646 0.042086 -0.104480
v 0.079454 -0.046207 -0.104480
v 0.079456 -0.042253 -0.108814
v 0.083646 -0.042253 -0.104480
v 0.079454 -0.046207 -0.095157
v 0.079456 0.042086 -0.108814
v 0.000023 0.024106 0.096903
v 0.000023 0.026539 0.094458
v 0.030893 0.026539 0.091286
v 0.031397 0.024106 0.093679
v -0.031364 0.024106 0.093679
v -0.030860 0.026539 0.091286
v -0.060612 0.024106 0.084228
v -0.059600 0.026539 0.081998
v 0.000023 -0.024102 0.096903
v 0.000023 -0.026535 0.094458
v -0.030860 -0.026535 0.091286
v -0.031364 -0.024102 0.093679
v 0.031397 -0.024102 0.093679
v 0.030893 -0.026535 0.091286
v -0.059600 -0.026535 0.081998
v -0.060612 -0.024102 0.084228
v -0.085728 0.024106 0.069192
v -0.084309 0.026539 0.067207
v -0.084309 -0.026535 0.067207
v -0.085728 -0.024102 0.069192
v -0.106384 0.024085 0.051758
v -0.105199 0.026539 0.049656
v -0.105199 -0.026535 0.049656
v -0.106370 -0.024061 0.051769
v -0.107261 0.024085 0.048403
v -0.107261 -0.024082 0.048403
v 0.059620 0.026539 0.081998
v 0.060632 0.024106 0.084228
v 0.060632 -0.024102 0.084228
v 0.059620 -0.026535 0.081998
v 0.084318 0.026539 0.067207
v 0.085737 0.024106 0.069192
v 0.085737 -0.024102 0.069192
v 0.084318 -0.026535 0.067207
v 0.105200 0.026539 0.049657
v 0.106371 0.024066 0.051770
v 0.106384 -0.024082 0.051758
v 0.105200 -0.026535 0.049657
v 0.107255 0.024066 0.048387
v 0.107255 -0.024061 0.048387
v 0.000023 0.025539 0.092214
v 0.030893 0.025539 0.089042
v 0.030893 0.025539 0.091286
v 0.000023 0.025539 0.094458
v -0.030860 0.025539 0.089042
v -0.030860 0.025539 0.091286
v -0.059600 0.025539 0.079755
v -0.059600 0.025539 0.081998
v 0.000023 -0.025535 0.092214
v -0.030860 -0.025535 0.089042
v -0.030860 -0.025535 0.091286
v 0.000023 -0.025535 0.094458
v 0.030893 -0.025535 0.089042
v 0.030893 -0.025535 0.091286
v -0.059600 -0.025535 0.079755
v -0.059600 -0.025535 0.081998
v -0.084309 0.025539 0.064963
v -0.084309 0.025539 0.067207
v -0.084309 -0.025535 0.064963
v -0.084309 -0.025535 0.067207
v -0.104733 0.025539 0.047413
v -0.104733 0.025539 0.049656
v -0.104733 -0.025535 0.047413
v -0.104733 -0.025535 0.049656
v -0.106261 -0.023719 0.046159
v -0.106261 0.023722 0.046159
v -0.106261 0.023722 0.048403
v -0.106261 -0.023719 0.048403
v 0.059620 0.025539 0.079755
v 0.059620 0.025539 0.081998
v 0.059620 -0.025535 0.079755
v 0.059620 -0.025535 0.081998
v 0.084318 0.025539 0.064964
v 0.084318 0.025539 0.067207
v 0.084318 -0.025535 0.064964
v 0.084318 -0.025535 0.067207
v 0.104730 0.025539 0.047413
v 0.104729 0.025539 0.049657
v 0.104730 -0.025535 0.047413
v 0.104730 -0.025535 0.049657
v 0.106255 0.023704 0.046143
v 0.106255 -0.023701 0.046143
v 0.106255 -0.023699 0.048387
v 0.106255 0.023705 0.048387
v 0.000500 -0.000501 -0.359104
v -0.000500 -0.000501 -0.359104
v 0.000500 0.000500 -0.359104
v -0.000500 0.000500 -0.359104
v 0.000500 -0.000501 -0.359104
v -0.000500 -0.000501 -0.359104
v 0.000500 0.000500 -0.359104
v -0.000500 0.000500 -0.359104
v 0.000500 -0.000501 -0.359104
v -0.000500 -0.000501 -0.359104
v 0.000500 0.000500 -0.359104
v -0.000500 0.000500 -0.359104
v 0.000500 -0.000501 -0.359104
v -0.000500 -0.000501 -0.359104
v 0.000500 0.000500 -0.359104
v -0.000500 0.000500 -0.359104
v 0.000500 -0.000501 -0.359104
v -0.000500 -0.000501 -0.359104
v 0.000500 0.000500 -0.359104
v -0.000500 0.000500 -0.359104
v -0.008875 -0.016212 0.012729
v -0.005124 -0.016212 0.016480
v 0.000000 -0.016212 0.017853
v 0.005124 -0.016212 0.016480
v 0.008875 -0.016212 0.012729
v 0.010248 -0.016212 0.007605
v 0.008875 -0.016212 0.002481
v 0.005124 -0.016212 -0.001270
v 0.000000 -0.016212 -0.002643
v -0.005124 -0.016212 -0.001270
v -0.008875 -0.016212 0.002481
v -0.010248 -0.016212 0.007605
v 0.000000 -0.020741 0.007605
v -0.008875 -0.019845 0.012729
v -0.008095 -0.020477 0.012279
v -0.006213 -0.020741 0.011192
v -0.003587 -0.020741 0.013817
v -0.004674 -0.020479 0.015700
v -0.005124 -0.019845 0.016480
v 0.000000 -0.019845 0.017853
v 0.000000 -0.020477 0.016952
v 0.000000 -0.020741 0.014779
v 0.003587 -0.020741 0.013817
v 0.004674 -0.020479 0.015700
v 0.005124 -0.019845 0.016480
v 0.008875 -0.019845 0.012729
v 0.008095 -0.020477 0.012279
v 0.006213 -0.020741 0.011192
v 0.007174 -0.020741 0.007605
v 0.009347 -0.020479 0.007605
v 0.010248 -0.019845 0.007605
v 0.008875 -0.019845 0.002481
v 0.008095 -0.020479 0.002931
v 0.006213 -0.020741 0.004018
v 0.003587 -0.020741 0.001392
v 0.004674 -0.020477 -0.000490
v 0.005124 -0.019845 -0.001270
v 0.000000 -0.019845 -0.002643
v 0.000000 -0.020479 -0.001743
v 0.000000 -0.020741 0.000431
v -0.003587 -0.020741 0.001392
v -0.004674 -0.020477 -0.000490
v -0.005124 -0.019845 -0.001270
v -0.008875 -0.019845 0.002481
v -0.008095 -0.020479 0.002931
v -0.006213 -0.020741 0.004018
v -0.007174 -0.020741 0.007605
v -0.009347 -0.020479 0.007605
v -0.010248 -0.019845 0.007605
vn -0.0000 -0.0000 -1.0000
vt 0.851459 -8.996269
vt 0.853293 -8.996269
vt 0.853293 -8.994432
vt 0.851459 -8.994432
vt 0.772617 -8.831699
vt 0.782927 -8.831699
vt 0.782927 -8.821383
vt 0.772617 -8.821383
s 1
usemtl M_AlarmClock_14_4
f 17/1/1 18/2/1 20/3/1 19/4/1
f 469/5/1 470/6/1 472/7/1 471/8/1
