# Blender 4.1.1
# www.blender.org
mtllib AlarmClockButton_14_AlarmClockButton_14_1_GeomSubset_0.mtl
o AlarmClockButton_14_AlarmClockButton_14_1_GeomSubset_0
v 0.000500 -0.000501 -0.359104
v -0.000500 -0.000501 -0.359104
v 0.000500 0.000500 -0.359104
v -0.000500 0.000500 -0.359104
v 0.000500 -0.000501 -0.359104
v -0.000500 -0.000501 -0.359104
v 0.000500 0.000500 -0.359104
v -0.000500 0.000500 -0.359104
v 0.000500 -0.000501 -0.359104
v -0.000500 -0.000501 -0.359104
v 0.000500 0.000500 -0.359104
v -0.000500 0.000500 -0.359104
v 0.000500 -0.000501 -0.359104
v -0.000500 -0.000501 -0.359104
v 0.000500 0.000500 -0.359104
v -0.000500 0.000500 -0.359104
v 0.000500 -0.000501 -0.359104
v -0.000500 -0.000501 -0.359104
v 0.000500 0.000500 -0.359104
v -0.000500 0.000500 -0.359104
v 0.047987 -0.011256 0.095658
v 0.045588 -0.013111 0.095658
v 0.045588 -0.011256 0.098206
v -0.045588 -0.011256 0.098206
v -0.045588 -0.013111 0.095658
v -0.047987 -0.011256 0.095658
v 0.047987 0.011254 0.095658
v 0.045588 0.011254 0.098206
v 0.045588 0.013110 0.095658
v -0.045588 0.013110 0.095658
v -0.045588 0.011254 0.098206
v -0.047987 0.011254 0.095658
v 0.045588 -0.013111 0.084321
v 0.047987 -0.011256 0.084321
v -0.047987 -0.011256 0.084321
v -0.045588 -0.013111 0.084321
v 0.047987 0.011254 0.084321
v 0.045588 0.013110 0.084321
v -0.045588 0.013110 0.084321
v -0.047987 0.011254 0.084321
v 0.030392 0.016607 0.084321
v 0.030392 0.016607 0.100078
v 0.030392 0.014257 0.102626
v 0.030392 -0.014258 0.102626
v 0.030392 -0.016608 0.100078
v 0.030392 -0.016608 0.084321
v 0.015196 0.018641 0.084321
v 0.015196 0.018641 0.102509
v 0.015196 0.016005 0.105057
v 0.015196 -0.016005 0.105057
v 0.015196 -0.018642 0.102509
v 0.015196 -0.018642 0.084321
v 0.000000 0.019475 0.084321
v 0.000000 0.019475 0.103834
v 0.000000 0.016719 0.106382
v 0.000000 -0.016719 0.106382
v 0.000000 -0.019475 0.103834
v 0.000000 -0.019475 0.084321
v -0.015196 0.018641 0.084321
v -0.015196 0.018641 0.102509
v -0.015196 0.016005 0.105057
v -0.015196 -0.016005 0.105057
v -0.015196 -0.018642 0.102509
v -0.015196 -0.018642 0.084321
v -0.030392 0.016607 0.084321
v -0.030392 0.016607 0.100078
v -0.030392 0.014257 0.102626
v -0.030392 -0.014258 0.102626
v -0.030392 -0.016608 0.100078
v -0.030392 -0.016608 0.084321
vn -0.0000 -0.0000 -1.0000
vt -20.436859 -6.067932
vt -19.441450 -6.067932
vt -19.441450 -5.071917
vt -20.436859 -5.071917
s 1
usemtl M_AlarmClockButton_14_0
f 1/1/1 2/2/1 4/3/1 3/4/1
