# Blender 4.1.0
# www.blender.org
mtllib Fp203_Cube_052DiningTable_203_0.mtl
o DiningTable_203
v -0.730042 -0.498088 0.307860
v 0.730042 -0.498088 0.307860
v 0.730042 -0.498088 0.291482
v -0.730042 -0.498088 0.291482
v 0.730042 0.490081 0.307860
v -0.730042 0.490081 0.307860
v -0.730042 0.490080 0.291482
v 0.730042 0.490081 0.291482
v 0.734839 -0.492304 0.307860
v 0.734839 0.484296 0.307860
v 0.734839 0.484296 0.291482
v 0.734839 -0.492304 0.291482
v 0.730042 -0.492304 0.286564
v 0.730042 0.484296 0.286564
v -0.730042 0.484296 0.286564
v -0.730042 -0.492304 0.286564
v 0.730042 -0.492304 0.312777
v -0.730042 -0.492304 0.312777
v -0.730042 0.484296 0.312777
v 0.730042 0.484296 0.312777
v -0.734839 -0.492304 0.291482
v -0.734839 0.484296 0.291482
v -0.734839 0.484296 0.307860
v -0.734839 -0.492304 0.307860
v -0.689355 -0.370166 0.282576
v -0.677655 -0.386627 -0.431930
v -0.645053 -0.386627 -0.431930
v -0.633356 -0.370166 0.282576
v 0.633356 -0.370166 0.282576
v 0.645053 -0.386627 -0.431930
v 0.677655 -0.386627 -0.431930
v 0.689355 -0.370166 0.282576
v 0.628641 0.367843 0.282576
v 0.642309 0.381929 -0.431930
v 0.642309 0.421184 -0.431930
v 0.628641 0.435270 0.282576
v -0.694067 0.367843 0.282576
v -0.680399 0.381929 -0.431930
v -0.680399 0.421184 -0.431930
v -0.694067 0.435270 0.282576
v 0.677655 0.421184 -0.434743
v 0.645053 0.421184 -0.434743
v 0.645053 0.381929 -0.434743
v 0.677655 0.381929 -0.434743
v 0.628641 -0.443277 0.282576
v 0.642309 -0.429191 -0.431930
v 0.642309 -0.389936 -0.431930
v 0.628641 -0.375850 0.282576
v 0.694067 -0.375850 0.282576
v 0.680398 -0.389936 -0.431930
v 0.680398 -0.429191 -0.431930
v 0.694067 -0.443277 0.282576
v 0.677655 -0.389936 -0.434743
v 0.645053 -0.389936 -0.434743
v 0.645053 -0.429191 -0.434743
v 0.677655 -0.429191 -0.434743
v -0.694067 -0.443277 0.282576
v -0.680399 -0.429192 -0.431930
v -0.680399 -0.389936 -0.431930
v -0.694067 -0.375850 0.282576
v 0.689355 -0.448961 0.282576
v 0.677655 -0.432501 -0.431930
v 0.645053 -0.432501 -0.431930
v 0.633356 -0.448960 0.282576
v -0.689355 0.440954 0.282576
v -0.677655 0.424493 -0.431930
v -0.645053 0.424493 -0.431930
v -0.633356 0.440954 0.282576
v -0.628641 0.435270 0.282576
v -0.642310 0.421184 -0.431930
v -0.642310 0.381929 -0.431930
v -0.628641 0.367843 0.282576
v 0.694067 0.435270 0.282576
v 0.680398 0.421184 -0.431930
v 0.680398 0.381929 -0.431930
v 0.694067 0.367843 0.282576
v 0.633356 0.440954 0.282576
v 0.645053 0.424493 -0.431930
v 0.677655 0.424493 -0.431930
v 0.689355 0.440954 0.282576
v -0.633356 0.435270 0.287407
v -0.633353 0.367843 0.287407
v -0.689355 0.367843 0.287407
v -0.689355 0.435270 0.287407
v -0.628641 -0.375850 0.282576
v -0.642310 -0.389936 -0.431930
v -0.642310 -0.429192 -0.431930
v -0.628641 -0.443277 0.282576
v -0.645053 0.421184 -0.434743
v -0.677655 0.421184 -0.434743
v -0.677655 0.381929 -0.434743
v -0.645053 0.381929 -0.434743
v 0.689355 0.362159 0.282576
v 0.677655 0.378619 -0.431930
v 0.645053 0.378619 -0.431930
v 0.633353 0.362159 0.282576
v -0.633353 -0.448961 0.282576
v -0.645053 -0.432501 -0.431930
v -0.677655 -0.432501 -0.431930
v -0.689355 -0.448962 0.282576
v -0.633353 0.362158 0.282576
v -0.645053 0.378619 -0.431930
v -0.677655 0.378619 -0.431930
v -0.689355 0.362158 0.282576
v 0.690436 -0.445259 0.286564
v -0.690436 -0.445260 0.286564
v -0.690436 0.437252 0.286564
v 0.690436 0.437252 0.286564
v -0.633356 -0.375850 0.287407
v -0.633356 -0.443277 0.287407
v -0.689355 -0.443277 0.287407
v -0.689355 -0.375850 0.287407
v 0.689355 -0.375850 0.287407
v 0.689355 -0.443277 0.287407
v 0.633356 -0.443277 0.287407
v 0.633356 -0.375850 0.287407
v 0.689355 0.435270 0.287407
v 0.689355 0.367843 0.287407
v 0.633356 0.367843 0.287407
v 0.633353 0.435270 0.287407
v -0.645053 -0.389936 -0.434743
v -0.645053 -0.429192 -0.434743
v -0.677655 -0.429192 -0.434743
v -0.677655 -0.389936 -0.434743
v 0.690436 -0.445259 0.220240
v 0.690436 0.437252 0.220240
v -0.690436 0.437252 0.220240
v -0.690436 -0.445260 0.220240
vn -0.0000 -1.0000 -0.0000
vn -0.0000 1.0000 -0.0000
vn 1.0000 -0.0000 -0.0000
vn -0.0000 -0.0000 -1.0000
vn -0.0000 -0.0000 1.0000
vn -0.6155 -0.5105 -0.6005
vn -0.6155 0.5105 -0.6005
vn 0.6155 0.5104 -0.6005
vn 0.6155 -0.5105 -0.6005
vn -0.6155 0.5105 0.6005
vn 0.6155 0.5104 0.6005
vn -0.6157 -0.5103 0.6004
vn 0.6155 -0.5105 0.6005
vn 0.7698 0.6383 -0.0000
vn -0.7697 -0.6384 -0.0000
vn -0.7158 -0.0000 -0.6983
vn -0.0000 0.6476 -0.7619
vn -0.0000 0.6477 -0.7619
vn 0.7158 -0.0000 -0.6983
vn -0.0000 -0.6477 -0.7619
vn 0.7699 -0.6381 -0.0000
vn 0.7697 -0.6384 -0.0000
vn -0.7697 0.6384 -0.0000
vn 0.7158 -0.0000 0.6983
vn -0.0000 0.6476 0.7619
vn -0.0000 0.6477 0.7619
vn -0.7158 -0.0000 0.6983
vn -0.0000 -0.6477 0.7619
vn -1.0000 -0.0000 -0.0000
vn -0.0000 0.9997 -0.0230
vn -0.9998 -0.0000 -0.0191
vn 0.9998 -0.0000 -0.0191
vn -0.0000 -0.9997 -0.0230
vn 0.6156 0.5104 -0.6004
vn -0.6156 0.5104 -0.6004
vn -0.6156 -0.5104 -0.6004
vn 0.6156 -0.5104 -0.6005
vn -0.6156 -0.5104 -0.6005
vn -0.6156 0.5104 -0.6005
vn 0.6156 -0.5104 -0.6004
vn 0.6154 0.5105 0.6005
vn -0.6157 0.5104 0.6004
vn 0.6157 -0.5103 0.6004
vn 0.6157 0.5104 0.6004
vn -0.6154 -0.5105 0.6005
vn 0.6157 -0.5104 0.6004
vn -0.6156 0.5102 0.6006
vn 0.6157 -0.5105 0.6003
vn -0.6155 -0.5102 0.6007
vn -0.6154 0.5105 0.6005
vn 0.6154 0.5105 0.6006
vn 0.7159 -0.0000 -0.6982
vn -0.0000 -0.6476 -0.7620
vn -0.7159 -0.0000 -0.6982
vn -0.7159 -0.0000 -0.6983
vn -0.7693 -0.6382 -0.0273
vn -0.7695 -0.6380 -0.0273
vn 0.7696 -0.6380 -0.0273
vn -0.7695 0.6380 -0.0273
vn -0.7696 0.6380 -0.0273
vn 0.7696 -0.6379 -0.0273
vn 0.7695 -0.6380 -0.0273
vn 0.7694 -0.6382 -0.0273
vn 0.7694 0.6382 -0.0273
vn 0.7695 0.6381 -0.0273
vn 0.7696 0.6380 -0.0273
vn -0.7696 -0.6379 -0.0273
vn -0.7696 -0.6380 -0.0273
vn 0.7695 0.6380 -0.0273
vn -0.7694 -0.6382 -0.0273
vn -0.7694 0.6382 -0.0273
vn 0.7159 -0.0000 0.6982
vn -0.7159 -0.0000 0.6982
vn -0.0000 -0.6476 0.7620
vn -0.7157 -0.0000 0.6984
vn -0.7160 -0.0000 0.6981
vn 0.7157 -0.0000 0.6984
vn -0.0000 -0.6476 0.7619
vt 1.018679 0.021688
vt 1.008655 -0.894404
vt 1.018678 -0.894404
vt 1.008655 0.021688
vt 1.018679 0.105596
vt 1.008655 1.021688
vt 1.018678 1.021688
vt 1.008655 0.105596
vt 1.018678 -0.647516
vt 1.008655 -0.139493
vt 1.018679 -0.139493
vt 1.008655 -0.647516
vt 0.225552 -0.647516
vt -0.690539 -0.139493
vt 0.225552 -0.139493
vt -0.690539 -0.647516
vt 1.008655 -0.650525
vt 1.005646 -0.647516
vt 1.008655 -0.136484
vt 1.005646 -0.139493
vt 0.228561 -0.139493
vt 0.225552 -0.136484
vt 1.008655 0.102587
vt 1.005646 0.105596
vt 1.021688 -0.139493
vt 1.018679 -0.136484
vt 1.018678 -0.650525
vt 1.021688 -0.647516
vt 1.018679 0.102587
vt 1.021688 0.105596
vt -0.690539 -0.136484
vt 0.228561 -0.647516
vt 1.005646 0.021688
vt 1.005646 -0.894404
vt 1.021688 -0.894404
vt 1.021688 0.021688
vt 1.003205 -0.003841
vt 0.565948 -0.031637
vt 0.565948 -0.011181
vt 1.003205 -0.038977
vt 1.003205 0.166261
vt 0.565948 0.138465
vt 0.565948 0.158921
vt 1.003205 0.131125
vt 1.003205 -0.200072
vt 0.565948 -0.172324
vt 0.565948 -0.192744
vt 1.003205 -0.164997
vt 0.192684 -0.172324
vt 0.172228 -0.192744
vt 0.172228 -0.172324
vt 0.192684 -0.192744
vt 1.003205 -0.622013
vt 0.565948 -0.594265
vt 0.565948 -0.614685
vt 1.003205 -0.586937
vt 0.192684 -0.594265
vt 0.172228 -0.614685
vt 0.172228 -0.594265
vt 0.192684 -0.614685
vt 1.003205 -0.003841
vt 1.003205 -0.038977
vt 0.370125 -0.164997
vt 0.334989 -0.200072
vt 0.370126 -0.200072
vt 0.334989 -0.164997
vt 0.362785 -0.172324
vt 0.342329 -0.192744
vt 0.342329 -0.172324
vt 0.362785 -0.192744
vt 0.200703 -0.623044
vt -0.665690 -0.163965
vt -0.665690 -0.623043
vt 0.200703 -0.163965
vt 0.370125 -0.586937
vt 0.334989 -0.622013
vt 0.370125 -0.622013
vt 0.334989 -0.586937
vt 0.200024 -0.586937
vt 0.164888 -0.622013
vt 0.200024 -0.622013
vt 0.164888 -0.586937
vt 0.200024 -0.164997
vt 0.164888 -0.200072
vt 0.200024 -0.200072
vt 0.164888 -0.164997
vt 0.364507 -0.594265
vt 0.362785 -0.594265
vt 0.362785 -0.592543
vt 0.170507 -0.594265
vt 0.172228 -0.592543
vt 0.342329 -0.194466
vt 0.340608 -0.192744
vt 0.194405 -0.594265
vt 0.192684 -0.592543
vt 0.362785 -0.194466
vt 0.364507 -0.192744
vt 0.172228 -0.194466
vt 0.170506 -0.192744
vt 0.364507 -0.614685
vt 0.362785 -0.616407
vt 0.362785 -0.614685
vt 0.172228 -0.170602
vt 0.170506 -0.172324
vt 0.342329 -0.616407
vt 0.340608 -0.614685
vt 0.342329 -0.614685
vt 0.340608 -0.594265
vt 0.342329 -0.592543
vt 0.342329 -0.594265
vt 0.194405 -0.614685
vt 0.192684 -0.616407
vt 0.170507 -0.614685
vt 0.172228 -0.616407
vt 0.192684 -0.170602
vt 0.194405 -0.172324
vt 0.192684 -0.194466
vt 0.194405 -0.192744
vt 0.340608 -0.172324
vt 0.342329 -0.170602
vt 0.364507 -0.172324
vt 0.362785 -0.170602
vt 1.003205 -0.162040
vt 1.006162 -0.164997
vt 1.003205 0.128168
vt 1.006162 0.131125
vt 0.200024 -0.162040
vt 0.202981 -0.164997
vt 1.003205 -0.624970
vt 1.006162 -0.622013
vt 1.003205 -0.583980
vt 1.006162 -0.586937
vt 1.003205 -0.203029
vt 1.006162 -0.200072
vt 0.565948 -0.616407
vt 0.565948 -0.592543
vt 0.565948 0.136743
vt 0.565948 -0.170602
vt 0.565948 -0.194466
vt 0.370125 -0.162040
vt 0.334989 -0.162040
vt 0.202981 -0.200072
vt 1.006162 0.166261
vt 0.164888 -0.162040
vt 1.006162 -0.038977
vt 1.006162 -0.003841
vt 0.202981 -0.622013
vt 0.202981 -0.586937
vt 1.006162 -0.003841
vt 1.005646 -0.623044
vt 0.965057 -0.163965
vt 0.965057 -0.623044
vt 1.005646 -0.163965
vt 1.005646 -0.003162
vt 0.965057 -0.869554
vt 0.965057 -0.003162
vt 1.005646 -0.869554
vt 1.005646 0.130446
vt 0.965057 0.996838
vt 0.965057 0.130446
vt 1.005646 0.996838
s 1
usemtl M_DiningTable_203_0
f 1/1/1 3/2/1 2/3/1
f 1/1/1 4/4/1 3/2/1
f 5/5/2 7/6/2 6/7/2
f 5/5/2 8/8/2 7/6/2
f 9/9/3 11/10/3 10/11/3
f 9/9/3 12/12/3 11/10/3
f 13/13/4 15/14/4 14/15/4
f 13/13/4 16/16/4 15/14/4
f 17/13/5 19/14/5 18/16/5
f 17/13/5 20/15/5 19/14/5
f 4/17/6 21/12/6 16/18/6
f 22/10/7 7/19/7 15/20/7
f 11/21/8 14/15/8 8/22/8
f 12/23/9 3/8/9 13/24/9
f 23/11/10 19/25/10 6/26/10
f 5/22/11 20/15/11 10/21/11
f 1/27/12 18/28/12 24/9/12
f 2/5/13 9/29/13 17/30/13
f 8/19/14 10/11/14 11/10/14
f 8/19/14 5/26/14 10/11/14
f 4/17/15 24/9/15 21/12/15
f 4/17/15 1/27/15 24/9/15
f 15/20/16 21/12/16 22/10/16
f 15/20/16 16/18/16 21/12/16
f 14/15/17 7/31/17 8/22/17
f 14/15/18 15/14/18 7/31/18
f 13/13/19 11/21/19 12/32/19
f 13/13/19 14/15/19 11/21/19
f 16/33/20 3/2/20 4/4/20
f 16/33/20 13/34/20 3/2/20
f 2/5/21 12/23/21 9/29/21
f 2/5/22 3/8/22 12/23/22
f 6/26/23 22/10/23 23/11/23
f 6/26/23 7/19/23 22/10/23
f 9/32/24 20/15/24 17/13/24
f 9/32/24 10/21/24 20/15/24
f 5/22/25 19/14/25 20/15/25
f 5/22/26 6/31/26 19/14/26
f 23/11/27 18/28/27 19/25/27
f 23/11/27 24/9/27 18/28/27
f 1/1/28 17/35/28 18/36/28
f 1/1/28 2/3/28 17/35/28
f 23/11/29 21/12/29 24/9/29
f 23/11/29 22/10/29 21/12/29
f 25/37/30 27/38/30 26/39/30
f 25/37/30 28/40/30 27/38/30
f 29/41/30 31/42/30 30/43/30
f 29/41/30 32/44/30 31/42/30
f 33/45/31 35/46/31 34/47/31
f 33/45/31 36/48/31 35/46/31
f 37/45/31 39/46/31 38/47/31
f 37/45/31 40/48/31 39/46/31
f 41/49/4 43/50/4 42/51/4
f 41/49/4 44/52/4 43/50/4
f 45/53/31 47/54/31 46/55/31
f 45/53/31 48/56/31 47/54/31
f 49/56/32 51/55/32 50/54/32
f 49/56/32 52/53/32 51/55/32
f 53/57/4 55/58/4 54/59/4
f 53/57/4 56/60/4 55/58/4
f 57/53/31 59/54/31 58/55/31
f 57/53/31 60/56/31 59/54/31
f 61/44/33 63/43/33 62/42/33
f 61/44/33 64/41/33 63/43/33
f 65/61/30 67/38/30 66/39/30
f 65/61/30 68/62/30 67/38/30
f 69/48/32 71/47/32 70/46/32
f 69/48/32 72/45/32 71/47/32
f 73/48/32 75/47/32 74/46/32
f 73/48/32 76/45/32 75/47/32
f 77/41/30 79/42/30 78/43/30
f 77/41/30 80/44/30 79/42/30
f 81/63/5 83/64/5 82/65/5
f 81/63/5 84/66/5 83/64/5
f 85/56/32 87/55/32 86/54/32
f 85/56/32 88/53/32 87/55/32
f 89/67/4 91/68/4 90/69/4
f 89/67/4 92/70/4 91/68/4
f 93/44/33 95/43/33 94/42/33
f 93/44/33 96/41/33 95/43/33
f 97/40/33 99/39/33 98/38/33
f 97/40/33 100/37/33 99/39/33
f 101/40/33 103/39/33 102/38/33
f 101/40/33 104/61/33 103/39/33
f 105/71/5 107/72/5 106/73/5
f 105/71/5 108/74/5 107/72/5
f 109/75/5 111/76/5 110/77/5
f 109/75/5 112/78/5 111/76/5
f 113/79/5 115/80/5 114/81/5
f 113/79/5 116/82/5 115/80/5
f 117/83/5 119/84/5 118/85/5
f 117/83/5 120/86/5 119/84/5
f 86/87/34 121/88/34 27/89/34
f 47/90/35 30/91/35 54/59/35
f 103/92/36 38/93/36 91/68/36
f 50/94/34 53/57/34 31/95/34
f 102/96/37 92/70/37 71/97/37
f 95/98/38 34/99/38 43/50/38
f 87/100/37 98/101/37 122/102/37
f 78/103/39 42/51/39 35/104/39
f 99/105/36 58/106/36 123/107/36
f 59/108/35 26/109/35 124/110/35
f 51/111/40 62/112/40 56/60/40
f 46/113/38 55/58/38 63/114/38
f 79/115/34 74/116/34 41/49/34
f 94/117/40 44/52/40 75/118/40
f 39/119/35 66/120/35 90/69/35
f 70/121/34 89/67/34 67/122/34
f 69/48/41 68/123/41 81/124/41
f 40/48/42 84/124/42 65/123/42
f 93/44/43 76/125/43 118/126/43
f 80/127/44 117/83/44 73/128/44
f 45/53/45 64/129/45 115/130/45
f 52/125/46 114/126/46 61/44/46
f 25/131/42 60/56/42 112/132/42
f 100/129/12 111/130/12 57/53/12
f 36/48/47 120/124/47 77/123/47
f 88/53/48 110/130/48 97/129/48
f 96/133/49 119/134/49 33/45/49
f 101/133/43 72/45/43 82/134/43
f 32/44/44 113/126/44 49/125/44
f 104/133/12 83/134/12 37/45/12
f 29/131/50 48/56/50 116/132/50
f 28/131/51 109/132/51 85/56/51
f 102/96/20 91/68/20 92/70/20
f 102/96/20 103/92/20 91/68/20
f 122/102/52 86/87/52 87/100/52
f 122/102/52 121/88/52 86/87/52
f 56/60/52 50/94/52 51/111/52
f 56/60/52 53/57/52 50/94/52
f 123/107/53 98/101/53 99/105/53
f 123/107/53 122/102/53 98/101/53
f 46/113/54 54/59/54 55/58/54
f 46/113/55 47/90/55 54/59/55
f 41/49/18 78/103/18 79/115/18
f 41/49/18 42/51/18 78/103/18
f 124/110/54 58/106/54 59/108/54
f 124/110/54 123/107/54 58/106/54
f 121/88/18 26/109/18 27/89/18
f 121/88/18 124/110/18 26/109/18
f 92/70/52 70/121/52 71/97/52
f 92/70/52 89/67/52 70/121/52
f 53/57/18 30/91/18 31/95/18
f 53/57/18 54/59/18 30/91/18
f 90/69/54 38/93/54 39/119/54
f 90/69/54 91/68/54 38/93/54
f 55/58/53 62/112/53 63/114/53
f 55/58/53 56/60/53 62/112/53
f 94/117/20 43/50/20 44/52/20
f 94/117/20 95/98/20 43/50/20
f 89/67/18 66/120/18 67/122/18
f 89/67/18 90/69/18 66/120/18
f 44/52/52 74/116/52 75/118/52
f 44/52/52 41/49/52 74/116/52
f 34/99/55 42/51/55 43/50/55
f 34/99/55 35/104/55 42/51/55
f 45/53/56 63/135/56 64/129/56
f 45/53/57 46/55/57 63/135/57
f 97/129/58 87/55/58 88/53/58
f 97/129/58 98/135/58 87/55/58
f 59/54/59 25/131/59 26/136/59
f 59/54/60 60/56/60 25/131/60
f 93/44/61 75/137/61 76/125/61
f 93/44/58 94/42/58 75/137/58
f 39/46/60 65/123/60 66/138/60
f 39/46/60 40/48/60 65/123/60
f 71/47/62 101/133/62 102/139/62
f 71/47/63 72/45/63 101/133/63
f 85/56/64 27/136/64 28/131/64
f 85/56/65 86/54/65 27/136/65
f 79/138/66 73/48/66 74/46/66
f 79/138/66 80/123/66 73/48/66
f 37/45/67 103/139/67 104/133/67
f 37/45/68 38/47/68 103/139/68
f 99/135/68 57/53/68 58/55/68
f 99/135/67 100/129/67 57/53/67
f 77/123/60 35/46/60 36/48/60
f 77/123/59 78/138/59 35/46/59
f 49/125/66 31/42/66 32/44/66
f 49/125/66 50/137/66 31/42/66
f 61/44/58 51/137/58 52/125/58
f 61/44/58 62/42/58 51/137/58
f 67/138/69 69/48/69 70/46/69
f 67/138/64 68/123/64 69/48/64
f 95/139/57 33/45/57 34/47/57
f 95/139/70 96/133/70 33/45/70
f 47/54/60 29/131/60 30/136/60
f 47/54/71 48/56/71 29/131/71
f 68/140/26 84/66/26 81/63/26
f 68/140/26 65/141/26 84/66/26
f 76/142/72 117/83/72 118/85/72
f 76/142/72 73/128/72 117/83/72
f 64/41/28 114/126/28 115/143/28
f 64/41/28 61/44/28 114/126/28
f 60/56/73 111/130/73 112/132/73
f 60/56/73 57/53/73 111/130/73
f 80/127/26 120/86/26 117/83/26
f 80/127/26 77/144/26 120/86/26
f 100/37/74 110/145/74 111/146/74
f 100/37/28 97/40/28 110/145/28
f 119/134/75 36/48/75 33/45/75
f 119/134/73 120/124/73 36/48/73
f 72/45/72 81/124/72 82/134/72
f 72/45/72 69/48/72 81/124/72
f 52/147/72 113/79/72 114/81/72
f 52/147/72 49/148/72 113/79/72
f 40/48/73 83/134/73 84/124/73
f 40/48/73 37/45/73 83/134/73
f 115/130/75 48/56/75 45/53/75
f 115/130/76 116/132/76 48/56/76
f 88/53/77 109/132/77 110/130/77
f 88/53/77 85/56/77 109/132/77
f 118/126/78 96/41/78 93/44/78
f 118/126/78 119/143/78 96/41/78
f 32/44/26 116/143/26 113/126/26
f 32/44/26 29/41/26 116/143/26
f 82/145/74 104/61/74 101/40/74
f 82/145/74 83/149/74 104/61/74
f 28/40/26 112/146/26 109/145/26
f 28/40/26 25/37/26 112/146/26
f 121/88/4 123/107/4 124/110/4
f 121/88/4 122/102/4 123/107/4
f 125/71/4 127/72/4 126/74/4
f 125/71/4 128/73/4 127/72/4
f 106/150/29 127/151/29 128/152/29
f 106/150/29 107/153/29 127/151/29
f 108/153/3 125/152/3 126/151/3
f 108/153/3 105/150/3 125/152/3
f 107/154/2 126/155/2 127/156/2
f 107/154/2 108/157/2 126/155/2
f 105/158/1 128/159/1 125/160/1
f 105/158/1 106/161/1 128/159/1
