# Blender 4.1.1
# www.blender.org
mtllib Fp303_Ps_303_Shelf_6_PsShelvingUnit_303_5_5.mtl
o PsShelvingUnit_303_5
v -0.014575 -0.085636 -0.363724
v -0.521426 0.080883 -0.363724
v -0.014575 0.080883 -0.363724
v -0.521425 -0.085636 -0.363724
v -0.014575 0.080883 -0.091967
v -0.521426 0.080883 -0.091967
v -0.521425 -0.085636 -0.091967
v -0.014575 -0.085636 -0.091967
vn -0.0000 -0.0000 -1.0000
vn -0.0000 1.0000 -0.0000
vn -1.0000 -0.0000 -0.0000
vn -0.0000 -0.0000 1.0000
vn 1.0000 -0.0000 -0.0000
vt 0.707571 0.607613
vt 0.791581 0.352687
vt 0.791581 0.607613
vt 0.707571 0.352687
vt 0.352687 0.790013
vt 0.607613 0.896438
vt 0.607613 0.790013
vt 0.352687 0.896438
vt 0.707571 0.790013
vt 0.791581 0.896438
vt 0.791581 0.790013
vt 0.707571 0.896438
s 1
usemtl M_PsShelvingUnit_303_5_0
f 1/1/1 2/2/1 3/3/1
f 1/1/1 4/4/1 2/2/1
f 2/5/2 5/6/2 3/7/2
f 2/5/2 6/8/2 5/6/2
f 4/9/3 6/10/3 2/11/3
f 4/9/3 7/12/3 6/10/3
f 7/4/4 5/3/4 6/2/4
f 7/4/4 8/1/4 5/3/4
f 8/12/5 3/11/5 5/10/5
f 8/12/5 1/9/5 3/11/5
