# Blender 4.1.0
# www.blender.org
mtllib Fp303_Ps_303_Shelf_5_PsShelvingUnit_303_2_1.mtl
o PsShelvingUnit_303_2
v -0.007526 0.080883 -0.063044
v -0.518274 0.080883 0.208712
v -0.518274 0.080883 -0.063044
v -0.007526 0.080883 0.208712
v -0.007526 -0.085636 0.208712
v -0.518273 -0.085636 0.208712
v -0.518273 -0.085636 -0.063044
v -0.007526 -0.085636 -0.063044
vn -0.0000 -1.0000 -0.0000
vn -0.0000 -0.0000 -1.0000
vn 1.0000 -0.0000 -0.0000
vn -0.0000 -0.0000 1.0000
vn -1.0000 -0.0000 -0.0000
vt 0.617613 0.906438
vt 0.874487 1.012863
vt 0.874487 0.906438
vt 0.617613 1.012863
vt 0.707571 0.617613
vt 0.791581 0.874487
vt 0.791581 0.617613
vt 0.707571 0.874487
vt 0.707571 0.012863
vt 0.791581 -0.093562
vt 0.791581 0.012863
vt 0.707571 -0.093562
vt 0.707571 0.906438
vt 0.791581 1.012863
vt 0.791581 0.906438
vt 0.707571 1.012863
s 1
usemtl M_PsShelvingUnit_303_2_0
f 1/1/1 2/2/1 3/3/1
f 1/1/1 4/4/1 2/2/1
f 5/5/2 2/6/2 4/7/2
f 5/5/2 6/8/2 2/6/2
f 6/9/3 3/10/3 2/11/3
f 6/9/3 7/12/3 3/10/3
f 7/8/4 1/7/4 3/6/4
f 7/8/4 8/5/4 1/7/4
f 8/13/5 4/14/5 1/15/5
f 8/13/5 5/16/5 4/14/5
