# Blender 4.1.0
# www.blender.org
mtllib Fp320_Ps_320_Shelf_1_PsDesk_320_1_1_1.mtl
o PsDesk_320_1_1
v 0.889347 0.244091 0.469969
v -0.250899 0.244091 0.470101
v -0.250899 -0.010010 0.470101
v 0.889352 -0.010011 0.469903
v -0.250890 -0.010010 0.516598
v -0.250887 0.244091 0.516599
v 0.889356 0.244089 0.516201
v 0.889359 -0.010011 0.516203
vn 0.0001 -0.0001 1.0000
vn 1.0000 -0.0000 -0.0002
vn -1.0000 -0.0000 0.0002
vn -0.0000 -1.0000 -0.0000
vt 1.384012 0.806030
vt 0.610227 0.806030
vt 0.610227 0.646225
vt 1.384012 0.646225
vt 0.809507 1.309675
vt 0.642748 1.309675
vt 0.642748 1.275528
vt 0.809507 1.275528
vt 0.809507 1.275819
vt 0.642748 1.275819
vt -0.391754 1.309675
vt -0.391754 1.275526
vt 0.388915 1.275822
vt 0.388915 1.309675
s 1
usemtl M_PsDesk_320_1_1_0
f 1/1/1 2/2/1 3/3/1 4/4/1
f 6/5/2 5/6/2 3/7/2 2/8/2
f 7/5/3 1/9/3 4/10/3 8/6/3
f 6/11/4 2/12/4 1/13/4 7/14/4
