# Blender 4.1.0
# www.blender.org
mtllib LidMeshLaptopLid_25_0_GeomSubset_0.mtl
o LidMeshLaptopLid_25_0_GeomSubset_0
v -0.000632 0.158338 -0.155144
v 0.000632 0.158338 -0.155144
v -0.000632 0.159603 -0.155144
v 0.000632 0.159603 -0.155144
v -0.000632 0.158338 -0.155144
v 0.000632 0.158338 -0.155144
v -0.000632 0.159603 -0.155144
v 0.000632 0.159603 -0.155144
v -0.000632 0.158338 -0.155144
v 0.000632 0.158338 -0.155144
v -0.000632 0.159603 -0.155144
v 0.000632 0.159603 -0.155144
v -0.000632 0.158338 -0.155144
v 0.000632 0.158338 -0.155144
v -0.000632 0.159603 -0.155144
v 0.000632 0.159603 -0.155144
v -0.000632 0.158338 -0.155144
v 0.000632 0.158338 -0.155144
v -0.000632 0.159603 -0.155144
v 0.000632 0.159603 -0.155144
v -0.000632 0.158338 -0.155144
v 0.000632 0.158338 -0.155144
v -0.000632 0.159603 -0.155144
v 0.000632 0.159603 -0.155144
v -0.214975 0.165907 0.136512
v 0.214975 0.165907 0.136512
v -0.214975 0.165907 -0.145931
v 0.214975 0.165907 -0.145931
v -0.214975 0.151785 -0.145931
v -0.214975 0.151785 0.136512
v 0.214975 0.151785 -0.145931
v 0.214975 0.151785 0.136512
v -0.155046 0.151785 0.172333
v -0.155046 0.151785 -0.145931
v -0.155046 0.165907 -0.145931
v -0.155046 0.165907 0.172333
v 0.155046 0.151785 0.172333
v 0.155046 0.151785 -0.145931
v 0.155046 0.165907 -0.145931
v 0.155046 0.165907 0.172333
v 0.155046 0.162303 -0.162593
v 0.214975 0.162303 -0.162593
v 0.214975 0.155528 -0.162593
v 0.155046 0.155528 -0.162593
v -0.214975 0.162303 -0.162593
v -0.155046 0.162303 -0.162593
v -0.155046 0.155528 -0.162593
v -0.214975 0.155528 -0.162593
v 0.155046 0.165907 -0.157711
v 0.155046 0.164826 -0.160151
v 0.214975 0.165907 -0.157711
v 0.214975 0.164827 -0.160149
v 0.214975 0.151785 -0.157704
v 0.214975 0.152895 -0.160137
v 0.155046 0.151785 -0.157703
v 0.155046 0.152895 -0.160137
v -0.214975 0.165907 -0.157711
v -0.214975 0.164827 -0.160149
v -0.155046 0.165907 -0.157711
v -0.155046 0.164826 -0.160151
v -0.155046 0.151785 -0.157703
v -0.155046 0.152895 -0.160137
v -0.214975 0.151785 -0.157704
v -0.214975 0.152895 -0.160137
v 0.000000 0.151785 -0.145931
v 0.000000 0.151785 0.172333
v 0.000000 0.165907 0.172333
v 0.000000 0.165907 -0.145931
v 0.000000 0.151785 -0.104586
v -0.196601 0.151785 -0.104586
v -0.214975 0.151785 -0.104586
v -0.214975 0.165907 -0.104586
v -0.155046 0.165907 -0.104586
v 0.000000 0.165907 -0.104586
v 0.155046 0.165907 -0.104586
v 0.214975 0.165907 -0.104586
v 0.214975 0.151785 -0.104586
v 0.196601 0.151785 -0.104586
v -0.196601 0.151785 0.131685
v 0.000000 0.151785 0.131685
v 0.196601 0.151785 0.131685
v 0.214975 0.151785 0.128125
v 0.214975 0.165907 0.128125
v 0.155046 0.165907 0.128125
v 0.000000 0.165907 0.128125
v -0.155046 0.165907 0.128125
v -0.214975 0.165907 0.128125
v -0.214975 0.151785 0.128125
v 0.000000 0.156117 -0.104586
v 0.196601 0.156117 -0.104586
v 0.196601 0.156117 0.131685
v 0.000000 0.156117 0.131685
v -0.196601 0.156117 -0.104586
v -0.196601 0.156117 0.131685
v 0.043544 0.169764 -0.032503
v -0.043544 0.169764 -0.032503
v 0.043544 0.169764 0.058823
v -0.043544 0.169764 0.058823
v 0.000000 0.155917 -0.104586
v 0.196601 0.155917 -0.104586
v 0.196601 0.155917 0.131685
v 0.000000 0.155917 0.131685
v -0.196601 0.155917 -0.104586
v -0.196601 0.155917 0.131685
vn -0.0000 -0.0000 1.0000
vn 0.0001 0.2543 -0.9671
vn -0.0000 0.2543 -0.9671
vn 0.0001 -0.2528 -0.9675
vn -0.0000 -0.2528 -0.9675
vn -0.0000 -0.2527 -0.9676
vn -0.0000 -0.0000 -1.0000
vn -1.0000 -0.0000 -0.0000
vn -0.0000 0.8045 -0.5940
vn -0.0000 0.9971 -0.0760
vn -0.0000 0.8045 -0.5939
vn 1.0000 -0.0000 -0.0000
vn -0.0000 -0.7940 -0.6079
vn -0.0000 -0.9970 -0.0780
vn -0.0001 -0.9970 -0.0780
vn 0.0001 -0.9970 -0.0780
vn -0.0000 1.0000 -0.0000
vn -0.0000 -1.0000 -0.0000
vn 0.5131 -0.0000 0.8584
vn -0.5131 -0.0000 0.8584
vt -118.324661 -19.673967
vt -117.324661 -19.673967
vt -117.324661 -18.673967
vt -118.324661 -18.673967
vt -117.552643 0.720927
vt -117.552643 0.545229
vt -117.532791 0.545229
vt -117.532791 0.720927
vt -117.568001 0.720817
vt -117.568001 0.545347
vt -117.548164 0.545337
vt -117.548164 0.720817
vt -117.493553 1.207752
vt -117.493553 0.753508
vt -117.452171 0.753505
vt -117.452171 1.207759
vt -117.477570 1.207648
vt -117.518944 1.207648
vt -117.518936 0.753506
vt -117.477554 0.753506
vt -117.557808 0.613672
vt -117.560974 0.620817
vt -117.595856 0.620777
vt -117.599113 0.613650
vt -117.257782 -0.159329
vt -117.264931 -0.159329
vt -117.264923 -0.335008
vt -117.257767 -0.335008
vt -117.450668 -0.277097
vt -117.447350 -0.269602
vt -117.490761 -0.269582
vt -117.487350 -0.277066
vt -118.689911 -0.335859
vt -118.682770 -0.335858
vt -118.682770 -0.159948
vt -118.689911 -0.159949
vt -117.425758 1.190995
vt -117.429077 1.198491
vt -117.465767 1.198458
vt -117.469185 1.190974
vt -117.257767 0.925331
vt -117.264923 0.925331
vt -117.264931 0.749662
vt -117.257782 0.749661
vt -117.586319 0.586329
vt -117.583153 0.593487
vt -117.624542 0.593501
vt -117.621300 0.586365
vt -118.689919 0.750279
vt -118.682770 0.750286
vt -118.682770 0.926196
vt -118.689911 0.926195
vt -117.299469 -0.159329
vt -117.299461 -0.335008
vt -117.447350 -0.233373
vt -117.490761 -0.233384
vt -118.648193 -0.335867
vt -118.648193 -0.159947
vt -117.599129 0.579220
vt -117.557808 0.579217
vt -117.299461 0.925331
vt -117.299469 0.749661
vt -117.583145 0.628009
vt -117.624542 0.628008
vt -118.648193 0.750277
vt -118.648193 0.926197
vt -117.469200 1.154779
vt -117.425758 1.154765
vt -117.250603 -0.335000
vt -117.250603 -0.159330
vt -117.479248 -0.284619
vt -117.458427 -0.284615
vt -118.697128 -0.159947
vt -118.697121 -0.335866
vt -117.568359 0.627954
vt -117.588173 0.627957
vt -117.250603 0.749660
vt -117.250603 0.925329
vt -117.613571 0.579161
vt -117.593727 0.579180
vt -118.697121 0.926188
vt -118.697121 0.750278
vt -117.436836 1.206011
vt -117.457672 1.206012
vt -117.447350 0.635240
vt -117.447350 0.745410
vt -117.490761 0.745405
vt -117.490761 0.635239
vt -117.425758 0.175970
vt -117.425758 0.286125
vt -117.469185 0.286129
vt -117.469185 0.175961
vt -117.518944 0.299372
vt -117.477554 0.299372
vt -117.493538 0.299254
vt -117.452171 0.299255
vt -118.526848 0.926194
vt -118.526848 0.872261
vt -117.833298 0.872257
vt -117.843758 0.926200
vt -117.425758 1.027623
vt -117.469185 1.027627
vt -117.469185 0.311922
vt -117.425751 0.311908
vt -117.420654 0.749660
vt -117.420654 0.925329
vt -118.102821 0.925330
vt -118.102821 0.749661
vt -117.420654 0.295165
vt -118.102821 0.295166
vt -117.420654 -0.159330
vt -118.102821 -0.159329
vt -117.420670 -0.335000
vt -118.102821 -0.334994
vt -117.490776 -0.106234
vt -117.447350 -0.106233
vt -117.447350 0.609458
vt -117.490761 0.609457
vt -118.526848 -0.281933
vt -118.526863 -0.335866
vt -117.843758 -0.335854
vt -117.833313 -0.281932
vt -118.648193 0.295165
vt -118.526863 0.295166
vt -117.299469 0.295166
vt -117.714005 0.750290
vt -117.833313 0.295162
vt -117.714005 0.295168
vt -117.819153 0.926201
vt -118.127403 0.925328
vt -118.232414 0.749660
vt -118.232414 0.295165
vt -118.232414 -0.159331
vt -118.127419 -0.335001
vt -117.714005 -0.159944
vt -117.819145 -0.335871
vt -117.509361 0.270115
vt -117.509361 -0.306129
vt -117.496674 -0.306135
vt -117.496674 0.270117
vt -117.523308 1.099299
vt -117.523308 0.407267
vt -117.510612 0.407270
vt -117.510612 1.099298
vt -117.483025 -0.305548
vt -117.483017 0.270114
vt -117.495720 0.270115
vt -117.495735 -0.305547
vt -117.509361 0.846357
vt -117.496681 0.846369
vt -117.483025 0.845784
vt -117.495735 0.845785
vt -117.535355 1.099154
vt -117.535355 0.407414
vt -117.522659 0.407423
vt -117.522659 1.099149
s 1
usemtl M_LaptopLid_25_0
f 1/1/1 2/2/1 4/3/1 3/4/1
f 41/5/2 42/6/3 43/7/4 44/8/5
f 45/9/2 46/10/3 47/11/6 48/12/6
f 35/13/7 68/14/7 65/15/7 34/16/7
f 36/17/1 33/18/1 66/19/1 67/20/1
f 49/21/8 50/22/8 56/23/8 55/24/8
f 50/25/9 49/26/10 51/27/10 52/28/11
f 52/29/12 51/30/12 53/31/12 54/32/12
f 54/33/13 53/34/14 55/35/15 56/36/13
f 57/37/8 58/38/8 64/39/8 63/40/8
f 58/41/11 57/42/10 59/43/10 60/44/9
f 60/45/12 59/46/12 61/47/12 62/48/12
f 62/49/13 61/50/14 63/51/16 64/52/13
f 39/53/17 28/54/17 51/27/10 49/26/10
f 28/55/12 31/56/12 53/31/12 51/30/12
f 31/57/18 38/58/18 55/35/15 53/34/14
f 38/59/8 39/60/8 49/21/8 55/24/8
f 27/61/17 35/62/17 59/43/10 57/42/10
f 35/63/12 34/64/12 61/47/12 59/46/12
f 34/65/18 29/66/18 63/51/16 61/50/14
f 29/67/8 27/68/8 57/37/8 63/40/8
f 50/25/9 52/28/11 42/69/3 41/70/2
f 52/29/12 54/32/12 43/71/12 42/72/12
f 54/33/13 56/36/13 44/73/5 43/74/4
f 56/23/8 50/22/8 41/75/8 44/76/8
f 58/41/11 60/44/9 46/77/3 45/78/2
f 60/45/12 62/48/12 47/79/12 46/80/12
f 62/49/13 64/52/13 48/81/6 47/82/6
f 64/39/8 58/38/8 45/83/8 48/84/8
f 26/85/19 40/86/19 37/87/19 32/88/19
f 36/89/20 25/90/20 30/91/20 33/92/20
f 67/20/1 66/19/1 37/93/1 40/94/1
f 65/15/7 68/14/7 39/95/7 38/96/7
f 71/97/18 70/98/18 79/99/18 88/100/18
f 72/101/8 71/102/8 88/103/8 87/104/8
f 73/105/17 72/106/17 87/107/17 86/108/17
f 74/109/17 73/105/17 86/108/17 85/110/17
f 75/111/17 74/109/17 85/110/17 84/112/17
f 76/113/17 75/111/17 84/112/17 83/114/17
f 77/115/12 76/116/12 83/117/12 82/118/12
f 78/119/18 77/120/18 82/121/18 81/122/18
f 75/111/17 76/113/17 28/54/17 39/53/17
f 29/67/8 71/102/8 72/101/8 27/68/8
f 77/115/12 31/56/12 28/55/12 76/116/12
f 78/119/18 38/58/18 31/57/18 77/120/18
f 71/97/18 29/66/18 34/65/18 70/98/18
f 72/106/17 73/105/17 35/62/17 27/61/17
f 70/98/18 34/65/18 65/123/18 69/124/18
f 73/105/17 74/109/17 68/125/17 35/62/17
f 78/119/18 69/124/18 65/123/18 38/58/18
f 68/125/17 74/109/17 75/111/17 39/53/17
f 33/126/18 79/99/18 80/127/18 66/128/18
f 30/129/18 88/100/18 79/99/18 33/126/18
f 87/104/8 88/103/8 30/91/8 25/90/8
f 25/130/17 36/131/17 86/108/17 87/107/17
f 36/131/17 67/132/17 85/110/17 86/108/17
f 84/112/17 85/110/17 67/132/17 40/133/17
f 40/133/17 26/134/17 83/114/17 84/112/17
f 32/88/12 82/118/12 83/117/12 26/85/12
f 37/135/18 81/122/18 82/121/18 32/136/18
f 66/128/18 80/127/18 81/122/18 37/135/18
f 69/137/1 78/138/1 90/139/1 89/140/1
f 78/141/8 81/142/8 91/143/8 90/144/8
f 81/145/7 80/146/7 92/147/7 91/148/7
f 70/149/1 69/137/1 89/140/1 93/150/1
f 80/146/7 79/151/7 94/152/7 92/147/7
f 79/153/12 70/154/12 93/155/12 94/156/12
