# Blender 4.1.0
# www.blender.org
mtllib MeshBookFront_12_1_GeomSubset_1.mtl
o MeshBookFront_12_1_GeomSubset_1
v -0.123078 -0.152125 0.010760
v 0.129242 -0.152125 0.010760
v 0.129242 0.152125 0.010760
v -0.125852 -0.152125 0.006165
v 0.127904 0.152125 0.006165
v 0.127904 -0.152125 0.006165
v -0.128622 -0.152125 0.001303
v 0.126334 0.152125 0.001303
v 0.126334 -0.152125 0.001303
v 0.127240 -0.151372 0.009611
v -0.123735 -0.151372 0.009611
v 0.127240 0.151372 0.009611
v 0.128686 -0.152125 0.008462
v -0.124392 -0.152125 0.008462
v 0.128686 0.152125 0.008462
v 0.126542 -0.151372 0.007314
v -0.125076 -0.151372 0.007314
v 0.126542 0.151372 0.007314
v 0.125605 -0.151372 0.004750
v -0.126680 -0.151372 0.004750
v 0.125605 0.151372 0.004750
v 0.127077 -0.152125 0.003867
v -0.127203 -0.152125 0.003867
v 0.127077 0.152125 0.003867
v 0.124920 -0.151372 0.002718
v -0.127867 -0.151372 0.002718
v 0.124920 0.151372 0.002718
v 0.124372 -0.151372 0.000421
v -0.129038 -0.151372 0.000421
v 0.124372 0.151372 0.000421
v 0.126025 -0.152125 -0.000728
v -0.129535 -0.152125 -0.000728
v 0.126025 0.152125 -0.000728
v 0.124187 -0.151372 -0.001877
v -0.129961 -0.151372 -0.001877
v 0.124165 0.151372 -0.001877
v 0.125947 0.152125 -0.003183
v 0.125947 -0.152125 -0.003183
v -0.130277 -0.151289 -0.003183
v 0.130025 -0.154283 0.010119
v 0.130025 -0.154283 0.012539
v 0.130025 0.154283 0.012539
v 0.130025 0.154283 0.010119
v -0.126218 -0.154283 0.002030
v -0.124410 -0.154283 0.007582
v -0.124410 0.154283 0.007582
v -0.126218 0.154283 0.002030
v -0.130213 -0.154283 0.002400
v -0.127989 -0.154283 0.007965
v -0.130213 0.154283 0.002400
v -0.127989 0.154283 0.007965
v -0.119994 -0.154283 0.010119
v -0.122460 -0.154283 0.009403
v -0.122190 -0.154283 0.012539
v -0.124293 -0.154283 0.011604
v -0.122190 0.154283 0.012539
v -0.124293 0.154283 0.011604
v -0.119994 0.154283 0.010119
v -0.122460 0.154283 0.009403
v -0.121572 -0.152741 0.010517
v -0.122304 -0.152741 0.010280
v -0.122305 0.152741 0.010280
v -0.121573 0.152741 0.010517
v -0.122805 -0.152741 0.011874
v -0.123527 -0.152741 0.011626
v -0.122806 0.152741 0.011874
v -0.123528 0.152741 0.011626
v -0.038971 -0.152125 0.010760
v -0.040077 -0.151372 0.009611
v -0.040033 -0.152125 0.008462
v -0.041186 -0.151372 0.007314
v -0.041170 -0.152125 0.006165
v -0.042118 -0.151372 0.004750
v -0.041810 -0.152125 0.003867
v -0.042711 -0.151372 0.002718
v -0.042422 -0.152125 0.001303
v -0.043178 -0.151372 0.000421
v -0.042728 -0.152125 -0.000728
v -0.043442 -0.151372 -0.001877
v -0.042957 -0.151289 -0.003183
v 0.045135 -0.152125 0.010760
v 0.043582 -0.151372 0.009611
v 0.044326 -0.152125 0.008462
v 0.042678 -0.151372 0.007314
v 0.043367 -0.152125 0.006165
v 0.041743 -0.151372 0.004750
v 0.042634 -0.152125 0.003867
v 0.041105 -0.151372 0.002718
v 0.041956 -0.152125 0.001303
v 0.040596 -0.151372 0.000421
v 0.041648 -0.152125 -0.000728
v 0.040373 -0.151372 -0.001877
v 0.041495 -0.151289 -0.003183
v 0.013344 -0.151289 -0.003700
v 0.012435 -0.151372 -0.001877
v 0.013523 -0.152125 -0.000816
v 0.012672 -0.151372 0.000413
v 0.013830 -0.152125 0.001303
v 0.013166 -0.151372 0.002718
v 0.014486 -0.152125 0.003867
v 0.013789 -0.151372 0.004750
v 0.015188 -0.152125 0.006165
v 0.014723 -0.151372 0.007314
v 0.016207 -0.152125 0.008462
v 0.015696 -0.151372 0.009611
v 0.017099 -0.152125 0.010760
v -0.014806 -0.151289 -0.003613
v -0.015504 -0.151372 -0.001877
v -0.014603 -0.152125 -0.000740
v -0.015253 -0.151372 0.000421
v -0.014296 -0.152125 0.001303
v -0.014773 -0.151372 0.002718
v -0.013662 -0.152125 0.003867
v -0.014165 -0.151372 0.004750
v -0.012991 -0.152125 0.006165
v -0.013231 -0.151372 0.007314
v -0.011913 -0.152125 0.008462
v -0.012191 -0.151372 0.009611
v -0.010936 -0.152125 0.010760
v -0.064787 -0.151289 -0.003183
v -0.065072 -0.151372 -0.001877
v -0.064430 -0.152125 -0.000728
v -0.064643 -0.151372 0.000421
v -0.063972 -0.152125 0.001303
v -0.064000 -0.151372 0.002718
v -0.063158 -0.152125 0.003867
v -0.063259 -0.151372 0.004750
v -0.062340 -0.152125 0.006165
v -0.062158 -0.151372 0.007314
v -0.061122 -0.152125 0.008462
v -0.060991 -0.151372 0.009611
v -0.059998 -0.152125 0.010760
v -0.086617 -0.151289 -0.003183
v -0.086701 -0.151372 -0.001877
v -0.086131 -0.152125 -0.000728
v -0.086108 -0.151372 0.000421
v -0.085522 -0.152125 0.001303
v -0.085289 -0.151372 0.002718
v -0.084507 -0.152125 0.003867
v -0.084399 -0.151372 0.004750
v -0.083511 -0.152125 0.006165
v -0.083131 -0.151372 0.007314
v -0.082212 -0.152125 0.008462
v -0.081906 -0.151372 0.009611
v -0.081025 -0.152125 0.010760
v -0.108447 -0.151289 -0.003183
v -0.108331 -0.151372 -0.001877
v -0.107833 -0.152125 -0.000728
v -0.107573 -0.151372 0.000421
v -0.107072 -0.152125 0.001303
v -0.106578 -0.151372 0.002718
v -0.105855 -0.152125 0.003867
v -0.105539 -0.151372 0.004750
v -0.104681 -0.152125 0.006165
v -0.104104 -0.151372 0.007314
v -0.103302 -0.152125 0.008462
v -0.102820 -0.151372 0.009611
v -0.102051 -0.152125 0.010760
v 0.124355 0.149745 -0.006559
v 0.041495 0.149745 -0.006559
v 0.124355 -0.149745 -0.006559
v 0.041495 -0.149745 -0.006559
v -0.108447 0.149745 -0.015087
v -0.130414 0.149745 -0.005019
v -0.108447 -0.149745 -0.015087
v -0.130414 -0.149745 -0.005019
v -0.014806 0.149745 -0.013311
v -0.042957 0.149745 -0.017043
v -0.014806 -0.149745 -0.013311
v -0.042957 -0.149745 -0.016966
v 0.013344 0.149745 -0.008875
v 0.013344 -0.149745 -0.008875
v -0.064787 0.149745 -0.018840
v -0.064787 -0.149745 -0.018410
v -0.086617 0.149745 -0.017951
v -0.086617 -0.149745 -0.017951
v 0.122361 0.149745 -0.004151
v 0.122361 -0.149745 -0.004151
v 0.041495 -0.149745 -0.004151
v -0.130414 -0.149745 -0.004151
v -0.108447 -0.149745 -0.004151
v -0.042957 -0.149745 -0.004151
v -0.014806 -0.149745 -0.004151
v 0.013344 -0.149745 -0.004151
v -0.064787 -0.149745 -0.004151
v -0.086617 -0.149745 -0.004151
v -0.119431 0.149745 -0.012057
v -0.119431 -0.149745 -0.012057
v -0.119431 -0.149745 -0.004151
v -0.119362 -0.151289 -0.003183
v -0.119146 -0.151372 -0.001877
v -0.118684 -0.152125 -0.000728
v -0.118306 -0.151372 0.000421
v -0.117847 -0.152125 0.001303
v -0.117223 -0.151372 0.002718
v -0.116529 -0.152125 0.003867
v -0.116109 -0.151372 0.004750
v -0.115267 -0.152125 0.006165
v -0.114590 -0.151372 0.007314
v -0.113847 -0.152125 0.008462
v -0.113278 -0.151372 0.009611
v -0.112564 -0.152125 0.010760
v -0.085497 -0.147746 -0.015676
v -0.063958 -0.147746 -0.016059
v -0.042420 -0.147746 -0.014933
v -0.014645 -0.147746 -0.012283
v 0.013130 -0.147746 -0.008365
v 0.040904 -0.147746 -0.006182
v 0.122650 -0.147746 -0.006182
v 0.122650 0.147746 -0.006182
v -0.130414 -0.147746 -0.004899
v -0.117873 -0.147746 -0.010765
v -0.107036 -0.147746 -0.013289
v -0.086617 -0.149745 -0.013401
v -0.064787 -0.149745 -0.013707
v -0.042957 -0.149745 -0.012807
v -0.014806 -0.149745 -0.010489
v 0.013344 -0.149745 -0.007792
v 0.041495 -0.149745 -0.005806
v 0.124355 -0.149745 -0.005806
v 0.124355 0.149745 -0.005806
v -0.130414 -0.149745 -0.004779
v -0.119431 -0.149745 -0.009472
v -0.108447 -0.149745 -0.011491
v -0.085498 -0.147746 -0.011126
v -0.063958 -0.147746 -0.011355
v -0.042420 -0.147746 -0.010627
v -0.014645 -0.147746 -0.009113
v 0.013130 -0.147746 -0.007165
v 0.040905 -0.147746 -0.005429
v 0.122650 -0.147746 -0.005429
v 0.122650 0.147746 -0.005429
v -0.130414 -0.147746 -0.004660
v -0.117873 -0.147746 -0.008179
v -0.107036 -0.147746 -0.009693
v -0.086617 -0.149745 -0.008851
v -0.064787 -0.149745 -0.009004
v -0.042957 -0.149745 -0.008449
v -0.014806 -0.149745 -0.007624
v 0.013344 -0.149745 -0.006494
v 0.041494 -0.149745 -0.005053
v 0.124355 -0.149745 -0.005053
v 0.124355 0.149745 -0.005053
v -0.130414 -0.149745 -0.004540
v -0.119431 -0.149745 -0.006886
v -0.108447 -0.149745 -0.007896
v -0.085498 -0.147746 -0.006575
v -0.063958 -0.147746 -0.006652
v -0.042420 -0.147746 -0.006327
v -0.014645 -0.147746 -0.006093
v 0.013130 -0.147746 -0.005794
v 0.040904 -0.147746 -0.004677
v 0.122650 -0.147746 -0.004677
v 0.122650 0.147746 -0.004677
v -0.130414 -0.147746 -0.004420
v -0.117873 -0.147746 -0.005593
v -0.107036 -0.147746 -0.006098
v -0.127747 -0.153774 -0.003941
v -0.126785 -0.154283 -0.003182
v -0.127747 0.153774 -0.003941
v -0.126785 0.154283 -0.003182
v -0.129928 -0.153774 -0.003941
v -0.130802 -0.154283 -0.003182
v -0.129928 0.153774 -0.003941
v -0.130802 0.154283 -0.003182
v -0.123078 0.152125 0.010760
v -0.125852 0.152125 0.006165
v -0.128622 0.152125 0.001303
v -0.123735 0.151372 0.009611
v -0.124392 0.152125 0.008462
v -0.125076 0.151372 0.007314
v -0.126680 0.151372 0.004750
v -0.127203 0.152125 0.003867
v -0.127867 0.151372 0.002718
v -0.129038 0.151372 0.000421
v -0.129535 0.152125 -0.000728
v -0.129961 0.151372 -0.001877
v -0.130277 0.151289 -0.003183
v -0.038971 0.152125 0.010760
v -0.040077 0.151372 0.009611
v -0.040033 0.152125 0.008462
v -0.041186 0.151372 0.007314
v -0.041170 0.152125 0.006165
v -0.042118 0.151372 0.004750
v -0.041810 0.152125 0.003867
v -0.042711 0.151372 0.002718
v -0.042422 0.152125 0.001303
v -0.043178 0.151372 0.000421
v -0.042728 0.152125 -0.000728
v -0.043442 0.151372 -0.001877
v -0.042957 0.151289 -0.003183
v 0.045135 0.152125 0.010760
v 0.043582 0.151372 0.009611
v 0.044326 0.152125 0.008462
v 0.042678 0.151372 0.007314
v 0.043367 0.152125 0.006165
v 0.041743 0.151372 0.004750
v 0.042634 0.152125 0.003867
v 0.041105 0.151372 0.002718
v 0.041956 0.152125 0.001303
v 0.040596 0.151372 0.000421
v 0.041648 0.152125 -0.000728
v 0.040373 0.151372 -0.001877
v 0.041495 0.151289 -0.003183
v 0.013344 0.151289 -0.003700
v 0.012435 0.151372 -0.001877
v 0.013523 0.152125 -0.000816
v 0.012672 0.151372 0.000413
v 0.013830 0.152125 0.001303
v 0.013166 0.151372 0.002718
v 0.014486 0.152125 0.003867
v 0.013789 0.151372 0.004750
v 0.015188 0.152125 0.006165
v 0.014723 0.151372 0.007314
v 0.016207 0.152125 0.008462
v 0.015696 0.151372 0.009611
v 0.017099 0.152125 0.010760
v -0.014806 0.151289 -0.003613
v -0.015504 0.151372 -0.001877
v -0.014603 0.152125 -0.000740
v -0.015253 0.151372 0.000421
v -0.014296 0.152125 0.001303
v -0.014773 0.151372 0.002718
v -0.013662 0.152125 0.003867
v -0.014165 0.151372 0.004750
v -0.012991 0.152125 0.006165
v -0.013231 0.151372 0.007314
v -0.011913 0.152125 0.008462
v -0.012191 0.151372 0.009611
v -0.010936 0.152125 0.010760
v -0.064787 0.151289 -0.003183
v -0.065072 0.151372 -0.001877
v -0.064430 0.152125 -0.000728
v -0.064643 0.151372 0.000421
v -0.063972 0.152125 0.001303
v -0.064000 0.151372 0.002718
v -0.063158 0.152125 0.003867
v -0.063259 0.151372 0.004750
v -0.062340 0.152125 0.006165
v -0.062158 0.151372 0.007314
v -0.061122 0.152125 0.008462
v -0.060991 0.151372 0.009611
v -0.059998 0.152125 0.010760
v -0.086617 0.151289 -0.003183
v -0.086701 0.151372 -0.001877
v -0.086131 0.152125 -0.000728
v -0.086108 0.151372 0.000421
v -0.085522 0.152125 0.001303
v -0.085289 0.151372 0.002718
v -0.084507 0.152125 0.003867
v -0.084399 0.151372 0.004750
v -0.083511 0.152125 0.006165
v -0.083131 0.151372 0.007314
v -0.082212 0.152125 0.008462
v -0.081906 0.151372 0.009611
v -0.081025 0.152125 0.010760
v -0.108447 0.151289 -0.003183
v -0.108331 0.151372 -0.001877
v -0.107833 0.152125 -0.000728
v -0.107573 0.151372 0.000421
v -0.107072 0.152125 0.001303
v -0.106578 0.151372 0.002718
v -0.105855 0.152125 0.003867
v -0.105539 0.151372 0.004750
v -0.104681 0.152125 0.006165
v -0.104104 0.151372 0.007314
v -0.103302 0.152125 0.008462
v -0.102820 0.151372 0.009611
v -0.102051 0.152125 0.010760
v 0.041495 0.149745 -0.006559
v -0.108447 0.149745 -0.015087
v -0.130414 0.149745 -0.005019
v -0.014806 0.149745 -0.013311
v -0.042957 0.149745 -0.016966
v 0.013344 0.149745 -0.008875
v -0.064787 0.149745 -0.018410
v -0.086617 0.149745 -0.017951
v 0.041495 0.149745 -0.004151
v -0.130414 0.149745 -0.004151
v -0.108447 0.149745 -0.004151
v -0.042957 0.149745 -0.004151
v -0.014806 0.149745 -0.004151
v 0.013344 0.149745 -0.004151
v -0.064787 0.149745 -0.004151
v -0.086617 0.149745 -0.004151
v -0.119431 0.149745 -0.012058
v -0.119431 0.149745 -0.004151
v -0.119362 0.151289 -0.003183
v -0.119146 0.151372 -0.001877
v -0.118684 0.152125 -0.000728
v -0.118306 0.151372 0.000421
v -0.117847 0.152125 0.001303
v -0.117223 0.151372 0.002718
v -0.116529 0.152125 0.003867
v -0.116109 0.151372 0.004750
v -0.115267 0.152125 0.006165
v -0.114590 0.151372 0.007314
v -0.113847 0.152125 0.008462
v -0.113278 0.151372 0.009611
v -0.112564 0.152125 0.010760
v -0.085497 0.147746 -0.015676
v -0.063958 0.147746 -0.016059
v -0.042420 0.147746 -0.014933
v -0.014645 0.147746 -0.012283
v 0.013130 0.147746 -0.008365
v 0.040904 0.147746 -0.006182
v -0.130414 0.147746 -0.004899
v -0.117873 0.147746 -0.010765
v -0.107036 0.147746 -0.013289
v -0.086617 0.149745 -0.013401
v -0.064787 0.149745 -0.013707
v -0.042957 0.149745 -0.012807
v -0.014806 0.149745 -0.010489
v 0.013344 0.149745 -0.007792
v 0.041495 0.149745 -0.005806
v -0.130414 0.149745 -0.004779
v -0.119431 0.149745 -0.009472
v -0.108447 0.149745 -0.011491
v -0.085498 0.147746 -0.011126
v -0.063958 0.147746 -0.011355
v -0.042420 0.147746 -0.010627
v -0.014645 0.147746 -0.009113
v 0.013130 0.147746 -0.007165
v 0.040905 0.147746 -0.005429
v 0.122650 0.147746 -0.005429
v -0.130414 0.147746 -0.004660
v -0.117873 0.147746 -0.008179
v -0.107036 0.147746 -0.009693
v -0.086617 0.149745 -0.008851
v -0.064787 0.149745 -0.009004
v -0.042957 0.149745 -0.008449
v -0.014806 0.149745 -0.007624
v 0.013344 0.149745 -0.006494
v 0.041494 0.149745 -0.005053
v -0.130414 0.149745 -0.004540
v -0.119431 0.149745 -0.006886
v -0.108447 0.149745 -0.007896
v -0.085498 0.147746 -0.006575
v -0.063958 0.147746 -0.006652
v -0.042420 0.147746 -0.006327
v -0.014645 0.147746 -0.006093
v 0.013130 0.147746 -0.005794
v 0.040904 0.147746 -0.004677
v -0.130414 0.147746 -0.004420
v -0.117873 0.147746 -0.005593
v -0.107036 0.147746 -0.006098
vn 1.0000 -0.0000 -0.0000
vn -0.0000 -1.0000 -0.0000
vn 0.8909 -0.0000 -0.4543
vn 0.9765 -0.0000 -0.2154
vn -0.0000 1.0000 -0.0000
vn -0.9696 -0.0000 0.2446
vn -0.8410 -0.0000 0.5410
vn 0.9753 -0.0000 -0.2210
vn -0.9999 -0.0000 -0.0136
vn 0.3080 -0.0000 -0.9514
vn -0.3249 -0.0000 0.9458
vn -0.0000 -0.0000 1.0000
vn -0.0000 -0.0000 -1.0000
vn -0.7016 -0.0000 0.7126
vn 0.6825 -0.0000 -0.7309
vn 0.9847 -0.0000 -0.1740
vn -0.2445 -0.0000 -0.9697
vn -0.6394 -0.5043 -0.5803
vn 0.6993 -0.3847 0.6025
vn -0.7339 -0.0000 0.6793
vn -0.0293 -0.0000 0.9996
vn -0.6390 0.5050 -0.5802
vn 0.6995 0.3839 0.6027
vn 0.2665 -0.0000 -0.9638
vn -0.2759 -0.0000 -0.9612
vn -0.0000 -0.9991 -0.0420
vn -0.0000 -0.8300 -0.5577
vn -0.0000 -0.9993 -0.0364
vn -0.0000 0.9993 -0.0364
vn -0.0000 0.9991 -0.0420
vn -0.0000 0.8300 -0.5578
vn -0.0000 0.8300 -0.5577
vt 0.999282 0.667901
vt 0.999086 0.831894
vt 0.996332 0.831894
vt 0.996529 0.667901
vt 0.864750 0.667085
vt 0.869061 0.667085
vt 0.869061 0.667901
vt 0.864639 0.667901
vt 0.140272 0.113873
vt 0.136459 0.113873
vt 0.136459 0.035189
vt 0.140020 0.035189
vt 0.868979 0.832677
vt 0.864518 0.832677
vt 0.864518 0.831894
vt 0.868979 0.831894
vt 0.135141 0.113873
vt 0.135141 0.035189
vt 0.861320 0.831894
vt 0.861450 0.667901
vt 0.142582 0.113873
vt 0.142257 0.113873
vt 0.142008 0.035189
vt 0.142333 0.035189
vt 0.872521 0.667085
vt 0.872900 0.667085
vt 0.872868 0.667901
vt 0.872507 0.667901
vt 0.872845 0.831894
vt 0.872483 0.831894
vt 0.872846 0.832677
vt 0.872477 0.832677
vt 0.874624 0.667085
vt 0.996529 0.667085
vt 0.873221 0.667901
vt 0.873221 0.831894
vt 0.996332 0.832677
vt 0.874624 0.832677
vt 0.143003 0.035189
vt 0.241059 0.035189
vt 0.241059 0.113873
vt 0.143254 0.113873
vt 0.872246 0.667085
vt 0.872246 0.667901
vt 0.872221 0.831894
vt 0.872221 0.832677
vt 0.141432 0.035189
vt 0.141683 0.113873
vt 0.130386 0.035189
vt 0.130386 0.113873
vt 0.119593 0.113873
vt 0.119593 0.035189
vt 0.860035 0.667901
vt 0.860035 0.667085
vt 0.861450 0.667085
vt 0.861320 0.832677
vt 0.860035 0.831894
vt 0.860034 0.832677
s 1
usemtl M_BookFront_12_1
f 40/1/1 43/2/1 42/3/1 41/4/1
f 44/5/2 45/6/2 49/7/2 48/8/2
f 45/9/3 44/10/4 47/11/4 46/12/3
f 46/13/5 47/14/5 50/15/5 51/16/5
f 48/8/6 49/7/7 51/16/7 50/15/6
f 44/10/4 259/17/8 261/18/8 47/11/4
f 265/19/9 263/20/9 48/8/6 50/15/6
f 60/21/10 61/22/10 62/23/10 63/24/10
f 61/25/2 60/26/2 64/27/2 65/28/2
f 65/28/11 64/27/11 66/29/11 67/30/11
f 67/30/5 66/29/5 63/31/5 62/32/5
f 52/33/2 40/34/2 41/4/2 54/35/2
f 54/35/12 41/4/12 42/3/12 56/36/12
f 56/36/5 42/3/5 43/37/5 58/38/5
f 58/39/13 43/40/13 40/41/13 52/42/13
f 53/43/2 55/44/2 49/7/2 45/6/2
f 55/44/14 57/45/14 51/16/7 49/7/7
f 57/45/5 59/46/5 46/13/5 51/16/5
f 59/47/15 53/48/15 45/9/3 46/12/3
f 53/48/16 59/47/16 62/23/16 61/22/16
f 58/39/17 52/42/17 60/21/17 63/24/17
f 52/33/18 54/35/18 64/27/18 60/26/18
f 55/44/19 53/43/19 61/25/19 65/28/19
f 54/35/20 56/36/20 66/29/20 64/27/20
f 57/45/21 55/44/21 65/28/21 67/30/21
f 56/36/22 58/38/22 63/31/22 66/29/22
f 59/46/23 57/45/23 67/30/23 62/32/23
f 260/49/24 258/50/24 262/51/25 264/52/25
f 263/20/26 262/53/27 258/54/27 259/55/28
f 261/56/29 265/19/30 50/15/5 47/14/5
f 259/17/8 258/50/24 260/49/24 261/18/8
f 262/53/25 263/20/9 265/19/9 264/57/25
f 263/20/26 259/55/28 44/5/2 48/8/2
f 264/57/31 265/19/30 261/56/29 260/58/32
