# Blender 4.1.0
# www.blender.org
mtllib MeshDiningTable_205_0_GeomSubset_0.mtl
o MeshDiningTable_205_0_GeomSubset_0
v 0.554196 -0.561924 0.317779
v -0.554196 -0.561924 0.317779
v -0.554196 -0.561925 0.325457
v 0.554196 -0.561925 0.325457
v 0.561777 0.554051 0.318164
v 0.561777 -0.554342 0.317781
v 0.561777 -0.554343 0.325460
v 0.561777 0.554048 0.325843
v 0.554196 0.554046 0.332672
v 0.554196 -0.554346 0.332289
v -0.554196 -0.554346 0.332289
v -0.554196 0.554046 0.332672
v -0.561777 -0.554342 0.317781
v -0.561777 0.554051 0.318164
v -0.561777 0.554048 0.325843
v -0.561777 -0.554343 0.325460
v -0.554196 0.561633 0.318167
v 0.554196 0.561633 0.318167
v 0.554196 0.561631 0.325846
v -0.554196 0.561631 0.325846
v -0.554196 -0.554340 0.310953
v -0.554196 0.554053 0.311336
v 0.554196 -0.554340 0.310953
v 0.554196 0.554053 0.311336
v -0.293945 0.318022 0.311254
v -0.281837 0.305912 0.311250
v -0.306055 0.281694 0.311242
v -0.318164 0.293803 0.311246
v 0.318164 0.293804 0.311246
v 0.306055 0.281694 0.311242
v 0.281836 0.305913 0.311250
v 0.293945 0.318022 0.311254
v -0.281837 -0.306197 0.311039
v -0.293945 -0.318306 0.311035
v -0.318164 -0.294088 0.311043
v -0.306055 -0.281980 0.311047
v 0.306055 -0.281980 0.311047
v 0.318164 -0.294088 0.311043
v 0.293945 -0.318306 0.311035
v 0.281836 -0.306197 0.311039
v -0.293945 0.318272 -0.410993
v -0.318164 0.294054 -0.411001
v -0.306055 0.281943 -0.411005
v -0.281837 0.306161 -0.410997
v 0.318164 0.294053 -0.411001
v 0.293945 0.318272 -0.410993
v 0.281836 0.306162 -0.410997
v 0.306055 0.281943 -0.411005
v -0.281837 -0.305946 -0.411209
v -0.306055 -0.281729 -0.411200
v -0.318164 -0.293838 -0.411204
v -0.293945 -0.318056 -0.411213
v 0.306055 -0.281729 -0.411200
v 0.281836 -0.305946 -0.411209
v 0.293945 -0.318056 -0.411213
v 0.318164 -0.293838 -0.411204
vn -0.0000 -1.0000 -0.0001
vn 1.0000 -0.0000 -0.0000
vn -0.0000 -0.0003 1.0000
vn -1.0000 -0.0000 -0.0000
vn -0.0000 1.0000 0.0003
vn -0.5562 -0.5560 -0.6177
vn -0.5562 -0.5564 0.6172
vn -0.5562 0.5564 -0.6174
vn -0.5563 0.5559 0.6177
vn 0.5562 -0.5560 -0.6177
vn 0.5562 -0.5564 0.6172
vn 0.5562 0.5564 -0.6174
vn 0.5563 0.5559 0.6177
vn -0.6692 0.0003 -0.7430
vn -0.6692 0.0003 -0.7431
vn -0.7072 -0.7071 -0.0001
vn -0.7071 -0.7071 -0.0001
vn -0.6693 -0.0003 0.7430
vn -0.7072 0.7070 0.0002
vn -0.7072 0.7070 0.0003
vn -0.7072 0.7071 0.0002
vn -0.0000 0.6694 -0.7429
vn -0.0000 0.6695 -0.7429
vn -0.0000 0.6689 0.7433
vn 0.7072 0.7070 0.0002
vn 0.7072 0.7071 0.0003
vn 0.6692 0.0003 -0.7430
vn 0.6693 -0.0003 0.7430
vn 0.7072 -0.7071 -0.0001
vn 0.7071 -0.7071 -0.0007
vn 0.7071 -0.7071 -0.0001
vn -0.0000 -0.6690 -0.7433
vn -0.0000 -0.6696 0.7428
vn -0.0000 0.0003 -1.0000
vt 0.760022 0.545542
vt 0.205826 0.549805
vt 0.205826 0.545542
vt 0.760022 0.549805
vt 0.549842 0.545542
vt -0.004354 0.549805
vt -0.004354 0.545542
vt 0.549842 0.549805
vt 0.760022 0.549842
vt 0.205826 -0.004354
vt 0.760022 -0.004354
vt 0.205826 0.549842
vt 0.995646 0.545542
vt 1.549842 0.549805
vt 1.549842 0.545542
vt 0.995646 0.549805
vt 0.205826 0.995646
vt 0.205826 0.991855
vt 0.202035 0.995646
vt 0.202035 0.549842
vt 0.205826 0.553632
vt 0.760022 0.995646
vt 0.763813 0.995646
vt 0.760022 0.991855
vt 0.760022 0.553632
vt 0.763813 0.549842
vt 0.202035 -0.004354
vt 0.202035 0.549805
vt 0.202035 0.545542
vt 0.202035 1.549842
vt 0.205826 1.549842
vt 0.763813 0.549805
vt 0.763813 0.545542
vt 0.763813 1.549842
vt 0.760022 1.549842
vt 0.763813 -0.004354
s 1
usemtl M_DiningTable_205_0
f 1/1/1 3/2/1 2/3/1
f 1/1/1 4/4/1 3/2/1
f 5/5/2 7/6/2 6/7/2
f 5/5/2 8/8/2 7/6/2
f 9/9/3 11/10/3 10/11/3
f 9/9/3 12/12/3 11/10/3
f 13/13/4 15/14/4 14/15/4
f 13/13/4 16/16/4 15/14/4
f 17/3/5 19/4/5 18/1/5
f 17/3/5 20/2/5 19/4/5
f 21/17/6 2/18/6 13/19/6
f 3/18/7 11/17/7 16/19/7
f 22/12/8 14/20/8 17/21/8
f 12/12/9 20/21/9 15/20/9
f 23/22/10 6/23/10 1/24/10
f 10/22/11 4/24/11 7/23/11
f 24/9/12 18/25/12 5/26/12
f 9/9/13 8/26/13 19/25/13
f 22/12/14 13/27/14 14/20/15
f 22/12/14 21/10/14 13/27/14
f 2/3/16 16/28/16 13/29/16
f 2/3/16 3/2/17 16/28/16
f 11/17/18 15/30/18 16/19/18
f 11/17/18 12/31/18 15/30/18
f 20/2/19 14/29/19 15/28/20
f 20/2/19 17/3/21 14/29/19
f 24/9/22 17/21/23 18/25/22
f 24/9/22 22/12/23 17/21/23
f 12/12/24 19/25/24 20/21/24
f 12/12/24 9/9/24 19/25/24
f 8/32/25 18/1/25 19/4/25
f 8/32/25 5/33/26 18/1/25
f 23/22/27 5/34/27 6/23/27
f 23/22/27 24/35/27 5/34/27
f 9/9/28 7/36/28 8/26/28
f 9/9/28 10/11/28 7/36/28
f 4/4/29 6/33/29 7/32/30
f 4/4/29 1/1/31 6/33/29
f 21/17/32 1/24/32 2/18/32
f 21/17/32 23/22/32 1/24/32
f 10/22/33 3/18/33 4/24/33
f 10/22/33 11/17/33 3/18/33
f 22/12/34 23/11/34 21/10/34
f 22/12/34 24/9/34 23/11/34
