# Blender 4.1.1
# www.blender.org
mtllib MeshDiningTable_205_0_GeomSubset_1.mtl
o MeshDiningTable_205_0_GeomSubset_1
v -0.554196 -0.561924 0.317779
v 0.554196 -0.561924 0.317779
v 0.554196 -0.561925 0.325457
v -0.554196 -0.561925 0.325457
v -0.561777 0.554051 0.318164
v -0.561777 -0.554342 0.317781
v -0.561777 -0.554343 0.325460
v -0.561777 0.554048 0.325843
v -0.554196 0.554046 0.332672
v -0.554196 -0.554346 0.332289
v 0.554196 -0.554346 0.332289
v 0.554196 0.554046 0.332672
v 0.561777 -0.554342 0.317781
v 0.561777 0.554051 0.318164
v 0.561777 0.554048 0.325843
v 0.561777 -0.554343 0.325460
v 0.554196 0.561633 0.318167
v -0.554196 0.561633 0.318167
v -0.554196 0.561631 0.325846
v 0.554196 0.561631 0.325846
v 0.554196 -0.554340 0.310953
v 0.554196 0.554053 0.311336
v -0.554196 -0.554340 0.310953
v -0.554196 0.554053 0.311336
v 0.293945 0.318022 0.311255
v 0.281837 0.305912 0.311250
v 0.306055 0.281694 0.311242
v 0.318164 0.293803 0.311246
v -0.318164 0.293804 0.311246
v -0.306055 0.281694 0.311242
v -0.281836 0.305913 0.311250
v -0.293945 0.318022 0.311255
v 0.281837 -0.306197 0.311038
v 0.293945 -0.318306 0.311035
v 0.318164 -0.294088 0.311043
v 0.306055 -0.281980 0.311047
v -0.306055 -0.281980 0.311047
v -0.318164 -0.294088 0.311043
v -0.293945 -0.318306 0.311035
v -0.281836 -0.306197 0.311038
v 0.293945 0.318272 -0.410993
v 0.318164 0.294054 -0.411001
v 0.306055 0.281943 -0.411005
v 0.281837 0.306161 -0.410997
v -0.318164 0.294053 -0.411001
v -0.293945 0.318272 -0.410993
v -0.281836 0.306162 -0.410997
v -0.306055 0.281943 -0.411005
v 0.281837 -0.305946 -0.411209
v 0.306055 -0.281729 -0.411200
v 0.318164 -0.293838 -0.411204
v 0.293945 -0.318056 -0.411213
v -0.306055 -0.281729 -0.411200
v -0.281836 -0.305946 -0.411209
v -0.293945 -0.318056 -0.411213
v -0.318164 -0.293838 -0.411204
vn -0.0000 0.0004 -1.0000
vn -0.0000 0.0003 -1.0000
vn -0.0001 0.0003 -1.0000
vn -0.0000 -0.0003 1.0000
vn -0.0000 -0.0004 1.0000
vn -0.7071 -0.7071 -0.0002
vn 0.7071 -0.7071 -0.0002
vn 0.7071 0.7071 0.0002
vn -0.7071 0.7071 0.0002
vn 0.7072 -0.7070 -0.0002
vn 0.7072 0.7070 0.0002
vn -0.7072 0.7070 0.0002
vt 0.337823 0.437439
vt 0.328026 0.408048
vt 0.347620 0.427642
vt 0.318229 0.417845
vt 0.647619 0.417845
vt 0.618229 0.427642
vt 0.637823 0.408048
vt 0.628026 0.437439
vt 0.347620 0.117845
vt 0.318229 0.127642
vt 0.337823 0.108048
vt 0.328026 0.137439
vt 0.637823 0.137439
vt 0.628026 0.108048
vt 0.647619 0.127642
vt 0.618229 0.117845
vt 0.318229 0.541751
vt 0.328026 0.308770
vt 0.318229 0.308770
vt 0.328026 0.541751
vt 0.437439 0.541751
vt 0.417845 0.308770
vt 0.437439 0.308770
vt 0.417845 0.541751
vt 0.618229 0.541751
vt 0.637823 0.308770
vt 0.618229 0.308770
vt 0.637823 0.541751
vt 0.647619 0.541751
vt 0.647619 0.308770
vt 0.408048 0.541751
vt 0.427642 0.308770
vt 0.408048 0.308770
vt 0.427642 0.541751
vt 0.628026 0.308770
vt 0.628026 0.541751
vt 0.337823 0.308770
vt 0.337823 0.541751
vt 0.347620 0.308770
vt 0.347620 0.541751
s 1
usemtl M_DiningTable_205_1
f 25/1/1 27/2/1 26/3/1
f 25/1/1 28/4/1 27/2/1
f 29/5/2 31/6/1 30/7/2
f 29/5/2 32/8/1 31/6/1
f 33/9/2 35/10/2 34/11/2
f 33/9/2 36/12/1 35/10/2
f 37/13/2 39/14/2 38/15/2
f 37/13/2 40/16/3 39/14/2
f 41/1/4 43/2/4 42/4/4
f 41/1/4 44/3/4 43/2/4
f 45/5/4 47/6/4 46/8/4
f 45/5/4 48/7/4 47/6/4
f 49/9/5 51/10/5 50/12/5
f 49/9/5 52/11/5 51/10/5
f 53/13/5 55/14/5 54/16/5
f 53/13/5 56/15/5 55/14/5
f 35/17/6 50/18/6 51/19/6
f 35/17/6 36/20/6 50/18/6
f 32/21/7 45/22/7 46/23/7
f 32/21/7 29/24/7 45/22/7
f 40/25/6 53/26/6 54/27/6
f 40/25/6 37/28/6 53/26/6
f 29/29/8 48/26/8 45/30/8
f 29/29/8 30/28/8 48/26/8
f 37/28/7 56/30/7 53/26/7
f 37/28/7 38/29/7 56/30/7
f 30/31/9 47/32/9 48/33/9
f 30/31/9 31/34/9 47/32/9
f 38/29/8 55/35/8 56/30/8
f 38/29/8 39/36/8 55/35/8
f 31/25/6 46/35/6 47/27/6
f 31/25/6 32/36/6 46/35/6
f 28/17/6 41/37/6 42/19/6
f 28/17/6 25/38/6 41/37/6
f 39/36/9 54/27/9 55/35/9
f 39/36/9 40/25/9 54/27/9
f 36/20/7 49/39/7 50/18/7
f 36/20/7 33/40/7 49/39/7
f 25/38/10 44/39/10 41/37/10
f 25/38/10 26/40/10 44/39/10
f 33/40/8 52/37/11 49/39/11
f 33/40/8 34/38/8 52/37/11
f 26/40/8 43/18/8 44/39/8
f 26/40/8 27/20/8 43/18/8
f 34/38/9 51/19/9 52/37/9
f 34/38/9 35/17/9 51/19/9
f 27/20/9 42/19/12 43/18/12
f 27/20/9 28/17/9 42/19/12
