# Blender 4.1.0
# www.blender.org
mtllib MeshBook_4_0_GeomSubset_2.mtl
o MeshBook_4_0_GeomSubset_2
v 0.068402 -0.095298 -0.014610
v 0.068402 0.095298 -0.014610
v 0.068402 0.095298 -0.015281
v 0.068402 -0.095298 -0.015281
v -0.075760 0.095298 -0.013036
v -0.074133 0.095298 -0.014610
v -0.074924 0.095298 -0.015281
v -0.076403 0.095298 -0.013778
v -0.074133 -0.095298 -0.014610
v -0.075760 -0.095298 -0.013036
v -0.074924 -0.095298 -0.015281
v -0.076403 -0.095298 -0.013778
v -0.076654 -0.095298 -0.004173
v -0.077521 -0.095298 -0.004173
v -0.077521 0.095298 -0.004173
v -0.076654 0.095298 -0.004173
v -0.077262 -0.095298 -0.008976
v -0.077262 0.095298 -0.008976
v -0.076400 0.095298 -0.008605
v -0.076400 -0.095298 -0.008605
v -0.077391 -0.095298 -0.006575
v -0.077391 0.095298 -0.006575
v -0.076540 0.095298 -0.006389
v -0.076540 -0.095298 -0.006389
v -0.076816 -0.095298 -0.011377
v -0.076816 0.095298 -0.011377
v -0.076097 0.095298 -0.010821
v -0.076097 -0.095298 -0.010821
v -0.075505 0.095298 -0.004173
v 0.068402 0.095298 -0.004173
v 0.068402 -0.095298 -0.004173
v -0.075505 -0.095298 -0.004173
v -0.075231 0.095298 -0.009392
v 0.068402 0.095298 -0.009392
v 0.068402 -0.095298 -0.009392
v -0.075231 -0.095298 -0.009392
v -0.075505 -0.094256 -0.001549
v -0.076654 -0.095298 -0.004173
v -0.075505 0.094256 -0.001549
v -0.076654 0.095298 -0.004173
v 0.067492 -0.094256 -0.003508
v 0.067492 0.094256 -0.003508
v 0.068402 -0.095298 -0.014610
v 0.068402 0.095298 -0.014610
v -0.074133 0.095298 -0.014610
v -0.075760 0.095298 -0.013036
v -0.075760 -0.095298 -0.013036
v -0.074133 -0.095298 -0.014610
v -0.076400 0.095298 -0.008605
v -0.076400 -0.095298 -0.008605
v -0.025292 0.095298 -0.014610
v -0.026024 0.095298 -0.009392
v -0.026207 0.095298 -0.004173
v -0.026462 0.094256 0.006551
v -0.026462 -0.094256 0.006551
v -0.026207 -0.095298 -0.004173
v -0.026024 -0.095298 -0.009392
v -0.025292 -0.095298 -0.014610
v 0.019118 0.095298 -0.014610
v 0.018752 0.095298 -0.009392
v 0.018661 0.095298 -0.004173
v 0.018152 0.094256 0.003369
v 0.018152 -0.094256 0.003369
v 0.018661 -0.095298 -0.004173
v 0.018752 -0.095298 -0.009392
v 0.019118 -0.095298 -0.014610
v -0.012556 0.095298 -0.014610
v -0.013166 0.095298 -0.009392
v -0.013319 0.095298 -0.004173
v -0.013658 0.094256 0.006089
v -0.013658 -0.094256 0.006089
v -0.013319 -0.095298 -0.004173
v -0.013166 -0.095298 -0.009392
v -0.012556 -0.095298 -0.014610
v 0.003281 0.095298 -0.014610
v 0.002793 0.095298 -0.009392
v 0.002671 0.095298 -0.004173
v 0.002247 0.094256 0.004998
v 0.002247 -0.094256 0.004998
v 0.002671 -0.095298 -0.004173
v 0.002793 -0.095298 -0.009392
v 0.003281 -0.095298 -0.014610
v -0.063808 0.095298 -0.014610
v -0.064832 0.095298 -0.009392
v -0.065089 0.095298 -0.004173
v -0.065139 0.094256 0.003699
v -0.065139 -0.094256 0.003699
v -0.065089 -0.095298 -0.004173
v -0.064832 -0.095298 -0.009392
v -0.063808 -0.095298 -0.014610
v -0.055128 0.095298 -0.014610
v -0.056080 0.095298 -0.009392
v -0.056318 0.095298 -0.004173
v -0.056419 0.094256 0.005814
v -0.056419 -0.094256 0.005814
v -0.056318 -0.095298 -0.004173
v -0.056080 -0.095298 -0.009392
v -0.055128 -0.095298 -0.014610
v -0.045626 0.095298 -0.014610
v -0.046504 0.095298 -0.009392
v -0.046724 0.095298 -0.004173
v -0.046877 0.094256 0.006666
v -0.046877 -0.094256 0.006666
v -0.046724 -0.095298 -0.004173
v -0.046504 -0.095298 -0.009392
v -0.045626 -0.095298 -0.014610
v -0.036124 0.095298 -0.014610
v -0.036929 0.095298 -0.009392
v -0.037130 0.095298 -0.004173
v -0.037334 0.094256 0.006717
v -0.037334 -0.094256 0.006717
v -0.037130 -0.095298 -0.004173
v -0.036929 -0.095298 -0.009392
v -0.036124 -0.095298 -0.014610
v 0.034940 0.095298 -0.014610
v 0.034757 0.095298 -0.009392
v 0.034711 0.095298 -0.004173
v 0.034075 0.094256 0.001591
v 0.034075 -0.094256 0.001591
v 0.034711 -0.095298 -0.004173
v 0.034757 -0.095298 -0.009392
v 0.034940 -0.095298 -0.014610
v 0.050785 0.095298 -0.014610
v 0.050693 0.095298 -0.009392
v 0.050670 0.095298 -0.004173
v 0.049971 0.094256 -0.000491
v 0.049971 -0.094256 -0.000491
v 0.050670 -0.095298 -0.004173
v 0.050693 -0.095298 -0.009392
v 0.050785 -0.095298 -0.014610
v -0.076516 -0.094389 -0.002695
v -0.076516 0.094389 -0.002695
v -0.076914 -0.095155 -0.003756
v -0.076914 0.095155 -0.003756
v -0.077261 -0.095155 -0.003756
v -0.077261 0.095155 -0.003756
v -0.070327 0.095298 -0.014610
v -0.071388 0.095298 -0.009392
v -0.071654 0.095298 -0.004173
v -0.071679 0.094256 0.001151
v -0.071679 -0.094256 0.001151
v -0.071654 -0.095298 -0.004173
v -0.071388 -0.095298 -0.009392
v -0.070327 -0.095298 -0.014610
v -0.077120 -0.094452 -0.003659
v -0.077120 -0.095298 -0.004173
v -0.077120 0.094453 -0.003659
v -0.077120 0.095298 -0.004173
v 0.063305 0.095298 -0.014610
v 0.063282 0.095298 -0.009392
v 0.063276 0.095298 -0.004173
v 0.062529 0.094256 -0.002387
v 0.062529 -0.094256 -0.002387
v 0.063276 -0.095298 -0.004173
v 0.063282 -0.095298 -0.009392
v 0.063305 -0.095298 -0.014610
vn -1.0000 -0.0000 -0.0000
vn 0.1697 -0.0000 0.9855
vn 0.2203 -0.0000 0.9754
vn 0.0053 -0.0000 1.0000
vn 0.0266 -0.0000 0.9996
vn 0.0852 -0.0000 0.9964
vn 0.1064 -0.0000 0.9943
vn 0.0540 -0.0000 0.9985
vn -0.4517 -0.0000 0.8922
vn -0.2922 -0.0000 0.9564
vn -0.1604 -0.0000 0.9871
vn -0.0472 -0.0000 0.9989
vn 0.1204 -0.0000 0.9927
vn 0.1384 -0.0000 0.9904
vn -0.6243 -0.0000 0.7812
vn -0.7965 -0.0000 0.6047
vn -0.8474 -0.0000 0.5309
vt 2.499949 0.001412
vt 2.499949 0.249804
vt 2.659325 0.001412
vt 2.664989 0.001412
vt 2.664989 0.249804
vt 2.659325 0.249804
vt 2.545356 0.001412
vt 2.557764 0.001412
vt 2.557764 0.249804
vt 2.545356 0.249804
vt 2.590528 0.001412
vt 2.608680 0.001412
vt 2.608680 0.249804
vt 2.590528 0.249804
vt 2.572376 0.001412
vt 2.572376 0.249804
vt 2.506159 0.001412
vt 2.513623 0.001412
vt 2.513623 0.249804
vt 2.506159 0.249804
vt 2.523574 0.001412
vt 2.523574 0.249804
vt 2.534465 0.001412
vt 2.534465 0.249804
vt 2.626852 0.001412
vt 2.626852 0.249804
vt 2.644993 0.001412
vt 2.644993 0.249804
vt 2.501792 0.001412
vt 2.501792 0.249804
vt 2.500638 0.249804
vt 2.500638 0.001412
s 1
usemtl M_Book_4_2
f 146/1/1 145/1/1 147/2/1 148/2/1
f 153/3/2 41/4/3 42/5/3 152/6/2
f 111/7/4 55/8/5 54/9/5 110/10/4
f 79/11/6 63/12/7 62/13/7 78/14/6
f 55/8/5 71/15/8 70/16/8 54/9/5
f 71/15/8 79/11/6 78/14/6 70/16/8
f 141/17/9 87/18/10 86/19/10 140/20/9
f 87/18/10 95/21/11 94/22/11 86/19/10
f 95/21/11 103/23/12 102/24/12 94/22/11
f 103/23/12 111/7/4 110/10/4 102/24/12
f 63/12/7 119/25/13 118/26/13 62/13/7
f 119/25/13 127/27/14 126/28/14 118/26/13
f 37/29/15 39/30/15 132/31/16 131/32/16
f 37/29/15 141/17/9 140/20/9 39/30/15
f 131/32/16 132/31/16 147/2/17 145/1/17
f 127/27/14 153/3/2 152/6/2 126/28/14
