# Blender 4.1.1
# www.blender.org
mtllib MeshTelevision_25_0_GeomSubset_2.mtl
o MeshTelevision_25_0_GeomSubset_2
v 0.000800 0.022124 -0.009258
v -0.000800 0.022124 -0.009258
v 0.000800 0.023723 -0.009258
v -0.000800 0.023723 -0.009258
v 0.000800 0.022124 -0.009258
v -0.000800 0.022124 -0.009258
v 0.000800 0.023723 -0.009258
v -0.000800 0.023723 -0.009258
v 0.000800 0.022124 -0.009258
v -0.000800 0.022124 -0.009258
v 0.000800 0.023723 -0.009258
v -0.000800 0.023723 -0.009258
v 0.000800 0.022124 -0.009258
v -0.000800 0.022124 -0.009258
v 0.000800 0.023723 -0.009258
v -0.000800 0.023723 -0.009258
v 0.000800 0.022124 -0.009258
v -0.000800 0.022124 -0.009258
v 0.000800 0.023723 -0.009258
v -0.000800 0.023723 -0.009258
v 0.537467 0.022923 0.364438
v 0.537467 -0.023359 0.364438
v -0.537467 -0.023359 0.364438
v -0.537467 0.022923 0.364438
v -0.537467 0.022923 -0.366449
v 0.537467 0.022923 -0.366449
v -0.537467 -0.023359 -0.366449
v 0.537467 -0.023359 -0.366449
v -0.537467 0.022923 -0.290065
v -0.537467 0.022923 -0.297815
v 0.537467 0.022923 -0.290065
v 0.537467 0.022923 -0.297815
v -0.537467 -0.023359 -0.290065
v -0.537467 -0.023359 -0.297815
v 0.537467 -0.023359 -0.290065
v 0.537467 -0.023359 -0.297815
v -0.531954 0.017411 -0.290065
v -0.531954 0.017411 -0.297815
v 0.531954 0.017411 -0.297815
v 0.531954 0.017411 -0.290065
v -0.531954 -0.017847 -0.290065
v -0.531954 -0.017847 -0.297815
v 0.531954 -0.017847 -0.297815
v 0.531954 -0.017847 -0.290065
v 0.000000 -0.023359 -0.290065
v 0.000000 -0.017847 -0.290065
v 0.000000 -0.017847 -0.297815
v 0.000000 -0.023359 -0.297815
v 0.000000 -0.023359 -0.366449
v 0.000000 0.022923 -0.366449
v 0.000000 0.022923 -0.297815
v 0.000000 0.017411 -0.297815
v 0.000000 0.017411 -0.290065
v 0.000000 0.022923 -0.290065
v 0.000000 0.022923 0.364438
v 0.000000 -0.023359 0.364438
v 0.000000 -0.023359 0.351438
v 0.000000 -0.023359 -0.277065
v -0.524467 -0.023359 -0.277065
v -0.524467 -0.023359 0.351438
v 0.524467 -0.023359 -0.277065
v 0.524467 -0.023359 0.351438
v 0.000000 -0.016149 0.343641
v 0.000000 -0.016149 -0.269267
v -0.511454 -0.016149 -0.269267
v -0.511454 -0.016149 0.343641
v 0.511455 -0.016149 -0.269267
v 0.511455 -0.016149 0.343641
vn -0.0000 -0.0000 -1.0000
vn -0.0000 1.0000 -0.0000
vt -18.560450 -17.567528
vt -18.559553 -17.567528
vt -18.559553 -17.566631
vt -18.560450 -17.566631
vt 0.500000 0.688262
vt 0.500000 0.089081
vt 1.000000 0.089081
vt 1.000000 0.688262
vt -0.000000 0.688262
vt -0.000000 0.089081
s 1
usemtl M_Television_25_2
f 9/1/1 10/2/1 12/3/1 11/4/1
f 63/5/2 64/6/2 65/7/2 66/8/2
f 68/9/2 67/10/2 64/6/2 63/5/2
