# Blender 4.1.0
# www.blender.org
mtllib MeshTelevision_11_0_GeomSubset_4.mtl
o MeshTelevision_11_0_GeomSubset_4
v -0.000799 -0.018160 0.051008
v 0.000799 -0.018160 0.051008
v -0.000799 -0.016561 0.051008
v 0.000799 -0.016561 0.051008
v -0.000799 -0.018160 0.051008
v 0.000799 -0.018160 0.051008
v -0.000799 -0.016561 0.051008
v 0.000799 -0.016561 0.051008
v -0.000799 -0.018160 0.051008
v 0.000799 -0.018160 0.051008
v -0.000799 -0.016561 0.051008
v 0.000799 -0.016561 0.051008
v -0.000799 -0.018160 0.051008
v 0.000799 -0.018160 0.051008
v -0.000799 -0.016561 0.051008
v 0.000799 -0.016561 0.051008
v -0.000799 -0.018160 0.051008
v 0.000799 -0.018160 0.051008
v -0.000799 -0.016561 0.051008
v 0.000799 -0.016561 0.051008
v -0.471018 -0.146875 -0.228060
v 0.471018 -0.146875 -0.228060
v -0.471018 -0.146875 0.379962
v 0.471018 -0.146875 0.379962
v -0.471018 -0.100591 0.379962
v 0.471018 -0.100591 0.379962
v -0.471018 -0.100591 -0.228060
v 0.471018 -0.100591 -0.228060
v -0.343674 -0.017360 0.293258
v 0.343674 -0.017360 0.293258
v 0.343674 -0.017360 -0.141356
v -0.343674 -0.017360 -0.141356
v 0.603830 -0.100591 -0.228060
v 0.603830 -0.146875 -0.228060
v 0.603830 -0.100591 0.379962
v 0.603830 -0.146875 0.379962
v -0.603830 -0.100591 -0.228060
v -0.603830 -0.146875 -0.228060
v -0.603830 -0.146875 0.379962
v -0.603830 -0.100591 0.379962
v 0.492216 -0.171885 -0.228060
v 0.492216 -0.171885 0.379962
v 0.582633 -0.171885 -0.228060
v 0.582633 -0.171885 0.379962
v -0.494018 -0.171807 0.379962
v -0.580829 -0.171807 0.379962
v -0.580829 -0.171807 -0.228060
v -0.494018 -0.171807 -0.228060
v 0.537425 -0.171885 0.379962
v 0.537424 -0.100591 0.379962
v 0.537424 -0.100591 -0.228060
v 0.537425 -0.171885 -0.228060
v -0.537423 -0.171807 0.379962
v -0.537423 -0.171807 -0.228060
v -0.537424 -0.100591 -0.228060
v -0.537424 -0.100591 0.379962
v 0.471018 -0.154620 -0.228060
v 0.477421 -0.163652 -0.228060
v 0.471018 -0.154620 0.379962
v 0.477421 -0.163652 0.379962
v 0.603830 -0.154620 -0.228060
v 0.597428 -0.163652 -0.228060
v 0.597428 -0.163652 0.379962
v 0.603830 -0.154620 0.379962
v -0.471018 -0.154490 0.379962
v -0.477672 -0.163308 0.379962
v -0.603830 -0.154490 0.379962
v -0.597175 -0.163308 0.379962
v -0.597175 -0.163307 -0.228060
v -0.603830 -0.154488 -0.228060
v -0.471018 -0.154488 -0.228060
v -0.477672 -0.163307 -0.228060
v -0.471018 -0.146875 0.407046
v 0.471018 -0.146875 0.407046
v 0.471018 -0.100591 0.407046
v -0.471018 -0.100591 0.407046
v 0.343674 -0.017360 0.314158
v -0.343674 -0.017360 0.314158
v 0.537424 -0.146875 0.407046
v 0.537424 -0.100591 0.407046
v -0.537424 -0.100591 0.407046
v -0.537424 -0.146875 0.407046
v 0.603830 -0.146875 0.407046
v 0.603830 -0.100591 0.407046
v -0.603830 -0.100591 0.407046
v -0.603830 -0.146875 0.407046
v 0.477421 -0.163652 0.407046
v 0.471018 -0.154620 0.407046
v 0.537424 -0.163652 0.407046
v 0.537425 -0.154620 0.407046
v 0.603830 -0.154620 0.407046
v 0.597428 -0.163652 0.407046
v -0.471018 -0.154490 0.407046
v -0.477672 -0.163308 0.407046
v -0.537424 -0.154490 0.407046
v -0.537424 -0.163308 0.407046
v -0.603830 -0.154490 0.407046
v -0.597175 -0.163308 0.407046
v 0.492216 -0.171885 0.407046
v 0.537425 -0.171885 0.407046
v -0.537423 -0.171806 0.407046
v -0.494018 -0.171806 0.407046
v 0.582633 -0.171885 0.407046
v -0.580829 -0.171806 0.407046
v -0.471018 -0.100591 -0.255143
v 0.471018 -0.100591 -0.255143
v 0.471018 -0.146875 -0.255143
v -0.471018 -0.146875 -0.255143
v -0.343674 -0.017360 -0.162255
v 0.343674 -0.017360 -0.162255
v 0.537424 -0.100591 -0.255143
v 0.537424 -0.146875 -0.255143
v -0.537424 -0.146875 -0.255143
v -0.537424 -0.100591 -0.255143
v 0.603830 -0.100591 -0.255143
v 0.603830 -0.146875 -0.255143
v -0.603830 -0.146875 -0.255143
v -0.603830 -0.100591 -0.255143
v 0.471018 -0.154620 -0.255143
v 0.477421 -0.163652 -0.255143
v 0.537425 -0.154620 -0.255143
v 0.537424 -0.163652 -0.255143
v 0.603830 -0.154620 -0.255143
v 0.597428 -0.163652 -0.255143
v -0.603830 -0.154488 -0.255143
v -0.597175 -0.163307 -0.255143
v -0.537424 -0.154488 -0.255143
v -0.537424 -0.163307 -0.255143
v -0.477672 -0.163307 -0.255143
v -0.471018 -0.154488 -0.255143
v 0.537425 -0.171885 -0.255143
v 0.492216 -0.171885 -0.255143
v -0.494018 -0.171806 -0.255143
v -0.537423 -0.171806 -0.255143
v 0.582633 -0.171885 -0.255143
v -0.580829 -0.171807 -0.255143
v -0.464018 -0.146875 -0.221060
v 0.464018 -0.146875 -0.221060
v 0.464018 -0.146875 0.372962
v -0.464018 -0.146875 0.372962
v -0.393891 -0.146875 -0.167069
v 0.393892 -0.146875 -0.167069
v 0.393892 -0.146875 0.318972
v -0.393891 -0.146875 0.318972
v -0.384126 -0.137383 -0.157198
v 0.384128 -0.137383 -0.157198
v 0.384128 -0.137383 0.309100
v -0.384126 -0.137383 0.309100
v -0.471018 -0.142535 -0.228060
v 0.471018 -0.142535 -0.228060
v 0.464018 -0.142535 -0.221060
v -0.464018 -0.142535 -0.221060
v 0.471018 -0.142535 0.379962
v 0.464018 -0.142535 0.372962
v -0.471018 -0.142535 0.379962
v -0.464018 -0.142535 0.372962
v 0.000000 -0.146875 -0.221060
v 0.000000 -0.146875 -0.167069
v 0.000001 -0.137383 -0.157198
v 0.000001 -0.137383 0.309100
v 0.000000 -0.146875 0.318972
v 0.000000 -0.146875 0.372962
v 0.000000 -0.142535 0.372962
v 0.000000 -0.142535 0.379962
v 0.000000 -0.146875 0.379962
v 0.000000 -0.146875 0.407046
v 0.000000 -0.100591 0.407046
v 0.000000 -0.017360 0.314158
v 0.000000 -0.017360 0.293258
v 0.000000 -0.017360 -0.141356
v 0.000000 -0.017360 -0.162255
v 0.000000 -0.100591 -0.255143
v 0.000000 -0.146875 -0.255143
v 0.000000 -0.146875 -0.228060
v 0.000000 -0.142535 -0.228060
v 0.000000 -0.142535 -0.221060
vn -0.0000 -0.0000 1.0000
vt -7.583221 -17.578993
vt -7.582438 -17.578993
vt -7.582438 -17.578209
vt -7.583221 -17.578209
s 1
usemtl M_Television_11_4
f 17/1/1 18/2/1 20/3/1 19/4/1
