# Blender 4.1.0
# www.blender.org
mtllib MeshTelevisionStand_11_1_GeomSubset_2.mtl
o MeshTelevisionStand_11_1_GeomSubset_2
v -0.000719 -0.018080 0.051008
v 0.000720 -0.018080 0.051008
v -0.000719 -0.016641 0.051008
v 0.000720 -0.016641 0.051008
v -0.000719 -0.018080 0.051008
v 0.000720 -0.018080 0.051008
v -0.000719 -0.016641 0.051008
v 0.000720 -0.016641 0.051008
v -0.000719 -0.018080 0.051008
v 0.000720 -0.018080 0.051008
v -0.000719 -0.016641 0.051008
v 0.000720 -0.016641 0.051008
v -0.000719 -0.018080 0.051008
v 0.000720 -0.018080 0.051008
v -0.000719 -0.016641 0.051008
v 0.000720 -0.016641 0.051008
v -0.000719 -0.018080 0.051008
v 0.000720 -0.018080 0.051008
v -0.000719 -0.016641 0.051008
v 0.000720 -0.016641 0.051008
v -0.327221 0.201352 -0.410457
v 0.327221 0.201352 -0.410457
v 0.327221 0.083461 -0.410457
v -0.327221 0.083461 -0.410457
v -0.327221 0.201352 -0.401455
v 0.327221 0.201352 -0.401455
v 0.327221 0.083461 -0.401455
v -0.327221 0.083461 -0.401455
v 0.256385 0.083461 -0.410457
v -0.269474 0.083461 -0.410457
v -0.269474 0.201352 -0.410457
v 0.256385 0.201352 -0.410457
v -0.269474 0.201352 -0.401455
v 0.256385 0.201352 -0.401455
v 0.256385 0.083461 -0.401455
v -0.269474 0.083461 -0.401455
v -0.116525 0.201223 -0.410457
v 0.107486 0.201223 -0.410457
v 0.107486 0.083532 -0.410457
v -0.116525 0.083532 -0.410457
v -0.112005 0.201223 -0.384261
v 0.102965 0.201223 -0.384261
v 0.102965 0.083532 -0.384261
v -0.112005 0.083532 -0.384261
v -0.060523 0.201223 -0.410457
v -0.060523 0.083532 -0.410457
v -0.004520 0.201223 -0.410457
v -0.004520 0.083532 -0.410457
v 0.051482 0.201223 -0.410457
v 0.051482 0.083532 -0.410457
v -0.058813 0.201223 -0.375118
v -0.004520 0.201223 -0.372050
v 0.049773 0.201223 -0.375118
v -0.058813 0.083532 -0.375118
v -0.004520 0.083532 -0.372050
v 0.049773 0.083532 -0.375118
v -0.324423 0.202197 -0.408927
v 0.324423 0.202197 -0.408927
v -0.324423 0.202197 -0.402381
v 0.324423 0.202197 -0.402466
v -0.269474 0.202197 -0.408927
v 0.256385 0.202197 -0.408927
v -0.269746 0.202197 -0.403093
v 0.256539 0.202197 -0.403075
v -0.116525 0.202133 -0.408927
v 0.107486 0.202133 -0.408927
v -0.111528 0.202133 -0.385745
v 0.102488 0.202133 -0.385745
v -0.060523 0.202133 -0.408927
v -0.004520 0.202133 -0.408927
v 0.051482 0.202133 -0.408927
v -0.058538 0.202133 -0.376637
v -0.004520 0.202133 -0.373584
v 0.049497 0.202133 -0.376637
v 0.252170 0.082063 -0.408153
v -0.265259 0.082063 -0.408153
v 0.252170 0.082063 -0.403181
v -0.265259 0.082063 -0.403181
v 0.107486 0.082168 -0.408153
v -0.116525 0.082168 -0.408153
v 0.102246 0.082168 -0.386496
v -0.111286 0.082168 -0.386496
v -0.060523 0.082168 -0.408153
v -0.004520 0.082168 -0.408153
v 0.051482 0.082168 -0.408153
v -0.058399 0.082168 -0.377405
v -0.004520 0.082168 -0.374360
v 0.049359 0.082168 -0.377405
v -0.267109 0.199460 -0.400138
v 0.254020 0.199460 -0.400138
v 0.254020 0.085546 -0.400138
v -0.267109 0.085546 -0.400138
v -0.112286 0.199188 -0.383388
v 0.103246 0.199188 -0.383388
v 0.103246 0.085567 -0.383388
v -0.112286 0.085567 -0.383388
v -0.058975 0.199188 -0.374225
v -0.004520 0.199188 -0.371147
v 0.049935 0.199188 -0.374225
v -0.058975 0.085567 -0.374225
v -0.004520 0.085567 -0.371147
v 0.049935 0.085567 -0.374225
v -0.297013 0.201352 -0.393879
v -0.300821 0.201352 -0.393896
v -0.300821 0.083461 -0.393896
v -0.297013 0.083461 -0.393879
v 0.290531 0.083461 -0.393797
v 0.294480 0.083461 -0.393813
v 0.294480 0.201352 -0.393813
v 0.290531 0.201352 -0.393797
v -0.301065 0.201352 -0.410457
v -0.296785 0.201352 -0.410457
v 0.290371 0.201352 -0.410457
v 0.294652 0.201352 -0.410457
v -0.296785 0.083461 -0.410457
v -0.301065 0.083461 -0.410457
v 0.294652 0.083461 -0.410457
v 0.290371 0.083461 -0.410457
v -0.300795 0.202197 -0.395616
v -0.296988 0.202197 -0.395599
v 0.290510 0.202197 -0.395456
v 0.294458 0.202197 -0.395472
v -0.296785 0.202197 -0.408927
v -0.301065 0.202197 -0.408927
v 0.294652 0.202197 -0.408927
v 0.290371 0.202197 -0.408927
v 0.054744 -0.145412 -0.401455
v 0.102370 -0.129024 -0.401455
v 0.075675 -0.196746 -0.401455
v 0.123558 -0.180916 -0.401455
v 0.075675 -0.196746 -0.410457
v 0.123558 -0.180916 -0.410457
v 0.054744 -0.145412 -0.410457
v 0.102370 -0.129024 -0.410457
v 0.125739 -0.116645 -0.401455
v 0.166251 -0.087608 -0.401455
v 0.165754 -0.159487 -0.401455
v 0.206866 -0.131191 -0.401455
v 0.165754 -0.159487 -0.410457
v 0.206866 -0.131191 -0.410457
v 0.125739 -0.116645 -0.410457
v 0.166251 -0.087608 -0.410457
v 0.186146 -0.068748 -0.401455
v 0.216748 -0.030399 -0.401455
v 0.241869 -0.099380 -0.401455
v 0.273254 -0.061611 -0.401455
v 0.241869 -0.099380 -0.410457
v 0.273254 -0.061611 -0.410457
v 0.186146 -0.068748 -0.410457
v 0.216748 -0.030399 -0.410457
v 0.229869 -0.008140 -0.401455
v 0.247104 0.036847 -0.401455
v 0.296334 -0.024076 -0.401455
v 0.314171 0.020659 -0.401455
v 0.296334 -0.024076 -0.410457
v 0.314171 0.020659 -0.410457
v 0.229869 -0.008140 -0.410457
v 0.247104 0.036847 -0.410457
v -0.067833 -0.145412 -0.401455
v -0.115459 -0.129024 -0.401455
v -0.067833 -0.145412 -0.410457
v -0.115459 -0.129024 -0.410457
v -0.084926 -0.196924 -0.410457
v -0.132556 -0.180544 -0.410457
v -0.084926 -0.196924 -0.401455
v -0.132556 -0.180544 -0.401455
v -0.138828 -0.116645 -0.401455
v -0.179340 -0.087608 -0.401455
v -0.138828 -0.116645 -0.410457
v -0.179340 -0.087608 -0.410457
v -0.171625 -0.159859 -0.410457
v -0.212146 -0.130832 -0.410457
v -0.171625 -0.159859 -0.401455
v -0.212146 -0.130832 -0.401455
v -0.199236 -0.068748 -0.401455
v -0.229836 -0.030399 -0.401455
v -0.199236 -0.068748 -0.410457
v -0.229836 -0.030399 -0.410457
v -0.244966 -0.099739 -0.410457
v -0.275578 -0.061397 -0.410457
v -0.244966 -0.099739 -0.401455
v -0.275578 -0.061397 -0.401455
v -0.242958 -0.008140 -0.401455
v -0.260194 0.036847 -0.401455
v -0.242958 -0.008140 -0.410457
v -0.260194 0.036847 -0.410457
v -0.297466 -0.024290 -0.410457
v -0.314710 0.020694 -0.410457
v -0.297466 -0.024290 -0.401455
v -0.314710 0.020694 -0.401455
v 0.113870 -0.157183 -0.393885
v 0.066098 -0.173255 -0.393892
v 0.064730 -0.169895 -0.393875
v 0.112505 -0.153826 -0.393869
v 0.112427 -0.153634 -0.410457
v 0.064650 -0.169697 -0.410457
v 0.066184 -0.173466 -0.410457
v 0.113953 -0.157389 -0.410457
v 0.188244 -0.111206 -0.393866
v 0.147399 -0.139835 -0.393878
v 0.144855 -0.137100 -0.393862
v 0.185721 -0.108494 -0.393849
v 0.185589 -0.108352 -0.410457
v 0.144716 -0.136948 -0.410457
v 0.147549 -0.139997 -0.410457
v 0.188385 -0.111359 -0.410457
v 0.247250 -0.047246 -0.393840
v 0.216226 -0.085284 -0.393854
v 0.212848 -0.083411 -0.393838
v 0.243915 -0.045403 -0.393824
v 0.243760 -0.045318 -0.410457
v 0.212682 -0.083317 -0.410457
v 0.216403 -0.085385 -0.410457
v 0.247415 -0.047338 -0.410457
v 0.283211 0.028132 -0.393820
v 0.265656 -0.016722 -0.393830
v 0.261820 -0.015788 -0.393814
v 0.279415 0.029050 -0.393804
v 0.279256 0.029088 -0.410457
v 0.261651 -0.015745 -0.410457
v 0.265836 -0.016767 -0.410457
v 0.283382 0.028090 -0.410457
v -0.124823 -0.157234 -0.410457
v -0.077188 -0.173604 -0.410457
v -0.075912 -0.169763 -0.410457
v -0.123535 -0.153364 -0.410457
v -0.123605 -0.153576 -0.393885
v -0.075980 -0.169970 -0.393882
v -0.077114 -0.173382 -0.393898
v -0.124747 -0.157009 -0.393902
v -0.197318 -0.111295 -0.410457
v -0.156796 -0.140318 -0.410457
v -0.154313 -0.137051 -0.410457
v -0.194825 -0.108010 -0.410457
v -0.194964 -0.108193 -0.393889
v -0.154451 -0.137231 -0.393887
v -0.156649 -0.140125 -0.393905
v -0.197170 -0.111099 -0.393907
v -0.254896 -0.047382 -0.410457
v -0.224295 -0.085731 -0.410457
v -0.220820 -0.083376 -0.410457
v -0.251434 -0.045034 -0.410457
v -0.251625 -0.045164 -0.393888
v -0.221013 -0.083507 -0.393890
v -0.224089 -0.085591 -0.393907
v -0.254691 -0.047243 -0.393905
v -0.290033 0.028005 -0.410457
v -0.272806 -0.016985 -0.410457
v -0.268707 -0.015767 -0.410457
v -0.285962 0.029213 -0.410457
v -0.286181 0.029148 -0.393882
v -0.268931 -0.015834 -0.393885
v -0.272567 -0.016914 -0.393902
v -0.289797 0.028075 -0.393899
v 0.018686 -0.150576 -0.410457
v -0.031774 -0.150576 -0.410457
v 0.018686 -0.150576 -0.401455
v -0.031774 -0.150576 -0.401455
v 0.018674 -0.205075 -0.401455
v -0.031743 -0.204955 -0.401455
v 0.018674 -0.205075 -0.410457
v -0.031743 -0.204955 -0.410457
v -0.031756 -0.180315 -0.410457
v 0.018677 -0.180373 -0.410457
v -0.031757 -0.176280 -0.410457
v 0.018680 -0.176350 -0.410457
v 0.018677 -0.180145 -0.393894
v -0.031756 -0.180084 -0.393896
v -0.031757 -0.176495 -0.393879
v 0.018679 -0.176563 -0.393877
v -0.071354 0.192695 -0.366346
v -0.073422 0.190430 -0.366346
v 0.077402 0.190430 -0.366346
v 0.075334 0.192695 -0.366346
v 0.065881 0.088649 -0.366346
v 0.068361 0.090914 -0.366346
v -0.064381 0.090914 -0.366346
v -0.061902 0.088649 -0.366346
v -0.073422 0.190430 -0.042755
v -0.071354 0.192695 -0.042755
v 0.077402 0.190430 -0.042755
v 0.075334 0.192695 -0.042755
v 0.065881 0.088649 -0.042755
v 0.068361 0.090914 -0.042755
v -0.064381 0.090914 -0.042755
v -0.061902 0.088649 -0.042755
v 0.073582 0.055071 -0.010468
v 0.075658 0.056078 -0.008853
v -0.071677 0.056078 -0.008853
v -0.069602 0.055071 -0.010468
v -0.076495 0.109572 0.076915
v -0.078769 0.108565 0.075300
v 0.082749 0.108565 0.075300
v 0.080476 0.109572 0.076915
v 0.071427 0.068373 -0.016769
v 0.073597 0.069822 -0.015383
v -0.069617 0.069822 -0.015383
v -0.067448 0.068373 -0.016769
v -0.075072 0.143124 0.054744
v -0.077295 0.141674 0.053357
v 0.081275 0.141674 0.053357
v 0.079052 0.143124 0.054744
v 0.069224 0.079020 -0.024588
v 0.071534 0.080875 -0.023551
v -0.067555 0.080875 -0.023551
v -0.065244 0.079020 -0.024588
v -0.073374 0.169412 0.025933
v -0.075530 0.167557 0.024896
v 0.079510 0.167557 0.024896
v 0.077354 0.169412 0.025933
v 0.067571 0.086087 -0.033419
v 0.070025 0.088242 -0.032859
v -0.066045 0.088242 -0.032859
v -0.063592 0.086087 -0.033419
v -0.071951 0.186561 -0.007304
v -0.074045 0.184407 -0.007864
v 0.078026 0.184407 -0.007864
v 0.075931 0.186561 -0.007304
v -0.073720 0.194855 -0.366346
v -0.075788 0.192590 -0.366346
v 0.079768 0.192590 -0.366346
v 0.077699 0.194855 -0.366346
v 0.067855 0.086489 -0.366346
v 0.070334 0.088753 -0.366346
v -0.066354 0.088753 -0.366346
v -0.063875 0.086489 -0.366346
v -0.075788 0.192590 -0.393803
v -0.073720 0.194855 -0.393803
v 0.077699 0.194855 -0.393803
v 0.079768 0.192590 -0.393803
v 0.070334 0.088753 -0.393803
v 0.067855 0.086489 -0.393803
v -0.063875 0.086489 -0.393803
v -0.066354 0.088753 -0.393803
v -0.077068 0.072199 0.089698
v -0.077804 0.069288 0.090843
v -0.080099 0.068736 0.089098
v -0.079361 0.071644 0.087951
v 0.081784 0.069288 0.090843
v 0.081048 0.072199 0.089698
v 0.083340 0.071644 0.087951
v 0.084079 0.068736 0.089098
v 0.078797 0.039177 -0.004788
v 0.077863 0.042192 -0.004897
v 0.075775 0.041638 -0.006643
v 0.076718 0.038626 -0.006537
v -0.072738 0.038626 -0.006537
v -0.071795 0.041638 -0.006643
v -0.073882 0.042192 -0.004897
v -0.074817 0.039177 -0.004788
v -0.098024 -0.024727 -0.017495
v -0.100123 -0.024727 -0.015389
v -0.108864 -0.024727 0.112332
v -0.106590 -0.024727 0.113869
v 0.110570 -0.024727 0.113869
v 0.112844 -0.024727 0.112332
v 0.104102 -0.024727 -0.015389
v 0.102005 -0.024727 -0.017495
v -0.086257 0.018560 -0.007625
v -0.096250 -0.003916 -0.015389
v -0.083137 0.019198 -0.009097
v -0.094321 -0.003916 -0.017495
v 0.087117 0.019198 -0.009097
v 0.098301 -0.003916 -0.017495
v 0.090237 0.018560 -0.007625
v 0.100230 -0.003916 -0.015389
v 0.098442 0.031565 0.104851
v 0.108448 -0.002708 0.112332
v 0.096670 0.030709 0.106993
v 0.106119 -0.001963 0.113869
v -0.092690 0.030709 0.106993
v -0.102139 -0.001963 0.113869
v -0.094462 0.031565 0.104851
v -0.104468 -0.002708 0.112332
vn -0.0000 -0.0000 1.0000
vt -18.865686 -17.294640
vt -18.865686 -17.295837
vt -18.864489 -17.295837
vt -18.864489 -17.294640
s 1
usemtl M_TelevisionStand_11_2
f 9/1/1 10/2/1 12/3/1 11/4/1
