# Blender 4.1.1
# www.blender.org
mtllib MeshBox_27_0.mtl
o Box_27
v 0.106023 0.127503 -0.134700
v 0.106023 -0.129452 -0.134700
v -0.106138 0.127503 -0.134700
v -0.106138 -0.129452 -0.134700
v -0.106138 0.054950 -0.134736
v 0.106023 0.054950 -0.134736
v -0.106138 -0.056587 -0.134736
v 0.106023 -0.056587 -0.134736
v 0.109032 0.127503 -0.134700
v 0.109032 -0.129452 -0.134700
v -0.108843 -0.129452 -0.134700
v -0.108309 0.127503 -0.134700
v -0.108843 -0.128728 -0.134700
v 0.109032 -0.128728 -0.134700
v 0.109032 0.126489 -0.134700
v -0.108309 0.126489 -0.134700
v 0.109032 0.126489 -0.138635
v 0.109032 -0.128728 -0.138635
v 0.000837 0.126489 -0.138635
v 0.000994 -0.128728 -0.138635
v -0.108309 0.126489 -0.138635
v -0.000435 0.126489 -0.138635
v -0.108843 -0.128728 -0.138635
v -0.000277 -0.128728 -0.138635
v 0.111210 0.126489 -0.134700
v 0.111210 -0.128728 -0.134697
v -0.110487 0.126489 -0.134700
v -0.110487 0.129205 -0.134700
v -0.106138 -0.131154 -0.137334
v 0.106023 -0.131154 -0.137334
v -0.106138 0.129205 -0.137334
v 0.106023 0.129205 -0.137334
v 0.111210 0.126489 -0.140940
v 0.111210 -0.128728 -0.140940
v 0.000837 0.126489 -0.140940
v 0.000994 -0.128728 -0.140940
v -0.106138 0.054724 -0.137021
v 0.106023 0.054724 -0.137021
v 0.106023 -0.056361 -0.137021
v -0.106138 -0.056361 -0.137021
v 0.111210 -0.131154 -0.134697
v 0.111210 0.129205 -0.134697
v -0.111020 -0.131154 -0.134700
v -0.111020 -0.128728 -0.134700
v -0.110487 0.126489 -0.140940
v -0.000435 0.126489 -0.140940
v -0.111020 -0.128728 -0.140940
v -0.000277 -0.128728 -0.140940
v 0.111210 -0.128728 0.064133
v 0.111082 -0.128728 0.064459
v 0.110774 -0.128728 0.064594
v 0.111210 0.126489 0.064133
v 0.111082 0.126489 0.064459
v 0.110774 0.126489 0.064594
v -0.110487 0.129205 0.064133
v -0.110359 0.129105 0.064459
v -0.110051 0.128865 0.064594
v -0.110487 0.126489 0.064133
v -0.110359 0.126489 0.064459
v -0.110051 0.126489 0.064594
v -0.106138 -0.131154 0.062676
v -0.106138 -0.131054 0.063002
v -0.106138 -0.130814 0.063137
v 0.106023 -0.131154 0.062676
v 0.106023 -0.131054 0.063002
v 0.106023 -0.130814 0.063137
v 0.106023 0.129205 0.062676
v 0.106023 0.129105 0.063002
v 0.106023 0.128865 0.063137
v -0.106138 0.129205 0.062676
v -0.106138 0.129105 0.063002
v -0.106138 0.128865 0.063137
v 0.111210 -0.131154 0.064133
v 0.111082 -0.131054 0.064459
v 0.110774 -0.130814 0.064594
v 0.111210 0.129205 0.064133
v 0.111082 0.129105 0.064459
v 0.110774 0.128865 0.064594
v -0.111020 -0.131154 0.064133
v -0.110893 -0.131054 0.064459
v -0.110585 -0.130814 0.064594
v -0.111020 -0.128728 0.064133
v -0.110893 -0.128728 0.064459
v -0.110585 -0.128728 0.064594
v 0.109032 -0.128728 0.064133
v 0.109159 -0.128728 0.064459
v 0.109468 -0.128728 0.064594
v 0.109032 0.126489 0.064133
v 0.109159 0.126489 0.064459
v 0.109468 0.126489 0.064594
v -0.108309 0.127503 0.064133
v -0.108436 0.127603 0.064459
v -0.108744 0.127843 0.064594
v -0.108309 0.126489 0.064133
v -0.108436 0.126489 0.064459
v -0.108744 0.126489 0.064594
v 0.106023 -0.129452 0.062676
v 0.106023 -0.129552 0.063002
v 0.106023 -0.129792 0.063137
v -0.106138 -0.129452 0.062676
v -0.106138 -0.129552 0.063002
v -0.106138 -0.129792 0.063137
v 0.106023 0.127503 0.062676
v 0.106023 0.127603 0.063002
v 0.106023 0.127843 0.063137
v -0.106138 0.127503 0.062676
v -0.106138 0.127603 0.063002
v -0.106138 0.127843 0.063137
v 0.109032 -0.129452 0.064133
v 0.109159 -0.129552 0.064459
v 0.109468 -0.129792 0.064594
v 0.109032 0.127503 0.064133
v 0.109159 0.127603 0.064459
v 0.109468 0.127843 0.064594
v -0.108843 -0.129452 0.064133
v -0.108971 -0.129552 0.064459
v -0.109279 -0.129792 0.064594
v -0.108843 -0.128728 0.064133
v -0.108971 -0.128728 0.064459
v -0.109279 -0.128728 0.064594
vn -0.0000 -0.0000 1.0000
vn -0.0000 -0.1699 0.9855
vn -0.0000 0.1700 0.9854
vn -1.0000 -0.0000 -0.0000
vn 1.0000 -0.0021 -0.0000
vn 1.0000 -0.0007 -0.0000
vn -0.0000 -0.0000 -1.0000
vn -0.0000 0.1792 -0.9838
vn -0.0000 -0.1792 -0.9838
vn 1.0000 -0.0000 -0.0000
vn -1.0000 0.0006 -0.0000
vn -1.0000 0.0021 -0.0000
vn -0.0000 -1.0000 -0.0000
vn 1.0000 0.0006 -0.0000
vn -0.0000 1.0000 -0.0000
vn -0.0000 0.9952 -0.0983
vn -1.0000 0.0005 0.0001
vn -1.0000 0.0006 0.0002
vn -1.0000 -0.0005 0.0001
vn -0.0000 -0.9952 -0.0982
vn -0.3032 -0.6967 0.6502
vn -0.3645 -0.7043 0.6092
vn -0.3106 -0.6978 0.6455
vn -0.3576 -0.7036 0.6141
vn -0.3255 0.6999 0.6358
vn -0.2810 0.6931 0.6639
vn -0.3205 0.6992 0.6391
vn -0.2863 0.6940 0.6606
vn 0.3134 -0.6983 0.6435
vn 0.2803 -0.6931 0.6641
vn 0.3089 -0.6977 0.6463
vn 0.2845 -0.6939 0.6615
vn 0.3589 0.7039 0.6129
vn 0.4300 0.7083 0.5598
vn 0.3698 0.7050 0.6052
vn 0.4174 0.7080 0.5697
vn -0.0012 -0.0000 1.0000
vn -0.0003 -0.0007 1.0000
vn -1.0000 -0.0006 -0.0000
vn -0.9389 -0.0000 -0.3443
vn 0.9520 -0.0000 -0.3062
vn 0.9391 -0.0010 -0.3438
vn -0.0331 0.9678 -0.2496
vn 0.0316 0.9674 -0.2512
vn 0.0316 -0.9674 -0.2513
vn -0.0361 -0.9685 -0.2464
vn 0.0793 0.9571 -0.2787
vn 0.0793 -0.9571 -0.2788
vn -0.0849 0.9560 -0.2809
vn -0.0969 -0.9536 -0.2850
vn 0.9392 -0.0000 -0.3435
vn -0.9518 -0.0001 -0.3068
vn -0.9518 -0.0000 -0.3067
vn 0.9389 -0.0000 -0.3443
vn -0.9307 -0.0000 -0.3658
vn -0.9387 0.0001 -0.3446
vn 0.0525 -0.9665 -0.2514
vn -0.0566 -0.9670 -0.2484
vn -0.0656 0.9681 -0.2417
vn 0.0525 0.9665 -0.2514
vn 0.1873 -0.8994 -0.3949
vn 0.1873 0.8994 -0.3949
vn -0.2124 -0.8898 -0.4038
vn -0.2760 0.8629 -0.4234
vn -0.9309 -0.0000 -0.3652
vn -0.9387 0.0010 -0.3446
vn 0.9310 -0.0000 -0.3651
vn -0.2791 -0.0300 -0.9598
vn -0.3098 0.0002 -0.9508
vn 0.3091 -0.0002 -0.9510
vn 0.0920 -0.2769 -0.9565
vn 0.3731 -0.1761 -0.9109
vn 0.2236 -0.0065 -0.9747
vn -0.1354 0.2471 -0.9595
vn 0.2690 0.5311 -0.8035
vn 0.2329 0.0005 -0.9725
vn 0.3731 0.1761 -0.9109
vn 0.2690 -0.5310 -0.8035
vn -0.1242 -0.2586 -0.9580
vn -0.2371 0.0022 -0.9715
vn -0.4071 -0.1550 -0.9002
vn -0.2867 0.5408 -0.7908
vn 0.1257 0.2527 -0.9594
vn -0.4817 0.1050 -0.8700
vn -0.3232 -0.5607 -0.7623
vn -0.3096 0.0002 -0.9509
vn 0.3093 -0.0002 -0.9510
vn 0.3091 -0.0000 -0.9510
vn -0.3092 -0.0000 -0.9510
vn -0.7166 -0.0000 -0.6975
vn -0.5432 -0.4415 -0.7142
vn 0.5124 -0.4693 -0.7191
vn 0.7169 -0.0002 -0.6972
vn 0.7169 -0.0002 -0.6971
vn -0.1498 0.8175 -0.5562
vn 0.1417 0.8148 -0.5621
vn -0.5570 0.4248 -0.7137
vn 0.1418 -0.8148 -0.5622
vn -0.1663 -0.8226 -0.5438
vn 0.5479 0.4337 -0.7153
vn 0.7167 -0.0000 -0.6974
vn 0.5922 -0.1112 -0.7981
vn -0.6012 0.1279 -0.7888
vn -0.3484 0.6959 -0.6279
vn -0.7165 0.0002 -0.6976
vn 0.2593 -0.7183 -0.6456
vn -0.2860 -0.7123 -0.6409
vn -0.5968 -0.1123 -0.7945
vn 0.2593 0.7183 -0.6456
vn 0.5785 0.1362 -0.8042
vn -0.7166 0.0002 -0.6975
vt 0.906134 0.944499
vt 0.596053 0.944499
vt 0.596495 0.027027
vt 0.906134 0.027027
vt 0.757445 0.458007
vt 0.757445 1.054051
vt 0.489695 1.054051
vt 0.489695 0.458007
vt 0.793366 1.052718
vt 0.793366 0.456676
vt 1.062237 0.456676
vt 1.062237 1.052718
vt 0.792327 0.948247
vt 0.483149 0.948247
vt 0.481648 0.030775
vt 0.792768 0.030775
vt -0.159478 0.622526
vt -0.176041 0.622526
vt -0.176041 -0.295007
vt -0.159471 -0.295007
vt 0.020998 -0.293963
vt 0.037561 -0.293963
vt 0.037561 0.623571
vt 0.020998 0.623571
vt 0.372403 0.030775
vt 0.676365 0.030775
vt 0.676365 0.948247
vt 0.372844 0.948247
vt 0.591355 0.458008
vt 0.852175 0.458008
vt 0.852175 1.054050
vt 0.591355 1.054050
vt 0.950377 1.052718
vt 0.688437 1.052718
vt 0.688437 0.456677
vt 0.950377 0.456677
vt 0.261620 0.031023
vt 0.564680 0.031023
vt 0.565121 0.948496
vt 0.260119 0.948496
vt 0.443970 -0.295961
vt 0.454414 -0.295961
vt 0.454414 0.621572
vt 0.443970 0.621572
vt 0.645423 0.945216
vt 0.634979 0.945216
vt 0.634979 0.027682
vt 0.645423 0.027682
vt 0.881370 0.864184
vt 0.885353 0.864184
vt 0.892037 0.870868
vt 0.881370 0.870868
vt 0.981092 0.766928
vt 0.981092 1.070911
vt 0.974973 1.070911
vt 0.974973 0.760809
vt 0.349461 0.031022
vt 0.355579 0.031022
vt 0.355579 0.948498
vt 0.349461 0.948498
vt 0.973539 1.070596
vt 0.973539 0.767089
vt 0.979657 0.760971
vt 0.979657 1.070596
vt 0.935644 0.780774
vt 0.935547 1.041568
vt 0.929483 1.042379
vt 0.928653 0.774656
vt 0.980516 1.054045
vt 0.980516 0.455349
vt 0.986607 0.455349
vt 0.986607 1.054045
vt 0.926987 0.775458
vt 0.927084 1.036270
vt 0.920093 1.042388
vt 0.920922 0.774647
vt 0.952765 0.780403
vt 0.952668 1.042328
vt 0.946605 1.043139
vt 0.945775 0.774285
vt 0.875517 0.455349
vt 0.875517 1.054045
vt 0.869426 1.054045
vt 0.869426 0.455349
vt 0.944108 0.775086
vt 0.944205 1.037030
vt 0.937214 1.043148
vt 0.938043 0.774275
vt 0.907122 0.863330
vt 0.907122 0.872543
vt 0.900453 0.872543
vt 0.900453 0.856662
vt 0.913208 0.872488
vt 0.913208 0.863339
vt 0.919830 0.856718
vt 0.919830 0.872488
vt 0.897953 0.857012
vt 0.897953 0.865259
vt 0.891314 0.871897
vt 0.891314 0.857012
vt 0.885353 0.857521
vt 0.892037 0.857521
vt 0.900775 0.865259
vt 0.900775 0.871897
vt 0.909957 0.863330
vt 0.909957 0.856662
vt 0.909263 0.863339
vt 0.909263 0.856718
vt 0.957328 0.761107
vt 0.957328 1.064182
vt 0.951209 1.070300
vt 0.951209 0.761107
vt 0.997298 0.854707
vt 0.997298 0.549728
vt 1.003415 0.549728
vt 1.003415 0.860824
vt 0.347321 0.948496
vt 0.341203 0.948496
vt 0.341203 0.031023
vt 0.347321 0.031023
vt 0.991536 0.766928
vt 0.991536 0.760809
vt 0.963096 0.767089
vt 0.963089 0.760971
vt 0.986855 0.854707
vt 0.986855 0.860824
vt 0.967772 1.064182
vt 0.967772 1.070300
vt 0.368276 0.622526
vt 0.368276 -0.295007
vt 0.565315 -0.303728
vt 0.565315 -0.293963
vt 0.037561 -0.303728
vt 0.511973 0.141298
vt 0.511973 0.737380
vt -0.018906 0.737380
vt -0.018906 0.141298
vt -0.172916 0.958449
vt -0.172916 0.362367
vt 0.357964 0.362367
vt 0.357964 0.958449
vt -0.022773 0.126726
vt 0.504975 0.126726
vt -0.165917 0.347794
vt 0.361831 0.347794
vt 0.504981 0.751100
vt -0.022773 0.751100
vt 0.361831 0.970668
vt -0.165924 0.970668
vt 0.565315 0.623571
vt 0.565315 0.632291
vt 0.037561 0.632291
vt -0.159471 -0.303727
vt 0.368276 -0.303727
vt -0.159471 0.632291
vt 0.368276 0.632291
vt 0.982168 -0.295961
vt 0.982168 0.621572
vt 1.173178 0.948862
vt 0.645423 0.948862
vt 1.173178 0.945216
vt 0.022508 0.461571
vt 0.546397 0.461571
vt 0.546397 1.057654
vt 0.022508 1.057654
vt 0.742126 1.058144
vt 0.218238 1.058144
vt 0.218238 0.462061
vt 0.742127 0.462061
vt 0.022508 0.453118
vt 0.550264 0.453118
vt 0.214371 0.453608
vt 0.742127 0.453608
vt 0.550264 1.065255
vt 0.022508 1.065255
vt 0.742126 1.064245
vt 0.214371 1.064245
vt 0.645423 0.025080
vt 1.173178 0.025080
vt 1.173178 0.027682
vt 0.982168 0.624174
vt 0.454414 0.624174
vt 0.454414 -0.299607
vt 0.982168 -0.299607
vt 0.194102 -0.305244
vt 0.194102 -0.300308
vt 0.190381 -0.300308
vt 0.190381 -0.308966
vt 0.805700 0.633559
vt 0.815508 0.633559
vt 0.819229 0.637280
vt 0.805700 0.637280
vt 0.815508 -0.305244
vt 0.805700 -0.305244
vt 0.805700 -0.308966
vt 0.819229 -0.308966
vt 0.192581 0.633559
vt 0.201526 0.633559
vt 0.201526 0.637280
vt 0.188860 0.637280
vt 0.201526 -0.305244
vt 0.201526 -0.308966
vt 0.192581 0.629682
vt 0.188860 0.629682
vt 0.815508 0.629682
vt 0.819229 0.629682
vt 0.815508 -0.300308
vt 0.819229 -0.300308
vt 0.369141 -0.295007
vt 0.369141 0.622526
vt 0.820106 0.629682
vt 0.820106 -0.300308
vt 0.369141 0.631932
vt 0.820106 -0.309843
vt 0.566181 -0.303369
vt 0.566181 -0.293963
vt 0.189504 -0.309843
vt 0.189504 -0.300308
vt 0.566181 0.623571
vt 0.187983 0.629682
vt -0.019771 0.737380
vt -0.019771 0.141298
vt 0.201526 0.638157
vt 0.805700 0.638157
vt -0.023639 0.127084
vt 0.820106 0.638157
vt 0.358829 0.362367
vt 0.358829 0.958449
vt 0.805700 -0.309843
vt 0.201526 -0.309843
vt 0.362696 0.970310
vt 0.369141 -0.303369
vt 0.362696 0.348153
vt 0.187983 0.638157
vt -0.023639 0.750742
vt 0.566181 0.631933
vt 0.983034 0.621572
vt 0.983034 0.624532
vt 0.814631 0.629682
vt 0.814631 0.632682
vt 0.814631 -0.300308
vt 0.983034 -0.295961
vt 0.213506 1.064603
vt 0.217373 1.058144
vt 0.194979 -0.304367
vt 0.201526 -0.304367
vt 0.194979 -0.300308
vt 1.174043 0.949220
vt 1.174043 0.945216
vt 0.547262 0.461571
vt 0.547262 1.057654
vt 0.805700 0.632682
vt 0.201526 0.632682
vt 0.551129 1.065614
vt 0.193458 0.632682
vt 0.217373 0.462061
vt 0.213506 0.453249
vt 0.805700 -0.304367
vt 0.814631 -0.304367
vt 0.551129 0.452759
vt 0.983034 -0.299965
vt 1.174043 0.024722
vt 1.174043 0.027682
vt 0.193458 0.629682
s 1
usemtl M_Box_27_0
f 33/1/1 35/2/1 36/3/1 34/4/1
f 32/5/2 31/6/2 37/7/2 38/8/2
f 29/9/3 30/10/3 39/11/3 40/12/3
f 46/13/1 45/14/1 47/15/1 48/16/1
f 25/17/4 33/18/4 34/19/4 26/20/4
f 45/21/5 27/22/6 44/23/6 47/24/5
f 19/25/7 17/26/7 18/27/7 20/28/7
f 1/29/8 6/30/8 5/31/8 3/32/8
f 4/33/9 7/34/9 8/35/9 2/36/9
f 21/37/7 22/38/7 24/39/7 23/40/7
f 17/41/10 15/42/10 14/43/10 18/44/10
f 16/45/11 21/46/12 23/47/12 13/48/11
f 16/49/1 12/50/1 28/51/1 27/52/1
f 17/53/13 19/54/13 35/55/13 33/56/13
f 35/57/14 19/58/14 20/59/14 36/60/14
f 20/61/15 18/62/15 34/63/15 36/64/15
f 3/65/10 5/66/10 37/67/10 31/68/10
f 5/69/16 6/70/16 38/71/16 37/72/16
f 6/73/17 1/74/17 32/75/17 38/76/18
f 2/77/19 8/78/19 39/79/19 30/80/19
f 8/81/20 7/82/20 40/83/20 39/84/20
f 7/85/10 4/86/10 29/87/10 40/88/10
f 10/89/21 2/90/22 30/91/23 41/92/24
f 1/93/25 9/94/26 42/95/27 32/96/28
f 4/97/29 11/98/30 43/99/31 29/100/32
f 12/50/33 3/101/34 31/102/35 28/51/36
f 11/98/1 13/103/1 44/104/1 43/99/1
f 14/105/37 10/89/37 41/92/37 26/106/37
f 9/94/38 15/107/38 25/108/38 42/95/38
f 22/109/13 21/110/13 45/111/13 46/112/13
f 23/113/15 24/114/15 48/115/15 47/116/15
f 22/117/39 46/118/39 48/119/39 24/120/39
f 15/121/13 17/53/13 33/56/13 25/122/13
f 18/62/15 14/123/15 26/124/15 34/63/15
f 13/125/15 23/113/15 47/116/15 44/126/15
f 21/110/13 16/127/13 27/128/13 45/111/13
f 52/129/40 25/17/4 26/20/4 49/130/40
f 55/131/41 58/132/42 27/22/6 28/133/10
f 30/134/15 29/135/15 61/136/43 64/137/44
f 31/138/13 32/139/13 67/140/45 70/141/46
f 30/134/15 64/137/44 73/142/47 41/143/15
f 67/140/45 32/139/13 42/144/13 76/145/48
f 61/136/43 29/135/15 43/146/15 79/147/49
f 31/138/13 70/141/46 55/148/50 28/149/13
f 44/23/6 82/150/51 79/151/41 43/152/10
f 49/130/40 26/20/4 41/153/4 73/154/52
f 42/155/4 25/17/4 52/129/40 76/156/53
f 27/22/6 58/132/42 82/150/51 44/23/6
f 15/42/10 88/157/54 85/158/54 14/43/10
f 91/159/55 12/160/4 16/45/11 94/161/56
f 2/162/13 97/163/57 100/164/58 4/165/13
f 3/166/15 106/167/59 103/168/60 1/169/15
f 2/162/13 10/170/13 109/171/61 97/163/57
f 103/168/60 112/172/62 9/173/15 1/169/15
f 100/164/58 115/174/63 11/175/13 4/165/13
f 3/166/15 12/176/15 91/177/64 106/167/59
f 13/48/11 11/178/4 115/179/65 118/180/66
f 85/158/54 109/181/67 10/182/10 14/43/10
f 9/183/10 112/184/67 88/157/54 15/42/10
f 94/161/56 16/45/11 13/48/11 118/180/66
f 93/185/68 96/186/69 60/187/70 57/188/71
f 99/189/72 111/190/73 75/191/74 66/192/75
f 114/193/76 105/194/77 69/195/78 78/196/79
f 117/197/80 102/198/81 63/199/82 81/200/83
f 108/201/84 93/185/68 57/188/71 72/202/85
f 120/203/86 117/197/80 81/200/83 84/204/87
f 111/190/73 87/205/88 51/206/89 75/191/74
f 90/207/88 114/193/76 78/196/79 54/208/89
f 54/208/89 51/206/89 87/205/88 90/207/88
f 66/192/75 63/199/82 102/198/81 99/189/72
f 72/202/85 69/195/78 105/194/77 108/201/84
f 60/187/70 96/186/69 120/203/86 84/204/87
f 49/130/40 50/209/90 53/210/90 52/129/40
f 50/211/90 51/206/89 54/208/89 53/212/90
f 52/129/40 53/210/90 77/213/91 76/156/53
f 53/212/90 54/208/89 78/196/79 77/214/91
f 55/131/41 56/215/92 59/216/93 58/132/42
f 56/217/92 57/188/71 60/187/70 59/218/93
f 58/132/42 59/216/93 83/219/94 82/150/51
f 59/218/93 60/187/70 84/204/87 83/220/94
f 61/136/43 62/221/95 65/222/96 64/137/44
f 62/223/95 63/199/82 66/192/75 65/224/96
f 64/137/44 65/222/96 74/225/97 73/142/47
f 65/224/96 66/192/75 75/191/74 74/226/97
f 67/140/45 68/227/98 71/228/99 70/141/46
f 68/229/98 69/195/78 72/202/85 71/230/99
f 57/188/71 56/217/92 71/230/99 72/202/85
f 56/231/92 55/148/50 70/141/46 71/228/99
f 51/206/89 50/211/90 74/226/97 75/191/74
f 50/209/90 49/130/40 73/154/52 74/232/97
f 69/195/78 68/229/98 77/214/91 78/196/79
f 68/227/98 67/140/45 76/145/48 77/233/91
f 63/199/82 62/223/95 80/234/100 81/200/83
f 62/221/95 61/136/43 79/147/49 80/235/100
f 81/200/83 80/234/100 83/220/94 84/204/87
f 80/236/100 79/151/41 82/150/51 83/219/94
f 85/158/54 86/237/101 110/238/102 109/181/67
f 86/239/101 87/205/88 111/190/73 110/240/102
f 87/205/88 86/239/101 89/241/101 90/207/88
f 86/237/101 85/158/54 88/157/54 89/242/101
f 91/177/64 92/243/103 107/244/104 106/167/59
f 92/245/103 93/185/68 108/201/84 107/246/104
f 93/185/68 92/245/103 95/247/105 96/186/69
f 92/248/103 91/159/55 94/161/56 95/249/105
f 97/163/57 98/250/106 101/251/107 100/164/58
f 98/252/106 99/189/72 102/198/81 101/253/107
f 100/164/58 101/251/107 116/254/108 115/174/63
f 101/253/107 102/198/81 117/197/80 116/255/108
f 103/168/60 104/256/109 113/257/110 112/172/62
f 104/258/109 105/194/77 114/193/76 113/259/110
f 105/194/77 104/258/109 107/246/104 108/201/84
f 104/256/109 103/168/60 106/167/59 107/244/104
f 99/189/72 98/252/106 110/240/102 111/190/73
f 98/250/106 97/163/57 109/171/61 110/260/102
f 90/207/88 89/241/101 113/259/110 114/193/76
f 89/242/101 88/157/54 112/184/67 113/261/110
f 115/179/65 116/262/108 119/263/111 118/180/66
f 116/255/108 117/197/80 120/203/86 119/264/111
f 96/186/69 95/247/105 119/264/111 120/203/86
f 95/249/105 94/161/56 118/180/66 119/263/111
