# Blender 4.1.0
# www.blender.org
mtllib MeshWindowHung_44X60_0_GeomSubset_1.mtl
o MeshWindowHung_44X60_0_GeomSubset_1
v -0.558800 0.040624 -0.735819
v 0.558800 0.040626 -0.735819
v -0.558800 0.040624 0.788180
v 0.558800 0.040626 0.788180
v -0.558800 -0.040626 -0.735819
v -0.558800 -0.040626 0.788180
v 0.558800 -0.040624 0.788180
v 0.558800 -0.040624 -0.735819
v -0.584036 0.120779 -0.735820
v 0.584036 0.120781 -0.735819
v 0.584036 -0.120779 -0.735819
v -0.584036 -0.120780 -0.735819
v -0.584036 0.092218 -0.790859
v -0.584036 0.120779 -0.754094
v 0.584036 -0.092218 -0.790859
v 0.584036 -0.120779 -0.754094
v -0.584036 -0.092219 -0.790859
v -0.584036 -0.120780 -0.754094
v 0.584036 0.092219 -0.790859
v 0.584036 0.120781 -0.754094
v -0.493065 0.040625 0.722415
v -0.493065 0.040625 -0.669408
v -0.493064 -0.040626 0.722415
v -0.493064 -0.040626 -0.669408
v 0.493064 0.040626 0.722415
v 0.493064 -0.040625 0.722415
v 0.493064 -0.040625 -0.669408
v 0.493064 0.040626 -0.669408
v -0.493065 0.031819 0.722415
v -0.493065 0.031819 -0.669408
v -0.493064 -0.031820 0.722415
v -0.493064 -0.031820 -0.669408
v 0.493064 0.031820 0.722415
v 0.493064 -0.031819 0.722415
v 0.493064 -0.031819 -0.669408
v 0.493064 0.031820 -0.669408
v -0.515903 0.031819 0.745688
v -0.515903 0.031819 -0.735819
v -0.515903 -0.031820 0.745688
v -0.515903 -0.031820 -0.735819
v 0.515903 0.031820 0.745688
v 0.515903 -0.031819 0.745688
v 0.515903 -0.031819 -0.735819
v 0.515903 0.031820 -0.735819
v 0.515409 0.000022 -0.010229
v -0.515736 0.000020 -0.010229
v 0.515409 0.000022 0.745308
v -0.515736 0.000020 0.745308
v 0.515409 -0.031843 0.745308
v -0.515736 -0.031844 0.745308
v 0.515409 -0.031843 -0.010229
v -0.515736 -0.031844 -0.010229
v 0.515409 0.000022 -0.010229
v -0.515736 0.000020 -0.010229
v -0.515736 0.000020 0.745308
v 0.515409 0.000022 0.745308
v 0.515409 -0.031843 0.745308
v -0.515736 -0.031844 0.745308
v -0.515736 -0.031844 -0.010229
v 0.515409 -0.031843 -0.010229
v 0.515409 0.000022 -0.010229
v -0.515736 0.000020 -0.010229
v -0.515736 0.000020 0.745308
v 0.515409 0.000022 0.745308
v 0.515409 -0.031843 0.745308
v -0.515736 -0.031844 0.745308
v -0.515736 -0.031844 -0.010229
v 0.515409 -0.031843 -0.010229
v 0.476829 0.000022 0.029236
v -0.477157 0.000020 0.029236
v -0.477157 0.000020 0.705843
v 0.476829 0.000022 0.705843
v 0.476829 -0.031843 0.705843
v -0.477157 -0.031844 0.705843
v -0.477157 -0.031844 0.029236
v 0.476829 -0.031843 0.029236
v 0.515409 0.031705 -0.735868
v -0.515736 0.031704 -0.735868
v 0.515409 0.031705 0.029236
v -0.515736 0.031704 0.029236
v 0.515409 -0.000160 0.029236
v -0.515736 -0.000161 0.029236
v 0.515409 -0.000160 -0.735868
v -0.515736 -0.000161 -0.735868
v 0.515409 0.031705 -0.735868
v -0.515736 0.031704 -0.735868
v -0.515736 0.031704 0.029236
v 0.515409 0.031705 0.029236
v 0.515409 -0.000160 0.029236
v -0.515736 -0.000161 0.029236
v -0.515736 -0.000161 -0.735868
v 0.515409 -0.000160 -0.735868
v 0.515409 0.031705 -0.735868
v -0.515736 0.031704 -0.735868
v -0.515736 0.031704 0.029236
v 0.515409 0.031705 0.029236
v 0.515409 -0.000160 0.029236
v -0.515736 -0.000161 0.029236
v -0.515736 -0.000161 -0.735868
v 0.515409 -0.000160 -0.735868
v 0.476829 0.031705 -0.653265
v -0.477157 0.031704 -0.653265
v -0.477157 0.031704 -0.010229
v 0.476829 0.031705 -0.010229
v 0.476829 -0.000160 -0.010229
v -0.477157 -0.000161 -0.010229
v -0.477157 -0.000161 -0.653265
v 0.476829 -0.000160 -0.653265
v 0.476829 -0.010460 0.029236
v -0.477157 -0.010461 0.029236
v -0.477157 -0.010461 0.705843
v 0.476829 -0.010460 0.705843
v 0.476829 -0.019734 0.705843
v -0.477157 -0.019735 0.705843
v -0.477157 -0.019735 0.029236
v 0.476829 -0.019734 0.029236
v 0.476829 0.020216 -0.653265
v -0.477157 0.020215 -0.653265
v -0.477157 0.020215 -0.010229
v 0.476829 0.020216 -0.010229
v 0.476829 0.010942 -0.010229
v -0.477157 0.010941 -0.010229
v -0.477157 0.010941 -0.653265
v 0.476829 0.010942 -0.653265
v 0.029656 0.022278 0.028076
v -0.030385 0.022278 0.028076
v 0.020632 0.022278 0.046378
v -0.021361 0.022278 0.046378
v 0.020632 -0.000182 0.046378
v -0.021361 -0.000182 0.046378
v 0.029656 -0.000182 0.028076
v -0.030385 -0.000182 0.028076
v 0.025334 0.022278 0.042929
v 0.025334 -0.000182 0.042929
v -0.026063 -0.000182 0.042929
v -0.026063 0.022278 0.042929
v 0.028084 0.022278 0.037230
v 0.028084 -0.000182 0.037230
v -0.028813 -0.000182 0.037230
v -0.028813 0.022278 0.037230
v -0.048112 -0.000182 0.028076
v -0.048112 0.022278 0.028076
v 0.047383 -0.000182 0.028076
v 0.047383 0.022278 0.028076
v -0.046362 -0.000182 0.034484
v -0.042765 -0.000182 0.037230
v -0.046362 0.022278 0.034484
v -0.042765 0.022278 0.037230
v 0.045632 0.022278 0.034484
v 0.042036 0.022278 0.037230
v 0.045632 -0.000182 0.034484
v 0.042036 -0.000182 0.037230
v -0.042765 0.022278 0.028076
v -0.042765 -0.000182 0.028076
v 0.042036 -0.000182 0.028076
v 0.042036 0.022278 0.028076
v 0.026856 0.026896 0.028076
v -0.027585 0.026896 0.028076
v -0.026159 0.026896 0.037230
v 0.025431 0.026896 0.037230
v -0.023666 0.026896 0.041564
v 0.022937 0.026896 0.041564
v -0.019402 0.026896 0.043776
v 0.018673 0.026896 0.043776
v -0.020855 0.024770 0.045601
v -0.025444 0.024770 0.042771
v -0.028128 0.024770 0.037230
v -0.029662 0.024770 0.028076
v 0.028933 0.024770 0.028076
v 0.027399 0.024770 0.037230
v 0.024715 0.024770 0.042771
v 0.020126 0.024770 0.045601
v -0.006940 0.008298 0.046364
v -0.004161 0.005519 0.046364
v -0.000364 0.004502 0.046364
v 0.003432 0.005519 0.046364
v 0.006211 0.008298 0.046364
v 0.007228 0.012094 0.046364
v 0.006211 0.015890 0.046364
v 0.003432 0.018669 0.046364
v -0.000364 0.019686 0.046364
v -0.004161 0.018669 0.046364
v -0.006940 0.015890 0.046364
v -0.007957 0.012094 0.046364
v -0.006940 0.008298 0.051067
v -0.004161 0.005519 0.051067
v -0.000364 0.004502 0.051067
v 0.003432 0.005519 0.051067
v 0.006211 0.008298 0.051067
v 0.007228 0.012094 0.051067
v 0.006211 0.015890 0.051067
v 0.003432 0.018669 0.051067
v -0.000364 0.019686 0.051067
v -0.004161 0.018669 0.051067
v -0.006940 0.015890 0.051067
v -0.007957 0.012094 0.051067
v -0.000364 0.012094 0.051067
v 0.018775 0.008298 0.046364
v 0.018775 0.008298 0.051067
v 0.018775 0.012094 0.046364
v 0.018775 0.012094 0.051067
v 0.018775 0.015890 0.046364
v 0.018775 0.015890 0.051067
v -0.000364 0.012094 0.046364
v 0.028532 0.010102 0.046364
v 0.028532 0.012094 0.046364
v 0.028532 0.012094 0.051793
v 0.028532 0.010102 0.051793
v 0.028532 0.014086 0.046364
v 0.028532 0.014086 0.051793
v 0.034482 0.010693 0.045233
v 0.034482 0.012094 0.045233
v 0.036532 0.012094 0.051793
v 0.036532 0.010693 0.051793
v 0.034482 0.013495 0.045233
v 0.036532 0.013495 0.051793
v 0.040075 0.010927 0.037706
v 0.040075 0.012094 0.037706
v 0.052114 0.012094 0.037656
v 0.052114 0.010927 0.037656
v 0.040075 0.013261 0.037706
v 0.052114 0.013261 0.037656
v 0.037182 0.010927 0.043730
v 0.039363 0.010927 0.040440
v 0.037183 0.012094 0.043730
v 0.039363 0.012094 0.040440
v 0.045337 0.012094 0.049531
v 0.050485 0.012094 0.044088
v 0.045318 0.010927 0.049534
v 0.050486 0.010927 0.044070
v 0.037183 0.013261 0.043730
v 0.039363 0.013261 0.040440
v 0.045318 0.013261 0.049534
v 0.050486 0.013261 0.044070
vn -1.0000 -0.0000 -0.0000
vn -0.0000 -0.0000 1.0000
vn 1.0000 -0.0000 -0.0000
vn -0.0000 -0.0000 -1.0000
vn -0.0000 1.0000 -0.0000
vn -0.0000 -1.0000 -0.0000
vt -17.867254 2.855616
vt -17.860008 2.855616
vt -17.860008 3.384285
vt -17.867254 3.384285
vt -20.107021 0.986940
vt -20.099775 0.986940
vt -20.099775 1.732190
vt -20.107021 1.732190
vt -17.913826 3.384253
vt -17.921072 3.384253
vt -17.921072 2.855649
vt -17.913826 2.855649
vt -20.035179 1.732199
vt -20.042425 1.732199
vt -20.042425 0.986930
vt -20.035179 0.986930
vt -19.765507 1.049236
vt -19.236908 1.049236
vt -19.236908 1.794536
vt -19.765507 1.794536
vt -18.757792 1.437966
vt -18.229193 1.437966
vt -18.229193 2.183268
vt -18.757792 2.183268
vt -18.146570 2.717839
vt -18.139324 2.717839
vt -18.139324 3.220204
vt -18.146570 3.220204
vt -17.962393 1.437959
vt -17.955149 1.437959
vt -17.955149 2.183274
vt -17.962393 2.183274
vt -18.193142 3.220212
vt -18.200388 3.220212
vt -18.200388 2.717831
vt -18.193142 2.717831
vt -17.890553 2.310404
vt -17.897797 2.310404
vt -17.897797 1.565097
vt -17.890553 1.565097
vt -17.631559 1.565100
vt -17.129187 1.565100
vt -17.129187 2.310401
vt -17.631559 2.310401
vt -17.096750 2.943902
vt -16.594378 2.943902
vt -16.594378 3.689203
vt -17.096750 3.689203
s 1
usemtl M_WindowHung_44X60_1
f 110/1/1 115/2/1 114/3/1 111/4/1
f 111/5/2 114/6/2 113/7/2 112/8/2
f 112/9/3 113/10/3 116/11/3 109/12/3
f 109/13/4 116/14/4 115/15/4 110/16/4
f 110/17/5 111/18/5 112/19/5 109/20/5
f 114/21/6 115/22/6 116/23/6 113/24/6
f 118/25/1 123/26/1 122/27/1 119/28/1
f 119/29/2 122/30/2 121/31/2 120/32/2
f 120/33/3 121/34/3 124/35/3 117/36/3
f 117/37/4 124/38/4 123/39/4 118/40/4
f 118/41/5 119/42/5 120/43/5 117/44/5
f 122/45/6 123/46/6 124/47/6 121/48/6
