# Blender 4.1.1
# www.blender.org
mtllib LightSwitchDial_16_LightSwitchDial_16_1_GeomSubset_0.mtl
o LightSwitchDial_16_LightSwitchDial_16_1_GeomSubset_0
v 0.001152 0.008609 0.094930
v 0.000152 0.008609 0.094930
v 0.001152 0.009608 0.094930
v 0.000152 0.009608 0.094930
v 0.001152 0.008609 0.094930
v 0.000152 0.008609 0.094930
v 0.001152 0.009608 0.094930
v 0.000152 0.009608 0.094930
v 0.001152 0.008609 0.094930
v 0.000152 0.008609 0.094930
v 0.001152 0.009608 0.094930
v 0.000152 0.009608 0.094930
v 0.023889 -0.006008 0.043725
v 0.023889 -0.007458 0.045176
v 0.025339 -0.006008 0.045176
v -0.025339 -0.006008 0.045176
v -0.023889 -0.007458 0.045176
v -0.023889 -0.006008 0.043725
v 0.025339 -0.006008 0.060251
v 0.023889 -0.007458 0.060251
v 0.023889 -0.006008 0.061702
v -0.023889 -0.006008 0.061702
v -0.023889 -0.007458 0.060251
v -0.025339 -0.006008 0.060251
v 0.025339 -0.002460 0.060251
v 0.023889 -0.002460 0.061702
v -0.023889 -0.002460 0.061702
v -0.025339 -0.002460 0.060251
v 0.025339 -0.002460 0.045176
v 0.023889 -0.002460 0.043725
v -0.023889 -0.002460 0.043725
v -0.025339 -0.002460 0.045176
vn -0.0000 -0.0000 -1.0000
vt 1.313268 0.529178
vt 1.313268 0.522974
vt 1.319471 0.522974
vt 1.319471 0.529178
s 1
usemtl M_LightSwitchDial_16_0
f 1/1/1 2/2/1 4/3/1 3/4/1
