# Blender 4.1.0
# www.blender.org
mtllib ToasterLever_6_ToasterLever_6_1_GeomSubset_4.mtl
o ToasterLever_6_ToasterLever_6_1_GeomSubset_4
v -0.002036 -0.165164 0.059958
v -0.002036 -0.169235 0.059958
v 0.002036 -0.165164 0.059958
v 0.002036 -0.169235 0.059958
v -0.002036 -0.165164 0.059958
v -0.002036 -0.169235 0.059958
v 0.002036 -0.165164 0.059958
v 0.002036 -0.169235 0.059958
v -0.002036 -0.165164 0.059958
v -0.002036 -0.169235 0.059958
v 0.002036 -0.165164 0.059958
v 0.002036 -0.169235 0.059958
v -0.002036 -0.165164 0.059958
v -0.002036 -0.169235 0.059958
v 0.002036 -0.165164 0.059958
v 0.002036 -0.169235 0.059958
v -0.002036 -0.165164 0.059958
v -0.002036 -0.169235 0.059958
v 0.002036 -0.165164 0.059958
v 0.002036 -0.169235 0.059958
v -0.002036 -0.165164 0.059958
v -0.002036 -0.169235 0.059958
v 0.002036 -0.165164 0.059958
v 0.002036 -0.169235 0.059958
v 0.010317 -0.179206 0.056351
v 0.010317 -0.177057 0.055403
v 0.012466 -0.177057 0.056351
v 0.013357 -0.177057 0.058216
v 0.012466 -0.179206 0.058216
v 0.010317 -0.180096 0.058216
v 0.010317 -0.154273 0.056351
v 0.010317 -0.153383 0.058216
v 0.012466 -0.154273 0.058216
v 0.013357 -0.156423 0.058216
v 0.012466 -0.156423 0.056351
v 0.010317 -0.156423 0.055403
v -0.012466 -0.179206 0.058216
v -0.010317 -0.180096 0.058216
v -0.013356 -0.177057 0.058216
v -0.012466 -0.154273 0.058216
v -0.013356 -0.156423 0.058216
v -0.010317 -0.153383 0.058216
v -0.010317 -0.179206 0.056351
v -0.012466 -0.177057 0.056351
v -0.010317 -0.177057 0.055403
v -0.010317 -0.154273 0.056351
v -0.010317 -0.156423 0.055403
v -0.012466 -0.156423 0.056351
v 0.012071 -0.178811 0.056772
v 0.012071 -0.154669 0.056772
v -0.012071 -0.178811 0.056772
v -0.012071 -0.154669 0.056772
v 0.003163 -0.154613 0.057889
v 0.003163 -0.138968 0.057889
v 0.003163 -0.154613 0.061803
v 0.003163 -0.138968 0.061803
v -0.003163 -0.154613 0.061803
v -0.003163 -0.138968 0.061803
v -0.003163 -0.154613 0.057889
v -0.003163 -0.138968 0.057889
v 0.010317 -0.180096 0.061845
v 0.010317 -0.179206 0.063709
v -0.010317 -0.179206 0.063709
v -0.010317 -0.180096 0.061845
v 0.010317 -0.177057 0.064658
v -0.010317 -0.177057 0.064658
v 0.012466 -0.177057 0.063709
v 0.012466 -0.156423 0.063709
v 0.010317 -0.156423 0.064658
v 0.013357 -0.177057 0.061845
v 0.013357 -0.156423 0.061845
v 0.010317 -0.154273 0.063709
v -0.010317 -0.154273 0.063709
v -0.010317 -0.156423 0.064658
v 0.010317 -0.153383 0.061845
v -0.010317 -0.153383 0.061845
v -0.013356 -0.177057 0.061845
v -0.012466 -0.177057 0.063709
v -0.012466 -0.156423 0.063709
v -0.013356 -0.156423 0.061845
v 0.012071 -0.178811 0.063289
v 0.012466 -0.179206 0.061845
v 0.012466 -0.154273 0.061845
v 0.012071 -0.154669 0.063289
v -0.012466 -0.179206 0.061845
v -0.012071 -0.178811 0.063289
v -0.012466 -0.154273 0.061845
v -0.012071 -0.154669 0.063289
v 0.000000 -0.179206 0.063709
v 0.000000 -0.180096 0.061845
v 0.000000 -0.180096 0.058216
v 0.000000 -0.179206 0.056351
v 0.000000 -0.177057 0.055403
v 0.000000 -0.156423 0.055403
v 0.000000 -0.154273 0.056351
v 0.000000 -0.153383 0.058216
v 0.000000 -0.153383 0.061845
v 0.000000 -0.154273 0.063709
v 0.000000 -0.156423 0.064658
v 0.000000 -0.177057 0.064658
vn 0.8471 -0.0000 0.5314
vn -0.0000 0.8471 0.5314
vn -0.8471 -0.0000 0.5314
vn -0.0000 -0.8471 0.5314
vt -0.024476 -18.597717
vt 0.766515 -18.597717
vt 0.766515 -17.806725
vt -0.024476 -17.806725
s 1
usemtl M_ToasterLever_6_4
f 17/1/1 18/2/2 20/3/3 19/4/4
