# Blender 4.1.0
# www.blender.org
mtllib LightSwitchDial_17_LightSwitchDial_17_1_GeomSubset_2.mtl
o LightSwitchDial_17_LightSwitchDial_17_1_GeomSubset_2
v -0.000500 0.007044 -0.009627
v 0.000500 0.007044 -0.009627
v -0.000500 0.008044 -0.009627
v 0.000500 0.008044 -0.009627
v -0.000500 0.007044 -0.009627
v 0.000500 0.007044 -0.009627
v -0.000500 0.008044 -0.009627
v 0.000500 0.008044 -0.009627
v -0.000500 0.007044 -0.009627
v 0.000500 0.007044 -0.009627
v -0.000500 0.008044 -0.009627
v 0.000500 0.008044 -0.009627
v -0.015561 -0.006208 0.044437
v -0.017067 -0.007371 0.044437
v -0.017067 -0.006208 0.045943
v -0.049697 -0.006208 0.045943
v -0.049697 -0.007370 0.044437
v -0.051204 -0.006208 0.044437
v -0.049697 -0.003363 0.045943
v -0.051204 -0.003363 0.044437
v -0.017067 -0.003363 0.045943
v -0.015561 -0.003363 0.044437
v -0.015561 -0.006208 -0.050933
v -0.017067 -0.007371 -0.050933
v -0.017067 -0.006208 -0.052440
v -0.049697 -0.006208 -0.052440
v -0.049697 -0.007370 -0.050933
v -0.051204 -0.006208 -0.050933
v -0.049697 -0.003363 -0.052440
v -0.051204 -0.003363 -0.050933
v -0.017067 -0.003363 -0.052440
v -0.015561 -0.003363 -0.050933
vn -0.0000 -0.0000 1.0000
vt 1.251625 0.525988
vt 1.251625 0.522975
vt 1.254637 0.522975
vt 1.254637 0.525988
s 1
usemtl M_LightSwitchDial_17_2
f 9/1/1 10/2/1 12/3/1 11/4/1
