# Blender 4.1.0
# www.blender.org
mtllib MeshLightSwitch_17_0_GeomSubset_0.mtl
o MeshLightSwitch_17_0_GeomSubset_0
v -0.000500 0.007044 -0.009627
v 0.000500 0.007044 -0.009627
v -0.000500 0.008044 -0.009627
v 0.000500 0.008044 -0.009627
v -0.000500 0.007044 -0.009627
v 0.000500 0.007044 -0.009627
v -0.000500 0.008044 -0.009627
v 0.000500 0.008044 -0.009627
v -0.000500 0.007044 -0.009627
v 0.000500 0.007044 -0.009627
v -0.000500 0.008044 -0.009627
v 0.000500 0.008044 -0.009627
v 0.000004 -0.003503 0.045913
v 0.000004 -0.004887 0.064451
v 0.000004 -0.004019 0.066545
v 0.000004 -0.001925 0.067413
v 0.000004 0.005913 0.067413
v 0.000004 -0.003503 -0.052421
v 0.000004 -0.004889 -0.069751
v 0.000004 -0.004758 0.053438
v 0.000004 -0.004758 -0.060006
v 0.000004 -0.003576 -0.071851
v 0.000004 -0.001483 -0.072719
v 0.000004 0.005913 -0.072719
v 0.000004 -0.007281 0.052669
v 0.000004 -0.006588 0.053426
v 0.000004 -0.006579 0.045901
v 0.000004 -0.007276 0.046594
v 0.000004 -0.006588 -0.059994
v 0.000004 -0.007281 -0.059237
v 0.000004 -0.007276 -0.053103
v 0.000004 -0.006579 -0.052409
v -0.069758 -0.001927 -0.069751
v -0.069069 -0.004022 -0.069751
v -0.067405 -0.004889 -0.069751
v -0.069069 -0.001925 0.066545
v -0.067405 -0.001925 0.067413
v -0.067405 -0.004019 0.066545
v -0.067405 -0.004887 0.064451
v -0.069069 -0.004019 0.064451
v -0.069758 -0.001925 0.064451
v -0.067405 0.005913 0.067413
v -0.069069 0.005913 0.066545
v -0.069758 0.005913 0.064451
v -0.069758 0.005913 -0.069751
v -0.068763 -0.003634 0.066160
v -0.051090 -0.003503 -0.052421
v -0.051090 -0.003503 0.045913
v -0.056966 -0.004758 0.053438
v -0.056966 -0.004758 -0.060006
v -0.067405 -0.003576 -0.071851
v -0.067405 -0.001483 -0.072719
v -0.069069 -0.001483 -0.071851
v -0.069069 0.005913 -0.071851
v -0.067405 0.005913 -0.072719
v -0.068763 -0.003192 -0.071467
v -0.056962 -0.006587 0.053432
v -0.056311 -0.007281 0.052676
v -0.051638 -0.007277 0.046601
v -0.051087 -0.006579 0.045907
v -0.056962 -0.006587 -0.060000
v -0.056311 -0.007281 -0.059244
v -0.051638 -0.007277 -0.053109
v -0.051087 -0.006579 -0.052415
v 0.069781 -0.001927 -0.069751
v 0.069091 -0.004022 -0.069751
v 0.067427 -0.004889 -0.069751
v 0.069091 -0.001925 0.066545
v 0.067427 -0.001925 0.067413
v 0.067427 -0.004019 0.066545
v 0.067427 -0.004887 0.064451
v 0.069091 -0.004019 0.064451
v 0.069781 -0.001925 0.064451
v 0.067427 0.005913 0.067413
v 0.069091 0.005913 0.066545
v 0.069781 0.005913 0.064451
v 0.069781 0.005913 -0.069751
v 0.068785 -0.003634 0.066160
v 0.051109 -0.003503 -0.052421
v 0.051109 -0.003503 0.045913
v 0.056986 -0.004758 0.053438
v 0.056986 -0.004758 -0.060006
v 0.067427 -0.003576 -0.071851
v 0.067427 -0.001483 -0.072719
v 0.069091 -0.001483 -0.071851
v 0.069091 0.005913 -0.071851
v 0.067427 0.005913 -0.072719
v 0.068785 -0.003192 -0.071467
v 0.056983 -0.006587 0.053432
v 0.056331 -0.007281 0.052676
v 0.051657 -0.007277 0.046601
v 0.051105 -0.006579 0.045907
v 0.056983 -0.006587 -0.060000
v 0.056331 -0.007281 -0.059244
v 0.051657 -0.007277 -0.053109
v 0.051105 -0.006579 -0.052415
vn -0.0000 -0.0000 1.0000
vn -0.0000 -0.9943 -0.1071
vn -0.0816 -0.9946 -0.0644
vn -0.0083 -0.6569 -0.7540
vn -0.0000 -0.6570 -0.7539
vn -0.0117 -0.0905 -0.9958
vn -0.0000 -0.0911 -0.9958
vn -0.9976 -0.0691 -0.0045
vn -1.0000 -0.0000 -0.0051
vn -0.7873 -0.0000 -0.6166
vn -0.7906 -0.0508 -0.6102
vn -0.0127 -0.0000 -0.9999
vn -0.0814 -0.9958 0.0410
vn -0.7828 -0.6223 0.0039
vn -0.7824 -0.6227 -0.0055
vn -0.9976 -0.0691 0.0048
vn -0.0117 -0.0864 0.9962
vn -0.0127 -0.0000 0.9999
vn -0.7829 -0.0000 0.6222
vn -0.7802 -0.0549 0.6232
vn -1.0000 -0.0000 0.0052
vn -0.0000 -0.0000 -1.0000
vn -0.6513 -0.4870 -0.5820
vn -0.6673 -0.5266 0.5267
vn -0.0084 -0.7070 0.7072
vn -0.0000 -0.9999 0.0134
vn 0.0084 -1.0000 0.0043
vn 0.0082 -1.0000 -0.0040
vn -0.0000 -0.9999 -0.0117
vn -0.0000 -0.7071 0.7071
vn -0.0000 -0.9238 0.3829
vn -0.0000 -0.0871 0.9962
vn -0.0000 -1.0000 -0.0000
vn -0.0000 -0.2894 0.9572
vn 0.0001 -0.2109 0.9775
vn -0.0000 -0.9779 0.2091
vn 0.0001 -0.9945 0.1048
vn -0.9862 -0.1658 0.0004
vn -0.9861 -0.1659 -0.0000
vn -0.3386 -0.9409 -0.0000
vn -0.3371 -0.9415 -0.0000
vn -0.0000 -0.9951 -0.0989
vn -0.0000 -0.9987 -0.0502
vn -0.0003 -0.2229 -0.9748
vn -0.0000 -0.1794 -0.9838
vn 0.0499 -0.9988 -0.0000
vn 0.0498 -0.9988 -0.0000
vn 0.9819 -0.1894 -0.0004
vn 0.9819 -0.1894 -0.0000
vn -0.0002 -0.2106 -0.9776
vn -0.0000 -0.2890 -0.9573
vn -0.0000 -0.9946 -0.1041
vn -0.0000 -0.9783 -0.2071
vn -0.0000 -0.9988 0.0499
vn -0.0001 -0.9952 0.0980
vn -0.0000 -0.1796 0.9837
vn -0.0001 -0.2230 0.9748
vn 0.0001 -0.0049 1.0000
vn -0.0000 -0.0049 1.0000
vn -0.0001 0.0029 -1.0000
vn -0.0000 0.0029 -1.0000
vn -1.0000 -0.0022 -0.0000
vn 1.0000 0.0010 -0.0000
vn -0.0000 -0.0049 -1.0000
vn 0.0003 -0.0042 -1.0000
vn -0.0000 0.0029 1.0000
vn -0.0001 0.0029 1.0000
vn 0.0082 -0.6569 -0.7540
vn 0.0816 -0.9946 -0.0644
vn 0.0117 -0.0904 -0.9958
vn 0.9976 -0.0692 -0.0045
vn 0.7905 -0.0508 -0.6104
vn 0.7872 -0.0000 -0.6167
vn 1.0000 -0.0000 -0.0051
vn 0.0127 -0.0000 -0.9999
vn 0.7824 -0.6228 -0.0055
vn 0.7827 -0.6224 0.0039
vn 0.0812 -0.9959 0.0409
vn 0.9976 -0.0690 0.0049
vn 0.0117 -0.0864 0.9962
vn 0.7801 -0.0549 0.6233
vn 0.7828 -0.0000 0.6222
vn 0.0127 -0.0000 0.9999
vn 1.0000 -0.0000 0.0052
vn 0.6512 -0.4870 -0.5821
vn 0.6671 -0.5267 0.5268
vn 0.0084 -0.7071 0.7071
vn -0.0084 -1.0000 0.0043
vn -0.0082 -1.0000 -0.0040
vn -0.0000 -0.9779 0.2092
vn 0.9862 -0.1658 -0.0000
vn 0.3371 -0.9415 -0.0000
vn 0.3385 -0.9410 -0.0000
vn 0.9861 -0.1660 -0.0004
vn 0.0001 -0.2228 -0.9749
vn -0.0500 -0.9987 -0.0000
vn -0.9819 -0.1895 0.0004
vn -0.9819 -0.1895 -0.0000
vn -0.0499 -0.9988 -0.0000
vn -0.0001 -0.2107 -0.9776
vn 0.0004 -0.2229 0.9748
vn -0.0001 -0.0049 1.0000
vn 0.0001 0.0029 -1.0000
vn 1.0000 -0.0024 -0.0000
vn -1.0000 0.0013 -0.0000
vn -0.0001 -0.0049 -1.0000
vn 0.0001 0.0029 1.0000
vt 1.127746 0.673550
vt 1.127746 0.672478
vt 1.128817 0.672478
vt 1.128817 0.673550
vt 0.544273 0.425561
vt 0.544273 0.565141
vt 0.541554 0.565141
vt 0.541554 0.425561
vt 0.537219 0.565141
vt 0.537219 0.425561
vt 0.362447 0.293805
vt 0.347037 0.293805
vt 0.347037 0.289676
vt 0.361572 0.289676
vt 0.537219 0.568587
vt 0.521905 0.568587
vt 0.521905 0.565141
vt 0.305759 0.293706
vt 0.305759 0.557655
vt 0.302486 0.557655
vt 0.302486 0.293706
vt 0.366564 0.293805
vt 0.366557 0.557556
vt 0.362440 0.557556
vt 0.540880 0.558533
vt 0.556341 0.558533
vt 0.556341 0.561816
vt 0.540880 0.561816
vt 0.362440 0.561671
vt 0.347037 0.561671
vt 0.347037 0.557556
vt 0.521905 0.425561
vt 0.540758 0.567954
vt 0.364931 0.290432
vt 0.303087 0.290331
vt 0.305759 0.289574
vt 0.365799 0.560915
vt 0.537509 0.561213
vt 0.536748 0.558533
vt 0.305759 0.561773
vt 0.303087 0.561016
vt 0.438338 0.293706
vt 0.438338 0.312872
vt 0.326288 0.312872
vt 0.326288 0.535994
vt 0.438338 0.535994
vt 0.438338 0.557655
vt 0.438338 0.561773
vt 0.540880 0.425560
vt 0.536748 0.425560
vt 0.556341 0.425560
vt 0.365638 0.555837
vt 0.557696 0.555837
vt 0.557696 0.655631
vt 0.365638 0.655631
vt 0.554154 0.412583
vt 0.554156 0.530928
vt 0.552714 0.529574
vt 0.552714 0.412583
vt 0.565779 0.528575
vt 0.565779 0.296020
vt 0.567202 0.297570
vt 0.567202 0.527025
vt 0.527917 0.556425
vt 0.527918 0.661067
vt 0.526506 0.659949
vt 0.526504 0.556425
vt 0.401332 0.654330
vt 0.401332 0.454656
vt 0.402728 0.456046
vt 0.402728 0.652940
vt 0.561154 0.530925
vt 0.561156 0.412583
vt 0.562595 0.412583
vt 0.562595 0.529571
vt 0.514403 0.661070
vt 0.514404 0.556425
vt 0.515817 0.556425
vt 0.515815 0.659952
vt 0.697233 0.671172
vt 0.685368 0.662046
vt 0.685355 0.561182
vt 0.697220 0.561182
vt 0.478639 0.671173
vt 0.490621 0.662046
vt 0.478652 0.561182
vt 0.490634 0.561182
vt 0.557955 0.530936
vt 0.557955 0.412583
vt 0.520273 0.659957
vt 0.520273 0.556425
vt 0.562030 0.296009
vt 0.562030 0.528588
vt 0.408887 0.456035
vt 0.408887 0.652952
vt 0.557355 0.412583
vt 0.557355 0.530933
vt 0.522047 0.556425
vt 0.522047 0.659959
vt 0.541554 0.285951
vt 0.544273 0.285951
vt 0.537219 0.285951
vt 0.514216 0.293803
vt 0.515090 0.289674
vt 0.529625 0.289674
vt 0.529625 0.293803
vt 0.537219 0.282505
vt 0.521905 0.285951
vt 0.521905 0.282505
vt 0.570945 0.293706
vt 0.574219 0.293706
vt 0.574219 0.557655
vt 0.570945 0.557655
vt 0.510099 0.293803
vt 0.514222 0.557558
vt 0.510105 0.557558
vt 0.540880 0.292559
vt 0.540880 0.289276
vt 0.556341 0.289276
vt 0.556341 0.292559
vt 0.514222 0.561673
vt 0.529625 0.557558
vt 0.529625 0.561673
vt 0.540758 0.283138
vt 0.511731 0.290430
vt 0.570945 0.289574
vt 0.573617 0.290331
vt 0.510863 0.560917
vt 0.536748 0.292559
vt 0.537509 0.289879
vt 0.570945 0.561773
vt 0.573617 0.561016
vt 0.550411 0.312872
vt 0.550411 0.535994
vt 0.365638 0.456023
vt 0.557696 0.456023
vt 0.552714 0.295567
vt 0.554156 0.294213
vt 0.568093 0.528576
vt 0.566671 0.527026
vt 0.566671 0.297569
vt 0.568093 0.296019
vt 0.526506 0.452879
vt 0.527918 0.451761
vt 0.403017 0.654326
vt 0.401621 0.652936
vt 0.401621 0.456051
vt 0.403017 0.454660
vt 0.561154 0.294216
vt 0.562595 0.295570
vt 0.514403 0.451759
vt 0.515815 0.452877
vt 0.697233 0.451168
vt 0.685368 0.460297
vt 0.478639 0.451168
vt 0.490621 0.460297
vt 0.557955 0.294206
vt 0.520273 0.452872
vt 0.571842 0.296007
vt 0.571842 0.528589
vt 0.395462 0.456039
vt 0.395462 0.652948
vt 0.557355 0.294208
vt 0.522047 0.452869
s 1
usemtl M_LightSwitch_17_0
f 1/1/1 2/2/1 4/3/1 3/4/1
f 19/5/2 35/6/3 51/7/4 22/8/5
f 22/8/5 51/7/4 52/9/6 23/10/7
f 33/11/8 45/12/9 54/13/10 53/14/11
f 53/15/11 54/16/10 55/17/12 52/9/6
f 35/18/3 39/19/13 40/20/14 34/21/15
f 34/22/15 40/23/14 41/24/16 33/11/8
f 37/25/17 42/26/18 43/27/19 36/28/20
f 36/29/20 43/30/19 44/31/21 41/24/16
f 23/10/7 52/9/6 55/17/12 24/32/22
f 33/11/8 41/24/16 44/31/21 45/12/9
f 51/7/4 56/33/23 53/15/11 52/9/6
f 53/14/11 56/34/23 34/22/15 33/11/8
f 34/21/15 56/35/23 51/36/4 35/18/3
f 40/23/14 46/37/24 36/29/20 41/24/16
f 36/28/20 46/38/24 38/39/25 37/25/17
f 38/40/25 46/41/24 40/20/14 39/19/13
f 19/42/2 21/43/26 50/44/27 35/18/3
f 35/18/3 50/44/27 49/45/28 39/19/13
f 39/19/13 49/45/28 20/46/29 14/47/29
f 15/48/30 38/40/25 39/19/13 14/47/31
f 16/49/32 37/25/17 38/39/25 15/50/30
f 17/51/1 42/26/18 37/25/17 16/49/32
f 18/52/33 13/53/33 48/54/33 47/55/33
f 26/56/34 57/57/35 58/58/36 25/59/37
f 57/60/38 61/61/39 62/62/40 58/63/41
f 28/64/42 59/65/43 60/66/44 27/67/45
f 59/68/46 63/69/47 64/70/48 60/71/49
f 61/72/50 29/73/51 30/74/52 62/75/53
f 63/76/54 31/77/55 32/78/56 64/79/57
f 58/80/36 59/81/43 28/82/42 25/83/37
f 62/84/40 63/85/47 59/81/46 58/80/41
f 30/86/52 31/87/55 63/85/54 62/84/53
f 49/88/58 57/57/35 26/56/34 20/89/59
f 48/90/60 13/91/61 27/67/45 60/66/44
f 50/92/62 61/61/39 57/60/38 49/93/62
f 47/94/63 48/95/63 60/71/49 64/70/48
f 21/96/64 29/73/51 61/72/50 50/97/65
f 18/98/66 47/99/67 64/79/57 32/78/56
f 19/5/2 22/8/5 83/100/68 67/101/69
f 22/8/5 23/10/7 84/102/70 83/100/68
f 65/103/71 85/104/72 86/105/73 77/106/74
f 85/107/72 84/102/70 87/108/75 86/109/73
f 67/110/69 66/111/76 72/112/77 71/113/78
f 66/114/76 65/103/71 73/115/79 72/116/77
f 69/117/80 68/118/81 75/119/82 74/120/83
f 68/121/81 73/115/79 76/122/84 75/123/82
f 23/10/7 24/32/22 87/108/75 84/102/70
f 65/103/71 77/106/74 76/122/84 73/115/79
f 83/100/68 84/102/70 85/107/72 88/124/85
f 85/104/72 65/103/71 66/114/76 88/125/85
f 66/111/76 67/110/69 83/126/68 88/127/85
f 72/116/77 73/115/79 68/121/81 78/128/86
f 68/118/81 69/117/80 70/129/87 78/130/86
f 70/131/87 71/113/78 72/112/77 78/132/86
f 19/42/2 67/110/69 82/133/88 21/43/26
f 67/110/69 71/113/78 81/134/89 82/133/88
f 71/113/78 14/47/29 20/46/29 81/134/89
f 15/48/30 14/47/31 71/113/78 70/131/87
f 16/49/32 15/50/30 70/129/87 69/117/80
f 17/51/1 16/49/32 69/117/80 74/120/83
f 18/52/33 79/135/33 80/136/33 13/53/33
f 26/56/34 25/59/37 90/137/90 89/138/35
f 89/139/91 90/140/92 94/141/93 93/142/94
f 28/64/42 27/67/45 92/143/95 91/144/43
f 91/145/96 92/146/97 96/147/98 95/148/99
f 93/149/100 94/150/53 30/74/52 29/73/51
f 95/151/54 96/152/101 32/78/56 31/77/55
f 90/153/90 25/83/37 28/82/42 91/154/43
f 94/155/93 90/153/92 91/154/96 95/156/99
f 30/86/52 94/155/53 95/156/54 31/87/55
f 81/157/102 20/89/59 26/56/34 89/138/35
f 80/158/103 92/143/95 27/67/45 13/91/61
f 82/159/104 81/160/104 89/139/91 93/142/94
f 79/161/105 96/147/98 92/146/97 80/162/105
f 21/96/64 82/163/106 93/149/100 29/73/51
f 18/98/66 32/78/56 96/152/101 79/164/107
