# Blender 4.1.1
# www.blender.org
mtllib MeshShelvingUnit_215_0_GeomSubset_0.mtl
o MeshShelvingUnit_215_0_GeomSubset_0
v -0.916352 0.263111 0.502908
v 0.915832 0.263120 0.503564
v 0.915839 0.263121 0.483514
v -0.916345 0.263110 0.482888
v 0.915827 -0.263125 0.503564
v -0.916349 -0.263134 0.502908
v -0.916343 -0.263135 0.482888
v 0.915841 -0.263124 0.483513
v 0.921852 0.257078 0.503568
v 0.921847 -0.257082 0.503568
v 0.921853 -0.257080 0.483518
v 0.921858 0.257080 0.483518
v 0.915842 0.257077 0.477502
v 0.915838 -0.257083 0.477501
v -0.916338 -0.257091 0.476845
v -0.916341 0.257070 0.476846
v 0.915836 0.257078 0.509575
v -0.916348 0.257070 0.508950
v -0.916345 -0.257091 0.508950
v 0.915823 -0.257082 0.509575
v -0.922365 0.257068 0.482884
v -0.922362 -0.257093 0.482884
v -0.922376 -0.257092 0.502903
v -0.922364 0.257069 0.502903
v 0.804974 0.134825 -0.318626
v -0.804928 0.134816 -0.319220
v -0.804926 -0.134837 -0.319220
v 0.804975 -0.134829 -0.318626
v -0.806892 0.134816 -0.320015
v -0.804927 0.136769 -0.320014
v -0.804925 -0.136790 -0.320014
v -0.806890 -0.134837 -0.320015
v 0.804976 -0.136783 -0.319450
v 0.806940 -0.134829 -0.319449
v 0.806939 0.134825 -0.319449
v 0.804974 0.136777 -0.319450
v 0.804830 0.134825 0.110207
v -0.805071 0.134816 0.109674
v -0.805078 -0.134837 0.109674
v 0.804824 -0.134829 0.110207
v -0.807039 0.134816 0.108818
v -0.805078 0.136769 0.108819
v -0.805077 -0.136790 0.108819
v -0.807038 -0.134837 0.108818
v 0.804824 -0.136783 0.109413
v 0.806793 -0.134830 0.109415
v 0.806791 0.134824 0.109415
v 0.804830 0.136777 0.109413
v -0.865281 0.129994 0.471998
v -0.864856 0.129993 -0.766100
v -0.794583 0.129994 -0.766051
v -0.795015 0.129994 0.472047
v 0.794516 0.130002 0.472565
v 0.794941 0.130002 -0.765502
v 0.865213 0.130002 -0.765484
v 0.864783 0.130002 0.472583
v 0.788597 -0.135928 0.472561
v 0.789027 -0.135927 -0.765506
v 0.789027 -0.206057 -0.765506
v 0.788598 -0.206058 0.472561
v -0.871200 -0.135937 0.471994
v -0.870770 -0.135936 -0.766043
v -0.870770 -0.206065 -0.766043
v -0.871200 -0.206066 0.471994
v 0.865215 -0.206057 -0.771374
v 0.794943 -0.206057 -0.771423
v 0.794943 -0.135928 -0.771423
v 0.865215 -0.135927 -0.771374
v 0.788596 0.206052 0.472561
v 0.789027 0.206053 -0.765506
v 0.789027 0.135923 -0.765506
v 0.788596 0.135922 0.472561
v 0.870696 0.135922 0.472587
v 0.871127 0.135923 -0.765480
v 0.871127 0.206053 -0.765480
v 0.870695 0.206052 0.472587
v 0.865215 0.135923 -0.771374
v 0.794943 0.135923 -0.771423
v 0.794943 0.206052 -0.771423
v 0.865215 0.206053 -0.771374
v -0.871194 0.206104 0.471994
v -0.870770 0.206105 -0.766043
v -0.870770 0.135915 -0.766043
v -0.871194 0.135914 0.471994
v 0.864783 0.211972 0.472583
v 0.865213 0.211972 -0.765484
v 0.794940 0.211972 -0.765502
v 0.794516 0.211972 0.472565
v -0.865287 -0.211986 0.471998
v -0.864856 -0.211986 -0.766100
v -0.794584 -0.211986 -0.766051
v -0.795013 -0.211986 0.472047
v -0.789100 -0.206065 0.471990
v -0.788670 -0.206065 -0.766047
v -0.788670 -0.135936 -0.766047
v -0.789100 -0.135936 0.471990
v 0.870698 -0.206058 0.472587
v 0.871127 -0.206057 -0.765480
v 0.871127 -0.135927 -0.765480
v 0.870697 -0.135928 0.472587
v 0.794510 -0.211978 0.472565
v 0.794941 -0.211978 -0.765502
v 0.865213 -0.211978 -0.765484
v 0.864785 -0.211978 0.472583
v -0.795017 -0.206065 0.477906
v -0.795017 -0.135936 0.477906
v -0.865284 -0.135937 0.477919
v -0.865283 -0.206066 0.477918
v -0.789094 0.135915 0.471990
v -0.788670 0.135915 -0.766047
v -0.788670 0.206105 -0.766047
v -0.789094 0.206105 0.471990
v -0.794582 -0.206065 -0.771972
v -0.864853 -0.206066 -0.771959
v -0.864853 -0.135937 -0.771959
v -0.794582 -0.135936 -0.771972
v 0.864785 -0.130008 0.472583
v 0.865213 -0.130008 -0.765484
v 0.794941 -0.130008 -0.765502
v 0.794510 -0.130008 0.472565
v -0.795015 0.211965 0.472047
v -0.794583 0.211965 -0.766051
v -0.864856 0.211964 -0.766100
v -0.865282 0.211965 0.471998
v -0.795013 -0.130015 0.472047
v -0.794583 -0.130015 -0.766051
v -0.864856 -0.130016 -0.766100
v -0.865280 -0.130015 0.471998
v 0.866137 0.208127 0.477467
v -0.866643 0.208119 0.476880
v -0.866641 -0.208140 0.476880
v 0.866140 -0.208133 0.477467
v -0.795011 0.135915 0.477906
v -0.795011 0.206105 0.477906
v -0.865286 0.206104 0.477919
v -0.865285 0.135914 0.477919
v 0.864787 0.135923 0.478504
v 0.864786 0.206053 0.478504
v 0.794512 0.206053 0.478486
v 0.794512 0.135923 0.478486
v 0.864781 -0.206057 0.478504
v 0.864780 -0.135927 0.478504
v 0.794514 -0.135927 0.478486
v 0.794514 -0.206057 0.478486
v -0.794582 0.135915 -0.771972
v -0.794582 0.206105 -0.771972
v -0.864853 0.206104 -0.771959
v -0.864853 0.135914 -0.771959
v 0.866171 0.208127 0.396290
v 0.866173 -0.208133 0.396290
v -0.866615 -0.208140 0.395703
v -0.866617 0.208119 0.395703
v 0.866522 0.208127 -0.623271
v -0.866264 0.208118 -0.623889
v -0.866263 -0.208141 -0.623889
v 0.866522 -0.208133 -0.623271
v 0.866526 0.208128 -0.635875
v 0.866526 -0.208132 -0.635875
v -0.866258 -0.208142 -0.636462
v -0.866259 0.208118 -0.636462
v 0.804984 0.136777 -0.349968
v -0.804918 0.136769 -0.350531
v 0.804984 0.134824 -0.350792
v 0.804986 -0.134829 -0.350792
v -0.804915 -0.134838 -0.351325
v -0.804917 0.134815 -0.351325
v 0.806950 -0.134829 -0.349997
v 0.806953 0.134825 -0.349997
v -0.804916 -0.136790 -0.350531
v 0.804985 -0.136783 -0.349968
v -0.806882 0.134816 -0.350533
v -0.806880 -0.134837 -0.350533
v 0.804837 0.136778 0.078865
v -0.805065 0.136769 0.078302
v 0.804837 0.134824 0.078072
v 0.804838 -0.134830 0.078072
v -0.805063 -0.134837 0.077508
v -0.805064 0.134816 0.077508
v 0.806806 -0.134830 0.078866
v 0.806805 0.134824 0.078866
v -0.805064 -0.136790 0.078302
v 0.804838 -0.136782 0.078865
v -0.807026 0.134816 0.078300
v -0.807032 -0.134837 0.078300
vn -0.0030 -0.9744 0.2246
vn -0.0000 -1.0000 -0.0000
vn 0.0029 -0.9745 0.2245
vn -0.0000 1.0000 0.0001
vn -0.0000 1.0000 -0.0000
vn -0.0000 1.0000 -0.0001
vn -1.0000 -0.0000 -0.0003
vn -0.9744 -0.0104 -0.2244
vn -0.9746 -0.0104 0.2239
vn 0.0029 0.0115 0.9999
vn -0.0004 -0.0000 1.0000
vn 0.0029 -0.0115 0.9999
vn 0.0003 -0.0000 -1.0000
vn -0.0029 -0.0115 -0.9999
vn -0.0029 0.0115 -0.9999
vn 0.9407 -0.2357 0.2439
vn 0.2463 -0.9308 0.2700
vn 0.8664 -0.4275 0.2581
vn -0.1657 0.7959 0.5823
vn 0.9406 0.2357 0.2443
vn 0.8663 0.4274 0.2585
vn 0.1652 0.7942 0.5847
vn -0.6757 0.6636 -0.3211
vn -0.9407 0.2335 0.2462
vn -0.2458 -0.9299 0.2736
vn -0.9402 -0.2347 0.2468
vn -0.6751 -0.6643 -0.3209
vn -0.1660 0.7957 -0.5825
vn 0.6740 0.6638 0.3241
vn 0.9405 0.2362 -0.2442
vn -0.9399 0.2348 -0.2481
vn -0.8655 0.4265 -0.2627
vn 0.1675 0.7940 -0.5844
vn 0.7998 0.1765 -0.5737
vn 0.6747 -0.6627 0.3251
vn 0.2478 -0.9304 -0.2702
vn -0.7976 0.1764 -0.5768
vn -0.2453 -0.9302 -0.2730
vn -0.8656 -0.4270 -0.2615
vn -0.7106 0.0058 -0.7036
vn -0.0149 0.9744 0.2243
vn -0.0154 0.9744 -0.2242
vn -0.7113 0.0066 0.7028
vn 0.7111 -0.0059 -0.7030
vn 0.0352 -0.7200 0.6931
vn 0.0350 -0.7197 -0.6934
vn 0.9743 0.0021 0.2251
vn 0.7768 -0.6066 0.1689
vn 0.6952 0.0322 0.7181
vn 0.2270 -0.0104 0.9738
vn 0.7768 0.6067 0.1690
vn 0.0032 0.9999 0.0142
vn -0.0096 0.7012 0.7129
vn 0.0090 0.6998 0.7143
vn -0.1713 0.7761 0.6069
vn -0.9999 0.0114 0.0033
vn -0.2241 -0.0104 0.9745
vn -0.6930 0.0322 0.7202
vn -0.9999 -0.0116 0.0033
vn -0.1713 -0.7749 0.6085
vn 0.0093 -0.7014 0.7127
vn -0.0094 -0.7036 0.7105
vn 0.0032 -0.9999 0.0168
vn -0.9745 0.0006 0.2244
vn -0.0345 -0.7199 -0.6932
vn -0.0349 -0.7199 0.6932
vn -0.7106 -0.0066 -0.7036
vn 0.7105 0.0069 0.7036
vn 0.0134 0.9744 -0.2242
vn 0.0125 0.9744 0.2247
vn 0.7111 0.0065 -0.7030
vn -0.6920 0.0322 -0.7212
vn -0.7761 -0.6066 -0.1724
vn -0.7762 0.6067 -0.1719
vn -0.2221 -0.0104 -0.9750
vn 0.0098 0.7010 -0.7131
vn -0.0032 0.9999 -0.0143
vn 0.1712 0.7730 -0.6109
vn -0.0090 0.7032 -0.7110
vn 0.2279 -0.0104 -0.9736
vn 0.9999 0.0115 0.0004
vn 0.9999 -0.0115 -0.0008
vn 0.6967 0.0321 -0.7166
vn -0.0026 -0.2226 -0.9749
vn 0.1713 -0.7750 -0.6083
vn -0.0032 -0.9999 -0.0111
vn 0.0033 -0.2202 -0.9755
vn 0.9744 -0.0104 0.2245
vn 1.0000 -0.0000 0.0008
vn 1.0000 -0.0000 -0.0001
vn 0.9747 -0.0104 -0.2232
vn 0.0009 0.0029 -1.0000
vn -0.0001 -0.0028 -1.0000
vn -0.0001 0.0028 -1.0000
vn 0.0009 -0.0029 -1.0000
vn 0.2803 -0.6586 -0.6983
vn 0.6569 -0.2837 -0.6985
vn 0.6092 -0.6097 -0.5071
vn 0.6568 0.2836 -0.6987
vn 0.2803 0.6586 -0.6984
vn 0.6091 0.6096 -0.5074
vn -0.6717 0.2996 -0.6776
vn -0.6196 0.6212 -0.4797
vn -0.2951 0.6745 -0.6767
vn -0.2946 -0.6747 -0.6768
vn -0.6192 -0.6214 -0.4800
vn -0.6713 -0.3001 -0.6777
vn 0.3732 -0.0014 -0.9278
vn 0.6948 0.0029 -0.7192
vn 0.6948 -0.0029 -0.7192
vn 0.3732 0.0014 -0.9277
vn 0.0006 0.4001 -0.9165
vn -0.0002 0.7138 -0.7004
vn 0.0008 0.7138 -0.7004
vn 0.0003 0.3761 -0.9266
vn -0.0002 0.6954 -0.7187
vn -0.3959 0.0015 -0.9183
vn -0.7122 -0.0029 -0.7020
vn -0.7122 0.0029 -0.7020
vn -0.3959 -0.0015 -0.9183
vn 0.0001 -0.3758 -0.9267
vn 0.0008 -0.6950 -0.7190
vn -0.0002 -0.6950 -0.7190
vn 0.0001 -0.4010 -0.9161
vn 0.0006 -0.4012 -0.9160
vn 0.0008 -0.7145 -0.6997
vn 0.0008 0.0029 -1.0000
vn -0.0002 -0.0029 -1.0000
vn -0.0002 0.0030 -1.0000
vn 0.0008 -0.0029 -1.0000
vn 0.3112 -0.6881 -0.6554
vn 0.6875 -0.3128 -0.6554
vn 0.6310 -0.6304 -0.4521
vn 0.6890 0.3147 -0.6528
vn 0.3128 0.6898 -0.6530
vn 0.6322 0.6315 -0.4490
vn -0.6542 0.2837 -0.7010
vn -0.6068 0.6098 -0.5098
vn -0.2775 0.6584 -0.6996
vn -0.2803 -0.6587 -0.6982
vn -0.6091 -0.6097 -0.5073
vn -0.6567 -0.2838 -0.6987
vn 0.4219 -0.0015 -0.9066
vn 0.7319 0.0029 -0.6815
vn 0.7329 -0.0030 -0.6804
vn 0.4205 0.0015 -0.9073
vn 0.0003 0.3765 -0.9264
vn -0.0003 0.6951 -0.7189
vn 0.0007 0.6952 -0.7188
vn 0.0006 0.4244 -0.9055
vn 0.0003 0.4244 -0.9055
vn -0.0002 0.7321 -0.6811
vn -0.3712 0.0016 -0.9285
vn -0.6933 -0.0029 -0.7207
vn -0.6943 0.0030 -0.7197
vn -0.3701 -0.0015 -0.9290
vn -0.0000 -0.4246 -0.9054
vn 0.0007 -0.7324 -0.6808
vn -0.0003 -0.7324 -0.6808
vn 0.0002 -0.3763 -0.9265
vn 0.0006 -0.3764 -0.9265
vn 0.0008 -0.6953 -0.7187
vt 0.868244 0.135669
vt 1.784335 0.125646
vt 1.784335 0.135669
vt 0.868244 0.125646
vt 0.784335 0.135669
vt -0.131756 0.125646
vt -0.131756 0.135669
vt 0.784335 0.125646
vt 0.620864 0.135669
vt 0.363778 0.125646
vt 0.363778 0.135669
vt 0.620864 0.125646
vt 0.620864 0.784335
vt 0.363778 -0.131756
vt 0.363778 0.784335
vt 0.620864 -0.131756
vt 0.623873 0.125646
vt 0.620864 0.122637
vt 0.360769 0.125646
vt 0.363778 0.122637
vt 0.787344 0.125646
vt 0.784335 0.122637
vt 0.363778 0.138678
vt 0.360769 0.135669
vt 0.784335 0.138678
vt 0.787344 0.135669
vt 0.623873 0.135669
vt 0.620864 0.138678
vt -0.131756 0.122637
vt 0.363778 0.787344
vt 0.620864 0.787344
vt 0.868244 0.122637
vt 1.784335 0.122637
vt -0.131756 0.138678
vt 1.784335 0.138678
vt 0.868244 0.138678
vt 0.559731 0.728765
vt 0.424911 -0.076186
vt 0.559731 -0.076186
vt 0.424911 0.728765
vt 0.559731 0.922831
vt 0.560713 0.923814
vt 0.559731 0.923814
vt 0.423929 0.923814
vt 0.424911 0.922831
vt 0.424911 0.923814
vt 0.423929 0.728765
vt 0.424911 0.729747
vt 0.559731 0.729747
vt 0.560713 0.728765
vt 0.423929 -0.076186
vt 0.559731 1.728765
vt 0.560713 1.728765
s 1
usemtl M_ShelvingUnit_215_0
f 1/1/1 3/2/2 2/3/3
f 1/1/1 4/4/2 3/2/2
f 5/5/4 7/6/5 6/7/6
f 5/5/4 8/8/4 7/6/5
f 9/9/7 11/10/8 10/11/9
f 9/9/7 12/12/7 11/10/8
f 13/13/10 15/14/11 14/15/12
f 13/13/10 16/16/11 15/14/11
f 17/13/13 19/14/14 18/16/15
f 17/13/13 20/15/13 19/14/14
f 4/17/16 21/12/17 16/18/18
f 22/10/19 7/19/20 15/20/21
f 11/21/22 14/22/23 8/8/24
f 12/21/25 3/8/26 13/22/27
f 23/11/28 19/23/29 6/24/30
f 5/5/31 20/25/32 10/26/33
f 1/27/34 18/28/35 24/9/36
f 2/5/37 9/26/38 17/25/39
f 8/8/40 10/26/41 11/21/42
f 8/8/40 5/5/43 10/26/41
f 4/17/44 24/9/45 21/12/46
f 4/17/44 1/27/47 24/9/45
f 15/20/48 21/12/49 22/10/50
f 15/20/48 16/18/51 21/12/49
f 14/22/52 7/6/53 8/8/54
f 14/22/52 15/29/55 7/6/53
f 13/13/56 11/30/57 12/31/58
f 13/13/56 14/15/59 11/30/57
f 16/32/60 3/2/61 4/4/62
f 16/32/60 13/33/63 3/2/61
f 2/5/64 12/21/65 9/26/66
f 2/5/64 3/8/67 12/21/65
f 6/24/68 22/10/69 23/11/70
f 6/24/68 7/19/71 22/10/69
f 9/31/72 20/15/73 17/13/74
f 9/31/72 10/30/75 20/15/73
f 5/5/76 19/34/77 20/25/78
f 5/5/76 6/7/79 19/34/77
f 23/11/80 18/28/81 19/23/82
f 23/11/80 24/9/83 18/28/81
f 1/1/84 17/35/85 18/36/86
f 1/1/84 2/3/87 17/35/85
f 23/11/88 21/12/89 24/9/90
f 23/11/88 22/10/91 21/12/89
f 25/37/92 27/38/93 26/39/94
f 25/37/92 28/40/95 27/38/93
f 29/41/96 30/42/97 26/43/98
f 31/44/99 32/45/100 27/46/101
f 33/47/102 28/40/103 34/48/104
f 35/49/105 25/37/106 36/50/107
f 32/45/108 26/43/109 27/46/110
f 32/45/108 29/41/111 26/43/109
f 33/47/112 27/38/113 28/40/114
f 33/47/115 31/51/115 27/38/116
f 35/49/117 28/40/118 25/37/119
f 35/49/117 34/48/120 28/40/118
f 30/42/121 25/52/122 26/43/123
f 30/42/124 36/53/125 25/52/126
f 37/37/127 39/38/128 38/39/129
f 37/37/127 40/40/130 39/38/128
f 41/41/131 42/42/132 38/43/133
f 43/44/134 44/45/135 39/46/136
f 45/47/137 40/40/138 46/48/139
f 47/49/140 37/37/141 48/50/142
f 44/45/143 38/43/144 39/46/145
f 44/45/143 41/41/146 38/43/144
f 45/47/147 39/38/148 40/40/149
f 45/47/150 43/51/151 39/38/152
f 47/49/153 40/40/154 37/37/155
f 47/49/153 46/48/156 40/40/154
f 42/42/157 37/52/158 38/43/159
f 42/42/160 48/53/161 37/52/162
