# Blender 4.1.0
# www.blender.org
mtllib MeshShelvingUnit_215_0_GeomSubset_1.mtl
o MeshShelvingUnit_215_0_GeomSubset_1
v 0.916352 0.263111 0.502908
v -0.915832 0.263120 0.503564
v -0.915839 0.263121 0.483513
v 0.916345 0.263110 0.482888
v -0.915827 -0.263125 0.503564
v 0.916349 -0.263134 0.502908
v 0.916343 -0.263135 0.482888
v -0.915841 -0.263124 0.483513
v -0.921852 0.257078 0.503568
v -0.921847 -0.257082 0.503568
v -0.921853 -0.257080 0.483518
v -0.921858 0.257080 0.483518
v -0.915842 0.257077 0.477502
v -0.915838 -0.257083 0.477502
v 0.916338 -0.257091 0.476846
v 0.916341 0.257070 0.476846
v -0.915836 0.257078 0.509575
v 0.916348 0.257070 0.508950
v 0.916345 -0.257091 0.508950
v -0.915823 -0.257082 0.509575
v 0.922365 0.257068 0.482884
v 0.922362 -0.257092 0.482884
v 0.922376 -0.257092 0.502903
v 0.922364 0.257069 0.502903
v -0.804974 0.134825 -0.318626
v 0.804928 0.134816 -0.319220
v 0.804926 -0.134837 -0.319220
v -0.804975 -0.134829 -0.318626
v 0.806892 0.134816 -0.320015
v 0.804927 0.136769 -0.320014
v 0.804925 -0.136790 -0.320014
v 0.806890 -0.134837 -0.320015
v -0.804976 -0.136783 -0.319450
v -0.806940 -0.134829 -0.319449
v -0.806939 0.134825 -0.319449
v -0.804974 0.136777 -0.319450
v -0.804830 0.134825 0.110207
v 0.805071 0.134816 0.109674
v 0.805078 -0.134837 0.109674
v -0.804824 -0.134829 0.110207
v 0.807039 0.134816 0.108818
v 0.805078 0.136769 0.108819
v 0.805077 -0.136790 0.108819
v 0.807038 -0.134837 0.108818
v -0.804824 -0.136783 0.109413
v -0.806793 -0.134830 0.109415
v -0.806791 0.134824 0.109415
v -0.804830 0.136777 0.109413
v 0.865281 0.129994 0.471998
v 0.864856 0.129993 -0.766100
v 0.794583 0.129994 -0.766051
v 0.795015 0.129994 0.472047
v -0.794516 0.130002 0.472565
v -0.794941 0.130002 -0.765502
v -0.865213 0.130002 -0.765484
v -0.864783 0.130002 0.472583
v -0.788597 -0.135928 0.472561
v -0.789027 -0.135927 -0.765506
v -0.789027 -0.206057 -0.765506
v -0.788598 -0.206058 0.472561
v 0.871200 -0.135937 0.471994
v 0.870770 -0.135936 -0.766043
v 0.870770 -0.206065 -0.766043
v 0.871200 -0.206066 0.471994
v -0.865215 -0.206057 -0.771374
v -0.794943 -0.206058 -0.771423
v -0.794943 -0.135928 -0.771423
v -0.865215 -0.135927 -0.771374
v -0.788596 0.206052 0.472561
v -0.789027 0.206053 -0.765506
v -0.789027 0.135923 -0.765506
v -0.788596 0.135922 0.472561
v -0.870696 0.135922 0.472587
v -0.871127 0.135923 -0.765480
v -0.871127 0.206053 -0.765480
v -0.870695 0.206052 0.472587
v -0.865215 0.135923 -0.771374
v -0.794943 0.135922 -0.771423
v -0.794943 0.206052 -0.771423
v -0.865215 0.206053 -0.771374
v 0.871194 0.206104 0.471994
v 0.870770 0.206105 -0.766043
v 0.870770 0.135915 -0.766043
v 0.871194 0.135914 0.471994
v -0.864783 0.211972 0.472583
v -0.865213 0.211972 -0.765484
v -0.794940 0.211972 -0.765502
v -0.794516 0.211972 0.472565
v 0.865287 -0.211986 0.471998
v 0.864856 -0.211987 -0.766100
v 0.794584 -0.211986 -0.766051
v 0.795013 -0.211986 0.472047
v 0.789100 -0.206065 0.471990
v 0.788670 -0.206065 -0.766047
v 0.788670 -0.135936 -0.766047
v 0.789100 -0.135936 0.471990
v -0.870698 -0.206058 0.472587
v -0.871127 -0.206057 -0.765480
v -0.871127 -0.135927 -0.765480
v -0.870697 -0.135928 0.472587
v -0.794510 -0.211978 0.472565
v -0.794941 -0.211978 -0.765502
v -0.865213 -0.211978 -0.765484
v -0.864785 -0.211978 0.472583
v 0.795017 -0.206065 0.477906
v 0.795017 -0.135936 0.477906
v 0.865284 -0.135937 0.477919
v 0.865283 -0.206066 0.477919
v 0.789094 0.135915 0.471990
v 0.788670 0.135915 -0.766047
v 0.788670 0.206105 -0.766047
v 0.789094 0.206105 0.471990
v 0.794582 -0.206065 -0.771972
v 0.864853 -0.206066 -0.771959
v 0.864853 -0.135937 -0.771959
v 0.794582 -0.135936 -0.771972
v -0.864785 -0.130008 0.472583
v -0.865213 -0.130008 -0.765484
v -0.794941 -0.130008 -0.765502
v -0.794510 -0.130008 0.472565
v 0.795015 0.211965 0.472047
v 0.794583 0.211965 -0.766051
v 0.864856 0.211964 -0.766100
v 0.865282 0.211965 0.471998
v 0.795013 -0.130015 0.472047
v 0.794583 -0.130015 -0.766051
v 0.864856 -0.130016 -0.766100
v 0.865280 -0.130015 0.471998
v -0.866137 0.208127 0.477467
v 0.866643 0.208119 0.476880
v 0.866641 -0.208140 0.476880
v -0.866140 -0.208133 0.477467
v 0.795011 0.135915 0.477906
v 0.795011 0.206105 0.477906
v 0.865286 0.206104 0.477919
v 0.865285 0.135914 0.477919
v -0.864787 0.135923 0.478504
v -0.864786 0.206053 0.478504
v -0.794512 0.206053 0.478486
v -0.794512 0.135923 0.478486
v -0.864781 -0.206057 0.478504
v -0.864780 -0.135927 0.478504
v -0.794514 -0.135927 0.478486
v -0.794514 -0.206057 0.478486
v 0.794582 0.135915 -0.771972
v 0.794582 0.206105 -0.771972
v 0.864853 0.206104 -0.771959
v 0.864853 0.135914 -0.771959
v -0.866171 0.208127 0.396290
v -0.866173 -0.208133 0.396290
v 0.866615 -0.208140 0.395703
v 0.866617 0.208119 0.395703
v -0.866522 0.208127 -0.623271
v 0.866264 0.208118 -0.623889
v 0.866263 -0.208141 -0.623889
v -0.866522 -0.208133 -0.623271
v -0.866526 0.208128 -0.635875
v -0.866526 -0.208132 -0.635875
v 0.866258 -0.208142 -0.636462
v 0.866259 0.208117 -0.636462
v -0.804984 0.136777 -0.349968
v 0.804918 0.136769 -0.350531
v -0.804984 0.134824 -0.350792
v -0.804986 -0.134830 -0.350792
v 0.804915 -0.134838 -0.351325
v 0.804917 0.134815 -0.351325
v -0.806950 -0.134829 -0.349997
v -0.806953 0.134825 -0.349997
v 0.804916 -0.136790 -0.350531
v -0.804985 -0.136783 -0.349968
v 0.806882 0.134816 -0.350533
v 0.806880 -0.134837 -0.350533
v -0.804837 0.136778 0.078865
v 0.805065 0.136769 0.078302
v -0.804837 0.134824 0.078072
v -0.804838 -0.134830 0.078072
v 0.805063 -0.134837 0.077508
v 0.805064 0.134816 0.077508
v -0.806806 -0.134830 0.078866
v -0.806805 0.134824 0.078866
v 0.805064 -0.136790 0.078302
v -0.804838 -0.136782 0.078865
v 0.807026 0.134816 0.078300
v 0.807032 -0.134837 0.078300
vn 0.0773 -0.9970 0.0046
vn -0.0000 -1.0000 -0.0000
vn 0.0772 -0.9970 -0.0047
vn 0.0772 -0.9970 0.0046
vn -0.0773 -0.9970 -0.0046
vn -0.0773 -0.9970 0.0046
vn 0.9970 0.0773 0.0043
vn 1.0000 -0.0000 -0.0003
vn 0.9970 -0.0774 0.0043
vn -0.0757 -0.0755 -0.9943
vn -0.0007 -0.0000 -1.0000
vn 0.0750 -0.0755 -0.9943
vn 0.9970 0.0774 0.0043
vn 0.9970 -0.0774 -0.0049
vn 0.9970 0.0773 -0.0050
vn 0.9970 -0.0773 0.0043
vn -0.9970 -0.0773 0.0050
vn -0.9970 0.0774 -0.0043
vn -0.9970 -0.0774 -0.0043
vn -0.9970 0.0774 0.0050
vn -0.0000 1.0000 -0.0000
vn 0.0773 -0.9970 0.0047
vn -0.9970 -0.0774 0.0050
vn -0.9970 0.0774 -0.0042
vn -0.9970 -0.0774 -0.0042
vn -0.9970 0.0774 0.0049
vn -1.0000 -0.0000 0.0003
vn -0.0773 -0.9970 0.0047
vn -0.0764 -0.0742 0.9943
vn 0.0758 0.0756 0.9943
vn -0.0750 0.0755 0.9943
vn 0.0757 -0.0755 0.9943
vn -0.9970 -0.0774 0.0049
vn -0.0758 -0.0755 -0.9943
vn 0.0750 0.0755 -0.9943
vn 0.0002 -0.0000 -1.0000
vn -0.0772 0.9970 0.0046
vn -0.0773 0.9970 -0.0046
vn -0.0772 0.9970 0.0047
vn 0.0773 0.9970 -0.0046
vn -0.0772 0.9970 -0.0046
vn 0.0772 0.9970 0.0047
vn 0.0772 0.9970 -0.0047
vn 0.0773 0.9970 0.0046
vn 0.0003 -0.0000 1.0000
vn -0.0764 -0.0740 0.9943
vn 0.0757 0.0754 0.9943
vn -0.0751 -0.0755 0.9943
vn -0.0751 0.0755 0.9943
vn -0.0750 -0.0755 0.9943
vn -0.6869 -0.7256 -0.0408
vn 0.7256 0.6869 -0.0412
vn -0.6869 0.7256 -0.0408
vn -0.4156 0.4160 -0.8088
vn 0.6868 0.7257 -0.0413
vn 0.7257 0.6868 -0.0412
vn 0.4150 0.4159 -0.8092
vn -0.0757 0.0755 -0.9943
vn 0.7257 -0.6868 -0.0412
vn 0.7256 -0.6869 -0.0412
vn 0.0750 -0.0754 -0.9943
vn -0.6868 0.7257 -0.0408
vn -0.4155 0.4160 -0.8089
vn 0.6869 0.7256 -0.0413
vn -0.4156 0.4160 -0.8089
vn -0.7256 0.6869 -0.0407
vn 0.7256 -0.6869 0.0407
vn -0.7257 0.6868 0.0412
vn -0.4149 0.4159 0.8092
vn 0.6869 0.7256 0.0408
vn 0.4156 0.4159 0.8089
vn -0.6869 0.7256 0.0413
vn 0.7256 0.6869 0.0408
vn 0.6868 0.7257 0.0408
vn 0.7256 0.6869 0.0407
vn -0.6868 -0.7257 0.0413
vn -0.0003 -0.0000 -1.0000
vn -1.0000 -0.0000 0.0004
vn 0.0004 -0.0000 1.0000
vn 1.0000 -0.0000 -0.0004
vn -0.0000 -1.0000 0.0001
vn -0.0000 -1.0000 -0.0001
vn -0.0000 1.0000 0.0001
vn -0.0000 1.0000 -0.0001
vn 0.0012 1.0000 -0.0000
vn 0.0013 1.0000 0.0001
vn -0.0009 0.0030 -1.0000
vn 0.0002 -0.0029 -1.0000
vn -0.0009 -0.0031 -1.0000
vn 0.0002 0.0031 -1.0000
vn -1.0000 -0.0000 0.0005
vn 0.0012 -1.0000 -0.0000
vn 0.0013 -1.0000 0.0001
vn -0.0000 0.3767 -0.9263
vn 0.3764 0.0016 -0.9264
vn -0.3769 0.0016 -0.9263
vn -0.0006 0.3769 -0.9262
vn -0.0007 -0.3771 -0.9262
vn -0.3769 -0.0016 -0.9262
vn 0.3762 -0.0015 -0.9265
vn -0.0000 -0.3767 -0.9263
vn 0.7069 -0.7073 -0.0002
vn 0.7067 -0.7075 -0.0002
vn -0.7069 -0.7073 0.0002
vn -0.7072 -0.7070 0.0003
vn -0.7070 -0.7073 0.0002
vn -0.7071 -0.7071 0.0002
vn -0.7072 -0.7070 0.0002
vn 0.7068 0.7074 -0.0002
vn 0.7071 0.7071 -0.0002
vn 0.7068 0.7075 -0.0002
vn -0.7068 0.7074 0.0003
vn -0.7071 0.7071 0.0003
vn -0.0013 1.0000 0.0001
vn 0.0013 1.0000 -0.0000
vn -0.0013 1.0000 -0.0002
vn 0.0014 1.0000 -0.0000
vn -0.0010 0.0031 -1.0000
vn 0.0003 -0.0031 -1.0000
vn -0.0010 -0.0031 -1.0000
vn 0.0002 0.0029 -1.0000
vn -1.0000 0.0073 0.0004
vn -0.0013 -1.0000 -0.0000
vn 0.0013 -1.0000 -0.0000
vn -0.0013 -1.0000 -0.0002
vn -0.0001 0.3765 -0.9264
vn 0.3764 0.0016 -0.9265
vn -0.3770 0.0016 -0.9262
vn -0.0006 0.3760 -0.9266
vn -0.0008 -0.3768 -0.9263
vn -0.3769 -0.0016 -0.9263
vn 0.3764 -0.0017 -0.9265
vn -0.0001 -0.3766 -0.9264
vn 0.7069 -0.7073 -0.0003
vn 0.7070 -0.7072 -0.0002
vn -0.0012 -1.0000 0.0001
vn 0.7069 0.7073 -0.0002
vn 0.7069 0.7074 -0.0002
vn 0.7068 0.7074 -0.0003
vn 1.0000 -0.0000 -0.0002
vt 0.893772 0.120196
vt 0.928908 -0.498836
vt 0.893772 -0.498836
vt 0.928908 0.120196
vt 0.723670 0.120196
vt 0.758807 -0.498836
vt 0.723670 -0.498836
vt 0.758807 0.120196
vt 0.424356 0.120196
vt 0.389281 -0.498836
vt 0.424356 -0.498836
vt 0.389281 0.120196
vt 0.389281 0.758807
vt 0.424356 0.723670
vt 0.389281 0.723670
vt 0.424356 0.758807
vt 0.595361 0.120196
vt 0.560285 -0.498836
vt 0.595361 -0.498836
vt 0.560285 0.120196
vt 0.560285 0.758807
vt 0.595361 0.723670
vt 0.560285 0.723670
vt 0.595361 0.758807
vt 0.389281 0.928908
vt 0.424356 0.893772
vt 0.424356 0.928908
vt 0.389281 0.893772
vt 0.596392 0.759485
vt 0.388250 -0.106907
vt 0.596392 -0.106907
vt 0.388250 0.759485
vt 0.560285 0.928908
vt 0.595361 0.893772
vt 0.595361 0.928908
vt 0.560285 0.893772
vt 0.560285 0.501164
vt 0.560285 0.498207
vt 0.557329 0.501164
vt 0.427313 0.501164
vt 0.424356 0.501164
vt 0.424356 0.498207
vt 0.761763 0.501164
vt 0.758807 0.498207
vt 0.758807 0.501164
vt 0.595361 0.501164
vt 0.598317 0.501164
vt 0.595361 0.498207
vt 0.386324 0.501164
vt 0.389281 0.498207
vt 0.389281 0.501164
vt 0.386324 0.120196
vt 0.389281 0.123153
vt 0.761763 0.120196
vt 0.758807 0.123153
vt 0.598317 0.120196
vt 0.595361 0.123153
vt 0.557329 0.120196
vt 0.560285 0.123153
vt 0.427313 0.120196
vt 0.424356 0.123153
vt 0.928908 0.501164
vt 0.893772 0.498207
vt 0.928908 0.498207
vt 0.893772 0.501164
vt 0.560285 0.761763
vt 0.595361 0.761763
vt 0.723670 0.501164
vt 0.723670 0.498207
vt 0.389281 0.761763
vt 0.424356 0.761763
vt 0.598317 -0.498836
vt 0.557329 1.120196
vt 0.560285 1.120196
vt 0.761763 -0.498836
vt 0.386324 1.120196
vt 0.389281 1.120196
vt 0.427313 1.120196
vt 0.424356 1.120196
vt 0.557329 -0.498836
vt 0.761763 1.120196
vt 0.758807 1.120196
vt 0.427313 -0.498836
vt 0.595361 1.120196
vt 0.598317 1.120196
vt 0.386324 -0.498836
vt 0.893772 0.123153
vt 0.928908 0.123153
vt 0.723670 0.123153
vt 0.596392 0.122637
vt 0.388250 0.082048
vt 0.596392 0.082048
vt 0.388250 0.122637
vt 0.893093 0.122637
vt 1.759485 0.082048
vt 0.893093 0.082048
vt 1.759485 0.122637
vt 0.759485 0.122637
vt -0.106907 0.082048
vt 0.759485 0.082048
vt -0.106907 0.122637
vt 0.596392 0.572265
vt 0.388250 0.565965
vt 0.596392 0.565965
vt 0.388250 0.572265
vt 0.893093 0.572265
vt 1.759485 0.565965
vt 0.893093 0.565965
vt 1.759485 0.572265
vt 0.759485 0.572265
vt -0.106907 0.565965
vt 0.759485 0.565965
vt -0.106907 0.572265
vt 0.728765 0.724193
vt -0.076186 0.708920
vt 0.728765 0.708920
vt -0.076186 0.724193
vt 0.559731 0.728765
vt 0.424911 -0.076186
vt 0.424911 0.728765
vt 0.559731 -0.076186
vt 0.424911 0.724193
vt 0.559731 0.708920
vt 0.424911 0.708920
vt 0.559731 0.724193
vt 0.923814 0.724193
vt 1.728765 0.708920
vt 0.923814 0.708920
vt 1.728765 0.724193
vt 0.559731 0.923814
vt 0.560713 0.923814
vt 0.559731 0.922831
vt 0.559731 0.729747
vt 0.560713 0.728765
vt 0.423929 0.728765
vt 0.424911 0.729747
vt 0.424911 0.922831
vt 0.423929 0.923814
vt 0.424911 0.923814
vt 0.423929 0.724193
vt 0.423929 0.708920
vt 0.423929 -0.076186
vt 0.729747 0.724193
vt 0.729747 0.708920
vt 0.560713 1.728765
vt 0.559731 1.728765
vt 0.560713 0.708920
vt 0.560713 0.724193
vt 0.728765 0.938612
vt -0.076186 0.923339
vt 0.728765 0.923339
vt -0.076186 0.938612
vt 0.424911 0.938612
vt 0.559731 0.923339
vt 0.424911 0.923339
vt 0.559731 0.938612
vt 0.923814 0.938612
vt 1.728765 0.923339
vt 0.923814 0.923339
vt 1.728765 0.938612
vt 0.423929 0.938612
vt 0.423929 0.923339
vt 0.729747 0.938612
vt 0.729747 0.923339
vt 0.560713 0.923339
vt 0.560713 0.938612
s 1
usemtl M_ShelvingUnit_215_1
f 49/1/1 51/2/2 50/3/3
f 49/1/1 52/4/2 51/2/2
f 53/5/4 55/6/5 54/7/3
f 53/5/4 56/8/6 55/6/5
f 57/9/7 59/10/8 58/11/8
f 57/9/7 60/12/9 59/10/8
f 61/9/8 63/10/8 62/11/8
f 61/9/8 64/12/8 63/10/8
f 65/13/10 67/14/11 66/15/12
f 65/13/10 68/16/11 67/14/11
f 69/17/13 71/18/14 70/19/15
f 69/17/13 72/20/16 71/18/14
f 73/20/17 75/19/18 74/18/19
f 73/20/17 76/17/20 75/19/18
f 77/21/10 79/22/11 78/23/12
f 77/21/10 80/24/11 79/22/11
f 81/17/8 83/18/8 82/19/8
f 81/17/8 84/20/8 83/18/8
f 85/8/21 87/7/21 86/6/21
f 85/8/21 88/5/21 87/7/21
f 89/1/22 91/2/5 90/3/3
f 89/1/22 92/4/6 91/2/5
f 93/12/23 95/11/24 94/10/25
f 93/12/23 96/9/26 95/11/24
f 97/12/23 99/11/27 98/10/19
f 97/12/23 100/9/27 99/11/27
f 101/5/4 103/6/5 102/7/3
f 101/5/4 104/8/28 103/6/5
f 105/25/29 107/26/30 106/27/31
f 105/25/29 108/28/32 107/26/30
f 109/20/33 111/19/18 110/18/19
f 109/20/33 112/17/20 111/19/18
f 113/25/34 115/26/35 114/28/12
f 113/25/34 116/27/36 115/26/35
f 117/8/37 119/7/21 118/6/38
f 117/8/37 120/5/21 119/7/21
f 121/4/39 123/3/40 122/2/41
f 121/4/39 124/1/42 123/3/40
f 125/4/21 127/3/43 126/2/21
f 125/4/21 128/1/44 127/3/43
f 129/29/45 131/30/45 130/31/45
f 129/29/45 132/32/45 131/30/45
f 133/33/46 135/34/47 134/35/31
f 133/33/46 136/36/32 135/34/47
f 137/21/48 139/22/45 138/24/49
f 137/21/48 140/23/32 139/22/45
f 141/13/50 143/14/45 142/16/45
f 141/13/50 144/15/32 143/14/45
f 110/37/19 145/38/10 51/39/51
f 71/37/14 54/39/3 78/38/12
f 127/40/43 62/41/52 115/42/35
f 74/43/19 77/44/10 55/45/5
f 126/40/53 116/42/54 95/41/24
f 119/40/55 58/41/56 67/42/57
f 111/46/18 122/47/41 146/48/58
f 102/49/3 66/50/12 59/51/59
f 123/47/40 82/46/52 147/48/35
f 83/37/60 50/39/3 148/38/61
f 75/43/18 86/45/62 80/44/63
f 70/46/15 79/48/57 87/47/64
f 103/45/5 98/43/19 65/44/10
f 118/45/38 68/44/65 99/43/66
f 63/51/60 90/49/3 114/50/12
f 94/51/25 113/50/34 91/49/5
f 93/12/23 92/52/6 105/53/29
f 64/12/67 108/53/32 89/52/22
f 117/8/37 100/54/68 142/55/69
f 104/8/28 141/55/50 97/54/23
f 69/17/13 88/56/70 139/57/71
f 76/54/20 138/55/49 85/8/72
f 49/58/1 84/20/67 136/59/32
f 124/56/42 135/57/47 81/17/73
f 60/12/9 144/53/32 101/52/4
f 112/17/20 134/57/31 121/56/39
f 120/60/74 143/61/71 57/9/7
f 125/60/72 96/9/26 106/61/31
f 56/8/6 137/55/48 73/54/17
f 128/60/44 107/61/30 61/9/75
f 53/58/4 72/20/16 140/59/32
f 52/58/76 133/59/46 109/20/33
f 126/62/53 115/63/35 116/64/54
f 126/62/53 127/65/43 115/63/35
f 146/48/58 110/37/19 111/46/18
f 146/48/58 145/38/10 110/37/19
f 80/24/63 74/66/19 75/67/18
f 80/24/63 77/21/10 74/66/19
f 147/63/35 122/62/41 123/65/40
f 147/63/35 146/64/58 122/62/41
f 70/46/15 78/38/12 79/48/57
f 70/46/15 71/37/14 78/38/12
f 65/44/10 102/68/3 103/45/5
f 65/44/10 66/69/12 102/68/3
f 148/38/61 82/46/52 83/37/60
f 148/38/61 147/48/35 82/46/52
f 145/64/10 50/65/3 51/62/51
f 145/64/10 148/63/61 50/65/3
f 116/42/54 94/51/25 95/41/24
f 116/42/54 113/50/34 94/51/25
f 77/44/10 54/68/3 55/45/5
f 77/44/10 78/69/12 54/68/3
f 114/50/12 62/41/52 63/51/60
f 114/50/12 115/42/35 62/41/52
f 79/69/57 86/45/62 87/68/64
f 79/69/57 80/44/63 86/45/62
f 118/45/38 67/69/57 68/44/65
f 118/45/38 119/68/55 67/69/57
f 113/64/34 90/65/3 91/62/5
f 113/64/34 114/63/12 90/65/3
f 68/16/65 98/70/19 99/71/66
f 68/16/65 65/13/10 98/70/19
f 58/41/56 66/50/12 67/42/57
f 58/41/56 59/51/59 66/50/12
f 69/17/13 87/72/64 88/56/70
f 69/17/13 70/19/15 87/72/64
f 121/56/39 111/19/18 112/17/20
f 121/56/39 122/72/41 111/19/18
f 83/37/60 49/73/1 50/39/3
f 83/37/60 84/74/67 49/73/1
f 117/8/37 99/75/66 100/54/68
f 117/8/37 118/6/38 99/75/66
f 63/51/60 89/76/22 90/49/3
f 63/51/60 64/77/67 89/76/22
f 95/41/24 125/78/72 126/40/53
f 95/41/24 96/79/26 125/78/72
f 109/20/33 51/80/51 52/58/76
f 109/20/33 110/18/19 51/80/51
f 103/45/5 97/81/23 98/43/19
f 103/45/5 104/82/28 97/81/23
f 61/9/75 127/83/43 128/60/44
f 61/9/75 62/11/52 127/83/43
f 123/47/40 81/84/73 82/46/52
f 123/47/40 124/85/42 81/84/73
f 101/52/4 59/10/59 60/12/9
f 101/52/4 102/86/3 59/10/59
f 73/54/17 55/6/5 56/8/6
f 73/54/17 74/75/19 55/6/5
f 85/8/72 75/75/18 76/54/20
f 85/8/72 86/6/62 75/75/18
f 91/49/5 93/77/23 94/51/25
f 91/49/5 92/76/6 93/77/23
f 119/40/55 57/79/7 58/41/56
f 119/40/55 120/78/74 57/79/7
f 71/37/14 53/73/4 54/39/3
f 71/37/14 72/74/16 53/73/4
f 92/4/6 108/87/32 105/88/29
f 92/4/6 89/1/22 108/87/32
f 100/71/68 141/13/50 142/16/69
f 100/71/68 97/70/23 141/13/50
f 88/5/70 138/55/49 139/89/71
f 88/5/70 85/8/72 138/55/49
f 84/20/67 135/57/47 136/59/32
f 84/20/67 81/17/73 135/57/47
f 104/8/28 144/89/32 141/55/50
f 104/8/28 101/5/4 144/89/32
f 124/1/42 134/88/31 135/87/47
f 124/1/42 121/4/39 134/88/31
f 143/61/71 60/12/9 57/9/7
f 143/61/71 144/53/32 60/12/9
f 96/9/26 105/53/29 106/61/31
f 96/9/26 93/12/23 105/53/29
f 76/67/20 137/21/48 138/24/49
f 76/67/20 73/66/17 137/21/48
f 64/12/67 107/61/30 108/53/32
f 64/12/67 61/9/75 107/61/30
f 139/57/71 72/20/16 69/17/13
f 139/57/71 140/59/32 72/20/16
f 112/17/20 133/59/46 134/57/31
f 112/17/20 109/20/33 133/59/46
f 142/55/69 120/5/74 117/8/37
f 142/55/69 143/89/71 120/5/74
f 56/8/6 140/89/32 137/55/48
f 56/8/6 53/5/4 140/89/32
f 106/88/31 128/1/44 125/4/72
f 106/88/31 107/87/30 128/1/44
f 52/4/76 136/87/32 133/88/46
f 52/4/76 49/1/1 136/87/32
f 145/33/10 147/34/35 148/36/61
f 145/33/10 146/35/58 147/34/35
f 149/29/77 151/30/77 150/32/77
f 149/29/77 152/31/77 151/30/77
f 130/90/8 151/91/8 152/92/8
f 130/90/8 131/93/8 151/91/8
f 132/93/78 149/92/78 150/91/78
f 132/93/78 129/90/78 149/92/78
f 131/94/2 150/95/2 151/96/2
f 131/94/2 132/97/2 150/95/2
f 129/98/21 152/99/21 149/100/21
f 129/98/21 130/101/21 152/99/21
f 153/29/79 155/30/79 154/31/79
f 153/29/79 156/32/79 155/30/79
f 157/29/77 159/30/77 158/32/77
f 157/29/77 160/31/77 159/30/77
f 154/102/80 159/103/80 160/104/80
f 154/102/80 155/105/80 159/103/80
f 156/105/27 157/104/27 158/103/27
f 156/105/27 153/102/27 157/104/27
f 155/106/81 158/107/82 159/108/81
f 155/106/81 156/109/82 158/107/82
f 153/110/83 160/111/84 157/112/83
f 153/110/83 154/113/84 160/111/84
f 36/114/21 162/115/85 161/116/21
f 36/114/21 30/117/86 162/115/85
f 163/118/87 165/119/88 164/120/89
f 163/118/87 166/121/90 165/119/88
f 34/122/27 168/123/78 167/124/27
f 34/122/27 35/125/91 168/123/78
f 31/126/92 170/127/2 169/128/93
f 31/126/92 33/129/2 170/127/2
f 166/130/90 162/131/94 171/132/95
f 168/133/96 161/134/97 163/118/87
f 164/120/89 170/135/98 167/136/99
f 172/137/100 169/138/101 165/139/88
f 31/140/92 172/124/102 32/122/103
f 31/140/92 169/141/93 172/124/102
f 164/120/89 169/142/101 170/135/98
f 164/120/89 165/119/88 169/142/101
f 170/116/104 34/143/105 167/144/106
f 170/116/104 33/114/107 34/143/108
f 163/118/87 167/136/99 168/133/96
f 163/118/87 164/120/89 167/136/99
f 166/130/90 161/145/97 162/131/94
f 166/130/90 163/146/87 161/145/97
f 162/147/85 29/125/109 171/123/110
f 162/147/85 30/148/86 29/125/111
f 36/114/112 168/144/113 35/143/112
f 36/114/112 161/116/113 168/144/113
f 165/139/88 171/132/95 172/137/100
f 165/139/88 166/130/90 171/132/95
f 29/125/8 172/124/8 171/123/8
f 29/125/8 32/122/8 172/124/8
f 48/149/114 174/150/115 173/151/116
f 48/149/114 42/152/117 174/150/115
f 175/118/118 177/119/119 176/120/120
f 175/118/118 178/121/121 177/119/119
f 46/153/78 180/154/122 179/155/78
f 46/153/78 47/156/122 180/154/122
f 43/157/93 182/158/123 181/159/124
f 43/157/93 45/160/125 182/158/123
f 178/130/121 174/131/126 183/132/127
f 180/133/128 173/134/129 175/118/118
f 176/120/120 182/135/130 179/136/131
f 184/137/132 181/138/133 177/139/119
f 43/161/93 184/155/134 44/153/135
f 43/161/93 181/162/124 184/155/134
f 176/120/120 181/142/133 182/135/130
f 176/120/120 177/119/119 181/142/133
f 182/151/136 46/163/104 179/164/107
f 182/151/123 45/149/125 46/163/104
f 175/118/118 179/136/131 180/133/128
f 175/118/118 176/120/120 179/136/131
f 178/130/121 173/145/129 174/131/126
f 178/130/121 175/146/118 173/145/129
f 174/165/85 41/156/137 183/154/138
f 174/165/115 42/166/117 41/156/139
f 48/149/114 180/164/122 47/163/122
f 48/149/114 173/151/116 180/164/122
f 177/139/119 183/132/127 184/137/132
f 177/139/119 178/130/121 183/132/127
f 41/156/80 184/155/140 183/154/80
f 41/156/80 44/153/140 184/155/140
