# Blender 4.1.0
# www.blender.org
mtllib MeshBookFront_25_1_GeomSubset_0.mtl
o MeshBookFront_25_1_GeomSubset_0
v 0.104154 -0.149912 0.012850
v 0.104154 0.149912 0.012850
v 0.104154 0.149912 0.013944
v 0.104154 -0.149912 0.013944
v -0.113263 0.149912 0.010286
v -0.110809 0.149912 0.012850
v -0.112003 0.149912 0.013944
v -0.114233 0.149912 0.011494
v -0.110809 -0.149912 0.012850
v -0.113263 -0.149912 0.010286
v -0.112003 -0.149912 0.013944
v -0.114233 -0.149912 0.011494
v -0.114611 -0.149912 -0.004153
v -0.115919 -0.149912 -0.004153
v -0.115919 0.149912 -0.004153
v -0.114611 0.149912 -0.004153
v -0.115528 -0.149912 0.003670
v -0.115528 0.149912 0.003670
v -0.114228 0.149912 0.003066
v -0.114228 -0.149912 0.003066
v -0.115723 -0.149912 -0.000241
v -0.115723 0.149912 -0.000241
v -0.114439 0.149912 -0.000543
v -0.114439 -0.149912 -0.000543
v -0.114855 -0.149912 0.007582
v -0.114855 0.149912 0.007582
v -0.113771 0.149912 0.006676
v -0.113771 -0.149912 0.006676
v -0.112879 0.149912 -0.004153
v 0.104154 0.149912 -0.004153
v 0.104154 -0.149912 -0.004153
v -0.112879 -0.149912 -0.004153
v -0.112465 0.149912 0.004348
v 0.104154 0.149912 0.004348
v 0.104154 -0.149912 0.004348
v -0.112465 -0.149912 0.004348
v -0.112879 -0.148274 -0.008430
v -0.114611 -0.149912 -0.004153
v -0.112879 0.148274 -0.008430
v -0.114611 0.149912 -0.004153
v 0.102781 -0.148274 -0.005238
v 0.102781 0.148274 -0.005238
v 0.104154 -0.149912 0.012850
v 0.104154 0.149912 0.012850
v -0.110809 0.149912 0.012850
v -0.113263 0.149912 0.010286
v -0.113263 -0.149912 0.010286
v -0.110809 -0.149912 0.012850
v -0.114228 0.149912 0.003066
v -0.114228 -0.149912 0.003066
v -0.037151 0.149912 0.012850
v -0.038254 0.149912 0.004348
v -0.038530 0.149912 -0.004153
v -0.038914 0.148274 -0.021626
v -0.038914 -0.148274 -0.021626
v -0.038530 -0.149912 -0.004153
v -0.038254 -0.149912 0.004348
v -0.037151 -0.149912 0.012850
v 0.029827 0.149912 0.012850
v 0.029275 0.149912 0.004348
v 0.029137 0.149912 -0.004153
v 0.028370 0.148274 -0.016441
v 0.028370 -0.148274 -0.016441
v 0.029137 -0.149912 -0.004153
v 0.029275 -0.149912 0.004348
v 0.029827 -0.149912 0.012850
v -0.017942 0.149912 0.012850
v -0.018862 0.149912 0.004348
v -0.019092 0.149912 -0.004153
v -0.019604 0.148274 -0.020873
v -0.019604 -0.148274 -0.020873
v -0.019092 -0.149912 -0.004153
v -0.018862 -0.149912 0.004348
v -0.017942 -0.149912 0.012850
v 0.005943 0.149912 0.012850
v 0.005206 0.149912 0.004348
v 0.005022 0.149912 -0.004153
v 0.004383 0.148274 -0.019096
v 0.004383 -0.148274 -0.019096
v 0.005022 -0.149912 -0.004153
v 0.005206 -0.149912 0.004348
v 0.005943 -0.149912 0.012850
v -0.095237 0.149912 0.012850
v -0.096782 0.149912 0.004348
v -0.097169 0.149912 -0.004153
v -0.097246 0.148274 -0.016980
v -0.097246 -0.148274 -0.016980
v -0.097169 -0.149912 -0.004153
v -0.096782 -0.149912 0.004348
v -0.095237 -0.149912 0.012850
v -0.082147 0.149912 0.012850
v -0.083582 0.149912 0.004348
v -0.083942 0.149912 -0.004153
v -0.084095 0.148274 -0.020425
v -0.084095 -0.148274 -0.020425
v -0.083942 -0.149912 -0.004153
v -0.083582 -0.149912 0.004348
v -0.082147 -0.149912 0.012850
v -0.067816 0.149912 0.012850
v -0.069141 0.149912 0.004348
v -0.069472 0.149912 -0.004153
v -0.069703 0.148274 -0.021813
v -0.069703 -0.148274 -0.021813
v -0.069472 -0.149912 -0.004153
v -0.069141 -0.149912 0.004348
v -0.067816 -0.149912 0.012850
v -0.053486 0.149912 0.012850
v -0.054700 0.149912 0.004348
v -0.055003 0.149912 -0.004153
v -0.055310 0.148274 -0.021896
v -0.055310 -0.148274 -0.021896
v -0.055003 -0.149912 -0.004153
v -0.054700 -0.149912 0.004348
v -0.053486 -0.149912 0.012850
v 0.053689 0.149912 0.012850
v 0.053412 0.149912 0.004348
v 0.053343 0.149912 -0.004153
v 0.052384 0.148274 -0.013545
v 0.052384 -0.148274 -0.013545
v 0.053343 -0.149912 -0.004153
v 0.053412 -0.149912 0.004348
v 0.053689 -0.149912 0.012850
v 0.077585 0.149912 0.012850
v 0.077447 0.149912 0.004348
v 0.077413 0.149912 -0.004153
v 0.076357 0.148274 -0.010154
v 0.076357 -0.148274 -0.010154
v 0.077413 -0.149912 -0.004153
v 0.077447 -0.149912 0.004348
v 0.077585 -0.149912 0.012850
v -0.114403 -0.148483 -0.006561
v -0.114403 0.148483 -0.006561
v -0.115004 -0.149686 -0.004833
v -0.115004 0.149687 -0.004833
v -0.115527 -0.149686 -0.004833
v -0.115527 0.149687 -0.004833
v -0.105069 0.149912 0.012850
v -0.106670 0.149912 0.004348
v -0.107070 0.149912 -0.004153
v -0.107108 0.148274 -0.012828
v -0.107108 -0.148274 -0.012828
v -0.107070 -0.149912 -0.004153
v -0.106670 -0.149912 0.004348
v -0.105069 -0.149912 0.012850
v -0.115315 -0.148582 -0.004991
v -0.115315 -0.149912 -0.004153
v -0.115315 0.148583 -0.004991
v -0.115315 0.149912 -0.004153
v 0.096468 0.149912 0.012850
v 0.096432 0.149912 0.004348
v 0.096423 0.149912 -0.004153
v 0.095296 0.148274 -0.007063
v 0.095296 -0.148274 -0.007063
v 0.096423 -0.149912 -0.004153
v 0.096432 -0.149912 0.004348
v 0.096468 -0.149912 0.012850
vn 1.0000 -0.0000 -0.0000
vn -0.0000 1.0000 -0.0000
vn -0.9125 -0.0000 0.4092
vn -0.0113 -0.0000 0.9999
vn -0.0000 -1.0000 -0.0000
vn -0.0000 -0.0000 1.0000
vn -0.9866 -0.0000 0.1633
vn -0.9939 -0.0000 0.1099
vn -0.9988 -0.0000 0.0499
vn -0.9996 -0.0000 -0.0274
vn -0.0000 0.9997 -0.0244
vn -0.0000 0.9997 -0.0226
vn -0.0000 -0.9997 -0.0248
vn -0.0000 -0.9997 -0.0228
vn -0.6327 -0.0000 -0.7744
vn 0.6327 -0.0000 -0.7744
vn -0.0000 -0.9491 -0.3149
vn -0.0000 0.9997 -0.0231
vn -0.0000 0.9491 -0.3150
vn -0.0000 0.9997 -0.0250
vn 0.8661 -0.0000 -0.4998
vt 0.166553 0.331252
vt 0.164343 0.331263
vt 0.164298 0.168606
vt 0.166508 0.168618
vt 0.040567 0.332827
vt 0.040636 0.331263
vt 0.041770 0.331263
vt 0.042543 0.332827
vt 0.040636 0.168606
vt 0.041770 0.168606
vt 0.042543 0.167302
vt 0.040567 0.167302
vt 0.038101 0.331263
vt 0.038101 0.168606
vt 0.164311 0.332845
vt 0.164298 0.167287
vt 0.037977 0.167302
vt 0.038048 0.332827
vt 0.035565 0.331263
vt 0.033029 0.331263
vt 0.033029 0.168606
vt 0.035565 0.168606
vt 0.035528 0.332827
vt 0.033009 0.332827
vt 0.032796 0.167302
vt 0.035386 0.167302
vt 0.030594 0.331263
vt 0.030589 0.168548
vt 0.030604 0.332827
vt 0.030589 0.167302
vt 0.029997 0.331732
vt 0.029208 0.331732
vt 0.029208 0.168259
vt 0.029997 0.168259
vt 0.029997 0.167660
vt 0.029997 0.332384
vt 0.028308 0.331732
vt 0.028293 0.168259
s 1
usemtl M_BookFront_25_0
f 2/1/1 3/2/1 4/3/1 1/4/1
f 5/5/2 8/6/2 7/7/2 6/8/2
f 8/6/3 12/9/3 11/10/4 7/7/4
f 9/11/5 11/10/5 12/9/5 10/12/5
f 7/7/4 11/10/4 4/3/6 3/2/6
f 8/6/3 26/13/7 25/14/7 12/9/3
f 7/7/2 3/2/2 2/15/2 6/8/2
f 1/16/5 4/3/5 11/10/5 9/11/5
f 12/9/5 25/14/5 28/17/5 10/12/5
f 26/13/2 8/6/2 5/5/2 27/18/2
f 18/19/8 22/20/9 21/21/9 17/22/8
f 22/20/2 18/19/2 19/23/2 23/24/2
f 17/22/5 21/21/5 24/25/5 20/26/5
f 22/20/9 15/27/10 14/28/10 21/21/9
f 15/27/11 22/20/2 23/24/2 16/29/12
f 21/21/5 14/28/13 13/30/14 24/25/5
f 26/13/7 18/19/8 17/22/8 25/14/7
f 18/19/2 26/13/2 27/18/2 19/23/2
f 25/14/5 17/22/5 20/26/5 28/17/5
f 136/31/15 134/32/16 133/33/16 135/34/15
f 14/28/13 135/34/17 133/35/17 13/30/14
f 16/29/18 134/36/19 136/31/19 15/27/20
f 133/33/16 134/32/16 16/37/21 13/38/21
f 14/28/10 15/27/10 136/31/15 135/34/15
