# Blender 4.1.1
# www.blender.org
mtllib LightSwitchDialA_30_LightSwitchDialA_30_1_GeomSubset_0.mtl
o LightSwitchDialA_30_LightSwitchDialA_30_1_GeomSubset_0
v 0.000500 0.007671 0.058714
v -0.000500 0.007671 0.058714
v 0.000500 0.008671 0.058714
v -0.000500 0.008671 0.058714
v 0.000500 0.007671 0.058714
v -0.000500 0.007671 0.058714
v 0.000500 0.008671 0.058714
v -0.000500 0.008671 0.058714
v 0.000500 0.007671 0.058714
v -0.000500 0.007671 0.058714
v 0.000500 0.008671 0.058714
v -0.000500 0.008671 0.058714
v 0.049054 -0.011356 0.035839
v 0.048785 -0.010812 0.037581
v 0.011404 -0.010812 0.037581
v 0.011135 -0.011356 0.035839
v 0.049054 -0.004062 0.035857
v 0.048803 -0.004062 0.037557
v 0.011386 -0.004062 0.037557
v 0.011135 -0.004062 0.035857
v 0.048045 -0.011558 0.037578
v 0.047096 -0.012056 0.037576
v 0.047106 -0.012593 0.035806
v 0.048038 -0.012111 0.035813
v 0.012150 -0.012111 0.035813
v 0.013084 -0.012593 0.035806
v 0.013093 -0.012056 0.037576
v 0.012144 -0.011558 0.037578
v 0.048038 -0.013170 0.032797
v 0.047106 -0.013653 0.032792
v 0.013084 -0.013653 0.032792
v 0.012150 -0.013170 0.032797
v 0.011135 -0.012477 0.032578
v 0.011135 -0.004062 0.032578
v 0.049054 -0.004062 0.032578
v 0.049054 -0.012477 0.032578
v 0.011135 -0.012416 0.028103
v 0.011135 -0.004062 0.028103
v 0.049054 -0.004062 0.028103
v 0.049054 -0.012416 0.028103
v 0.049054 -0.017284 0.028164
v 0.011135 -0.017284 0.028164
v 0.048038 -0.017109 0.030292
v 0.047106 -0.017383 0.030543
v 0.013084 -0.017383 0.030543
v 0.012150 -0.017109 0.030292
v 0.011135 -0.016413 0.030068
v 0.049054 -0.016413 0.030068
v 0.011135 -0.015002 0.028100
v 0.049054 -0.015002 0.028100
v 0.049054 -0.014815 0.030954
v 0.048038 -0.015043 0.031456
v 0.047106 -0.015188 0.031629
v 0.011135 -0.014815 0.030954
v 0.047093 -0.010812 0.040193
v 0.048041 -0.010812 0.039747
v 0.048045 -0.011558 0.039062
v 0.047096 -0.012056 0.039060
v 0.047105 -0.004062 0.040193
v 0.048033 -0.004062 0.039757
v 0.013096 -0.010812 0.040193
v 0.012148 -0.010812 0.039747
v 0.012155 -0.004062 0.039757
v 0.013084 -0.004062 0.040193
v 0.013093 -0.012056 0.039060
v 0.012144 -0.011558 0.039062
v 0.048476 -0.010812 0.039065
v 0.048495 -0.004062 0.039041
v 0.011712 -0.010812 0.039065
v 0.011694 -0.004062 0.039041
v 0.044488 -0.012057 0.039060
v 0.042542 -0.012057 0.039060
v 0.044488 -0.012057 0.037576
v 0.042542 -0.012057 0.037576
v 0.042542 -0.012593 0.035804
v 0.044488 -0.012593 0.035807
v 0.042542 -0.013653 0.032792
v 0.044488 -0.013653 0.032792
v 0.042542 -0.015188 0.031629
v 0.044488 -0.015188 0.031629
v 0.042542 -0.017383 0.030543
v 0.044488 -0.017383 0.030543
v 0.044488 -0.018568 0.028164
v 0.042542 -0.018568 0.028164
v 0.042542 -0.004062 0.028103
v 0.044488 -0.004062 0.028103
v 0.044488 -0.004062 0.032578
v 0.042542 -0.004062 0.032578
v 0.044488 -0.004062 0.035893
v 0.042542 -0.004062 0.035822
v 0.044488 -0.004062 0.037557
v 0.042542 -0.004062 0.037557
v 0.044487 -0.004062 0.039041
v 0.042540 -0.004062 0.039041
v 0.042542 -0.004062 0.039757
v 0.042542 -0.004062 0.040193
v 0.044488 -0.004062 0.040193
v 0.042542 -0.010812 0.040193
v 0.044488 -0.010812 0.040193
v 0.017441 -0.012057 0.039060
v 0.015519 -0.012057 0.039060
v 0.015519 -0.012057 0.037576
v 0.017441 -0.012057 0.037576
v 0.015519 -0.012593 0.035807
v 0.017441 -0.012593 0.035805
v 0.015519 -0.013653 0.032792
v 0.017441 -0.013653 0.032792
v 0.015519 -0.015188 0.031628
v 0.017441 -0.015188 0.031628
v 0.015519 -0.017383 0.030543
v 0.017441 -0.017383 0.030543
v 0.015519 -0.018568 0.028164
v 0.017441 -0.018568 0.028164
v 0.015519 -0.004062 0.028103
v 0.017441 -0.004062 0.028103
v 0.015519 -0.004062 0.032578
v 0.017441 -0.004062 0.032578
v 0.015519 -0.004062 0.035893
v 0.017441 -0.004062 0.035822
v 0.015519 -0.004062 0.037557
v 0.017441 -0.004062 0.037557
v 0.015519 -0.004062 0.039041
v 0.017441 -0.004062 0.039041
v 0.017441 -0.004062 0.039757
v 0.015519 -0.004062 0.040193
v 0.017441 -0.004062 0.040193
v 0.015519 -0.010812 0.040193
v 0.017441 -0.010812 0.040193
v 0.044488 -0.004062 0.039757
v 0.015519 -0.004062 0.039757
v 0.049054 -0.011356 0.018289
v 0.048785 -0.010812 0.016548
v 0.011404 -0.010812 0.016548
v 0.011135 -0.011356 0.018289
v 0.049054 -0.004062 0.018271
v 0.048803 -0.004062 0.016572
v 0.011386 -0.004062 0.016572
v 0.011135 -0.004062 0.018271
v 0.048045 -0.011558 0.016551
v 0.047096 -0.012056 0.016553
v 0.047106 -0.012593 0.018323
v 0.048038 -0.012111 0.018315
v 0.012150 -0.012111 0.018315
v 0.013084 -0.012593 0.018323
v 0.013093 -0.012056 0.016553
v 0.012144 -0.011558 0.016551
v 0.048038 -0.013170 0.021331
v 0.047106 -0.013653 0.021336
v 0.013084 -0.013653 0.021336
v 0.012150 -0.013170 0.021331
v 0.011135 -0.012477 0.021549
v 0.011135 -0.004062 0.021549
v 0.049054 -0.004062 0.021549
v 0.049054 -0.012477 0.021549
v 0.011135 -0.012416 0.026023
v 0.011135 -0.004062 0.026023
v 0.049054 -0.004062 0.026023
v 0.049054 -0.012416 0.026023
v 0.049054 -0.017284 0.025963
v 0.011135 -0.017284 0.025963
v 0.048038 -0.017109 0.023835
v 0.047106 -0.017383 0.023585
v 0.013084 -0.017383 0.023585
v 0.012150 -0.017109 0.023835
v 0.011135 -0.016413 0.024059
v 0.049054 -0.016413 0.024059
v 0.011135 -0.015002 0.026026
v 0.049054 -0.015002 0.026026
v 0.049054 -0.014815 0.023173
v 0.048038 -0.015043 0.022672
v 0.047106 -0.015188 0.022499
v 0.013084 -0.015188 0.022499
v 0.012150 -0.015044 0.022672
v 0.011135 -0.014815 0.023173
v 0.047093 -0.010812 0.013936
v 0.048041 -0.010812 0.014382
v 0.048045 -0.011558 0.015067
v 0.047096 -0.012056 0.015069
v 0.047105 -0.004062 0.013936
v 0.048033 -0.004062 0.014372
v 0.013096 -0.010812 0.013936
v 0.012148 -0.010812 0.014382
v 0.012155 -0.004062 0.014372
v 0.013084 -0.004062 0.013936
v 0.013093 -0.012056 0.015069
v 0.012144 -0.011558 0.015067
v 0.048476 -0.010812 0.015064
v 0.048495 -0.004062 0.015088
v 0.011712 -0.010812 0.015064
v 0.011694 -0.004062 0.015088
v 0.044488 -0.012057 0.015069
v 0.042542 -0.012057 0.015069
v 0.044488 -0.012057 0.016553
v 0.042542 -0.012057 0.016553
v 0.042542 -0.012593 0.018324
v 0.044488 -0.012593 0.018322
v 0.042542 -0.013653 0.021336
v 0.044488 -0.013653 0.021336
v 0.042542 -0.015188 0.022499
v 0.044488 -0.015188 0.022499
v 0.042542 -0.017383 0.023585
v 0.044488 -0.017383 0.023585
v 0.044488 -0.018568 0.025963
v 0.042542 -0.018568 0.025963
v 0.042542 -0.004062 0.026023
v 0.044488 -0.004062 0.026023
v 0.044488 -0.004062 0.021549
v 0.042542 -0.004062 0.021549
v 0.044488 -0.004062 0.018236
v 0.042542 -0.004062 0.018307
v 0.044488 -0.004062 0.016572
v 0.042542 -0.004062 0.016572
v 0.044487 -0.004062 0.015088
v 0.042540 -0.004062 0.015088
v 0.042542 -0.004062 0.014372
v 0.042542 -0.004062 0.013936
v 0.044488 -0.004062 0.013936
v 0.042542 -0.010812 0.013936
v 0.044488 -0.010812 0.013936
v 0.017441 -0.012057 0.015069
v 0.015519 -0.012057 0.015069
v 0.015519 -0.012057 0.016553
v 0.017441 -0.012057 0.016553
v 0.015519 -0.012593 0.018322
v 0.017441 -0.012593 0.018324
v 0.015519 -0.013653 0.021336
v 0.017441 -0.013653 0.021336
v 0.015519 -0.015188 0.022499
v 0.017441 -0.015188 0.022499
v 0.015519 -0.017383 0.023585
v 0.017441 -0.017383 0.023585
v 0.015519 -0.018568 0.025963
v 0.017441 -0.018568 0.025963
v 0.015519 -0.004062 0.026023
v 0.017441 -0.004062 0.026023
v 0.015519 -0.004062 0.021549
v 0.017441 -0.004062 0.021549
v 0.015519 -0.004062 0.018236
v 0.017441 -0.004062 0.018307
v 0.015519 -0.004062 0.016572
v 0.017441 -0.004062 0.016572
v 0.015519 -0.004062 0.015088
v 0.017441 -0.004062 0.015088
v 0.017441 -0.004062 0.014372
v 0.015519 -0.004062 0.013936
v 0.017441 -0.004062 0.013936
v 0.015519 -0.010812 0.013936
v 0.017441 -0.010812 0.013936
v 0.044488 -0.004062 0.014372
v 0.015519 -0.004062 0.014372
v 0.044488 0.000333 0.028103
v 0.042542 0.000333 0.028103
v 0.044488 0.000333 0.032578
v 0.042542 0.000333 0.032578
v 0.044488 0.000333 0.035893
v 0.042542 0.000333 0.035822
v 0.044488 0.000333 0.037557
v 0.042542 0.000333 0.037557
v 0.044487 0.000333 0.039041
v 0.042540 0.000333 0.039041
v 0.044488 0.000333 0.039757
v 0.042542 0.000333 0.039757
v 0.044488 0.000333 0.040193
v 0.042542 0.000333 0.040193
v 0.042542 0.000333 0.021549
v 0.042542 0.000333 0.026023
v 0.044488 0.000333 0.021549
v 0.044488 0.000333 0.026023
v 0.042542 0.000333 0.018307
v 0.044488 0.000333 0.018236
v 0.042542 0.000333 0.016572
v 0.044488 0.000333 0.016572
v 0.042540 0.000333 0.015088
v 0.044487 0.000333 0.015088
v 0.042542 0.000333 0.014372
v 0.044488 0.000333 0.014372
v 0.042542 0.000333 0.013936
v 0.044488 0.000333 0.013936
v 0.017441 0.000333 0.028103
v 0.015519 0.000333 0.028103
v 0.017441 0.000333 0.032578
v 0.015519 0.000333 0.032578
v 0.017441 0.000333 0.035822
v 0.015519 0.000333 0.035893
v 0.017441 0.000333 0.037557
v 0.015519 0.000333 0.037557
v 0.017441 0.000333 0.039041
v 0.015519 0.000333 0.039041
v 0.017441 0.000333 0.039757
v 0.015519 0.000333 0.039757
v 0.017441 0.000333 0.040193
v 0.015519 0.000333 0.040193
v 0.015519 0.000333 0.021549
v 0.015519 0.000333 0.026023
v 0.017441 0.000333 0.021549
v 0.017441 0.000333 0.026023
v 0.015519 0.000333 0.018236
v 0.017441 0.000333 0.018307
v 0.015519 0.000333 0.016572
v 0.017441 0.000333 0.016572
v 0.015519 0.000333 0.015088
v 0.017441 0.000333 0.015088
v 0.015519 0.000333 0.014372
v 0.017441 0.000333 0.014372
v 0.015519 0.000333 0.013936
v 0.017441 0.000333 0.013936
v 0.047066 -0.018419 0.028164
v 0.047066 -0.018419 0.025963
v 0.047992 -0.018076 0.025963
v 0.047992 -0.018076 0.028164
v 0.013034 -0.015126 0.031554
v 0.012108 -0.015013 0.031340
v 0.012267 -0.018129 0.028164
v 0.012267 -0.018129 0.025963
v 0.013192 -0.018424 0.025963
v 0.013192 -0.018424 0.028164
vn -0.0000 -0.0000 -1.0000
vt 1.088907 0.675748
vt 1.088907 0.671852
vt 1.092803 0.671852
vt 1.092803 0.675748
s 1
usemtl M_LightSwitchDialA_30_0
f 1/1/1 2/2/1 4/3/1 3/4/1
