# Blender 4.1.1
# www.blender.org
mtllib MeshLightSwitch_30_0_GeomSubset_2.mtl
o MeshLightSwitch_30_0_GeomSubset_2
v 0.000500 0.007672 0.000000
v -0.000500 0.007672 0.000000
v 0.000500 0.008671 0.000000
v -0.000500 0.008671 0.000000
v 0.000500 0.007672 0.000000
v -0.000500 0.007672 0.000000
v 0.000500 0.008671 0.000000
v -0.000500 0.008671 0.000000
v 0.000500 0.007672 0.000000
v -0.000500 0.007672 0.000000
v 0.000500 0.008671 0.000000
v -0.000500 0.008671 0.000000
v -0.070126 -0.000766 -0.070680
v -0.070126 -0.003154 -0.069691
v -0.070126 -0.004144 -0.067303
v -0.070126 -0.004144 0.062972
v -0.070126 -0.003154 0.065359
v -0.070126 -0.000767 0.066348
v -0.070126 0.008171 0.066348
v -0.070126 0.008171 -0.070680
v -0.043481 -0.004144 0.062972
v -0.043481 -0.003154 0.065359
v -0.043481 -0.000767 0.066348
v -0.043481 0.008171 0.066348
v -0.043515 -0.004144 -0.067303
v -0.043515 -0.003154 -0.069691
v -0.043515 -0.000766 -0.070680
v -0.043515 0.008171 -0.070680
v -0.042257 -0.004033 -0.040875
v -0.043515 -0.004033 -0.042323
v -0.042610 0.000131 -0.040491
v -0.043515 0.000131 -0.041477
v -0.042257 -0.004033 0.037730
v -0.042610 0.000131 0.037346
v -0.044772 -0.004033 0.037730
v -0.043515 -0.004033 0.039178
v -0.044420 0.000131 0.037346
v -0.043515 0.000131 0.038332
v -0.044772 -0.004033 -0.040875
v -0.044420 0.000131 -0.040491
v -0.043515 -0.004113 -0.053512
v -0.057836 -0.004113 -0.053512
v -0.057836 -0.004113 0.049774
v -0.043481 -0.004113 0.049774
v -0.043515 -0.004072 -0.057098
v -0.060841 -0.004072 -0.057098
v -0.060841 -0.004072 0.053305
v -0.043481 -0.004072 0.053305
v -0.074856 -0.000766 -0.070680
v -0.077496 -0.000766 -0.069691
v -0.077496 0.008171 -0.069691
v -0.074856 0.008171 -0.070680
v -0.078590 -0.000766 -0.067303
v -0.078590 0.008171 -0.067303
v -0.077496 -0.003154 -0.067303
v -0.077496 -0.003154 0.062972
v -0.078590 -0.000767 0.062972
v -0.074856 -0.004144 -0.067303
v -0.074856 -0.004144 0.062972
v -0.077496 -0.000767 0.065359
v -0.077496 0.008171 0.065359
v -0.078590 0.008171 0.062972
v -0.074856 -0.000767 0.066348
v -0.074856 0.008171 0.066348
v -0.077011 -0.002715 -0.069252
v -0.074856 -0.003154 -0.069691
v -0.074856 -0.003154 0.065359
v -0.077011 -0.002715 0.064920
v -0.071573 -0.004596 0.060993
v -0.072982 -0.004596 0.059585
v -0.072982 -0.004596 0.055737
v -0.071573 -0.004596 0.054329
v -0.069649 -0.004596 0.053813
v -0.067726 -0.004596 0.054329
v -0.066318 -0.004596 0.055737
v -0.066318 -0.004596 0.059585
v -0.067726 -0.004596 0.060993
v -0.069649 -0.004596 0.061508
v -0.071427 -0.004930 0.060739
v -0.072728 -0.004930 0.059438
v -0.072728 -0.004930 0.055883
v -0.071427 -0.004930 0.054582
v -0.069649 -0.004930 0.054106
v -0.067872 -0.004930 0.054582
v -0.066571 -0.004930 0.055883
v -0.066571 -0.004930 0.059438
v -0.067872 -0.004930 0.060739
v -0.069649 -0.004930 0.061215
v -0.071010 -0.005199 0.060017
v -0.072006 -0.005199 0.059021
v -0.072006 -0.005199 0.056301
v -0.071010 -0.005199 0.055305
v -0.069649 -0.005199 0.054940
v -0.068289 -0.005199 0.055305
v -0.067294 -0.005199 0.056301
v -0.067294 -0.005199 0.059021
v -0.068289 -0.005199 0.060017
v -0.069649 -0.005199 0.060381
v -0.070386 -0.005379 0.058936
v -0.070925 -0.005379 0.058397
v -0.070925 -0.005379 0.056925
v -0.070386 -0.005379 0.056386
v -0.069649 -0.005379 0.056188
v -0.068913 -0.005379 0.056386
v -0.068374 -0.005379 0.056925
v -0.068374 -0.005379 0.058397
v -0.068913 -0.005379 0.058936
v -0.069649 -0.005379 0.059133
v -0.073438 -0.004596 0.057440
v -0.073438 -0.004596 0.057882
v -0.073145 -0.004930 0.057882
v -0.073145 -0.004930 0.057440
v -0.065861 -0.004596 0.057882
v -0.065861 -0.004596 0.057440
v -0.066154 -0.004930 0.057440
v -0.066154 -0.004930 0.057882
v -0.072311 -0.005199 0.057882
v -0.072311 -0.005199 0.057440
v -0.066988 -0.005199 0.057440
v -0.066988 -0.005199 0.057882
v -0.071063 -0.005379 0.057882
v -0.071063 -0.005379 0.057440
v -0.068236 -0.005379 0.057440
v -0.068236 -0.005379 0.057882
v -0.069649 -0.005432 0.057440
v -0.069649 -0.005432 0.057882
v -0.073228 -0.004596 0.057882
v -0.073228 -0.004596 0.057440
v -0.072996 -0.004698 0.057440
v -0.072996 -0.004698 0.057882
v -0.072247 -0.004922 0.057440
v -0.072247 -0.004922 0.057882
v -0.066071 -0.004596 0.057440
v -0.066071 -0.004596 0.057882
v -0.066303 -0.004698 0.057882
v -0.066303 -0.004698 0.057440
v -0.067052 -0.004922 0.057882
v -0.067052 -0.004922 0.057440
v -0.071037 -0.005095 0.057440
v -0.071037 -0.005095 0.057882
v -0.068262 -0.005095 0.057882
v -0.068262 -0.005095 0.057440
v -0.069649 -0.005147 0.057440
v -0.069649 -0.005147 0.057882
v -0.071573 -0.004128 0.060993
v -0.072982 -0.004128 0.059585
v -0.073438 -0.004128 0.057882
v -0.072982 -0.004128 0.055737
v -0.071573 -0.004128 0.054329
v -0.069649 -0.004128 0.053813
v -0.067726 -0.004128 0.054329
v -0.066318 -0.004128 0.055737
v -0.065861 -0.004128 0.057440
v -0.066318 -0.004128 0.059585
v -0.067726 -0.004128 0.060993
v -0.069649 -0.004128 0.061508
v -0.073438 -0.004128 0.057440
v -0.065861 -0.004128 0.057882
v -0.073228 -0.004128 0.057882
v -0.073228 -0.004128 0.057440
v -0.066071 -0.004128 0.057440
v -0.066071 -0.004128 0.057882
v -0.071573 -0.004596 -0.058641
v -0.072982 -0.004596 -0.060050
v -0.072982 -0.004596 -0.063897
v -0.071573 -0.004596 -0.065305
v -0.069649 -0.004596 -0.065821
v -0.067726 -0.004596 -0.065305
v -0.066318 -0.004596 -0.063897
v -0.066318 -0.004596 -0.060050
v -0.067726 -0.004596 -0.058641
v -0.069649 -0.004596 -0.058126
v -0.071427 -0.004930 -0.058895
v -0.072728 -0.004930 -0.060196
v -0.072728 -0.004930 -0.063751
v -0.071427 -0.004930 -0.065052
v -0.069649 -0.004930 -0.065528
v -0.067872 -0.004930 -0.065052
v -0.066571 -0.004930 -0.063751
v -0.066571 -0.004930 -0.060196
v -0.067872 -0.004930 -0.058895
v -0.069649 -0.004930 -0.058419
v -0.071010 -0.005199 -0.059617
v -0.072006 -0.005199 -0.060613
v -0.072006 -0.005199 -0.063334
v -0.071010 -0.005199 -0.064329
v -0.069649 -0.005199 -0.064694
v -0.068289 -0.005199 -0.064329
v -0.067294 -0.005199 -0.063334
v -0.067294 -0.005199 -0.060613
v -0.068289 -0.005199 -0.059617
v -0.069649 -0.005199 -0.059253
v -0.070386 -0.005379 -0.060698
v -0.070925 -0.005379 -0.061237
v -0.070925 -0.005379 -0.062710
v -0.070386 -0.005379 -0.063249
v -0.069649 -0.005379 -0.063446
v -0.068913 -0.005379 -0.063249
v -0.068374 -0.005379 -0.062710
v -0.068374 -0.005379 -0.061237
v -0.068913 -0.005379 -0.060698
v -0.069649 -0.005379 -0.060501
v -0.073438 -0.004596 -0.062194
v -0.073438 -0.004596 -0.061753
v -0.073145 -0.004930 -0.061753
v -0.073145 -0.004930 -0.062194
v -0.065861 -0.004596 -0.061753
v -0.065861 -0.004596 -0.062194
v -0.066154 -0.004930 -0.062194
v -0.066154 -0.004930 -0.061753
v -0.072311 -0.005199 -0.061753
v -0.072311 -0.005199 -0.062194
v -0.066988 -0.005199 -0.062194
v -0.066988 -0.005199 -0.061753
v -0.071063 -0.005379 -0.061753
v -0.071063 -0.005379 -0.062194
v -0.068236 -0.005379 -0.062194
v -0.068236 -0.005379 -0.061753
v -0.069649 -0.005432 -0.062194
v -0.069649 -0.005432 -0.061753
v -0.073228 -0.004596 -0.061753
v -0.073228 -0.004596 -0.062194
v -0.072996 -0.004698 -0.062194
v -0.072996 -0.004698 -0.061753
v -0.072247 -0.004922 -0.062194
v -0.072247 -0.004922 -0.061753
v -0.066071 -0.004596 -0.062194
v -0.066071 -0.004596 -0.061753
v -0.066303 -0.004698 -0.061753
v -0.066303 -0.004698 -0.062194
v -0.067052 -0.004922 -0.061753
v -0.067052 -0.004922 -0.062194
v -0.071037 -0.005095 -0.062194
v -0.071037 -0.005095 -0.061753
v -0.068262 -0.005095 -0.061753
v -0.068262 -0.005095 -0.062194
v -0.069649 -0.005147 -0.062194
v -0.069649 -0.005147 -0.061753
v -0.071573 -0.004128 -0.058641
v -0.072982 -0.004128 -0.060050
v -0.073438 -0.004128 -0.061753
v -0.072982 -0.004128 -0.063897
v -0.071573 -0.004128 -0.065305
v -0.069649 -0.004128 -0.065821
v -0.067726 -0.004128 -0.065305
v -0.066318 -0.004128 -0.063897
v -0.065861 -0.004128 -0.062194
v -0.066318 -0.004128 -0.060050
v -0.067726 -0.004128 -0.058641
v -0.069649 -0.004128 -0.058126
v -0.073438 -0.004128 -0.062194
v -0.065861 -0.004128 -0.061753
v -0.073228 -0.004128 -0.061753
v -0.073228 -0.004128 -0.062194
v -0.066071 -0.004128 -0.062194
v -0.066071 -0.004128 -0.061753
v -0.015222 -0.004033 -0.040875
v -0.016480 -0.004033 -0.042323
v -0.015575 0.000131 -0.040491
v -0.016480 0.000131 -0.041477
v -0.015222 -0.004033 0.037730
v -0.015575 0.000131 0.037346
v -0.017737 -0.004033 0.037730
v -0.016480 -0.004033 0.039178
v -0.017385 0.000131 0.037346
v -0.016480 0.000131 0.038332
v -0.017737 -0.004033 -0.040875
v -0.017385 0.000131 -0.040491
v -0.016517 0.008171 0.066348
v -0.016480 0.008171 -0.070680
v -0.016517 -0.004144 0.062972
v -0.016517 -0.003154 0.065359
v -0.016517 -0.000767 0.066348
v -0.016480 -0.004144 -0.067303
v -0.016480 -0.003154 -0.069691
v -0.016480 -0.000766 -0.070680
v -0.016480 -0.004113 -0.053512
v -0.016517 -0.004113 0.049774
v -0.016480 -0.004072 -0.057098
v -0.016517 -0.004072 0.053305
v 0.000000 -0.004113 -0.053512
v 0.000000 -0.004113 0.049774
v 0.000000 -0.004144 0.062972
v 0.000000 -0.003154 0.065359
v 0.000000 -0.000767 0.066348
v 0.000000 0.008171 0.066348
v 0.000000 -0.004144 -0.067303
v 0.000000 -0.003154 -0.069691
v 0.000000 -0.000766 -0.070680
v 0.000000 0.008171 -0.070680
v 0.000000 -0.004072 -0.057098
v 0.000000 -0.004072 0.053305
v -0.016480 -0.003154 -0.047729
v -0.016361 -0.003165 -0.048211
v -0.008561 -0.003166 -0.048211
v -0.009130 -0.003156 -0.047729
v -0.043515 -0.003154 -0.047729
v -0.043621 -0.003165 -0.048211
v -0.052078 -0.003156 -0.047729
v -0.052639 -0.003167 -0.048211
v -0.052307 -0.003158 0.044288
v -0.052865 -0.003168 0.044769
v -0.043481 -0.003154 0.044288
v -0.043587 -0.003166 0.044769
v -0.016517 -0.003154 0.044288
v -0.016399 -0.003166 0.044769
v -0.008598 -0.003155 0.044288
v -0.008035 -0.003166 0.044769
v -0.043515 -0.004695 -0.054233
v -0.043515 -0.004931 -0.054912
v -0.059227 -0.004925 -0.054901
v -0.058550 -0.004685 -0.054224
v -0.043515 -0.004922 -0.055733
v -0.043515 -0.004668 -0.056406
v -0.060142 -0.004679 -0.056398
v -0.059468 -0.004928 -0.055723
v -0.059227 -0.004925 0.051163
v -0.058550 -0.004685 0.050486
v -0.060142 -0.004679 0.052605
v -0.059468 -0.004928 0.051930
v -0.043481 -0.004931 0.051174
v -0.043481 -0.004695 0.050495
v -0.043481 -0.004668 0.052613
v -0.043481 -0.004922 0.051941
v -0.016480 -0.004695 -0.054233
v -0.016480 -0.004931 -0.054912
v -0.016480 -0.004922 -0.055733
v -0.016480 -0.004668 -0.056406
v -0.016517 -0.004931 0.051174
v -0.016517 -0.004695 0.050495
v -0.016517 -0.004668 0.052613
v -0.016517 -0.004922 0.051941
v 0.000000 -0.004695 -0.054233
v 0.000000 -0.004931 -0.054912
v 0.000000 -0.004922 -0.055733
v 0.000000 -0.004668 -0.056406
v 0.000000 -0.004931 0.051174
v 0.000000 -0.004695 0.050495
v 0.000000 -0.004668 0.052613
v 0.000000 -0.004922 0.051941
v -0.016480 -0.004081 -0.049504
v -0.016480 -0.003808 -0.048799
v -0.007283 -0.004082 -0.049509
v -0.007996 -0.003815 -0.048805
v -0.016480 -0.004064 -0.046693
v -0.016480 -0.003710 -0.047361
v -0.010093 -0.004067 -0.046675
v -0.009441 -0.003704 -0.047365
v -0.043515 -0.004064 -0.046693
v -0.043515 -0.003710 -0.047361
v -0.043515 -0.004081 -0.049504
v -0.043515 -0.003808 -0.048799
v -0.051683 -0.004067 -0.046693
v -0.051763 -0.003706 -0.047365
v -0.053924 -0.004082 -0.049502
v -0.053213 -0.003816 -0.048806
v -0.051330 -0.004069 0.043236
v -0.051989 -0.003707 0.043923
v -0.054169 -0.004084 0.046069
v -0.053446 -0.003818 0.045365
v -0.043484 -0.004063 0.043251
v -0.043481 -0.003709 0.043919
v -0.043481 -0.004082 0.046063
v -0.043481 -0.003809 0.045357
v -0.016514 -0.004063 0.043251
v -0.016517 -0.003709 0.043919
v -0.016517 -0.004082 0.046063
v -0.016517 -0.003809 0.045357
v -0.009560 -0.004065 0.043251
v -0.008916 -0.003703 0.043924
v -0.006738 -0.004082 0.046061
v -0.007454 -0.003815 0.045365
v 0.070126 -0.000766 -0.070680
v 0.070126 -0.003154 -0.069691
v 0.070126 -0.004144 -0.067303
v 0.070126 -0.004144 0.062972
v 0.070126 -0.003154 0.065359
v 0.070126 -0.000767 0.066348
v 0.070126 0.008171 0.066348
v 0.070126 0.008171 -0.070680
v 0.043481 -0.004144 0.062972
v 0.043481 -0.003154 0.065359
v 0.043481 -0.000767 0.066348
v 0.043481 0.008171 0.066348
v 0.043515 -0.004144 -0.067303
v 0.043515 -0.003154 -0.069691
v 0.043515 -0.000766 -0.070680
v 0.043515 0.008171 -0.070680
v 0.042257 -0.004033 -0.040875
v 0.043515 -0.004033 -0.042323
v 0.042610 0.000131 -0.040491
v 0.043515 0.000131 -0.041477
v 0.042257 -0.004033 0.037730
v 0.042610 0.000131 0.037346
v 0.044772 -0.004033 0.037730
v 0.043515 -0.004033 0.039178
v 0.044419 0.000131 0.037346
v 0.043515 0.000131 0.038332
v 0.044772 -0.004033 -0.040875
v 0.044419 0.000131 -0.040491
v 0.043515 -0.004113 -0.053512
v 0.057836 -0.004113 -0.053512
v 0.057836 -0.004113 0.049774
v 0.043481 -0.004113 0.049774
v 0.043515 -0.004072 -0.057098
v 0.060841 -0.004072 -0.057098
v 0.060841 -0.004072 0.053305
v 0.043481 -0.004072 0.053305
v 0.074856 -0.000766 -0.070680
v 0.077496 -0.000766 -0.069691
v 0.077496 0.008171 -0.069691
v 0.074856 0.008171 -0.070680
v 0.078590 -0.000766 -0.067303
v 0.078590 0.008171 -0.067303
v 0.077496 -0.003154 -0.067303
v 0.077496 -0.003154 0.062972
v 0.078590 -0.000767 0.062972
v 0.074856 -0.004144 -0.067303
v 0.074856 -0.004144 0.062972
v 0.077496 -0.000767 0.065359
v 0.077496 0.008171 0.065359
v 0.078590 0.008171 0.062972
v 0.074856 -0.000767 0.066348
v 0.074856 0.008171 0.066348
v 0.077011 -0.002715 -0.069252
v 0.074856 -0.003154 -0.069691
v 0.074856 -0.003154 0.065359
v 0.077011 -0.002715 0.064920
v 0.071573 -0.004596 0.060993
v 0.072981 -0.004596 0.059585
v 0.072981 -0.004596 0.055737
v 0.071573 -0.004596 0.054329
v 0.069649 -0.004596 0.053813
v 0.067726 -0.004596 0.054329
v 0.066317 -0.004596 0.055737
v 0.066317 -0.004596 0.059585
v 0.067726 -0.004596 0.060993
v 0.069649 -0.004596 0.061508
v 0.071427 -0.004930 0.060739
v 0.072728 -0.004930 0.059438
v 0.072728 -0.004930 0.055883
v 0.071427 -0.004930 0.054582
v 0.069649 -0.004930 0.054106
v 0.067872 -0.004930 0.054582
v 0.066571 -0.004930 0.055883
v 0.066571 -0.004930 0.059438
v 0.067872 -0.004930 0.060739
v 0.069649 -0.004930 0.061215
v 0.071010 -0.005199 0.060017
v 0.072006 -0.005199 0.059021
v 0.072006 -0.005199 0.056301
v 0.071010 -0.005199 0.055305
v 0.069649 -0.005199 0.054940
v 0.068289 -0.005199 0.055305
v 0.067293 -0.005199 0.056301
v 0.067293 -0.005199 0.059021
v 0.068289 -0.005199 0.060017
v 0.069649 -0.005199 0.060381
v 0.070386 -0.005379 0.058936
v 0.070925 -0.005379 0.058397
v 0.070925 -0.005379 0.056925
v 0.070386 -0.005379 0.056386
v 0.069649 -0.005379 0.056188
v 0.068913 -0.005379 0.056386
v 0.068374 -0.005379 0.056925
v 0.068374 -0.005379 0.058397
v 0.068913 -0.005379 0.058936
v 0.069649 -0.005379 0.059133
v 0.073438 -0.004596 0.057440
v 0.073438 -0.004596 0.057882
v 0.073145 -0.004930 0.057882
v 0.073145 -0.004930 0.057440
v 0.065861 -0.004596 0.057882
v 0.065861 -0.004596 0.057440
v 0.066154 -0.004930 0.057440
v 0.066154 -0.004930 0.057882
v 0.072311 -0.005199 0.057882
v 0.072311 -0.005199 0.057440
v 0.066988 -0.005199 0.057440
v 0.066988 -0.005199 0.057882
v 0.071063 -0.005379 0.057882
v 0.071063 -0.005379 0.057440
v 0.068236 -0.005379 0.057440
v 0.068236 -0.005379 0.057882
v 0.069649 -0.005432 0.057440
v 0.069649 -0.005432 0.057882
v 0.073228 -0.004596 0.057882
v 0.073228 -0.004596 0.057440
v 0.072996 -0.004698 0.057440
v 0.072996 -0.004698 0.057882
v 0.072247 -0.004922 0.057440
v 0.072247 -0.004922 0.057882
v 0.066071 -0.004596 0.057440
v 0.066071 -0.004596 0.057882
v 0.066303 -0.004698 0.057882
v 0.066303 -0.004698 0.057440
v 0.067052 -0.004922 0.057882
v 0.067052 -0.004922 0.057440
v 0.071037 -0.005095 0.057440
v 0.071037 -0.005095 0.057882
v 0.068262 -0.005095 0.057882
v 0.068262 -0.005095 0.057440
v 0.069649 -0.005147 0.057440
v 0.069649 -0.005147 0.057882
v 0.071573 -0.004128 0.060993
v 0.072981 -0.004128 0.059585
v 0.073438 -0.004128 0.057882
v 0.072981 -0.004128 0.055737
v 0.071573 -0.004128 0.054329
v 0.069649 -0.004128 0.053813
v 0.067726 -0.004128 0.054329
v 0.066317 -0.004128 0.055737
v 0.065861 -0.004128 0.057440
v 0.066317 -0.004128 0.059585
v 0.067726 -0.004128 0.060993
v 0.069649 -0.004128 0.061508
v 0.073438 -0.004128 0.057440
v 0.065861 -0.004128 0.057882
v 0.073228 -0.004128 0.057882
v 0.073228 -0.004128 0.057440
v 0.066071 -0.004128 0.057440
v 0.066071 -0.004128 0.057882
v 0.071573 -0.004596 -0.058641
v 0.072981 -0.004596 -0.060050
v 0.072981 -0.004596 -0.063897
v 0.071573 -0.004596 -0.065305
v 0.069649 -0.004596 -0.065821
v 0.067726 -0.004596 -0.065305
v 0.066317 -0.004596 -0.063897
v 0.066317 -0.004596 -0.060050
v 0.067726 -0.004596 -0.058641
v 0.069649 -0.004596 -0.058126
v 0.071427 -0.004930 -0.058895
v 0.072728 -0.004930 -0.060196
v 0.072728 -0.004930 -0.063751
v 0.071427 -0.004930 -0.065052
v 0.069649 -0.004930 -0.065528
v 0.067872 -0.004930 -0.065052
v 0.066571 -0.004930 -0.063751
v 0.066571 -0.004930 -0.060196
v 0.067872 -0.004930 -0.058895
v 0.069649 -0.004930 -0.058419
v 0.071010 -0.005199 -0.059617
v 0.072006 -0.005199 -0.060613
v 0.072006 -0.005199 -0.063334
v 0.071010 -0.005199 -0.064329
v 0.069649 -0.005199 -0.064694
v 0.068289 -0.005199 -0.064329
v 0.067293 -0.005199 -0.063334
v 0.067293 -0.005199 -0.060613
v 0.068289 -0.005199 -0.059617
v 0.069649 -0.005199 -0.059253
v 0.070386 -0.005379 -0.060698
v 0.070925 -0.005379 -0.061237
v 0.070925 -0.005379 -0.062710
v 0.070386 -0.005379 -0.063249
v 0.069649 -0.005379 -0.063446
v 0.068913 -0.005379 -0.063249
v 0.068374 -0.005379 -0.062710
v 0.068374 -0.005379 -0.061237
v 0.068913 -0.005379 -0.060698
v 0.069649 -0.005379 -0.060501
v 0.073438 -0.004596 -0.062194
v 0.073438 -0.004596 -0.061753
v 0.073145 -0.004930 -0.061753
v 0.073145 -0.004930 -0.062194
v 0.065861 -0.004596 -0.061753
v 0.065861 -0.004596 -0.062194
v 0.066154 -0.004930 -0.062194
v 0.066154 -0.004930 -0.061753
v 0.072311 -0.005199 -0.061753
v 0.072311 -0.005199 -0.062194
v 0.066988 -0.005199 -0.062194
v 0.066988 -0.005199 -0.061753
v 0.071063 -0.005379 -0.061753
v 0.071063 -0.005379 -0.062194
v 0.068236 -0.005379 -0.062194
v 0.068236 -0.005379 -0.061753
v 0.069649 -0.005432 -0.062194
v 0.069649 -0.005432 -0.061753
v 0.073228 -0.004596 -0.061753
v 0.073228 -0.004596 -0.062194
v 0.072996 -0.004698 -0.062194
v 0.072996 -0.004698 -0.061753
v 0.072247 -0.004922 -0.062194
v 0.072247 -0.004922 -0.061753
v 0.066071 -0.004596 -0.062194
v 0.066071 -0.004596 -0.061753
v 0.066303 -0.004698 -0.061753
v 0.066303 -0.004698 -0.062194
v 0.067052 -0.004922 -0.061753
v 0.067052 -0.004922 -0.062194
v 0.071037 -0.005095 -0.062194
v 0.071037 -0.005095 -0.061753
v 0.068262 -0.005095 -0.061753
v 0.068262 -0.005095 -0.062194
v 0.069649 -0.005147 -0.062194
v 0.069649 -0.005147 -0.061753
v 0.071573 -0.004128 -0.058641
v 0.072981 -0.004128 -0.060050
v 0.073438 -0.004128 -0.061753
v 0.072981 -0.004128 -0.063897
v 0.071573 -0.004128 -0.065305
v 0.069649 -0.004128 -0.065821
v 0.067726 -0.004128 -0.065305
v 0.066317 -0.004128 -0.063897
v 0.065861 -0.004128 -0.062194
v 0.066317 -0.004128 -0.060050
v 0.067726 -0.004128 -0.058641
v 0.069649 -0.004128 -0.058126
v 0.073438 -0.004128 -0.062194
v 0.065861 -0.004128 -0.061753
v 0.073228 -0.004128 -0.061753
v 0.073228 -0.004128 -0.062194
v 0.066071 -0.004128 -0.062194
v 0.066071 -0.004128 -0.061753
v 0.015222 -0.004033 -0.040875
v 0.016480 -0.004033 -0.042323
v 0.015575 0.000131 -0.040491
v 0.016480 0.000131 -0.041477
v 0.015222 -0.004033 0.037730
v 0.015575 0.000131 0.037346
v 0.017737 -0.004033 0.037730
v 0.016480 -0.004033 0.039178
v 0.017385 0.000131 0.037346
v 0.016480 0.000131 0.038332
v 0.017737 -0.004033 -0.040875
v 0.017385 0.000131 -0.040491
v 0.016517 0.008171 0.066348
v 0.016480 0.008171 -0.070680
v 0.016517 -0.004144 0.062972
v 0.016517 -0.003154 0.065359
v 0.016517 -0.000767 0.066348
v 0.016480 -0.004144 -0.067303
v 0.016480 -0.003154 -0.069691
v 0.016480 -0.000766 -0.070680
v 0.016480 -0.004113 -0.053512
v 0.016517 -0.004113 0.049774
v 0.016480 -0.004072 -0.057098
v 0.016517 -0.004072 0.053305
v 0.016480 -0.003154 -0.047729
v 0.016361 -0.003165 -0.048211
v 0.008561 -0.003166 -0.048211
v 0.009130 -0.003156 -0.047729
v 0.043515 -0.003154 -0.047729
v 0.043621 -0.003165 -0.048211
v 0.052078 -0.003156 -0.047729
v 0.052639 -0.003167 -0.048211
v 0.052307 -0.003158 0.044288
v 0.052865 -0.003168 0.044769
v 0.043481 -0.003154 0.044288
v 0.043587 -0.003166 0.044769
v 0.016517 -0.003154 0.044288
v 0.016399 -0.003166 0.044769
v 0.008597 -0.003155 0.044288
v 0.008035 -0.003166 0.044769
v 0.043515 -0.004695 -0.054233
v 0.043515 -0.004931 -0.054912
v 0.059227 -0.004925 -0.054901
v 0.058550 -0.004685 -0.054224
v 0.043515 -0.004922 -0.055733
v 0.043515 -0.004668 -0.056406
v 0.060142 -0.004679 -0.056398
v 0.059468 -0.004928 -0.055723
v 0.059227 -0.004925 0.051163
v 0.058550 -0.004685 0.050486
v 0.060142 -0.004679 0.052605
v 0.059468 -0.004928 0.051930
v 0.043481 -0.004931 0.051174
v 0.043481 -0.004695 0.050495
v 0.043481 -0.004668 0.052613
v 0.043481 -0.004922 0.051941
v 0.016480 -0.004695 -0.054233
v 0.016480 -0.004931 -0.054912
v 0.016480 -0.004922 -0.055733
v 0.016480 -0.004668 -0.056406
v 0.016517 -0.004931 0.051174
v 0.016517 -0.004695 0.050495
v 0.016517 -0.004668 0.052613
v 0.016517 -0.004922 0.051941
v 0.016480 -0.004081 -0.049504
v 0.016480 -0.003808 -0.048799
v 0.007283 -0.004082 -0.049509
v 0.007996 -0.003815 -0.048805
v 0.016480 -0.004064 -0.046693
v 0.016480 -0.003710 -0.047361
v 0.010093 -0.004067 -0.046675
v 0.009441 -0.003704 -0.047365
v 0.043515 -0.004064 -0.046693
v 0.043515 -0.003710 -0.047361
v 0.043515 -0.004081 -0.049504
v 0.043515 -0.003808 -0.048799
v 0.051683 -0.004067 -0.046693
v 0.051763 -0.003706 -0.047365
v 0.053923 -0.004082 -0.049502
v 0.053213 -0.003816 -0.048806
v 0.051330 -0.004069 0.043236
v 0.051989 -0.003707 0.043923
v 0.054169 -0.004084 0.046069
v 0.053446 -0.003818 0.045365
v 0.043484 -0.004063 0.043251
v 0.043481 -0.003709 0.043919
v 0.043481 -0.004082 0.046063
v 0.043481 -0.003809 0.045357
v 0.016514 -0.004063 0.043251
v 0.016517 -0.003709 0.043919
v 0.016517 -0.004082 0.046063
v 0.016517 -0.003809 0.045357
v 0.009560 -0.004065 0.043251
v 0.008916 -0.003703 0.043924
v 0.006738 -0.004082 0.046061
v 0.007454 -0.003815 0.045365
vn -0.0000 -0.0000 -1.0000
vt 1.363611 0.704700
vt 1.363611 0.704073
vt 1.364238 0.704073
vt 1.364238 0.704700
s 1
usemtl M_LightSwitch_30_2
f 9/1/1 10/2/1 12/3/1 11/4/1
