# Blender 4.1.1
# www.blender.org
mtllib MeshChair_203_0_GeomSubset_0.mtl
o MeshChair_203_0_GeomSubset_0
v 0.197682 -0.231890 -0.029441
v -0.000586 -0.231891 -0.035608
v -0.000586 -0.231891 -0.047977
v 0.197682 -0.231891 -0.047977
v -0.198854 -0.231892 -0.047977
v -0.000586 -0.229036 -0.056467
v -0.198854 -0.229036 -0.056467
v -0.198854 -0.231892 -0.029441
v 0.197682 -0.229035 -0.056467
v -0.190659 -0.222374 -0.018351
v -0.000586 -0.222374 -0.024264
v 0.189487 -0.222374 -0.018351
v -0.201203 -0.229036 -0.047977
v -0.201203 -0.229036 -0.029441
v -0.201203 -0.009993 -0.047977
v -0.201203 -0.009993 -0.029441
v -0.201203 0.209052 -0.047977
v -0.198854 -0.009993 -0.056467
v -0.198855 0.209051 -0.056467
v -0.198855 0.211906 -0.047977
v -0.201203 0.209052 -0.029441
v -0.192627 0.199997 -0.018351
v -0.192627 -0.009993 -0.018351
v -0.192626 -0.219983 -0.018351
v -0.198855 0.211907 -0.029441
v 0.200030 0.209051 -0.047977
v 0.197682 0.211907 -0.047977
v 0.197682 0.211907 -0.029441
v 0.200030 0.209051 -0.029441
v 0.197682 0.209053 -0.056467
v 0.200030 -0.009992 -0.047977
v 0.200030 -0.009992 -0.029441
v 0.200031 -0.229035 -0.047977
v 0.197682 -0.009992 -0.056467
v 0.200031 -0.229035 -0.029441
v 0.191455 -0.219982 -0.018351
v 0.191454 -0.009991 -0.018351
v 0.191454 0.199998 -0.018351
v -0.000586 -0.009992 -0.056467
v -0.000587 0.209052 -0.056467
v -0.000586 -0.009992 -0.005205
v -0.000587 0.153271 -0.011404
v -0.148365 0.153271 -0.011404
v -0.148365 -0.009992 -0.011404
v 0.147192 -0.009992 -0.011404
v 0.147192 0.153271 -0.011404
v 0.147193 -0.173256 -0.011404
v -0.000586 -0.173256 -0.016001
v -0.000587 0.202389 -0.018351
v 0.189486 0.202389 -0.018351
v -0.148364 -0.173256 -0.011404
v -0.000587 0.211907 -0.029441
v -0.000587 0.211907 -0.047977
v -0.190660 0.202389 -0.018351
v 0.154659 0.197267 -0.502525
v 0.154773 0.197148 -0.510269
v 0.154773 0.177739 -0.510269
v 0.154659 0.177620 -0.502525
v 0.156116 0.177739 -0.512061
v 0.156116 0.176106 -0.510269
v 0.156116 0.197149 -0.512061
v 0.156116 0.198782 -0.510269
v 0.156019 0.175967 -0.502525
v 0.150397 0.167969 -0.055141
v 0.148089 0.170774 -0.055140
v 0.150397 0.170774 -0.052063
v 0.150397 0.204114 -0.052063
v 0.148089 0.204113 -0.055140
v 0.150397 0.206920 -0.055141
v 0.156019 0.198921 -0.502525
v 0.154677 -0.178338 -0.503708
v 0.154773 -0.178438 -0.510269
v 0.154773 -0.197848 -0.510269
v 0.154677 -0.197948 -0.503708
v 0.156117 -0.197849 -0.512061
v 0.156117 -0.199482 -0.510269
v 0.156117 -0.178438 -0.512061
v 0.156117 -0.176805 -0.510269
v 0.156034 -0.199599 -0.503708
v 0.156034 -0.176687 -0.503708
v 0.148090 -0.171474 -0.055141
v 0.150397 -0.168668 -0.055141
v 0.150398 -0.171474 -0.052063
v 0.148090 -0.204813 -0.055141
v 0.150398 -0.204813 -0.052063
v 0.150398 -0.207618 -0.055141
v -0.157018 -0.176420 -0.488718
v -0.157289 -0.176805 -0.510269
v -0.173228 -0.176805 -0.510269
v -0.173499 -0.176420 -0.488718
v -0.173228 -0.178439 -0.512061
v -0.157289 -0.178438 -0.512061
v -0.151570 -0.168667 -0.055141
v -0.178947 -0.168668 -0.055141
v -0.151570 -0.171474 -0.052063
v -0.178947 -0.171474 -0.052063
v -0.157165 0.198959 -0.500329
v -0.157289 0.198782 -0.510269
v -0.173229 0.198782 -0.510269
v -0.173354 0.198960 -0.500329
v -0.173229 0.197148 -0.512061
v -0.157289 0.197148 -0.512061
v -0.151570 0.206918 -0.055141
v -0.178948 0.206919 -0.055141
v -0.151570 0.204114 -0.052063
v -0.178948 0.204114 -0.052063
v -0.173228 -0.197849 -0.512061
v -0.157289 -0.197849 -0.512061
v 0.172139 -0.176687 -0.503708
v 0.172056 -0.176805 -0.510269
v 0.172056 -0.178438 -0.512061
v 0.177776 -0.168667 -0.055141
v 0.177776 -0.171474 -0.052063
v 0.172056 -0.199481 -0.510269
v 0.172139 -0.199598 -0.503708
v 0.172056 -0.197848 -0.512061
v 0.177776 -0.207618 -0.055141
v 0.177776 -0.204812 -0.052063
v 0.172153 0.198920 -0.502525
v 0.172055 0.198782 -0.510269
v 0.172056 0.197148 -0.512061
v 0.177775 0.206919 -0.055141
v 0.177775 0.204114 -0.052063
v 0.173496 -0.197949 -0.503708
v 0.173400 -0.197848 -0.510269
v 0.173400 -0.178438 -0.510269
v 0.173496 -0.178338 -0.503708
v 0.180084 -0.204813 -0.055141
v 0.180084 -0.171474 -0.055141
v -0.174718 0.197300 -0.500329
v -0.174572 0.197148 -0.510269
v -0.174572 0.177738 -0.510269
v -0.174718 0.177586 -0.500329
v -0.173229 0.177739 -0.512061
v -0.173229 0.176105 -0.510269
v -0.173354 0.175928 -0.500329
v -0.178948 0.167968 -0.055141
v -0.181256 0.170773 -0.055140
v -0.178948 0.170774 -0.052063
v -0.181256 0.204113 -0.055140
v -0.157289 0.176105 -0.510269
v -0.157165 0.175927 -0.500329
v -0.157289 0.177738 -0.512061
v -0.151570 0.167968 -0.055141
v -0.151570 0.170774 -0.052063
v -0.173499 -0.199867 -0.488718
v -0.173228 -0.199482 -0.510269
v -0.157289 -0.199482 -0.510269
v -0.157018 -0.199867 -0.488718
v -0.178947 -0.207619 -0.055141
v -0.151569 -0.207619 -0.055141
v -0.178947 -0.204813 -0.052063
v -0.151570 -0.204813 -0.052063
v -0.174888 -0.178108 -0.488718
v -0.174572 -0.178439 -0.510269
v -0.174572 -0.197849 -0.510269
v -0.174888 -0.198178 -0.488718
v -0.181255 -0.171474 -0.055141
v -0.181255 -0.204814 -0.055141
v 0.172056 0.176105 -0.510269
v 0.172153 0.175967 -0.502525
v 0.172056 0.177739 -0.512061
v 0.177775 0.167968 -0.055141
v 0.177775 0.170774 -0.052063
v -0.155629 -0.198178 -0.488718
v -0.155945 -0.197849 -0.510269
v -0.155945 -0.178439 -0.510269
v -0.155629 -0.178109 -0.488718
v -0.149262 -0.171474 -0.055141
v -0.149262 -0.204814 -0.055141
v 0.173513 0.177621 -0.502525
v 0.173399 0.177739 -0.510269
v 0.173399 0.197149 -0.510269
v 0.173513 0.197267 -0.502525
v 0.180083 0.204114 -0.055140
v 0.180083 0.170774 -0.055140
v -0.155800 0.177587 -0.500329
v -0.155946 0.177739 -0.510269
v -0.155946 0.197148 -0.510269
v -0.155800 0.197301 -0.500329
v -0.149262 0.204113 -0.055140
v -0.149262 0.170774 -0.055140
v 0.178580 -0.205457 -0.052600
v 0.178580 0.204758 -0.052600
v -0.179753 0.204757 -0.052600
v -0.179752 -0.205457 -0.052600
v 0.168968 -0.195845 -0.094847
v -0.170140 -0.195846 -0.094847
v -0.170141 0.195145 -0.094847
v 0.168968 0.195146 -0.094847
v 0.178580 0.204758 -0.094847
v -0.179753 0.204757 -0.094847
v 0.178580 -0.205457 -0.094847
v -0.179752 -0.205457 -0.094847
v -0.007293 0.199415 -0.034647
v -0.006045 0.215439 0.228493
v 0.004851 0.215439 0.228493
v 0.006119 0.199415 -0.034647
v 0.004890 0.226490 0.494303
v -0.005835 0.226490 0.494303
v -0.009646 0.222903 0.494482
v -0.009022 0.212637 0.228633
v 0.007828 0.212636 0.228633
v 0.008701 0.222903 0.494482
v -0.010270 0.196604 -0.034647
v 0.009096 0.196605 -0.034647
v -0.191494 0.203403 -0.034647
v -0.166314 0.218905 0.228321
v -0.146404 0.218904 0.228321
v -0.167720 0.203403 -0.034647
v -0.124886 0.228022 0.494034
v -0.141134 0.227897 0.491544
v -0.143420 0.216102 0.228460
v -0.122305 0.225010 0.489196
v -0.169296 0.216102 0.228460
v -0.194476 0.200593 -0.034647
v -0.164736 0.200592 -0.034647
v 0.168104 0.203404 -0.034647
v 0.146565 0.218905 0.228321
v 0.166474 0.218905 0.228321
v 0.191878 0.203404 -0.034647
v 0.141071 0.227898 0.491544
v 0.124821 0.228022 0.494034
v 0.122245 0.225010 0.489196
v 0.143580 0.216102 0.228460
v 0.169456 0.216102 0.228460
v 0.144053 0.225096 0.491683
v 0.165119 0.200593 -0.034647
v 0.194860 0.200593 -0.034647
v -0.056615 0.199415 -0.034647
v -0.048959 0.215439 0.228493
v -0.038065 0.215439 0.228493
v -0.043204 0.199415 -0.034647
v -0.041838 0.226490 0.494303
v -0.052563 0.226490 0.494303
v -0.056375 0.222903 0.494482
v -0.051937 0.212636 0.228633
v -0.035087 0.212636 0.228633
v -0.038027 0.222903 0.494482
v -0.059593 0.196605 -0.034647
v -0.040227 0.196605 -0.034647
v 0.040074 0.199415 -0.034647
v 0.035168 0.215439 0.228493
v 0.046062 0.215439 0.228493
v 0.053484 0.199415 -0.034647
v 0.049764 0.226490 0.494303
v 0.039040 0.226490 0.494303
v 0.035228 0.222903 0.494482
v 0.032190 0.212637 0.228633
v 0.049040 0.212636 0.228633
v 0.053576 0.222903 0.494482
v 0.037096 0.196605 -0.034647
v 0.056462 0.196605 -0.034647
v -0.009022 0.205301 0.228998
v -0.009646 0.215987 0.494826
v -0.010270 0.187335 -0.034647
v 0.144053 0.213795 0.492246
v 0.169456 0.201835 0.229171
v 0.194860 0.183347 -0.034647
v -0.051937 0.205300 0.228998
v -0.056375 0.215986 0.494826
v -0.059593 0.187335 -0.034647
v 0.032190 0.205301 0.228998
v 0.035228 0.215987 0.494826
v 0.037096 0.187335 -0.034647
v -0.038027 0.215987 0.494826
v -0.035087 0.205300 0.228998
v -0.040227 0.187335 -0.034647
v 0.122041 0.228808 0.509815
v -0.122104 0.228807 0.509815
v 0.122041 0.226130 0.512445
v -0.122104 0.226129 0.512445
v -0.119126 0.225096 0.491683
v 0.119064 0.225096 0.491683
v 0.046062 0.202498 0.229138
v 0.049764 0.212400 0.495005
v 0.039040 0.212400 0.495005
v 0.035168 0.202498 0.229138
v 0.053484 0.184523 -0.034647
v 0.040074 0.184524 -0.034647
v 0.049040 0.205300 0.228998
v 0.056462 0.187335 -0.034647
v 0.124821 0.211116 0.494876
v 0.122041 0.211902 0.510657
v -0.122104 0.211902 0.510657
v -0.124886 0.211116 0.494876
v 0.119064 0.213794 0.492246
v 0.122245 0.213682 0.489760
v -0.119126 0.213794 0.492246
v -0.122305 0.213682 0.489760
v 0.004890 0.212400 0.495005
v 0.008701 0.215987 0.494826
v -0.005835 0.212400 0.495005
v 0.143580 0.201835 0.229171
v 0.165119 0.183347 -0.034647
v 0.007828 0.205300 0.228998
v 0.009096 0.187335 -0.034647
v 0.053576 0.215987 0.494826
v 0.141071 0.210993 0.492385
v 0.141071 0.211902 0.510657
v 0.144053 0.214704 0.510517
v 0.166475 0.199032 0.229310
v -0.146404 0.199032 0.229310
v -0.141134 0.210992 0.492385
v -0.166314 0.199032 0.229310
v -0.167720 0.180535 -0.034647
v -0.191494 0.180535 -0.034647
v -0.143420 0.201835 0.229171
v -0.169296 0.201834 0.229171
v -0.144116 0.213795 0.492246
v -0.164736 0.183347 -0.034647
v -0.194476 0.183347 -0.034647
v -0.038065 0.202498 0.229138
v -0.041838 0.212400 0.495005
v -0.052563 0.212400 0.495005
v -0.048959 0.202498 0.229138
v -0.043204 0.184524 -0.034647
v -0.056615 0.184523 -0.034647
v -0.122104 0.214828 0.513008
v -0.141139 0.226129 0.512445
v -0.141139 0.214828 0.513008
v 0.144053 0.226006 0.509954
v -0.144116 0.214704 0.510517
v -0.144116 0.226006 0.509954
v -0.144116 0.225095 0.491683
v -0.141134 0.211902 0.510657
v 0.122041 0.214828 0.513008
v 0.141071 0.228808 0.509815
v 0.141076 0.226130 0.512445
v -0.141134 0.228807 0.509815
v 0.141076 0.214828 0.513008
v 0.146564 0.199033 0.229310
v 0.191878 0.180535 -0.034647
v 0.168104 0.180535 -0.034647
v 0.004851 0.202498 0.229138
v -0.006045 0.202498 0.229138
v 0.006119 0.184523 -0.034647
v -0.007293 0.184524 -0.034647
v 0.157472 0.188568 -0.173540
v 0.157472 0.195258 -0.173540
v -0.157556 0.195257 -0.173540
v -0.157556 0.188567 -0.173540
v 0.163420 0.195258 -0.173540
v 0.157472 0.198232 -0.176182
v 0.163420 0.198232 -0.176182
v 0.163420 0.188568 -0.173540
v 0.169940 0.188567 -0.173540
v 0.169940 0.195258 -0.173540
v 0.160446 0.182619 -0.176182
v 0.163420 0.182620 -0.173540
v 0.157472 0.185594 -0.176182
v 0.172913 0.195258 -0.176182
v 0.169940 0.198231 -0.176182
v 0.172913 0.188568 -0.176182
v 0.172913 0.182620 -0.176182
v 0.169940 0.182620 -0.173540
v 0.169940 -0.187039 -0.173540
v 0.163421 -0.187038 -0.173540
v 0.169940 -0.192986 -0.173540
v 0.172914 -0.192986 -0.176182
v 0.172914 -0.187039 -0.176182
v 0.163421 -0.192986 -0.173540
v 0.169940 -0.196016 -0.173540
v 0.163421 -0.196016 -0.173540
v 0.157473 -0.192987 -0.173540
v 0.160447 -0.187038 -0.176182
v 0.157473 -0.190012 -0.176182
v -0.157555 -0.190013 -0.176182
v -0.157555 -0.192987 -0.173540
v 0.157473 -0.196016 -0.173540
v -0.157555 -0.196018 -0.173540
v 0.157473 -0.198990 -0.176182
v 0.163421 -0.198990 -0.176182
v -0.157555 -0.198991 -0.176182
v 0.169940 -0.198991 -0.176182
v 0.172914 -0.196016 -0.176182
v -0.163504 0.198230 -0.190936
v -0.171095 0.198231 -0.190936
v -0.171095 0.198231 -0.176182
v -0.163504 0.198230 -0.176182
v -0.157556 0.198230 -0.190936
v -0.157556 0.198230 -0.176182
v -0.174069 0.195257 -0.176182
v -0.174069 0.195257 -0.190936
v -0.174069 -0.192987 -0.190936
v -0.174069 -0.196017 -0.190936
v -0.174069 -0.196017 -0.176182
v -0.174069 -0.192987 -0.176182
v -0.174069 -0.187039 -0.190936
v -0.174069 -0.187039 -0.176182
v -0.174069 0.182619 -0.190936
v -0.174069 0.182619 -0.176182
v -0.174069 0.188567 -0.190936
v -0.174069 0.188567 -0.176182
v 0.172914 -0.187039 -0.190936
v 0.172913 0.182620 -0.190936
v 0.172914 -0.192986 -0.190936
v 0.172914 -0.196016 -0.190936
v 0.172913 0.188568 -0.190936
v 0.172913 0.195258 -0.190936
v 0.157473 -0.190012 -0.190936
v -0.157555 -0.190013 -0.190936
v 0.160447 -0.187038 -0.190936
v -0.163503 -0.196018 -0.173540
v -0.163503 -0.192987 -0.173540
v -0.171094 -0.192987 -0.173540
v -0.171094 -0.196017 -0.173540
v -0.171095 -0.187039 -0.173540
v -0.171095 0.182619 -0.173540
v -0.163503 -0.187039 -0.173540
v -0.163504 0.182619 -0.173540
v -0.160529 -0.187039 -0.176182
v -0.171095 0.188567 -0.173540
v -0.163504 0.188567 -0.173540
v -0.171095 0.195257 -0.173540
v -0.163504 0.195257 -0.173540
v -0.160530 0.182619 -0.176182
v -0.157556 0.185593 -0.176182
v 0.169940 0.188567 -0.193578
v 0.163420 0.188568 -0.193578
v 0.163420 0.195258 -0.193578
v 0.169940 0.195258 -0.193578
v 0.169940 0.198231 -0.190936
v 0.163420 0.198232 -0.190936
v 0.157473 0.198232 -0.190936
v 0.157472 0.195258 -0.193578
v 0.169940 0.182620 -0.193578
v 0.169940 -0.187039 -0.193578
v 0.163420 0.182620 -0.193578
v 0.163421 -0.187038 -0.193578
v 0.169940 -0.192986 -0.193578
v 0.169940 -0.196016 -0.193578
v 0.163421 -0.192986 -0.193578
v 0.163421 -0.196016 -0.193578
v 0.169940 -0.198991 -0.190936
v 0.157473 -0.192987 -0.193578
v 0.163421 -0.198990 -0.190936
v 0.157473 -0.196016 -0.193578
v -0.157555 -0.192987 -0.193578
v -0.157555 -0.196018 -0.193578
v 0.157473 -0.198990 -0.190936
v -0.157555 -0.198991 -0.190936
v 0.160446 0.182619 -0.190936
v 0.157472 0.188568 -0.193578
v 0.157473 0.185594 -0.190936
v -0.157556 0.195257 -0.193578
v -0.157556 0.188567 -0.193578
v -0.157556 0.185593 -0.190936
v -0.163503 -0.196018 -0.193578
v -0.171095 -0.196017 -0.193578
v -0.171095 -0.192987 -0.193578
v -0.163503 -0.192987 -0.193578
v -0.171094 -0.198991 -0.190936
v -0.163503 -0.198991 -0.190936
v -0.160529 -0.187039 -0.190936
v -0.163503 -0.187039 -0.193578
v -0.171095 -0.187039 -0.193578
v -0.171095 0.182619 -0.193578
v -0.163504 0.182619 -0.193578
v -0.160530 0.182619 -0.190936
v -0.163504 0.188567 -0.193578
v -0.171095 0.188567 -0.193578
v -0.171095 0.195257 -0.193578
v -0.163504 0.195257 -0.193578
v -0.163503 -0.198991 -0.176182
v -0.171094 -0.198991 -0.176182
vn 0.0043 0.9426 0.3338
vn -0.0000 0.9930 -0.1184
vn -0.0000 0.9436 0.3310
vn 0.0135 0.9930 -0.1177
vn -0.0134 0.9930 -0.1176
vn -0.0000 0.6344 -0.7730
vn -0.0134 0.8624 0.5061
vn -0.0000 0.8627 0.5057
vn -0.0419 0.6338 -0.7724
vn -0.0043 0.9426 0.3339
vn 0.0419 0.6337 -0.7724
vn 0.0134 0.8624 0.5061
vn -0.0374 0.4896 -0.8711
vn -0.0418 0.4921 -0.8696
vn -0.0089 0.9864 -0.1639
vn -0.0345 0.9857 -0.1649
vn 0.0418 0.4922 -0.8695
vn 0.0374 0.4896 -0.8712
vn 0.0344 0.9857 -0.1649
vn 0.0090 0.9865 -0.1638
vn 0.2007 0.9759 -0.0861
vn 0.9257 -0.1775 0.3340
vn 0.9769 -0.1785 -0.1178
vn 0.1949 0.9408 0.2772
vn 0.9708 -0.1834 0.1546
vn 0.3568 0.2899 -0.8880
vn 0.1756 0.9552 0.2381
vn 0.9608 -0.0100 0.2771
vn 0.9962 -0.0089 -0.0862
vn 0.9962 -0.0000 -0.0866
vn 0.5493 -0.0379 -0.8348
vn 0.8991 -0.0000 0.4377
vn 0.8989 -0.0089 0.4380
vn 0.9616 -0.0000 0.2746
vn 0.9962 0.0089 -0.0862
vn 0.5499 -0.0000 -0.8353
vn 0.8989 0.0089 0.4380
vn 0.5493 0.0380 -0.8348
vn 0.9679 0.1884 0.1665
vn 0.1755 -0.9553 0.2381
vn 0.3566 -0.2901 -0.8881
vn 0.9608 0.0100 0.2771
vn 0.1948 -0.9408 0.2773
vn 0.2006 -0.9759 -0.0861
vn 0.9781 0.1800 -0.1045
vn 0.5078 -0.0000 -0.8615
vn 0.5101 0.0100 -0.8601
vn 0.9956 0.0028 -0.0935
vn 0.9955 -0.0000 -0.0946
vn 0.5100 -0.0099 -0.8601
vn 0.9956 -0.0028 -0.0935
vn 0.9369 0.1707 0.3052
vn -0.2008 -0.9758 -0.0862
vn -0.9368 0.1707 0.3054
vn -0.9781 0.1802 -0.1046
vn -0.1949 -0.9408 0.2772
vn -0.1757 -0.9553 0.2378
vn -0.9679 0.1886 0.1663
vn -0.3565 -0.2899 -0.8882
vn -0.9608 0.0099 0.2771
vn -0.9962 0.0089 -0.0862
vn -0.9962 -0.0000 -0.0866
vn -0.5492 0.0379 -0.8348
vn -0.8992 -0.0000 0.4376
vn -0.8990 0.0089 0.4379
vn -0.9616 -0.0000 0.2746
vn -0.9962 -0.0089 -0.0862
vn -0.5499 -0.0000 -0.8353
vn -0.8990 -0.0089 0.4379
vn -0.5492 -0.0380 -0.8348
vn -0.9708 -0.1835 0.1546
vn -0.1757 0.9552 0.2383
vn -0.3568 0.2899 -0.8880
vn -0.1949 0.9408 0.2773
vn -0.2009 0.9758 -0.0862
vn -0.9769 -0.1785 -0.1177
vn -0.9608 -0.0099 0.2771
vn -0.9257 -0.1774 0.3339
vn -0.5078 -0.0000 -0.8615
vn -0.5101 -0.0099 -0.8601
vn -0.9956 -0.0028 -0.0935
vn -0.9955 0.0001 -0.0946
vn -0.5101 0.0099 -0.8601
vn -0.9956 0.0029 -0.0935
vn -0.0000 -0.0000 1.0000
vn -0.0420 0.0379 0.9984
vn -0.0423 -0.0000 0.9991
vn -0.0000 0.0382 0.9993
vn 0.0423 -0.0000 0.9991
vn 0.0419 0.0380 0.9984
vn 0.0419 -0.0380 0.9984
vn -0.0000 -0.0382 0.9993
vn -0.0419 -0.0380 0.9984
vn -0.0000 -0.0828 -0.9966
vn -0.0443 -0.0357 -0.9984
vn -0.0000 -0.0256 -0.9997
vn 0.0837 -0.0070 -0.9965
vn 0.0340 -0.0052 -0.9994
vn 0.0394 0.0401 -0.9984
vn -0.0339 -0.0810 -0.9961
vn -0.0836 -0.0827 -0.9931
vn -0.0837 -0.0255 -0.9962
vn 0.0498 -0.0052 -0.9987
vn -0.0000 0.0503 -0.9987
vn 0.0443 0.0401 -0.9982
vn -0.0549 -0.0538 -0.9970
vn -0.0837 -0.0070 -0.9965
vn -0.0341 -0.0052 -0.9994
vn 0.0374 -0.0000 -0.9993
vn -0.2783 -0.0538 -0.9590
vn -0.2585 -0.0052 -0.9660
vn 0.0363 -0.0028 -0.9993
vn 0.1798 0.1295 -0.9751
vn -0.1854 -0.2009 -0.9619
vn -0.1379 0.0833 -0.9869
vn 0.0349 -0.0058 -0.9994
vn 0.0610 0.2622 -0.9631
vn 0.0896 0.2751 -0.9572
vn 0.0908 0.0778 -0.9928
vn 0.0620 0.0643 -0.9960
vn 0.0619 0.1246 -0.9903
vn 0.0836 0.0642 -0.9944
vn 0.0337 0.1263 -0.9914
vn 0.0834 0.1245 -0.9887
vn 0.0604 -0.0077 -0.9981
vn -0.0000 0.0357 -0.9994
vn 0.0443 -0.2382 -0.9702
vn -0.0000 -0.2286 -0.9735
vn 0.0035 0.0344 -0.9994
vn 0.1798 -0.1295 -0.9751
vn -0.1224 -0.0972 -0.9877
vn -0.1579 0.1773 -0.9714
vn 0.0363 0.0029 -0.9993
vn -0.2635 0.0401 -0.9638
vn -0.0603 -0.0077 -0.9981
vn -0.0896 0.2750 -0.9572
vn -0.0610 0.2622 -0.9631
vn -0.0620 -0.0675 -0.9958
vn -0.0908 -0.0538 -0.9944
vn -0.1118 -0.0052 -0.9937
vn -0.0349 -0.0058 -0.9994
vn -0.6442 0.4114 -0.6448
vn -0.5631 -0.7408 -0.3661
vn -0.8637 -0.4031 -0.3025
vn 0.2333 -0.5886 -0.7740
vn 0.2333 0.5886 -0.7740
vn -0.8810 0.3712 -0.2934
vn -0.5631 0.7409 -0.3661
vn -0.6662 -0.3910 -0.6351
vn -0.0133 -0.9522 0.3051
vn -0.0000 -0.9945 -0.1049
vn -0.0000 -0.9533 0.3021
vn -0.0120 -0.9944 -0.1045
vn -0.0419 -0.6336 -0.7725
vn -0.0000 -0.8559 0.5171
vn -0.0120 -0.8557 0.5174
vn -0.0000 -0.6343 -0.7731
vn -0.0133 -0.4462 -0.8948
vn -0.0000 -0.4435 -0.8963
vn -0.0000 -0.9865 -0.1638
vn -0.0035 -0.9867 -0.1625
vn -0.1798 0.1295 -0.9751
vn 0.1379 0.0833 -0.9869
vn 0.1855 -0.2009 -0.9619
vn -0.0363 -0.0028 -0.9993
vn 0.2584 -0.0052 -0.9660
vn 0.2782 -0.0538 -0.9590
vn -0.0374 -0.0000 -0.9993
vn 0.2636 0.0401 -0.9638
vn -0.0363 0.0028 -0.9993
vn 0.1580 0.1774 -0.9714
vn 0.1225 -0.0971 -0.9877
vn -0.1799 -0.1295 -0.9751
vn -0.0035 0.0344 -0.9994
vn -0.0443 -0.2382 -0.9702
vn -0.2333 -0.5886 -0.7741
vn 0.8638 -0.4029 -0.3025
vn 0.5632 -0.7408 -0.3662
vn 0.6442 0.4115 -0.6448
vn 0.6663 -0.3910 -0.6350
vn 0.5631 0.7408 -0.3662
vn 0.8810 0.3710 -0.2935
vn -0.2333 0.5885 -0.7741
vn 0.0119 -0.8558 0.5173
vn 0.0419 -0.6335 -0.7726
vn 0.0119 -0.9944 -0.1045
vn 0.0132 -0.9522 0.3051
vn 0.0133 -0.4462 -0.8948
vn 0.0034 -0.9867 -0.1625
vt 0.834014 0.860847
vt 0.823161 0.963985
vt 0.830403 0.963985
vt 0.823161 0.860847
vt 0.823161 1.067123
vt 0.818190 0.963985
vt 0.818190 1.067123
vt 0.834014 1.067123
vt 0.818190 0.860847
vt 0.840508 1.062860
vt 0.837046 0.963985
vt 0.840508 0.865110
vt 0.823161 0.257379
vt 0.834014 0.255893
vt 0.823161 0.255893
vt 0.834014 0.257379
vt 0.818190 0.257379
vt 0.823161 0.371324
vt 0.834014 0.371324
vt 0.823161 0.485270
vt 0.818190 0.371324
vt 0.818190 0.485270
vt 0.823161 0.486755
vt 0.834014 0.485270
vt 0.840508 0.480560
vt 0.840508 0.371324
vt 0.840508 0.262088
vt 0.834014 0.486755
vt 0.754714 0.963985
vt 0.640768 1.067123
vt 0.754714 1.067123
vt 0.640768 0.963985
vt 0.754714 0.860847
vt 0.640768 0.860847
vt 0.868659 0.860847
vt 0.868659 0.963985
vt 0.868659 1.067123
vt 0.669785 1.040859
vt 0.669785 0.963985
vt 0.754714 1.040859
vt 0.754714 0.887111
vt 0.669785 0.887111
vt 0.839643 0.887111
vt 0.754714 0.864087
vt 0.863950 0.864087
vt 0.865194 0.865110
vt 0.839643 0.963985
vt 0.865194 0.963985
vt 0.644234 0.963985
vt 0.644234 0.865110
vt 0.645478 0.864087
vt 0.839643 1.040859
vt 0.865194 1.062860
vt 0.639283 0.860847
vt 0.640768 0.859625
vt 0.868659 0.859625
vt 0.870145 0.860847
vt 0.834014 0.067123
vt 0.823161 -0.036015
vt 0.834014 -0.036015
vt 0.823161 0.067123
vt 0.818190 0.067123
vt 0.818190 -0.036015
vt 0.840508 -0.036015
vt 0.840508 0.062860
vt 0.863950 0.063884
vt 0.839643 0.040859
vt 0.865194 0.062860
vt 0.754714 0.040859
vt 0.754714 0.063884
vt 0.669785 0.040859
vt 0.645478 0.063884
vt 0.644234 0.062860
vt 0.669785 -0.036015
vt 0.644234 -0.036015
vt 0.640768 0.068345
vt 0.639283 0.067123
vt 0.870145 0.067123
vt 0.868659 0.068345
vt 0.834014 0.963985
vt 0.840508 0.963985
s 1
usemtl M_Chair_203_0
f 1/1/1 3/2/2 2/3/3
f 1/1/1 4/4/4 3/2/2
f 2/3/3 3/2/2 5/5/5
f 6/6/6 5/5/7 3/2/8
f 6/6/6 7/7/9 5/5/7
f 2/3/3 5/5/5 8/8/10
f 9/9/11 3/2/8 4/4/12
f 9/9/11 6/6/6 3/2/8
f 2/3/13 8/8/14 10/10/15
f 2/3/13 10/10/15 11/11/16
f 1/1/17 2/3/18 11/11/19
f 1/1/17 11/11/19 12/12/20
f 13/13/21 8/14/22 5/15/23
f 13/13/21 14/16/24 8/14/22
f 5/15/25 7/17/26 13/13/27
f 14/16/28 13/13/29 15/18/30
f 7/17/31 15/18/32 13/13/33
f 14/16/28 15/18/30 16/19/34
f 16/19/34 15/18/30 17/20/35
f 18/21/36 17/20/37 15/18/32
f 7/17/31 18/21/36 15/18/32
f 18/21/36 19/22/38 17/20/37
f 20/23/39 17/20/40 19/22/41
f 16/19/34 17/20/35 21/24/42
f 21/24/43 17/20/44 20/23/45
f 16/19/46 21/24/47 22/25/48
f 16/19/46 22/25/48 23/26/49
f 14/16/50 16/19/46 23/26/49
f 14/16/50 23/26/49 24/27/51
f 21/24/43 20/23/45 25/28/52
f 26/20/53 28/28/54 27/23/55
f 26/20/53 29/24/56 28/28/54
f 26/20/57 27/23/58 30/22/59
f 29/24/60 26/20/61 31/18/62
f 30/22/63 31/18/64 26/20/65
f 29/24/60 31/18/62 32/19/66
f 32/19/66 31/18/62 33/13/67
f 34/21/68 33/13/69 31/18/64
f 30/22/63 34/21/68 31/18/64
f 34/21/68 9/17/70 33/13/69
f 4/15/71 33/13/72 9/17/73
f 35/16/74 33/13/75 4/15/76
f 32/19/66 33/13/67 35/16/77
f 35/16/74 4/15/76 1/14/78
f 32/19/79 35/16/80 36/27/81
f 32/19/79 36/27/81 37/26/82
f 29/24/83 32/19/79 37/26/82
f 29/24/83 37/26/82 38/25/84
f 39/29/85 19/30/86 18/31/87
f 39/29/85 40/32/88 19/30/86
f 34/33/89 40/32/88 39/29/85
f 34/33/89 30/34/90 40/32/88
f 9/35/91 34/33/89 39/29/85
f 9/35/91 39/29/85 6/36/92
f 6/36/92 39/29/85 18/31/87
f 6/36/92 18/31/87 7/37/93
f 41/29/94 43/38/95 42/39/96
f 41/29/97 44/40/98 43/38/99
f 45/41/100 41/29/101 42/39/102
f 45/41/103 42/39/104 46/42/105
f 47/43/106 41/29/107 45/41/108
f 37/44/109 47/43/110 45/41/111
f 37/44/109 36/45/112 47/43/110
f 36/45/113 12/46/114 47/43/115
f 12/46/116 48/47/117 47/43/118
f 47/43/119 48/47/120 41/29/121
f 48/47/122 44/40/123 41/29/124
f 12/46/116 11/48/125 48/47/117
f 49/49/126 46/42/127 42/39/128
f 49/49/126 50/50/129 46/42/127
f 38/51/130 46/42/131 50/50/132
f 38/51/133 45/41/111 46/42/134
f 38/51/133 37/44/109 45/41/111
f 11/48/135 51/52/136 48/47/137
f 48/47/138 51/52/139 44/40/140
f 11/48/135 10/53/141 51/52/136
f 28/54/142 38/51/143 50/50/144
f 28/54/142 29/55/145 38/51/143
f 35/56/146 12/46/147 36/45/148
f 35/56/146 1/57/149 12/46/147
f 25/58/150 53/59/151 52/60/152
f 25/58/150 20/61/153 53/59/151
f 19/62/154 53/59/155 20/61/156
f 19/62/154 40/63/157 53/59/155
f 25/58/158 52/60/159 49/64/160
f 25/58/158 49/64/160 54/65/161
f 24/66/162 51/67/163 10/68/164
f 24/66/165 44/69/166 51/67/167
f 24/66/165 23/70/168 44/69/166
f 23/70/168 43/71/169 44/69/166
f 23/70/168 22/72/170 43/71/169
f 54/73/171 43/71/172 22/72/173
f 54/73/174 42/74/128 43/71/175
f 54/73/174 49/75/126 42/74/128
f 21/76/176 54/73/177 22/72/178
f 21/76/176 25/77/179 54/73/177
f 8/78/180 24/66/181 10/68/182
f 8/78/180 14/79/183 24/66/181
f 40/6/157 27/4/184 53/2/155
f 40/6/157 30/9/185 27/4/184
f 52/80/152 53/2/151 27/4/186
f 52/80/152 27/4/186 28/1/187
f 52/80/159 28/1/188 50/12/189
f 52/80/159 50/12/189 49/81/160
