# Blender 4.1.1
# www.blender.org
mtllib SafemeshSafe_18_0_GeomSubset_1.mtl
o SafemeshSafe_18_0_GeomSubset_1
v -0.219967 -0.201149 0.117730
v -0.219967 -0.204733 0.121433
v -0.219967 -0.204649 0.126586
v -0.219967 -0.200946 0.130171
v -0.219967 -0.195793 0.130087
v -0.219967 -0.192208 0.126384
v -0.219967 -0.192292 0.121230
v -0.219967 -0.195995 0.117646
v -0.221925 -0.192292 0.121230
v -0.221925 -0.195995 0.117646
v -0.221925 -0.195793 0.130087
v -0.221925 -0.192208 0.126384
v -0.221925 -0.204649 0.126586
v -0.221925 -0.200946 0.130171
v -0.221925 -0.201149 0.117730
v -0.221925 -0.204733 0.121433
v -0.219967 -0.201149 -0.007270
v -0.219967 -0.204733 -0.003567
v -0.219967 -0.204649 0.001586
v -0.219967 -0.200946 0.005171
v -0.219967 -0.195793 0.005087
v -0.219967 -0.192208 0.001384
v -0.219967 -0.192292 -0.003770
v -0.219967 -0.195995 -0.007354
v -0.221925 -0.192292 -0.003770
v -0.221925 -0.195995 -0.007354
v -0.221925 -0.195793 0.005087
v -0.221925 -0.192208 0.001384
v -0.221925 -0.204649 0.001586
v -0.221925 -0.200946 0.005171
v -0.221925 -0.201149 -0.007270
v -0.221925 -0.204733 -0.003567
v -0.219931 -0.201149 -0.132270
v -0.219931 -0.204733 -0.128567
v -0.219931 -0.204649 -0.123414
v -0.219931 -0.200946 -0.119829
v -0.219931 -0.195793 -0.119913
v -0.219931 -0.192208 -0.123616
v -0.219931 -0.192292 -0.128770
v -0.219931 -0.195995 -0.132354
v -0.221890 -0.192292 -0.128770
v -0.221890 -0.195995 -0.132354
v -0.221890 -0.195793 -0.119913
v -0.221890 -0.192208 -0.123616
v -0.221890 -0.204649 -0.123414
v -0.221890 -0.200946 -0.119829
v -0.221890 -0.201149 -0.132270
v -0.221890 -0.204733 -0.128567
v -0.219967 -0.207132 0.127662
v -0.221925 -0.207132 0.127662
v -0.221925 -0.207250 0.120438
v -0.219967 -0.207250 0.120438
v -0.219967 -0.194717 0.132570
v -0.221925 -0.194717 0.132570
v -0.221925 -0.201941 0.132687
v -0.219967 -0.201941 0.132687
v -0.219967 -0.189809 0.120154
v -0.221925 -0.189809 0.120154
v -0.221925 -0.189692 0.127378
v -0.219967 -0.189692 0.127378
v -0.219967 -0.202225 0.115247
v -0.221925 -0.202225 0.115247
v -0.221925 -0.195001 0.115129
v -0.219967 -0.195001 0.115129
v -0.219967 -0.207132 0.002662
v -0.221925 -0.207132 0.002662
v -0.221925 -0.207250 -0.004562
v -0.219967 -0.207250 -0.004562
v -0.219967 -0.194717 0.007570
v -0.221925 -0.194717 0.007570
v -0.221925 -0.201941 0.007687
v -0.219967 -0.201941 0.007687
v -0.219967 -0.189809 -0.004846
v -0.221925 -0.189809 -0.004846
v -0.221925 -0.189692 0.002378
v -0.219967 -0.189692 0.002378
v -0.219967 -0.202225 -0.009753
v -0.221925 -0.202225 -0.009753
v -0.221925 -0.195001 -0.009871
v -0.219967 -0.195001 -0.009871
v -0.219931 -0.207132 -0.122338
v -0.221890 -0.207132 -0.122338
v -0.221890 -0.207250 -0.129562
v -0.219931 -0.207250 -0.129562
v -0.219931 -0.194717 -0.117430
v -0.221890 -0.194717 -0.117430
v -0.221890 -0.201941 -0.117313
v -0.219931 -0.201941 -0.117313
v -0.219931 -0.189809 -0.129846
v -0.221890 -0.189809 -0.129846
v -0.221890 -0.189692 -0.122622
v -0.219931 -0.189692 -0.122622
v -0.219931 -0.202225 -0.134753
v -0.221890 -0.202225 -0.134753
v -0.221890 -0.195001 -0.134871
v -0.219931 -0.195001 -0.134871
v 0.236472 -0.203074 -0.255175
v 0.236472 -0.216201 -0.242048
v 0.249599 -0.203074 -0.242048
v 0.236472 -0.216201 0.231698
v 0.236472 -0.203074 0.244825
v 0.249599 -0.203074 0.231698
v 0.236472 0.270672 -0.255175
v 0.249599 0.270672 -0.242048
v 0.236472 0.283799 -0.242048
v 0.236472 0.270672 0.244825
v 0.236472 0.283799 0.231698
v 0.249599 0.270672 0.231698
v -0.237274 -0.203074 -0.255175
v -0.250401 -0.203074 -0.242048
v -0.237274 -0.216201 -0.242048
v -0.237274 -0.203074 0.244825
v -0.237274 -0.216201 0.231698
v -0.250401 -0.203074 0.231698
v -0.237274 0.270672 -0.255175
v -0.237274 0.283799 -0.242048
v -0.250401 0.270672 -0.242048
v -0.237274 0.270672 0.244825
v -0.250401 0.270672 0.231698
v -0.237274 0.283799 0.231698
v 0.224603 -0.216201 -0.230180
v 0.216123 -0.211961 -0.225940
v 0.220363 -0.211961 -0.221700
v 0.220363 -0.211961 0.211349
v 0.216123 -0.211961 0.215589
v 0.224603 -0.216201 0.219830
v -0.225406 -0.216201 0.219830
v -0.216926 -0.211961 0.215589
v -0.221166 -0.211961 0.211349
v -0.221166 -0.211961 -0.221700
v -0.216926 -0.211961 -0.225940
v -0.225406 -0.216201 -0.230180
v 0.220363 0.250363 -0.221700
v 0.216123 0.250363 -0.225940
v 0.216123 0.254603 -0.221700
v 0.220363 0.250363 0.211349
v 0.216123 0.254603 0.211349
v 0.216123 0.250363 0.215589
v -0.221166 0.250363 0.211349
v -0.216926 0.250363 0.215589
v -0.216926 0.254603 0.211349
v -0.221166 0.250363 -0.221700
v -0.216926 0.254603 -0.221700
v -0.216926 0.250363 -0.225940
v -0.221166 -0.186895 -0.221700
v -0.216926 -0.186895 -0.225940
v 0.220363 -0.186895 -0.221700
v 0.216123 -0.186895 -0.225940
v 0.216123 -0.186895 0.215589
v 0.220363 -0.186895 0.211349
v -0.221166 -0.186895 0.211349
v -0.216926 -0.186895 0.215589
vn -0.1297 0.0775 -0.9885
vn 0.0107 -0.8824 -0.4704
vn 0.4062 -0.8914 -0.2008
vn 0.9882 0.0827 0.1290
vn 0.9885 0.0775 -0.1297
vn 0.4704 -0.8824 0.0107
vn 0.2008 -0.8914 0.4062
vn -0.1290 0.0827 0.9882
vn 0.1297 0.0775 0.9885
vn -0.0107 -0.8824 0.4704
vn -0.4062 -0.8914 0.2008
vn -0.9882 0.0827 -0.1290
vn -0.2008 -0.8914 -0.4062
vn 0.1290 0.0827 -0.9882
vn -0.9885 0.0775 0.1297
vn -0.4704 -0.8824 -0.0107
vn -0.2006 -0.8915 -0.4063
vn 0.0106 -0.8824 -0.4704
vn -0.1296 0.0775 -0.9885
vn 0.1288 0.0828 -0.9882
vn 0.4063 -0.8915 -0.2006
vn 0.4704 -0.8824 0.0106
vn 0.9885 0.0775 -0.1296
vn 0.9882 0.0828 0.1288
vn 0.2006 -0.8915 0.4063
vn -0.0106 -0.8824 0.4704
vn 0.1296 0.0775 0.9885
vn -0.1288 0.0828 0.9882
vn -0.4063 -0.8915 0.2006
vn -0.4704 -0.8824 -0.0106
vn -0.9885 0.0775 0.1296
vn -0.9882 0.0828 -0.1288
vt 0.857816 0.018403
vt 0.857816 0.002663
vt 0.860339 0.002663
vt 0.860339 0.018403
vt 0.597597 0.018403
vt 0.597597 0.002663
vt 0.600120 0.002663
vt 0.600120 0.018403
vt 0.262742 0.450797
vt 0.262742 0.435057
vt 0.265265 0.435057
vt 0.265265 0.450797
vt 0.005046 0.435057
vt 0.005046 0.450798
vt 0.002523 0.450798
vt 0.002523 0.435057
vt 1.000000 0.609650
vt 1.000000 0.881598
vt 0.989453 0.881598
vt 0.989453 0.609650
vt 0.194537 0.728052
vt 0.194537 1.000000
vt 0.183990 1.000000
vt 0.183990 0.728052
s 1
usemtl M_Safe_18_1
f 147/1/1 123/2/2 122/3/3 148/4/4
f 149/5/5 125/6/6 124/7/7 150/8/8
f 151/9/9 129/10/10 128/11/11 152/12/12
f 130/13/13 145/14/14 146/15/15 131/16/16
f 122/17/17 131/18/18 146/19/19 148/20/20
f 124/7/21 123/2/22 147/1/23 150/8/24
f 128/21/25 125/22/26 149/23/27 152/24/28
f 130/13/29 129/10/30 151/9/31 145/14/32
