# Blender 4.1.0
# www.blender.org
mtllib SafemeshSafe_18_0_GeomSubset_0.mtl
o SafemeshSafe_18_0_GeomSubset_0
v 0.219967 -0.201149 0.117730
v 0.219967 -0.204733 0.121433
v 0.219967 -0.204649 0.126586
v 0.219967 -0.200946 0.130171
v 0.219967 -0.195793 0.130087
v 0.219967 -0.192208 0.126384
v 0.219967 -0.192292 0.121230
v 0.219967 -0.195995 0.117646
v 0.221925 -0.192292 0.121230
v 0.221925 -0.195995 0.117646
v 0.221925 -0.195793 0.130087
v 0.221925 -0.192208 0.126384
v 0.221925 -0.204649 0.126586
v 0.221925 -0.200946 0.130171
v 0.221925 -0.201149 0.117730
v 0.221925 -0.204733 0.121433
v 0.219967 -0.201149 -0.007270
v 0.219967 -0.204733 -0.003567
v 0.219967 -0.204649 0.001586
v 0.219967 -0.200946 0.005171
v 0.219967 -0.195793 0.005087
v 0.219967 -0.192208 0.001384
v 0.219967 -0.192292 -0.003770
v 0.219967 -0.195995 -0.007354
v 0.221925 -0.192292 -0.003770
v 0.221925 -0.195995 -0.007354
v 0.221925 -0.195793 0.005087
v 0.221925 -0.192208 0.001384
v 0.221925 -0.204649 0.001586
v 0.221925 -0.200946 0.005171
v 0.221925 -0.201149 -0.007270
v 0.221925 -0.204733 -0.003567
v 0.219931 -0.201149 -0.132270
v 0.219931 -0.204733 -0.128567
v 0.219931 -0.204649 -0.123414
v 0.219931 -0.200946 -0.119829
v 0.219931 -0.195793 -0.119913
v 0.219931 -0.192208 -0.123616
v 0.219931 -0.192292 -0.128770
v 0.219931 -0.195995 -0.132354
v 0.221890 -0.192292 -0.128770
v 0.221890 -0.195995 -0.132354
v 0.221890 -0.195793 -0.119913
v 0.221890 -0.192208 -0.123616
v 0.221890 -0.204649 -0.123414
v 0.221890 -0.200946 -0.119829
v 0.221890 -0.201149 -0.132270
v 0.221890 -0.204733 -0.128567
v 0.219967 -0.207132 0.127662
v 0.221925 -0.207132 0.127662
v 0.221925 -0.207250 0.120438
v 0.219967 -0.207250 0.120438
v 0.219967 -0.194717 0.132570
v 0.221925 -0.194717 0.132570
v 0.221925 -0.201941 0.132687
v 0.219967 -0.201941 0.132687
v 0.219967 -0.189809 0.120154
v 0.221925 -0.189809 0.120154
v 0.221925 -0.189692 0.127378
v 0.219967 -0.189692 0.127378
v 0.219967 -0.202225 0.115247
v 0.221925 -0.202225 0.115247
v 0.221925 -0.195001 0.115129
v 0.219967 -0.195001 0.115129
v 0.219967 -0.207132 0.002662
v 0.221925 -0.207132 0.002662
v 0.221925 -0.207250 -0.004562
v 0.219967 -0.207250 -0.004562
v 0.219967 -0.194717 0.007570
v 0.221925 -0.194717 0.007570
v 0.221925 -0.201941 0.007687
v 0.219967 -0.201941 0.007687
v 0.219967 -0.189809 -0.004846
v 0.221925 -0.189809 -0.004846
v 0.221925 -0.189692 0.002378
v 0.219967 -0.189692 0.002378
v 0.219967 -0.202225 -0.009753
v 0.221925 -0.202225 -0.009753
v 0.221925 -0.195001 -0.009871
v 0.219967 -0.195001 -0.009871
v 0.219931 -0.207132 -0.122338
v 0.221890 -0.207132 -0.122338
v 0.221890 -0.207250 -0.129562
v 0.219931 -0.207250 -0.129562
v 0.219931 -0.194717 -0.117430
v 0.221890 -0.194717 -0.117430
v 0.221890 -0.201941 -0.117313
v 0.219931 -0.201941 -0.117313
v 0.219931 -0.189809 -0.129846
v 0.221890 -0.189809 -0.129846
v 0.221890 -0.189692 -0.122622
v 0.219931 -0.189692 -0.122622
v 0.219931 -0.202225 -0.134753
v 0.221890 -0.202225 -0.134753
v 0.221890 -0.195001 -0.134871
v 0.219931 -0.195001 -0.134871
v -0.236472 -0.203074 -0.255175
v -0.236472 -0.216201 -0.242048
v -0.249599 -0.203074 -0.242048
v -0.236472 -0.216201 0.231698
v -0.236472 -0.203074 0.244825
v -0.249599 -0.203074 0.231698
v -0.236472 0.270672 -0.255175
v -0.249599 0.270672 -0.242048
v -0.236472 0.283799 -0.242048
v -0.236472 0.270672 0.244825
v -0.236472 0.283799 0.231698
v -0.249599 0.270672 0.231698
v 0.237274 -0.203074 -0.255175
v 0.250401 -0.203074 -0.242048
v 0.237274 -0.216201 -0.242048
v 0.237274 -0.203074 0.244825
v 0.237274 -0.216201 0.231698
v 0.250401 -0.203074 0.231698
v 0.237274 0.270672 -0.255175
v 0.237274 0.283799 -0.242048
v 0.250401 0.270672 -0.242048
v 0.237274 0.270672 0.244825
v 0.250401 0.270672 0.231698
v 0.237274 0.283799 0.231698
v -0.224603 -0.216201 -0.230180
v -0.216123 -0.211961 -0.225940
v -0.220363 -0.211961 -0.221700
v -0.220363 -0.211960 0.211349
v -0.216123 -0.211960 0.215589
v -0.224603 -0.216201 0.219830
v 0.225406 -0.216201 0.219830
v 0.216926 -0.211960 0.215589
v 0.221166 -0.211960 0.211349
v 0.221166 -0.211961 -0.221700
v 0.216926 -0.211961 -0.225940
v 0.225406 -0.216201 -0.230180
v -0.220363 0.250363 -0.221700
v -0.216123 0.250363 -0.225940
v -0.216123 0.254603 -0.221700
v -0.220363 0.250363 0.211349
v -0.216123 0.254603 0.211349
v -0.216123 0.250363 0.215589
v 0.221166 0.250363 0.211349
v 0.216926 0.250363 0.215589
v 0.216926 0.254603 0.211349
v 0.221166 0.250363 -0.221700
v 0.216926 0.254603 -0.221700
v 0.216926 0.250363 -0.225940
v 0.221166 -0.186895 -0.221700
v 0.216926 -0.186895 -0.225940
v -0.220363 -0.186895 -0.221700
v -0.216123 -0.186895 -0.225940
v -0.216123 -0.186895 0.215589
v -0.220363 -0.186895 0.211349
v 0.221166 -0.186895 0.211349
v 0.216926 -0.186895 0.215589
vn -0.6387 0.4303 -0.6379
vn 0.4628 0.8119 -0.3559
vn 0.6387 0.4508 0.6236
vn -0.4628 0.8230 0.3293
vn -0.6387 -0.6379 -0.4303
vn 0.4628 -0.3559 -0.8119
vn 0.6387 0.6236 -0.4508
vn -0.4628 0.3293 -0.8230
vn -0.6387 -0.4303 0.6379
vn 0.4628 -0.8119 0.3559
vn 0.6387 -0.4508 -0.6236
vn -0.4628 -0.8230 -0.3293
vn -0.6387 0.6379 0.4303
vn 0.4628 0.3559 0.8119
vn 0.6387 -0.6236 0.4508
vn -0.4628 -0.3292 0.8230
vn -0.2269 -0.9664 0.1205
vn -0.4229 -0.8936 0.1508
vn 0.2269 -0.9698 -0.0890
vn 0.4229 -0.8980 -0.1216
vn -0.2269 0.1206 0.9664
vn -0.4229 0.1507 0.8936
vn 0.2269 -0.0890 0.9698
vn 0.4228 -0.1216 0.8980
vn -0.2269 0.9664 -0.1206
vn -0.4229 0.8936 -0.1507
vn 0.2269 0.9698 0.0890
vn 0.4228 0.8980 0.1216
vn -0.2269 -0.1205 -0.9664
vn -0.4229 -0.1507 -0.8936
vn 0.2270 0.0890 -0.9698
vn 0.4229 0.1216 -0.8980
vn 0.4229 0.8980 0.1215
vn -0.4229 -0.8936 0.1507
vn 0.2510 -0.9349 0.2510
vn -0.2510 -0.9349 0.2510
vn 0.1256 -0.9841 -0.1256
vn -0.1256 -0.9841 -0.1256
vn 0.9993 0.0267 -0.0266
vn 0.9993 0.0266 0.0267
vn 0.9993 -0.0267 0.0266
vn 0.9993 -0.0266 -0.0267
vn -0.9882 0.0828 -0.1289
vn -0.9885 0.0776 0.1297
vn -0.9999 -0.0089 -0.0073
vn -0.9999 -0.0068 0.0096
vn -0.0267 0.9993 -0.0266
vn -0.0266 0.9993 0.0267
vn 0.0267 0.9993 0.0266
vn 0.0266 0.9993 -0.0267
vn -0.9993 -0.0267 -0.0266
vn -0.9993 -0.0266 0.0267
vn -0.9993 0.0267 0.0266
vn -0.9993 0.0266 -0.0267
vn 0.1290 0.0828 -0.9882
vn -0.1297 0.0776 -0.9885
vn 0.0073 -0.0089 -0.9999
vn -0.0097 -0.0067 -0.9999
vn 0.9882 0.0828 0.1289
vn 0.9885 0.0776 -0.1297
vn 0.9999 -0.0089 0.0073
vn 0.9999 -0.0067 -0.0097
vn 0.0266 0.0267 0.9993
vn -0.0267 0.0266 0.9993
vn -0.0266 -0.0267 0.9993
vn 0.0267 -0.0266 0.9993
vn -0.1290 0.0828 0.9882
vn 0.1297 0.0776 0.9885
vn -0.0073 -0.0089 0.9999
vn 0.0096 -0.0068 0.9999
vn -0.2510 -0.9349 -0.2510
vn 0.2510 -0.9349 -0.2510
vn -0.1256 -0.9841 0.1256
vn 0.1256 -0.9841 0.1256
vn -0.0096 -0.9999 0.0072
vn -0.0072 -0.9999 -0.0096
vn 0.0096 -0.9999 -0.0072
vn 0.0072 -0.9999 0.0096
vn -0.0267 -0.0266 -0.9993
vn -0.0266 0.0267 -0.9993
vn 0.0266 -0.0267 -0.9993
vn 0.0267 0.0266 -0.9993
vn 0.2006 -0.8915 0.4062
vn 0.4703 -0.8824 0.0106
vn 0.4063 -0.8915 -0.2006
vn 0.0107 -0.8824 -0.4703
vn -0.2006 -0.8915 -0.4062
vn -0.4703 -0.8824 -0.0106
vn -0.4062 -0.8915 0.2006
vn -0.0106 -0.8824 0.4703
vt 0.000000 0.000000
vt 1.050811 1.007032
vt 1.050811 -0.480494
vt 1.079833 -0.443228
vt 1.079833 0.969767
vt 0.957403 -0.388820
vt 0.957403 1.098706
vt -0.452165 1.098706
vt -0.452165 -0.388820
vt -1.953674 0.253988
vt -0.665195 0.253987
vt -0.665195 1.626945
vt -1.953674 1.626946
vt -1.939849 -0.948160
vt -1.939849 -2.000000
vt -0.530281 -2.000000
vt -0.530281 -0.948160
vt 0.957403 -1.958782
vt 0.957403 -0.471256
vt -0.452165 -0.471256
vt -0.452165 -1.958782
vt -1.058957 1.640260
vt -1.058957 3.000000
vt -1.978906 3.000000
vt -1.978906 1.640260
vt 1.021693 -1.907983
vt 2.310172 -1.907984
vt 2.310172 -0.535026
vt 1.021693 -0.535026
vt 1.993175 1.089468
vt 1.993175 2.576993
vt 0.996461 2.576993
vt 0.996460 1.089468
vt 2.968359 1.048250
vt 2.968359 2.407990
vt 2.048411 2.407990
vt 2.048411 1.048250
vt 2.209291 -0.480494
vt 2.209291 1.007032
vt 2.180269 0.969767
vt 2.180268 -0.443229
vt 0.567738 2.512978
vt -0.491223 2.512978
vt -0.491223 1.153238
vt 0.567738 1.153238
vt -0.585612 0.203189
vt -0.639963 0.203189
vt -0.617713 0.161971
vt 0.996460 -0.480494
vt 1.028561 -0.521712
vt -1.939849 -0.889869
vt -1.978906 -0.919014
vt 2.048411 2.576993
vt 2.020793 2.618211
vt -0.585612 1.690715
vt -0.617713 1.731933
vt -0.639963 1.690715
vt 0.996461 1.007032
vt 1.028561 1.048250
vt -0.530281 -0.889869
vt -0.491223 -0.919015
vt 2.020793 1.048250
vt 2.048411 1.089468
vt -0.452165 -2.000000
vt 0.957403 -2.000000
vt 0.996460 -1.958782
vt 0.996460 -0.471256
vt 0.957403 -0.430038
vt -0.452165 -0.430038
vt -0.491223 -0.471256
vt -0.491223 -1.958782
vt 0.996460 -0.388820
vt 0.996460 1.098706
vt 0.957403 1.139924
vt -0.452165 1.139924
vt -0.491223 1.098706
vt -0.491223 -0.388820
vt -0.530280 0.161971
vt -1.939849 0.161971
vt 2.162713 -0.416601
vt 2.152344 -0.429915
vt -0.557688 0.175285
vt -0.568057 0.188599
vt -0.585612 0.161971
vt -0.585612 1.574966
vt -0.568057 1.548339
vt -0.557688 1.561653
vt 2.152344 0.956453
vt 2.162713 0.943139
vt 0.574925 1.139924
vt 0.585293 1.153238
vt -0.547319 0.161971
vt -0.540132 0.175285
vt -0.547319 1.548339
vt -0.557688 1.535025
vt -0.540132 1.535025
vt 0.574925 2.526292
vt 0.585294 2.512978
vt 2.310172 -1.986686
vt 1.021693 -1.986686
vt 0.996460 -2.000000
vt 2.335404 -2.000000
vt -0.665195 0.175285
vt -1.953674 0.175285
vt -1.978906 0.161971
vt -0.639963 0.161971
vt 2.310172 -0.521712
vt 1.021693 -0.521712
vt -0.665195 1.640259
vt -1.953674 1.640259
vt -1.966290 1.626946
vt -1.966290 0.253988
vt -0.652579 0.253987
vt -0.652579 1.626945
vt 1.009077 -0.535026
vt 1.009076 -1.907983
vt 2.322788 -1.907984
vt 2.322788 -0.535026
s 1
usemtl M_Safe_18_0
f 3/1/1 13/1/2 16/1/3 2/1/4
f 5/1/5 11/1/6 14/1/7 4/1/8
f 7/1/9 9/1/10 12/1/11 6/1/12
f 1/1/13 15/1/14 10/1/15 8/1/16
f 2/1/4 16/1/3 15/1/14 1/1/13
f 4/1/8 14/1/7 13/1/2 3/1/1
f 6/1/12 12/1/11 11/1/6 5/1/5
f 8/1/16 10/1/15 9/1/10 7/1/9
f 19/1/1 29/1/2 32/1/3 18/1/4
f 21/1/5 27/1/6 30/1/7 20/1/8
f 23/1/9 25/1/10 28/1/11 22/1/12
f 17/1/13 31/1/14 26/1/15 24/1/16
f 18/1/4 32/1/3 31/1/14 17/1/13
f 20/1/8 30/1/7 29/1/2 19/1/1
f 22/1/12 28/1/11 27/1/6 21/1/5
f 24/1/16 26/1/15 25/1/10 23/1/9
f 35/1/1 45/1/2 48/1/3 34/1/4
f 37/1/5 43/1/6 46/1/7 36/1/8
f 39/1/9 41/1/10 44/1/11 38/1/12
f 33/1/13 47/1/14 42/1/15 40/1/16
f 34/1/4 48/1/3 47/1/14 33/1/13
f 36/1/8 46/1/7 45/1/2 35/1/1
f 38/1/12 44/1/11 43/1/6 37/1/5
f 40/1/16 42/1/15 41/1/10 39/1/9
f 49/1/17 52/1/18 51/1/19 50/1/20
f 53/1/21 56/1/22 55/1/23 54/1/24
f 57/1/25 60/1/26 59/1/27 58/1/28
f 61/1/29 64/1/30 63/1/31 62/1/32
f 52/1/18 61/1/29 62/1/32 51/1/19
f 56/1/22 49/1/17 50/1/20 55/1/23
f 60/1/26 53/1/21 54/1/24 59/1/27
f 64/1/30 57/1/25 58/1/28 63/1/31
f 65/1/17 68/1/18 67/1/19 66/1/20
f 69/1/21 72/1/22 71/1/23 70/1/24
f 73/1/25 76/1/26 75/1/27 74/1/33
f 77/1/29 80/1/30 79/1/31 78/1/32
f 68/1/18 77/1/29 78/1/32 67/1/19
f 72/1/22 65/1/17 66/1/20 71/1/23
f 76/1/26 69/1/21 70/1/24 75/1/27
f 80/1/30 73/1/25 74/1/33 79/1/31
f 81/1/17 84/1/34 83/1/19 82/1/20
f 85/1/21 88/1/22 87/1/23 86/1/24
f 89/1/25 92/1/26 91/1/27 90/1/28
f 93/1/29 96/1/30 95/1/31 94/1/32
f 84/1/34 93/1/29 94/1/32 83/1/19
f 88/1/22 81/1/17 82/1/20 87/1/23
f 92/1/26 85/1/21 86/1/24 91/1/27
f 96/1/30 89/1/25 90/1/28 95/1/31
f 34/1/4 84/1/34 81/1/17 35/1/1
f 10/1/15 63/1/31 58/1/28 9/1/10
f 35/1/1 81/1/17 88/1/22 36/1/8
f 45/1/2 82/1/20 83/1/19 48/1/3
f 17/1/13 77/1/29 68/1/18 18/1/4
f 36/1/8 88/1/22 85/1/21 37/1/5
f 43/1/6 86/1/24 87/1/23 46/1/7
f 18/1/4 68/1/18 65/1/17 19/1/1
f 37/1/5 85/1/21 92/1/26 38/1/12
f 41/1/10 90/1/28 91/1/27 44/1/11
f 19/1/1 65/1/17 72/1/22 20/1/8
f 38/1/12 92/1/26 89/1/25 39/1/9
f 29/1/2 66/1/20 67/1/19 32/1/3
f 47/1/14 94/1/32 95/1/31 42/1/15
f 1/1/13 61/1/29 52/1/18 2/1/4
f 20/1/8 72/1/22 69/1/21 21/1/5
f 39/1/9 89/1/25 96/1/30 40/1/16
f 27/1/6 70/1/24 71/1/23 30/1/7
f 48/1/3 83/1/19 94/1/32 47/1/14
f 2/1/4 52/1/18 49/1/17 3/1/1
f 21/1/5 69/1/21 76/1/26 22/1/12
f 40/1/16 96/1/30 93/1/29 33/1/13
f 25/1/10 74/1/33 75/1/27 28/1/11
f 46/1/7 87/1/23 82/1/20 45/1/2
f 3/1/1 49/1/17 56/1/22 4/1/8
f 22/1/12 76/1/26 73/1/25 23/1/9
f 13/1/2 50/1/20 51/1/19 16/1/3
f 31/1/14 78/1/32 79/1/31 26/1/15
f 44/1/11 91/1/27 86/1/24 43/1/6
f 4/1/8 56/1/22 53/1/21 5/1/5
f 23/1/9 73/1/25 80/1/30 24/1/16
f 11/1/6 54/1/24 55/1/23 14/1/7
f 32/1/3 67/1/19 78/1/32 31/1/14
f 42/1/15 95/1/31 90/1/28 41/1/10
f 5/1/5 53/1/21 60/1/26 6/1/12
f 24/1/16 80/1/30 77/1/29 17/1/13
f 9/1/10 58/1/28 59/1/27 12/1/11
f 30/1/7 71/1/23 66/1/20 29/1/2
f 6/1/12 60/1/26 57/1/25 7/1/9
f 15/1/14 62/1/32 63/1/31 10/1/15
f 28/1/11 75/1/27 70/1/24 27/1/6
f 7/1/9 57/1/25 64/1/30 8/1/16
f 16/1/3 51/1/19 62/1/32 15/1/14
f 26/1/15 79/1/31 74/1/33 25/1/10
f 8/1/16 64/1/30 61/1/29 1/1/13
f 14/1/7 55/1/23 50/1/20 13/1/2
f 33/1/13 93/1/29 84/1/34 34/1/4
f 12/1/11 59/1/27 54/1/24 11/1/6
f 113/2/35 100/3/36 126/4/37 127/5/38
f 117/6/39 119/7/40 114/8/41 110/9/42
f 145/10/43 151/11/44 139/12/45 142/13/46
f 105/14/47 107/15/48 120/16/49 116/17/50
f 99/18/51 102/19/52 108/20/53 104/21/54
f 152/22/55 149/23/56 138/24/57 140/25/58
f 150/26/59 147/27/60 133/28/61 136/29/62
f 118/30/63 106/31/64 101/32/65 112/33/66
f 148/34/67 146/35/68 144/36/69 134/37/70
f 98/38/71 111/39/72 132/40/73 121/41/74
f 111/39/72 113/2/35 127/5/38 132/40/73
f 143/42/75 141/43/76 137/44/77 135/45/78
f 97/46/79 98/47/71 99/48/51
f 100/3/36 101/49/65 102/50/52
f 103/51/80 104/52/54 105/14/47
f 106/31/64 107/53/48 108/54/53
f 109/55/81 110/56/42 111/57/72
f 112/58/66 113/2/35 114/59/41
f 115/60/82 116/17/50 117/61/39
f 118/30/63 119/62/40 120/63/49
f 103/64/80 97/65/79 99/18/51 104/21/54
f 98/66/71 100/67/36 102/19/52 99/18/51
f 101/68/65 106/69/64 108/20/53 102/19/52
f 107/70/48 105/71/47 104/21/54 108/20/53
f 115/60/82 103/51/80 105/14/47 116/17/50
f 106/31/64 118/30/63 120/63/49 107/53/48
f 119/7/40 117/6/39 116/72/50 120/73/49
f 109/69/81 115/68/82 117/6/39 110/9/42
f 118/74/63 112/75/66 114/8/41 119/7/40
f 113/76/35 111/77/72 110/9/42 114/8/41
f 97/46/79 109/55/81 111/57/72 98/47/71
f 112/58/66 101/49/65 100/3/36 113/2/35
f 103/51/80 115/60/82 109/78/81 97/79/79
f 121/41/74 122/80/83 123/81/84
f 124/82/85 125/83/86 126/84/37
f 127/85/38 128/86/87 129/87/88
f 130/88/89 131/89/90 132/40/73
f 133/90/61 134/91/70 135/45/78
f 136/92/62 137/93/77 138/82/57
f 139/94/45 140/95/58 141/96/76
f 142/97/46 143/42/75 144/98/69
f 123/99/84 124/100/85 126/101/37 121/102/74
f 129/103/88 130/104/89 132/105/73 127/106/38
f 121/41/74 132/40/73 131/89/90 122/80/83
f 127/85/38 126/84/37 125/83/86 128/86/87
f 135/107/78 137/108/77 136/29/62 133/28/61
f 141/109/76 143/110/75 142/13/46 139/12/45
f 134/91/70 144/98/69 143/42/75 135/45/78
f 140/95/58 138/82/57 137/93/77 141/96/76
f 145/10/43 142/13/46 144/111/69 146/112/68
f 100/3/36 98/38/71 121/41/74 126/4/37
f 139/12/45 151/11/44 152/113/55 140/114/58
f 138/115/57 149/116/56 150/26/59 136/29/62
f 133/28/61 147/27/60 148/117/67 134/118/70
