# Blender 4.1.0
# www.blender.org
mtllib MeshFridgeFreezerdoorB2_3_GeomSubset_0.mtl
o MeshFridgeFreezerdoorB2_3_GeomSubset_0
v -0.005865 0.050002 -1.010246
v -0.005853 0.050002 -1.010246
v -0.005865 0.050012 -1.010246
v -0.005853 0.050012 -1.010246
v -0.005865 0.050002 -1.010246
v -0.005853 0.050002 -1.010246
v -0.005865 0.050012 -1.010246
v -0.005853 0.050012 -1.010246
v -0.005865 0.050002 -1.010246
v -0.005853 0.050002 -1.010246
v -0.005865 0.050012 -1.010246
v -0.005853 0.050012 -1.010246
v -0.005865 0.050002 -1.010246
v -0.005853 0.050002 -1.010246
v -0.005865 0.050012 -1.010246
v -0.005853 0.050012 -1.010246
v -0.005865 0.050002 -1.010246
v -0.005853 0.050002 -1.010246
v -0.005865 0.050012 -1.010246
v -0.005853 0.050012 -1.010246
v -0.005865 0.050002 -1.010246
v -0.005853 0.050002 -1.010246
v -0.005865 0.050012 -1.010246
v -0.005853 0.050012 -1.010246
v -0.005865 0.050002 -1.010246
v -0.005853 0.050002 -1.010246
v -0.005865 0.050012 -1.010246
v -0.005853 0.050012 -1.010246
v 0.568365 -0.231326 0.457799
v 0.574989 -0.231326 0.463319
v -0.584211 -0.231326 0.463319
v -0.577587 -0.231326 0.457799
v 0.568365 -0.370706 0.457799
v -0.577587 -0.370706 0.457799
v 0.517857 -0.231326 0.512744
v 0.511233 -0.231326 0.507224
v -0.520455 -0.231326 0.507224
v -0.527079 -0.231326 0.512744
v 0.569690 -0.223046 0.467735
v 0.563066 -0.223046 0.462215
v -0.572288 -0.223046 0.462215
v -0.578912 -0.223046 0.467735
v 0.510237 -0.223775 0.506985
v 0.516815 -0.223760 0.512466
v -0.526037 -0.223760 0.512466
v -0.519459 -0.223774 0.506985
v -0.550843 -0.231326 1.007486
v -0.581028 -0.231326 0.982439
v -0.523917 -0.231326 0.934829
v -0.493711 -0.231326 0.959876
v -0.545543 -0.223046 1.003070
v -0.575730 -0.223046 0.978023
v -0.522896 -0.222383 0.935222
v -0.492902 -0.222317 0.960093
v 0.541621 -0.231326 1.007486
v 0.571805 -0.231326 0.982439
v 0.484488 -0.231326 0.959876
v 0.514695 -0.231326 0.934829
v 0.566508 -0.223046 0.978023
v 0.536321 -0.223046 1.003070
v 0.483680 -0.222317 0.960093
v 0.513674 -0.222383 0.935222
v -0.514059 -0.222337 0.952816
v -0.515017 -0.231326 0.952548
v 0.504837 -0.222337 0.952816
v 0.505794 -0.231326 0.952548
v 0.562919 -0.231326 1.000156
v 0.557620 -0.223046 0.995741
v -0.566843 -0.223046 0.995741
v -0.572141 -0.231326 1.000157
v 0.574989 -0.363806 0.463319
v 0.569134 -0.370706 0.458440
v -0.578356 -0.370706 0.458440
v -0.584211 -0.363806 0.463319
v -0.581028 -0.363806 0.982439
v -0.572913 -0.370706 0.981068
v -0.550843 -0.363806 1.007486
v -0.549232 -0.370706 1.000718
v 0.541620 -0.363806 1.007486
v 0.540009 -0.370706 1.000718
v 0.571805 -0.363806 0.982439
v 0.563690 -0.370706 0.981068
v -0.572141 -0.363806 1.000156
v -0.566299 -0.370706 0.995267
v 0.562919 -0.363806 1.000156
v 0.557076 -0.370706 0.995267
v 0.583169 -0.230704 0.547159
v 0.586203 -0.224059 0.547194
v 0.584829 -0.217026 0.547231
v 0.579416 -0.211490 0.547260
v 0.571415 -0.208934 0.547273
v 0.562968 -0.210043 0.547267
v 0.556341 -0.214520 0.547244
v 0.553307 -0.221166 0.547209
v 0.554681 -0.228199 0.547172
v 0.560093 -0.233734 0.547143
v 0.568094 -0.236290 0.547130
v 0.576541 -0.235181 0.547136
v 0.583168 -0.231007 0.605119
v 0.586203 -0.224362 0.605153
v 0.584830 -0.217329 0.605190
v 0.579416 -0.211793 0.605219
v 0.571415 -0.209237 0.605233
v 0.562968 -0.210347 0.605226
v 0.556340 -0.214824 0.605203
v 0.553307 -0.221469 0.605168
v 0.554680 -0.228502 0.605132
v 0.560093 -0.234038 0.605103
v 0.568094 -0.236594 0.605090
v 0.576540 -0.235485 0.605095
v 0.583169 -0.230704 0.861294
v 0.586203 -0.224059 0.861328
v 0.584829 -0.217026 0.861365
v 0.579416 -0.211490 0.861394
v 0.571415 -0.208934 0.861408
v 0.562968 -0.210043 0.861402
v 0.556341 -0.214520 0.861378
v 0.553307 -0.221166 0.861344
v 0.554681 -0.228199 0.861307
v 0.560093 -0.233734 0.861278
v 0.568094 -0.236290 0.861264
v 0.576541 -0.235181 0.861270
v 0.583168 -0.231007 0.919253
v 0.586203 -0.224362 0.919288
v 0.584830 -0.217329 0.919324
v 0.579416 -0.211793 0.919353
v 0.571415 -0.209237 0.919367
v 0.562968 -0.210347 0.919361
v 0.556340 -0.214824 0.919338
v 0.553307 -0.221469 0.919303
v 0.554680 -0.228502 0.919266
v 0.560093 -0.234038 0.919237
v 0.568094 -0.236594 0.919223
v 0.576540 -0.235485 0.919229
v 0.450126 -0.172152 0.560872
v 0.450126 -0.172152 0.725986
v -0.459018 -0.172152 0.725986
v -0.459018 -0.172152 0.560872
v 0.445581 -0.160421 0.560872
v 0.445581 -0.160421 0.725986
v -0.454472 -0.160421 0.725986
v -0.454472 -0.160421 0.560872
v -0.440835 -0.172152 0.725986
v -0.440835 -0.172152 0.560872
v -0.440835 -0.156282 0.725986
v -0.440835 -0.156282 0.560872
v 0.432307 -0.172152 0.560872
v 0.432307 -0.172152 0.725986
v 0.432307 -0.156282 0.725986
v 0.432307 -0.156282 0.560872
v 0.450126 -0.328091 0.560872
v 0.450126 -0.328091 0.725986
v -0.459018 -0.328091 0.725986
v -0.459018 -0.328091 0.560872
v -0.440835 -0.328091 0.725986
v -0.440835 -0.328091 0.560872
v 0.432307 -0.328091 0.560872
v 0.432307 -0.328091 0.725986
v 0.497322 -0.205517 0.518699
v 0.503947 -0.205488 0.524220
v -0.513169 -0.205488 0.524220
v -0.506544 -0.205517 0.518699
v 0.450954 -0.205315 0.557339
v 0.457578 -0.205286 0.562859
v -0.466801 -0.205286 0.562859
v -0.460177 -0.205315 0.557339
v 0.457578 -0.323964 0.563479
v 0.450954 -0.323993 0.557961
v -0.460177 -0.323993 0.557961
v -0.466801 -0.323964 0.563479
v -0.479800 -0.202724 0.948160
v -0.510014 -0.202855 0.923114
v -0.433432 -0.202927 0.909521
v -0.463673 -0.203057 0.884475
v -0.433432 -0.321604 0.910142
v -0.463673 -0.321736 0.885096
v 0.470578 -0.202724 0.948160
v 0.500791 -0.202855 0.923114
v 0.424210 -0.202927 0.909521
v 0.454450 -0.203057 0.884475
v 0.454450 -0.321736 0.885096
v 0.424210 -0.321604 0.910142
v 0.445528 -0.202965 0.902194
v 0.445528 -0.321643 0.902816
v -0.454751 -0.321643 0.902816
v -0.454751 -0.202965 0.902194
v 0.491886 -0.202763 0.940832
v -0.501109 -0.202763 0.940832
v -0.460683 -0.382311 0.496523
v -0.460683 -0.382311 0.907935
v -0.518643 -0.382311 0.907935
v -0.518643 -0.382311 0.496523
v -0.460683 -0.414052 0.496523
v -0.460683 -0.414052 0.907935
v -0.518643 -0.414052 0.907935
v -0.518643 -0.414052 0.496523
v -0.465789 -0.382311 0.491417
v -0.465789 -0.382311 0.913042
v -0.513537 -0.382311 0.913042
v -0.513537 -0.382311 0.491417
v -0.465789 -0.369202 0.491417
v -0.465789 -0.369202 0.913042
v -0.513537 -0.369202 0.913042
v -0.513537 -0.369202 0.491417
v -0.470067 -0.422607 0.496523
v -0.470067 -0.422607 0.907935
v -0.509259 -0.422607 0.907935
v -0.509259 -0.422607 0.496523
v -0.460683 -0.382311 0.471959
v -0.465375 -0.382311 0.467267
v -0.465375 -0.382311 0.937193
v -0.460683 -0.382311 0.932500
v -0.518643 -0.382311 0.932500
v -0.513951 -0.382311 0.937193
v -0.513951 -0.382311 0.467267
v -0.518643 -0.382311 0.471959
v -0.465375 -0.414052 0.467267
v -0.460683 -0.414052 0.471959
v -0.460683 -0.414052 0.932500
v -0.465375 -0.414052 0.937193
v -0.513951 -0.414052 0.937193
v -0.518643 -0.414052 0.932500
v -0.518643 -0.414052 0.471959
v -0.513951 -0.414052 0.467267
v -0.465789 -0.382311 0.477065
v -0.470481 -0.382311 0.472373
v -0.470481 -0.382311 0.932086
v -0.465789 -0.382311 0.927396
v -0.513537 -0.382311 0.927396
v -0.508845 -0.382311 0.932086
v -0.508845 -0.382311 0.472373
v -0.513537 -0.382311 0.477065
v -0.465789 -0.369202 0.477065
v -0.470481 -0.369202 0.472373
v -0.465789 -0.369202 0.927396
v -0.470481 -0.369202 0.932086
v -0.513537 -0.369202 0.927396
v -0.508845 -0.369202 0.932086
v -0.513537 -0.369202 0.477065
v -0.508845 -0.369202 0.472373
v -0.470067 -0.422607 0.481343
v -0.474759 -0.422607 0.476651
v -0.470067 -0.422607 0.923117
v -0.474759 -0.422607 0.927809
v -0.509259 -0.422607 0.923117
v -0.504567 -0.422607 0.927809
v -0.509259 -0.422607 0.481343
v -0.504567 -0.422607 0.476651
v 0.444961 -0.375052 0.950707
v 0.543025 -0.375052 0.950707
v 0.543025 -0.375052 0.980551
v 0.444961 -0.375052 0.980551
v 0.526681 -0.375052 0.980551
v 0.526681 -0.375052 0.950707
v 0.510337 -0.375052 0.980551
v 0.510337 -0.375052 0.950707
v 0.493993 -0.375052 0.980551
v 0.493993 -0.375052 0.950707
v 0.477649 -0.375052 0.980551
v 0.477649 -0.375052 0.950707
v 0.461305 -0.375052 0.980551
v 0.461305 -0.375052 0.950707
vn -0.0000 -0.0000 1.0000
vn 0.6391 -0.0414 0.7680
vn 0.9997 -0.0000 0.0226
vn 0.9993 0.0290 0.0229
vn 0.6392 0.0413 0.7679
vn 0.0066 -0.0437 0.9990
vn 0.0069 0.0222 0.9997
vn 0.0008 1.0000 -0.0012
vn 0.0007 1.0000 -0.0012
vn 0.0001 0.9999 0.0162
vn 0.0002 0.9999 0.0160
vn -0.0002 0.9999 0.0160
vn -0.0000 0.9999 0.0162
vn -0.0006 1.0000 -0.0013
vn -0.0008 1.0000 -0.0011
vn 0.8401 0.5424 -0.0040
vn 0.9996 0.0281 -0.0071
vn 0.0048 0.0207 -0.9998
vn 0.0031 0.4722 -0.8815
vn -0.0031 0.4722 -0.8815
vn -0.0048 0.0207 -0.9998
vn -0.9996 0.0281 -0.0071
vn -0.8401 0.5424 -0.0040
vn -0.6390 -0.0599 0.7669
vn -0.0047 0.0311 0.9995
vn -0.0064 0.0309 0.9995
vn 0.6390 -0.0599 0.7669
vn 0.0063 0.0309 0.9995
vn 0.0047 0.0311 0.9995
vn -0.6391 -0.0414 0.7680
vn -0.0066 -0.0437 0.9990
vn -0.0069 0.0222 0.9997
vn -0.6392 0.0413 0.7680
vn -0.9997 -0.0000 0.0226
vn -0.9993 0.0290 0.0228
vn 0.9921 -0.1226 -0.0270
vn 0.9920 -0.1223 -0.0305
vn 0.6187 -0.0426 -0.7845
vn 0.6554 -0.0475 -0.7538
vn 0.0066 0.0235 -0.9997
vn 0.0083 0.0233 -0.9997
vn -0.0083 0.0233 -0.9997
vn -0.0067 0.0235 -0.9997
vn -0.6187 -0.0426 -0.7845
vn -0.6554 -0.0475 -0.7538
vn -0.9920 -0.1224 -0.0305
vn -0.9921 -0.1227 -0.0270
vn 0.0036 0.4723 0.8814
vn 0.4820 0.6320 0.6068
vn 0.8398 0.5427 0.0153
vn -0.0036 0.4724 0.8814
vn -0.4820 0.6321 0.6068
vn -0.8397 0.5428 0.0153
vn 0.0005 1.0000 -0.0010
vn -0.0002 1.0000 -0.0013
vn 0.0069 0.9999 0.0079
vn 0.0076 0.9999 0.0070
vn 0.0001 0.9999 0.0169
vn 0.0003 0.9999 0.0165
vn 0.0002 1.0000 -0.0013
vn -0.0005 1.0000 -0.0010
vn -0.0076 0.9999 0.0070
vn -0.0069 0.9999 0.0079
vn -0.0003 0.9999 0.0166
vn -0.0000 0.9999 0.0169
vn -0.6402 -0.0000 -0.7682
vn -0.0048 -0.0000 -1.0000
vn 0.6402 -0.0000 -0.7682
vn 0.0048 -0.0000 -1.0000
vn 0.0002 -1.0000 0.0004
vn 0.0038 -1.0000 0.0001
vn 0.6993 -0.7147 0.0151
vn 0.0040 -0.7005 0.7136
vn -0.0002 -1.0000 0.0003
vn -0.0040 -0.7005 0.7136
vn -0.0038 -1.0000 0.0001
vn -0.6993 -0.7147 0.0151
vn -0.0000 -1.0000 -0.0000
vn -0.0029 -1.0000 -0.0000
vn 0.0029 -1.0000 -0.0000
vn 0.7014 -0.7127 0.0058
vn -0.7014 -0.7127 0.0058
vn 1.0000 -0.0000 0.0061
vn 0.9923 -0.1239 -0.0072
vn -0.9923 -0.1239 -0.0072
vn -1.0000 -0.0000 0.0061
vn -0.0000 0.0052 -1.0000
vn 0.7549 -0.6558 -0.0034
vn 0.9927 -0.1205 -0.0006
vn 0.9927 -0.1206 -0.0006
vn 0.8799 0.4751 0.0025
vn 0.5165 0.8563 0.0045
vn 0.0876 0.9961 0.0052
vn 0.0877 0.9961 0.0052
vn -0.3475 0.9377 0.0049
vn -0.7549 0.6558 0.0034
vn -0.9927 0.1204 0.0006
vn -0.9927 0.1205 0.0006
vn -0.8799 -0.4751 -0.0025
vn -0.5166 -0.8562 -0.0045
vn -0.0875 -0.9961 -0.0052
vn -0.0878 -0.9961 -0.0052
vn 0.3475 -0.9377 -0.0049
vn -0.0000 -0.0052 1.0000
vt -172.898560 -110.958763
vt -172.898560 -110.958786
vt -172.898468 -110.958786
vt -172.898468 -110.958763
vt -170.224136 1.293387
vt -170.224136 1.245529
vt -169.866287 1.245529
vt -169.866287 1.293387
vt -170.322189 -1.442034
vt -170.322189 -1.499260
vt -169.966263 -1.499258
vt -169.966263 -1.442036
vt -170.016312 1.551563
vt -170.134827 1.411464
vt -170.120331 1.394036
vt -170.001678 1.534013
vt -170.001678 -1.474254
vt -170.120331 -1.334277
vt -170.134827 -1.351705
vt -170.016312 -1.491806
vt -171.140472 -1.494267
vt -171.118454 -1.508361
vt -171.118454 -1.490742
vt -171.140472 -1.476647
vt -171.140472 1.543118
vt -171.118454 1.557214
vt -171.118454 1.574832
vt -171.140472 1.560736
vt -170.186798 -0.041939
vt -170.206985 -0.042683
vt -170.206985 -0.057325
vt -170.186798 -0.056685
vt -170.202347 -0.042672
vt -170.222610 -0.041928
vt -170.222610 -0.056674
vt -170.202423 -0.057314
vt -170.322189 1.550439
vt -170.322189 1.493214
vt -169.966263 1.493214
vt -169.966263 1.550439
vt -169.962296 1.245505
vt -169.962296 1.293362
vt -170.320145 1.293362
vt -170.320145 1.245505
vt -170.222610 1.085616
vt -170.198685 1.086663
vt -170.198563 1.133664
vt -170.222610 1.132947
vt -170.061523 1.344157
vt -170.085342 1.341615
vt -170.085403 1.285458
vt -170.061523 1.287604
vt -170.061523 -1.308801
vt -170.085403 -1.306655
vt -170.085342 -1.362811
vt -170.061523 -1.365352
vt -170.186798 1.132960
vt -170.210785 1.133676
vt -170.210724 1.086675
vt -170.186798 1.085626
vt -169.944000 -1.427796
vt -169.944000 -1.485023
vt -169.843918 1.281459
vt -169.843918 1.233601
vt -169.944000 1.478976
vt -169.944000 1.536204
vt -170.342514 1.281434
vt -170.342514 1.233577
vt -171.368362 -1.483373
vt -171.254990 -1.343383
vt -171.301590 -1.319969
vt -171.415314 -1.459826
vt -171.320862 -1.263911
vt -171.434723 -1.403390
vt -171.254990 1.403142
vt -171.368362 1.543133
vt -171.415314 1.519584
vt -171.301590 1.379727
vt -171.434723 1.463149
vt -171.320862 1.323668
vt -169.962296 -0.156701
vt -170.320145 -0.156701
vt -170.320145 -0.171611
vt -169.943649 -0.171611
vt -169.943649 -0.169879
vt -170.224136 -0.156726
vt -170.242813 -0.169905
vt -170.242813 -0.171637
vt -169.866287 -0.171637
vt -169.866287 -0.156726
vt -170.242813 1.280180
vt -170.242813 1.241825
vt -170.340775 -1.437705
vt -170.340775 -1.483562
vt -170.340775 1.534742
vt -170.340775 1.488886
vt -169.943649 1.241801
vt -169.943649 1.280154
vt -169.700211 -1.476169
vt -169.662628 -1.458646
vt -169.648132 -1.413427
vt -169.648132 1.472481
vt -169.662628 1.517699
vt -169.700211 1.535223
vt -171.084930 1.549644
vt -171.086639 1.547608
vt -171.086639 -1.488555
vt -171.084930 -1.490592
vt -170.747696 -1.490742
vt -170.747696 1.557214
vt -170.075592 -1.372525
vt -170.075592 1.358221
vt -170.095551 1.360861
vt -170.095551 -1.375166
vt -170.342514 -0.144772
vt -169.843918 -0.144797
vt -170.357986 0.371385
vt -170.346008 0.389174
vt -170.343033 0.411838
vt -170.349884 0.433311
vt -170.364700 0.447836
vt -170.383591 0.451523
vt -170.401459 0.443381
vt -170.413437 0.425595
vt -170.416412 0.402929
vt -170.409561 0.381458
vt -170.394745 0.366931
vt -170.375854 0.363244
vt -170.271133 0.502291
vt -170.270203 0.328202
vt -170.250275 0.328306
vt -170.251205 0.502393
vt -170.229126 0.328417
vt -170.230072 0.502504
vt -170.212463 0.328504
vt -170.213394 0.502590
vt -170.287796 0.336817
vt -170.287796 0.493873
vt -170.309479 0.493837
vt -170.309479 0.336779
vt -170.332321 0.493852
vt -170.332321 0.336798
vt -170.326111 0.502241
vt -170.327042 0.328852
vt -170.313614 0.328782
vt -170.312759 0.502173
vt -170.293793 0.328678
vt -170.292862 0.502068
vt -170.272705 0.328568
vt -170.271790 0.501958
vt -170.256134 0.328481
vt -170.255280 0.501871
vt -170.348679 0.492975
vt -170.348679 0.337712
vt -170.327255 0.337677
vt -170.327255 0.492941
vt -170.304596 0.337692
vt -170.304596 0.492956
vt -170.284607 0.502218
vt -170.283676 0.328132
vt -170.448120 0.371678
vt -170.430481 0.363601
vt -170.411728 0.367255
vt -170.396973 0.381665
vt -170.390182 0.402964
vt -170.393127 0.425447
vt -170.405075 0.443090
vt -170.422791 0.451165
vt -170.441467 0.447509
vt -170.456223 0.433102
vt -170.463028 0.411804
vt -170.460068 0.389320
vt -170.381317 0.371087
vt -170.369186 0.389023
vt -170.366180 0.411875
vt -170.373093 0.433526
vt -170.388092 0.448172
vt -170.407074 0.451889
vt -170.425079 0.443680
vt -170.437225 0.425747
vt -170.440231 0.402892
vt -170.433319 0.381242
vt -170.418320 0.366595
vt -170.399261 0.362878
vt -170.292206 0.501601
vt -170.291351 0.328891
vt -170.271515 0.328994
vt -170.272446 0.501705
vt -170.250534 0.329105
vt -170.251465 0.501815
vt -170.234100 0.329191
vt -170.234940 0.501901
vt -170.321198 0.337714
vt -170.321198 0.492975
vt -170.342621 0.492939
vt -170.342621 0.337677
vt -170.365219 0.492954
vt -170.365219 0.337693
vt -170.262146 0.502243
vt -170.263077 0.328851
vt -170.249634 0.328781
vt -170.248718 0.502173
vt -170.229736 0.328677
vt -170.228882 0.502068
vt -170.208740 0.328567
vt -170.207825 0.501958
vt -170.192154 0.328480
vt -170.191223 0.501871
vt -170.381760 0.492975
vt -170.381760 0.337713
vt -170.360336 0.337677
vt -170.360336 0.492939
vt -170.337677 0.337693
vt -170.337677 0.492955
vt -170.305573 0.501532
vt -170.304657 0.328821
vt -170.472000 0.371088
vt -170.453979 0.362878
vt -170.434998 0.366592
vt -170.419998 0.381240
vt -170.413086 0.402891
vt -170.416092 0.425746
vt -170.428177 0.443680
vt -170.446182 0.451889
vt -170.465225 0.448173
vt -170.480164 0.433527
vt -170.487076 0.411877
vt -170.484070 0.389022
s 1
usemtl M_FridgeFreezerdoorB2_0
f 1/1/1 2/2/1 4/3/1 3/4/1
f 85/5/2 81/6/3 56/7/4 67/8/5
f 79/9/6 85/10/2 67/11/5 55/12/7
f 42/13/8 45/14/9 46/15/10 41/16/11
f 40/17/12 43/18/13 44/19/14 39/20/15
f 39/21/16 30/22/17 29/23/18 40/24/19
f 41/25/20 32/26/21 31/27/22 42/28/23
f 35/29/24 44/30/24 43/31/25 36/32/26
f 45/33/27 38/34/27 37/35/28 46/36/29
f 83/37/30 77/38/31 47/39/32 70/40/33
f 75/41/34 83/42/30 70/43/33 48/44/35
f 49/45/36 53/46/37 63/47/38 64/48/39
f 64/49/39 63/50/38 54/51/40 50/52/41
f 57/53/42 61/54/43 65/55/44 66/56/45
f 66/57/45 65/58/44 62/59/46 58/60/47
f 60/61/48 55/12/7 67/11/5 68/62/49
f 68/63/49 67/8/5 56/7/4 59/64/50
f 47/39/32 51/65/51 69/66/52 70/40/33
f 70/43/33 69/67/52 52/68/53 48/44/35
f 59/69/54 62/70/55 65/71/56 68/72/57
f 68/72/57 65/71/56 61/73/58 60/74/59
f 53/75/60 52/76/61 69/77/62 63/78/63
f 63/78/63 69/77/62 51/79/64 54/80/65
f 74/81/66 31/82/22 32/83/21 34/84/67 73/85/66
f 71/86/68 72/87/68 33/88/69 29/89/18 30/90/17
f 86/91/70 82/92/71 81/6/72 85/5/2
f 80/93/73 86/94/70 85/10/2 79/9/6
f 84/95/74 78/96/75 77/38/31 83/37/30
f 76/97/76 84/98/74 83/42/30 75/41/77
f 82/99/71 86/100/70 80/101/78 78/102/78 84/103/74 76/104/76 73/105/79 34/106/78 33/107/78 72/108/80
f 79/9/6 77/38/31 78/96/75 80/93/73
f 61/54/43 57/53/42 50/52/41 54/51/40
f 55/12/7 60/61/48 51/65/51 47/39/32
f 60/74/59 61/73/58 54/80/65 51/79/64
f 79/9/6 55/12/7 47/39/32 77/38/31
f 29/23/18 33/109/69 34/110/67 32/26/21
f 40/17/12 41/16/11 46/15/10 43/18/13
f 29/23/18 32/26/21 41/25/20 40/24/19
f 43/111/25 46/112/29 37/113/28 36/114/26
f 81/6/72 82/92/71 72/87/80 71/86/81
f 75/41/77 74/81/82 73/85/79 76/97/76
f 56/7/4 81/6/3 71/86/83 30/90/17
f 53/46/37 49/45/36 38/34/84 45/33/84
f 62/59/46 44/30/85 35/29/85 58/60/47
f 48/44/35 52/68/53 42/115/23 31/82/22
f 56/7/4 30/90/17 39/116/16 59/64/50
f 59/69/54 39/20/15 44/19/14 62/70/55
f 52/76/61 53/75/60 45/14/9 42/13/8
f 48/44/35 31/82/22 74/81/86 75/41/34
f 87/117/87 98/118/87 97/119/87 96/120/87 95/121/87 94/122/87 93/123/87 92/124/87 91/125/87 90/126/87 89/127/87 88/128/87
f 99/129/88 87/130/88 88/131/89 100/132/90
f 100/132/90 88/131/89 89/133/91 101/134/91
f 101/134/91 89/133/91 90/135/92 102/136/92
f 102/137/92 90/138/92 91/139/93 103/140/94
f 103/140/94 91/139/93 92/141/95 104/142/95
f 104/143/95 92/144/95 93/145/96 105/146/96
f 105/146/96 93/145/96 94/147/97 106/148/98
f 106/148/98 94/147/97 95/149/99 107/150/99
f 107/150/99 95/149/99 96/151/100 108/152/100
f 108/153/100 96/154/100 97/155/101 109/156/102
f 109/156/102 97/155/101 98/157/103 110/158/103
f 110/159/103 98/160/103 87/130/88 99/129/88
f 99/161/104 100/162/104 101/163/104 102/164/104 103/165/104 104/166/104 105/167/104 106/168/104 107/169/104 108/170/104 109/171/104 110/172/104
f 111/173/87 122/174/87 121/175/87 120/176/87 119/177/87 118/178/87 117/179/87 116/180/87 115/181/87 114/182/87 113/183/87 112/184/87
f 123/185/88 111/186/88 112/187/89 124/188/90
f 124/188/90 112/187/89 113/189/91 125/190/91
f 125/190/91 113/189/91 114/191/92 126/192/92
f 126/193/92 114/194/92 115/195/93 127/196/93
f 127/196/93 115/195/93 116/197/95 128/198/95
f 128/199/95 116/200/95 117/201/96 129/202/96
f 129/202/96 117/201/96 118/203/98 130/204/97
f 130/204/97 118/203/98 119/205/99 131/206/99
f 131/206/99 119/205/99 120/207/100 132/208/100
f 132/209/100 120/210/100 121/211/101 133/212/102
f 133/212/102 121/211/101 122/213/103 134/214/103
f 134/215/103 122/216/103 111/186/88 123/185/88
f 123/217/104 124/218/104 125/219/104 126/220/104 127/221/104 128/222/104 129/223/104 130/224/104 131/225/104 132/226/104 133/227/104 134/228/104
