# Blender 4.1.1
# www.blender.org
mtllib MeshTelevision_19_0_GeomSubset_2.mtl
o MeshTelevision_19_0_GeomSubset_2
v 0.001046 -0.061311 0.021732
v -0.001046 -0.061311 0.021732
v 0.001046 -0.059360 0.021732
v -0.001046 -0.059360 0.021732
v 0.001046 -0.061311 0.021732
v -0.001046 -0.061311 0.021732
v 0.001046 -0.059360 0.021732
v -0.001046 -0.059360 0.021732
v 0.001046 -0.061311 0.021732
v -0.001046 -0.061311 0.021732
v 0.001046 -0.059360 0.021732
v -0.001046 -0.059360 0.021732
v 0.001046 -0.061311 0.021732
v -0.001046 -0.061311 0.021732
v 0.001046 -0.059360 0.021732
v -0.001046 -0.059360 0.021732
v 0.001046 -0.061311 0.021732
v -0.001046 -0.061311 0.021732
v 0.001046 -0.059360 0.021732
v -0.001046 -0.059360 0.021732
v -0.600712 -0.172611 -0.291119
v -0.600712 -0.172611 0.435696
v -0.600712 -0.116136 0.435696
v -0.600712 -0.116136 -0.291119
v -0.508671 -0.060336 0.337446
v -0.508671 -0.060336 -0.192869
v -0.600712 -0.194763 0.435696
v -0.600712 -0.194763 -0.291119
v 0.000002 -0.172611 0.435696
v 0.000002 -0.116136 0.435696
v 0.000002 -0.060336 0.337446
v 0.000002 -0.060336 -0.192869
v 0.000002 -0.116136 -0.291119
v 0.000002 -0.172611 -0.291119
v -0.674563 -0.183455 0.425173
v -0.657531 -0.183455 0.425173
v -0.657531 -0.167672 0.425173
v -0.674563 -0.167672 0.425173
v -0.674563 -0.183455 -0.280596
v -0.657531 -0.183455 -0.280596
v -0.674563 -0.167672 -0.280596
v -0.657531 -0.167672 -0.280596
v -0.674563 -0.127439 -0.280596
v -0.657531 -0.127439 -0.280596
v -0.674563 -0.127439 0.425173
v -0.657531 -0.127439 0.425173
v -0.755430 -0.131641 -0.275615
v -0.750558 -0.120677 -0.286578
v -0.738796 -0.116136 -0.291119
v -0.755430 -0.172611 -0.275615
v -0.750558 -0.172611 -0.286578
v -0.738796 -0.172611 -0.291119
v -0.755430 -0.172611 0.420192
v -0.750558 -0.172611 0.431155
v -0.738796 -0.172611 0.435696
v -0.755430 -0.131641 0.420192
v -0.750558 -0.120677 0.431155
v -0.738796 -0.116136 0.435696
v -0.755430 -0.179257 0.420192
v -0.750558 -0.190220 0.431155
v -0.738796 -0.194763 0.435696
v -0.755430 -0.179257 -0.275615
v -0.750558 -0.190220 -0.286578
v -0.738796 -0.194763 -0.291119
v -0.655152 -0.194763 0.435696
v -0.657531 -0.192545 0.433479
v -0.655037 -0.172611 0.435696
v -0.657531 -0.171624 0.433592
v -0.674563 -0.192545 0.433479
v -0.676901 -0.194763 0.435696
v -0.674563 -0.171624 0.433592
v -0.677014 -0.172611 0.435696
v -0.674563 -0.192545 -0.288902
v -0.676901 -0.194763 -0.291119
v -0.655152 -0.194763 -0.291119
v -0.657531 -0.192545 -0.288902
v -0.674563 -0.171624 -0.289015
v -0.677014 -0.172611 -0.291119
v -0.655037 -0.172611 -0.291119
v -0.657531 -0.171624 -0.289015
v -0.674563 -0.118351 -0.288902
v -0.676901 -0.116136 -0.291119
v -0.655152 -0.116136 -0.291119
v -0.657531 -0.118351 -0.288902
v -0.674563 -0.118352 0.433479
v -0.676901 -0.116136 0.435696
v -0.655152 -0.116136 0.435696
v -0.657531 -0.118352 0.433479
v -0.368370 -0.172611 -0.291119
v -0.368370 -0.172611 0.435696
v -0.368370 -0.116136 0.435696
v -0.368370 -0.060336 0.337446
v -0.368370 -0.060336 -0.192869
v -0.368370 -0.116136 -0.291119
v -0.343883 -0.127918 -0.342347
v -0.343883 -0.160829 -0.342347
v 0.000002 -0.127918 -0.342347
v 0.000002 -0.160829 -0.342347
v -0.363761 -0.120427 -0.291119
v -0.363761 -0.168314 -0.291119
v -0.363761 -0.120427 -0.300963
v -0.363761 -0.168314 -0.300963
v 0.000002 -0.124725 -0.291119
v 0.000002 -0.124725 -0.300963
v 0.000002 -0.164018 -0.291119
v 0.000002 -0.164018 -0.300963
v -0.363877 -0.119071 -0.301434
v -0.363980 -0.169749 -0.301434
v 0.000002 -0.118783 -0.301434
v 0.000002 -0.169960 -0.301434
v -0.365211 -0.117732 -0.304336
v -0.364275 -0.117425 -0.308456
v 0.000002 -0.117501 -0.308683
v 0.000002 -0.117538 -0.304513
v -0.365277 -0.171042 -0.304270
v -0.364336 -0.171336 -0.308389
v 0.000002 -0.171208 -0.304513
v 0.000002 -0.171245 -0.308683
v -0.575840 -0.172611 -0.267936
v -0.368370 -0.172611 -0.267936
v -0.368370 -0.172611 0.412513
v -0.575840 -0.172611 0.412513
v 0.000002 -0.172611 -0.267936
v 0.000002 -0.172611 0.412513
v -0.564387 -0.159946 -0.256607
v -0.368370 -0.159946 -0.256607
v -0.368370 -0.159946 0.401184
v -0.564387 -0.159946 0.401184
v 0.000002 -0.159946 -0.256607
v 0.000002 -0.159946 0.401184
v 0.600712 -0.172611 -0.291119
v 0.600712 -0.172611 0.435696
v 0.600712 -0.116136 0.435696
v 0.600712 -0.116136 -0.291119
v 0.508672 -0.060336 0.337446
v 0.508672 -0.060336 -0.192869
v 0.600712 -0.194763 0.435696
v 0.600712 -0.194763 -0.291119
v 0.674563 -0.183455 0.425173
v 0.657532 -0.183455 0.425173
v 0.657532 -0.167672 0.425173
v 0.674563 -0.167672 0.425173
v 0.674563 -0.183455 -0.280596
v 0.657532 -0.183455 -0.280596
v 0.674563 -0.167672 -0.280596
v 0.657532 -0.167672 -0.280596
v 0.674563 -0.127439 -0.280596
v 0.657532 -0.127439 -0.280596
v 0.674563 -0.127439 0.425173
v 0.657532 -0.127439 0.425173
v 0.755430 -0.131641 -0.275615
v 0.750558 -0.120677 -0.286578
v 0.738796 -0.116136 -0.291119
v 0.755430 -0.172611 -0.275615
v 0.750558 -0.172611 -0.286578
v 0.738796 -0.172611 -0.291119
v 0.755430 -0.172611 0.420192
v 0.750558 -0.172611 0.431155
v 0.738796 -0.172611 0.435696
v 0.755430 -0.131641 0.420192
v 0.750558 -0.120677 0.431155
v 0.738796 -0.116136 0.435696
v 0.755430 -0.179257 0.420192
v 0.750558 -0.190220 0.431155
v 0.738796 -0.194763 0.435696
v 0.755430 -0.179257 -0.275615
v 0.750558 -0.190220 -0.286578
v 0.738796 -0.194763 -0.291119
v 0.655153 -0.194763 0.435696
v 0.657532 -0.192545 0.433479
v 0.655038 -0.172611 0.435696
v 0.657532 -0.171624 0.433592
v 0.674563 -0.192545 0.433479
v 0.676901 -0.194763 0.435696
v 0.674563 -0.171624 0.433592
v 0.677014 -0.172611 0.435696
v 0.674563 -0.192545 -0.288902
v 0.676901 -0.194763 -0.291119
v 0.655153 -0.194763 -0.291119
v 0.657532 -0.192545 -0.288902
v 0.674563 -0.171624 -0.289015
v 0.677014 -0.172611 -0.291119
v 0.655038 -0.172611 -0.291119
v 0.657532 -0.171624 -0.289015
v 0.674563 -0.118351 -0.288902
v 0.676901 -0.116136 -0.291119
v 0.655153 -0.116136 -0.291119
v 0.657532 -0.118351 -0.288902
v 0.674563 -0.118352 0.433479
v 0.676901 -0.116136 0.435696
v 0.655153 -0.116136 0.435696
v 0.657532 -0.118352 0.433479
v 0.368371 -0.172611 -0.291119
v 0.368371 -0.172611 0.435696
v 0.368371 -0.116136 0.435696
v 0.368371 -0.060336 0.337446
v 0.368371 -0.060336 -0.192869
v 0.368371 -0.116136 -0.291119
v 0.343884 -0.127918 -0.342347
v 0.343884 -0.160829 -0.342347
v 0.363762 -0.120427 -0.291119
v 0.363762 -0.168314 -0.291119
v 0.363762 -0.120427 -0.300963
v 0.363762 -0.168314 -0.300963
v 0.363879 -0.119071 -0.301434
v 0.363981 -0.169749 -0.301434
v 0.365212 -0.117732 -0.304336
v 0.364276 -0.117425 -0.308456
v 0.365278 -0.171042 -0.304270
v 0.364337 -0.171336 -0.308389
v 0.575841 -0.172611 -0.267936
v 0.368371 -0.172611 -0.267936
v 0.368371 -0.172611 0.412513
v 0.575841 -0.172611 0.412513
v 0.564388 -0.159946 -0.256607
v 0.368371 -0.159946 -0.256607
v 0.368371 -0.159946 0.401184
v 0.564388 -0.159946 0.401184
vn -0.0000 -0.0000 -1.0000
vn -0.0000 1.0000 -0.0000
vt -19.372791 -17.528898
vt -19.372791 -17.529921
vt -19.371838 -17.529921
vt -19.371838 -17.528898
vt 1.000000 0.097298
vt 1.000000 0.680045
vt 0.826345 0.680045
vt 0.826345 0.097298
vt 0.499999 0.680045
vt 0.499999 0.097298
vt -0.000000 0.097298
vt 0.173654 0.097298
vt 0.173654 0.680045
vt -0.000000 0.680045
s 1
usemtl M_Television_19_2
f 9/1/1 10/2/1 12/3/1 11/4/1
f 125/5/2 128/6/2 127/7/2 126/8/2
f 126/8/2 127/7/2 130/9/2 129/10/2
f 215/11/2 216/12/2 217/13/2 218/14/2
f 216/12/2 129/10/2 130/9/2 217/13/2
