# Blender 4.1.0
# www.blender.org
mtllib MeshKettleLid_1_0_GeomSubset_0.mtl
o MeshKettleLid_1_0_GeomSubset_0
v 0.013079 0.068423 0.001799
v 0.006770 0.070761 0.000616
v 0.022653 0.059826 0.006086
v 0.018496 0.064744 0.003749
v 0.016922 0.065923 0.003364
v 0.025266 0.054382 0.009276
v 0.025993 0.047792 0.013875
v 0.025009 0.046089 0.015419
v 0.025641 0.045604 0.015419
v 0.000000 0.071754 0.000536
v -0.006770 0.070761 0.000616
v 0.026157 0.048784 0.013100
v -0.013079 0.068423 0.001799
v 0.022653 0.037080 0.019023
v 0.025266 0.042881 0.016422
v -0.025641 0.045604 0.015419
v -0.025009 0.046089 0.015419
v -0.025993 0.047792 0.013875
v -0.018496 0.064744 0.003749
v -0.022653 0.059826 0.006086
v -0.016922 0.065923 0.003364
v -0.012946 0.051086 0.015419
v 0.000000 0.052790 0.015419
v 0.018496 0.032346 0.021663
v 0.012946 0.051086 0.015419
v -0.025266 0.054382 0.009276
v 0.000000 0.028796 0.025409
v 0.006736 0.027909 0.025409
v -0.026158 0.048784 0.013100
v -0.006736 0.027909 0.025409
v 0.008100 0.027344 0.025409
v -0.025266 0.042881 0.016422
v -0.022653 0.037080 0.019023
v 0.000000 0.025888 0.025790
v -0.018496 0.032346 0.021663
v -0.008100 0.027344 0.025409
v 0.016288 0.030982 0.022682
v 0.013079 0.028904 0.024004
v -0.013079 0.028904 0.024004
v -0.016288 0.030982 0.022682
v 0.024963 0.045852 0.011024
v 0.024255 0.044432 0.012289
v 0.024612 0.044137 0.012328
v -0.024612 0.044137 0.012328
v -0.024255 0.044432 0.012289
v -0.024963 0.045852 0.011024
v -0.016406 0.063810 0.000469
v -0.012555 0.049278 0.012289
v 0.000000 0.050931 0.012289
v 0.000150 0.069558 -0.002349
v -0.006498 0.068591 -0.002295
v -0.012831 0.066244 -0.001107
v 0.012555 0.049278 0.012289
v 0.016406 0.063810 0.000469
v 0.012831 0.066244 -0.001107
v 0.006498 0.068591 -0.002295
v 0.000000 0.027653 0.021968
v 0.006530 0.026793 0.021968
v -0.006530 0.026793 0.021968
v 0.007758 0.026393 0.021972
v 0.000000 0.025380 0.022229
v -0.007758 0.026393 0.021972
v 0.025385 0.046687 0.010244
v 0.024490 0.052308 0.006405
v 0.021867 0.057772 0.003204
v 0.017694 0.062709 0.000858
v 0.015647 0.029704 0.019354
v 0.017701 0.031167 0.018336
v 0.021873 0.035919 0.015687
v 0.024496 0.041741 0.013076
v 0.012584 0.027521 0.020678
v -0.015647 0.029704 0.019354
v -0.012584 0.027521 0.020678
v -0.024497 0.041742 0.013076
v -0.021873 0.035919 0.015687
v -0.017701 0.031167 0.018336
v -0.017694 0.062709 0.000858
v -0.021867 0.057772 0.003204
v -0.024490 0.052308 0.006405
v -0.025385 0.046687 0.010245
v -0.000017 0.040423 0.022470
v 0.002363 0.041122 0.022011
v 0.003348 0.042809 0.020902
v 0.002363 0.044496 0.019794
v -0.000017 0.045195 0.019335
v -0.002396 0.044496 0.019794
v -0.003382 0.042809 0.020902
v -0.002396 0.041122 0.022011
v -0.000017 0.064383 0.008183
v 0.001762 0.063822 0.008481
v 0.002498 0.062469 0.009201
v 0.001762 0.061116 0.009920
v -0.000017 0.060556 0.010219
v -0.001795 0.061116 0.009920
v -0.002532 0.062469 0.009201
v -0.001795 0.063822 0.008481
v -0.000017 0.065865 0.009468
v 0.002363 0.065074 0.009771
v 0.003348 0.063163 0.010501
v 0.002363 0.061252 0.011232
v -0.000017 0.060461 0.011534
v -0.002396 0.061252 0.011232
v -0.003382 0.063163 0.010501
v -0.002396 0.065074 0.009771
v -0.000017 0.066122 0.012647
v 0.002363 0.065315 0.012763
v 0.003348 0.063368 0.013044
v 0.002363 0.061421 0.013325
v -0.000017 0.060615 0.013441
v -0.002396 0.061421 0.013325
v -0.003382 0.063368 0.013044
v -0.002396 0.065315 0.012763
v -0.000017 0.065031 0.016019
v 0.002363 0.064288 0.015938
v 0.003348 0.062495 0.015742
v 0.002363 0.060703 0.015546
v -0.000017 0.059960 0.015465
v -0.002396 0.060703 0.015546
v -0.003382 0.062495 0.015742
v -0.002396 0.064288 0.015938
v -0.000017 0.062698 0.019256
v 0.002363 0.062093 0.018985
v 0.003348 0.060630 0.018331
v 0.002363 0.059167 0.017678
v -0.000017 0.058561 0.017407
v -0.002396 0.059167 0.017678
v -0.003382 0.060630 0.018331
v -0.002396 0.062093 0.018985
v -0.000017 0.059354 0.022040
v 0.002363 0.058944 0.021606
v 0.003348 0.057954 0.020559
v 0.002363 0.056964 0.019511
v -0.000017 0.056554 0.019077
v -0.002396 0.056964 0.019511
v -0.003382 0.057954 0.020559
v -0.002396 0.058944 0.021606
v -0.000017 0.055324 0.024099
v 0.002363 0.055150 0.023545
v 0.003348 0.054730 0.022206
v 0.002363 0.054310 0.020867
v -0.000017 0.054136 0.020313
v -0.002396 0.054310 0.020867
v -0.003382 0.054730 0.022206
v -0.002396 0.055150 0.023545
v -0.000017 0.051004 0.025232
v 0.002363 0.051083 0.024611
v 0.003348 0.051274 0.023112
v 0.002363 0.051465 0.021613
v -0.000017 0.051544 0.020992
v -0.002396 0.051465 0.021613
v -0.003382 0.051274 0.023112
v -0.002396 0.051083 0.024611
v -0.000017 0.046816 0.025327
v 0.002363 0.047140 0.024701
v 0.003348 0.047923 0.023188
v 0.002363 0.048707 0.021676
v -0.000017 0.049031 0.021050
v -0.002396 0.048707 0.021676
v -0.003382 0.047923 0.023188
v -0.002396 0.047140 0.024701
v -0.000017 0.043170 0.024375
v 0.002363 0.043708 0.023805
v 0.003348 0.045007 0.022427
v 0.002363 0.046306 0.021049
v -0.000017 0.046844 0.020478
v -0.002396 0.046306 0.021049
v -0.003382 0.045007 0.022427
v -0.002396 0.043708 0.023805
v -0.003382 0.062532 0.009432
v 0.003348 0.062532 0.009432
v -0.002396 0.060733 0.010352
v 0.002363 0.064331 0.008513
v -0.000017 0.059987 0.010733
v -0.000017 0.065076 0.008132
v 0.002363 0.060733 0.010352
v -0.002396 0.064331 0.008513
v -0.000017 0.063042 0.006666
v 0.001762 0.062515 0.007005
v 0.002498 0.061244 0.007822
v 0.001762 0.059973 0.008639
v -0.000017 0.059446 0.008978
v -0.001795 0.059973 0.008639
v -0.002532 0.061244 0.007822
v -0.001795 0.062515 0.007005
v -0.000017 0.040877 0.021816
v 0.001740 0.041393 0.021477
v 0.002468 0.042639 0.020659
v 0.001740 0.043885 0.019840
v -0.000017 0.044401 0.019501
v -0.001774 0.043885 0.019840
v -0.002502 0.042639 0.020659
v -0.001774 0.041393 0.021477
v -0.000017 0.039534 0.020256
v 0.001740 0.040116 0.020003
v 0.002468 0.041520 0.019391
v 0.001740 0.042924 0.018779
v -0.000017 0.043506 0.018525
v -0.001774 0.042924 0.018779
v -0.002502 0.041520 0.019391
v -0.001774 0.040116 0.020003
vn -0.2410 -0.5747 -0.7821
vn -0.2464 -0.3008 -0.9213
vn -0.1976 -0.4545 -0.8685
vn 0.2464 -0.3008 -0.9213
vn 0.2410 -0.5747 -0.7821
vn 0.1977 -0.4545 -0.8685
vn 0.1164 -0.6089 -0.7847
vn 0.0811 -0.6167 -0.7830
vn 0.0001 -0.6186 -0.7857
vn 0.0002 -0.5329 -0.8462
vn 0.1211 -0.5060 -0.8540
vn -0.0819 -0.6164 -0.7831
vn -0.1173 -0.6086 -0.7847
vn -0.1216 -0.5055 -0.8542
vn -0.0945 -0.3622 -0.9273
vn -0.0000 -0.3751 -0.9270
vn 0.0945 -0.3622 -0.9273
vn -0.0000 -0.1063 -0.9943
vn 0.1481 -0.3550 -0.9231
vn -0.2455 -0.2986 -0.9223
vn -0.1508 -0.3558 -0.9223
vn -0.1481 -0.3550 -0.9231
vn -0.1491 -0.3567 -0.9222
vn 0.1491 -0.3567 -0.9222
vn 0.1508 -0.3558 -0.9223
vn 0.2454 -0.2987 -0.9223
vn 0.2376 0.5734 0.7841
vn 0.1961 0.4552 0.8685
vn 0.2383 0.3106 0.9202
vn -0.2383 0.3106 0.9202
vn -0.1961 0.4552 0.8685
vn -0.2376 0.5734 0.7841
vn -0.1184 0.6068 0.7860
vn -0.1205 0.5047 0.8549
vn -0.0000 0.5315 0.8470
vn -0.0000 0.6174 0.7867
vn -0.0810 0.6154 0.7841
vn 0.1205 0.5047 0.8549
vn 0.1184 0.6068 0.7860
vn 0.0810 0.6154 0.7841
vn -0.0000 0.3736 0.9276
vn 0.0947 0.3611 0.9277
vn -0.0947 0.3611 0.9277
vn 0.1466 0.3548 0.9234
vn -0.0000 0.1172 0.9931
vn -0.1466 0.3548 0.9234
vn 0.1502 0.3566 0.9221
vn 0.2357 0.3072 0.9220
vn 0.1482 0.3577 0.9220
vn -0.1502 0.3566 0.9221
vn -0.1482 0.3577 0.9220
vn -0.2357 0.3072 0.9220
vn 0.9574 -0.2222 -0.1846
vn 0.9573 -0.2223 -0.1846
vn 0.9432 -0.3082 -0.1243
vn 0.9432 -0.3078 -0.1251
vn -0.9432 -0.3078 -0.1251
vn -0.9432 -0.3082 -0.1243
vn -0.9573 -0.2223 -0.1846
vn -0.9574 -0.2222 -0.1846
vn -0.0035 0.7958 -0.6055
vn 0.0033 0.7959 -0.6054
vn -0.2524 0.7634 -0.5946
vn -0.2517 0.7636 -0.5946
vn -0.4780 0.6780 -0.5584
vn -0.4782 0.6779 -0.5584
vn -0.6124 0.5880 -0.5285
vn -0.6124 0.5880 -0.5284
vn 0.6124 0.5880 -0.5284
vn 0.6124 0.5880 -0.5285
vn 0.4780 0.6780 -0.5584
vn 0.4782 0.6779 -0.5584
vn 0.2555 0.7642 -0.5923
vn 0.2552 0.7643 -0.5923
vn 0.2249 -0.9477 0.2263
vn 0.2253 -0.9476 0.2265
vn -0.0000 -0.9805 0.1966
vn -0.2253 -0.9476 0.2265
vn -0.2249 -0.9477 0.2263
vn 0.9727 -0.0665 -0.2223
vn 0.9728 -0.0672 -0.2219
vn 0.9419 0.0941 -0.3225
vn 0.9418 0.0942 -0.3226
vn 0.8388 0.3085 -0.4486
vn 0.8388 0.3086 -0.4486
vn 0.7338 0.4458 -0.5126
vn 0.7337 0.4460 -0.5126
vn 0.6037 -0.7752 0.1862
vn 0.7202 -0.6892 0.0795
vn 0.7203 -0.6891 0.0794
vn 0.8394 -0.5435 -0.0070
vn 0.8394 -0.5434 -0.0071
vn 0.9271 -0.3611 -0.1007
vn 0.9274 -0.3600 -0.1013
vn 0.4534 -0.8568 0.2456
vn 0.4529 -0.8570 0.2457
vn -0.6037 -0.7752 0.1862
vn -0.4534 -0.8568 0.2456
vn -0.4530 -0.8570 0.2457
vn -0.9271 -0.3611 -0.1007
vn -0.9274 -0.3600 -0.1013
vn -0.8398 -0.5429 -0.0073
vn -0.8398 -0.5428 -0.0073
vn -0.7202 -0.6892 0.0795
vn -0.7203 -0.6891 0.0794
vn -0.7338 0.4458 -0.5126
vn -0.7337 0.4460 -0.5126
vn -0.8388 0.3085 -0.4486
vn -0.8388 0.3086 -0.4486
vn -0.9418 0.0940 -0.3226
vn -0.9418 0.0942 -0.3227
vn -0.9727 -0.0665 -0.2223
vn -0.9728 -0.0672 -0.2219
vn 0.4929 -0.8015 -0.3387
vn -0.0001 -0.9813 -0.1926
vn -0.0001 -0.7458 0.6662
vn 0.6626 -0.5588 0.4987
vn 0.6759 -0.3250 -0.6615
vn 0.9996 0.0210 -0.0180
vn -0.0000 0.2790 -0.9603
vn 0.4315 0.1234 -0.8936
vn 0.6385 0.5763 -0.5101
vn -0.0001 0.7490 -0.6626
vn -0.4929 -0.8014 -0.3387
vn -0.6625 -0.5588 0.4988
vn -0.4316 0.1234 -0.8936
vn -0.6386 0.5763 -0.5101
vn -0.6759 -0.3250 -0.6614
vn -0.9996 0.0211 -0.0180
vn 0.7109 -0.3914 -0.5843
vn 0.4991 -0.8424 -0.2031
vn 0.6415 -0.5797 0.5024
vn 0.9997 -0.0188 0.0130
vn 0.4563 0.0540 -0.8882
vn 0.6602 0.5568 -0.5041
vn -0.0000 -0.9989 -0.0477
vn -0.4991 -0.8424 -0.2031
vn -0.6415 -0.5797 0.5024
vn -0.0000 -0.7569 0.6536
vn -0.7109 -0.3914 -0.5843
vn -0.4564 0.0540 -0.8881
vn -0.6602 0.5568 -0.5041
vn -0.9997 -0.0188 0.0131
vn -0.0000 0.2064 -0.9785
vn -0.0000 0.7392 -0.6735
vt 0.172124 0.310479
vt 0.172725 0.307543
vt 0.173336 0.308048
vt 0.256970 0.307543
vt 0.257571 0.310479
vt 0.256359 0.308048
vt 0.242925 0.341213
vt 0.236808 0.345378
vt 0.225969 0.349396
vt 0.214591 0.351050
vt 0.214848 0.319171
vt 0.236336 0.316342
vt 0.203727 0.349396
vt 0.192887 0.345378
vt 0.186770 0.341213
vt 0.193360 0.316342
vt 0.203671 0.277860
vt 0.214848 0.279331
vt 0.226024 0.277860
vt 0.214848 0.275441
vt 0.228126 0.277175
vt 0.184565 0.339328
vt 0.177423 0.330879
vt 0.172933 0.321527
vt 0.171402 0.311908
vt 0.172922 0.303443
vt 0.177412 0.293478
vt 0.184553 0.285345
vt 0.188069 0.282841
vt 0.201570 0.277175
vt 0.193310 0.279106
vt 0.236385 0.279106
vt 0.241627 0.282841
vt 0.245143 0.285345
vt 0.252284 0.293479
vt 0.256773 0.303443
vt 0.258293 0.311908
vt 0.256762 0.321527
vt 0.252272 0.330879
vt 0.245131 0.339328
vt 0.266559 0.783881
vt 0.264896 0.781001
vt 0.265964 0.780181
vt 0.179252 0.780181
vt 0.180320 0.781001
vt 0.178657 0.783882
vt 0.193996 0.814539
vt 0.200718 0.789450
vt 0.222608 0.792332
vt 0.222608 0.824399
vt 0.211161 0.822719
vt 0.200493 0.818766
vt 0.244498 0.789450
vt 0.251220 0.814539
vt 0.244723 0.818766
vt 0.234055 0.822719
vt 0.222608 0.751761
vt 0.233997 0.750262
vt 0.211219 0.750262
vt 0.236304 0.749306
vt 0.222608 0.746845
vt 0.208912 0.749306
vt 0.266837 0.785558
vt 0.265330 0.795025
vt 0.260911 0.804230
vt 0.253883 0.812545
vt 0.250148 0.755458
vt 0.253883 0.757764
vt 0.260911 0.765770
vt 0.265330 0.775577
vt 0.244723 0.751944
vt 0.195068 0.755458
vt 0.200493 0.751944
vt 0.179886 0.775577
vt 0.184304 0.765770
vt 0.191333 0.757764
vt 0.191333 0.812545
vt 0.184304 0.804230
vt 0.179886 0.795025
vt 0.178379 0.785558
vt 0.610664 0.227732
vt 0.608242 0.222628
vt 0.611075 0.220475
vt 0.614278 0.225183
vt 0.614277 0.400729
vt 0.611073 0.405438
vt 0.608240 0.403284
vt 0.610663 0.398180
vt 0.214848 0.354810
vt 0.226434 0.353110
vt 0.237232 0.349108
vt 0.243808 0.344829
vt 0.185887 0.344829
vt 0.192464 0.349108
vt 0.203261 0.353110
vt 0.687871 0.068496
vt 0.687283 0.062582
vt 0.701221 0.061927
vt 0.701221 0.068054
vt 0.715160 0.062582
vt 0.714572 0.068496
vt 0.612454 0.219187
vt 0.615915 0.223903
vt 0.621734 0.212848
vt 0.625160 0.217588
vt 0.630757 0.207562
vt 0.634149 0.212321
vt 0.638909 0.203688
vt 0.642269 0.208462
vt 0.183192 0.342811
vt 0.673193 0.067275
vt 0.674296 0.073001
vt 0.670761 0.074752
vt 0.669393 0.069028
vt 0.663581 0.079312
vt 0.662239 0.073571
vt 0.596590 0.233682
vt 0.594673 0.228174
vt 0.604287 0.223863
vt 0.606168 0.229388
vt 0.679566 0.070723
vt 0.678715 0.065000
vt 0.729249 0.067275
vt 0.728146 0.073001
vt 0.722876 0.070723
vt 0.723727 0.065000
vt 0.604285 0.402049
vt 0.606166 0.396523
vt 0.594669 0.397738
vt 0.596587 0.392229
vt 0.740203 0.073571
vt 0.738862 0.079312
vt 0.731682 0.074752
vt 0.733050 0.069028
vt 0.246503 0.342811
vt 0.642272 0.417452
vt 0.638911 0.422227
vt 0.630758 0.418352
vt 0.634151 0.413592
vt 0.621734 0.413065
vt 0.625160 0.408325
vt 0.612453 0.406725
vt 0.615914 0.402009
vt 0.536469 0.916557
vt 0.536998 0.919717
vt 0.534794 0.919717
vt 0.534192 0.916557
vt 0.622698 0.912640
vt 0.620469 0.913825
vt 0.618586 0.911715
vt 0.620680 0.910368
vt 0.636222 0.947194
vt 0.633055 0.946196
vt 0.633055 0.943869
vt 0.636222 0.944806
vt 0.536469 0.922877
vt 0.534192 0.922877
vt 0.639389 0.946196
vt 0.639389 0.943869
vt 0.642774 0.871985
vt 0.645008 0.873174
vt 0.642985 0.875451
vt 0.640885 0.874101
vt 0.624927 0.911454
vt 0.622774 0.909022
vt 0.647243 0.874363
vt 0.645084 0.876801
vt 0.644718 0.839332
vt 0.642660 0.840684
vt 0.640549 0.838248
vt 0.642869 0.837237
vt 0.646776 0.837980
vt 0.645189 0.836226
vt 0.642381 0.771061
vt 0.645625 0.771687
vt 0.645625 0.774409
vt 0.642381 0.773941
vt 0.639137 0.771687
vt 0.639137 0.774409
vt 0.644718 0.802497
vt 0.646777 0.803849
vt 0.645189 0.805602
vt 0.642869 0.804592
vt 0.642660 0.801145
vt 0.640549 0.803581
vt 0.568765 0.612080
vt 0.567846 0.615209
vt 0.566135 0.615209
vt 0.567171 0.612080
vt 0.567846 0.608951
vt 0.566135 0.608951
s 1
usemtl M_KettleLid_1_0
f 41/1/1 43/2/2 42/3/3
f 44/4/4 46/5/5 45/6/6
f 47/7/7 52/8/8 51/9/8 50/10/9 49/11/10 48/12/11
f 50/10/9 56/13/12 55/14/12 54/15/13 53/16/14 49/11/10
f 53/16/14 58/17/15 57/18/16 49/11/10
f 49/11/10 57/18/16 59/19/17 48/12/11
f 61/20/18 62/21/19 59/19/17 57/18/16
f 54/15/13 66/22/1 65/23/1 64/24/1 63/25/1 41/1/1 42/3/3 53/16/14
f 43/2/2 70/26/20 69/27/20 68/28/20 67/29/21 42/3/3
f 60/30/22 61/20/18 57/18/16 58/17/15
f 42/3/3 67/29/21 71/31/23 60/30/22 58/17/15 53/16/14
f 48/12/11 59/19/17 62/21/19 73/32/24 72/33/25 45/6/6
f 45/6/6 72/33/25 76/34/26 75/35/26 74/36/26 44/4/4
f 46/5/5 80/37/5 79/38/5 78/39/5 77/40/5 47/7/7 48/12/11 45/6/6
f 7/41/27 8/42/28 9/43/29
f 16/44/30 17/45/31 18/46/32
f 21/47/33 22/48/34 23/49/35 10/50/36 11/51/37 13/52/37
f 10/50/36 23/49/35 25/53/38 5/54/39 1/55/40 2/56/40
f 25/53/38 23/49/35 27/57/41 28/58/42
f 23/49/35 22/48/34 30/59/43 27/57/41
f 31/60/44 28/58/42 27/57/41 34/61/45
f 34/61/45 27/57/41 30/59/43 36/62/46
f 5/54/39 25/53/38 8/42/28 7/41/27 12/63/27 6/64/27 3/65/27 4/66/27
f 9/43/29 8/42/28 37/67/47 24/68/48 14/69/48 15/70/48
f 8/42/28 25/53/38 28/58/42 31/60/44 38/71/49 37/67/47
f 22/48/34 17/45/31 40/72/50 39/73/51 36/62/46 30/59/43
f 17/45/31 16/44/30 32/74/52 33/75/52 35/76/52 40/72/50
f 18/46/32 17/45/31 22/48/34 21/47/33 19/77/32 20/78/32 26/79/32 29/80/32
f 9/81/53 43/82/54 41/83/55 7/84/56
f 18/85/57 46/86/58 44/87/59 16/88/60
f 10/89/61 50/10/62 51/9/63 11/90/64
f 11/90/64 51/9/63 52/8/65 13/91/66
f 13/91/66 52/8/65 47/7/67 21/92/68
f 5/93/69 54/15/70 55/14/71 1/94/72
f 1/94/72 55/14/71 56/13/73 2/95/74
f 2/95/74 56/13/73 50/10/62 10/89/61
f 60/96/75 31/97/76 34/98/77 61/99/77
f 61/99/77 34/98/77 36/100/78 62/101/79
f 7/84/56 41/83/55 63/102/80 12/103/81
f 12/103/81 63/102/80 64/104/82 6/105/83
f 6/105/83 64/104/82 65/106/84 3/107/85
f 3/107/85 65/106/84 66/108/86 4/109/87
f 4/110/87 66/22/86 54/15/70 5/93/69
f 37/111/88 67/112/88 68/113/89 24/114/90
f 24/114/90 68/113/89 69/115/91 14/116/92
f 14/117/92 69/118/91 70/119/93 15/120/94
f 15/120/94 70/119/93 43/82/54 9/81/53
f 31/97/76 60/96/75 71/121/95 38/122/96
f 38/122/96 71/121/95 67/112/88 37/111/88
f 40/123/97 72/124/97 73/125/98 39/126/99
f 39/126/99 73/125/98 62/101/79 36/100/78
f 16/88/60 44/87/59 74/127/100 32/128/101
f 32/128/101 74/127/100 75/129/102 33/130/103
f 33/131/103 75/132/102 76/133/104 35/134/105
f 35/134/105 76/133/104 72/124/97 40/123/97
f 21/92/68 47/7/67 77/40/106 19/135/107
f 19/136/107 77/137/106 78/138/108 20/139/109
f 20/139/109 78/138/108 79/140/110 26/141/111
f 26/141/111 79/140/110 80/142/112 29/143/113
f 29/143/113 80/142/112 46/86/58 18/85/57
f 92/144/114 93/145/115 181/146/116 180/147/117
f 91/148/118 92/149/114 180/150/117 179/151/119
f 89/152/120 90/153/121 178/154/122 177/155/123
f 93/145/115 94/156/124 182/157/125 181/146/116
f 96/158/126 89/152/120 177/155/123 184/159/127
f 94/160/124 95/161/128 183/162/129 182/163/125
f 90/164/121 91/148/118 179/151/119 178/165/122
f 95/161/128 96/166/126 184/167/127 183/162/129
f 187/168/130 186/169/131 194/170/132 195/171/133
f 188/172/134 187/168/130 195/171/133 196/173/135
f 185/174/136 192/175/137 200/176/138 193/177/139
f 186/178/131 185/174/136 193/177/139 194/179/132
f 191/180/140 190/181/141 198/182/142 199/183/143
f 192/184/137 191/180/140 199/183/143 200/185/138
f 189/186/144 188/187/134 196/188/135 197/189/145
f 190/190/141 189/186/144 197/189/145 198/191/142
