# Blender 4.1.0
# www.blender.org
mtllib DrawermeshDresserDrawer_325_5_5.mtl
o DresserDrawer_325_5
v -0.632017 -0.263164 0.020864
v -0.633444 -0.263167 0.019823
v -0.634872 -0.263164 0.020864
v -0.631425 -0.263164 0.023376
v -0.635464 -0.263164 0.023376
v -0.632017 -0.263164 0.025888
v -0.634872 -0.263164 0.025888
v -0.633444 -0.263167 0.026929
v -0.634872 -0.242003 0.020864
v -0.635464 -0.242003 0.023376
v -0.634872 -0.242003 0.025888
v -0.633444 -0.242003 0.026929
v -0.632017 -0.242003 0.025888
v -0.631425 -0.242003 0.023376
v -0.632017 -0.242003 0.020864
v -0.633444 -0.242003 0.019823
v -0.575608 -0.263167 0.020864
v -0.577036 -0.263164 0.019823
v -0.578464 -0.263167 0.020864
v -0.575016 -0.263167 0.023376
v -0.579055 -0.263167 0.023376
v -0.575608 -0.263167 0.025888
v -0.578464 -0.263167 0.025888
v -0.577036 -0.263164 0.026929
v -0.578463 -0.242003 0.020864
v -0.579055 -0.242003 0.023376
v -0.578463 -0.242003 0.025888
v -0.577036 -0.242003 0.026929
v -0.575608 -0.242003 0.025888
v -0.575016 -0.242003 0.023376
v -0.575608 -0.242003 0.020864
v -0.577036 -0.242003 0.019823
v -0.548248 -0.257358 0.023376
v -0.547028 -0.257358 0.023376
v -0.547028 -0.258117 0.026859
v -0.548248 -0.258117 0.026859
v -0.548248 -0.258117 0.019894
v -0.547028 -0.258117 0.019894
v -0.576373 -0.261729 0.019894
v -0.576373 -0.260978 0.023376
v -0.633113 -0.261733 0.019894
v -0.633113 -0.260978 0.023376
v -0.576373 -0.261729 0.026859
v -0.633113 -0.261733 0.026859
v -0.661213 -0.257358 0.023376
v -0.661212 -0.258117 0.026859
v -0.661212 -0.258117 0.019894
v -0.663109 -0.258117 0.019894
v -0.663109 -0.257365 0.023376
v -0.663109 -0.258117 0.026859
v -0.547028 -0.259932 0.028301
v -0.548248 -0.259932 0.028301
v -0.547028 -0.261752 0.026859
v -0.548248 -0.261752 0.026859
v -0.576373 -0.263549 0.028301
v -0.576373 -0.265365 0.026859
v -0.633113 -0.263549 0.028301
v -0.633113 -0.265372 0.026859
v -0.661212 -0.259932 0.028302
v -0.661212 -0.261752 0.026859
v -0.663109 -0.259932 0.028302
v -0.663109 -0.261752 0.026859
v -0.547028 -0.262504 0.023376
v -0.548249 -0.262504 0.023376
v -0.547028 -0.261752 0.019894
v -0.548248 -0.261752 0.019894
v -0.576372 -0.266124 0.023376
v -0.576373 -0.265365 0.019894
v -0.633113 -0.266124 0.023376
v -0.633113 -0.265372 0.019894
v -0.661212 -0.262504 0.023376
v -0.661213 -0.261752 0.019894
v -0.663109 -0.262504 0.023376
v -0.663109 -0.261752 0.019894
v -0.547028 -0.259932 0.018451
v -0.548248 -0.259932 0.018451
v -0.576373 -0.263549 0.018451
v -0.633113 -0.263549 0.018451
v -0.661213 -0.259932 0.018451
v -0.663109 -0.259932 0.018451
v -0.418642 -0.245620 0.055492
v -0.418642 -0.249228 0.055492
v -0.818749 -0.249228 0.055492
v -0.818749 -0.245624 0.055492
v -0.418642 -0.253180 -0.140697
v -0.818749 -0.253180 -0.140697
v -0.818749 -0.253180 0.050687
v -0.418642 -0.253180 0.050687
v -0.426697 -0.241675 -0.130930
v -0.426697 0.061761 -0.130930
v -0.810694 0.061769 -0.130930
v -0.810694 -0.241672 -0.130930
v -0.414679 -0.245624 -0.140697
v -0.414679 -0.249232 -0.140697
v -0.414679 -0.249232 0.050687
v -0.414679 -0.245624 0.050687
v -0.818749 -0.245620 -0.145502
v -0.818749 -0.249228 -0.145502
v -0.418642 -0.249228 -0.145502
v -0.418642 -0.245620 -0.145502
v -0.426697 -0.241675 0.040920
v -0.426697 0.061761 0.040920
v -0.822711 -0.245624 0.050687
v -0.822712 -0.249232 0.050687
v -0.822712 -0.249232 -0.140697
v -0.822711 -0.245624 -0.140697
v -0.818749 -0.241672 0.050687
v -0.818749 -0.241672 -0.140697
v -0.418642 -0.241672 0.050687
v -0.418642 -0.241672 -0.140697
v -0.810694 -0.241672 0.040920
v -0.810694 0.061769 0.040920
v -0.803871 0.054967 0.040920
v -0.803871 0.054967 -0.121875
v -0.803872 -0.234870 -0.121875
v -0.803872 -0.234870 0.040920
v -0.433519 -0.234874 0.040920
v -0.433519 0.054959 0.040920
v -0.433519 0.054959 -0.121875
v -0.433519 -0.234874 -0.121875
vn 0.5355 -0.7581 -0.3722
vn -0.5355 -0.7581 -0.3722
vn -0.0000 -0.6574 -0.7536
vn -0.5358 -0.7578 -0.3724
vn 0.5358 -0.7577 -0.3725
vn 0.6051 -0.7962 -0.0012
vn -0.5356 -0.7585 -0.3712
vn 0.6055 -0.7959 -0.0000
vn -0.6055 -0.7959 -0.0000
vn -0.6054 -0.7959 0.0009
vn 0.6053 -0.7960 0.0009
vn 0.5359 -0.7579 0.3721
vn 0.5356 -0.7585 0.3711
vn -0.5357 -0.7585 0.3711
vn -0.5356 -0.7581 0.3721
vn 0.5356 -0.7581 0.3720
vn -0.0000 -0.6574 0.7536
vn -0.5356 -0.7586 -0.3711
vn -1.0000 -0.0000 -0.0000
vn -0.8220 -0.0000 -0.5695
vn -0.5355 -0.7585 -0.3713
vn -0.6054 -0.7959 -0.0001
vn -1.0000 -0.0000 -0.0002
vn -0.6054 -0.7959 -0.0000
vn -0.8220 -0.0000 0.5694
vn -0.6054 -0.7959 0.0001
vn -0.5356 -0.7586 0.3711
vn -0.8220 -0.0000 0.5695
vn -0.5356 -0.7586 0.3710
vn -0.0002 -0.0000 1.0000
vn -0.8221 -0.0000 0.5694
vn 0.0001 -0.6588 0.7523
vn 0.0001 -0.0000 1.0000
vn -0.0000 -0.6588 0.7523
vn 0.8220 -0.0001 0.5695
vn -0.0000 -0.0000 1.0000
vn 0.5355 -0.7586 0.3712
vn 0.8219 -0.0000 0.5696
vn 0.5356 -0.7586 0.3710
vn 1.0000 -0.0000 -0.0000
vn 0.8220 -0.0000 0.5695
vn 0.5356 -0.7585 0.3712
vn 0.6054 -0.7959 -0.0000
vn 1.0000 -0.0000 0.0001
vn 0.8220 -0.0000 -0.5695
vn 0.6054 -0.7959 -0.0001
vn 0.5356 -0.7586 -0.3711
vn 0.8219 -0.0000 -0.5696
vn -0.0002 -0.6588 -0.7523
vn -0.0002 -0.0000 -1.0000
vn 0.0001 -0.6588 -0.7523
vn -0.5355 -0.7586 -0.3712
vn -0.8219 -0.0000 -0.5696
vn 0.5355 -0.7585 -0.3713
vn -0.0001 -0.6588 -0.7523
vn 0.5356 -0.7586 -0.3710
vn 0.0002 -0.0000 -1.0000
vn 0.5357 -0.7589 -0.3701
vn -0.5358 -0.7589 -0.3701
vn -0.0000 -0.6601 -0.7512
vn -0.5357 -0.7585 -0.3711
vn 0.5356 -0.7585 -0.3712
vn -0.5363 -0.7568 -0.3738
vn 0.6052 -0.7961 -0.0023
vn -0.6050 -0.7962 -0.0023
vn -0.5356 -0.7585 0.3712
vn -0.5357 -0.7589 0.3702
vn 0.5358 -0.7589 0.3702
vn -0.0000 -0.6601 0.7512
vn -0.5356 -0.7586 -0.3710
vn -1.0000 0.0001 -0.0001
vn -0.5356 -0.7586 -0.3712
vn -1.0000 -0.0000 -0.0001
vn -0.8219 -0.0000 0.5696
vn -1.0000 -0.0000 0.0001
vn -0.5356 -0.7585 0.3711
vn -0.0002 0.0001 1.0000
vn 0.0001 0.0001 1.0000
vn -0.0002 -0.6589 0.7523
vn 0.8218 -0.0001 0.5698
vn 0.5356 -0.7586 0.3711
vn 0.5356 -0.7586 0.3712
vn 0.6054 -0.7960 -0.0000
vn 1.0000 -0.0001 -0.0000
vn 0.5356 -0.7585 -0.3711
vn 0.8220 0.0001 -0.5695
vn -0.8220 -0.0000 -0.5694
vn -0.0001 -0.0000 -1.0000
vn -0.0000 -0.6588 -0.7523
vn -0.0000 0.0002 -1.0000
vn -0.0627 0.9980 0.0007
vn 0.5096 0.7396 0.4396
vn 0.5068 0.8620 0.0006
vn -0.0627 0.9980 -0.0013
vn -0.0547 0.8648 0.4991
vn 0.5093 0.7407 0.4381
vn -0.0547 0.8638 -0.5008
vn -0.0627 0.9980 -0.0007
vn 0.5068 0.8620 -0.0005
vn -0.0547 0.8647 -0.4992
vn 0.5072 0.8618 0.0011
vn 0.5093 0.7407 -0.4382
vn -0.0551 0.8530 -0.5191
vn -0.0627 0.9980 0.0011
vn -0.0549 0.8647 -0.4992
vn -0.0548 0.8516 -0.5214
vn -0.0647 0.9979 -0.0016
vn -0.0627 0.9980 -0.0016
vn -0.0646 0.9979 0.0013
vn -0.0547 0.8635 0.5015
vn -0.0627 0.9980 0.0014
vn 0.0550 0.8531 -0.5189
vn -0.0646 0.9979 0.0014
vn -0.0549 0.8532 -0.5187
vn 0.0550 0.8526 -0.5197
vn 0.0647 0.9979 0.0002
vn -0.0646 0.9979 0.0003
vn 0.0646 0.9979 0.0010
vn -0.0549 0.8518 0.5209
vn -0.0646 0.9979 0.0011
vn -0.0646 0.9979 -0.0008
vn -0.0550 0.8529 0.5192
vn -0.0548 0.8645 0.4995
vn 0.0647 0.9979 -0.0027
vn 0.0549 0.8539 0.5176
vn -0.0549 0.8538 0.5178
vn 0.0627 0.9980 0.0024
vn 0.0548 0.8510 0.5223
vn 0.0647 0.9979 0.0025
vn 0.0627 0.9980 -0.0013
vn 0.0549 0.8648 0.4991
vn 0.0551 0.8530 0.5189
vn 0.0548 0.8641 -0.5003
vn 0.0647 0.9979 -0.0001
vn 0.0550 0.8524 -0.5201
vn 0.0547 0.8636 -0.5012
vn 0.0628 0.9980 -0.0012
vn 0.0647 0.9979 -0.0011
vn -0.5095 0.7399 -0.4393
vn 0.0627 0.9980 -0.0003
vn 0.0548 0.8640 -0.5004
vn -0.5098 0.7392 -0.4401
vn -0.5068 0.8621 -0.0012
vn 0.0627 0.9980 -0.0014
vn -0.5072 0.8618 -0.0019
vn 0.0547 0.8653 0.4982
vn 0.0628 0.9980 -0.0021
vn -0.5060 0.8625 0.0034
vn -0.5100 0.7381 0.4418
vn 0.0549 0.8623 0.5035
vn -0.0548 0.8644 0.4997
vn 0.5294 0.0007 0.8484
vn 0.5095 0.7403 0.4386
vn -0.0547 0.8638 0.5009
vn -0.0051 0.0386 0.9992
vn 0.5295 -0.0007 0.8483
vn -0.0051 0.0419 0.9991
vn 0.5089 -0.7392 0.4412
vn 0.5298 0.0023 0.8481
vn -0.0050 0.0369 0.9993
vn 0.0549 -0.8533 0.5184
vn 0.5096 -0.7408 0.4376
vn 0.0049 -0.0378 0.9993
vn 0.0549 -0.8515 0.5215
vn -0.0053 0.0411 0.9991
vn 0.0053 -0.0415 0.9991
vn 0.0549 -0.8651 0.4986
vn 0.0551 -0.8533 0.5185
vn -0.0050 -0.0391 0.9992
vn 0.0548 -0.8640 0.5005
vn 0.0051 -0.0391 0.9992
vn -0.0051 -0.0394 0.9992
vn -0.0548 -0.8641 0.5003
vn 0.0548 -0.8641 0.5003
vn 0.0550 0.8523 0.5202
vn -0.0050 -0.0396 0.9992
vn 0.0050 -0.0395 0.9992
vn 0.0550 0.8517 0.5211
vn 0.0050 -0.0408 0.9992
vn -0.0549 0.8517 0.5212
vn -0.0549 0.8521 0.5205
vn -0.0050 0.0387 0.9992
vn -0.0547 0.8639 0.5007
vn -0.0548 0.8515 0.5215
vn 0.0053 -0.0411 0.9991
vn -0.0049 0.0378 0.9993
vn 0.0548 0.8641 0.5003
vn -0.0050 -0.0394 0.9992
vn 0.0550 0.8524 0.5201
vn 0.0051 0.0393 0.9992
vn 0.0051 0.0392 0.9992
vn -0.0548 -0.8642 0.5001
vn -0.0051 -0.0396 0.9992
vn 0.0049 0.0378 0.9993
vn -0.0551 -0.8531 0.5189
vn -0.0548 -0.8647 0.4992
vn -0.5296 0.0013 0.8482
vn -0.0549 -0.8516 0.5213
vn 0.0050 0.0409 0.9991
vn -0.5293 -0.0010 0.8484
vn -0.5095 -0.7404 0.4383
vn -0.0550 -0.8528 0.5193
vn -0.5094 0.7400 0.4392
vn 0.0050 0.0390 0.9992
vn 0.0548 0.8640 0.5005
vn -0.5094 0.7400 0.4393
vn -0.5295 -0.0003 0.8483
vn 0.0549 -0.8534 0.5184
vn 0.5074 -0.8617 -0.0017
vn 0.5092 -0.7410 0.4378
vn 0.0549 -0.8523 0.5202
vn 0.0646 -0.9979 0.0003
vn 0.5069 -0.8620 0.0002
vn 0.0646 -0.9979 -0.0003
vn 0.5095 -0.7399 -0.4392
vn 0.5069 -0.8620 -0.0002
vn 0.0646 -0.9979 0.0016
vn 0.0549 -0.8533 -0.5186
vn 0.5093 -0.7409 -0.4379
vn 0.0627 -0.9980 0.0010
vn 0.0550 -0.8530 -0.5189
vn 0.0646 -0.9979 0.0011
vn 0.0627 -0.9980 -0.0014
vn 0.0547 -0.8635 -0.5014
vn 0.0548 -0.8518 -0.5211
vn -0.0627 -0.9980 -0.0020
vn 0.0548 -0.8631 -0.5021
vn 0.0627 -0.9980 -0.0022
vn -0.0627 -0.9980 0.0014
vn -0.0548 -0.8649 -0.4989
vn 0.0548 -0.8648 -0.4991
vn -0.0548 -0.8636 0.5012
vn -0.0627 -0.9980 0.0011
vn -0.0548 -0.8643 0.5000
vn 0.0627 -0.9980 -0.0003
vn 0.0547 -0.8643 0.4999
vn 0.0548 -0.8647 0.4993
vn 0.0646 -0.9979 -0.0011
vn 0.0550 -0.8530 0.5190
vn 0.0547 -0.8634 0.5015
vn 0.0627 -0.9980 0.0014
vn 0.0646 -0.9979 0.0013
vn -0.0549 -0.8517 0.5211
vn -0.0628 -0.9980 0.0014
vn -0.0547 -0.8634 0.5015
vn -0.0647 -0.9979 0.0015
vn -0.0647 -0.9979 -0.0013
vn -0.0547 -0.8634 -0.5015
vn -0.0627 -0.9980 -0.0014
vn -0.0647 -0.9979 -0.0015
vn -0.0549 -0.8516 -0.5212
vn -0.0547 -0.8635 -0.5013
vn -0.5068 -0.8621 -0.0008
vn -0.0550 -0.8518 -0.5209
vn -0.0646 -0.9979 -0.0010
vn -0.5072 -0.8618 0.0009
vn -0.5093 -0.7406 -0.4384
vn -0.0550 -0.8529 -0.5192
vn -0.5091 -0.7417 0.4368
vn -0.0647 -0.9979 -0.0033
vn -0.0549 -0.8541 0.5173
vn -0.5098 -0.7392 0.4402
vn -0.5067 -0.8621 0.0012
vn -0.0646 -0.9979 0.0014
vn 0.0550 -0.8531 -0.5189
vn 0.5293 -0.0016 -0.8484
vn 0.5096 -0.7406 -0.4380
vn 0.0549 -0.8514 -0.5216
vn -0.0050 0.0413 -0.9991
vn 0.5297 0.0017 -0.8482
vn -0.0051 0.0400 -0.9992
vn 0.5096 0.7403 -0.4384
vn 0.5294 0.0006 -0.8484
vn -0.0051 0.0386 -0.9992
vn -0.0547 0.8639 -0.5007
vn 0.5094 0.7399 -0.4395
vn 0.0051 -0.0398 -0.9992
vn -0.0050 0.0387 -0.9992
vn 0.0053 -0.0412 -0.9991
vn -0.0549 0.8515 -0.5214
vn -0.0547 0.8634 -0.5016
vn -0.0050 -0.0406 -0.9992
vn -0.0549 0.8517 -0.5212
vn 0.0050 -0.0407 -0.9992
vn -0.0050 -0.0396 -0.9992
vn 0.0550 0.8523 -0.5202
vn -0.0550 0.8523 -0.5202
vn -0.0548 -0.8642 -0.5002
vn -0.0051 -0.0394 -0.9992
vn 0.0050 -0.0393 -0.9992
vn -0.0548 -0.8640 -0.5004
vn 0.0050 -0.0391 -0.9992
vn 0.0547 -0.8640 -0.5004
vn 0.0548 -0.8645 -0.4996
vn -0.0049 0.0383 -0.9993
vn 0.0550 -0.8528 -0.5193
vn 0.0547 -0.8639 -0.5007
vn 0.0050 -0.0387 -0.9992
vn -0.0051 0.0398 -0.9992
vn -0.0552 -0.8536 -0.5179
vn -0.0055 -0.0423 -0.9991
vn -0.0549 -0.8655 -0.4979
vn -0.0549 -0.8518 -0.5211
vn 0.0052 0.0407 -0.9992
vn -0.0049 -0.0382 -0.9993
vn 0.0051 0.0393 -0.9992
vn 0.0550 0.8523 -0.5201
vn -0.5294 0.0013 -0.8484
vn 0.0548 0.8649 -0.4989
vn 0.0050 0.0409 -0.9992
vn -0.5296 -0.0003 -0.8482
vn -0.5094 0.7400 -0.4392
vn 0.0548 0.8640 -0.5005
vn -0.5096 -0.7406 -0.4380
vn 0.0050 0.0378 -0.9993
vn -0.0550 -0.8530 -0.5189
vn -0.5091 -0.7396 -0.4403
vn -0.5297 0.0014 -0.8482
vn 0.0050 0.0409 -0.9991
vn 0.5093 0.7401 0.4391
vn 0.5093 0.7401 -0.4391
vn 0.5068 0.8621 -0.0000
vn 0.5091 0.7403 -0.4391
vn 0.5090 0.7404 0.4391
vn 0.5296 0.0002 0.8482
vn 0.5098 0.7399 -0.4390
vn 0.5295 -0.0001 0.8483
vn 0.5295 -0.0002 -0.8483
vn 0.5295 -0.0000 -0.8483
vn 0.5294 0.0002 0.8483
vn 0.5098 -0.7399 0.4390
vn 0.5295 0.0001 -0.8483
vn 0.5094 -0.7401 0.4391
vn 0.5095 -0.7400 -0.4391
vn 0.5096 -0.7400 -0.4391
vn 0.5096 -0.7400 0.4391
vn 0.5071 -0.8619 -0.0000
vn -0.5104 0.7394 -0.4391
vn -0.5104 0.7393 0.4391
vn -0.5084 0.8611 -0.0000
vn -0.5093 0.7401 0.4391
vn -0.5092 0.7402 -0.4390
vn -0.5296 0.0001 -0.8483
vn -0.5095 0.7400 0.4391
vn -0.5295 -0.0001 -0.8483
vn -0.5295 0.0001 0.8483
vn -0.5295 -0.0000 0.8483
vn -0.5094 -0.7401 -0.4390
vn -0.5297 -0.0003 0.8482
vn -0.5090 -0.7404 -0.4391
vn -0.5088 -0.7405 0.4391
vn -0.5100 -0.7397 0.4391
vn -0.5100 -0.7397 -0.4391
vn -0.5077 -0.8615 -0.0000
vn -0.0000 -1.0000 -0.0000
vn -0.0000 -0.0000 -1.0000
vn -1.0000 0.0001 -0.0000
vn -1.0000 -0.0002 -0.0000
vn -0.6102 0.6118 0.5033
vn -0.6098 0.6118 -0.5039
vn 0.6099 0.6116 0.5039
vn 0.6098 0.6116 -0.5041
vn -0.6102 -0.6121 0.5029
vn -0.6102 -0.6121 -0.5029
vn 0.6105 -0.6119 0.5029
vn 0.6104 -0.6121 -0.5028
vn -0.7058 0.7084 -0.0000
vn -0.7062 0.7080 -0.0000
vn 0.7062 0.7080 -0.0000
vn 0.7061 0.7081 -0.0000
vn -0.0000 0.7723 -0.6353
vn -0.0000 0.7716 0.6361
vn -0.0000 0.7728 0.6346
vn -0.7060 -0.7082 -0.0000
vn -0.7058 -0.7084 -0.0000
vn 0.7058 -0.7084 -0.0000
vn -0.0000 -0.7723 -0.6352
vn -0.0000 -0.7720 0.6356
vn -0.7723 0.0003 -0.6353
vn -0.7708 -0.0000 -0.6370
vn -0.7709 0.0001 0.6369
vn -0.7719 -0.0000 0.6357
vn 0.7722 -0.0000 0.6353
vn 0.7710 -0.0001 0.6368
vn 0.7708 0.0001 -0.6370
vn 0.7722 -0.0001 -0.6353
vn -0.0000 1.0000 -0.0000
vn -0.0000 1.0000 -0.0010
vn -0.0000 1.0000 -0.0001
vn -0.0001 1.0000 -0.0000
vn 0.0001 1.0000 -0.0000
vn -0.0000 1.0000 0.0006
vn -0.0000 1.0000 -0.0009
vt 0.495903 0.553626
vt 0.497331 0.553626
vt 0.496617 0.552997
vt 0.495607 0.555144
vt 0.497627 0.555144
vt 0.495903 0.556663
vt 0.497331 0.556663
vt 0.496617 0.557292
vt 0.136828 0.553626
vt 0.121267 0.555144
vt 0.121267 0.553626
vt 0.136828 0.555144
vt 0.121267 0.556663
vt 0.136828 0.556663
vt 0.497331 0.136828
vt 0.496617 0.121267
vt 0.497331 0.121267
vt 0.496617 0.136828
vt 0.495903 0.121267
vt 0.495903 0.136828
vt 0.496617 0.136828
vt 0.467699 0.553626
vt 0.469127 0.553626
vt 0.468413 0.552997
vt 0.467403 0.555145
vt 0.469422 0.555145
vt 0.467699 0.556663
vt 0.469127 0.556663
vt 0.468413 0.557292
vt 0.136828 0.553626
vt 0.121267 0.555145
vt 0.121267 0.553626
vt 0.136828 0.555145
vt 0.121267 0.556663
vt 0.136828 0.556663
vt 0.469127 0.136828
vt 0.468413 0.121267
vt 0.469126 0.121267
vt 0.468413 0.136828
vt 0.467699 0.121267
vt 0.467699 0.136828
vt 0.454019 0.555144
vt 0.453409 0.557249
vt 0.453409 0.555144
vt 0.454019 0.557249
vt 0.454019 0.553039
vt 0.453409 0.553039
vt 0.468081 0.553040
vt 0.468081 0.555145
vt 0.496451 0.553040
vt 0.496451 0.555145
vt 0.468081 0.557249
vt 0.496451 0.557249
vt 0.510501 0.555145
vt 0.510501 0.557250
vt 0.510501 0.553040
vt 0.511449 0.553040
vt 0.511449 0.555145
vt 0.511449 0.557250
vt 0.454019 0.133111
vt 0.453409 0.134448
vt 0.453409 0.133111
vt 0.454019 0.134448
vt 0.453409 0.135786
vt 0.454019 0.135786
vt 0.468081 0.137108
vt 0.468081 0.138445
vt 0.496451 0.137108
vt 0.496451 0.138445
vt 0.496451 0.135771
vt 0.468081 0.135771
vt 0.510501 0.133111
vt 0.510501 0.134448
vt 0.510501 0.135786
vt 0.511449 0.134448
vt 0.511449 0.135786
vt 0.511449 0.133111
vt 0.496451 0.555145
vt 0.496451 0.557249
vt 0.496451 0.137108
vt 0.496451 0.138445
vt 0.133111 0.557249
vt 0.133111 0.553039
vt 0.132558 0.555144
vt 0.134448 0.558122
vt 0.134448 0.552167
vt 0.135786 0.557249
vt 0.135786 0.553039
vt 0.136340 0.555144
vt 0.133111 0.553040
vt 0.133111 0.557250
vt 0.132557 0.555145
vt 0.134448 0.552167
vt 0.134448 0.558122
vt 0.135786 0.553040
vt 0.135786 0.557250
vt 0.136339 0.555145
vt 0.389216 0.123929
vt 0.589269 0.126582
vt 0.389216 0.126582
vt 0.589269 0.123929
vt 0.389216 0.455969
vt 0.589269 0.571653
vt 0.589269 0.455969
vt 0.389216 0.571653
vt 0.393243 0.121025
vt 0.585242 -0.102052
vt 0.393243 -0.102052
vt 0.585242 0.121025
vt 0.123929 0.455969
vt 0.126582 0.571653
vt 0.126582 0.455969
vt 0.123929 0.571653
vt 0.121025 0.565749
vt -0.102052 0.461873
vt -0.102052 0.565749
vt 0.121025 0.461873
vt 0.123929 0.574557
vt 0.121025 0.571653
vt 0.121025 0.455969
vt 0.123929 0.453065
vt 0.129487 0.571653
vt 0.126582 0.574557
vt 0.126582 0.453065
vt 0.129487 0.455969
vt 0.389216 0.453065
vt 0.589269 0.453065
vt 0.389216 0.121025
vt 0.589269 0.121025
vt 0.389216 0.129487
vt 0.589269 0.129487
vt 0.585242 0.565749
vt 0.585242 0.461873
vt 0.393243 0.461873
vt 0.393243 0.565749
vt 0.902948 0.565749
vt 1.116025 0.467347
vt 0.902948 0.467347
vt 1.116025 0.565749
vt 0.396654 0.116025
vt 0.581831 0.116025
vt 0.581831 -0.097052
vt 0.581831 0.902948
vt 0.393243 0.897948
vt 0.585242 0.897948
vt 0.396654 0.902948
vt 0.393243 1.121025
vt 0.396654 1.116025
vt 0.396654 -0.097052
vt 0.581831 0.565749
vt 0.396654 0.467347
vt 0.581831 0.467347
vt 0.396654 0.565749
vt 0.116025 0.565749
vt -0.097052 0.467347
vt 0.116025 0.467347
vt -0.097052 0.565749
s 1
usemtl M_DresserDrawer_325_5_0
f 1/1/1 3/2/2 2/3/3
f 3/2/4 1/1/5 4/4/6
f 3/2/7 4/4/8 5/5/9
f 5/5/10 4/4/11 6/6/12
f 5/5/9 6/6/13 7/7/14
f 7/7/15 6/6/16 8/8/17
f 3/9/18 10/10/19 9/11/20
f 3/9/21 5/12/22 10/10/23
f 5/12/24 11/13/25 10/10/19
f 5/12/26 7/14/27 11/13/28
f 7/15/29 12/16/30 11/17/31
f 7/15/27 8/18/32 12/16/33
f 8/18/34 13/19/35 12/16/36
f 8/18/34 6/20/37 13/19/38
f 6/14/39 14/10/40 13/13/41
f 6/14/42 4/12/43 14/10/44
f 4/12/43 15/11/45 14/10/40
f 4/12/46 1/9/47 15/11/48
f 2/21/49 9/17/20 16/16/50
f 2/21/51 3/15/52 9/17/53
f 1/20/54 2/21/55 16/16/50
f 1/20/56 16/16/57 15/19/45
f 17/22/58 19/23/59 18/24/60
f 19/23/61 17/22/62 20/25/8
f 19/23/63 20/25/64 21/26/65
f 21/26/9 20/25/8 22/27/42
f 21/26/9 22/27/42 23/28/66
f 23/28/67 22/27/68 24/29/69
f 19/30/70 26/31/71 25/32/20
f 19/30/72 21/33/24 26/31/73
f 21/33/24 27/34/74 26/31/75
f 21/33/24 23/35/76 27/34/74
f 23/36/29 28/37/77 27/38/25
f 23/36/27 24/39/34 28/37/36
f 24/39/32 29/40/41 28/37/78
f 24/39/79 22/41/37 29/40/80
f 22/35/81 30/31/40 29/34/38
f 22/35/82 20/33/43 30/31/40
f 20/33/83 31/32/45 30/31/84
f 20/33/8 17/30/85 31/32/86
f 18/39/55 25/38/87 32/37/88
f 18/39/89 19/36/70 25/38/20
f 17/41/47 18/39/89 32/37/88
f 17/41/47 32/37/90 31/40/45
f 33/42/91 35/43/92 34/44/93
f 33/42/94 36/45/95 35/43/96
f 37/46/97 33/42/98 34/44/99
f 37/46/100 34/44/101 38/47/102
f 39/48/103 33/42/104 37/46/105
f 39/48/106 40/49/107 33/42/108
f 40/49/109 36/45/110 33/42/111
f 41/50/112 40/49/113 39/48/114
f 41/50/115 42/51/116 40/49/117
f 42/51/118 43/52/119 40/49/120
f 40/49/121 43/52/122 36/45/123
f 42/51/124 44/53/125 43/52/126
f 45/54/127 44/53/128 42/51/129
f 45/54/130 46/55/131 44/53/132
f 47/56/133 42/51/134 41/50/135
f 47/56/136 45/54/137 42/51/138
f 48/57/139 45/54/140 47/56/141
f 48/57/142 49/58/143 45/54/144
f 49/58/145 46/55/146 45/54/147
f 49/58/148 50/59/149 46/55/150
f 36/60/151 51/61/152 35/62/153
f 36/60/154 52/63/155 51/61/156
f 52/63/157 53/64/158 51/61/159
f 52/63/160 54/65/161 53/64/162
f 55/66/163 54/65/164 52/63/165
f 55/66/166 56/67/167 54/65/168
f 57/68/169 56/67/170 55/66/171
f 57/68/172 58/69/173 56/67/174
f 44/70/175 57/68/176 55/66/177
f 44/70/178 55/66/179 43/71/180
f 43/71/181 52/63/182 36/60/183
f 43/71/184 55/66/185 52/63/186
f 46/72/187 57/68/188 44/70/189
f 46/72/187 59/73/190 57/68/172
f 59/73/191 58/69/192 57/68/193
f 59/73/194 60/74/195 58/69/196
f 61/75/197 60/74/198 59/73/199
f 61/75/200 62/76/201 60/74/202
f 50/77/203 59/73/204 46/72/205
f 50/77/206 61/75/207 59/73/204
f 54/45/208 63/44/209 53/43/210
f 54/45/211 64/42/212 63/44/213
f 64/42/214 65/47/215 63/44/216
f 64/42/217 66/46/218 65/47/219
f 67/49/220 66/46/221 64/42/222
f 67/49/223 68/48/224 66/46/225
f 69/78/226 68/48/227 67/49/228
f 69/78/229 70/50/230 68/48/231
f 58/79/232 69/78/233 67/49/220
f 58/79/234 67/49/235 56/52/236
f 56/52/237 64/42/238 54/45/239
f 56/52/240 67/49/241 64/42/242
f 60/55/243 69/78/244 58/79/245
f 60/55/198 71/54/246 69/78/229
f 71/54/247 70/50/248 69/78/249
f 71/54/250 72/56/251 70/50/252
f 73/58/253 72/56/254 71/54/255
f 73/58/256 74/57/257 72/56/258
f 62/59/259 71/54/260 60/55/261
f 62/59/262 73/58/263 71/54/264
f 66/65/265 75/61/266 65/64/267
f 66/65/268 76/63/269 75/61/270
f 76/63/271 38/62/272 75/61/273
f 76/63/274 37/60/275 38/62/276
f 77/66/277 37/60/275 76/63/278
f 77/66/279 39/71/280 37/60/281
f 78/80/282 39/71/283 77/66/284
f 78/80/285 41/70/286 39/71/287
f 70/81/288 78/80/289 77/66/290
f 70/81/291 77/66/292 68/67/293
f 68/67/294 76/63/295 66/65/296
f 68/67/297 77/66/298 76/63/299
f 72/74/300 78/80/301 70/81/302
f 72/74/303 79/73/304 78/80/305
f 79/73/306 41/70/307 78/80/289
f 79/73/306 47/72/133 41/70/307
f 80/75/308 47/72/309 79/73/310
f 80/75/311 48/77/312 47/72/313
f 74/76/314 79/73/315 72/74/316
f 74/76/317 80/75/318 79/73/319
f 35/82/320 38/83/321 34/84/322
f 38/83/323 35/82/324 51/85/325
f 38/83/326 51/85/327 75/86/328
f 75/86/329 51/85/330 53/87/331
f 75/86/332 53/87/333 65/88/334
f 65/88/335 53/87/336 63/89/337
f 48/90/338 50/91/339 49/92/340
f 50/91/341 48/90/342 80/93/343
f 50/91/344 80/93/345 61/94/346
f 61/94/347 80/93/345 74/95/348
f 61/94/349 74/95/350 62/96/351
f 62/96/352 74/95/353 73/97/354
f 81/98/36 83/99/36 82/100/36
f 81/98/36 84/101/36 83/99/36
f 85/102/355 87/103/355 86/104/355
f 85/102/355 88/105/355 87/103/355
f 89/106/356 91/107/356 90/108/356
f 89/106/356 92/109/356 91/107/356
f 93/110/40 95/111/40 94/112/40
f 93/110/40 96/113/40 95/111/40
f 97/101/356 99/100/356 98/99/356
f 97/101/356 100/98/356 99/100/356
f 101/114/40 90/115/40 102/116/40
f 101/114/40 89/117/40 90/115/40
f 103/113/357 105/112/357 104/111/357
f 103/113/358 106/110/358 105/112/358
f 103/113/359 84/118/359 107/119/359
f 106/110/360 108/120/360 97/121/360
f 96/113/361 109/119/361 81/118/361
f 93/110/362 100/121/362 110/120/362
f 104/111/363 87/122/363 83/123/363
f 105/112/364 98/124/364 86/125/364
f 95/111/365 82/123/365 88/122/365
f 94/112/366 85/125/366 99/124/366
f 107/119/367 106/110/367 103/113/367
f 107/119/368 108/120/368 106/110/368
f 96/113/369 110/120/369 109/119/369
f 96/113/370 93/110/370 110/120/370
f 100/126/371 108/104/371 110/102/371
f 100/126/371 97/127/371 108/104/371
f 109/128/372 84/101/372 81/98/372
f 109/128/373 107/129/373 84/101/373
f 104/111/374 86/125/374 87/122/374
f 104/111/375 105/112/375 86/125/375
f 88/122/376 94/112/376 95/111/376
f 88/122/376 85/125/376 94/112/376
f 85/130/377 98/99/377 99/100/377
f 85/130/377 86/131/377 98/99/377
f 82/100/378 87/131/378 88/130/378
f 82/100/378 83/99/378 87/131/378
f 97/121/379 105/112/379 106/110/379
f 97/121/380 98/124/380 105/112/380
f 83/123/381 103/113/381 104/111/381
f 83/123/382 84/118/382 103/113/382
f 81/118/383 95/111/383 96/113/383
f 81/118/384 82/123/384 95/111/384
f 99/124/385 93/110/385 94/112/385
f 99/124/386 100/121/386 93/110/386
f 111/132/387 108/104/387 107/103/387
f 111/132/387 92/133/387 108/104/387
f 92/133/388 110/102/388 108/104/388
f 92/133/389 89/134/389 110/102/389
f 89/134/390 109/105/390 110/102/390
f 89/134/391 101/135/391 109/105/391
f 101/135/392 107/103/392 109/105/392
f 101/135/393 111/132/393 107/103/393
f 90/134/387 112/132/387 102/135/387
f 90/134/387 91/133/387 112/132/387
f 92/117/19 112/116/19 91/115/19
f 92/117/19 111/114/19 112/116/19
f 113/136/40 115/137/40 114/138/40
f 113/136/40 116/139/40 115/137/40
f 117/140/36 111/109/36 101/106/36
f 117/140/36 116/141/36 111/109/36
f 116/141/36 112/107/36 111/109/36
f 116/141/36 113/142/36 112/107/36
f 113/143/36 102/144/36 112/145/36
f 113/143/36 118/146/36 102/144/36
f 118/146/36 101/147/36 102/144/36
f 118/146/36 117/148/36 101/147/36
f 115/141/36 119/149/36 114/142/36
f 115/141/36 120/140/36 119/149/36
f 116/150/387 120/151/387 115/152/387
f 116/150/387 117/153/387 120/151/387
f 118/153/355 114/152/355 119/151/355
f 118/153/355 113/150/355 114/152/355
f 117/154/19 119/155/19 120/156/19
f 117/154/19 118/157/19 119/155/19
