# Blender 4.1.0
# www.blender.org
mtllib LidMeshLaptopLid_13_0_GeomSubset_4.mtl
o LidMeshLaptopLid_13_0_GeomSubset_4
v -0.000632 0.134187 -0.133624
v 0.000632 0.134187 -0.133624
v -0.000632 0.135452 -0.133624
v 0.000632 0.135452 -0.133624
v -0.000632 0.134187 -0.133624
v 0.000632 0.134187 -0.133624
v -0.000632 0.135452 -0.133624
v 0.000632 0.135452 -0.133624
v -0.000632 0.134187 -0.133624
v 0.000632 0.134187 -0.133624
v -0.000632 0.135452 -0.133624
v 0.000632 0.135452 -0.133624
v -0.000632 0.134187 -0.133624
v 0.000632 0.134187 -0.133624
v -0.000632 0.135452 -0.133624
v 0.000632 0.135452 -0.133624
v -0.000632 0.134187 -0.133624
v 0.000632 0.134187 -0.133624
v -0.000632 0.135452 -0.133624
v 0.000632 0.135452 -0.133624
v -0.000632 0.134187 -0.133624
v 0.000632 0.134187 -0.133624
v -0.000632 0.135452 -0.133624
v 0.000632 0.135452 -0.133624
v -0.180043 0.141275 0.123747
v -0.187066 0.137370 0.123747
v -0.170450 0.137370 0.140363
v -0.170450 0.141275 0.133340
v -0.170450 0.142706 0.123747
v 0.187065 0.137370 0.123747
v 0.180043 0.141275 0.123747
v 0.170450 0.142706 0.123747
v 0.170450 0.141275 0.133339
v 0.170450 0.137370 0.140363
v -0.187066 0.137370 -0.119741
v -0.180043 0.141275 -0.119741
v -0.170450 0.142705 -0.119741
v -0.170450 0.141275 -0.129333
v -0.170450 0.137370 -0.136355
v 0.170450 0.137370 -0.136355
v 0.170450 0.141275 -0.129333
v 0.170450 0.142705 -0.119741
v 0.180043 0.141275 -0.119741
v 0.187065 0.137370 -0.119741
v -0.178740 0.140473 0.132037
v -0.185623 0.136645 0.132037
v -0.178740 0.136645 0.138920
v 0.178740 0.136645 0.138920
v 0.185623 0.136645 0.132037
v 0.178740 0.140473 0.132037
v -0.178740 0.136645 -0.134913
v -0.185623 0.136645 -0.128031
v -0.178740 0.140473 -0.128031
v 0.185623 0.136645 -0.128031
v 0.178740 0.136645 -0.134913
v 0.178740 0.140473 -0.128031
v -0.189636 0.132033 -0.119741
v -0.189636 0.132033 0.123747
v -0.170450 0.132033 0.142933
v 0.170450 0.132033 0.142933
v 0.189636 0.132033 0.123747
v 0.189636 0.132033 -0.119741
v 0.170450 0.132033 -0.138926
v -0.170450 0.132033 -0.138926
v -0.187066 0.132033 0.133340
v -0.180043 0.132033 0.140363
v 0.180043 0.132033 0.140363
v 0.187065 0.132033 0.133340
v -0.180043 0.132033 -0.136355
v -0.187066 0.132033 -0.129333
v 0.187065 0.132033 -0.129333
v 0.180043 0.132033 -0.136355
v 0.180043 0.132033 -0.119741
v 0.180043 0.132033 0.123747
v 0.170450 0.132033 0.123747
v 0.170450 0.132033 -0.119741
v -0.180043 0.132033 0.123747
v -0.180043 0.132033 -0.119742
v -0.170450 0.132033 -0.119742
v -0.170450 0.132033 0.123747
v 0.000000 0.132033 0.123747
v 0.000000 0.132033 -0.119741
v 0.000000 0.132033 -0.138926
v 0.000000 0.137370 -0.136355
v 0.000000 0.141275 -0.129333
v 0.000000 0.142705 -0.119741
v 0.000000 0.142706 0.123747
v 0.000000 0.141275 0.133340
v 0.000000 0.137370 0.140363
v 0.000000 0.132033 0.142933
v 0.170450 0.132033 -0.101288
v 0.180043 0.132033 -0.101288
v 0.189636 0.132033 -0.101288
v 0.187065 0.137370 -0.101288
v 0.180043 0.141275 -0.101288
v 0.170450 0.142705 -0.101288
v 0.000000 0.142705 -0.101288
v -0.170450 0.142705 -0.101288
v -0.180043 0.141275 -0.101288
v -0.187066 0.137370 -0.101288
v -0.189636 0.132033 -0.101288
v -0.180043 0.132033 -0.101288
v -0.170450 0.132033 -0.101288
v 0.000000 0.132033 -0.101288
v 0.000000 0.135038 0.123747
v 0.000000 0.135038 -0.101288
v 0.170450 0.135038 -0.101288
v 0.170450 0.135038 0.123747
v -0.170450 0.135038 -0.101288
v -0.170450 0.135038 0.123747
v 0.043544 0.143847 -0.043660
v -0.043544 0.143847 -0.043660
v 0.043544 0.143847 0.047666
v -0.043544 0.143847 0.047666
v 0.000000 0.134838 0.123747
v 0.000000 0.134838 -0.101288
v 0.170450 0.134838 -0.101288
v 0.170450 0.134838 0.123747
v -0.170450 0.134838 -0.101288
v -0.170450 0.134838 0.123747
vn -0.0000 -0.0000 1.0000
vn -0.0000 1.0000 -0.0000
vt 0.000000 -19.673967
vt 1.000000 -19.673967
vt 1.000000 -18.673967
vt 0.000000 -18.673967
vt -1.610920 0.051604
vt -1.379049 0.051604
vt -1.379049 0.294760
vt -1.610920 0.294760
s 1
usemtl M_LaptopLid_13_4
f 17/1/1 18/2/1 20/3/1 19/4/1
f 21/1/1 22/2/1 24/3/1 23/4/1
f 111/5/2 112/6/2 114/7/2 113/8/2
