# Blender 4.1.0
# www.blender.org
mtllib DrawermeshDresserDrawer_301_5_4.mtl
o DresserDrawer_301_5
v -0.181620 -0.152995 -0.101923
v -0.182720 -0.152996 -0.103287
v -0.183821 -0.152996 -0.101923
v -0.181166 -0.152996 -0.098630
v -0.184275 -0.152996 -0.098630
v -0.181620 -0.152996 -0.095338
v -0.183821 -0.152996 -0.095338
v -0.182720 -0.152996 -0.093974
v -0.183821 -0.136475 -0.101923
v -0.184275 -0.136475 -0.098630
v -0.183821 -0.136475 -0.095338
v -0.182720 -0.136475 -0.093974
v -0.181620 -0.136475 -0.095338
v -0.181166 -0.136475 -0.098630
v -0.181620 -0.136475 -0.101923
v -0.182720 -0.136475 -0.103286
v -0.138176 -0.152996 -0.101923
v -0.139276 -0.152996 -0.103287
v -0.140375 -0.152996 -0.101923
v -0.137720 -0.152996 -0.098630
v -0.140831 -0.152996 -0.098630
v -0.138176 -0.152996 -0.095338
v -0.140375 -0.152996 -0.095338
v -0.139276 -0.152996 -0.093974
v -0.140375 -0.136475 -0.101923
v -0.140831 -0.136475 -0.098630
v -0.140375 -0.136475 -0.095338
v -0.139276 -0.136475 -0.093974
v -0.138176 -0.136475 -0.095338
v -0.137720 -0.136475 -0.098630
v -0.138176 -0.136475 -0.101923
v -0.139276 -0.136475 -0.103287
v -0.117105 -0.148462 -0.098630
v -0.116165 -0.148462 -0.098630
v -0.116164 -0.149050 -0.094066
v -0.117105 -0.149050 -0.094066
v -0.117105 -0.149050 -0.103194
v -0.116164 -0.149050 -0.103194
v -0.138766 -0.151874 -0.103194
v -0.138765 -0.151286 -0.098630
v -0.182465 -0.151874 -0.103194
v -0.182465 -0.151286 -0.098630
v -0.138766 -0.151874 -0.094066
v -0.182465 -0.151874 -0.094066
v -0.204107 -0.148462 -0.098630
v -0.204107 -0.149050 -0.094066
v -0.204107 -0.149050 -0.103194
v -0.205568 -0.149050 -0.103194
v -0.205568 -0.148462 -0.098630
v -0.205568 -0.149050 -0.094066
v -0.116164 -0.150470 -0.092175
v -0.117105 -0.150470 -0.092175
v -0.116164 -0.151889 -0.094066
v -0.117105 -0.151889 -0.094066
v -0.138765 -0.153294 -0.092175
v -0.138765 -0.154713 -0.094066
v -0.182465 -0.153293 -0.092175
v -0.182465 -0.154713 -0.094066
v -0.204107 -0.150469 -0.092175
v -0.204107 -0.151889 -0.094066
v -0.205568 -0.150469 -0.092175
v -0.205567 -0.151889 -0.094066
v -0.116164 -0.152477 -0.098630
v -0.117105 -0.152477 -0.098630
v -0.116164 -0.151889 -0.103194
v -0.117105 -0.151889 -0.103194
v -0.138765 -0.155301 -0.098630
v -0.138765 -0.154713 -0.103194
v -0.182465 -0.155301 -0.098630
v -0.182465 -0.154713 -0.103194
v -0.204107 -0.152477 -0.098630
v -0.204107 -0.151889 -0.103194
v -0.205567 -0.152477 -0.098630
v -0.205567 -0.151889 -0.103194
v -0.116164 -0.150470 -0.105085
v -0.117105 -0.150470 -0.105085
v -0.138766 -0.153294 -0.105085
v -0.182465 -0.153293 -0.105085
v -0.204107 -0.150469 -0.105085
v -0.205568 -0.150469 -0.105085
v -0.014232 -0.139301 -0.312094
v -0.014232 -0.142118 -0.312094
v -0.014232 -0.142118 -0.061261
v -0.014232 -0.139301 -0.061261
v -0.017284 -0.145202 -0.312094
v -0.325438 -0.145201 -0.312094
v -0.325438 -0.145201 -0.061261
v -0.017284 -0.145202 -0.061261
v -0.017283 -0.139302 -0.054964
v -0.017284 -0.142118 -0.054964
v -0.325438 -0.142117 -0.054964
v -0.325438 -0.139300 -0.054964
v -0.325438 -0.139300 -0.318391
v -0.325438 -0.142117 -0.318391
v -0.017284 -0.142118 -0.318391
v -0.017283 -0.139302 -0.318391
v -0.328491 -0.139300 -0.061261
v -0.328491 -0.142117 -0.061261
v -0.328491 -0.142117 -0.312094
v -0.328491 -0.139300 -0.312094
v -0.017284 -0.136218 -0.061261
v -0.325438 -0.136217 -0.061261
v -0.325438 -0.136217 -0.312094
v -0.017284 -0.136218 -0.312094
v -0.023488 -0.136218 -0.074062
v -0.319234 -0.136217 -0.074062
v -0.319234 -0.136217 -0.299293
v -0.023488 -0.136218 -0.299293
v -0.023487 0.100630 -0.299293
v -0.023487 0.100630 -0.074069
v -0.319234 0.100631 -0.074062
v -0.319233 0.100631 -0.299293
v -0.313979 0.095323 -0.074062
v -0.313979 0.095323 -0.287425
v -0.313980 -0.130908 -0.287425
v -0.313980 -0.130908 -0.074062
v -0.028742 -0.130909 -0.074062
v -0.028741 0.095322 -0.074062
v -0.028741 0.095322 -0.287425
v -0.028742 -0.130909 -0.287425
vn 0.5663 -0.7913 -0.2306
vn -0.5663 -0.7913 -0.2305
vn -0.0000 -0.8269 -0.5624
vn -0.5663 -0.7913 -0.2306
vn 0.6106 -0.7920 -0.0000
vn 0.6106 -0.7919 -0.0000
vn -0.6106 -0.7919 -0.0000
vn 0.5663 -0.7913 0.2306
vn 0.5663 -0.7913 0.2305
vn -0.5663 -0.7913 0.2306
vn -0.0000 -0.8269 0.5624
vn -0.5662 -0.7913 -0.2306
vn -1.0000 -0.0000 -0.0000
vn -0.9262 -0.0000 -0.3771
vn -0.6105 -0.7920 -0.0000
vn -0.9262 -0.0000 0.3771
vn -0.5663 -0.7913 0.2305
vn -0.5662 -0.7913 0.2306
vn -0.0000 -0.0001 1.0000
vn -0.0001 -0.8269 0.5624
vn -0.0000 -0.0000 1.0000
vn -0.0000 -0.8268 0.5624
vn 0.9261 -0.0000 0.3772
vn -0.0000 -0.8268 0.5625
vn 0.9262 -0.0000 0.3771
vn 0.5662 -0.7913 0.2306
vn 1.0000 -0.0000 -0.0000
vn 0.6105 -0.7920 0.0001
vn 0.9262 0.0001 -0.3771
vn 1.0000 0.0001 -0.0000
vn 0.6105 -0.7920 -0.0000
vn 0.5662 -0.7914 -0.2305
vn 0.9262 -0.0001 -0.3771
vn -0.0001 -0.8269 -0.5624
vn -0.9261 -0.0000 -0.3772
vn -0.0000 0.0001 -1.0000
vn -0.5662 -0.7913 -0.2307
vn -0.0000 -0.8268 -0.5624
vn -0.0001 -0.0000 -1.0000
vn 0.5662 -0.7913 -0.2307
vn 0.9261 -0.0000 -0.3772
vn 0.5663 -0.7913 -0.2305
vn -0.6106 -0.7920 -0.0001
vn -0.6106 -0.7920 -0.0000
vn -0.9261 -0.0000 0.3772
vn 0.0001 -0.8269 0.5623
vn -0.0001 -0.0000 1.0000
vn 1.0000 -0.0000 0.0001
vn 0.6106 -0.7920 0.0001
vn 0.9262 -0.0000 -0.3771
vn 0.6105 -0.7920 -0.0001
vn 0.5662 -0.7913 -0.2306
vn -0.0000 -0.0000 -1.0000
vn -0.0001 -0.0001 -1.0000
vn -0.0635 0.9980 -0.0000
vn 0.5496 0.7877 0.2784
vn 0.5120 0.8590 -0.0000
vn -0.0606 0.9437 0.3252
vn 0.5496 0.7878 0.2783
vn -0.0606 0.9437 -0.3253
vn -0.0606 0.9437 -0.3252
vn 0.5120 0.8590 0.0001
vn 0.5496 0.7878 -0.2782
vn -0.0613 0.9381 -0.3408
vn -0.0655 0.9979 -0.0000
vn -0.0606 0.9437 0.3253
vn -0.0635 0.9980 0.0001
vn 0.0613 0.9381 -0.3408
vn 0.0655 0.9979 -0.0001
vn 0.0655 0.9979 -0.0000
vn -0.0612 0.9381 0.3408
vn -0.0654 0.9979 -0.0000
vn -0.0613 0.9381 0.3408
vn 0.0613 0.9381 0.3408
vn 0.0636 0.9980 -0.0000
vn 0.0614 0.9381 0.3408
vn 0.0607 0.9437 0.3253
vn 0.0607 0.9437 -0.3253
vn 0.0656 0.9978 -0.0000
vn 0.0655 0.9978 -0.0000
vn -0.5496 0.7877 -0.2783
vn 0.0635 0.9980 -0.0001
vn 0.0606 0.9436 -0.3253
vn -0.5120 0.8590 -0.0001
vn 0.0606 0.9437 0.3252
vn -0.5120 0.8590 -0.0000
vn -0.5496 0.7877 0.2784
vn 0.0606 0.9436 0.3254
vn -0.0606 0.9434 0.3259
vn 0.7282 -0.0006 0.6853
vn 0.5495 0.7876 0.2788
vn -0.0606 0.9438 0.3248
vn -0.0086 0.0665 0.9977
vn 0.7280 0.0006 0.6855
vn -0.0086 0.0666 0.9977
vn 0.5494 -0.7877 0.2789
vn 0.7281 0.0005 0.6855
vn -0.0086 0.0651 0.9978
vn 0.0613 -0.9383 0.3404
vn 0.5496 -0.7878 0.2779
vn 0.0085 -0.0658 0.9978
vn 0.0613 -0.9381 0.3409
vn -0.0086 0.0659 0.9978
vn 0.0086 -0.0659 0.9978
vn 0.0606 -0.9436 0.3254
vn -0.0085 -0.0659 0.9978
vn -0.0086 -0.0660 0.9978
vn -0.0606 -0.9436 0.3254
vn 0.0613 0.9381 0.3409
vn 0.0085 -0.0659 0.9978
vn -0.0613 0.9381 0.3409
vn -0.0086 0.0658 0.9978
vn -0.0606 0.9436 0.3254
vn -0.0085 0.0659 0.9978
vn 0.0607 0.9436 0.3254
vn 0.0086 0.0659 0.9978
vn -0.0087 -0.0659 0.9978
vn 0.0087 0.0659 0.9978
vn -0.0607 -0.9436 0.3254
vn -0.0614 -0.9381 0.3409
vn -0.7281 -0.0003 0.6855
vn -0.0613 -0.9382 0.3407
vn 0.0085 0.0657 0.9978
vn -0.7282 0.0003 0.6853
vn -0.5495 -0.7877 0.2785
vn -0.0614 -0.9380 0.3412
vn -0.5496 0.7878 0.2782
vn 0.0086 0.0663 0.9978
vn 0.0607 0.9437 0.3252
vn -0.7281 -0.0001 0.6855
vn 0.0086 0.0658 0.9978
vn 0.0613 -0.9381 0.3410
vn 0.5119 -0.8590 0.0001
vn 0.5496 -0.7877 0.2785
vn 0.0613 -0.9382 0.3407
vn 0.0655 -0.9979 -0.0000
vn 0.5120 -0.8590 -0.0001
vn 0.0655 -0.9979 -0.0002
vn 0.5496 -0.7876 -0.2784
vn 0.5119 -0.8590 -0.0002
vn 0.0655 -0.9979 0.0001
vn 0.0613 -0.9382 -0.3407
vn 0.5496 -0.7878 -0.2783
vn 0.0635 -0.9980 -0.0000
vn 0.0613 -0.9381 -0.3408
vn 0.0606 -0.9437 -0.3253
vn -0.0636 -0.9980 -0.0001
vn -0.0636 -0.9980 -0.0000
vn -0.0607 -0.9437 -0.3253
vn -0.0606 -0.9437 0.3253
vn 0.0606 -0.9437 0.3253
vn 0.0613 -0.9381 0.3408
vn -0.0614 -0.9381 0.3408
vn -0.0607 -0.9437 0.3253
vn -0.0655 -0.9979 -0.0000
vn -0.0613 -0.9381 -0.3408
vn -0.5120 -0.8590 -0.0001
vn -0.0613 -0.9381 -0.3409
vn -0.0655 -0.9979 -0.0001
vn -0.5120 -0.8590 0.0001
vn -0.5496 -0.7878 -0.2782
vn -0.5495 -0.7877 0.2784
vn -0.0655 -0.9979 0.0001
vn -0.5495 -0.7878 0.2783
vn -0.5120 -0.8590 -0.0000
vn 0.0613 -0.9379 -0.3413
vn 0.7282 0.0005 -0.6854
vn 0.5495 -0.7876 -0.2787
vn -0.0085 0.0658 -0.9978
vn 0.7281 -0.0001 -0.6854
vn -0.0086 0.0659 -0.9978
vn 0.7280 0.0001 -0.6855
vn 0.5496 0.7877 -0.2783
vn 0.0086 -0.0659 -0.9978
vn -0.0606 0.9436 -0.3254
vn 0.0085 -0.0659 -0.9978
vn -0.0613 0.9381 -0.3409
vn -0.0606 0.9437 -0.3254
vn -0.0086 -0.0659 -0.9978
vn 0.0085 -0.0658 -0.9978
vn -0.0085 -0.0659 -0.9978
vn 0.0613 0.9381 -0.3409
vn -0.0606 -0.9436 -0.3254
vn -0.0607 -0.9436 -0.3254
vn 0.0086 -0.0658 -0.9978
vn 0.0606 -0.9436 -0.3254
vn -0.0085 0.0659 -0.9978
vn 0.0613 -0.9381 -0.3409
vn -0.0614 -0.9381 -0.3409
vn 0.0086 0.0659 -0.9978
vn 0.0614 0.9381 -0.3409
vn 0.0607 0.9436 -0.3254
vn -0.7281 0.0002 -0.6855
vn 0.0606 0.9437 -0.3252
vn 0.0086 0.0662 -0.9978
vn -0.7281 -0.0001 -0.6854
vn -0.5496 0.7877 -0.2784
vn 0.0607 0.9436 -0.3255
vn -0.5496 -0.7877 -0.2783
vn 0.0085 0.0659 -0.9978
vn -0.5496 -0.7877 -0.2784
vn -0.7281 0.0001 -0.6855
vn 0.0085 0.0661 -0.9978
vn 0.5500 0.7874 0.2783
vn 0.5500 0.7874 -0.2783
vn 0.5125 0.8587 0.0001
vn 0.5501 0.7874 0.2783
vn 0.7280 -0.0005 0.6856
vn 0.5495 0.7877 -0.2784
vn 0.7281 -0.0001 0.6855
vn 0.7281 0.0001 -0.6855
vn 0.7281 0.0002 -0.6855
vn 0.7281 0.0003 0.6855
vn 0.5500 -0.7875 0.2783
vn 0.7281 -0.0000 -0.6855
vn 0.5496 -0.7877 0.2784
vn 0.5496 -0.7877 -0.2783
vn 0.5485 -0.7885 -0.2783
vn 0.5485 -0.7885 0.2784
vn 0.5106 -0.8598 -0.0001
vn -0.5495 0.7877 -0.2784
vn -0.5495 0.7878 0.2783
vn -0.5499 0.7875 0.2783
vn -0.5500 0.7875 -0.2783
vn -0.7280 -0.0004 -0.6856
vn -0.7281 -0.0001 -0.6855
vn -0.7281 0.0001 0.6855
vn -0.5495 -0.7877 -0.2783
vn -0.7281 -0.0003 0.6854
vn -0.5493 -0.7879 -0.2783
vn -0.5492 -0.7880 0.2783
vn -0.5506 -0.7870 0.2784
vn -0.5506 -0.7870 -0.2784
vn -0.5133 -0.8582 0.0001
vn -0.0000 -1.0000 -0.0000
vn 0.6719 0.6652 0.3256
vn -0.6719 0.6652 0.3257
vn -0.6719 0.6652 -0.3257
vn 0.6719 0.6652 -0.3256
vn 0.6719 -0.6652 0.3257
vn -0.6719 -0.6652 0.3257
vn -0.6719 -0.6652 -0.3257
vn 0.6719 -0.6652 -0.3257
vn -0.0000 0.8981 0.4398
vn -0.7107 0.7035 -0.0000
vn 0.7106 0.7036 -0.0000
vn -0.0000 0.8981 -0.4398
vn -0.0000 -0.8981 0.4398
vn -0.7106 -0.7036 -0.0000
vn -0.7107 -0.7035 -0.0000
vn 0.7106 -0.7036 -0.0000
vn -0.0000 -0.8981 -0.4398
vn -0.8998 -0.0000 0.4362
vn -0.8999 0.0003 0.4362
vn 0.8999 0.0002 0.4361
vn 0.8999 -0.0005 0.4361
vn -0.8998 -0.0000 -0.4362
vn 0.8998 -0.0000 -0.4362
vn 0.8999 -0.0003 -0.4361
vn -0.0000 1.0000 -0.0000
vt 0.495903 0.655695
vt 0.497331 0.655695
vt 0.496617 0.655066
vt 0.495607 0.657213
vt 0.497627 0.657213
vt 0.495903 0.658732
vt 0.497331 0.658732
vt 0.496617 0.659361
vt 0.136828 0.655695
vt 0.121267 0.657213
vt 0.121267 0.655695
vt 0.136828 0.657213
vt 0.121267 0.658732
vt 0.136828 0.658732
vt 0.497331 0.136828
vt 0.496617 0.121267
vt 0.497331 0.121267
vt 0.496617 0.136828
vt 0.495903 0.121267
vt 0.495903 0.136828
vt 0.496617 0.136828
vt 0.467699 0.655695
vt 0.469127 0.655695
vt 0.468413 0.655066
vt 0.467403 0.657213
vt 0.469422 0.657213
vt 0.467699 0.658732
vt 0.469127 0.658732
vt 0.468413 0.659361
vt 0.136828 0.655695
vt 0.121267 0.657213
vt 0.121267 0.655695
vt 0.136828 0.657213
vt 0.121267 0.658732
vt 0.136828 0.658732
vt 0.469127 0.136828
vt 0.468413 0.121267
vt 0.469126 0.121267
vt 0.468413 0.136828
vt 0.467699 0.121267
vt 0.467699 0.136828
vt 0.454019 0.657213
vt 0.453409 0.659318
vt 0.453409 0.657213
vt 0.454019 0.659318
vt 0.454019 0.655108
vt 0.453409 0.655108
vt 0.468081 0.655108
vt 0.468081 0.657213
vt 0.496451 0.655108
vt 0.496451 0.657213
vt 0.468081 0.659318
vt 0.496451 0.659318
vt 0.510501 0.657214
vt 0.510501 0.659318
vt 0.510501 0.655109
vt 0.511449 0.655109
vt 0.511449 0.657214
vt 0.511449 0.659318
vt 0.454019 0.133111
vt 0.453409 0.134448
vt 0.453409 0.133111
vt 0.454019 0.134448
vt 0.453409 0.135786
vt 0.454019 0.135786
vt 0.468081 0.137108
vt 0.468081 0.138445
vt 0.496451 0.137108
vt 0.496451 0.138445
vt 0.496451 0.135771
vt 0.468081 0.135771
vt 0.510501 0.133111
vt 0.510501 0.134448
vt 0.510501 0.135786
vt 0.511449 0.134448
vt 0.511449 0.135786
vt 0.511449 0.133111
vt 0.496451 0.657213
vt 0.496451 0.659318
vt 0.496451 0.137108
vt 0.496451 0.138445
vt 0.133111 0.659318
vt 0.133111 0.655108
vt 0.132558 0.657213
vt 0.134448 0.660190
vt 0.134448 0.654236
vt 0.135786 0.659318
vt 0.135786 0.655108
vt 0.136340 0.657213
vt 0.133111 0.655109
vt 0.133111 0.659318
vt 0.132557 0.657214
vt 0.134448 0.654236
vt 0.134448 0.660191
vt 0.135786 0.655109
vt 0.135786 0.659318
vt 0.136339 0.657214
vt 0.123929 0.558764
vt 0.126582 0.674448
vt 0.126582 0.558764
vt 0.123929 0.674448
vt 0.389216 0.558764
vt 0.589269 0.674448
vt 0.589269 0.558764
vt 0.389216 0.674448
vt 0.389216 0.123929
vt 0.589269 0.126582
vt 0.389216 0.126582
vt 0.589269 0.123929
vt 0.123929 0.677352
vt 0.121025 0.674448
vt 0.121025 0.558764
vt 0.123929 0.555860
vt 0.126582 0.677352
vt 0.129487 0.674448
vt 0.126582 0.555860
vt 0.129487 0.558764
vt 0.389216 0.121025
vt 0.589269 0.121025
vt 0.589269 0.129487
vt 0.389216 0.129487
vt 0.393243 0.668544
vt 0.585242 0.668544
vt 0.585242 0.564668
vt 0.393243 0.564668
vt 0.902948 0.668544
vt 1.116025 0.570142
vt 0.902948 0.570142
vt 1.116025 0.668544
vt 0.121025 0.564668
vt -0.102052 0.668544
vt -0.102052 0.564668
vt 0.121025 0.668544
vt 0.393243 0.121025
vt 0.585242 -0.102052
vt 0.393243 -0.102052
vt 0.585242 0.121025
vt 0.396654 0.116025
vt 0.581831 0.116025
vt 0.581831 -0.097052
vt 0.581831 0.902948
vt 0.393243 0.897948
vt 0.585242 0.897948
vt 0.396654 0.902948
vt 0.393243 1.121025
vt 0.396654 1.116025
vt 0.396654 -0.097052
vt 0.581831 0.668544
vt 0.396654 0.570142
vt 0.581831 0.570142
vt 0.396654 0.668544
vt 0.116025 0.668544
vt -0.097052 0.570142
vt 0.116025 0.570142
vt -0.097052 0.668544
s 1
usemtl M_DresserDrawer_301_5_0
f 1/1/1 3/2/2 2/3/3
f 3/2/4 1/1/1 4/4/5
f 3/2/2 4/4/6 5/5/7
f 5/5/7 4/4/6 6/6/8
f 5/5/7 6/6/9 7/7/10
f 7/7/10 6/6/8 8/8/11
f 3/9/12 10/10/13 9/11/14
f 3/9/12 5/12/15 10/10/13
f 5/12/15 11/13/16 10/10/13
f 5/12/15 7/14/17 11/13/16
f 7/15/18 12/16/19 11/17/16
f 7/15/18 8/18/20 12/16/21
f 8/18/22 13/19/23 12/16/19
f 8/18/24 6/20/9 13/19/25
f 6/14/26 14/10/27 13/13/25
f 6/14/26 4/12/28 14/10/27
f 4/12/6 15/11/29 14/10/30
f 4/12/31 1/9/32 15/11/33
f 2/21/34 9/17/35 16/16/36
f 2/21/34 3/15/37 9/17/35
f 1/20/1 2/21/38 16/16/39
f 1/20/40 16/16/39 15/19/41
f 17/22/42 19/23/2 18/24/3
f 19/23/4 17/22/1 20/25/6
f 19/23/4 20/25/6 21/26/7
f 21/26/7 20/25/6 22/27/26
f 21/26/7 22/27/8 23/28/10
f 23/28/10 22/27/8 24/29/11
f 19/30/4 26/31/13 25/32/14
f 19/30/2 21/33/7 26/31/13
f 21/33/43 27/34/16 26/31/13
f 21/33/44 23/35/10 27/34/16
f 23/36/10 28/37/21 27/38/45
f 23/36/10 24/39/20 28/37/21
f 24/39/46 29/40/23 28/37/47
f 24/39/24 22/41/26 29/40/23
f 22/35/26 30/31/27 29/34/25
f 22/35/8 20/33/6 30/31/48
f 20/33/49 31/32/50 30/31/27
f 20/33/51 17/30/52 31/32/50
f 18/39/34 25/38/14 32/37/36
f 18/39/38 19/36/12 25/38/14
f 17/41/42 18/39/38 32/37/53
f 17/41/52 32/37/54 31/40/41
f 33/42/55 35/43/56 34/44/57
f 33/42/55 36/45/58 35/43/59
f 37/46/60 33/42/55 34/44/57
f 37/46/61 34/44/62 38/47/63
f 39/48/64 33/42/55 37/46/60
f 39/48/64 40/49/65 33/42/55
f 40/49/65 36/45/66 33/42/67
f 41/50/68 40/49/65 39/48/64
f 41/50/68 42/51/69 40/49/65
f 42/51/70 43/52/71 40/49/72
f 40/49/65 43/52/73 36/45/66
f 42/51/70 44/53/74 43/52/73
f 45/54/75 44/53/76 42/51/70
f 45/54/75 46/55/77 44/53/76
f 47/56/78 42/51/79 41/50/68
f 47/56/78 45/54/75 42/51/80
f 48/57/81 45/54/82 47/56/83
f 48/57/81 49/58/84 45/54/82
f 49/58/84 46/55/85 45/54/82
f 49/58/86 50/59/87 46/55/88
f 36/60/89 51/61/90 35/62/91
f 36/60/92 52/63/93 51/61/94
f 52/63/95 53/64/96 51/61/97
f 52/63/98 54/65/99 53/64/100
f 55/66/101 54/65/102 52/63/103
f 55/66/104 56/67/105 54/65/102
f 57/68/106 56/67/105 55/66/104
f 57/68/107 58/69/108 56/67/105
f 44/70/109 57/68/106 55/66/104
f 44/70/109 55/66/110 43/71/111
f 43/71/111 52/63/112 36/60/113
f 43/71/111 55/66/104 52/63/114
f 46/72/115 57/68/107 44/70/109
f 46/72/115 59/73/116 57/68/117
f 59/73/118 58/69/119 57/68/106
f 59/73/116 60/74/120 58/69/119
f 61/75/121 60/74/122 59/73/123
f 61/75/124 62/76/125 60/74/126
f 50/77/127 59/73/128 46/72/129
f 50/77/87 61/75/130 59/73/131
f 54/45/132 63/44/133 53/43/134
f 54/45/135 64/42/136 63/44/137
f 64/42/138 65/47/139 63/44/140
f 64/42/141 66/46/142 65/47/143
f 67/49/144 66/46/145 64/42/136
f 67/49/144 68/48/146 66/46/145
f 69/78/147 68/48/146 67/49/144
f 69/78/148 70/50/149 68/48/146
f 58/79/150 69/78/148 67/49/144
f 58/79/150 67/49/144 56/52/151
f 56/52/151 64/42/136 54/45/152
f 56/52/151 67/49/144 64/42/136
f 60/55/153 69/78/148 58/79/154
f 60/55/153 71/54/155 69/78/148
f 71/54/155 70/50/149 69/78/148
f 71/54/155 72/56/156 70/50/149
f 73/58/157 72/56/158 71/54/159
f 73/58/160 74/57/161 72/56/156
f 62/59/162 71/54/163 60/55/120
f 62/59/164 73/58/165 71/54/155
f 66/65/166 75/61/167 65/64/168
f 66/65/145 76/63/169 75/61/170
f 76/63/171 38/62/63 75/61/172
f 76/63/171 37/60/60 38/62/173
f 77/66/174 37/60/175 76/63/169
f 77/66/176 39/71/177 37/60/178
f 78/80/179 39/71/64 77/66/180
f 78/80/181 41/70/182 39/71/177
f 70/81/183 78/80/179 77/66/180
f 70/81/184 77/66/185 68/67/186
f 68/67/186 76/63/187 66/65/188
f 68/67/186 77/66/174 76/63/171
f 72/74/189 78/80/179 70/81/184
f 72/74/189 79/73/190 78/80/179
f 79/73/190 41/70/191 78/80/179
f 79/73/190 47/72/192 41/70/191
f 80/75/193 47/72/194 79/73/195
f 80/75/196 48/77/197 47/72/198
f 74/76/199 79/73/200 72/74/158
f 74/76/201 80/75/202 79/73/203
f 35/82/204 38/83/205 34/84/206
f 38/83/205 35/82/207 51/85/208
f 38/83/209 51/85/210 75/86/211
f 75/86/212 51/85/213 53/87/214
f 75/86/215 53/87/216 65/88/217
f 65/88/218 53/87/219 63/89/220
f 48/90/221 50/91/222 49/92/84
f 50/91/223 48/90/224 80/93/225
f 50/91/87 80/93/226 61/94/227
f 61/94/130 80/93/226 74/95/228
f 61/94/229 74/95/230 62/96/231
f 62/96/232 74/95/233 73/97/234
f 81/98/27 83/99/27 82/100/27
f 81/98/27 84/101/27 83/99/27
f 85/102/235 87/103/235 86/104/235
f 85/102/235 88/105/235 87/103/235
f 89/106/21 91/107/21 90/108/21
f 89/106/21 92/109/21 91/107/21
f 93/109/53 95/108/53 94/107/53
f 93/109/53 96/106/53 95/108/53
f 97/101/13 99/100/13 98/99/13
f 97/101/13 100/98/13 99/100/13
f 89/110/236 84/101/236 101/111/236
f 92/110/237 102/111/237 97/101/237
f 100/98/238 103/112/238 93/113/238
f 81/98/239 96/113/239 104/112/239
f 90/114/240 88/115/240 83/99/240
f 91/114/241 98/99/241 87/115/241
f 99/100/242 94/116/242 86/117/242
f 82/100/243 85/117/243 95/116/243
f 101/118/244 92/109/244 89/106/244
f 101/118/244 102/119/244 92/109/244
f 102/111/245 100/98/245 97/101/245
f 102/111/245 103/112/245 100/98/245
f 84/101/246 104/112/246 101/111/246
f 84/101/246 81/98/246 104/112/246
f 96/106/247 103/119/247 104/118/247
f 96/106/247 93/109/247 103/119/247
f 90/108/248 87/120/248 88/121/248
f 90/108/248 91/107/248 87/120/248
f 98/99/249 86/117/249 87/115/249
f 98/99/250 99/100/250 86/117/250
f 88/115/251 82/100/251 83/99/251
f 88/115/251 85/117/251 82/100/251
f 85/121/252 94/107/252 95/108/252
f 85/121/252 86/120/252 94/107/252
f 97/101/253 91/114/253 92/110/253
f 97/101/254 98/99/254 91/114/254
f 83/99/255 89/110/255 90/114/255
f 83/99/256 84/101/256 89/110/256
f 93/113/257 99/100/257 100/98/257
f 93/113/257 94/116/257 99/100/257
f 95/116/258 81/98/258 82/100/258
f 95/116/259 96/113/259 81/98/259
f 105/122/260 102/103/260 101/105/260
f 105/122/260 106/123/260 102/103/260
f 106/123/260 103/104/260 102/103/260
f 106/123/260 107/124/260 103/104/260
f 108/125/260 105/122/260 101/105/260
f 108/125/260 101/105/260 104/102/260
f 107/124/260 104/102/260 103/104/260
f 107/124/260 108/125/260 104/102/260
f 109/125/260 111/123/260 110/122/260
f 109/125/260 112/124/260 111/123/260
f 113/126/27 115/127/27 114/128/27
f 113/126/27 116/129/27 115/127/27
f 107/130/13 111/131/13 112/132/13
f 107/130/13 106/133/13 111/131/13
f 105/133/27 109/132/27 110/131/27
f 105/133/27 108/130/27 109/132/27
f 108/134/53 112/135/53 109/136/53
f 108/134/53 107/137/53 112/135/53
f 117/138/21 106/137/21 105/134/21
f 117/138/21 116/139/21 106/137/21
f 116/139/21 111/135/21 106/137/21
f 116/139/21 113/140/21 111/135/21
f 113/141/21 110/142/21 111/143/21
f 113/141/21 118/144/21 110/142/21
f 118/144/21 105/145/21 110/142/21
f 118/144/21 117/146/21 105/145/21
f 115/139/21 119/147/21 114/140/21
f 115/139/21 120/138/21 119/147/21
f 116/148/260 120/149/260 115/150/260
f 116/148/260 117/151/260 120/149/260
f 118/151/235 114/150/235 119/149/235
f 118/151/235 113/148/235 114/150/235
f 117/152/13 119/153/13 120/154/13
f 117/152/13 118/155/13 119/153/13
