# Blender 4.1.0
# www.blender.org
mtllib MeshShelvingUnit_319_0.mtl
o ShelvingUnit_319
v 0.539566 0.114573 -0.509943
v 0.539566 -0.111339 -0.510021
v -0.400686 -0.111339 -0.510021
v -0.400686 0.114573 -0.509943
v 0.539566 0.119881 -0.526113
v 0.539566 0.119878 -0.515243
v -0.400686 0.119878 -0.515243
v -0.400686 0.119881 -0.526113
v 0.544868 -0.111465 -0.146292
v 0.544868 -0.111469 -0.135421
v 0.544868 0.114443 -0.135343
v 0.544868 0.114447 -0.146213
v -0.405988 0.114579 -0.526115
v -0.405988 0.114575 -0.515245
v -0.405988 -0.111337 -0.515323
v -0.405988 -0.111333 -0.526193
v 0.539566 -0.116638 -0.515325
v 0.539566 -0.116634 -0.526195
v -0.400686 -0.116634 -0.526195
v -0.400686 -0.116638 -0.515325
v 0.539566 -0.111331 -0.531495
v 0.539566 0.114581 -0.531417
v -0.400686 0.114581 -0.531417
v -0.400686 -0.111331 -0.531495
v 0.539566 0.114443 -0.130042
v 0.539566 -0.111471 -0.130120
v -0.547901 -0.111471 -0.130120
v -0.547901 0.114443 -0.130042
v 0.539566 0.119750 -0.146212
v 0.539566 0.119746 -0.135341
v -0.547901 0.119746 -0.135341
v -0.547901 0.119750 -0.146212
v 0.544868 -0.111560 0.132901
v 0.544868 -0.111564 0.143772
v 0.544868 0.114348 0.143850
v 0.544868 0.114352 0.132980
v -0.553203 0.114447 -0.146213
v -0.553203 0.114443 -0.135343
v -0.553203 -0.111469 -0.135421
v -0.553203 -0.111465 -0.146292
v 0.539566 -0.116769 -0.135423
v 0.539566 -0.116765 -0.146293
v -0.547901 -0.116765 -0.146293
v -0.547901 -0.116769 -0.135423
v 0.539566 -0.111463 -0.151593
v 0.539566 0.114449 -0.151515
v -0.547901 0.114449 -0.151515
v -0.547901 -0.111463 -0.151593
v 0.539566 0.114346 0.149151
v 0.539566 -0.111568 0.149073
v -0.399356 -0.111568 0.149073
v -0.399356 0.114346 0.149151
v 0.539566 0.119652 0.132981
v 0.539566 0.119649 0.143852
v -0.399356 0.119649 0.143852
v -0.399356 0.119652 0.132981
v -0.385377 -0.111324 -0.553533
v -0.374507 -0.111324 -0.553533
v -0.374507 0.114588 -0.553455
v -0.385377 0.114588 -0.553455
v -0.404658 0.114352 0.132980
v -0.404658 0.114348 0.143850
v -0.404658 -0.111564 0.143772
v -0.404658 -0.111560 0.132901
v 0.539566 -0.116866 0.143770
v 0.539566 -0.116863 0.132900
v -0.399356 -0.116863 0.132900
v -0.399356 -0.116866 0.143770
v 0.539566 -0.111558 0.127600
v 0.539566 0.114354 0.127678
v -0.399356 0.114354 0.127678
v -0.399356 -0.111558 0.127600
v -0.369205 0.114587 -0.548153
v -0.369205 -0.111326 -0.548231
v -0.369205 -0.111621 0.310898
v -0.369205 0.114291 0.310976
v -0.385377 0.119889 -0.548151
v -0.374507 0.119889 -0.548151
v -0.374507 0.119591 0.310978
v -0.385377 0.119591 0.310978
v 0.137042 -0.111469 -0.137219
v 0.147912 -0.111469 -0.137219
v 0.147912 0.114445 -0.137141
v 0.137042 0.114445 -0.137141
v -0.385377 0.114289 0.316278
v -0.374507 0.114289 0.316278
v -0.374507 -0.111625 0.316200
v -0.385377 -0.111625 0.316200
v -0.374507 -0.116626 -0.548233
v -0.385377 -0.116626 -0.548233
v -0.385377 -0.116924 0.310896
v -0.374507 -0.116924 0.310896
v -0.390678 -0.111326 -0.548231
v -0.390678 0.114587 -0.548153
v -0.390678 0.114291 0.310976
v -0.390678 -0.111621 0.310898
v 0.153214 0.114443 -0.131839
v 0.153214 -0.111469 -0.131917
v 0.153214 -0.111669 0.444162
v 0.153214 0.114243 0.444241
v 0.137042 0.119744 -0.131837
v 0.147912 0.119744 -0.131837
v 0.147912 0.119546 0.444242
v 0.137042 0.119546 0.444242
v -0.089450 -0.111326 -0.547782
v -0.078580 -0.111326 -0.547782
v -0.078580 0.114587 -0.547704
v -0.089450 0.114587 -0.547704
v 0.137042 0.114243 0.449542
v 0.147912 0.114243 0.449542
v 0.147912 -0.111671 0.449464
v 0.137042 -0.111671 0.449464
v 0.147912 -0.116771 -0.131919
v 0.137042 -0.116771 -0.131919
v 0.137042 -0.116969 0.444161
v 0.147912 -0.116969 0.444161
v 0.131740 -0.111469 -0.131917
v 0.131740 0.114443 -0.131839
v 0.131740 0.114243 0.444241
v 0.131740 -0.111669 0.444162
v -0.073278 0.114585 -0.542403
v -0.073278 -0.111327 -0.542481
v -0.073278 -0.111463 -0.151466
v -0.073278 0.114449 -0.151388
v -0.089450 0.119887 -0.542401
v -0.078580 0.119887 -0.542401
v -0.078580 0.119752 -0.151386
v -0.089450 0.119752 -0.151386
v 0.378605 -0.111326 -0.547782
v 0.389476 -0.111326 -0.547782
v 0.389476 0.114587 -0.547704
v 0.378605 0.114587 -0.547704
v -0.089450 0.114447 -0.146087
v -0.078580 0.114447 -0.146087
v -0.078580 -0.111465 -0.146165
v -0.089450 -0.111465 -0.146165
v -0.078580 -0.116630 -0.542482
v -0.089450 -0.116630 -0.542482
v -0.089450 -0.116763 -0.151468
v -0.078580 -0.116763 -0.151468
v -0.094752 -0.111327 -0.542481
v -0.094752 0.114585 -0.542403
v -0.094752 0.114449 -0.151388
v -0.094752 -0.111463 -0.151466
v 0.394777 0.114585 -0.542403
v 0.394777 -0.111327 -0.542481
v 0.394777 -0.111463 -0.151466
v 0.394777 0.114449 -0.151388
v 0.378605 0.119887 -0.542401
v 0.389476 0.119887 -0.542401
v 0.389476 0.119752 -0.151386
v 0.378606 0.119752 -0.151386
v 0.341199 -0.111650 0.390632
v 0.341199 -0.111654 0.401502
v 0.341199 0.114258 0.401580
v 0.341199 0.114262 0.390710
v 0.378606 0.114447 -0.146087
v 0.389476 0.114447 -0.146087
v 0.389476 -0.111465 -0.146165
v 0.378606 -0.111465 -0.146165
v 0.389476 -0.116630 -0.542482
v 0.378605 -0.116630 -0.542482
v 0.378606 -0.116763 -0.151468
v 0.389476 -0.116763 -0.151468
v 0.373304 -0.111327 -0.542481
v 0.373304 0.114585 -0.542403
v 0.373304 0.114449 -0.151388
v 0.373304 -0.111463 -0.151466
v 0.335897 0.114257 0.406882
v 0.335897 -0.111656 0.406803
v -0.011238 -0.111656 0.406803
v -0.011238 0.114257 0.406882
v 0.335897 0.119563 0.390712
v 0.335897 0.119559 0.401582
v -0.011238 0.119559 0.401582
v -0.011238 0.119563 0.390712
v -0.016539 0.114262 0.390710
v -0.016539 0.114258 0.401580
v -0.016539 -0.111654 0.401502
v -0.016539 -0.111650 0.390632
v 0.335897 -0.116956 0.401500
v 0.335897 -0.116952 0.390630
v -0.011238 -0.116952 0.390630
v -0.011238 -0.116956 0.401500
v 0.335897 -0.111648 0.385330
v 0.335897 0.114264 0.385408
v -0.011238 0.114264 0.385408
v -0.011238 -0.111648 0.385330
v 0.544868 -0.111337 -0.515323
v 0.544868 -0.111333 -0.526193
v 0.544868 0.114575 -0.515245
v 0.544868 0.114579 -0.526115
vn -0.0000 -0.0003 1.0000
vn -0.0000 1.0000 0.0004
vn 1.0000 -0.0000 -0.0000
vn -1.0000 -0.0000 -0.0000
vn -0.0000 -1.0000 -0.0003
vn -0.0000 -1.0000 -0.0004
vn -0.0000 0.0003 -1.0000
vn -0.0000 1.0000 0.0003
vn 0.5773 -0.5774 0.5774
vn -0.5772 -0.5774 0.5775
vn 0.5773 -0.5772 -0.5775
vn -0.5773 -0.5772 -0.5775
vn 0.5774 0.5771 0.5776
vn -0.5774 0.5771 0.5776
vn 0.5774 0.5775 -0.5772
vn -0.5774 0.5775 -0.5772
vn 0.5773 -0.5776 0.5771
vn -0.5776 -0.5777 0.5767
vn 0.5775 0.5772 0.5774
vn -0.5774 0.5772 0.5775
vn 0.5771 0.5775 -0.5775
vn 0.5775 -0.5776 0.5770
vn -0.5775 -0.5776 0.5770
vn 0.5772 -0.5770 -0.5779
vn -0.5774 -0.5771 -0.5776
vn 0.5773 0.5772 0.5775
vn -0.5773 0.5772 0.5775
vn 0.5772 0.5773 -0.5776
vn -0.5771 0.5774 -0.5776
vn -0.5773 -0.5770 -0.5778
vn -0.5771 -0.5775 0.5774
vn 0.5775 0.5777 -0.5769
vn -0.5775 0.5777 -0.5768
vn 0.5773 -0.5771 -0.5777
vn 0.5772 -0.5773 0.5776
vn -0.5775 -0.5772 -0.5774
vn -0.5771 -0.5773 0.5776
vn 0.5772 0.5774 -0.5775
vn 0.5772 0.5771 0.5777
vn -0.5772 0.5774 -0.5775
vn -0.5775 0.5772 0.5774
vn 0.5774 -0.5771 -0.5776
vn 0.5772 -0.5774 0.5774
vn -0.5773 -0.5776 0.5771
vn -0.5772 0.5770 0.5779
vn -0.5772 -0.5774 0.5774
vn -0.5773 0.5771 0.5776
vn 0.5774 -0.5775 0.5772
vn -0.5772 -0.5773 0.5776
vn 0.5775 -0.5773 -0.5773
vn -0.5775 -0.5772 -0.5773
vn 0.5773 0.5769 0.5778
vn 0.5775 0.5778 -0.5767
vn -0.5776 0.5777 -0.5767
vn 0.7070 -0.7072 -0.0002
vn -0.0000 -0.7074 0.7068
vn -0.7070 -0.7072 -0.0002
vn -0.7071 -0.7071 0.0001
vn -0.0000 -0.7069 -0.7073
vn 0.7071 0.0002 -0.7071
vn -0.7071 0.0002 -0.7071
vn -0.0000 0.7073 -0.7069
vn -0.0000 0.7076 -0.7066
vn 0.7072 0.7070 0.0002
vn -0.7072 0.7070 0.0002
vn -0.0000 0.7068 0.7074
vn -0.0000 0.7070 0.7072
vn 0.7071 -0.0002 0.7071
vn -0.7071 -0.0002 0.7071
vn 0.7072 -0.7071 0.0001
vn -0.0000 -0.7066 -0.7076
vn 0.7071 0.7071 -0.0001
vn -0.7071 0.7071 0.0002
vn -0.0000 0.7069 0.7073
vn 0.7072 -0.7070 -0.0002
vn -0.7072 -0.7070 -0.0002
vn -0.0000 -0.7068 -0.7074
vn -0.0000 0.7078 -0.7064
vn -0.0000 0.7071 -0.7071
vn 0.7070 0.7072 0.0002
vn -0.7071 0.7071 0.0006
vn -0.7073 0.7070 -0.0001
vn -0.7070 0.7072 0.0002
vn -0.0000 0.7075 -0.7067
vn -0.0000 0.7070 -0.7073
vn 0.7069 -0.7073 -0.0002
vn -0.0000 0.7074 -0.7068
vn 0.7073 0.7069 0.0002
vn -0.0000 -0.7071 0.7071
vn 0.7071 -0.7071 -0.0002
vn -0.0000 -0.7073 0.7069
vn -0.7072 -0.7071 -0.0002
vn 0.7071 0.7071 0.0006
vn -0.7071 0.7071 -0.0002
vt 0.049052 0.434554
vt -0.421074 0.321597
vt 0.049052 0.321597
vt -0.421074 0.434553
vt 0.049052 0.511577
vt -0.421074 0.517012
vt 0.049052 0.517012
vt -0.421074 0.511577
vt 0.321597 0.701528
vt 0.434554 0.706963
vt 0.321597 0.706963
vt 0.434554 0.701528
vt 0.434553 0.511577
vt 0.321597 0.517012
vt 0.434553 0.517012
vt 0.321597 0.511577
vt -0.494682 0.321597
vt -0.494682 0.434553
vt 0.049052 0.701528
vt -0.494682 0.706963
vt 0.049052 0.706963
vt -0.494682 0.701528
vt 0.321597 0.841124
vt 0.434554 0.846559
vt 0.321597 0.846559
vt 0.434554 0.841124
vt 0.434553 0.701528
vt 0.434553 0.706963
vt -0.420409 0.321597
vt -0.420409 0.434553
vt 0.049052 0.841124
vt -0.420409 0.846559
vt 0.049052 0.846559
vt -0.420409 0.841124
vt 0.586580 0.321597
vt 0.592015 0.434554
vt 0.592015 0.321597
vt 0.586580 0.434554
vt 0.434553 0.841124
vt 0.434553 0.846559
vt 0.434554 0.500558
vt 0.321597 0.930123
vt 0.321597 0.500558
vt 0.434553 0.930123
vt 0.586580 0.500558
vt 0.592015 0.930123
vt 0.592015 0.500558
vt 0.586580 0.930123
vt 0.847790 0.321597
vt 0.853225 0.434554
vt 0.853225 0.321597
vt 0.847790 0.434554
vt 0.586580 0.434553
vt 0.592015 0.434553
vt 0.434554 0.708715
vt 0.321597 0.996755
vt 0.321597 0.708715
vt 0.434553 0.996755
vt 0.847790 0.708715
vt 0.853225 0.996755
vt 0.853225 0.708715
vt 0.847790 0.996755
vt 0.734544 0.321597
vt 0.739979 0.434554
vt 0.739979 0.321597
vt 0.734544 0.434554
vt 0.847790 0.434553
vt 0.853225 0.434553
vt 0.434554 0.503433
vt 0.321597 0.698940
vt 0.321597 0.503433
vt 0.434553 0.698940
vt 0.734544 0.503433
vt 0.739979 0.698940
vt 0.739979 0.503433
vt 0.734544 0.698940
vt 0.968571 0.321597
vt 0.974006 0.434554
vt 0.974006 0.321597
vt 0.968571 0.434554
vt 0.734544 0.434553
vt 0.739979 0.434553
vt 0.968571 0.503433
vt 0.974006 0.698940
vt 0.974006 0.503433
vt 0.968571 0.698940
vt 0.321597 0.969989
vt 0.434554 0.975425
vt 0.321597 0.975425
vt 0.434554 0.969989
vt 0.968571 0.434553
vt 0.974006 0.434553
vt 0.947217 0.434554
vt 0.773650 0.321597
vt 0.947217 0.321597
vt 0.773650 0.434553
vt 0.947217 0.969989
vt 0.773650 0.975425
vt 0.947217 0.975425
vt 0.773650 0.969989
vt 0.434553 0.969989
vt 0.434553 0.975425
vt 0.321597 0.519663
vt 0.318947 0.517012
vt 0.318947 0.511577
vt 0.321597 0.508926
vt 0.434554 0.517012
vt 0.437204 0.517012
vt 0.434554 0.519663
vt 0.434553 0.519663
vt 0.434554 0.511577
vt 0.434554 0.508926
vt 0.437204 0.511577
vt 0.434553 0.508926
vt 0.051703 0.321597
vt 0.049052 0.318947
vt 0.505318 0.321597
vt 0.502667 0.321597
vt 0.505318 0.318947
vt 0.051703 0.434554
vt 0.049052 0.437204
vt 0.502667 0.434553
vt 0.505318 0.434553
vt 0.505318 0.437204
vt 0.579591 0.321597
vt 0.576940 0.321597
vt 0.579591 0.318947
vt 0.576940 0.434553
vt 0.579591 0.434553
vt 0.579591 0.437204
vt 0.321597 0.497907
vt 0.318947 0.500558
vt 0.594666 0.321597
vt 0.592015 0.318947
vt 0.583929 0.321597
vt 0.586580 0.318947
vt 0.434554 0.497907
vt 0.437204 0.500558
vt 0.594666 0.434553
vt 0.592015 0.437204
vt 0.586580 0.437204
vt 0.583929 0.434553
vt 0.855876 0.321597
vt 0.853225 0.318947
vt 0.855876 0.996755
vt 0.853225 0.999406
vt 0.847790 0.318947
vt 0.845139 0.321597
vt 0.847790 0.999406
vt 0.845139 0.996755
vt 0.853225 0.437204
vt 0.855876 0.434554
vt 0.845139 0.434554
vt 0.847790 0.437204
vt 0.742630 0.321597
vt 0.739979 0.318947
vt 0.734544 0.318947
vt 0.731893 0.321597
vt 0.739979 0.437204
vt 0.742630 0.434554
vt 0.742630 0.434553
vt 0.731893 0.434554
vt 0.734544 0.437204
vt 0.731893 0.434553
vt 0.321597 0.500782
vt 0.318947 0.503433
vt 0.976657 0.321597
vt 0.974006 0.318947
vt 0.965921 0.321597
vt 0.968571 0.318947
vt 0.434554 0.500782
vt 0.437204 0.503433
vt 0.976657 0.434553
vt 0.974006 0.437204
vt 0.968571 0.437204
vt 0.965921 0.434553
vt 0.949868 0.321597
vt 0.947217 0.318947
vt 0.770999 0.321597
vt 0.773650 0.318947
vt 0.949868 0.434554
vt 0.947217 0.437204
vt 0.770999 0.434553
vt 0.773650 0.437204
vt -0.421074 0.318947
vt 0.578926 0.321597
vt 1.049052 0.318947
vt 0.578926 0.318947
vt 1.049052 0.321597
vt 0.578926 0.437204
vt 1.049052 0.434554
vt 0.578926 0.434553
vt 1.049052 0.437204
vt 0.318947 0.706963
vt 0.318947 0.701528
vt -0.494682 0.318947
vt 0.437204 0.701528
vt 0.437204 0.706963
vt 0.318947 0.846559
vt 0.318947 0.841124
vt -0.420409 0.318947
vt 0.437204 0.841124
vt 0.437204 0.846559
vt 0.318947 0.930123
vt 0.437204 0.930123
vt 0.318947 0.996755
vt 0.318947 0.708715
vt 0.321597 0.999406
vt 0.434553 0.999406
vt 0.845139 0.708715
vt 0.855876 0.708715
vt 0.742630 0.503433
vt 0.742630 0.698940
vt 0.731893 0.698940
vt 0.731893 0.503433
vt 0.318947 0.698940
vt 0.437204 0.698940
vt 0.318947 0.975425
vt 0.318947 0.969989
vt 0.770999 0.975425
vt 0.770999 0.969989
vt 0.437204 0.969989
vt 0.437204 0.975425
s 1
usemtl M_ShelvingUnit_319_0
f 1/1/1 3/2/1 2/3/1
f 1/1/1 4/4/1 3/2/1
f 5/5/2 7/6/2 6/7/2
f 5/5/2 8/8/2 7/6/2
f 9/9/3 11/10/3 10/11/3
f 9/9/3 12/12/3 11/10/3
f 13/13/4 15/14/4 14/15/4
f 13/13/4 16/16/4 15/14/4
f 17/7/5 19/8/5 18/5/5
f 17/7/6 20/6/6 19/8/6
f 21/3/7 23/4/7 22/1/7
f 21/3/7 24/2/7 23/4/7
f 25/1/1 27/17/1 26/3/1
f 25/1/1 28/18/1 27/17/1
f 29/19/2 31/20/2 30/21/2
f 29/19/2 32/22/2 31/20/2
f 33/23/3 35/24/3 34/25/3
f 33/23/3 36/26/3 35/24/3
f 37/27/4 39/11/4 38/28/4
f 37/27/4 40/9/4 39/11/4
f 41/21/6 43/22/6 42/19/6
f 41/21/6 44/20/6 43/22/6
f 45/3/7 47/18/7 46/1/7
f 45/3/7 48/17/7 47/18/7
f 49/1/1 51/29/1 50/3/1
f 49/1/1 52/30/1 51/29/1
f 53/31/2 55/32/2 54/33/2
f 53/31/2 56/34/2 55/32/2
f 57/35/7 59/36/7 58/37/7
f 57/35/7 60/38/7 59/36/7
f 61/39/4 63/25/4 62/40/4
f 61/39/4 64/23/4 63/25/4
f 65/33/6 67/34/6 66/31/6
f 65/33/6 68/32/6 67/34/6
f 69/3/7 71/30/7 70/1/7
f 69/3/7 72/29/7 71/30/7
f 73/41/3 75/42/3 74/43/3
f 73/41/3 76/44/3 75/42/3
f 77/45/8 79/46/8 78/47/8
f 77/45/8 80/48/8 79/46/8
f 81/49/7 83/50/7 82/51/7
f 81/49/7 84/52/7 83/50/7
f 85/53/1 87/37/1 86/54/1
f 85/53/1 88/35/1 87/37/1
f 89/47/5 91/48/5 90/45/5
f 89/47/5 92/46/5 91/48/5
f 93/43/4 95/44/4 94/41/4
f 93/43/4 96/42/4 95/44/4
f 97/55/3 99/56/3 98/57/3
f 97/55/3 100/58/3 99/56/3
f 101/59/8 103/60/8 102/61/8
f 101/59/8 104/62/8 103/60/8
f 105/63/7 107/64/7 106/65/7
f 105/63/7 108/66/7 107/64/7
f 109/67/1 111/51/1 110/68/1
f 109/67/1 112/49/1 111/51/1
f 113/61/5 115/62/5 114/59/5
f 113/61/5 116/60/5 115/62/5
f 117/57/4 119/58/4 118/55/4
f 117/57/4 120/56/4 119/58/4
f 121/69/3 123/70/3 122/71/3
f 121/69/3 124/72/3 123/70/3
f 125/73/8 127/74/8 126/75/8
f 125/73/8 128/76/8 127/74/8
f 129/77/7 131/78/7 130/79/7
f 129/77/7 132/80/7 131/78/7
f 133/81/1 135/65/1 134/82/1
f 133/81/1 136/63/1 135/65/1
f 137/75/5 139/76/5 138/73/5
f 137/75/5 140/74/5 139/76/5
f 141/71/4 143/72/4 142/69/4
f 141/71/4 144/70/4 143/72/4
f 145/69/3 147/70/3 146/71/3
f 145/69/3 148/72/3 147/70/3
f 149/83/8 151/84/8 150/85/8
f 149/83/8 152/86/8 151/84/8
f 153/87/3 155/88/3 154/89/3
f 153/87/3 156/90/3 155/88/3
f 157/91/1 159/79/1 158/92/1
f 157/91/1 160/77/1 159/79/1
f 161/85/5 163/86/5 162/83/5
f 161/85/5 164/84/5 163/86/5
f 165/71/4 167/72/4 166/69/4
f 165/71/4 168/70/4 167/72/4
f 169/93/1 171/94/1 170/95/1
f 169/93/1 172/96/1 171/94/1
f 173/97/2 175/98/2 174/99/2
f 173/97/2 176/100/2 175/98/2
f 177/101/4 179/89/4 178/102/4
f 177/101/4 180/87/4 179/89/4
f 181/99/5 183/100/5 182/97/5
f 181/99/6 184/98/6 183/100/6
f 185/95/7 187/96/7 186/93/7
f 185/95/7 188/94/7 187/96/7
f 189/14/9 2/103/9 17/104/9
f 3/103/10 15/14/10 20/104/10
f 190/16/11 18/105/11 21/106/11
f 16/16/12 24/106/12 19/105/12
f 191/107/13 6/108/13 1/109/13
f 14/15/14 4/110/14 7/108/14
f 192/111/15 22/112/15 5/113/15
f 13/13/16 8/113/16 23/114/16
f 10/115/17 26/3/17 41/116/17
f 27/117/18 39/118/18 44/119/18
f 9/115/11 42/116/11 45/3/11
f 40/118/12 48/117/12 43/119/12
f 11/120/19 30/121/19 25/1/19
f 38/122/20 28/123/20 31/124/20
f 12/120/21 46/1/21 29/121/21
f 37/122/16 32/124/16 47/123/16
f 34/115/22 50/3/22 65/116/22
f 51/125/23 63/126/23 68/127/23
f 33/115/24 66/116/24 69/3/24
f 64/126/25 72/125/25 67/127/25
f 35/120/26 54/121/26 49/1/26
f 62/128/27 52/129/27 55/130/27
f 36/120/28 70/1/28 53/121/28
f 61/128/29 56/130/29 71/129/29
f 58/131/11 74/43/11 89/132/11
f 75/133/22 87/37/22 92/134/22
f 57/131/30 90/132/30 93/43/30
f 88/35/31 96/135/31 91/136/31
f 59/137/32 78/138/32 73/41/32
f 86/54/26 76/139/26 79/140/26
f 60/137/33 94/41/33 77/138/33
f 85/53/27 80/141/27 95/142/27
f 82/51/34 98/143/34 113/144/34
f 99/145/35 111/146/35 116/60/35
f 81/49/36 114/147/36 117/148/36
f 112/149/37 120/150/37 115/62/37
f 83/50/38 102/151/38 97/152/38
f 110/146/39 100/145/39 103/60/39
f 84/52/40 118/153/40 101/154/40
f 109/149/41 104/62/41 119/150/41
f 106/65/42 122/155/42 137/156/42
f 123/155/43 135/65/43 140/156/43
f 105/63/25 138/157/25 141/158/25
f 136/63/44 144/158/44 139/157/44
f 107/64/15 126/159/15 121/160/15
f 134/82/13 124/161/13 127/159/13
f 108/66/16 142/162/16 125/163/16
f 133/81/45 128/163/45 143/164/45
f 130/165/42 146/71/42 161/166/42
f 147/167/17 159/79/17 164/168/17
f 129/165/25 162/166/25 165/71/25
f 160/77/46 168/169/46 163/170/46
f 131/171/15 150/172/15 145/69/15
f 158/92/13 148/173/13 151/174/13
f 132/171/16 166/69/16 149/172/16
f 157/91/47 152/175/47 167/176/47
f 154/177/48 170/95/48 181/178/48
f 171/94/49 179/179/49 184/180/49
f 153/177/50 182/178/50 185/95/50
f 180/179/51 188/94/51 183/180/51
f 155/181/52 174/182/52 169/93/52
f 178/183/27 172/96/27 175/184/27
f 156/181/53 186/93/53 173/182/53
f 177/183/54 176/184/54 187/96/54
f 190/16/55 17/104/55 18/105/55
f 190/16/55 189/14/55 17/104/55
f 2/3/56 20/185/56 17/116/56
f 2/3/56 3/2/56 20/185/56
f 15/14/57 19/105/57 20/104/57
f 15/14/58 16/16/58 19/105/58
f 24/186/59 18/187/59 19/188/59
f 24/186/59 21/189/59 18/187/59
f 192/111/60 21/106/60 22/112/60
f 192/111/60 190/16/60 21/106/60
f 16/16/61 23/114/61 24/106/61
f 16/16/61 13/13/61 23/114/61
f 8/190/62 22/191/62 23/192/62
f 8/190/63 5/193/63 22/191/63
f 191/107/64 5/113/64 6/108/64
f 191/107/64 192/111/64 5/113/64
f 13/13/65 7/108/65 8/113/65
f 13/13/65 14/15/65 7/108/65
f 4/192/66 6/193/66 7/190/66
f 4/192/67 1/191/67 6/193/67
f 189/14/68 1/109/68 2/103/68
f 189/14/68 191/107/68 1/109/68
f 14/15/69 3/103/69 4/110/69
f 14/15/69 15/14/69 3/103/69
f 9/9/55 41/194/55 42/195/55
f 9/9/70 10/11/70 41/194/70
f 26/3/56 44/196/56 41/116/56
f 26/3/56 27/17/56 44/196/56
f 39/11/57 43/195/57 44/194/57
f 39/11/57 40/9/57 43/195/57
f 48/117/71 42/187/71 43/119/71
f 48/117/59 45/189/59 42/187/59
f 12/120/60 45/3/60 46/1/60
f 12/120/60 9/115/60 45/3/60
f 40/118/61 47/123/61 48/117/61
f 40/118/61 37/122/61 47/123/61
f 32/124/62 46/191/62 47/123/62
f 32/124/62 29/193/62 46/191/62
f 11/10/64 29/197/64 30/198/64
f 11/10/72 12/12/72 29/197/72
f 37/27/73 31/198/73 32/197/73
f 37/27/73 38/28/73 31/198/73
f 28/123/74 30/193/74 31/124/74
f 28/123/74 25/191/74 30/193/74
f 10/115/68 25/1/68 26/3/68
f 10/115/68 11/120/68 25/1/68
f 38/122/69 27/117/69 28/123/69
f 38/122/69 39/118/69 27/117/69
f 33/23/75 65/199/75 66/200/75
f 33/23/75 34/25/75 65/199/75
f 50/3/56 68/201/56 65/116/56
f 50/3/56 51/29/56 68/201/56
f 63/25/76 67/200/76 68/199/76
f 63/25/76 64/23/76 67/200/76
f 72/125/77 66/187/77 67/127/77
f 72/125/77 69/189/77 66/187/77
f 36/120/60 69/3/60 70/1/60
f 36/120/60 33/115/60 69/3/60
f 64/126/61 71/129/61 72/125/61
f 64/126/61 61/128/61 71/129/61
f 56/130/78 70/191/78 71/129/78
f 56/130/79 53/193/79 70/191/79
f 35/24/80 53/202/80 54/203/80
f 35/24/80 36/26/80 53/202/80
f 61/39/81 55/203/81 56/202/81
f 61/39/82 62/40/82 55/203/82
f 52/129/74 54/193/74 55/130/74
f 52/129/74 49/191/74 54/193/74
f 34/115/68 49/1/68 50/3/68
f 34/115/68 35/120/68 49/1/68
f 62/128/69 51/125/69 52/129/69
f 62/128/69 63/126/69 51/125/69
f 57/35/59 89/134/59 90/136/59
f 57/35/59 58/37/59 89/134/59
f 74/43/55 92/204/55 89/132/55
f 74/43/75 75/42/75 92/204/75
f 87/37/56 91/136/56 92/134/56
f 87/37/56 88/35/56 91/136/56
f 96/42/76 90/132/76 91/204/76
f 96/42/57 93/43/57 90/132/57
f 60/137/61 93/43/61 94/41/61
f 60/137/61 57/131/61 93/43/61
f 88/35/69 95/142/69 96/135/69
f 88/35/69 85/53/69 95/142/69
f 80/205/83 94/41/83 95/44/83
f 80/205/65 77/138/65 94/41/65
f 59/36/84 77/141/84 78/140/84
f 59/36/85 60/38/85 77/141/85
f 85/53/74 79/140/74 80/141/74
f 85/53/74 86/54/74 79/140/74
f 76/44/80 78/138/80 79/205/80
f 76/44/64 73/41/64 78/138/64
f 58/131/60 73/41/60 74/43/60
f 58/131/60 59/137/60 73/41/60
f 86/54/68 75/133/68 76/139/68
f 86/54/68 87/37/68 75/133/68
f 81/49/59 113/144/59 114/147/59
f 81/49/59 82/51/59 113/144/59
f 98/57/86 116/206/86 113/207/86
f 98/57/55 99/56/55 116/206/55
f 111/146/56 115/62/56 116/60/56
f 111/146/56 112/149/56 115/62/56
f 120/56/57 114/207/57 115/206/57
f 120/56/76 117/57/76 114/207/76
f 84/52/61 117/148/61 118/153/61
f 84/52/61 81/49/61 117/148/61
f 112/208/69 119/58/69 120/56/69
f 112/208/69 109/209/69 119/58/69
f 104/62/65 118/210/65 119/150/65
f 104/62/83 101/59/83 118/210/83
f 83/50/87 101/154/87 102/151/87
f 83/50/87 84/52/87 101/154/87
f 109/149/74 103/60/74 104/62/74
f 109/149/74 110/146/74 103/60/74
f 100/145/64 102/61/64 103/60/64
f 100/145/88 97/211/88 102/61/88
f 82/51/60 97/152/60 98/143/60
f 82/51/60 83/50/60 97/152/60
f 110/209/68 99/56/68 100/58/68
f 110/209/68 111/208/68 99/56/68
f 105/63/77 137/156/77 138/157/77
f 105/63/77 106/65/77 137/156/77
f 122/212/75 140/74/75 137/75/75
f 122/212/55 123/213/55 140/74/55
f 135/65/89 139/157/89 140/156/89
f 135/65/56 136/63/56 139/157/56
f 144/214/57 138/73/57 139/76/57
f 144/214/76 141/215/76 138/73/76
f 108/66/61 141/158/61 142/162/61
f 108/66/61 105/63/61 141/158/61
f 136/63/69 143/164/69 144/158/69
f 136/63/69 133/81/69 143/164/69
f 128/76/65 142/215/65 143/214/65
f 128/76/65 125/73/65 142/215/65
f 107/64/62 125/163/62 126/159/62
f 107/64/62 108/66/62 125/163/62
f 133/81/66 127/159/66 128/163/66
f 133/81/66 134/82/66 127/159/66
f 124/213/64 126/75/64 127/74/64
f 124/213/64 121/212/64 126/75/64
f 106/65/60 121/160/60 122/155/60
f 106/65/60 107/64/60 121/160/60
f 134/82/68 123/155/68 124/161/68
f 134/82/68 135/65/68 123/155/68
f 129/77/77 161/168/77 162/170/77
f 129/77/77 130/79/77 161/168/77
f 146/71/75 164/216/75 161/166/75
f 146/71/55 147/70/55 164/216/55
f 159/79/56 163/170/56 164/168/56
f 159/79/89 160/77/89 163/170/89
f 168/70/57 162/166/57 163/216/57
f 168/70/76 165/71/76 162/166/76
f 132/171/61 165/71/61 166/69/61
f 132/171/61 129/165/61 165/71/61
f 160/77/69 167/176/69 168/169/69
f 160/77/69 157/91/69 167/176/69
f 152/217/73 166/69/73 167/72/73
f 152/217/65 149/172/65 166/69/65
f 131/78/62 149/175/62 150/174/62
f 131/78/62 132/80/62 149/175/62
f 157/91/66 151/174/66 152/175/66
f 157/91/66 158/92/66 151/174/66
f 148/72/64 150/172/64 151/217/64
f 148/72/64 145/69/64 150/172/64
f 130/165/60 145/69/60 146/71/60
f 130/165/60 131/171/60 145/69/60
f 158/92/68 147/167/68 148/173/68
f 158/92/68 159/79/68 147/167/68
f 153/87/90 181/218/90 182/219/90
f 153/87/90 154/89/90 181/218/90
f 170/95/91 184/180/91 181/178/91
f 170/95/91 171/94/91 184/180/91
f 179/220/92 183/100/92 184/98/92
f 179/220/92 180/221/92 183/100/92
f 188/94/77 182/178/77 183/180/77
f 188/94/77 185/95/77 182/178/77
f 156/181/60 185/95/60 186/93/60
f 156/181/60 153/177/60 185/95/60
f 180/179/61 187/96/61 188/94/61
f 180/179/61 177/183/61 187/96/61
f 176/184/87 186/93/87 187/96/87
f 176/184/87 173/182/87 186/93/87
f 155/88/93 173/222/93 174/223/93
f 155/88/80 156/90/80 173/222/80
f 177/221/94 175/98/94 176/100/94
f 177/221/83 178/220/83 175/98/83
f 172/96/74 174/182/74 175/184/74
f 172/96/74 169/93/74 174/182/74
f 154/177/68 169/93/68 170/95/68
f 154/177/68 155/181/68 169/93/68
f 178/183/69 171/94/69 172/96/69
f 178/183/69 179/179/69 171/94/69
f 190/16/3 191/107/3 189/14/3
f 190/16/3 192/111/3 191/107/3
