# Blender 4.1.0
# www.blender.org
mtllib MeshTissueBox_1_0_GeomSubset_0.mtl
o MeshTissueBox_1_0_GeomSubset_0
v -0.094141 -0.036641 -0.037235
v -0.091285 -0.046637 0.001288
v -0.094141 0.036641 -0.037235
v -0.091285 0.046637 0.001288
v 0.094141 -0.036641 -0.037235
v 0.091285 -0.046637 0.001288
v 0.094141 0.036641 -0.037235
v 0.091285 0.046637 0.001288
v -0.092499 0.036002 -0.035815
v -0.090974 0.046478 -0.074206
v -0.092499 -0.036002 -0.035815
v -0.090974 -0.046478 -0.074206
v 0.092499 0.036002 -0.035815
v 0.090974 0.046478 -0.074206
v 0.092499 -0.036002 -0.035815
v 0.090974 -0.046478 -0.074206
v 0.057014 0.000000 0.000924
v 0.054915 0.009194 0.000924
v 0.054915 -0.009194 0.000924
v 0.049035 0.016567 0.000924
v 0.049035 -0.016567 0.000924
v 0.040539 0.020659 0.000924
v -0.040116 0.020659 0.000924
v 0.040539 -0.020659 0.000924
v -0.040116 -0.020659 0.000924
v -0.056591 0.000000 0.000924
v -0.054492 0.009194 0.000924
v -0.048613 0.016567 0.000924
v -0.048613 -0.016567 0.000924
v -0.054492 -0.009194 0.000924
v -0.089114 -0.046637 -0.077215
v -0.089114 -0.048808 -0.075043
v -0.091285 -0.046637 -0.075043
v -0.089114 -0.048808 0.001288
v -0.089114 -0.046637 0.003459
v -0.091285 -0.046637 0.001288
v -0.089114 0.046637 -0.077215
v -0.091285 0.046637 -0.075043
v -0.089114 0.048808 -0.075043
v -0.089114 0.046637 0.003459
v -0.089114 0.048808 0.001288
v -0.091285 0.046637 0.001288
v 0.089114 -0.046637 -0.077215
v 0.091285 -0.046637 -0.075043
v 0.089114 -0.048808 -0.075043
v 0.089114 -0.046637 0.003459
v 0.089114 -0.048808 0.001288
v 0.091285 -0.046637 0.001288
v 0.089114 0.046637 -0.077215
v 0.089114 0.048808 -0.075043
v 0.091285 0.046637 -0.075043
v 0.089114 0.046637 0.003459
v 0.091285 0.046637 0.001288
v 0.089114 0.048808 0.001288
v -0.055397 -0.009346 0.003459
v -0.049420 -0.016841 0.003459
v -0.049420 0.016841 0.003459
v -0.055397 0.009346 0.003459
v -0.057530 0.000000 0.003459
v -0.040783 -0.021000 0.003459
v 0.041206 -0.021000 0.003459
v -0.040783 0.021000 0.003459
v 0.041206 0.021000 0.003459
v 0.049843 -0.016841 0.003459
v 0.049843 0.016841 0.003459
v 0.055820 -0.009346 0.003459
v 0.055820 0.009346 0.003459
v 0.057953 0.000000 0.003459
v 0.058027 0.000000 -0.002017
v 0.055891 0.009358 -0.002017
v 0.055891 -0.009358 -0.002017
v 0.049907 0.016862 -0.002017
v 0.049907 -0.016862 -0.002017
v 0.041259 0.021027 -0.002017
v -0.040836 0.021027 -0.002017
v 0.041259 -0.021027 -0.002017
v -0.040836 -0.021027 -0.002017
v -0.057604 0.000000 -0.002017
v -0.055468 0.009358 -0.002017
v -0.049484 0.016862 -0.002017
v -0.049484 -0.016862 -0.002017
v -0.055468 -0.009358 -0.002017
v -0.087262 -0.044611 -0.004272
v -0.087262 -0.044611 -0.000432
v -0.087262 0.045079 -0.004272
v -0.087262 0.045079 -0.000432
v 0.087845 -0.044611 -0.004272
v 0.087845 -0.044611 -0.000432
v 0.087845 0.045079 -0.004272
v 0.087845 0.045079 -0.000432
vn 0.9973 -0.0000 0.0739
vn -0.9973 -0.0000 0.0739
vn 0.9992 -0.0000 -0.0397
vn -0.9992 -0.0000 -0.0397
vn 0.5110 -0.0000 0.8596
vn 0.5465 0.2547 0.7978
vn 0.8948 0.4464 0.0114
vn 0.9999 -0.0000 0.0121
vn 0.5465 -0.2548 0.7978
vn 0.8948 -0.4464 0.0114
vn -0.1678 -0.6455 0.7450
vn 0.1677 -0.6455 0.7451
vn 0.1920 -0.9814 0.0061
vn -0.1920 -0.9814 0.0061
vn 0.4031 -0.4822 0.7778
vn 0.6037 -0.7972 0.0093
vn -0.4032 -0.4821 0.7778
vn -0.6036 -0.7972 0.0093
vn 0.4032 0.4821 0.7779
vn 0.6037 0.7972 0.0093
vn -0.1678 0.6456 0.7450
vn -0.4031 0.4822 0.7778
vn -0.6036 0.7972 0.0093
vn -0.1920 0.9814 0.0061
vn -0.5464 0.2548 0.7978
vn -0.5110 -0.0000 0.8596
vn -0.9999 -0.0000 0.0121
vn -0.8948 0.4464 0.0114
vn 0.1678 0.6455 0.7451
vn 0.1920 0.9814 0.0061
vn -0.5465 -0.2547 0.7978
vn -0.8948 -0.4464 0.0114
vn -0.9455 -0.0000 -0.3257
vn -0.8619 0.4026 -0.3085
vn -0.0000 -1.0000 -0.0000
vn 1.0000 -0.0000 -0.0000
vn -0.0000 -0.0000 1.0000
vn -0.0001 -0.0000 1.0000
vn -1.0000 -0.0000 -0.0000
vn -0.0000 1.0000 -0.0000
vn -0.5774 -0.5773 -0.5774
vn -0.5773 0.5774 -0.5774
vn -0.5774 0.5772 0.5774
vn 0.5773 -0.5774 -0.5774
vn 0.5774 0.5773 -0.5774
vn -0.2457 0.9526 -0.1794
vn 0.2457 0.9526 -0.1793
vn -0.8619 -0.4026 -0.3085
vn 0.6188 0.7421 -0.2577
vn -0.6188 -0.7421 -0.2578
vn 0.8619 0.4026 -0.3084
vn 0.9455 -0.0000 -0.3257
vn -0.6188 0.7421 -0.2578
vn 0.8619 -0.4026 -0.3084
vn 0.2457 -0.9526 -0.1793
vn -0.2457 -0.9526 -0.1794
vn 0.6188 -0.7421 -0.2577
vt 0.157560 0.840269
vt 0.276195 0.811031
vt 0.295121 0.994036
vt 0.173013 0.989696
vt 0.974440 0.673619
vt 0.857905 0.657365
vt 0.857905 0.834537
vt 0.974440 0.818284
vt 0.843256 0.841682
vt 0.959792 0.825428
vt 0.959792 1.002600
vt 0.843256 0.986346
vt 0.147409 0.832811
vt 0.030390 0.802493
vt 0.009516 0.983313
vt 0.130365 0.980454
vt 0.496114 0.320921
vt 0.502782 0.319857
vt 0.503815 0.321715
vt 0.496022 0.323307
vt 0.489453 0.319344
vt 0.488281 0.321160
vt 0.483763 0.254891
vt 0.481404 0.309769
vt 0.479648 0.309786
vt 0.481874 0.254777
vt 0.484276 0.315272
vt 0.482505 0.316216
vt 0.486784 0.249334
vt 0.485034 0.248369
vt 0.508031 0.316197
vt 0.509729 0.317194
vt 0.511022 0.256218
vt 0.508643 0.250401
vt 0.510455 0.249656
vt 0.512781 0.256241
vt 0.504145 0.246022
vt 0.498081 0.244203
vt 0.498194 0.241932
vt 0.505397 0.244390
vt 0.510952 0.310849
vt 0.512817 0.310917
vt 0.491830 0.245427
vt 0.490746 0.243650
vt 0.498333 0.239264
vt 0.506598 0.242063
vt 0.627443 0.275114
vt 0.807291 0.274257
vt 0.807291 0.686570
vt 0.627443 0.687427
vt 0.302984 0.979863
vt 0.302984 0.808450
vt 0.476089 0.808450
vt 0.476089 0.979863
vt 0.423933 0.242946
vt 0.367029 0.126398
vt 0.363133 0.103041
vt 0.352218 0.084311
vt 0.336446 0.073917
vt 0.186720 0.073917
vt 0.170947 0.084311
vt 0.160032 0.103041
vt 0.156137 0.126398
vt 0.098460 0.009849
vt 0.423933 0.009849
vt 0.990142 0.019707
vt 0.818730 0.019707
vt 0.818730 0.192812
vt 0.990142 0.192812
vt 0.617021 0.765809
vt 0.436649 0.764949
vt 0.436649 0.351405
vt 0.617021 0.352265
vt 0.995018 0.019707
vt 0.990142 0.015677
vt 0.818730 0.015677
vt 0.813854 0.019707
vt 0.995018 0.192812
vt 0.990142 0.196842
vt 0.813854 0.192812
vt 0.818730 0.196842
vt 0.476089 0.984739
vt 0.480119 0.979863
vt 0.476089 0.803574
vt 0.480119 0.808450
vt 0.302984 0.984739
vt 0.298954 0.979863
vt 0.302984 0.803574
vt 0.298954 0.808450
vt 0.343219 0.495877
vt 0.017747 0.495877
vt 0.017747 0.501303
vt 0.343219 0.501303
vt 0.098461 0.242946
vt 0.423933 0.248373
vt 0.098461 0.248373
vt 0.017747 0.262780
vt 0.343219 0.262780
vt 0.343219 0.257353
vt 0.017747 0.257353
vt 0.098460 0.004423
vt 0.423933 0.004423
vt 0.160032 0.149754
vt 0.170947 0.168484
vt 0.186720 0.178879
vt 0.336446 0.178879
vt 0.352218 0.168484
vt 0.363133 0.149754
vt 0.514866 0.255392
vt 0.514866 0.311910
vt 0.489796 0.241184
vt 0.511398 0.319064
vt 0.483325 0.246531
vt 0.504707 0.324250
vt 0.495927 0.326078
vt 0.512319 0.248059
vt 0.487219 0.323662
vt 0.477527 0.310703
vt 0.479838 0.253735
vt 0.480734 0.318029
vt 0.495423 0.989940
vt 0.495423 0.803574
vt 0.660939 0.803574
vt 0.660939 0.989940
vt 0.986563 0.249843
vt 0.985181 0.529312
vt 0.819665 0.529557
vt 0.821047 0.250088
vt 0.986563 0.648651
vt 0.821047 0.648896
vt 0.835764 0.717843
vt 0.835764 0.997314
vt 0.670251 0.996407
vt 0.670251 0.716935
s 1
usemtl M_TissueBox_1_0
f 7/1/1 8/2/1 6/3/1 5/4/1
f 1/5/2 2/6/2 4/7/2 3/8/2
f 15/9/3 16/10/3 14/11/3 13/12/3
f 9/13/4 10/14/4 12/15/4 11/16/4
f 59/17/5 55/18/6 30/19/7 26/20/8
f 58/21/9 59/17/5 26/20/8 27/22/10
f 63/23/11 62/24/12 23/25/13 22/26/14
f 57/27/15 58/21/9 27/22/10 28/28/16
f 65/29/17 63/23/11 22/26/14 20/30/18
f 55/18/6 56/31/19 29/32/20 30/19/7
f 61/33/21 64/34/22 21/35/23 24/36/24
f 62/24/12 57/27/15 28/28/16 23/25/13
f 66/37/25 68/38/26 17/39/27 19/40/28
f 60/41/29 61/33/21 24/36/24 25/42/30
f 68/38/26 67/43/31 18/44/32 17/39/27
f 56/31/19 60/41/29 25/42/30 29/32/20
f 67/43/31 65/29/17 20/30/18 18/44/32
f 64/34/22 66/37/25 19/40/28 21/35/23
f 19/40/28 17/39/27 69/45/33 71/46/34
f 45/47/35 47/48/35 34/49/35 32/50/35
f 51/51/36 53/52/36 48/53/36 44/54/36
f 52/55/37 68/56/37 66/57/37 64/58/37 61/59/37 60/60/37 56/61/37 55/62/37 59/63/37 35/64/38 46/65/37
f 33/66/39 36/67/39 42/68/39 38/69/39
f 39/70/40 41/71/40 54/72/40 50/73/40
f 31/74/41 32/75/35 33/66/39
f 34/76/35 35/77/38 36/67/39
f 37/78/42 38/69/39 39/79/40
f 40/80/43 41/81/40 42/68/39
f 43/82/44 44/54/36 45/83/35
f 46/84/37 47/85/35 48/53/36
f 49/86/45 50/87/40 51/51/36
f 52/88/37 53/52/36 54/89/40
f 37/78/42 31/74/41 33/66/39 38/69/39
f 32/75/35 34/76/35 36/67/39 33/66/39
f 35/77/38 40/80/43 42/68/39 36/67/39
f 41/81/40 39/79/40 38/69/39 42/68/39
f 49/90/45 37/91/42 39/92/40 50/93/40
f 40/94/43 52/55/37 54/95/40 41/96/40
f 53/52/36 51/51/36 50/87/40 54/89/40
f 43/82/44 49/86/45 51/51/36 44/54/36
f 52/88/37 46/84/37 48/53/36 53/52/36
f 47/85/35 45/83/35 44/54/36 48/53/36
f 31/97/41 43/98/44 45/99/35 32/100/35
f 46/65/37 35/64/38 34/101/35 47/102/35
f 37/91/42 49/90/45 43/98/44 31/97/41
f 35/64/38 59/63/37 58/103/37 57/104/37 62/105/37 63/106/37 65/107/37 67/108/37 68/56/37 52/55/37 40/94/43
f 25/42/30 24/36/24 76/109/46 77/110/47
f 17/39/27 18/44/32 70/111/48 69/45/33
f 29/32/20 25/42/30 77/110/47 81/112/49
f 18/44/32 20/30/18 72/113/50 70/111/48
f 26/20/8 30/19/7 82/114/51 78/115/52
f 21/35/23 19/40/28 71/46/34 73/116/53
f 27/22/10 26/20/8 78/115/52 79/117/54
f 22/26/14 23/25/13 75/118/55 74/119/56
f 28/28/16 27/22/10 79/117/54 80/120/57
f 20/30/18 22/26/14 74/119/56 72/113/50
f 30/19/7 29/32/20 81/112/49 82/114/51
f 24/36/24 21/35/23 73/116/53 76/109/46
f 23/25/13 28/28/16 80/120/57 75/118/55
f 83/121/36 85/122/36 86/123/36 84/124/36
f 85/125/35 89/126/35 90/127/35 86/128/35
f 89/126/39 87/129/39 88/130/39 90/127/39
f 87/131/40 83/132/40 84/133/40 88/134/40
