# Blender 4.1.1
# www.blender.org
mtllib MeshCylinder_233_0.mtl
o Cylinder_233
v -0.000181 -0.081731 0.077331
v 0.002702 0.078225 0.077332
v -0.000739 -0.081731 0.076363
v 0.000703 0.078225 0.073867
v -0.001856 -0.081731 0.076363
v -0.003297 0.078225 0.073866
v -0.002415 -0.081731 0.077330
v -0.005298 0.078225 0.077329
v -0.001857 -0.081731 0.078297
v -0.003299 0.078225 0.080794
v -0.000740 -0.081731 0.078298
v 0.000701 0.078225 0.080795
v -0.001298 -0.085208 0.077330
v 0.002702 -0.067809 0.077332
v 0.000703 -0.067809 0.073867
v -0.003297 -0.067809 0.073866
v -0.005298 -0.067809 0.077329
v -0.003299 -0.067809 0.080794
v 0.000701 -0.067809 0.080795
v 0.002702 0.086879 0.077332
v 0.000703 0.086879 0.073867
v -0.003297 0.086879 0.073866
v -0.005298 0.086879 0.077329
v -0.003299 0.086879 0.080794
v 0.000701 0.086879 0.080795
v 0.002286 0.093420 0.077332
v 0.000495 0.093420 0.074227
v -0.003089 0.093420 0.074226
v -0.004882 0.093420 0.077329
v -0.003091 0.093420 0.080434
v 0.000493 0.093420 0.080435
v -0.003297 0.093020 0.073866
v -0.005298 0.093020 0.077329
v 0.002702 0.093020 0.077332
v 0.000703 0.093020 0.073867
v 0.000701 0.093020 0.080795
v -0.003299 0.093020 0.080794
v 0.000703 0.078666 0.073867
v -0.003297 0.078666 0.073866
v -0.003299 0.078666 0.080794
v 0.000701 0.078666 0.080795
v 0.002702 0.078666 0.077332
v -0.005298 0.078666 0.077329
vn -0.8662 -0.0000 0.4997
vn -0.0003 -0.0000 1.0000
vn 0.8659 -0.0000 0.5003
vn 0.8662 -0.0000 -0.4997
vn 0.4997 -0.0000 0.8662
vn -0.5003 -0.0000 0.8658
vn -0.5003 -0.0000 0.8659
vn 0.0003 -0.0000 -1.0000
vn -0.8658 -0.0000 -0.5003
vn 0.9681 0.2506 0.0003
vn 0.4843 0.2506 -0.8382
vn -0.0000 1.0000 -0.0000
vn -0.4843 0.2506 0.8382
vn 0.4838 0.2506 0.8386
vn -0.4838 0.2506 -0.8386
vn -0.9681 0.2506 -0.0003
vn -0.4813 0.2686 -0.8344
vn -0.9632 0.2687 -0.0003
vn 0.4819 0.2686 -0.8340
vn 0.9632 0.2687 0.0003
vn 0.4813 0.2686 0.8344
vn -0.4819 0.2686 0.8340
vn 0.9356 -0.3530 0.0003
vn 0.4675 -0.3530 0.8104
vn 0.4121 -0.5656 0.7143
vn 0.8247 -0.5656 0.0003
vn -0.4997 -0.0000 -0.8662
vn 0.5003 -0.0000 -0.8659
vn -1.0000 -0.0000 -0.0004
vn -1.0000 -0.0000 -0.0003
vn 1.0000 -0.0000 0.0004
vn 1.0000 -0.0000 0.0003
vn -0.0000 -1.0000 -0.0000
vn -0.4681 -0.3530 0.8101
vn -0.9356 -0.3530 -0.0003
vn -0.8247 -0.5656 -0.0003
vn -0.4126 -0.5656 0.7140
vn -0.4675 -0.3530 -0.8105
vn -0.4121 -0.5656 -0.7143
vn 0.4681 -0.3530 -0.8101
vn 0.4126 -0.5656 -0.7140
vt 0.359526 0.068690
vt 0.359525 0.636218
vt 0.349373 0.636818
vt 0.349373 0.069290
vt 0.333885 0.636679
vt 0.333886 0.069151
vt 0.928907 0.068915
vt 0.928908 0.637010
vt 0.913259 0.637048
vt 0.913259 0.068953
vt 0.306076 0.628381
vt 0.306076 0.060276
vt 0.316605 0.060012
vt 0.316606 0.628116
vt 0.333885 0.638396
vt 0.349373 0.638535
vt 0.349373 0.670451
vt 0.333885 0.670312
vt 0.331997 0.060086
vt 0.331997 0.628190
vt 0.895722 0.628144
vt 0.895722 0.060050
vt 0.911370 0.060011
vt 0.911371 0.628106
vt 0.317171 0.682594
vt 0.320110 0.682520
vt 0.321468 0.696140
vt 0.345528 0.014652
vt 0.341203 0.014613
vt 0.344038 0.000934
vt 0.324408 0.682541
vt 0.348362 0.014484
vt 0.922237 0.014542
vt 0.917868 0.014553
vt 0.919653 0.000934
vt 0.902392 0.682517
vt 0.906761 0.682507
vt 0.904976 0.696125
vt 0.913259 0.694607
vt 0.928908 0.694568
vt 0.927946 0.696091
vt 0.913924 0.696126
vt 0.331997 0.058367
vt 0.316605 0.058293
vt 0.316606 0.026345
vt 0.331997 0.026419
vt 0.359525 0.637935
vt 0.359526 0.669851
vt 0.913259 0.638767
vt 0.928908 0.638728
vt 0.928908 0.670676
vt 0.913259 0.670715
vt 0.911370 0.058293
vt 0.895722 0.058331
vt 0.895722 0.026383
vt 0.911370 0.026345
vt 0.306076 0.058557
vt 0.306076 0.026609
vt 0.331914 0.704981
vt 0.331914 0.718928
vt 0.319704 0.725902
vt 0.307493 0.718928
vt 0.307493 0.704981
vt 0.319704 0.698008
vt 0.333331 0.704172
vt 0.333331 0.719737
vt 0.911370 0.002453
vt 0.895722 0.002491
vt 0.896684 0.000968
vt 0.910706 0.000934
vt 0.306076 0.719737
vt 0.306076 0.704172
vt 0.333886 0.694181
vt 0.349373 0.694319
vt 0.348819 0.695795
vt 0.334941 0.695670
vt 0.331997 0.002526
vt 0.316606 0.002452
vt 0.317111 0.000934
vt 0.330903 0.001000
vt 0.306076 0.002716
vt 0.359526 0.693719
s 1
usemtl M_Cylinder_233_0
f 14/1/1 2/2/1 4/3/1 15/4/1
f 15/4/2 4/3/2 6/5/2 16/6/2
f 16/7/3 6/8/3 8/9/3 17/10/3
f 17/11/4 8/12/4 10/13/4 18/14/4
f 39/15/5 38/16/6 21/17/7 22/18/5
f 18/14/8 10/13/8 12/19/8 19/20/8
f 19/21/9 12/22/9 2/23/9 14/24/9
f 7/25/10 9/26/11 13/27/12
f 3/28/13 5/29/14 13/30/12
f 9/26/11 11/31/15 13/27/12
f 1/32/16 3/28/13 13/30/12
f 5/33/14 7/34/10 13/35/12
f 11/36/15 1/37/16 13/38/12
f 11/36/15 19/21/17 14/24/18 1/37/16
f 9/26/11 18/14/19 19/20/17 11/31/15
f 7/25/10 17/11/20 18/14/19 9/26/11
f 5/33/14 16/7/21 17/10/20 7/34/10
f 3/28/13 15/4/22 16/6/21 5/29/14
f 1/32/16 14/1/18 15/4/22 3/28/13
f 33/39/23 32/40/24 28/41/25 29/42/26
f 41/43/27 40/44/28 24/45/28 25/46/27
f 38/16/6 42/47/29 20/48/30 21/17/7
f 43/49/31 39/50/5 22/51/5 23/52/32
f 42/53/29 41/54/27 25/55/27 20/56/30
f 40/44/28 43/57/31 23/58/32 24/45/28
f 27/59/33 26/60/33 31/61/33 30/62/33 29/63/33 28/64/33
f 35/65/34 34/66/35 26/60/36 27/59/37
f 34/67/35 36/68/38 31/69/39 26/70/36
f 37/71/40 33/72/23 29/63/26 30/62/41
f 32/73/24 35/74/34 27/75/37 28/76/25
f 36/77/38 37/78/40 30/79/41 31/80/39
f 25/46/27 24/45/28 37/78/40 36/77/38
f 22/18/5 21/17/7 35/74/34 32/73/24
f 24/45/28 23/58/32 33/81/23 37/78/40
f 20/56/30 25/55/27 36/68/38 34/67/35
f 21/17/7 20/48/30 34/82/35 35/74/34
f 23/52/32 22/51/5 32/40/24 33/39/23
f 10/13/28 8/12/32 43/57/31 40/44/28
f 2/23/29 12/22/27 41/54/27 42/53/29
f 8/9/32 6/8/5 39/50/5 43/49/31
f 4/3/6 2/2/29 42/47/29 38/16/6
f 12/19/27 10/13/28 40/44/28 41/43/27
f 6/5/5 4/3/6 38/16/6 39/15/5
