# Blender 4.1.1
# www.blender.org
mtllib DrawmeshSideTableDrawer_201_2_1_GeomSubset_0.mtl
o DrawmeshSideTableDrawer_201_2_1_GeomSubset_0
v 0.329669 -0.171995 0.237529
v 0.320261 -0.171993 0.234178
v 0.320261 -0.168638 0.234178
v 0.329669 -0.168639 0.237529
v 0.333565 -0.171998 0.245619
v 0.333565 -0.168643 0.245620
v 0.329669 -0.172002 0.253710
v 0.329669 -0.168647 0.253710
v 0.320261 -0.172003 0.257061
v 0.320261 -0.168648 0.257062
v 0.310853 -0.172002 0.253710
v 0.310853 -0.168647 0.253710
v 0.306957 -0.171998 0.245619
v 0.306957 -0.168643 0.245620
v 0.325132 -0.168645 0.249809
v 0.327150 -0.168643 0.245620
v 0.310853 -0.171995 0.237529
v 0.310853 -0.168639 0.237529
v 0.312396 -0.174258 0.238854
v 0.320261 -0.174257 0.236052
v 0.309138 -0.174261 0.245618
v 0.312396 -0.174265 0.252383
v 0.320261 -0.174266 0.255185
v 0.328127 -0.174265 0.252383
v 0.331384 -0.174262 0.245618
v 0.328127 -0.174258 0.238854
v 0.320261 -0.168640 0.239696
v 0.315390 -0.168641 0.241431
v 0.325132 -0.168641 0.241431
v 0.325132 -0.160128 0.241433
v 0.320261 -0.160127 0.239698
v 0.327150 -0.160130 0.245622
v 0.325132 -0.160132 0.249811
v 0.320261 -0.160132 0.251547
v 0.320261 -0.168646 0.251544
v 0.315390 -0.168645 0.249809
v 0.313372 -0.168643 0.245620
v 0.315390 -0.160132 0.249811
v 0.315390 -0.160128 0.241433
v 0.313372 -0.160130 0.245622
v -0.371718 -0.171994 0.237529
v -0.381219 -0.171992 0.234178
v -0.381219 -0.168637 0.234178
v -0.371718 -0.168639 0.237529
v -0.367783 -0.171998 0.245619
v -0.367783 -0.168643 0.245620
v -0.371718 -0.172001 0.253710
v -0.371718 -0.168646 0.253710
v -0.381219 -0.172003 0.257061
v -0.381219 -0.168648 0.257062
v -0.390719 -0.172001 0.253710
v -0.390719 -0.168646 0.253710
v -0.394655 -0.171998 0.245619
v -0.394655 -0.168643 0.245620
v -0.376299 -0.168644 0.249809
v -0.374262 -0.168643 0.245620
v -0.390719 -0.171994 0.237529
v -0.390719 -0.168639 0.237529
v -0.389162 -0.174258 0.238854
v -0.381219 -0.174257 0.236052
v -0.392452 -0.174261 0.245618
v -0.389162 -0.174264 0.252383
v -0.381219 -0.174265 0.255185
v -0.373276 -0.174264 0.252383
v -0.369985 -0.174261 0.245618
v -0.373276 -0.174258 0.238854
v -0.381219 -0.168640 0.239696
v -0.386138 -0.168641 0.241431
v -0.376299 -0.168641 0.241431
v -0.376299 -0.160127 0.241433
v -0.381219 -0.160127 0.239698
v -0.374262 -0.160129 0.245622
v -0.376299 -0.160131 0.249811
v -0.381219 -0.160132 0.251547
v -0.381219 -0.168645 0.251544
v -0.386138 -0.168644 0.249809
v -0.388176 -0.168643 0.245620
v -0.386138 -0.160131 0.249811
v -0.386138 -0.160127 0.241433
v -0.388176 -0.160129 0.245622
v 0.000125 -0.166082 0.198987
v 0.000125 0.083661 0.199053
v 0.525437 0.083661 0.199053
v 0.525437 -0.148840 0.198991
v -0.525187 -0.148840 0.198991
v -0.525187 0.083661 0.199053
v -0.525187 -0.148874 0.275882
v -0.525187 0.083627 0.275944
v 0.000125 -0.172122 0.285913
v 0.000125 -0.172078 0.188948
v 0.541703 -0.154302 0.188953
v 0.541703 -0.154346 0.285918
v -0.541453 -0.154345 0.285918
v -0.541453 -0.154301 0.188953
v 0.541411 -0.148312 0.188954
v 0.000125 -0.166078 0.188950
v -0.541160 -0.148311 0.188954
v -0.541160 -0.148354 0.285920
v 0.541411 -0.148355 0.285920
v 0.000125 -0.166122 0.285915
v 0.000125 -0.166117 0.275878
v 0.525437 -0.148875 0.275882
v 0.000125 0.083626 0.275944
v 0.525437 0.083626 0.275944
v -0.510877 0.071892 0.275940
v -0.510877 0.071922 0.209670
v -0.014184 0.071921 0.209670
v -0.014184 0.071891 0.275940
v -0.014184 -0.153873 0.209610
v -0.014184 -0.153903 0.275881
v -0.510877 -0.137600 0.275885
v 0.014435 0.071891 0.275940
v 0.511128 0.071891 0.275940
v 0.511127 -0.137600 0.275885
v 0.014435 -0.153903 0.275881
v 0.511127 -0.137570 0.209614
v 0.511128 0.071921 0.209670
v 0.014435 0.071921 0.209670
v 0.014435 -0.153873 0.209610
v -0.510877 -0.137570 0.209614
vn -0.1161 -0.3420 0.9325
vn -0.5369 0.5279 0.6581
vn -0.6048 -0.2909 0.7413
vn -0.0988 0.5971 0.7961
vn -0.5611 -0.4358 0.7037
vn -0.7970 0.5973 -0.0899
vn -0.9338 -0.3419 -0.1057
vn -0.4428 0.7034 0.5560
vn -0.9338 -0.3420 0.1054
vn -0.4430 0.7037 -0.5555
vn -0.5610 -0.4355 -0.7040
vn -0.7970 0.5971 0.0904
vn -0.6049 -0.2905 -0.7414
vn -0.0991 0.5974 -0.7958
vn -0.1161 -0.3417 -0.9326
vn -0.5370 0.5281 -0.6579
vn 0.1159 -0.3417 -0.9326
vn 0.5370 0.5280 -0.6579
vn 0.6049 -0.2905 -0.7414
vn 0.0990 0.5973 -0.7959
vn 0.5610 -0.4355 -0.7041
vn 0.7970 0.5971 0.0902
vn 0.9338 -0.3420 0.1054
vn 0.4431 0.7036 -0.5555
vn 0.7108 -0.7034 -0.0004
vn 0.4265 -0.5975 0.6791
vn 0.3337 -0.7788 0.5312
vn 0.5183 -0.8552 -0.0004
vn 0.4266 -0.5967 -0.6797
vn 0.9338 -0.3420 -0.1056
vn 0.4428 0.7035 0.5559
vn 0.5612 -0.4359 0.7037
vn 0.7970 0.5973 -0.0898
vn 0.6049 -0.2908 0.7413
vn 0.0989 0.5971 0.7961
vn 0.1161 -0.3420 0.9325
vn 0.5370 0.5278 0.6580
vn 0.4705 0.8037 0.3643
vn -0.0058 0.8067 0.5909
vn 0.2291 0.2295 0.9460
vn 0.4854 0.2854 0.8264
vn 0.6228 0.7397 -0.2549
vn 0.8009 0.2002 0.5644
vn 0.9464 0.2690 0.1789
vn 0.3216 0.7416 0.5888
vn 0.3218 0.7420 -0.5882
vn 0.9464 0.2691 -0.1787
vn 0.8009 0.2006 -0.5642
vn 0.6227 0.7395 0.2556
vn -0.0057 0.8072 -0.5903
vn 0.4855 0.2859 -0.8262
vn 0.2291 0.2300 -0.9458
vn 0.4705 0.8039 -0.3637
vn -0.4705 0.8040 -0.3637
vn -0.2291 0.2300 -0.9458
vn -0.4855 0.2859 -0.8262
vn 0.2494 0.8831 0.3975
vn -0.2493 0.8831 0.3975
vn -0.0001 0.8436 0.5370
vn 0.0057 0.8071 -0.5903
vn -0.6227 0.7395 0.2557
vn -0.8009 0.2005 -0.5643
vn -0.9464 0.2690 -0.1786
vn 0.3707 0.9288 0.0004
vn -0.3706 0.9288 0.0004
vn -0.3218 0.7420 -0.5881
vn -0.3217 0.7415 0.5888
vn -0.9464 0.2689 0.1789
vn -0.8009 0.2002 0.5644
vn -0.2493 0.8834 -0.3967
vn 0.2493 0.8834 -0.3967
vn -0.0000 0.8441 -0.5361
vn -0.6229 0.7396 -0.2549
vn 0.0058 0.8067 0.5910
vn -0.4854 0.2854 0.8264
vn -0.2291 0.2294 0.9460
vn -0.4705 0.8036 0.3644
vn -0.4266 -0.5967 -0.6797
vn -0.0001 -0.5274 -0.8496
vn -0.0000 -0.7190 -0.6950
vn -0.3338 -0.7782 -0.5319
vn 0.3338 -0.7782 -0.5320
vn -0.4391 0.7194 0.5381
vn -0.0774 0.7785 0.6228
vn -0.1235 -0.0004 0.9923
vn -0.6321 -0.0002 0.7749
vn 0.0773 0.7785 0.6229
vn 0.4390 0.7195 0.5381
vn 0.6321 -0.0003 0.7749
vn -0.6236 0.7786 -0.0702
vn -0.6234 -0.0003 0.7819
vn -0.9937 -0.0000 -0.1122
vn -0.3231 0.8550 0.4056
vn -0.3233 0.8552 -0.4050
vn -0.9937 0.0001 0.1122
vn -0.6234 0.0002 -0.7819
vn -0.6237 0.7785 0.0706
vn -0.0775 0.7788 -0.6225
vn -0.6321 0.0003 -0.7748
vn -0.1236 0.0003 -0.9923
vn -0.4390 0.7196 -0.5379
vn -0.0000 -0.7197 0.6942
vn 0.0001 -0.5284 0.8490
vn -0.3338 -0.7788 0.5312
vn -0.4265 -0.5975 0.6791
vn -0.5183 -0.8552 -0.0004
vn -0.7108 -0.7034 -0.0003
vn 0.4392 0.7196 -0.5379
vn 0.1236 0.0003 -0.9923
vn 0.6321 0.0002 -0.7749
vn 0.0775 0.7787 -0.6226
vn 0.3231 0.8551 0.4056
vn 0.6235 0.7787 -0.0699
vn 0.9937 0.0001 -0.1121
vn 0.6234 -0.0002 0.7819
vn 0.6236 0.7785 0.0707
vn 0.6234 0.0003 -0.7819
vn 0.9937 -0.0000 0.1121
vn 0.3234 0.8553 -0.4049
vn 0.1236 -0.0003 0.9923
vn -0.1103 -0.3421 0.9332
vn -0.5328 0.5278 0.6614
vn -0.6003 -0.2909 0.7450
vn -0.0938 0.5971 0.7967
vn -0.5557 -0.4358 0.7080
vn -0.7977 0.5973 -0.0837
vn -0.9345 -0.3421 -0.0983
vn -0.4384 0.7035 0.5593
vn -0.9345 -0.3421 0.0982
vn -0.4388 0.7037 -0.5588
vn -0.5555 -0.4356 -0.7083
vn -0.7977 0.5971 0.0840
vn -0.6003 -0.2905 -0.7452
vn -0.0941 0.5973 -0.7964
vn -0.1101 -0.3417 -0.9333
vn -0.5329 0.5281 -0.6611
vn 0.1103 -0.3417 -0.9333
vn 0.5328 0.5281 -0.6612
vn 0.6003 -0.2905 -0.7452
vn 0.0940 0.5973 -0.7965
vn 0.5555 -0.4354 -0.7084
vn 0.7978 0.5971 0.0842
vn 0.9345 -0.3422 0.0982
vn 0.4387 0.7037 -0.5589
vn 0.7108 -0.7034 -0.0003
vn 0.4265 -0.5975 0.6790
vn 0.9346 -0.3419 -0.0984
vn 0.4385 0.7035 0.5592
vn 0.5556 -0.4358 0.7080
vn 0.7976 0.5973 -0.0838
vn 0.6003 -0.2908 0.7450
vn 0.0940 0.5971 0.7967
vn 0.1103 -0.3420 0.9332
vn 0.5328 0.5278 0.6614
vn 0.4664 0.8052 0.3662
vn -0.0106 0.8067 0.5909
vn 0.2247 0.2302 0.9469
vn 0.4814 0.2869 0.8282
vn 0.6174 0.7451 -0.2522
vn 0.7966 0.2071 0.5680
vn 0.9431 0.2774 0.1831
vn 0.3127 0.7441 0.5903
vn 0.3126 0.7447 -0.5896
vn 0.9432 0.2773 -0.1829
vn 0.7966 0.2074 -0.5678
vn 0.6173 0.7449 0.2529
vn -0.0105 0.8071 -0.5903
vn 0.4814 0.2874 -0.8281
vn 0.2247 0.2307 -0.9467
vn 0.4665 0.8055 -0.3655
vn -0.4665 0.8055 -0.3654
vn -0.2247 0.2307 -0.9467
vn -0.4814 0.2874 -0.8281
vn 0.2493 0.8831 0.3975
vn -0.0000 0.8436 0.5370
vn 0.0105 0.8072 -0.5902
vn -0.6173 0.7450 0.2530
vn -0.7966 0.2076 -0.5677
vn -0.9432 0.2774 -0.1828
vn -0.3707 0.9288 0.0004
vn -0.3126 0.7448 -0.5895
vn -0.3125 0.7443 0.5902
vn -0.9432 0.2773 0.1831
vn -0.7966 0.2071 0.5680
vn 0.2493 0.8835 -0.3967
vn -0.6173 0.7452 -0.2522
vn 0.0106 0.8066 0.5909
vn -0.4812 0.2870 0.8283
vn -0.2247 0.2302 0.9468
vn -0.4665 0.8052 0.3662
vn 0.3337 -0.7783 -0.5319
vn -0.4356 0.7195 0.5409
vn -0.0735 0.7786 0.6232
vn -0.1173 -0.0002 0.9931
vn -0.6272 -0.0002 0.7789
vn 0.0735 0.7786 0.6232
vn 0.4357 0.7194 0.5409
vn 0.6273 -0.0002 0.7788
vn -0.6241 0.7786 -0.0655
vn -0.6175 -0.0003 0.7865
vn -0.9945 -0.0000 -0.1047
vn -0.3201 0.8551 0.4080
vn -0.3203 0.8552 -0.4075
vn -0.9945 -0.0002 0.1048
vn -0.6175 0.0002 -0.7865
vn -0.6242 0.7785 0.0660
vn -0.0736 0.7787 -0.6230
vn -0.6272 0.0002 -0.7789
vn -0.1174 0.0003 -0.9931
vn -0.4357 0.7197 -0.5407
vn -0.0000 -0.7197 0.6943
vn -0.3337 -0.7788 0.5312
vn -0.4265 -0.5975 0.6790
vn -0.7108 -0.7034 -0.0002
vn 0.4357 0.7196 -0.5406
vn 0.1174 0.0003 -0.9931
vn 0.6273 0.0002 -0.7788
vn 0.0737 0.7788 -0.6230
vn 0.3199 0.8550 0.4082
vn 0.6240 0.7787 -0.0652
vn 0.9945 0.0001 -0.1046
vn 0.6174 -0.0003 0.7867
vn 0.6241 0.7785 0.0659
vn 0.6174 0.0003 -0.7866
vn 0.9945 -0.0000 0.1045
vn 0.3202 0.8553 -0.4074
vn 0.1174 -0.0003 0.9931
s 1
usemtl M_SideTableDrawer_201_2_0
f 1//1 3//2 2//3
f 1//1 4//4 3//2
f 5//5 4//6 1//7
f 5//5 6//8 4//6
f 7//9 6//10 5//11
f 7//9 8//12 6//10
f 9//13 8//14 7//15
f 9//13 10//16 8//14
f 11//17 10//18 9//19
f 11//17 12//20 10//18
f 13//21 12//22 11//23
f 13//21 14//24 12//22
f 6//25 8//26 15//27
f 6//25 15//27 16//28
f 4//29 6//25 16//28
f 17//30 14//31 13//32
f 17//30 18//33 14//31
f 2//34 18//35 17//36
f 2//34 3//37 18//35
f 2//38 17//39 19//40
f 2//38 19//40 20//41
f 17//42 21//43 19//44
f 17//42 13//45 21//43
f 13//46 22//47 21//48
f 13//46 11//49 22//47
f 11//50 23//51 22//52
f 11//50 9//53 23//51
f 9//54 24//55 23//56
f 24//57 22//58 23//59
f 9//54 7//60 24//55
f 7//61 25//62 24//63
f 25//64 21//65 22//58
f 25//64 22//58 24//57
f 7//61 5//66 25//62
f 5//67 26//68 25//69
f 19//70 26//71 20//72
f 26//71 19//70 21//65
f 26//71 21//65 25//64
f 5//67 1//73 26//68
f 1//74 20//75 26//76
f 1//74 2//77 20//75
f 18//78 3//79 27//80
f 18//78 27//80 28//81
f 3//79 29//82 27//80
f 27//83 29//84 30//85
f 27//83 30//85 31//86
f 28//87 27//88 31//89
f 29//90 32//91 30//92
f 29//90 16//93 32//91
f 4//29 16//28 29//82
f 3//79 4//29 29//82
f 16//94 33//95 32//96
f 16//94 15//97 33//95
f 15//98 34//99 33//100
f 15//98 35//101 34//99
f 8//26 35//102 15//27
f 8//26 10//103 35//102
f 10//103 36//104 35//102
f 10//103 12//105 36//104
f 12//105 37//106 36//104
f 12//105 14//107 37//106
f 14//107 28//81 37//106
f 14//107 18//78 28//81
f 35//108 38//109 34//110
f 35//108 36//111 38//109
f 37//112 28//113 39//114
f 37//112 39//114 40//115
f 36//116 40//117 38//118
f 36//116 37//119 40//117
f 28//87 31//89 39//120
f 41//121 43//122 42//123
f 41//121 44//124 43//122
f 45//125 44//126 41//127
f 45//125 46//128 44//126
f 47//129 46//130 45//131
f 47//129 48//132 46//130
f 49//133 48//134 47//135
f 49//133 50//136 48//134
f 51//137 50//138 49//139
f 51//137 52//140 50//138
f 53//141 52//142 51//143
f 53//141 54//144 52//142
f 46//145 48//146 55//27
f 46//145 55//27 56//28
f 44//29 46//145 56//28
f 57//147 54//148 53//149
f 57//147 58//150 54//148
f 42//151 58//152 57//153
f 42//151 43//154 58//152
f 42//155 57//156 59//157
f 42//155 59//157 60//158
f 57//159 61//160 59//161
f 57//159 53//162 61//160
f 53//163 62//164 61//165
f 53//163 51//166 62//164
f 51//167 63//168 62//169
f 51//167 49//170 63//168
f 49//171 64//172 63//173
f 64//174 62//58 63//175
f 49//171 47//176 64//172
f 47//177 65//178 64//179
f 65//64 61//180 62//58
f 65//64 62//58 64//174
f 47//177 45//181 65//178
f 45//182 66//183 65//184
f 59//70 66//185 60//72
f 66//185 59//70 61//180
f 66//185 61//180 65//64
f 45//182 41//186 66//183
f 41//187 60//188 66//189
f 41//187 42//190 60//188
f 58//78 43//79 67//80
f 58//78 67//80 68//81
f 43//79 69//191 67//80
f 67//192 69//193 70//194
f 67//192 70//194 71//195
f 68//196 67//197 71//198
f 69//199 72//200 70//201
f 69//199 56//202 72//200
f 44//29 56//28 69//191
f 43//79 44//29 69//191
f 56//203 73//204 72//205
f 56//203 55//206 73//204
f 55//207 74//208 73//209
f 55//207 75//210 74//208
f 48//146 75//211 55//27
f 48//146 50//103 75//211
f 50//103 76//212 75//211
f 50//103 52//213 76//212
f 52//213 77//106 76//212
f 52//213 54//214 77//106
f 54//214 68//81 77//106
f 54//214 58//78 68//81
f 75//215 78//216 74//217
f 75//215 76//218 78//216
f 77//219 68//220 79//221
f 77//219 79//221 80//222
f 76//223 80//224 78//225
f 76//223 77//226 80//224
f 68//196 71//198 79//227
