# Blender 4.1.0
# www.blender.org
mtllib TablemeshSideTable_201_2_0.mtl
o SideTable_201_2
v -0.563253 -0.163072 0.295487
v -0.563253 0.176173 0.295577
v -0.563253 0.176168 0.306696
v -0.563253 -0.163077 0.306607
v -0.000029 0.178435 0.295578
v 0.563194 0.176174 0.295577
v 0.563194 0.176169 0.306696
v -0.000029 0.178430 0.306697
v 0.563195 -0.163071 0.295487
v 0.563195 -0.163076 0.306607
v -0.000029 -0.181337 0.295483
v -0.000029 -0.181342 0.306602
v 0.549244 0.161651 0.295573
v 0.549244 0.161676 0.240642
v 0.549244 -0.148523 0.240560
v 0.549244 -0.148548 0.295491
v 0.549244 0.161700 0.185711
v 0.549244 -0.148498 0.185629
v -0.549303 0.161650 0.295573
v -0.549303 -0.148549 0.295491
v -0.000029 0.163033 0.295574
v -0.000029 -0.165936 0.295487
v -0.549303 -0.148524 0.240560
v -0.549303 0.161675 0.240642
v -0.549303 -0.148499 0.185629
v -0.549303 0.161700 0.185711
v 0.529698 -0.148523 0.240560
v 0.529699 -0.148543 0.284172
v 0.529699 -0.148503 0.196949
v -0.000029 -0.165886 0.185625
v -0.000029 -0.165891 0.196944
v -0.000029 -0.165930 0.284167
v -0.000029 0.163058 0.240642
v -0.000029 0.163083 0.185712
v -0.563253 -0.163022 0.185626
v -0.563253 -0.163017 0.174506
v -0.563253 0.176228 0.174596
v -0.563253 0.176223 0.185715
v -0.000029 0.178485 0.185716
v -0.000029 0.178490 0.174596
v 0.563194 0.176229 0.174596
v 0.563194 0.176224 0.185715
v 0.563195 -0.163016 0.174506
v 0.563195 -0.163021 0.185626
v -0.000029 -0.181288 0.185621
v -0.000029 -0.181283 0.174501
v -0.529757 -0.148524 0.240560
v -0.529757 -0.148504 0.196949
v -0.529757 -0.148544 0.284172
v -0.529757 0.151516 0.284258
v -0.529757 0.151536 0.240646
v -0.529757 0.151555 0.197035
v -0.000029 0.153893 0.197036
v 0.529698 0.151556 0.197035
v 0.529698 0.151537 0.240646
v 0.529698 0.151517 0.284258
v -0.000029 0.153853 0.284258
v 0.501453 -0.148215 -0.426476
v 0.501453 -0.112112 -0.426467
v 0.493907 -0.106196 0.175738
v 0.493907 -0.154675 0.175725
v 0.545477 -0.112112 -0.426467
v 0.553023 -0.106196 0.175738
v 0.545477 -0.148215 -0.426476
v 0.553023 -0.154675 0.175725
v -0.545310 -0.148216 -0.426476
v -0.545310 -0.112113 -0.426467
v -0.552855 -0.106197 0.175738
v -0.552855 -0.154675 0.175725
v -0.501285 -0.112113 -0.426467
v -0.493740 -0.106197 0.175738
v -0.501285 -0.148216 -0.426476
v -0.493740 -0.154675 0.175725
v 0.501452 0.123676 -0.426405
v 0.501452 0.159780 -0.426395
v 0.493907 0.165696 0.175809
v 0.493907 0.117217 0.175797
v 0.545477 0.159780 -0.426395
v 0.553022 0.165696 0.175809
v 0.545477 0.123677 -0.426405
v 0.553022 0.117217 0.175797
v -0.545310 0.123676 -0.426405
v -0.545310 0.159779 -0.426395
v -0.552855 0.165695 0.175809
v -0.552855 0.117216 0.175797
v -0.501285 0.159779 -0.426395
v -0.493740 0.165695 0.175809
v -0.501285 0.123676 -0.426405
v -0.493740 0.117216 0.175797
v 0.503805 0.125320 -0.370336
v -0.503638 0.125319 -0.370336
v -0.503638 0.158085 -0.370327
v 0.503805 0.158086 -0.370327
v -0.503638 0.153910 -0.385564
v 0.503805 0.153911 -0.385564
v -0.503638 0.129508 -0.385570
v 0.503805 0.129509 -0.385570
vn -1.0000 -0.0000 -0.0000
vn 0.0040 1.0000 0.0005
vn -0.0040 1.0000 0.0005
vn 1.0000 -0.0000 -0.0000
vn -0.0324 -0.9995 -0.0005
vn -0.0000 -0.0003 1.0000
vn -0.0000 0.0003 -1.0000
vn -0.0000 -1.0000 -0.0005
vn 0.0322 -0.9991 0.0273
vn 0.0322 -0.9991 0.0274
vn 0.0322 -0.9991 -0.0283
vn 0.0322 -0.9991 -0.0282
vn 0.0025 1.0000 0.0005
vn -0.0025 1.0000 0.0005
vn -0.0025 1.0000 0.0004
vn 0.0040 1.0000 0.0004
vn -0.0040 1.0000 0.0004
vn -0.0324 -0.9995 -0.0004
vn -0.0322 -0.9991 -0.0282
vn -0.0322 -0.9991 -0.0283
vn -0.0000 -1.0000 -0.0004
vn -0.0322 -0.9991 0.0274
vn -0.0322 -0.9991 0.0273
vn 0.0044 -1.0000 -0.0005
vn -0.0044 -1.0000 -0.0005
vn 0.0324 -0.9995 -0.0005
vn 0.0324 -0.9995 -0.0004
vn -0.9999 -0.0000 -0.0125
vn -0.0000 1.0000 -0.0098
vn 0.9999 -0.0000 -0.0125
vn -0.0000 -0.9999 -0.0107
vn -0.0000 0.9644 -0.2643
vn -0.0000 -0.9642 -0.2651
s 1
usemtl M_SideTable_201_2_0
f 1//1 3//1 2//1
f 1//1 4//1 3//1
f 5//2 7//2 6//2
f 5//2 8//2 7//2
f 2//3 8//2 5//2
f 2//3 3//3 8//2
f 6//4 10//4 9//4
f 6//4 7//4 10//4
f 11//5 4//5 1//5
f 11//5 12//5 4//5
f 13//4 15//4 14//4
f 13//4 16//4 15//4
f 17//4 14//4 15//4
f 17//4 15//4 18//4
f 8//6 4//6 12//6
f 8//6 3//6 4//6
f 7//6 8//6 12//6
f 7//6 12//6 10//6
f 19//7 1//7 2//7
f 19//7 20//7 1//7
f 21//7 19//7 2//7
f 21//7 2//7 5//7
f 20//7 11//7 1//7
f 20//7 22//7 11//7
f 22//7 9//7 11//7
f 22//7 16//7 9//7
f 16//7 6//7 9//7
f 16//7 13//7 6//7
f 13//7 5//7 6//7
f 13//7 21//7 5//7
f 20//1 24//1 23//1
f 20//1 19//1 24//1
f 25//1 23//1 24//1
f 25//1 24//1 26//1
f 15//8 28//8 27//8
f 15//8 16//8 28//8
f 18//9 15//8 27//8
f 18//9 27//8 29//9
f 30//10 18//10 29//10
f 30//9 29//9 31//9
f 16//8 32//11 28//8
f 16//8 22//12 32//12
f 21//13 14//13 33//13
f 21//13 13//13 14//13
f 34//13 33//13 14//13
f 34//13 14//13 17//13
f 26//14 33//13 34//13
f 26//14 24//14 33//13
f 19//15 33//13 24//15
f 19//14 21//13 33//13
f 35//1 37//1 36//1
f 35//1 38//1 37//1
f 39//16 41//16 40//16
f 39//2 42//2 41//2
f 38//17 39//2 40//2
f 38//3 40//2 37//3
f 42//4 43//4 41//4
f 42//4 44//4 43//4
f 45//18 36//18 46//18
f 45//18 35//18 36//18
f 40//7 36//7 37//7
f 40//7 46//7 36//7
f 41//7 46//7 40//7
f 41//7 43//7 46//7
f 26//6 35//6 25//6
f 26//6 38//6 35//6
f 34//6 38//6 26//6
f 34//6 39//6 38//6
f 25//6 35//6 45//6
f 25//6 45//6 30//6
f 30//6 45//6 44//6
f 30//6 44//6 18//6
f 18//6 44//6 42//6
f 18//6 42//6 17//6
f 17//6 39//6 34//6
f 17//6 42//6 39//6
f 23//8 48//8 47//8
f 23//8 25//8 48//8
f 20//19 23//8 47//8
f 20//19 47//8 49//19
f 22//20 20//20 49//20
f 22//19 49//19 32//19
f 25//21 31//22 48//21
f 25//8 30//23 31//23
f 49//4 51//4 50//4
f 49//4 47//4 51//4
f 47//4 52//4 51//4
f 47//4 48//4 52//4
f 31//6 54//6 53//6
f 31//6 29//6 54//6
f 48//6 31//6 53//6
f 48//6 53//6 52//6
f 27//1 56//1 55//1
f 27//1 28//1 56//1
f 29//1 27//1 55//1
f 29//1 55//1 54//1
f 32//7 50//7 57//7
f 32//7 49//7 50//7
f 28//7 32//7 57//7
f 28//7 57//7 56//7
f 57//24 52//24 53//24
f 52//24 57//24 51//24
f 51//24 57//24 50//24
f 53//24 55//25 57//24
f 55//25 53//24 54//25
f 57//24 55//25 56//25
f 44//26 46//26 43//26
f 44//27 45//27 46//27
f 9//27 12//27 11//27
f 9//27 10//27 12//27
f 58//28 60//28 59//28
f 58//28 61//28 60//28
f 59//29 63//29 62//29
f 59//29 60//29 63//29
f 62//30 65//30 64//30
f 62//30 63//30 65//30
f 64//31 61//31 58//31
f 64//31 65//31 61//31
f 59//7 64//7 58//7
f 59//7 62//7 64//7
f 63//6 61//6 65//6
f 63//6 60//6 61//6
f 66//28 68//28 67//28
f 66//28 69//28 68//28
f 67//29 71//29 70//29
f 67//29 68//29 71//29
f 70//30 73//30 72//30
f 70//30 71//30 73//30
f 72//31 69//31 66//31
f 72//31 73//31 69//31
f 67//7 72//7 66//7
f 67//7 70//7 72//7
f 71//6 69//6 73//6
f 71//6 68//6 69//6
f 74//28 76//28 75//28
f 74//28 77//28 76//28
f 75//29 79//29 78//29
f 75//29 76//29 79//29
f 78//30 81//30 80//30
f 78//30 79//30 81//30
f 80//31 77//31 74//31
f 80//31 81//31 77//31
f 75//7 80//7 74//7
f 75//7 78//7 80//7
f 79//6 77//6 81//6
f 79//6 76//6 77//6
f 82//28 84//28 83//28
f 82//28 85//28 84//28
f 83//29 87//29 86//29
f 83//29 84//29 87//29
f 86//30 89//30 88//30
f 86//30 87//30 89//30
f 88//31 85//31 82//31
f 88//31 89//31 85//31
f 83//7 88//7 82//7
f 83//7 86//7 88//7
f 87//6 85//6 89//6
f 87//6 84//6 85//6
f 90//6 92//6 91//6
f 90//6 93//6 92//6
f 93//32 94//32 92//32
f 93//32 95//32 94//32
f 95//7 96//7 94//7
f 95//7 97//7 96//7
f 97//33 91//33 96//33
f 97//33 90//33 91//33
