# Blender 4.1.1
# www.blender.org
mtllib MeshBox_20_0.mtl
o Box_20
v -0.124508 -0.110004 -0.133043
v 0.128316 -0.110004 -0.133043
v -0.124508 0.119234 -0.133043
v 0.128316 0.119234 -0.133043
v -0.053121 0.119234 -0.133083
v -0.053121 -0.110004 -0.133083
v 0.056622 0.119234 -0.133083
v 0.056622 -0.110004 -0.133083
v -0.124508 -0.113255 -0.133043
v 0.128316 -0.113255 -0.133043
v 0.128316 0.122157 -0.133043
v -0.124508 0.121580 -0.133043
v 0.127604 0.122157 -0.133043
v 0.127604 -0.113255 -0.133043
v -0.123510 -0.113255 -0.133043
v -0.123510 0.121580 -0.133043
v -0.123510 -0.113255 -0.137321
v 0.127604 -0.113255 -0.137321
v -0.123510 0.003649 -0.137321
v 0.127604 0.003479 -0.137321
v -0.123510 0.121580 -0.137321
v -0.123510 0.005023 -0.137321
v 0.127604 0.122157 -0.137321
v 0.127604 0.004854 -0.137321
v -0.123510 -0.115609 -0.133043
v 0.127604 -0.115608 -0.133040
v -0.123510 0.123934 -0.133043
v -0.126182 0.123934 -0.133043
v 0.129991 0.119234 -0.135907
v 0.129991 -0.110004 -0.135907
v -0.126182 0.119235 -0.135907
v -0.126182 -0.110004 -0.135907
v -0.123510 -0.115609 -0.139827
v 0.127604 -0.115608 -0.139827
v -0.123510 0.003649 -0.139827
v 0.127604 0.003479 -0.139827
v -0.052899 0.119234 -0.135567
v -0.052899 -0.110004 -0.135567
v 0.056401 -0.110004 -0.135567
v 0.056400 0.119234 -0.135567
v 0.129991 -0.115608 -0.133040
v -0.126182 -0.115609 -0.133040
v 0.129991 0.124510 -0.133043
v 0.127604 0.124510 -0.133043
v -0.123510 0.123934 -0.139827
v -0.123510 0.005023 -0.139827
v 0.127604 0.124510 -0.139827
v 0.127604 0.004854 -0.139827
v 0.127604 -0.115609 0.083120
v 0.127604 -0.115470 0.083474
v 0.127604 -0.115138 0.083621
v -0.123510 -0.115609 0.083120
v -0.123510 -0.115470 0.083474
v -0.123510 -0.115138 0.083621
v -0.126182 0.123934 0.083120
v -0.126084 0.123795 0.083474
v -0.125848 0.123463 0.083621
v -0.123510 0.123934 0.083120
v -0.123510 0.123795 0.083474
v -0.123510 0.123463 0.083621
v 0.129991 0.119234 0.081536
v 0.129892 0.119234 0.081890
v 0.129655 0.119234 0.082037
v 0.129991 -0.110004 0.081536
v 0.129892 -0.110004 0.081890
v 0.129656 -0.110004 0.082037
v -0.126182 -0.110004 0.081536
v -0.126084 -0.110004 0.081890
v -0.125848 -0.110004 0.082037
v -0.126182 0.119235 0.081536
v -0.126084 0.119234 0.081890
v -0.125848 0.119234 0.082037
v 0.129991 -0.115608 0.083120
v 0.129892 -0.115470 0.083474
v 0.129656 -0.115138 0.083621
v -0.126182 -0.115609 0.083120
v -0.126084 -0.115470 0.083474
v -0.125848 -0.115138 0.083621
v 0.129991 0.124510 0.083120
v 0.129892 0.124372 0.083474
v 0.129656 0.124039 0.083621
v 0.127604 0.124510 0.083120
v 0.127604 0.124372 0.083474
v 0.127604 0.124039 0.083621
v 0.127604 -0.113255 0.083120
v 0.127604 -0.113393 0.083474
v 0.127604 -0.113726 0.083621
v -0.123510 -0.113255 0.083120
v -0.123510 -0.113394 0.083474
v -0.123510 -0.113725 0.083621
v -0.124508 0.121580 0.083120
v -0.124606 0.121718 0.083474
v -0.124843 0.122050 0.083621
v -0.123510 0.121580 0.083120
v -0.123510 0.121718 0.083474
v -0.123510 0.122050 0.083621
v 0.128316 -0.110004 0.081536
v 0.128414 -0.110004 0.081890
v 0.128651 -0.110004 0.082037
v 0.128316 0.119234 0.081536
v 0.128414 0.119234 0.081890
v 0.128651 0.119234 0.082037
v -0.124508 -0.110004 0.081536
v -0.124606 -0.110004 0.081890
v -0.124843 -0.110004 0.082037
v -0.124508 0.119234 0.081536
v -0.124606 0.119234 0.081890
v -0.124843 0.119234 0.082037
v 0.128316 -0.113255 0.083120
v 0.128414 -0.113393 0.083474
v 0.128651 -0.113725 0.083621
v -0.124508 -0.113255 0.083120
v -0.124606 -0.113393 0.083474
v -0.124843 -0.113726 0.083621
v 0.128316 0.122157 0.083120
v 0.128414 0.122295 0.083474
v 0.128651 0.122628 0.083621
v 0.127604 0.122157 0.083120
v 0.127604 0.122295 0.083474
v 0.127604 0.122628 0.083621
vn -0.0000 -0.0000 -1.0000
vn 0.1962 -0.0000 -0.9806
vn -0.1961 -0.0000 -0.9806
vn -0.0000 -1.0000 -0.0000
vn -0.0015 1.0000 -0.0000
vn -0.0023 1.0000 -0.0000
vn -0.0000 -0.0000 1.0000
vn -0.1961 -0.0000 0.9806
vn 0.1961 -0.0000 0.9806
vn -0.0000 1.0000 -0.0000
vn 0.0023 -1.0000 -0.0000
vn 0.0020 -1.0000 -0.0000
vn 0.0022 -1.0000 -0.0000
vn -1.0000 -0.0000 -0.0000
vn 0.0007 1.0000 -0.0000
vn 1.0000 -0.0000 -0.0000
vn -0.0000 1.0000 -0.0003
vn -0.0000 1.0000 -0.0002
vn 0.9961 -0.0000 0.0887
vn 0.9961 -0.0000 0.0884
vn -0.0005 -1.0000 0.0002
vn 0.0005 -1.0000 0.0001
vn 0.0005 -1.0000 0.0002
vn 0.0006 -1.0000 0.0002
vn -0.9960 -0.0000 0.0890
vn -0.9961 -0.0000 0.0886
vn -0.6289 -0.1826 -0.7558
vn -0.7432 -0.0443 -0.6676
vn -0.5147 -0.2659 -0.8151
vn 0.6369 -0.2110 -0.7415
vn 0.7530 -0.0729 -0.6540
vn 0.8329 0.0859 -0.5468
vn -0.6623 0.2317 -0.7126
vn -0.7562 0.1105 -0.6450
vn -0.8418 -0.0629 -0.5361
vn 0.6826 0.1705 -0.7106
vn 0.7328 0.0872 -0.6749
vn 0.5702 0.2889 -0.7690
vn -0.0000 -0.0013 -1.0000
vn 0.0004 -0.0004 -1.0000
vn 0.0001 -0.0005 -1.0000
vn -0.0005 -0.0006 -1.0000
vn -0.0007 -1.0000 -0.0000
vn 0.1410 -0.9878 0.0656
vn -0.0000 -1.0000 0.0026
vn -0.0035 1.0000 0.0019
vn -0.0000 1.0000 0.0005
vn 1.0000 0.0006 0.0033
vn -1.0000 -0.0007 0.0029
vn -0.9847 -0.1034 0.1401
vn -1.0000 -0.0007 -0.0040
vn 0.9845 0.1039 0.1414
vn 1.0000 0.0009 -0.0043
vn -0.1857 0.9658 0.1807
vn 0.0002 -1.0000 -0.0007
vn -0.0000 -1.0000 0.0006
vn -0.1198 0.9918 0.0438
vn 0.0023 -1.0000 -0.0013
vn -0.9961 -0.0769 0.0441
vn 0.9963 0.0729 0.0460
vn 1.0000 -0.0034 -0.0035
vn -1.0000 0.0036 -0.0039
vn 0.0005 -1.0000 -0.0000
vn 0.0011 -1.0000 0.0004
vn -0.0000 1.0000 0.0001
vn 0.1822 0.9663 0.1817
vn -0.0001 1.0000 -0.0000
vn -0.0008 1.0000 -0.0000
vn -0.2245 -0.2977 0.9279
vn -0.0002 0.0848 0.9964
vn -0.3559 -0.1034 0.9288
vn 0.0762 0.2796 0.9571
vn 0.0525 0.0294 0.9982
vn -0.2280 0.0310 0.9732
vn -0.2118 0.1989 0.9569
vn -0.0630 0.0307 0.9975
vn -0.3490 0.0950 0.9323
vn 0.2330 -0.2154 0.9483
vn 0.0601 -0.0336 0.9976
vn 0.3683 -0.1141 0.9227
vn -0.0428 -0.0389 0.9983
vn 0.2526 -0.0424 0.9666
vn 0.0002 -0.0850 0.9964
vn -0.0000 -0.0856 0.9963
vn 0.2668 0.0926 0.9593
vn -0.0000 -0.0834 0.9965
vn 0.0001 0.0868 0.9962
vn -0.0000 -0.7287 0.6848
vn 0.0102 -0.7220 0.6918
vn -0.7743 -0.2553 0.5791
vn -0.7454 0.2944 0.5981
vn -0.0103 0.7213 0.6926
vn -0.0017 0.7292 0.6843
vn 0.8144 -0.0169 0.5801
vn 0.8527 0.0774 0.5166
vn 1.0000 -0.0007 -0.0039
vn 0.7945 -0.2203 0.5659
vn -0.8144 -0.0202 0.5799
vn -0.8539 0.0753 0.5149
vn -1.0000 0.0012 -0.0051
vn 0.7866 0.2324 0.5721
vn -0.0040 0.7282 0.6854
vn 0.1131 0.2535 0.9607
vn -0.2838 0.4576 0.8427
vn -0.0094 0.7223 0.6915
vn 0.9993 -0.0186 0.0328
vn 0.8634 0.0070 0.5044
vn 0.1105 -0.5572 0.8230
vn -0.1220 -0.2055 0.9710
vn 0.0102 -0.7224 0.6914
vn -0.8582 -0.0018 0.5133
vn -0.8854 -0.1875 0.4254
vn -0.9996 -0.0110 0.0251
vn -0.4618 -0.1854 0.8674
vn -0.2365 -0.4878 0.8403
vn 0.8627 0.0025 0.5058
vn 0.9997 0.0091 0.0222
vn 0.4482 0.1570 0.8800
vn 0.2556 0.4751 0.8420
vn -0.9997 0.0086 0.0222
vn 0.0008 -1.0000 0.0023
vn 0.0017 -0.7286 0.6850
vn -0.8185 0.1200 -0.5619
vn 0.5224 -0.3000 -0.7981
vn -0.5471 0.3360 -0.7667
vn 0.8094 -0.1376 -0.5709
vn 0.0008 -0.0002 -1.0000
vn -0.0000 1.0000 0.0006
vt 0.906134 0.944499
vt 0.596495 0.027027
vt 0.906134 0.027027
vt 0.757445 0.458007
vt 0.489695 1.054051
vt 0.489695 0.458007
vt 0.793366 1.052718
vt 1.062237 0.456676
vt 1.062237 1.052718
vt 0.483149 0.948247
vt 0.792768 0.030775
vt 0.792327 0.948247
vt -0.159478 0.622526
vt -0.176041 -0.295007
vt -0.159471 -0.295007
vt 0.037561 -0.293963
vt 0.020998 0.623571
vt 0.020998 -0.293963
vt 0.676365 0.030775
vt 0.372844 0.948247
vt 0.372403 0.030775
vt 0.852175 0.458008
vt 0.591355 1.054050
vt 0.591355 0.458008
vt 0.688437 1.052718
vt 0.950377 0.456677
vt 0.950377 1.052718
vt 0.261620 0.031023
vt 0.565121 0.948496
vt 0.260119 0.948496
vt 0.454414 -0.295961
vt 0.443970 0.621572
vt 0.443970 -0.295961
vt 0.634979 0.945216
vt 0.645423 0.027682
vt 0.645423 0.945216
vt 0.885353 0.864184
vt 0.881370 0.870868
vt 0.881370 0.864184
vt 0.981092 0.766928
vt 0.974973 1.070911
vt 0.974973 0.760809
vt 0.355579 0.031022
vt 0.349461 0.948498
vt 0.349461 0.031022
vt 0.973539 0.767089
vt 0.979657 1.070596
vt 0.973539 1.070596
vt 0.935644 0.780774
vt 0.929483 1.042379
vt 0.928653 0.774656
vt 0.980516 0.455349
vt 0.986607 1.054045
vt 0.980516 1.054045
vt 0.927084 1.036270
vt 0.920922 0.774647
vt 0.926987 0.775458
vt 0.952765 0.780403
vt 0.946605 1.043139
vt 0.945775 0.774285
vt 0.875517 1.054045
vt 0.869426 0.455349
vt 0.875517 0.455349
vt 0.944205 1.037030
vt 0.938043 0.774275
vt 0.944108 0.775086
vt 0.907122 0.863330
vt 0.900453 0.872543
vt 0.900453 0.856662
vt 0.913208 0.863339
vt 0.919830 0.872488
vt 0.913208 0.872488
vt 0.897953 0.865259
vt 0.891314 0.857012
vt 0.897953 0.857012
vt 0.892037 0.857521
vt 0.892037 0.870868
vt 0.900775 0.871897
vt 0.891314 0.871897
vt 0.909957 0.856662
vt 0.909957 0.863330
vt 0.909263 0.856718
vt 0.919830 0.856718
vt 0.957328 1.064182
vt 0.951209 0.761107
vt 0.957328 0.761107
vt 0.997298 0.854707
vt 1.003415 0.549728
vt 1.003415 0.860824
vt 0.341203 0.948496
vt 0.347321 0.031023
vt 0.347321 0.948496
vt 0.991536 0.760809
vt 0.991536 0.766928
vt 0.963089 0.760971
vt 0.979657 0.760971
vt 0.986855 0.860824
vt 0.986855 0.854707
vt 0.967772 1.070300
vt 0.951209 1.070300
vt 0.368276 0.622526
vt 0.368276 -0.295007
vt 0.565315 -0.293963
vt 0.037561 -0.303728
vt 0.565315 -0.303728
vt 0.511973 0.737380
vt -0.018906 0.141298
vt 0.511973 0.141298
vt -0.172916 0.362367
vt 0.357964 0.958449
vt -0.172916 0.958449
vt 0.504975 0.126726
vt 0.357964 0.362367
vt -0.165917 0.347794
vt 0.361831 0.347794
vt -0.018906 0.737380
vt 0.504981 0.751100
vt -0.022773 0.751100
vt -0.165924 0.970668
vt 0.565315 0.623571
vt 0.037561 0.632291
vt 0.037561 0.623571
vt 0.368276 -0.303727
vt -0.159471 0.632291
vt 0.368276 0.632291
vt 0.982168 -0.295961
vt 0.454414 0.621572
vt 0.645423 0.948862
vt 1.173178 0.945216
vt 1.173178 0.948862
vt 0.546397 0.461571
vt 0.022508 1.057654
vt 0.022508 0.461571
vt 0.218238 1.058144
vt 0.742127 0.462061
vt 0.742126 1.058144
vt 0.022508 0.453118
vt 0.218238 0.462061
vt 0.742127 0.453608
vt 0.546397 1.057654
vt 0.022508 1.065255
vt 0.742126 1.064245
vt 0.645423 0.025080
vt 1.173178 0.027682
vt 0.982168 0.624174
vt 0.982168 0.621572
vt 0.982168 -0.299607
vt 0.454414 -0.299607
vt 0.194102 -0.305244
vt 0.190381 -0.300308
vt 0.190381 -0.308966
vt 0.815508 0.633559
vt 0.805700 0.637280
vt 0.805700 0.633559
vt 0.815508 -0.305244
vt 0.805700 -0.308966
vt 0.819229 -0.308966
vt 0.192581 0.633559
vt 0.201526 0.637280
vt 0.188860 0.637280
vt 0.201526 -0.308966
vt 0.201526 -0.305244
vt 0.188860 0.629682
vt 0.192581 0.629682
vt 0.819229 0.629682
vt 0.819229 0.637280
vt 0.819229 -0.300308
vt 0.815508 -0.300308
vt 0.369141 -0.295007
vt 0.820106 -0.300308
vt 0.820106 0.629682
vt 0.369141 0.631932
vt 0.820106 -0.309843
vt 0.566181 -0.303369
vt 0.189504 -0.300308
vt 0.189504 -0.309843
vt 0.566181 0.623571
vt 0.187983 0.629682
vt -0.019771 0.737380
vt 0.805700 0.638157
vt 0.201526 0.638157
vt -0.019771 0.141298
vt -0.022773 0.126726
vt 0.820106 0.638157
vt 0.358829 0.958449
vt 0.201526 -0.309843
vt 0.805700 -0.309843
vt 0.361831 0.970668
vt 0.362696 0.970310
vt 0.369141 -0.303369
vt 0.358829 0.362367
vt 0.362696 0.348153
vt -0.023639 0.750742
vt 0.566181 0.631933
vt 0.983034 0.621572
vt 0.815508 0.629682
vt 0.814631 0.632682
vt 0.814631 0.629682
vt 0.983034 -0.295961
vt 0.214371 1.064245
vt 0.217373 1.058144
vt 0.194979 -0.304367
vt 0.201526 -0.304367
vt 0.194102 -0.300308
vt 1.174043 0.945216
vt 1.174043 0.949220
vt 0.547262 0.461571
vt 0.201526 0.632682
vt 0.805700 0.632682
vt 0.547262 1.057654
vt 0.550264 1.065255
vt 0.201526 0.633559
vt 0.193458 0.632682
vt 0.217373 0.462061
vt 0.214371 0.453608
vt 0.805700 -0.305244
vt 0.814631 -0.304367
vt 0.805700 -0.304367
vt 0.550264 0.453118
vt 0.551129 0.452759
vt 0.983034 -0.299965
vt 1.173178 0.025080
vt 1.174043 0.027682
vt 0.193458 0.629682
vt 0.596053 0.944499
vt 0.757445 1.054051
vt 0.793366 0.456676
vt 0.481648 0.030775
vt -0.176041 0.622526
vt 0.676365 0.948247
vt 0.852175 1.054050
vt 0.688437 0.456677
vt 0.564680 0.031023
vt 0.634979 0.027682
vt 0.981092 1.070911
vt 0.355579 0.948498
vt 0.935547 1.041568
vt 0.986607 0.455349
vt 0.920093 1.042388
vt 0.952668 1.042328
vt 0.869426 1.054045
vt 0.937214 1.043148
vt 0.907122 0.872543
vt 0.885353 0.857521
vt 0.900775 0.865259
vt 0.909263 0.863339
vt 0.997298 0.549728
vt 0.341203 0.031023
vt 0.963096 0.767089
vt 0.967772 1.064182
vt 0.565315 0.632291
vt -0.159471 -0.303727
vt 0.454414 0.624174
vt 0.369141 0.622526
vt 0.566181 -0.293963
vt -0.023639 0.127084
vt 0.187983 0.638157
vt 0.983034 0.624532
vt 0.814631 -0.300308
vt 0.213506 1.064603
vt 0.194979 -0.300308
vt 0.551129 1.065614
vt 0.213506 0.453249
vt 1.174043 0.024722
s 1
usemtl M_Box_20_0
f 33/1/1 36/2/1 34/3/1
f 32/4/2 37/5/2 38/6/2
f 29/7/3 39/8/3 40/9/3
f 45/10/1 48/11/1 46/12/1
f 25/13/4 34/14/4 26/15/4
f 27/16/5 47/17/6 45/18/6
f 17/19/7 20/20/7 19/21/7
f 6/22/8 3/23/8 1/24/8
f 7/25/9 2/26/9 4/27/9
f 21/28/7 24/29/7 23/30/7
f 15/31/10 18/32/10 17/33/10
f 21/34/11 13/35/12 16/36/13
f 12/37/1 27/38/1 16/39/1
f 17/40/14 35/41/14 33/42/14
f 19/43/15 36/44/15 35/45/15
f 18/46/16 36/47/16 20/48/16
f 3/49/17 37/50/17 31/51/18
f 6/52/19 37/53/19 5/54/20
f 1/55/21 38/56/21 6/57/21
f 2/58/22 39/59/23 30/60/24
f 7/61/25 39/62/26 8/63/26
f 4/64/10 40/65/10 7/66/10
f 10/67/27 30/68/28 41/69/29
f 9/70/30 32/71/31 1/72/32
f 11/73/33 29/74/34 4/75/35
f 12/37/36 31/76/37 28/77/38
f 11/73/1 44/78/1 43/79/1
f 10/67/39 26/80/39 14/81/39
f 9/70/40 25/82/41 42/83/42
f 21/84/14 46/85/14 22/86/14
f 23/87/16 48/88/16 47/89/16
f 46/90/43 24/91/43 22/92/43
f 17/40/14 25/93/14 15/94/14
f 18/46/16 26/95/16 34/96/16
f 23/87/16 44/97/16 13/98/16
f 21/84/14 27/99/14 45/100/14
f 52/101/44 26/15/4 49/102/45
f 58/103/46 28/104/10 55/105/47
f 29/106/16 64/107/48 30/108/16
f 32/109/14 70/110/49 31/111/14
f 64/107/48 41/112/16 30/108/16
f 67/113/50 42/114/14 76/115/51
f 61/116/52 43/117/16 79/118/53
f 70/110/49 28/119/14 31/111/14
f 82/120/54 43/121/10 44/122/6
f 26/15/4 73/123/55 49/102/45
f 42/124/4 52/101/44 76/125/56
f 58/103/46 44/122/6 27/16/5
f 88/126/57 14/127/10 15/31/10
f 12/128/4 94/129/58 91/130/45
f 97/131/59 4/132/14 2/133/14
f 106/134/60 1/135/16 3/136/16
f 10/137/14 97/131/59 2/133/14
f 103/138/61 9/139/16 1/135/16
f 100/140/62 11/141/14 4/132/14
f 12/142/16 106/134/60 3/136/16
f 11/143/63 118/144/64 13/35/12
f 109/145/65 14/127/10 85/146/66
f 112/147/67 15/31/10 9/148/68
f 16/36/13 118/144/64 94/129/58
f 93/149/69 60/150/70 57/151/71
f 111/152/72 66/153/73 99/154/74
f 114/155/75 69/156/76 78/157/77
f 117/158/78 63/159/79 81/160/80
f 93/149/69 72/161/81 108/162/82
f 117/158/78 84/163/70 120/164/83
f 111/152/72 51/165/84 75/166/85
f 114/155/75 54/167/86 90/168/87
f 51/165/84 90/168/87 54/167/86
f 63/159/79 99/154/74 66/153/73
f 69/156/76 108/162/82 72/161/81
f 60/150/70 120/164/83 84/163/70
f 50/169/88 52/101/44 49/102/45
f 51/165/84 53/170/89 50/171/88
f 52/101/44 77/172/90 76/125/56
f 53/170/89 78/157/77 77/173/90
f 56/174/91 58/103/46 55/105/47
f 57/151/71 59/175/92 56/176/91
f 58/103/46 83/177/93 82/120/54
f 59/175/92 84/163/70 83/178/93
f 62/179/94 64/107/48 61/116/52
f 63/159/79 65/180/95 62/181/94
f 65/182/95 73/183/96 64/107/48
f 65/180/95 75/166/85 74/184/97
f 67/113/50 71/185/98 70/110/49
f 69/156/76 71/186/98 68/187/99
f 57/151/71 71/186/98 72/161/81
f 55/188/100 71/185/98 56/189/91
f 50/171/88 75/166/85 51/165/84
f 49/102/45 74/190/97 50/169/88
f 68/187/99 78/157/77 69/156/76
f 68/191/99 76/115/51 77/192/90
f 62/181/94 81/160/80 63/159/79
f 62/179/94 79/118/53 80/193/101
f 81/160/80 83/178/93 84/163/70
f 80/194/101 82/120/54 83/177/93
f 86/195/102 109/145/65 85/146/66
f 87/196/103 110/197/104 86/198/102
f 86/198/102 90/168/87 87/196/103
f 85/146/66 89/199/105 86/195/102
f 91/200/106 107/201/107 106/134/60
f 92/202/108 108/162/82 107/203/107
f 92/202/108 96/204/109 93/149/69
f 91/130/45 95/205/110 92/206/108
f 98/207/111 100/140/62 97/131/59
f 99/154/74 101/208/112 98/209/111
f 101/210/112 115/211/113 100/140/62
f 102/212/114 116/213/115 101/208/112
f 104/214/116 112/215/117 103/138/61
f 105/216/118 113/217/119 104/218/116
f 104/218/116 108/162/82 105/216/118
f 103/138/61 107/201/107 104/214/116
f 99/154/74 110/197/104 111/152/72
f 98/207/111 109/219/120 110/220/104
f 90/168/87 113/217/119 114/155/75
f 89/199/105 112/147/67 113/221/119
f 115/222/121 119/223/122 118/144/64
f 116/213/115 120/164/83 119/224/122
f 96/204/109 119/224/122 120/164/83
f 95/205/110 118/144/64 119/223/122
f 33/1/1 35/225/1 36/2/1
f 32/4/2 31/226/2 37/5/2
f 29/7/3 30/227/3 39/8/3
f 45/10/1 47/228/1 48/11/1
f 25/13/4 33/229/4 34/14/4
f 27/16/5 44/122/6 47/17/6
f 17/19/7 18/230/7 20/20/7
f 6/22/8 5/231/8 3/23/8
f 7/25/9 8/232/9 2/26/9
f 21/28/7 22/233/7 24/29/7
f 15/31/10 14/127/10 18/32/10
f 21/34/11 23/234/11 13/35/12
f 12/37/1 28/77/1 27/38/1
f 17/40/14 19/235/14 35/41/14
f 19/43/15 20/236/15 36/44/15
f 18/46/16 34/96/16 36/47/16
f 3/49/17 5/237/17 37/50/17
f 6/52/19 38/238/20 37/53/19
f 1/55/21 32/239/21 38/56/21
f 2/58/22 8/240/23 39/59/23
f 7/61/25 40/241/25 39/62/26
f 4/64/10 29/242/10 40/65/10
f 10/67/27 2/243/123 30/68/28
f 9/70/30 42/83/124 32/71/31
f 11/73/33 43/79/125 29/74/34
f 12/37/36 3/244/126 31/76/37
f 11/73/1 13/245/1 44/78/1
f 10/67/39 41/69/39 26/80/39
f 9/70/40 15/246/127 25/82/41
f 21/84/14 45/100/14 46/85/14
f 23/87/16 24/247/16 48/88/16
f 46/90/43 48/248/43 24/91/43
f 17/40/14 33/42/14 25/93/14
f 18/46/16 14/249/16 26/95/16
f 23/87/16 47/89/16 44/97/16
f 21/84/14 16/250/14 27/99/14
f 52/101/44 25/13/4 26/15/4
f 58/103/46 27/16/5 28/104/10
f 29/106/16 61/116/52 64/107/48
f 32/109/14 67/113/50 70/110/49
f 64/107/48 73/183/96 41/112/16
f 67/113/50 32/109/14 42/114/14
f 61/116/52 29/106/16 43/117/16
f 70/110/49 55/188/100 28/119/14
f 82/120/54 79/251/128 43/121/10
f 26/15/4 41/252/4 73/123/55
f 42/124/4 25/13/4 52/101/44
f 58/103/46 82/120/54 44/122/6
f 88/126/57 85/146/66 14/127/10
f 12/128/4 16/36/13 94/129/58
f 97/131/59 100/140/62 4/132/14
f 106/134/60 103/138/61 1/135/16
f 10/137/14 109/219/120 97/131/59
f 103/138/61 112/215/117 9/139/16
f 100/140/62 115/211/113 11/141/14
f 12/142/16 91/200/106 106/134/60
f 11/143/63 115/222/121 118/144/64
f 109/145/65 10/253/10 14/127/10
f 112/147/67 88/126/57 15/31/10
f 16/36/13 13/35/12 118/144/64
f 93/149/69 96/204/109 60/150/70
f 111/152/72 75/166/85 66/153/73
f 114/155/75 105/216/118 69/156/76
f 117/158/78 102/212/114 63/159/79
f 93/149/69 57/151/71 72/161/81
f 117/158/78 81/160/80 84/163/70
f 111/152/72 87/196/103 51/165/84
f 114/155/75 78/157/77 54/167/86
f 51/165/84 87/196/103 90/168/87
f 63/159/79 102/212/114 99/154/74
f 69/156/76 105/216/118 108/162/82
f 60/150/70 96/204/109 120/164/83
f 50/169/88 53/254/89 52/101/44
f 51/165/84 54/167/86 53/170/89
f 52/101/44 53/254/89 77/172/90
f 53/170/89 54/167/86 78/157/77
f 56/174/91 59/255/92 58/103/46
f 57/151/71 60/150/70 59/175/92
f 58/103/46 59/255/92 83/177/93
f 59/175/92 60/150/70 84/163/70
f 62/179/94 65/182/95 64/107/48
f 63/159/79 66/153/73 65/180/95
f 65/182/95 74/256/97 73/183/96
f 65/180/95 66/153/73 75/166/85
f 67/113/50 68/191/99 71/185/98
f 69/156/76 72/161/81 71/186/98
f 57/151/71 56/176/91 71/186/98
f 55/188/100 70/110/49 71/185/98
f 50/171/88 74/184/97 75/166/85
f 49/102/45 73/123/55 74/190/97
f 68/187/99 77/173/90 78/157/77
f 68/191/99 67/113/50 76/115/51
f 62/181/94 80/257/101 81/160/80
f 62/179/94 61/116/52 79/118/53
f 81/160/80 80/257/101 83/178/93
f 80/194/101 79/251/128 82/120/54
f 86/195/102 110/258/104 109/145/65
f 87/196/103 111/152/72 110/197/104
f 86/198/102 89/259/105 90/168/87
f 85/146/66 88/126/57 89/199/105
f 91/200/106 92/260/108 107/201/107
f 92/202/108 93/149/69 108/162/82
f 92/202/108 95/261/110 96/204/109
f 91/130/45 94/129/58 95/205/110
f 98/207/111 101/210/112 100/140/62
f 99/154/74 102/212/114 101/208/112
f 101/210/112 116/262/115 115/211/113
f 102/212/114 117/158/78 116/213/115
f 104/214/116 113/263/119 112/215/117
f 105/216/118 114/155/75 113/217/119
f 104/218/116 107/203/107 108/162/82
f 103/138/61 106/134/60 107/201/107
f 99/154/74 98/209/111 110/197/104
f 98/207/111 97/131/59 109/219/120
f 90/168/87 89/259/105 113/217/119
f 89/199/105 88/126/57 112/147/67
f 115/222/121 116/264/115 119/223/122
f 116/213/115 117/158/78 120/164/83
f 96/204/109 95/261/110 119/224/122
f 95/205/110 94/129/58 118/144/64
