# Blender 4.1.1
# www.blender.org
mtllib MeshWindowFixed_60X72_0_GeomSubset_0.mtl
o MeshWindowFixed_60X72_0_GeomSubset_0
v -0.762000 -0.040626 0.915014
v -0.762000 -0.040626 -0.913786
v 0.762000 -0.040624 -0.913786
v 0.714612 -0.040624 -0.856622
v -0.714612 -0.040626 -0.856622
v -0.714612 -0.040626 0.857850
v -0.714612 0.040624 0.857850
v -0.714612 0.040624 -0.856622
v 0.714612 0.040626 -0.856622
v 0.762000 0.040626 -0.913786
v -0.762000 0.040624 -0.913786
v -0.762000 0.040624 0.915014
v 0.714612 0.040626 0.857850
v 0.714612 -0.040624 0.857850
v 0.762000 0.040626 0.915014
v 0.762000 -0.040624 0.915014
v 0.714612 0.028626 0.857850
v 0.714612 -0.028624 0.857850
v -0.714612 -0.028626 0.857850
v -0.714612 0.028624 0.857850
v -0.714612 0.028624 -0.856622
v -0.714612 -0.028626 -0.856622
v 0.714612 -0.028624 -0.856622
v 0.714612 0.028626 -0.856622
v 0.689612 0.028626 0.832851
v 0.689612 -0.028624 0.832851
v -0.689612 -0.028626 0.832851
v -0.689612 0.028624 0.832851
v -0.689612 0.028624 -0.831622
v -0.689612 -0.028626 -0.831622
v 0.689612 -0.028624 -0.831622
v 0.689612 0.028626 -0.831622
v 0.030206 0.022679 -0.847856
v -0.030206 0.022679 -0.847856
v 0.030206 0.022679 0.840270
v -0.030206 0.022679 0.840270
v 0.030206 -0.022679 0.840270
v -0.030206 -0.022679 0.840270
v 0.030206 -0.022679 -0.847856
v -0.030206 -0.022679 -0.847856
v 0.698617 0.018089 -0.311952
v -0.698617 0.018087 -0.311952
v 0.698617 0.018089 -0.284526
v -0.698617 0.018087 -0.284526
v 0.698617 -0.018087 -0.284526
v -0.698617 -0.018089 -0.284526
v 0.698617 -0.018087 -0.311952
v -0.698617 -0.018089 -0.311952
v 0.698617 0.018089 0.274644
v -0.698617 0.018087 0.274644
v 0.698617 0.018089 0.300680
v -0.698617 0.018087 0.300680
v 0.698617 -0.018087 0.300680
v -0.698617 -0.018089 0.300680
v 0.698617 -0.018087 0.274644
v -0.698617 -0.018089 0.274644
v 0.393580 0.009877 -0.847856
v 0.342228 0.009877 -0.847856
v 0.393580 0.009877 0.840270
v 0.342228 0.009877 0.840270
v 0.393580 -0.009876 0.840270
v 0.342228 -0.009876 0.840270
v 0.393580 -0.009876 -0.847856
v 0.342228 -0.009876 -0.847856
v -0.350383 0.009876 -0.847856
v -0.401736 0.009876 -0.847856
v -0.350383 0.009876 0.840270
v -0.401736 0.009876 0.840270
v -0.350383 -0.009877 0.840270
v -0.401736 -0.009877 0.840270
v -0.350383 -0.009877 -0.847856
v -0.401736 -0.009877 -0.847856
vn -0.0000 -1.0000 -0.0000
vn -0.0000 1.0000 -0.0000
vn -0.0000 -0.0000 -1.0000
vn -0.0000 -0.0000 1.0000
vn 1.0000 -0.0000 -0.0000
vn -1.0000 -0.0000 -0.0000
vt -8.442699 -0.963863
vt -6.084660 -1.026937
vt -6.008575 -0.963863
vt -6.084660 1.052014
vt -8.442699 1.115087
vt -8.366615 1.052014
vt -12.461086 2.145067
vt -10.625345 2.221267
vt -12.461086 2.221267
vt -10.777514 0.906215
vt -12.805952 1.014358
vt -12.805952 0.906215
vt -10.684535 -1.430763
vt -8.469128 -1.506961
vt -8.469128 -1.430763
vt -6.008575 1.272453
vt -8.442699 1.164309
vt -6.008575 1.164309
vt -8.366615 -0.850277
vt -8.442699 -0.913351
vt -6.084660 -2.929226
vt -8.442699 -2.992301
vt -6.008574 -2.992300
vt -12.461086 2.350314
vt -10.625346 2.274115
vt -10.625346 2.350314
vt -12.805952 1.061071
vt -10.777514 1.169215
vt -12.805952 1.169215
vt -10.684535 -1.547586
vt -8.469128 -1.623785
vt -8.469128 -1.547586
vt -6.008575 1.427309
vt -8.442699 1.319166
vt -6.008575 1.319166
vt -6.084660 -0.850277
vt -6.008575 -0.913350
vt -6.008575 1.115087
vt -8.366615 -2.929226
vt -8.366615 -1.026937
vt -10.777514 1.215928
vt -12.679804 1.231900
vt -12.679804 1.215927
vt -12.679804 1.296423
vt -10.777514 1.280452
vt -10.777514 1.296423
vt -8.290531 1.489995
vt -6.008575 1.474023
vt -6.008575 1.489995
vt -6.008575 1.538546
vt -8.290531 1.554518
vt -8.290531 1.538546
vt -10.777514 1.344975
vt -12.679804 1.360947
vt -12.679804 1.344975
vt -12.679804 1.425470
vt -10.777514 1.409499
vt -10.777514 1.425470
vt -8.290531 1.619042
vt -6.008575 1.603069
vt -6.008575 1.619042
vt -6.008575 1.667594
vt -8.290531 1.683566
vt -8.290531 1.667593
vt -8.316959 3.602681
vt -8.350235 1.733667
vt -8.316959 1.700391
vt -10.751085 -0.242524
vt -10.717810 1.626493
vt -10.751085 1.659768
vt -8.502403 1.626493
vt -8.469128 1.659768
vt -10.565641 3.569407
vt -8.350235 3.569407
vt -8.502403 -0.209248
vt -8.469128 -0.242524
vt -10.598917 1.700391
vt -10.598917 3.602681
vt -10.565641 1.733667
vt -10.717810 -0.209248
vt -8.469128 -0.283147
vt -10.716017 -0.363555
vt -8.469128 -0.363555
vt -10.625346 2.532208
vt -10.705754 2.592581
vt -10.705754 2.532208
vt -8.469128 -0.404179
vt -10.716017 -0.484588
vt -8.469128 -0.484588
vt -10.625346 2.635447
vt -10.705754 2.695818
vt -10.705754 2.635447
vt -8.469128 -0.525212
vt -10.716017 -0.585583
vt -8.469128 -0.585583
vt -8.469128 -0.626208
vt -10.716017 -0.686579
vt -8.469128 -0.686579
vt -10.777514 1.474022
vt -12.637228 1.510526
vt -12.637228 1.474022
vt -10.777514 1.551450
vt -12.637228 1.599599
vt -12.637228 1.551450
vt -10.777514 1.641783
vt -12.637228 1.678288
vt -12.637228 1.641783
vt -12.485059 1.719212
vt -10.625346 1.767362
vt -12.485059 1.767362
vt -10.625346 3.048398
vt -10.673494 3.084902
vt -10.673494 3.048398
vt -10.625346 3.125826
vt -10.673494 3.162329
vt -10.673494 3.125826
vt -10.625346 1.809545
vt -12.485059 1.844199
vt -12.485059 1.809545
vt -10.625346 1.886974
vt -12.485059 1.935123
vt -12.485059 1.886974
vt -10.625346 1.977306
vt -12.485059 2.011960
vt -12.485059 1.977306
vt -12.485059 2.054734
vt -10.625346 2.102883
vt -12.485059 2.102883
vt -10.625346 3.203254
vt -10.673494 3.237908
vt -10.673494 3.203254
vt -10.625346 3.280684
vt -10.673494 3.315337
vt -10.673494 3.280684
vt -8.469128 -0.727203
vt -10.716017 -0.795553
vt -8.469128 -0.795553
vt -10.625346 2.738684
vt -10.693696 2.764976
vt -10.693696 2.738684
vt -8.469128 -0.836177
vt -10.716017 -0.904528
vt -8.469128 -0.904528
vt -10.625346 2.816113
vt -10.693696 2.842405
vt -10.693696 2.816113
vt -8.469128 -0.945152
vt -10.716017 -0.971444
vt -8.469128 -0.971444
vt -8.469128 -1.012067
vt -10.716017 -1.038359
vt -8.469128 -1.038359
vt -8.469128 -1.078983
vt -10.716017 -1.147334
vt -8.469128 -1.147334
vt -10.625346 2.893542
vt -10.693696 2.919833
vt -10.693696 2.893542
vt -8.469128 -1.187957
vt -10.716017 -1.256307
vt -8.469128 -1.256307
vt -10.625346 2.970970
vt -10.693696 2.997261
vt -10.693696 2.970970
vt -8.469128 -1.296932
vt -10.716017 -1.323224
vt -8.469128 -1.323224
vt -8.469128 -1.363847
vt -10.716017 -1.390139
vt -8.469128 -1.390139
vt -10.625345 2.145067
vt -10.777514 1.014358
vt -10.684535 -1.506961
vt -8.442699 1.272453
vt -12.461086 2.274115
vt -10.777514 1.061071
vt -10.684535 -1.623785
vt -8.442699 1.427309
vt -10.777514 1.231900
vt -12.679804 1.280452
vt -8.290531 1.474022
vt -6.008575 1.554518
vt -10.777514 1.360947
vt -12.679804 1.409499
vt -8.290531 1.603069
vt -6.008575 1.683566
vt -10.716017 -0.283147
vt -10.625346 2.592581
vt -10.716017 -0.404179
vt -10.625346 2.695818
vt -10.716017 -0.525212
vt -10.716017 -0.626208
vt -10.777514 1.510526
vt -10.777514 1.599599
vt -10.777514 1.678288
vt -10.625346 1.719212
vt -10.625346 3.084902
vt -10.625346 3.162329
vt -10.625346 1.844199
vt -10.625346 1.935123
vt -10.625346 2.011960
vt -10.625346 2.054734
vt -10.625346 3.237908
vt -10.625346 3.315337
vt -10.716017 -0.727203
vt -10.625346 2.764976
vt -10.716017 -0.836177
vt -10.625346 2.842405
vt -10.716017 -0.945152
vt -10.716017 -1.012067
vt -10.716017 -1.078983
vt -10.625346 2.919833
vt -10.716017 -1.187957
vt -10.625346 2.997261
vt -10.716017 -1.296932
vt -10.716017 -1.363847
s 1
usemtl M_WindowFixed_60X72_0
f 2/1/1 6/2/1 1/3/1
f 8/4/2 12/5/2 7/6/2
f 26/7/3 28/8/3 25/9/3
f 12/10/4 16/11/4 15/12/4
f 28/13/5 30/14/5 29/15/5
f 2/16/6 12/17/6 11/18/6
f 13/19/2 12/5/2 15/20/2
f 14/21/1 3/22/1 16/23/1
f 31/24/4 29/25/4 30/26/4
f 3/27/3 11/28/3 10/29/3
f 26/30/6 32/31/6 31/32/6
f 10/33/5 16/34/5 3/35/5
f 9/36/2 15/20/2 10/37/2
f 1/3/1 14/21/1 16/23/1
f 8/4/2 10/37/2 11/38/2
f 2/1/1 4/39/1 5/40/1
f 6/41/3 18/42/3 14/43/3
f 13/44/3 20/45/3 7/46/3
f 7/47/5 21/48/5 8/49/5
f 5/50/5 19/51/5 6/52/5
f 8/53/4 24/54/4 9/55/4
f 4/56/4 22/57/4 5/58/4
f 14/59/6 23/60/6 4/61/6
f 9/62/6 17/63/6 13/64/6
f 19/65/1 26/66/1 18/67/1
f 17/68/2 28/69/2 20/70/2
f 20/70/2 29/71/2 21/72/2
f 19/65/1 30/73/1 27/74/1
f 21/72/2 32/75/2 24/76/2
f 23/77/1 30/73/1 22/78/1
f 18/67/1 31/79/1 23/77/1
f 17/68/2 32/75/2 25/80/2
f 34/81/2 35/82/2 33/83/2
f 36/84/4 37/85/4 35/86/4
f 38/87/1 39/88/1 37/89/1
f 40/90/3 33/91/3 39/92/3
f 40/93/6 36/94/6 34/95/6
f 33/96/5 37/97/5 39/98/5
f 42/99/2 43/100/2 41/101/2
f 44/102/4 45/103/4 43/104/4
f 46/105/1 47/106/1 45/107/1
f 47/108/3 42/109/3 41/110/3
f 48/111/6 44/112/6 42/113/6
f 41/114/5 45/115/5 47/116/5
f 50/117/2 51/118/2 49/119/2
f 52/120/4 53/121/4 51/122/4
f 54/123/1 55/124/1 53/125/1
f 55/126/3 50/127/3 49/128/3
f 56/129/6 52/130/6 50/131/6
f 49/132/5 53/133/5 55/134/5
f 58/135/2 59/136/2 57/137/2
f 60/138/4 61/139/4 59/140/4
f 62/141/1 63/142/1 61/143/1
f 64/144/3 57/145/3 63/146/3
f 64/147/6 60/148/6 58/149/6
f 57/150/5 61/151/5 63/152/5
f 66/153/2 67/154/2 65/155/2
f 68/156/4 69/157/4 67/158/4
f 70/159/1 71/160/1 69/161/1
f 72/162/3 65/163/3 71/164/3
f 72/165/6 68/166/6 66/167/6
f 65/168/5 69/169/5 71/170/5
f 2/1/1 5/40/1 6/2/1
f 8/4/2 11/38/2 12/5/2
f 26/7/3 27/171/3 28/8/3
f 12/10/4 1/172/4 16/11/4
f 28/13/5 27/173/5 30/14/5
f 2/16/6 1/174/6 12/17/6
f 13/19/2 7/6/2 12/5/2
f 14/21/1 4/39/1 3/22/1
f 31/24/4 32/175/4 29/25/4
f 3/27/3 2/176/3 11/28/3
f 26/30/6 25/177/6 32/31/6
f 10/33/5 15/178/5 16/34/5
f 9/36/2 13/19/2 15/20/2
f 1/3/1 6/2/1 14/21/1
f 8/4/2 9/36/2 10/37/2
f 2/1/1 3/22/1 4/39/1
f 6/41/3 19/179/3 18/42/3
f 13/44/3 17/180/3 20/45/3
f 7/47/5 20/181/5 21/48/5
f 5/50/5 22/182/5 19/51/5
f 8/53/4 21/183/4 24/54/4
f 4/56/4 23/184/4 22/57/4
f 14/59/6 18/185/6 23/60/6
f 9/62/6 24/186/6 17/63/6
f 19/65/1 27/74/1 26/66/1
f 17/68/2 25/80/2 28/69/2
f 20/70/2 28/69/2 29/71/2
f 19/65/1 22/78/1 30/73/1
f 21/72/2 29/71/2 32/75/2
f 23/77/1 31/79/1 30/73/1
f 18/67/1 26/66/1 31/79/1
f 17/68/2 24/76/2 32/75/2
f 34/81/2 36/187/2 35/82/2
f 36/84/4 38/188/4 37/85/4
f 38/87/1 40/189/1 39/88/1
f 40/90/3 34/190/3 33/91/3
f 40/93/6 38/191/6 36/94/6
f 33/96/5 35/192/5 37/97/5
f 42/99/2 44/193/2 43/100/2
f 44/102/4 46/194/4 45/103/4
f 46/105/1 48/195/1 47/106/1
f 47/108/3 48/196/3 42/109/3
f 48/111/6 46/197/6 44/112/6
f 41/114/5 43/198/5 45/115/5
f 50/117/2 52/199/2 51/118/2
f 52/120/4 54/200/4 53/121/4
f 54/123/1 56/201/1 55/124/1
f 55/126/3 56/202/3 50/127/3
f 56/129/6 54/203/6 52/130/6
f 49/132/5 51/204/5 53/133/5
f 58/135/2 60/205/2 59/136/2
f 60/138/4 62/206/4 61/139/4
f 62/141/1 64/207/1 63/142/1
f 64/144/3 58/208/3 57/145/3
f 64/147/6 62/209/6 60/148/6
f 57/150/5 59/210/5 61/151/5
f 66/153/2 68/211/2 67/154/2
f 68/156/4 70/212/4 69/157/4
f 70/159/1 72/213/1 71/160/1
f 72/162/3 66/214/3 65/163/3
f 72/165/6 70/215/6 68/166/6
f 65/168/5 67/216/5 69/169/5
