# Blender 4.1.1
# www.blender.org
mtllib DressermeshSideTable_303_1_0_GeomSubset_1.mtl
o DressermeshSideTable_303_1_0_GeomSubset_1
v 0.385909 -0.211486 -0.401413
v 0.385909 -0.211710 0.244366
v 0.385909 -0.162683 0.244383
v 0.385909 -0.162459 -0.401396
v 0.437558 -0.215806 -0.401415
v 0.437558 -0.216029 0.244364
v 0.389654 -0.216029 0.244364
v 0.389654 -0.215806 -0.401415
v 0.441303 -0.162459 -0.401396
v 0.441303 -0.162683 0.244383
v 0.441303 -0.211709 0.244366
v 0.441303 -0.211486 -0.401413
v 0.389654 -0.162459 -0.401910
v 0.437558 -0.162459 -0.401910
v 0.437558 -0.211486 -0.401927
v 0.389654 -0.211486 -0.401927
v 0.437558 -0.162683 0.244897
v 0.389654 -0.162683 0.244897
v 0.389654 -0.211710 0.244880
v 0.437558 -0.211710 0.244880
v 0.389654 -0.158140 -0.401395
v 0.389654 -0.158363 0.244384
v 0.437558 -0.158363 0.244384
v 0.437558 -0.158140 -0.401395
v 0.385909 0.189422 -0.401275
v 0.385909 0.189200 0.244504
v 0.385908 0.238226 0.244521
v 0.385908 0.238449 -0.401258
v 0.437557 0.185103 -0.401276
v 0.437557 0.184880 0.244503
v 0.389654 0.184880 0.244503
v 0.389654 0.185103 -0.401276
v 0.441302 0.238450 -0.401258
v 0.441302 0.238226 0.244521
v 0.441302 0.189200 0.244504
v 0.441302 0.189423 -0.401275
v 0.389653 0.238450 -0.401772
v 0.437557 0.238450 -0.401772
v 0.437557 0.189423 -0.401789
v 0.389654 0.189423 -0.401789
v 0.437557 0.238226 0.245035
v 0.389653 0.238226 0.245035
v 0.389654 0.189199 0.245018
v 0.437557 0.189200 0.245018
v 0.389653 0.242769 -0.401257
v 0.389653 0.242546 0.244523
v 0.437557 0.242546 0.244523
v 0.437557 0.242769 -0.401257
v -0.416703 -0.162462 -0.401910
v -0.416703 -0.211488 -0.401927
v -0.464606 -0.211488 -0.401927
v -0.464606 -0.162462 -0.401910
v -0.464606 -0.215808 -0.401415
v -0.416703 -0.215808 -0.401415
v -0.416703 -0.216031 0.244364
v -0.464606 -0.216031 0.244364
v -0.468351 -0.162462 -0.401396
v -0.468351 -0.211489 -0.401413
v -0.468351 -0.211712 0.244366
v -0.468351 -0.162685 0.244383
v -0.464606 -0.162685 0.244897
v -0.464606 -0.211712 0.244880
v -0.416703 -0.211712 0.244880
v -0.416703 -0.162685 0.244897
v -0.412957 -0.211489 -0.401413
v -0.412957 -0.162462 -0.401396
v -0.412957 -0.162685 0.244383
v -0.412957 -0.211712 0.244366
v -0.416703 -0.158142 -0.401395
v -0.464606 -0.158142 -0.401395
v -0.464606 -0.158365 0.244384
v -0.416703 -0.158365 0.244384
v -0.464607 0.185101 -0.401276
v -0.416703 0.185101 -0.401276
v -0.416703 0.184877 0.244503
v -0.464607 0.184877 0.244503
v -0.468352 0.238447 -0.401258
v -0.468352 0.189420 -0.401275
v -0.468352 0.189197 0.244505
v -0.468352 0.238224 0.244521
v -0.464607 0.238224 0.245035
v -0.464607 0.189197 0.245018
v -0.416703 0.189197 0.245018
v -0.416703 0.238224 0.245035
v -0.412958 0.189420 -0.401275
v -0.412958 0.238447 -0.401258
v -0.412958 0.238224 0.244521
v -0.412958 0.189197 0.244505
v -0.416703 0.242767 -0.401257
v -0.464607 0.242766 -0.401257
v -0.464607 0.242543 0.244523
v -0.416703 0.242543 0.244523
v -0.416703 0.189420 -0.401789
v -0.416703 0.238447 -0.401772
v -0.464607 0.189420 -0.401789
v -0.464607 0.238447 -0.401772
v 0.412302 -0.157838 -0.368694
v 0.412302 -0.158049 0.242477
v 0.412301 0.186032 0.242596
v 0.412301 0.186243 -0.368575
v 0.440004 0.186032 0.242596
v 0.440004 0.186243 -0.368575
v 0.440005 -0.158049 0.242477
v 0.440005 -0.157838 -0.368694
v -0.440555 -0.157841 -0.368694
v -0.440556 0.186240 -0.368575
v -0.440556 0.186029 0.242596
v -0.440555 -0.158052 0.242477
v -0.468259 0.186240 -0.368575
v -0.468259 0.186029 0.242596
v -0.468258 -0.157841 -0.368694
v -0.468258 -0.158052 0.242477
v 0.391347 0.212371 -0.368566
v 0.391347 0.212160 0.242605
v -0.418397 0.212157 0.242605
v -0.418397 0.212369 -0.368566
v -0.418397 0.244109 0.242616
v -0.418397 0.244320 -0.368555
v 0.391347 0.244111 0.242616
v 0.391347 0.244323 -0.368555
v -0.418396 -0.181779 -0.368702
v -0.418395 -0.213731 -0.368713
v -0.418395 -0.213837 -0.063128
v -0.418395 -0.213942 0.242458
v -0.418396 -0.181991 0.242469
v 0.379958 -0.213831 -0.072992
v 0.379957 0.164263 -0.072862
v 0.379957 0.164362 -0.358718
v 0.379958 -0.213732 -0.358849
v 0.391348 -0.181988 0.242469
v 0.391348 -0.213940 0.242458
v 0.391348 -0.213835 -0.063128
v 0.391348 -0.213729 -0.368713
v 0.391348 -0.181777 -0.368702
v -0.027324 -0.213730 -0.368713
v -0.027324 -0.213941 0.242458
v -0.407006 -0.213735 -0.358849
v -0.407007 0.164360 -0.358718
v -0.407007 0.164261 -0.072862
v -0.407006 -0.213833 -0.072992
v -0.027324 -0.213733 -0.358849
v -0.027324 -0.213832 -0.072992
v -0.027324 -0.213835 -0.063128
v -0.027324 -0.213839 -0.053263
v 0.379958 -0.213838 -0.053263
v 0.379958 -0.213937 0.232593
v -0.027324 -0.213938 0.232593
v -0.407006 -0.213939 0.232593
v -0.407006 -0.213840 -0.053263
v -0.027324 0.164255 -0.053132
v 0.379957 0.164256 -0.053132
v 0.379957 0.164158 0.232724
v -0.027324 0.164157 0.232724
v -0.407007 0.164254 -0.053132
v -0.407007 0.164155 0.232724
v -0.027324 0.164361 -0.358718
v -0.027324 0.164262 -0.072862
v -0.468500 -0.219939 0.246560
v 0.441240 -0.219937 0.246560
v 0.441240 -0.219948 0.281204
v -0.468500 -0.219951 0.281204
v -0.473204 0.241751 0.246719
v -0.473203 -0.214515 0.246562
v -0.473203 -0.214527 0.281206
v -0.473204 0.241739 0.281364
v -0.468501 0.241738 0.286873
v -0.468500 -0.214529 0.286715
v 0.441240 -0.214526 0.286715
v 0.441239 0.241740 0.286873
v 0.445942 -0.214512 0.246562
v 0.445941 0.241754 0.246719
v 0.445941 0.241742 0.281364
v 0.445942 -0.214524 0.281206
v 0.441239 0.247178 0.246721
v -0.468502 0.247175 0.246721
v -0.468502 0.247164 0.281366
v 0.441239 0.247166 0.281366
v 0.441240 -0.214510 0.241052
v 0.441239 0.241756 0.241210
v -0.468500 -0.214513 0.241052
v -0.468501 0.241753 0.241210
vn -0.0000 1.0000 0.0003
vn 1.0000 -0.0000 -0.0000
vn -0.0000 0.0003 -1.0000
vn -1.0000 -0.0000 -0.0000
vn -0.0000 -1.0000 -0.0003
vn -0.6351 0.5502 0.5421
vn -0.6350 0.5507 -0.5418
vn -0.6350 -0.5507 0.5418
vn -0.6350 -0.5503 -0.5422
vn 0.6350 0.5504 0.5422
vn 0.6349 0.5507 -0.5418
vn 0.6350 -0.5506 0.5419
vn 0.6350 -0.5502 -0.5422
vn -0.7606 -0.0002 0.6492
vn -0.7607 -0.0002 0.6491
vn -0.7557 0.6550 0.0002
vn -0.7556 0.6550 0.0002
vn -0.7606 0.0002 -0.6492
vn -0.7556 -0.6550 -0.0002
vn -0.0000 -0.7128 0.7013
vn -0.0000 -0.7123 -0.7018
vn 0.7557 -0.6550 -0.0002
vn 0.7556 -0.6550 -0.0002
vn 0.7606 -0.0002 0.6492
vn 0.7606 -0.0002 0.6493
vn 0.7606 0.0002 -0.6493
vn 0.7555 0.6551 0.0002
vn -0.0000 0.7123 0.7018
vn -0.0000 0.7124 0.7018
vn -0.0000 0.7123 0.7019
vn -0.0000 0.7128 -0.7013
vn -0.0000 -0.0003 1.0000
vt 0.551465 0.908050
vt -0.009410 0.932711
vt -0.009410 0.908050
vt 0.551465 0.932711
vt 0.990287 0.908050
vt 0.732585 0.932711
vt 0.732585 0.908050
vt 0.990287 0.932711
vt 0.551465 0.990287
vt -0.009410 0.732585
vt 0.551465 0.732585
vt -0.009410 0.990287
vt 0.990590 0.908050
vt 1.551465 0.932711
vt 1.551465 0.908050
vt 0.990590 0.932711
vt 0.732585 0.904128
vt 0.729241 0.908050
vt 0.729241 0.932711
vt 0.732585 0.936633
vt 0.990287 0.904128
vt 0.993631 0.908050
vt 0.990287 0.936633
vt 0.993631 0.932711
vt 0.551465 0.904128
vt -0.009410 0.904128
vt 0.990590 0.936633
vt 1.551465 0.936633
vt 0.990590 0.904128
vt 1.551465 0.904128
vt 0.551465 0.936633
vt -0.009410 0.936633
vt 0.990590 0.990287
vt 1.551465 0.732585
vt 0.990590 0.732585
vt 1.551465 0.990287
s 1
usemtl M_SideTable_303_1_1
f 158/1/1 160/2/1 159/3/1
f 158/1/1 161/4/1 160/2/1
f 162/5/2 164/6/2 163/7/2
f 162/5/2 165/8/2 164/6/2
f 166/9/3 168/10/3 167/11/3
f 166/9/3 169/12/3 168/10/3
f 170/7/4 172/8/4 171/5/4
f 170/7/4 173/6/4 172/8/4
f 174/13/5 176/14/5 175/15/5
f 174/13/5 177/16/5 176/14/5
f 178/17/6 159/18/6 170/7/6
f 160/19/7 168/20/7 173/6/7
f 179/21/8 171/5/8 174/22/8
f 169/23/9 177/24/9 172/8/9
f 180/17/10 163/7/10 158/18/10
f 167/20/11 161/19/11 164/6/11
f 181/21/12 175/22/12 162/5/12
f 166/23/13 165/8/13 176/24/13
f 179/21/14 170/7/15 171/5/14
f 179/21/14 178/17/15 170/7/15
f 159/18/16 173/6/17 170/7/16
f 159/18/16 160/19/17 173/6/17
f 168/20/18 172/8/18 173/6/18
f 168/20/18 169/23/18 172/8/18
f 177/24/19 171/5/19 172/8/19
f 177/24/19 174/22/19 171/5/19
f 181/25/20 174/3/20 175/1/20
f 181/25/20 179/26/20 174/3/20
f 169/27/21 176/14/21 177/16/21
f 169/27/21 166/28/21 176/14/21
f 165/8/22 175/22/23 176/24/22
f 165/8/22 162/5/23 175/22/23
f 180/17/24 162/5/25 163/7/24
f 180/17/24 181/21/25 162/5/25
f 166/23/26 164/6/26 165/8/26
f 166/23/26 167/20/26 164/6/26
f 161/19/27 163/7/27 164/6/27
f 161/19/27 158/18/27 163/7/27
f 178/29/28 158/15/29 159/13/30
f 178/29/28 180/30/29 158/15/29
f 167/31/31 160/2/31 161/4/31
f 167/31/31 168/32/31 160/2/31
f 179/33/32 180/34/32 178/35/32
f 179/33/32 181/36/32 180/34/32
