# Blender 4.1.0
# www.blender.org
mtllib MeshBox_1_FlapOuter_1_1.mtl
o Box_1_FlapOuter_1
v -0.215131 0.177900 0.150330
v -0.215131 -0.203556 0.150330
v -0.213523 0.177900 0.151885
v -0.213523 -0.203556 0.151885
v -0.125285 0.177900 0.059834
v -0.125272 0.177900 0.060624
v -0.125285 -0.203556 0.059834
v -0.125272 -0.203556 0.060624
v -0.126089 0.177900 0.059056
v -0.126879 0.177900 0.059069
v -0.126089 -0.203556 0.059056
v -0.126879 -0.203556 0.059069
vn -0.6952 -0.0000 0.7189
vn 0.8868 -0.0000 -0.4621
vn 0.7219 -0.0000 0.6920
vn -0.0000 1.0000 -0.0000
vn -0.0000 -1.0000 -0.0000
vn -0.7158 -0.0000 -0.6983
vn 0.4322 -0.0000 -0.9018
vn -0.7189 -0.0000 -0.6952
vn 0.7189 -0.0000 0.6952
vt 1.529613 1.444735
vt 1.529613 0.512573
vt 1.535070 0.512572
vt 1.535070 1.444735
vt 1.521276 0.467984
vt 1.522776 0.466457
vt 1.522775 1.490850
vt 1.521276 1.489324
vt 1.518278 0.467984
vt 1.516779 0.466457
vt 1.516779 1.490850
vt 1.518278 1.489324
vt 1.499696 0.512572
vt 1.499696 1.444736
vt 1.189925 1.444736
vt 1.189925 0.512572
vt 0.851932 1.444736
vt 0.851932 0.512572
vt 1.161703 0.512572
vt 1.161702 1.444736
vt 0.834132 1.156282
vt 0.834132 1.466052
vt 0.828675 1.466052
vt 0.828675 1.156282
vt 0.816288 1.466053
vt 0.816288 1.156281
vt 0.821745 1.156281
vt 0.821745 1.466053
s 1
usemtl M_Box_1_FlapOuter_1_0
f 1/1/1 2/2/1 4/3/1 3/4/1
f 5/5/2 6/6/3 8/7/3 7/8/2
f 6/6/4 5/5/4 9/9/4 10/10/4
f 7/8/5 8/7/5 12/11/5 11/12/5
f 10/10/6 9/9/7 11/12/7 12/11/6
f 5/5/2 7/8/2 11/12/7 9/9/7
f 10/13/6 12/14/6 2/15/8 1/16/8
f 3/17/9 4/18/9 8/19/3 6/20/3
f 8/21/5 4/22/5 2/23/5 12/24/5
f 3/25/4 6/26/4 10/27/4 1/28/4
