# Blender 4.1.0
# www.blender.org
mtllib DrwermeshSideTableDrawer_302_1_1_1_GeomSubset_0.mtl
o DrwermeshSideTableDrawer_302_1_1_1_GeomSubset_0
v -0.231716 -0.157447 0.204316
v -0.231716 -0.168683 0.204316
v -0.231716 -0.168683 -0.045542
v -0.231716 -0.157447 -0.045542
v 0.231116 -0.157447 -0.045542
v 0.231116 -0.168683 -0.045542
v 0.231116 -0.168683 0.204316
v 0.231116 -0.157447 0.204316
v 0.206130 -0.170569 -0.025546
v -0.206730 -0.170569 -0.025546
v -0.206730 -0.170569 0.184320
v 0.206130 -0.170569 0.184320
v 0.226127 -0.157447 0.209306
v 0.226127 -0.168683 0.209306
v -0.226727 -0.168683 0.209306
v -0.226727 -0.157447 0.209306
v 0.202557 0.030184 0.195822
v 0.202557 0.030184 -0.022241
v -0.203158 0.030184 -0.022241
v -0.203158 0.030184 0.195822
v -0.226727 -0.157447 -0.050532
v -0.226727 -0.168683 -0.050532
v 0.226127 -0.168683 -0.050532
v 0.226127 -0.157447 -0.050532
v -0.226727 -0.152457 0.204316
v 0.226127 -0.152457 0.204316
v -0.226727 -0.152457 -0.045542
v 0.226127 -0.152457 -0.045542
v 0.226127 -0.173673 0.204316
v -0.226727 -0.173673 0.204316
v -0.226727 -0.173673 -0.045542
v 0.226127 -0.173673 -0.045542
v 0.217633 -0.152457 0.195822
v -0.218233 -0.152457 0.195822
v 0.217633 -0.152457 -0.037048
v -0.218233 -0.152457 -0.037048
v 0.217633 0.045259 -0.037048
v 0.217633 0.045259 0.195822
v -0.218233 0.045259 0.195822
v -0.218233 0.045259 -0.037048
v -0.203158 -0.137382 -0.022241
v -0.203157 -0.137382 0.195822
v 0.202557 -0.137382 0.195822
v 0.202557 -0.137382 -0.022241
v -0.212951 -0.173673 0.190541
v 0.212351 -0.173673 0.190541
v -0.212951 -0.173673 -0.031766
v 0.212351 -0.173673 -0.031766
v -0.209841 -0.173673 0.187430
v 0.209241 -0.173673 0.187430
v -0.209841 -0.173673 -0.028656
v 0.209241 -0.173673 -0.028656
v -0.037601 -0.172651 0.010854
v -0.037601 -0.174255 0.010854
v -0.037601 -0.174255 -0.020053
v -0.037601 -0.172651 -0.020053
v -0.037601 -0.169753 0.010854
v -0.037601 -0.169753 -0.020053
v 0.037001 -0.174255 -0.020053
v 0.037001 -0.172651 -0.020053
v 0.037001 -0.169753 -0.020053
v 0.037001 -0.174255 0.010854
v 0.037001 -0.172651 0.010854
v 0.037001 -0.169753 0.010854
v 0.035706 -0.175549 -0.019081
v -0.036306 -0.175549 -0.019081
v -0.036306 -0.175549 0.009882
v 0.035706 -0.175549 0.009882
vn -1.0000 -0.0000 -0.0000
vn 1.0000 -0.0000 -0.0000
vn -0.0000 -1.0000 -0.0000
vn -0.0000 -0.0000 1.0000
vn -0.0000 -0.0000 -1.0000
vn -0.5774 0.5773 0.5773
vn 0.5774 0.5773 0.5773
vn -0.5774 0.5773 -0.5773
vn 0.5774 0.5773 -0.5773
vn 0.5774 -0.5773 0.5773
vn -0.5774 -0.5773 0.5773
vn -0.5774 -0.5773 -0.5773
vn 0.5774 -0.5773 -0.5773
vn -0.0000 0.7071 0.7071
vn -0.7072 0.7070 -0.0000
vn -0.0000 0.7071 -0.7071
vn 0.7072 0.7070 -0.0000
vn -0.0000 -0.7071 0.7071
vn -0.7072 -0.7070 -0.0000
vn -0.0000 -0.7071 -0.7071
vn 0.7072 -0.7070 -0.0000
vn -0.7072 -0.0000 0.7070
vn 0.7072 -0.0000 0.7070
vn -0.7072 -0.0000 -0.7070
vn 0.7072 -0.0000 -0.7070
vn -0.0000 1.0000 -0.0000
vn -0.7063 -0.7079 -0.0000
vn -0.0000 -0.7078 0.7064
vn 0.7063 -0.7079 -0.0000
vn -0.0000 -0.7078 -0.7064
vt 0.264035 0.818362
vt 0.257421 0.671280
vt 0.257421 0.818362
vt 0.264035 0.671280
vt 0.084943 0.683051
vt -0.158092 0.806591
vt -0.158092 0.683051
vt 0.084943 0.806591
vt 0.096714 0.264035
vt -0.169862 0.257421
vt 0.096714 0.257421
vt -0.169862 0.264035
vt 0.082840 0.813362
vt -0.155988 0.684997
vt 0.082840 0.684997
vt -0.155988 0.813362
vt 0.830137 0.264035
vt 1.096714 0.257421
vt 0.830137 0.257421
vt 1.096714 0.264035
vt 0.830137 0.266973
vt 0.827200 0.264035
vt 0.264035 0.821299
vt 0.266973 0.818362
vt 0.096714 0.266973
vt 0.099651 0.264035
vt 0.257421 0.821299
vt 0.254484 0.818362
vt 0.827200 0.257421
vt 0.830137 0.254484
vt 0.099651 0.257421
vt 0.096714 0.254484
vt -0.169862 0.266973
vt 0.830137 0.818362
vt 0.827200 0.671280
vt 0.827200 0.818362
vt 0.830137 0.671280
vt 0.266973 0.671280
vt -0.169862 0.254484
vt 0.254484 0.671280
vt 0.091714 0.813362
vt -0.169862 0.818362
vt 0.096714 0.818362
vt -0.164862 0.813362
vt 0.091714 0.676280
vt 0.096714 0.671280
vt 0.835137 0.813362
vt 0.835137 0.676280
vt 1.096714 0.671280
vt 1.091714 0.676280
vt -0.164862 0.676280
vt 0.266973 0.676280
vt 0.383360 0.813362
vt 0.383360 0.676280
vt 0.266973 0.813362
vt 0.091714 0.266973
vt -0.164862 0.383360
vt 0.091714 0.383360
vt -0.164862 0.266973
vt 0.374486 0.813362
vt 0.275847 0.684997
vt 0.374486 0.684997
vt 0.275847 0.813362
vt 0.082840 0.275847
vt -0.155988 0.275847
vt 0.082840 0.374486
vt 0.844011 0.374486
vt 1.091714 0.383360
vt 0.835137 0.383360
vt 1.082840 0.374486
vt 0.844011 0.275847
vt 0.835137 0.266973
vt 1.082840 0.275847
vt 0.844011 0.813362
vt 1.082840 0.684997
vt 0.844011 0.684997
vt 1.082840 0.813362
vt -0.161753 0.810252
vt 0.088605 0.810252
vt -0.161753 0.679389
vt -0.169862 0.671280
vt 0.088605 0.679389
vt -0.159922 0.808422
vt 0.086774 0.808422
vt -0.159922 0.681220
vt 0.086774 0.681220
s 1
usemtl M_SideTableDrawer_302_1_1_0
f 1/1/1 3/2/1 2/3/1
f 1/1/1 4/4/1 3/2/1
f 5/4/2 7/3/2 6/2/2
f 5/4/2 8/1/2 7/3/2
f 9/5/3 11/6/3 10/7/3
f 9/5/3 12/8/3 11/6/3
f 13/9/4 15/10/4 14/11/4
f 13/9/4 16/12/4 15/10/4
f 17/13/3 19/14/3 18/15/3
f 17/13/3 20/16/3 19/14/3
f 21/17/5 23/18/5 22/19/5
f 21/17/5 24/20/5 23/18/5
f 16/17/6 25/21/6 1/22/6
f 13/23/7 8/1/7 26/24/7
f 4/22/8 27/21/8 21/17/8
f 24/9/9 28/25/9 5/26/9
f 14/27/10 29/28/10 7/3/10
f 15/19/11 2/29/11 30/30/11
f 3/29/12 22/19/12 31/30/12
f 23/11/13 6/31/13 32/32/13
f 26/25/14 16/12/14 13/9/14
f 26/25/14 25/33/14 16/12/14
f 25/34/15 4/35/15 1/36/15
f 25/34/15 27/37/15 4/35/15
f 24/9/16 27/33/16 28/25/16
f 24/9/16 21/12/16 27/33/16
f 8/1/17 28/38/17 26/24/17
f 8/1/17 5/4/17 28/38/17
f 14/11/18 30/39/18 29/32/18
f 14/11/18 15/10/18 30/39/18
f 2/36/19 31/37/19 30/34/19
f 2/36/19 3/35/19 31/37/19
f 32/32/20 22/10/20 23/11/20
f 32/32/20 31/39/20 22/10/20
f 29/28/21 6/2/21 7/3/21
f 29/28/21 32/40/21 6/2/21
f 1/22/22 15/19/22 16/17/22
f 1/22/22 2/29/22 15/19/22
f 7/3/23 13/23/23 14/27/23
f 7/3/23 8/1/23 13/23/23
f 21/17/24 3/29/24 4/22/24
f 21/17/24 22/19/24 3/29/24
f 5/26/25 23/11/25 24/9/25
f 5/26/25 6/31/25 23/11/25
f 33/41/26 25/42/26 26/43/26
f 33/41/26 34/44/26 25/42/26
f 35/45/26 33/41/26 26/43/26
f 35/45/26 26/43/26 28/46/26
f 34/47/26 27/37/26 25/34/26
f 34/47/26 36/48/26 27/37/26
f 36/48/26 28/49/26 27/37/26
f 36/48/26 35/50/26 28/49/26
f 37/45/26 39/44/26 38/41/26
f 37/45/26 40/51/26 39/44/26
f 36/52/1 39/53/1 40/54/1
f 36/52/1 34/55/1 39/53/1
f 35/56/5 40/57/5 37/58/5
f 35/56/5 36/59/5 40/57/5
f 33/55/2 37/54/2 38/53/2
f 33/55/2 35/52/2 37/54/2
f 20/60/2 41/61/2 19/62/2
f 20/60/2 42/63/2 41/61/2
f 43/64/4 34/59/4 33/56/4
f 43/64/4 42/65/4 34/59/4
f 17/66/4 43/64/4 33/56/4
f 17/66/4 33/56/4 38/58/4
f 20/67/4 38/68/4 39/69/4
f 20/67/4 17/70/4 38/68/4
f 42/71/4 20/67/4 39/69/4
f 42/71/4 39/69/4 34/72/4
f 41/71/4 18/70/4 19/67/4
f 41/71/4 44/73/4 18/70/4
f 42/74/26 44/75/26 41/76/26
f 42/74/26 43/77/26 44/75/26
f 43/63/1 18/62/1 44/61/1
f 43/63/1 17/60/1 18/62/1
f 45/78/3 29/43/3 30/42/3
f 45/78/3 46/79/3 29/43/3
f 47/80/3 45/78/3 30/42/3
f 47/80/3 30/42/3 31/81/3
f 48/82/3 47/80/3 31/81/3
f 48/82/3 31/81/3 32/46/3
f 46/79/3 32/46/3 29/43/3
f 46/79/3 48/82/3 32/46/3
f 49/83/3 46/79/3 45/78/3
f 49/83/3 50/84/3 46/79/3
f 50/84/3 48/82/3 46/79/3
f 51/85/3 45/78/3 47/80/3
f 51/85/3 49/83/3 45/78/3
f 52/86/3 47/80/3 48/82/3
f 52/86/3 51/85/3 47/80/3
f 50/84/3 52/86/3 48/82/3
f 12/8/27 52/86/27 50/84/27
f 12/8/27 9/5/27 52/86/27
f 9/5/28 51/85/28 52/86/28
f 9/5/28 10/7/28 51/85/28
f 10/7/29 49/83/29 51/85/29
f 10/7/29 11/6/29 49/83/29
f 11/6/30 50/84/30 49/83/30
f 11/6/30 12/8/30 50/84/30
