# Blender 4.1.0
# www.blender.org
mtllib MeshBook_29_0_GeomSubset_0.mtl
o MeshBook_29_0_GeomSubset_0
v 0.070320 -0.107909 -0.009742
v 0.070320 0.107909 -0.009742
v 0.070320 0.107909 -0.010206
v 0.070320 -0.107909 -0.010206
v -0.085076 0.107909 -0.008656
v -0.083323 0.107909 -0.009742
v -0.084177 0.107909 -0.010206
v -0.085771 0.107909 -0.009168
v -0.083323 -0.107909 -0.009742
v -0.085076 -0.107909 -0.008656
v -0.084177 -0.107909 -0.010206
v -0.085771 -0.107909 -0.009168
v -0.086040 -0.107909 -0.002539
v -0.086976 -0.107909 -0.002539
v -0.086976 0.107909 -0.002539
v -0.086040 0.107909 -0.002539
v -0.086697 -0.107909 -0.005853
v -0.086697 0.107909 -0.005853
v -0.085766 0.107909 -0.005598
v -0.085766 -0.107909 -0.005598
v -0.086834 -0.107909 -0.004196
v -0.086834 0.107909 -0.004196
v -0.085918 0.107909 -0.004068
v -0.085918 -0.107909 -0.004068
v -0.086216 -0.107909 -0.007511
v -0.086216 0.107909 -0.007511
v -0.085439 0.107909 -0.007127
v -0.085439 -0.107909 -0.007127
v -0.084803 0.107909 -0.002539
v 0.070320 0.107909 -0.002539
v 0.070320 -0.107909 -0.002539
v -0.084803 -0.107909 -0.002539
v -0.084507 0.107909 -0.006141
v 0.070320 0.107909 -0.006141
v 0.070320 -0.107909 -0.006141
v -0.084507 -0.107909 -0.006141
v -0.084803 -0.106730 -0.000727
v -0.086040 -0.107909 -0.002539
v -0.084803 0.106731 -0.000727
v -0.086040 0.107909 -0.002539
v 0.069339 -0.106730 -0.002079
v 0.069339 0.106731 -0.002079
v 0.070320 -0.107909 -0.009742
v 0.070320 0.107909 -0.009742
v -0.083323 0.107909 -0.009742
v -0.085076 0.107909 -0.008656
v -0.085076 -0.107909 -0.008656
v -0.083323 -0.107909 -0.009742
v -0.085766 0.107909 -0.005598
v -0.085767 -0.107909 -0.005598
v -0.030676 0.107909 -0.009742
v -0.031465 0.107909 -0.006141
v -0.031662 0.107909 -0.002539
v -0.031938 0.106731 0.004864
v -0.031938 -0.106730 0.004864
v -0.031662 -0.107909 -0.002539
v -0.031465 -0.107909 -0.006141
v -0.030676 -0.107909 -0.009742
v 0.017194 0.107909 -0.009742
v 0.016802 0.107909 -0.006141
v 0.016702 0.107909 -0.002539
v 0.016154 0.106731 0.002667
v 0.016154 -0.106730 0.002667
v 0.016702 -0.107909 -0.002539
v 0.016802 -0.107909 -0.006141
v 0.017194 -0.107909 -0.009742
v -0.016947 0.107909 -0.009742
v -0.017605 0.107909 -0.006141
v -0.017769 0.107909 -0.002539
v -0.018134 0.106731 0.004545
v -0.018134 -0.106730 0.004545
v -0.017769 -0.107909 -0.002539
v -0.017605 -0.107909 -0.006141
v -0.016947 -0.107909 -0.009742
v 0.000125 0.107909 -0.009742
v -0.000401 0.107909 -0.006141
v -0.000533 0.107909 -0.002539
v -0.000991 0.106731 0.003792
v -0.000991 -0.106730 0.003792
v -0.000533 -0.107909 -0.002539
v -0.000401 -0.107909 -0.006141
v 0.000125 -0.107909 -0.009742
v -0.072193 0.107909 -0.009742
v -0.073298 0.107909 -0.006141
v -0.073574 0.107909 -0.002539
v -0.073628 0.106731 0.002896
v -0.073628 -0.106730 0.002896
v -0.073574 -0.107909 -0.002539
v -0.073298 -0.107909 -0.006141
v -0.072193 -0.107909 -0.009742
v -0.062838 0.107909 -0.009742
v -0.063863 0.107909 -0.006141
v -0.064119 0.107909 -0.002539
v -0.064229 0.106731 0.004355
v -0.064229 -0.106730 0.004355
v -0.064119 -0.107909 -0.002539
v -0.063863 -0.107909 -0.006141
v -0.062838 -0.107909 -0.009742
v -0.052595 0.107909 -0.009742
v -0.053541 0.107909 -0.006141
v -0.053778 0.107909 -0.002539
v -0.053942 0.106731 0.004943
v -0.053942 -0.106730 0.004943
v -0.053778 -0.107909 -0.002539
v -0.053541 -0.107909 -0.006141
v -0.052595 -0.107909 -0.009742
v -0.042351 0.107909 -0.009742
v -0.043220 0.107909 -0.006141
v -0.043436 0.107909 -0.002539
v -0.043656 0.106731 0.004979
v -0.043656 -0.106730 0.004979
v -0.043436 -0.107909 -0.002539
v -0.043220 -0.107909 -0.006141
v -0.042351 -0.107909 -0.009742
v 0.034250 0.107909 -0.009742
v 0.034053 0.107909 -0.006141
v 0.034003 0.107909 -0.002539
v 0.033318 0.106731 0.001440
v 0.033318 -0.106730 0.001440
v 0.034003 -0.107909 -0.002539
v 0.034053 -0.107909 -0.006141
v 0.034250 -0.107909 -0.009742
v 0.051330 0.107909 -0.009742
v 0.051232 0.107909 -0.006141
v 0.051207 0.107909 -0.002539
v 0.050452 0.106731 0.000004
v 0.050452 -0.106730 0.000004
v 0.051207 -0.107909 -0.002539
v 0.051232 -0.107909 -0.006141
v 0.051330 -0.107909 -0.009742
v -0.085893 -0.106881 -0.001518
v -0.085893 0.106881 -0.001518
v -0.086320 -0.107747 -0.002251
v -0.086320 0.107747 -0.002251
v -0.086695 -0.107747 -0.002251
v -0.086695 0.107747 -0.002251
v -0.079220 0.107909 -0.009742
v -0.080365 0.107909 -0.006141
v -0.080650 0.107909 -0.002539
v -0.080678 0.106731 0.001137
v -0.080678 -0.106730 0.001137
v -0.080650 -0.107909 -0.002539
v -0.080365 -0.107909 -0.006141
v -0.079220 -0.107909 -0.009742
v -0.086543 -0.106952 -0.002184
v -0.086543 -0.107909 -0.002539
v -0.086543 0.106953 -0.002184
v -0.086543 0.107909 -0.002539
v 0.064826 0.107909 -0.009742
v 0.064800 0.107909 -0.006141
v 0.064795 0.107909 -0.002539
v 0.063990 0.106731 -0.001306
v 0.063990 -0.106730 -0.001306
v 0.064795 -0.107909 -0.002539
v 0.064800 -0.107909 -0.006141
v 0.064826 -0.107909 -0.009742
vn 1.0000 -0.0000 -0.0000
vn -0.0000 1.0000 -0.0000
vn -0.7975 -0.0000 -0.6033
vn -0.0068 -0.0000 -1.0000
vn -0.0000 -1.0000 -0.0000
vn -0.0000 -0.0000 -1.0000
vn -0.9631 -0.0000 -0.2690
vn -0.9829 -0.0000 -0.1840
vn -0.9965 -0.0000 -0.0839
vn -0.9989 -0.0000 0.0461
vn -0.0000 0.9991 0.0418
vn -0.0000 0.9993 0.0387
vn -0.0000 -0.9993 0.0385
vn -0.0000 -0.9991 0.0417
vn -0.4359 -0.0000 0.9000
vn 0.4359 -0.0000 0.9000
vn -0.0001 -0.9991 0.0418
vn -0.0001 -0.9993 0.0387
vn -0.0000 -0.8714 0.4905
vn -0.0000 0.8713 0.4908
vn 0.7165 -0.0000 0.6976
vt 0.666715 0.331252
vt 0.666736 0.168054
vt 0.667778 0.168043
vt 0.667757 0.331263
vt 0.668705 0.332827
vt 0.668088 0.332827
vt 0.668090 0.331263
vt 0.668669 0.331263
vt 0.668090 0.168043
vt 0.668669 0.168043
vt 0.668088 0.166738
vt 0.668705 0.166738
vt 0.669964 0.168043
vt 0.669964 0.331263
vt 0.667772 0.332845
vt 0.667797 0.166723
vt 0.670028 0.166738
vt 0.669992 0.332827
vt 0.671260 0.331263
vt 0.671260 0.168043
vt 0.672555 0.168043
vt 0.672555 0.331263
vt 0.672565 0.332827
vt 0.671278 0.332827
vt 0.671351 0.166738
vt 0.672674 0.166738
vt 0.673801 0.167984
vt 0.673799 0.331263
vt 0.673794 0.332827
vt 0.673801 0.166738
vt 0.674104 0.331732
vt 0.674104 0.167695
vt 0.674507 0.167695
vt 0.674507 0.331732
vt 0.674104 0.167096
vt 0.674104 0.332384
vt 0.674974 0.167695
vt 0.674967 0.331732
s 1
usemtl M_Book_29_0
f 2/1/1 1/2/1 4/3/1 3/4/1
f 5/5/2 6/6/2 7/7/2 8/8/2
f 8/8/3 7/7/4 11/9/4 12/10/3
f 9/11/5 10/12/5 12/10/5 11/9/5
f 7/7/4 3/4/6 4/3/6 11/9/4
f 8/8/3 12/10/3 25/13/7 26/14/7
f 7/7/2 6/6/2 2/15/2 3/4/2
f 1/16/5 9/11/5 11/9/5 4/3/5
f 12/10/5 10/12/5 28/17/5 25/13/5
f 26/14/2 27/18/2 5/5/2 8/8/2
f 18/19/8 17/20/8 21/21/9 22/22/9
f 22/22/2 23/23/2 19/24/2 18/19/2
f 17/20/5 20/25/5 24/26/5 21/21/5
f 22/22/9 21/21/9 14/27/10 15/28/10
f 15/28/11 16/29/12 23/23/2 22/22/2
f 21/21/5 24/26/5 13/30/13 14/27/14
f 26/14/7 25/13/7 17/20/8 18/19/8
f 18/19/2 19/24/2 27/18/2 26/14/2
f 25/13/5 28/17/5 20/25/5 17/20/5
f 136/31/15 135/32/15 133/33/16 134/34/16
f 14/27/17 13/30/18 133/35/19 135/32/19
f 16/29/12 15/28/11 136/31/20 134/36/20
f 133/33/16 13/37/21 16/38/21 134/34/16
f 14/27/10 135/32/15 136/31/15 15/28/10
