# Blender 4.1.0
# www.blender.org
mtllib MeshWindowHung_48X44_0_GeomSubset_0.mtl
o MeshWindowHung_48X44_0_GeomSubset_0
v -0.608788 0.040624 -0.581832
v 0.610411 0.040626 -0.581832
v -0.608788 0.040624 0.637368
v 0.610411 0.040626 0.637368
v -0.608788 -0.040626 -0.581832
v -0.608788 -0.040626 0.637368
v 0.610411 -0.040624 0.637368
v 0.610411 -0.040624 -0.581832
v -0.634025 0.120779 -0.581832
v 0.635647 0.120780 -0.581832
v 0.635648 -0.120779 -0.581832
v -0.634025 -0.120780 -0.581832
v -0.634025 0.092218 -0.636872
v -0.634025 0.120779 -0.600107
v 0.635648 -0.092217 -0.636872
v 0.635648 -0.120779 -0.600106
v -0.634025 -0.092219 -0.636872
v -0.634025 -0.120780 -0.600107
v 0.635647 0.092219 -0.636872
v 0.635647 0.120780 -0.600107
v -0.543055 0.040624 0.571602
v -0.543055 0.040624 -0.515421
v -0.543055 -0.040625 0.571602
v -0.543055 -0.040625 -0.515421
v 0.544715 0.040626 0.571602
v 0.544715 -0.040624 0.571602
v 0.544715 -0.040624 -0.515421
v 0.544715 0.040626 -0.515421
v -0.543055 0.031819 0.571602
v -0.543055 0.031819 -0.515421
v -0.543055 -0.031820 0.571602
v -0.543055 -0.031820 -0.515421
v 0.544715 0.031820 0.571602
v 0.544715 -0.031819 0.571602
v 0.544715 -0.031819 -0.515421
v 0.544715 0.031820 -0.515421
v -0.565895 0.031819 0.594876
v -0.565895 0.031819 -0.581832
v -0.565894 -0.031820 0.594876
v -0.565894 -0.031820 -0.581832
v 0.567554 0.031820 0.594876
v 0.567554 -0.031819 0.594876
v 0.567554 -0.031819 -0.581832
v 0.567554 0.031820 -0.581832
v 0.567059 0.000022 -0.008642
v -0.565727 0.000021 -0.008642
v 0.567059 0.000022 0.594495
v -0.565727 0.000021 0.594495
v 0.567059 -0.031843 0.594495
v -0.565727 -0.031844 0.594495
v 0.567059 -0.031843 -0.008642
v -0.565727 -0.031844 -0.008642
v 0.567059 0.000022 -0.008642
v -0.565727 0.000021 -0.008642
v -0.565727 0.000021 0.594495
v 0.567059 0.000022 0.594495
v 0.567059 -0.031843 0.594495
v -0.565727 -0.031844 0.594495
v -0.565727 -0.031844 -0.008642
v 0.567059 -0.031843 -0.008642
v 0.567059 0.000022 -0.008642
v -0.565727 0.000021 -0.008642
v -0.565727 0.000021 0.594495
v 0.567059 0.000022 0.594495
v 0.567059 -0.031843 0.594495
v -0.565727 -0.031844 0.594495
v -0.565727 -0.031844 -0.008642
v 0.567059 -0.031843 -0.008642
v 0.528479 0.000022 0.030823
v -0.527148 0.000021 0.030823
v -0.527148 0.000021 0.555030
v 0.528479 0.000022 0.555030
v 0.528479 -0.031843 0.555030
v -0.527148 -0.031844 0.555030
v -0.527148 -0.031844 0.030823
v 0.528479 -0.031843 0.030823
v 0.567059 0.031705 -0.581880
v -0.565727 0.031704 -0.581880
v 0.567059 0.031705 0.030823
v -0.565727 0.031704 0.030823
v 0.567059 -0.000160 0.030823
v -0.565727 -0.000161 0.030823
v 0.567059 -0.000160 -0.581880
v -0.565727 -0.000161 -0.581880
v 0.567059 0.031705 -0.581880
v -0.565727 0.031704 -0.581880
v -0.565727 0.031704 0.030823
v 0.567059 0.031705 0.030823
v 0.567059 -0.000160 0.030823
v -0.565727 -0.000161 0.030823
v -0.565727 -0.000161 -0.581880
v 0.567059 -0.000160 -0.581880
v 0.567059 0.031705 -0.581880
v -0.565727 0.031704 -0.581880
v -0.565727 0.031704 0.030823
v 0.567059 0.031705 0.030823
v 0.567059 -0.000160 0.030823
v -0.565727 -0.000161 0.030823
v -0.565727 -0.000161 -0.581880
v 0.567059 -0.000160 -0.581880
v 0.528479 0.031705 -0.499278
v -0.527148 0.031704 -0.499278
v -0.527148 0.031704 -0.008642
v 0.528479 0.031705 -0.008642
v 0.528479 -0.000160 -0.008642
v -0.527148 -0.000161 -0.008642
v -0.527148 -0.000161 -0.499278
v 0.528479 -0.000160 -0.499278
v 0.528479 -0.010460 0.030823
v -0.527148 -0.010461 0.030823
v -0.527148 -0.010461 0.555030
v 0.528479 -0.010460 0.555030
v 0.528479 -0.019734 0.555030
v -0.527148 -0.019735 0.555030
v -0.527148 -0.019735 0.030823
v 0.528479 -0.019734 0.030823
v 0.528479 0.020216 -0.499278
v -0.527148 0.020215 -0.499278
v -0.527148 0.020215 -0.008642
v 0.528479 0.020216 -0.008642
v 0.528479 0.010942 -0.008642
v -0.527148 0.010940 -0.008642
v -0.527148 0.010940 -0.499278
v 0.528479 0.010942 -0.499278
v 0.030468 0.022278 0.029663
v -0.029574 0.022278 0.029663
v 0.021443 0.022278 0.047966
v -0.020549 0.022278 0.047966
v 0.021443 -0.000182 0.047966
v -0.020549 -0.000182 0.047966
v 0.030468 -0.000182 0.029663
v -0.029574 -0.000182 0.029663
v 0.026146 0.022278 0.044516
v 0.026146 -0.000182 0.044516
v -0.025252 -0.000182 0.044516
v -0.025252 0.022278 0.044516
v 0.028896 0.022278 0.038817
v 0.028896 -0.000182 0.038817
v -0.028002 -0.000182 0.038817
v -0.028002 0.022278 0.038817
v -0.047300 -0.000182 0.029663
v -0.047300 0.022278 0.029663
v 0.048194 -0.000182 0.029663
v 0.048194 0.022278 0.029663
v -0.045550 -0.000182 0.036072
v -0.041953 -0.000182 0.038817
v -0.045550 0.022278 0.036072
v -0.041953 0.022278 0.038817
v 0.046444 0.022278 0.036072
v 0.042848 0.022278 0.038817
v 0.046444 -0.000182 0.036072
v 0.042848 -0.000182 0.038817
v -0.041953 0.022278 0.029663
v -0.041953 -0.000182 0.029663
v 0.042848 -0.000182 0.029663
v 0.042848 0.022278 0.029663
v 0.027667 0.026896 0.029663
v -0.026773 0.026896 0.029663
v -0.025348 0.026896 0.038817
v 0.026242 0.026896 0.038817
v -0.022854 0.026896 0.043151
v 0.023748 0.026896 0.043151
v -0.018590 0.026896 0.045363
v 0.019484 0.026896 0.045363
v -0.020044 0.024770 0.047188
v -0.024633 0.024770 0.044358
v -0.027317 0.024770 0.038817
v -0.028851 0.024770 0.029663
v 0.029745 0.024770 0.029663
v 0.028211 0.024770 0.038817
v 0.025527 0.024770 0.044358
v 0.020937 0.024770 0.047188
v -0.006128 0.008298 0.047951
v -0.003349 0.005519 0.047951
v 0.000447 0.004502 0.047951
v 0.004243 0.005519 0.047951
v 0.007022 0.008298 0.047951
v 0.008039 0.012094 0.047951
v 0.007022 0.015890 0.047951
v 0.004243 0.018669 0.047951
v 0.000447 0.019686 0.047951
v -0.003349 0.018669 0.047951
v -0.006128 0.015890 0.047951
v -0.007145 0.012094 0.047951
v -0.006128 0.008298 0.052654
v -0.003349 0.005519 0.052654
v 0.000447 0.004502 0.052654
v 0.004243 0.005519 0.052654
v 0.007022 0.008298 0.052654
v 0.008039 0.012094 0.052654
v 0.007022 0.015890 0.052654
v 0.004243 0.018669 0.052654
v 0.000447 0.019686 0.052654
v -0.003349 0.018669 0.052654
v -0.006128 0.015890 0.052654
v -0.007145 0.012094 0.052654
v 0.000447 0.012094 0.052654
v 0.019586 0.008298 0.047951
v 0.019586 0.008298 0.052654
v 0.019586 0.012094 0.047951
v 0.019586 0.012094 0.052654
v 0.019586 0.015890 0.047951
v 0.019586 0.015890 0.052654
v 0.000447 0.012094 0.047951
v 0.029343 0.010102 0.047951
v 0.029343 0.012094 0.047951
v 0.029343 0.012094 0.053380
v 0.029343 0.010102 0.053380
v 0.029343 0.014087 0.047951
v 0.029343 0.014087 0.053380
v 0.035293 0.010693 0.046820
v 0.035293 0.012094 0.046820
v 0.037343 0.012094 0.053380
v 0.037343 0.010693 0.053380
v 0.035293 0.013495 0.046820
v 0.037343 0.013495 0.053380
v 0.040886 0.010927 0.039293
v 0.040886 0.012094 0.039293
v 0.052925 0.012094 0.039243
v 0.052925 0.010927 0.039243
v 0.040886 0.013261 0.039293
v 0.052925 0.013261 0.039243
v 0.037994 0.010927 0.045317
v 0.040174 0.010927 0.042027
v 0.037994 0.012094 0.045317
v 0.040174 0.012094 0.042028
v 0.046148 0.012094 0.051119
v 0.051296 0.012094 0.045675
v 0.046129 0.010927 0.051121
v 0.051298 0.010927 0.045657
v 0.037994 0.013261 0.045317
v 0.040174 0.013261 0.042028
v 0.046129 0.013261 0.051121
v 0.051298 0.013261 0.045657
vn -0.0000 1.0000 -0.0000
vn 1.0000 -0.0000 -0.0000
vn -0.0000 -0.0000 -1.0000
vn -0.0000 -0.0000 1.0000
vn -0.0000 -0.7897 -0.6135
vn -1.0000 -0.0000 -0.0000
vn -0.0000 -1.0000 -0.0000
vn -0.0000 0.7897 -0.6135
vn -0.0000 -0.0000 -0.0000
vn -0.3161 -0.0000 0.9487
vn -0.7072 -0.0000 0.7071
vt -8.911275 0.616162
vt -11.465614 0.616162
vt -11.327973 0.478376
vt -9.048994 0.478376
vt -11.262549 0.653911
vt -11.262549 3.119226
vt -11.395880 3.119226
vt -11.395880 0.653911
vt -5.990913 3.171778
vt -6.124244 3.171778
vt -6.124244 0.797097
vt -5.990913 0.797097
vt -11.693865 0.616162
vt -11.693865 -1.938178
vt -11.523640 -1.938178
vt -11.523640 0.616162
vt -8.096512 -1.938179
vt -8.036674 -1.938179
vt -8.036674 0.721906
vt -8.096512 0.721906
vt -11.059794 0.653911
vt -11.059794 3.119226
vt -11.193125 3.119226
vt -11.193125 0.653911
vt -5.788158 3.171778
vt -5.921488 3.171778
vt -5.921488 0.797097
vt -5.788158 0.797097
vt -11.465614 -1.938178
vt -11.327973 -1.799041
vt -11.922116 -1.938179
vt -11.751890 -1.938179
vt -11.751890 0.616161
vt -11.922116 0.616161
vt -11.700389 3.208251
vt -14.254728 3.208251
vt -14.116943 3.070611
vt -11.839527 3.070611
vt -11.635499 0.653911
vt -11.465274 0.653912
vt -11.465274 3.208252
vt -11.635499 3.208252
vt -8.911275 -1.938178
vt -9.048994 -1.799041
vt -7.590422 0.721906
vt -7.650261 0.721906
vt -7.650261 -1.938179
vt -7.590422 -1.938179
vt -8.660627 -1.938179
vt -8.492695 -1.885306
vt -8.492695 0.669033
vt -8.660627 0.721905
vt -8.154536 0.721905
vt -8.322469 0.669033
vt -8.322469 -1.885306
vt -8.154536 -1.938179
vt -8.756938 0.721907
vt -8.756938 -1.938178
vt -8.718653 -1.938178
vt -8.718652 0.721907
vt -8.814963 -1.938178
vt -8.814963 0.721907
vt -8.853251 0.721907
vt -8.853250 -1.938178
vt -12.635648 3.305839
vt -12.558620 3.246000
vt -12.558620 3.752091
vt -12.635648 3.692252
vt -12.520334 3.246000
vt -12.520334 3.752091
vt -12.693673 3.752091
vt -12.731959 3.752091
vt -12.731959 3.246000
vt -12.693673 3.246000
vt -12.808987 3.692252
vt -12.808987 3.305839
vt -11.700389 0.653911
vt -11.839527 0.791629
vt -14.116943 0.791629
vt -14.254728 0.653911
vt -10.717032 3.262720
vt -10.717032 5.540138
vt -10.735480 5.540138
vt -10.735480 3.262720
vt -10.811954 5.540138
vt -10.811954 3.262720
vt -10.793505 3.262720
vt -10.793505 5.540138
vt -10.429587 5.541700
vt -10.429587 3.262720
vt -10.411139 3.262720
vt -10.411139 5.541700
vt -10.487613 3.262721
vt -10.487613 5.541700
vt -10.506062 5.541700
vt -10.506062 3.262721
vt -10.869978 3.262720
vt -10.869978 5.540138
vt -10.888426 5.540138
vt -10.888426 3.262720
vt -10.964899 5.540138
vt -10.964899 3.262720
vt -10.946451 3.262720
vt -10.946451 5.540138
vt -10.582534 5.541700
vt -10.582534 3.262720
vt -10.564085 3.262720
vt -10.564085 5.541700
vt -10.640558 3.262720
vt -10.640558 5.541700
vt -10.659007 5.541700
vt -10.659007 3.262720
vt -8.663539 3.085833
vt -8.663539 0.808416
vt -8.615688 0.759656
vt -8.615688 3.224970
vt -6.230476 3.213651
vt -6.230476 0.936234
vt -6.182625 0.797097
vt -6.182625 3.262412
vt -8.509457 3.213651
vt -8.557306 3.262412
vt -10.942520 0.808416
vt -10.990370 0.759656
vt -8.509457 0.936234
vt -8.557306 0.797097
vt -10.942520 3.085833
vt -10.990370 3.224970
vt -5.718733 3.170392
vt -5.718733 0.797097
vt -5.651973 0.797097
vt -5.651973 3.170392
vt -5.589706 3.170391
vt -5.589706 0.797097
vt -5.522947 0.797097
vt -5.522947 3.170391
vt -11.838387 3.246000
vt -11.771628 3.246000
vt -11.771628 4.509630
vt -11.838387 4.509630
vt -11.963172 3.246000
vt -11.896413 3.246000
vt -11.896413 4.509630
vt -11.963172 4.509630
vt -11.557203 -4.673454
vt -11.557203 -1.975928
vt -14.254727 -1.975928
vt -14.254727 -4.673454
vt -11.488039 -4.673454
vt -8.790514 -4.673454
vt -8.790514 -1.975927
vt -11.488039 -1.975930
vt -6.098498 5.582821
vt -6.098498 3.209528
vt -6.015814 3.290355
vt -6.015814 5.501993
vt -4.834868 3.209528
vt -4.917550 3.290355
vt -4.834868 5.582821
vt -4.917550 5.501993
vt -7.420153 5.673454
vt -7.420153 3.300161
vt -7.337471 3.380988
vt -7.337471 5.592627
vt -6.156522 3.300161
vt -6.239206 3.380988
vt -6.156522 5.673454
vt -6.239206 5.592627
vt -12.021197 3.246000
vt -12.021197 4.344265
vt -12.087956 4.344265
vt -12.087956 3.246000
vt -11.022923 3.262719
vt -11.022923 5.474358
vt -11.089683 5.474358
vt -11.089683 3.262719
vt -12.212741 4.344265
vt -12.212741 3.246000
vt -12.145981 3.246000
vt -12.145981 4.344265
vt -11.214468 5.368614
vt -11.214468 3.156975
vt -11.147708 3.156975
vt -11.147708 5.368614
vt -7.544938 5.673454
vt -7.544938 3.300161
vt -7.478178 3.300161
vt -7.478178 5.673454
vt -7.669722 5.673454
vt -7.669722 3.300161
vt -7.602962 3.300161
vt -7.602962 5.673454
vt -11.588819 3.246001
vt -11.522060 3.246001
vt -11.522060 4.529673
vt -11.588819 4.529673
vt -11.713604 3.246001
vt -11.646844 3.246001
vt -11.646844 4.529673
vt -11.713604 4.529673
vt -6.025672 -4.673454
vt -6.025672 -1.975928
vt -8.723196 -1.975929
vt -8.723196 -4.673454
vt -4.834868 -1.938179
vt -4.834868 0.759348
vt -7.532395 0.759348
vt -7.532395 -1.938179
vt -9.011418 5.673454
vt -9.011418 3.300161
vt -8.838359 3.380988
vt -8.838359 5.592627
vt -7.727746 3.300161
vt -7.810430 3.380988
vt -7.727746 5.673454
vt -7.810430 5.592627
vt -10.353114 5.636014
vt -10.353114 3.262720
vt -10.270432 3.343547
vt -10.270432 5.555186
vt -9.069443 3.262720
vt -9.242503 3.343547
vt -9.069443 5.636014
vt -9.242503 5.555186
vt -12.270766 3.246000
vt -12.270766 4.273929
vt -12.337525 4.273929
vt -12.337525 3.246000
vt -11.272492 3.156975
vt -11.272492 5.368614
vt -11.339252 5.368614
vt -11.339252 3.156975
vt -12.462310 4.273929
vt -12.462310 3.246000
vt -12.395550 3.246000
vt -12.395550 4.273929
vt -11.464036 5.457639
vt -11.464036 3.246001
vt -11.397275 3.246001
vt -11.397275 5.457639
s 1
usemtl M_WindowHung_48X44_0
f 3/1/1 4/2/1 25/3/1 21/4/1
f 38/5/2 37/6/2 39/7/2 40/8/2
f 41/9/3 42/10/3 39/11/3 37/12/3
f 4/13/4 3/14/4 6/15/4 7/16/4
f 18/17/5 17/18/5 15/19/5 16/20/5
f 43/21/6 42/22/6 41/23/6 44/24/6
f 43/25/4 44/26/4 38/27/4 40/28/4
f 4/2/1 2/29/1 28/30/1 25/3/1
f 8/31/2 2/32/2 4/33/2 7/34/2
f 8/35/7 7/36/7 26/37/7 27/38/7
f 1/39/6 5/40/6 6/41/6 3/42/6
f 1/43/1 3/1/1 21/4/1 22/44/1
f 20/45/8 19/46/8 13/47/8 14/48/8
f 9/49/4 1/50/4 2/51/4 10/52/4
f 11/53/4 8/54/4 5/55/4 12/56/4
f 20/57/1 14/58/1 9/59/1 10/60/1
f 18/61/7 16/62/7 11/63/7 12/64/7
f 19/65/2 20/66/2 16/67/2 15/68/2
f 20/66/2 10/69/2 11/70/2 16/67/2
f 10/52/4 2/51/4 8/54/4 11/53/4
f 1/50/4 9/49/4 12/56/4 5/55/4
f 9/71/6 14/72/6 18/73/6 12/74/6
f 14/72/6 13/75/6 17/76/6 18/73/6
f 5/77/7 24/78/7 23/79/7 6/80/7
f 6/80/7 23/79/7 26/37/7 7/36/7
f 2/29/1 1/43/1 22/44/1 28/30/1
f 5/77/7 8/35/7 27/38/7 24/78/7
f 22/81/2 21/82/2 29/83/2 30/84/2
f 23/85/2 24/86/2 32/87/2 31/88/2
f 26/89/3 23/90/3 31/91/3 34/92/3
f 21/93/3 25/94/3 33/95/3 29/96/3
f 27/97/6 26/98/6 34/99/6 35/100/6
f 25/101/6 28/102/6 36/103/6 33/104/6
f 28/105/4 22/106/4 30/107/4 36/108/4
f 24/109/4 27/110/4 35/111/4 32/112/4
f 30/113/7 29/114/7 37/115/7 38/116/7
f 31/117/1 32/118/1 40/119/1 39/120/1
f 34/121/1 31/117/1 39/120/1 42/122/1
f 29/114/7 33/123/7 41/124/7 37/115/7
f 35/125/1 34/121/1 42/122/1 43/126/1
f 33/123/7 36/127/7 44/128/7 41/124/7
f 36/127/7 30/113/7 38/116/7 44/128/7
f 32/118/1 35/125/1 43/126/1 40/119/1
f 15/19/3 17/18/3 13/47/3 19/46/3
f 47/129/4 48/130/4 50/131/4 49/132/4
f 51/133/3 52/134/3 46/135/3 45/136/3
f 46/137/6 52/138/6 50/139/6 48/140/6
f 51/141/2 45/142/2 47/143/2 49/144/2
f 45/145/9 46/146/9 54/146/9 53/145/4
f 46/146/9 48/147/9 55/147/9 54/146/9
f 48/147/10 47/148/9 56/148/4 55/147/4
f 47/148/9 45/145/9 53/145/4 56/148/4
f 49/149/9 50/150/9 58/150/9 57/149/4
f 50/150/9 52/151/9 59/151/9 58/150/9
f 52/151/11 51/152/9 60/152/4 59/151/4
f 51/152/9 49/149/9 57/149/4 60/152/4
f 53/145/4 54/146/9 62/146/9 61/145/9
f 54/146/9 55/147/9 63/147/9 62/146/9
f 55/147/4 56/148/4 64/148/9 63/147/4
f 56/148/4 53/145/4 61/145/9 64/148/9
f 57/149/4 58/150/9 66/150/9 65/149/9
f 58/150/9 59/151/9 67/151/9 66/150/9
f 59/151/4 60/152/4 68/152/9 67/151/4
f 60/152/4 57/149/4 65/149/9 68/152/9
f 61/153/1 62/154/1 70/155/1 69/156/1
f 62/154/1 63/157/1 71/158/1 70/155/1
f 63/157/1 64/159/1 72/160/1 71/158/1
f 64/159/1 61/153/1 69/156/1 72/160/1
f 65/161/7 66/162/7 74/163/7 73/164/7
f 66/162/7 67/165/7 75/166/7 74/163/7
f 67/165/7 68/167/7 76/168/7 75/166/7
f 68/167/7 65/161/7 73/164/7 76/168/7
f 70/169/2 71/170/2 74/171/2 75/172/2
f 71/173/3 72/174/3 73/175/3 74/176/3
f 72/177/6 69/178/6 76/179/6 73/180/6
f 69/181/4 70/182/4 75/183/4 76/184/4
f 79/185/4 80/186/4 82/187/4 81/188/4
f 83/189/3 84/190/3 78/191/3 77/192/3
f 78/193/6 84/194/6 82/195/6 80/196/6
f 83/197/2 77/198/2 79/199/2 81/200/2
f 77/201/9 78/202/9 86/202/9 85/201/4
f 78/202/9 80/203/9 87/203/9 86/202/9
f 80/203/10 79/204/9 88/204/4 87/203/4
f 79/204/9 77/201/9 85/201/4 88/204/4
f 81/205/9 82/206/9 90/206/9 89/205/4
f 82/206/9 84/207/9 91/207/9 90/206/9
f 84/207/11 83/208/9 92/208/4 91/207/4
f 83/208/9 81/205/9 89/205/4 92/208/4
f 85/201/4 86/202/9 94/202/9 93/201/9
f 86/202/9 87/203/9 95/203/9 94/202/9
f 87/203/4 88/204/4 96/204/9 95/203/4
f 88/204/4 85/201/4 93/201/9 96/204/9
f 89/205/4 90/206/9 98/206/9 97/205/9
f 90/206/9 91/207/9 99/207/9 98/206/9
f 91/207/4 92/208/4 100/208/9 99/207/4
f 92/208/4 89/205/4 97/205/9 100/208/9
f 93/209/1 94/210/1 102/211/1 101/212/1
f 94/210/1 95/213/1 103/214/1 102/211/1
f 95/213/1 96/215/1 104/216/1 103/214/1
f 96/215/1 93/209/1 101/212/1 104/216/1
f 97/217/7 98/218/7 106/219/7 105/220/7
f 98/218/7 99/221/7 107/222/7 106/219/7
f 99/221/7 100/223/7 108/224/7 107/222/7
f 100/223/7 97/217/7 105/220/7 108/224/7
f 102/225/2 103/226/2 106/227/2 107/228/2
f 103/229/3 104/230/3 105/231/3 106/232/3
f 104/233/6 101/234/6 108/235/6 105/236/6
f 101/237/4 102/238/4 107/239/4 108/240/4
