# Blender 4.1.1
# www.blender.org
mtllib MeshTelevisionStand_2_1_GeomSubset_2.mtl
o MeshTelevisionStand_2_1_GeomSubset_2
v 0.000719 0.040547 0.027231
v -0.000719 0.040547 0.027231
v 0.000719 0.041986 0.027231
v -0.000719 0.041986 0.027231
v 0.000719 0.040547 0.027231
v -0.000719 0.040547 0.027231
v 0.000719 0.041986 0.027231
v -0.000719 0.041986 0.027231
v 0.000719 0.040547 0.027231
v -0.000719 0.040547 0.027231
v 0.000719 0.041986 0.027231
v -0.000719 0.041986 0.027231
v 0.000719 0.040547 0.027231
v -0.000719 0.040547 0.027231
v 0.000719 0.041986 0.027231
v -0.000719 0.041986 0.027231
v 0.000719 0.040547 0.027231
v -0.000719 0.040547 0.027231
v 0.000719 0.041986 0.027231
v -0.000719 0.041986 0.027231
v 0.204376 0.128090 -0.427714
v -0.204376 0.128090 -0.427714
v -0.204376 0.110792 -0.427714
v 0.204376 0.110792 -0.427714
v 0.204376 0.034244 -0.044569
v -0.204376 0.034244 -0.044569
v -0.204376 0.034244 -0.057423
v 0.204376 0.034244 -0.057423
v 0.204376 0.098243 -0.074737
v 0.204376 0.093671 -0.062127
v -0.204376 0.093671 -0.062127
v -0.204376 0.098243 -0.074737
v -0.204376 0.077448 -0.065162
v -0.204376 0.080946 -0.074737
v 0.204376 0.077448 -0.065162
v 0.204376 0.080946 -0.074737
v 0.204376 0.086598 -0.051017
v 0.204376 0.077067 -0.044569
v -0.204376 0.086598 -0.051017
v -0.204376 0.077067 -0.044569
v -0.204376 0.074419 -0.061571
v -0.204376 0.065493 -0.057423
v 0.204376 0.074419 -0.061571
v 0.204376 0.065493 -0.057423
v 0.355437 0.126495 -0.434235
v 0.336037 0.145895 -0.434235
v -0.336037 0.145895 -0.434235
v -0.355437 0.126495 -0.434235
v -0.355437 -0.135152 -0.434235
v -0.336037 -0.154551 -0.434235
v 0.355437 -0.135152 -0.434235
v 0.336037 -0.154551 -0.434235
v 0.355437 0.126495 -0.422703
v 0.336037 0.145895 -0.422703
v -0.336037 0.145895 -0.422703
v -0.355437 0.126495 -0.422703
v -0.355437 -0.135152 -0.422703
v -0.336037 -0.154551 -0.422703
v 0.336037 -0.154551 -0.422703
v 0.355437 -0.135152 -0.422703
v 0.330339 0.140197 -0.418633
v 0.349739 0.120797 -0.418633
v -0.330339 0.140197 -0.418633
v -0.349739 0.120797 -0.418633
v -0.330339 -0.148854 -0.418633
v -0.349739 -0.129454 -0.418633
v 0.349739 -0.129454 -0.418633
v 0.330339 -0.148854 -0.418633
v -0.343461 0.144418 -0.422703
v -0.343461 0.144418 -0.434235
v -0.349754 0.140213 -0.422703
v -0.349754 0.140213 -0.434235
v -0.353960 0.133919 -0.422703
v -0.353960 0.133919 -0.434235
v 0.343461 0.144418 -0.434235
v 0.343461 0.144418 -0.422703
v 0.349754 0.140213 -0.434235
v 0.349754 0.140213 -0.422703
v 0.353960 0.133919 -0.434235
v 0.353960 0.133919 -0.422703
v -0.343461 -0.153075 -0.434235
v -0.343461 -0.153075 -0.422703
v -0.349754 -0.148869 -0.434235
v -0.349754 -0.148869 -0.422703
v -0.353960 -0.142576 -0.434235
v -0.353960 -0.142576 -0.422703
v 0.343461 -0.153075 -0.422703
v 0.343461 -0.153075 -0.434235
v 0.349754 -0.148869 -0.422703
v 0.349754 -0.148869 -0.434235
v 0.353960 -0.142576 -0.422703
v 0.353960 -0.142576 -0.434235
v 0.337763 0.138721 -0.418633
v 0.344057 0.134515 -0.418633
v 0.348262 0.128221 -0.418633
v -0.337763 0.138721 -0.418633
v -0.344057 0.134515 -0.418633
v -0.348262 0.128221 -0.418633
v 0.348262 -0.136878 -0.418633
v 0.344057 -0.143172 -0.418633
v 0.337763 -0.147377 -0.418633
v -0.337763 -0.147377 -0.418633
v -0.344057 -0.143172 -0.418633
v -0.348262 -0.136878 -0.418633
v 0.329751 0.134228 -0.418633
v 0.343769 0.120209 -0.418633
v -0.329751 0.134228 -0.418633
v -0.343769 0.120209 -0.418633
v -0.329751 -0.142885 -0.418633
v -0.343769 -0.128866 -0.418633
v 0.343769 -0.128866 -0.418633
v 0.329751 -0.142885 -0.418633
v 0.335434 0.133097 -0.418633
v 0.339753 0.130212 -0.418633
v 0.342639 0.125892 -0.418633
v -0.335434 0.133097 -0.418633
v -0.339753 0.130212 -0.418633
v -0.342639 0.125892 -0.418633
v 0.342639 -0.134549 -0.418633
v 0.339753 -0.138868 -0.418633
v 0.335434 -0.141754 -0.418633
v -0.335434 -0.141754 -0.418633
v -0.339753 -0.138868 -0.418633
v -0.342639 -0.134549 -0.418633
vn -0.0000 -0.0000 -1.0000
vt -18.990278 -17.513134
vt -18.990278 -17.514467
vt -18.988945 -17.514467
vt -18.988945 -17.513134
s 1
usemtl M_TelevisionStand_2_2
f 9/1/1 10/2/1 12/3/1 11/4/1
