# Blender 4.1.0
# www.blender.org
mtllib MeshWindowFixed_60X72_0_GeomSubset_1.mtl
o MeshWindowFixed_60X72_0_GeomSubset_1
v -0.762000 -0.040626 0.915014
v -0.762000 -0.040626 -0.913786
v 0.762000 -0.040624 -0.913786
v 0.714612 -0.040624 -0.856622
v -0.714612 -0.040626 -0.856622
v -0.714612 -0.040626 0.857850
v -0.714612 0.040624 0.857850
v -0.714612 0.040624 -0.856622
v 0.714612 0.040626 -0.856622
v 0.762000 0.040626 -0.913786
v -0.762000 0.040624 -0.913786
v -0.762000 0.040624 0.915014
v 0.714612 0.040626 0.857850
v 0.714612 -0.040624 0.857850
v 0.762000 0.040626 0.915014
v 0.762000 -0.040624 0.915014
v 0.714612 0.028626 0.857850
v 0.714612 -0.028624 0.857850
v -0.714612 -0.028626 0.857850
v -0.714612 0.028624 0.857850
v -0.714612 0.028624 -0.856622
v -0.714612 -0.028626 -0.856622
v 0.714612 -0.028624 -0.856622
v 0.714612 0.028626 -0.856622
v 0.689612 0.028626 0.832851
v 0.689612 -0.028624 0.832851
v -0.689612 -0.028626 0.832851
v -0.689612 0.028624 0.832851
v -0.689612 0.028624 -0.831622
v -0.689612 -0.028626 -0.831622
v 0.689612 -0.028624 -0.831622
v 0.689612 0.028626 -0.831622
v 0.030206 0.022679 -0.847856
v -0.030206 0.022679 -0.847856
v 0.030206 0.022679 0.840270
v -0.030206 0.022679 0.840270
v 0.030206 -0.022679 0.840270
v -0.030206 -0.022679 0.840270
v 0.030206 -0.022679 -0.847856
v -0.030206 -0.022679 -0.847856
v 0.698617 0.018089 -0.311952
v -0.698617 0.018087 -0.311952
v 0.698617 0.018089 -0.284526
v -0.698617 0.018087 -0.284526
v 0.698617 -0.018087 -0.284526
v -0.698617 -0.018089 -0.284526
v 0.698617 -0.018087 -0.311952
v -0.698617 -0.018089 -0.311952
v 0.698617 0.018089 0.274644
v -0.698617 0.018087 0.274644
v 0.698617 0.018089 0.300680
v -0.698617 0.018087 0.300680
v 0.698617 -0.018087 0.300680
v -0.698617 -0.018089 0.300680
v 0.698617 -0.018087 0.274644
v -0.698617 -0.018089 0.274644
v 0.689612 0.005013 -0.831622
v -0.689612 0.005011 -0.831622
v 0.689612 0.005013 0.832851
v -0.689612 0.005011 0.832851
v 0.689612 -0.005011 0.832851
v -0.689612 -0.005013 0.832851
v 0.689612 -0.005011 -0.831622
v -0.689612 -0.005013 -0.831622
v 0.393580 0.009877 -0.847856
v 0.342228 0.009877 -0.847856
v 0.393580 0.009877 0.840270
v 0.342228 0.009877 0.840270
v 0.393580 -0.009876 0.840270
v 0.342228 -0.009876 0.840270
v 0.393580 -0.009876 -0.847856
v 0.342228 -0.009876 -0.847856
v -0.350383 0.009876 -0.847856
v -0.401736 0.009876 -0.847856
v -0.350383 0.009876 0.840270
v -0.401736 0.009876 0.840270
v -0.350383 -0.009877 0.840270
v -0.401736 -0.009877 0.840270
v -0.350383 -0.009877 -0.847856
v -0.401736 -0.009877 -0.847856
vn -0.0000 1.0000 -0.0000
vn -0.0000 -0.0000 1.0000
vn -0.0000 -1.0000 -0.0000
vn -0.0000 -0.0000 -1.0000
vn -1.0000 -0.0000 -0.0000
vn 1.0000 -0.0000 -0.0000
vt -22.613205 2.199767
vt -21.535686 2.199767
vt -21.535686 3.500137
vt -22.613205 3.500137
vt -17.594099 3.081728
vt -17.594099 2.004311
vt -17.586267 2.004311
vt -17.586267 3.081728
vt -20.727825 2.234836
vt -19.650307 2.234836
vt -19.650307 3.535205
vt -20.727825 3.535205
vt -17.529575 3.081805
vt -17.529575 2.004232
vt -17.521742 2.004232
vt -17.521742 3.081805
vt -19.220091 2.234843
vt -19.212259 2.234843
vt -19.212259 3.535197
vt -19.220091 3.535197
vt -19.155569 2.234852
vt -19.147738 2.234852
vt -19.147738 3.535188
vt -19.155569 3.535188
s 1
usemtl M_WindowFixed_60X72_1
f 57/1/1 58/2/1 60/3/1 59/4/1
f 59/5/2 60/6/2 62/7/2 61/8/2
f 61/9/3 62/10/3 64/11/3 63/12/3
f 63/13/4 64/14/4 58/15/4 57/16/4
f 58/17/5 64/18/5 62/19/5 60/20/5
f 63/21/6 57/22/6 59/23/6 61/24/6
