# Blender 4.1.0
# www.blender.org
mtllib MeshRobothorWallDecorPoster_0_GeomSubset_2.mtl
o MeshRobothorWallDecorPoster_0_GeomSubset_2
v 0.001691 0.014459 -0.654856
v 0.002637 0.014459 -0.654856
v 0.001691 0.015116 -0.654856
v 0.002637 0.015116 -0.654856
v 0.001691 0.014459 -0.654856
v 0.002637 0.014459 -0.654856
v 0.001691 0.015116 -0.654856
v 0.002637 0.015116 -0.654856
v 0.001691 0.014459 -0.654856
v 0.002637 0.014459 -0.654856
v 0.001691 0.015116 -0.654856
v 0.002637 0.015116 -0.654856
v -0.470651 0.014787 -0.326586
v 0.475147 0.014787 -0.326306
v 0.474979 0.014787 0.330514
v -0.470818 0.014787 0.330234
v 0.475147 0.013904 -0.326306
v 0.474979 0.013904 0.330514
v -0.470651 0.013904 -0.326586
v -0.470818 0.013904 0.330234
vn -0.0000 -0.0000 1.0000
vt -29.683226 -9.683225
vt -29.316818 -9.683225
vt -29.316818 -9.316775
vt -29.683226 -9.316775
s 1
usemtl M_RobothorWallDecorPoster_2
f 9/1/1 10/2/1 12/3/1 11/4/1
