# Blender 4.1.0
# www.blender.org
mtllib MeshCoffeeTable_201_0_GeomSubset_1.mtl
o MeshCoffeeTable_201_0_GeomSubset_1
v 0.312230 -0.293639 0.228368
v 0.312037 -0.293639 -0.328409
v 0.312032 -0.311088 -0.344934
v 0.312235 -0.311088 0.244893
v 0.296204 -0.293639 0.228373
v 0.296208 -0.311088 0.244898
v 0.296005 -0.311088 -0.344929
v 0.296011 -0.293639 -0.328404
v 0.296005 0.311743 -0.344929
v 0.296011 0.294294 -0.328404
v 0.296208 0.311743 0.244898
v 0.296204 0.294294 0.228373
v 0.312037 0.294294 -0.328409
v 0.312032 0.311743 -0.344934
v 0.312230 0.294294 0.228368
v 0.312235 0.311743 0.244893
v 0.295098 -0.294686 0.231559
v -0.294928 -0.294686 0.231763
v -0.312440 -0.312197 0.231769
v 0.312610 -0.312197 0.231553
v 0.295104 -0.294686 0.246790
v 0.312615 -0.312197 0.246784
v -0.312434 -0.312197 0.247000
v -0.294923 -0.294686 0.246994
v -0.312434 0.312853 0.247000
v -0.294923 0.295342 0.246994
v 0.312615 0.312853 0.246784
v 0.295104 0.295341 0.246790
v -0.294928 0.295342 0.231763
v -0.312440 0.312853 0.231769
v 0.295098 0.295341 0.231559
v 0.312610 0.312853 0.231553
v -0.295436 -0.293639 0.228578
v -0.295628 -0.293639 -0.328199
v -0.295635 -0.311088 -0.344724
v -0.295431 -0.311088 0.245102
v -0.311463 -0.293639 0.228583
v -0.311457 -0.311088 0.245108
v -0.311661 -0.311088 -0.344719
v -0.311655 -0.293639 -0.328194
v -0.311661 0.311744 -0.344719
v -0.311655 0.294294 -0.328194
v -0.311457 0.311744 0.245108
v -0.311463 0.294294 0.228583
v -0.295629 0.294294 -0.328199
v -0.295635 0.311744 -0.344724
v -0.295436 0.294294 0.228578
v -0.295431 0.311744 0.245102
v 0.294923 -0.294686 -0.274171
v -0.295104 -0.294686 -0.273967
v -0.312615 -0.312197 -0.273961
v 0.312435 -0.312197 -0.274177
v 0.294929 -0.294686 -0.258940
v 0.312439 -0.312197 -0.258946
v -0.312610 -0.312197 -0.258730
v -0.295099 -0.294686 -0.258736
v -0.312610 0.312853 -0.258730
v -0.295099 0.295342 -0.258736
v 0.312439 0.312853 -0.258946
v 0.294929 0.295341 -0.258940
v -0.295104 0.295342 -0.273967
v -0.312615 0.312853 -0.273961
v 0.294923 0.295341 -0.274171
v 0.312435 0.312853 -0.274177
v 0.295010 -0.294686 -0.023152
v -0.295017 -0.294686 -0.022948
v -0.312528 -0.312197 -0.022942
v 0.312521 -0.312197 -0.023158
v 0.295015 -0.294686 -0.007920
v 0.312527 -0.312197 -0.007926
v -0.312523 -0.312197 -0.007710
v -0.295011 -0.294686 -0.007716
v -0.312523 0.312853 -0.007710
v -0.295011 0.295342 -0.007716
v 0.312527 0.312853 -0.007926
v 0.295015 0.295341 -0.007920
v -0.295017 0.295342 -0.022948
v -0.312528 0.312853 -0.022942
v 0.295010 0.295341 -0.023152
v 0.312521 0.312853 -0.023158
v 0.295101 0.295342 0.238817
v -0.294927 0.295342 0.239021
v -0.294927 -0.294686 0.239021
v 0.295101 -0.294686 0.238817
v 0.295102 0.295342 0.242615
v 0.295102 -0.294686 0.242615
v -0.294925 -0.294686 0.242819
v -0.294925 0.295342 0.242819
v 0.294925 0.295342 -0.266913
v -0.295102 0.295342 -0.266709
v -0.295102 -0.294686 -0.266709
v 0.294925 -0.294686 -0.266913
v 0.294926 0.295342 -0.263115
v 0.294927 -0.294686 -0.263115
v -0.295100 -0.294686 -0.262911
v -0.295100 0.295342 -0.262911
v 0.295013 0.295342 -0.015893
v -0.295015 0.295342 -0.015689
v -0.295015 -0.294686 -0.015689
v 0.295013 -0.294686 -0.015893
v 0.295013 0.295342 -0.012095
v 0.295013 -0.294686 -0.012095
v -0.295013 -0.294686 -0.011891
v -0.295014 0.295342 -0.011891
vn -0.0003 -0.0000 -1.0000
vn 0.0003 -0.0000 1.0000
vn -0.0000 1.0000 -0.0000
vn -0.0000 -1.0000 -0.0000
vn 1.0000 -0.0000 -0.0003
vn -1.0000 -0.0000 0.0005
vn 1.0000 -0.0000 -0.0005
vn 1.0000 -0.0000 -0.0000
vn 1.0000 -0.0000 -0.0006
vn -1.0000 -0.0000 -0.0000
vn -1.0000 -0.0000 0.0003
vt 0.131478 0.584445
vt -0.812490 1.528412
vt 0.131478 1.528412
vt -0.812490 0.584445
vt 0.528413 0.654414
vt -0.415556 0.660490
vt -0.415556 0.654414
vt 0.528413 0.660490
vt 0.584445 0.654414
vt 1.528412 0.660490
vt 1.528412 0.654414
vt 0.584445 0.660490
vt 0.131478 0.654414
vt -0.812490 0.660490
vt -0.812490 0.654414
vt 0.131478 0.660490
vt 0.187510 0.654414
vt 1.131478 0.660490
vt 1.131478 0.654414
vt 0.187510 0.660490
vt 0.131478 0.584446
vt -0.812490 1.528413
vt 0.131478 1.528414
vt 0.528413 0.845311
vt -0.415554 0.851387
vt -0.415554 0.845311
vt 0.528413 0.851387
vt 0.584445 0.845311
vt 1.528413 0.851387
vt 1.528413 0.845311
vt 0.584445 0.851387
vt 0.131478 0.845311
vt -0.812490 0.851387
vt -0.812490 0.845311
vt 0.131478 0.851387
vt 0.187510 0.845311
vt 1.131478 0.851387
vt 1.131478 0.845311
vt 0.187510 0.851387
vt 0.528413 0.246909
vt -0.415554 0.252986
vt -0.415554 0.246909
vt 0.528413 0.252986
vt 0.584445 0.246909
vt 1.528413 0.252986
vt 1.528413 0.246909
vt 0.584445 0.252986
vt 0.131478 0.246909
vt -0.812490 0.252986
vt -0.812490 0.246909
vt 0.131478 0.252986
vt 0.187510 0.246909
vt 1.131478 0.252986
vt 1.131478 0.246909
vt 0.187510 0.252986
s 1
usemtl M_CoffeeTable_201_1
f 81/1/1 83/2/1 82/3/1
f 81/1/1 84/4/1 83/2/1
f 85/1/2 87/2/2 86/4/2
f 85/1/2 88/3/2 87/2/2
f 82/5/3 85/6/3 81/7/3
f 82/5/3 88/8/3 85/6/3
f 84/9/4 87/10/4 83/11/4
f 84/9/4 86/12/4 87/10/4
f 81/13/5 86/14/5 84/15/5
f 81/13/5 85/16/5 86/14/5
f 83/17/6 88/18/6 82/19/6
f 83/17/6 87/20/6 88/18/6
f 89/21/1 91/22/1 90/23/1
f 89/21/1 92/4/1 91/22/1
f 93/21/2 95/22/2 94/4/2
f 93/21/2 96/23/2 95/22/2
f 90/24/3 93/25/3 89/26/3
f 90/24/3 96/27/3 93/25/3
f 92/28/4 95/29/4 91/30/4
f 92/28/4 94/31/4 95/29/4
f 89/32/5 94/33/7 92/34/7
f 89/32/5 93/35/5 94/33/7
f 91/36/6 96/37/6 90/38/6
f 91/36/6 95/39/6 96/37/6
f 97/21/1 99/22/1 98/23/1
f 97/21/1 100/4/1 99/22/1
f 101/21/2 103/22/2 102/4/2
f 101/21/2 104/23/2 103/22/2
f 98/40/3 101/41/3 97/42/3
f 98/40/3 104/43/3 101/41/3
f 100/44/4 103/45/4 99/46/4
f 100/44/4 102/47/4 103/45/4
f 97/48/8 102/49/8 100/50/8
f 97/48/8 101/51/9 102/49/8
f 99/52/10 104/53/11 98/54/11
f 99/52/10 103/55/6 104/53/11
