# Blender 4.1.1
# www.blender.org
mtllib ToasterLever1_27_ToasterLever1_27_1_GeomSubset_1.mtl
o ToasterLever1_27_ToasterLever1_27_1_GeomSubset_1
v 0.057332 -0.159666 0.048092
v 0.057332 -0.156171 0.048092
v 0.060828 -0.159666 0.048092
v 0.060828 -0.156171 0.048092
v 0.057332 -0.159666 0.048092
v 0.057332 -0.156171 0.048092
v 0.060828 -0.159666 0.048092
v 0.060828 -0.156171 0.048092
v 0.057332 -0.159666 0.048092
v 0.057332 -0.156171 0.048092
v 0.060828 -0.159666 0.048092
v 0.060828 -0.156171 0.048092
v 0.057332 -0.159666 0.048092
v 0.057332 -0.156171 0.048092
v 0.060828 -0.159666 0.048092
v 0.060828 -0.156171 0.048092
v 0.057332 -0.159666 0.048092
v 0.057332 -0.156171 0.048092
v 0.060828 -0.159666 0.048092
v 0.060828 -0.156171 0.048092
v 0.057332 -0.159666 0.048092
v 0.057332 -0.156171 0.048092
v 0.060828 -0.159666 0.048092
v 0.060828 -0.156171 0.048092
v 0.057007 -0.167207 0.051775
v 0.057007 -0.167207 0.045211
v 0.061153 -0.167207 0.051775
v 0.061153 -0.167207 0.045211
v 0.059080 -0.167207 0.045211
v 0.059080 -0.167207 0.051775
v 0.048323 -0.170804 0.051775
v 0.047813 -0.171015 0.051550
v 0.047601 -0.171103 0.051009
v 0.049808 -0.174406 0.051009
v 0.049970 -0.174245 0.051550
v 0.050360 -0.173854 0.051775
v 0.053410 -0.175892 0.051775
v 0.053199 -0.176402 0.051550
v 0.053111 -0.176613 0.051009
v 0.057007 -0.177388 0.051009
v 0.057029 -0.177164 0.051550
v 0.057083 -0.176622 0.051775
v 0.047592 -0.167132 0.051775
v 0.047051 -0.167185 0.051550
v 0.046826 -0.167207 0.051009
v 0.047601 -0.171103 0.045977
v 0.047813 -0.171015 0.045435
v 0.048323 -0.170804 0.045211
v 0.049808 -0.174406 0.045977
v 0.049970 -0.174245 0.045435
v 0.050360 -0.173854 0.045211
v 0.053111 -0.176613 0.045977
v 0.053199 -0.176402 0.045435
v 0.053410 -0.175892 0.045211
v 0.057083 -0.176622 0.045211
v 0.057029 -0.177164 0.045435
v 0.057007 -0.177388 0.045977
v 0.046826 -0.167207 0.045977
v 0.047051 -0.167185 0.045435
v 0.047592 -0.167132 0.045211
v 0.059080 -0.177388 0.051009
v 0.059080 -0.177164 0.051550
v 0.059080 -0.176622 0.051775
v 0.061077 -0.176622 0.051775
v 0.061130 -0.177164 0.051550
v 0.061153 -0.177388 0.051009
v 0.065049 -0.176613 0.051009
v 0.064961 -0.176402 0.051550
v 0.064750 -0.175892 0.051775
v 0.059080 -0.177388 0.045977
v 0.059080 -0.177164 0.045435
v 0.059080 -0.176622 0.045211
v 0.065049 -0.176613 0.045977
v 0.064961 -0.176402 0.045435
v 0.064750 -0.175892 0.045211
v 0.061153 -0.177388 0.045977
v 0.061130 -0.177164 0.045435
v 0.061077 -0.176622 0.045211
v 0.068352 -0.174406 0.051009
v 0.068190 -0.174245 0.051550
v 0.067799 -0.173854 0.051775
v 0.068352 -0.174406 0.045977
v 0.068190 -0.174245 0.045435
v 0.067799 -0.173854 0.045211
v 0.070559 -0.171103 0.051009
v 0.070347 -0.171015 0.051550
v 0.069837 -0.170804 0.051775
v 0.070559 -0.171103 0.045977
v 0.070347 -0.171015 0.045435
v 0.069837 -0.170804 0.045211
v 0.071334 -0.167207 0.051009
v 0.071109 -0.167185 0.051550
v 0.070568 -0.167132 0.051775
v 0.070568 -0.167132 0.045211
v 0.071109 -0.167185 0.045435
v 0.071334 -0.167207 0.045977
v 0.047592 -0.155744 0.051550
v 0.047592 -0.156286 0.051775
v 0.047051 -0.156286 0.051550
v 0.046826 -0.156286 0.051009
v 0.047051 -0.155744 0.051009
v 0.047592 -0.155520 0.051009
v 0.047592 -0.155744 0.045435
v 0.047592 -0.155520 0.045977
v 0.047051 -0.155744 0.045977
v 0.046826 -0.156286 0.045977
v 0.047051 -0.156286 0.045435
v 0.047592 -0.156286 0.045211
v 0.057007 -0.156286 0.051775
v 0.057007 -0.155744 0.051550
v 0.057007 -0.155520 0.051009
v 0.057007 -0.156286 0.045211
v 0.057007 -0.155744 0.045435
v 0.057007 -0.155520 0.045977
v 0.070568 -0.155744 0.051550
v 0.070568 -0.155520 0.051009
v 0.071109 -0.155744 0.051009
v 0.071334 -0.156286 0.051009
v 0.071109 -0.156286 0.051550
v 0.070568 -0.156286 0.051775
v 0.070568 -0.155744 0.045435
v 0.070568 -0.156286 0.045211
v 0.071109 -0.156286 0.045435
v 0.071334 -0.156286 0.045977
v 0.071109 -0.155744 0.045977
v 0.070568 -0.155520 0.045977
v 0.059080 -0.155520 0.051009
v 0.059080 -0.155744 0.051550
v 0.059080 -0.156286 0.051775
v 0.061153 -0.155520 0.051009
v 0.061153 -0.155744 0.051550
v 0.061153 -0.156286 0.051775
v 0.059080 -0.156286 0.045211
v 0.059080 -0.155744 0.045435
v 0.059080 -0.155520 0.045977
v 0.061153 -0.156286 0.045211
v 0.061153 -0.155744 0.045435
v 0.061153 -0.155520 0.045977
v 0.047150 -0.155844 0.051451
v 0.047150 -0.155844 0.045535
v 0.071010 -0.155844 0.051451
v 0.071010 -0.155844 0.045535
v 0.068352 -0.174406 0.047156
v 0.065049 -0.176613 0.047156
v 0.061153 -0.177388 0.047156
v 0.059080 -0.177388 0.047156
v 0.057007 -0.177388 0.047156
v 0.053111 -0.176613 0.047156
v 0.049808 -0.174406 0.047156
v 0.047601 -0.171103 0.047156
v 0.046826 -0.167207 0.047156
v 0.046826 -0.156286 0.047156
v 0.047051 -0.155744 0.047156
v 0.047592 -0.155520 0.047156
v 0.057007 -0.155520 0.047156
v 0.059080 -0.155520 0.047156
v 0.061153 -0.155520 0.047156
v 0.070568 -0.155520 0.047156
v 0.071109 -0.155744 0.047156
v 0.071334 -0.156286 0.047156
v 0.071334 -0.167207 0.047156
v 0.070559 -0.171103 0.047156
v 0.068352 -0.174406 0.049829
v 0.065049 -0.176613 0.049829
v 0.061153 -0.177388 0.049829
v 0.059080 -0.177388 0.049829
v 0.057007 -0.177388 0.049829
v 0.053111 -0.176613 0.049829
v 0.049808 -0.174406 0.049829
v 0.047601 -0.171103 0.049829
v 0.046826 -0.167207 0.049829
v 0.046826 -0.156286 0.049829
v 0.047051 -0.155744 0.049829
v 0.047592 -0.155520 0.049829
v 0.057007 -0.155520 0.049829
v 0.059080 -0.155520 0.049829
v 0.061153 -0.155520 0.049829
v 0.070568 -0.155520 0.049829
v 0.071109 -0.155744 0.049829
v 0.071334 -0.156286 0.049829
v 0.071334 -0.167207 0.049829
v 0.070559 -0.171103 0.049829
v 0.056086 -0.156556 0.045978
v 0.056086 -0.145541 0.045978
v 0.056086 -0.156556 0.049683
v 0.056086 -0.145541 0.049683
v 0.062074 -0.156556 0.049683
v 0.062074 -0.145541 0.049683
v 0.062074 -0.156556 0.045978
v 0.062074 -0.145541 0.045978
vn -0.0000 -0.0000 -1.0000
vn 0.8955 0.3711 -0.2458
vn 0.6664 0.2762 -0.6925
vn 0.5098 0.5099 -0.6929
vn 0.6855 0.6854 -0.2455
vn 0.3465 0.1436 -0.9270
vn 0.2607 0.2607 -0.9296
vn 0.3711 0.8956 -0.2454
vn 0.2764 0.6665 -0.6924
vn 0.0537 0.7128 -0.6993
vn 0.0696 0.9662 -0.2481
vn 0.1435 0.3463 -0.9271
vn 0.0343 0.3552 -0.9341
vn 0.1334 0.3217 0.9374
vn 0.2764 0.6665 0.6923
vn 0.0537 0.7128 0.6993
vn 0.0332 0.3469 0.9373
vn 0.3711 0.8956 0.2454
vn 0.0696 0.9663 0.2480
vn -0.0697 0.9663 -0.2479
vn -0.0537 0.7129 -0.6992
vn -0.2764 0.6665 -0.6924
vn -0.3711 0.8956 -0.2453
vn -0.0343 0.3553 -0.9341
vn -0.1434 0.3463 -0.9271
vn -0.3219 0.1335 0.9373
vn -0.6664 0.2762 0.6925
vn -0.7103 0.0949 0.6974
vn -0.3542 0.0361 0.9345
vn -0.8955 0.3711 0.2457
vn -0.9598 0.1325 0.2475
vn 0.2961 -0.2984 -0.9073
vn 0.2814 -0.6788 -0.6783
vn -0.0000 -0.7071 -0.7071
vn -0.0000 -0.3449 -0.9386
vn 0.3005 -0.9288 -0.2169
vn -0.0000 -0.9676 -0.2525
vn 0.6883 -0.6889 -0.2273
vn 0.7068 -0.7074 -0.0000
vn 0.3424 -0.9396 -0.0000
vn 0.9282 -0.3025 -0.2165
vn 0.9386 -0.3450 -0.0000
vn -0.3005 -0.9288 -0.2168
vn -0.2814 -0.6788 -0.6783
vn -0.0000 -0.9676 -0.2526
vn -0.2961 -0.2985 -0.9073
vn -0.9283 -0.3023 -0.2163
vn -0.6884 -0.6889 -0.2271
vn -0.7071 -0.7071 -0.0000
vn -0.9387 -0.3449 -0.0000
vn -0.3424 -0.9395 0.0001
vn -0.2962 -0.2984 0.9073
vn -0.2814 -0.6785 0.6785
vn -0.0000 -0.7071 0.7071
vn -0.0000 -0.3449 0.9386
vn -0.3005 -0.9288 0.2168
vn -0.0000 -0.9676 0.2526
vn 0.7071 0.7071 -0.0000
vn 0.9239 0.3827 -0.0000
vn 0.3827 0.9239 -0.0000
vn 0.0691 0.9976 -0.0000
vn -0.3827 0.9239 -0.0000
vn -0.0691 0.9976 -0.0000
vn -0.6855 0.6854 -0.2456
vn -0.7071 0.7071 -0.0000
vn -0.8956 0.3710 -0.2457
vn -0.9239 0.3827 -0.0000
vn -0.9598 0.1325 -0.2475
vn -0.9900 0.1408 -0.0000
vn 0.9597 0.1325 -0.2478
vn 0.9900 0.1408 -0.0000
vn -0.2608 0.2606 -0.9296
vn -0.3465 0.1436 -0.9270
vn -0.3566 0.0362 -0.9336
vn 0.3566 0.0362 -0.9336
vn 0.3219 0.1335 0.9373
vn 0.2463 0.2462 0.9374
vn -0.0000 -0.0000 1.0000
vn -0.0332 0.3469 0.9373
vn -0.1333 0.3217 0.9374
vn -0.2463 0.2462 0.9374
vn 0.3542 0.0360 0.9345
vn -0.0000 0.9675 -0.2528
vn -0.0000 1.0000 -0.0000
vn -0.0000 0.3426 -0.9395
vn -0.0000 0.3426 0.9395
vn -0.0000 -0.3448 0.9387
vn 0.2962 -0.2984 0.9073
vn -0.0000 -1.0000 -0.0000
vn 0.7102 0.0949 -0.6976
vn -0.0000 0.7050 -0.7092
vn 0.6778 -0.2828 -0.6787
vn 0.8955 0.3711 0.2458
vn 0.6663 0.2762 0.6926
vn 0.7101 0.0949 0.6976
vn 0.9597 0.1325 0.2478
vn 0.5098 0.5099 0.6929
vn 0.6855 0.6854 0.2455
vn 0.6778 -0.2828 0.6787
vn 0.9283 -0.3025 0.2164
vn -0.5098 0.5099 -0.6930
vn -0.0000 0.7050 0.7092
vn -0.0000 0.9675 0.2528
vn -0.3711 0.8956 0.2454
vn -0.2764 0.6665 0.6924
vn -0.0537 0.7129 0.6992
vn -0.0696 0.9663 0.2479
vn -0.6665 0.2762 -0.6925
vn -0.5098 0.5098 0.6930
vn -0.6855 0.6854 0.2456
vn -0.7104 0.0949 -0.6974
vn -0.6779 -0.2828 -0.6786
vn -0.6779 -0.2827 0.6786
vn -0.9283 -0.3024 0.2163
vn 0.3005 -0.9288 0.2169
vn 0.2814 -0.6785 0.6785
vn -0.0000 -0.9676 0.2525
vn -0.0000 -0.7074 -0.7068
vn 0.5776 -0.5769 -0.5776
vn 0.5776 -0.5771 0.5774
vn 0.6884 -0.6888 0.2273
vn -0.5776 -0.5769 -0.5776
vn -0.6885 -0.6887 0.2272
vn -0.5775 -0.5770 0.5775
vn 0.3424 -0.9396 -0.0001
vn -0.3424 -0.9395 -0.0000
vn -0.7068 -0.7074 -0.0000
vt -31.025911 0.501862
vt -30.953842 0.501862
vt -30.953842 0.573961
vt -31.025911 0.573961
vt -30.717714 0.818605
vt -30.706541 0.816778
vt -30.706541 0.883375
vt -30.717714 0.886708
vt -31.426516 0.017703
vt -31.422167 0.028223
vt -31.485060 0.070246
vt -31.493113 0.062195
vt -30.882580 0.501862
vt -30.871410 0.503667
vt -30.871410 0.582665
vt -30.882580 0.582210
vt -31.537607 0.128782
vt -31.527086 0.133138
vt -31.542143 0.208881
vt -31.553316 0.207777
vt -30.690372 0.133138
vt -30.679848 0.128782
vt -30.664137 0.207777
vt -30.675310 0.208881
vt -30.948118 0.503667
vt -30.936949 0.501862
vt -30.936949 0.582210
vt -30.948118 0.582665
vt -30.882580 0.667694
vt -30.871410 0.667236
vt -30.871410 0.746238
vt -30.882580 0.748038
vt -31.553316 0.292353
vt -31.542143 0.291249
vt -31.527086 0.366992
vt -31.537607 0.371348
vt -30.795282 0.471902
vt -30.790932 0.482422
vt -30.869926 0.498138
vt -30.871021 0.486965
vt -30.824471 0.617298
vt -30.813297 0.615481
vt -30.813297 0.695836
vt -30.824471 0.696293
vt -31.122772 0.013165
vt -31.111599 0.013165
vt -31.111599 0.207325
vt -31.122772 0.207325
vt -30.659607 0.513036
vt -30.648436 0.513036
vt -30.648436 0.707195
vt -30.659607 0.707195
vt -30.648436 0.501862
vt -30.624113 0.501862
vt -30.624113 0.513036
vt -30.717714 0.501862
vt -30.717714 0.513035
vt -30.742037 0.513035
vt -30.742037 0.501862
vt -30.648436 0.986834
vt -30.659607 0.986834
vt -30.659607 0.792679
vt -30.648436 0.792679
vt -31.111599 0.486965
vt -31.122772 0.486965
vt -31.122772 0.292805
vt -31.111599 0.292805
vt -30.841356 0.921046
vt -30.841356 0.932219
vt -30.865681 0.932219
vt -30.865681 0.921046
vt -30.648436 0.998008
vt -30.624113 0.986834
vt -30.624113 0.998008
vt -31.094679 0.486965
vt -31.105852 0.486965
vt -31.105852 0.292805
vt -31.094679 0.292805
vt -30.665331 0.986834
vt -30.676500 0.986834
vt -30.676500 0.792679
vt -30.665331 0.792679
vt -30.742037 0.886708
vt -30.742037 0.818605
vt -30.717714 0.932224
vt -30.742037 0.932224
vt -30.906902 0.582210
vt -30.906902 0.501862
vt -30.906902 0.748038
vt -30.906902 0.667694
vt -30.841356 0.501862
vt -30.841356 0.547378
vt -30.865681 0.547378
vt -30.865681 0.501862
vt -30.841356 0.615481
vt -30.865681 0.615481
vt -30.841356 0.695836
vt -30.865681 0.695836
vt -30.717714 0.738245
vt -30.742037 0.738245
vt -31.347982 0.207325
vt -31.347982 0.292805
vt -31.485060 0.429884
vt -31.422167 0.471897
vt -31.346426 0.486965
vt -31.346426 0.013165
vt -30.795282 0.028223
vt -30.732395 0.070246
vt -30.869469 0.207325
vt -30.675310 0.291249
vt -30.690372 0.366992
vt -30.869469 0.292805
vt -30.732395 0.429879
vt -30.871021 0.013165
vt -30.882580 0.624952
vt -30.906902 0.624952
vt -31.347982 0.250070
vt -31.542143 0.250070
vt -30.675310 0.250065
vt -30.869469 0.250065
vt -31.094679 0.207325
vt -31.094679 0.013165
vt -31.122772 0.250070
vt -31.094679 0.250065
vt -30.624113 0.792679
vt -30.648436 0.749938
vt -30.624113 0.707195
vt -30.624113 0.749938
vt -31.347528 0.001992
vt -30.706541 0.737793
vt -30.706541 0.927867
vt -30.871410 0.624952
vt -31.553316 0.250070
vt -31.122772 0.001992
vt -30.706541 0.513035
vt -30.772074 0.818605
vt -30.783247 0.816778
vt -30.783247 0.737793
vt -30.772074 0.738245
vt -30.790932 0.017703
vt -30.869926 0.001992
vt -30.724339 0.062195
vt -30.772074 0.886708
vt -30.783247 0.883375
vt -30.772074 0.932224
vt -30.783247 0.927867
vt -30.783247 0.513035
vt -30.772074 0.513035
vt -31.094679 0.001992
vt -30.830189 0.506214
vt -30.830189 0.550706
vt -31.493113 0.437936
vt -30.664137 0.250065
vt -30.936949 0.624952
vt -30.948118 0.624952
vt -30.936949 0.748038
vt -30.948118 0.746238
vt -30.948118 0.667236
vt -30.936949 0.667694
vt -30.679848 0.371353
vt -30.664137 0.292348
vt -30.830189 0.617298
vt -31.426516 0.482417
vt -30.724339 0.437936
vt -30.824471 0.506214
vt -30.813297 0.501862
vt -30.813297 0.547378
vt -30.824471 0.550706
vt -30.830189 0.696293
vt -31.347528 0.498138
vt -30.830189 0.921046
vt -31.122772 0.498138
vt -31.094679 0.498138
vt -30.813297 0.921046
vt -30.824471 0.921046
vt -30.676500 0.513036
vt -30.665331 0.513036
vt -30.665331 0.707195
vt -30.676500 0.707195
vt -31.105852 0.013165
vt -31.105852 0.207325
vt -31.111599 0.250070
vt -30.659607 0.749938
vt -30.665331 0.749938
vt -30.676500 0.749938
vt -31.105852 0.250065
vt -30.657555 0.503915
vt -31.113668 0.004040
vt -30.708599 0.503930
vt -31.103785 0.004040
vt -30.676500 0.501862
vt -30.667385 0.503915
vt -30.772074 0.501862
vt -30.781189 0.503930
vt -31.113668 0.496090
vt -30.657555 0.995958
vt -30.832241 0.930151
vt -30.676500 0.998008
vt -30.667385 0.995958
vt -31.103785 0.496085
vt -30.813297 0.932219
vt -30.822418 0.930151
vt -30.788973 0.501862
vt -30.788973 0.547378
vt -30.912626 0.667694
vt -30.912626 0.748038
vt -30.912626 0.624952
vt -30.912626 0.582210
vt -30.912626 0.501862
vt -30.747749 0.886708
vt -30.747749 0.932224
vt -30.747749 0.818605
vt -30.747749 0.738245
vt -30.747749 0.513035
vt -30.747749 0.501862
vt -30.700823 0.513036
vt -30.700823 0.501862
vt -30.700823 0.707195
vt -30.700823 0.749938
vt -30.700823 0.792679
vt -30.700823 0.986834
vt -30.700823 0.998008
vt -30.788973 0.921046
vt -30.788973 0.932219
vt -30.788973 0.695836
vt -30.788973 0.615481
s 1
usemtl M_ToasterLever1_27_1
f 5/1/1 6/2/1 8/3/1 7/4/1
f 33/5/2 32/6/3 35/7/4 34/8/5
f 32/9/3 31/10/6 36/11/7 35/12/4
f 39/13/8 38/14/9 41/15/10 40/16/11
f 38/17/9 37/18/12 42/19/13 41/20/10
f 54/21/14 53/22/15 56/23/16 55/24/17
f 53/25/15 52/26/18 57/27/19 56/28/16
f 66/29/20 65/30/21 68/31/22 67/32/23
f 65/33/21 64/34/24 69/35/25 68/36/22
f 90/37/26 89/38/27 95/39/28 94/40/29
f 89/41/27 88/42/30 96/43/31 95/44/28
f 98/45/32 97/46/33 110/47/34 109/48/35
f 97/49/33 102/50/36 111/51/37 110/52/34
f 102/50/36 101/53/38 173/54/39 174/55/40
f 101/56/38 100/57/41 172/58/42 173/59/39
f 116/60/43 115/61/44 131/62/34 130/63/45
f 115/64/44 120/65/46 132/66/35 131/67/34
f 118/68/47 117/69/48 179/70/49 180/71/50
f 117/72/48 116/60/43 178/73/51 179/74/49
f 122/75/52 121/76/53 137/77/54 136/78/55
f 121/79/53 126/80/56 138/81/57 137/82/54
f 33/5/2 34/8/5 169/83/58 170/84/59
f 34/8/5 39/85/8 168/86/60 169/83/58
f 39/13/8 40/16/11 167/87/61 168/88/60
f 66/29/20 67/32/23 164/89/62 165/90/63
f 67/91/23 79/92/64 163/93/65 164/94/62
f 79/92/64 85/95/66 182/96/67 163/93/65
f 85/95/66 91/97/68 181/98/69 182/96/67
f 45/99/70 33/5/2 170/84/59 171/100/71
f 37/18/12 36/11/7 25/101/1 42/19/13
f 69/35/25 64/34/24 27/102/1 81/103/72
f 87/104/73 81/103/72 27/102/1 93/105/74
f 31/10/6 43/106/75 25/101/1 36/11/7
f 48/107/76 51/108/77 26/109/78
f 51/108/77 54/21/14 26/109/78
f 54/21/14 55/24/17 26/109/78
f 78/110/79 75/111/80 28/112/78
f 75/111/80 84/113/81 28/112/78
f 84/113/81 90/37/26 28/112/78
f 90/37/26 94/40/29 28/112/78
f 60/114/82 48/107/76 26/109/78
f 167/87/61 40/16/11 61/115/83 166/116/84
f 42/19/13 25/101/1 30/117/1 63/118/85
f 26/109/78 55/24/17 72/119/86 29/120/78
f 45/99/70 171/100/71 172/58/42 100/57/41
f 25/101/1 43/106/75 98/45/32 109/48/35
f 60/114/82 26/109/78 112/121/87 108/122/88
f 181/98/69 91/97/68 118/68/47 180/71/50
f 30/117/1 25/101/1 109/48/35 129/123/35
f 93/105/74 27/102/1 132/66/35 120/65/46
f 26/109/78 29/120/78 133/124/55 112/121/87
f 28/112/78 94/40/29 122/75/52 136/78/55
f 116/60/43 130/63/45 177/125/89 178/73/51
f 127/126/37 111/51/37 175/127/89 176/128/89
f 111/51/37 102/50/36 174/55/40 175/127/89
f 166/116/84 61/115/83 66/29/20 165/90/63
f 29/120/78 72/119/86 78/110/79 28/112/78
f 133/124/55 29/120/78 28/112/78 136/78/55
f 130/63/45 127/126/37 176/128/89 177/125/89
f 27/102/1 30/117/1 129/123/35 132/66/35
f 63/118/85 30/117/1 27/102/1 64/34/24
f 31/10/6 32/9/3 44/129/90 43/106/75
f 32/6/3 33/5/2 45/99/70 44/130/90
f 34/8/5 35/7/4 38/131/9 39/85/8
f 35/12/4 36/11/7 37/18/12 38/17/9
f 40/16/11 41/15/10 62/132/91 61/115/83
f 41/20/10 42/19/13 63/118/85 62/133/91
f 43/106/75 44/129/90 99/134/92 98/45/32
f 44/130/90 45/99/70 100/57/41 99/135/92
f 46/136/93 47/137/94 59/138/95 58/139/96
f 47/140/94 48/107/76 60/114/82 59/141/95
f 48/107/76 47/140/94 50/142/97 51/108/77
f 47/137/94 46/136/93 49/143/98 50/144/97
f 51/108/77 50/142/97 53/22/15 54/21/14
f 50/144/97 49/143/98 52/145/18 53/146/15
f 58/139/96 59/138/95 107/147/99 106/148/100
f 59/141/95 60/114/82 108/122/88 107/149/99
f 61/115/83 62/132/91 65/30/21 66/29/20
f 62/133/91 63/118/85 64/34/24 65/33/21
f 67/91/23 68/150/22 80/151/101 79/92/64
f 68/36/22 69/35/25 81/103/72 80/152/101
f 55/24/17 56/23/16 71/153/102 72/119/86
f 56/28/16 57/27/19 70/154/103 71/155/102
f 73/156/104 74/157/105 77/158/106 76/159/107
f 74/160/105 75/111/80 78/110/79 77/161/106
f 72/119/86 71/153/102 77/161/106 78/110/79
f 71/155/102 70/154/103 76/159/107 77/158/106
f 79/92/64 80/151/101 86/162/108 85/95/66
f 80/152/101 81/103/72 87/104/73 86/163/108
f 75/111/80 74/160/105 83/164/109 84/113/81
f 74/165/105 73/166/104 82/167/110 83/168/109
f 85/95/66 86/162/108 92/169/111 91/97/68
f 86/163/108 87/104/73 93/105/74 92/170/111
f 84/113/81 83/164/109 89/38/27 90/37/26
f 83/168/109 82/167/110 88/42/30 89/41/27
f 91/97/68 92/169/111 119/171/112 118/68/47
f 92/170/111 93/105/74 120/65/46 119/172/112
f 94/40/29 95/39/28 123/173/113 122/75/52
f 95/44/28 96/43/31 124/174/114 123/175/113
f 104/176/115 103/177/116 113/178/54 114/179/117
f 103/180/116 108/122/88 112/121/87 113/181/54
f 109/48/35 110/47/34 128/182/118 129/123/35
f 110/52/34 111/51/37 127/126/37 128/183/118
f 129/123/35 128/182/118 131/67/34 132/66/35
f 128/183/118 127/126/37 130/63/45 131/62/34
f 114/179/117 113/178/54 134/184/54 135/185/117
f 113/181/54 112/121/87 133/124/55 134/186/54
f 135/185/117 134/184/54 137/82/54 138/81/57
f 134/186/54 133/124/55 136/78/55 137/77/54
f 101/53/38 102/50/36 97/49/33 139/187/119
f 97/46/33 98/45/32 99/134/92 139/188/119
f 99/135/92 100/57/41 101/56/38 139/189/119
f 107/149/99 108/122/88 103/180/116 140/190/120
f 103/177/116 104/176/115 105/191/121 140/192/120
f 105/193/121 106/148/100 107/147/99 140/194/120
f 119/172/112 120/65/46 115/64/44 141/195/122
f 115/61/44 116/60/43 117/72/48 141/196/122
f 117/69/48 118/68/47 119/171/112 141/197/122
f 125/198/123 126/80/56 121/79/53 142/199/124
f 121/76/53 122/75/52 123/173/113 142/200/124
f 123/175/113 124/174/114 125/201/123 142/202/124
f 144/203/62 143/204/65 82/167/110 73/166/104
f 145/205/63 144/206/62 73/156/104 76/159/107
f 70/154/103 146/207/84 145/205/63 76/159/107
f 57/27/19 147/208/61 146/207/84 70/154/103
f 148/209/60 147/208/61 57/27/19 52/26/18
f 149/210/58 148/211/60 52/145/18 49/143/98
f 150/212/59 149/210/58 49/143/98 46/136/93
f 151/213/71 150/212/59 46/136/93 58/139/96
f 152/214/42 151/213/71 58/139/96 106/148/100
f 153/215/39 152/214/42 106/148/100 105/193/121
f 154/216/125 153/217/39 105/191/121 104/176/115
f 155/218/89 154/216/125 104/176/115 114/179/117
f 156/219/89 155/218/89 114/179/117 135/185/117
f 157/220/89 156/219/89 135/185/117 138/81/57
f 158/221/126 157/220/89 138/81/57 126/80/56
f 159/222/127 158/221/126 126/80/56 125/198/123
f 160/223/50 159/224/127 125/201/123 124/174/114
f 96/43/31 161/225/69 160/223/50 124/174/114
f 162/226/67 161/225/69 96/43/31 88/42/30
f 143/204/65 162/226/67 88/42/30 82/167/110
