# Blender 4.1.1
# www.blender.org
mtllib ToasterLever1_27_ToasterLever1_27_1_GeomSubset_5.mtl
o ToasterLever1_27_ToasterLever1_27_1_GeomSubset_5
v 0.057332 -0.159666 0.048092
v 0.057332 -0.156171 0.048092
v 0.060828 -0.159666 0.048092
v 0.060828 -0.156171 0.048092
v 0.057332 -0.159666 0.048092
v 0.057332 -0.156171 0.048092
v 0.060828 -0.159666 0.048092
v 0.060828 -0.156171 0.048092
v 0.057332 -0.159666 0.048092
v 0.057332 -0.156171 0.048092
v 0.060828 -0.159666 0.048092
v 0.060828 -0.156171 0.048092
v 0.057332 -0.159666 0.048092
v 0.057332 -0.156171 0.048092
v 0.060828 -0.159666 0.048092
v 0.060828 -0.156171 0.048092
v 0.057332 -0.159666 0.048092
v 0.057332 -0.156171 0.048092
v 0.060828 -0.159666 0.048092
v 0.060828 -0.156171 0.048092
v 0.057332 -0.159666 0.048092
v 0.057332 -0.156171 0.048092
v 0.060828 -0.159666 0.048092
v 0.060828 -0.156171 0.048092
v 0.057007 -0.167207 0.051775
v 0.057007 -0.167207 0.045211
v 0.061153 -0.167207 0.051775
v 0.061153 -0.167207 0.045211
v 0.059080 -0.167207 0.045211
v 0.059080 -0.167207 0.051775
v 0.048323 -0.170804 0.051775
v 0.047813 -0.171015 0.051550
v 0.047601 -0.171103 0.051009
v 0.049808 -0.174406 0.051009
v 0.049970 -0.174245 0.051550
v 0.050360 -0.173854 0.051775
v 0.053410 -0.175892 0.051775
v 0.053199 -0.176402 0.051550
v 0.053111 -0.176613 0.051009
v 0.057007 -0.177388 0.051009
v 0.057029 -0.177164 0.051550
v 0.057083 -0.176622 0.051775
v 0.047592 -0.167132 0.051775
v 0.047051 -0.167185 0.051550
v 0.046826 -0.167207 0.051009
v 0.047601 -0.171103 0.045977
v 0.047813 -0.171015 0.045435
v 0.048323 -0.170804 0.045211
v 0.049808 -0.174406 0.045977
v 0.049970 -0.174245 0.045435
v 0.050360 -0.173854 0.045211
v 0.053111 -0.176613 0.045977
v 0.053199 -0.176402 0.045435
v 0.053410 -0.175892 0.045211
v 0.057083 -0.176622 0.045211
v 0.057029 -0.177164 0.045435
v 0.057007 -0.177388 0.045977
v 0.046826 -0.167207 0.045977
v 0.047051 -0.167185 0.045435
v 0.047592 -0.167132 0.045211
v 0.059080 -0.177388 0.051009
v 0.059080 -0.177164 0.051550
v 0.059080 -0.176622 0.051775
v 0.061077 -0.176622 0.051775
v 0.061130 -0.177164 0.051550
v 0.061153 -0.177388 0.051009
v 0.065049 -0.176613 0.051009
v 0.064961 -0.176402 0.051550
v 0.064750 -0.175892 0.051775
v 0.059080 -0.177388 0.045977
v 0.059080 -0.177164 0.045435
v 0.059080 -0.176622 0.045211
v 0.065049 -0.176613 0.045977
v 0.064961 -0.176402 0.045435
v 0.064750 -0.175892 0.045211
v 0.061153 -0.177388 0.045977
v 0.061130 -0.177164 0.045435
v 0.061077 -0.176622 0.045211
v 0.068352 -0.174406 0.051009
v 0.068190 -0.174245 0.051550
v 0.067799 -0.173854 0.051775
v 0.068352 -0.174406 0.045977
v 0.068190 -0.174245 0.045435
v 0.067799 -0.173854 0.045211
v 0.070559 -0.171103 0.051009
v 0.070347 -0.171015 0.051550
v 0.069837 -0.170804 0.051775
v 0.070559 -0.171103 0.045977
v 0.070347 -0.171015 0.045435
v 0.069837 -0.170804 0.045211
v 0.071334 -0.167207 0.051009
v 0.071109 -0.167185 0.051550
v 0.070568 -0.167132 0.051775
v 0.070568 -0.167132 0.045211
v 0.071109 -0.167185 0.045435
v 0.071334 -0.167207 0.045977
v 0.047592 -0.155744 0.051550
v 0.047592 -0.156286 0.051775
v 0.047051 -0.156286 0.051550
v 0.046826 -0.156286 0.051009
v 0.047051 -0.155744 0.051009
v 0.047592 -0.155520 0.051009
v 0.047592 -0.155744 0.045435
v 0.047592 -0.155520 0.045977
v 0.047051 -0.155744 0.045977
v 0.046826 -0.156286 0.045977
v 0.047051 -0.156286 0.045435
v 0.047592 -0.156286 0.045211
v 0.057007 -0.156286 0.051775
v 0.057007 -0.155744 0.051550
v 0.057007 -0.155520 0.051009
v 0.057007 -0.156286 0.045211
v 0.057007 -0.155744 0.045435
v 0.057007 -0.155520 0.045977
v 0.070568 -0.155744 0.051550
v 0.070568 -0.155520 0.051009
v 0.071109 -0.155744 0.051009
v 0.071334 -0.156286 0.051009
v 0.071109 -0.156286 0.051550
v 0.070568 -0.156286 0.051775
v 0.070568 -0.155744 0.045435
v 0.070568 -0.156286 0.045211
v 0.071109 -0.156286 0.045435
v 0.071334 -0.156286 0.045977
v 0.071109 -0.155744 0.045977
v 0.070568 -0.155520 0.045977
v 0.059080 -0.155520 0.051009
v 0.059080 -0.155744 0.051550
v 0.059080 -0.156286 0.051775
v 0.061153 -0.155520 0.051009
v 0.061153 -0.155744 0.051550
v 0.061153 -0.156286 0.051775
v 0.059080 -0.156286 0.045211
v 0.059080 -0.155744 0.045435
v 0.059080 -0.155520 0.045977
v 0.061153 -0.156286 0.045211
v 0.061153 -0.155744 0.045435
v 0.061153 -0.155520 0.045977
v 0.047150 -0.155844 0.051451
v 0.047150 -0.155844 0.045535
v 0.071010 -0.155844 0.051451
v 0.071010 -0.155844 0.045535
v 0.068352 -0.174406 0.047156
v 0.065049 -0.176613 0.047156
v 0.061153 -0.177388 0.047156
v 0.059080 -0.177388 0.047156
v 0.057007 -0.177388 0.047156
v 0.053111 -0.176613 0.047156
v 0.049808 -0.174406 0.047156
v 0.047601 -0.171103 0.047156
v 0.046826 -0.167207 0.047156
v 0.046826 -0.156286 0.047156
v 0.047051 -0.155744 0.047156
v 0.047592 -0.155520 0.047156
v 0.057007 -0.155520 0.047156
v 0.059080 -0.155520 0.047156
v 0.061153 -0.155520 0.047156
v 0.070568 -0.155520 0.047156
v 0.071109 -0.155744 0.047156
v 0.071334 -0.156286 0.047156
v 0.071334 -0.167207 0.047156
v 0.070559 -0.171103 0.047156
v 0.068352 -0.174406 0.049829
v 0.065049 -0.176613 0.049829
v 0.061153 -0.177388 0.049829
v 0.059080 -0.177388 0.049829
v 0.057007 -0.177388 0.049829
v 0.053111 -0.176613 0.049829
v 0.049808 -0.174406 0.049829
v 0.047601 -0.171103 0.049829
v 0.046826 -0.167207 0.049829
v 0.046826 -0.156286 0.049829
v 0.047051 -0.155744 0.049829
v 0.047592 -0.155520 0.049829
v 0.057007 -0.155520 0.049829
v 0.059080 -0.155520 0.049829
v 0.061153 -0.155520 0.049829
v 0.070568 -0.155520 0.049829
v 0.071109 -0.155744 0.049829
v 0.071334 -0.156286 0.049829
v 0.071334 -0.167207 0.049829
v 0.070559 -0.171103 0.049829
v 0.056086 -0.156556 0.045978
v 0.056086 -0.145541 0.045978
v 0.056086 -0.156556 0.049683
v 0.056086 -0.145541 0.049683
v 0.062074 -0.156556 0.049683
v 0.062074 -0.145541 0.049683
v 0.062074 -0.156556 0.045978
v 0.062074 -0.145541 0.045978
vn -0.0000 -0.0000 -1.0000
vt -88.303970 -18.597717
vt -87.512978 -18.597717
vt -87.512978 -17.806725
vt -88.303970 -17.806725
s 1
usemtl M_ToasterLever1_27_5
f 21/1/1 22/2/1 24/3/1 23/4/1
