# Blender 4.1.1
# www.blender.org
mtllib ToasterLever2_27_ToasterLever2_27_2_GeomSubset_4.mtl
o ToasterLever2_27_ToasterLever2_27_2_GeomSubset_4
v -0.061388 -0.159666 0.048092
v -0.061388 -0.156172 0.048092
v -0.057892 -0.159666 0.048092
v -0.057892 -0.156172 0.048092
v -0.061388 -0.159666 0.048092
v -0.061388 -0.156172 0.048092
v -0.057892 -0.159666 0.048092
v -0.057892 -0.156172 0.048092
v -0.061388 -0.159666 0.048092
v -0.061388 -0.156172 0.048092
v -0.057892 -0.159666 0.048092
v -0.057892 -0.156172 0.048092
v -0.061388 -0.159666 0.048092
v -0.061388 -0.156172 0.048092
v -0.057892 -0.159666 0.048092
v -0.057892 -0.156172 0.048092
v -0.061388 -0.159666 0.048092
v -0.061388 -0.156172 0.048092
v -0.057892 -0.159666 0.048092
v -0.057892 -0.156172 0.048092
v -0.061388 -0.159666 0.048092
v -0.061388 -0.156172 0.048092
v -0.057892 -0.159666 0.048092
v -0.057892 -0.156172 0.048092
v -0.061713 -0.167207 0.051775
v -0.061713 -0.167207 0.045211
v -0.057568 -0.167207 0.051775
v -0.057568 -0.167207 0.045211
v -0.059640 -0.167207 0.045211
v -0.059640 -0.167207 0.051775
v -0.070397 -0.170805 0.051775
v -0.070908 -0.171016 0.051550
v -0.071119 -0.171104 0.051009
v -0.068912 -0.174406 0.051009
v -0.068750 -0.174245 0.051550
v -0.068360 -0.173855 0.051775
v -0.065310 -0.175892 0.051775
v -0.065522 -0.176403 0.051550
v -0.065609 -0.176614 0.051009
v -0.061713 -0.177389 0.051009
v -0.061691 -0.177164 0.051550
v -0.061637 -0.176623 0.051775
v -0.071128 -0.167132 0.051775
v -0.071670 -0.167185 0.051550
v -0.071894 -0.167207 0.051009
v -0.071119 -0.171104 0.045977
v -0.070908 -0.171016 0.045435
v -0.070397 -0.170805 0.045211
v -0.068912 -0.174406 0.045977
v -0.068750 -0.174245 0.045435
v -0.068360 -0.173855 0.045211
v -0.065609 -0.176614 0.045977
v -0.065522 -0.176403 0.045435
v -0.065310 -0.175892 0.045211
v -0.061637 -0.176623 0.045211
v -0.061691 -0.177164 0.045435
v -0.061713 -0.177389 0.045977
v -0.071894 -0.167207 0.045977
v -0.071670 -0.167185 0.045435
v -0.071128 -0.167132 0.045211
v -0.059640 -0.177389 0.051009
v -0.059640 -0.177164 0.051550
v -0.059640 -0.176623 0.051775
v -0.057643 -0.176623 0.051775
v -0.057589 -0.177164 0.051550
v -0.057568 -0.177389 0.051009
v -0.053671 -0.176614 0.051009
v -0.053759 -0.176403 0.051550
v -0.053970 -0.175892 0.051775
v -0.059640 -0.177389 0.045977
v -0.059640 -0.177164 0.045435
v -0.059640 -0.176623 0.045211
v -0.053671 -0.176614 0.045977
v -0.053759 -0.176403 0.045435
v -0.053970 -0.175892 0.045211
v -0.057568 -0.177389 0.045977
v -0.057589 -0.177164 0.045435
v -0.057643 -0.176623 0.045211
v -0.050368 -0.174406 0.051009
v -0.050530 -0.174245 0.051550
v -0.050920 -0.173855 0.051775
v -0.050368 -0.174406 0.045977
v -0.050530 -0.174245 0.045435
v -0.050920 -0.173855 0.045211
v -0.048161 -0.171104 0.051009
v -0.048373 -0.171016 0.051550
v -0.048883 -0.170805 0.051775
v -0.048161 -0.171104 0.045977
v -0.048373 -0.171016 0.045435
v -0.048883 -0.170805 0.045211
v -0.047386 -0.167207 0.051009
v -0.047611 -0.167185 0.051550
v -0.048152 -0.167132 0.051775
v -0.048152 -0.167132 0.045211
v -0.047611 -0.167185 0.045435
v -0.047386 -0.167207 0.045977
v -0.071128 -0.155745 0.051550
v -0.071128 -0.156286 0.051775
v -0.071670 -0.156286 0.051550
v -0.071894 -0.156286 0.051009
v -0.071670 -0.155745 0.051009
v -0.071128 -0.155520 0.051009
v -0.071128 -0.155745 0.045435
v -0.071128 -0.155520 0.045977
v -0.071670 -0.155745 0.045977
v -0.071894 -0.156286 0.045977
v -0.071670 -0.156286 0.045435
v -0.071128 -0.156286 0.045211
v -0.061713 -0.156286 0.051775
v -0.061713 -0.155745 0.051550
v -0.061713 -0.155520 0.051009
v -0.061713 -0.156286 0.045211
v -0.061713 -0.155745 0.045435
v -0.061713 -0.155520 0.045977
v -0.048152 -0.155745 0.051550
v -0.048152 -0.155520 0.051009
v -0.047611 -0.155745 0.051009
v -0.047386 -0.156286 0.051009
v -0.047611 -0.156286 0.051550
v -0.048152 -0.156286 0.051775
v -0.048152 -0.155745 0.045435
v -0.048152 -0.156286 0.045211
v -0.047611 -0.156286 0.045435
v -0.047386 -0.156286 0.045977
v -0.047611 -0.155745 0.045977
v -0.048152 -0.155520 0.045977
v -0.059640 -0.155520 0.051009
v -0.059640 -0.155745 0.051550
v -0.059640 -0.156286 0.051775
v -0.057568 -0.155520 0.051009
v -0.057568 -0.155745 0.051550
v -0.057568 -0.156286 0.051775
v -0.059640 -0.156286 0.045211
v -0.059640 -0.155745 0.045435
v -0.059640 -0.155520 0.045977
v -0.057568 -0.156286 0.045211
v -0.057568 -0.155745 0.045435
v -0.057568 -0.155520 0.045977
v -0.071570 -0.155845 0.051451
v -0.071570 -0.155845 0.045535
v -0.047710 -0.155845 0.051451
v -0.047710 -0.155845 0.045535
v -0.050368 -0.174406 0.047156
v -0.053671 -0.176614 0.047156
v -0.057568 -0.177389 0.047156
v -0.059640 -0.177389 0.047156
v -0.061713 -0.177389 0.047156
v -0.065609 -0.176614 0.047156
v -0.068912 -0.174406 0.047156
v -0.071119 -0.171104 0.047156
v -0.071894 -0.167207 0.047156
v -0.071894 -0.156286 0.047156
v -0.071670 -0.155745 0.047156
v -0.071128 -0.155520 0.047156
v -0.061713 -0.155520 0.047156
v -0.059640 -0.155520 0.047156
v -0.057568 -0.155520 0.047156
v -0.048152 -0.155520 0.047156
v -0.047611 -0.155745 0.047156
v -0.047386 -0.156286 0.047156
v -0.047386 -0.167207 0.047156
v -0.048161 -0.171104 0.047156
v -0.050368 -0.174406 0.049829
v -0.053671 -0.176614 0.049829
v -0.057568 -0.177389 0.049829
v -0.059640 -0.177389 0.049829
v -0.061713 -0.177389 0.049829
v -0.065609 -0.176614 0.049829
v -0.068912 -0.174406 0.049829
v -0.071119 -0.171104 0.049829
v -0.071894 -0.167207 0.049829
v -0.071894 -0.156286 0.049829
v -0.071670 -0.155745 0.049829
v -0.071128 -0.155520 0.049829
v -0.061713 -0.155520 0.049829
v -0.059640 -0.155520 0.049829
v -0.057568 -0.155520 0.049829
v -0.048152 -0.155520 0.049829
v -0.047611 -0.155745 0.049829
v -0.047386 -0.156286 0.049829
v -0.047386 -0.167207 0.049829
v -0.048161 -0.171104 0.049829
v -0.062634 -0.156556 0.045978
v -0.062634 -0.145542 0.045978
v -0.062634 -0.156556 0.049683
v -0.062634 -0.145542 0.049683
v -0.056646 -0.156556 0.049683
v -0.056646 -0.145542 0.049683
v -0.056646 -0.156556 0.045978
v -0.056646 -0.145542 0.045978
vn 0.9200 -0.0000 -0.3919
vn -0.0000 -0.9200 -0.3919
vn -0.9200 -0.0000 -0.3919
vn -0.0000 0.9200 -0.3919
vt -0.024476 -18.597717
vt 0.766515 -18.597717
vt 0.766515 -17.806725
vt -0.024476 -17.806725
s 1
usemtl M_ToasterLever2_27_4
f 17/1/1 18/2/2 20/3/3 19/4/4
