# Blender 4.1.0
# www.blender.org
mtllib MeshTelevision_17_0_GeomSubset_3.mtl
o MeshTelevision_17_0_GeomSubset_3
v -0.000927 0.050476 0.005578
v 0.000927 0.050476 0.005578
v -0.000927 0.052330 0.005578
v 0.000927 0.052330 0.005578
v -0.000927 0.050476 0.005578
v 0.000927 0.050476 0.005578
v -0.000927 0.052330 0.005578
v 0.000927 0.052330 0.005578
v -0.000927 0.050476 0.005578
v 0.000927 0.050476 0.005578
v -0.000927 0.052330 0.005578
v 0.000927 0.052330 0.005578
v -0.000927 0.050476 0.005578
v 0.000927 0.050476 0.005578
v -0.000927 0.052330 0.005578
v 0.000927 0.052330 0.005578
v -0.000927 0.050476 0.005578
v 0.000927 0.050476 0.005578
v -0.000927 0.052330 0.005578
v 0.000927 0.052330 0.005578
v -0.546686 -0.065129 -0.237011
v -0.546686 -0.065129 0.454332
v -0.546686 -0.011410 0.454332
v -0.546686 -0.011410 -0.237011
v -0.439191 0.051403 0.386363
v -0.439191 0.051403 -0.169042
v -0.700833 -0.011410 -0.237011
v -0.700833 -0.065129 -0.237011
v -0.700833 -0.011410 0.454332
v -0.700833 -0.065129 0.454332
v -0.560202 -0.081529 -0.217703
v -0.560202 -0.081529 0.435024
v -0.687317 -0.081529 -0.217703
v -0.687317 -0.081529 0.435024
v -0.546686 -0.011410 -0.326268
v -0.546686 -0.065129 -0.326268
v -0.700833 -0.011410 -0.326268
v -0.700833 -0.065129 -0.326268
v -0.546686 -0.011410 -0.385390
v -0.546686 -0.065129 -0.385390
v -0.700833 -0.011410 -0.385390
v -0.700833 -0.065129 -0.385390
v -0.546686 -0.065129 -0.255631
v -0.546686 -0.065129 -0.318305
v -0.700833 -0.065129 -0.255631
v -0.700833 -0.065129 -0.318305
v -0.700833 -0.011410 -0.255631
v -0.700833 -0.011410 -0.318305
v -0.546686 -0.011410 -0.255631
v -0.546686 -0.011410 -0.318305
v -0.516509 -0.065129 -0.206834
v -0.516509 -0.065129 0.424156
v -0.516509 -0.040877 -0.206834
v -0.516509 -0.040877 0.424156
v 0.000001 -0.065129 0.454332
v 0.000001 -0.011410 0.454332
v 0.000001 0.051403 0.386363
v 0.000001 0.051403 -0.169042
v 0.000001 -0.011410 -0.237011
v 0.000001 -0.011410 -0.255631
v 0.000001 -0.011410 -0.318305
v 0.000001 -0.011410 -0.326268
v 0.000001 -0.011410 -0.385390
v 0.000001 -0.065129 -0.385390
v 0.000001 -0.065129 -0.326268
v 0.000001 -0.065129 -0.318305
v 0.000001 -0.065129 -0.255631
v 0.000001 -0.065129 -0.237011
v 0.000001 -0.065129 -0.206834
v 0.000001 -0.040877 -0.206834
v 0.000001 -0.040877 0.424156
v 0.000001 -0.065129 0.424156
v -0.550697 -0.075664 0.448035
v -0.696822 -0.075664 0.448035
v -0.696822 -0.075664 -0.230714
v -0.550697 -0.075664 -0.230714
v 0.000001 -0.086199 -0.330482
v 0.000001 -0.081986 -0.326268
v -0.546686 -0.086199 -0.330482
v -0.546686 -0.081986 -0.326268
v -0.700833 -0.086199 -0.330482
v -0.700833 -0.081986 -0.326268
v 0.000001 -0.081986 -0.318305
v 0.000001 -0.086199 -0.314091
v -0.546686 -0.081986 -0.255631
v -0.546686 -0.086199 -0.259844
v 0.000001 -0.086199 -0.259844
v 0.000001 -0.081986 -0.255631
v -0.546686 -0.081986 -0.318305
v -0.546686 -0.086199 -0.314091
v -0.700833 -0.086199 -0.314091
v -0.700833 -0.081986 -0.318305
v -0.700833 -0.086199 -0.259844
v -0.700833 -0.081986 -0.255631
v 0.000001 -0.081986 -0.385390
v 0.000001 -0.086199 -0.381177
v -0.546686 -0.081986 -0.385390
v -0.546686 -0.086199 -0.381177
v -0.700833 -0.086199 -0.381177
v -0.700833 -0.081986 -0.385390
v 0.546686 -0.065129 -0.237011
v 0.546686 -0.065129 0.454332
v 0.546686 -0.011410 0.454332
v 0.546686 -0.011410 -0.237011
v 0.439192 0.051403 0.386363
v 0.439192 0.051403 -0.169042
v 0.700833 -0.011410 -0.237011
v 0.700833 -0.065129 -0.237011
v 0.700833 -0.011410 0.454332
v 0.700833 -0.065129 0.454332
v 0.560203 -0.081529 -0.217703
v 0.560203 -0.081529 0.435024
v 0.687317 -0.081529 -0.217703
v 0.687317 -0.081529 0.435024
v 0.546686 -0.011410 -0.326268
v 0.546686 -0.065129 -0.326268
v 0.700833 -0.011410 -0.326268
v 0.700833 -0.065129 -0.326268
v 0.546686 -0.011410 -0.385390
v 0.546686 -0.065129 -0.385390
v 0.700833 -0.011410 -0.385390
v 0.700833 -0.065129 -0.385390
v 0.546686 -0.065129 -0.255631
v 0.546686 -0.065129 -0.318305
v 0.700833 -0.065129 -0.255631
v 0.700833 -0.065129 -0.318305
v 0.700833 -0.011410 -0.255631
v 0.700833 -0.011410 -0.318305
v 0.546686 -0.011410 -0.255631
v 0.546686 -0.011410 -0.318305
v 0.516510 -0.065129 -0.206834
v 0.516510 -0.065129 0.424156
v 0.516510 -0.040877 -0.206834
v 0.516510 -0.040877 0.424156
v 0.550698 -0.075664 0.448035
v 0.696822 -0.075664 0.448035
v 0.696822 -0.075664 -0.230714
v 0.550698 -0.075664 -0.230714
v 0.546686 -0.086199 -0.330482
v 0.546686 -0.081986 -0.326268
v 0.700833 -0.086199 -0.330482
v 0.700833 -0.081986 -0.326268
v 0.546686 -0.081986 -0.255631
v 0.546686 -0.086199 -0.259844
v 0.546686 -0.081986 -0.318305
v 0.546686 -0.086199 -0.314091
v 0.700833 -0.086199 -0.314091
v 0.700833 -0.081986 -0.318305
v 0.700833 -0.086199 -0.259844
v 0.700833 -0.081986 -0.255631
v 0.546686 -0.081986 -0.385390
v 0.546686 -0.086199 -0.381177
v 0.700833 -0.086199 -0.381177
v 0.700833 -0.081986 -0.385390
vn -0.0000 -0.0000 1.0000
vn 0.0635 -0.9979 0.0116
vn -0.0635 -0.9979 0.0116
vn -0.0635 -0.9979 -0.0116
vn 0.0635 -0.9979 -0.0116
vn 0.9346 -0.3558 -0.0000
vn 0.8673 -0.4978 -0.0000
vn -0.0000 -0.5131 -0.8584
vn -0.0000 -0.6835 -0.7300
vn -0.9991 -0.0432 -0.0000
vn -0.8673 -0.4977 -0.0000
vn -0.9990 -0.0441 -0.0000
vn -0.0000 -0.0790 0.9969
vn -0.0000 -0.6835 0.7300
vn -0.0000 -0.6834 0.7300
vn -0.0000 -0.0194 0.9998
vn -0.9345 -0.3559 -0.0000
vn -0.0000 -0.6834 -0.7300
vn 0.9991 -0.0432 -0.0000
vn 0.9990 -0.0441 -0.0000
vn 0.8673 -0.4977 -0.0000
vn -0.0001 -0.0194 0.9998
vt -7.472421 -17.598972
vt -7.472421 -17.599730
vt -7.471665 -17.599730
vt -7.471665 -17.598972
vt -6.743758 0.416814
vt -6.743758 0.666842
vt -8.027633 0.666842
vt -8.027633 0.416814
vt -7.380393 1.506041
vt -7.404415 1.491683
vt -7.404415 -0.055920
vt -7.380393 -0.070278
vt -8.065611 0.390228
vt -8.053226 0.398119
vt -8.053226 0.685537
vt -8.065611 0.693427
vt -7.347157 -0.009806
vt -7.323134 0.004552
vt -7.323134 1.552155
vt -7.347157 1.566512
vt -7.584653 0.704304
vt -7.606863 0.695849
vt -7.606863 0.387807
vt -7.584653 0.379350
vt -6.718166 0.685537
vt -6.718166 0.398119
vt -7.309761 0.034218
vt -7.309761 1.522488
vt -7.417789 1.462017
vt -7.417789 -0.026254
vt -6.743758 0.158416
vt -8.027633 0.158416
vt -8.027633 -0.091610
vt -6.743758 -0.091610
vt -7.430260 1.506041
vt -7.430260 -0.070278
vt -7.406239 -0.055920
vt -7.406239 1.491683
vt -8.065611 0.185002
vt -8.065611 -0.118196
vt -8.053225 -0.110307
vt -8.053225 0.177111
vt -7.366018 -0.009805
vt -7.366018 1.566512
vt -7.390040 1.552154
vt -7.390040 0.004553
vt -7.584653 -0.129076
vt -7.584653 0.195882
vt -7.606863 0.187425
vt -7.606863 -0.120620
vt -6.718166 -0.110307
vt -6.718166 0.177111
vt -7.403413 1.522487
vt -7.403413 0.034219
vt -7.392865 -0.026254
vt -7.392865 1.462017
s 1
usemtl M_Television_17_3
f 13/1/1 14/2/1 16/3/1 15/4/1
f 32/5/2 34/6/3 33/7/4 31/8/5
f 22/9/6 73/10/7 76/11/7 21/12/6
f 21/13/8 76/14/9 75/15/9 28/16/8
f 28/17/10 75/18/11 74/19/11 30/20/12
f 30/21/13 74/22/14 73/23/15 22/24/16
f 74/25/14 34/6/3 32/5/2 73/26/15
f 75/18/11 33/27/4 34/28/3 74/19/11
f 76/14/9 31/8/5 33/7/4 75/15/9
f 73/10/7 32/29/2 31/30/5 76/11/7
f 112/31/3 111/32/4 113/33/5 114/34/2
f 102/35/17 101/36/17 138/37/11 135/38/11
f 101/39/8 108/40/8 137/41/9 138/42/18
f 108/43/19 110/44/20 136/45/21 137/46/21
f 110/47/13 102/48/22 135/49/14 136/50/14
f 136/51/14 135/52/14 112/31/3 114/34/2
f 137/46/21 136/45/21 114/53/2 113/54/5
f 138/42/18 137/41/9 113/33/5 111/32/4
f 135/38/11 138/37/11 111/55/4 112/56/3
