# Blender 4.1.0
# www.blender.org
mtllib MeshPlate_30_0_GeomSubset_0.mtl
o MeshPlate_30_0_GeomSubset_0
v 0.000000 -0.117749 -0.071407
v 0.000000 -0.114459 -0.084921
v -0.117753 0.000000 -0.071407
v -0.114460 0.000000 -0.084921
v 0.000000 0.000000 -0.084921
v 0.114460 0.000000 -0.084921
v 0.117753 0.000000 -0.071407
v 0.000000 0.000000 -0.071407
v 0.000000 -0.134531 -0.062936
v 0.134531 0.000000 -0.062936
v -0.134530 0.000000 -0.062936
v -0.030008 0.000000 -0.071407
v -0.041996 0.000000 -0.071407
v 0.000000 -0.041997 -0.071407
v 0.000000 -0.030011 -0.071407
v 0.085954 -0.114227 -0.071407
v 0.076552 -0.117749 -0.071407
v 0.117753 -0.076551 -0.071407
v 0.114227 -0.085951 -0.071407
v 0.030010 0.000000 -0.071407
v 0.041998 0.000000 -0.071407
v -0.076552 -0.117749 -0.071407
v -0.085954 -0.114227 -0.071407
v -0.114227 -0.085951 -0.071407
v -0.117753 -0.076551 -0.071407
v 0.027845 0.000000 -0.084921
v 0.040824 0.000000 -0.084921
v 0.111027 -0.083558 -0.084921
v 0.114460 -0.074435 -0.084921
v 0.074435 -0.114459 -0.084921
v 0.083557 -0.111026 -0.084921
v 0.000000 -0.027845 -0.084921
v 0.000000 -0.040824 -0.084921
v -0.027844 0.000000 -0.084921
v -0.040824 0.000000 -0.084921
v -0.114460 -0.074435 -0.084921
v -0.111027 -0.083558 -0.084921
v -0.083557 -0.111026 -0.084921
v -0.074435 -0.114459 -0.084921
v -0.088805 -0.134531 -0.062936
v -0.097437 -0.131270 -0.062936
v 0.134531 -0.088806 -0.062936
v 0.131269 -0.097435 -0.062936
v -0.131269 -0.097435 -0.062936
v -0.134530 -0.088806 -0.062936
v 0.097437 -0.131270 -0.062936
v 0.088805 -0.134531 -0.062936
v 0.000000 0.117749 -0.071407
v 0.000000 0.114459 -0.084921
v 0.000000 0.134531 -0.062936
v 0.000000 0.041998 -0.071407
v 0.000000 0.030011 -0.071407
v 0.085954 0.114227 -0.071407
v 0.076552 0.117749 -0.071407
v 0.117753 0.076551 -0.071407
v 0.114227 0.085950 -0.071407
v -0.076552 0.117749 -0.071407
v -0.085954 0.114227 -0.071407
v -0.114227 0.085950 -0.071407
v -0.117753 0.076551 -0.071407
v 0.111027 0.083558 -0.084921
v 0.114460 0.074435 -0.084921
v 0.074435 0.114459 -0.084921
v 0.083557 0.111026 -0.084921
v 0.000000 0.027845 -0.084921
v 0.000000 0.040823 -0.084921
v -0.114460 0.074435 -0.084921
v -0.111027 0.083558 -0.084921
v -0.083557 0.111026 -0.084921
v -0.074435 0.114459 -0.084921
v -0.088805 0.134531 -0.062936
v -0.097437 0.131270 -0.062936
v 0.134531 0.088806 -0.062936
v 0.131269 0.097436 -0.062936
v -0.131269 0.097436 -0.062936
v -0.134530 0.088806 -0.062936
v 0.097437 0.131270 -0.062936
v 0.088805 0.134531 -0.062936
v -0.094729 -0.140361 -0.062936
v -0.095822 -0.144102 -0.065718
v -0.104401 -0.140563 -0.065685
v -0.102238 -0.137349 -0.062936
v 0.140361 -0.094729 -0.062936
v 0.144102 -0.095822 -0.065718
v 0.140563 -0.104400 -0.065684
v 0.137349 -0.102237 -0.062936
v -0.144102 -0.095822 -0.065718
v -0.140361 -0.094729 -0.062936
v -0.137349 -0.102237 -0.062936
v -0.140563 -0.104400 -0.065684
v 0.102238 -0.137349 -0.062936
v 0.104401 -0.140563 -0.065685
v 0.095822 -0.144102 -0.065718
v 0.094729 -0.140361 -0.062936
v 0.000000 -0.140378 -0.062936
v 0.000000 -0.144114 -0.065766
v 0.140378 0.000000 -0.062936
v 0.144114 0.000000 -0.065766
v -0.144113 0.000000 -0.065766
v -0.140378 0.000000 -0.062936
v -0.095822 0.144102 -0.065718
v -0.094729 0.140361 -0.062936
v -0.102238 0.137349 -0.062936
v -0.104401 0.140563 -0.065685
v 0.144102 0.095822 -0.065718
v 0.140361 0.094729 -0.062936
v 0.137349 0.102237 -0.062936
v 0.140563 0.104401 -0.065684
v -0.140361 0.094729 -0.062936
v -0.144102 0.095822 -0.065718
v -0.140563 0.104401 -0.065684
v -0.137349 0.102237 -0.062936
v 0.104401 0.140563 -0.065685
v 0.102238 0.137349 -0.062936
v 0.094729 0.140361 -0.062936
v 0.095822 0.144102 -0.065718
v 0.000000 0.144114 -0.065766
v 0.000000 0.140378 -0.062936
v 0.140140 -0.104096 -0.069222
v 0.140940 -0.104663 -0.067178
v 0.143652 -0.095483 -0.069229
v 0.144465 -0.096076 -0.067158
v 0.095484 -0.143652 -0.069229
v 0.096076 -0.144465 -0.067158
v 0.104095 -0.140139 -0.069222
v 0.104664 -0.140940 -0.067178
v -0.143652 -0.095483 -0.069229
v -0.144465 -0.096076 -0.067158
v -0.140140 -0.104096 -0.069222
v -0.140940 -0.104663 -0.067178
v -0.104095 -0.140139 -0.069222
v -0.104664 -0.140940 -0.067178
v -0.095484 -0.143652 -0.069229
v -0.096076 -0.144465 -0.067158
v 0.000000 -0.143550 -0.069284
v 0.000000 -0.144483 -0.067227
v 0.143550 0.000000 -0.069284
v 0.144482 0.000000 -0.067227
v -0.143550 0.000000 -0.069284
v -0.144482 0.000000 -0.067227
v 0.140140 0.104096 -0.069222
v 0.140940 0.104663 -0.067178
v 0.143652 0.095483 -0.069229
v 0.144465 0.096076 -0.067158
v 0.095484 0.143652 -0.069229
v 0.096076 0.144465 -0.067158
v 0.104095 0.140139 -0.069222
v 0.104664 0.140940 -0.067178
v -0.143652 0.095483 -0.069229
v -0.144465 0.096076 -0.067158
v -0.140140 0.104096 -0.069222
v -0.140940 0.104663 -0.067178
v -0.104095 0.140139 -0.069222
v -0.104664 0.140940 -0.067178
v -0.095484 0.143652 -0.069229
v -0.096076 0.144465 -0.067158
v 0.000000 0.143550 -0.069284
v 0.000000 0.144483 -0.067227
v 0.000000 -0.117706 -0.071224
v -0.117710 0.000000 -0.071224
v 0.117710 0.000000 -0.071224
v 0.000000 0.000000 -0.071219
v 0.000000 -0.134487 -0.062753
v 0.134487 0.000000 -0.062753
v -0.134486 0.000000 -0.062753
v -0.030008 0.000000 -0.071219
v -0.041996 0.000000 -0.071219
v 0.000000 -0.041997 -0.071219
v 0.000000 -0.030011 -0.071219
v 0.085932 -0.114193 -0.071224
v 0.076547 -0.117705 -0.071225
v 0.117709 -0.076545 -0.071225
v 0.114193 -0.085928 -0.071224
v 0.030010 0.000000 -0.071219
v 0.041998 0.000000 -0.071219
v -0.076547 -0.117705 -0.071225
v -0.085932 -0.114193 -0.071224
v -0.114193 -0.085928 -0.071224
v -0.117709 -0.076545 -0.071225
v -0.088797 -0.134496 -0.062751
v -0.097419 -0.131243 -0.062751
v 0.134496 -0.088798 -0.062751
v 0.131241 -0.097418 -0.062751
v -0.131241 -0.097418 -0.062751
v -0.134495 -0.088798 -0.062751
v 0.097419 -0.131243 -0.062751
v 0.088797 -0.134496 -0.062751
v 0.000000 0.117706 -0.071224
v 0.000000 0.134487 -0.062753
v 0.000000 0.041997 -0.071219
v 0.000000 0.030011 -0.071219
v 0.085932 0.114193 -0.071224
v 0.076547 0.117705 -0.071225
v 0.117709 0.076545 -0.071225
v 0.114193 0.085928 -0.071224
v -0.076547 0.117705 -0.071225
v -0.085932 0.114193 -0.071224
v -0.114193 0.085928 -0.071224
v -0.117709 0.076545 -0.071225
v -0.088797 0.134496 -0.062751
v -0.097419 0.131243 -0.062751
v 0.134496 0.088798 -0.062751
v 0.131241 0.097418 -0.062751
v -0.131241 0.097418 -0.062751
v -0.134495 0.088798 -0.062751
v 0.097419 0.131243 -0.062751
v 0.088797 0.134496 -0.062751
v -0.094741 -0.140424 -0.062759
v -0.095844 -0.144212 -0.065567
v -0.104462 -0.140655 -0.065532
v -0.102273 -0.137402 -0.062759
v 0.140424 -0.094740 -0.062759
v 0.144211 -0.095844 -0.065567
v 0.140654 -0.104461 -0.065532
v 0.137402 -0.102272 -0.062759
v -0.144211 -0.095844 -0.065567
v -0.140424 -0.094740 -0.062759
v -0.137402 -0.102272 -0.062759
v -0.140654 -0.104461 -0.065532
v 0.102273 -0.137402 -0.062759
v 0.104462 -0.140655 -0.065532
v 0.095844 -0.144212 -0.065567
v 0.094741 -0.140424 -0.062759
v 0.000000 -0.140438 -0.062758
v 0.000000 -0.144229 -0.065617
v 0.140438 0.000000 -0.062758
v 0.144229 0.000000 -0.065617
v -0.144228 0.000000 -0.065617
v -0.140438 0.000000 -0.062758
v -0.095844 0.144212 -0.065567
v -0.094741 0.140424 -0.062759
v -0.102273 0.137402 -0.062759
v -0.104462 0.140655 -0.065532
v 0.144211 0.095844 -0.065567
v 0.140424 0.094740 -0.062759
v 0.137402 0.102272 -0.062759
v 0.140654 0.104461 -0.065532
v -0.140424 0.094740 -0.062759
v -0.144211 0.095844 -0.065567
v -0.140654 0.104461 -0.065532
v -0.137402 0.102272 -0.062759
v 0.104462 0.140655 -0.065532
v 0.102273 0.137402 -0.062759
v 0.094741 0.140424 -0.062759
v 0.095844 0.144212 -0.065567
v 0.000000 0.144229 -0.065617
v 0.000000 0.140438 -0.062758
vn -0.0000 -0.0000 1.0000
vn -0.2494 0.2910 0.9236
vn -0.0105 0.4445 0.8957
vn -0.0272 0.4346 0.9002
vn -0.2504 0.2903 0.9236
vn -0.4446 0.0105 0.8957
vn -0.2910 0.2494 0.9236
vn -0.2903 0.2504 0.9236
vn -0.4346 0.0273 0.9002
vn 0.0105 0.4445 0.8957
vn 0.2494 0.2910 0.9236
vn 0.2504 0.2903 0.9236
vn 0.0272 0.4346 0.9002
vn 0.2910 0.2494 0.9236
vn 0.4446 0.0105 0.8957
vn 0.4347 0.0272 0.9002
vn 0.2903 0.2504 0.9236
vn -0.0000 -0.0000 -1.0000
vn -0.0000 0.4506 0.8927
vn -0.4507 -0.0000 0.8927
vn 0.4507 -0.0000 0.8927
vn -0.2494 -0.2910 0.9236
vn -0.2504 -0.2903 0.9236
vn -0.0272 -0.4346 0.9002
vn -0.0105 -0.4445 0.8957
vn -0.4446 -0.0105 0.8957
vn -0.4346 -0.0273 0.9002
vn -0.2903 -0.2504 0.9236
vn -0.2910 -0.2494 0.9236
vn 0.0105 -0.4445 0.8957
vn 0.0272 -0.4346 0.9002
vn 0.2504 -0.2903 0.9236
vn 0.2494 -0.2910 0.9236
vn 0.2910 -0.2494 0.9236
vn 0.2903 -0.2504 0.9236
vn 0.4347 -0.0273 0.9002
vn 0.4446 -0.0105 0.8957
vn -0.0000 -0.4506 0.8927
vn -0.0110 -0.3852 0.9228
vn -0.0202 -0.5962 0.8026
vn -0.0000 -0.6003 0.7998
vn -0.0000 -0.2871 0.9579
vn -0.1753 -0.1972 0.9646
vn -0.3868 -0.4347 0.8133
vn -0.1972 -0.1753 0.9646
vn -0.4347 -0.3868 0.8133
vn 0.3852 -0.0110 0.9227
vn 0.5964 -0.0202 0.8024
vn 0.6006 -0.0002 0.7995
vn 0.2871 -0.0000 0.9579
vn 0.1973 -0.1753 0.9646
vn 0.4347 -0.3868 0.8133
vn 0.1753 -0.1972 0.9646
vn 0.3868 -0.4347 0.8133
vn -0.5963 -0.0203 0.8025
vn -0.3851 -0.0110 0.9228
vn -0.2872 -0.0000 0.9579
vn -0.6004 -0.0000 0.7997
vn 0.0110 -0.3851 0.9228
vn 0.0203 -0.5962 0.8026
vn 0.5963 0.0203 0.8025
vn 0.3851 0.0110 0.9228
vn -0.3852 0.0110 0.9228
vn -0.5964 0.0202 0.8024
vn -0.0202 0.5962 0.8025
vn -0.0110 0.3852 0.9228
vn -0.0000 0.2871 0.9579
vn -0.0000 0.6003 0.7998
vn -0.3868 0.4346 0.8133
vn -0.1753 0.1972 0.9646
vn -0.4347 0.3868 0.8133
vn -0.1972 0.1752 0.9646
vn 0.4347 0.3868 0.8133
vn 0.1972 0.1753 0.9646
vn 0.3868 0.4347 0.8133
vn 0.1753 0.1972 0.9646
vn 0.0202 0.5962 0.8026
vn 0.0110 0.3851 0.9228
vn 0.3369 -0.2941 -0.8944
vn 0.7400 -0.6572 -0.1430
vn 0.6572 -0.7400 -0.1431
vn 0.2941 -0.3369 -0.8944
vn 0.5196 -0.0285 -0.8540
vn 0.9901 -0.0405 -0.1345
vn 0.5128 -0.0000 -0.8585
vn 0.9898 -0.0000 -0.1425
vn 0.0285 -0.5196 -0.8540
vn 0.0404 -0.9901 -0.1348
vn -0.0000 -0.9898 -0.1427
vn -0.0001 -0.5128 -0.8585
vn -0.5196 -0.0285 -0.8540
vn -0.9901 -0.0404 -0.1345
vn -0.9898 -0.0000 -0.1423
vn -0.5128 0.0001 -0.8585
vn -0.3369 -0.2941 -0.8944
vn -0.7400 -0.6573 -0.1430
vn -0.2941 -0.3369 -0.8944
vn -0.6572 -0.7400 -0.1431
vn -0.0285 -0.5196 -0.8539
vn -0.0404 -0.9901 -0.1348
vn 0.5196 0.0285 -0.8540
vn 0.9901 0.0404 -0.1347
vn -0.9901 0.0404 -0.1343
vn -0.5196 0.0285 -0.8540
vn 0.3369 0.2941 -0.8944
vn 0.7400 0.6572 -0.1430
vn 0.2941 0.3369 -0.8944
vn 0.6572 0.7400 -0.1430
vn 0.0285 0.5196 -0.8539
vn 0.0404 0.9901 -0.1348
vn -0.0000 0.5128 -0.8585
vn -0.0000 0.9898 -0.1427
vn -0.7400 0.6572 -0.1431
vn -0.3369 0.2941 -0.8944
vn -0.6572 0.7400 -0.1431
vn -0.2941 0.3369 -0.8944
vn -0.0404 0.9900 -0.1348
vn -0.0285 0.5196 -0.8540
vn 0.3063 -0.2643 -0.9145
vn 0.4673 -0.0112 -0.8840
vn 0.0112 -0.4673 -0.8840
vn 0.2643 -0.3063 -0.9145
vn -0.4673 -0.0112 -0.8840
vn -0.3063 -0.2643 -0.9145
vn -0.2643 -0.3063 -0.9145
vn -0.0112 -0.4673 -0.8840
vn -0.0000 -0.4735 -0.8808
vn 0.4735 -0.0000 -0.8808
vn -0.4735 -0.0000 -0.8808
vn 0.3063 0.2643 -0.9145
vn 0.4673 0.0112 -0.8840
vn 0.0112 0.4673 -0.8840
vn 0.2643 0.3063 -0.9145
vn -0.4673 0.0112 -0.8840
vn -0.3064 0.2643 -0.9145
vn -0.2643 0.3063 -0.9145
vn -0.0112 0.4672 -0.8841
vn -0.0000 0.4735 -0.8808
vn -0.0291 -0.9680 0.2491
vn -0.6350 -0.7150 0.2925
vn 0.9679 -0.0291 0.2497
vn 0.7150 -0.6351 0.2923
vn -0.7150 -0.6350 0.2925
vn -0.9679 -0.0291 0.2497
vn 0.6351 -0.7150 0.2922
vn 0.0291 -0.9680 0.2491
vn -0.0000 -0.9696 0.2447
vn 0.9697 -0.0000 0.2443
vn -0.9696 -0.0000 0.2447
vn -0.6351 0.7150 0.2922
vn -0.0291 0.9680 0.2491
vn 0.7150 0.6350 0.2923
vn 0.9680 0.0291 0.2492
vn -0.9677 0.0291 0.2503
vn -0.7150 0.6350 0.2923
vn 0.0291 0.9680 0.2492
vn 0.6351 0.7150 0.2922
vn -0.0000 0.9696 0.2447
vt 0.396533 0.500002
vt 0.355198 0.500002
vt 0.093991 0.236058
vt 0.106146 0.203649
vt 0.499998 0.500002
vt 0.499998 0.396525
vt 0.499998 0.355197
vt 0.203636 0.106152
vt 0.236051 0.094008
vt 0.763947 0.094008
vt 0.796361 0.106152
vt 0.806196 0.036147
vt 0.835953 0.047390
vt 0.906006 0.236058
vt 0.893852 0.203649
vt 0.952607 0.164050
vt 0.963855 0.193803
vt 0.644804 0.500002
vt 0.603475 0.500002
vt 0.164042 0.047390
vt 0.193802 0.036147
vt 0.036144 0.193803
vt 0.047391 0.164050
vt 0.596008 0.500002
vt 0.499998 0.403994
vt 0.640758 0.500002
vt 0.894648 0.243356
vt 0.882811 0.211899
vt 0.788102 0.117190
vt 0.756644 0.105353
vt 0.499998 0.359245
vt 0.243354 0.105353
vt 0.211895 0.117190
vt 0.403994 0.500002
vt 0.359240 0.500002
vt 0.117187 0.211899
vt 0.105350 0.243356
vt 0.499998 0.094008
vt 0.906006 0.500002
vt 0.093991 0.500002
vt 0.894648 0.500002
vt 0.499998 0.105353
vt 0.105350 0.500002
vt 0.499998 0.036147
vt 0.963855 0.500002
vt 0.036144 0.500002
vt 0.106146 0.796355
vt 0.093991 0.763946
vt 0.499998 0.603479
vt 0.499998 0.644807
vt 0.236051 0.905995
vt 0.203636 0.893852
vt 0.796361 0.893852
vt 0.763947 0.905995
vt 0.835953 0.952614
vt 0.806196 0.963857
vt 0.906006 0.763946
vt 0.963855 0.806200
vt 0.952607 0.835954
vt 0.893852 0.796355
vt 0.193802 0.963857
vt 0.164042 0.952614
vt 0.047391 0.835954
vt 0.036144 0.806200
vt 0.499998 0.596010
vt 0.882811 0.788105
vt 0.894648 0.756648
vt 0.788102 0.882814
vt 0.499998 0.640759
vt 0.756644 0.894651
vt 0.211895 0.882814
vt 0.243354 0.894651
vt 0.105350 0.756648
vt 0.117187 0.788105
vt 0.499998 0.905995
vt 0.499998 0.894651
vt 0.499998 0.963857
vt 0.173379 0.016046
vt 0.169610 0.003144
vt 0.499998 0.003103
vt 0.499998 0.015985
vt 0.147488 0.026431
vt 0.140029 0.015347
vt 0.026428 0.147494
vt 0.015345 0.140035
vt 0.983957 0.173382
vt 0.996855 0.169614
vt 0.996899 0.500002
vt 0.984016 0.500002
vt 0.973570 0.147494
vt 0.984651 0.140035
vt 0.852509 0.026431
vt 0.859966 0.015347
vt 0.003143 0.169614
vt 0.016040 0.173382
vt 0.015981 0.500002
vt 0.003103 0.500002
vt 0.826619 0.016046
vt 0.830387 0.003144
vt 0.996855 0.830390
vt 0.983957 0.826622
vt 0.016040 0.826622
vt 0.003143 0.830390
vt 0.169610 0.996860
vt 0.173379 0.983958
vt 0.499998 0.984019
vt 0.499998 0.996900
vt 0.140029 0.984657
vt 0.147488 0.973573
vt 0.015345 0.859969
vt 0.026428 0.852509
vt 0.984651 0.859969
vt 0.973570 0.852509
vt 0.859966 0.984657
vt 0.852509 0.973573
vt 0.830387 0.996860
vt 0.826619 0.983958
vt 0.983193 0.141085
vt 0.985953 0.139128
vt 0.860871 0.014048
vt 0.858914 0.016809
vt 0.995303 0.170781
vt 0.998108 0.168736
vt 0.994953 0.500002
vt 0.998166 0.500002
vt 0.829220 0.004698
vt 0.831265 0.001894
vt 0.499998 0.001834
vt 0.499998 0.005049
vt 0.004695 0.170781
vt 0.001890 0.168736
vt 0.001829 0.500002
vt 0.005045 0.500002
vt 0.016804 0.141085
vt 0.014045 0.139128
vt 0.141082 0.016809
vt 0.139125 0.014048
vt 0.170775 0.004698
vt 0.168733 0.001894
vt 0.995303 0.829223
vt 0.998108 0.831267
vt 0.001890 0.831267
vt 0.004695 0.829223
vt 0.983193 0.858918
vt 0.985953 0.860876
vt 0.858914 0.983195
vt 0.860871 0.985956
vt 0.829220 0.995306
vt 0.831265 0.998110
vt 0.499998 0.994955
vt 0.499998 0.998171
vt 0.014045 0.860876
vt 0.016804 0.858918
vt 0.139125 0.985956
vt 0.141082 0.983195
vt 0.168733 0.998110
vt 0.170775 0.995306
s 1
usemtl M_Plate_30_0
f 12/1/1 13/2/1 25/3/1 24/4/1
f 8/5/1 12/1/1 15/6/1
f 14/7/1 15/6/1 23/8/1 22/9/1
f 15/6/1 14/7/1 17/10/1 16/11/1
f 16/11/2 17/10/3 47/12/4 46/13/5
f 18/14/6 19/15/7 43/16/8 42/17/9
f 19/15/1 18/14/1 21/18/1 20/19/1
f 22/9/10 23/8/11 41/20/12 40/21/13
f 24/4/14 25/3/15 45/22/16 44/23/17
f 26/24/18 32/25/18 5/5/18
f 26/24/18 27/26/18 29/27/18 28/28/18
f 31/29/18 30/30/18 33/31/18 32/25/18
f 32/25/18 33/31/18 39/32/18 38/33/18
f 32/25/18 34/34/18 5/5/18
f 35/35/18 34/34/18 37/36/18 36/37/18
f 15/6/1 16/11/1 19/15/1 20/19/1
f 14/7/1 22/9/1 1/38/1
f 1/38/1 17/10/1 14/7/1
f 21/18/1 18/14/1 7/39/1
f 25/3/1 13/2/1 3/40/1
f 24/4/1 23/8/1 15/6/1 12/1/1
f 29/27/18 27/26/18 6/41/18
f 2/42/18 33/31/18 30/30/18
f 37/36/18 34/34/18 32/25/18 38/33/18
f 4/43/18 35/35/18 36/37/18
f 31/29/18 32/25/18 26/24/18 28/28/18
f 39/32/18 33/31/18 2/42/18
f 1/38/19 22/9/10 40/21/13 9/44/19
f 7/39/20 18/14/6 42/17/9 10/45/20
f 25/3/15 3/40/21 11/46/21 45/22/16
f 17/10/3 1/38/19 9/44/19 47/12/4
f 23/8/11 24/4/14 44/23/17 41/20/12
f 19/15/7 16/11/2 46/13/5 43/16/8
f 8/5/1 15/6/1 20/19/1
f 12/1/1 59/47/1 60/48/1 13/2/1
f 8/5/1 52/49/1 12/1/1
f 51/50/1 57/51/1 58/52/1 52/49/1
f 52/49/1 53/53/1 54/54/1 51/50/1
f 53/53/22 77/55/23 78/56/24 54/54/25
f 55/57/26 73/58/27 74/59/28 56/60/29
f 56/60/1 20/19/1 21/18/1 55/57/1
f 57/51/30 71/61/31 72/62/32 58/52/33
f 59/47/34 75/63/35 76/64/36 60/48/37
f 26/24/18 5/5/18 65/65/18
f 26/24/18 61/66/18 62/67/18 27/26/18
f 64/68/18 65/65/18 66/69/18 63/70/18
f 65/65/18 69/71/18 70/72/18 66/69/18
f 65/65/18 5/5/18 34/34/18
f 35/35/18 67/73/18 68/74/18 34/34/18
f 52/49/1 20/19/1 56/60/1 53/53/1
f 51/50/1 48/75/1 57/51/1
f 48/75/1 51/50/1 54/54/1
f 21/18/1 7/39/1 55/57/1
f 60/48/1 3/40/1 13/2/1
f 59/47/1 12/1/1 52/49/1 58/52/1
f 62/67/18 6/41/18 27/26/18
f 49/76/18 63/70/18 66/69/18
f 68/74/18 69/71/18 65/65/18 34/34/18
f 4/43/18 67/73/18 35/35/18
f 64/68/18 61/66/18 26/24/18 65/65/18
f 70/72/18 49/76/18 66/69/18
f 48/75/38 50/77/38 71/61/31 57/51/30
f 7/39/20 10/45/20 73/58/27 55/57/26
f 60/48/37 76/64/36 11/46/21 3/40/21
f 54/54/25 78/56/24 50/77/38 48/75/38
f 58/52/33 72/62/32 75/63/35 59/47/34
f 56/60/29 74/59/28 77/55/23 53/53/22
f 8/5/1 20/19/1 52/49/1
f 79/78/39 80/79/40 96/80/41 95/81/42
f 80/79/40 79/78/39 82/82/43 81/83/44
f 81/83/44 82/82/43 89/84/45 90/85/46
f 83/86/47 84/87/48 98/88/49 97/89/50
f 84/87/48 83/86/47 86/90/51 85/91/52
f 85/91/52 86/90/51 91/92/53 92/93/54
f 87/94/55 88/95/56 100/96/57 99/97/58
f 88/95/56 87/94/55 90/85/46 89/84/45
f 92/93/54 91/92/53 94/98/59 93/99/60
f 93/99/60 94/98/59 95/81/42 96/80/41
f 97/89/50 98/88/49 105/100/61 106/101/62
f 99/97/58 100/96/57 109/102/63 110/103/64
f 101/104/65 102/105/66 118/106/67 117/107/68
f 102/105/66 101/104/65 104/108/69 103/109/70
f 103/109/70 104/108/69 111/110/71 112/111/72
f 106/101/62 105/100/61 108/112/73 107/113/74
f 107/113/74 108/112/73 113/114/75 114/115/76
f 110/103/64 109/102/63 112/111/72 111/110/71
f 114/115/76 113/114/75 116/116/77 115/117/78
f 115/117/78 116/116/77 117/107/68 118/106/67
f 40/21/1 41/20/1 82/82/43 79/78/39
f 42/17/1 43/16/1 86/90/51 83/86/47
f 44/23/1 45/22/1 88/95/56 89/84/45
f 46/13/1 47/12/1 94/98/59 91/92/53
f 100/96/57 88/95/56 45/22/1 11/46/1
f 42/17/1 83/86/47 97/89/50 10/45/1
f 91/92/53 86/90/51 43/16/1 46/13/1
f 9/44/1 95/81/42 94/98/59 47/12/1
f 40/21/1 79/78/39 95/81/42 9/44/1
f 89/84/45 82/82/43 41/20/1 44/23/1
f 71/61/1 102/105/66 103/109/70 72/62/1
f 73/58/1 106/101/62 107/113/74 74/59/1
f 75/63/1 112/111/72 109/102/63 76/64/1
f 77/55/1 114/115/76 115/117/78 78/56/1
f 100/96/57 11/46/1 76/64/1 109/102/63
f 73/58/1 10/45/1 97/89/50 106/101/62
f 114/115/76 77/55/1 74/59/1 107/113/74
f 50/77/1 78/56/1 115/117/78 118/106/67
f 71/61/1 50/77/1 118/106/67 102/105/66
f 112/111/72 75/63/1 72/62/1 103/109/70
f 119/118/79 120/119/80 126/120/81 125/121/82
f 120/119/80 119/118/79 121/122/83 122/123/84
f 122/123/84 121/122/83 137/124/85 138/125/86
f 123/126/87 124/127/88 136/128/89 135/129/90
f 124/127/88 123/126/87 125/121/82 126/120/81
f 127/130/91 128/131/92 140/132/93 139/133/94
f 128/131/92 127/130/91 129/134/95 130/135/96
f 130/135/96 129/134/95 131/136/97 132/137/98
f 132/137/98 131/136/97 133/138/99 134/139/100
f 134/139/100 133/138/99 135/129/90 136/128/89
f 138/125/86 137/124/85 143/140/101 144/141/102
f 139/133/94 140/132/93 150/142/103 149/143/104
f 141/144/105 142/145/106 144/141/102 143/140/101
f 142/145/106 141/144/105 147/146/107 148/147/108
f 145/148/109 146/149/110 148/147/108 147/146/107
f 146/149/110 145/148/109 157/150/111 158/151/112
f 149/143/104 150/142/103 152/152/113 151/153/114
f 151/153/114 152/152/113 154/154/115 153/155/116
f 153/155/116 154/154/115 156/156/117 155/157/118
f 155/157/118 156/156/117 158/151/112 157/150/111
f 28/28/119 29/27/120 121/122/83 119/118/79
f 30/30/121 31/29/122 125/121/82 123/126/87
f 36/37/123 37/36/124 129/134/95 127/130/91
f 38/33/125 39/32/126 133/138/99 131/136/97
f 39/32/126 2/42/127 135/129/90 133/138/99
f 29/27/120 6/41/128 137/124/85 121/122/83
f 4/43/129 36/37/123 127/130/91 139/133/94
f 2/42/127 30/30/121 123/126/87 135/129/90
f 37/36/124 38/33/125 131/136/97 129/134/95
f 31/29/122 28/28/119 119/118/79 125/121/82
f 61/66/130 141/144/105 143/140/101 62/67/131
f 63/70/132 145/148/109 147/146/107 64/68/133
f 67/73/134 149/143/104 151/153/114 68/74/135
f 69/71/136 153/155/116 155/157/118 70/72/137
f 70/72/137 155/157/118 157/150/111 49/76/138
f 62/67/131 143/140/101 137/124/85 6/41/128
f 4/43/129 139/133/94 149/143/104 67/73/134
f 49/76/138 157/150/111 145/148/109 63/70/132
f 68/74/135 151/153/114 153/155/116 69/71/136
f 64/68/133 147/146/107 141/144/105 61/66/130
f 132/137/98 134/139/100 80/79/139 81/83/140
f 120/119/80 122/123/84 84/87/141 85/91/142
f 128/131/92 130/135/96 90/85/143 87/94/144
f 124/127/88 126/120/81 92/93/145 93/99/146
f 80/79/139 134/139/100 136/128/89 96/80/147
f 84/87/141 122/123/84 138/125/86 98/88/148
f 140/132/93 128/131/92 87/94/144 99/97/149
f 96/80/147 136/128/89 124/127/88 93/99/146
f 130/135/96 132/137/98 81/83/140 90/85/143
f 126/120/81 120/119/80 85/91/142 92/93/145
f 154/154/115 104/108/150 101/104/151 156/156/117
f 142/145/106 108/112/152 105/100/153 144/141/102
f 150/142/103 110/103/154 111/110/155 152/152/113
f 146/149/110 116/116/156 113/114/157 148/147/108
f 101/104/151 117/107/158 158/151/112 156/156/117
f 105/100/153 98/88/148 138/125/86 144/141/102
f 140/132/93 99/97/149 110/103/154 150/142/103
f 117/107/158 116/116/156 146/149/110 158/151/112
f 152/152/113 111/110/155 104/108/150 154/154/115
f 148/147/108 113/114/157 108/112/152 142/145/106
