# Blender 4.1.1
# www.blender.org
mtllib AlarmClockButton_4_AlarmClockButton_4_1_GeomSubset_0.mtl
o AlarmClockButton_4_AlarmClockButton_4_1_GeomSubset_0
v 0.000500 0.002847 -0.341829
v -0.000500 0.002847 -0.341829
v 0.000500 0.003846 -0.341829
v -0.000500 0.003846 -0.341829
v 0.000500 0.002847 -0.341829
v -0.000500 0.002847 -0.341829
v 0.000500 0.003846 -0.341829
v -0.000500 0.003846 -0.341829
v 0.000500 0.002847 -0.341829
v -0.000500 0.002847 -0.341829
v 0.000500 0.003846 -0.341829
v -0.000500 0.003846 -0.341829
v 0.000500 0.002847 -0.341829
v -0.000500 0.002847 -0.341829
v 0.000500 0.003846 -0.341829
v -0.000500 0.003846 -0.341829
v 0.000500 0.002847 -0.341829
v -0.000500 0.002847 -0.341829
v 0.000500 0.003846 -0.341829
v -0.000500 0.003846 -0.341829
v 0.033857 -0.019082 0.082969
v 0.032164 -0.020774 0.082969
v 0.032164 -0.019082 0.085050
v -0.032164 -0.019082 0.085050
v -0.032164 -0.020774 0.082969
v -0.033857 -0.019082 0.082969
v 0.033857 0.001466 0.082969
v 0.032164 0.001466 0.085050
v 0.032164 0.003158 0.082969
v -0.032164 0.003158 0.082969
v -0.032164 0.001466 0.085050
v -0.033857 0.001466 0.082969
v 0.032164 -0.020774 0.071647
v 0.033857 -0.019082 0.071647
v -0.033857 -0.019082 0.071647
v -0.032164 -0.020774 0.071647
v 0.033857 0.001466 0.071647
v 0.032164 0.003158 0.071647
v -0.032164 0.003158 0.071647
v -0.033857 0.001466 0.071647
v 0.021443 0.006351 0.071647
v 0.021443 0.006351 0.086580
v 0.021443 0.004206 0.088661
v 0.021443 -0.021822 0.088661
v 0.021443 -0.023966 0.086580
v 0.021443 -0.023966 0.071647
v 0.010721 0.008207 0.071647
v 0.010721 0.008207 0.088565
v 0.010721 0.005800 0.090647
v 0.010721 -0.023416 0.090647
v 0.010721 -0.025824 0.088565
v 0.010721 -0.025824 0.071647
v 0.000000 0.008967 0.071647
v 0.000000 0.008967 0.089648
v 0.000000 0.006453 0.091729
v 0.000000 -0.024069 0.091729
v 0.000000 -0.026583 0.089648
v 0.000000 -0.026583 0.071647
v -0.010721 0.008207 0.071647
v -0.010721 0.008207 0.088565
v -0.010721 0.005800 0.090647
v -0.010721 -0.023416 0.090647
v -0.010721 -0.025824 0.088565
v -0.010721 -0.025824 0.071647
v -0.021443 0.006351 0.071647
v -0.021443 0.006351 0.086580
v -0.021443 0.004206 0.088661
v -0.021443 -0.021822 0.088661
v -0.021443 -0.023966 0.086580
v -0.021443 -0.023966 0.071647
vn -0.0000 -0.0000 -1.0000
vt -20.436859 -5.071916
vt -20.436859 -6.067932
vt -19.441111 -6.067932
vt -19.441111 -5.071916
s 1
usemtl M_AlarmClockButton_4_0
f 1/1/1 2/2/1 4/3/1 3/4/1
