# Blender 4.1.0
# www.blender.org
mtllib MeshWindowSlider_36X36_0_GeomSubset_2.mtl
o MeshWindowSlider_36X36_0_GeomSubset_2
v -0.457200 -0.040625 0.458245
v -0.457200 -0.040625 -0.456155
v 0.457200 -0.040624 -0.456155
v 0.426381 -0.040625 -0.424836
v -0.426381 -0.040625 -0.424836
v -0.426381 -0.040625 0.426927
v -0.426381 0.040625 0.426927
v -0.426381 0.040625 -0.424836
v 0.426381 0.040626 -0.424836
v 0.457200 0.040626 -0.456155
v -0.457200 0.040625 -0.456155
v -0.457200 0.040625 0.458245
v 0.426381 0.040626 0.426927
v 0.426381 -0.040625 0.426927
v 0.457200 0.040626 0.458245
v 0.457200 -0.040624 0.458245
v 0.426381 0.031626 0.426927
v 0.426381 -0.031624 0.426927
v -0.426381 -0.031625 0.426927
v -0.426381 0.031625 0.426927
v -0.426381 0.031625 -0.424836
v -0.426381 -0.031625 -0.424836
v 0.426381 -0.031624 -0.424836
v 0.426381 0.031626 -0.424836
v 0.426381 0.035123 0.426927
v 0.426381 -0.035122 0.426927
v -0.426381 -0.035123 0.426927
v -0.426381 0.035122 0.426927
v -0.426381 0.035122 -0.424836
v -0.426381 -0.035123 -0.424836
v 0.426381 -0.035122 -0.424836
v 0.426381 0.035123 -0.424836
v 0.390674 0.035123 0.390542
v 0.390674 -0.035122 0.390542
v -0.390674 -0.035123 0.390542
v -0.390674 0.035122 0.390542
v -0.390674 0.035122 -0.388451
v -0.390674 -0.035123 -0.388451
v 0.390674 -0.035122 -0.388451
v 0.390674 0.035123 -0.388451
v 0.390674 0.021625 0.390542
v 0.390674 -0.021624 0.390542
v -0.390674 -0.021625 0.390542
v -0.390674 0.021625 0.390542
v -0.390674 0.021625 -0.388451
v -0.390674 -0.021625 -0.388451
v 0.390674 -0.021624 -0.388451
v 0.390674 0.021625 -0.388451
v 0.426381 0.021625 0.426927
v 0.426381 -0.021624 0.426927
v -0.426381 -0.021625 0.426927
v -0.426381 0.021625 0.426927
v -0.426381 0.021625 -0.424836
v -0.426381 -0.021625 -0.424836
v 0.426381 -0.021624 -0.424836
v 0.426381 0.021625 -0.424836
v 0.425512 0.021585 -0.425358
v 0.000000 0.021584 -0.425358
v 0.425512 0.021585 0.427448
v 0.000000 0.021584 0.427448
v 0.425512 0.000000 0.427448
v 0.000000 0.000000 0.427448
v 0.425512 0.000000 -0.425358
v 0.000000 0.000000 -0.425358
v 0.365512 0.021585 -0.365358
v 0.060000 0.021584 -0.365358
v 0.060000 0.021584 0.367448
v 0.365512 0.021585 0.367448
v 0.365512 0.000000 0.367448
v 0.060000 0.000000 0.367448
v 0.060000 0.000000 -0.365358
v 0.365512 0.000000 -0.365358
v 0.000000 0.000000 -0.425358
v -0.424395 0.000000 -0.425358
v 0.000000 0.000000 0.427448
v -0.424395 0.000000 0.427448
v 0.000000 -0.021292 0.427448
v -0.424395 -0.021292 0.427448
v 0.000000 -0.021292 -0.425358
v -0.424395 -0.021292 -0.425358
v -0.060000 0.000000 -0.365358
v -0.364395 0.000000 -0.365358
v -0.364395 0.000000 0.367448
v -0.060000 0.000000 0.367448
v -0.060000 -0.021292 0.367448
v -0.364395 -0.021292 0.367448
v -0.364395 -0.021292 -0.365358
v -0.060000 -0.021292 -0.365358
v 0.365512 0.016752 -0.365358
v 0.060000 0.016752 -0.365358
v 0.060000 0.016752 0.367448
v 0.365512 0.016752 0.367448
v 0.365512 0.005302 0.367448
v 0.060000 0.005302 0.367448
v 0.060000 0.005302 -0.365358
v 0.365512 0.005302 -0.365358
v -0.060000 -0.015021 0.367448
v -0.364395 -0.015021 0.367448
v -0.364395 -0.015021 -0.365358
v -0.060000 -0.015021 -0.365358
v -0.060000 -0.005297 -0.365358
v -0.364395 -0.005297 -0.365358
v -0.364395 -0.005297 0.367448
v -0.060000 -0.005297 0.367448
v 0.000000 0.021427 -0.045446
v -0.007429 0.021427 -0.045446
v 0.000000 0.021427 0.048211
v -0.007429 0.021427 0.048211
v 0.000000 0.000965 0.054385
v -0.007429 0.000965 0.054385
v 0.000000 0.000965 -0.051620
v -0.007429 0.000965 -0.051620
v -0.007429 0.021427 0.029847
v 0.000000 0.021427 0.029847
v 0.000000 0.000965 0.035495
v -0.007429 0.000965 0.035495
v -0.007429 0.021427 -0.027082
v 0.000000 0.021427 -0.027082
v 0.000000 0.000965 -0.032730
v -0.007429 0.000965 -0.032730
v -0.013191 0.000965 -0.032730
v -0.013191 0.021427 -0.027082
v -0.013191 0.000965 0.035495
v -0.013191 0.021427 0.029847
v -0.019876 0.005384 0.010462
v -0.019876 0.001547 0.006624
v -0.019876 0.000142 0.001382
v -0.019876 0.001729 -0.003860
v -0.019876 0.010626 -0.003860
v -0.019876 0.019524 -0.003860
v -0.019876 0.021110 0.001382
v -0.019876 0.019706 0.006624
v -0.019876 0.015868 0.010462
v -0.019876 0.010626 0.011866
v -0.013191 0.005384 0.010462
v -0.013191 0.001547 0.006624
v -0.013191 0.000142 0.001382
v -0.013191 0.001729 -0.003860
v -0.013191 0.010626 -0.003860
v -0.013191 0.019524 -0.003860
v -0.013191 0.021110 0.001382
v -0.013191 0.019706 0.006624
v -0.013191 0.015868 0.010462
v -0.013191 0.010626 0.011866
v -0.019876 0.010626 0.001382
v -0.013191 0.010626 0.001382
v -0.020960 0.007221 -0.058794
v -0.016529 0.007221 -0.058794
v -0.020960 0.010626 -0.058794
v -0.016529 0.010626 -0.058794
v -0.020960 0.014032 -0.058794
v -0.016529 0.014032 -0.058794
v -0.019424 0.008327 -0.080907
v -0.016529 0.008327 -0.080907
v -0.019424 0.010626 -0.080907
v -0.016529 0.010626 -0.080907
v -0.019424 0.012926 -0.080907
v -0.016529 0.012926 -0.080907
v -0.006115 0.007221 -0.061227
v -0.006115 0.010626 -0.061227
v -0.006115 0.008327 -0.078369
v -0.006115 0.010626 -0.078369
v -0.006115 0.014032 -0.061227
v -0.006115 0.012926 -0.078369
v -0.016529 0.015225 -0.045328
v -0.020712 0.015225 -0.045328
v -0.020712 0.010626 -0.045328
v -0.020712 0.006027 -0.045328
v -0.016529 0.006027 -0.045328
v -0.016529 0.010626 -0.045328
vn -0.0000 1.0000 -0.0000
vn -0.0000 0.2889 0.9574
vn -0.0000 -1.0000 -0.0000
vn -0.0000 0.2889 -0.9574
vn -1.0000 -0.0000 -0.0000
vn -0.0000 0.2661 -0.9640
vn -0.0000 0.2661 0.9640
vn -0.0000 -0.5000 0.8660
vn -0.0000 -0.8660 0.5000
vn -0.0000 -0.9999 -0.0173
vn -0.0000 -0.9916 -0.1291
vn -0.0000 -0.9914 -0.1306
vn 0.1873 -0.0000 -0.9823
vn -0.0000 -0.0000 -1.0000
vn -0.0000 0.9916 -0.1291
vn -0.0000 0.9998 -0.0174
vn -0.0000 0.9914 -0.1306
vn -0.0000 0.8661 0.5000
vn -0.0000 0.5000 0.8661
vn -0.0000 -0.0000 1.0000
vn 1.0000 -0.0000 -0.0000
vn -0.9998 -0.0000 0.0202
vn -0.9998 -0.0000 0.0193
vn -0.9998 -0.0000 0.0198
vn -0.0000 -0.9950 -0.1000
vn -0.0000 -0.9950 -0.1001
vn 0.9968 -0.0000 -0.0802
vn 0.9976 -0.0000 -0.0686
vn 0.9977 -0.0000 -0.0673
vn -0.9998 -0.0000 0.0199
vn -0.0000 0.9950 -0.1002
vn -0.0000 0.9950 -0.1000
vn 0.0002 -0.9985 -0.0543
vn -0.0000 -0.9988 -0.0500
vn -0.9976 -0.0000 -0.0693
vn -0.0000 0.9988 -0.0500
vn 0.0002 0.9985 -0.0543
vn 0.2275 -0.0000 0.9738
vn 0.0003 -0.9984 -0.0563
vn 0.2368 -0.0000 -0.9716
vn 0.0003 0.9984 -0.0563
vn -0.0000 0.9961 -0.0882
vn -0.9998 -0.0000 0.0184
vn -0.0000 -0.9961 -0.0883
vt -28.517605 2.396632
vt -28.511801 2.396632
vt -28.511801 2.410980
vt -28.517605 2.410980
vt -29.154581 2.494648
vt -29.148647 2.494648
vt -29.148647 2.510989
vt -29.154581 2.510989
vt -28.447433 2.472576
vt -28.441629 2.472576
vt -28.441629 2.487334
vt -28.447433 2.487334
vt -29.212893 2.494649
vt -29.206963 2.494649
vt -29.206963 2.510988
vt -29.212893 2.510988
vt -29.002747 2.502251
vt -28.986759 2.497427
vt -28.986759 2.512185
vt -29.002747 2.516597
vt -28.517605 2.455456
vt -28.511801 2.455456
vt -28.511801 2.469804
vt -28.517605 2.469804
vt -28.447433 2.404517
vt -28.441629 2.404517
vt -28.441629 2.419275
vt -28.447433 2.419275
vt -29.087883 2.497427
vt -29.071898 2.501839
vt -29.071898 2.516597
vt -29.087883 2.511774
vt -28.917608 2.529733
vt -28.901623 2.525320
vt -28.901623 2.578621
vt -28.917608 2.574208
vt -29.268816 2.510959
vt -29.268816 2.494678
vt -29.264233 2.494678
vt -29.264233 2.510959
vt -28.437130 2.419275
vt -28.437130 2.472576
vt -29.323696 2.510958
vt -29.323696 2.494679
vt -29.319113 2.494679
vt -29.319113 2.510958
vt -28.507299 2.410980
vt -28.507299 2.455456
vt -29.374380 2.504925
vt -29.374380 2.508203
vt -29.380091 2.508203
vt -29.380091 2.504925
vt -28.665533 2.537522
vt -28.665533 2.541632
vt -28.670776 2.541632
vt -28.670776 2.537522
vt -28.665533 2.545742
vt -28.670776 2.545742
vt -29.490728 2.494540
vt -29.490728 2.492252
vt -29.488911 2.492252
vt -29.488911 2.494540
vt -29.487095 2.492252
vt -29.487095 2.494540
vt -28.739109 2.597934
vt -28.739109 2.602045
vt -28.744352 2.602045
vt -28.744352 2.597934
vt -28.739109 2.606155
vt -28.744352 2.606155
vt -29.374380 2.492692
vt -29.374380 2.495970
vt -29.380091 2.495970
vt -29.380091 2.492692
vt -29.374380 2.500448
vt -29.380091 2.500448
vt -28.583532 2.464458
vt -28.586531 2.467457
vt -28.590626 2.460362
vt -28.582434 2.460362
vt -28.590626 2.456266
vt -28.598820 2.460362
vt -28.597580 2.456266
vt -28.597719 2.464458
vt -28.594723 2.467457
vt -28.590626 2.468554
vt -28.823956 2.573905
vt -28.828054 2.581006
vt -28.831057 2.578005
vt -28.832155 2.573905
vt -28.830915 2.569807
vt -28.823956 2.569807
vt -28.815758 2.573905
vt -28.816856 2.578005
vt -28.819857 2.581006
vt -28.823956 2.582104
vt -28.583673 2.456266
vt -28.590626 2.423861
vt -28.587034 2.423861
vt -28.664877 2.578256
vt -28.668158 2.578256
vt -28.827551 2.537378
vt -28.823956 2.537378
vt -28.594219 2.423861
vt -28.741734 2.565418
vt -28.738451 2.565418
vt -28.820360 2.537378
vt -28.816998 2.569807
vt -28.668158 2.588814
vt -28.664682 2.588814
vt -28.665888 2.606153
vt -28.668158 2.606153
vt -28.587965 2.413339
vt -28.590626 2.413339
vt -28.590626 2.396059
vt -28.588829 2.396059
vt -29.434147 2.508152
vt -29.436808 2.508152
vt -29.435944 2.494760
vt -29.434147 2.494760
vt -28.593287 2.413339
vt -28.592422 2.396059
vt -28.738258 2.554858
vt -28.741734 2.554858
vt -28.741734 2.537519
vt -28.739464 2.537519
vt -29.431488 2.508152
vt -29.432350 2.494760
vt -29.543676 2.490411
vt -29.540979 2.490411
vt -29.540979 2.498654
vt -29.543676 2.498654
vt -28.676323 2.604162
vt -28.676323 2.590723
vt -29.488911 2.502771
vt -29.490728 2.502771
vt -29.546371 2.490411
vt -29.546371 2.498654
vt -29.487095 2.502771
vt -28.749901 2.552950
vt -28.749901 2.539509
vt -28.826618 2.526848
vt -28.823956 2.526848
vt -28.821293 2.526848
s 1
usemtl M_WindowSlider_36X36_2
f 105/1/1 106/2/1 117/3/1 118/4/1
f 107/5/2 108/6/2 110/7/2 109/8/2
f 119/9/3 120/10/3 112/11/3 111/12/3
f 111/13/4 112/14/4 106/15/4 105/16/4
f 106/17/5 112/18/5 120/19/5 117/20/5
f 114/21/1 113/22/1 108/23/1 107/24/1
f 109/25/3 110/26/3 116/27/3 115/28/3
f 113/29/5 116/30/5 110/31/5 108/32/5
f 118/4/1 117/3/1 113/22/1 114/21/1
f 115/28/3 116/27/3 120/10/3 119/9/3
f 122/33/5 121/34/5 123/35/5 124/36/5
f 117/37/6 120/38/6 121/39/6 122/40/6
f 120/10/3 116/27/3 123/41/3 121/42/3
f 116/43/7 113/44/7 124/45/7 123/46/7
f 113/22/1 117/3/1 122/47/1 124/48/1
f 125/49/8 126/50/9 136/51/9 135/52/8
f 126/53/9 127/54/10 137/55/10 136/56/9
f 127/54/10 128/57/11 138/58/12 137/55/10
f 154/59/13 153/60/14 155/61/14 156/62/13
f 156/62/13 155/61/14 157/63/14 158/64/13
f 130/65/15 131/66/16 141/67/16 140/68/17
f 131/66/16 132/69/18 142/70/18 141/67/16
f 132/71/18 133/72/19 143/73/19 142/74/18
f 133/72/19 134/75/20 144/76/20 143/73/19
f 134/75/20 125/49/8 135/52/8 144/76/20
f 126/77/5 125/78/5 145/79/5 127/80/5
f 129/81/5 145/79/5 131/82/5 130/83/5
f 132/84/5 131/82/5 145/79/5 133/85/5
f 134/86/5 133/85/5 145/79/5 125/78/5
f 146/87/21 135/88/21 136/89/21 137/90/21
f 146/87/21 137/90/21 138/91/21 139/92/21
f 146/87/21 141/93/21 142/94/21 143/95/21
f 146/87/21 143/95/21 144/96/21 135/88/21
f 128/97/22 129/81/22 167/98/23 168/99/24
f 138/58/12 128/57/11 168/100/25 169/101/26
f 139/92/27 138/91/27 169/102/28 170/103/29
f 129/81/22 130/83/22 166/104/30 167/98/23
f 130/65/15 140/68/17 165/105/31 166/106/32
f 165/107/28 140/108/27 139/92/27 170/103/29
f 146/87/21 139/92/21 140/108/21 141/93/21
f 129/81/5 128/97/5 127/80/5 145/79/5
f 148/109/33 147/110/34 153/111/34 154/112/33
f 147/113/35 149/114/35 155/115/35 153/116/35
f 160/117/21 159/118/21 161/119/21 162/120/21
f 149/114/35 151/121/35 157/122/35 155/115/35
f 151/123/36 152/124/37 158/125/37 157/126/36
f 163/127/21 160/117/21 162/120/21 164/128/21
f 150/129/38 148/130/38 159/131/38 160/132/38
f 148/109/33 154/112/33 161/133/39 159/134/39
f 154/59/13 156/62/13 162/135/40 161/136/40
f 152/137/38 150/129/38 160/132/38 163/138/38
f 156/62/13 158/64/13 164/139/40 162/135/40
f 158/125/37 152/124/37 163/140/41 164/141/41
f 166/106/32 165/105/31 152/124/42 151/123/42
f 149/114/43 167/98/23 166/104/30 151/121/43
f 147/113/43 168/99/24 167/98/23 149/114/43
f 169/101/26 168/100/25 147/110/44 148/109/44
f 148/142/21 150/143/21 170/103/29 169/102/28
f 150/143/21 152/144/21 165/107/28 170/103/29
