# Blender 4.1.0
# www.blender.org
mtllib MeshBook_9_0_GeomSubset_2.mtl
o MeshBook_9_0_GeomSubset_2
v 0.076634 -0.111848 -0.010628
v 0.076634 0.111848 -0.010628
v 0.076634 0.111848 -0.011152
v 0.076634 -0.111848 -0.011152
v -0.084995 0.111848 -0.009400
v -0.083172 0.111848 -0.010628
v -0.084059 0.111848 -0.011152
v -0.085717 0.111848 -0.009979
v -0.083172 -0.111848 -0.010628
v -0.084995 -0.111848 -0.009400
v -0.084059 -0.111848 -0.011152
v -0.085717 -0.111848 -0.009979
v -0.085998 -0.111848 -0.002481
v -0.086971 -0.111848 -0.002481
v -0.086971 0.111848 -0.002481
v -0.085998 0.111848 -0.002481
v -0.086680 -0.111848 -0.006230
v -0.086680 0.111848 -0.006230
v -0.085713 0.111848 -0.005941
v -0.085713 -0.111848 -0.005941
v -0.086825 -0.111848 -0.004356
v -0.086825 0.111848 -0.004356
v -0.085870 0.111848 -0.004211
v -0.085870 -0.111848 -0.004211
v -0.086180 -0.111848 -0.008104
v -0.086180 0.111848 -0.008104
v -0.085373 0.111848 -0.007670
v -0.085373 -0.111848 -0.007670
v -0.084710 0.111848 -0.002481
v 0.076634 0.111848 -0.002481
v 0.076634 -0.111848 -0.002481
v -0.084710 -0.111848 -0.002481
v -0.084403 0.111848 -0.006555
v 0.076634 0.111848 -0.006555
v 0.076634 -0.111848 -0.006555
v -0.084403 -0.111848 -0.006555
v -0.084710 -0.110626 -0.000432
v -0.085998 -0.111848 -0.002481
v -0.084710 0.110626 -0.000432
v -0.085998 0.111848 -0.002481
v 0.075613 -0.110626 -0.001962
v 0.075613 0.110626 -0.001962
v 0.076634 -0.111848 -0.010628
v 0.076634 0.111848 -0.010628
v -0.083172 0.111848 -0.010628
v -0.084995 0.111848 -0.009400
v -0.084995 -0.111848 -0.009400
v -0.083172 -0.111848 -0.010628
v -0.085713 0.111848 -0.005941
v -0.085713 -0.111848 -0.005941
v -0.028413 0.111848 -0.010628
v -0.029234 0.111848 -0.006555
v -0.029439 0.111848 -0.002481
v -0.029724 0.110626 0.005891
v -0.029724 -0.110626 0.005891
v -0.029439 -0.111848 -0.002481
v -0.029234 -0.111848 -0.006555
v -0.028413 -0.111848 -0.010628
v 0.021379 0.111848 -0.010628
v 0.020968 0.111848 -0.006555
v 0.020866 0.111848 -0.002481
v 0.020295 0.110626 0.003406
v 0.020295 -0.110626 0.003406
v 0.020866 -0.111848 -0.002481
v 0.020968 -0.111848 -0.006555
v 0.021379 -0.111848 -0.010628
v -0.014134 0.111848 -0.010628
v -0.014818 0.111848 -0.006555
v -0.014989 0.111848 -0.002481
v -0.015369 0.110626 0.005530
v -0.015369 -0.110626 0.005530
v -0.014989 -0.111848 -0.002481
v -0.014818 -0.111848 -0.006555
v -0.014134 -0.111848 -0.010628
v 0.003622 0.111848 -0.010628
v 0.003075 0.111848 -0.006555
v 0.002938 0.111848 -0.002481
v 0.002463 0.110626 0.004678
v 0.002463 -0.110626 0.004678
v 0.002938 -0.111848 -0.002481
v 0.003075 -0.111848 -0.006555
v 0.003622 -0.111848 -0.010628
v -0.071595 0.111848 -0.010628
v -0.072744 0.111848 -0.006555
v -0.073031 0.111848 -0.002481
v -0.073088 0.110626 0.003664
v -0.073088 -0.110626 0.003664
v -0.073031 -0.111848 -0.002481
v -0.072744 -0.111848 -0.006555
v -0.071595 -0.111848 -0.010628
v -0.061864 0.111848 -0.010628
v -0.062931 0.111848 -0.006555
v -0.063198 0.111848 -0.002481
v -0.063312 0.110626 0.005315
v -0.063312 -0.110626 0.005315
v -0.063198 -0.111848 -0.002481
v -0.062931 -0.111848 -0.006555
v -0.061864 -0.111848 -0.010628
v -0.051211 0.111848 -0.010628
v -0.052195 0.111848 -0.006555
v -0.052441 0.111848 -0.002481
v -0.052613 0.110626 0.005980
v -0.052613 -0.110626 0.005980
v -0.052441 -0.111848 -0.002481
v -0.052195 -0.111848 -0.006555
v -0.051211 -0.111848 -0.010628
v -0.040557 0.111848 -0.010628
v -0.041459 0.111848 -0.006555
v -0.041685 0.111848 -0.002481
v -0.041914 0.110626 0.006020
v -0.041914 -0.110626 0.006020
v -0.041685 -0.111848 -0.002481
v -0.041459 -0.111848 -0.006555
v -0.040557 -0.111848 -0.010628
v 0.039117 0.111848 -0.010628
v 0.038912 0.111848 -0.006555
v 0.038861 0.111848 -0.002481
v 0.038148 0.110626 0.002019
v 0.038148 -0.110626 0.002019
v 0.038861 -0.111848 -0.002481
v 0.038912 -0.111848 -0.006555
v 0.039117 -0.111848 -0.010628
v 0.056882 0.111848 -0.010628
v 0.056780 0.111848 -0.006555
v 0.056754 0.111848 -0.002481
v 0.055969 0.110626 0.000394
v 0.055969 -0.110626 0.000394
v 0.056754 -0.111848 -0.002481
v 0.056780 -0.111848 -0.006555
v 0.056882 -0.111848 -0.010628
v -0.085844 -0.110783 -0.001328
v -0.085844 0.110783 -0.001328
v -0.086290 -0.111680 -0.002156
v -0.086290 0.111680 -0.002156
v -0.086679 -0.111680 -0.002156
v -0.086679 0.111680 -0.002156
v -0.078905 0.111848 -0.010628
v -0.080095 0.111848 -0.006555
v -0.080392 0.111848 -0.002481
v -0.080421 0.110626 0.001675
v -0.080421 -0.110626 0.001675
v -0.080392 -0.111848 -0.002481
v -0.080095 -0.111848 -0.006555
v -0.078905 -0.111848 -0.010628
v -0.086521 -0.110857 -0.002080
v -0.086521 -0.111848 -0.002481
v -0.086521 0.110858 -0.002080
v -0.086521 0.111848 -0.002481
v 0.070920 0.111848 -0.010628
v 0.070893 0.111848 -0.006555
v 0.070887 0.111848 -0.002481
v 0.070049 0.110626 -0.001087
v 0.070049 -0.110626 -0.001087
v 0.070887 -0.111848 -0.002481
v 0.070893 -0.111848 -0.006555
v 0.070920 -0.111848 -0.010628
vn -1.0000 -0.0000 -0.0000
vn 0.1191 -0.0000 0.9929
vn 0.1554 -0.0000 0.9879
vn 0.0034 -0.0000 1.0000
vn 0.0182 -0.0000 0.9998
vn 0.0594 -0.0000 0.9982
vn 0.0743 -0.0000 0.9972
vn 0.0377 -0.0000 0.9993
vn -0.3325 -0.0000 0.9431
vn -0.2081 -0.0000 0.9781
vn -0.1125 -0.0000 0.9937
vn -0.0329 -0.0000 0.9995
vn 0.0841 -0.0000 0.9965
vn 0.0968 -0.0000 0.9953
vn -0.4863 -0.0000 0.8738
vn -0.6759 -0.0000 0.7370
vn -0.7432 -0.0000 0.6691
vt 2.833530 0.000338
vt 2.833530 0.249672
vt 2.992166 0.000338
vt 2.997803 0.000338
vt 2.997803 0.249672
vt 2.992166 0.249672
vt 2.878726 0.000338
vt 2.891077 0.000338
vt 2.891077 0.249672
vt 2.878726 0.249672
vt 2.923688 0.000338
vt 2.941756 0.000338
vt 2.941756 0.249672
vt 2.923688 0.249672
vt 2.905621 0.000338
vt 2.905621 0.249672
vt 2.839712 0.000338
vt 2.847140 0.000338
vt 2.847140 0.249672
vt 2.839712 0.249672
vt 2.857046 0.000338
vt 2.857046 0.249672
vt 2.867886 0.000338
vt 2.867886 0.249672
vt 2.959843 0.000338
vt 2.959843 0.249672
vt 2.977900 0.000338
vt 2.977900 0.249672
vt 2.835365 0.000338
vt 2.835365 0.249672
vt 2.834217 0.249672
vt 2.834217 0.000338
s 1
usemtl M_Book_9_2
f 146/1/1 145/1/1 147/2/1 148/2/1
f 153/3/2 41/4/3 42/5/3 152/6/2
f 111/7/4 55/8/5 54/9/5 110/10/4
f 79/11/6 63/12/7 62/13/7 78/14/6
f 55/8/5 71/15/8 70/16/8 54/9/5
f 71/15/8 79/11/6 78/14/6 70/16/8
f 141/17/9 87/18/10 86/19/10 140/20/9
f 87/18/10 95/21/11 94/22/11 86/19/10
f 95/21/11 103/23/12 102/24/12 94/22/11
f 103/23/12 111/7/4 110/10/4 102/24/12
f 63/12/7 119/25/13 118/26/13 62/13/7
f 119/25/13 127/27/14 126/28/14 118/26/13
f 37/29/15 39/30/15 132/31/16 131/32/16
f 37/29/15 141/17/9 140/20/9 39/30/15
f 131/32/16 132/31/16 147/2/17 145/1/17
f 127/27/14 153/3/2 152/6/2 126/28/14
