# Blender 4.1.1
# www.blender.org
mtllib MeshPsDesk_313_2_8.mtl
o PsDesk_313_2
v 0.898144 -0.294306 0.085093
v 0.643371 0.215844 0.085248
v 0.897991 0.215844 0.085248
v 0.643214 -0.294305 0.085093
v 0.898144 -0.294306 0.261235
v 0.897991 0.215844 0.261080
v 0.643371 0.215844 0.261080
v 0.643214 -0.294305 0.261235
vn -0.0000 0.0003 -1.0000
vn -0.0000 0.0008 -1.0000
vn 1.0000 0.0008 -0.0000
vn -0.0000 1.0000 -0.0000
vn -0.0000 0.0003 1.0000
vn -0.0000 0.0006 1.0000
vn -1.0000 0.0006 -0.0000
vn -1.0000 0.0008 -0.0000
vt 0.098785 0.118067
vt -0.025090 -0.183767
vt 0.098785 -0.183767
vt -0.025090 0.118067
vt 0.118067 0.732761
vt -0.183767 0.618491
vt -0.183767 0.732761
vt 0.118067 0.618491
vt 0.974910 0.618491
vt 1.098785 0.732761
vt 1.098785 0.618491
vt 0.974910 0.732761
vt 0.974910 0.118067
vt 1.098785 -0.183767
vt 0.974910 -0.183767
vt 1.098785 0.118067
s 1
usemtl M_PsDesk_313_2_0
f 1/1/1 2/2/1 3/3/1
f 1/1/2 4/4/2 2/2/2
f 5/5/3 3/6/3 6/7/3
f 5/5/3 1/8/3 3/6/3
f 2/9/4 6/10/4 3/11/4
f 2/9/4 7/12/4 6/10/4
f 8/13/5 6/14/5 7/15/5
f 8/13/6 5/16/6 6/14/6
f 4/8/7 7/7/7 2/6/7
f 4/8/8 8/5/8 7/7/8
