# Blender 4.1.1
# www.blender.org
mtllib MeshDeskDrawer_313_1_4.mtl
o DeskDrawer_313_1
v -0.351288 -0.326081 0.234101
v -0.349807 -0.326081 0.233121
v -0.348325 -0.326081 0.234101
v -0.351901 -0.326081 0.236469
v -0.347712 -0.326081 0.236469
v -0.351288 -0.326081 0.238836
v -0.348325 -0.326081 0.238836
v -0.349807 -0.326081 0.239817
v -0.348325 -0.299722 0.234101
v -0.347712 -0.299722 0.236469
v -0.348325 -0.299722 0.238836
v -0.349807 -0.299722 0.239817
v -0.351288 -0.299722 0.238836
v -0.351901 -0.299722 0.236469
v -0.351288 -0.299722 0.234101
v -0.349807 -0.299722 0.233121
v -0.409786 -0.326081 0.234102
v -0.408304 -0.326081 0.233121
v -0.406824 -0.326081 0.234102
v -0.410399 -0.326081 0.236469
v -0.406211 -0.326081 0.236469
v -0.409786 -0.326081 0.238836
v -0.406824 -0.326081 0.238836
v -0.408304 -0.326081 0.239816
v -0.406824 -0.299722 0.234102
v -0.406211 -0.299722 0.236469
v -0.406824 -0.299722 0.238836
v -0.408305 -0.299722 0.239816
v -0.409786 -0.299722 0.238836
v -0.410398 -0.299722 0.236469
v -0.409786 -0.299722 0.234102
v -0.408305 -0.299722 0.233121
v -0.438158 -0.318848 0.236469
v -0.439424 -0.318848 0.236469
v -0.439424 -0.319785 0.239750
v -0.438158 -0.319785 0.239750
v -0.438158 -0.319785 0.233187
v -0.439424 -0.319785 0.233187
v -0.408992 -0.324290 0.233187
v -0.408992 -0.323353 0.236469
v -0.350150 -0.324290 0.233187
v -0.350150 -0.323353 0.236469
v -0.408992 -0.324290 0.239750
v -0.350150 -0.324290 0.239751
v -0.321009 -0.318848 0.236469
v -0.321009 -0.319785 0.239751
v -0.321009 -0.319785 0.233187
v -0.319043 -0.319785 0.233187
v -0.319043 -0.318848 0.236469
v -0.319043 -0.319785 0.239751
v -0.439424 -0.322050 0.241110
v -0.438158 -0.322050 0.241110
v -0.439424 -0.324315 0.239750
v -0.438158 -0.324315 0.239750
v -0.408992 -0.326556 0.241110
v -0.408992 -0.328820 0.239750
v -0.350150 -0.326556 0.241110
v -0.350150 -0.328821 0.239751
v -0.321009 -0.322050 0.241110
v -0.321009 -0.324316 0.239751
v -0.319043 -0.322050 0.241110
v -0.319043 -0.324316 0.239751
v -0.439424 -0.325254 0.236469
v -0.438158 -0.325254 0.236469
v -0.439424 -0.324315 0.233187
v -0.438158 -0.324315 0.233187
v -0.408992 -0.329759 0.236469
v -0.408992 -0.328820 0.233187
v -0.350150 -0.329759 0.236469
v -0.350150 -0.328820 0.233187
v -0.321009 -0.325254 0.236469
v -0.321009 -0.324316 0.233187
v -0.319043 -0.325254 0.236469
v -0.319043 -0.324316 0.233187
v -0.439424 -0.322050 0.231828
v -0.438158 -0.322050 0.231828
v -0.408992 -0.326556 0.231828
v -0.350150 -0.326556 0.231828
v -0.321009 -0.322050 0.231828
v -0.319043 -0.322050 0.231828
v -0.576676 -0.304231 0.082991
v -0.576676 -0.308724 0.082991
v -0.576676 -0.308724 0.263337
v -0.576676 -0.304231 0.263337
v -0.572567 -0.313644 0.082991
v -0.157637 -0.313645 0.082991
v -0.157637 -0.313645 0.263337
v -0.572567 -0.313644 0.263337
v -0.572566 -0.304231 0.267864
v -0.572567 -0.308724 0.267864
v -0.157637 -0.308725 0.267864
v -0.157637 -0.304232 0.267864
v -0.157637 -0.304232 0.078463
v -0.157637 -0.308725 0.078463
v -0.572567 -0.308724 0.078463
v -0.572566 -0.304231 0.078463
v -0.153528 -0.304232 0.263337
v -0.153528 -0.308725 0.263337
v -0.153528 -0.308725 0.082991
v -0.153528 -0.304232 0.082991
v -0.572566 -0.299310 0.263337
v -0.157637 -0.299313 0.263337
v -0.157637 -0.299313 0.082991
v -0.572566 -0.299310 0.082991
v -0.564213 -0.299311 0.254133
v -0.165992 -0.299313 0.254133
v -0.165992 -0.299313 0.092194
v -0.564213 -0.299310 0.092194
v -0.564212 0.078581 0.092195
v -0.564212 0.078581 0.254133
v -0.165990 0.078580 0.254133
v -0.165990 0.078580 0.092195
v -0.173065 0.070109 0.254133
v -0.173065 0.070109 0.100728
v -0.173066 -0.290842 0.100728
v -0.173066 -0.290842 0.254133
v -0.557137 -0.290841 0.254133
v -0.557136 0.070110 0.254133
v -0.557136 0.070110 0.100728
v -0.557137 -0.290841 0.100728
vn -0.5800 0.6840 -0.4423
vn 0.5800 0.6840 -0.4424
vn -0.0000 0.5524 -0.8336
vn 0.5801 0.6840 -0.4423
vn -0.5800 0.6840 -0.4424
vn -0.6745 0.7383 -0.0000
vn 0.6745 0.7383 -0.0000
vn -0.6745 0.7383 -0.0001
vn -0.5801 0.6840 0.4422
vn -0.5801 0.6840 0.4423
vn 0.5801 0.6840 0.4423
vn 0.5800 0.6840 0.4424
vn -0.5801 0.6841 0.4423
vn -0.0000 0.5523 0.8336
vn -0.7218 -0.6841 -0.1051
vn -0.8743 -0.0000 0.4854
vn -0.9896 -0.0000 -0.1441
vn -0.5896 -0.7383 0.3274
vn -0.5896 -0.7383 -0.3274
vn -0.9896 -0.0002 0.1439
vn -0.8742 -0.0000 -0.4855
vn -0.5896 -0.7383 -0.3275
vn -0.7218 -0.6841 0.1050
vn -0.9896 -0.0000 0.1439
vn -0.1809 -0.6841 -0.7066
vn -0.9207 -0.0000 -0.3902
vn -0.2480 -0.0000 -0.9688
vn -0.1807 -0.6841 -0.7066
vn -0.7675 -0.5523 -0.3254
vn -0.9207 -0.0001 -0.3903
vn 0.7675 -0.5523 -0.3254
vn 0.2478 -0.0000 -0.9688
vn 0.9207 -0.0000 -0.3904
vn 0.7675 -0.5524 -0.3252
vn 0.1809 -0.6841 -0.7066
vn 0.2480 -0.0000 -0.9688
vn 0.7218 -0.6841 0.1049
vn 0.8742 -0.0000 -0.4855
vn 0.9896 -0.0000 0.1439
vn 0.7218 -0.6841 0.1051
vn 0.5896 -0.7383 -0.3274
vn 0.5897 -0.7383 0.3274
vn 0.9896 -0.0000 -0.1441
vn 0.8743 -0.0000 0.4854
vn 0.5897 -0.7383 0.3275
vn 0.7218 -0.6840 -0.1051
vn -0.7673 -0.5524 0.3257
vn -0.2475 -0.0000 0.9689
vn -0.9205 -0.0000 0.3908
vn -0.7673 -0.5524 0.3256
vn -0.1806 -0.6841 0.7067
vn -0.2476 -0.0000 0.9689
vn 0.1806 -0.6840 0.7068
vn 0.7674 -0.5524 0.3256
vn 0.9206 -0.0001 0.3906
vn 0.1805 -0.6840 0.7068
vn 0.9205 -0.0000 0.3908
vn 0.2475 -0.0000 0.9689
vn -0.5801 0.6841 -0.4423
vn -0.0000 0.5523 -0.8336
vn -0.5801 0.6840 -0.4423
vn -0.5800 0.6840 0.4424
vn 0.5800 0.6840 0.4423
vn -0.0000 0.5524 0.8336
vn -0.9896 -0.0000 -0.1440
vn -0.9896 -0.0000 0.1441
vn -0.7218 -0.6841 0.1051
vn -0.9896 -0.0000 0.1440
vn -0.1806 -0.6841 -0.7067
vn -0.9205 -0.0000 -0.3907
vn -0.2476 -0.0000 -0.9689
vn -0.1810 -0.6840 -0.7066
vn -0.7676 -0.5524 -0.3251
vn -0.9208 -0.0001 -0.3901
vn 0.7674 -0.5523 -0.3256
vn 0.2476 -0.0000 -0.9689
vn 0.9205 0.0001 -0.3906
vn 0.7672 -0.5524 -0.3261
vn 0.1802 -0.6841 -0.7068
vn 0.2471 -0.0000 -0.9690
vn 0.7217 -0.6841 0.1056
vn 0.8746 0.0001 -0.4848
vn 0.9895 -0.0000 0.1448
vn 0.7217 -0.6842 0.1051
vn 0.5895 -0.7384 -0.3274
vn 0.8743 -0.0001 -0.4855
vn 0.5898 -0.7384 0.3270
vn 0.9895 -0.0000 -0.1448
vn 0.8747 -0.0001 0.4848
vn 0.5896 -0.7383 0.3275
vn 0.7218 -0.6841 -0.1051
vn 0.9896 -0.0000 -0.1440
vn -0.7675 -0.5523 0.3253
vn -0.2479 -0.0000 0.9688
vn -0.9207 -0.0001 0.3903
vn -0.7677 -0.5523 0.3249
vn -0.1813 -0.6841 0.7065
vn -0.2485 -0.0000 0.9686
vn 0.1804 -0.6840 0.7068
vn 0.7674 -0.5523 0.3258
vn 0.1807 -0.6841 0.7066
vn 0.9207 -0.0000 0.3903
vn 0.2479 -0.0000 0.9688
vn 0.0752 -0.8466 -0.5268
vn -0.5453 -0.8334 0.0906
vn -0.5769 -0.6935 -0.4316
vn 0.0751 -0.8467 -0.5267
vn 0.0603 -0.9935 0.0962
vn -0.5454 -0.8333 0.0908
vn 0.0603 -0.9936 -0.0960
vn 0.0752 -0.8466 0.5268
vn -0.5769 -0.6935 0.4315
vn 0.0603 -0.9935 -0.0962
vn -0.5769 -0.6936 0.4315
vn -0.5453 -0.8333 -0.0908
vn -0.2096 -0.9694 -0.1280
vn -0.2067 -0.8282 0.5209
vn -0.2122 -0.9718 -0.1029
vn -0.2096 -0.9695 -0.1274
vn -0.2045 -0.8284 0.5216
vn -0.2067 -0.8278 0.5215
vn -0.2044 -0.8284 -0.5216
vn -0.2122 -0.9719 0.1023
vn -0.2067 -0.8278 -0.5215
vn -0.0602 -0.9907 -0.1219
vn 0.0775 -0.8468 0.5262
vn 0.0601 -0.9907 -0.1220
vn -0.0602 -0.9908 -0.1213
vn -0.0776 -0.8465 0.5267
vn 0.0775 -0.8465 0.5267
vn -0.0776 -0.8465 -0.5268
vn 0.0601 -0.9908 0.1213
vn 0.0775 -0.8465 -0.5268
vn -0.2045 -0.8287 -0.5211
vn -0.2096 -0.9694 0.1280
vn -0.2122 -0.9718 0.1028
vn -0.0775 -0.8468 -0.5262
vn -0.0602 -0.9907 0.1220
vn 0.0601 -0.9907 0.1219
vn 0.2069 -0.8277 -0.5217
vn 0.2098 -0.9694 0.1272
vn 0.2046 -0.8282 -0.5218
vn 0.2069 -0.8280 -0.5212
vn 0.2124 -0.9718 0.1026
vn 0.2098 -0.9694 0.1278
vn 0.2125 -0.9718 -0.1026
vn 0.2046 -0.8285 0.5212
vn 0.2098 -0.9694 -0.1278
vn 0.2124 -0.9718 -0.1020
vn 0.2069 -0.8277 0.5217
vn 0.2046 -0.8282 0.5218
vn 0.5453 -0.8332 -0.0912
vn -0.0752 -0.8470 0.5263
vn -0.0603 -0.9935 -0.0967
vn 0.5451 -0.8335 -0.0901
vn 0.5770 -0.6931 0.4320
vn -0.0753 -0.8464 0.5273
vn 0.5770 -0.6932 -0.4320
vn -0.0603 -0.9936 0.0954
vn -0.0753 -0.8463 -0.5273
vn 0.5768 -0.6938 -0.4312
vn 0.5454 -0.8332 0.0912
vn -0.0604 -0.9935 0.0967
vn 0.0602 -0.1626 -0.9849
vn -0.4936 -0.7676 -0.4088
vn -0.5455 -0.1463 -0.8253
vn 0.0603 -0.1619 -0.9850
vn 0.0046 -0.8678 -0.4968
vn -0.4933 -0.7674 -0.4095
vn 0.0046 0.8959 -0.4443
vn -0.5454 0.1458 -0.8254
vn -0.4933 0.7675 -0.4094
vn 0.0045 0.8962 -0.4436
vn -0.0602 0.1877 -0.9804
vn -0.5454 0.1463 -0.8253
vn 0.1333 0.8629 -0.4874
vn 0.0887 0.1865 -0.9784
vn 0.1376 0.8904 -0.4340
vn 0.1333 0.8630 -0.4873
vn 0.0871 0.1617 -0.9830
vn 0.0887 0.1866 -0.9784
vn 0.0046 0.8682 -0.4962
vn -0.0603 0.1626 -0.9848
vn -0.0045 0.8682 -0.4962
vn 0.0046 0.8681 -0.4964
vn 0.0604 0.1625 -0.9849
vn -0.0603 0.1625 -0.9849
vn -0.0602 -0.1874 -0.9804
vn 0.0046 -0.8960 -0.4439
vn -0.0046 -0.8960 -0.4440
vn -0.0602 -0.1870 -0.9805
vn -0.0046 -0.8958 -0.4444
vn 0.0601 -0.1869 -0.9805
vn -0.0887 -0.1865 -0.9785
vn -0.1333 -0.8629 -0.4874
vn -0.0871 -0.1616 -0.9830
vn -0.0886 -0.1859 -0.9786
vn -0.1375 -0.8901 -0.4346
vn -0.1332 -0.8626 -0.4879
vn 0.0871 -0.1609 -0.9831
vn 0.1376 -0.8901 -0.4346
vn 0.0887 -0.1859 -0.9786
vn 0.0873 -0.1620 -0.9829
vn 0.1335 -0.8631 -0.4870
vn 0.1377 -0.8905 -0.4336
vn -0.1377 0.8902 -0.4343
vn -0.0871 0.1611 -0.9831
vn -0.1334 0.8627 -0.4879
vn -0.1375 0.8901 -0.4346
vn -0.0886 0.1859 -0.9786
vn -0.0871 0.1609 -0.9831
vn 0.4934 0.7675 -0.4094
vn 0.0602 0.1871 -0.9805
vn -0.0046 0.8959 -0.4442
vn 0.5453 0.1458 -0.8255
vn 0.5453 -0.1464 -0.8254
vn -0.0046 -0.8682 -0.4962
vn -0.0604 -0.1627 -0.9848
vn 0.5453 -0.1463 -0.8254
vn 0.4934 -0.7677 -0.4089
vn -0.0046 -0.8682 -0.4963
vn -0.0602 0.9908 0.1211
vn -0.5768 0.6934 -0.4319
vn -0.5454 0.8333 0.0904
vn -0.0601 0.9909 0.1208
vn -0.0775 0.8462 -0.5272
vn -0.5769 0.6933 -0.4319
vn -0.0775 0.8462 0.5272
vn -0.5453 0.8334 -0.0901
vn -0.5769 0.6933 0.4319
vn -0.0775 0.8464 0.5269
vn -0.0601 0.9908 -0.1211
vn -0.5454 0.8333 -0.0904
vn 0.2066 0.8274 0.5221
vn 0.2096 0.9696 -0.1266
vn 0.2044 0.8279 0.5223
vn 0.2067 0.8277 0.5217
vn 0.2123 0.9719 -0.1020
vn 0.2097 0.9695 -0.1271
vn 0.0752 0.8462 0.5276
vn -0.0603 0.9936 -0.0952
vn -0.0752 0.8462 0.5276
vn 0.0752 0.8465 0.5270
vn 0.0604 0.9936 -0.0958
vn -0.0604 0.9936 -0.0958
vn 0.0603 0.9935 0.0961
vn 0.0753 0.8466 -0.5269
vn -0.0752 0.8466 -0.5268
vn 0.0604 0.9936 0.0958
vn -0.0752 0.8465 -0.5271
vn -0.0603 0.9936 0.0958
vn 0.2122 0.9719 0.1020
vn 0.2044 0.8282 -0.5218
vn 0.2097 0.9695 0.1271
vn 0.2122 0.9720 0.1014
vn 0.2066 0.8274 -0.5222
vn 0.2043 0.8279 -0.5223
vn -0.2098 0.9694 0.1272
vn -0.2069 0.8277 -0.5217
vn -0.2124 0.9718 0.1020
vn -0.2098 0.9694 0.1278
vn -0.2047 0.8285 -0.5212
vn -0.2069 0.8280 -0.5212
vn -0.2046 0.8281 0.5220
vn -0.2124 0.9719 -0.1017
vn -0.2068 0.8276 0.5219
vn -0.2046 0.8285 0.5213
vn -0.2097 0.9694 -0.1278
vn -0.2124 0.9718 -0.1026
vn 0.5768 0.6939 0.4311
vn 0.0602 0.9907 -0.1222
vn 0.0775 0.8469 0.5261
vn 0.5770 0.6931 0.4320
vn 0.5452 0.8334 -0.0901
vn 0.0602 0.9909 -0.1208
vn 0.5452 0.8334 0.0901
vn 0.0775 0.8461 -0.5273
vn 0.0602 0.9909 0.1208
vn 0.5454 0.8332 0.0913
vn 0.5768 0.6938 -0.4312
vn 0.0775 0.8468 -0.5262
vn -0.0601 0.1876 0.9804
vn -0.4934 0.7677 0.4089
vn -0.5453 0.1463 0.8254
vn -0.0601 0.1869 0.9805
vn 0.0046 0.8959 0.4443
vn -0.4933 0.7674 0.4095
vn 0.0046 -0.8679 0.4967
vn -0.5455 -0.1457 0.8254
vn -0.4933 -0.7675 0.4094
vn 0.0046 -0.8682 0.4962
vn 0.0603 -0.1626 0.9848
vn -0.5453 -0.1463 0.8254
vn -0.1376 -0.8903 0.4340
vn -0.0871 -0.1615 0.9830
vn -0.1333 -0.8629 0.4874
vn -0.1375 -0.8901 0.4345
vn -0.0886 -0.1859 0.9786
vn -0.0870 -0.1610 0.9831
vn 0.0046 -0.8961 0.4439
vn 0.0602 -0.1874 0.9804
vn -0.0046 -0.8961 0.4439
vn 0.0046 -0.8959 0.4443
vn -0.0602 -0.1870 0.9805
vn 0.0601 -0.1869 0.9805
vn 0.0603 0.1626 0.9848
vn 0.0045 0.8682 0.4962
vn -0.0046 0.8682 0.4962
vn 0.0604 0.1631 0.9848
vn -0.0046 0.8685 0.4957
vn -0.0603 0.1632 0.9848
vn 0.0871 0.1615 0.9830
vn 0.1375 0.8904 0.4340
vn 0.0887 0.1865 0.9785
vn 0.0871 0.1617 0.9830
vn 0.1333 0.8630 0.4873
vn 0.1376 0.8904 0.4338
vn -0.0886 0.1863 0.9785
vn -0.1334 0.8628 0.4877
vn -0.0871 0.1613 0.9831
vn -0.0887 0.1859 0.9786
vn -0.1376 0.8901 0.4345
vn -0.1334 0.8626 0.4879
vn 0.1334 -0.8628 0.4876
vn 0.0887 -0.1864 0.9785
vn 0.1377 -0.8903 0.4341
vn 0.1334 -0.8629 0.4874
vn 0.0871 -0.1615 0.9830
vn 0.0888 -0.1865 0.9784
vn 0.4934 -0.7675 0.4093
vn -0.0604 -0.1622 0.9849
vn -0.0046 -0.8680 0.4966
vn 0.4935 -0.7678 0.4085
vn 0.5453 -0.1467 0.8253
vn -0.0604 -0.1629 0.9848
vn 0.5453 0.1458 0.8255
vn -0.0045 0.8959 0.4442
vn 0.0602 0.1871 0.9805
vn 0.5452 0.1461 0.8254
vn 0.4934 0.7676 0.4090
vn -0.0046 0.8961 0.4438
vn 0.5453 0.6596 0.5173
vn 0.5453 0.6596 -0.5173
vn 0.5768 0.8169 -0.0000
vn 0.5454 0.6596 -0.5172
vn 0.5454 0.6596 0.5172
vn 0.4933 -0.0001 0.8698
vn 0.5453 0.6597 -0.5172
vn 0.4934 -0.0000 0.8698
vn 0.4934 0.0001 -0.8698
vn 0.4933 -0.0000 -0.8698
vn 0.4933 0.0002 0.8699
vn 0.5457 -0.6594 0.5171
vn 0.4935 -0.0002 -0.8697
vn 0.5449 -0.6599 0.5172
vn 0.5449 -0.6600 -0.5172
vn 0.5453 -0.6597 -0.5171
vn 0.5453 -0.6596 0.5173
vn 0.5768 -0.8169 0.0001
vn -0.5457 0.6593 -0.5172
vn -0.5457 0.6593 0.5173
vn -0.5775 0.8164 0.0001
vn -0.5450 0.6599 0.5172
vn -0.5450 0.6599 -0.5172
vn -0.4935 0.0002 -0.8697
vn -0.5460 0.6592 0.5171
vn -0.4933 -0.0003 -0.8698
vn -0.4932 -0.0004 0.8699
vn -0.4933 0.0001 0.8698
vn -0.4933 0.0002 -0.8699
vn -0.5457 -0.6593 -0.5172
vn -0.4935 -0.0002 0.8697
vn -0.5449 -0.6600 -0.5172
vn -0.5448 -0.6600 0.5173
vn -0.5456 -0.6594 0.5173
vn -0.5456 -0.6593 -0.5173
vn -0.5774 -0.8165 -0.0000
vn 1.0000 -0.0000 -0.0000
vn -0.0000 1.0000 -0.0000
vn -0.0000 -0.0000 -1.0000
vn -0.0000 -0.0000 1.0000
vn -1.0000 -0.0000 -0.0000
vn 0.6295 -0.5258 -0.5721
vn -0.6296 -0.5264 -0.5714
vn -0.6297 -0.5261 0.5716
vn 0.6297 -0.5256 0.5721
vn 0.6298 0.5260 -0.5716
vn -0.6298 0.5260 -0.5716
vn -0.6298 0.5260 0.5716
vn 0.6298 0.5260 0.5716
vn -0.0000 -0.6771 -0.7359
vn -0.0000 -0.6772 -0.7358
vn -0.7674 -0.6411 -0.0000
vn 0.7675 -0.6411 -0.0000
vn -0.0000 -0.6771 0.7359
vn -0.0000 -0.6772 0.7358
vn -0.0000 0.6771 -0.7358
vn -0.7675 0.6410 -0.0000
vn 0.7675 0.6410 -0.0000
vn -0.0000 0.6771 0.7358
vn -0.7405 -0.0000 -0.6721
vn 0.7405 -0.0002 -0.6721
vn 0.7404 -0.0000 -0.6722
vn -0.7405 -0.0000 0.6721
vn 0.7405 -0.0000 0.6721
vn 0.7404 -0.0002 0.6722
vn -0.0000 -1.0000 0.0001
vn -0.0000 -1.0000 -0.0000
vn -0.0005 -1.0000 -0.0000
vt 0.495903 0.655695
vt 0.497331 0.655695
vt 0.496617 0.655066
vt 0.495607 0.657213
vt 0.497627 0.657213
vt 0.495903 0.658732
vt 0.497331 0.658732
vt 0.496617 0.659361
vt 0.136828 0.655695
vt 0.121267 0.657213
vt 0.121267 0.655695
vt 0.136828 0.657213
vt 0.121267 0.658732
vt 0.136828 0.658732
vt 0.497331 0.136828
vt 0.496617 0.121267
vt 0.497331 0.121267
vt 0.496617 0.136828
vt 0.495903 0.121267
vt 0.495903 0.136828
vt 0.496617 0.136828
vt 0.467699 0.655695
vt 0.469127 0.655695
vt 0.468413 0.655066
vt 0.467403 0.657213
vt 0.469422 0.657213
vt 0.467699 0.658732
vt 0.469127 0.658732
vt 0.468413 0.659361
vt 0.136828 0.655695
vt 0.121267 0.657213
vt 0.121267 0.655695
vt 0.136828 0.657213
vt 0.121267 0.658732
vt 0.136828 0.658732
vt 0.469127 0.136828
vt 0.468413 0.121267
vt 0.469126 0.121267
vt 0.468413 0.136828
vt 0.467699 0.121267
vt 0.467699 0.136828
vt 0.454019 0.657213
vt 0.453409 0.659318
vt 0.453409 0.657213
vt 0.454019 0.659318
vt 0.454019 0.655108
vt 0.453409 0.655108
vt 0.468081 0.655108
vt 0.468081 0.657213
vt 0.496451 0.655108
vt 0.496451 0.657213
vt 0.468081 0.659318
vt 0.496451 0.659318
vt 0.510501 0.657214
vt 0.510501 0.659318
vt 0.510501 0.655109
vt 0.511449 0.655109
vt 0.511449 0.657214
vt 0.511449 0.659318
vt 0.454019 0.133111
vt 0.453409 0.134448
vt 0.453409 0.133111
vt 0.454019 0.134448
vt 0.453409 0.135786
vt 0.454019 0.135786
vt 0.468081 0.137108
vt 0.468081 0.138445
vt 0.496451 0.137108
vt 0.496451 0.138445
vt 0.496451 0.135771
vt 0.468081 0.135771
vt 0.510501 0.133111
vt 0.510501 0.134448
vt 0.510501 0.135786
vt 0.511449 0.134448
vt 0.511449 0.135786
vt 0.511449 0.133111
vt 0.496451 0.657213
vt 0.496451 0.659318
vt 0.496451 0.137108
vt 0.496451 0.138445
vt 0.133111 0.659318
vt 0.133111 0.655108
vt 0.132558 0.657213
vt 0.134448 0.660190
vt 0.134448 0.654236
vt 0.135786 0.659318
vt 0.135786 0.655108
vt 0.136340 0.657213
vt 0.133111 0.655109
vt 0.133111 0.659318
vt 0.132557 0.657214
vt 0.134448 0.654236
vt 0.134448 0.660191
vt 0.135786 0.655109
vt 0.135786 0.659318
vt 0.136339 0.657214
vt 0.123929 0.558764
vt 0.126582 0.674448
vt 0.126582 0.558764
vt 0.123929 0.674448
vt 0.389216 0.558764
vt 0.589269 0.674448
vt 0.589269 0.558764
vt 0.389216 0.674448
vt 0.389216 0.123929
vt 0.589269 0.126582
vt 0.389216 0.126582
vt 0.589269 0.123929
vt 0.123929 0.677352
vt 0.121025 0.674448
vt 0.121025 0.558764
vt 0.123929 0.555860
vt 0.126582 0.677352
vt 0.129487 0.674448
vt 0.126582 0.555860
vt 0.129487 0.558764
vt 0.389216 0.121025
vt 0.589269 0.121025
vt 0.589269 0.129487
vt 0.389216 0.129487
vt 0.393243 0.668544
vt 0.585242 0.668544
vt 0.585242 0.564668
vt 0.393243 0.564668
vt 0.902948 0.668544
vt 1.116025 0.570142
vt 0.902948 0.570142
vt 1.116025 0.668544
vt 0.121025 0.564668
vt -0.102052 0.668544
vt -0.102052 0.564668
vt 0.121025 0.668544
vt 0.393243 0.121025
vt 0.585242 -0.102052
vt 0.393243 -0.102052
vt 0.585242 0.121025
vt 0.396654 0.116025
vt 0.581831 0.116025
vt 0.581831 -0.097052
vt 0.581831 0.902948
vt 0.393243 0.897948
vt 0.585242 0.897948
vt 0.396654 0.902948
vt 0.393243 1.121025
vt 0.396654 1.116025
vt 0.396654 -0.097052
vt 0.581831 0.668544
vt 0.396654 0.570142
vt 0.581831 0.570142
vt 0.396654 0.668544
vt 0.116025 0.668544
vt -0.097052 0.570142
vt 0.116025 0.570142
vt -0.097052 0.668544
s 1
usemtl M_DeskDrawer_313_1_0
f 1/1/1 3/2/2 2/3/3
f 3/2/4 1/1/5 4/4/6
f 3/2/2 4/4/6 5/5/7
f 5/5/7 4/4/8 6/6/9
f 5/5/7 6/6/10 7/7/11
f 7/7/12 6/6/13 8/8/14
f 3/9/15 10/10/16 9/11/17
f 3/9/15 5/12/18 10/10/16
f 5/12/19 11/13/20 10/10/21
f 5/12/22 7/14/23 11/13/24
f 7/15/25 12/16/26 11/17/27
f 7/15/28 8/18/29 12/16/30
f 8/18/31 13/19/32 12/16/33
f 8/18/34 6/20/35 13/19/36
f 6/14/37 14/10/38 13/13/39
f 6/14/40 4/12/41 14/10/38
f 4/12/42 15/11/43 14/10/44
f 4/12/45 1/9/46 15/11/43
f 2/21/47 9/17/48 16/16/49
f 2/21/50 3/15/51 9/17/52
f 1/20/53 2/21/54 16/16/55
f 1/20/56 16/16/57 15/19/58
f 17/22/59 19/23/4 18/24/60
f 19/23/4 17/22/61 20/25/6
f 19/23/4 20/25/6 21/26/7
f 21/26/7 20/25/6 22/27/62
f 21/26/7 22/27/62 23/28/12
f 23/28/63 22/27/62 24/29/64
f 19/30/15 26/31/16 25/32/65
f 19/30/15 21/33/18 26/31/16
f 21/33/19 27/34/66 26/31/21
f 21/33/22 23/35/67 27/34/68
f 23/36/69 28/37/70 27/38/71
f 23/36/72 24/39/73 28/37/74
f 24/39/75 29/40/76 28/37/77
f 24/39/78 22/41/79 29/40/80
f 22/35/81 30/31/82 29/34/83
f 22/35/84 20/33/85 30/31/86
f 20/33/87 31/32/88 30/31/89
f 20/33/90 17/30/91 31/32/92
f 18/39/93 25/38/94 32/37/95
f 18/39/96 19/36/97 25/38/98
f 17/41/99 18/39/100 32/37/57
f 17/41/101 32/37/102 31/40/103
f 33/42/104 35/43/105 34/44/106
f 33/42/107 36/45/108 35/43/109
f 37/46/110 33/42/111 34/44/112
f 37/46/113 34/44/114 38/47/115
f 39/48/116 33/42/117 37/46/118
f 39/48/119 40/49/120 33/42/121
f 40/49/122 36/45/123 33/42/124
f 41/50/125 40/49/126 39/48/127
f 41/50/128 42/51/129 40/49/130
f 42/51/131 43/52/132 40/49/133
f 40/49/134 43/52/135 36/45/136
f 42/51/137 44/53/138 43/52/139
f 45/54/140 44/53/141 42/51/142
f 45/54/143 46/55/144 44/53/145
f 47/56/146 42/51/147 41/50/148
f 47/56/149 45/54/150 42/51/151
f 48/57/152 45/54/153 47/56/154
f 48/57/155 49/58/156 45/54/157
f 49/58/158 46/55/159 45/54/160
f 49/58/161 50/59/162 46/55/163
f 36/60/164 51/61/165 35/62/166
f 36/60/167 52/63/168 51/61/169
f 52/63/170 53/64/171 51/61/172
f 52/63/173 54/65/174 53/64/175
f 55/66/176 54/65/177 52/63/178
f 55/66/179 56/67/180 54/65/181
f 57/68/182 56/67/183 55/66/184
f 57/68/185 58/69/186 56/67/187
f 44/70/188 57/68/189 55/66/190
f 44/70/191 55/66/192 43/71/193
f 43/71/194 52/63/195 36/60/196
f 43/71/197 55/66/198 52/63/199
f 46/72/200 57/68/201 44/70/202
f 46/72/203 59/73/204 57/68/205
f 59/73/206 58/69/207 57/68/208
f 59/73/209 60/74/210 58/69/211
f 61/75/212 60/74/213 59/73/214
f 61/75/212 62/76/215 60/74/213
f 50/77/216 59/73/217 46/72/218
f 50/77/219 61/75/220 59/73/221
f 54/45/222 63/44/223 53/43/224
f 54/45/225 64/42/226 63/44/227
f 64/42/228 65/47/229 63/44/230
f 64/42/231 66/46/232 65/47/233
f 67/49/234 66/46/235 64/42/236
f 67/49/237 68/48/238 66/46/239
f 69/78/240 68/48/241 67/49/242
f 69/78/243 70/50/244 68/48/245
f 58/79/246 69/78/247 67/49/248
f 58/79/249 67/49/250 56/52/251
f 56/52/252 64/42/253 54/45/254
f 56/52/255 67/49/256 64/42/257
f 60/55/258 69/78/259 58/79/260
f 60/55/261 71/54/262 69/78/263
f 71/54/264 70/50/265 69/78/266
f 71/54/267 72/56/268 70/50/269
f 73/58/270 72/56/271 71/54/272
f 73/58/273 74/57/274 72/56/275
f 62/59/276 71/54/277 60/55/278
f 62/59/279 73/58/280 71/54/281
f 66/65/282 75/61/283 65/64/284
f 66/65/285 76/63/286 75/61/287
f 76/63/288 38/62/289 75/61/290
f 76/63/291 37/60/292 38/62/293
f 77/66/294 37/60/295 76/63/296
f 77/66/297 39/71/298 37/60/299
f 78/80/300 39/71/301 77/66/302
f 78/80/303 41/70/304 39/71/305
f 70/81/306 78/80/307 77/66/308
f 70/81/309 77/66/310 68/67/311
f 68/67/312 76/63/313 66/65/314
f 68/67/315 77/66/316 76/63/317
f 72/74/318 78/80/319 70/81/320
f 72/74/321 79/73/322 78/80/323
f 79/73/324 41/70/325 78/80/326
f 79/73/327 47/72/328 41/70/329
f 80/75/330 47/72/331 79/73/332
f 80/75/333 48/77/334 47/72/335
f 74/76/336 79/73/337 72/74/338
f 74/76/339 80/75/340 79/73/341
f 35/82/342 38/83/343 34/84/344
f 38/83/345 35/82/346 51/85/347
f 38/83/348 51/85/349 75/86/350
f 75/86/351 51/85/352 53/87/353
f 75/86/354 53/87/355 65/88/356
f 65/88/357 53/87/358 63/89/359
f 48/90/360 50/91/361 49/92/362
f 50/91/363 48/90/364 80/93/365
f 50/91/366 80/93/367 61/94/368
f 61/94/369 80/93/370 74/95/371
f 61/94/372 74/95/373 62/96/374
f 62/96/375 74/95/376 73/97/377
f 81/98/378 83/99/378 82/100/378
f 81/98/378 84/101/378 83/99/378
f 85/102/379 87/103/379 86/104/379
f 85/102/379 88/105/379 87/103/379
f 89/106/380 91/107/380 90/108/380
f 89/106/380 92/109/380 91/107/380
f 93/109/381 95/108/381 94/107/381
f 93/109/381 96/106/381 95/108/381
f 97/101/382 99/100/382 98/99/382
f 97/101/382 100/98/382 99/100/382
f 89/110/383 84/101/383 101/111/383
f 92/110/384 102/111/384 97/101/384
f 100/98/385 103/112/385 93/113/385
f 81/98/386 96/113/386 104/112/386
f 90/114/387 88/115/387 83/99/387
f 91/114/388 98/99/388 87/115/388
f 99/100/389 94/116/389 86/117/389
f 82/100/390 85/117/390 95/116/390
f 101/118/391 92/109/391 89/106/391
f 101/118/392 102/119/392 92/109/392
f 102/111/393 100/98/393 97/101/393
f 102/111/393 103/112/393 100/98/393
f 84/101/394 104/112/394 101/111/394
f 84/101/394 81/98/394 104/112/394
f 96/106/395 103/119/395 104/118/395
f 96/106/396 93/109/396 103/119/396
f 90/108/397 87/120/397 88/121/397
f 90/108/397 91/107/397 87/120/397
f 98/99/398 86/117/398 87/115/398
f 98/99/398 99/100/398 86/117/398
f 88/115/399 82/100/399 83/99/399
f 88/115/399 85/117/399 82/100/399
f 85/121/400 94/107/400 95/108/400
f 85/121/400 86/120/400 94/107/400
f 97/101/401 91/114/401 92/110/401
f 97/101/401 98/99/401 91/114/401
f 83/99/402 89/110/402 90/114/402
f 83/99/403 84/101/403 89/110/403
f 93/113/404 99/100/404 100/98/404
f 93/113/404 94/116/404 99/100/404
f 95/116/405 81/98/405 82/100/405
f 95/116/406 96/113/406 81/98/406
f 105/122/407 102/103/407 101/105/407
f 105/122/408 106/123/408 102/103/408
f 106/123/408 103/104/408 102/103/408
f 106/123/408 107/124/408 103/104/408
f 108/125/409 105/122/409 101/105/409
f 108/125/408 101/105/408 104/102/408
f 107/124/408 104/102/408 103/104/408
f 107/124/408 108/125/408 104/102/408
f 109/125/408 111/123/408 110/122/408
f 109/125/408 112/124/408 111/123/408
f 113/126/378 115/127/378 114/128/378
f 113/126/378 116/129/378 115/127/378
f 107/130/382 111/131/382 112/132/382
f 107/130/382 106/133/382 111/131/382
f 105/133/378 109/132/378 110/131/378
f 105/133/378 108/130/378 109/132/378
f 108/134/381 112/135/381 109/136/381
f 108/134/381 107/137/381 112/135/381
f 117/138/380 106/137/380 105/134/380
f 117/138/380 116/139/380 106/137/380
f 116/139/380 111/135/380 106/137/380
f 116/139/380 113/140/380 111/135/380
f 113/141/380 110/142/380 111/143/380
f 113/141/380 118/144/380 110/142/380
f 118/144/380 105/145/380 110/142/380
f 118/144/380 117/146/380 105/145/380
f 115/139/380 119/147/380 114/140/380
f 115/139/380 120/138/380 119/147/380
f 116/148/408 120/149/408 115/150/408
f 116/148/408 117/151/408 120/149/408
f 118/151/379 114/150/379 119/149/379
f 118/151/379 113/148/379 114/150/379
f 117/152/382 119/153/382 120/154/382
f 117/152/382 118/155/382 119/153/382
