# Blender 4.1.1
# www.blender.org
mtllib MeshPsDesk_313_5_11.mtl
o PsDesk_313_5
v 0.912034 0.215844 -0.302214
v 0.985657 0.215843 -0.126382
v 0.985657 0.215843 -0.302214
v 0.912034 0.215844 -0.126382
v 0.985810 -0.294306 -0.302369
v 0.911876 -0.294306 -0.302369
v 0.985810 -0.294306 -0.126227
v 0.911876 -0.294306 -0.126227
vn -0.0000 1.0000 -0.0000
vn -0.0000 0.0003 -1.0000
vn 1.0000 0.0006 -0.0000
vn 1.0000 0.0008 -0.0000
vn -1.0000 0.0008 -0.0000
vn -1.0000 0.0003 -0.0000
vn -0.0000 0.0003 1.0000
vn -0.0000 0.0006 1.0000
vt 0.104442 0.369953
vt 0.141052 0.484222
vt 0.141052 0.369953
vt 0.104442 0.484222
vt 0.141052 0.118067
vt 0.104442 -0.183767
vt 0.141052 -0.183767
vt 0.104442 0.118067
vt 0.118067 0.484222
vt -0.183767 0.369953
vt -0.183767 0.484222
vt 0.118067 0.369953
s 1
usemtl M_PsDesk_313_5_0
f 1/1/1 2/2/1 3/3/1
f 1/1/1 4/4/1 2/2/1
f 5/5/2 1/6/2 3/7/2
f 5/5/2 6/8/2 1/6/2
f 7/9/3 3/10/3 2/11/3
f 7/9/4 5/12/4 3/10/4
f 6/12/5 4/11/5 1/10/5
f 6/12/6 8/9/6 4/11/6
f 8/8/7 2/7/7 4/6/7
f 8/8/8 7/5/8 2/7/8
