# Blender 4.1.1
# www.blender.org
mtllib Fp301_Ps_301_Shelf_1_PsDesk_312_6_6.mtl
o PsDesk_312_6
v -0.628077 -0.257913 -0.035735
v -0.259699 0.239104 -0.035733
v -0.628227 0.239104 -0.035733
v -0.259849 -0.257913 -0.035735
v -0.629869 -0.257857 -0.198534
v -0.629766 0.239104 -0.037472
v -0.629766 0.239161 -0.198479
v -0.629869 -0.257913 -0.037760
v -0.259849 -0.257857 -0.200559
v -0.628227 0.239161 -0.200218
v -0.259699 0.239161 -0.200217
v -0.628077 -0.257857 -0.200559
v -0.628227 0.240899 -0.198478
v -0.259699 0.240844 -0.037472
v -0.259699 0.240899 -0.198479
v -0.628227 0.240844 -0.037471
v -0.258056 -0.257913 -0.037760
v -0.258159 0.239160 -0.198479
v -0.258159 0.239104 -0.037472
v -0.258056 -0.257857 -0.198534
vn -0.0000 -0.0000 1.0000
vn -0.0000 0.0003 1.0000
vn -1.0000 0.0002 -0.0000
vn -0.0000 0.0010 -1.0000
vn -0.0000 0.0007 -1.0000
vn -0.0000 1.0000 0.0003
vn 1.0000 0.0002 -0.0000
vn 1.0000 0.0005 -0.0000
vn -0.6240 0.5527 -0.5523
vn -0.6241 0.5521 0.5528
vn 0.6243 0.5518 -0.5529
vn 0.6242 0.5522 0.5527
vn -0.7487 0.6629 0.0002
vn -0.7489 0.6627 0.0002
vn 0.7489 0.6627 0.0002
vn -0.0000 0.7063 0.7079
vn -0.0000 0.7068 0.7074
vn -0.0000 0.7078 -0.7064
vn -0.0000 0.7072 -0.7070
vn -0.7488 0.0002 -0.6628
vn 0.7488 0.0002 -0.6629
vn 0.7487 0.0002 -0.6629
vn -0.7488 -0.0002 0.6627
vn -0.7488 -0.0002 0.6628
vn 0.7491 -0.0002 0.6625
vn 0.7487 -0.0002 0.6629
vt 1.390820 -0.383161
vt 0.866603 0.241457
vt 1.390820 0.241457
vt 0.866603 -0.383161
vt -0.384207 1.199136
vt 0.240412 1.402429
vt 0.240412 1.199135
vt -0.384207 1.402429
vt 1.390820 1.199135
vt 0.866603 1.402429
vt 0.866603 1.199135
vt 1.390820 1.402429
vt -0.384207 1.402429
vt -0.384207 1.199135
vt 0.244123 1.199135
vt 0.240412 1.195424
vt 0.240412 1.406141
vt 0.244123 1.402429
vt 0.862891 1.402429
vt 0.862891 1.199135
vt 0.866603 0.245169
vt 1.390820 0.245169
vt 0.866603 1.195424
vt 1.390820 1.195424
vt -0.384207 1.195424
vt 1.394532 0.241457
vt 1.394532 -0.383161
vt 0.862891 -0.383161
vt 0.862891 0.241457
s 1
usemtl M_PsDesk_312_6_0
f 1/1/1 2/2/1 3/3/1
f 1/1/2 4/4/2 2/2/2
f 5/5/3 6/6/3 7/7/3
f 5/5/3 8/8/3 6/6/3
f 9/4/4 10/3/4 11/2/4
f 9/4/5 12/1/5 10/3/5
f 13/9/6 14/10/6 15/11/6
f 13/9/6 16/12/6 14/10/6
f 17/13/7 18/7/7 19/6/7
f 17/13/8 20/14/8 18/7/8
f 7/7/9 13/15/9 10/16/9
f 6/6/10 3/17/10 16/18/10
f 18/7/11 11/16/11 15/15/11
f 19/6/12 14/18/12 2/17/12
f 7/7/13 16/18/13 13/15/13
f 7/7/14 6/6/14 16/18/14
f 15/11/15 19/19/15 18/20/15
f 15/11/15 14/10/15 19/19/15
f 3/3/16 14/21/16 16/22/16
f 3/3/17 2/2/17 14/21/17
f 13/9/18 11/23/18 10/24/18
f 13/9/19 15/11/19 11/23/19
f 5/5/20 10/16/20 12/25/20
f 5/5/20 7/7/20 10/16/20
f 18/7/21 9/25/21 11/16/21
f 18/7/22 20/14/22 9/25/22
f 1/1/23 6/26/23 8/27/23
f 1/1/24 3/3/24 6/26/24
f 2/2/25 17/28/25 19/29/25
f 2/2/26 4/4/26 17/28/26
