# Blender 4.1.0
# www.blender.org
mtllib MeshBox_28_FlapInner_1_3.mtl
o Box_28_FlapInner_1
v -0.086141 -0.153233 0.113940
v 0.085633 -0.153233 0.113940
v -0.086141 -0.151749 0.115521
v 0.085633 -0.151749 0.115521
v -0.086142 -0.117266 0.082397
v -0.086141 -0.117290 0.083163
v 0.085633 -0.117266 0.082397
v 0.085633 -0.117290 0.083163
v -0.086142 -0.118008 0.081606
v -0.086141 -0.118774 0.081582
v 0.085633 -0.118008 0.081606
v 0.085633 -0.118774 0.081582
vn -0.0000 -0.7290 0.6845
vn -0.0000 0.9081 -0.4188
vn -0.0000 0.6927 0.7212
vn -0.0002 0.6927 0.7212
vn -1.0000 0.0003 -0.0002
vn -1.0000 -0.0001 -0.0002
vn -1.0000 0.0002 -0.0001
vn 1.0000 -0.0000 -0.0000
vn 1.0000 -0.0001 -0.0003
vn 1.0000 0.0002 -0.0002
vn -0.0000 -0.6762 -0.7367
vn -0.0000 0.4752 -0.8799
vn -0.0000 0.4751 -0.8799
vn -0.0000 -0.6845 -0.7290
vn -0.0000 0.6845 0.7290
vn -1.0000 -0.0000 -0.0000
vt -0.588591 -0.558704
vt -0.588591 0.037333
vt -0.594048 0.037333
vt -0.594048 -0.558704
vt 0.321787 -0.556831
vt 0.323151 -0.558706
vt 0.323151 0.037334
vt 0.321787 0.035459
vt 0.319059 -0.556831
vt 0.317695 -0.558706
vt 0.317695 0.037334
vt 0.319059 0.035459
vt 0.218114 -0.558707
vt 0.218114 0.037335
vt -0.043545 0.037335
vt -0.043545 -0.558707
vt -0.227223 -0.558707
vt -0.227223 0.037335
vt -0.488881 0.037335
vt -0.488881 -0.558707
vt -0.605334 -0.113136
vt -0.605334 0.148522
vt -0.610790 0.148522
vt -0.610791 -0.113137
vt -0.618449 -0.562206
vt -0.618449 -0.300548
vt -0.623906 -0.300547
vt -0.623906 -0.562205
s 1
usemtl M_Box_28_FlapInner_1_0
f 1/1/1 2/2/1 4/3/1 3/4/1
f 5/5/2 6/6/3 8/7/4 7/8/2
f 6/6/5 5/5/6 9/9/6 10/10/7
f 7/8/8 8/7/9 12/11/8 11/12/10
f 10/10/11 9/9/12 11/12/13 12/11/11
f 5/5/2 7/8/2 11/12/13 9/9/12
f 10/13/11 12/14/11 2/15/14 1/16/14
f 3/17/15 4/18/15 8/19/4 6/20/3
f 8/21/9 4/22/8 2/23/8 12/24/8
f 3/25/16 6/26/5 10/27/7 1/28/16
