# Blender 4.1.1
# www.blender.org
mtllib LidMeshLaptopLid_17_0_GeomSubset_1.mtl
o LidMeshLaptopLid_17_0_GeomSubset_1
v 0.000632 0.167477 -0.165244
v -0.000632 0.167477 -0.165244
v 0.000632 0.168741 -0.165244
v -0.000632 0.168741 -0.165244
v 0.000632 0.167477 -0.165244
v -0.000632 0.167477 -0.165244
v 0.000632 0.168741 -0.165244
v -0.000632 0.168741 -0.165244
v 0.000632 0.167477 -0.165244
v -0.000632 0.167477 -0.165244
v 0.000632 0.168741 -0.165244
v -0.000632 0.168741 -0.165244
v 0.000632 0.167477 -0.165244
v -0.000632 0.167477 -0.165244
v 0.000632 0.168741 -0.165244
v -0.000632 0.168741 -0.165244
v 0.000632 0.167477 -0.165244
v -0.000632 0.167477 -0.165244
v 0.000632 0.168741 -0.165244
v -0.000632 0.168741 -0.165244
v 0.000632 0.167477 -0.165244
v -0.000632 0.167477 -0.165244
v 0.000632 0.168741 -0.165244
v -0.000632 0.168741 -0.165244
v 0.252858 0.176285 0.150294
v 0.254378 0.173304 0.150294
v 0.254934 0.169232 0.150294
v 0.254378 0.169232 0.163519
v 0.252858 0.169232 0.173201
v 0.250782 0.169232 0.176744
v 0.250782 0.173304 0.173201
v 0.250782 0.176285 0.163519
v 0.250782 0.177376 0.150294
v 0.252858 0.169232 -0.166820
v 0.254378 0.169232 -0.161437
v 0.254934 0.169232 -0.154083
v 0.254378 0.173304 -0.154083
v 0.252858 0.176285 -0.154083
v 0.250782 0.177376 -0.154083
v 0.250782 0.176285 -0.161437
v 0.250782 0.173304 -0.166820
v 0.250782 0.169232 -0.168791
v 0.252576 0.175674 0.161727
v 0.254066 0.172751 0.161727
v 0.252576 0.172751 0.171212
v 0.252576 0.172751 -0.165715
v 0.254066 0.172751 -0.160437
v 0.252576 0.175673 -0.160437
v 0.000068 0.173304 0.173201
v 0.000068 0.176285 0.163519
v 0.000068 0.177376 0.150294
v 0.000068 0.177376 -0.154083
v 0.000068 0.176285 -0.161437
v 0.000068 0.173304 -0.166820
v 0.000068 0.169232 -0.168791
v 0.000068 0.169232 0.176744
v -0.252723 0.176285 0.150294
v -0.254242 0.173304 0.150294
v -0.254799 0.169232 0.150294
v -0.254242 0.169232 0.163519
v -0.252723 0.169232 0.173201
v -0.250647 0.169232 0.176744
v -0.250647 0.173304 0.173201
v -0.250647 0.176285 0.163519
v -0.250647 0.177376 0.150294
v -0.252723 0.169232 -0.166820
v -0.254242 0.169232 -0.161437
v -0.254799 0.169232 -0.154083
v -0.254242 0.173304 -0.154083
v -0.252723 0.176285 -0.154083
v -0.250647 0.177376 -0.154083
v -0.250647 0.176285 -0.161437
v -0.250647 0.173304 -0.166820
v -0.250647 0.169232 -0.168791
v -0.252441 0.175674 0.161727
v -0.253930 0.172751 0.161727
v -0.252441 0.172751 0.171212
v -0.252441 0.172751 -0.165715
v -0.253930 0.172751 -0.160437
v -0.252441 0.175673 -0.160437
v 0.254934 0.162862 0.150294
v 0.254378 0.162862 0.163519
v 0.252858 0.162862 0.173201
v 0.250782 0.162862 0.176744
v 0.254378 0.162862 -0.161437
v 0.254934 0.162862 -0.154083
v 0.252858 0.162862 -0.166820
v 0.250782 0.162862 -0.168791
v 0.000068 0.162862 0.176744
v 0.000068 0.162862 -0.168791
v -0.254242 0.162862 0.163519
v -0.254799 0.162862 0.150294
v -0.252723 0.162862 0.173201
v -0.250647 0.162862 0.176744
v -0.254799 0.162862 -0.154083
v -0.254242 0.162862 -0.161437
v -0.252723 0.162862 -0.166820
v -0.250647 0.162862 -0.168791
v 0.000068 0.162862 0.150294
v 0.000068 0.162862 0.163519
v 0.000068 0.162862 0.173201
v 0.000068 0.162862 -0.161437
v 0.000068 0.162862 -0.154083
v 0.000068 0.162862 -0.166820
v 0.218089 0.162862 -0.126454
v 0.218089 0.162862 0.140766
v 0.000068 0.162862 -0.126454
v 0.000068 0.162862 0.140766
v -0.217953 0.162862 0.140766
v -0.217953 0.162862 -0.126454
v 0.218089 0.167441 -0.126454
v 0.218089 0.167441 0.140766
v 0.000068 0.167441 -0.126454
v 0.000068 0.167441 0.140766
v -0.217953 0.167441 0.140766
v -0.217953 0.167441 -0.126454
v 0.240199 0.161803 -0.151947
v 0.240063 0.161722 -0.151935
v 0.240063 0.161722 0.159701
v 0.240199 0.161803 0.159713
v 0.239878 0.161803 -0.153584
v 0.239750 0.161722 -0.153531
v 0.239026 0.161803 -0.154877
v 0.238925 0.161722 -0.154780
v 0.237747 0.161803 -0.155740
v 0.237696 0.161722 -0.155613
v 0.236131 0.161803 -0.156066
v 0.236126 0.161722 -0.155928
v -0.000003 0.161722 -0.155930
v 0.000003 0.161803 -0.156066
v -0.236126 0.161803 -0.156068
v -0.236121 0.161722 -0.155930
v -0.237747 0.161803 -0.155743
v -0.237697 0.161722 -0.155610
v -0.239027 0.161803 -0.154874
v -0.238926 0.161722 -0.154780
v -0.239878 0.161803 -0.153582
v -0.239750 0.161722 -0.153530
v -0.240199 0.161803 -0.151947
v -0.240063 0.161722 -0.151933
v -0.240199 0.161803 0.159713
v -0.240063 0.161722 0.159699
v -0.230110 0.161722 -0.153812
v -0.230100 0.161799 -0.153682
v -0.000003 0.161799 -0.153682
v 0.000003 0.161722 -0.153811
v -0.232404 0.161722 -0.153351
v -0.232355 0.161799 -0.153228
v -0.234448 0.161722 -0.151967
v -0.234356 0.161799 -0.151874
v -0.235815 0.161722 -0.149893
v -0.235696 0.161799 -0.149842
v -0.236271 0.161722 -0.147574
v -0.236143 0.161799 -0.147561
v -0.236271 0.161722 0.155335
v -0.236143 0.161799 0.155324
v -0.000003 0.161722 0.161578
v 0.000003 0.161798 0.161450
v -0.230115 0.161799 0.161448
v -0.230119 0.161722 0.161579
v 0.230109 0.161722 0.161579
v 0.230112 0.161799 0.161449
v 0.232404 0.161722 0.161118
v 0.232353 0.161799 0.160996
v 0.234448 0.161722 0.159733
v 0.234357 0.161799 0.159638
v 0.235815 0.161722 0.157658
v 0.235696 0.161799 0.157607
v 0.236270 0.161722 0.155337
v 0.236143 0.161799 0.155324
v 0.236271 0.161722 -0.147575
v 0.236143 0.161799 -0.147561
v 0.239877 0.161803 0.161352
v 0.239750 0.161722 0.161299
v 0.238927 0.161722 0.162548
v 0.239025 0.161803 0.162645
v 0.237697 0.161722 0.163379
v 0.237750 0.161803 0.163509
v 0.236121 0.161722 0.163699
v 0.236139 0.161803 0.163835
v -0.000003 0.161803 0.163835
v 0.000003 0.161722 0.163697
v -0.236130 0.161722 0.163695
v -0.236139 0.161804 0.163834
v -0.237750 0.161803 0.163509
v -0.237699 0.161722 0.163378
v -0.238928 0.161722 0.162546
v -0.239026 0.161803 0.162644
v -0.239750 0.161722 0.161297
v -0.239877 0.161803 0.161351
v 0.230100 0.161799 -0.153683
v 0.230123 0.161722 -0.153811
v 0.232351 0.161799 -0.153231
v 0.232403 0.161722 -0.153351
v 0.234358 0.161799 -0.151871
v 0.234450 0.161722 -0.151965
v 0.235696 0.161799 -0.149841
v 0.235815 0.161722 -0.149893
v -0.235815 0.161722 0.157658
v -0.235696 0.161799 0.157607
v -0.234450 0.161722 0.159732
v -0.234357 0.161799 0.159638
v -0.232405 0.161722 0.161117
v -0.232353 0.161799 0.160996
v 0.240199 0.163076 -0.151947
v 0.239877 0.163076 -0.153586
v 0.239026 0.163076 -0.154877
v 0.237750 0.163076 -0.155740
v 0.236130 0.163076 -0.156066
v -0.236133 0.163076 -0.156066
v -0.237750 0.163076 -0.155740
v -0.239025 0.163076 -0.154878
v -0.239877 0.163076 -0.153586
v -0.240199 0.163076 -0.151949
v 0.239877 0.163076 0.161352
v 0.240199 0.163076 0.159713
v 0.239025 0.163076 0.162645
v 0.237750 0.163076 0.163509
v 0.236137 0.163076 0.163835
v -0.237750 0.163076 0.163509
v -0.236134 0.163076 0.163835
v -0.239026 0.163076 0.162644
v -0.239877 0.163076 0.161351
v -0.240199 0.163076 0.159713
v 0.000000 0.162464 -0.153683
v -0.230097 0.162464 -0.153683
v 0.000000 0.162464 0.161451
v -0.230103 0.162464 0.161450
v -0.236143 0.162464 -0.147561
v -0.236143 0.162464 0.155324
v 0.236143 0.162464 0.155324
v 0.236143 0.162464 -0.147561
v 0.000000 0.163076 -0.156066
v 0.000000 0.163076 0.163835
v 0.235696 0.162464 -0.149842
v 0.234357 0.162464 -0.151873
v 0.232351 0.162464 -0.153231
v 0.230103 0.162464 -0.153683
v -0.235696 0.162464 -0.149842
v -0.234356 0.162464 -0.151874
v -0.232355 0.162464 -0.153228
v 0.235696 0.162464 0.157607
v 0.234357 0.162464 0.159638
v 0.232353 0.162464 0.160996
v 0.230106 0.162464 0.161450
v -0.235696 0.162464 0.157607
v -0.234357 0.162464 0.159638
v -0.232353 0.162464 0.160996
v 0.116558 0.163076 -0.156066
v 0.116558 0.161803 -0.156066
v 0.116558 0.161722 -0.155929
v 0.116558 0.161722 -0.153811
v 0.116558 0.161799 -0.153683
v 0.116558 0.162464 -0.153683
v -0.116558 0.163076 -0.156066
v -0.116558 0.161803 -0.156066
v -0.116558 0.161722 -0.155930
v -0.116558 0.161722 -0.153811
v -0.116558 0.161799 -0.153682
v -0.116558 0.162464 -0.153683
v -0.038972 0.180514 -0.039828
v 0.038971 0.180514 -0.039828
v -0.038972 0.180514 0.041909
v 0.038971 0.180514 0.041909
v 0.218089 0.167241 -0.126454
v 0.218089 0.167241 0.140766
v 0.000068 0.167241 -0.126454
v 0.000068 0.167241 0.140766
v -0.217953 0.167241 0.140766
v -0.217953 0.167241 -0.126454
vn -0.0000 -0.0000 -1.0000
vn -0.7002 0.7014 0.1336
vn -0.4640 0.8845 0.0491
vn -0.4639 0.8845 -0.0490
vn -0.7001 0.7014 -0.1339
vn -0.6748 0.6824 0.2809
vn -0.4620 0.8665 0.1888
vn -0.5205 0.6815 0.5144
vn -0.3545 0.8662 0.3520
vn -0.2859 0.6819 0.6733
vn -0.1956 0.8641 0.4637
vn -0.1346 0.7010 0.7004
vn -0.0526 0.9131 0.4042
vn -0.0000 0.8954 0.4453
vn -0.0000 0.7302 0.6833
vn -0.0001 0.7305 0.6829
vn -0.0000 0.8960 0.4441
vn 0.0522 0.9141 0.4020
vn 0.1338 0.7027 0.6988
vn 0.2856 0.6821 0.6731
vn 0.1957 0.8661 0.4600
vn 0.5212 0.6824 0.5125
vn 0.3542 0.8665 0.3518
vn 0.6750 0.6822 0.2809
vn 0.4627 0.8661 0.1893
vn 0.6996 0.7019 0.1341
vn 0.4638 0.8846 0.0487
vn 0.6998 0.7017 -0.1342
vn 0.4638 0.8846 -0.0486
vn -0.0000 0.8933 -0.4495
vn -0.0000 0.6918 -0.7221
vn -0.0000 0.6910 -0.7229
vn -0.0000 0.8927 -0.4507
vn -0.1410 0.7177 -0.6819
vn -0.0448 0.8965 -0.4408
vn -0.1574 0.9126 -0.3773
vn -0.2542 0.7466 -0.6147
vn -0.2924 0.9115 -0.2894
vn -0.4746 0.7452 -0.4684
vn -0.3833 0.9101 -0.1574
vn -0.6205 0.7437 -0.2489
vn -0.4477 0.8931 -0.0447
vn -0.6870 0.7133 -0.1390
vn -0.4481 0.8929 0.0443
vn -0.6870 0.7132 0.1392
vn -0.0000 0.8947 0.4466
vn -0.0000 0.6936 0.7204
vn -0.1446 0.7197 0.6791
vn -0.0438 0.8975 0.4389
vn 0.1455 0.7210 0.6774
vn 0.0429 0.8964 0.4411
vn 0.1583 0.9121 0.3782
vn 0.2535 0.7462 0.6156
vn 0.2920 0.9115 0.2898
vn 0.4754 0.7453 0.4674
vn 0.3836 0.9099 0.1577
vn 0.6207 0.7435 0.2488
vn 0.4480 0.8929 0.0446
vn 0.6875 0.7128 0.1388
vn 0.4478 0.8930 -0.0447
vn 0.6875 0.7128 -0.1388
vn -0.6753 0.6816 -0.2817
vn -0.4633 0.8657 -0.1893
vn -0.3553 0.8664 -0.3508
vn -0.5203 0.6821 -0.5138
vn -0.1946 0.8656 -0.4614
vn -0.2867 0.6822 -0.6726
vn -0.0504 0.9174 -0.3948
vn -0.1384 0.7036 -0.6970
vn -0.0000 0.7310 -0.6824
vn -0.0000 0.8969 -0.4423
vn 0.0516 0.9174 -0.3946
vn 0.1365 0.7024 -0.6985
vn 0.2856 0.6828 -0.6724
vn 0.1948 0.8663 -0.4601
vn 0.3551 0.8669 -0.3497
vn 0.5200 0.6824 -0.5137
vn 0.4631 0.8660 -0.1885
vn 0.6749 0.6821 -0.2816
vn 0.0475 0.8951 -0.4432
vn 0.1381 0.7131 -0.6873
vn 0.2527 0.7468 -0.6151
vn 0.1586 0.9125 -0.3770
vn 0.4749 0.7453 -0.4679
vn 0.2920 0.9116 -0.2892
vn 0.6202 0.7439 -0.2487
vn 0.3829 0.9103 -0.1573
vn -0.3834 0.9101 0.1574
vn -0.6205 0.7437 0.2486
vn -0.2920 0.9119 0.2886
vn -0.4744 0.7456 0.4679
vn -0.1584 0.9129 0.3763
vn -0.2527 0.7474 0.6145
vn -0.9829 -0.0000 0.1839
vn -0.9231 0.0002 0.3845
vn -0.7107 0.0009 0.7034
vn -0.3919 0.0004 0.9200
vn -0.1871 0.0001 0.9823
vn 0.1877 -0.0009 0.9822
vn 0.3922 -0.0001 0.9199
vn 0.7113 0.0007 0.7029
vn 0.9230 0.0006 0.3847
vn 0.9829 0.0001 0.1844
vn -0.9231 -0.0000 -0.3845
vn -0.9829 -0.0000 -0.1842
vn -0.7112 -0.0000 -0.7030
vn -0.3923 -0.0000 -0.9198
vn -0.1888 -0.0001 -0.9820
vn 0.3922 -0.0003 -0.9199
vn 0.1884 0.0002 -0.9821
vn 0.7119 -0.0000 -0.7023
vn 0.9233 -0.0000 -0.3842
vn 0.9829 -0.0000 -0.1842
vn -0.0000 -0.0011 -1.0000
vn -0.0000 -0.0009 -1.0000
vn -0.0000 -0.0022 1.0000
vn -0.2020 -0.0010 0.9794
vn -0.9800 -0.0000 -0.1991
vn -0.9800 -0.0000 0.1989
vn 0.9800 -0.0000 0.1989
vn 0.9800 0.0001 -0.1992
vn -0.0000 -0.0000 1.0000
vn -0.0000 -0.0004 1.0000
vn -0.0000 0.0002 -1.0000
vn 0.9275 -0.0006 -0.3738
vn 0.7108 -0.0014 -0.7034
vn 0.2018 -0.0002 -0.9794
vn 0.3804 -0.0003 -0.9248
vn -0.9276 -0.0000 -0.3736
vn -0.7107 -0.0000 -0.7035
vn -0.3811 -0.0003 -0.9245
vn -0.2009 -0.0001 -0.9796
vn 0.9276 -0.0000 0.3737
vn 0.7116 -0.0000 0.7026
vn 0.3810 0.0001 0.9246
vn 0.2033 -0.0001 0.9791
vn -0.9276 -0.0000 0.3737
vn -0.7116 -0.0000 0.7026
vn -0.3809 -0.0000 0.9246
vn -0.0001 0.8923 -0.4515
vn -0.0000 0.6908 -0.7230
vn -0.0000 0.8966 0.4429
vn -0.0000 0.7310 0.6823
vn -0.0000 -0.0004 -1.0000
vt -85.464355 -19.673967
vt -84.464355 -19.673967
vt -84.464355 -18.673967
vt -85.464355 -18.673967
vt -84.730751 0.802458
vt -84.731003 0.802421
vt -84.731003 -0.136148
vt -84.730751 -0.136191
vt -84.730751 0.807388
vt -84.731018 0.807230
vt -85.573090 1.205246
vt -85.573235 1.205615
vt -85.577049 1.203110
vt -85.576767 1.202819
vt -85.579582 1.199352
vt -85.579216 1.199202
vt -85.580544 1.194600
vt -85.580132 1.194579
vt -85.580139 0.499990
vt -85.580544 0.500011
vt -85.580544 0.157142
vt -85.580139 0.157136
vt -85.580139 -0.194561
vt -85.580551 -0.194572
vt -85.579590 -0.199344
vt -85.579201 -0.199196
vt -84.894226 8.962161
vt -84.894127 8.961885
vt -84.891464 8.963696
vt -84.891678 8.963885
vt -85.576752 -0.202814
vt -85.577042 -0.203113
vt -85.573235 -0.205616
vt -85.573090 -0.205239
vt -84.739845 -0.143972
vt -84.739601 -0.144132
vt -84.739601 -0.139168
vt -84.739845 -0.139131
vt -84.739601 0.805441
vt -84.739845 0.805396
vt -85.573898 0.157143
vt -85.573524 0.157144
vt -85.573524 0.499989
vt -85.573898 0.500011
vt -85.573524 -0.176856
vt -85.573898 -0.176880
vt -85.572563 -0.183628
vt -85.572197 -0.183488
vt -85.568489 -0.189645
vt -85.568214 -0.189371
vt -85.562370 -0.193665
vt -85.562233 -0.193313
vt -84.712799 0.800466
vt -84.713043 0.800617
vt -84.713043 0.793486
vt -84.712799 0.793451
vt -84.713043 -0.137631
vt -84.712799 -0.137594
vt -84.646179 0.499997
vt -84.646561 0.500010
vt -84.646568 -0.176894
vt -84.646179 -0.176906
vt -84.646561 1.176889
vt -84.646179 1.176879
vt -84.647530 1.183634
vt -84.647896 1.183486
vt -84.651596 1.189644
vt -84.651878 1.189378
vt -84.657707 1.193664
vt -84.657860 1.193318
vt -84.721642 0.802703
vt -84.721878 0.802864
vt -84.721878 0.795688
vt -84.721642 0.795652
vt -84.721878 -0.139859
vt -84.721642 -0.139820
vt -84.891571 8.953047
vt -84.891464 8.953314
vt -84.894058 8.955012
vt -84.894257 8.954814
vt -84.731003 -0.140964
vt -84.730751 -0.141122
vt -84.643028 1.203109
vt -84.643326 1.202819
vt -84.640877 1.199205
vt -84.640503 1.199362
vt -84.639938 1.194565
vt -84.639542 1.194623
vt -84.639542 0.499998
vt -84.639938 0.500009
vt -84.639954 -0.194593
vt -84.639542 -0.194617
vt -84.640503 -0.199356
vt -84.640877 -0.199208
vt -84.643326 -0.202815
vt -84.643044 -0.203110
vt -84.647003 -0.205240
vt -84.646843 -0.205616
vt -84.739601 0.810408
vt -84.739845 0.810237
vt -85.573898 1.176924
vt -85.573532 1.176858
vt -85.572205 1.183475
vt -85.572563 1.183624
vt -85.568199 1.189379
vt -85.568489 1.189655
vt -85.562233 1.193318
vt -85.562370 1.193665
vt -84.721878 -0.147022
vt -84.721642 -0.146863
vt -84.713043 -0.144770
vt -84.712799 -0.144611
vt -84.657860 -0.193312
vt -84.657707 -0.193666
vt -84.651619 -0.189644
vt -84.651878 -0.189374
vt -84.647530 -0.183635
vt -84.647888 -0.183486
vt -84.726913 0.802456
vt -84.726913 0.807397
vt -84.726913 0.811279
vt -84.730751 0.811286
vt -84.726913 0.813884
vt -84.730751 0.813876
vt -84.771599 1.192122
vt -84.771599 1.187367
vt -84.767876 1.187375
vt -84.767876 1.192111
vt -84.771599 -0.196979
vt -84.771599 -0.201716
vt -84.767876 -0.201712
vt -84.767876 -0.196956
vt -84.735771 -0.150670
vt -84.735771 -0.148056
vt -84.739601 -0.148047
vt -84.739601 -0.150677
vt -84.735771 -0.144135
vt -84.735771 -0.139179
vt -84.726913 -0.141124
vt -84.726913 -0.136192
vt -84.730751 -0.145020
vt -84.726913 -0.145022
vt -84.730751 -0.147620
vt -84.726921 -0.147618
vt -84.762756 1.191934
vt -84.762756 1.187210
vt -84.759033 1.187206
vt -84.759033 1.191932
vt -84.762749 -0.196809
vt -84.762756 -0.201532
vt -84.759033 -0.201524
vt -84.759033 -0.196796
vt -84.739601 0.816944
vt -84.739601 0.814324
vt -84.735771 0.814323
vt -84.735771 0.816944
vt -84.735771 0.810407
vt -84.735771 0.805441
vt -84.744621 0.484008
vt -84.746574 0.484006
vt -84.746574 0.144146
vt -84.744621 0.144145
vt -84.751694 0.484019
vt -84.753654 0.484008
vt -84.753654 -0.189332
vt -84.751694 -0.189366
vt -84.710754 0.793453
vt -84.710754 -0.137596
vt -84.719604 0.795651
vt -84.719604 -0.139821
vt -84.771599 0.495200
vt -84.771599 0.153537
vt -84.767876 0.153535
vt -84.767876 0.495210
vt -84.762756 0.495197
vt -84.759033 0.495201
vt -84.651695 -0.206165
vt -84.664536 -0.195004
vt -85.555573 -0.195006
vt -85.568382 -0.206166
vt -85.568398 1.206165
vt -85.555573 1.195011
vt -84.664520 1.195011
vt -84.651695 1.206165
vt -84.647003 1.205240
vt -84.719604 -0.146864
vt -84.719604 -0.153139
vt -84.721642 -0.153127
vt -84.744621 1.154967
vt -84.744621 1.161519
vt -84.746574 1.161525
vt -84.746574 1.154950
vt -84.719604 -0.157326
vt -84.721642 -0.157325
vt -84.710754 0.800459
vt -84.710754 0.806706
vt -84.712799 0.806703
vt -84.710754 0.810868
vt -84.712799 0.810870
vt -84.744621 -0.193511
vt -84.744621 -0.186921
vt -84.746574 -0.186933
vt -84.746574 -0.193511
vt -84.719604 0.802702
vt -84.721642 0.808972
vt -84.719604 0.808971
vt -84.751694 1.157372
vt -84.751694 1.163930
vt -84.753654 1.163930
vt -84.753654 1.157359
vt -84.721642 0.813174
vt -84.719604 0.813173
vt -84.710754 -0.144612
vt -84.712799 -0.150857
vt -84.710754 -0.150849
vt -84.712799 -0.155033
vt -84.710754 -0.155025
vt -84.751694 -0.195921
vt -84.753654 -0.195921
vt -85.573898 0.842862
vt -85.573524 0.842864
vt -85.580139 0.842865
vt -85.580551 0.842866
vt -84.771599 0.836863
vt -84.767876 0.836871
vt -84.746574 0.823881
vt -84.744621 0.823881
s 1
usemtl M_LaptopLid_17_1
f 5/1/1 6/2/1 8/3/1 7/4/1
f 117/5/2 118/6/3 119/7/4 120/8/5
f 118/6/3 117/5/2 121/9/6 122/10/7
f 122/11/7 121/12/6 123/13/8 124/14/9
f 124/14/9 123/13/8 125/15/10 126/16/11
f 126/16/11 125/15/10 127/17/12 128/18/13
f 129/19/14 130/20/15 256/21/16 257/22/17
f 132/23/18 131/24/19 133/25/20 134/26/21
f 134/27/21 133/28/20 135/29/22 136/30/23
f 136/31/23 135/32/22 137/33/24 138/34/25
f 138/35/25 137/36/24 139/37/26 140/38/27
f 140/38/27 139/37/26 141/39/28 142/40/29
f 258/41/30 259/42/31 145/43/32 146/44/33
f 144/45/34 143/46/35 147/47/36 148/48/37
f 148/48/37 147/47/36 149/49/38 150/50/39
f 150/50/39 149/49/38 151/51/40 152/52/41
f 152/53/41 151/54/40 153/55/42 154/56/43
f 154/56/43 153/55/42 155/57/44 156/58/45
f 157/59/46 158/60/47 159/61/48 160/62/49
f 162/63/50 161/64/51 163/65/52 164/66/53
f 164/66/53 163/65/52 165/67/54 166/68/55
f 166/68/55 165/67/54 167/69/56 168/70/57
f 168/71/57 167/72/56 169/73/58 170/74/59
f 170/74/59 169/73/58 171/75/60 172/76/61
f 173/77/62 174/78/63 175/79/64 176/80/65
f 174/81/63 173/82/62 120/8/5 119/7/4
f 176/83/65 175/84/64 177/85/66 178/86/67
f 178/86/67 177/85/66 179/87/68 180/88/69
f 181/89/70 182/90/71 183/91/72 184/92/73
f 185/93/74 186/94/75 187/95/76 188/96/77
f 186/94/75 185/93/74 184/92/73 183/91/72
f 188/96/77 187/95/76 189/97/78 190/98/79
f 190/99/79 189/100/78 142/40/29 141/39/28
f 192/101/80 191/102/81 193/103/82 194/104/83
f 194/104/83 193/103/82 195/105/84 196/106/85
f 196/106/85 195/105/84 197/107/86 198/108/87
f 198/109/87 197/110/86 172/76/61 171/75/60
f 199/111/88 200/112/89 156/58/45 155/57/44
f 200/113/89 199/114/88 201/115/90 202/116/91
f 202/116/91 201/115/90 203/117/92 204/118/93
f 204/118/93 203/117/92 160/62/49 159/61/48
f 205/119/94 206/120/95 121/9/6 117/5/2
f 206/120/95 207/121/96 123/122/8 121/9/6
f 207/121/96 208/123/97 125/124/10 123/122/8
f 208/125/97 209/126/98 127/127/12 125/128/10
f 210/129/99 211/130/100 133/131/20 131/132/19
f 211/133/100 212/134/101 135/135/22 133/136/20
f 212/134/101 213/137/102 137/36/24 135/135/22
f 213/137/102 214/138/103 139/37/26 137/36/24
f 120/8/5 173/82/62 215/139/104 216/140/105
f 173/82/62 176/141/65 217/142/106 215/139/104
f 176/141/65 178/143/67 218/144/107 217/142/106
f 178/145/67 180/146/69 219/147/108 218/148/107
f 184/149/73 185/150/74 220/151/109 221/152/110
f 185/153/74 188/154/77 222/155/111 220/156/109
f 188/154/77 190/99/79 223/157/112 222/155/111
f 190/99/79 141/39/28 224/158/113 223/157/112
f 225/159/114 145/160/32 259/161/31 260/162/115
f 158/163/47 227/164/116 228/165/117 159/166/48
f 229/167/118 154/56/43 156/58/45 230/168/119
f 231/169/120 170/74/59 172/76/61 232/170/121
f 233/171/122 255/172/123 256/173/16 130/174/15
f 181/175/70 184/149/73 221/152/110 234/176/124
f 214/138/103 224/158/113 141/39/28 139/37/26
f 216/140/105 205/119/94 117/5/2 120/8/5
f 257/22/17 258/41/30 146/44/33 129/19/14
f 182/90/71 157/59/46 160/62/49 183/91/72
f 142/177/29 155/178/44 153/179/42 140/180/27
f 118/181/3 171/182/60 169/183/58 119/184/4
f 138/34/25 140/180/27 153/179/42 151/51/40
f 136/31/23 138/34/25 151/51/40 149/49/38
f 132/23/18 134/26/21 147/47/36 143/46/35
f 134/26/21 136/31/23 149/49/38 147/47/36
f 174/185/63 119/184/4 169/183/58 167/69/56
f 175/84/64 174/185/63 167/69/56 165/67/54
f 179/87/68 177/85/66 163/65/52 161/64/51
f 177/85/66 175/84/64 165/67/54 163/65/52
f 235/186/125 232/170/121 172/76/61 197/110/86
f 236/187/126 235/186/125 197/110/86 195/188/84
f 238/189/127 237/190/128 193/191/82 191/192/81
f 237/193/128 236/187/126 195/188/84 193/194/82
f 229/167/118 239/195/129 152/53/41 154/56/43
f 239/195/129 240/196/130 150/197/39 152/53/41
f 240/196/130 241/198/131 148/199/37 150/197/39
f 241/200/131 226/201/132 144/202/34 148/203/37
f 118/181/3 122/11/7 198/108/87 171/182/60
f 122/11/7 124/14/9 196/106/85 198/108/87
f 124/14/9 126/16/11 194/104/83 196/106/85
f 126/16/11 128/18/13 192/101/80 194/104/83
f 168/71/57 170/74/59 231/169/120 242/204/133
f 166/205/55 168/71/57 242/204/133 243/206/134
f 162/207/50 164/208/53 244/209/135 245/210/136
f 164/211/53 166/205/55 243/206/134 244/212/135
f 142/177/29 189/97/78 199/114/88 155/178/44
f 189/97/78 187/95/76 201/115/90 199/114/88
f 187/95/76 186/94/75 203/117/92 201/115/90
f 186/94/75 183/91/72 160/62/49 203/117/92
f 156/58/45 200/112/89 246/213/137 230/168/119
f 200/112/89 202/214/91 247/215/138 246/213/137
f 202/214/91 204/216/93 248/217/139 247/215/138
f 204/218/93 159/166/48 228/165/117 248/219/139
f 252/220/140 253/221/141 191/102/81 192/101/80
f 251/222/142 252/220/140 192/101/80 128/18/13
f 128/18/13 127/17/12 250/223/143 251/222/142
f 209/126/98 249/224/122 250/225/143 127/127/12
f 238/189/127 191/192/81 253/226/141 254/227/144
f 180/146/69 181/175/70 234/176/124 219/147/108
f 180/88/69 179/87/68 182/90/71 181/89/70
f 179/87/68 161/64/51 157/59/46 182/90/71
f 161/64/51 162/63/50 158/60/47 157/59/46
f 162/207/50 245/210/136 227/164/116 158/163/47
f 249/224/122 233/171/122 130/174/15 250/225/143
f 251/222/142 250/223/143 130/20/15 129/19/14
f 129/19/14 146/44/33 252/220/140 251/222/142
f 146/44/33 145/43/32 253/221/141 252/220/140
f 254/227/144 253/226/141 145/160/32 225/159/114
f 255/172/123 210/129/99 131/132/19 256/173/16
f 257/22/17 256/21/16 131/24/19 132/23/18
f 132/23/18 143/46/35 258/41/30 257/22/17
f 143/46/35 144/45/34 259/42/31 258/41/30
f 260/162/115 259/161/31 144/202/34 226/201/132
