# Blender 4.1.1
# www.blender.org
mtllib Fp327_TableofficeDesk_327_0_GeomSubset_0.mtl
o Fp327_TableofficeDesk_327_0_GeomSubset_0
v -0.625409 0.259035 0.210731
v -0.625407 -0.175142 0.210731
v -0.625407 -0.175144 0.223687
v -0.625409 0.259035 0.223687
v -0.621387 -0.178114 0.223687
v -0.621387 -0.175144 0.228114
v -0.621387 -0.178114 0.210731
v -0.621387 -0.175142 0.206304
v -0.621389 0.262003 0.210731
v -0.621389 0.259035 0.206304
v -0.621389 0.262003 0.223687
v -0.621389 0.259035 0.228114
v 0.624001 0.262009 0.210731
v 0.624001 0.262009 0.223687
v 0.624001 0.259041 0.206304
v 0.624001 0.259041 0.228114
v 0.624002 -0.175140 0.228114
v 0.624002 -0.178108 0.223687
v 0.624002 -0.178108 0.210731
v 0.628022 -0.175140 0.210731
v 0.628021 0.259037 0.210731
v 0.628021 0.259037 0.223687
v 0.628022 -0.175140 0.223687
v 0.624002 -0.175140 0.206304
v -0.602407 -0.170959 0.205359
v -0.610146 -0.170959 0.205359
v -0.610146 -0.170959 0.158149
v -0.602407 -0.170959 0.158150
v -0.600667 -0.169676 0.205359
v -0.600667 -0.169676 0.158150
v -0.611885 -0.169676 0.158150
v -0.611885 -0.169676 0.205359
v -0.611887 0.253567 0.158150
v -0.611887 0.251390 0.158149
v -0.611887 0.247292 0.205359
v -0.611887 0.253567 0.205359
v -0.611887 0.244701 0.205359
v -0.611887 0.248800 0.158149
v -0.611887 0.200634 0.205359
v -0.611887 0.196535 0.158149
v -0.610147 0.251547 0.156234
v -0.610147 0.249742 0.154482
v -0.611887 0.248287 0.154318
v -0.611887 0.197048 0.154318
v -0.611887 0.200342 0.143228
v -0.611887 0.244995 0.143228
v -0.610147 0.195593 0.154482
v -0.610147 0.193789 0.156234
v -0.611887 0.193943 0.158149
v -0.611887 0.198042 0.205359
v -0.610147 0.246351 0.143064
v -0.610147 0.245832 0.139397
v -0.611887 0.244545 0.139397
v -0.610147 0.198984 0.143064
v -0.611887 0.200790 0.139397
v -0.611887 0.200790 -0.327119
v -0.611887 0.244545 -0.327119
v -0.610147 0.199503 0.139397
v -0.611887 0.200789 -0.330950
v -0.611887 0.244545 -0.330950
v -0.611887 0.200789 -0.341262
v -0.611887 0.244545 -0.341262
v -0.602407 0.253567 0.207275
v -0.610147 0.253567 0.207275
v -0.610147 0.247116 0.207275
v -0.602407 0.247116 0.207275
v -0.610147 0.254850 0.205359
v -0.602407 0.254850 0.205359
v -0.600668 0.253567 0.205359
v -0.600668 0.247292 0.205359
v -0.602407 0.244545 0.207275
v -0.600668 0.244701 0.205359
v -0.602407 0.200790 0.207275
v -0.610147 0.200790 0.207275
v -0.610147 0.244545 0.207275
v -0.600668 0.200634 0.205359
v -0.600668 0.198042 0.205359
v -0.602407 0.198219 0.207275
v -0.602407 -0.169676 0.207274
v -0.610146 -0.169676 0.207274
v -0.610147 0.198219 0.207275
v -0.602407 -0.169676 0.156234
v -0.610146 -0.169676 0.156234
v -0.602407 0.193789 0.156234
v -0.600668 0.193945 0.158149
v -0.602407 0.195593 0.154482
v -0.602407 0.254850 0.158150
v -0.610147 0.254850 0.158149
v -0.600668 0.253567 0.158150
v -0.600668 0.251390 0.158149
v -0.600668 0.248800 0.158149
v -0.602407 0.251547 0.156234
v -0.602407 0.249742 0.154482
v -0.600668 0.248287 0.154318
v -0.600668 0.196535 0.158149
v -0.600668 0.197048 0.154318
v -0.600668 0.244995 0.143228
v -0.600668 0.200342 0.143228
v -0.602407 0.198984 0.143064
v -0.602407 0.199503 0.139397
v -0.600668 0.200790 0.139397
v -0.602407 0.246351 0.143064
v -0.600668 0.244545 0.139397
v -0.600668 0.244545 -0.327119
v -0.600668 0.200790 -0.327119
v -0.602407 0.245832 0.139397
v -0.600668 0.245829 -0.329034
v -0.600668 0.199503 -0.329034
v -0.610147 0.253567 0.156234
v -0.602407 0.253567 0.156234
v -0.602407 0.199503 -0.327119
v -0.610147 0.199503 -0.327119
v -0.602407 0.199503 -0.330950
v -0.610147 0.199503 -0.330950
v -0.602407 0.199503 -0.341262
v -0.610147 0.199503 -0.341262
v -0.602407 0.200789 -0.343177
v -0.600668 0.199503 -0.343177
v -0.610147 0.200789 -0.343177
v -0.610147 0.245832 -0.327119
v -0.602407 0.245832 -0.327119
v -0.610147 0.245832 -0.330950
v -0.602407 0.245832 -0.330950
v -0.610147 0.245829 -0.341262
v -0.602407 0.245829 -0.341262
v -0.610147 0.244545 -0.343177
v -0.602407 0.244545 -0.343177
v -0.600668 0.245829 -0.343177
v -0.598928 0.245832 -0.330950
v -0.550658 0.245832 -0.330950
v -0.550658 0.245832 -0.341262
v -0.598928 0.245829 -0.341262
v -0.598928 0.244545 -0.329034
v -0.598928 0.244545 -0.343177
v -0.550658 0.244545 -0.329034
v -0.550658 0.244545 -0.343177
v -0.548919 0.244545 -0.341262
v -0.598928 0.200789 -0.329034
v -0.550658 0.200790 -0.329034
v -0.550658 0.198219 -0.329034
v -0.598928 0.198219 -0.329034
v -0.550657 -0.105328 -0.329034
v -0.598927 -0.105328 -0.329034
v -0.600667 -0.105328 -0.330950
v -0.600668 0.198219 -0.330950
v -0.548919 0.198219 -0.330950
v -0.548918 -0.105328 -0.330950
v -0.548918 -0.105328 -0.341262
v -0.548919 0.198219 -0.341262
v -0.548919 0.200790 -0.330950
v -0.548919 0.244545 -0.330950
v -0.548919 0.200790 -0.341262
v -0.550658 0.200790 -0.343177
v -0.550658 0.198219 -0.343177
v -0.550657 -0.106615 -0.341262
v -0.550657 -0.106615 -0.330950
v -0.550657 -0.105328 -0.343177
v -0.598928 0.200789 -0.343177
v -0.598928 0.198219 -0.343177
v -0.598927 -0.105328 -0.343177
v -0.600668 0.198219 -0.341262
v -0.600667 -0.105328 -0.341262
v 0.579026 -0.170956 0.205359
v 0.579026 -0.170956 0.158149
v 0.586766 -0.170956 0.158150
v 0.586766 -0.170956 0.205359
v 0.577288 -0.169670 0.158150
v 0.577288 -0.169670 0.205359
v 0.588506 -0.169670 0.205359
v 0.588506 -0.169670 0.158150
v -0.598927 -0.106615 -0.341262
v -0.598927 -0.106615 -0.330950
v 0.579025 0.198221 0.207274
v 0.579026 -0.169670 0.207274
v 0.586767 -0.169670 0.207274
v 0.586765 0.198221 0.207275
v 0.577286 0.198046 0.205359
v 0.579025 0.200792 0.207274
v 0.577286 0.200636 0.205359
v 0.588505 0.198046 0.205359
v 0.586765 0.200792 0.207275
v 0.579025 0.244551 0.207274
v 0.586765 0.244551 0.207275
v 0.588505 0.200636 0.205359
v 0.577286 0.244707 0.205359
v 0.577286 0.247297 0.205359
v 0.579025 0.247122 0.207274
v 0.579025 0.253571 0.207274
v 0.586765 0.247122 0.207275
v 0.586765 0.253571 0.207275
v 0.588504 0.247297 0.205359
v 0.588505 0.244707 0.205359
v 0.579025 0.254856 0.205359
v 0.577286 0.253571 0.205359
v 0.586765 0.254856 0.205359
v 0.588505 0.253571 0.205359
v 0.588505 0.253571 0.158150
v 0.588505 0.251396 0.158149
v 0.588505 0.248804 0.158149
v 0.586765 0.251553 0.156234
v 0.586765 0.249746 0.154482
v 0.588504 0.248293 0.154318
v 0.588505 0.196541 0.158149
v 0.588505 0.197050 0.154318
v 0.588505 0.200344 0.143228
v 0.588505 0.244999 0.143228
v 0.586765 0.195597 0.154482
v 0.586765 0.193794 0.156234
v 0.588505 0.193947 0.158149
v 0.586765 0.246355 0.143064
v 0.586765 0.245834 0.139397
v 0.588505 0.244551 0.139397
v 0.586765 0.198988 0.143064
v 0.588505 0.200792 0.139397
v 0.588505 0.200792 -0.327119
v 0.588505 0.244551 -0.327119
v 0.586765 0.199509 0.139397
v 0.588505 0.244551 -0.330950
v 0.588505 0.200792 -0.330950
v 0.588505 0.200792 -0.341262
v 0.588505 0.244551 -0.341262
v 0.579025 0.254856 0.158149
v 0.586765 0.254856 0.158150
v 0.577286 0.253571 0.158150
v 0.579026 -0.169670 0.156234
v 0.579025 0.193794 0.156234
v 0.586767 -0.169670 0.156234
v 0.577286 0.193947 0.158149
v 0.579025 0.195597 0.154482
v 0.577286 0.251396 0.158149
v 0.577286 0.248804 0.158149
v 0.577286 0.196541 0.158149
v 0.579025 0.251553 0.156234
v 0.579025 0.249746 0.154482
v 0.577286 0.248293 0.154318
v 0.577286 0.197050 0.154318
v 0.577286 0.244999 0.143228
v 0.577286 0.200344 0.143228
v 0.579025 0.198988 0.143064
v 0.579025 0.199509 0.139397
v 0.577286 0.200792 0.139397
v 0.579025 0.246355 0.143064
v 0.577286 0.244551 0.139397
v 0.577286 0.244551 -0.327119
v 0.577286 0.200792 -0.327119
v 0.579025 0.245834 0.139397
v 0.577286 0.199509 -0.329034
v 0.577286 0.245834 -0.329034
v 0.579025 0.253571 0.156234
v 0.586765 0.253571 0.156234
v 0.579025 0.199509 -0.327119
v 0.586765 0.199509 -0.327119
v 0.586765 0.199509 -0.330950
v 0.579025 0.199509 -0.330950
v 0.579025 0.199509 -0.341262
v 0.586765 0.199509 -0.341262
v 0.586765 0.200792 -0.343177
v 0.579025 0.200792 -0.343177
v 0.577286 0.199509 -0.343177
v 0.579025 0.245834 -0.330950
v 0.586765 0.245834 -0.330950
v 0.586765 0.245834 -0.341262
v 0.579025 0.245834 -0.341262
v 0.586765 0.245834 -0.327119
v 0.579025 0.245834 -0.327119
v 0.579025 0.244551 -0.343177
v 0.586765 0.244551 -0.343177
v 0.577286 0.245834 -0.343177
v 0.577286 0.198221 -0.341262
v 0.577286 0.198221 -0.330950
v 0.577288 -0.105326 -0.330950
v 0.577288 -0.105326 -0.341262
v 0.575547 0.200792 -0.329034
v 0.575547 0.244551 -0.329034
v 0.527276 0.244551 -0.329034
v 0.527277 0.200792 -0.329034
v 0.575547 0.198221 -0.329034
v 0.527277 0.198221 -0.329034
v 0.527277 -0.105326 -0.329034
v 0.575548 -0.105326 -0.329034
v 0.525537 0.198221 -0.330950
v 0.525537 0.198221 -0.341262
v 0.525538 -0.105326 -0.341262
v 0.525538 -0.105326 -0.330950
v 0.525537 0.200792 -0.341262
v 0.527277 0.200792 -0.343177
v 0.527277 0.198221 -0.343177
v 0.525537 0.244551 -0.341262
v 0.525537 0.200792 -0.330950
v 0.525537 0.244551 -0.330950
v 0.527276 0.245834 -0.330950
v 0.527276 0.244551 -0.343177
v 0.527276 0.245834 -0.341262
v 0.527277 -0.106609 -0.330950
v 0.527277 -0.106609 -0.341262
v 0.527277 -0.105326 -0.343177
v 0.575547 0.244551 -0.343177
v 0.575547 0.200792 -0.343177
v 0.575547 0.198221 -0.343177
v 0.575548 -0.105326 -0.343177
v 0.575547 0.245834 -0.330950
v 0.575547 0.245834 -0.341262
v 0.575548 -0.106609 -0.341262
v 0.575548 -0.106609 -0.330950
vn 0.9730 0.0200 -0.2299
vn 0.9730 -0.0201 0.2299
vn 0.9745 -0.0227 -0.2233
vn 0.9745 0.0227 0.2233
vn -0.2643 0.9382 -0.2234
vn -0.2666 0.9359 0.2302
vn 0.9394 0.2992 0.1675
vn -0.3120 0.8750 -0.3701
vn 0.5098 0.7014 0.4982
vn 0.8083 0.1225 -0.5759
vn 0.9390 0.2974 -0.1724
vn 0.4902 0.7117 -0.5032
vn -0.3134 0.8718 0.3766
vn 0.8110 0.1244 0.5717
vn 0.9988 -0.0264 -0.0414
vn 0.3227 0.0200 0.9463
vn 0.3163 -0.0227 0.9484
vn -0.2651 -0.9380 0.2234
vn -0.2671 -0.9358 -0.2300
vn 0.9392 -0.3000 -0.1673
vn 0.5456 -0.6822 -0.4867
vn 0.8083 -0.1231 0.5757
vn -0.3121 -0.8751 0.3698
vn 0.9937 0.0791 -0.0797
vn 0.9387 -0.2984 0.1724
vn 0.5260 -0.6926 0.4937
vn -0.3141 -0.8719 -0.3758
vn 0.8110 -0.1254 -0.5715
vn 0.9960 0.0599 0.0667
vn 0.3227 -0.0200 -0.9463
vn 0.3163 0.0227 -0.9484
vn 0.9975 -0.0444 0.0554
vn 0.0089 -0.9850 -0.1723
vn -0.0089 -0.9850 0.1723
vn -0.0104 -0.9859 -0.1671
vn 0.0104 -0.9859 0.1671
vn -0.0165 -0.9520 -0.3056
vn 0.0089 -0.5337 0.8456
vn -0.0104 -0.5298 0.8481
vn 0.0552 -0.9336 -0.3541
vn 0.0411 -0.9402 0.3382
vn -0.0089 -0.5338 -0.8456
vn 0.0104 -0.5299 -0.8480
vn -0.0297 -0.9459 0.3231
vn 0.0411 0.0444 -0.9982
vn -0.0411 -0.0444 -0.9982
vn -0.0297 0.0599 -0.9978
vn 0.0297 -0.0599 -0.9978
vn -0.0410 0.9402 0.3381
vn 0.0297 0.9459 0.3231
vn 0.0089 0.5336 -0.8457
vn -0.0104 0.5296 -0.8482
vn -0.0089 0.9850 -0.1723
vn 0.0089 0.9850 0.1723
vn 0.0104 0.9859 -0.1671
vn -0.0104 0.9859 0.1671
vn -0.9730 -0.0200 -0.2299
vn -0.9730 0.0201 0.2299
vn -0.9745 0.0227 -0.2233
vn -0.9745 -0.0227 0.2233
vn 0.2651 0.9379 0.2235
vn 0.2671 0.9358 -0.2300
vn -0.9392 0.3000 -0.1673
vn -0.5456 0.6822 -0.4867
vn -0.8084 0.1231 0.5757
vn 0.3121 0.8751 0.3698
vn -0.9387 0.2984 0.1724
vn -0.5259 0.6927 0.4936
vn 0.3141 0.8718 -0.3759
vn -0.8109 0.1254 -0.5716
vn -0.9960 -0.0599 0.0667
vn -0.3227 0.0201 -0.9463
vn -0.3163 -0.0227 -0.9484
vn -0.9988 0.0264 -0.0413
vn -0.3227 -0.0200 0.9463
vn -0.3162 0.0228 0.9484
vn -0.9937 -0.0791 -0.0797
vn -0.4901 -0.7112 -0.5040
vn 0.3130 -0.8721 0.3762
vn -0.8114 -0.1246 0.5710
vn -0.9975 0.0444 0.0554
vn -0.5097 -0.7008 0.4990
vn -0.8088 -0.1223 -0.5752
vn 0.3110 -0.8755 -0.3699
vn -0.9395 -0.2989 0.1674
vn 0.2641 -0.9383 -0.2235
vn 0.2662 -0.9360 0.2301
vn -0.9391 -0.2972 -0.1724
vn 0.0165 0.9521 -0.3054
vn -0.0089 0.5335 0.8458
vn 0.0104 0.5298 0.8480
vn -0.0552 0.9337 -0.3537
vn 0.0165 -0.0791 0.9967
vn -0.0165 0.0791 0.9967
vn -0.0551 -0.0265 0.9981
vn 0.0551 0.0265 0.9981
vt 0.370358 0.737415
vt -0.158773 0.748007
vt -0.158773 0.737415
vt 0.370358 0.748007
vt -0.162393 0.748007
vt -0.158773 0.751626
vt -0.162393 0.737415
vt -0.158773 0.733796
vt 0.373977 0.737415
vt 0.370358 0.733796
vt 0.373977 0.748007
vt 0.370358 0.751626
vt 1.381702 0.737415
vt 0.260294 0.748007
vt 0.260294 0.737415
vt 1.381702 0.748007
vt 0.260294 0.733796
vt 1.381702 0.733796
vt 1.381702 0.751626
vt 0.260294 0.751626
vt 0.370358 1.276030
vt -0.158773 0.154622
vt 0.370358 0.154622
vt -0.158773 1.276030
vt -0.162393 1.276030
vt -0.162393 0.154622
s 1
usemtl M_Desk_327_0
f 1/1/1 3/2/2 2/3/3
f 1/1/1 4/4/4 3/2/2
f 2/3/5 3/2/6 5/5/7
f 3/2/8 6/6/9 5/5/10
f 2/3/5 5/5/7 7/7/11
f 8/8/12 2/3/13 7/7/14
f 8/8/15 1/1/16 2/3/17
f 4/4/18 1/1/19 9/9/20
f 10/10/21 9/9/22 1/1/23
f 8/8/15 10/10/24 1/1/16
f 4/4/18 9/9/20 11/11/25
f 12/12/26 4/4/27 11/11/28
f 12/12/29 3/2/30 4/4/31
f 12/12/29 6/6/32 3/2/30
f 13/13/33 11/14/34 9/15/35
f 13/13/33 14/16/36 11/14/34
f 10/17/37 13/13/38 9/15/39
f 10/17/37 15/18/40 13/13/38
f 16/19/41 11/14/42 14/16/43
f 16/19/41 12/20/44 11/14/42
f 16/21/45 6/22/46 12/23/47
f 16/21/45 17/24/48 6/22/46
f 6/22/49 17/24/50 18/25/51
f 6/22/49 18/25/51 5/26/52
f 7/15/53 18/16/54 19/13/55
f 7/15/53 5/14/56 18/16/54
f 20/3/57 22/4/58 21/1/59
f 20/3/57 23/2/60 22/4/58
f 23/2/61 20/3/62 19/7/63
f 24/8/64 19/7/65 20/3/66
f 23/2/61 19/7/63 18/5/67
f 17/6/68 23/2/69 18/5/70
f 17/6/71 22/4/72 23/2/73
f 15/10/74 20/3/75 21/1/76
f 15/10/74 24/8/77 20/3/75
f 15/10/78 21/1/79 13/9/80
f 17/6/71 16/12/81 22/4/72
f 16/12/82 14/11/83 22/4/84
f 14/11/85 21/1/86 22/4/87
f 14/11/85 13/9/88 21/1/86
f 24/24/89 7/26/90 19/25/91
f 24/24/89 8/22/92 7/26/90
f 24/24/93 10/23/94 8/22/95
f 24/24/93 15/21/96 10/23/94
