# Blender 4.1.0
# www.blender.org
mtllib MeshCylinder_123_0_GeomSubset_2.mtl
o MeshCylinder_123_0_GeomSubset_2
v 1.484646 -0.972640 0.310432
v 1.503393 -0.980405 0.310432
v 1.483874 -0.976522 0.310432
v 1.504165 -0.976522 0.310432
v 1.484646 -0.980405 0.310432
v 1.503393 -0.972640 0.310432
v 1.486845 -0.983696 0.310432
v 1.501193 -0.969348 0.310432
v 1.490137 -0.985896 0.310432
v 1.497902 -0.967149 0.310432
v 1.494020 -0.966377 0.310432
v 1.494020 -0.986668 0.310432
v 1.490137 -0.967149 0.310432
v 1.486845 -0.969348 0.310432
v 1.497902 -0.985896 0.310432
v 1.501193 -0.983696 0.310432
v 1.494020 -0.967750 0.245574
v 1.497377 -0.968418 0.245574
v 1.500223 -0.970319 0.245574
v 1.502124 -0.973165 0.245574
v 1.502792 -0.976522 0.245574
v 1.502124 -0.979880 0.245574
v 1.500223 -0.982726 0.245574
v 1.497377 -0.984627 0.245574
v 1.494020 -0.985295 0.245574
v 1.490662 -0.984627 0.245574
v 1.487816 -0.982726 0.245574
v 1.485914 -0.979880 0.245574
v 1.485247 -0.976522 0.245574
v 1.485914 -0.973165 0.245574
v 1.487816 -0.970319 0.245574
v 1.490662 -0.968418 0.245574
v 1.494020 -0.971580 0.250603
v 1.495911 -0.971956 0.250603
v 1.497514 -0.973028 0.250603
v 1.498586 -0.974631 0.250603
v 1.498962 -0.976522 0.250603
v 1.498586 -0.978414 0.250603
v 1.497514 -0.980017 0.250603
v 1.495911 -0.981089 0.250603
v 1.494020 -0.981465 0.250603
v 1.492128 -0.981089 0.250603
v 1.490525 -0.980017 0.250603
v 1.489453 -0.978414 0.250603
v 1.489077 -0.976522 0.250603
v 1.489453 -0.974631 0.250603
v 1.490525 -0.973028 0.250603
v 1.492128 -0.971956 0.250603
v 1.494020 -0.970705 0.296100
v 1.496246 -0.971148 0.296100
v 1.498133 -0.972409 0.296100
v 1.499394 -0.974296 0.296100
v 1.499837 -0.976522 0.296100
v 1.499394 -0.978749 0.296100
v 1.498133 -0.980636 0.296100
v 1.496246 -0.981897 0.296100
v 1.494020 -0.982340 0.296100
v 1.491793 -0.981897 0.296100
v 1.489906 -0.980636 0.296100
v 1.488645 -0.978749 0.296100
v 1.488202 -0.976522 0.296100
v 1.488645 -0.974296 0.296100
v 1.489906 -0.972409 0.296100
v 1.491793 -0.971148 0.296100
v 1.494020 -0.967598 0.299758
v 1.497434 -0.968278 0.299758
v 1.500330 -0.970212 0.299758
v 1.502264 -0.973107 0.299758
v 1.502943 -0.976522 0.299758
v 1.502264 -0.979937 0.299758
v 1.500330 -0.982833 0.299758
v 1.497434 -0.984767 0.299758
v 1.494020 -0.985446 0.299758
v 1.490604 -0.984767 0.299758
v 1.487709 -0.982833 0.299758
v 1.485775 -0.979937 0.299758
v 1.485096 -0.976522 0.299758
v 1.485775 -0.973107 0.299758
v 1.487709 -0.970212 0.299758
v 1.490604 -0.968278 0.299758
v 1.494020 -0.967598 0.309361
v 1.497434 -0.968278 0.309361
v 1.500329 -0.970212 0.309361
v 1.502264 -0.973107 0.309361
v 1.502943 -0.976522 0.309361
v 1.502264 -0.979937 0.309361
v 1.500329 -0.982833 0.309361
v 1.497434 -0.984767 0.309361
v 1.494020 -0.985446 0.309361
v 1.490604 -0.984767 0.309361
v 1.487709 -0.982833 0.309361
v 1.485775 -0.979937 0.309361
v 1.485096 -0.976522 0.309361
v 1.485775 -0.973107 0.309361
v 1.487709 -0.970212 0.309361
v 1.490604 -0.968278 0.309361
v 1.494020 -0.966587 0.309361
v 1.497822 -0.967343 0.309361
v 1.501045 -0.969497 0.309361
v 1.503199 -0.972720 0.309361
v 1.503955 -0.976522 0.309361
v 1.503199 -0.980325 0.309361
v 1.501045 -0.983548 0.309361
v 1.497822 -0.985702 0.309361
v 1.494020 -0.986458 0.309361
v 1.490217 -0.985702 0.309361
v 1.486994 -0.983548 0.309361
v 1.484840 -0.980325 0.309361
v 1.484084 -0.976522 0.309361
v 1.484840 -0.972720 0.309361
v 1.486994 -0.969497 0.309361
v 1.490217 -0.967343 0.309361
v 1.494020 -0.966587 0.311504
v 1.497822 -0.967343 0.311504
v 1.501045 -0.969497 0.311504
v 1.503199 -0.972720 0.311504
v 1.503955 -0.976522 0.311504
v 1.503199 -0.980325 0.311504
v 1.501045 -0.983548 0.311504
v 1.497822 -0.985702 0.311504
v 1.494020 -0.986458 0.311504
v 1.490217 -0.985702 0.311504
v 1.486994 -0.983548 0.311504
v 1.484840 -0.980325 0.311504
v 1.484084 -0.976522 0.311504
v 1.484840 -0.972720 0.311504
v 1.486994 -0.969497 0.311504
v 1.490217 -0.967343 0.311504
v 1.494020 -0.968726 0.299845
v 1.497003 -0.969319 0.299845
v 1.499532 -0.971009 0.299845
v 1.501223 -0.973539 0.299845
v 1.501816 -0.976522 0.299845
v 1.501223 -0.979506 0.299845
v 1.499532 -0.982035 0.299845
v 1.497003 -0.983726 0.299845
v 1.494020 -0.984319 0.299845
v 1.491036 -0.983726 0.299845
v 1.488506 -0.982035 0.299845
v 1.486816 -0.979506 0.299845
v 1.486223 -0.976522 0.299845
v 1.486816 -0.973539 0.299845
v 1.488506 -0.971009 0.299845
v 1.491036 -0.969319 0.299845
v 1.494026 -0.968726 0.300501
v 1.497010 -0.969319 0.300501
v 1.499539 -0.971009 0.300501
v 1.501229 -0.973539 0.300501
v 1.501822 -0.976522 0.300501
v 1.501229 -0.979506 0.300501
v 1.499539 -0.982035 0.300501
v 1.497010 -0.983726 0.300501
v 1.494026 -0.984319 0.300501
v 1.491042 -0.983726 0.300501
v 1.488512 -0.982035 0.300501
v 1.486822 -0.979506 0.300501
v 1.486229 -0.976522 0.300501
v 1.486822 -0.973539 0.300501
v 1.488512 -0.971009 0.300501
v 1.491042 -0.969319 0.300501
v 1.494027 -0.973316 0.394678
v 1.495252 -0.973560 0.394842
v 1.496290 -0.974255 0.394980
v 1.496984 -0.975295 0.395073
v 1.497227 -0.976522 0.395105
v 1.496984 -0.977750 0.395073
v 1.496290 -0.978790 0.394980
v 1.495252 -0.979485 0.394842
v 1.494027 -0.979729 0.394678
v 1.492802 -0.979485 0.394515
v 1.491764 -0.978790 0.394377
v 1.491070 -0.977750 0.394284
v 1.490827 -0.976522 0.394252
v 1.491070 -0.975295 0.394284
v 1.491764 -0.974255 0.394377
v 1.492802 -0.973560 0.394515
v 1.494084 -0.974301 0.392797
v 1.494933 -0.974470 0.392910
v 1.495652 -0.974951 0.393006
v 1.496132 -0.975672 0.393070
v 1.496301 -0.976522 0.393093
v 1.496132 -0.977373 0.393070
v 1.495652 -0.978093 0.393006
v 1.494933 -0.978575 0.392910
v 1.494084 -0.978744 0.392797
v 1.493236 -0.978575 0.392684
v 1.492517 -0.978093 0.392588
v 1.492036 -0.977373 0.392524
v 1.491867 -0.976522 0.392501
v 1.492036 -0.975672 0.392524
v 1.492517 -0.974951 0.392588
v 1.493236 -0.974470 0.392684
v 1.492934 -0.973808 0.393588
v 1.494056 -0.973584 0.393738
v 1.494056 -0.979460 0.393738
v 1.492934 -0.979237 0.393588
v 1.495178 -0.973808 0.393887
v 1.496129 -0.974445 0.394014
v 1.491982 -0.978600 0.393461
v 1.496764 -0.975398 0.394099
v 1.491346 -0.977647 0.393376
v 1.496988 -0.976522 0.394129
v 1.491123 -0.976522 0.393347
v 1.496764 -0.977647 0.394099
v 1.491346 -0.975398 0.393376
v 1.496129 -0.978600 0.394014
v 1.491982 -0.974445 0.393461
v 1.495178 -0.979237 0.393887
v 1.494172 -0.976121 0.392797
v 1.494325 -0.976152 0.392808
v 1.494455 -0.976239 0.392817
v 1.494542 -0.976369 0.392823
v 1.494572 -0.976522 0.392825
v 1.494542 -0.976676 0.392823
v 1.494455 -0.976806 0.392817
v 1.494325 -0.976893 0.392808
v 1.494172 -0.976924 0.392797
v 1.494019 -0.976893 0.392787
v 1.493889 -0.976806 0.392777
v 1.493802 -0.976676 0.392772
v 1.493772 -0.976522 0.392769
v 1.493802 -0.976369 0.392772
v 1.493889 -0.976239 0.392777
v 1.494019 -0.976152 0.392787
v 1.493807 -0.976121 0.399006
v 1.493960 -0.976152 0.399017
v 1.494090 -0.976239 0.399026
v 1.494177 -0.976369 0.399032
v 1.494208 -0.976522 0.399034
v 1.494177 -0.976676 0.399032
v 1.494090 -0.976806 0.399026
v 1.493960 -0.976893 0.399017
v 1.493807 -0.976924 0.399006
v 1.493654 -0.976893 0.398996
v 1.493524 -0.976806 0.398987
v 1.493437 -0.976676 0.398981
v 1.493407 -0.976522 0.398979
v 1.493437 -0.976369 0.398981
v 1.493524 -0.976239 0.398987
v 1.493654 -0.976152 0.398996
v 1.496491 -0.970530 0.396362
v 1.496593 -0.970282 0.395914
v 1.494027 -0.969767 0.395259
v 1.494027 -0.970037 0.395743
v 1.498581 -0.971935 0.396886
v 1.498769 -0.971746 0.396470
v 1.499978 -0.974040 0.397237
v 1.500222 -0.973937 0.396842
v 1.500468 -0.976522 0.397360
v 1.500733 -0.976522 0.396972
v 1.499978 -0.979005 0.397237
v 1.500222 -0.979107 0.396842
v 1.498581 -0.981109 0.396886
v 1.498769 -0.981299 0.396470
v 1.496491 -0.982515 0.396362
v 1.496593 -0.982763 0.395914
v 1.494027 -0.983008 0.395743
v 1.494027 -0.983277 0.395259
v 1.491563 -0.982513 0.395125
v 1.491461 -0.982763 0.394603
v 1.489475 -0.981107 0.394601
v 1.489285 -0.981299 0.394047
v 1.488080 -0.979004 0.394251
v 1.487832 -0.979107 0.393676
v 1.487590 -0.976522 0.394128
v 1.487321 -0.976522 0.393545
v 1.488080 -0.974041 0.394251
v 1.487832 -0.973937 0.393676
v 1.489475 -0.971937 0.394601
v 1.489285 -0.971746 0.394047
v 1.491563 -0.970531 0.395125
v 1.491461 -0.970282 0.394603
v 1.494020 -0.955793 0.237256
v 1.494020 -0.956341 0.237886
v 1.501742 -0.957877 0.237886
v 1.501952 -0.957371 0.237256
v 1.508290 -0.962252 0.237886
v 1.508678 -0.961864 0.237256
v 1.512665 -0.968799 0.237886
v 1.513171 -0.968589 0.237256
v 1.514201 -0.976522 0.237886
v 1.514749 -0.976522 0.237256
v 1.512665 -0.984245 0.237886
v 1.513171 -0.984455 0.237256
v 1.508290 -0.990793 0.237886
v 1.508678 -0.991180 0.237256
v 1.501742 -0.995168 0.237886
v 1.501952 -0.995674 0.237256
v 1.494020 -0.996704 0.237886
v 1.494020 -0.997252 0.237256
v 1.486296 -0.995168 0.237886
v 1.486087 -0.995674 0.237256
v 1.479749 -0.990793 0.237886
v 1.479361 -0.991180 0.237256
v 1.475374 -0.984245 0.237886
v 1.474868 -0.984455 0.237256
v 1.473838 -0.976522 0.237886
v 1.473290 -0.976522 0.237256
v 1.475374 -0.968799 0.237886
v 1.474868 -0.968589 0.237256
v 1.479749 -0.962252 0.237886
v 1.479361 -0.961864 0.237256
v 1.486296 -0.957877 0.237886
v 1.486087 -0.957371 0.237256
v 1.494020 -0.956066 0.233721
v 1.494020 -0.955793 0.233989
v 1.501952 -0.957371 0.233989
v 1.501848 -0.957623 0.233721
v 1.508678 -0.961864 0.233989
v 1.508484 -0.962057 0.233721
v 1.513171 -0.968589 0.233989
v 1.512919 -0.968694 0.233721
v 1.514749 -0.976522 0.233989
v 1.514476 -0.976522 0.233721
v 1.513171 -0.984455 0.233989
v 1.512919 -0.984351 0.233721
v 1.508678 -0.991180 0.233989
v 1.508484 -0.990987 0.233721
v 1.501952 -0.995674 0.233989
v 1.501848 -0.995422 0.233721
v 1.494020 -0.997252 0.233989
v 1.494020 -0.996979 0.233721
v 1.486087 -0.995674 0.233989
v 1.486191 -0.995422 0.233721
v 1.479361 -0.991180 0.233989
v 1.479555 -0.990987 0.233721
v 1.474868 -0.984455 0.233989
v 1.475120 -0.984351 0.233721
v 1.473290 -0.976522 0.233989
v 1.473563 -0.976522 0.233721
v 1.474868 -0.968589 0.233989
v 1.475120 -0.968694 0.233721
v 1.479361 -0.961864 0.233989
v 1.479555 -0.962057 0.233721
v 1.486087 -0.957371 0.233989
v 1.486191 -0.957623 0.233721
v 1.494020 -0.970064 0.240028
v 1.494020 -0.970274 0.240423
v 1.496410 -0.970750 0.240423
v 1.496491 -0.970555 0.240028
v 1.498437 -0.972104 0.240423
v 1.498586 -0.971955 0.240028
v 1.499792 -0.974131 0.240423
v 1.499987 -0.974051 0.240028
v 1.500268 -0.976522 0.240423
v 1.500478 -0.976522 0.240028
v 1.499792 -0.978913 0.240423
v 1.499987 -0.978994 0.240028
v 1.498437 -0.980940 0.240423
v 1.498586 -0.981089 0.240028
v 1.496410 -0.982295 0.240423
v 1.496491 -0.982490 0.240028
v 1.494020 -0.982770 0.240423
v 1.494020 -0.982981 0.240028
v 1.491628 -0.982295 0.240423
v 1.491548 -0.982490 0.240028
v 1.489602 -0.980940 0.240423
v 1.489452 -0.981089 0.240028
v 1.488247 -0.978913 0.240423
v 1.488052 -0.978994 0.240028
v 1.487772 -0.976522 0.240423
v 1.487561 -0.976522 0.240028
v 1.488247 -0.974131 0.240423
v 1.488052 -0.974051 0.240028
v 1.489602 -0.972104 0.240423
v 1.489452 -0.971955 0.240028
v 1.491628 -0.970750 0.240423
v 1.491548 -0.970555 0.240028
v 1.494020 -0.968441 0.311504
v 1.494020 -0.968726 0.310920
v 1.497003 -0.969319 0.310920
v 1.497112 -0.969056 0.311504
v 1.499532 -0.971009 0.310920
v 1.499734 -0.970808 0.311504
v 1.501223 -0.973539 0.310920
v 1.501486 -0.973430 0.311504
v 1.501816 -0.976522 0.310920
v 1.502101 -0.976522 0.311504
v 1.501223 -0.979506 0.310920
v 1.501486 -0.979615 0.311504
v 1.499532 -0.982035 0.310920
v 1.499734 -0.982237 0.311504
v 1.497003 -0.983726 0.310920
v 1.497112 -0.983989 0.311504
v 1.494020 -0.984319 0.310920
v 1.494020 -0.984604 0.311504
v 1.491036 -0.983726 0.310920
v 1.490927 -0.983989 0.311504
v 1.488506 -0.982035 0.310920
v 1.488305 -0.982237 0.311504
v 1.486816 -0.979506 0.310920
v 1.486553 -0.979615 0.311504
v 1.486223 -0.976522 0.310920
v 1.485938 -0.976522 0.311504
v 1.486816 -0.973539 0.310920
v 1.486553 -0.973430 0.311504
v 1.488506 -0.971009 0.310920
v 1.488305 -0.970808 0.311504
v 1.491036 -0.969319 0.310920
v 1.490927 -0.969056 0.311504
v 1.498768 -0.971747 0.396059
v 1.496593 -0.970283 0.395508
v 1.494027 -0.969769 0.394858
v 1.491461 -0.970283 0.394208
v 1.500221 -0.973938 0.396427
v 1.500731 -0.976522 0.396556
v 1.500221 -0.979107 0.396427
v 1.498768 -0.981298 0.396059
v 1.496593 -0.982761 0.395508
v 1.494027 -0.983276 0.394858
v 1.491461 -0.982761 0.394208
v 1.489286 -0.981297 0.393657
v 1.487833 -0.979107 0.393289
v 1.487323 -0.976522 0.393160
v 1.487833 -0.973938 0.393289
v 1.489286 -0.971747 0.393657
v 1.499570 -0.970969 0.313247
v 1.501270 -0.973517 0.313348
v 1.501866 -0.976522 0.313383
v 1.501270 -0.979528 0.313348
v 1.499570 -0.982076 0.313247
v 1.497026 -0.983779 0.313095
v 1.494026 -0.984377 0.312917
v 1.491025 -0.983779 0.312738
v 1.488481 -0.982076 0.312587
v 1.486782 -0.979528 0.312486
v 1.486185 -0.976522 0.312450
v 1.486782 -0.973517 0.312486
v 1.488481 -0.970969 0.312587
v 1.497026 -0.969266 0.313095
v 1.494026 -0.968668 0.312917
v 1.491025 -0.969266 0.312738
v 1.494020 -0.960362 0.263689
v 1.494020 -0.960535 0.264212
v 1.500137 -0.961752 0.264213
v 1.500204 -0.961592 0.263689
v 1.505324 -0.965218 0.264212
v 1.505446 -0.965095 0.263689
v 1.508790 -0.970404 0.264213
v 1.508950 -0.970338 0.263689
v 1.510007 -0.976522 0.264213
v 1.510180 -0.976522 0.263689
v 1.508790 -0.982640 0.264213
v 1.508950 -0.982707 0.263689
v 1.505324 -0.987827 0.264213
v 1.505446 -0.987949 0.263689
v 1.500137 -0.991293 0.264213
v 1.500204 -0.991453 0.263689
v 1.494020 -0.992510 0.264213
v 1.494020 -0.992683 0.263689
v 1.487901 -0.991293 0.264212
v 1.487835 -0.991453 0.263689
v 1.482715 -0.987827 0.264213
v 1.482592 -0.987949 0.263689
v 1.479249 -0.982640 0.264213
v 1.479089 -0.982707 0.263689
v 1.478032 -0.976522 0.264212
v 1.477859 -0.976522 0.263689
v 1.479249 -0.970404 0.264213
v 1.479089 -0.970338 0.263689
v 1.482715 -0.965218 0.264213
v 1.482592 -0.965095 0.263689
v 1.487901 -0.961752 0.264213
v 1.487835 -0.961592 0.263689
v 1.494020 -0.960572 0.259465
v 1.494020 -0.960362 0.259900
v 1.500204 -0.961592 0.259900
v 1.500124 -0.961786 0.259465
v 1.505446 -0.965095 0.259900
v 1.505298 -0.965244 0.259465
v 1.508950 -0.970338 0.259900
v 1.508756 -0.970418 0.259465
v 1.510180 -0.976522 0.259900
v 1.509970 -0.976522 0.259465
v 1.508950 -0.982707 0.259900
v 1.508756 -0.982626 0.259465
v 1.505446 -0.987949 0.259900
v 1.505298 -0.987801 0.259465
v 1.500204 -0.991453 0.259900
v 1.500124 -0.991259 0.259465
v 1.494020 -0.992683 0.259900
v 1.494020 -0.992473 0.259465
v 1.487835 -0.991453 0.259900
v 1.487916 -0.991259 0.259465
v 1.482592 -0.987949 0.259900
v 1.482740 -0.987801 0.259465
v 1.479089 -0.982707 0.259900
v 1.479283 -0.982626 0.259465
v 1.477859 -0.976522 0.259900
v 1.478069 -0.976522 0.259465
v 1.479089 -0.970338 0.259900
v 1.479283 -0.970418 0.259465
v 1.482592 -0.965095 0.259900
v 1.482740 -0.965244 0.259465
v 1.487835 -0.961592 0.259900
v 1.487916 -0.961786 0.259465
v 1.494020 -0.964727 0.282177
v 1.494020 -0.964720 0.283049
v 1.498536 -0.965619 0.283049
v 1.498533 -0.965625 0.282177
v 1.502365 -0.968177 0.283049
v 1.502360 -0.968182 0.282177
v 1.504923 -0.972006 0.283049
v 1.504917 -0.972009 0.282177
v 1.505821 -0.976522 0.283049
v 1.505815 -0.976522 0.282177
v 1.504923 -0.981039 0.283049
v 1.504917 -0.981036 0.282177
v 1.502365 -0.984868 0.283049
v 1.502360 -0.984863 0.282177
v 1.498536 -0.987426 0.283049
v 1.498533 -0.987420 0.282177
v 1.494020 -0.988325 0.283049
v 1.494020 -0.988318 0.282177
v 1.489503 -0.987426 0.283049
v 1.489505 -0.987420 0.282177
v 1.485674 -0.984868 0.283049
v 1.485679 -0.984863 0.282177
v 1.483116 -0.981039 0.283049
v 1.483122 -0.981036 0.282177
v 1.482217 -0.976522 0.283049
v 1.482224 -0.976522 0.282177
v 1.483116 -0.972006 0.283049
v 1.483122 -0.972008 0.282177
v 1.485674 -0.968177 0.283049
v 1.485679 -0.968182 0.282177
v 1.489503 -0.965619 0.283049
v 1.489505 -0.965625 0.282177
v 1.494020 -0.968421 0.274896
v 1.494020 -0.968467 0.275723
v 1.497102 -0.969081 0.275723
v 1.497120 -0.969038 0.274896
v 1.499715 -0.970827 0.275723
v 1.499748 -0.970794 0.274896
v 1.501461 -0.973440 0.275723
v 1.501504 -0.973422 0.274896
v 1.502074 -0.976522 0.275723
v 1.502120 -0.976522 0.274896
v 1.501461 -0.979605 0.275723
v 1.501504 -0.979623 0.274896
v 1.499715 -0.982218 0.275723
v 1.499748 -0.982251 0.274896
v 1.497102 -0.983964 0.275723
v 1.497120 -0.984007 0.274896
v 1.494020 -0.984577 0.275723
v 1.494020 -0.984624 0.274896
v 1.490937 -0.983964 0.275723
v 1.490919 -0.984007 0.274896
v 1.488324 -0.982218 0.275723
v 1.488291 -0.982251 0.274896
v 1.486578 -0.979605 0.275723
v 1.486535 -0.979623 0.274896
v 1.485965 -0.976522 0.275723
v 1.485918 -0.976522 0.274896
v 1.486578 -0.973440 0.275723
v 1.486535 -0.973422 0.274896
v 1.488324 -0.970827 0.275723
v 1.488291 -0.970794 0.274896
v 1.490937 -0.969081 0.275723
v 1.490919 -0.969038 0.274896
v 1.494020 -0.972559 0.289316
v 1.494020 -0.972548 0.290068
v 1.495540 -0.972851 0.290068
v 1.495536 -0.972861 0.289316
v 1.496830 -0.973712 0.290068
v 1.496822 -0.973720 0.289316
v 1.497691 -0.975002 0.290068
v 1.497681 -0.975006 0.289316
v 1.497993 -0.976522 0.290068
v 1.497983 -0.976522 0.289316
v 1.497691 -0.978043 0.290068
v 1.497681 -0.978039 0.289316
v 1.496830 -0.979333 0.290068
v 1.496822 -0.979325 0.289316
v 1.495540 -0.980194 0.290068
v 1.495536 -0.980184 0.289316
v 1.494020 -0.980496 0.290068
v 1.494020 -0.980486 0.289316
v 1.492498 -0.980194 0.290068
v 1.492503 -0.980184 0.289316
v 1.491209 -0.979333 0.290068
v 1.491217 -0.979325 0.289316
v 1.490348 -0.978043 0.290068
v 1.490358 -0.978039 0.289316
v 1.490045 -0.976522 0.290068
v 1.490056 -0.976522 0.289316
v 1.490348 -0.975002 0.290068
v 1.490358 -0.975006 0.289316
v 1.491209 -0.973712 0.290068
v 1.491217 -0.973720 0.289316
v 1.492498 -0.972851 0.290068
v 1.492503 -0.972861 0.289316
v 1.497491 -0.968141 0.298196
v 1.497452 -0.968236 0.297858
v 1.500362 -0.970180 0.297858
v 1.500434 -0.970108 0.298196
v 1.490548 -0.984904 0.298196
v 1.490587 -0.984809 0.297858
v 1.487677 -0.982865 0.297858
v 1.487605 -0.982937 0.298196
v 1.502306 -0.973090 0.297858
v 1.502401 -0.973051 0.298196
v 1.485732 -0.979955 0.297858
v 1.485638 -0.979994 0.298196
v 1.502989 -0.976522 0.297858
v 1.503091 -0.976522 0.298196
v 1.485050 -0.976522 0.297858
v 1.484947 -0.976522 0.298196
v 1.502306 -0.979955 0.297858
v 1.502401 -0.979994 0.298196
v 1.485732 -0.973090 0.297858
v 1.485638 -0.973051 0.298196
v 1.500362 -0.982865 0.297858
v 1.500434 -0.982937 0.298196
v 1.487677 -0.970180 0.297858
v 1.487605 -0.970108 0.298196
v 1.497452 -0.984809 0.297858
v 1.497491 -0.984904 0.298196
v 1.490587 -0.968235 0.297858
v 1.490548 -0.968141 0.298196
v 1.494020 -0.985492 0.297858
v 1.494020 -0.985594 0.298196
v 1.494020 -0.967451 0.298196
v 1.494020 -0.967553 0.297858
vn -0.1946 -0.2208 0.9557
vn -0.0754 -0.2439 0.9669
vn -0.0174 -0.9630 0.2690
vn -0.3913 -0.8870 0.2450
vn 0.3503 0.8898 0.2924
vn -0.0174 0.9630 0.2690
vn -0.3857 0.8894 0.2454
vn -0.6967 0.6808 0.2261
vn -0.9054 0.3678 0.2120
vn -0.9780 -0.0000 0.2084
vn -0.9048 -0.3692 0.2121
vn -0.6968 -0.6807 0.2261
vn 0.3501 -0.8899 0.2923
vn 0.6620 -0.6814 0.3122
vn 0.8703 -0.3699 0.3252
vn 0.9440 -0.0001 0.3299
vn 0.8705 0.3693 0.3253
vn 0.6622 0.6813 0.3121
vn 0.0752 0.1720 0.9822
vn -0.0022 0.2236 0.9747
vn -0.2625 -0.1746 0.9490
vn 0.1271 0.0945 0.9874
vn -0.3167 -0.0954 0.9437
vn 0.1448 0.0002 0.9895
vn -0.3359 -0.0000 0.9419
vn 0.1271 -0.0946 0.9874
vn -0.3181 0.0917 0.9436
vn 0.0710 -0.1759 0.9818
vn -0.2622 0.1749 0.9490
vn -0.0021 -0.2236 0.9747
vn -0.1834 0.2260 0.9567
vn -0.1050 0.2423 0.9645
vt 0.490551 0.974165
vt 0.494246 0.974420
vt 0.485450 1.124189
vt 0.481755 1.123934
vt 0.489145 0.555890
vt 0.485450 0.556627
vt 0.481755 0.555890
vt 0.478623 0.553793
vt 0.476530 0.550654
vt 0.475795 0.546952
vt 0.476530 0.543250
vt 0.478623 0.540111
vt 0.481755 0.538014
vt 0.485450 0.537277
vt 0.489145 0.538014
vt 0.492277 0.540111
vt 0.494370 0.543250
vt 0.495105 0.546952
vt 0.494370 0.550654
vt 0.492277 0.553793
vt 0.501073 0.974893
vt 0.497941 0.974676
vt 0.489145 1.124445
vt 0.492277 1.124661
vt 0.487419 0.973948
vt 0.478623 1.123717
vt 0.550654 0.975037
vt 0.553793 0.974893
vt 0.553793 1.124661
vt 0.550654 1.124806
vt 0.543250 0.973804
vt 0.540111 0.973948
vt 0.540111 1.123717
vt 0.543250 1.123572
vt 0.546952 0.975088
vt 0.546952 1.124857
vt 0.546952 0.973752
vt 0.546952 1.123521
vt 0.543250 0.975037
vt 0.543250 1.124806
vt 0.550654 0.973804
vt 0.550654 1.123572
vt 0.540111 0.974893
vt 0.540111 1.124661
vt 0.553793 0.973948
vt 0.553793 1.123717
s 1
usemtl M_Cylinder_123_2
f 218/1/1 217/2/2 233/3/3 234/4/4
f 226/5/5 225/6/6 240/7/7 239/8/8 238/9/9 237/10/10 236/11/11 235/12/12 234/13/4 233/14/3 232/15/13 231/16/14 230/17/15 229/18/16 228/19/17 227/20/18
f 211/21/19 210/22/20 226/23/5 227/24/18
f 219/25/21 218/1/1 234/4/4 235/26/12
f 212/27/22 211/28/19 227/29/18 228/30/17
f 220/31/23 219/32/21 235/33/12 236/34/11
f 213/35/24 212/27/22 228/30/17 229/36/16
f 221/37/25 220/31/23 236/34/11 237/38/10
f 214/39/26 213/35/24 229/36/16 230/40/15
f 222/41/27 221/37/25 237/38/10 238/42/9
f 215/43/28 214/39/26 230/40/15 231/44/14
f 223/45/29 222/41/27 238/42/9 239/46/8
f 216/22/30 215/21/28 231/24/14 232/23/13
f 224/1/31 223/25/29 239/26/8 240/4/7
f 217/2/2 216/22/30 232/23/13 233/3/3
f 210/22/20 209/2/32 225/3/6 226/23/5
f 209/2/32 224/1/31 240/4/7 225/3/6
