# Blender 4.1.1
# www.blender.org
mtllib MeshCountertopC_10X10_0_GeomSubset_1.mtl
o MeshCountertopC_10X10_0_GeomSubset_1
v 1.523137 1.534778 0.418626
v 1.523137 1.534778 0.388627
v 0.913533 0.925179 0.418626
v 0.913533 0.925179 0.388626
v -1.524867 1.534778 0.418626
v -0.915265 0.925179 0.418626
v -0.915265 0.925179 0.388626
v 1.523137 -1.513222 0.418626
v 1.523137 -1.513222 0.388626
v 0.913531 -1.533222 0.388626
v 0.913531 -1.533222 0.418626
v 0.933534 0.945183 0.388626
v -0.935262 0.945183 0.388626
v 0.933534 -1.513222 0.388626
v 0.933534 -1.513222 0.418626
v 0.933534 0.945183 0.418626
v -0.935262 0.945183 0.418626
v 0.933534 0.945183 -0.437404
v -0.935262 0.945183 -0.437404
v 0.933534 -1.513222 -0.437404
v 0.952497 0.964144 -0.437143
v -0.954226 0.964144 -0.437143
v 0.952497 0.964144 -0.517143
v -0.954226 0.964144 -0.517143
v -1.524867 1.534778 -0.517404
v 1.523137 1.534778 -0.517404
v -1.524867 1.534778 0.388626
v -1.524867 -1.513222 0.418626
v -1.524867 -1.513222 0.388626
v -0.915267 -1.533222 0.388626
v -0.915267 -1.533222 0.418626
v -0.935262 -1.513222 0.388626
v -0.935262 -1.513222 0.418626
v -0.935262 -1.513222 -0.437404
v 1.523137 -1.513222 -0.437274
v -1.524867 -1.513222 -0.437274
v 0.953534 -1.483221 -0.437274
v 1.523137 -1.483222 -0.437274
v 1.523137 -1.483222 -0.517404
v 0.953534 -1.483221 -0.517274
v -0.955262 -1.483221 -0.437274
v -0.955262 -1.483221 -0.517274
v -1.524867 -1.483222 -0.517404
v -1.524867 -1.483222 -0.437274
v 1.523137 -1.533222 0.418626
v 1.523137 -1.533222 0.388626
v -1.524867 -1.533222 0.418626
v -1.524867 -1.533222 0.388626
vn -0.0000 1.0000 -0.0000
vn 1.0000 -0.0000 -0.0000
vn 0.0042 -0.0080 1.0000
vn -0.0044 -0.0078 1.0000
vn 0.0044 -0.0077 1.0000
vn -0.0002 0.0002 1.0000
vn 0.0002 0.0002 1.0000
vn -1.0000 -0.0000 -0.0000
vn -0.0000 -1.0000 -0.0000
vn -0.0013 -0.0019 1.0000
vn -0.0001 -0.0021 1.0000
vn -0.0032 -0.0015 1.0000
vn 0.0001 -0.0021 1.0000
vn 0.0015 -0.0019 1.0000
vn 0.0032 -0.0015 1.0000
vn -1.0000 0.0004 -0.0000
vn -0.0004 -0.0000 1.0000
vn 0.0004 -0.0000 1.0000
vn 1.0000 0.0004 -0.0000
vt -18.901369 0.554770
vt -20.361364 0.554769
vt -20.361364 -0.090567
vt -18.901369 -0.090569
vt -18.717144 0.881294
vt -20.637772 0.881294
vt -20.637772 0.235954
vt -18.717144 0.235954
vt -19.227186 0.345617
vt -19.872522 0.345617
vt -19.872522 -0.115009
vt -18.889511 0.340313
vt -20.379152 0.340313
vt -20.379152 0.277811
vt -18.889511 0.277811
vt -19.440437 0.003225
vt -19.885447 0.003225
vt -19.885447 -0.059376
vt -19.440437 -0.059273
vt -18.512995 -0.793633
vt -19.973061 -0.793633
vt -19.987873 -0.808449
vt -18.498180 -0.808449
vt -18.498215 0.627058
vt -19.987839 0.627058
vt -20.433653 0.181248
vt -18.052402 0.181248
vt -20.637772 0.746014
vt -20.637772 0.100679
vt -18.717142 0.100679
vt -18.717142 0.746014
vt -19.227184 -0.213322
vt -19.872522 0.247305
vt -19.872522 -0.213322
vt -19.227285 0.247305
vt -18.052402 0.267450
vt -18.052402 0.975285
vt -20.433653 0.975285
vt -20.433653 0.267450
vt -19.227287 -0.115009
vt -19.885447 0.022909
vt -19.885447 -0.039589
vt -19.440437 -0.039688
vt -19.440437 0.022909
vt -19.973061 1.127085
vt -20.433708 1.127085
vt -20.433708 1.103645
vt -19.988686 1.103645
vt -18.052347 1.127085
vt -18.512995 1.127085
vt -18.497370 1.103645
vt -18.052347 1.103645
vt -20.632601 0.377676
vt -20.632601 0.315178
vt -18.720587 0.315077
vt -18.720587 0.377575
vt -18.988100 0.546381
vt -18.542290 0.992193
vt -20.900110 0.992193
vt -20.900108 0.547192
vt -18.052402 0.415571
vt -18.052402 1.123405
vt -20.410215 0.478170
vt -20.410215 0.415571
vt -20.433653 1.123405
vt -20.433653 0.478170
vt -18.532921 1.244772
vt -20.914171 1.244772
vt -18.556358 0.599537
vt -18.532921 0.599537
vt -20.914171 0.536938
vt -18.556358 0.536938
vt -18.542295 0.451031
vt -18.988104 0.896843
vt -20.900105 0.896032
vt -20.900108 0.451031
vt -18.720585 0.296515
vt -18.720585 0.359013
vt -20.632603 0.358913
vt -20.632603 0.296413
s 1
usemtl M_CountertopC_10X10_1
f 13/1/1 12/2/1 18/3/1 19/4/1
f 12/5/2 14/6/2 20/7/2 18/8/2
f 20/9/1 14/10/1 9/11/1
f 22/12/1 21/13/1 23/14/1 24/15/1
f 37/16/1 38/17/1 39/18/1 40/19/1
f 19/20/3 18/21/4 21/22/4 22/23/5
f 24/24/6 23/25/7 26/26/7 25/27/6
f 13/28/8 19/29/8 34/30/8 32/31/8
f 34/32/1 29/33/1 32/34/1
f 34/32/1 36/35/1 29/33/1
f 27/36/9 25/37/9 26/38/9 2/39/9
f 20/9/1 9/11/1 35/40/1
f 41/41/1 42/42/1 43/43/1 44/44/1
f 20/45/10 35/46/11 38/47/11 37/48/12
f 36/49/13 34/50/14 41/51/15 44/52/13
f 19/20/3 22/23/5 41/51/15 34/50/14
f 22/53/16 24/54/16 42/55/16 41/56/16
f 24/57/6 25/58/6 43/59/17 42/60/17
f 25/61/2 27/62/2 44/63/2 43/64/2
f 27/62/2 29/65/2 36/66/2 44/63/2
f 9/67/8 2/68/8 38/69/8 35/70/8
f 2/68/8 26/71/8 39/72/8 38/69/8
f 26/73/7 23/74/7 40/75/18 39/76/18
f 23/77/19 21/78/19 37/79/19 40/80/19
f 21/22/4 18/21/4 20/45/10 37/48/12
