# Blender 4.1.1
# www.blender.org
mtllib AlarmClock_22_AlarmClock_22_0_GeomSubset_4.mtl
o AlarmClock_22_AlarmClock_22_0_GeomSubset_4
v 0.000500 0.006105 -0.309406
v -0.000500 0.006105 -0.309406
v 0.000500 0.007105 -0.309406
v -0.000500 0.007105 -0.309406
v 0.000500 0.006105 -0.309406
v -0.000500 0.006105 -0.309406
v 0.000500 0.007105 -0.309406
v -0.000500 0.007105 -0.309406
v 0.000500 0.006105 -0.309406
v -0.000500 0.006105 -0.309406
v 0.000500 0.007105 -0.309406
v -0.000500 0.007105 -0.309406
v 0.000500 0.006105 -0.309406
v -0.000500 0.006105 -0.309406
v 0.000500 0.007105 -0.309406
v -0.000500 0.007105 -0.309406
v 0.000500 0.006105 -0.309406
v -0.000500 0.006105 -0.309406
v 0.000500 0.007105 -0.309406
v -0.000500 0.007105 -0.309406
v 0.114024 0.046186 -0.024090
v 0.114024 0.046186 0.027606
v -0.111063 0.046186 0.027606
v -0.111063 0.046186 -0.024090
v -0.111063 -0.046878 0.027606
v -0.111063 -0.046878 -0.024090
v -0.055233 -0.036262 0.027606
v -0.055233 -0.036262 -0.024090
v 0.110322 -0.030331 -0.059406
v 0.110322 0.040255 -0.059406
v -0.107361 -0.030331 -0.059406
v -0.107361 0.040255 -0.059406
v -0.050629 -0.036262 0.027606
v -0.050629 -0.036262 -0.024090
v 0.125180 -0.046878 0.038297
v 0.125180 -0.046878 -0.034782
v 0.135900 0.046186 -0.023875
v 0.138084 0.044003 -0.024090
v 0.134196 0.046186 -0.032446
v 0.136253 0.044003 -0.033298
v 0.131037 0.044003 -0.041104
v 0.129463 0.046186 -0.039529
v 0.122379 0.046186 -0.044262
v 0.123232 0.044002 -0.046319
v 0.114024 0.044002 -0.048151
v 0.113809 0.046186 -0.045966
v 0.113809 0.046186 0.049482
v 0.114024 0.044001 0.051667
v 0.123232 0.044003 0.049835
v 0.122379 0.046186 0.047778
v 0.131037 0.044003 0.044620
v 0.129463 0.046186 0.043045
v 0.136253 0.044003 0.036814
v 0.134196 0.046186 0.035961
v 0.138084 0.044003 0.027606
v 0.135900 0.046186 0.027391
v -0.131234 0.046186 0.035961
v -0.133292 0.044003 0.036814
v -0.128076 0.044003 0.044620
v -0.126501 0.046186 0.043045
v -0.126501 -0.046878 0.043045
v -0.128076 -0.044695 0.044619
v -0.131234 -0.046878 0.035961
v -0.133292 -0.044695 0.036814
v -0.120271 0.044003 0.049835
v -0.119418 0.046186 0.047778
v -0.119418 -0.046878 0.047778
v -0.120271 -0.044695 0.049835
v -0.111063 0.044001 0.051667
v -0.110848 0.046186 0.049482
v -0.110848 -0.046878 0.049482
v -0.111063 -0.044695 0.051667
v -0.110848 0.046186 -0.045966
v -0.111063 0.044002 -0.048151
v -0.120271 0.044003 -0.046319
v -0.119418 0.046186 -0.044262
v -0.119418 -0.046878 -0.044262
v -0.120271 -0.044695 -0.046319
v -0.110848 -0.046878 -0.045967
v -0.111063 -0.044695 -0.048151
v -0.128076 0.044003 -0.041104
v -0.126501 0.046186 -0.039529
v -0.126501 -0.046878 -0.039529
v -0.128076 -0.044694 -0.041104
v -0.133292 0.044003 -0.033298
v -0.131234 0.046186 -0.032446
v -0.131234 -0.046878 -0.032446
v -0.133292 -0.044694 -0.033298
v -0.135123 0.044003 -0.024090
v -0.132939 0.046186 -0.023875
v -0.132939 -0.046878 -0.023875
v -0.135123 -0.044694 -0.024090
v -0.132939 0.046186 0.027391
v -0.135123 0.044003 0.027606
v -0.132939 -0.046878 0.027391
v -0.135123 -0.044695 0.027606
v -0.057416 -0.046878 0.049482
v -0.057416 -0.044695 0.051667
v -0.055233 -0.044695 0.049482
v -0.053688 0.044003 0.051667
v -0.056777 0.044003 0.051667
v -0.056777 0.046186 0.049482
v -0.053688 0.046186 0.049482
v -0.057344 -0.037754 0.051667
v -0.056894 -0.034600 0.051666
v -0.053674 -0.034057 0.051666
v -0.055233 -0.036262 0.049604
v -0.056777 0.046186 0.027606
v -0.053688 0.046186 0.027606
v -0.056777 0.046186 -0.024090
v -0.053688 0.046186 -0.024090
v -0.053688 0.046186 -0.045966
v -0.056777 0.046186 -0.045966
v -0.056777 0.044002 -0.048151
v -0.053688 0.044002 -0.048151
v -0.057416 -0.044695 -0.048151
v -0.057416 -0.046878 -0.045967
v -0.055233 -0.044694 -0.045967
v -0.057416 -0.046878 -0.024090
v -0.055233 -0.044694 -0.024090
v -0.057416 -0.046878 0.027606
v -0.055233 -0.044695 0.027606
v -0.050629 -0.036262 0.049604
v -0.052122 -0.034151 0.051666
v -0.048967 -0.034600 0.051666
v -0.048517 -0.037754 0.051667
v 0.114024 -0.034717 0.051666
v 0.114024 -0.037806 0.051667
v 0.123232 -0.034717 0.049835
v 0.123232 -0.037806 0.049835
v 0.131037 -0.034717 0.044619
v 0.131037 -0.037806 0.044619
v 0.136253 -0.034717 0.036814
v 0.136253 -0.037806 0.036814
v 0.138084 -0.034717 0.027606
v 0.138084 -0.037806 0.027606
v 0.138084 -0.034718 -0.024090
v 0.138084 -0.037806 -0.024090
v 0.136253 -0.034717 -0.033298
v 0.136253 -0.037806 -0.033298
v 0.131037 -0.034717 -0.041104
v 0.131037 -0.037806 -0.041104
v 0.123232 -0.034718 -0.046319
v 0.123232 -0.037806 -0.046319
v 0.114024 -0.034718 -0.048151
v 0.114024 -0.037806 -0.048151
v -0.053739 -0.034151 -0.048151
v -0.056894 -0.034600 -0.048151
v -0.057436 -0.037821 -0.048151
v -0.055233 -0.036261 -0.046088
v -0.048517 -0.037755 -0.048151
v -0.049012 -0.034600 -0.048151
v -0.052248 -0.034057 -0.048151
v -0.050629 -0.036262 -0.046089
v -0.111063 -0.037806 -0.048151
v -0.111063 -0.034718 -0.048151
v -0.120271 -0.037806 -0.046319
v -0.120271 -0.034718 -0.046319
v -0.128076 -0.037806 -0.041104
v -0.128076 -0.034717 -0.041104
v -0.133292 -0.037806 -0.033298
v -0.133292 -0.034717 -0.033298
v -0.135123 -0.037806 -0.024090
v -0.135123 -0.034717 -0.024090
v -0.135123 -0.037806 0.027606
v -0.135123 -0.034717 0.027606
v -0.133292 -0.037806 0.036814
v -0.133292 -0.034717 0.036814
v -0.128076 -0.037806 0.044619
v -0.128076 -0.034717 0.044619
v -0.120271 -0.037806 0.049835
v -0.120271 -0.034717 0.049835
v -0.111063 -0.037806 0.051667
v -0.111063 -0.034717 0.051666
v -0.058597 -0.030331 -0.059406
v -0.055412 -0.030331 -0.059406
v -0.058597 0.040255 -0.059406
v -0.055412 0.040255 -0.059406
v -0.049084 0.046186 0.049482
v -0.049084 0.044003 0.051667
v -0.052173 0.044003 0.051667
v -0.052173 0.046186 0.049482
v -0.049143 0.044002 -0.048151
v -0.049084 0.046186 -0.045966
v -0.052173 0.046186 -0.045966
v -0.052233 0.044002 -0.048151
v -0.049084 0.046186 0.027606
v -0.052173 0.046186 0.027606
v -0.049084 0.046186 -0.024090
v -0.052173 0.046186 -0.024090
v -0.050861 0.040255 -0.059406
v -0.054046 0.040255 -0.059406
v -0.050861 -0.030331 -0.059406
v -0.054046 -0.030331 -0.059406
v 0.114024 -0.044695 0.051667
v 0.113809 -0.046878 0.049482
v 0.122379 -0.046878 0.047778
v 0.123232 -0.044695 0.049835
v 0.129463 -0.046878 0.043045
v 0.131037 -0.044695 0.044619
v 0.134196 -0.046878 0.035961
v 0.136253 -0.044695 0.036814
v 0.135900 -0.046878 0.027391
v 0.138084 -0.044695 0.027606
v 0.138084 -0.044695 -0.024090
v 0.135900 -0.046878 -0.023875
v 0.134196 -0.046878 -0.032446
v 0.136253 -0.044694 -0.033298
v 0.129463 -0.046878 -0.039529
v 0.131037 -0.044694 -0.041104
v 0.122379 -0.046878 -0.044262
v 0.123232 -0.044695 -0.046319
v 0.113809 -0.046878 -0.045967
v 0.114024 -0.044695 -0.048151
v -0.048445 -0.046878 0.049482
v -0.050629 -0.044695 0.049482
v -0.048445 -0.044695 0.051667
v -0.050629 -0.044695 0.027606
v -0.048445 -0.046878 0.027606
v -0.048445 -0.044695 -0.048151
v -0.050629 -0.044694 -0.045967
v -0.048445 -0.046878 -0.045967
v -0.048445 -0.046878 -0.024090
v -0.050629 -0.044694 -0.024090
v -0.027228 -0.046878 0.049482
v -0.027228 -0.044695 0.051667
v -0.027228 -0.037760 0.051667
v -0.027228 -0.034613 0.051666
v -0.027228 0.044003 0.051667
v -0.027228 0.046186 0.049482
v -0.027228 0.046186 0.027606
v -0.027228 0.046186 -0.024090
v -0.027228 0.046186 -0.045966
v -0.027228 0.044002 -0.048151
v -0.028126 0.040255 -0.059406
v -0.028126 -0.030331 -0.059406
v -0.027228 -0.034613 -0.048151
v -0.027228 -0.037761 -0.048151
v -0.027228 -0.044695 -0.048151
v -0.027228 -0.046878 -0.045967
v -0.038384 -0.046878 -0.034782
v -0.038384 -0.046878 0.038297
v -0.038384 -0.042173 -0.034782
v -0.038384 -0.042173 0.038297
v 0.125180 -0.042173 0.038297
v 0.125180 -0.042173 -0.034782
v 0.012721 0.023504 0.051666
v -0.103285 0.023504 0.051666
v -0.053687 0.023517 0.051666
v -0.052170 0.023513 0.051666
v -0.049077 0.023493 0.051666
v 0.012721 0.020384 0.051666
v -0.103293 0.020384 0.051666
v -0.053686 0.020384 0.051666
v -0.052166 0.020384 0.051666
v -0.049069 0.020384 0.051666
v 0.012721 0.017261 0.051666
v -0.103300 0.017261 0.051666
v -0.053685 0.017261 0.051666
v -0.052163 0.017261 0.051666
v -0.049061 0.017261 0.051666
v 0.012721 0.014139 0.051666
v -0.103308 0.014139 0.051666
v -0.053684 0.014139 0.051666
v -0.052159 0.014139 0.051666
v -0.049053 0.014139 0.051666
v 0.012721 0.011017 0.051666
v -0.103316 0.011017 0.051666
v -0.053683 0.011017 0.051666
v -0.052156 0.011017 0.051666
v -0.049045 0.011017 0.051666
v 0.012721 0.007895 0.051666
v -0.103324 0.007895 0.051666
v -0.053682 0.007895 0.051666
v -0.052153 0.007895 0.051666
v -0.049037 0.007895 0.051666
v 0.012721 0.004774 0.051666
v -0.103331 0.004774 0.051666
v -0.053681 0.004774 0.051666
v -0.052149 0.004774 0.051666
v -0.049030 0.004774 0.051666
v 0.012721 0.001632 0.051666
v -0.103339 0.001632 0.051666
v -0.053680 0.001632 0.051666
v -0.052146 0.001632 0.051666
v -0.049022 0.001632 0.051666
v 0.012721 -0.001493 0.051666
v -0.103347 -0.001493 0.051666
v -0.053679 -0.001493 0.051666
v -0.052142 -0.001493 0.051666
v -0.049014 -0.001493 0.051666
v 0.012721 -0.004617 0.051666
v -0.103355 -0.004617 0.051666
v -0.053679 -0.004617 0.051666
v -0.052139 -0.004617 0.051666
v -0.049006 -0.004617 0.051666
v 0.012721 -0.007742 0.051666
v -0.103363 -0.007742 0.051666
v -0.053677 -0.007742 0.051666
v -0.052136 -0.007742 0.051666
v -0.048999 -0.007742 0.051666
v 0.012721 -0.010866 0.051667
v -0.103370 -0.010866 0.051667
v -0.053676 -0.010866 0.051667
v -0.052132 -0.010866 0.051667
v -0.048991 -0.010866 0.051667
v 0.012721 -0.013991 0.051667
v -0.103378 -0.013991 0.051667
v -0.053676 -0.013991 0.051667
v -0.052129 -0.013991 0.051667
v -0.048983 -0.013991 0.051667
v 0.012721 -0.017115 0.051667
v -0.103386 -0.017115 0.051667
v -0.053674 -0.017115 0.051667
v -0.052125 -0.017115 0.051667
v -0.048975 -0.017115 0.051667
v -0.103285 0.023493 0.048898
v -0.053687 0.023517 0.048898
v -0.053686 0.020384 0.048898
v -0.103293 0.020384 0.048898
v -0.052166 0.020384 0.048898
v -0.052170 0.023513 0.048898
v -0.049069 0.020384 0.048898
v -0.049077 0.023493 0.048898
v 0.012721 0.023493 0.048898
v 0.012721 0.020384 0.048898
v -0.103300 0.017261 0.048898
v -0.053685 0.017261 0.048898
v -0.053684 0.014139 0.048898
v -0.103308 0.014139 0.048898
v -0.052159 0.014139 0.048898
v -0.052163 0.017261 0.048898
v -0.049053 0.014139 0.048898
v -0.049061 0.017261 0.048898
v 0.012721 0.017261 0.048898
v 0.012721 0.014139 0.048898
v -0.103316 0.011017 0.048898
v -0.053683 0.011017 0.048898
v -0.053682 0.007895 0.048898
v -0.103324 0.007895 0.048898
v -0.052153 0.007895 0.048898
v -0.052156 0.011017 0.048898
v -0.049037 0.007895 0.048898
v -0.049045 0.011017 0.048898
v 0.012721 0.011017 0.048898
v 0.012721 0.007895 0.048898
v -0.103331 0.004774 0.048898
v -0.053681 0.004774 0.048898
v -0.053680 0.001632 0.048898
v -0.103339 0.001632 0.048898
v -0.052146 0.001632 0.048898
v -0.052149 0.004774 0.048898
v -0.049022 0.001632 0.048898
v -0.049030 0.004774 0.048898
v 0.012721 0.004774 0.048898
v 0.012721 0.001632 0.048898
v -0.103347 -0.001493 0.048898
v -0.053679 -0.001493 0.048898
v -0.053679 -0.004617 0.048898
v -0.103355 -0.004617 0.048898
v -0.052139 -0.004617 0.048898
v -0.052142 -0.001493 0.048898
v -0.049006 -0.004617 0.048898
v -0.049014 -0.001493 0.048898
v 0.012721 -0.001493 0.048898
v 0.012721 -0.004617 0.048898
v -0.103363 -0.007742 0.048898
v -0.053677 -0.007742 0.048898
v -0.053676 -0.010866 0.048898
v -0.103370 -0.010866 0.048898
v -0.052132 -0.010866 0.048898
v -0.052136 -0.007742 0.048898
v -0.048991 -0.010866 0.048898
v -0.048999 -0.007742 0.048898
v 0.012721 -0.007742 0.048898
v 0.012721 -0.010866 0.048898
v -0.103378 -0.013991 0.048898
v -0.053676 -0.013991 0.048898
v -0.053674 -0.017115 0.048898
v -0.103386 -0.017115 0.048898
v -0.052125 -0.017115 0.048898
v -0.052129 -0.013991 0.048898
v -0.048975 -0.017115 0.048898
v -0.048983 -0.013991 0.048898
v 0.012721 -0.013991 0.048898
v 0.012721 -0.017115 0.048898
v 0.110322 -0.030331 -0.051349
v -0.028126 -0.030331 -0.051349
v -0.050861 -0.030331 -0.051349
v -0.054047 -0.030331 -0.051349
v -0.055412 -0.030331 -0.051349
v -0.058597 -0.030331 -0.051349
v -0.107361 -0.030331 -0.051349
v -0.107361 0.040256 -0.051349
v -0.058597 0.040256 -0.051349
v -0.055412 0.040256 -0.051349
v -0.054046 0.040256 -0.051349
v -0.050861 0.040256 -0.051349
v -0.028126 0.040256 -0.051349
v 0.110322 0.040256 -0.051349
v 0.106024 0.038187 -0.051349
v 0.106024 -0.028261 -0.051349
v 0.106024 -0.028262 -0.048151
v 0.106024 0.038187 -0.048151
v -0.103063 -0.028262 -0.048151
v -0.103063 -0.028261 -0.051349
v -0.103063 0.038187 -0.051349
v -0.103063 0.038187 -0.048151
v -0.053688 -0.028262 -0.048151
v -0.056777 -0.028262 -0.048151
v -0.053688 -0.028261 -0.051349
v -0.056777 -0.028261 -0.051349
v -0.056777 0.038187 -0.048151
v -0.053688 0.038187 -0.048151
v -0.056777 0.038187 -0.051349
v -0.053688 0.038187 -0.051349
v -0.052364 0.038187 -0.048151
v -0.049275 0.038187 -0.048151
v -0.052364 0.038187 -0.051349
v -0.049275 0.038187 -0.051349
v -0.049275 -0.028261 -0.051349
v -0.052364 -0.028261 -0.051349
v -0.052364 -0.028262 -0.048151
v -0.049274 -0.028262 -0.048151
v -0.027228 -0.028261 -0.051349
v -0.027228 -0.028262 -0.048151
v -0.027228 0.038187 -0.048151
v -0.027228 0.038187 -0.051349
vn -0.0000 -0.0000 -1.0000
vt 0.723299 -8.973188
vt 0.725383 -8.973188
vt 0.725383 -8.971104
vt 0.723299 -8.971104
s 1
usemtl M_AlarmClock_22_4
f 17/1/1 18/2/1 20/3/1 19/4/1
