# Blender 4.1.1
# www.blender.org
mtllib DrawermeshRobothorDeskDrawer_2_Lillasen_2.mtl
o RobothorDeskDrawer_2_Lillasen
v 0.017884 -0.254941 0.322398
v 0.014097 -0.254941 0.322398
v 0.013813 -0.254941 0.323826
v 0.017312 -0.254941 0.325276
v 0.014097 -0.266064 0.322398
v 0.013813 -0.266064 0.323826
v 0.020175 -0.266064 0.322398
v 0.019428 -0.266064 0.326153
v 0.019702 -0.268156 0.322398
v 0.018991 -0.268156 0.325971
v 0.017568 -0.270290 0.322398
v 0.017020 -0.270290 0.325155
v 0.015524 -0.270763 0.322398
v 0.015131 -0.270763 0.324372
v 0.017884 -0.250763 0.322398
v 0.017312 -0.250763 0.325276
v 0.013004 -0.254941 0.325037
v 0.015682 -0.254941 0.327715
v 0.013004 -0.266064 0.325037
v 0.017302 -0.266064 0.329335
v 0.016967 -0.268156 0.329000
v 0.015459 -0.270290 0.327492
v 0.014013 -0.270763 0.326046
v 0.015682 -0.250763 0.327715
v 0.011793 -0.254941 0.325846
v 0.013243 -0.254941 0.329345
v 0.011793 -0.266064 0.325846
v 0.014119 -0.266064 0.331461
v 0.013938 -0.268156 0.331024
v 0.013122 -0.270290 0.329053
v 0.012339 -0.270763 0.327164
v 0.013243 -0.250763 0.329345
v 0.010365 -0.254941 0.326130
v 0.010365 -0.254941 0.329917
v 0.010365 -0.266064 0.326130
v 0.010365 -0.266064 0.332208
v 0.010365 -0.268156 0.331735
v 0.010365 -0.270290 0.329601
v 0.010365 -0.270763 0.327556
v 0.010365 -0.250763 0.329917
v 0.008937 -0.254941 0.325846
v 0.007488 -0.254941 0.329345
v 0.008937 -0.266064 0.325846
v 0.006611 -0.266064 0.331461
v 0.006792 -0.268156 0.331024
v 0.007609 -0.270290 0.329053
v 0.008391 -0.270763 0.327164
v 0.007488 -0.250763 0.329345
v 0.007727 -0.254941 0.325037
v 0.005048 -0.254941 0.327715
v 0.007727 -0.266064 0.325037
v 0.003429 -0.266064 0.329335
v 0.003763 -0.268156 0.329000
v 0.005272 -0.270290 0.327492
v 0.006718 -0.270763 0.326046
v 0.005048 -0.250763 0.327715
v 0.006918 -0.254941 0.323826
v 0.003419 -0.254941 0.325276
v 0.006918 -0.266064 0.323826
v 0.001302 -0.266064 0.326153
v 0.001739 -0.268156 0.325971
v 0.003711 -0.270290 0.325155
v 0.005600 -0.270763 0.324372
v 0.003419 -0.250763 0.325276
v 0.006634 -0.254941 0.322398
v 0.002846 -0.254941 0.322398
v 0.006634 -0.266064 0.322398
v 0.000556 -0.266064 0.322398
v 0.001029 -0.268156 0.322398
v 0.003163 -0.270290 0.322398
v 0.005207 -0.270763 0.322398
v 0.002846 -0.250763 0.322398
v 0.006918 -0.254941 0.320971
v 0.003419 -0.254941 0.319521
v 0.006918 -0.266064 0.320971
v 0.001302 -0.266064 0.318645
v 0.001739 -0.268156 0.318825
v 0.003711 -0.270290 0.319642
v 0.005600 -0.270763 0.320424
v 0.003419 -0.250763 0.319521
v 0.007727 -0.254941 0.319760
v 0.005048 -0.254941 0.317081
v 0.007727 -0.266064 0.319760
v 0.003429 -0.266064 0.315462
v 0.003763 -0.268156 0.315797
v 0.005272 -0.270290 0.317305
v 0.006718 -0.270763 0.318751
v 0.005048 -0.250763 0.317081
v 0.008937 -0.254941 0.318951
v 0.007488 -0.254941 0.315452
v 0.008937 -0.266064 0.318951
v 0.006611 -0.266064 0.313335
v 0.006792 -0.268156 0.313773
v 0.007609 -0.270290 0.315744
v 0.008391 -0.270763 0.317633
v 0.007488 -0.250763 0.315452
v 0.010365 -0.254941 0.318667
v 0.010365 -0.254941 0.314879
v 0.010365 -0.266064 0.318667
v 0.010365 -0.266064 0.312589
v 0.010365 -0.268156 0.313062
v 0.010365 -0.270290 0.315195
v 0.010365 -0.270763 0.317240
v 0.010365 -0.250763 0.314879
v 0.011793 -0.254941 0.318951
v 0.013243 -0.254941 0.315452
v 0.011793 -0.266064 0.318951
v 0.014119 -0.266064 0.313335
v 0.013938 -0.268156 0.313773
v 0.013122 -0.270290 0.315744
v 0.012339 -0.270763 0.317633
v 0.013243 -0.250763 0.315452
v 0.013004 -0.254941 0.319760
v 0.015682 -0.254941 0.317081
v 0.013004 -0.266064 0.319760
v 0.017302 -0.266064 0.315462
v 0.016967 -0.268156 0.315797
v 0.015459 -0.270290 0.317305
v 0.014013 -0.270763 0.318751
v 0.015682 -0.250763 0.317081
v 0.013813 -0.254941 0.320971
v 0.017312 -0.254941 0.319521
v 0.013813 -0.266064 0.320971
v 0.019428 -0.266064 0.318645
v 0.018991 -0.268156 0.318825
v 0.017020 -0.270290 0.319642
v 0.015131 -0.270763 0.320424
v 0.017312 -0.250763 0.319521
v 0.010365 -0.270764 0.322398
v -0.100203 -0.000763 0.350749
v -0.100203 -0.000763 0.285401
v 0.120933 -0.000763 0.285401
v 0.120933 -0.000763 0.350749
v 0.120933 -0.239060 0.285401
v 0.120933 -0.239060 0.350749
v -0.100203 -0.239060 0.285401
v -0.100203 -0.239060 0.350749
v -0.093555 -0.232223 0.350749
v 0.114286 -0.232223 0.350749
v -0.093555 -0.007952 0.350749
v 0.114286 -0.007952 0.350749
v -0.093555 -0.232223 0.291594
v 0.114286 -0.232223 0.291594
v -0.093555 -0.007952 0.291594
v 0.114286 -0.007952 0.291594
v 0.125365 -0.250764 0.285401
v -0.104635 -0.250764 0.285401
v -0.104635 -0.250764 0.355401
v 0.125365 -0.250764 0.355401
v 0.125365 -0.239060 0.355401
v 0.125365 -0.239060 0.285401
v -0.104635 -0.239060 0.285401
v -0.104635 -0.239060 0.355401
vn -0.0000 1.0000 -0.0000
vn -1.0000 -0.0000 -0.0000
vn -0.9239 -0.0000 -0.3827
vn -0.0000 -1.0000 -0.0000
vn -0.8468 0.4000 -0.3508
vn -0.9165 0.3999 -0.0000
vn -0.8693 0.4942 -0.0000
vn -0.8032 0.4942 -0.3327
vn -0.5558 0.8313 -0.0000
vn -0.5135 0.8313 -0.2127
vn -0.3748 0.9271 -0.0000
vn -0.3463 0.9271 -0.1434
vn -0.7071 -0.0000 -0.7071
vn -0.6481 0.3999 -0.6481
vn -0.6147 0.4942 -0.6147
vn -0.3930 0.8313 -0.3930
vn -0.2649 0.9271 -0.2650
vn -0.3823 -0.0000 -0.9240
vn -0.3507 0.4000 -0.8467
vn -0.3327 0.4942 -0.8032
vn -0.2127 0.8313 -0.5135
vn -0.1434 0.9271 -0.3462
vn -0.3826 -0.0000 -0.9239
vn -0.0000 -0.0000 -1.0000
vn -0.0000 0.4000 -0.9165
vn -0.0000 0.4942 -0.8693
vn -0.0000 0.8313 -0.5558
vn -0.0000 0.9271 -0.3748
vn 0.3826 -0.0000 -0.9239
vn 0.3508 0.4000 -0.8467
vn 0.3327 0.4942 -0.8032
vn 0.2127 0.8313 -0.5135
vn 0.1434 0.9271 -0.3463
vn 0.3827 -0.0000 -0.9239
vn 0.7071 -0.0000 -0.7071
vn 0.6481 0.3999 -0.6481
vn 0.6147 0.4942 -0.6147
vn 0.3930 0.8313 -0.3930
vn 0.2650 0.9271 -0.2650
vn 0.9239 -0.0000 -0.3826
vn 0.8468 0.4000 -0.3507
vn 0.8032 0.4942 -0.3327
vn 0.5135 0.8313 -0.2127
vn 0.3463 0.9271 -0.1434
vn 0.9239 -0.0000 -0.3827
vn 1.0000 -0.0000 -0.0000
vn 0.9165 0.3999 -0.0000
vn 0.8693 0.4942 -0.0000
vn 0.5558 0.8313 -0.0000
vn 0.3748 0.9271 -0.0000
vn 0.9239 -0.0000 0.3827
vn 0.8468 0.4000 0.3507
vn 0.8032 0.4942 0.3327
vn 0.5135 0.8313 0.2127
vn 0.3462 0.9271 0.1434
vn 0.7071 -0.0000 0.7071
vn 0.6480 0.4001 0.6481
vn 0.6147 0.4943 0.6147
vn 0.3930 0.8313 0.3930
vn 0.2650 0.9271 0.2650
vn 0.3827 -0.0000 0.9239
vn 0.3507 0.4002 0.8467
vn 0.3327 0.4943 0.8031
vn 0.2128 0.8313 0.5134
vn 0.1434 0.9271 0.3463
vn -0.0000 -0.0000 1.0000
vn -0.0000 0.4001 0.9165
vn -0.0000 0.4942 0.8693
vn -0.0000 0.8313 0.5558
vn -0.0000 0.9271 0.3748
vn -0.3828 -0.0000 0.9238
vn -0.3507 0.4002 0.8467
vn -0.3327 0.4943 0.8031
vn -0.2128 0.8313 0.5135
vn -0.1434 0.9271 0.3463
vn -0.3827 -0.0000 0.9239
vn -0.7071 -0.0000 0.7071
vn -0.6480 0.4001 0.6481
vn -0.6147 0.4943 0.6147
vn -0.3930 0.8313 0.3930
vn -0.2651 0.9271 0.2650
vn -0.9239 -0.0000 0.3827
vn -0.8468 0.4000 0.3507
vn -0.8032 0.4942 0.3327
vn -0.5135 0.8313 0.2127
vn -0.3462 0.9271 0.1434
vn -0.0000 1.0000 -0.0001
vn -0.0000 1.0000 0.0001
vt -9.928375 0.110971
vt -9.920977 0.110970
vt -9.920422 0.113761
vt -9.927258 0.116591
vt -9.927694 0.214016
vt -9.903241 0.214016
vt -9.903241 0.217156
vt -9.927694 0.217156
vt -9.917152 0.044217
vt -9.917152 0.032346
vt -9.909820 0.033803
vt -9.914363 0.044772
vt -9.924691 0.072009
vt -9.916021 0.072009
vt -9.916023 0.076840
vt -9.924273 0.076839
vt -9.916021 0.081766
vt -9.922387 0.081766
vt -9.918630 0.127022
vt -9.913211 0.125944
vt -9.913210 0.129964
vt -9.917091 0.130738
vt -9.912823 0.155549
vt -9.912824 0.164731
vt -9.919150 0.164730
vt -9.919149 0.155549
vt -9.918842 0.116125
vt -9.924073 0.121356
vt -9.903241 0.219817
vt -9.927694 0.219817
vt -9.903605 0.037957
vt -9.912000 0.046351
vt -9.932038 0.072009
vt -9.931268 0.076840
vt -9.927783 0.081766
vt -9.923225 0.130093
vt -9.920382 0.132936
vt -9.924512 0.164730
vt -9.924511 0.155548
vt -9.916479 0.117705
vt -9.919309 0.124539
vt -9.903241 0.221596
vt -9.927694 0.221596
vt -9.899451 0.044171
vt -9.910419 0.048716
vt -9.936950 0.072009
vt -9.935940 0.076839
vt -9.925161 0.186138
vt -9.932048 0.186138
vt -9.928617 0.181285
vt -9.923306 0.181285
vt -9.926295 0.134688
vt -9.922581 0.136225
vt -9.928095 0.164730
vt -9.928095 0.155548
vt -9.913688 0.118259
vt -9.913689 0.125657
vt -9.926436 0.224805
vt -9.904501 0.224805
vt -9.904502 0.227622
vt -9.926436 0.227622
vt -9.897992 0.051504
vt -9.909864 0.051504
vt -9.917039 0.190892
vt -9.925573 0.190892
vt -9.917040 0.186137
vt -9.917040 0.181284
vt -9.927372 0.140106
vt -9.923351 0.140107
vt -9.917087 0.271607
vt -9.917088 0.263368
vt -9.911409 0.263367
vt -9.911409 0.271607
vt -9.910899 0.117706
vt -9.908070 0.124540
vt -9.904500 0.230438
vt -9.926437 0.230439
vt -9.899451 0.058837
vt -9.910419 0.054293
vt -9.908507 0.190892
vt -9.908917 0.186138
vt -9.910773 0.181284
vt -9.926295 0.145525
vt -9.922581 0.143987
vt -9.905735 0.263367
vt -9.905736 0.271608
vt -9.908535 0.116125
vt -9.903304 0.121355
vt -9.903238 0.249358
vt -9.927696 0.249358
vt -9.927695 0.247580
vt -9.903240 0.247581
vt -9.903606 0.065053
vt -9.911999 0.056658
vt -9.932036 0.094724
vt -9.936947 0.094724
vt -9.935938 0.089895
vt -9.931266 0.089895
vt -9.902033 0.186137
vt -9.905461 0.181284
vt -9.923225 0.150119
vt -9.920382 0.147278
vt -9.932836 0.177688
vt -9.932836 0.168503
vt -9.929252 0.168503
vt -9.929251 0.177687
vt -9.906955 0.113761
vt -9.900121 0.116591
vt -9.927695 0.244919
vt -9.903240 0.244920
vt -9.909820 0.069205
vt -9.914363 0.058239
vt -9.924690 0.094724
vt -9.924272 0.089895
vt -9.927782 0.084966
vt -9.922386 0.084966
vt -9.918631 0.153190
vt -9.917092 0.149476
vt -9.923889 0.168503
vt -9.923888 0.177687
vt -9.906400 0.110970
vt -9.899003 0.110971
vt -9.927695 0.241778
vt -9.903240 0.241779
vt -9.917151 0.070664
vt -9.917151 0.058793
vt -9.916021 0.094725
vt -9.916021 0.089895
vt -9.916021 0.084966
vt -9.913210 0.154268
vt -9.913211 0.150248
vt -9.917561 0.168504
vt -9.917561 0.177687
vt -9.906955 0.108183
vt -9.900121 0.105351
vt -9.927696 0.238642
vt -9.903240 0.238641
vt -9.924483 0.069206
vt -9.919941 0.058238
vt -9.907356 0.094725
vt -9.907773 0.089895
vt -9.909658 0.084966
vt -9.907791 0.153190
vt -9.909330 0.149475
vt -9.911234 0.168503
vt -9.911235 0.177688
vt -9.908535 0.105817
vt -9.903304 0.100585
vt -9.927695 0.235976
vt -9.903240 0.235977
vt -9.930701 0.065054
vt -9.922307 0.056658
vt -9.900007 0.094725
vt -9.900781 0.089896
vt -9.904264 0.084965
vt -9.903198 0.150120
vt -9.906040 0.147278
vt -9.905870 0.168503
vt -9.905870 0.177687
vt -9.910899 0.104237
vt -9.908069 0.097403
vt -9.927696 0.234200
vt -9.903240 0.234200
vt -9.934855 0.058838
vt -9.923887 0.054293
vt -9.895098 0.094725
vt -9.896109 0.089894
vt -9.908918 0.198995
vt -9.902031 0.198996
vt -9.905461 0.203847
vt -9.910775 0.203846
vt -9.900128 0.145526
vt -9.903841 0.143986
vt -9.902287 0.168504
vt -9.902287 0.177687
vt -9.913688 0.103682
vt -9.913688 0.096285
vt -9.904498 0.258202
vt -9.926436 0.258202
vt -9.926436 0.255384
vt -9.904498 0.255385
vt -9.936312 0.051504
vt -9.924442 0.051505
vt -9.917041 0.194240
vt -9.908506 0.194240
vt -9.917041 0.198995
vt -9.917040 0.203847
vt -9.899051 0.140107
vt -9.903069 0.140107
vt -9.905737 0.276325
vt -9.905736 0.284564
vt -9.911410 0.284563
vt -9.911411 0.276326
vt -9.916478 0.104238
vt -9.919309 0.097403
vt -9.926436 0.252568
vt -9.904498 0.252569
vt -9.934855 0.044172
vt -9.923887 0.048717
vt -9.925575 0.194241
vt -9.925163 0.198995
vt -9.923307 0.203847
vt -9.900128 0.134687
vt -9.903842 0.136225
vt -9.917085 0.284564
vt -9.917084 0.276326
vt -9.918842 0.105816
vt -9.924073 0.100586
vt -9.927694 0.206437
vt -9.903241 0.206436
vt -9.903240 0.208214
vt -9.927694 0.208214
vt -9.930701 0.037957
vt -9.922307 0.046352
vt -9.900005 0.072010
vt -9.895095 0.072008
vt -9.896106 0.076839
vt -9.900779 0.076840
vt -9.932050 0.198995
vt -9.928619 0.203848
vt -9.903198 0.130093
vt -9.906041 0.132936
vt -9.897553 0.155548
vt -9.897553 0.164730
vt -9.901135 0.164730
vt -9.901135 0.155548
vt -9.920422 0.108183
vt -9.927258 0.105352
vt -9.903241 0.210877
vt -9.927694 0.210877
vt -9.924484 0.033803
vt -9.919940 0.044771
vt -9.907354 0.072008
vt -9.907772 0.076839
vt -9.904263 0.081767
vt -9.909657 0.081767
vt -9.907791 0.127023
vt -9.909330 0.130737
vt -9.906499 0.164731
vt -9.906499 0.155548
vt -9.913211 0.140106
vt -9.515468 0.055715
vt -9.515468 0.183347
vt -9.947372 0.183348
vt -9.947372 0.055715
vt -9.147719 0.005328
vt -9.613141 0.005327
vt -9.613143 -0.122304
vt -9.147717 -0.122304
vt -9.613142 0.380879
vt -9.613141 -0.051029
vt -9.147718 -0.051029
vt -9.147720 0.380879
vt -9.613140 0.451563
vt -9.613141 0.323933
vt -9.147718 0.323933
vt -9.147718 0.451563
vt -9.514774 0.319309
vt -9.514774 0.725248
vt -9.952804 0.725248
vt -9.952805 0.319309
vt -9.147720 0.395024
vt -9.147719 0.826930
vt -9.161074 0.813945
vt -9.161074 0.408009
vt -9.613141 0.826929
vt -9.599102 0.813945
vt -9.613141 0.395024
vt -9.599102 0.408008
vt -9.924337 -0.038152
vt -9.518401 -0.038153
vt -9.518401 0.077385
vt -9.924337 0.077385
vt -9.514773 0.372449
vt -9.952802 0.372449
vt -9.952802 0.256912
vt -9.514772 0.256912
vt -9.836325 -0.005399
vt -10.242264 -0.005400
vt -10.242264 -0.120936
vt -9.836325 -0.120937
vt -9.514772 0.277214
vt -9.952802 0.277214
vt -9.952802 0.161678
vt -9.514773 0.161678
vt -9.962728 0.716742
vt -9.513509 0.716741
vt -9.513509 0.853460
vt -9.962729 0.853461
vt -10.003488 0.008829
vt -10.003488 -0.014029
vt -9.866766 -0.014029
vt -9.866766 0.008829
vt -9.962732 0.728960
vt -9.962732 0.706102
vt -9.513504 0.706101
vt -9.513504 0.728959
vt -9.866766 0.010033
vt -9.866767 0.032890
vt -10.003488 0.032890
vt -10.003488 0.010033
vt -9.513502 0.682588
vt -9.513504 0.705445
vt -9.962734 0.705445
vt -9.962734 0.682587
s 1
usemtl M_RobothorDeskDrawer_2_Lillasen_0
f 1/1/1 2/2/1 3/3/1 4/4/1
f 2/5/2 5/6/2 6/7/3 3/8/3
f 5/9/4 7/10/4 8/11/4 6/12/4
f 8/13/5 7/14/6 9/15/7 10/16/8
f 10/16/8 9/15/7 11/17/9 12/18/10
f 12/19/10 11/20/9 13/21/11 14/22/12
f 15/23/2 1/24/2 4/25/3 16/26/3
f 4/4/1 3/3/1 17/27/1 18/28/1
f 3/8/3 6/7/3 19/29/13 17/30/13
f 6/12/4 8/11/4 20/31/4 19/32/4
f 20/33/14 8/13/5 10/16/8 21/34/15
f 21/34/15 10/16/8 12/18/10 22/35/16
f 22/36/16 12/19/10 14/22/12 23/37/17
f 16/26/3 4/25/3 18/38/13 24/39/13
f 18/28/1 17/27/1 25/40/1 26/41/1
f 17/30/13 19/29/13 27/42/18 25/43/18
f 19/32/4 20/31/4 28/44/4 27/45/4
f 28/46/19 20/33/14 21/34/15 29/47/20
f 29/48/20 21/49/15 22/50/16 30/51/21
f 30/52/21 22/36/16 23/37/17 31/53/22
f 24/39/13 18/38/13 26/54/23 32/55/23
f 26/41/1 25/40/1 33/56/1 34/57/1
f 25/58/18 27/59/18 35/60/24 33/61/24
f 27/45/4 28/44/4 36/62/4 35/63/4
f 36/64/25 28/65/19 29/48/20 37/66/26
f 37/66/26 29/48/20 30/51/21 38/67/27
f 38/68/27 30/52/21 31/53/22 39/69/28
f 32/70/23 26/71/23 34/72/24 40/73/24
f 34/57/1 33/56/1 41/74/1 42/75/1
f 33/61/24 35/60/24 43/76/29 41/77/29
f 35/63/4 36/62/4 44/78/4 43/79/4
f 44/80/30 36/64/25 37/66/26 45/81/31
f 45/81/31 37/66/26 38/67/27 46/82/32
f 46/83/32 38/68/27 39/69/28 47/84/33
f 40/73/24 34/72/24 42/85/34 48/86/34
f 42/75/1 41/74/1 49/87/1 50/88/1
f 41/89/29 43/90/29 51/91/35 49/92/35
f 43/79/4 44/78/4 52/93/4 51/94/4
f 52/95/36 44/96/30 45/97/31 53/98/37
f 53/99/37 45/81/31 46/82/32 54/100/38
f 54/101/38 46/83/32 47/84/33 55/102/39
f 48/103/34 42/104/34 50/105/35 56/106/35
f 50/88/1 49/87/1 57/107/1 58/108/1
f 49/92/35 51/91/35 59/109/40 57/110/40
f 51/94/4 52/93/4 60/111/4 59/112/4
f 60/113/41 52/95/36 53/98/37 61/114/42
f 61/114/42 53/98/37 54/115/38 62/116/43
f 62/117/43 54/101/38 55/102/39 63/118/44
f 56/106/35 50/105/35 58/119/45 64/120/45
f 58/108/1 57/107/1 65/121/1 66/122/1
f 57/110/40 59/109/40 67/123/46 65/124/46
f 59/112/4 60/111/4 68/125/4 67/126/4
f 68/127/47 60/113/41 61/114/42 69/128/48
f 69/128/48 61/114/42 62/116/43 70/129/49
f 70/130/49 62/117/43 63/118/44 71/131/50
f 64/120/45 58/119/45 66/132/46 72/133/46
f 66/122/1 65/121/1 73/134/1 74/135/1
f 65/124/46 67/123/46 75/136/51 73/137/51
f 67/126/4 68/125/4 76/138/4 75/139/4
f 76/140/52 68/127/47 69/128/48 77/141/53
f 77/141/53 69/128/48 70/129/49 78/142/54
f 78/143/54 70/130/49 71/131/50 79/144/55
f 72/133/46 66/132/46 74/145/51 80/146/51
f 74/135/1 73/134/1 81/147/1 82/148/1
f 73/137/51 75/136/51 83/149/56 81/150/56
f 75/139/4 76/138/4 84/151/4 83/152/4
f 84/153/57 76/140/52 77/141/53 85/154/58
f 85/154/58 77/141/53 78/142/54 86/155/59
f 86/156/59 78/143/54 79/144/55 87/157/60
f 80/146/51 74/145/51 82/158/56 88/159/56
f 82/148/1 81/147/1 89/160/1 90/161/1
f 81/150/56 83/149/56 91/162/61 89/163/61
f 83/152/4 84/151/4 92/164/4 91/165/4
f 92/166/62 84/153/57 85/154/58 93/167/63
f 93/168/63 85/169/58 86/170/59 94/171/64
f 94/172/64 86/156/59 87/157/60 95/173/65
f 88/159/56 82/158/56 90/174/61 96/175/61
f 90/161/1 89/160/1 97/176/1 98/177/1
f 89/178/61 91/179/61 99/180/66 97/181/66
f 91/165/4 92/164/4 100/182/4 99/183/4
f 100/184/67 92/185/62 93/168/63 101/186/68
f 101/186/68 93/168/63 94/171/64 102/187/69
f 102/188/69 94/172/64 95/173/65 103/189/70
f 96/190/61 90/191/61 98/192/66 104/193/66
f 98/177/1 97/176/1 105/194/1 106/195/1
f 97/181/66 99/180/66 107/196/71 105/197/71
f 99/183/4 100/182/4 108/198/4 107/199/4
f 108/200/72 100/184/67 101/186/68 109/201/73
f 109/201/73 101/186/68 102/187/69 110/202/74
f 110/203/74 102/188/69 103/189/70 111/204/75
f 104/193/66 98/192/66 106/205/76 112/206/76
f 106/195/1 105/194/1 113/207/1 114/208/1
f 105/209/71 107/210/71 115/211/77 113/212/77
f 107/199/4 108/198/4 116/213/4 115/214/4
f 116/215/78 108/216/72 109/217/73 117/218/79
f 117/219/79 109/201/73 110/202/74 118/220/80
f 118/221/80 110/203/74 111/204/75 119/222/81
f 112/223/76 106/224/76 114/225/77 120/226/77
f 114/208/1 113/207/1 121/227/1 122/228/1
f 113/212/77 115/211/77 123/229/82 121/230/82
f 115/214/4 116/213/4 124/231/4 123/232/4
f 124/233/83 116/215/78 117/218/79 125/234/84
f 125/234/84 117/218/79 118/235/80 126/236/85
f 126/237/85 118/221/80 119/222/81 127/238/86
f 120/226/77 114/225/77 122/239/82 128/240/82
f 122/228/1 121/227/1 2/2/1 1/1/1
f 121/230/82 123/229/82 5/6/2 2/5/2
f 123/232/4 124/231/4 7/10/4 5/9/4
f 9/15/7 7/14/6 124/233/83 125/234/84
f 11/17/9 9/15/7 125/234/84 126/236/85
f 13/21/11 11/20/9 126/237/85 127/238/86
f 128/240/82 122/239/82 1/24/2 15/23/2
f 129/241/1 23/37/1 14/22/1 13/21/1
f 129/241/1 39/69/1 31/53/1 23/37/1
f 129/241/1 55/102/1 47/84/87 39/69/1
f 129/241/1 71/131/1 63/118/1 55/102/1
f 129/241/1 87/157/1 79/144/1 71/131/1
f 129/241/1 103/189/1 95/173/88 87/157/1
f 129/241/1 119/222/1 111/204/1 103/189/1
f 129/241/1 13/21/1 127/238/1 119/222/1
f 130/242/4 131/243/4 132/244/4 133/245/4
f 135/246/2 133/247/2 132/248/2 134/249/2
f 136/250/66 134/251/66 132/252/66 131/253/66
f 137/254/46 136/255/46 131/256/46 130/257/46
f 143/258/24 142/259/24 144/260/24 145/261/24
f 135/262/24 137/263/24 138/264/24 139/265/24
f 137/263/24 130/266/24 140/267/24 138/264/24
f 130/266/24 133/268/24 141/269/24 140/267/24
f 133/268/24 135/262/24 139/265/24 141/269/24
f 139/270/4 138/271/4 142/272/4 143/273/4
f 138/274/2 140/275/2 144/276/2 142/277/2
f 140/278/1 141/279/1 145/280/1 144/281/1
f 141/282/46 139/283/46 143/284/46 145/285/46
f 146/286/1 147/287/1 148/288/1 149/289/1
f 149/290/2 150/291/2 151/292/2 146/293/2
f 146/294/66 151/295/66 152/296/66 147/297/66
f 147/298/46 152/299/46 153/300/46 148/301/46
f 148/302/24 153/303/24 150/304/24 149/305/24
