# Blender 4.1.1
# www.blender.org
mtllib LightSwitchDialC_24_LightSwitchDialC_24_3_GeomSubset_2.mtl
o LightSwitchDialC_24_LightSwitchDialC_24_3_GeomSubset_2
v -0.000506 0.015202 0.000728
v -0.001506 0.015202 0.000728
v -0.000506 0.016201 0.000728
v -0.001506 0.016201 0.000728
v -0.000506 0.015202 0.000728
v -0.001506 0.015202 0.000728
v -0.000506 0.016201 0.000728
v -0.001506 0.016201 0.000728
v -0.000506 0.015202 0.000728
v -0.001506 0.015202 0.000728
v -0.000506 0.016201 0.000728
v -0.001506 0.016201 0.000728
v -0.032776 0.022594 -0.039112
v -0.033479 0.022314 -0.037663
v -0.032770 0.020374 -0.038541
v -0.031642 0.019860 -0.038917
v -0.031640 0.021217 -0.039677
v -0.031659 0.022763 -0.039727
v -0.031676 0.014362 -0.033790
v -0.032772 0.014823 -0.033375
v -0.033479 0.015938 -0.032372
v -0.031676 0.008813 -0.026426
v -0.032772 0.009340 -0.026097
v -0.033479 0.010611 -0.025303
v -0.033468 0.003053 -0.015095
v -0.033468 0.000681 -0.015030
v -0.032771 0.000921 -0.016139
v -0.031691 0.000950 -0.016615
v -0.031651 0.002432 -0.016810
v -0.031614 0.003452 -0.017643
v -0.032856 0.004079 -0.017088
v -0.033468 0.004400 -0.015823
v -0.033468 -0.000402 -0.009935
v -0.033468 0.001930 -0.009439
v -0.033468 0.003050 -0.009201
v -0.032873 0.000813 -0.001580
v -0.031639 -0.000018 -0.001339
v -0.031679 -0.000605 -0.002504
v -0.031717 -0.001868 -0.003278
v -0.032779 -0.001680 -0.003703
v -0.033468 -0.001442 -0.004769
v -0.033468 0.000722 -0.003753
v -0.033468 0.001647 -0.002599
v -0.031676 0.001290 0.008968
v -0.032772 0.001904 0.008882
v -0.033479 0.003389 0.008673
v -0.031676 0.003364 0.017953
v -0.032772 0.003954 0.017761
v -0.033479 0.005380 0.017297
v -0.032776 0.008720 0.026162
v -0.031659 0.008624 0.026793
v -0.031616 0.007230 0.026114
v -0.031608 0.006293 0.024853
v -0.032760 0.006917 0.024726
v -0.033479 0.009053 0.024725
v -0.021472 0.022595 -0.039112
v -0.022589 0.022763 -0.039727
v -0.022632 0.021213 -0.039673
v -0.022641 0.019844 -0.038903
v -0.021488 0.020362 -0.038533
v -0.020770 0.022314 -0.037663
v -0.022573 0.014362 -0.033790
v -0.021477 0.014823 -0.033375
v -0.020770 0.015938 -0.032372
v -0.022573 0.008813 -0.026426
v -0.021476 0.009340 -0.026097
v -0.020770 0.010611 -0.025303
v -0.021353 0.004107 -0.017074
v -0.022587 0.003608 -0.018399
v -0.022548 0.002435 -0.016806
v -0.022509 0.000967 -0.016613
v -0.021448 0.000965 -0.016149
v -0.020759 0.000749 -0.015078
v -0.020759 0.003139 -0.015126
v -0.020759 0.004454 -0.015804
v -0.020759 -0.000402 -0.009935
v -0.020759 0.001930 -0.009439
v -0.020759 0.003050 -0.009201
v -0.020759 0.000656 -0.003816
v -0.020759 -0.001485 -0.004840
v -0.021456 -0.001717 -0.003730
v -0.022535 -0.001884 -0.003283
v -0.022575 -0.000608 -0.002502
v -0.022613 -0.000016 -0.001326
v -0.021371 0.000782 -0.001578
v -0.020759 0.001591 -0.002603
v -0.022573 0.001290 0.008968
v -0.021477 0.001904 0.008882
v -0.020770 0.003389 0.008673
v -0.022573 0.003364 0.017953
v -0.021476 0.003954 0.017761
v -0.020770 0.005380 0.017297
v -0.021472 0.008720 0.026162
v -0.020770 0.009053 0.024725
v -0.021478 0.006923 0.024738
v -0.022607 0.006300 0.024872
v -0.022609 0.007232 0.026119
v -0.022589 0.008624 0.026793
v -0.031631 -0.022696 -0.019052
v -0.031636 -0.021261 -0.019327
v -0.032763 -0.021365 -0.018843
v -0.033477 -0.021611 -0.017687
v -0.032763 -0.023036 -0.017923
v -0.031636 -0.023633 -0.018080
v -0.031674 -0.024808 -0.015154
v -0.032771 -0.024197 -0.015024
v -0.033477 -0.022264 -0.014614
v -0.022615 -0.022696 -0.019052
v -0.022610 -0.023633 -0.018080
v -0.021482 -0.023035 -0.017922
v -0.020768 -0.021609 -0.017686
v -0.021483 -0.021363 -0.018843
v -0.022610 -0.021261 -0.019327
v -0.020768 -0.022263 -0.014614
v -0.021475 -0.024197 -0.015024
v -0.022571 -0.024808 -0.015154
v -0.031630 -0.024465 -0.010734
v -0.031636 -0.024924 -0.012003
v -0.032764 -0.024315 -0.011905
v -0.033477 -0.022918 -0.011540
v -0.032763 -0.023164 -0.010383
v -0.031636 -0.023267 -0.009899
v -0.021477 -0.024314 -0.011897
v -0.022590 -0.024925 -0.011992
v -0.022603 -0.024465 -0.010731
v -0.022610 -0.023266 -0.009899
v -0.021483 -0.023163 -0.010383
v -0.020768 -0.022918 -0.011540
v -0.031676 0.024085 -0.038813
v -0.031676 0.024380 -0.037224
v -0.032776 0.023759 -0.037298
v -0.033479 0.021183 -0.032340
v -0.032772 0.022643 -0.032030
v -0.031676 0.023248 -0.031901
v -0.033479 0.019445 -0.024166
v -0.032772 0.020906 -0.023856
v -0.031676 0.021511 -0.023727
v -0.033479 0.017099 -0.013126
v -0.032772 0.018559 -0.012815
v -0.031676 0.019165 -0.012687
v -0.033479 0.015700 -0.006544
v -0.032772 0.017160 -0.006234
v -0.031676 0.017766 -0.006105
v -0.033479 0.014290 0.000087
v -0.032772 0.015751 0.000397
v -0.031676 0.016356 0.000526
v -0.033479 0.011922 0.011228
v -0.032772 0.013382 0.011539
v -0.031676 0.013988 0.011667
v -0.033479 0.010185 0.019402
v -0.032772 0.011645 0.019713
v -0.031676 0.012250 0.019841
v -0.031676 0.010203 0.026496
v -0.032776 0.010521 0.024979
v -0.031676 0.011119 0.025164
v -0.022572 0.024085 -0.038813
v -0.021473 0.023759 -0.037298
v -0.022572 0.024380 -0.037224
v -0.020770 0.021183 -0.032341
v -0.021476 0.022643 -0.032030
v -0.022573 0.023248 -0.031901
v -0.020769 0.019445 -0.024166
v -0.021476 0.020906 -0.023856
v -0.022573 0.021511 -0.023727
v -0.020770 0.017099 -0.013126
v -0.021476 0.018559 -0.012815
v -0.022572 0.019165 -0.012686
v -0.020770 0.015700 -0.006544
v -0.021476 0.017160 -0.006234
v -0.022573 0.017766 -0.006105
v -0.020770 0.014290 0.000087
v -0.021477 0.015751 0.000397
v -0.022573 0.016356 0.000526
v -0.020769 0.011922 0.011228
v -0.021476 0.013382 0.011539
v -0.022573 0.013988 0.011667
v -0.020770 0.010185 0.019402
v -0.021476 0.011645 0.019713
v -0.022573 0.012250 0.019842
v -0.022573 0.010203 0.026496
v -0.022573 0.011119 0.025164
v -0.021473 0.010521 0.024979
v -0.032477 0.021333 -0.039283
v -0.032830 0.002910 -0.016272
v -0.032846 0.000087 -0.002776
v -0.032468 0.007495 0.025801
v -0.021780 0.021328 -0.039279
v -0.021381 0.002956 -0.016277
v -0.021397 0.000046 -0.002799
v -0.021771 0.007498 0.025806
v -0.032444 -0.022479 -0.018784
v -0.021802 -0.022479 -0.018784
v -0.032444 -0.024158 -0.010891
v -0.021797 -0.024157 -0.010887
v -0.032445 0.023760 -0.038596
v -0.032445 0.009994 0.026166
v -0.021803 0.023760 -0.038596
v -0.021804 0.009994 0.026166
vn -0.0000 -0.0000 -1.0000
vt 1.229224 0.697722
vt 1.229224 0.695108
vt 1.231836 0.695108
vt 1.231836 0.697722
s 1
usemtl M_LightSwitchDialC_24_2
f 9/1/1 10/2/1 12/3/1 11/4/1
