# Blender 4.1.0
# www.blender.org
mtllib MeshCountertopL_10X8_0_GeomSubset_0.mtl
o MeshCountertopL_10X8_0_GeomSubset_0
v -1.525687 1.218367 0.418626
v -1.525687 1.218367 0.388626
v -0.916087 0.608767 0.418626
v -0.916087 0.608767 0.388626
v -1.525687 -1.220033 0.418626
v -1.525687 -1.220035 0.388626
v -0.916087 -1.220033 0.418626
v -0.916087 -1.220033 0.388626
v 1.522310 1.218367 0.418626
v 1.522310 1.218367 0.388626
v 1.522310 0.608767 0.388626
v 1.522310 0.608767 0.418626
v -0.936091 0.627725 0.388626
v -0.936091 -1.220033 0.388626
v 1.522310 0.628767 0.388626
v 1.522310 0.628767 0.418626
v -0.936091 0.628767 0.418626
v -0.936091 -1.220033 0.418626
v -0.935049 0.627725 -0.437404
v -0.936091 -1.220033 -0.437404
v 1.522310 0.628767 -0.437404
v -0.955052 0.647730 -0.437143
v -0.956094 -1.220030 -0.437273
v -0.956095 0.648772 -0.517143
v -0.956094 -1.220030 -0.517273
v -1.525687 -1.220036 -0.517404
v -1.525687 1.218367 -0.517404
v 1.522312 1.218367 -0.517404
v 1.522310 0.648766 -0.437274
v 1.522310 0.648766 -0.517274
vn -0.0000 -1.0000 -0.0000
vn 1.0000 -0.0000 -0.0000
vn -1.0000 -0.0000 -0.0000
vn -0.0000 -0.0000 1.0000
vn -0.0000 1.0000 -0.0000
vn -0.0000 -0.0000 -1.0000
vt -10.320189 1.182436
vt -9.398927 1.182436
vt -9.398926 1.229310
vt -10.320189 1.229310
vt -9.367669 1.216611
vt -10.288940 1.216611
vt -10.288940 1.169737
vt -9.367669 1.169737
vt -11.411495 1.170609
vt -7.601475 1.170609
vt -7.601477 1.217483
vt -11.411495 1.217484
vt -11.954423 2.397602
vt -11.954423 -1.412400
vt -11.033180 -1.412400
vt -11.033180 1.476349
vt -8.548527 1.242008
vt -11.406092 1.242008
vt -11.406092 1.195135
vt -8.548527 1.195135
vt -11.954488 0.745738
vt -7.191861 0.745738
vt -7.191861 0.792611
vt -11.954488 0.792611
vt -11.411540 1.184252
vt -7.601429 1.184252
vt -7.601429 1.231126
vt -11.411540 1.231126
vt -7.191927 1.476349
vt -7.191926 2.397600
vt -11.398026 2.426158
vt -11.429283 2.426158
vt -11.429284 -0.460942
vt -11.398026 -0.431321
vt -7.588062 -0.462568
vt -7.588062 -0.431321
vt -10.320189 1.216611
vt -10.320189 1.169737
vt -11.001923 1.445101
vt -7.191926 1.445101
vt -11.001924 -1.412400
vt -9.367668 1.182436
vt -9.367668 1.229310
s 1
usemtl M_CountertopL_10X8_0
f 6/1/1 14/2/1 18/3/1 5/4/1
f 9/5/2 16/6/2 15/7/2 10/8/2
f 2/9/3 6/10/3 5/11/3 1/12/3
f 1/13/4 5/14/4 18/15/4 17/16/4
f 3/17/2 7/18/2 8/19/2 4/20/2
f 1/21/5 9/22/5 10/23/5 2/24/5
f 4/25/1 11/26/1 12/27/1 3/28/1
f 16/29/4 9/30/4 1/13/4 17/16/4
f 8/31/6 14/32/6 13/33/6 4/34/6
f 4/34/6 13/33/6 15/35/6 11/36/6
f 16/6/2 12/37/2 11/38/2 15/7/2
f 3/39/4 12/40/4 16/29/4 17/16/4
f 18/15/4 7/41/4 3/39/4 17/16/4
f 14/2/1 8/42/1 7/43/1 18/3/1
