# Blender 4.1.1
# www.blender.org
mtllib MeshPsSinkbasin_1_1.mtl
o PsSinkbasin_1
v -0.030937 0.057522 0.355662
v -0.023225 0.069069 0.355662
v -0.015973 0.061822 0.363622
v -0.021470 0.053598 0.363622
v -0.011674 0.076785 0.355662
v -0.007751 0.067317 0.363622
v 0.001950 0.079495 0.355662
v 0.001950 0.069247 0.363622
v 0.015573 0.076785 0.355662
v 0.011649 0.067317 0.363622
v 0.027123 0.069069 0.355662
v 0.019872 0.061822 0.363622
v 0.034836 0.057523 0.355662
v 0.025370 0.053598 0.363622
v 0.037547 0.043897 0.355662
v 0.027299 0.043897 0.363622
v 0.034836 0.030271 0.355662
v 0.025370 0.034196 0.363622
v 0.027124 0.018725 0.355662
v 0.019873 0.025972 0.363622
v 0.015573 0.011009 0.355662
v 0.011650 0.020477 0.363622
v 0.001950 0.008299 0.355662
v 0.001950 0.018547 0.363622
v -0.011674 0.011009 0.355662
v -0.007751 0.020477 0.363622
v -0.023225 0.018725 0.355662
v -0.015974 0.025972 0.363622
v -0.030937 0.030272 0.355662
v -0.021471 0.034196 0.363622
v -0.033648 0.043897 0.355662
v -0.023401 0.043897 0.363622
v -0.010395 0.056241 0.367615
v -0.014179 0.050578 0.367615
v -0.004732 0.060026 0.367615
v 0.001950 0.061355 0.367615
v 0.008630 0.060026 0.367615
v 0.014293 0.056241 0.367615
v 0.018078 0.050577 0.367615
v 0.019406 0.043897 0.367615
v 0.018078 0.037217 0.367615
v 0.014293 0.031553 0.367615
v 0.008631 0.027768 0.367615
v 0.001950 0.026440 0.367615
v -0.004732 0.027768 0.367615
v -0.010395 0.031553 0.367615
v -0.014179 0.037216 0.367615
v -0.015508 0.043897 0.367615
v -0.004337 0.050183 0.370075
v -0.006275 0.047303 0.370072
v -0.001459 0.052120 0.370072
v 0.001951 0.052787 0.370075
v 0.005358 0.052120 0.370072
v 0.008236 0.050183 0.370075
v 0.010173 0.047304 0.370072
v 0.010840 0.043896 0.370075
v 0.010173 0.040491 0.370072
v 0.008235 0.037610 0.370075
v 0.005357 0.035674 0.370072
v 0.001950 0.035007 0.370075
v -0.001458 0.035674 0.370072
v -0.004337 0.037611 0.370075
v -0.006275 0.040491 0.370072
v -0.006941 0.043897 0.370075
v 0.001952 0.043897 0.370902
v -0.023461 0.054422 0.355662
v -0.017499 0.063345 0.355662
v -0.008577 0.069307 0.355662
v 0.001950 0.071401 0.355662
v 0.012476 0.069307 0.355662
v 0.021399 0.063345 0.355662
v 0.027360 0.054422 0.355662
v 0.029452 0.043897 0.355662
v 0.027360 0.033372 0.355662
v 0.021399 0.024449 0.355662
v 0.012476 0.018487 0.355662
v 0.001950 0.016393 0.355662
v -0.008577 0.018487 0.355662
v -0.017499 0.024449 0.355662
v -0.023461 0.033372 0.355662
v -0.025553 0.043897 0.355662
v -0.023461 0.054422 0.352553
v -0.017878 0.062606 0.354053
v -0.007419 0.069538 0.352553
v 0.001950 0.071401 0.352553
v 0.011683 0.069380 0.354053
v 0.022081 0.062323 0.352553
v 0.027360 0.054422 0.352553
v 0.029452 0.043897 0.352553
v 0.027360 0.033372 0.352553
v 0.021778 0.025188 0.354053
v 0.011318 0.018256 0.352553
v 0.001950 0.016393 0.352553
v -0.007784 0.018414 0.354053
v -0.018182 0.025471 0.352553
v -0.023461 0.033372 0.352553
v -0.025553 0.043897 0.352553
v -0.005058 0.021040 0.352553
v 0.001950 0.018918 0.352553
v 0.001950 0.018918 0.318198
v -0.005058 0.021040 0.318198
v -0.007713 0.017909 0.318198
v -0.018417 0.025062 0.318198
v -0.021085 0.034296 0.352553
v -0.016491 0.028415 0.352553
v -0.016491 0.028415 0.318199
v -0.021085 0.034296 0.318199
v -0.022991 0.043897 0.352553
v -0.022991 0.043897 0.318199
v -0.021085 0.053498 0.352553
v -0.021086 0.053498 0.318198
v -0.016491 0.059379 0.352553
v -0.016491 0.059379 0.318199
v -0.018417 0.062732 0.318198
v -0.007713 0.069885 0.318198
v 0.001950 0.068875 0.352553
v -0.005058 0.066754 0.352553
v -0.005058 0.066754 0.318198
v 0.001950 0.068875 0.318198
v 0.008956 0.066754 0.352553
v 0.008956 0.066754 0.318198
v 0.011613 0.069884 0.318198
v 0.022316 0.062732 0.318198
v 0.024985 0.053498 0.352553
v 0.020390 0.059379 0.352553
v 0.020390 0.059379 0.318198
v 0.024985 0.053498 0.318198
v 0.026890 0.043897 0.352553
v 0.026890 0.043897 0.318198
v 0.024985 0.034296 0.352553
v 0.024984 0.034296 0.318198
v 0.020390 0.028415 0.352553
v 0.020390 0.028415 0.318198
v 0.022316 0.025062 0.318198
v 0.011613 0.017909 0.318198
v 0.008956 0.021040 0.352553
v 0.008956 0.021040 0.318198
v -0.159353 0.045789 0.352197
v -0.159353 -0.070885 0.352197
v -0.083052 0.054762 0.352197
v -0.080059 0.013291 0.352197
v -0.027209 0.027620 0.352197
v -0.014885 0.015296 0.352197
v 0.001950 -0.070885 0.352197
v 0.001950 0.010785 0.352197
v -0.031718 0.044453 0.352197
v -0.159353 0.202222 0.352197
v -0.080059 0.101064 0.352197
v -0.027209 0.061287 0.352197
v 0.018783 0.015296 0.352197
v 0.163003 -0.070885 0.352197
v -0.014885 0.073611 0.352197
v 0.031107 0.027619 0.352197
v 0.083957 0.013291 0.352197
v 0.035617 0.044453 0.352197
v 0.086950 0.054762 0.352197
v 0.001950 0.078121 0.352197
v 0.001950 0.202222 0.352197
v 0.163003 0.045789 0.352197
v 0.031107 0.061287 0.352197
v 0.083957 0.101064 0.352197
v 0.018783 0.073611 0.352197
v 0.163003 0.202222 0.352197
v -0.018243 0.032796 0.343042
v -0.009708 0.024262 0.343042
v 0.001950 0.021138 0.343042
v -0.021366 0.044453 0.343042
v -0.018243 0.056111 0.343042
v 0.013607 0.024262 0.343042
v -0.009708 0.064645 0.343042
v 0.022141 0.032796 0.343042
v 0.001950 0.067769 0.343042
v 0.025264 0.044453 0.343042
v 0.022141 0.056111 0.343042
v 0.013607 0.064645 0.343042
v 0.001949 0.044453 0.343042
v 0.001950 -0.120375 0.352197
v -0.109863 -0.120375 0.352197
v 0.113512 -0.120375 0.352197
vn 0.5667 -0.2348 -0.7898
vn 0.4337 -0.4337 -0.7898
vn 0.3770 -0.3771 -0.8460
vn 0.4927 -0.2041 -0.8459
vn 0.2347 -0.5667 -0.7898
vn 0.2041 -0.4927 -0.8459
vn -0.0000 -0.6134 -0.7897
vn -0.0000 -0.5333 -0.8459
vn -0.2347 -0.5667 -0.7898
vn -0.2041 -0.4927 -0.8460
vn -0.4337 -0.4337 -0.7898
vn -0.3770 -0.3771 -0.8460
vn -0.5667 -0.2348 -0.7898
vn -0.4927 -0.2041 -0.8459
vn -0.6135 -0.0000 -0.7897
vn -0.5333 -0.0000 -0.8459
vn -0.5667 0.2348 -0.7898
vn -0.4927 0.2041 -0.8459
vn -0.4337 0.4337 -0.7898
vn -0.3770 0.3771 -0.8460
vn -0.2347 0.5667 -0.7898
vn -0.2041 0.4927 -0.8460
vn -0.0000 0.6134 -0.7897
vn -0.0000 0.5333 -0.8459
vn 0.2347 0.5667 -0.7898
vn 0.2041 0.4927 -0.8460
vn 0.4337 0.4337 -0.7898
vn 0.3770 0.3771 -0.8460
vn 0.5667 0.2348 -0.7898
vn 0.4927 0.2041 -0.8459
vn 0.6135 -0.0000 -0.7897
vn 0.5333 -0.0000 -0.8459
vn 0.2529 -0.2529 -0.9339
vn 0.3304 -0.1369 -0.9339
vn 0.1369 -0.3304 -0.9339
vn -0.0000 -0.3575 -0.9339
vn -0.1369 -0.3304 -0.9339
vn -0.2529 -0.2529 -0.9339
vn -0.3303 -0.1369 -0.9339
vn -0.3575 -0.0000 -0.9339
vn -0.3303 0.1369 -0.9339
vn -0.2529 0.2529 -0.9339
vn -0.1369 0.3303 -0.9339
vn -0.0000 0.3575 -0.9339
vn 0.1369 0.3303 -0.9339
vn 0.2529 0.2529 -0.9339
vn 0.3303 0.1369 -0.9339
vn 0.3575 -0.0000 -0.9339
vn 0.1250 -0.1250 -0.9843
vn 0.1671 -0.0692 -0.9835
vn 0.0692 -0.1671 -0.9835
vn -0.0000 -0.1768 -0.9843
vn -0.0693 -0.1671 -0.9835
vn -0.1250 -0.1250 -0.9843
vn -0.1671 -0.0692 -0.9835
vn -0.1768 -0.0000 -0.9842
vn -0.1671 0.0692 -0.9835
vn -0.1250 0.1250 -0.9842
vn -0.0692 0.1671 -0.9835
vn -0.0000 0.1768 -0.9843
vn 0.0692 0.1671 -0.9835
vn 0.1250 0.1250 -0.9843
vn 0.1671 0.0692 -0.9835
vn 0.1768 -0.0000 -0.9843
vn -0.0000 -0.0000 -1.0000
vn -0.0000 -0.0000 1.0000
vn 0.6198 -0.7511 0.2276
vn 0.9216 -0.3877 0.0201
vn 0.9287 -0.3704 0.0190
vn 0.7796 -0.6179 0.1022
vn 0.4556 -0.8658 0.2068
vn 0.3050 -0.9495 0.0735
vn -0.0050 -0.9998 0.0175
vn 0.0136 -0.9998 0.0166
vn -0.4559 -0.8615 0.2236
vn -0.2765 -0.9558 0.1001
vn -0.6250 -0.7528 0.2067
vn -0.7634 -0.6418 0.0721
vn -0.9239 -0.3826 -0.0000
vn -1.0000 -0.0000 -0.0000
vn -0.9216 0.3877 0.0201
vn -0.9287 0.3704 0.0190
vn -0.6198 0.7511 0.2276
vn -0.7796 0.6178 0.1023
vn -0.4556 0.8658 0.2068
vn -0.3050 0.9495 0.0735
vn 0.0049 0.9998 0.0175
vn -0.0136 0.9998 0.0166
vn 0.4559 0.8615 0.2236
vn 0.2765 0.9558 0.1001
vn 0.6250 0.7528 0.2067
vn 0.7634 0.6418 0.0721
vn 0.9239 0.3826 -0.0000
vn 1.0000 -0.0000 -0.0000
vn 0.2897 0.9571 -0.0000
vn -0.0000 1.0000 -0.0000
vn 0.5846 0.8110 -0.0242
vn 0.5402 0.8412 -0.0241
vn 0.9043 0.4269 -0.0000
vn 0.7877 0.6160 -0.0000
vn 0.9043 -0.4269 -0.0000
vn 0.7877 -0.6160 -0.0000
vn 0.5285 -0.8486 -0.0244
vn 0.5733 -0.8190 -0.0243
vn -0.0000 -1.0000 -0.0000
vn 0.2897 -0.9571 -0.0000
vn -0.2898 -0.9571 -0.0000
vn -0.5846 -0.8110 -0.0242
vn -0.5402 -0.8412 -0.0241
vn -0.9043 -0.4269 -0.0000
vn -0.7877 -0.6160 -0.0000
vn -0.9043 0.4269 -0.0000
vn -0.7880 0.6157 -0.0000
vn -0.5285 0.8486 -0.0244
vn -0.5733 0.8190 -0.0243
vn -0.2898 0.9571 -0.0000
vn 0.2829 0.4266 0.8591
vn 0.1301 0.1962 0.9719
vn 0.1396 0.2106 0.9675
vn 0.2530 0.3816 0.8890
vn -0.6992 0.7148 -0.0111
vn -0.6969 0.7170 -0.0115
vn 0.7622 0.6473 -0.0000
vn 0.8669 -0.4984 -0.0000
vn 0.1394 -0.1961 0.9706
vn 0.1576 -0.2216 0.9623
vn 0.3092 -0.4347 0.8458
vn 0.2739 -0.3851 0.8813
vn 0.9145 0.4044 -0.0118
vn 0.9161 0.4007 -0.0123
vn -0.1301 -0.1961 0.9719
vn -0.1397 -0.2106 0.9675
vn -0.7626 -0.6469 -0.0000
vn -0.2829 -0.4265 0.8591
vn -0.2531 -0.3816 0.8890
vn 0.6990 -0.7150 -0.0111
vn 0.6967 -0.7172 -0.0115
vn -0.8671 0.4982 -0.0000
vn -0.1395 0.1961 0.9706
vn -0.1576 0.2216 0.9623
vn -0.3092 0.4348 0.8458
vn -0.2739 0.3852 0.8813
vn -0.9145 -0.4045 -0.0118
vn -0.9161 -0.4007 -0.0123
vn -0.4606 -0.2659 -0.8469
vn -0.2669 -0.4623 -0.8456
vn -0.0000 -0.5311 -0.8473
vn -0.5315 -0.0000 -0.8470
vn -0.4601 0.2656 -0.8472
vn 0.2669 -0.4623 -0.8456
vn -0.2661 0.4609 -0.8466
vn 0.4606 -0.2659 -0.8469
vn 0.5315 -0.0000 -0.8471
vn -0.0000 0.5311 -0.8473
vn 0.4601 0.2656 -0.8472
vn 0.2661 0.4609 -0.8466
vn -0.5737 -0.3312 -0.7491
vn -0.3312 -0.5737 -0.7491
vn -0.0000 -0.6624 -0.7491
vn -0.6624 -0.0000 -0.7491
vn -0.5737 0.3312 -0.7491
vn 0.3312 -0.5737 -0.7491
vn -0.3312 0.5737 -0.7491
vn 0.5737 -0.3312 -0.7491
vn -0.0000 0.6624 -0.7491
vn 0.6624 -0.0000 -0.7491
vn 0.5737 0.3312 -0.7491
vn 0.3312 0.5737 -0.7491
vt 0.852136 0.911195
vt 0.850501 0.913642
vt 0.848965 0.912106
vt 0.850130 0.910363
vt 0.848053 0.915277
vt 0.847223 0.913271
vt 0.845167 0.915851
vt 0.845167 0.913679
vt 0.842280 0.915277
vt 0.843112 0.913271
vt 0.839833 0.913642
vt 0.841369 0.912106
vt 0.838198 0.911195
vt 0.840204 0.910363
vt 0.837624 0.908308
vt 0.839795 0.908308
vt 0.838199 0.905421
vt 0.840204 0.906252
vt 0.839833 0.902974
vt 0.841369 0.904510
vt 0.842280 0.901339
vt 0.843111 0.903346
vt 0.845167 0.900765
vt 0.845167 0.902937
vt 0.848053 0.901339
vt 0.847223 0.903346
vt 0.850501 0.902974
vt 0.848965 0.904510
vt 0.852135 0.905421
vt 0.850130 0.906252
vt 0.852710 0.908308
vt 0.850538 0.908308
vt 0.847783 0.910924
vt 0.848585 0.909724
vt 0.846583 0.911726
vt 0.845167 0.912007
vt 0.843751 0.911726
vt 0.842551 0.910924
vt 0.841749 0.909724
vt 0.841468 0.908308
vt 0.841750 0.906892
vt 0.842551 0.905693
vt 0.843751 0.904891
vt 0.845167 0.904609
vt 0.846583 0.904891
vt 0.847782 0.905693
vt 0.848585 0.906892
vt 0.848866 0.908308
vt 0.846499 0.909640
vt 0.846909 0.909030
vt 0.845889 0.910050
vt 0.845167 0.910192
vt 0.844444 0.910050
vt 0.843835 0.909640
vt 0.843424 0.909030
vt 0.843283 0.908308
vt 0.843424 0.907586
vt 0.843835 0.906976
vt 0.844444 0.906566
vt 0.845167 0.906424
vt 0.845889 0.906566
vt 0.846499 0.906976
vt 0.846909 0.907586
vt 0.847050 0.908308
vt 0.845167 0.908308
vt 0.664942 0.903392
vt 0.666448 0.905647
vt 0.664988 0.906252
vt 0.663824 0.904510
vt 0.662686 0.901885
vt 0.662081 0.903345
vt 0.660025 0.901355
vt 0.660025 0.902936
vt 0.657364 0.901885
vt 0.657969 0.903345
vt 0.655108 0.903392
vt 0.656227 0.904510
vt 0.653602 0.905647
vt 0.655062 0.906252
vt 0.653072 0.908308
vt 0.654654 0.908308
vt 0.653602 0.910969
vt 0.655062 0.910364
vt 0.655108 0.913225
vt 0.656227 0.912107
vt 0.657364 0.914732
vt 0.657969 0.913271
vt 0.660025 0.915261
vt 0.660025 0.913680
vt 0.662686 0.914732
vt 0.662081 0.913271
vt 0.664942 0.913225
vt 0.663824 0.912107
vt 0.666448 0.910969
vt 0.664988 0.910364
vt 0.666978 0.908308
vt 0.665396 0.908308
vt 0.521558 0.879754
vt 0.521558 0.881744
vt 0.520864 0.881744
vt 0.521199 0.879919
vt 0.521558 0.878425
vt 0.520864 0.878373
vt 0.193651 0.845136
vt 0.193651 0.843059
vt 0.194265 0.843288
vt 0.194265 0.845136
vt 0.193651 0.847213
vt 0.193969 0.847056
vt 0.421409 0.888427
vt 0.421409 0.889756
vt 0.421051 0.889773
vt 0.420716 0.888199
vt 0.421409 0.886437
vt 0.420716 0.886437
vt 0.421409 0.884091
vt 0.420716 0.884091
vt 0.421409 0.881744
vt 0.420716 0.881744
vt 0.421409 0.879754
vt 0.421051 0.879919
vt 0.421409 0.878425
vt 0.420716 0.878373
vt 0.180684 0.845133
vt 0.180684 0.847210
vt 0.180070 0.846981
vt 0.180070 0.845133
vt 0.180684 0.843056
vt 0.180367 0.843213
vt 0.521558 0.888427
vt 0.521558 0.889756
vt 0.521199 0.889773
vt 0.520864 0.888199
vt 0.521558 0.886437
vt 0.520864 0.886437
vt 0.521558 0.884091
vt 0.520864 0.884091
vt 0.284156 0.867251
vt 0.282674 0.867251
vt 0.282674 0.859993
vt 0.284156 0.859993
vt 0.513204 0.889885
vt 0.513204 0.888290
vt 0.520864 0.886231
vt 0.520864 0.887543
vt 0.513204 0.887543
vt 0.513204 0.886231
vt 0.513204 0.884091
vt 0.520864 0.881950
vt 0.513204 0.881950
vt 0.520864 0.880638
vt 0.513204 0.880638
vt 0.513204 0.879891
vt 0.513204 0.878296
vt 0.228067 0.860312
vt 0.229548 0.860312
vt 0.229548 0.867570
vt 0.228067 0.867570
vt 0.226587 0.860312
vt 0.226587 0.867570
vt 0.413056 0.889885
vt 0.413056 0.888290
vt 0.420716 0.886231
vt 0.420716 0.887543
vt 0.413056 0.887543
vt 0.413056 0.886231
vt 0.413056 0.884091
vt 0.420716 0.881950
vt 0.413056 0.881950
vt 0.420716 0.880638
vt 0.413056 0.880638
vt 0.413056 0.879891
vt 0.413056 0.878296
vt 0.281195 0.867251
vt 0.281195 0.859993
vt 0.164918 0.840794
vt 0.165316 0.842711
vt 0.164819 0.842711
vt 0.164401 0.841331
vt 0.284716 0.859993
vt 0.284732 0.867568
vt 0.164950 0.844556
vt 0.164401 0.844091
vt 0.280696 0.867251
vt 0.280633 0.859993
vt 0.353347 0.867487
vt 0.352311 0.869037
vt 0.351979 0.868460
vt 0.352881 0.867306
vt 0.353757 0.865423
vt 0.353254 0.865423
vt 0.353347 0.863358
vt 0.352881 0.863539
vt 0.352252 0.861753
vt 0.351979 0.862386
vt 0.146945 0.842639
vt 0.147312 0.840794
vt 0.147860 0.841259
vt 0.147442 0.842639
vt 0.230047 0.860312
vt 0.230109 0.867570
vt 0.147343 0.844556
vt 0.147860 0.844019
vt 0.226026 0.867570
vt 0.226011 0.859995
vt 0.323807 0.863302
vt 0.324842 0.861752
vt 0.325175 0.862329
vt 0.324273 0.863483
vt 0.323396 0.865366
vt 0.323900 0.865366
vt 0.323807 0.867431
vt 0.324273 0.867249
vt 0.324902 0.869036
vt 0.325175 0.868403
vt 0.439578 0.386525
vt 0.439578 0.409383
vt 0.424630 0.411141
vt 0.424043 0.403016
vt 0.413689 0.405823
vt 0.411275 0.403409
vt 0.407976 0.386525
vt 0.407976 0.402525
vt 0.414573 0.409122
vt 0.439578 0.440031
vt 0.424043 0.420213
vt 0.413689 0.412420
vt 0.404679 0.403409
vt 0.376423 0.386525
vt 0.411275 0.414834
vt 0.402264 0.405823
vt 0.391910 0.403016
vt 0.401380 0.409122
vt 0.391324 0.411141
vt 0.407976 0.415718
vt 0.407976 0.440031
vt 0.376423 0.409383
vt 0.402264 0.412420
vt 0.391910 0.420213
vt 0.404679 0.414834
vt 0.376423 0.440031
vt 0.411933 0.406838
vt 0.410261 0.405166
vt 0.407976 0.404554
vt 0.412545 0.409122
vt 0.411933 0.411405
vt 0.405693 0.405166
vt 0.410260 0.413077
vt 0.404021 0.406838
vt 0.407976 0.413689
vt 0.403409 0.409122
vt 0.404021 0.411406
vt 0.405693 0.413077
vt 0.407976 0.409122
vt 0.407976 0.376829
vt 0.429882 0.376829
vt 0.386119 0.376829
s 1
usemtl M_PsSinkbasin_1_0
f 1/1/1 2/2/2 3/3/3 4/4/4
f 2/2/2 5/5/5 6/6/6 3/3/3
f 5/5/5 7/7/7 8/8/8 6/6/6
f 7/7/7 9/9/9 10/10/10 8/8/8
f 9/9/9 11/11/11 12/12/12 10/10/10
f 11/11/11 13/13/13 14/14/14 12/12/12
f 13/13/13 15/15/15 16/16/16 14/14/14
f 15/15/15 17/17/17 18/18/18 16/16/16
f 17/17/17 19/19/19 20/20/20 18/18/18
f 19/19/19 21/21/21 22/22/22 20/20/20
f 21/21/21 23/23/23 24/24/24 22/22/22
f 23/23/23 25/25/25 26/26/26 24/24/24
f 25/25/25 27/27/27 28/28/28 26/26/26
f 27/27/27 29/29/29 30/30/30 28/28/28
f 29/29/29 31/31/31 32/32/32 30/30/30
f 31/31/31 1/1/1 4/4/4 32/32/32
f 4/4/4 3/3/3 33/33/33 34/34/34
f 3/3/3 6/6/6 35/35/35 33/33/33
f 6/6/6 8/8/8 36/36/36 35/35/35
f 8/8/8 10/10/10 37/37/37 36/36/36
f 10/10/10 12/12/12 38/38/38 37/37/37
f 12/12/12 14/14/14 39/39/39 38/38/38
f 14/14/14 16/16/16 40/40/40 39/39/39
f 16/16/16 18/18/18 41/41/41 40/40/40
f 18/18/18 20/20/20 42/42/42 41/41/41
f 20/20/20 22/22/22 43/43/43 42/42/42
f 22/22/22 24/24/24 44/44/44 43/43/43
f 24/24/24 26/26/26 45/45/45 44/44/44
f 26/26/26 28/28/28 46/46/46 45/45/45
f 28/28/28 30/30/30 47/47/47 46/46/46
f 30/30/30 32/32/32 48/48/48 47/47/47
f 32/32/32 4/4/4 34/34/34 48/48/48
f 34/34/34 33/33/33 49/49/49 50/50/50
f 33/33/33 35/35/35 51/51/51 49/49/49
f 35/35/35 36/36/36 52/52/52 51/51/51
f 36/36/36 37/37/37 53/53/53 52/52/52
f 37/37/37 38/38/38 54/54/54 53/53/53
f 38/38/38 39/39/39 55/55/55 54/54/54
f 39/39/39 40/40/40 56/56/56 55/55/55
f 40/40/40 41/41/41 57/57/57 56/56/56
f 41/41/41 42/42/42 58/58/58 57/57/57
f 42/42/42 43/43/43 59/59/59 58/58/58
f 43/43/43 44/44/44 60/60/60 59/59/59
f 44/44/44 45/45/45 61/61/61 60/60/60
f 45/45/45 46/46/46 62/62/62 61/61/61
f 46/46/46 47/47/47 63/63/63 62/62/62
f 47/47/47 48/48/48 64/64/64 63/63/63
f 48/48/48 34/34/34 50/50/50 64/64/64
f 65/65/65 49/49/49 51/51/51 52/52/52
f 65/65/65 52/52/52 53/53/53 54/54/54
f 65/65/65 54/54/54 55/55/55 56/56/56
f 65/65/65 56/56/56 57/57/57 58/58/58
f 65/65/65 58/58/58 59/59/59 60/60/60
f 65/65/65 60/60/60 61/61/61 62/62/62
f 65/65/65 62/62/62 63/63/63 64/64/64
f 65/65/65 64/64/64 50/50/50 49/49/49
f 2/66/66 1/67/66 66/68/66 67/69/66
f 5/70/66 2/66/66 67/69/66 68/71/66
f 7/72/66 5/70/66 68/71/66 69/73/66
f 9/74/66 7/72/66 69/73/66 70/75/66
f 11/76/66 9/74/66 70/75/66 71/77/66
f 13/78/66 11/76/66 71/77/66 72/79/66
f 15/80/66 13/78/66 72/79/66 73/81/66
f 17/82/66 15/80/66 73/81/66 74/83/66
f 19/84/66 17/82/66 74/83/66 75/85/66
f 21/86/66 19/84/66 75/85/66 76/87/66
f 23/88/66 21/86/66 76/87/66 77/89/66
f 25/90/66 23/88/66 77/89/66 78/91/66
f 27/92/66 25/90/66 78/91/66 79/93/66
f 29/94/66 27/92/66 79/93/66 80/95/66
f 31/96/66 29/94/66 80/95/66 81/97/66
f 1/67/66 31/96/66 81/97/66 66/68/66
f 67/98/67 66/99/68 82/100/69 83/101/70
f 68/102/71 67/98/67 83/101/70 84/103/72
f 69/104/73 68/105/71 84/106/72 85/107/74
f 70/108/75 69/104/73 85/107/74 86/109/76
f 71/110/77 70/111/75 86/112/76 87/113/78
f 72/114/79 71/110/77 87/113/78 88/115/79
f 73/116/80 72/114/79 88/115/79 89/117/80
f 74/118/81 73/116/80 89/117/80 90/119/82
f 75/120/83 74/118/81 90/119/82 91/121/84
f 76/122/85 75/120/83 91/121/84 92/123/86
f 77/124/87 76/125/85 92/126/86 93/127/88
f 78/128/89 77/124/87 93/127/88 94/129/90
f 79/130/91 78/131/89 94/132/90 95/133/92
f 80/134/93 79/130/91 95/133/92 96/135/93
f 81/136/94 80/134/93 96/135/93 97/137/94
f 66/99/68 81/136/94 97/137/94 82/100/69
f 98/138/95 99/139/96 100/140/96 101/141/95
f 95/133/92 94/132/90 102/142/97 103/143/98
f 104/144/99 105/145/100 106/146/100 107/147/99
f 108/137/94 104/144/99 107/147/99 109/148/94
f 110/149/101 108/137/94 109/148/94 111/150/101
f 112/151/102 110/149/101 111/150/101 113/152/102
f 84/103/72 83/101/70 114/153/103 115/154/104
f 116/155/105 117/156/106 118/157/106 119/158/105
f 120/159/107 116/155/105 119/158/105 121/160/107
f 87/113/78 86/112/76 122/161/108 123/162/109
f 124/163/110 125/164/111 126/165/111 127/166/110
f 128/117/80 124/163/110 127/166/110 129/167/80
f 130/168/112 128/117/80 129/167/80 131/169/112
f 132/170/113 130/168/112 131/169/112 133/171/113
f 92/123/86 91/121/84 134/172/114 135/173/115
f 99/139/96 136/174/116 137/175/116 100/140/96
f 94/176/117 93/177/118 99/178/119 98/179/120
f 102/180/121 94/181/122 98/138/121 101/141/122
f 93/177/118 92/182/66 136/183/66 99/178/119
f 92/184/123 135/185/123 137/175/123 136/174/123
f 96/186/66 95/187/66 105/188/66 104/189/66
f 95/133/124 103/143/124 106/146/124 105/145/124
f 97/190/66 96/186/66 104/189/66 108/191/66
f 82/192/125 97/190/66 108/191/66 110/193/126
f 83/194/127 82/192/125 110/193/126 112/195/128
f 114/153/129 83/101/130 112/151/129 113/152/130
f 85/196/131 84/197/66 117/198/66 116/199/132
f 84/200/133 115/201/133 118/157/133 117/156/133
f 86/202/134 85/196/131 116/199/132 120/203/135
f 122/204/136 86/205/137 120/159/136 121/160/137
f 88/206/66 87/207/66 125/208/66 124/209/66
f 87/113/138 123/162/138 126/165/138 125/164/138
f 89/210/66 88/206/66 124/209/66 128/211/66
f 90/212/139 89/210/66 128/211/66 130/213/140
f 91/214/141 90/212/139 130/213/140 132/215/142
f 134/172/143 91/121/144 132/170/143 133/171/144
f 139/216/65 138/217/65 140/218/65 141/219/65
f 142/220/145 143/221/146 139/216/65 141/219/65
f 144/222/65 139/216/65 143/221/146 145/223/147
f 146/224/148 142/220/145 141/219/65 140/218/65
f 138/217/65 147/225/65 148/226/65 140/218/65
f 149/227/149 146/224/148 140/218/65 148/226/65
f 145/223/147 150/228/150 151/229/65 144/222/65
f 152/230/151 149/227/149 148/226/65 147/225/65
f 150/228/150 153/231/152 154/232/65 151/229/65
f 153/231/152 155/233/153 156/234/65 154/232/65
f 157/235/154 152/230/151 147/225/65 158/236/65
f 159/237/65 151/229/65 154/232/65 156/234/65
f 155/233/153 160/238/155 161/239/65 156/234/65
f 160/238/155 162/240/156 163/241/65 161/239/65
f 162/240/156 157/235/154 158/236/65 163/241/65
f 163/241/65 159/237/65 156/234/65 161/239/65
f 143/221/146 142/220/145 164/242/157 165/243/158
f 145/223/147 143/221/146 165/243/158 166/244/159
f 142/220/145 146/224/148 167/245/160 164/242/157
f 146/224/148 149/227/149 168/246/161 167/245/160
f 150/228/150 145/223/147 166/244/159 169/247/162
f 149/227/149 152/230/151 170/248/163 168/246/161
f 153/231/152 150/228/150 169/247/162 171/249/164
f 152/230/151 157/235/154 172/250/165 170/248/163
f 155/233/153 153/231/152 171/249/164 173/251/166
f 160/238/155 155/233/153 173/251/166 174/252/167
f 157/235/154 162/240/156 175/253/168 172/250/165
f 162/240/156 160/238/155 174/252/167 175/253/168
f 176/254/65 166/244/65 165/243/65 164/242/65
f 176/254/65 164/242/65 167/245/65 168/246/65
f 176/254/65 168/246/65 170/248/65 172/250/65
f 176/254/65 171/249/65 169/247/65 166/244/65
f 176/254/65 174/252/65 173/251/65 171/249/65
f 176/254/65 172/250/65 175/253/65 174/252/65
f 144/222/65 177/255/65 178/256/65 139/216/65
f 151/229/65 179/257/65 177/255/65 144/222/65
