# Blender 4.1.1
# www.blender.org
mtllib MeshPsTvStand_206_5_4.mtl
o PsTvStand_206_5
v -10.792963 18.122942 0.350350
v -10.135189 18.122940 0.350446
v -10.793503 18.582071 0.350697
v -10.135431 18.582069 0.350697
v -10.135189 18.122940 0.091802
v -10.793504 18.582071 0.091457
v -10.135431 18.582071 0.091457
v -10.793745 18.122942 0.091800
vn -0.0001 -0.0008 1.0000
vn -0.0001 -0.0006 1.0000
vn -0.0001 -0.0007 1.0000
vn -0.0000 -0.0005 1.0000
vn -0.0000 -0.0008 -1.0000
vn -0.0000 -0.0007 -1.0000
vn -1.0000 -0.0012 0.0030
vn -1.0000 -0.0000 0.0010
vn -1.0000 -0.0006 0.0020
vn -1.0000 0.0005 -0.0000
vn -0.0000 1.0000 -0.0000
vn 1.0000 0.0005 -0.0000
vt -0.753907 2.308385
vt -1.829329 2.041544
vt -0.752678 0.893529
vt -1.823072 0.893529
vt 4.503204 0.779091
vt 3.471786 -0.540201
vt 4.504406 -0.540201
vt 3.472988 0.779091
s 1
usemtl M_PsTvStand_206_5_0
f 1/1/1 2/2/2 3/3/3
f 3/3/3 2/2/2 4/4/4
f 5/5/5 6/6/5 7/7/5
f 5/5/6 8/8/6 6/6/6
f 1/1/7 3/3/8 8/8/9
f 8/8/9 3/3/8 6/6/10
f 3/3/11 4/4/11 6/6/11
f 6/6/11 4/4/11 7/7/11
f 4/4/12 2/2/12 7/7/12
f 7/7/12 2/2/12 5/5/12
