# Blender 4.1.1
# www.blender.org
mtllib FridgeDrawer2_10_FridgeDrawer2B4_2_GeomSubset_0.mtl
o FridgeDrawer2_10_FridgeDrawer2B4_2_GeomSubset_0
v 0.005766 0.047896 -0.956450
v 0.005755 0.047896 -0.956450
v 0.005766 0.047906 -0.956450
v 0.005755 0.047906 -0.956450
v 0.005766 0.047896 -0.956450
v 0.005755 0.047896 -0.956450
v 0.005766 0.047906 -0.956450
v 0.005755 0.047906 -0.956450
v 0.005766 0.047896 -0.956450
v 0.005755 0.047896 -0.956450
v 0.005766 0.047906 -0.956450
v 0.005755 0.047906 -0.956450
v 0.005766 0.047896 -0.956450
v 0.005755 0.047896 -0.956450
v 0.005766 0.047906 -0.956450
v 0.005755 0.047906 -0.956450
v 0.005766 0.047896 -0.956450
v 0.005755 0.047896 -0.956450
v 0.005766 0.047906 -0.956450
v 0.005755 0.047906 -0.956450
v 0.005766 0.047896 -0.956450
v 0.005755 0.047896 -0.956450
v 0.005766 0.047906 -0.956450
v 0.005755 0.047906 -0.956450
v 0.005766 0.047896 -0.956450
v 0.005755 0.047896 -0.956450
v 0.005766 0.047906 -0.956450
v 0.005755 0.047906 -0.956450
v -0.029737 0.233588 -0.661681
v -0.374660 0.233588 -0.661681
v -0.029737 0.157528 -0.771665
v -0.029737 0.152115 -0.774433
v -0.374660 0.152115 -0.774433
v -0.374660 0.157528 -0.771665
v -0.029737 0.233588 -0.654136
v -0.029737 0.157528 -0.654136
v -0.029737 0.152115 -0.654136
v -0.029737 -0.222780 -0.654136
v -0.374660 0.157528 -0.654136
v -0.374660 0.233588 -0.654136
v -0.374660 0.152115 -0.654136
v -0.374660 -0.222780 -0.654136
v -0.374660 -0.182484 -0.774433
v -0.374660 -0.204840 -0.753300
v -0.029737 -0.204840 -0.753300
v -0.029737 -0.182484 -0.774433
v -0.029737 -0.203139 -0.761387
v -0.374660 -0.203139 -0.761387
v -0.029737 -0.198292 -0.768243
v -0.374660 -0.198292 -0.768243
v -0.029737 -0.191040 -0.772824
v -0.374660 -0.191040 -0.772824
v -0.366281 0.152455 -0.766454
v -0.038116 0.152455 -0.766454
v -0.369441 -0.195373 -0.751645
v -0.366408 -0.215278 -0.652924
v -0.037989 -0.215278 -0.652924
v -0.034956 -0.195373 -0.751645
v -0.366281 0.150277 -0.767567
v -0.038116 0.150277 -0.767567
v -0.041407 0.157528 -0.654136
v -0.037989 0.225977 -0.654136
v -0.041407 0.152115 -0.654136
v -0.369360 -0.194279 -0.757918
v -0.369360 -0.191511 -0.761833
v -0.369360 -0.187370 -0.764449
v -0.369421 -0.181542 -0.765385
v -0.362990 0.152115 -0.654136
v -0.366408 0.225977 -0.654136
v -0.362990 0.157528 -0.654136
v -0.034976 -0.181542 -0.765385
v -0.035037 -0.187370 -0.764449
v -0.035037 -0.191511 -0.761833
v -0.035037 -0.194279 -0.757918
v -0.040739 0.151742 -0.677152
v -0.037244 -0.210393 -0.677152
v -0.363658 0.151742 -0.677152
v -0.363665 0.156488 -0.677152
v -0.368761 0.212340 -0.677152
v -0.367153 -0.210393 -0.677152
v -0.040732 0.156488 -0.677152
v -0.035636 0.212340 -0.677152
v -0.029737 0.222888 -0.677152
v -0.374660 0.222888 -0.677152
v -0.374660 -0.218617 -0.677152
v -0.029737 -0.218617 -0.677152
v -0.029737 0.157528 -0.677152
v -0.029737 0.152115 -0.677152
v -0.374660 0.152115 -0.677152
v -0.374660 0.157528 -0.677152
v -0.029737 -0.237960 -0.654136
v -0.374660 -0.237960 -0.654136
v -0.374660 -0.233797 -0.677153
v -0.029737 -0.233797 -0.677153
vn -0.0000 -0.0000 -1.0000
vn -0.0000 0.8603 -0.5097
vn -0.0000 0.8544 -0.5196
vn -0.0000 0.8544 -0.5197
vn -0.0250 0.0945 -0.9952
vn -0.0184 0.0522 -0.9985
vn 0.0184 0.0522 -0.9985
vn 0.0250 0.0945 -0.9952
vn -0.0014 -0.0000 -1.0000
vn -0.0004 -0.0000 -1.0000
vn 0.0014 -0.0000 -1.0000
vn 0.0004 -0.0000 -1.0000
vn -0.0001 -0.9800 0.1989
vn -0.0000 -1.0000 -0.0000
vn -0.0000 -0.9800 0.1989
vn 0.9995 0.0095 0.0308
vn 0.9995 0.0096 0.0303
vn 0.9996 -0.0031 0.0298
vn 0.9996 -0.0006 0.0292
vn -0.9994 -0.0076 0.0352
vn -0.9992 -0.0086 0.0388
vn -0.9996 -0.0032 0.0298
vn -0.9996 -0.0007 0.0292
vn -0.9939 -0.0681 0.0871
vn -0.9944 -0.0722 0.0773
vn -0.9995 0.0095 0.0308
vn -0.9995 0.0097 0.0300
vn 0.9994 -0.0076 0.0352
vn 0.9992 -0.0085 0.0388
vn 0.9944 -0.0722 0.0773
vn 0.9939 -0.0681 0.0871
vn -0.0000 -0.9803 -0.1976
vn -0.0000 -0.8225 0.5688
vn -0.0000 0.9840 0.1780
vn -1.0000 -0.0000 -0.0000
vn 1.0000 -0.0000 -0.0000
vn -0.0000 -0.0001 1.0000
vt -170.885910 -111.206017
vt -170.885910 -111.206100
vt -170.885834 -111.206100
vt -170.885834 -111.206017
vt -170.122879 -0.680835
vt -170.122879 0.537804
vt -170.173492 0.546534
vt -170.173492 -0.689564
vt -171.155029 -0.527725
vt -171.176926 -0.547626
vt -170.261978 -0.547626
vt -170.283890 -0.527725
vt -171.155029 0.642752
vt -171.176926 0.662942
vt -171.176926 0.461184
vt -171.145981 0.461184
vt -171.176926 0.446827
vt -171.145981 0.446827
vt -170.261978 0.446827
vt -170.292938 0.446827
vt -170.292938 0.461184
vt -170.261978 0.461184
vt -170.261978 0.662942
vt -170.283890 0.642752
vt -170.264099 0.426743
vt -170.285507 0.426743
vt -170.285507 -0.551186
vt -170.264099 -0.551186
vt -170.306671 0.598549
vt -170.370911 0.585599
vt -170.370911 -0.374429
vt -170.309891 -0.375418
vt -170.266449 0.417096
vt -170.327484 0.414340
vt -170.327484 0.401758
vt -170.266449 0.402747
vt -170.266449 0.598558
vt -170.327484 0.562405
vt -170.263229 -0.571235
vt -170.327484 -0.558284
vt -170.309891 -0.389767
vt -170.370911 -0.387011
vt -170.370911 -0.535074
vt -170.309891 -0.571226
vt -170.150848 0.914103
vt -170.215698 0.912112
vt -170.215698 0.033454
vt -170.150848 0.031462
vt -170.220245 -0.551186
vt -170.220245 0.426743
vt -170.241867 0.398416
vt -170.241867 -0.522859
vt -170.180389 -0.522859
vt -170.180389 0.398416
vt -170.392761 0.460529
vt -170.392761 0.661976
vt -170.412781 0.661976
vt -170.453781 0.633638
vt -170.453781 0.460529
vt -170.453781 0.446194
vt -170.392761 0.446194
vt -170.351028 -0.371314
vt -170.351028 0.622014
vt -170.412003 0.610981
vt -170.412003 -0.371314
vt -170.351028 -0.385656
vt -170.412003 -0.385656
vt -170.412003 -0.558835
vt -170.371017 -0.587185
vt -170.351028 -0.587185
vt -170.392761 -0.546722
vt -170.453781 -0.535694
vt -171.176926 -0.587893
vt -170.261978 -0.587893
vt -170.453781 -0.575898
vt -170.392761 -0.586926
vt -170.195633 0.394708
vt -170.195633 -0.519151
vt -170.155411 -0.519151
vt -170.155411 0.394708
vt -170.351028 0.662235
vt -170.412003 0.651202
s 1
usemtl M_FridgeDrawer2B4_0
f 1/1/1 2/2/1 4/3/1 3/4/1
f 69/5/2 62/6/2 82/7/3 79/8/4
f 57/9/5 38/10/6 42/11/7 56/12/8
f 62/13/1 35/14/1 36/15/1 61/16/1
f 61/16/1 36/15/1 37/17/9 63/18/10
f 56/12/8 42/11/7 41/19/11 68/20/12
f 70/21/1 39/22/1 40/23/1 69/24/1
f 68/20/12 41/19/11 39/22/1 70/21/1
f 63/18/10 37/17/9 38/10/6 57/9/5
f 69/24/1 40/23/1 35/14/1 62/13/1
f 29/25/13 35/26/14 40/27/14 30/28/15
f 57/29/16 76/30/17 75/31/18 63/32/19
f 70/33/20 78/34/21 77/35/22 68/36/23
f 70/33/20 69/37/24 79/38/25 78/34/21
f 56/39/26 68/36/23 77/35/22 80/40/27
f 61/41/28 63/32/19 75/31/18 81/42/29
f 61/41/28 81/42/29 82/43/30 62/44/31
f 76/45/32 57/46/32 56/47/32 80/48/32
f 84/49/33 83/50/33 29/25/13 30/28/15
f 94/51/34 93/52/34 92/53/34 91/54/34
f 36/55/35 35/56/35 29/57/35 83/58/35 87/59/35
f 88/60/35 37/61/35 36/55/35 87/59/35
f 41/62/36 42/63/36 85/64/36 89/65/36
f 39/66/36 90/67/36 84/68/36 30/69/36 40/70/36
f 90/67/36 39/66/36 41/62/36 89/65/36
f 38/71/35 37/61/35 88/60/35 86/72/35
f 42/11/7 38/10/6 91/73/1 92/74/1
f 38/71/35 86/72/35 94/75/35 91/76/35
f 86/77/37 85/78/37 93/79/37 94/80/37
f 85/64/36 42/63/36 92/81/36 93/82/36
