# Blender 4.1.1
# www.blender.org
mtllib MeshFridgeMaindoorB4_4_GeomSubset_5.mtl
o MeshFridgeMaindoorB4_4_GeomSubset_5
v 0.005766 0.047896 -0.956450
v 0.005755 0.047896 -0.956450
v 0.005766 0.047905 -0.956450
v 0.005755 0.047905 -0.956450
v 0.005766 0.047896 -0.956450
v 0.005755 0.047896 -0.956450
v 0.005766 0.047905 -0.956450
v 0.005755 0.047905 -0.956450
v 0.005766 0.047896 -0.956450
v 0.005755 0.047896 -0.956450
v 0.005766 0.047905 -0.956450
v 0.005755 0.047905 -0.956450
v 0.005766 0.047896 -0.956450
v 0.005755 0.047896 -0.956450
v 0.005766 0.047905 -0.956450
v 0.005755 0.047905 -0.956450
v 0.005766 0.047896 -0.956450
v 0.005755 0.047896 -0.956450
v 0.005766 0.047905 -0.956450
v 0.005755 0.047905 -0.956450
v 0.005766 0.047896 -0.956450
v 0.005755 0.047896 -0.956450
v 0.005766 0.047905 -0.956450
v 0.005755 0.047905 -0.956450
v 0.005766 0.047896 -0.956450
v 0.005755 0.047896 -0.956450
v 0.005766 0.047905 -0.956450
v 0.005755 0.047905 -0.956450
v -0.512835 -0.233570 -0.902458
v -0.518819 -0.233570 -0.897240
v 0.522474 -0.233570 -0.902458
v 0.528458 -0.233570 -0.897240
v -0.518819 -0.233571 0.238667
v -0.512835 -0.233571 0.243886
v 0.528458 -0.233571 0.238667
v 0.522474 -0.233571 0.243886
v -0.512835 -0.372950 0.243885
v 0.522474 -0.372950 0.243885
v -0.467204 -0.233570 -0.852235
v -0.461219 -0.233570 -0.857453
v 0.470858 -0.233570 -0.857453
v 0.476842 -0.233570 -0.852235
v -0.461219 -0.233571 0.198880
v -0.467204 -0.233571 0.193662
v 0.476842 -0.233571 0.193662
v 0.470858 -0.233571 0.198880
v -0.514031 -0.225290 -0.893065
v -0.508048 -0.225290 -0.898283
v 0.517686 -0.225290 -0.898283
v 0.523670 -0.225290 -0.893065
v -0.508048 -0.225291 0.239711
v -0.514031 -0.225291 0.234493
v 0.523670 -0.225291 0.234493
v 0.517686 -0.225291 0.239711
v -0.466006 -0.225290 -0.861627
v -0.471991 -0.225290 -0.856409
v 0.481630 -0.225290 -0.856409
v 0.475645 -0.225290 -0.861627
v -0.471991 -0.225291 0.197836
v -0.466006 -0.225291 0.203054
v 0.475645 -0.225291 0.203054
v 0.481630 -0.225291 0.197836
v -0.518819 -0.366051 -0.897240
v -0.511908 -0.372950 -0.894744
v -0.512835 -0.366051 -0.902458
v -0.509972 -0.372950 -0.896432
v 0.522474 -0.366051 -0.902458
v 0.519611 -0.372950 -0.896432
v 0.528458 -0.366051 -0.897240
v 0.521547 -0.372950 -0.894744
v -0.518819 -0.366051 0.238667
v -0.513530 -0.372950 0.243279
v 0.523169 -0.372950 0.243279
v 0.528458 -0.366051 0.238667
v -0.526210 -0.232949 0.080090
v -0.528950 -0.226304 0.080123
v -0.527709 -0.219270 0.080158
v -0.522819 -0.213734 0.080185
v -0.515590 -0.211178 0.080198
v -0.507959 -0.212288 0.080193
v -0.501971 -0.216765 0.080170
v -0.499231 -0.223411 0.080137
v -0.500471 -0.230443 0.080103
v -0.505361 -0.235979 0.080075
v -0.512591 -0.238535 0.080063
v -0.520221 -0.237426 0.080068
v -0.526209 -0.233252 0.134878
v -0.528950 -0.226606 0.134911
v -0.527709 -0.219574 0.134946
v -0.522819 -0.214038 0.134973
v -0.515590 -0.211482 0.134986
v -0.507959 -0.212592 0.134981
v -0.501971 -0.217069 0.134959
v -0.499231 -0.223715 0.134926
v -0.500471 -0.230747 0.134891
v -0.505361 -0.236283 0.134863
v -0.512590 -0.238839 0.134851
v -0.520221 -0.237729 0.134856
v -0.526658 -0.232651 -0.855399
v -0.529399 -0.226006 -0.855366
v -0.528158 -0.218973 -0.855331
v -0.523268 -0.213437 -0.855304
v -0.516038 -0.210881 -0.855291
v -0.508409 -0.211991 -0.855297
v -0.502419 -0.216467 -0.855319
v -0.499679 -0.223113 -0.855352
v -0.500920 -0.230146 -0.855387
v -0.505811 -0.235682 -0.855414
v -0.513039 -0.238237 -0.855427
v -0.520670 -0.237129 -0.855421
v -0.526659 -0.232955 -0.800611
v -0.529399 -0.226310 -0.800578
v -0.528158 -0.219276 -0.800543
v -0.523268 -0.213740 -0.800516
v -0.516039 -0.211184 -0.800503
v -0.508408 -0.212294 -0.800509
v -0.502420 -0.216771 -0.800531
v -0.499679 -0.223417 -0.800564
v -0.500920 -0.230449 -0.800599
v -0.505811 -0.235985 -0.800626
v -0.513039 -0.238541 -0.800639
v -0.520670 -0.237432 -0.800633
v -0.448651 -0.214940 -0.846495
v -0.454636 -0.214940 -0.841277
v 0.464275 -0.214940 -0.841277
v 0.458291 -0.214940 -0.846495
v -0.454636 -0.214940 0.182704
v -0.448651 -0.214940 0.187922
v 0.458291 -0.214940 0.187922
v 0.464275 -0.214940 0.182704
v -0.412745 -0.333621 -0.804751
v -0.406761 -0.333621 -0.809969
v 0.416399 -0.333621 -0.809969
v 0.422384 -0.333621 -0.804751
v -0.406761 -0.333621 0.151396
v -0.412745 -0.333621 0.146178
v 0.416399 -0.333621 0.151396
v 0.422384 -0.333621 0.146178
v -0.467204 -0.233571 -0.281762
v -0.467204 -0.233571 -0.240018
v -0.454636 -0.214940 -0.240018
v -0.454636 -0.214940 -0.281762
v 0.476842 -0.233571 -0.240018
v 0.476842 -0.233571 -0.281762
v 0.464275 -0.214940 -0.240018
v 0.464275 -0.214940 -0.281762
v -0.467204 -0.233570 -0.662675
v -0.467204 -0.233570 -0.620931
v -0.454636 -0.214940 -0.620931
v -0.454636 -0.214940 -0.662675
v 0.476842 -0.233570 -0.620931
v 0.476842 -0.233570 -0.662675
v 0.464275 -0.214940 -0.620931
v 0.464275 -0.214940 -0.662675
v -0.412745 -0.333621 -0.227234
v -0.398083 -0.333621 -0.240018
v -0.412745 -0.333621 -0.294546
v -0.398083 -0.333621 -0.281762
v 0.422384 -0.333621 -0.227234
v 0.407722 -0.333621 -0.240018
v 0.407722 -0.333621 -0.281762
v 0.422384 -0.333621 -0.294546
v -0.412745 -0.214940 -0.268978
v -0.427406 -0.214940 -0.281762
v -0.427406 -0.214940 -0.240018
v -0.412745 -0.214940 -0.252802
v 0.422384 -0.214940 -0.252802
v 0.437046 -0.214940 -0.240018
v 0.437046 -0.214940 -0.281762
v 0.422384 -0.214940 -0.268978
v 0.407722 -0.333621 -0.662675
v 0.422384 -0.333621 -0.675459
v 0.422384 -0.333621 -0.608147
v 0.407722 -0.333621 -0.620931
v -0.398083 -0.333621 -0.620931
v -0.412745 -0.333621 -0.608147
v -0.412745 -0.333621 -0.675459
v -0.398083 -0.333621 -0.662675
v -0.412745 -0.214940 -0.649891
v -0.427406 -0.214940 -0.662675
v -0.427406 -0.214940 -0.620931
v -0.412745 -0.214940 -0.633715
v 0.422384 -0.214940 -0.633715
v 0.437046 -0.214940 -0.620931
v 0.437046 -0.214940 -0.662675
v 0.422384 -0.214940 -0.649891
v -0.406761 -0.224363 -0.809969
v -0.408000 -0.217700 -0.812578
v -0.410991 -0.214940 -0.818875
v -0.422960 -0.214940 -0.808440
v -0.415737 -0.217700 -0.805831
v -0.412745 -0.224363 -0.804751
v -0.412745 -0.224363 0.146178
v -0.415737 -0.217700 0.147259
v -0.422960 -0.214940 0.149867
v -0.410991 -0.214940 0.160303
v -0.408000 -0.217700 0.154005
v -0.406761 -0.224363 0.151396
v 0.422384 -0.224363 -0.804751
v 0.425376 -0.217700 -0.805831
v 0.432599 -0.214940 -0.808440
v 0.420631 -0.214940 -0.818875
v 0.417638 -0.217700 -0.812578
v 0.416399 -0.224363 -0.809969
v 0.416399 -0.224363 0.151396
v 0.417638 -0.217700 0.154005
v 0.420631 -0.214940 0.160303
v 0.432599 -0.214940 0.149867
v 0.425376 -0.217700 0.147259
v 0.422384 -0.224363 0.146178
v -0.402314 -0.214940 -0.248925
v -0.399323 -0.217700 -0.242627
v -0.398083 -0.224363 -0.240018
v 0.407722 -0.224363 -0.240018
v 0.408961 -0.217700 -0.242627
v 0.411953 -0.214940 -0.248925
v -0.398083 -0.224363 -0.281762
v -0.399323 -0.217700 -0.279153
v -0.402314 -0.214940 -0.272855
v 0.411953 -0.214940 -0.272855
v 0.408961 -0.217700 -0.279153
v 0.407722 -0.224363 -0.281762
v -0.402314 -0.214940 -0.629838
v -0.399323 -0.217700 -0.623540
v -0.398083 -0.224363 -0.620931
v 0.407722 -0.224363 -0.620931
v 0.408961 -0.217700 -0.623540
v 0.411953 -0.214940 -0.629838
v -0.398083 -0.224363 -0.662675
v -0.399323 -0.217700 -0.660066
v -0.402314 -0.214940 -0.653768
v 0.411953 -0.214940 -0.653768
v 0.408961 -0.217700 -0.660066
v 0.407722 -0.224363 -0.662675
v -0.412745 -0.224363 -0.227234
v -0.415737 -0.217700 -0.228315
v -0.422960 -0.214940 -0.230924
v 0.432599 -0.214940 -0.230924
v 0.425376 -0.217700 -0.228315
v 0.422384 -0.224363 -0.227234
v -0.422960 -0.214940 -0.290857
v -0.415737 -0.217700 -0.293465
v -0.412745 -0.224363 -0.294546
v -0.412745 -0.224363 -0.608147
v -0.415737 -0.217700 -0.609228
v -0.422960 -0.214940 -0.611836
v -0.422960 -0.214940 -0.671770
v -0.415737 -0.217700 -0.674379
v -0.412745 -0.224363 -0.675459
v 0.422384 -0.224363 -0.675459
v 0.425376 -0.217700 -0.674379
v 0.432599 -0.214940 -0.671770
v 0.422384 -0.224363 -0.294546
v 0.425376 -0.217700 -0.293465
v 0.432599 -0.214940 -0.290857
v 0.432599 -0.214940 -0.611836
v 0.425376 -0.217700 -0.609228
v 0.422384 -0.224363 -0.608147
v 0.226149 -0.396165 0.096572
v 0.225749 -0.397650 0.098173
v 0.224284 -0.397235 0.096521
v 0.224016 -0.398430 0.096486
v 0.225333 -0.399120 0.098162
v 0.224787 -0.400520 0.096587
v 0.224011 -0.398436 0.083014
v 0.224784 -0.400522 0.082917
v 0.225329 -0.399122 0.081343
v 0.224281 -0.397238 0.082983
v 0.225737 -0.397637 0.081332
v 0.226146 -0.396167 0.082930
v 0.442767 -0.407349 0.103630
v 0.444325 -0.408896 0.103630
v 0.442772 -0.408903 0.105184
v 0.443067 -0.418943 0.105184
v 0.444621 -0.418937 0.103631
v 0.443073 -0.420496 0.103631
v 0.442766 -0.408907 0.074232
v 0.444320 -0.408900 0.075785
v 0.442761 -0.407354 0.075785
v 0.443067 -0.420501 0.075787
v 0.444614 -0.418940 0.075787
v 0.443061 -0.418947 0.074233
v 0.387486 -0.419792 0.075847
v 0.387480 -0.418221 0.074276
v 0.388447 -0.419348 0.076880
v 0.388441 -0.417895 0.075121
v 0.389406 -0.418252 0.074244
v 0.389412 -0.419822 0.075814
v 0.388453 -0.419344 0.102562
v 0.388448 -0.417889 0.104319
v 0.389418 -0.419817 0.103626
v 0.389412 -0.418248 0.105196
v 0.387486 -0.418218 0.105165
v 0.387491 -0.419789 0.103595
v 0.387446 -0.409101 0.074275
v 0.387441 -0.407533 0.075843
v 0.388411 -0.409471 0.075121
v 0.388405 -0.408014 0.076865
v 0.389367 -0.407548 0.075814
v 0.389372 -0.409120 0.074243
v 0.387447 -0.407529 0.103594
v 0.387453 -0.409097 0.105165
v 0.388411 -0.408010 0.102571
v 0.388417 -0.409467 0.104317
v 0.389379 -0.409115 0.105194
v 0.389373 -0.407543 0.103623
v 0.233291 -0.400265 0.099254
v 0.255065 -0.403791 0.100777
v 0.255143 -0.402238 0.099220
v 0.233651 -0.398760 0.097674
v 0.232454 -0.406241 0.097765
v 0.254900 -0.412435 0.099213
v 0.255021 -0.410887 0.100787
v 0.232695 -0.404634 0.099306
v 0.232691 -0.404636 0.080196
v 0.255016 -0.410891 0.078708
v 0.254896 -0.412439 0.080282
v 0.232450 -0.406244 0.081737
v 0.233648 -0.398761 0.081826
v 0.255139 -0.402241 0.080272
v 0.255060 -0.403795 0.078716
v 0.233288 -0.400261 0.080246
v 0.307635 -0.415786 0.103030
v 0.307562 -0.417346 0.101456
v 0.307557 -0.417350 0.078019
v 0.307629 -0.415790 0.076444
v 0.307474 -0.407659 0.076451
v 0.307505 -0.406096 0.078011
v 0.307510 -0.406094 0.101459
v 0.307480 -0.407656 0.103021
v 0.385058 -0.417279 0.110093
v 0.386362 -0.416918 0.111467
v 0.386764 -0.418209 0.110092
v 0.447696 -0.417987 0.110081
v 0.449832 -0.416694 0.111453
v 0.451105 -0.417048 0.110157
v 0.449424 -0.417981 0.108991
v 0.386755 -0.418215 0.069348
v 0.386353 -0.416924 0.067975
v 0.385049 -0.417285 0.069348
v 0.449416 -0.417987 0.070424
v 0.451114 -0.417022 0.069301
v 0.449830 -0.416713 0.067962
v 0.447688 -0.417993 0.069335
v 0.363539 -0.380480 0.069249
v 0.365172 -0.380315 0.067973
v 0.364529 -0.378885 0.069250
v 0.461540 -0.378533 0.069424
v 0.461426 -0.379875 0.067953
v 0.462770 -0.379979 0.069424
v 0.461677 -0.378527 0.110103
v 0.462779 -0.379973 0.109974
v 0.461435 -0.379869 0.111445
v 0.364538 -0.378879 0.110188
v 0.365182 -0.380309 0.111466
v 0.363549 -0.380474 0.110189
v 0.385572 -0.415333 0.105971
v 0.385112 -0.417269 0.107303
v 0.386735 -0.418210 0.107295
v 0.387108 -0.416846 0.105971
v 0.443384 -0.416686 0.105960
v 0.444754 -0.417998 0.107309
v 0.446080 -0.417993 0.105913
v 0.444701 -0.416687 0.104646
v 0.444695 -0.416691 0.074769
v 0.446062 -0.417999 0.073503
v 0.444747 -0.418004 0.072094
v 0.443377 -0.416691 0.073458
v 0.387101 -0.416852 0.073469
v 0.386737 -0.418215 0.072137
v 0.385109 -0.417283 0.072149
v 0.385564 -0.415337 0.073470
v 0.381517 -0.408186 0.105972
v 0.380887 -0.406882 0.104626
v 0.378495 -0.407270 0.106978
v 0.380882 -0.406887 0.074815
v 0.381511 -0.408191 0.073471
v 0.378485 -0.407277 0.072463
v 0.388059 -0.407738 0.105970
v 0.389812 -0.408502 0.105970
v 0.390354 -0.407130 0.104635
v 0.388756 -0.406114 0.104625
v 0.443323 -0.406938 0.104615
v 0.443328 -0.408280 0.105958
v 0.444671 -0.408276 0.104615
v 0.443317 -0.406942 0.074799
v 0.444664 -0.408281 0.074799
v 0.443321 -0.408285 0.073456
v 0.388750 -0.406118 0.074812
v 0.390341 -0.407135 0.074792
v 0.389805 -0.408508 0.073467
v 0.388053 -0.407742 0.073467
v 0.385723 -0.403092 0.104650
v 0.386392 -0.404316 0.105970
v 0.387539 -0.403524 0.104649
v 0.387533 -0.403529 0.074787
v 0.386385 -0.404321 0.073468
v 0.385717 -0.403096 0.074787
v 0.379216 -0.405673 0.111467
v 0.371050 -0.391063 0.111467
v 0.369528 -0.391195 0.106943
v 0.369506 -0.391154 0.110159
v 0.377871 -0.406151 0.110117
v 0.457269 -0.405970 0.110118
v 0.460845 -0.390806 0.110036
v 0.459443 -0.390752 0.111447
v 0.455944 -0.405615 0.111451
v 0.371041 -0.391069 0.067973
v 0.379207 -0.405679 0.067973
v 0.377861 -0.406158 0.069324
v 0.369496 -0.391160 0.069282
v 0.369520 -0.391200 0.072499
v 0.455938 -0.405624 0.067957
v 0.459435 -0.390758 0.067955
v 0.460836 -0.390811 0.069368
v 0.457260 -0.405977 0.069301
v 0.365411 -0.383833 0.072497
v 0.365353 -0.383710 0.106942
v 0.462773 -0.379977 0.085629
v 0.461608 -0.378530 0.085692
v 0.364532 -0.378883 0.085648
v 0.363543 -0.380479 0.085648
v 0.365381 -0.383772 0.085648
v 0.369523 -0.391199 0.085649
v 0.378491 -0.407273 0.093791
v 0.380885 -0.406885 0.093792
v 0.385721 -0.403093 0.093791
v 0.387537 -0.403525 0.093789
v 0.388754 -0.406116 0.093790
v 0.390348 -0.407131 0.093786
v 0.443321 -0.406940 0.093779
v 0.444668 -0.408278 0.093779
v 0.444699 -0.416688 0.093780
v 0.446071 -0.417996 0.093779
v 0.449421 -0.417983 0.093779
v 0.451111 -0.417035 0.093802
v 0.457265 -0.405973 0.093781
v 0.460840 -0.390809 0.085630
v 0.448527 -0.411345 0.101821
v 0.450811 -0.411482 0.103432
v 0.449542 -0.413386 0.101822
v 0.476185 -0.413463 0.101764
v 0.475440 -0.411616 0.103427
v 0.477425 -0.411465 0.101763
v 0.449537 -0.413389 0.077601
v 0.450806 -0.411486 0.075990
v 0.448523 -0.411349 0.077602
v 0.477420 -0.411469 0.077646
v 0.475435 -0.411620 0.075986
v 0.476180 -0.413465 0.077648
v 0.457620 -0.387656 0.077648
v 0.458642 -0.389364 0.075984
v 0.459961 -0.387872 0.077647
v 0.458648 -0.389360 0.103427
v 0.457593 -0.387694 0.101726
v 0.459989 -0.387915 0.101726
v 0.361037 -0.379355 0.110746
v 0.464511 -0.378979 0.110725
v 0.361028 -0.379363 0.068692
v 0.464502 -0.378986 0.068672
v 0.361002 -0.372130 0.068692
v 0.464475 -0.371754 0.068671
v 0.361011 -0.372124 0.110746
v 0.464485 -0.371748 0.110724
v 0.451182 -0.371804 0.060678
v 0.451194 -0.371796 0.118724
v 0.451220 -0.379027 0.118725
v 0.451208 -0.379036 0.060678
v 0.374294 -0.372084 0.060693
v 0.374305 -0.372075 0.118740
v 0.374332 -0.379307 0.118741
v 0.374320 -0.379315 0.060694
vn -0.0000 -0.0000 -1.0000
vt 5.646933 -121.224083
vt 7.358486 -121.224083
vt 7.358486 -119.512527
vt 5.646933 -119.512527
s 1
usemtl M_FridgeMaindoorB4_5
f 21/1/1 22/2/1 24/3/1 23/4/1
