# Blender 4.1.1
# www.blender.org
mtllib DrawermeshSideTableDrawer_201_1_1_GeomSubset_0.mtl
o DrawermeshSideTableDrawer_201_1_1_GeomSubset_0
v 0.159173 -0.124191 0.259075
v 0.151468 -0.124190 0.255884
v 0.151468 -0.121744 0.255884
v 0.159173 -0.121745 0.259076
v 0.162365 -0.124194 0.266780
v 0.162365 -0.121748 0.266781
v 0.159173 -0.124197 0.274486
v 0.159173 -0.121750 0.274486
v 0.151468 -0.124198 0.277677
v 0.151468 -0.121751 0.277678
v 0.143763 -0.124197 0.274486
v 0.143763 -0.121750 0.274486
v 0.140571 -0.124194 0.266780
v 0.140571 -0.121748 0.266781
v 0.155458 -0.121749 0.270771
v 0.157111 -0.121748 0.266781
v 0.143763 -0.124191 0.259075
v 0.143763 -0.121745 0.259076
v 0.145026 -0.125842 0.260338
v 0.151468 -0.125841 0.257669
v 0.142358 -0.125844 0.266780
v 0.145026 -0.125847 0.273222
v 0.151468 -0.125847 0.275890
v 0.157910 -0.125847 0.273222
v 0.160579 -0.125844 0.266780
v 0.157910 -0.125842 0.260338
v 0.151468 -0.121746 0.261139
v 0.147479 -0.121746 0.262792
v 0.155458 -0.121746 0.262792
v 0.155458 -0.115539 0.262794
v 0.151468 -0.115538 0.261141
v 0.157111 -0.115540 0.266783
v 0.155458 -0.115541 0.270773
v 0.151468 -0.115542 0.272426
v 0.151468 -0.121750 0.272423
v 0.147479 -0.121749 0.270771
v 0.145826 -0.121748 0.266781
v 0.147479 -0.115541 0.270773
v 0.147479 -0.115539 0.262794
v 0.145826 -0.115540 0.266783
v -0.173978 -0.124192 0.259075
v -0.181683 -0.124191 0.255884
v -0.181683 -0.121745 0.255884
v -0.173978 -0.121746 0.259076
v -0.170786 -0.124195 0.266780
v -0.170786 -0.121748 0.266781
v -0.173978 -0.124197 0.274486
v -0.173978 -0.121751 0.274486
v -0.181683 -0.124199 0.277677
v -0.181684 -0.121752 0.277678
v -0.189388 -0.124197 0.274486
v -0.189389 -0.121751 0.274486
v -0.192580 -0.124195 0.266780
v -0.192580 -0.121748 0.266781
v -0.177693 -0.121750 0.270771
v -0.176041 -0.121748 0.266781
v -0.189388 -0.124192 0.259075
v -0.189389 -0.121746 0.259076
v -0.188125 -0.125843 0.260338
v -0.181683 -0.125842 0.257669
v -0.190794 -0.125845 0.266780
v -0.188125 -0.125847 0.273222
v -0.181683 -0.125848 0.275890
v -0.175241 -0.125847 0.273222
v -0.172573 -0.125845 0.266780
v -0.175241 -0.125843 0.260338
v -0.181683 -0.121746 0.261139
v -0.185673 -0.121747 0.262792
v -0.177693 -0.121747 0.262792
v -0.177693 -0.115539 0.262794
v -0.181683 -0.115539 0.261141
v -0.176041 -0.115541 0.266783
v -0.177694 -0.115542 0.270773
v -0.181683 -0.115543 0.272426
v -0.181684 -0.121750 0.272423
v -0.185673 -0.121750 0.270771
v -0.187326 -0.121748 0.266781
v -0.185673 -0.115542 0.270773
v -0.185673 -0.115539 0.262794
v -0.187326 -0.115541 0.266783
v 0.000075 -0.119881 0.222369
v 0.000075 0.062224 0.222432
v 0.314199 0.062225 0.222432
v 0.314199 -0.107308 0.222373
v -0.314049 -0.107309 0.222373
v -0.314049 0.062224 0.222432
v -0.314049 -0.107334 0.295602
v -0.314049 0.062199 0.295661
v 0.000075 -0.124285 0.305156
v 0.000075 -0.124253 0.212808
v 0.323926 -0.111290 0.212812
v 0.323926 -0.111322 0.305160
v -0.323775 -0.111324 0.305160
v -0.323775 -0.111291 0.212812
v 0.323751 -0.106922 0.212814
v 0.000075 -0.119878 0.212809
v -0.323600 -0.106923 0.212814
v -0.323600 -0.106955 0.305162
v 0.323751 -0.106954 0.305162
v 0.000075 -0.119910 0.305157
v 0.000075 -0.119906 0.295598
v 0.314199 -0.107333 0.295602
v 0.000075 0.062199 0.295661
v 0.314199 0.062199 0.295661
v -0.305492 0.053642 0.295658
v -0.305492 0.053664 0.232543
v -0.008482 0.053664 0.232543
v -0.008482 0.053642 0.295658
v -0.008482 -0.110978 0.232486
v -0.008482 -0.111000 0.295601
v -0.305492 -0.099113 0.295605
v 0.008631 0.053642 0.295658
v 0.305642 0.053643 0.295658
v 0.305642 -0.099112 0.295605
v 0.008632 -0.111000 0.295601
v 0.305642 -0.099090 0.232490
v 0.305642 0.053665 0.232543
v 0.008631 0.053664 0.232543
v 0.008632 -0.110978 0.232486
v -0.305492 -0.099091 0.232490
vn -0.0000 -0.3692 0.9293
vn -0.5490 0.6301 0.5492
vn -0.6573 -0.3692 0.6570
vn 0.0002 0.6300 0.7766
vn -0.6572 -0.3691 0.6572
vn -0.7763 0.6304 0.0002
vn -0.9295 -0.3688 -0.0001
vn -0.5488 0.6301 0.5493
vn -0.9295 -0.3689 -0.0002
vn -0.5490 0.6305 -0.5488
vn -0.6572 -0.3687 -0.6574
vn -0.7764 0.6303 0.0003
vn -0.6573 -0.3686 -0.6573
vn 0.0001 0.6306 -0.7761
vn -0.0000 -0.3686 -0.9296
vn -0.5491 0.6305 -0.5486
vn -0.0001 -0.3686 -0.9296
vn 0.5490 0.6305 -0.5487
vn 0.6572 -0.3687 -0.6573
vn -0.0001 0.6305 -0.7762
vn 0.6573 -0.3687 -0.6573
vn 0.7763 0.6304 0.0003
vn 0.9294 -0.3690 -0.0001
vn 0.5488 0.6305 -0.5489
vn 0.7764 -0.6302 -0.0002
vn 0.5491 -0.6303 0.5488
vn 0.4203 -0.8043 0.4201
vn 0.5944 -0.8042 -0.0002
vn 0.5490 -0.6300 -0.5492
vn 0.9295 -0.3688 -0.0002
vn 0.5489 0.6302 0.5492
vn 0.6573 -0.3691 0.6571
vn 0.7763 0.6304 -0.0000
vn -0.0000 0.6301 0.7765
vn -0.0000 -0.3692 0.9294
vn 0.5490 0.6302 0.5491
vn 0.4698 0.8586 0.2050
vn -0.1874 0.8586 0.4772
vn 0.1894 0.4041 0.8949
vn 0.4989 0.4041 0.7667
vn 0.4768 0.8588 -0.1872
vn 0.7666 0.4044 0.4989
vn 0.8948 0.4044 0.1894
vn 0.2046 0.8586 0.4701
vn 0.2045 0.8590 -0.4694
vn 0.8947 0.4047 -0.1892
vn 0.7666 0.4046 -0.4987
vn 0.4766 0.8588 0.1879
vn -0.1875 0.8590 -0.4765
vn 0.4987 0.4048 -0.7664
vn 0.1893 0.4050 -0.8945
vn 0.4697 0.8588 -0.2044
vn -0.4697 0.8589 -0.2043
vn -0.1893 0.4048 -0.8946
vn -0.4988 0.4048 -0.7664
vn 0.3095 0.8990 0.3098
vn -0.3095 0.8990 0.3097
vn -0.0000 0.8990 0.4380
vn 0.1875 0.8589 -0.4765
vn -0.4769 0.8587 0.1878
vn -0.7665 0.4046 -0.4987
vn -0.8948 0.4045 -0.1892
vn 0.4377 0.8991 0.0003
vn -0.4377 0.8991 0.0003
vn -0.2046 0.8589 -0.4695
vn -0.2047 0.8586 0.4701
vn -0.8947 0.4043 0.1895
vn -0.7666 0.4044 0.4988
vn -0.3095 0.8992 -0.3092
vn 0.3095 0.8993 -0.3091
vn -0.0000 0.8993 -0.4374
vn -0.4771 0.8587 -0.1870
vn 0.1874 0.8586 0.4772
vn -0.4988 0.4042 0.7667
vn -0.1894 0.4039 0.8950
vn -0.4698 0.8587 0.2049
vn -0.5490 -0.6301 -0.5492
vn -0.0001 -0.6299 -0.7766
vn -0.0000 -0.8039 -0.5948
vn -0.4203 -0.8040 -0.4206
vn 0.4203 -0.8040 -0.4206
vn -0.4203 0.8041 0.4206
vn -0.0000 0.8040 0.5946
vn -0.0001 -0.0004 1.0000
vn -0.7071 -0.0002 0.7072
vn -0.0001 0.8040 0.5947
vn 0.4202 0.8041 0.4206
vn 0.7071 -0.0003 0.7072
vn -0.5943 0.8042 0.0003
vn -0.7072 -0.0002 0.7071
vn -1.0000 -0.0000 0.0001
vn -0.4204 0.8041 0.4205
vn -0.4203 0.8044 -0.4200
vn -1.0000 -0.0000 -0.0001
vn -0.7072 0.0002 -0.7071
vn -0.5944 0.8042 0.0001
vn 0.0001 0.8044 -0.5941
vn -0.7070 0.0001 -0.7072
vn -0.0001 0.0003 -1.0000
vn -0.4202 0.8044 -0.4200
vn -0.0000 -0.8044 0.5941
vn -0.0000 -0.6304 0.7762
vn -0.4204 -0.8043 0.4200
vn -0.5490 -0.6303 0.5489
vn -0.5944 -0.8041 -0.0002
vn -0.7764 -0.6302 -0.0002
vn 0.4204 0.8043 -0.4199
vn 0.0001 0.0003 -1.0000
vn 0.7071 0.0003 -0.7071
vn -0.0000 0.8044 -0.5941
vn 0.4202 0.8040 0.4207
vn 0.5944 0.8042 0.0004
vn 1.0000 -0.0000 0.0002
vn 0.7071 -0.0002 0.7071
vn 0.5944 0.8042 0.0002
vn 0.7071 0.0002 -0.7071
vn 1.0000 -0.0000 -0.0002
vn 0.4202 0.8043 -0.4201
vn 0.0001 -0.0004 1.0000
vn -0.5490 0.6302 0.5491
vn -0.6573 -0.3691 0.6571
vn -0.7763 0.6303 0.0001
vn -0.9295 -0.3689 -0.0001
vn -0.5488 0.6302 0.5493
vn -0.5489 0.6306 -0.5487
vn -0.6572 -0.3688 -0.6574
vn -0.7761 0.6306 0.0003
vn -0.6573 -0.3687 -0.6573
vn -0.5491 0.6304 -0.5487
vn -0.0000 -0.3685 -0.9296
vn -0.0001 0.6306 -0.7761
vn 0.6572 -0.3687 -0.6574
vn 0.9295 -0.3687 -0.0002
vn 0.5489 0.6304 -0.5488
vn 0.5490 -0.6304 0.5487
vn 0.5490 -0.6300 -0.5493
vn 0.5488 0.6303 0.5492
vn 0.7763 0.6303 0.0001
vn 0.6573 -0.3690 0.6571
vn -0.0001 0.6301 0.7765
vn 0.0001 -0.3690 0.9294
vn 0.5491 0.6301 0.5491
vn 0.4697 0.8587 0.2050
vn 0.1893 0.4042 0.8949
vn 0.4988 0.4043 0.7667
vn 0.4769 0.8588 -0.1872
vn 0.7666 0.4042 0.4989
vn 0.8948 0.4043 0.1895
vn 0.2046 0.8589 -0.4694
vn 0.8947 0.4046 -0.1893
vn 0.7665 0.4048 -0.4987
vn 0.4769 0.8587 0.1878
vn -0.1874 0.8589 -0.4766
vn 0.4988 0.4048 -0.7664
vn 0.1893 0.4048 -0.8946
vn 0.4698 0.8588 -0.2043
vn -0.4698 0.8588 -0.2044
vn -0.1894 0.4047 -0.8946
vn -0.4988 0.4047 -0.7664
vn 0.3095 0.8990 0.3099
vn -0.3095 0.8990 0.3098
vn 0.1875 0.8589 -0.4767
vn -0.7666 0.4047 -0.4986
vn -0.8947 0.4046 -0.1891
vn 0.4377 0.8991 0.0004
vn -0.2047 0.8589 -0.4695
vn -0.2047 0.8586 0.4700
vn -0.8948 0.4044 0.1894
vn -0.7666 0.4043 0.4989
vn 0.3095 0.8993 -0.3092
vn -0.4770 0.8588 -0.1871
vn 0.1875 0.8586 0.4772
vn -0.1893 0.4042 0.8949
vn -0.4698 0.8586 0.2050
vn -0.5490 -0.6300 -0.5492
vn -0.0001 -0.6300 -0.7766
vn -0.0000 -0.8039 -0.5947
vn -0.4204 -0.8040 -0.4207
vn 0.4203 -0.8040 -0.4205
vn -0.4203 0.8040 0.4206
vn -0.0001 0.8040 0.5946
vn -0.0001 -0.0003 1.0000
vn -0.7071 -0.0003 0.7072
vn 0.4201 0.8041 0.4206
vn 0.7070 -0.0003 0.7072
vn -0.5945 0.8041 0.0001
vn -0.7073 -0.0003 0.7069
vn -1.0000 -0.0001 -0.0000
vn -0.4204 0.8040 0.4205
vn -0.4204 0.8042 -0.4201
vn -1.0000 -0.0000 -0.0000
vn -0.7072 0.0001 -0.7071
vn -0.7070 0.0002 -0.7072
vn -0.0002 0.0003 -1.0000
vn -0.0001 -0.8044 0.5941
vn 0.0001 -0.6304 0.7763
vn -0.4203 -0.8043 0.4200
vn -0.5490 -0.6304 0.5488
vn -0.5944 -0.8042 -0.0003
vn 0.4203 0.8043 -0.4200
vn 0.0002 0.0004 -1.0000
vn 0.7070 0.0003 -0.7072
vn 0.0001 0.8044 -0.5940
vn 0.4202 0.8041 0.4205
vn 0.5943 0.8043 0.0004
vn 1.0000 0.0001 0.0002
vn 0.7072 -0.0002 0.7071
vn 0.5944 0.8042 0.0003
vn 1.0000 -0.0001 -0.0003
vn 0.4202 0.8044 -0.4198
vn 0.0001 -0.0003 1.0000
s 1
usemtl M_SideTableDrawer_201_1_0
f 1//1 3//2 2//3
f 1//1 4//4 3//2
f 5//5 4//6 1//7
f 5//5 6//8 4//6
f 7//9 6//10 5//11
f 7//9 8//12 6//10
f 9//13 8//14 7//15
f 9//13 10//16 8//14
f 11//17 10//18 9//19
f 11//17 12//20 10//18
f 13//21 12//22 11//23
f 13//21 14//24 12//22
f 6//25 8//26 15//27
f 6//25 15//27 16//28
f 4//29 6//25 16//28
f 17//30 14//31 13//32
f 17//30 18//33 14//31
f 2//32 18//34 17//35
f 2//32 3//36 18//34
f 2//37 17//38 19//39
f 2//37 19//39 20//40
f 17//41 21//42 19//43
f 17//41 13//44 21//42
f 13//45 22//46 21//47
f 13//45 11//48 22//46
f 11//49 23//50 22//51
f 11//49 9//52 23//50
f 9//53 24//54 23//55
f 24//56 22//57 23//58
f 9//53 7//59 24//54
f 7//60 25//61 24//62
f 25//63 21//64 22//57
f 25//63 22//57 24//56
f 7//60 5//65 25//61
f 5//66 26//67 25//68
f 19//69 26//70 20//71
f 26//70 19//69 21//64
f 26//70 21//64 25//63
f 5//66 1//72 26//67
f 1//73 20//74 26//75
f 1//73 2//76 20//74
f 18//77 3//78 27//79
f 18//77 27//79 28//80
f 3//78 29//81 27//79
f 27//82 29//83 30//84
f 27//82 30//84 31//85
f 28//86 27//87 31//88
f 29//89 32//90 30//91
f 29//89 16//92 32//90
f 4//29 16//28 29//81
f 3//78 4//29 29//81
f 16//93 33//94 32//95
f 16//93 15//96 33//94
f 15//97 34//98 33//99
f 15//97 35//100 34//98
f 8//26 35//101 15//27
f 8//26 10//102 35//101
f 10//102 36//103 35//101
f 10//102 12//104 36//103
f 12//104 37//105 36//103
f 12//104 14//106 37//105
f 14//106 28//80 37//105
f 14//106 18//77 28//80
f 35//107 38//108 34//109
f 35//107 36//110 38//108
f 37//111 28//112 39//113
f 37//111 39//113 40//114
f 36//115 40//116 38//117
f 36//115 37//118 40//116
f 28//86 31//88 39//119
f 41//35 43//120 42//121
f 41//35 44//4 43//120
f 45//5 44//122 41//123
f 45//5 46//124 44//122
f 47//7 46//125 45//126
f 47//7 48//127 46//125
f 49//128 48//14 47//15
f 49//128 50//129 48//14
f 51//130 50//18 49//21
f 51//130 52//131 50//18
f 53//132 52//22 51//133
f 53//132 54//134 52//22
f 46//25 48//135 55//27
f 46//25 55//27 56//28
f 44//136 46//25 56//28
f 57//30 54//137 53//32
f 57//30 58//138 54//137
f 42//139 58//140 57//141
f 42//139 43//142 58//140
f 42//143 57//38 59//144
f 42//143 59//144 60//145
f 57//146 61//147 59//148
f 57//146 53//44 61//147
f 53//149 62//150 61//151
f 53//149 51//152 62//150
f 51//153 63//154 62//155
f 51//153 49//156 63//154
f 49//157 64//158 63//159
f 64//160 62//161 63//58
f 49//157 47//162 64//158
f 47//60 65//163 64//164
f 65//165 61//64 62//161
f 65//165 62//161 64//160
f 47//60 45//166 65//163
f 45//167 66//168 65//169
f 59//69 66//170 60//71
f 66//170 59//69 61//64
f 66//170 61//64 65//165
f 45//167 41//171 66//168
f 41//172 60//74 66//173
f 41//172 42//174 60//74
f 58//175 43//176 67//177
f 58//175 67//177 68//178
f 43//176 69//179 67//177
f 67//180 69//181 70//182
f 67//180 70//182 71//183
f 68//83 67//184 71//185
f 69//186 72//187 70//188
f 69//186 56//189 72//187
f 44//136 56//28 69//179
f 43//176 44//136 69//179
f 56//190 73//191 72//192
f 56//190 55//186 73//191
f 55//97 74//193 73//194
f 55//97 75//100 74//193
f 48//135 75//195 55//27
f 48//135 50//196 75//195
f 50//196 76//197 75//195
f 50//196 52//198 76//197
f 52//198 77//199 76//197
f 52//198 54//106 77//199
f 54//106 68//178 77//199
f 54//106 58//175 68//178
f 75//200 78//201 74//202
f 75//200 76//203 78//201
f 77//204 68//205 79//206
f 77//204 79//206 80//207
f 76//208 80//116 78//209
f 76//208 77//210 80//116
f 68//83 71//185 79//211
