# Blender 4.1.1
# www.blender.org
mtllib MeshBin_26_0_GeomSubset_2.mtl
o MeshBin_26_0_GeomSubset_2
v -0.000353 -0.006027 -0.412577
v -0.001352 -0.006027 -0.412577
v -0.000353 -0.005027 -0.412577
v -0.001352 -0.005027 -0.412577
v -0.000353 -0.006027 -0.412577
v -0.001352 -0.006027 -0.412577
v -0.000353 -0.005027 -0.412577
v -0.001352 -0.005027 -0.412577
v -0.000353 -0.006027 -0.412577
v -0.001352 -0.006027 -0.412577
v -0.000353 -0.005027 -0.412577
v -0.001352 -0.005027 -0.412577
v -0.106893 0.178141 -0.312577
v -0.110000 0.193616 -0.297827
v -0.111280 0.195720 -0.282681
v -0.116265 0.194394 -0.282704
v -0.119901 0.190769 -0.282726
v -0.118733 0.188593 -0.297840
v 0.105188 0.178141 -0.312577
v 0.117037 0.188568 -0.297827
v 0.118218 0.190730 -0.282681
v 0.114578 0.194383 -0.282704
v 0.109620 0.195720 -0.282726
v 0.108321 0.193620 -0.297840
v 0.211227 -0.005527 -0.312577
v 0.226182 -0.010574 -0.297827
v 0.228645 -0.010517 -0.282681
v 0.229988 -0.005537 -0.282704
v 0.228668 -0.000576 -0.282726
v 0.226199 -0.000501 -0.297840
v 0.105188 -0.189195 -0.312577
v 0.108294 -0.204670 -0.297827
v 0.109574 -0.206774 -0.282681
v 0.114559 -0.205447 -0.282704
v 0.118195 -0.201823 -0.282726
v 0.117026 -0.199647 -0.297840
v -0.106894 -0.189195 -0.312577
v -0.118741 -0.199622 -0.297827
v -0.119924 -0.201783 -0.282681
v -0.116283 -0.205437 -0.282704
v -0.111325 -0.206774 -0.282726
v -0.110026 -0.204673 -0.297840
v -0.212934 -0.005527 -0.312577
v -0.227889 -0.000479 -0.297827
v -0.230351 -0.000536 -0.282681
v -0.231694 -0.005516 -0.282704
v -0.230374 -0.010478 -0.282726
v -0.227905 -0.010554 -0.297840
v -0.120966 0.192604 0.235939
v -0.119883 0.190800 0.233254
v -0.116155 0.194453 0.234457
v -0.111102 0.195720 0.235067
v -0.112104 0.197420 0.237286
v 0.110328 0.197411 0.237255
v 0.109279 0.195720 0.234973
v 0.114428 0.194440 0.234392
v 0.118190 0.190778 0.233224
v 0.119262 0.192592 0.235930
v 0.230884 -0.000507 0.188617
v 0.228577 -0.000418 0.186334
v 0.230017 -0.005489 0.184737
v 0.228657 -0.010497 0.183161
v 0.231237 -0.010385 0.186017
v 0.119629 -0.204090 0.138564
v 0.118278 -0.201680 0.136344
v 0.114548 -0.205429 0.135285
v 0.109553 -0.206774 0.134820
v 0.111034 -0.209234 0.137226
v -0.112761 -0.209241 0.137240
v -0.111307 -0.206774 0.134876
v -0.116261 -0.205439 0.135336
v -0.119960 -0.201721 0.136384
v -0.121324 -0.204114 0.138574
v -0.232963 -0.010360 0.186039
v -0.230392 -0.010448 0.183235
v -0.231745 -0.005497 0.184810
v -0.230329 -0.000497 0.186400
v -0.232623 -0.000547 0.188636
v -0.000853 -0.005527 -0.312577
v -0.115044 0.192267 -0.297833
v 0.113347 0.192263 -0.297833
v 0.227537 -0.005531 -0.297833
v 0.113338 -0.203321 -0.297833
v -0.115052 -0.203316 -0.297833
v -0.229243 -0.005522 -0.297833
v -0.117303 0.196133 0.236883
v 0.115583 0.196121 0.236862
v 0.232415 -0.005650 0.187251
v 0.115916 -0.207876 0.137594
v -0.117627 -0.207885 0.137609
v -0.234139 -0.005653 0.187273
v -0.122913 0.195925 0.237809
v -0.236472 -0.000582 0.189739
v 0.112149 0.200462 0.238933
v -0.113869 0.200452 0.238936
v 0.234767 -0.000571 0.189736
v 0.121209 0.195925 0.237808
v 0.121756 -0.207814 0.139064
v 0.235779 -0.010300 0.187362
v -0.115029 -0.213135 0.137766
v 0.113319 -0.213138 0.137762
v -0.237483 -0.010293 0.187365
v -0.123457 -0.207817 0.139067
v -0.119226 0.199245 0.238624
v 0.117520 0.199248 0.238621
v 0.236558 -0.005784 0.188448
v 0.118071 -0.211682 0.138110
v -0.119776 -0.211681 0.138114
v -0.238262 -0.005785 0.188452
v -0.105518 0.165699 -0.272692
v -0.106703 0.167829 -0.268740
v -0.103062 0.171482 -0.268763
v -0.098105 0.172819 -0.268785
v -0.096834 0.170731 -0.272705
v -0.093831 0.165651 -0.274329
v -0.098900 0.164293 -0.274329
v -0.102610 0.160582 -0.274329
v 0.103812 0.165699 -0.272692
v 0.100903 0.160583 -0.274329
v 0.097189 0.164252 -0.274329
v 0.092048 0.165596 -0.274329
v 0.095073 0.170715 -0.272692
v 0.096353 0.172819 -0.268740
v 0.101344 0.171482 -0.268740
v 0.104997 0.167829 -0.268740
v -0.008229 -0.005547 -0.274329
v -0.009577 -0.000516 -0.274329
v -0.004546 0.000831 -0.274329
v -0.000865 0.004514 -0.274329
v 0.002818 0.000830 -0.274329
v 0.007848 -0.000516 -0.274329
v 0.006499 -0.005548 -0.274329
v 0.007848 -0.010577 -0.274329
v 0.002816 -0.011925 -0.274329
v -0.000865 -0.015607 -0.274329
v -0.004547 -0.011924 -0.274329
v -0.009577 -0.010577 -0.274329
v 0.199788 -0.010556 -0.272692
v 0.193904 -0.010597 -0.274329
v 0.195224 -0.005544 -0.274329
v 0.193817 -0.000421 -0.274329
v 0.199763 -0.000480 -0.272692
v 0.202225 -0.000537 -0.268741
v 0.203563 -0.005527 -0.268741
v 0.202226 -0.010518 -0.268741
v 0.095125 -0.181823 -0.272693
v 0.092147 -0.176746 -0.274330
v 0.097183 -0.175364 -0.274330
v 0.100917 -0.171584 -0.274330
v 0.103839 -0.176763 -0.272693
v 0.105020 -0.178924 -0.268741
v 0.101367 -0.182577 -0.268741
v 0.096376 -0.183915 -0.268741
v -0.105540 -0.176794 -0.272693
v -0.102633 -0.171676 -0.274330
v -0.098918 -0.175347 -0.274330
v -0.093777 -0.176692 -0.274330
v -0.096802 -0.181811 -0.272693
v -0.098082 -0.183915 -0.268741
v -0.103073 -0.182577 -0.268741
v -0.106726 -0.178924 -0.268741
v -0.201494 -0.000499 -0.272692
v -0.195608 -0.000459 -0.274329
v -0.196929 -0.005512 -0.274329
v -0.195525 -0.010635 -0.274329
v -0.201470 -0.010575 -0.272693
v -0.203932 -0.010518 -0.268741
v -0.205269 -0.005527 -0.268741
v -0.203931 -0.000537 -0.268741
v -0.101841 0.169380 -0.272699
v 0.100128 0.169367 -0.272692
v -0.000865 -0.005547 -0.274329
v 0.201122 -0.005532 -0.272692
v 0.100143 -0.180467 -0.272693
v -0.101857 -0.180462 -0.272693
v -0.202829 -0.005523 -0.272692
v 0.101240 0.171546 0.230304
v 0.096217 0.172819 0.230954
v -0.097927 0.172819 0.230946
v -0.102948 0.171546 0.230311
v -0.106678 0.167873 0.229074
v -0.203909 -0.000498 0.187962
v -0.205328 -0.005509 0.186325
v -0.203944 -0.010497 0.184641
v -0.106761 -0.178863 0.142727
v -0.103044 -0.182586 0.141668
v -0.098065 -0.183915 0.141219
v 0.096359 -0.183915 0.141219
v 0.101338 -0.182586 0.141668
v 0.105056 -0.178863 0.142727
v 0.202238 -0.010497 0.184641
v 0.203622 -0.005509 0.186328
v 0.202202 -0.000498 0.187962
v 0.104972 0.167873 0.229074
v 0.098732 0.177443 0.234564
v 0.103886 0.176137 0.233961
v -0.100442 0.177443 0.234557
v -0.105594 0.176137 0.233968
v -0.109420 0.172368 0.232758
v -0.209172 -0.000367 0.191686
v -0.210629 -0.005507 0.190100
v -0.209208 -0.010625 0.188369
v -0.109506 -0.183355 0.146405
v -0.105692 -0.187175 0.145312
v -0.100585 -0.188538 0.144826
v 0.098879 -0.188538 0.144826
v 0.103987 -0.187175 0.145312
v 0.107801 -0.183355 0.146405
v 0.207503 -0.010625 0.188369
v 0.208923 -0.005507 0.190099
v 0.207465 -0.000367 0.191687
v 0.107714 0.172368 0.232759
v 0.263126 -0.010321 0.189658
v 0.265600 -0.010385 0.193962
v 0.266860 -0.005482 0.194822
v 0.265507 -0.000510 0.195700
v 0.263260 -0.000535 0.191837
v 0.257764 -0.000573 0.190232
v 0.258712 -0.005127 0.189120
v 0.257042 -0.010265 0.187868
v 0.126757 0.225846 0.246967
v 0.124343 0.221479 0.244552
v 0.129038 0.219982 0.244185
v 0.132800 0.215897 0.243185
v 0.135529 0.220770 0.245866
v 0.136532 0.222645 0.250164
v 0.132886 0.226186 0.250784
v 0.127648 0.227540 0.250860
v 0.257958 -0.006010 0.246063
v 0.256121 -0.000741 0.247477
v 0.262375 -0.000711 0.245681
v 0.264998 -0.000663 0.241342
v 0.266248 -0.005558 0.240402
v 0.264888 -0.010530 0.239447
v 0.262596 -0.010489 0.243288
v 0.257164 -0.010424 0.244877
v 0.128203 0.217610 0.306074
v 0.122938 0.218874 0.306413
v 0.126278 0.224536 0.305870
v 0.127815 0.227128 0.301999
v 0.132754 0.225761 0.301773
v 0.136356 0.222126 0.300943
v 0.134955 0.219608 0.304634
v 0.131857 0.214171 0.305151
v -0.137223 0.220821 0.245881
v -0.134518 0.216041 0.243220
v -0.130785 0.219983 0.244185
v -0.125975 0.221430 0.244540
v -0.128432 0.225838 0.246966
v -0.129354 0.227540 0.250860
v -0.134592 0.226186 0.250784
v -0.138239 0.222645 0.250164
v -0.129908 0.217610 0.306074
v -0.133563 0.214171 0.305151
v -0.136684 0.219555 0.304589
v -0.138111 0.222043 0.300813
v -0.134461 0.225747 0.301711
v -0.129512 0.227129 0.301990
v -0.127980 0.224535 0.305867
v -0.124643 0.218874 0.306413
v -0.264835 -0.010318 0.189659
v -0.258748 -0.010265 0.187868
v -0.260435 -0.005121 0.189121
v -0.259510 -0.000591 0.190227
v -0.264935 -0.000492 0.191873
v -0.267152 -0.000409 0.195834
v -0.268553 -0.005457 0.194885
v -0.267305 -0.010385 0.193962
v -0.259664 -0.006010 0.246063
v -0.258870 -0.010424 0.244877
v -0.264257 -0.010548 0.243246
v -0.266534 -0.010636 0.239305
v -0.267938 -0.005580 0.240324
v -0.266690 -0.000641 0.241320
v -0.264074 -0.000701 0.245675
v -0.257827 -0.000741 0.247477
v -0.128506 -0.236443 0.134913
v -0.125279 -0.230911 0.134167
v -0.130406 -0.229614 0.134482
v -0.134057 -0.226079 0.135343
v -0.137154 -0.231418 0.136086
v -0.138489 -0.233745 0.139946
v -0.134837 -0.237455 0.139121
v -0.129898 -0.238833 0.138859
v -0.130038 -0.229822 0.185817
v -0.125303 -0.231305 0.185423
v -0.127774 -0.235713 0.183009
v -0.128780 -0.237509 0.179143
v -0.134012 -0.236150 0.179226
v -0.137648 -0.232624 0.179901
v -0.136553 -0.230650 0.184212
v -0.133805 -0.225781 0.186899
v 0.135448 -0.231413 0.136087
v 0.132348 -0.226066 0.135346
v 0.128688 -0.229516 0.134506
v 0.123411 -0.230784 0.134196
v 0.126727 -0.236411 0.134918
v 0.128192 -0.238833 0.138859
v 0.133131 -0.237455 0.139121
v 0.136782 -0.233745 0.139946
v 0.128332 -0.229822 0.185817
v 0.132098 -0.225780 0.186899
v 0.134845 -0.230653 0.184212
v 0.135939 -0.232627 0.179903
v 0.132350 -0.236142 0.179278
v 0.127196 -0.237505 0.179241
v 0.126144 -0.235724 0.183030
v 0.123597 -0.231305 0.185423
v -0.102936 0.171553 0.288567
v -0.106675 0.167878 0.287246
v -0.107700 0.169676 0.291597
v -0.110390 0.174342 0.294344
v -0.106775 0.177620 0.295221
v -0.101402 0.178824 0.295542
v -0.098878 0.174484 0.293065
v -0.097908 0.172819 0.289229
v 0.101230 0.171553 0.288567
v 0.096202 0.172819 0.289230
v 0.097179 0.174475 0.293062
v 0.099706 0.178801 0.295536
v 0.105136 0.177608 0.295218
v 0.108756 0.174358 0.294349
v 0.106024 0.169674 0.291595
v 0.104969 0.167878 0.287247
v 0.203628 -0.005507 0.240288
v 0.202200 -0.000494 0.242086
v 0.204504 -0.000530 0.245929
v 0.210066 -0.000579 0.247516
v 0.211902 -0.005817 0.246105
v 0.211126 -0.010207 0.244911
v 0.204842 -0.010345 0.243032
v 0.202239 -0.010495 0.238485
v 0.101335 -0.182587 0.191187
v 0.105059 -0.178856 0.192387
v 0.106459 -0.181272 0.196163
v 0.109543 -0.186612 0.196800
v 0.105861 -0.190496 0.195741
v 0.101102 -0.191922 0.195352
v 0.097858 -0.186397 0.194655
v 0.096357 -0.183915 0.190652
v -0.103040 -0.182587 0.191187
v -0.098062 -0.183915 0.190652
v -0.099575 -0.186369 0.194664
v -0.102817 -0.191849 0.195371
v -0.107533 -0.190434 0.195756
v -0.111180 -0.186587 0.196805
v -0.108135 -0.181269 0.196162
v -0.106765 -0.178857 0.192387
v -0.205334 -0.005507 0.240288
v -0.203945 -0.010495 0.238485
v -0.206518 -0.010302 0.243050
v -0.212730 -0.010127 0.244933
v -0.213511 -0.005783 0.246114
v -0.211719 -0.000632 0.247502
v -0.206195 -0.000557 0.245917
v -0.203906 -0.000494 0.242086
v 0.264504 -0.005313 0.190786
v 0.131793 0.224492 0.246713
v 0.263797 -0.005740 0.244435
v 0.131327 0.223193 0.305550
v -0.133508 0.224494 0.246714
v -0.133034 0.223181 0.305530
v -0.266204 -0.005300 0.190804
v -0.265489 -0.005752 0.244414
v -0.133511 -0.235078 0.135224
v -0.132832 -0.234348 0.183291
v 0.131801 -0.235047 0.135231
v 0.131149 -0.234351 0.183303
v -0.104037 0.173207 0.292629
v 0.102360 0.173198 0.292625
v 0.206031 -0.005609 0.244427
v 0.102759 -0.185040 0.195077
v -0.104454 -0.185019 0.195082
v -0.207707 -0.005593 0.244433
v 0.101239 0.171547 0.237618
v 0.096215 0.172819 0.238174
v -0.097924 0.172819 0.238167
v -0.102947 0.171547 0.237626
v -0.106677 0.167874 0.236443
v -0.203909 -0.000497 0.195411
v -0.205329 -0.005508 0.193875
v -0.203944 -0.010497 0.192097
v -0.106762 -0.178862 0.150083
v -0.103043 -0.182586 0.148957
v -0.098065 -0.183915 0.148432
v 0.096359 -0.183915 0.148432
v 0.101337 -0.182586 0.148957
v 0.105056 -0.178862 0.150083
v 0.202238 -0.010497 0.192097
v 0.203624 -0.005508 0.193871
v 0.202202 -0.000497 0.195411
v 0.104971 0.167874 0.236444
vn -0.0000 -0.0000 -1.0000
vt 0.000000 0.000000
vt 1.000000 0.000000
vt 1.000000 1.000000
vt 0.000000 1.000000
s 1
usemtl M_Bin_26_2
f 9/1/1 10/2/1 12/3/1 11/4/1
