# Blender 4.1.0
# www.blender.org
mtllib MeshLightSwitch_21_0_GeomSubset_0.mtl
o MeshLightSwitch_21_0_GeomSubset_0
v -0.000500 0.009227 0.000000
v 0.000500 0.009227 0.000000
v -0.000500 0.010227 0.000000
v 0.000500 0.010227 0.000000
v -0.000500 0.009227 0.000000
v 0.000500 0.009227 0.000000
v -0.000500 0.010227 0.000000
v 0.000500 0.010227 0.000000
v -0.000500 0.009227 0.000000
v 0.000500 0.009227 0.000000
v -0.000500 0.010227 0.000000
v 0.000500 0.010227 0.000000
v -0.089833 0.009727 0.062376
v -0.085719 0.009727 0.072306
v -0.075789 0.009727 0.076420
v -0.075789 0.009727 -0.077684
v -0.085719 0.009727 -0.073571
v -0.089833 0.009727 -0.063640
v 0.000000 0.009727 -0.077684
v 0.000000 0.009727 0.076420
v -0.056771 0.009727 -0.077684
v -0.056771 0.009727 0.076420
v -0.041861 -0.007231 -0.058226
v -0.041861 -0.007231 0.058226
v -0.047473 -0.007231 0.058226
v -0.047473 -0.007231 -0.058226
v -0.041861 -0.003819 -0.058226
v -0.041861 -0.003819 0.058226
v -0.047473 -0.003819 0.058226
v -0.047473 -0.003819 -0.058226
v -0.043508 0.009727 -0.077684
v -0.045728 0.009727 -0.077684
v -0.045728 0.009727 0.076420
v -0.043508 0.009727 0.076420
v -0.043516 -0.007231 0.059534
v -0.045736 -0.007231 0.059553
v -0.045736 -0.007231 -0.059553
v -0.043516 -0.007231 -0.059534
v -0.043516 -0.003819 0.059534
v -0.045736 -0.003819 0.059553
v -0.043516 -0.003819 -0.059534
v -0.045736 -0.003819 -0.059553
v 0.089833 0.009727 0.062376
v 0.085719 0.009727 0.072306
v 0.075788 0.009727 0.076420
v 0.075788 0.009727 -0.077684
v 0.085719 0.009727 -0.073571
v 0.089833 0.009727 -0.063640
v 0.056771 0.009727 -0.077684
v 0.056771 0.009727 0.076420
v 0.041861 -0.007231 -0.058226
v 0.041861 -0.007231 0.058226
v 0.047472 -0.007231 0.058226
v 0.047472 -0.007231 -0.058226
v 0.041861 -0.003819 -0.058226
v 0.041861 -0.003819 0.058226
v 0.047472 -0.003819 0.058226
v 0.047472 -0.003819 -0.058226
v 0.043508 0.009727 -0.077684
v 0.045728 0.009727 -0.077684
v 0.045728 0.009727 0.076420
v 0.043508 0.009727 0.076420
v 0.043516 -0.007231 0.059534
v 0.045736 -0.007231 0.059553
v 0.045736 -0.007231 -0.059553
v 0.043516 -0.007231 -0.059534
v 0.043515 -0.003819 0.059534
v 0.045736 -0.003819 0.059553
v 0.043516 -0.003819 -0.059534
v 0.045736 -0.003819 -0.059553
v -0.075789 -0.003118 0.076420
v -0.075549 -0.006026 0.075215
v -0.074970 -0.007231 0.072307
v -0.056771 -0.003118 0.076420
v -0.056771 -0.006026 0.075215
v -0.056771 -0.007231 0.072307
v -0.075789 -0.003118 -0.077684
v -0.075549 -0.006026 -0.076479
v -0.074970 -0.007231 -0.073571
v -0.056771 -0.007231 -0.073571
v -0.056771 -0.006026 -0.076479
v -0.056771 -0.003118 -0.077684
v -0.089833 -0.003118 0.062376
v -0.088628 -0.006026 0.062136
v -0.085720 -0.007231 0.061558
v -0.085720 -0.007231 -0.062822
v -0.088628 -0.006026 -0.063401
v -0.089833 -0.003118 -0.063640
v -0.085719 -0.003118 0.072306
v -0.084797 -0.006026 0.071384
v -0.082571 -0.007231 0.069158
v -0.085719 -0.003118 -0.073571
v -0.084797 -0.006026 -0.072649
v -0.082571 -0.007231 -0.070423
v -0.045728 -0.003118 -0.077684
v -0.045729 -0.006026 -0.076479
v -0.045731 -0.007231 -0.073571
v -0.043511 -0.007231 -0.073571
v -0.043509 -0.006026 -0.076479
v -0.043508 -0.003118 -0.077684
v -0.043508 -0.003118 0.076420
v -0.043509 -0.006026 0.075215
v -0.043511 -0.007231 0.072307
v -0.045731 -0.007231 0.072307
v -0.045729 -0.006026 0.075215
v -0.045728 -0.003118 0.076420
v 0.000000 -0.007231 -0.073571
v 0.000000 -0.006026 -0.076479
v 0.000000 -0.003118 -0.077684
v 0.000000 -0.003118 0.076420
v 0.000000 -0.006026 0.075215
v 0.000000 -0.007231 0.072307
v 0.075788 -0.003118 0.076420
v 0.075549 -0.006026 0.075215
v 0.074970 -0.007231 0.072307
v 0.056771 -0.007231 0.072307
v 0.056771 -0.006026 0.075215
v 0.056771 -0.003118 0.076420
v 0.075788 -0.003118 -0.077684
v 0.075549 -0.006026 -0.076479
v 0.074970 -0.007231 -0.073571
v 0.056771 -0.003118 -0.077684
v 0.056771 -0.006026 -0.076479
v 0.056771 -0.007231 -0.073571
v 0.085720 -0.007231 0.061558
v 0.088628 -0.006026 0.062136
v 0.089833 -0.003118 0.062376
v 0.089833 -0.003118 -0.063640
v 0.088628 -0.006026 -0.063401
v 0.085720 -0.007231 -0.062822
v 0.085719 -0.003118 0.072306
v 0.084797 -0.006026 0.071384
v 0.082571 -0.007231 0.069158
v 0.085719 -0.003118 -0.073571
v 0.084797 -0.006026 -0.072649
v 0.082571 -0.007231 -0.070423
v 0.045731 -0.007231 -0.073571
v 0.045729 -0.006026 -0.076479
v 0.045728 -0.003118 -0.077684
v 0.043508 -0.003118 -0.077684
v 0.043509 -0.006026 -0.076479
v 0.043511 -0.007231 -0.073571
v 0.043511 -0.007231 0.072307
v 0.043509 -0.006026 0.075215
v 0.043508 -0.003118 0.076420
v 0.045728 -0.003118 0.076420
v 0.045729 -0.006026 0.075215
v 0.045731 -0.007231 0.072307
vn -0.0000 -0.0000 1.0000
vn -0.9999 -0.0000 0.0141
vn -0.9999 -0.0000 -0.0141
vn 0.9999 -0.0000 -0.0149
vn 0.9999 -0.0000 0.0149
vn -0.3239 -0.0000 -0.9461
vn 0.3139 -0.0000 -0.9495
vn 0.3139 -0.0000 0.9495
vn -0.3239 -0.0000 0.9461
vn -0.0000 -1.0000 -0.0000
vn 0.9999 -0.0000 0.0141
vn 0.9999 -0.0000 -0.0141
vn 0.9999 -0.0002 -0.0142
vn -0.9999 -0.0000 -0.0149
vn -0.9999 -0.0000 0.0149
vn 0.3239 -0.0000 -0.9461
vn -0.3140 -0.0000 -0.9494
vn -0.3140 -0.0000 0.9494
vn 0.3239 -0.0000 0.9461
vn -0.0000 -0.9999 -0.0119
vn -0.0000 -0.9999 0.0117
vn -0.0013 -0.9999 -0.0103
vn -0.0996 -0.6794 -0.7269
vn -0.0000 -0.7051 -0.7091
vn -0.0000 -0.9999 -0.0111
vn -0.1399 -0.0737 -0.9874
vn -0.0000 -0.0761 -0.9971
vn -0.1525 -0.9883 0.0040
vn -0.7316 -0.6814 0.0210
vn -0.7316 -0.6814 -0.0210
vn -0.1525 -0.9883 -0.0040
vn -0.9968 -0.0734 0.0302
vn -0.9968 -0.0734 -0.0301
vn -0.0000 -0.9954 -0.0955
vn -0.0000 -0.7071 -0.7071
vn -0.0000 -0.9942 -0.1075
vn -0.0000 -0.0764 -0.9971
vn -0.0000 -0.9934 0.1144
vn -0.0000 -0.7071 0.7071
vn -0.0000 -0.9948 0.1021
vn -0.0000 -0.0764 0.9971
vn 0.0013 -0.9999 0.0103
vn 0.0996 -0.6794 0.7269
vn -0.0000 -0.7051 0.7091
vn -0.0000 -0.9999 0.0111
vn 0.1399 -0.0737 0.9874
vn -0.0000 -0.0761 0.9971
vn 0.9968 -0.0735 0.0301
vn 0.7316 -0.6814 0.0210
vn 0.7316 -0.6814 -0.0210
vn 0.9968 -0.0735 -0.0301
vn 0.1525 -0.9883 0.0040
vn 0.1525 -0.9883 -0.0040
vn -0.0001 -0.0764 0.9971
vn -0.1407 -0.0000 0.9901
vn -0.1399 -0.0737 0.9874
vn -0.1407 -0.0000 -0.9900
vn -0.0000 -0.0000 -1.0000
vn -0.9995 -0.0001 -0.0304
vn -0.9995 -0.0000 0.0304
vn -0.7052 -0.0737 0.7052
vn -0.7071 -0.0000 0.7071
vn -0.7052 -0.0737 -0.7052
vn -0.7071 -0.0000 -0.7071
vn -0.0117 -0.9999 -0.0116
vn -0.0116 -0.9999 0.0117
vn -0.0013 -0.9999 0.0103
vn 0.1407 -0.0000 0.9901
vn 0.1399 -0.0737 -0.9874
vn 0.1407 -0.0000 -0.9901
vn 0.9995 -0.0000 -0.0304
vn 0.9995 -0.0001 0.0304
vn 0.7071 -0.0000 0.7071
vn 0.7052 -0.0736 0.7052
vn 0.7071 -0.0000 -0.7071
vn 0.7052 -0.0736 -0.7052
vn 0.0117 -0.9999 -0.0116
vn 0.0116 -0.9999 0.0117
vn 0.0013 -0.9999 -0.0103
vn -0.0996 -0.6794 0.7269
vn -0.0000 -0.7050 0.7092
vn -0.5291 -0.6634 -0.5291
vn -0.5291 -0.6634 0.5291
vn 0.5291 -0.6634 0.5291
vn 0.0996 -0.6794 -0.7269
vn -0.0000 -0.7050 -0.7092
vn 0.5291 -0.6634 -0.5291
vt 1.350739 0.665483
vt 1.350739 0.664306
vt 1.351916 0.664306
vt 1.351916 0.665483
vt 0.649275 0.448452
vt 0.649275 0.677425
vt 0.642567 0.677425
vt 0.642567 0.448452
vt 0.614123 0.536138
vt 0.614123 0.307060
vt 0.620834 0.307060
vt 0.620834 0.536138
vt 0.637108 0.498213
vt 0.632772 0.498213
vt 0.632771 0.491550
vt 0.637108 0.491550
vt 0.628333 0.491551
vt 0.632668 0.491551
vt 0.632668 0.498212
vt 0.628333 0.498212
vt 0.627403 0.537876
vt 0.623066 0.537912
vt 0.623067 0.305286
vt 0.627403 0.305322
vt 0.630635 0.307877
vt 0.630635 0.535321
vt 0.619674 0.535321
vt 0.619674 0.307877
vt 0.649275 0.679998
vt 0.642567 0.679998
vt 0.649275 0.445880
vt 0.642567 0.445880
vt 0.614123 0.538748
vt 0.620834 0.538748
vt 0.614123 0.304450
vt 0.620834 0.304450
vt 0.636726 0.448450
vt 0.643434 0.448450
vt 0.643434 0.677427
vt 0.636726 0.677427
vt 0.635916 0.536138
vt 0.629206 0.536138
vt 0.629206 0.307060
vt 0.635916 0.307060
vt 0.623894 0.498212
vt 0.623894 0.491550
vt 0.628229 0.491550
vt 0.628229 0.498212
vt 0.623791 0.491549
vt 0.623791 0.498213
vt 0.619455 0.498213
vt 0.619455 0.491549
vt 0.637988 0.537876
vt 0.637989 0.305321
vt 0.642324 0.305285
vt 0.642325 0.537912
vt 0.634756 0.307876
vt 0.634756 0.535321
vt 0.645717 0.307876
vt 0.645717 0.535321
vt 0.643434 0.680000
vt 0.636726 0.680000
vt 0.636726 0.445878
vt 0.643434 0.445878
vt 0.635916 0.538747
vt 0.629206 0.538747
vt 0.629206 0.304450
vt 0.635916 0.304450
vt 0.297860 0.455816
vt 0.583616 0.455816
vt 0.556035 0.537817
vt 0.327919 0.537817
vt 0.327919 0.373816
vt 0.556035 0.373816
vt 0.297860 0.602674
vt 0.292163 0.603807
vt 0.292163 0.567024
vt 0.297860 0.567024
vt 0.556782 0.601767
vt 0.551032 0.602241
vt 0.551032 0.564640
vt 0.556782 0.564640
vt 0.562560 0.623730
vt 0.563694 0.629427
vt 0.317783 0.629427
vt 0.318916 0.623730
vt 0.598561 0.561558
vt 0.592806 0.562032
vt 0.592806 0.312672
vt 0.598561 0.313146
vt 0.297860 0.545398
vt 0.292163 0.545395
vt 0.292163 0.541045
vt 0.297860 0.541049
vt 0.556782 0.542809
vt 0.551032 0.542807
vt 0.551032 0.538417
vt 0.556782 0.538419
vt 0.583616 0.541049
vt 0.589313 0.541045
vt 0.589313 0.545395
vt 0.583616 0.545398
vt 0.546519 0.538419
vt 0.552269 0.538417
vt 0.552269 0.542807
vt 0.546519 0.542809
vt 0.583616 0.308959
vt 0.589313 0.307826
vt 0.589313 0.344609
vt 0.583616 0.344609
vt 0.546519 0.303020
vt 0.552269 0.302546
vt 0.552269 0.340146
vt 0.546519 0.340146
vt 0.594027 0.562032
vt 0.588272 0.561558
vt 0.588272 0.313146
vt 0.594027 0.312671
vt 0.563694 0.282206
vt 0.562560 0.287903
vt 0.318916 0.287903
vt 0.317783 0.282206
vt 0.551032 0.361980
vt 0.556782 0.361978
vt 0.556782 0.366368
vt 0.551032 0.366370
vt 0.292163 0.366238
vt 0.297860 0.366235
vt 0.297860 0.370584
vt 0.292163 0.370587
vt 0.552269 0.366370
vt 0.546519 0.366368
vt 0.546519 0.361978
vt 0.552269 0.361980
vt 0.589313 0.370587
vt 0.583616 0.370584
vt 0.583616 0.366235
vt 0.589313 0.366238
vt 0.577665 0.602241
vt 0.552269 0.602241
vt 0.552269 0.564640
vt 0.577665 0.564640
vt 0.525636 0.602241
vt 0.525636 0.564640
vt 0.567389 0.312672
vt 0.567389 0.562032
vt 0.592806 0.581682
vt 0.567389 0.581682
vt 0.552269 0.621876
vt 0.577665 0.621876
vt 0.551032 0.621876
vt 0.525636 0.621876
vt 0.592806 0.293022
vt 0.567389 0.293022
vt 0.304027 0.617563
vt 0.577449 0.617563
vt 0.583616 0.602674
vt 0.583616 0.567024
vt 0.327919 0.548809
vt 0.556035 0.548809
vt 0.525636 0.542807
vt 0.525636 0.538417
vt 0.325356 0.541058
vt 0.325320 0.545407
vt 0.558634 0.545407
vt 0.558597 0.541058
vt 0.577665 0.538417
vt 0.577665 0.542807
vt 0.525636 0.452393
vt 0.551032 0.452393
vt 0.552269 0.452393
vt 0.577665 0.452393
vt 0.577665 0.302546
vt 0.577665 0.340146
vt 0.551032 0.302546
vt 0.551032 0.340146
vt 0.525636 0.340146
vt 0.525636 0.302546
vt 0.619444 0.312671
vt 0.619444 0.562032
vt 0.619444 0.581683
vt 0.594027 0.581683
vt 0.552269 0.282911
vt 0.577665 0.282911
vt 0.525636 0.282911
vt 0.551032 0.282911
vt 0.594027 0.293021
vt 0.619444 0.293021
vt 0.304027 0.294070
vt 0.577449 0.294070
vt 0.297860 0.308959
vt 0.297860 0.344609
vt 0.556035 0.362823
vt 0.327919 0.362823
vt 0.525636 0.361980
vt 0.525636 0.366370
vt 0.325320 0.366226
vt 0.325356 0.370575
vt 0.558597 0.370575
vt 0.558634 0.366226
vt 0.577665 0.361980
vt 0.577665 0.366370
vt 0.546519 0.601767
vt 0.546519 0.564640
vt 0.589313 0.603807
vt 0.589313 0.567024
vt 0.556782 0.620052
vt 0.299667 0.621923
vt 0.598561 0.579858
vt 0.581809 0.621923
vt 0.546519 0.620052
vt 0.598561 0.294846
vt 0.292163 0.455816
vt 0.556782 0.452393
vt 0.546519 0.452393
vt 0.589313 0.455816
vt 0.546519 0.284734
vt 0.581809 0.289710
vt 0.556782 0.303020
vt 0.556782 0.340146
vt 0.292163 0.307826
vt 0.292163 0.344609
vt 0.588272 0.294845
vt 0.299667 0.289710
vt 0.588272 0.579858
vt 0.556782 0.284734
s 1
usemtl M_LightSwitch_21_0
f 1/1/1 2/2/1 4/3/1 3/4/1
f 23/5/2 24/6/3 28/7/3 27/8/2
f 25/9/4 26/10/5 30/11/5 29/12/4
f 35/13/6 36/14/7 40/15/7 39/16/6
f 37/17/8 38/18/9 41/19/9 42/20/8
f 39/21/10 40/22/10 42/23/10 41/24/10
f 27/25/10 28/26/10 39/21/10 41/24/10
f 42/23/10 40/22/10 29/27/10 30/28/10
f 24/6/3 35/29/6 39/30/6 28/7/3
f 38/31/9 23/5/2 27/8/2 41/32/9
f 36/33/7 25/9/4 29/12/4 40/34/7
f 26/10/5 37/35/8 42/36/8 30/11/5
f 51/37/11 55/38/11 56/39/12 52/40/13
f 53/41/14 57/42/14 58/43/15 54/44/15
f 63/45/16 67/46/16 68/47/17 64/48/17
f 65/49/18 70/50/18 69/51/19 66/52/19
f 67/53/10 69/54/10 70/55/10 68/56/10
f 55/57/10 69/54/10 67/53/10 56/58/10
f 70/55/10 58/59/10 57/60/10 68/56/10
f 52/40/13 56/39/12 67/61/16 63/62/16
f 66/63/19 69/64/19 55/38/11 51/37/11
f 64/65/17 68/66/17 57/42/14 53/41/14
f 54/44/15 58/43/15 70/67/18 65/68/18
f 107/69/20 112/70/21 24/71/10 23/72/10
f 107/69/20 51/73/10 52/74/10 112/70/21
f 79/75/22 78/76/23 81/77/24 80/78/25
f 78/79/23 77/80/26 82/81/27 81/82/24
f 85/83/28 84/84/29 87/85/30 86/86/31
f 84/87/29 83/88/32 88/89/33 87/90/30
f 97/91/34 96/92/35 99/93/35 98/94/36
f 96/95/35 95/96/37 100/97/37 99/98/35
f 103/99/38 102/100/39 105/101/39 104/102/40
f 102/103/39 101/104/41 106/105/41 105/106/39
f 115/107/42 114/108/43 117/109/44 116/110/45
f 114/111/43 113/112/46 118/113/47 117/114/44
f 127/115/48 126/116/49 129/117/50 128/118/51
f 126/119/49 125/120/52 130/121/53 129/122/50
f 139/123/37 138/124/35 141/125/35 140/126/37
f 138/127/35 137/128/34 142/129/36 141/130/35
f 145/131/54 144/132/39 147/133/39 146/134/41
f 144/135/39 143/136/38 148/137/40 147/138/39
f 15/139/55 71/140/56 74/141/47 22/142/1
f 77/80/26 16/143/57 21/144/58 82/81/27
f 18/145/59 88/89/33 83/88/32 13/146/60
f 83/88/32 89/147/61 14/148/62 13/146/60
f 89/149/61 71/140/56 15/139/55 14/150/62
f 77/80/26 92/151/63 17/152/64 16/143/57
f 92/153/63 88/89/33 18/145/59 17/154/64
f 94/155/65 91/156/66 85/83/28 86/86/31
f 79/75/22 73/157/67 91/156/66 94/155/65
f 80/78/25 76/158/45 73/157/67 79/75/22
f 76/158/45 80/78/25 26/159/10 25/160/10
f 32/161/58 31/162/58 100/97/37 95/96/37
f 97/91/34 98/94/36 38/163/10 37/164/10
f 103/99/38 104/102/40 36/165/10 35/166/10
f 106/105/41 101/104/41 34/167/1 33/168/1
f 100/97/37 31/162/58 19/169/58 109/170/37
f 34/167/1 101/104/41 110/171/41 20/172/1
f 82/81/27 21/144/58 32/161/58 95/96/37
f 22/142/1 74/141/47 106/105/41 33/168/1
f 112/70/21 103/99/38 35/166/10 24/71/10
f 98/94/36 107/69/20 23/72/10 38/163/10
f 104/102/40 76/158/45 25/160/10 36/165/10
f 80/78/25 97/91/34 37/164/10 26/159/10
f 45/173/68 50/174/1 118/113/47 113/112/46
f 119/175/69 122/176/27 49/177/58 46/178/70
f 48/179/71 43/180/72 127/115/48 128/118/51
f 127/115/48 43/180/72 44/181/73 131/182/74
f 131/183/74 44/184/73 45/173/68 113/112/46
f 119/175/69 46/178/70 47/185/75 134/186/76
f 134/187/76 47/188/75 48/179/71 128/118/51
f 136/189/77 130/121/53 125/120/52 133/190/78
f 121/191/79 136/189/77 133/190/78 115/107/42
f 124/192/25 121/191/79 115/107/42 116/110/45
f 116/110/45 53/193/10 54/194/10 124/192/25
f 60/195/58 139/123/37 140/126/37 59/196/58
f 137/128/34 65/197/10 66/198/10 142/129/36
f 143/136/38 63/199/10 64/200/10 148/137/40
f 146/134/41 61/201/1 62/202/1 145/131/54
f 140/126/37 109/170/37 19/169/58 59/196/58
f 62/202/1 20/172/1 110/171/41 145/131/54
f 122/176/27 139/123/37 60/195/58 49/177/58
f 50/174/1 61/201/1 146/134/41 118/113/47
f 143/136/38 112/70/21 52/74/10 63/199/10
f 142/129/36 66/198/10 51/73/10 107/69/20
f 148/137/40 64/200/10 53/193/10 116/110/45
f 124/192/25 54/194/10 65/197/10 137/128/34
f 71/140/56 72/203/80 75/204/81 74/141/47
f 72/205/80 73/157/67 76/158/45 75/206/81
f 77/80/26 78/79/23 93/207/82 92/151/63
f 78/76/23 79/75/22 94/155/65 93/208/82
f 83/88/32 84/87/29 90/209/83 89/147/61
f 84/84/29 85/83/28 91/156/66 90/210/83
f 73/157/67 72/205/80 90/210/83 91/156/66
f 72/203/80 71/140/56 89/149/61 90/211/83
f 86/86/31 87/85/30 93/208/82 94/155/65
f 87/90/30 88/89/33 92/153/63 93/212/82
f 80/78/25 81/77/24 96/92/35 97/91/34
f 81/82/24 82/81/27 95/96/37 96/95/35
f 98/94/36 99/93/35 108/213/35 107/69/20
f 99/98/35 100/97/37 109/170/37 108/214/35
f 101/104/41 102/103/39 111/215/39 110/171/41
f 102/100/39 103/99/38 112/70/21 111/216/39
f 74/141/47 75/204/81 105/106/39 106/105/41
f 75/206/81 76/158/45 104/102/40 105/101/39
f 113/112/46 114/111/43 132/217/84 131/183/74
f 114/108/43 115/107/42 133/190/78 132/218/84
f 119/175/69 120/219/85 123/220/86 122/176/27
f 120/221/85 121/191/79 124/192/25 123/222/86
f 128/118/51 129/117/50 135/223/87 134/187/76
f 129/122/50 130/121/53 136/189/77 135/224/87
f 125/120/52 126/119/49 132/218/84 133/190/78
f 126/116/49 127/115/48 131/182/74 132/225/84
f 121/191/79 120/221/85 135/224/87 136/189/77
f 120/219/85 119/175/69 134/186/76 135/226/87
f 122/176/27 123/220/86 138/124/35 139/123/37
f 123/222/86 124/192/25 137/128/34 138/127/35
f 140/126/37 141/125/35 108/214/35 109/170/37
f 141/130/35 142/129/36 107/69/20 108/213/35
f 143/136/38 144/135/39 111/216/39 112/70/21
f 144/132/39 145/131/54 110/171/41 111/215/39
f 116/110/45 117/109/44 147/138/39 148/137/40
f 117/114/44 118/113/47 146/134/41 147/133/39
