# Blender 4.1.0
# www.blender.org
mtllib DoormeshMicrowaveDoorA2_1_GeomSubset_5.mtl
o DoormeshMicrowaveDoorA2_1_GeomSubset_5
v -0.000448 -0.007836 -0.176750
v -0.000438 -0.007836 -0.176750
v -0.000448 -0.007826 -0.176750
v -0.000438 -0.007826 -0.176750
v -0.000448 -0.007836 -0.176750
v -0.000438 -0.007836 -0.176750
v -0.000448 -0.007826 -0.176750
v -0.000438 -0.007826 -0.176750
v -0.000448 -0.007836 -0.176750
v -0.000438 -0.007836 -0.176750
v -0.000448 -0.007826 -0.176750
v -0.000438 -0.007826 -0.176750
v -0.000448 -0.007836 -0.176750
v -0.000438 -0.007836 -0.176750
v -0.000448 -0.007826 -0.176750
v -0.000438 -0.007826 -0.176750
v -0.000448 -0.007836 -0.176750
v -0.000438 -0.007836 -0.176750
v -0.000448 -0.007826 -0.176750
v -0.000438 -0.007826 -0.176750
v -0.000448 -0.007836 -0.176750
v -0.000438 -0.007836 -0.176750
v -0.000448 -0.007826 -0.176750
v -0.000438 -0.007826 -0.176750
v -0.000448 -0.007836 -0.176750
v -0.000438 -0.007836 -0.176750
v -0.000448 -0.007826 -0.176750
v -0.000438 -0.007826 -0.176750
v -0.255419 -0.162943 0.137255
v 0.169227 -0.162943 0.138314
v -0.255419 -0.162943 -0.059782
v 0.169227 -0.162943 -0.060840
v -0.255419 -0.162579 0.137255
v 0.169227 -0.162579 0.138314
v -0.255419 -0.162579 -0.059782
v 0.169227 -0.162579 -0.060840
v -0.270478 -0.153775 0.114084
v -0.269589 -0.152885 0.113594
v -0.270482 -0.153779 0.108677
v -0.269596 -0.152885 0.108557
v -0.264411 -0.153775 0.117927
v -0.264038 -0.152885 0.117110
v -0.265061 -0.153775 -0.074504
v -0.264997 -0.152885 -0.073614
v -0.270429 -0.153775 -0.073726
v -0.269648 -0.152885 -0.072940
v -0.271196 -0.153775 -0.068655
v -0.270306 -0.152885 -0.068590
v -0.270478 -0.164781 0.114084
v -0.269589 -0.165671 0.113594
v -0.270482 -0.164777 0.108677
v -0.269596 -0.165671 0.108555
v -0.264411 -0.164781 0.117927
v -0.264038 -0.165671 0.117110
v -0.264997 -0.165671 -0.073614
v -0.265061 -0.164781 -0.074504
v -0.270429 -0.164781 -0.073726
v -0.269648 -0.165671 -0.072940
v -0.271196 -0.164781 -0.068655
v -0.270306 -0.165671 -0.068590
v -0.219371 -0.153775 0.131449
v -0.219155 -0.152885 0.130585
v -0.173864 -0.153775 0.140632
v -0.173728 -0.152885 0.139752
v -0.173864 -0.164781 0.140632
v -0.173728 -0.165671 0.139752
v -0.219371 -0.164781 0.131449
v -0.219155 -0.165671 0.130585
v -0.110784 -0.153775 0.147381
v -0.110705 -0.152885 0.146494
v -0.064479 -0.153775 0.150722
v -0.064431 -0.152885 0.149833
v -0.064479 -0.164781 0.150722
v -0.064431 -0.165671 0.149833
v -0.110784 -0.164781 0.147381
v -0.110705 -0.165671 0.146494
v -0.017523 -0.153775 0.152482
v -0.017506 -0.152885 0.151592
v 0.028902 -0.153775 0.152482
v 0.028886 -0.152885 0.151592
v 0.028902 -0.164781 0.152482
v 0.028886 -0.165671 0.151592
v -0.017523 -0.164781 0.152482
v -0.017506 -0.165671 0.151592
v 0.075857 -0.153775 0.150722
v 0.075807 -0.152885 0.149833
v 0.122066 -0.152885 0.146343
v 0.122150 -0.153775 0.147230
v 0.075857 -0.164781 0.150722
v 0.075807 -0.165671 0.149833
v 0.122150 -0.164781 0.147230
v 0.122066 -0.165671 0.146343
v -0.250612 -0.152885 0.101718
v -0.249774 -0.153779 0.101607
v -0.249772 -0.153775 0.103953
v -0.250614 -0.152885 0.104401
v -0.249774 -0.164777 0.101593
v -0.250612 -0.165671 0.101704
v -0.250614 -0.165671 0.104401
v -0.249772 -0.164781 0.103953
v -0.246879 -0.153775 0.105725
v -0.247232 -0.152885 0.106473
v -0.247232 -0.165671 0.106473
v -0.246879 -0.164781 0.105725
v -0.250436 -0.153775 -0.057442
v -0.251278 -0.152885 -0.057501
v -0.251042 -0.152885 -0.059014
v -0.250303 -0.153775 -0.058295
v -0.251278 -0.165671 -0.057501
v -0.250436 -0.164781 -0.057442
v -0.250303 -0.164781 -0.058295
v -0.251042 -0.165671 -0.059014
v -0.249123 -0.164781 -0.058460
v -0.249184 -0.165671 -0.059274
v -0.249184 -0.152885 -0.059274
v -0.249123 -0.153775 -0.058460
v -0.163988 -0.153775 0.125807
v -0.164117 -0.152885 0.126612
v -0.206057 -0.152885 0.118427
v -0.205853 -0.153775 0.117637
v -0.164117 -0.165671 0.126612
v -0.163989 -0.164781 0.125807
v -0.205853 -0.164781 0.117637
v -0.206057 -0.165671 0.118427
v -0.062874 -0.153775 0.134830
v -0.062920 -0.152885 0.135643
v -0.105820 -0.152885 0.132647
v -0.105745 -0.153775 0.131836
v -0.062757 -0.165671 0.135651
v -0.062711 -0.164782 0.134838
v -0.105582 -0.164782 0.131850
v -0.105657 -0.165671 0.132661
v 0.023558 -0.153775 0.136412
v 0.023574 -0.152885 0.137226
v -0.019427 -0.152885 0.137223
v -0.019411 -0.153775 0.136409
v 0.023751 -0.165671 0.137223
v 0.023735 -0.164782 0.136409
v -0.019234 -0.164782 0.136412
v -0.019250 -0.165671 0.137226
v 0.109863 -0.153775 0.131717
v 0.109942 -0.152885 0.132528
v 0.067065 -0.152885 0.135653
v 0.067017 -0.153775 0.134839
v 0.110120 -0.165671 0.132512
v 0.110041 -0.164782 0.131701
v 0.067196 -0.164782 0.134830
v 0.067243 -0.165671 0.135643
v 0.182639 -0.153775 -0.073091
v 0.180295 -0.152885 -0.072409
v 0.176679 -0.152885 -0.072288
v 0.176856 -0.153775 -0.073178
v 0.176856 -0.164781 -0.073178
v 0.176679 -0.165671 -0.072288
v 0.182639 -0.164781 -0.073091
v 0.181958 -0.165671 -0.072409
v 0.182683 -0.153775 -0.068972
v 0.181793 -0.152885 -0.068795
v 0.181793 -0.165671 -0.068795
v 0.182683 -0.164781 -0.068972
v 0.156581 -0.165671 -0.059533
v 0.156414 -0.164781 -0.058718
v 0.160954 -0.165671 -0.057783
v 0.160310 -0.164781 -0.057160
v 0.161924 -0.164781 -0.053392
v 0.162766 -0.165671 -0.053554
v 0.182628 -0.153775 0.138951
v 0.181918 -0.152885 0.138316
v 0.181793 -0.152885 0.134669
v 0.182683 -0.153775 0.134833
v 0.182683 -0.164781 0.134833
v 0.181793 -0.165671 0.134669
v 0.182628 -0.164781 0.138951
v 0.181918 -0.165671 0.138316
v 0.178714 -0.153775 0.139878
v 0.176934 -0.152885 0.139012
v 0.176934 -0.165671 0.139012
v 0.177197 -0.164781 0.139878
v 0.162766 -0.165671 0.121098
v 0.161924 -0.164781 0.120948
v 0.161111 -0.165671 0.125295
v 0.160439 -0.164781 0.124715
v 0.156737 -0.164781 0.126568
v 0.156986 -0.165671 0.127360
v 0.160954 -0.152885 -0.057783
v 0.160310 -0.153775 -0.057160
v 0.162766 -0.152885 -0.053554
v 0.161924 -0.153775 -0.053392
v 0.156414 -0.153775 -0.058718
v 0.156581 -0.152885 -0.059533
v 0.161111 -0.152885 0.125295
v 0.160439 -0.153775 0.124715
v 0.156986 -0.152885 0.127360
v 0.156736 -0.153775 0.126568
v 0.161924 -0.153775 0.120948
v 0.162766 -0.152885 0.121098
v 0.161924 -0.164781 0.033909
v 0.162766 -0.165671 0.033900
v 0.162766 -0.152885 0.033900
v 0.161924 -0.153775 0.033909
v 0.182683 -0.153775 0.033353
v 0.181793 -0.152885 0.033363
v 0.181793 -0.165671 0.033363
v 0.182683 -0.164781 0.033353
v -0.296275 -0.123849 0.159518
v -0.294672 -0.123849 0.166078
v -0.296824 -0.126153 0.171909
v -0.297406 -0.131768 0.174447
v -0.303006 -0.131681 0.172177
v -0.305325 -0.131598 0.166697
v -0.303113 -0.126060 0.159839
v -0.296938 -0.123849 0.143658
v -0.295199 -0.123849 -0.124670
v -0.296945 -0.123849 -0.116544
v -0.302999 -0.126155 -0.124909
v -0.305325 -0.131764 -0.128502
v -0.303054 -0.131682 -0.134099
v -0.297570 -0.131604 -0.136417
v -0.295660 -0.126122 -0.133962
v -0.290983 -0.123849 -0.128039
v -0.260588 -0.133906 0.116554
v -0.262596 -0.123849 0.122047
v -0.268909 -0.123849 0.118629
v -0.271328 -0.123849 0.113880
v -0.266550 -0.133906 0.112778
v -0.261227 -0.133906 -0.072536
v -0.267255 -0.133906 -0.066788
v -0.272098 -0.123849 -0.069886
v -0.269642 -0.123849 -0.075348
v -0.263669 -0.123849 -0.077634
v -0.301054 -0.126115 0.168470
v -0.300761 -0.126139 -0.131358
v -0.266501 -0.133906 -0.071771
v 0.182738 -0.123849 0.144327
v 0.182738 -0.133906 0.138535
v 0.182738 -0.131828 0.174447
v 0.182738 -0.123849 -0.128153
v 0.182738 -0.123849 0.166188
v 0.182738 -0.126177 0.171974
v 0.182738 -0.131726 -0.136417
v 0.182738 -0.126157 -0.133996
v 0.182738 -0.123849 -0.078161
v 0.182885 -0.133906 -0.072830
v -0.296275 -0.170794 0.159518
v -0.294672 -0.170794 0.166078
v -0.296824 -0.168489 0.171909
v -0.297406 -0.162874 0.174447
v -0.303006 -0.162961 0.172177
v -0.305325 -0.163044 0.166697
v -0.303113 -0.168582 0.159839
v -0.296938 -0.170794 0.143658
v -0.295199 -0.170794 -0.124670
v -0.296945 -0.170794 -0.116544
v -0.302999 -0.168487 -0.124909
v -0.305325 -0.162879 -0.128502
v -0.303054 -0.162960 -0.134099
v -0.297570 -0.163039 -0.136417
v -0.295660 -0.168520 -0.133962
v -0.290983 -0.170794 -0.128039
v -0.260588 -0.160736 0.116554
v -0.262596 -0.170794 0.122047
v -0.268909 -0.170794 0.118629
v -0.271328 -0.170794 0.113880
v -0.266550 -0.160736 0.112778
v -0.261227 -0.160736 -0.072536
v -0.267255 -0.160736 -0.066788
v -0.272098 -0.170794 -0.069886
v -0.269642 -0.170794 -0.075348
v -0.263669 -0.170794 -0.077634
v -0.301054 -0.168527 0.168470
v -0.300761 -0.168504 -0.131358
v -0.266501 -0.160736 -0.071771
v 0.182738 -0.170794 0.144327
v 0.182738 -0.160736 0.138535
v 0.182738 -0.162814 0.174447
v 0.182738 -0.170794 -0.128153
v 0.182738 -0.170794 0.166188
v 0.182738 -0.168466 0.171974
v 0.182738 -0.162916 -0.136417
v 0.182738 -0.168485 -0.133996
v 0.182738 -0.170794 -0.078161
v 0.182738 -0.160736 -0.072830
v 0.178741 -0.133906 -0.072825
v 0.178741 -0.123849 -0.128151
v 0.178741 -0.123849 0.145058
v 0.178741 -0.131832 0.174447
v 0.178741 -0.133906 0.138590
v 0.178741 -0.123849 0.166195
v 0.178741 -0.126178 0.171978
v 0.178741 -0.131725 -0.136417
v 0.178741 -0.126157 -0.133995
v 0.178741 -0.123849 -0.078153
v 0.178741 -0.162918 -0.136417
v 0.178741 -0.170794 0.145058
v 0.178741 -0.162810 0.174447
v 0.178741 -0.170794 -0.128151
v 0.178741 -0.160736 0.138590
v 0.178741 -0.170794 0.166195
v 0.178741 -0.168464 0.171978
v 0.178741 -0.168486 -0.133995
v 0.178741 -0.170794 -0.078153
v 0.178741 -0.160736 -0.072825
v 0.182738 -0.123849 0.033449
v 0.178741 -0.123849 0.033449
v 0.182738 -0.133906 0.033449
v 0.182738 -0.160736 0.033449
v 0.178741 -0.133906 0.033449
v 0.178741 -0.160736 0.033449
v 0.027632 -0.131914 0.174447
v -0.017987 -0.131914 0.174447
v -0.017987 -0.126210 0.172067
v 0.027632 -0.126210 0.172067
v -0.017987 -0.123849 0.166345
v 0.027632 -0.123849 0.166345
v -0.172571 -0.123849 0.144507
v -0.217637 -0.123849 0.135455
v -0.216330 -0.133906 0.129841
v -0.171613 -0.133906 0.138864
v -0.064432 -0.123849 0.154484
v -0.110147 -0.123849 0.151185
v -0.109629 -0.133906 0.145496
v -0.064128 -0.133906 0.148779
v -0.017987 -0.123849 0.156225
v 0.027632 -0.123849 0.156225
v -0.017987 -0.133906 0.150508
v 0.027632 -0.133906 0.150508
v -0.063689 -0.123849 0.166299
v -0.109358 -0.123849 0.166253
v -0.063714 -0.126200 0.172040
v -0.109333 -0.126190 0.172013
v -0.063714 -0.131889 0.174447
v -0.109333 -0.131864 0.174447
v -0.218933 -0.123849 0.166144
v -0.173301 -0.123849 0.166189
v -0.173308 -0.126177 0.171975
v -0.218927 -0.126167 0.171948
v -0.173308 -0.131829 0.174447
v -0.218927 -0.131804 0.174447
v 0.119795 -0.123849 0.151235
v 0.074079 -0.123849 0.154484
v 0.073771 -0.133906 0.148779
v 0.119260 -0.133906 0.145347
v 0.073334 -0.123849 0.166299
v 0.119002 -0.123849 0.166254
v 0.073359 -0.126200 0.172040
v 0.118978 -0.126190 0.172013
v 0.118978 -0.131864 0.174447
v 0.073359 -0.131889 0.174447
v -0.017987 -0.162728 0.174447
v 0.027632 -0.162728 0.174447
v -0.017987 -0.168432 0.172067
v 0.027632 -0.168432 0.172067
v -0.017987 -0.170794 0.166345
v 0.027632 -0.170794 0.166345
v -0.217637 -0.170794 0.135455
v -0.172571 -0.170794 0.144507
v -0.171613 -0.160736 0.138864
v -0.216330 -0.160736 0.129841
v -0.110147 -0.170794 0.151185
v -0.064432 -0.170794 0.154484
v -0.064128 -0.160736 0.148779
v -0.109629 -0.160736 0.145496
v -0.017987 -0.170794 0.156225
v 0.027632 -0.170794 0.156225
v 0.027632 -0.160736 0.150508
v -0.017987 -0.160736 0.150508
v -0.063689 -0.170794 0.166299
v -0.109358 -0.170794 0.166253
v -0.063714 -0.168442 0.172040
v -0.109333 -0.168452 0.172013
v -0.109333 -0.162778 0.174447
v -0.063714 -0.162753 0.174447
v -0.173301 -0.170794 0.166189
v -0.218933 -0.170794 0.166144
v -0.218927 -0.168475 0.171948
v -0.173308 -0.168465 0.171975
v -0.218927 -0.162838 0.174447
v -0.173308 -0.162813 0.174447
v 0.074079 -0.170794 0.154484
v 0.119795 -0.170794 0.151235
v 0.073771 -0.160736 0.148779
v 0.119260 -0.160736 0.145347
v 0.073334 -0.170794 0.166299
v 0.119002 -0.170794 0.166254
v 0.073359 -0.168442 0.172040
v 0.118978 -0.168452 0.172013
v 0.073359 -0.162753 0.174447
v 0.118978 -0.162778 0.174447
v -0.266553 -0.160736 0.107465
v -0.266553 -0.133906 0.107465
v 0.175916 -0.116166 0.152100
v 0.180609 -0.116166 0.152100
v 0.177414 -0.107358 0.147214
v 0.179110 -0.107358 0.147214
v 0.177414 -0.105997 0.141779
v 0.179110 -0.105997 0.141779
v 0.175916 -0.125008 0.151188
v 0.180609 -0.125008 0.151188
v 0.180609 -0.122715 0.156451
v 0.175916 -0.122715 0.156451
v 0.177414 -0.106253 0.134377
v 0.179110 -0.106253 0.134377
v 0.180609 -0.115716 0.131996
v 0.175916 -0.115716 0.131996
v 0.179978 -0.109424 0.149100
v 0.180609 -0.112834 0.150623
v 0.175916 -0.112834 0.150623
v 0.176546 -0.109424 0.149100
v 0.175916 -0.113059 0.142208
v 0.176447 -0.108765 0.141786
v 0.175916 -0.112920 0.131098
v 0.176437 -0.108688 0.132064
v 0.180609 -0.112920 0.131098
v 0.180087 -0.108688 0.132064
v 0.180609 -0.113029 0.142209
v 0.180087 -0.108793 0.141789
v 0.175916 -0.116732 0.141985
v 0.175916 -0.117572 0.146397
v 0.180609 -0.116732 0.141985
v 0.180609 -0.117572 0.146397
v 0.175916 -0.133168 0.158775
v 0.180609 -0.133168 0.158775
v 0.180609 -0.129361 0.162709
v 0.175916 -0.129361 0.162709
v 0.175916 -0.116166 -0.099844
v 0.180609 -0.116166 -0.099844
v 0.177414 -0.107358 -0.104731
v 0.179110 -0.107358 -0.104731
v 0.177414 -0.105997 -0.110166
v 0.179110 -0.105997 -0.110166
v 0.175916 -0.125008 -0.100757
v 0.180609 -0.125008 -0.100757
v 0.180609 -0.122715 -0.095494
v 0.175916 -0.122715 -0.095494
v 0.177414 -0.106253 -0.117568
v 0.179110 -0.106253 -0.117568
v 0.180609 -0.115716 -0.119949
v 0.175916 -0.115716 -0.119949
v 0.179978 -0.109424 -0.102845
v 0.180609 -0.112834 -0.101322
v 0.175916 -0.112834 -0.101322
v 0.176546 -0.109424 -0.102845
v 0.175916 -0.113059 -0.109737
v 0.176447 -0.108765 -0.110158
v 0.175916 -0.112920 -0.120847
v 0.176437 -0.108688 -0.119881
v 0.180609 -0.112920 -0.120847
v 0.180087 -0.108688 -0.119881
v 0.180609 -0.113029 -0.109736
v 0.180087 -0.108793 -0.110155
v 0.175916 -0.116732 -0.109960
v 0.175916 -0.117572 -0.105547
v 0.180609 -0.116732 -0.109960
v 0.180609 -0.117572 -0.105547
v 0.175916 -0.133168 -0.093170
v 0.180609 -0.133168 -0.093170
v 0.180609 -0.129361 -0.089236
v 0.175916 -0.129361 -0.089236
v -0.284488 -0.126532 -0.100485
v -0.284072 -0.123435 -0.100485
v -0.284873 -0.120414 -0.100485
v -0.286769 -0.117930 -0.100485
v -0.289471 -0.116361 -0.100485
v -0.292568 -0.115945 -0.100485
v -0.295588 -0.116746 -0.100485
v -0.284488 -0.126532 -0.098450
v -0.284072 -0.123435 -0.098450
v -0.284873 -0.120414 -0.098450
v -0.286769 -0.117930 -0.098450
v -0.289471 -0.116361 -0.098450
v -0.292568 -0.115945 -0.098450
v -0.295588 -0.116746 -0.098450
v -0.290014 -0.124999 -0.100485
v -0.289884 -0.124027 -0.100485
v -0.290135 -0.123079 -0.100485
v -0.290730 -0.122300 -0.100485
v -0.291578 -0.121808 -0.100485
v -0.292549 -0.121678 -0.100485
v -0.293497 -0.121929 -0.100485
v -0.290014 -0.124999 -0.098450
v -0.289884 -0.124027 -0.098450
v -0.290135 -0.123079 -0.098450
v -0.290730 -0.122300 -0.098450
v -0.291578 -0.121808 -0.098450
v -0.292549 -0.121678 -0.098450
v -0.293497 -0.121929 -0.098450
v -0.284488 -0.126532 0.138205
v -0.284072 -0.123435 0.138205
v -0.284873 -0.120414 0.138205
v -0.286769 -0.117930 0.138205
v -0.289471 -0.116361 0.138205
v -0.292568 -0.115945 0.138205
v -0.295588 -0.116746 0.138205
v -0.284488 -0.126532 0.140258
v -0.284072 -0.123435 0.140258
v -0.284873 -0.120414 0.140258
v -0.286769 -0.117930 0.140258
v -0.289471 -0.116361 0.140258
v -0.292568 -0.115945 0.140258
v -0.295588 -0.116746 0.140258
v -0.290014 -0.124999 0.138205
v -0.289884 -0.124027 0.138205
v -0.290135 -0.123079 0.138205
v -0.290730 -0.122300 0.138205
v -0.291578 -0.121808 0.138205
v -0.292549 -0.121678 0.138205
v -0.293497 -0.121929 0.138205
v -0.290014 -0.124999 0.140258
v -0.289884 -0.124027 0.140258
v -0.290135 -0.123079 0.140258
v -0.290730 -0.122300 0.140258
v -0.291578 -0.121808 0.140258
v -0.292549 -0.121678 0.140258
v -0.293497 -0.121929 0.140258
vn -0.0000 -0.0000 1.0000
vt 0.000000 0.000000
vt 1.000000 0.000000
vt 1.000000 1.000000
vt 0.000000 1.000000
s 1
usemtl M_MicrowaveDoorA2_5
f 21/1/1 22/2/1 24/3/1 23/4/1
