# Blender 4.1.0
# www.blender.org
mtllib DoormeshMicrowaveDoorA2_1_GeomSubset_2.mtl
o DoormeshMicrowaveDoorA2_1_GeomSubset_2
v -0.000448 -0.007836 -0.176750
v -0.000438 -0.007836 -0.176750
v -0.000448 -0.007826 -0.176750
v -0.000438 -0.007826 -0.176750
v -0.000448 -0.007836 -0.176750
v -0.000438 -0.007836 -0.176750
v -0.000448 -0.007826 -0.176750
v -0.000438 -0.007826 -0.176750
v -0.000448 -0.007836 -0.176750
v -0.000438 -0.007836 -0.176750
v -0.000448 -0.007826 -0.176750
v -0.000438 -0.007826 -0.176750
v -0.000448 -0.007836 -0.176750
v -0.000438 -0.007836 -0.176750
v -0.000448 -0.007826 -0.176750
v -0.000438 -0.007826 -0.176750
v -0.000448 -0.007836 -0.176750
v -0.000438 -0.007836 -0.176750
v -0.000448 -0.007826 -0.176750
v -0.000438 -0.007826 -0.176750
v -0.000448 -0.007836 -0.176750
v -0.000438 -0.007836 -0.176750
v -0.000448 -0.007826 -0.176750
v -0.000438 -0.007826 -0.176750
v -0.000448 -0.007836 -0.176750
v -0.000438 -0.007836 -0.176750
v -0.000448 -0.007826 -0.176750
v -0.000438 -0.007826 -0.176750
v -0.255419 -0.162943 0.137255
v 0.169227 -0.162943 0.138314
v -0.255419 -0.162943 -0.059782
v 0.169227 -0.162943 -0.060840
v -0.255419 -0.162579 0.137255
v 0.169227 -0.162579 0.138314
v -0.255419 -0.162579 -0.059782
v 0.169227 -0.162579 -0.060840
v -0.270478 -0.153775 0.114084
v -0.269589 -0.152885 0.113594
v -0.270482 -0.153779 0.108677
v -0.269596 -0.152885 0.108557
v -0.264411 -0.153775 0.117927
v -0.264038 -0.152885 0.117110
v -0.265061 -0.153775 -0.074504
v -0.264997 -0.152885 -0.073614
v -0.270429 -0.153775 -0.073726
v -0.269648 -0.152885 -0.072940
v -0.271196 -0.153775 -0.068655
v -0.270306 -0.152885 -0.068590
v -0.270478 -0.164781 0.114084
v -0.269589 -0.165671 0.113594
v -0.270482 -0.164777 0.108677
v -0.269596 -0.165671 0.108555
v -0.264411 -0.164781 0.117927
v -0.264038 -0.165671 0.117110
v -0.264997 -0.165671 -0.073614
v -0.265061 -0.164781 -0.074504
v -0.270429 -0.164781 -0.073726
v -0.269648 -0.165671 -0.072940
v -0.271196 -0.164781 -0.068655
v -0.270306 -0.165671 -0.068590
v -0.219371 -0.153775 0.131449
v -0.219155 -0.152885 0.130585
v -0.173864 -0.153775 0.140632
v -0.173728 -0.152885 0.139752
v -0.173864 -0.164781 0.140632
v -0.173728 -0.165671 0.139752
v -0.219371 -0.164781 0.131449
v -0.219155 -0.165671 0.130585
v -0.110784 -0.153775 0.147381
v -0.110705 -0.152885 0.146494
v -0.064479 -0.153775 0.150722
v -0.064431 -0.152885 0.149833
v -0.064479 -0.164781 0.150722
v -0.064431 -0.165671 0.149833
v -0.110784 -0.164781 0.147381
v -0.110705 -0.165671 0.146494
v -0.017523 -0.153775 0.152482
v -0.017506 -0.152885 0.151592
v 0.028902 -0.153775 0.152482
v 0.028886 -0.152885 0.151592
v 0.028902 -0.164781 0.152482
v 0.028886 -0.165671 0.151592
v -0.017523 -0.164781 0.152482
v -0.017506 -0.165671 0.151592
v 0.075857 -0.153775 0.150722
v 0.075807 -0.152885 0.149833
v 0.122066 -0.152885 0.146343
v 0.122150 -0.153775 0.147230
v 0.075857 -0.164781 0.150722
v 0.075807 -0.165671 0.149833
v 0.122150 -0.164781 0.147230
v 0.122066 -0.165671 0.146343
v -0.250612 -0.152885 0.101718
v -0.249774 -0.153779 0.101607
v -0.249772 -0.153775 0.103953
v -0.250614 -0.152885 0.104401
v -0.249774 -0.164777 0.101593
v -0.250612 -0.165671 0.101704
v -0.250614 -0.165671 0.104401
v -0.249772 -0.164781 0.103953
v -0.246879 -0.153775 0.105725
v -0.247232 -0.152885 0.106473
v -0.247232 -0.165671 0.106473
v -0.246879 -0.164781 0.105725
v -0.250436 -0.153775 -0.057442
v -0.251278 -0.152885 -0.057501
v -0.251042 -0.152885 -0.059014
v -0.250303 -0.153775 -0.058295
v -0.251278 -0.165671 -0.057501
v -0.250436 -0.164781 -0.057442
v -0.250303 -0.164781 -0.058295
v -0.251042 -0.165671 -0.059014
v -0.249123 -0.164781 -0.058460
v -0.249184 -0.165671 -0.059274
v -0.249184 -0.152885 -0.059274
v -0.249123 -0.153775 -0.058460
v -0.163988 -0.153775 0.125807
v -0.164117 -0.152885 0.126612
v -0.206057 -0.152885 0.118427
v -0.205853 -0.153775 0.117637
v -0.164117 -0.165671 0.126612
v -0.163989 -0.164781 0.125807
v -0.205853 -0.164781 0.117637
v -0.206057 -0.165671 0.118427
v -0.062874 -0.153775 0.134830
v -0.062920 -0.152885 0.135643
v -0.105820 -0.152885 0.132647
v -0.105745 -0.153775 0.131836
v -0.062757 -0.165671 0.135651
v -0.062711 -0.164782 0.134838
v -0.105582 -0.164782 0.131850
v -0.105657 -0.165671 0.132661
v 0.023558 -0.153775 0.136412
v 0.023574 -0.152885 0.137226
v -0.019427 -0.152885 0.137223
v -0.019411 -0.153775 0.136409
v 0.023751 -0.165671 0.137223
v 0.023735 -0.164782 0.136409
v -0.019234 -0.164782 0.136412
v -0.019250 -0.165671 0.137226
v 0.109863 -0.153775 0.131717
v 0.109942 -0.152885 0.132528
v 0.067065 -0.152885 0.135653
v 0.067017 -0.153775 0.134839
v 0.110120 -0.165671 0.132512
v 0.110041 -0.164782 0.131701
v 0.067196 -0.164782 0.134830
v 0.067243 -0.165671 0.135643
v 0.182639 -0.153775 -0.073091
v 0.180295 -0.152885 -0.072409
v 0.176679 -0.152885 -0.072288
v 0.176856 -0.153775 -0.073178
v 0.176856 -0.164781 -0.073178
v 0.176679 -0.165671 -0.072288
v 0.182639 -0.164781 -0.073091
v 0.181958 -0.165671 -0.072409
v 0.182683 -0.153775 -0.068972
v 0.181793 -0.152885 -0.068795
v 0.181793 -0.165671 -0.068795
v 0.182683 -0.164781 -0.068972
v 0.156581 -0.165671 -0.059533
v 0.156414 -0.164781 -0.058718
v 0.160954 -0.165671 -0.057783
v 0.160310 -0.164781 -0.057160
v 0.161924 -0.164781 -0.053392
v 0.162766 -0.165671 -0.053554
v 0.182628 -0.153775 0.138951
v 0.181918 -0.152885 0.138316
v 0.181793 -0.152885 0.134669
v 0.182683 -0.153775 0.134833
v 0.182683 -0.164781 0.134833
v 0.181793 -0.165671 0.134669
v 0.182628 -0.164781 0.138951
v 0.181918 -0.165671 0.138316
v 0.178714 -0.153775 0.139878
v 0.176934 -0.152885 0.139012
v 0.176934 -0.165671 0.139012
v 0.177197 -0.164781 0.139878
v 0.162766 -0.165671 0.121098
v 0.161924 -0.164781 0.120948
v 0.161111 -0.165671 0.125295
v 0.160439 -0.164781 0.124715
v 0.156737 -0.164781 0.126568
v 0.156986 -0.165671 0.127360
v 0.160954 -0.152885 -0.057783
v 0.160310 -0.153775 -0.057160
v 0.162766 -0.152885 -0.053554
v 0.161924 -0.153775 -0.053392
v 0.156414 -0.153775 -0.058718
v 0.156581 -0.152885 -0.059533
v 0.161111 -0.152885 0.125295
v 0.160439 -0.153775 0.124715
v 0.156986 -0.152885 0.127360
v 0.156736 -0.153775 0.126568
v 0.161924 -0.153775 0.120948
v 0.162766 -0.152885 0.121098
v 0.161924 -0.164781 0.033909
v 0.162766 -0.165671 0.033900
v 0.162766 -0.152885 0.033900
v 0.161924 -0.153775 0.033909
v 0.182683 -0.153775 0.033353
v 0.181793 -0.152885 0.033363
v 0.181793 -0.165671 0.033363
v 0.182683 -0.164781 0.033353
v -0.296275 -0.123849 0.159518
v -0.294672 -0.123849 0.166078
v -0.296824 -0.126153 0.171909
v -0.297406 -0.131768 0.174447
v -0.303006 -0.131681 0.172177
v -0.305325 -0.131598 0.166697
v -0.303113 -0.126060 0.159839
v -0.296938 -0.123849 0.143658
v -0.295199 -0.123849 -0.124670
v -0.296945 -0.123849 -0.116544
v -0.302999 -0.126155 -0.124909
v -0.305325 -0.131764 -0.128502
v -0.303054 -0.131682 -0.134099
v -0.297570 -0.131604 -0.136417
v -0.295660 -0.126122 -0.133962
v -0.290983 -0.123849 -0.128039
v -0.260588 -0.133906 0.116554
v -0.262596 -0.123849 0.122047
v -0.268909 -0.123849 0.118629
v -0.271328 -0.123849 0.113880
v -0.266550 -0.133906 0.112778
v -0.261227 -0.133906 -0.072536
v -0.267255 -0.133906 -0.066788
v -0.272098 -0.123849 -0.069886
v -0.269642 -0.123849 -0.075348
v -0.263669 -0.123849 -0.077634
v -0.301054 -0.126115 0.168470
v -0.300761 -0.126139 -0.131358
v -0.266501 -0.133906 -0.071771
v 0.182738 -0.123849 0.144327
v 0.182738 -0.133906 0.138535
v 0.182738 -0.131828 0.174447
v 0.182738 -0.123849 -0.128153
v 0.182738 -0.123849 0.166188
v 0.182738 -0.126177 0.171974
v 0.182738 -0.131726 -0.136417
v 0.182738 -0.126157 -0.133996
v 0.182738 -0.123849 -0.078161
v 0.182885 -0.133906 -0.072830
v -0.296275 -0.170794 0.159518
v -0.294672 -0.170794 0.166078
v -0.296824 -0.168489 0.171909
v -0.297406 -0.162874 0.174447
v -0.303006 -0.162961 0.172177
v -0.305325 -0.163044 0.166697
v -0.303113 -0.168582 0.159839
v -0.296938 -0.170794 0.143658
v -0.295199 -0.170794 -0.124670
v -0.296945 -0.170794 -0.116544
v -0.302999 -0.168487 -0.124909
v -0.305325 -0.162879 -0.128502
v -0.303054 -0.162960 -0.134099
v -0.297570 -0.163039 -0.136417
v -0.295660 -0.168520 -0.133962
v -0.290983 -0.170794 -0.128039
v -0.260588 -0.160736 0.116554
v -0.262596 -0.170794 0.122047
v -0.268909 -0.170794 0.118629
v -0.271328 -0.170794 0.113880
v -0.266550 -0.160736 0.112778
v -0.261227 -0.160736 -0.072536
v -0.267255 -0.160736 -0.066788
v -0.272098 -0.170794 -0.069886
v -0.269642 -0.170794 -0.075348
v -0.263669 -0.170794 -0.077634
v -0.301054 -0.168527 0.168470
v -0.300761 -0.168504 -0.131358
v -0.266501 -0.160736 -0.071771
v 0.182738 -0.170794 0.144327
v 0.182738 -0.160736 0.138535
v 0.182738 -0.162814 0.174447
v 0.182738 -0.170794 -0.128153
v 0.182738 -0.170794 0.166188
v 0.182738 -0.168466 0.171974
v 0.182738 -0.162916 -0.136417
v 0.182738 -0.168485 -0.133996
v 0.182738 -0.170794 -0.078161
v 0.182738 -0.160736 -0.072830
v 0.178741 -0.133906 -0.072825
v 0.178741 -0.123849 -0.128151
v 0.178741 -0.123849 0.145058
v 0.178741 -0.131832 0.174447
v 0.178741 -0.133906 0.138590
v 0.178741 -0.123849 0.166195
v 0.178741 -0.126178 0.171978
v 0.178741 -0.131725 -0.136417
v 0.178741 -0.126157 -0.133995
v 0.178741 -0.123849 -0.078153
v 0.178741 -0.162918 -0.136417
v 0.178741 -0.170794 0.145058
v 0.178741 -0.162810 0.174447
v 0.178741 -0.170794 -0.128151
v 0.178741 -0.160736 0.138590
v 0.178741 -0.170794 0.166195
v 0.178741 -0.168464 0.171978
v 0.178741 -0.168486 -0.133995
v 0.178741 -0.170794 -0.078153
v 0.178741 -0.160736 -0.072825
v 0.182738 -0.123849 0.033449
v 0.178741 -0.123849 0.033449
v 0.182738 -0.133906 0.033449
v 0.182738 -0.160736 0.033449
v 0.178741 -0.133906 0.033449
v 0.178741 -0.160736 0.033449
v 0.027632 -0.131914 0.174447
v -0.017987 -0.131914 0.174447
v -0.017987 -0.126210 0.172067
v 0.027632 -0.126210 0.172067
v -0.017987 -0.123849 0.166345
v 0.027632 -0.123849 0.166345
v -0.172571 -0.123849 0.144507
v -0.217637 -0.123849 0.135455
v -0.216330 -0.133906 0.129841
v -0.171613 -0.133906 0.138864
v -0.064432 -0.123849 0.154484
v -0.110147 -0.123849 0.151185
v -0.109629 -0.133906 0.145496
v -0.064128 -0.133906 0.148779
v -0.017987 -0.123849 0.156225
v 0.027632 -0.123849 0.156225
v -0.017987 -0.133906 0.150508
v 0.027632 -0.133906 0.150508
v -0.063689 -0.123849 0.166299
v -0.109358 -0.123849 0.166253
v -0.063714 -0.126200 0.172040
v -0.109333 -0.126190 0.172013
v -0.063714 -0.131889 0.174447
v -0.109333 -0.131864 0.174447
v -0.218933 -0.123849 0.166144
v -0.173301 -0.123849 0.166189
v -0.173308 -0.126177 0.171975
v -0.218927 -0.126167 0.171948
v -0.173308 -0.131829 0.174447
v -0.218927 -0.131804 0.174447
v 0.119795 -0.123849 0.151235
v 0.074079 -0.123849 0.154484
v 0.073771 -0.133906 0.148779
v 0.119260 -0.133906 0.145347
v 0.073334 -0.123849 0.166299
v 0.119002 -0.123849 0.166254
v 0.073359 -0.126200 0.172040
v 0.118978 -0.126190 0.172013
v 0.118978 -0.131864 0.174447
v 0.073359 -0.131889 0.174447
v -0.017987 -0.162728 0.174447
v 0.027632 -0.162728 0.174447
v -0.017987 -0.168432 0.172067
v 0.027632 -0.168432 0.172067
v -0.017987 -0.170794 0.166345
v 0.027632 -0.170794 0.166345
v -0.217637 -0.170794 0.135455
v -0.172571 -0.170794 0.144507
v -0.171613 -0.160736 0.138864
v -0.216330 -0.160736 0.129841
v -0.110147 -0.170794 0.151185
v -0.064432 -0.170794 0.154484
v -0.064128 -0.160736 0.148779
v -0.109629 -0.160736 0.145496
v -0.017987 -0.170794 0.156225
v 0.027632 -0.170794 0.156225
v 0.027632 -0.160736 0.150508
v -0.017987 -0.160736 0.150508
v -0.063689 -0.170794 0.166299
v -0.109358 -0.170794 0.166253
v -0.063714 -0.168442 0.172040
v -0.109333 -0.168452 0.172013
v -0.109333 -0.162778 0.174447
v -0.063714 -0.162753 0.174447
v -0.173301 -0.170794 0.166189
v -0.218933 -0.170794 0.166144
v -0.218927 -0.168475 0.171948
v -0.173308 -0.168465 0.171975
v -0.218927 -0.162838 0.174447
v -0.173308 -0.162813 0.174447
v 0.074079 -0.170794 0.154484
v 0.119795 -0.170794 0.151235
v 0.073771 -0.160736 0.148779
v 0.119260 -0.160736 0.145347
v 0.073334 -0.170794 0.166299
v 0.119002 -0.170794 0.166254
v 0.073359 -0.168442 0.172040
v 0.118978 -0.168452 0.172013
v 0.073359 -0.162753 0.174447
v 0.118978 -0.162778 0.174447
v -0.266553 -0.160736 0.107465
v -0.266553 -0.133906 0.107465
v 0.175916 -0.116166 0.152100
v 0.180609 -0.116166 0.152100
v 0.177414 -0.107358 0.147214
v 0.179110 -0.107358 0.147214
v 0.177414 -0.105997 0.141779
v 0.179110 -0.105997 0.141779
v 0.175916 -0.125008 0.151188
v 0.180609 -0.125008 0.151188
v 0.180609 -0.122715 0.156451
v 0.175916 -0.122715 0.156451
v 0.177414 -0.106253 0.134377
v 0.179110 -0.106253 0.134377
v 0.180609 -0.115716 0.131996
v 0.175916 -0.115716 0.131996
v 0.179978 -0.109424 0.149100
v 0.180609 -0.112834 0.150623
v 0.175916 -0.112834 0.150623
v 0.176546 -0.109424 0.149100
v 0.175916 -0.113059 0.142208
v 0.176447 -0.108765 0.141786
v 0.175916 -0.112920 0.131098
v 0.176437 -0.108688 0.132064
v 0.180609 -0.112920 0.131098
v 0.180087 -0.108688 0.132064
v 0.180609 -0.113029 0.142209
v 0.180087 -0.108793 0.141789
v 0.175916 -0.116732 0.141985
v 0.175916 -0.117572 0.146397
v 0.180609 -0.116732 0.141985
v 0.180609 -0.117572 0.146397
v 0.175916 -0.133168 0.158775
v 0.180609 -0.133168 0.158775
v 0.180609 -0.129361 0.162709
v 0.175916 -0.129361 0.162709
v 0.175916 -0.116166 -0.099844
v 0.180609 -0.116166 -0.099844
v 0.177414 -0.107358 -0.104731
v 0.179110 -0.107358 -0.104731
v 0.177414 -0.105997 -0.110166
v 0.179110 -0.105997 -0.110166
v 0.175916 -0.125008 -0.100757
v 0.180609 -0.125008 -0.100757
v 0.180609 -0.122715 -0.095494
v 0.175916 -0.122715 -0.095494
v 0.177414 -0.106253 -0.117568
v 0.179110 -0.106253 -0.117568
v 0.180609 -0.115716 -0.119949
v 0.175916 -0.115716 -0.119949
v 0.179978 -0.109424 -0.102845
v 0.180609 -0.112834 -0.101322
v 0.175916 -0.112834 -0.101322
v 0.176546 -0.109424 -0.102845
v 0.175916 -0.113059 -0.109737
v 0.176447 -0.108765 -0.110158
v 0.175916 -0.112920 -0.120847
v 0.176437 -0.108688 -0.119881
v 0.180609 -0.112920 -0.120847
v 0.180087 -0.108688 -0.119881
v 0.180609 -0.113029 -0.109736
v 0.180087 -0.108793 -0.110155
v 0.175916 -0.116732 -0.109960
v 0.175916 -0.117572 -0.105547
v 0.180609 -0.116732 -0.109960
v 0.180609 -0.117572 -0.105547
v 0.175916 -0.133168 -0.093170
v 0.180609 -0.133168 -0.093170
v 0.180609 -0.129361 -0.089236
v 0.175916 -0.129361 -0.089236
v -0.284488 -0.126532 -0.100485
v -0.284072 -0.123435 -0.100485
v -0.284873 -0.120414 -0.100485
v -0.286769 -0.117930 -0.100485
v -0.289471 -0.116361 -0.100485
v -0.292568 -0.115945 -0.100485
v -0.295588 -0.116746 -0.100485
v -0.284488 -0.126532 -0.098450
v -0.284072 -0.123435 -0.098450
v -0.284873 -0.120414 -0.098450
v -0.286769 -0.117930 -0.098450
v -0.289471 -0.116361 -0.098450
v -0.292568 -0.115945 -0.098450
v -0.295588 -0.116746 -0.098450
v -0.290014 -0.124999 -0.100485
v -0.289884 -0.124027 -0.100485
v -0.290135 -0.123079 -0.100485
v -0.290730 -0.122300 -0.100485
v -0.291578 -0.121808 -0.100485
v -0.292549 -0.121678 -0.100485
v -0.293497 -0.121929 -0.100485
v -0.290014 -0.124999 -0.098450
v -0.289884 -0.124027 -0.098450
v -0.290135 -0.123079 -0.098450
v -0.290730 -0.122300 -0.098450
v -0.291578 -0.121808 -0.098450
v -0.292549 -0.121678 -0.098450
v -0.293497 -0.121929 -0.098450
v -0.284488 -0.126532 0.138205
v -0.284072 -0.123435 0.138205
v -0.284873 -0.120414 0.138205
v -0.286769 -0.117930 0.138205
v -0.289471 -0.116361 0.138205
v -0.292568 -0.115945 0.138205
v -0.295588 -0.116746 0.138205
v -0.284488 -0.126532 0.140258
v -0.284072 -0.123435 0.140258
v -0.284873 -0.120414 0.140258
v -0.286769 -0.117930 0.140258
v -0.289471 -0.116361 0.140258
v -0.292568 -0.115945 0.140258
v -0.295588 -0.116746 0.140258
v -0.290014 -0.124999 0.138205
v -0.289884 -0.124027 0.138205
v -0.290135 -0.123079 0.138205
v -0.290730 -0.122300 0.138205
v -0.291578 -0.121808 0.138205
v -0.292549 -0.121678 0.138205
v -0.293497 -0.121929 0.138205
v -0.290014 -0.124999 0.140258
v -0.289884 -0.124027 0.140258
v -0.290135 -0.123079 0.140258
v -0.290730 -0.122300 0.140258
v -0.291578 -0.121808 0.140258
v -0.292549 -0.121678 0.140258
v -0.293497 -0.121929 0.140258
vn -0.0000 -0.0000 1.0000
vn 0.9911 -0.1331 -0.0000
vn 0.9980 0.0628 -0.0000
vn 0.8980 0.4400 -0.0000
vn 0.6612 0.7502 -0.0000
vn 0.3239 0.9461 -0.0000
vn -0.0628 0.9980 -0.0000
vn -0.2564 0.9666 -0.0000
vn -0.0000 -0.0000 -1.0000
vn -0.2673 -0.9636 -0.0000
vn -0.9911 0.1331 -0.0000
vn -0.9980 -0.0629 -0.0000
vn -0.8980 -0.4399 -0.0000
vn -0.6610 -0.7504 -0.0000
vn -0.3239 -0.9461 -0.0000
vn 0.0628 -0.9980 -0.0000
vn 0.2559 -0.9667 -0.0000
vn -0.9274 -0.3741 -0.0000
vn -0.9911 0.1330 -0.0000
vn -0.8980 -0.4400 -0.0000
vn -0.6613 -0.7501 -0.0000
vn -0.3242 -0.9460 -0.0000
vn 0.2560 -0.9667 -0.0000
vt 0.000000 0.000000
vt 1.000000 0.000000
vt 1.000000 1.000000
vt 0.000000 1.000000
vt -0.158383 1.165514
vt -0.337084 1.165514
vt -0.337084 0.893610
vt -0.158383 0.893610
vt -0.337084 0.628460
vt -0.158383 0.628460
vt -0.337084 0.410386
vt -0.158383 0.410386
vt -0.337084 0.272627
vt -0.158383 0.272627
vt -0.726578 0.272627
vt -0.547877 0.272627
vt -0.547877 0.544515
vt -0.726578 0.544515
vt -0.547877 0.809675
vt -0.726578 0.809675
vt -0.747553 -0.711814
vt -0.475651 -0.748309
vt -0.527659 -0.238087
vt -0.612981 -0.226637
vt -0.210499 -0.677997
vt -0.444474 -0.216025
vt 0.007572 -0.511560
vt -0.376076 -0.163823
vt 0.145332 -0.274353
vt -0.332834 -0.089392
vt 0.181836 -0.002466
vt -0.321403 -0.004095
vt 0.111529 0.262695
vt -0.343444 0.079102
vt 0.856121 -0.748309
vt 1.128025 -0.711814
vt 0.993452 -0.226637
vt 0.908129 -0.238087
vt 0.268941 0.262695
vt 0.198636 -0.002466
vt 0.701873 -0.004095
vt 0.723914 0.079102
vt 0.235138 -0.274353
vt 0.713305 -0.089392
vt 0.372898 -0.511560
vt 0.756546 -0.163823
vt 0.590971 -0.677997
vt 0.824944 -0.216025
vt -0.369526 1.175445
vt -0.369525 1.660622
vt -0.548227 1.660622
vt -0.548227 1.175445
vt 0.416137 1.293563
vt 0.416137 1.378886
vt 0.237434 1.378886
vt 0.237434 1.293563
vt 0.416137 1.462071
vt 0.237434 1.462071
vt 0.416137 1.530469
vt 0.237434 1.530469
vt 0.416137 1.573710
vt 0.237434 1.573710
vt 0.983051 1.472266
vt 0.897753 1.472266
vt 0.897753 1.293563
vt 0.983051 1.293563
vt 0.814556 1.472266
vt 0.814556 1.293563
vt 0.023306 1.293563
vt 0.023304 1.748536
vt -0.155397 1.748536
vt -0.155397 1.293563
vt -0.352351 1.165513
vt -0.532610 1.165513
vt -0.532610 0.893610
vt -0.352351 0.893610
vt -0.532610 0.628459
vt -0.352351 0.628459
vt -0.532610 0.410388
vt -0.352351 0.410388
vt -0.532610 0.272627
vt -0.352351 0.272627
vt -0.747553 0.819607
vt -0.567295 0.819607
vt -0.567295 1.091495
vt -0.747553 1.091495
vt -0.567295 1.356655
vt -0.747553 1.356655
vt 0.801540 0.309122
vt 1.073442 0.272627
vt 1.021434 0.782849
vt 0.936113 0.794299
vt 1.338594 0.342939
vt 1.104619 0.804911
vt 1.556665 0.509377
vt 1.173018 0.857113
vt 1.694426 0.746583
vt 1.216260 0.931544
vt 1.730929 1.018471
vt 1.227691 1.016841
vt 1.660622 1.283631
vt 1.205649 1.100038
vt 0.514369 0.272627
vt 0.786273 0.309122
vt 0.651700 0.794299
vt 0.566377 0.782849
vt -0.072811 1.283631
vt -0.143116 1.018471
vt 0.360121 1.016841
vt 0.382162 1.100038
vt -0.106614 0.746583
vt 0.371553 0.931544
vt 0.031146 0.509377
vt 0.414794 0.857113
vt 0.249219 0.342939
vt 0.483192 0.804911
vt -0.173978 1.175445
vt -0.173978 1.660622
vt -0.354237 1.660622
vt -0.354237 1.175445
vt 0.611683 1.293563
vt 0.611683 1.378884
vt 0.431425 1.378884
vt 0.431425 1.293563
vt 0.611683 1.462070
vt 0.431425 1.462070
vt 0.611683 1.530468
vt 0.431425 1.530468
vt 0.611683 1.573710
vt 0.431425 1.573710
vt 0.798760 1.473821
vt 0.713462 1.473821
vt 0.713462 1.293563
vt 0.798760 1.293563
vt 0.630265 1.473821
vt 0.630265 1.293563
vt 0.218852 1.293563
vt 0.218852 1.748536
vt 0.038594 1.748536
vt 0.038594 1.293563
s 1
usemtl M_MicrowaveDoorA2_2
f 9/1/1 10/2/1 12/3/1 11/4/1
f 466/5/2 459/6/2 460/7/3 467/8/3
f 467/8/3 460/7/3 461/9/4 468/10/4
f 468/10/4 461/9/4 462/11/5 469/12/5
f 469/12/5 462/11/5 463/13/6 470/14/6
f 470/15/6 463/16/6 464/17/7 471/18/7
f 471/18/7 464/17/7 465/19/8 472/20/8
f 466/21/1 467/22/1 481/23/1 480/24/1
f 467/22/1 468/25/1 482/26/1 481/23/1
f 468/25/1 469/27/1 483/28/1 482/26/1
f 469/27/1 470/29/1 484/30/1 483/28/1
f 470/29/1 471/31/1 485/32/1 484/30/1
f 471/31/1 472/33/1 486/34/1 485/32/1
f 460/35/9 459/36/9 473/37/9 474/38/9
f 465/39/9 464/40/9 478/41/9 479/42/9
f 464/40/9 463/43/9 477/44/9 478/41/9
f 463/43/9 462/45/9 476/46/9 477/44/9
f 462/45/9 461/47/9 475/48/9 476/46/9
f 461/47/9 460/35/9 474/38/9 475/48/9
f 466/49/10 480/50/10 473/51/10 459/52/10
f 480/53/11 481/54/12 474/55/12 473/56/11
f 481/54/12 482/57/13 475/58/13 474/55/12
f 482/57/13 483/59/14 476/60/14 475/58/13
f 483/59/14 484/61/15 477/62/15 476/60/14
f 484/63/15 485/64/16 478/65/16 477/66/15
f 485/64/16 486/67/17 479/68/17 478/65/16
f 486/69/18 472/70/18 465/71/18 479/72/18
f 494/73/2 487/74/2 488/75/3 495/76/3
f 495/76/3 488/75/3 489/77/4 496/78/4
f 496/78/4 489/77/4 490/79/5 497/80/5
f 497/80/5 490/79/5 491/81/6 498/82/6
f 498/83/6 491/84/6 492/85/7 499/86/7
f 499/86/7 492/85/7 493/87/8 500/88/8
f 494/89/1 495/90/1 509/91/1 508/92/1
f 495/90/1 496/93/1 510/94/1 509/91/1
f 496/93/1 497/95/1 511/96/1 510/94/1
f 497/95/1 498/97/1 512/98/1 511/96/1
f 498/97/1 499/99/1 513/100/1 512/98/1
f 499/99/1 500/101/1 514/102/1 513/100/1
f 488/103/9 487/104/9 501/105/9 502/106/9
f 493/107/9 492/108/9 506/109/9 507/110/9
f 492/108/9 491/111/9 505/112/9 506/109/9
f 491/111/9 490/113/9 504/114/9 505/112/9
f 490/113/9 489/115/9 503/116/9 504/114/9
f 489/115/9 488/103/9 502/106/9 503/116/9
f 494/117/10 508/118/10 501/119/10 487/120/10
f 508/121/19 509/122/12 502/123/12 501/124/19
f 509/122/12 510/125/20 503/126/20 502/123/12
f 510/125/20 511/127/21 504/128/21 503/126/20
f 511/127/21 512/129/22 505/130/22 504/128/21
f 512/131/22 513/132/16 506/133/16 505/134/22
f 513/132/16 514/135/23 507/136/23 506/133/16
f 514/137/18 500/138/18 493/139/18 507/140/18
