# Blender 4.1.0
# www.blender.org
mtllib MeshDoorwayDouble_4_0.mtl
o DoorwayDouble_4
v 0.932807 0.020752 0.977847
v 0.932807 0.020054 -1.053055
v 0.932807 -0.019945 -1.053055
v 0.932807 -0.019247 0.977847
v 0.994384 -0.059219 1.050752
v 0.994384 0.020780 1.050725
v 0.994384 0.020054 -1.053055
v 0.994384 -0.059945 -1.053055
v 0.913807 -0.059945 -1.053055
v 0.913807 -0.059251 0.948762
v 0.913807 -0.019251 0.948748
v 0.913807 -0.019945 -1.053055
v 0.985990 0.020054 -1.053055
v 0.985990 0.020777 1.040125
v 0.939413 0.020054 -1.053055
v 0.939413 0.020755 0.988367
v 0.939279 -0.026661 -1.053055
v 0.920707 -0.059247 0.962251
v 0.920707 -0.059945 -1.053055
v 0.985990 -0.059223 1.034762
v 0.985990 -0.059945 -1.053055
v 0.920707 -0.026661 -1.053055
v -0.933609 0.020752 0.977847
v -0.933609 0.020056 -1.053055
v -0.933609 -0.019943 -1.053055
v -0.933609 -0.019247 0.977847
v -0.995186 -0.059219 1.050752
v -0.995186 0.020780 1.050725
v -0.995186 0.020056 -1.053055
v -0.995186 -0.059943 -1.053055
v -0.914609 -0.059943 -1.053055
v -0.914609 -0.059251 0.948762
v -0.914609 -0.019251 0.948748
v -0.914609 -0.019943 -1.053055
v -0.986792 0.020056 -1.053055
v -0.986792 0.020777 1.040125
v -0.940215 0.020056 -1.053055
v -0.940215 0.020755 0.988367
v -0.940082 -0.026661 -1.053055
v -0.921509 -0.059247 0.962251
v -0.921509 -0.059943 -1.053055
v -0.986792 -0.059223 1.034762
v -0.986792 -0.059943 -1.053055
v -0.921509 -0.026661 -1.053055
v 0.985990 0.020777 1.040125
v 0.939413 0.020755 0.988367
v -0.940215 0.020755 0.988367
v -0.986792 0.020777 1.040125
v 0.920707 -0.059247 0.962251
v 0.985990 -0.059223 1.034762
v -0.986792 -0.059223 1.034762
v -0.921509 -0.059247 0.962251
v 0.985990 0.032058 -1.053055
v 0.985990 0.032777 1.040121
v 0.939412 0.032058 -1.053055
v 0.939413 0.032755 0.988362
v -0.940214 0.032755 0.988363
v -0.986792 0.032777 1.040120
v -0.940215 0.032058 -1.053059
v -0.986792 0.032058 -1.053059
v 0.920707 -0.071247 0.962255
v 0.985990 -0.071223 1.034766
v 0.920707 -0.071941 -1.053055
v 0.985990 -0.071941 -1.053055
v -0.986792 -0.071223 1.034766
v -0.921509 -0.071247 0.962255
v -0.986792 -0.071941 -1.053051
v -0.921509 -0.071941 -1.053051
vn -0.0000 -0.0000 -1.0000
vn -0.0000 1.0000 -0.0004
vn -0.0000 1.0000 -0.0003
vn -1.0000 -0.0000 -0.0000
vn 0.0001 1.0000 -0.0002
vn 0.0002 1.0000 -0.0003
vn -0.0001 -1.0000 0.0003
vn -0.0000 -1.0000 0.0003
vn 1.0000 -0.0000 -0.0000
vn -0.0000 -0.0004 -1.0000
vn -0.0001 1.0000 -0.0002
vn -0.0000 0.0003 1.0000
vn 0.0001 -1.0000 0.0003
vn -0.0000 -0.0001 -1.0000
vn -0.0002 1.0000 -0.0003
vn -0.0000 -0.0000 -0.0000
vn -0.0000 0.0004 1.0000
vn -0.0000 -0.0003 -1.0000
vt -9.628481 0.571307
vt -9.555496 0.623314
vt -9.555705 0.696304
vt -9.628481 0.696304
vt -9.515696 0.633807
vt -9.526477 0.623314
vt -9.526477 0.571307
vt -9.515696 0.571307
vt -9.545382 0.633807
vt -9.545382 0.696304
vt -9.641595 0.571307
vt -9.641595 0.696304
vt -10.749255 1.792739
vt -10.749255 -1.477856
vt -10.676477 -1.477856
vt -10.676477 1.711865
vt -10.915378 2.048827
vt -10.925700 2.065265
vt -10.925700 -1.124576
vt -10.915378 -1.124576
vt -9.591409 2.056218
vt -9.653908 2.056219
vt -9.652817 -1.117094
vt -9.590318 -1.117094
vt -11.198458 2.010740
vt -11.228145 2.056206
vt -11.228145 -1.117072
vt -11.198458 -1.117072
vt -9.663941 2.337240
vt -9.726442 2.337217
vt -9.725356 -0.790591
vt -9.662856 -0.790591
vt -11.300284 2.348766
vt -11.300284 -0.800113
vt -11.289504 -0.779037
vt -11.289504 2.348766
vt -9.928941 1.801783
vt -10.053939 1.801827
vt -10.055074 -1.485371
vt -9.930075 -1.485371
vt -11.050093 -1.485353
vt -11.050093 1.785244
vt -11.063208 1.801805
vt -11.063208 -1.485353
vt -10.689876 -1.158895
vt -10.587870 -1.045596
vt -10.587870 2.103332
vt -10.689876 2.103332
vt -11.384785 1.801828
vt -11.384785 -1.485372
vt -11.371669 -1.460387
vt -11.371669 1.801827
vt -9.564054 2.190460
vt -9.626554 2.190460
vt -9.626554 -0.666472
vt -9.564054 -0.666472
vt -8.341564 2.010740
vt -8.311875 2.056206
vt -9.587443 2.222954
vt -9.649940 2.222954
vt -9.649940 -0.693314
vt -9.587443 -0.693314
vt -7.998995 2.048827
vt -7.988672 2.065265
vt -7.739554 1.711866
vt -7.666775 1.792737
vt -7.967617 1.785244
vt -7.954502 1.801805
vt -9.601943 2.326771
vt -9.726942 2.326771
vt -9.726942 -0.781943
vt -9.601943 -0.781943
vt -8.276079 -1.485372
vt -8.289194 -1.460387
vt -7.607396 -1.158895
vt -7.709401 -1.045596
vt -8.421855 -0.800113
vt -8.432636 -0.779037
vt -9.509326 0.571317
vt -9.509326 0.696302
vt -9.582094 0.696302
vt -9.582303 0.623315
vt -9.622100 0.633809
vt -9.622100 0.571316
vt -9.611319 0.571316
vt -9.611319 0.623315
vt -9.592415 0.696302
vt -9.592415 0.633809
vt -9.496212 0.571317
vt -9.496212 0.696302
vt -7.739554 -1.477862
vt -7.666777 -1.477862
vt -7.998994 -1.124576
vt -7.988672 -1.124576
vt -9.949700 -1.117069
vt -9.887202 -1.117069
vt -9.886115 2.056202
vt -9.948613 2.056201
vt -8.341564 -1.117072
vt -8.311875 -1.117072
vt -9.712798 -0.790595
vt -9.650298 -0.790595
vt -9.649216 2.337222
vt -9.711716 2.337244
vt -8.421855 2.348766
vt -8.432636 2.348766
vt -9.608302 1.801833
vt -9.733301 1.801789
vt -9.732169 -1.485377
vt -9.607170 -1.485377
vt -7.967617 -1.485353
vt -7.954502 -1.485353
vt -7.607396 2.103325
vt -7.709401 2.103325
vt -8.276079 1.801827
vt -8.289194 1.801827
vt -9.062386 1.792726
vt -9.063515 -1.477850
vt -9.044758 -1.477850
vt -9.043635 1.792719
vt -9.594062 -1.124469
vt -9.595158 2.065158
vt -9.613908 2.065151
vt -9.612819 -1.124469
vt -9.639893 2.232669
vt -9.639893 -0.704186
vt -9.621143 -0.704185
vt -9.621143 2.232669
vt -9.640633 -0.770039
vt -9.640633 2.312371
vt -9.659383 2.312371
vt -9.659383 -0.770039
vt -9.620837 2.065162
vt -9.621929 -1.124466
vt -9.603176 -1.124472
vt -9.602087 2.065155
vt -9.033892 -1.477819
vt -9.035018 1.792702
vt -9.053768 1.792693
vt -9.052645 -1.477825
vt -9.726137 2.348761
vt -9.725047 -0.800114
vt -9.706304 -0.800114
vt -9.707387 2.348768
vt -9.293552 -1.158910
vt -9.292425 2.103340
vt -9.311174 2.103346
vt -9.312296 -1.158909
vt -9.649638 2.312391
vt -9.649638 -0.770058
vt -9.630888 -0.770058
vt -9.630888 2.312391
vt -9.597755 -0.676203
vt -9.597755 2.202245
vt -9.616506 2.202245
vt -9.616506 -0.676203
vt -9.320321 2.103351
vt -9.319198 -1.158920
vt -9.300451 -1.158913
vt -9.301571 2.103356
vt -9.697647 -0.800127
vt -9.696559 2.348776
vt -9.715308 2.348782
vt -9.716393 -0.800120
vt -9.555704 0.715061
vt -9.628480 0.715061
vt -9.628481 0.552564
vt -9.526477 0.552564
vt -9.582096 0.715053
vt -9.509327 0.715053
vt -9.509326 0.552572
vt -9.611319 0.552572
s 1
usemtl M_DoorwayDouble_4_0
f 21/1/1 17/2/1 15/3/1 13/4/1
f 12/5/1 22/6/1 19/7/1 9/8/1
f 15/3/1 17/2/1 3/9/1 2/10/1
f 8/11/1 21/1/1 13/4/1 7/12/1
f 54/13/2 53/14/3 55/15/3 56/16/2
f 1/17/3 16/18/3 15/19/3 2/20/3
f 4/21/4 1/22/4 2/23/4 3/24/4
f 11/25/5 4/26/5 3/27/6 12/28/6
f 10/29/4 11/30/4 12/31/4 9/32/4
f 19/33/7 18/34/8 10/35/7 9/36/7
f 6/37/9 5/38/9 8/39/9 7/40/9
f 13/41/3 14/42/3 6/43/3 7/44/3
f 62/45/8 61/46/8 63/47/8 64/48/8
f 8/49/7 5/50/8 20/51/7 21/52/7
f 22/6/1 12/5/1 3/9/1 17/2/1
f 21/1/1 19/7/1 22/6/1 17/2/1
f 11/53/10 10/54/10 32/55/10 33/56/10
f 4/26/5 11/25/5 33/57/11 26/58/11
f 1/59/1 4/60/1 26/61/1 23/62/1
f 16/18/3 1/17/3 23/63/3 38/64/3
f 54/13/2 56/16/2 57/65/2 58/66/2
f 6/43/3 14/42/3 36/67/3 28/68/3
f 5/69/12 6/70/12 28/71/12 27/72/12
f 20/51/7 5/50/8 27/73/8 42/74/13
f 61/46/8 62/45/8 65/75/8 66/76/8
f 10/35/7 18/34/8 40/77/8 32/78/13
f 43/79/14 35/80/14 37/81/14 39/82/1
f 34/83/1 31/84/1 41/85/14 44/86/1
f 37/81/14 24/87/1 25/88/1 39/82/1
f 30/89/1 29/90/1 35/80/14 43/79/14
f 58/66/2 57/65/2 59/91/3 60/92/3
f 38/64/3 23/63/3 24/93/3 37/94/3
f 25/95/9 24/96/9 23/97/9 26/98/9
f 33/57/11 34/99/15 25/100/15 26/58/11
f 31/101/9 34/102/9 33/103/9 32/104/9
f 40/77/8 41/105/13 31/106/13 32/78/13
f 27/107/4 28/108/4 29/109/4 30/110/4
f 28/68/3 36/67/3 35/111/3 29/112/3
f 65/75/8 67/113/8 68/114/8 66/76/8
f 27/73/8 30/115/13 43/116/13 42/74/13
f 44/86/1 39/82/1 25/88/1 34/83/1
f 43/79/14 39/82/1 44/86/1 41/85/14
f 14/116/16 13/116/16 45/116/16
f 15/116/16 16/116/16 46/116/16
f 16/116/16 38/116/16 47/116/16 46/116/16
f 36/116/16 14/116/16 45/116/16 48/116/16
f 38/116/16 37/116/16 47/116/16
f 35/116/16 36/116/16 48/116/16
f 18/116/16 19/116/16 49/116/16
f 21/116/16 20/116/16 50/116/16
f 20/116/16 42/116/16 51/116/16 50/116/16
f 40/116/16 18/116/16 49/116/16 52/116/16
f 42/116/16 43/116/16 51/116/16
f 41/116/16 40/116/16 52/116/16
f 45/117/9 13/118/9 53/119/9 54/120/9
f 15/121/4 46/122/4 56/123/4 55/124/4
f 46/125/10 47/126/10 57/127/10 56/128/10
f 48/129/17 45/130/17 54/131/17 58/132/17
f 47/133/9 37/134/9 59/135/9 57/136/9
f 35/137/4 48/138/4 58/139/4 60/140/4
f 49/141/4 19/142/4 63/143/4 61/144/4
f 21/145/9 50/146/9 62/147/9 64/148/9
f 50/149/12 51/150/12 65/151/12 62/152/12
f 52/153/18 49/154/18 61/155/18 66/156/18
f 51/157/4 43/158/4 67/159/4 65/160/4
f 41/161/9 52/162/9 66/163/9 68/164/9
f 13/4/1 15/3/1 55/165/1 53/166/1
f 19/7/1 21/1/1 64/167/1 63/168/1
f 59/169/18 37/81/14 35/80/14 60/170/18
f 67/171/18 43/79/14 41/85/14 68/172/18
