# Blender 4.1.1
# www.blender.org
mtllib DrawermeshSideTableDrawer_317_1_GeomSubset_1.mtl
o DrawermeshSideTableDrawer_317_1_GeomSubset_1
v 0.130332 0.168537 0.188060
v 0.130311 0.168535 0.127019
v 0.130311 -0.165947 0.127019
v 0.130332 -0.165945 0.188060
v 0.138969 0.177173 0.188057
v 0.138969 -0.174583 0.188057
v 0.138945 -0.174584 0.118584
v 0.138945 0.177173 0.118584
v -0.126244 0.168537 0.124598
v -0.126244 -0.165945 0.124598
v 0.127801 -0.165947 0.124511
v 0.127801 0.168535 0.124511
v 0.136461 -0.177092 0.188058
v -0.134860 -0.177092 0.188152
v -0.134884 -0.177093 0.118679
v 0.136436 -0.177092 0.118585
v -0.134860 0.179683 0.188152
v 0.136461 0.179683 0.188058
v 0.136436 0.179683 0.118585
v -0.134884 0.179681 0.118679
v -0.137369 -0.174584 0.188152
v -0.137369 0.177173 0.188152
v -0.137393 0.177173 0.118680
v -0.137393 -0.174583 0.118680
v -0.128732 -0.165947 0.188149
v -0.128752 -0.165947 0.127108
v -0.128752 0.168535 0.127108
v -0.128732 0.168535 0.188149
v 0.129294 0.173553 0.190569
v 0.132913 0.177173 0.190568
v -0.131311 0.177173 0.190659
v -0.127691 0.173553 0.190658
v 0.136461 0.173624 0.190567
v 0.132842 0.170005 0.190568
v 0.132842 -0.167416 0.190568
v 0.136461 -0.171035 0.190567
v -0.131239 0.170005 0.190659
v -0.134859 0.173625 0.190661
v -0.134859 -0.171035 0.190661
v -0.131239 -0.167414 0.190659
v -0.127692 -0.170965 0.190658
v -0.131311 -0.174584 0.190659
v 0.132913 -0.174584 0.190568
v 0.129293 -0.170965 0.190569
v 0.127823 -0.168455 0.188061
v 0.127802 -0.168455 0.127020
v -0.126243 -0.168455 0.127107
v -0.126223 -0.168455 0.188149
v -0.134885 0.177173 0.116170
v 0.136436 0.177173 0.116076
v 0.136436 -0.174584 0.116076
v -0.134885 -0.174584 0.116170
v -0.126223 0.171045 0.188149
v 0.127823 0.171045 0.188061
v 0.127802 0.171045 0.127020
v -0.126243 0.171045 0.127107
v -0.008819 -0.189803 0.155743
v -0.007521 -0.191756 0.155743
v -0.006763 -0.191756 0.157570
v -0.007681 -0.189803 0.158488
v -0.008475 -0.185749 0.155771
v -0.008476 -0.185749 0.150972
v -0.008820 -0.189804 0.151000
v -0.007457 -0.185749 0.158225
v -0.005554 -0.182559 0.155770
v -0.005393 -0.182560 0.156159
v -0.004062 -0.185750 0.161617
v -0.004325 -0.189803 0.161841
v -0.005556 -0.182559 0.150971
v -0.005395 -0.182559 0.150581
v -0.007460 -0.185749 0.148517
v -0.003835 -0.178134 0.155688
v -0.003836 -0.178134 0.151052
v -0.003835 -0.176870 0.155688
v -0.003836 -0.176870 0.151052
v -0.007685 -0.189804 0.148254
v -0.007522 -0.191756 0.150999
v -0.006766 -0.191757 0.149172
v -0.003408 -0.191757 0.160923
v 0.003163 -0.189804 0.162975
v 0.003163 -0.191757 0.161677
v 0.004990 -0.191756 0.160920
v 0.005908 -0.189803 0.161837
v 0.003191 -0.185750 0.162631
v -0.001581 -0.189804 0.162977
v -0.001608 -0.185749 0.162632
v -0.001998 -0.182560 0.159551
v -0.001609 -0.182559 0.159712
v -0.001581 -0.191757 0.161679
v 0.005645 -0.185749 0.161613
v 0.003190 -0.182559 0.159711
v 0.003579 -0.182560 0.159549
v 0.003108 -0.178134 0.157991
v -0.001528 -0.178134 0.157992
v 0.003108 -0.176872 0.157991
v -0.001528 -0.176870 0.157992
v 0.002420 -0.176870 0.158276
v 0.002420 -0.178134 0.158276
v -0.004120 -0.176870 0.155000
v -0.004120 -0.178134 0.155000
v -0.001613 -0.182559 0.147026
v -0.001614 -0.185749 0.144105
v -0.004068 -0.185749 0.145123
v -0.002002 -0.182559 0.147187
v 0.003184 -0.185749 0.144104
v 0.003157 -0.189804 0.143759
v -0.001587 -0.189804 0.143761
v 0.005639 -0.185749 0.145119
v 0.003575 -0.182559 0.147185
v 0.003186 -0.182559 0.147024
v 0.003105 -0.178134 0.148744
v -0.001531 -0.178134 0.148746
v -0.001531 -0.176870 0.148746
v 0.003105 -0.176870 0.148744
v 0.005902 -0.189804 0.144895
v 0.003157 -0.191756 0.145057
v 0.004985 -0.191756 0.145814
v -0.004331 -0.189803 0.144899
v -0.003413 -0.191756 0.145816
v -0.001586 -0.191756 0.145059
v 0.008340 -0.191757 0.149167
v 0.009257 -0.189803 0.148249
v 0.002416 -0.176870 0.148459
v 0.002416 -0.178134 0.148459
v -0.004120 -0.176870 0.151740
v -0.004121 -0.178134 0.151740
v 0.005413 -0.176872 0.155685
v 0.005697 -0.176870 0.154997
v 0.005697 -0.178134 0.154997
v 0.005412 -0.178134 0.155685
v 0.007133 -0.182560 0.155765
v 0.006972 -0.182560 0.156155
v 0.007131 -0.182559 0.150966
v 0.010051 -0.185749 0.150965
v 0.009033 -0.185749 0.148512
v 0.006970 -0.182559 0.150577
v 0.010053 -0.185749 0.155765
v 0.010397 -0.189804 0.155737
v 0.010395 -0.189803 0.150993
v 0.009037 -0.185750 0.158219
v 0.005411 -0.178134 0.151049
v 0.009261 -0.189803 0.158482
v 0.009099 -0.191757 0.155737
v 0.008343 -0.191756 0.157564
v 0.009097 -0.191756 0.150993
v 0.005411 -0.176870 0.151049
v 0.005696 -0.176870 0.151736
v 0.005696 -0.178134 0.151736
v -0.000840 -0.176870 0.158277
v -0.000840 -0.178134 0.158277
v 0.004433 -0.193894 0.149721
v 0.005944 -0.193894 0.153366
v 0.004435 -0.193894 0.157013
v 0.000786 -0.193894 0.148212
v 0.000790 -0.193894 0.158524
v -0.002859 -0.193894 0.149724
v -0.002856 -0.193894 0.157015
v -0.004367 -0.193894 0.153370
v -0.000844 -0.176870 0.148460
v -0.000844 -0.178134 0.148460
vn 0.5173 0.7415 -0.4272
vn 0.9203 0.3001 -0.2510
vn 0.8275 0.2997 -0.4749
vn 0.6676 0.7417 -0.0644
vn 0.8098 0.2413 -0.5348
vn 0.9111 -0.3775 -0.1653
vn 0.7610 -0.3774 -0.5277
vn 0.9007 -0.3942 0.1827
vn 0.9585 0.2239 -0.1765
vn 0.9585 0.2240 0.1763
vn 0.9006 -0.3943 -0.1830
vn 0.9507 0.2413 -0.1949
vn 0.5954 -0.5782 -0.5577
vn 0.5569 -0.8299 -0.0347
vn 0.4166 -0.8292 -0.3725
vn 0.7217 -0.6922 0.0042
vn 0.4609 -0.8697 0.1767
vn 0.4610 -0.8697 -0.1764
vn 0.8137 -0.5802 -0.0355
vn 0.8024 0.2237 -0.5533
vn 0.5073 -0.3943 -0.7663
vn 0.5528 0.2237 -0.8027
vn 0.7659 -0.3944 -0.5078
vn 0.5450 0.7879 -0.2867
vn 0.5411 0.3608 -0.7596
vn 0.2859 0.7882 -0.5450
vn 0.7218 -0.6921 -0.0047
vn 0.8152 -0.5784 0.0301
vn 0.5980 -0.5783 0.5549
vn 0.4173 -0.8292 0.3720
vn 0.5580 -0.8292 0.0323
vn 0.9509 0.2411 0.1941
vn 0.8102 0.2410 0.5343
vn 0.7612 -0.3777 0.5271
vn 0.9997 -0.0235 -0.0047
vn 0.2600 -0.1487 -0.9541
vn 0.9997 -0.0235 0.0037
vn 0.2606 -0.1488 0.9539
vn 0.1948 0.0001 -0.9808
vn 0.2923 0.0659 -0.9541
vn 0.2928 0.0661 0.9539
vn 0.1948 -0.0001 -0.9808
vn 0.2928 0.0658 0.9539
vn 0.1954 -0.0000 0.9807
vn 0.9112 -0.3777 0.1645
vn 0.6678 0.7416 0.0636
vn 0.5177 0.7417 0.4263
vn 0.8282 0.3003 0.4732
vn 0.9207 0.3001 0.2494
vn 0.9196 0.3611 -0.1547
vn 0.5878 0.7880 -0.1831
vn 0.5878 0.7881 0.1826
vn 0.9197 0.3612 0.1538
vn 0.7595 0.3604 -0.5415
vn -0.4274 0.7413 -0.5176
vn -0.2511 0.2997 -0.9204
vn -0.4749 0.2997 -0.8275
vn -0.0647 0.7413 -0.6681
vn -0.5349 0.2414 -0.8097
vn -0.1654 -0.3775 -0.9111
vn -0.5278 -0.3775 -0.7609
vn -0.1831 -0.3942 -0.9006
vn 0.1760 0.2239 -0.9586
vn 0.1825 -0.3942 -0.9007
vn -0.1768 0.2239 -0.9584
vn 0.1945 0.2413 -0.9508
vn 0.5345 0.2413 -0.8100
vn 0.5275 -0.3776 -0.7610
vn 0.0316 -0.5782 -0.8153
vn 0.3734 -0.8286 -0.4171
vn 0.0323 -0.8296 -0.5575
vn 0.5577 -0.5763 -0.5974
vn 0.1651 -0.3776 -0.9111
vn 0.0644 0.7411 -0.6683
vn 0.4271 0.7416 -0.5174
vn 0.4737 0.2994 -0.8282
vn -0.1546 0.3610 -0.9197
vn 0.1827 0.7881 -0.5879
vn 0.1539 0.3613 -0.9197
vn -0.1831 0.7878 -0.5881
vn 0.2497 0.2987 -0.9211
vn -0.1948 0.2414 -0.9507
vn -0.5561 -0.5780 -0.5972
vn -0.0332 -0.8291 -0.5581
vn -0.3717 -0.8293 -0.4173
vn -0.1766 -0.8696 -0.4610
vn 0.0038 -0.6921 -0.7218
vn 0.1760 -0.8695 -0.4616
vn -0.0045 -0.6924 -0.7215
vn -0.0325 -0.5782 -0.8152
vn -0.0046 -0.0238 -0.9997
vn -0.9541 -0.1489 -0.2600
vn 0.0039 -0.0238 -0.9997
vn 0.9539 -0.1489 -0.2607
vn 0.9539 0.0661 -0.2929
vn -0.9808 0.0001 -0.1948
vn -0.9541 0.0659 -0.2923
vn 0.9539 0.0658 -0.2929
vn 0.9807 -0.0004 -0.1954
vn -0.9808 -0.0001 -0.1948
vn 0.9807 -0.0000 -0.1954
vn -0.8813 0.0659 0.4680
vn -0.8313 0.0026 0.5559
vn 0.9808 0.0001 -0.1952
vn 0.9539 0.0660 -0.2927
vn -0.8813 0.0659 0.4679
vn -0.9056 0.1120 0.4090
vn 0.9287 0.1114 -0.3536
vn -0.1056 0.0517 -0.9931
vn -0.6310 0.0518 -0.7741
vn 0.1955 -0.0000 0.9807
vn -0.4681 0.0659 -0.8812
vn -0.5559 -0.0000 -0.8313
vn 0.1946 -0.0001 0.9809
vn 0.2923 0.0659 0.9541
vn -0.4677 0.0659 -0.8814
vn -0.4079 0.1115 -0.9062
vn 0.3524 0.1119 0.9292
vn 0.9932 0.0522 -0.1042
vn 0.7752 0.0521 -0.6295
vn 0.5553 -0.5780 0.5980
vn 0.0324 -0.8288 0.5586
vn 0.3721 -0.8295 0.4166
vn 0.0301 -0.5769 0.8162
vn 0.1766 -0.8697 0.4609
vn -0.0040 -0.6922 0.7217
vn -0.1763 -0.8697 0.4611
vn 0.1831 -0.3942 0.9006
vn 0.1768 0.2239 0.9584
vn -0.1761 0.2239 0.9586
vn -0.1825 -0.3942 0.9007
vn -0.1944 0.2414 0.9508
vn -0.5342 0.2414 0.8102
vn -0.5274 -0.3775 0.7611
vn -0.0297 -0.5787 0.8150
vn -0.3717 -0.8295 0.4169
vn -0.0316 -0.8291 0.5582
vn -0.5548 -0.5791 0.5973
vn 0.0046 -0.6922 0.7217
vn -0.0040 -0.0236 0.9997
vn 0.0046 -0.0237 0.9997
vn -0.9539 -0.1488 0.2605
vn 0.9540 -0.1489 0.2601
vn -0.9539 0.0661 0.2928
vn 0.9809 -0.0000 0.1947
vn 0.9541 0.0659 0.2922
vn -0.9539 0.0659 0.2928
vn -0.9807 -0.0000 0.1954
vn 0.9809 -0.0001 0.1947
vn -0.1652 -0.3774 0.9112
vn -0.0641 0.7415 0.6678
vn -0.4266 0.7415 0.5178
vn -0.4736 0.3001 0.8280
vn -0.1825 0.7881 0.5879
vn 0.1546 0.3611 0.9196
vn 0.1831 0.7883 0.5875
vn -0.2501 0.3002 0.9205
vn 0.5348 0.2413 0.8098
vn 0.1653 -0.3775 0.9111
vn 0.5277 -0.3776 0.7609
vn 0.4270 0.7416 0.5174
vn 0.0649 0.7415 0.6678
vn 0.2509 0.3002 0.9203
vn 0.4742 0.3004 0.8276
vn -0.1540 0.3609 0.9198
vn -0.5450 0.7878 0.2869
vn -0.7591 0.3606 0.5420
vn -0.5410 0.3605 0.7598
vn -0.2867 0.7878 0.5451
vn 0.2865 0.7880 0.5449
vn 0.7595 0.3611 0.5412
vn 0.5450 0.7882 0.2858
vn 0.7663 -0.3944 0.5072
vn 0.5535 0.2237 0.8023
vn 0.5078 -0.3945 0.7658
vn 0.8029 0.2238 0.5525
vn 0.1949 0.2413 0.9507
vn 0.5410 0.3607 0.7597
vn -0.8320 -0.0000 -0.5548
vn 0.9542 0.0660 0.2917
vn 0.9810 -0.0000 0.1942
vn -0.8314 0.0002 -0.5556
vn -0.8814 0.0659 -0.4678
vn 0.9541 0.0659 0.2923
vn 0.9293 0.1116 0.3520
vn -0.9061 0.1120 -0.4081
vn -0.6286 0.0522 0.7760
vn -0.1031 0.0525 0.9933
vn -0.5540 0.0001 0.8325
vn 0.2904 0.0659 -0.9546
vn 0.1937 0.0001 -0.9811
vn -0.5552 0.0001 0.8317
vn -0.4673 0.0659 0.8816
vn 0.2922 0.0659 -0.9541
vn 0.3523 0.1116 -0.9292
vn -0.4072 0.1116 0.9065
vn 0.7756 0.0520 0.6291
vn 0.9932 0.0518 0.1040
vn 0.5550 -0.0000 -0.8318
vn -0.2922 0.0657 0.9541
vn -0.1946 -0.0026 0.9809
vn 0.5555 -0.0001 -0.8315
vn 0.4681 0.0659 -0.8812
vn -0.2926 0.0659 0.9540
vn -0.3524 0.1115 0.9292
vn 0.4070 0.1115 -0.9066
vn -0.7758 0.0519 -0.6288
vn -0.9932 0.0517 -0.1042
vn -0.5976 -0.5784 0.5553
vn -0.5581 -0.8292 0.0322
vn -0.4166 -0.8293 0.3726
vn -0.8154 -0.5781 0.0298
vn -0.4610 -0.8697 0.1763
vn -0.7216 -0.6923 -0.0042
vn -0.4611 -0.8696 -0.1764
vn -0.9586 0.2240 -0.1760
vn -0.9006 -0.3941 0.1831
vn -0.9584 0.2240 0.1768
vn -0.9007 -0.3941 -0.1826
vn -0.7216 -0.6923 0.0043
vn -0.8149 -0.5788 -0.0303
vn -0.5976 -0.5785 -0.5551
vn -0.4167 -0.8294 -0.3721
vn -0.5575 -0.8295 -0.0324
vn -0.9508 0.2415 -0.1941
vn -0.8100 0.2415 -0.5344
vn -0.7614 -0.3774 -0.5271
vn -0.9997 -0.0236 0.0045
vn -0.2601 -0.1488 0.9541
vn -0.9997 -0.0237 -0.0038
vn -0.2604 -0.1487 -0.9540
vn -0.9113 -0.3774 -0.1644
vn -0.6681 0.7413 -0.0645
vn -0.5182 0.7411 -0.4270
vn -0.8280 0.2997 -0.4739
vn -0.9197 0.3607 0.1548
vn -0.5879 0.7879 0.1833
vn -0.5881 0.7879 -0.1824
vn -0.9205 0.2999 -0.2504
vn -0.7663 -0.3942 -0.5073
vn -0.5534 0.2239 -0.8023
vn -0.5078 -0.3942 -0.7660
vn -0.8028 0.2240 -0.5526
vn -0.8097 0.2414 0.5348
vn -0.9111 -0.3775 0.1654
vn -0.7610 -0.3774 0.5277
vn -0.5180 0.7413 0.4268
vn -0.6683 0.7411 0.0646
vn -0.9206 0.2996 0.2505
vn -0.8279 0.3000 0.4739
vn -0.9199 0.3608 -0.1538
vn -0.2927 0.0661 -0.9539
vn -0.1949 0.0001 0.9808
vn -0.2924 0.0659 0.9540
vn -0.2926 0.0660 -0.9540
vn -0.1956 0.0006 -0.9807
vn -0.1947 -0.0001 0.9809
vn -0.2867 0.7879 -0.5449
vn -0.7597 0.3607 -0.5411
vn -0.5451 0.7877 -0.2870
vn -0.5418 0.3612 -0.7589
vn -0.8024 0.2240 0.5532
vn -0.5074 -0.3942 0.7663
vn -0.5531 0.2238 0.8025
vn -0.7659 -0.3940 0.5081
vn -0.9507 0.2413 0.1949
vn -0.1950 -0.0000 -0.9808
vn 0.4678 0.0660 0.8814
vn 0.5556 -0.0000 0.8315
vn -0.1943 -0.0000 -0.9809
vn -0.2919 0.0659 -0.9542
vn 0.4673 0.0659 0.8816
vn 0.4071 0.1112 0.9066
vn -0.3517 0.1122 -0.9294
vn -0.9933 0.0520 0.1033
vn -0.7758 0.0518 0.6288
vn 0.8317 -0.0000 0.5553
vn -0.9541 0.0659 -0.2921
vn -0.9809 -0.0000 -0.1947
vn 0.8316 0.0001 0.5553
vn 0.8815 0.0659 0.4675
vn -0.9541 0.0659 -0.2922
vn -0.9289 0.1112 -0.3533
vn 0.9062 0.1120 0.4078
vn 0.6295 0.0519 -0.7753
vn 0.1043 0.0518 -0.9932
vn 0.2197 0.9504 -0.2201
vn 0.2198 0.9506 0.2194
vn 0.3107 0.9505 -0.0004
vn -0.0000 0.9505 -0.3108
vn 0.0001 0.9505 0.3108
vn -0.2198 0.9505 -0.2196
vn -0.2197 0.9505 0.2198
vn -0.3107 0.9505 0.0001
vn 0.1752 0.9632 -0.2036
vn 0.6548 0.7422 -0.1429
vn 0.5637 0.7420 -0.3627
vn 0.4029 0.9022 0.1543
vn 0.7677 0.6409 -0.0001
vn 0.4029 0.9022 -0.1542
vn 0.2679 0.9632 0.0201
vn 0.1759 0.9022 -0.3938
vn 0.3941 0.9021 -0.1757
vn 0.5429 0.6409 -0.5428
vn -0.0201 0.9634 -0.2672
vn 0.3620 0.7426 -0.5634
vn 0.1422 0.7424 -0.6547
vn 0.2034 0.9635 -0.1741
vn -0.1544 0.9021 -0.4030
vn 0.1541 0.9021 -0.4031
vn -0.0003 0.6408 -0.7677
vn -0.2040 0.9631 -0.1753
vn -0.1432 0.7420 -0.6550
vn -0.3623 0.7423 -0.5637
vn 0.0189 0.9631 -0.2684
vn -0.3940 0.9022 -0.1756
vn -0.1759 0.9022 -0.3938
vn -0.5430 0.6410 -0.5426
vn -0.2674 0.9634 0.0198
vn -0.5636 0.7423 -0.3624
vn -0.6548 0.7422 -0.1426
vn -0.1745 0.9634 -0.2037
vn -0.4027 0.9021 0.1548
vn -0.4029 0.9023 -0.1537
vn -0.7675 0.6410 0.0007
vn 0.2037 0.9632 0.1754
vn 0.1428 0.7420 0.6551
vn 0.3625 0.7421 0.5638
vn 0.1544 0.9022 0.4028
vn -0.1541 0.9022 0.4029
vn 0.0003 0.6409 0.7676
vn 0.0200 0.9632 0.2680
vn -0.2034 0.9632 0.1758
vn -0.3621 0.7421 0.5641
vn -0.1424 0.7422 0.6548
vn -0.1753 0.9022 0.3941
vn -0.3936 0.9023 0.1761
vn -0.5424 0.6410 0.5432
vn -0.1752 0.9633 0.2034
vn -0.2677 0.9633 -0.0207
vn -0.6548 0.7422 0.1426
vn -0.5638 0.7420 0.3629
vn -0.0198 0.9632 0.2682
vn 0.3937 0.9022 0.1760
vn 0.1755 0.9021 0.3942
vn 0.5427 0.6409 0.5430
vn 0.2678 0.9632 -0.0207
vn 0.5641 0.7424 0.3614
vn 0.6547 0.7424 0.1423
vn 0.1758 0.9634 0.2023
vn -0.9806 -0.0000 0.1962
vn 0.8809 0.0660 -0.4687
vn 0.8308 -0.0000 -0.5565
vn -0.9537 0.0660 0.2936
vn 0.8809 0.0659 -0.4687
vn 0.9061 0.1116 -0.4081
vn -0.9287 0.1112 0.3537
vn 0.1044 0.0518 0.9932
vn 0.6294 0.0518 0.7754
vn 0.7041 -0.0234 0.7098
vn -0.4903 -0.1488 0.8588
vn 0.8584 -0.1487 -0.4909
vn 0.7100 -0.0233 0.7038
vn -0.4671 0.0660 0.8817
vn 0.8309 -0.0000 -0.5565
vn 0.8811 0.0658 -0.4684
vn -0.4674 0.0658 0.8816
vn -0.5553 -0.0000 0.8317
vn 0.8312 -0.0001 -0.5560
vn -0.7035 -0.0238 0.7103
vn 0.4907 -0.1489 0.8585
vn -0.7098 -0.0238 0.7040
vn -0.8588 -0.1489 -0.4901
vn -0.8814 0.0661 -0.4676
vn 0.5554 -0.0000 0.8316
vn 0.4675 0.0659 0.8815
vn -0.8817 0.0659 -0.4673
vn -0.8318 -0.0000 -0.5551
vn 0.5560 -0.0001 0.8312
vn -0.7103 -0.0234 -0.7036
vn -0.8585 -0.1487 0.4909
vn -0.7041 -0.0236 -0.7097
vn 0.4901 -0.1488 -0.8589
vn 0.4672 0.0661 -0.8817
vn -0.8309 0.0001 0.5564
vn -0.8809 0.0659 0.4686
vn 0.4675 0.0659 -0.8815
vn 0.5553 -0.0000 -0.8316
vn -0.8313 -0.0001 0.5559
vn 0.7036 -0.0234 -0.7102
vn -0.4908 -0.1488 -0.8585
vn 0.7097 -0.0233 -0.7041
vn 0.8588 -0.1488 0.4903
vn 0.8815 0.0661 0.4675
vn -0.5554 -0.0000 -0.8316
vn -0.4675 0.0659 -0.8815
vn 0.8817 0.0659 0.4672
vn 0.8318 -0.0000 0.5551
vn -0.5560 -0.0001 -0.8312
vn 0.2009 -0.8696 -0.4510
vn 0.5130 -0.6922 -0.5077
vn 0.4505 -0.8697 -0.2018
vn 0.5068 -0.6923 -0.5137
vn -0.2012 -0.8696 0.4508
vn -0.5133 -0.6921 0.5075
vn -0.4507 -0.8697 0.2012
vn -0.5071 -0.6919 0.5139
vn -0.5076 -0.6922 -0.5130
vn -0.4508 -0.8697 -0.2009
vn -0.5135 -0.6923 -0.5070
vn -0.2016 -0.8697 -0.4505
vn 0.5074 -0.6922 0.5132
vn 0.4508 -0.8697 0.2011
vn 0.5135 -0.6923 0.5070
vn 0.2013 -0.8696 0.4508
vt 0.471394 0.743436
vt 0.472370 0.744350
vt 0.472370 0.743436
vt 0.471394 0.744809
vt 0.469367 0.743450
vt 0.469367 0.741051
vt 0.471394 0.741064
vt 0.469367 0.744677
vt 0.467772 0.743450
vt 0.467772 0.743645
vt 0.469367 0.746374
vt 0.471394 0.746486
vt 0.467772 0.741051
vt 0.467772 0.740856
vt 0.469367 0.739824
vt 0.465559 0.743410
vt 0.465559 0.741091
vt 0.464927 0.743410
vt 0.464927 0.741091
vt 0.471394 0.739692
vt 0.472370 0.741064
vt 0.472370 0.740151
vt 0.472370 0.746027
vt 0.471394 0.162489
vt 0.472370 0.161576
vt 0.472370 0.162489
vt 0.471394 0.161117
vt 0.469367 0.162475
vt 0.471394 0.164861
vt 0.469367 0.164875
vt 0.469367 0.166102
vt 0.467772 0.165070
vt 0.467772 0.164875
vt 0.471394 0.166233
vt 0.472370 0.164861
vt 0.472370 0.165775
vt 0.469367 0.161248
vt 0.467772 0.162475
vt 0.467772 0.162281
vt 0.465559 0.162516
vt 0.465559 0.164834
vt 0.464927 0.162516
vt 0.464927 0.164834
vt 0.464927 0.162860
vt 0.465559 0.162860
vt 0.464927 0.743066
vt 0.465559 0.743066
vt 0.472370 0.159899
vt 0.471394 0.159440
vt 0.471394 0.167911
vt 0.469367 0.167799
vt 0.472370 0.167452
vt 0.465559 0.741435
vt 0.464927 0.741435
vt 0.469367 0.738127
vt 0.471394 0.738015
vt 0.465559 0.164490
vt 0.464927 0.164490
vt 0.161852 0.740428
vt 0.161852 0.744073
vt 0.161097 0.742250
vt 0.163675 0.739672
vt 0.163675 0.744828
vt 0.165498 0.740428
vt 0.165498 0.744073
vt 0.166253 0.742250
vt 0.167830 0.743436
vt 0.167830 0.741064
vt 0.167452 0.744350
vt 0.165775 0.746027
vt 0.164861 0.746405
vt 0.162489 0.746405
vt 0.161576 0.746027
vt 0.159899 0.744350
vt 0.159520 0.743436
vt 0.159520 0.741064
vt 0.164861 0.738096
vt 0.162489 0.738096
vt 0.161576 0.738474
vt 0.159899 0.740151
vt 0.165775 0.738474
vt 0.167452 0.740151
vt 0.467772 0.166766
vt 0.465559 0.166129
vt 0.464927 0.166129
vt 0.467772 0.160584
vt 0.465559 0.161221
vt 0.464927 0.161221
vt 0.467772 0.745341
vt 0.465559 0.744705
vt 0.464927 0.744705
vt 0.167799 0.744677
vt 0.165070 0.745341
vt 0.166102 0.746374
vt 0.166766 0.743645
vt 0.159552 0.739824
vt 0.162281 0.739159
vt 0.161248 0.738127
vt 0.160584 0.740856
vt 0.160584 0.743645
vt 0.161248 0.746374
vt 0.162281 0.745341
vt 0.159552 0.744677
vt 0.166766 0.740856
vt 0.166102 0.738127
vt 0.165070 0.739159
vt 0.167799 0.739824
s 1
usemtl M_SideTableDrawer_317_1
f 57/1/1 59/2/2 58/3/3
f 57/1/1 60/4/4 59/2/2
f 61/5/5 60/4/6 57/1/7
f 57/1/8 62/6/9 61/5/10
f 57/1/8 63/7/11 62/6/9
f 61/5/5 64/8/12 60/4/6
f 65/9/13 64/8/14 61/5/15
f 65/9/16 61/5/17 62/6/18
f 65/9/13 66/10/19 64/8/14
f 67/11/20 60/4/21 64/8/22
f 67/11/20 68/12/23 60/4/21
f 68/12/24 59/2/25 60/4/26
f 65/9/16 62/6/18 69/13/27
f 70/14/28 69/13/29 62/6/30
f 70/14/28 62/6/30 71/15/31
f 71/15/32 62/6/33 63/7/34
f 69/13/35 72/16/36 65/9/37
f 69/13/35 73/17/38 72/16/36
f 74/18/39 72/16/40 73/17/41
f 74/18/42 73/17/43 75/19/44
f 71/15/32 63/7/34 76/20/45
f 76/20/46 63/7/47 77/21/48
f 76/20/46 77/21/48 78/22/49
f 77/21/50 63/7/51 57/1/52
f 77/21/50 57/1/52 58/3/53
f 68/12/24 79/23/54 59/2/25
f 80/24/55 82/25/56 81/26/57
f 80/24/55 83/27/58 82/25/56
f 84/28/59 83/27/60 80/24/61
f 85/29/62 84/28/63 80/24/64
f 85/29/62 86/30/65 84/28/63
f 67/31/66 86/30/67 85/29/68
f 87/32/69 86/30/70 67/31/71
f 87/32/69 88/33/72 86/30/70
f 67/31/66 85/29/68 68/34/73
f 68/34/74 85/29/75 89/35/76
f 89/35/77 80/24/78 81/26/79
f 89/35/77 85/29/80 80/24/78
f 68/34/74 89/35/76 79/36/81
f 84/28/59 90/37/82 83/27/60
f 91/38/83 90/37/84 84/28/85
f 86/30/86 91/38/87 84/28/88
f 86/30/86 88/33/89 91/38/87
f 91/38/83 92/39/90 90/37/84
f 88/33/91 93/40/92 91/38/93
f 88/33/91 94/41/94 93/40/92
f 94/41/95 95/42/96 93/40/97
f 94/41/98 96/43/99 95/42/100
f 97/44/101 93/40/102 95/42/103
f 97/44/104 98/45/105 93/40/106
f 93/40/107 98/45/108 92/39/109
f 93/40/107 92/39/109 91/38/110
f 99/46/111 72/16/112 74/18/113
f 99/46/114 100/47/115 72/16/116
f 72/16/117 100/47/118 66/10/119
f 72/16/117 66/10/119 65/9/120
f 101/33/121 103/31/122 102/30/123
f 101/33/121 104/32/124 103/31/122
f 105/28/125 101/33/126 102/30/127
f 106/24/128 105/28/129 102/30/130
f 106/24/128 102/30/130 107/29/131
f 108/37/132 105/28/133 106/24/134
f 109/39/135 105/28/136 108/37/137
f 109/39/135 110/38/138 105/28/136
f 105/28/125 110/38/139 101/33/126
f 101/33/140 110/38/141 111/40/142
f 101/33/140 111/40/142 112/41/143
f 111/40/144 113/43/145 112/41/146
f 111/40/147 114/42/148 113/43/149
f 108/37/132 106/24/134 115/27/150
f 115/27/151 106/24/152 116/26/153
f 107/29/154 116/26/155 106/24/156
f 115/27/151 116/26/153 117/25/157
f 102/30/158 118/34/159 107/29/160
f 107/29/161 118/34/162 119/36/163
f 107/29/161 119/36/163 120/35/164
f 107/29/154 120/35/165 116/26/155
f 115/27/166 117/25/167 121/48/168
f 115/27/166 121/48/168 122/49/169
f 76/50/170 119/36/171 118/34/172
f 118/34/173 71/51/174 76/50/175
f 118/34/173 103/31/176 71/51/174
f 102/30/158 103/31/177 118/34/159
f 76/50/170 78/52/178 119/36/171
f 114/42/179 124/45/180 123/44/181
f 114/42/182 111/40/183 124/45/184
f 124/45/185 111/40/186 110/38/187
f 124/45/185 110/38/187 109/39/188
f 75/19/189 126/53/190 125/54/191
f 75/19/192 73/17/193 126/53/194
f 126/53/195 73/17/196 69/13/197
f 126/53/195 69/13/197 70/14/198
f 127/18/199 129/47/200 128/46/201
f 127/18/202 130/16/203 129/47/204
f 129/47/205 130/16/206 131/9/207
f 129/47/205 131/9/207 132/10/208
f 133/13/209 135/15/210 134/6/211
f 133/13/209 136/14/212 135/15/210
f 137/5/213 133/13/214 134/6/215
f 134/6/216 138/1/217 137/5/218
f 134/6/216 139/7/219 138/1/217
f 137/5/213 131/9/220 133/13/214
f 132/10/221 131/9/222 137/5/223
f 132/10/221 137/5/223 140/8/224
f 140/8/225 137/5/226 138/1/227
f 131/9/228 141/17/229 133/13/230
f 131/9/228 130/16/231 141/17/229
f 140/8/225 138/1/227 142/4/232
f 142/4/233 138/1/234 143/3/235
f 143/3/236 138/1/237 139/7/238
f 142/4/233 143/3/235 144/2/239
f 83/12/240 140/8/241 142/4/242
f 83/12/240 90/11/243 140/8/241
f 134/6/244 122/20/245 139/7/246
f 139/7/247 122/20/248 121/22/249
f 139/7/247 121/22/249 145/21/250
f 143/3/236 139/7/238 145/21/251
f 130/16/252 146/19/253 141/17/254
f 130/16/255 127/18/256 146/19/257
f 142/4/258 82/23/259 83/12/260
f 142/4/258 144/2/261 82/23/259
f 108/55/262 122/20/263 135/15/264
f 108/55/262 115/56/265 122/20/263
f 134/6/244 135/15/266 122/20/245
f 147/54/267 141/17/268 146/19/269
f 147/54/270 148/53/271 141/17/272
f 141/17/273 148/53/274 136/14/275
f 141/17/273 136/14/275 133/13/276
f 96/43/277 150/57/278 149/58/279
f 96/43/280 94/41/281 150/57/282
f 150/57/283 94/41/284 88/33/285
f 150/57/283 88/33/285 87/32/286
f 151/59/287 153/60/288 152/61/289
f 153/60/288 151/59/287 154/62/290
f 153/60/288 154/62/290 155/63/291
f 155/63/291 154/62/290 156/64/292
f 155/63/291 156/64/292 157/65/293
f 157/65/293 156/64/292 158/66/294
f 58/67/295 157/65/296 158/66/297
f 58/67/298 158/66/299 77/68/300
f 58/67/295 59/69/301 157/65/296
f 59/69/302 79/70/303 157/65/304
f 79/70/305 155/63/306 157/65/307
f 79/70/305 89/71/308 155/63/306
f 89/71/309 81/72/310 155/63/311
f 81/72/312 153/60/313 155/63/314
f 81/72/312 82/73/315 153/60/313
f 82/73/316 144/74/317 153/60/318
f 144/74/319 152/61/320 153/60/321
f 144/74/319 143/75/322 152/61/320
f 143/75/323 145/76/324 152/61/325
f 120/77/326 156/64/327 154/62/328
f 116/78/329 120/77/330 154/62/331
f 117/79/332 116/78/333 154/62/334
f 117/79/332 154/62/334 151/59/335
f 121/80/336 117/79/337 151/59/338
f 145/76/339 121/80/340 151/59/341
f 145/76/339 151/59/341 152/61/342
f 120/77/326 119/81/343 156/64/327
f 119/81/344 78/82/345 156/64/346
f 78/82/347 158/66/348 156/64/349
f 78/82/347 77/68/350 158/66/348
f 159/58/351 112/41/352 113/43/353
f 159/58/351 160/57/354 112/41/355
f 112/41/356 160/57/357 104/32/358
f 112/41/356 104/32/358 101/33/359
f 70/83/360 160/57/361 126/84/362
f 70/83/360 104/32/363 160/57/361
f 160/57/364 125/85/365 126/84/366
f 160/57/367 159/58/368 125/85/369
f 136/86/370 124/45/371 109/39/372
f 136/86/370 148/87/373 124/45/371
f 148/87/374 123/44/375 124/45/376
f 148/87/377 147/88/378 123/44/379
f 92/89/380 129/47/381 132/10/382
f 92/89/380 98/90/383 129/47/381
f 98/90/384 128/46/385 129/47/386
f 98/90/387 97/91/388 128/46/389
f 66/10/390 150/90/391 87/89/392
f 66/10/390 100/47/393 150/90/391
f 100/47/394 149/91/395 150/90/396
f 100/47/397 99/46/398 149/91/399
f 64/92/400 87/93/401 67/94/402
f 64/92/400 66/95/403 87/93/401
f 135/96/404 109/97/405 108/98/406
f 135/96/404 136/99/407 109/97/405
f 132/100/408 90/101/409 92/102/410
f 132/100/408 140/103/411 90/101/409
f 70/104/412 103/105/413 104/106/414
f 70/104/412 71/107/415 103/105/413
