# Blender 4.1.1
# www.blender.org
mtllib MeshBookFront_10_1_GeomSubset_0.mtl
o MeshBookFront_10_1_GeomSubset_0
v -0.118291 -0.150567 0.004470
v -0.118291 0.150566 0.004470
v -0.118291 0.150566 0.004847
v -0.118291 -0.150567 0.004847
v 0.122386 0.150566 0.003587
v 0.119671 0.150566 0.004470
v 0.120992 0.150566 0.004847
v 0.123461 0.150566 0.004003
v 0.119671 -0.150567 0.004470
v 0.122386 -0.150567 0.003587
v 0.120992 -0.150567 0.004847
v 0.123461 -0.150567 0.004003
v 0.123880 -0.150567 -0.001390
v 0.125328 -0.150567 -0.001390
v 0.125328 0.150566 -0.001390
v 0.123880 0.150566 -0.001390
v 0.124895 -0.150567 0.001306
v 0.124895 0.150566 0.001306
v 0.123455 0.150566 0.001098
v 0.123455 -0.150567 0.001098
v 0.125111 -0.150567 -0.000042
v 0.125111 0.150566 -0.000042
v 0.123689 0.150566 -0.000146
v 0.123689 -0.150567 -0.000146
v 0.124150 -0.150567 0.002655
v 0.124150 0.150566 0.002655
v 0.122949 0.150566 0.002342
v 0.122949 -0.150567 0.002342
v 0.121962 0.150566 -0.001390
v -0.118291 0.150566 -0.001390
v -0.118291 -0.150567 -0.001390
v 0.121962 -0.150567 -0.001390
v 0.121503 0.150566 0.001540
v -0.118291 0.150566 0.001540
v -0.118291 -0.150567 0.001540
v 0.121503 -0.150567 0.001540
v 0.121962 -0.148921 -0.002864
v 0.123880 -0.150567 -0.001390
v 0.121962 0.148922 -0.002864
v 0.123880 0.150566 -0.001390
v -0.116771 -0.148921 -0.001764
v -0.116771 0.148922 -0.001764
v -0.118291 -0.150567 0.004470
v -0.118291 0.150566 0.004470
v 0.119671 0.150566 0.004470
v 0.122386 0.150566 0.003587
v 0.122386 -0.150567 0.003587
v 0.119671 -0.150567 0.004470
v 0.123455 0.150566 0.001098
v 0.123455 -0.150567 0.001098
v 0.038131 0.150566 0.004470
v 0.039353 0.150566 0.001540
v 0.039658 0.150566 -0.001390
v 0.040083 0.148922 -0.007412
v 0.040083 -0.148921 -0.007412
v 0.039658 -0.150567 -0.001390
v 0.039353 -0.150567 0.001540
v 0.038131 -0.150567 0.004470
v -0.036012 0.150566 0.004470
v -0.035401 0.150566 0.001540
v -0.035249 0.150566 -0.001390
v -0.034399 0.148922 -0.005625
v -0.034399 -0.148921 -0.005625
v -0.035249 -0.150567 -0.001390
v -0.035401 -0.150567 0.001540
v -0.036012 -0.150567 0.004470
v 0.016868 0.150566 0.004470
v 0.017887 0.150566 0.001540
v 0.018141 0.150566 -0.001390
v 0.018708 0.148922 -0.007153
v 0.018708 -0.148921 -0.007153
v 0.018141 -0.150567 -0.001390
v 0.017887 -0.150567 0.001540
v 0.016868 -0.150567 0.004470
v -0.009572 0.150566 0.004470
v -0.008758 0.150566 0.001540
v -0.008554 0.150566 -0.001390
v -0.007846 0.148922 -0.006540
v -0.007846 -0.148921 -0.006540
v -0.008554 -0.150567 -0.001390
v -0.008758 -0.150567 0.001540
v -0.009572 -0.150567 0.004470
v 0.102432 0.150566 0.004470
v 0.104143 0.150566 0.001540
v 0.104571 0.150566 -0.001390
v 0.104656 0.148922 -0.005811
v 0.104656 -0.148921 -0.005811
v 0.104571 -0.150567 -0.001390
v 0.104143 -0.150567 0.001540
v 0.102432 -0.150567 0.004470
v 0.087942 0.150566 0.004470
v 0.089531 0.150566 0.001540
v 0.089928 0.150566 -0.001390
v 0.090098 0.148922 -0.006998
v 0.090098 -0.148921 -0.006998
v 0.089928 -0.150567 -0.001390
v 0.089531 -0.150567 0.001540
v 0.087942 -0.150567 0.004470
v 0.072078 0.150566 0.004470
v 0.073544 0.150566 0.001540
v 0.073911 0.150566 -0.001390
v 0.074166 0.148922 -0.007476
v 0.074166 -0.148921 -0.007476
v 0.073911 -0.150567 -0.001390
v 0.073544 -0.150567 0.001540
v 0.072078 -0.150567 0.004470
v 0.056214 0.150566 0.004470
v 0.057558 0.150566 0.001540
v 0.057894 0.150566 -0.001390
v 0.058234 0.148922 -0.007505
v 0.058234 -0.148921 -0.007505
v 0.057894 -0.150567 -0.001390
v 0.057558 -0.150567 0.001540
v 0.056214 -0.150567 0.004470
v -0.062426 0.150566 0.004470
v -0.062121 0.150566 0.001540
v -0.062044 0.150566 -0.001390
v -0.060982 0.148922 -0.004627
v -0.060982 -0.148921 -0.004627
v -0.062044 -0.150567 -0.001390
v -0.062121 -0.150567 0.001540
v -0.062426 -0.150567 0.004470
v -0.088880 0.150566 0.004470
v -0.088727 0.150566 0.001540
v -0.088689 0.150566 -0.001390
v -0.087520 0.148922 -0.003458
v -0.087520 -0.148921 -0.003458
v -0.088689 -0.150567 -0.001390
v -0.088727 -0.150567 0.001540
v -0.088880 -0.150567 0.004470
v 0.123650 -0.149132 -0.002220
v 0.123650 0.149132 -0.002220
v 0.124314 -0.150340 -0.001624
v 0.124314 0.150340 -0.001624
v 0.124893 -0.150340 -0.001624
v 0.124893 0.150340 -0.001624
v 0.113317 0.150566 0.004470
v 0.115088 0.150566 0.001540
v 0.115532 0.150566 -0.001390
v 0.115574 0.148922 -0.004380
v 0.115574 -0.148921 -0.004380
v 0.115532 -0.150567 -0.001390
v 0.115088 -0.150567 0.001540
v 0.113317 -0.150567 0.004470
v 0.124658 -0.149232 -0.001679
v 0.124658 -0.150567 -0.001390
v 0.124658 0.149233 -0.001679
v 0.124658 0.150566 -0.001390
v -0.109783 0.150566 0.004470
v -0.109743 0.150566 0.001540
v -0.109733 0.150566 -0.001390
v -0.108486 0.148922 -0.002393
v -0.108486 -0.148921 -0.002393
v -0.109733 -0.150567 -0.001390
v -0.109743 -0.150567 0.001540
v -0.109783 -0.150567 0.004470
vn 1.0000 -0.0000 -0.0000
vn -0.0000 -1.0000 -0.0000
vn -0.7110 -0.0000 -0.7032
vn -0.7111 -0.0000 -0.7031
vn -0.3001 -0.0000 -0.9539
vn -0.0000 1.0000 -0.0000
vn -0.0000 -0.0000 -1.0000
vn -0.8830 -0.0000 -0.4693
vn -0.0000 1.0000 0.0005
vn -0.9484 -0.0000 -0.3172
vn -0.9873 -0.0000 -0.1586
vn -0.8760 -0.0000 0.4822
vn -0.8766 -0.0000 0.4812
vn -0.0000 -0.9975 -0.0711
vn -0.0000 -0.9978 -0.0659
vn -0.0000 0.9343 0.3564
vn -0.0000 0.9520 0.3061
vn -0.2963 -0.0000 0.9551
vn 0.2967 -0.0000 0.9550
vn 0.2970 -0.0000 0.9549
vn -0.2966 -0.0000 0.9550
vn -0.0000 0.7170 0.6971
vn -0.0000 0.7170 0.6970
vn -0.0000 -0.1041 0.9946
vn -0.0000 -0.7218 0.6921
vn -0.0000 -0.1094 0.9940
vn 0.4753 -0.0000 0.8798
vt 0.666653 0.830982
vt 0.664443 0.830994
vt 0.664398 0.668173
vt 0.666608 0.668184
vt 0.533119 0.832557
vt 0.533144 0.830994
vt 0.533556 0.830994
vt 0.534168 0.832557
vt 0.533144 0.668173
vt 0.533556 0.668173
vt 0.534168 0.666869
vt 0.533119 0.666869
vt 0.532223 0.830994
vt 0.532223 0.668173
vt 0.664411 0.832576
vt 0.664398 0.666854
vt 0.532178 0.666869
vt 0.532204 0.832557
vt 0.531303 0.830994
vt 0.530382 0.830994
vt 0.530382 0.668173
vt 0.531303 0.668173
vt 0.531289 0.832557
vt 0.530374 0.832557
vt 0.530297 0.666869
vt 0.531238 0.666869
vt 0.529498 0.830994
vt 0.529496 0.668114
vt 0.529501 0.832557
vt 0.529496 0.666869
vt 0.529281 0.831463
vt 0.528994 0.831463
vt 0.528994 0.667825
vt 0.529281 0.667825
vt 0.529281 0.667227
vt 0.529281 0.832115
vt 0.528667 0.831463
vt 0.528662 0.667825
s 1
usemtl M_BookFront_10_0
f 2/1/1 3/2/1 4/3/1 1/4/1
f 5/5/2 8/6/2 7/7/2 6/8/2
f 8/6/3 12/9/4 11/10/5 7/7/5
f 9/11/6 11/10/6 12/9/6 10/12/6
f 7/7/5 11/10/5 4/3/7 3/2/7
f 8/6/3 26/13/8 25/14/8 12/9/4
f 7/7/2 3/2/2 2/15/2 6/8/2
f 1/16/9 4/3/9 11/10/6 9/11/6
f 12/9/6 25/14/6 28/17/6 10/12/6
f 26/13/2 8/6/2 5/5/2 27/18/2
f 18/19/10 22/20/11 21/21/11 17/22/10
f 22/20/2 18/19/2 19/23/2 23/24/2
f 17/22/6 21/21/6 24/25/6 20/26/6
f 22/20/11 15/27/12 14/28/13 21/21/11
f 15/27/14 22/20/2 23/24/2 16/29/15
f 21/21/6 14/28/16 13/30/17 24/25/6
f 26/13/8 18/19/10 17/22/10 25/14/8
f 18/19/2 26/13/2 27/18/2 19/23/2
f 25/14/6 17/22/6 20/26/6 28/17/6
f 136/31/18 134/32/19 133/33/20 135/34/21
f 14/28/16 135/34/22 133/35/23 13/30/17
f 16/29/24 134/36/25 136/31/25 15/27/26
f 133/33/20 134/32/19 16/37/27 13/38/27
f 14/28/13 15/27/12 136/31/18 135/34/21
