# Blender 4.1.0
# www.blender.org
mtllib MeshWindowBay_3_0_GeomSubset_1.mtl
o MeshWindowBay_3_0_GeomSubset_1
v 0.000139 0.275002 0.237418
v -0.253591 0.275001 0.237418
v 0.000139 0.275002 0.269828
v -0.253591 0.275001 0.269828
v 0.000139 0.258141 0.269828
v -0.253591 0.258141 0.269828
v 0.000139 0.258141 0.237418
v -0.253591 0.258141 0.237418
v 0.253871 0.275002 0.237418
v 0.253871 0.275002 0.269828
v 0.253871 0.258142 0.269828
v 0.253871 0.258142 0.237418
v 0.487298 0.089804 0.732904
v 0.510215 0.066887 0.732904
v 0.495567 0.052239 0.732904
v 0.472650 0.075157 0.732904
v 0.487298 0.089804 -0.683746
v 0.510215 0.066887 -0.683746
v 0.495567 0.052239 -0.683746
v 0.472650 0.075157 -0.683746
v -0.496685 0.076856 0.273901
v -0.334523 0.239018 0.273901
v -0.496685 0.076856 0.241491
v -0.334523 0.239018 0.241491
v -0.484763 0.064934 0.241491
v -0.322601 0.227096 0.241491
v -0.484763 0.064934 0.273901
v -0.322601 0.227096 0.273901
v -0.658846 -0.085306 0.273901
v -0.658846 -0.085306 0.241491
v -0.646924 -0.097227 0.241491
v -0.646924 -0.097227 0.273901
v -0.510437 0.067692 0.732904
v -0.487520 0.090609 0.732904
v -0.471379 0.074468 0.732904
v -0.494296 0.051551 0.732904
v -0.510437 0.067692 -0.683746
v -0.487520 0.090609 -0.683746
v -0.471379 0.074468 -0.683746
v -0.494296 0.051551 -0.683746
v 0.000139 0.288695 -0.805110
v 0.000139 0.288695 -0.696361
v 0.000139 0.288695 0.727011
v 0.000139 0.288695 0.766511
v 0.000139 0.244695 -0.696361
v 0.000139 0.244695 -0.805110
v 0.000139 0.244695 0.727011
v 0.000139 0.244695 0.766511
v 0.000139 0.288695 0.809899
v 0.000139 0.244695 0.809899
v 0.000140 -0.144510 -0.805110
v 0.000140 -0.144510 0.809899
v 0.000140 -0.226588 -0.805110
v 0.000140 -0.226588 0.809899
v 0.000140 -0.144510 -0.721361
v 0.000139 0.244695 -0.721361
v 0.000140 -0.226588 -0.721361
v 0.000140 -0.144510 0.766511
v 0.000140 -0.226588 0.766511
v 0.000139 0.288695 -0.721361
v 0.000139 0.254695 -0.696361
v 0.000139 0.278695 -0.696361
v 0.000139 0.278695 0.727011
v 0.000139 0.254695 0.727011
v 0.000139 0.254695 -0.677361
v 0.000139 0.278695 -0.677361
v 0.000139 0.278695 0.708011
v 0.000139 0.254695 0.708011
v 0.000140 0.225914 -0.721361
v 0.000140 0.225914 0.766511
v 0.000140 -0.255638 -0.805110
v 0.000140 -0.284848 -0.721361
v 0.000140 -0.284848 -0.748889
v 0.000139 0.288695 -0.748889
v 0.000139 0.261696 0.708011
v 0.000139 0.261696 -0.677361
v 0.000139 0.271696 -0.677361
v 0.000139 0.271696 0.708011
v 0.304281 0.288696 -0.696361
v 0.674625 -0.082992 -0.696361
v 0.304281 0.288696 0.727011
v 0.674625 -0.082992 0.727011
v 0.304281 0.288696 -0.805110
v 0.705030 -0.113398 -0.805110
v 0.304281 0.288696 0.766511
v 0.705030 -0.113398 0.766511
v 0.335950 0.257027 -0.805110
v 0.335950 0.257027 -0.696361
v 0.335950 0.257027 0.727011
v 0.335950 0.257027 0.766511
v 0.261100 0.288696 -0.805110
v 0.261100 0.288696 -0.696361
v 0.261100 0.288696 0.727011
v 0.261100 0.288696 0.766511
v 0.286056 0.244696 -0.696361
v 0.304837 0.225914 -0.696361
v 0.304837 0.225914 0.727011
v 0.286056 0.244696 0.727011
v 0.286056 0.244696 -0.805110
v 0.304837 0.225914 0.766511
v 0.286056 0.244696 0.766511
v 0.643512 -0.114105 -0.696361
v 0.643512 -0.114105 0.727011
v 0.673918 -0.144511 -0.805110
v 0.673918 -0.144512 0.766511
v 0.261100 0.244696 -0.696361
v 0.261100 0.244696 0.727011
v 0.261100 0.244696 0.766511
v 0.304281 0.288696 0.809899
v 0.335950 0.257027 0.809899
v 0.286056 0.244696 0.809899
v 0.261100 0.288696 0.809899
v 0.705030 -0.113398 0.809899
v 0.673918 -0.144512 0.809899
v 0.286057 -0.144509 -0.805110
v 0.673918 -0.144512 -0.721361
v 0.286057 -0.144509 0.809899
v 0.705030 -0.113398 -0.721361
v 0.286057 -0.226588 -0.805110
v 0.673918 -0.226590 -0.805110
v 0.673918 -0.226590 -0.721361
v 0.705030 -0.226590 -0.805110
v 0.705030 -0.226590 -0.721361
v 0.286057 -0.226588 0.809899
v 0.673918 -0.226590 0.809899
v 0.673918 -0.226590 0.766511
v 0.705030 -0.226590 0.809899
v 0.705030 -0.226590 0.766511
v 0.304837 0.225914 -0.721361
v 0.286057 -0.144509 -0.721361
v 0.286056 0.244696 -0.721361
v 0.261100 0.244696 -0.721361
v 0.286057 -0.226588 -0.721361
v 0.286057 -0.144509 0.766511
v 0.286056 0.225914 0.766511
v 0.286057 -0.226588 0.766511
v 0.286056 0.225914 -0.721361
v 0.335950 0.257027 -0.721361
v 0.304281 0.288696 -0.721361
v 0.261100 0.288696 -0.721361
v 0.328879 0.249956 -0.696361
v 0.311909 0.232985 -0.696361
v 0.311909 0.232985 0.727011
v 0.328879 0.249956 0.727011
v 0.667554 -0.090063 0.727011
v 0.650583 -0.107034 0.727011
v 0.650583 -0.107034 -0.696361
v 0.667554 -0.090063 -0.696361
v 0.261100 0.278696 -0.696361
v 0.261100 0.254696 -0.696361
v 0.261100 0.254696 0.727011
v 0.261100 0.278696 0.727011
v 0.342314 0.236521 -0.677361
v 0.325344 0.219550 -0.677361
v 0.325344 0.219550 0.708011
v 0.342314 0.236521 0.708011
v 0.654119 -0.076628 0.708011
v 0.637148 -0.093599 0.708011
v 0.637148 -0.093599 -0.677361
v 0.654119 -0.076628 -0.677361
v 0.242100 0.278696 -0.677361
v 0.242100 0.254696 -0.677361
v 0.242100 0.254696 0.708011
v 0.242100 0.278696 0.708011
v 0.286057 -0.255638 -0.805110
v 0.673918 -0.255640 -0.805110
v 0.286057 -0.284848 -0.721361
v 0.673918 -0.284850 -0.721361
v 0.705030 -0.255641 -0.805110
v 0.705030 -0.284850 -0.721361
v 0.286057 -0.284848 -0.748889
v 0.673918 -0.284850 -0.748889
v 0.705030 -0.284850 -0.748889
v 0.705030 -0.226590 -0.748889
v 0.705030 -0.113398 -0.748889
v 0.335950 0.257027 -0.748889
v 0.304281 0.288696 -0.748889
v 0.261100 0.288696 -0.748889
v 0.242100 0.271696 -0.677361
v 0.242100 0.271696 0.708011
v 0.242100 0.261696 0.708011
v 0.242100 0.261696 -0.677361
v 0.337280 0.231521 -0.677361
v 0.649101 -0.081645 -0.677361
v 0.337280 0.231521 0.708011
v 0.649101 -0.081645 0.708011
v 0.330209 0.224450 0.708011
v 0.642029 -0.088716 0.708011
v 0.330209 0.224450 -0.677361
v 0.642029 -0.088716 -0.677361
v -0.304002 0.288695 -0.696361
v -0.674345 -0.082993 -0.696361
v -0.304002 0.288695 0.727011
v -0.674345 -0.082993 0.727011
v -0.304002 0.288695 -0.805110
v -0.704750 -0.113399 -0.805110
v -0.304002 0.288695 0.766511
v -0.704750 -0.113399 0.766511
v -0.335671 0.257026 -0.805110
v -0.335671 0.257026 -0.696361
v -0.335671 0.257026 0.727011
v -0.335671 0.257026 0.766511
v -0.260821 0.288695 -0.805110
v -0.260821 0.288695 -0.696361
v -0.260821 0.288695 0.727011
v -0.260821 0.288695 0.766511
v -0.285777 0.244695 -0.696361
v -0.304558 0.225914 -0.696361
v -0.304558 0.225914 0.727011
v -0.285777 0.244695 0.727011
v -0.285777 0.244695 -0.805110
v -0.304558 0.225914 0.766511
v -0.285777 0.244695 0.766511
v -0.643232 -0.114106 -0.696361
v -0.643232 -0.114106 0.727011
v -0.673637 -0.144513 -0.805110
v -0.673638 -0.144513 0.766511
v -0.260821 0.244695 -0.696361
v -0.260821 0.244695 0.727011
v -0.260821 0.244695 0.766511
v -0.304002 0.288695 0.809899
v -0.335671 0.257026 0.809899
v -0.285777 0.244695 0.809899
v -0.260821 0.288695 0.809899
v -0.704750 -0.113399 0.809899
v -0.673638 -0.144513 0.809899
v -0.285777 -0.144510 -0.805110
v -0.673637 -0.144513 -0.721361
v -0.285777 -0.144510 0.809899
v -0.704750 -0.113399 -0.721361
v -0.285777 -0.226588 -0.805110
v -0.673637 -0.226591 -0.805110
v -0.673637 -0.226592 -0.721361
v -0.704750 -0.226592 -0.805110
v -0.704750 -0.226592 -0.721361
v -0.285777 -0.226589 0.809899
v -0.673638 -0.226592 0.809899
v -0.673638 -0.226592 0.766511
v -0.704750 -0.226592 0.809899
v -0.704750 -0.226592 0.766511
v -0.304558 0.225914 -0.721361
v -0.285777 -0.144510 -0.721361
v -0.285777 0.244695 -0.721361
v -0.260821 0.244695 -0.721361
v -0.285777 -0.226588 -0.721361
v -0.285777 -0.144510 0.766511
v -0.285777 0.225914 0.766511
v -0.285777 -0.226589 0.766511
v -0.285777 0.225914 -0.721361
v -0.335671 0.257026 -0.721361
v -0.304002 0.288695 -0.721361
v -0.260821 0.288695 -0.721361
v -0.328600 0.249955 -0.696361
v -0.311630 0.232985 -0.696361
v -0.311630 0.232985 0.727011
v -0.328600 0.249955 0.727011
v -0.667274 -0.090064 0.727011
v -0.650303 -0.107035 0.727011
v -0.650303 -0.107035 -0.696361
v -0.667274 -0.090064 -0.696361
v -0.260821 0.278695 -0.696361
v -0.260821 0.254695 -0.696361
v -0.260821 0.254695 0.727011
v -0.260821 0.278695 0.727011
v -0.342035 0.236520 -0.677361
v -0.325065 0.219550 -0.677361
v -0.325065 0.219550 0.708011
v -0.342035 0.236520 0.708011
v -0.653839 -0.076630 0.708011
v -0.636868 -0.093600 0.708011
v -0.636868 -0.093600 -0.677361
v -0.653839 -0.076630 -0.677361
v -0.241821 0.278695 -0.677361
v -0.241821 0.254695 -0.677361
v -0.241821 0.254695 0.708011
v -0.241821 0.278695 0.708011
v -0.285777 -0.255639 -0.805110
v -0.673637 -0.255642 -0.805110
v -0.285777 -0.284848 -0.721361
v -0.673637 -0.284852 -0.721361
v -0.704750 -0.255642 -0.805110
v -0.704750 -0.284852 -0.721361
v -0.285777 -0.284848 -0.748889
v -0.673637 -0.284851 -0.748889
v -0.704750 -0.284852 -0.748889
v -0.704750 -0.226592 -0.748889
v -0.704750 -0.113399 -0.748889
v -0.335671 0.257026 -0.748889
v -0.304002 0.288695 -0.748889
v -0.260821 0.288695 -0.748889
v -0.241821 0.271696 -0.677361
v -0.241821 0.271696 0.708011
v -0.241821 0.261696 0.708011
v -0.241821 0.261696 -0.677361
v -0.337000 0.231521 -0.677361
v -0.648821 -0.081646 -0.677361
v -0.337000 0.231521 0.708011
v -0.648821 -0.081646 0.708011
v -0.329930 0.224449 0.708011
v -0.641750 -0.088717 0.708011
v -0.329930 0.224449 -0.677361
v -0.641750 -0.088717 -0.677361
v 0.497268 0.076857 0.273901
v 0.659430 -0.085304 0.273901
v 0.497268 0.076857 0.241491
v 0.659430 -0.085304 0.241491
v 0.485346 0.064935 0.241491
v 0.647508 -0.097226 0.241491
v 0.485346 0.064935 0.273901
v 0.647508 -0.097226 0.273901
v 0.335107 0.239019 0.273901
v 0.335107 0.239019 0.241491
v 0.323185 0.227097 0.241491
v 0.323185 0.227097 0.273901
v -0.016065 0.276770 0.732904
v 0.016344 0.276770 0.732904
v 0.016344 0.256015 0.732904
v -0.016065 0.256015 0.732904
v -0.016065 0.276770 -0.683746
v 0.016344 0.276770 -0.683746
v 0.016344 0.256015 -0.683746
v -0.016065 0.256015 -0.683746
v 0.497268 0.076857 -0.228178
v 0.659430 -0.085304 -0.228178
v 0.497268 0.076857 -0.260588
v 0.659430 -0.085304 -0.260588
v 0.485346 0.064935 -0.260588
v 0.647508 -0.097226 -0.260588
v 0.485346 0.064935 -0.228178
v 0.647508 -0.097226 -0.228178
v 0.335107 0.239019 -0.228178
v 0.335107 0.239019 -0.260588
v 0.323185 0.227097 -0.260588
v 0.323185 0.227097 -0.228178
v 0.000139 0.275002 -0.260562
v -0.253591 0.275001 -0.260562
v 0.000139 0.275002 -0.228152
v -0.253591 0.275001 -0.228152
v 0.000139 0.258141 -0.228152
v -0.253591 0.258141 -0.228152
v 0.000139 0.258141 -0.260562
v -0.253591 0.258141 -0.260562
v 0.253871 0.275002 -0.260562
v 0.253871 0.275002 -0.228152
v 0.253871 0.258142 -0.228152
v 0.253871 0.258142 -0.260562
v -0.496685 0.076856 -0.228178
v -0.334523 0.239018 -0.228178
v -0.496685 0.076856 -0.260588
v -0.334523 0.239018 -0.260588
v -0.484763 0.064934 -0.260588
v -0.322601 0.227096 -0.260588
v -0.484763 0.064934 -0.228178
v -0.322601 0.227096 -0.228178
v -0.658846 -0.085306 -0.228178
v -0.658846 -0.085306 -0.260588
v -0.646924 -0.097227 -0.260588
v -0.646924 -0.097227 -0.228178
vn 1.0000 -0.0000 -0.0000
vn 0.7086 0.7056 -0.0000
vn -0.0000 -0.0000 1.0000
vn -0.7086 -0.7056 -0.0000
vn -0.0000 -0.0000 -1.0000
vn 0.7071 -0.7072 -0.0000
vn -0.7071 0.7071 -0.0000
vn -0.0000 -1.0000 -0.0000
vn -0.0000 1.0000 -0.0000
vn -1.0000 -0.0000 -0.0000
vn -0.7086 0.7056 -0.0000
vn 0.7086 -0.7056 -0.0000
vn -0.7071 -0.7071 -0.0000
vn 0.7072 0.7070 -0.0000
vt -22.732403 -0.383673
vt -22.732403 0.698672
vt -22.740215 0.698672
vt -22.740215 -0.383673
vt -23.728718 1.448915
vt -23.728718 2.734692
vt -24.132402 2.734692
vt -24.132402 1.448915
vt -19.161419 3.525340
vt -19.153748 3.530863
vt -19.492067 3.775504
vt -19.499741 3.769981
vt -23.483509 2.734666
vt -23.483509 1.448942
vt -23.079842 1.448942
vt -23.079842 2.734666
vt -18.495468 3.742598
vt -18.503143 3.748123
vt -18.841501 3.503452
vt -18.833830 3.497928
vt -24.141520 2.734692
vt -24.141520 1.448915
vt -23.737835 1.448915
vt -23.737835 2.734692
vt -21.715485 1.550641
vt -21.715485 2.632967
vt -21.904516 2.632967
vt -21.904516 1.550641
vt -17.792986 1.328381
vt -17.792986 1.517380
vt -17.800798 1.517380
vt -17.800798 1.328381
vt -21.017731 2.632963
vt -21.206762 2.632963
vt -21.206762 1.550642
vt -21.017731 1.550642
vt -17.727160 1.328381
vt -17.727160 1.517431
vt -17.734972 1.517431
vt -17.734972 1.328381
vt -20.565483 1.550635
vt -20.557671 1.550635
vt -20.557671 2.632970
vt -20.565483 2.632970
vt -20.683834 1.448913
vt -20.280146 1.448913
vt -20.280146 2.734692
vt -20.683834 2.734692
vt -18.175570 2.380898
vt -17.837208 2.625568
vt -17.844883 2.631093
vt -18.183245 2.386422
vt -19.605700 2.630650
vt -20.009369 2.630650
vt -20.009369 1.344930
vt -19.605700 1.344930
vt -17.524981 2.547303
vt -17.186630 2.302639
vt -17.178955 2.308163
vt -17.517307 2.552827
vt -20.271030 1.448913
vt -20.271030 2.734692
vt -20.674719 1.448913
vt -20.674719 2.734692
vt -21.526453 1.550641
vt -21.526453 2.632967
vt -17.800798 1.139381
vt -17.792986 1.139381
vt -20.828699 1.550642
vt -20.828699 2.632963
vt -17.734972 1.139330
vt -17.727160 1.139330
s 1
usemtl M_WindowBay_3_1
f 179/1/1 180/2/1 181/3/1 182/4/1
f 183/5/2 185/6/2 186/7/2 184/8/2
f 185/9/3 187/10/3 188/11/3 186/12/3
f 187/13/4 189/14/4 190/15/4 188/16/4
f 189/17/5 183/18/5 184/19/5 190/20/5
f 184/8/6 186/7/6 188/21/6 190/22/6
f 189/23/7 187/24/7 185/6/7 183/5/7
f 75/25/8 76/26/8 182/27/8 181/28/8
f 77/29/5 179/30/5 182/31/5 76/32/5
f 78/33/9 180/34/9 179/35/9 77/36/9
f 75/37/3 181/38/3 180/39/3 78/40/3
f 291/41/10 294/42/10 293/43/10 292/44/10
f 295/45/11 296/46/11 298/47/11 297/48/11
f 297/49/3 298/50/3 300/51/3 299/52/3
f 299/53/12 300/54/12 302/55/12 301/56/12
f 301/57/5 302/58/5 296/59/5 295/60/5
f 296/46/13 302/61/13 300/62/13 298/47/13
f 301/63/14 295/45/14 297/48/14 299/64/14
f 75/25/8 293/65/8 294/66/8 76/26/8
f 77/29/5 76/32/5 294/67/5 291/68/5
f 78/33/9 77/36/9 291/69/9 292/70/9
f 75/37/3 78/40/3 292/71/3 293/72/3
