# Blender 4.1.1
# www.blender.org
mtllib MeshBox_14_0.mtl
o Box_14
v -0.116430 -0.153150 -0.104036
v -0.116430 0.154290 -0.104036
v 0.113271 -0.153150 -0.104036
v 0.113271 0.154290 -0.104036
v 0.113271 -0.066342 -0.104062
v -0.116430 -0.066342 -0.104062
v 0.113271 0.067109 -0.104062
v -0.116430 0.067109 -0.104062
v -0.119688 -0.153150 -0.104036
v -0.119688 0.154290 -0.104036
v 0.116200 0.154290 -0.104036
v 0.115622 -0.153150 -0.104036
v 0.116200 0.153424 -0.104036
v -0.119688 0.153424 -0.104036
v -0.119688 -0.151937 -0.104036
v 0.115622 -0.151937 -0.104036
v -0.119688 -0.151937 -0.106887
v -0.119688 0.153424 -0.106887
v -0.002548 -0.151937 -0.106887
v -0.002718 0.153424 -0.106887
v 0.115622 -0.151937 -0.106887
v -0.001171 -0.151937 -0.106887
v 0.116200 0.153424 -0.106887
v -0.001341 0.153424 -0.106887
v -0.122046 -0.151937 -0.104036
v -0.122046 0.153424 -0.104034
v 0.117980 -0.151937 -0.104036
v 0.117980 -0.155186 -0.104036
v 0.113271 0.156327 -0.105944
v -0.116430 0.156327 -0.105944
v 0.113271 -0.155186 -0.105944
v -0.116430 -0.155186 -0.105944
v -0.122046 -0.151937 -0.108557
v -0.122046 0.153424 -0.108557
v -0.002548 -0.151937 -0.108557
v -0.002718 0.153424 -0.108557
v 0.113271 -0.066072 -0.105718
v -0.116430 -0.066072 -0.105718
v -0.116430 0.066839 -0.105718
v 0.113271 0.066839 -0.105718
v -0.122046 0.156327 -0.104034
v -0.122046 -0.155186 -0.104034
v 0.118558 0.156327 -0.104036
v 0.118558 0.153424 -0.104036
v 0.117980 -0.151937 -0.108557
v -0.001171 -0.151937 -0.108557
v 0.118558 0.153424 -0.108557
v -0.001341 0.153424 -0.108557
v -0.122046 0.153424 0.040021
v -0.121908 0.153424 0.040257
v -0.121574 0.153424 0.040355
v -0.122046 -0.151937 0.040021
v -0.121908 -0.151937 0.040257
v -0.121574 -0.151937 0.040355
v 0.117980 -0.155186 0.040021
v 0.117841 -0.155067 0.040257
v 0.117508 -0.154779 0.040355
v 0.117980 -0.151937 0.040021
v 0.117841 -0.151937 0.040257
v 0.117508 -0.151937 0.040355
v 0.113271 0.156327 0.038965
v 0.113271 0.156207 0.039201
v 0.113271 0.155919 0.039299
v -0.116430 0.156327 0.038965
v -0.116430 0.156207 0.039201
v -0.116430 0.155919 0.039299
v -0.116430 -0.155186 0.038965
v -0.116430 -0.155067 0.039201
v -0.116430 -0.154779 0.039299
v 0.113271 -0.155186 0.038965
v 0.113271 -0.155067 0.039201
v 0.113271 -0.154779 0.039299
v -0.122046 0.156327 0.040021
v -0.121908 0.156207 0.040257
v -0.121575 0.155919 0.040355
v -0.122046 -0.155186 0.040021
v -0.121908 -0.155067 0.040257
v -0.121575 -0.154779 0.040355
v 0.118558 0.156327 0.040021
v 0.118420 0.156207 0.040257
v 0.118086 0.155919 0.040355
v 0.118558 0.153424 0.040021
v 0.118420 0.153424 0.040257
v 0.118086 0.153424 0.040355
v -0.119688 0.153424 0.040021
v -0.119826 0.153424 0.040257
v -0.120160 0.153424 0.040355
v -0.119688 -0.151937 0.040021
v -0.119826 -0.151937 0.040257
v -0.120160 -0.151937 0.040355
v 0.115622 -0.153150 0.040021
v 0.115760 -0.153270 0.040257
v 0.116093 -0.153557 0.040355
v 0.115622 -0.151937 0.040021
v 0.115760 -0.151937 0.040257
v 0.116093 -0.151937 0.040355
v -0.116430 0.154290 0.038965
v -0.116430 0.154410 0.039201
v -0.116430 0.154697 0.039299
v 0.113271 0.154290 0.038965
v 0.113271 0.154410 0.039201
v 0.113271 0.154697 0.039299
v -0.116430 -0.153150 0.038965
v -0.116430 -0.153270 0.039201
v -0.116430 -0.153557 0.039299
v 0.113271 -0.153150 0.038965
v 0.113271 -0.153270 0.039201
v 0.113271 -0.153557 0.039299
v -0.119688 0.154290 0.040021
v -0.119826 0.154410 0.040257
v -0.120160 0.154697 0.040355
v -0.119688 -0.153150 0.040021
v -0.119826 -0.153270 0.040257
v -0.120160 -0.153557 0.040355
v 0.116200 0.154290 0.040021
v 0.116338 0.154410 0.040257
v 0.116672 0.154697 0.040355
v 0.116200 0.153424 0.040021
v 0.116338 0.153424 0.040257
v 0.116672 0.153424 0.040355
vn -0.0000 -0.0000 1.0000
vn -0.0000 0.1040 0.9946
vn -0.0000 -0.1040 0.9946
vn 1.0000 -0.0000 -0.0000
vn -1.0000 0.0019 -0.0000
vn -1.0000 0.0006 -0.0000
vn -1.0000 0.0007 -0.0000
vn -0.0000 -0.0000 -1.0000
vn -0.0000 -0.1096 -0.9940
vn -0.0000 0.1096 -0.9940
vn -1.0000 -0.0000 -0.0000
vn 1.0000 -0.0007 -0.0000
vn 1.0000 -0.0019 -0.0000
vn -0.0000 1.0000 -0.0000
vn -1.0000 -0.0006 -0.0000
vn -0.0000 -1.0000 -0.0000
vn -0.0000 -0.9870 -0.1608
vn 1.0000 -0.0004 0.0002
vn 1.0000 -0.0005 0.0003
vn 1.0000 0.0004 0.0002
vn 1.0000 0.0005 0.0003
vn -0.0000 0.9870 -0.1609
vn 0.2535 0.5266 0.8115
vn 0.2982 0.5408 0.7866
vn 0.2562 0.5275 0.8100
vn 0.2906 0.5385 0.7909
vn 0.2664 -0.5309 0.8045
vn 0.2338 -0.5200 0.8215
vn 0.2610 -0.5291 0.8074
vn 0.2359 -0.5207 0.8205
vn -0.2579 0.5283 0.8089
vn -0.2333 0.5201 0.8216
vn -0.2534 0.5269 0.8113
vn -0.2351 0.5207 0.8207
vn -0.3052 -0.5432 0.7822
vn -0.3591 -0.5583 0.7478
vn -0.3106 -0.5448 0.7789
vn -0.3476 -0.5553 0.7555
vn 0.0008 -0.0000 1.0000
vn 0.0001 0.0007 1.0000
vn 1.0000 0.0006 -0.0000
vn 0.8836 -0.0000 -0.4682
vn -0.9194 -0.0000 -0.3932
vn -0.8835 0.0008 -0.4685
vn 0.0362 -0.9199 -0.3904
vn -0.0344 -0.9192 -0.3923
vn -0.0344 0.9193 -0.3921
vn 0.0399 0.9213 -0.3869
vn -0.0719 -0.9228 -0.3784
vn -0.0719 0.9230 -0.3780
vn 0.0769 -0.9217 -0.3801
vn 0.0874 0.9191 -0.3843
vn -0.8838 -0.0000 -0.4679
vn -0.9196 -0.0000 -0.3928
vn 0.9195 -0.0000 -0.3930
vn -0.8836 -0.0000 -0.4682
vn 0.8612 -0.0000 -0.5083
vn 0.8837 -0.0000 -0.4681
vn -0.0594 0.9147 -0.3999
vn 0.0649 0.9154 -0.3972
vn 0.0773 -0.9172 -0.3908
vn -0.0594 -0.9146 -0.3999
vn -0.1765 0.8121 -0.5562
vn -0.1764 -0.8121 -0.5562
vn 0.1988 0.8010 -0.5647
vn 0.2547 -0.7707 -0.5841
vn 0.8610 -0.0000 -0.5086
vn 0.8834 -0.0008 -0.4686
vn -0.8612 -0.0000 -0.5083
vn 0.2001 0.0172 -0.9796
vn 0.2202 -0.0001 -0.9754
vn -0.2200 0.0002 -0.9755
vn -0.0539 0.1964 -0.9790
vn -0.2565 0.1166 -0.9595
vn -0.1552 0.0092 -0.9878
vn 0.0902 -0.1728 -0.9808
vn -0.1973 -0.3625 -0.9108
vn -0.1623 -0.0050 -0.9867
vn -0.2564 -0.1164 -0.9595
vn -0.1974 0.3623 -0.9109
vn 0.0815 0.1806 -0.9802
vn 0.1659 0.0029 -0.9861
vn 0.2804 0.1030 -0.9543
vn 0.2114 -0.3703 -0.9045
vn -0.0820 -0.1775 -0.9807
vn 0.3348 -0.0714 -0.9396
vn 0.2415 0.3867 -0.8900
vn 0.2201 -0.0002 -0.9755
vn -0.2200 0.0001 -0.9755
vn -0.2201 -0.0000 -0.9755
vn 0.2200 -0.0000 -0.9755
vn 0.6446 -0.0000 -0.7646
vn 0.4698 0.4034 -0.7852
vn -0.4404 0.4282 -0.7891
vn -0.6444 0.0002 -0.7647
vn -0.6446 0.0002 -0.7645
vn 0.1299 -0.7279 -0.6733
vn -0.1224 -0.7248 -0.6780
vn 0.4834 -0.3878 -0.7848
vn -0.1224 0.7248 -0.6780
vn 0.1457 0.7335 -0.6639
vn -0.4745 -0.3960 -0.7861
vn -0.6447 -0.0000 -0.7645
vn -0.4688 0.1264 -0.8742
vn -0.6447 -0.0000 -0.7644
vn 0.4782 -0.1365 -0.8676
vn 0.2933 -0.6088 -0.7371
vn 0.6447 -0.0006 -0.7644
vn -0.2140 0.6305 -0.7461
vn 0.2374 0.6246 -0.7440
vn 0.4726 0.1265 -0.8722
vn -0.2139 -0.6306 -0.7461
vn -0.4585 -0.1433 -0.8771
vn 0.6446 -0.0002 -0.7645
vt 0.906134 0.944499
vt 0.596053 0.944499
vt 0.596495 0.027027
vt 0.906134 0.027027
vt 0.757445 0.458007
vt 0.757445 1.054051
vt 0.489695 1.054051
vt 0.489695 0.458007
vt 0.793366 1.052718
vt 0.793366 0.456676
vt 1.062237 0.456676
vt 1.062237 1.052718
vt 0.792327 0.948247
vt 0.483149 0.948247
vt 0.481648 0.030775
vt 0.792768 0.030775
vt -0.159478 0.622526
vt -0.176041 0.622526
vt -0.176041 -0.295007
vt -0.159471 -0.295007
vt 0.020998 -0.293963
vt 0.037561 -0.293963
vt 0.037561 0.623571
vt 0.020998 0.623571
vt 0.372403 0.030775
vt 0.676365 0.030775
vt 0.676365 0.948247
vt 0.372844 0.948247
vt 0.591355 0.458008
vt 0.852175 0.458008
vt 0.852175 1.054050
vt 0.591355 1.054050
vt 0.950377 1.052718
vt 0.688437 1.052718
vt 0.688437 0.456677
vt 0.950377 0.456677
vt 0.261620 0.031023
vt 0.564680 0.031023
vt 0.565121 0.948496
vt 0.260119 0.948496
vt 0.443970 -0.295961
vt 0.454414 -0.295961
vt 0.454414 0.621572
vt 0.443970 0.621572
vt 0.645423 0.945216
vt 0.634979 0.945216
vt 0.634979 0.027682
vt 0.645423 0.027682
vt 0.881370 0.864184
vt 0.885353 0.864184
vt 0.892037 0.870868
vt 0.881370 0.870868
vt 0.981092 0.766928
vt 0.981092 1.070911
vt 0.974973 1.070911
vt 0.974973 0.760809
vt 0.349461 0.031022
vt 0.355579 0.031022
vt 0.355579 0.948498
vt 0.349461 0.948498
vt 0.973539 1.070596
vt 0.973539 0.767089
vt 0.979657 0.760971
vt 0.979657 1.070596
vt 0.935644 0.780774
vt 0.935547 1.041568
vt 0.929483 1.042379
vt 0.928653 0.774656
vt 0.980516 1.054045
vt 0.980516 0.455349
vt 0.986607 0.455349
vt 0.986607 1.054045
vt 0.926987 0.775458
vt 0.927084 1.036270
vt 0.920093 1.042388
vt 0.920922 0.774647
vt 0.952765 0.780403
vt 0.952668 1.042328
vt 0.946605 1.043139
vt 0.945775 0.774285
vt 0.875517 0.455349
vt 0.875517 1.054045
vt 0.869426 1.054045
vt 0.869426 0.455349
vt 0.944108 0.775086
vt 0.944205 1.037030
vt 0.937214 1.043148
vt 0.938043 0.774275
vt 0.907122 0.863330
vt 0.907122 0.872543
vt 0.900453 0.872543
vt 0.900453 0.856662
vt 0.913208 0.872488
vt 0.913208 0.863339
vt 0.919830 0.856718
vt 0.919830 0.872488
vt 0.897953 0.857012
vt 0.897953 0.865259
vt 0.891314 0.871897
vt 0.891314 0.857012
vt 0.885353 0.857521
vt 0.892037 0.857521
vt 0.900775 0.865259
vt 0.900775 0.871897
vt 0.909957 0.863330
vt 0.909957 0.856662
vt 0.909263 0.863339
vt 0.909263 0.856718
vt 0.957328 0.761107
vt 0.957328 1.064182
vt 0.951209 1.070300
vt 0.951209 0.761107
vt 0.997298 0.854707
vt 0.997298 0.549728
vt 1.003415 0.549728
vt 1.003415 0.860824
vt 0.347321 0.948496
vt 0.341203 0.948496
vt 0.341203 0.031023
vt 0.347321 0.031023
vt 0.991536 0.766928
vt 0.991536 0.760809
vt 0.963096 0.767089
vt 0.963089 0.760971
vt 0.986855 0.854707
vt 0.986855 0.860824
vt 0.967772 1.064182
vt 0.967772 1.070300
vt 0.368276 0.622526
vt 0.368276 -0.295007
vt 0.565315 -0.303728
vt 0.565315 -0.293963
vt 0.037561 -0.303728
vt 0.511973 0.141298
vt 0.511973 0.737380
vt -0.018906 0.737380
vt -0.018906 0.141298
vt -0.172916 0.958449
vt -0.172916 0.362367
vt 0.357964 0.362367
vt 0.357964 0.958449
vt -0.022773 0.126726
vt 0.504975 0.126726
vt -0.165917 0.347794
vt 0.361831 0.347794
vt 0.504981 0.751100
vt -0.022773 0.751100
vt 0.361831 0.970668
vt -0.165924 0.970668
vt 0.565315 0.623571
vt 0.565315 0.632291
vt 0.037561 0.632291
vt -0.159471 -0.303727
vt 0.368276 -0.303727
vt -0.159471 0.632291
vt 0.368276 0.632291
vt 0.982168 -0.295961
vt 0.982168 0.621572
vt 1.173178 0.948862
vt 0.645423 0.948862
vt 1.173178 0.945216
vt 0.022508 0.461571
vt 0.546397 0.461571
vt 0.546397 1.057654
vt 0.022508 1.057654
vt 0.742126 1.058144
vt 0.218238 1.058144
vt 0.218238 0.462061
vt 0.742127 0.462061
vt 0.022508 0.453118
vt 0.550264 0.453118
vt 0.214371 0.453608
vt 0.742127 0.453608
vt 0.550264 1.065255
vt 0.022508 1.065255
vt 0.742126 1.064245
vt 0.214371 1.064245
vt 0.645423 0.025080
vt 1.173178 0.025080
vt 1.173178 0.027682
vt 0.982168 0.624174
vt 0.454414 0.624174
vt 0.454414 -0.299607
vt 0.982168 -0.299607
vt 0.194102 -0.305244
vt 0.194102 -0.300308
vt 0.190381 -0.300308
vt 0.190381 -0.308966
vt 0.805700 0.633559
vt 0.815508 0.633559
vt 0.819229 0.637280
vt 0.805700 0.637280
vt 0.815508 -0.305244
vt 0.805700 -0.305244
vt 0.805700 -0.308966
vt 0.819229 -0.308966
vt 0.192581 0.633559
vt 0.201526 0.633559
vt 0.201526 0.637280
vt 0.188860 0.637280
vt 0.201526 -0.305244
vt 0.201526 -0.308966
vt 0.192581 0.629682
vt 0.188860 0.629682
vt 0.815508 0.629682
vt 0.819229 0.629682
vt 0.815508 -0.300308
vt 0.819229 -0.300308
vt 0.369141 -0.295007
vt 0.369141 0.622526
vt 0.820106 0.629682
vt 0.820106 -0.300308
vt 0.369141 0.631932
vt 0.820106 -0.309843
vt 0.566181 -0.303369
vt 0.566181 -0.293963
vt 0.189504 -0.309843
vt 0.189504 -0.300308
vt 0.566181 0.623571
vt 0.187983 0.629682
vt -0.019771 0.737380
vt -0.019771 0.141298
vt 0.201526 0.638157
vt 0.805700 0.638157
vt -0.023639 0.127084
vt 0.820106 0.638157
vt 0.358829 0.362367
vt 0.358829 0.958449
vt 0.805700 -0.309843
vt 0.201526 -0.309843
vt 0.362696 0.970310
vt 0.369141 -0.303369
vt 0.362696 0.348153
vt 0.187983 0.638157
vt -0.023639 0.750742
vt 0.566181 0.631933
vt 0.983034 0.621572
vt 0.983034 0.624532
vt 0.814631 0.629682
vt 0.814631 0.632682
vt 0.814631 -0.300308
vt 0.983034 -0.295961
vt 0.213506 1.064603
vt 0.217373 1.058144
vt 0.194979 -0.304367
vt 0.201526 -0.304367
vt 0.194979 -0.300308
vt 1.174043 0.949220
vt 1.174043 0.945216
vt 0.547262 0.461571
vt 0.547262 1.057654
vt 0.805700 0.632682
vt 0.201526 0.632682
vt 0.551129 1.065614
vt 0.193458 0.632682
vt 0.217373 0.462061
vt 0.213506 0.453249
vt 0.805700 -0.304367
vt 0.814631 -0.304367
vt 0.551129 0.452759
vt 0.983034 -0.299965
vt 1.174043 0.024722
vt 1.174043 0.027682
vt 0.193458 0.629682
s 1
usemtl M_Box_14_0
f 33/1/1 35/2/1 36/3/1 34/4/1
f 32/5/2 31/6/2 37/7/2 38/8/2
f 29/9/3 30/10/3 39/11/3 40/12/3
f 46/13/1 45/14/1 47/15/1 48/16/1
f 25/17/4 33/18/4 34/19/4 26/20/4
f 45/21/5 27/22/6 44/23/7 47/24/5
f 19/25/8 17/26/8 18/27/8 20/28/8
f 1/29/9 6/30/9 5/31/9 3/32/9
f 4/33/10 7/34/10 8/35/10 2/36/10
f 21/37/8 22/38/8 24/39/8 23/40/8
f 17/41/11 15/42/11 14/43/11 18/44/11
f 16/45/12 21/46/13 23/47/13 13/48/12
f 16/49/1 12/50/1 28/51/1 27/52/1
f 17/53/14 19/54/14 35/55/14 33/56/14
f 35/57/15 19/58/15 20/59/15 36/60/15
f 20/61/16 18/62/16 34/63/16 36/64/16
f 3/65/11 5/66/11 37/67/11 31/68/11
f 5/69/17 6/70/17 38/71/17 37/72/17
f 6/73/18 1/74/19 32/75/19 38/76/18
f 2/77/20 8/78/20 39/79/20 30/80/21
f 8/81/22 7/82/22 40/83/22 39/84/22
f 7/85/11 4/86/11 29/87/11 40/88/11
f 10/89/23 2/90/24 30/91/25 41/92/26
f 1/93/27 9/94/28 42/95/29 32/96/30
f 4/97/31 11/98/32 43/99/33 29/100/34
f 12/50/35 3/101/36 31/102/37 28/51/38
f 11/98/1 13/103/1 44/104/1 43/99/1
f 14/105/39 10/89/39 41/92/39 26/106/39
f 9/94/40 15/107/40 25/108/40 42/95/40
f 22/109/14 21/110/14 45/111/14 46/112/14
f 23/113/16 24/114/16 48/115/16 47/116/16
f 22/117/41 46/118/41 48/119/41 24/120/41
f 15/121/14 17/53/14 33/56/14 25/122/14
f 18/62/16 14/123/16 26/124/16 34/63/16
f 13/125/16 23/113/16 47/116/16 44/126/16
f 21/110/14 16/127/14 27/128/14 45/111/14
f 52/129/42 25/17/4 26/20/4 49/130/42
f 55/131/43 58/132/44 27/22/6 28/133/11
f 30/134/16 29/135/16 61/136/45 64/137/46
f 31/138/14 32/139/14 67/140/47 70/141/48
f 30/134/16 64/137/46 73/142/49 41/143/16
f 67/140/47 32/139/14 42/144/14 76/145/50
f 61/136/45 29/135/16 43/146/16 79/147/51
f 31/138/14 70/141/48 55/148/52 28/149/14
f 44/23/7 82/150/53 79/151/54 43/152/11
f 49/130/42 26/20/4 41/153/4 73/154/55
f 42/155/4 25/17/4 52/129/42 76/156/55
f 27/22/6 58/132/44 82/150/53 44/23/7
f 15/42/11 88/157/56 85/158/56 14/43/11
f 91/159/57 12/160/4 16/45/12 94/161/58
f 2/162/14 97/163/59 100/164/60 4/165/14
f 3/166/16 106/167/61 103/168/62 1/169/16
f 2/162/14 10/170/14 109/171/63 97/163/59
f 103/168/62 112/172/64 9/173/16 1/169/16
f 100/164/60 115/174/65 11/175/14 4/165/14
f 3/166/16 12/176/16 91/177/66 106/167/61
f 13/48/12 11/178/4 115/179/67 118/180/68
f 85/158/56 109/181/69 10/182/11 14/43/11
f 9/183/11 112/184/69 88/157/56 15/42/11
f 94/161/58 16/45/12 13/48/12 118/180/68
f 93/185/70 96/186/71 60/187/72 57/188/73
f 99/189/74 111/190/75 75/191/76 66/192/77
f 114/193/78 105/194/79 69/195/80 78/196/81
f 117/197/82 102/198/83 63/199/84 81/200/85
f 108/201/86 93/185/70 57/188/73 72/202/87
f 120/203/88 117/197/82 81/200/85 84/204/89
f 111/190/75 87/205/90 51/206/91 75/191/76
f 90/207/90 114/193/78 78/196/81 54/208/91
f 54/208/91 51/206/91 87/205/90 90/207/90
f 66/192/77 63/199/84 102/198/83 99/189/74
f 72/202/87 69/195/80 105/194/79 108/201/86
f 60/187/72 96/186/71 120/203/88 84/204/89
f 49/130/42 50/209/92 53/210/92 52/129/42
f 50/211/92 51/206/91 54/208/91 53/212/92
f 52/129/42 53/210/92 77/213/93 76/156/55
f 53/212/92 54/208/91 78/196/81 77/214/93
f 55/131/43 56/215/94 59/216/95 58/132/44
f 56/217/94 57/188/73 60/187/72 59/218/95
f 58/132/44 59/216/95 83/219/96 82/150/53
f 59/218/95 60/187/72 84/204/89 83/220/96
f 61/136/45 62/221/97 65/222/98 64/137/46
f 62/223/97 63/199/84 66/192/77 65/224/98
f 64/137/46 65/222/98 74/225/99 73/142/49
f 65/224/98 66/192/77 75/191/76 74/226/99
f 67/140/47 68/227/100 71/228/101 70/141/48
f 68/229/100 69/195/80 72/202/87 71/230/101
f 57/188/73 56/217/94 71/230/101 72/202/87
f 56/231/94 55/148/52 70/141/48 71/228/101
f 51/206/91 50/211/92 74/226/99 75/191/76
f 50/209/92 49/130/42 73/154/55 74/232/99
f 69/195/80 68/229/100 77/214/93 78/196/81
f 68/227/100 67/140/47 76/145/50 77/233/93
f 63/199/84 62/223/97 80/234/102 81/200/85
f 62/221/97 61/136/45 79/147/51 80/235/102
f 81/200/85 80/234/102 83/220/96 84/204/89
f 80/236/102 79/151/54 82/150/53 83/219/96
f 85/158/56 86/237/103 110/238/104 109/181/69
f 86/239/103 87/205/90 111/190/75 110/240/104
f 87/205/90 86/239/103 89/241/105 90/207/90
f 86/237/103 85/158/56 88/157/56 89/242/105
f 91/177/66 92/243/106 107/244/107 106/167/61
f 92/245/106 93/185/70 108/201/86 107/246/107
f 93/185/70 92/245/106 95/247/108 96/186/71
f 92/248/106 91/159/57 94/161/58 95/249/108
f 97/163/59 98/250/109 101/251/110 100/164/60
f 98/252/109 99/189/74 102/198/83 101/253/110
f 100/164/60 101/251/110 116/254/111 115/174/65
f 101/253/110 102/198/83 117/197/82 116/255/111
f 103/168/62 104/256/112 113/257/113 112/172/64
f 104/258/112 105/194/79 114/193/78 113/259/113
f 105/194/79 104/258/112 107/246/107 108/201/86
f 104/256/112 103/168/62 106/167/61 107/244/107
f 99/189/74 98/252/109 110/240/104 111/190/75
f 98/250/109 97/163/59 109/171/63 110/260/104
f 90/207/90 89/241/105 113/259/113 114/193/78
f 89/242/105 88/157/56 112/184/69 113/261/113
f 115/179/67 116/262/111 119/263/114 118/180/68
f 116/255/111 117/197/82 120/203/88 119/264/114
f 96/186/71 95/247/108 119/264/114 120/203/88
f 95/249/108 94/161/58 118/180/68 119/263/114
