# Blender 4.1.1
# www.blender.org
mtllib MeshLettuceC1_0.mtl
o LettuceC1
v -0.036648 0.089513 0.017348
v -0.028778 0.089513 0.029126
v -0.017000 0.089513 0.036996
v -0.003107 0.089513 0.039759
v 0.010786 0.089513 0.036996
v 0.022564 0.089512 0.029126
v 0.030434 0.089513 0.017348
v 0.033198 0.089513 0.003455
v 0.030434 0.089513 -0.010439
v 0.022564 0.089513 -0.022217
v 0.010786 0.089513 -0.030087
v -0.003107 0.089513 -0.032850
v -0.017000 0.089513 -0.030087
v -0.028778 0.089513 -0.022217
v -0.036648 0.089513 -0.010439
v -0.039411 0.089513 0.003455
v -0.062918 0.068422 0.027820
v -0.045770 0.068422 0.046117
v -0.026196 0.068422 0.059196
v -0.003107 0.068422 0.063789
v 0.019982 0.068422 0.059196
v 0.039556 0.068422 0.046118
v 0.060437 0.068422 0.031510
v 0.070052 0.068422 0.003455
v 0.060178 0.068422 -0.021774
v 0.040591 0.068422 -0.039516
v 0.019982 0.068422 -0.052287
v -0.003107 0.068422 -0.056880
v -0.026196 0.068422 -0.052287
v -0.045770 0.068422 -0.039208
v -0.058849 0.068422 -0.019635
v -0.063441 0.068422 0.003455
v -0.073332 0.044263 0.033198
v -0.056786 0.044219 0.055301
v -0.029200 0.044165 0.065716
v -0.003145 0.044201 0.071639
v 0.024717 0.044296 0.071198
v 0.050163 0.044251 0.058181
v 0.077870 0.044219 0.036099
v 0.081414 0.044241 0.003412
v 0.076553 0.043996 -0.029526
v 0.049900 0.044123 -0.052741
v 0.028007 0.044249 -0.070476
v -0.003362 0.044407 -0.070411
v -0.031349 0.044336 -0.064236
v -0.051677 0.044177 -0.045074
v -0.065857 0.044139 -0.022519
v -0.072328 0.044173 0.003702
v -0.079554 0.023056 0.034167
v -0.063860 0.023082 0.058318
v -0.036098 0.023070 0.072809
v -0.007256 0.022759 0.076184
v 0.022014 0.023219 0.074175
v 0.051495 0.023236 0.061099
v 0.077941 0.023302 0.035694
v 0.086149 0.023195 0.003430
v 0.079363 0.022961 -0.029334
v 0.055058 0.023361 -0.057893
v 0.028367 0.023130 -0.071598
v -0.006533 0.023211 -0.078374
v -0.036656 0.023240 -0.067427
v -0.061008 0.023151 -0.050255
v -0.076548 0.023029 -0.025232
v -0.086149 0.023456 0.003353
v -0.080927 0.001724 0.033984
v -0.063809 0.001711 0.059940
v -0.036140 0.001701 0.072862
v -0.007295 0.001568 0.078374
v 0.022581 0.001597 0.074806
v 0.052369 0.001650 0.061192
v 0.079461 0.001683 0.033955
v 0.084370 0.001845 0.003401
v 0.082876 0.001304 -0.028728
v 0.052817 0.001767 -0.056685
v 0.026717 0.001781 -0.073285
v -0.007264 0.001665 -0.077195
v -0.037535 0.001675 -0.069647
v -0.064200 0.001634 -0.053447
v -0.077237 0.001577 -0.025513
v -0.084366 0.001687 0.003521
v -0.071678 -0.019208 0.031111
v -0.060635 -0.019489 0.059053
v -0.033112 -0.019268 0.071519
v -0.004917 -0.019235 0.076058
v 0.023928 -0.019316 0.072555
v 0.052362 -0.019261 0.058618
v 0.078747 -0.019353 0.032762
v 0.083350 -0.019355 0.003493
v 0.078847 -0.019435 -0.025866
v 0.052695 -0.019391 -0.054251
v 0.027771 -0.019357 -0.070181
v -0.004822 -0.019369 -0.071939
v -0.032919 -0.019240 -0.064142
v -0.057483 -0.019330 -0.049104
v -0.071701 -0.019188 -0.024206
v -0.076154 -0.019108 0.003457
v -0.062963 -0.037418 0.027410
v -0.051457 -0.037933 0.050040
v -0.029049 -0.037520 0.061497
v -0.004900 -0.037778 0.067883
v 0.019751 -0.037672 0.062898
v 0.051008 -0.037168 0.049705
v 0.069650 -0.037588 0.031178
v 0.071198 -0.037725 0.003404
v 0.066081 -0.037658 -0.021473
v 0.042951 -0.037790 -0.045999
v 0.022384 -0.038543 -0.061494
v -0.004841 -0.038111 -0.063501
v -0.028751 -0.037450 -0.053951
v -0.048996 -0.037352 -0.040640
v -0.062067 -0.037329 -0.020272
v -0.065639 -0.037145 0.003335
v -0.043113 -0.069308 0.016015
v -0.037401 -0.069775 0.031385
v -0.022556 -0.069611 0.038044
v -0.007296 -0.069931 0.043724
v 0.007595 -0.069450 0.037034
v 0.022779 -0.069876 0.031469
v 0.031377 -0.069728 0.016499
v 0.039296 -0.070535 0.001348
v 0.029004 -0.069310 -0.013818
v 0.020386 -0.069500 -0.026457
v 0.008963 -0.069965 -0.038032
v -0.007295 -0.069585 -0.036673
v -0.021466 -0.069394 -0.033082
v -0.032532 -0.069464 -0.024150
v -0.042048 -0.069350 -0.013249
v -0.043559 -0.069316 0.001105
v -0.019580 -0.100658 0.002481
v -0.016690 -0.100658 0.006787
v -0.012377 -0.100658 0.009661
v -0.007295 -0.100658 0.010670
v -0.002214 -0.100658 0.009661
v 0.002099 -0.100658 0.006787
v 0.004989 -0.100658 0.002481
v 0.006014 -0.100658 -0.002608
v 0.005014 -0.100658 -0.007707
v 0.001957 -0.099864 -0.011857
v -0.002323 -0.099569 -0.014605
v -0.007295 -0.099807 -0.015674
v -0.012354 -0.100263 -0.014818
v -0.016592 -0.100060 -0.011902
v -0.019475 -0.100197 -0.007651
v -0.020605 -0.100658 -0.002608
v -0.003107 0.100658 0.003455
v -0.007295 -0.100658 -0.002602
v -0.026656 -0.083551 0.019538
v -0.032792 -0.083594 0.010754
v -0.035765 -0.083751 0.000250
v -0.032925 -0.083607 -0.010411
v -0.026907 -0.083708 -0.019415
v -0.017056 -0.083696 -0.023529
v -0.007295 -0.083829 -0.026948
v 0.004407 -0.084346 -0.027909
v 0.013379 -0.083965 -0.020389
v 0.018887 -0.083743 -0.010605
v 0.025828 -0.085039 0.000420
v 0.019220 -0.084260 0.010510
v 0.013421 -0.084083 0.021007
v 0.003578 -0.083876 0.026486
v -0.007295 -0.084210 0.029644
v -0.018416 -0.084108 0.027116
v -0.020846 -0.094876 0.011952
v -0.025432 -0.095441 0.005910
v -0.027020 -0.095556 -0.001603
v -0.024261 -0.094206 -0.008621
v -0.020324 -0.094344 -0.014622
v -0.014971 -0.095877 -0.020135
v -0.007295 -0.095500 -0.021241
v 0.000119 -0.095257 -0.019500
v 0.006526 -0.095403 -0.015423
v 0.011252 -0.095914 -0.009288
v 0.013097 -0.096264 -0.001607
v 0.010599 -0.095146 0.005812
v 0.007084 -0.096261 0.012772
v 0.000247 -0.095518 0.016608
v -0.007295 -0.095106 0.017777
v -0.014876 -0.095638 0.016698
v 0.036581 -0.056246 0.040195
v 0.012498 -0.056123 0.049927
v -0.007202 -0.056436 0.055093
v -0.026723 -0.056037 0.049443
v -0.044300 -0.056394 0.039506
v -0.051971 -0.055615 0.020829
v -0.054669 -0.055426 0.002275
v -0.052169 -0.055690 -0.016303
v -0.040048 -0.055351 -0.030564
v -0.026112 -0.055799 -0.043248
v -0.007226 -0.056194 -0.049190
v 0.014165 -0.057175 -0.049105
v 0.030058 -0.056265 -0.035838
v 0.047199 -0.056744 -0.017925
v 0.053047 -0.057519 0.002334
v 0.051997 -0.057830 0.025432
vn 0.3942 -0.9046 -0.1620
vn 0.3015 -0.8962 -0.3255
vn 0.4992 -0.6130 -0.6124
vn 0.7445 -0.6115 -0.2679
vn 0.1724 -0.8928 -0.4162
vn 0.2880 -0.5577 -0.7785
vn -0.0000 -0.8928 -0.4505
vn 0.0314 -0.5574 -0.8296
vn -0.1724 -0.8928 -0.4162
vn -0.2614 -0.6132 -0.7454
vn -0.2851 -0.8990 -0.3324
vn -0.4329 -0.6664 -0.6071
vn -0.3397 -0.9202 -0.1942
vn -0.5971 -0.6916 -0.4065
vn -0.3702 -0.9289 0.0068
vn -0.7268 -0.6866 0.0156
vn -0.3497 -0.9180 0.1870
vn -0.6140 -0.6979 0.3686
vn -0.2869 -0.9008 0.3259
vn -0.4575 -0.6889 0.5623
vn -0.1677 -0.8937 0.4161
vn -0.2608 -0.6789 0.6864
vn -0.0000 -0.8928 0.4505
vn 0.0310 -0.6447 0.7638
vn 0.1724 -0.8928 0.4162
vn 0.3300 -0.6087 0.7215
vn 0.3185 -0.8928 0.3185
vn 0.6047 -0.5636 0.5627
vn 0.4162 -0.8928 0.1724
vn 0.7739 -0.5442 0.3238
vn 0.4435 -0.8961 0.0173
vn 0.8176 -0.5704 0.0783
vn 0.5789 -0.3786 -0.7221
vn 0.8547 -0.4041 -0.3259
vn 0.2801 -0.3276 -0.9024
vn 0.0526 -0.2824 -0.9579
vn -0.2640 -0.2897 -0.9200
vn -0.5228 -0.2971 -0.7990
vn -0.8286 -0.2992 -0.4731
vn -0.9479 -0.3184 0.0070
vn -0.8199 -0.3591 0.4459
vn -0.5752 -0.3815 0.7236
vn -0.3202 -0.3790 0.8682
vn 0.0714 -0.3826 0.9212
vn 0.4104 -0.3822 0.8279
vn 0.6884 -0.3790 0.6185
vn 0.8386 -0.3994 0.3704
vn 0.9059 -0.4115 0.0998
vn 0.6583 -0.1803 -0.7308
vn 0.9144 -0.1938 -0.3553
vn 0.2942 -0.1805 -0.9386
vn 0.0506 -0.1508 -0.9873
vn -0.2305 -0.0989 -0.9680
vn -0.5451 -0.0577 -0.8364
vn -0.8771 -0.0473 -0.4779
vn -0.9968 -0.0771 -0.0221
vn -0.8973 -0.1090 0.4278
vn -0.6145 -0.0939 0.7833
vn -0.3482 -0.0934 0.9327
vn 0.0903 -0.1385 0.9862
vn 0.4439 -0.2151 0.8699
vn 0.7182 -0.2727 0.6402
vn 0.8880 -0.2617 0.3781
vn 0.9718 -0.2238 0.0738
vn 0.6740 0.0849 -0.7338
vn 0.9300 0.1612 -0.3303
vn 0.3005 0.0330 -0.9532
vn 0.0348 0.0232 -0.9991
vn -0.2564 0.0242 -0.9663
vn -0.5583 0.0326 -0.8290
vn -0.8970 0.0330 -0.4409
vn -0.9986 0.0381 -0.0364
vn -0.9142 0.0656 0.3999
vn -0.6030 0.0737 0.7943
vn -0.3232 0.0821 0.9428
vn 0.0927 0.1122 0.9893
vn 0.4097 0.1064 0.9060
vn 0.7356 0.0916 0.6712
vn 0.9267 0.1352 0.3506
vn 0.9811 0.1872 0.0490
vn 0.6425 0.3727 -0.6695
vn 0.8674 0.4249 -0.2588
vn 0.2852 0.3088 -0.9074
vn 0.0205 0.2865 -0.9579
vn -0.2715 0.2806 -0.9206
vn -0.5427 0.2678 -0.7961
vn -0.8727 0.2729 -0.4048
vn -0.9473 0.3203 -0.0044
vn -0.8544 0.3668 0.3681
vn -0.5969 0.3412 0.7262
vn -0.3276 0.3167 0.8902
vn 0.1009 0.3452 0.9331
vn 0.3709 0.4041 0.8362
vn 0.6502 0.4329 0.6244
vn 0.8562 0.4172 0.3047
vn 0.9048 0.4253 0.0216
vn 0.5965 0.5550 -0.5798
vn 0.8258 0.5162 -0.2272
vn 0.2878 0.5205 -0.8039
vn 0.0173 0.5163 -0.8562
vn -0.2441 0.5297 -0.8123
vn -0.4959 0.5248 -0.6919
vn -0.7387 0.5611 -0.3735
vn -0.7925 0.6079 0.0491
vn -0.6988 0.6305 0.3378
vn -0.5313 0.5933 0.6048
vn -0.2822 0.5583 0.7802
vn 0.1302 0.5106 0.8499
vn 0.3904 0.5228 0.7578
vn 0.6019 0.5403 0.5881
vn 0.7978 0.5227 0.3003
vn 0.8643 0.5030 0.0071
vn 0.5921 0.6063 -0.5309
vn 0.7999 0.5684 -0.1927
vn 0.3040 0.6033 -0.7373
vn 0.0179 0.6350 -0.7723
vn -0.2422 0.6551 -0.7157
vn -0.3822 0.7225 -0.5761
vn -0.5746 0.7610 -0.3013
vn -0.6468 0.7585 0.0798
vn -0.5863 0.7255 0.3604
vn -0.5065 0.6955 0.5096
vn -0.2481 0.6771 0.6928
vn 0.1494 0.6217 0.7689
vn 0.3987 0.5947 0.6981
vn 0.5867 0.5702 0.5750
vn 0.7547 0.5765 0.3131
vn 0.8232 0.5677 0.0093
vn 0.7690 0.6096 -0.1925
vn 0.5636 0.6675 -0.4866
vn 0.5659 0.6595 -0.4947
vn 0.7332 0.6131 -0.2941
vn 0.3045 0.6620 -0.6849
vn 0.3193 0.6892 -0.6504
vn -0.0128 0.6787 -0.7343
vn -0.0265 0.6953 -0.7183
vn -0.2753 0.6648 -0.6945
vn -0.2664 0.6667 -0.6960
vn -0.4022 0.7289 -0.5541
vn -0.4991 0.6751 -0.5433
vn -0.5823 0.7388 -0.3394
vn -0.6444 0.6695 -0.3695
vn -0.6467 0.7599 0.0663
vn -0.7145 0.6996 0.0086
vn -0.6272 0.6482 0.4318
vn -0.6967 0.5726 0.4321
vn -0.5900 0.6330 0.5012
vn -0.6202 0.5773 0.5311
vn -0.2500 0.6593 0.7091
vn -0.2641 0.5973 0.7573
vn 0.1555 0.6067 0.7796
vn 0.1290 0.4991 0.8569
vn 0.3679 0.5874 0.7208
vn 0.3704 0.4642 0.8046
vn 0.5775 0.5464 0.6066
vn 0.5892 0.5352 0.6054
vn 0.7545 0.5623 0.3384
vn 0.7439 0.5646 0.3576
vn 0.8242 0.5662 0.0134
vn 0.8185 0.5740 0.0240
vn -0.0000 -1.0000 -0.0000
vn 0.2802 0.9512 -0.1293
vn 0.2262 0.9499 -0.2156
vn 0.0001 0.9995 0.0322
vn 0.1179 0.9588 -0.2583
vn -0.0032 0.9576 -0.2880
vn -0.0760 0.9627 -0.2598
vn -0.1947 0.9661 -0.1696
vn -0.2711 0.9559 -0.1132
vn -0.2756 0.9612 -0.0123
vn -0.2410 0.9504 0.1964
vn -0.1769 0.9307 0.3202
vn -0.1384 0.9296 0.3415
vn -0.0697 0.9331 0.3527
vn 0.1451 0.9391 0.3115
vn 0.3397 0.9044 0.2581
vn 0.3610 0.9002 0.2434
vn 0.3348 0.9386 0.0836
vn 0.5022 0.7281 -0.4665
vn 0.6208 0.7225 -0.3042
vn 0.7094 0.7011 0.0719
vn 0.6782 0.6329 0.3735
vn 0.6001 0.6196 0.5060
vn 0.3387 0.6452 0.6849
vn 0.0023 0.6810 0.7323
vn -0.2453 0.7245 0.6442
vn -0.4632 0.7205 0.5161
vn -0.5891 0.7324 0.3415
vn -0.6174 0.7862 -0.0275
vn -0.5843 0.7639 -0.2741
vn -0.4533 0.7802 -0.4310
vn -0.1921 0.7759 -0.6009
vn -0.0128 0.7737 -0.6335
vn 0.2782 0.7678 -0.5772
vt 0.717957 0.360101
vt 0.755482 0.406612
vt 0.708213 0.464089
vt 0.660689 0.423873
vt 0.795320 0.447642
vt 0.747896 0.509345
vt 0.833399 0.488022
vt 0.786797 0.554173
vt 0.870615 0.525983
vt 0.827645 0.598107
vt 0.907725 0.559144
vt 0.871214 0.639838
vt 0.945460 0.583967
vt 0.913221 0.692810
vt 0.983240 0.594733
vt 0.978092 0.733321
vt 0.390698 0.034537
vt 0.401243 0.071728
vt 0.294051 0.099366
vt 0.256697 0.042788
vt 0.425165 0.108382
vt 0.344929 0.146367
vt 0.457007 0.144526
vt 0.390817 0.187418
vt 0.496856 0.177762
vt 0.435842 0.227924
vt 0.539640 0.211343
vt 0.483111 0.264481
vt 0.583821 0.246323
vt 0.529615 0.301754
vt 0.628496 0.282797
vt 0.575098 0.339788
vt 0.673321 0.320686
vt 0.620531 0.378296
vt 0.663684 0.511575
vt 0.621227 0.471123
vt 0.708921 0.558522
vt 0.746970 0.603303
vt 0.783799 0.652709
vt 0.825163 0.703897
vt 0.875479 0.769692
vt 0.935365 0.816636
vt 0.223509 0.145521
vt 0.174148 0.082091
vt 0.285717 0.195970
vt 0.331771 0.238461
vt 0.388171 0.275563
vt 0.437747 0.312387
vt 0.486762 0.346989
vt 0.532710 0.384034
vt 0.577287 0.424724
vt 0.626472 0.546491
vt 0.586957 0.506858
vt 0.670512 0.594906
vt 0.708106 0.641109
vt 0.745292 0.689251
vt 0.786718 0.746024
vt 0.835026 0.814801
vt 0.885291 0.879546
vt 0.175454 0.184675
vt 0.114591 0.128250
vt 0.240307 0.234401
vt 0.291702 0.273364
vt 0.351708 0.315133
vt 0.404706 0.351954
vt 0.453259 0.387270
vt 0.497915 0.424269
vt 0.542487 0.463859
vt 0.593439 0.583693
vt 0.551228 0.540391
vt 0.632383 0.629876
vt 0.667915 0.676358
vt 0.705160 0.727115
vt 0.743836 0.785255
vt 0.790237 0.858845
vt 0.825880 0.921485
vt 0.133031 0.229968
vt 0.068523 0.191025
vt 0.207155 0.280441
vt 0.261973 0.316641
vt 0.320175 0.356793
vt 0.370867 0.391839
vt 0.419553 0.427071
vt 0.464772 0.463808
vt 0.507876 0.500971
vt 0.555043 0.616506
vt 0.514904 0.574517
vt 0.593533 0.660428
vt 0.627876 0.706187
vt 0.659626 0.755251
vt 0.695410 0.812815
vt 0.734169 0.887532
vt 0.758065 0.953811
vt 0.104182 0.285996
vt 0.040392 0.259831
vt 0.179703 0.330560
vt 0.234898 0.361899
vt 0.291444 0.401037
vt 0.342086 0.433233
vt 0.388955 0.466396
vt 0.433353 0.500691
vt 0.475478 0.535799
vt 0.515678 0.648869
vt 0.478074 0.609294
vt 0.550522 0.690942
vt 0.581699 0.732208
vt 0.609404 0.778372
vt 0.650212 0.843876
vt 0.676992 0.896457
vt 0.680702 0.961394
vt 0.091767 0.352792
vt 0.031188 0.338572
vt 0.164627 0.386814
vt 0.216760 0.414168
vt 0.266837 0.445533
vt 0.313526 0.476761
vt 0.358274 0.508594
vt 0.401163 0.540812
vt 0.439663 0.573799
vt 0.471585 0.678822
vt 0.438203 0.641998
vt 0.502841 0.716805
vt 0.529676 0.757404
vt 0.552749 0.799993
vt 0.582929 0.856098
vt 0.595710 0.905443
vt 0.581222 0.958551
vt 0.089924 0.429447
vt 0.036795 0.429542
vt 0.149735 0.450996
vt 0.198165 0.472778
vt 0.245725 0.496995
vt 0.289009 0.522712
vt 0.329052 0.550190
vt 0.367553 0.578794
vt 0.403914 0.609478
vt 0.404181 0.667010
vt 0.436247 0.700238
vt 0.392420 0.725047
vt 0.366346 0.696069
vt 0.462835 0.735529
vt 0.417164 0.755481
vt 0.486861 0.770930
vt 0.435623 0.785312
vt 0.505262 0.811691
vt 0.451247 0.817623
vt 0.520405 0.848011
vt 0.461182 0.847220
vt 0.522127 0.894327
vt 0.461762 0.880071
vt 0.518259 0.938014
vt 0.456766 0.914367
vt 0.059292 0.490713
vt 0.106284 0.494143
vt 0.119562 0.550827
vt 0.084637 0.549949
vt 0.147510 0.501723
vt 0.150803 0.553940
vt 0.191698 0.515833
vt 0.185580 0.564509
vt 0.233084 0.538495
vt 0.219541 0.583514
vt 0.270782 0.561063
vt 0.249963 0.603384
vt 0.305655 0.585114
vt 0.281389 0.622037
vt 0.340282 0.610570
vt 0.311507 0.646145
vt 0.372797 0.638650
vt 0.341021 0.670953
vt 0.834140 0.321115
vt 0.777746 0.319510
vt 0.809979 0.178557
vt 0.886855 0.301018
vt 0.927868 0.262276
vt 0.950932 0.210790
vt 0.952538 0.154396
vt 0.932440 0.101681
vt 0.893699 0.060668
vt 0.842212 0.037604
vt 0.785819 0.035998
vt 0.733103 0.056096
vt 0.692091 0.094837
vt 0.669026 0.146323
vt 0.667421 0.202717
vt 0.687518 0.255433
vt 0.726259 0.296445
vt 0.255800 0.801939
vt 0.263062 0.823476
vt 0.204856 0.831234
vt 0.261717 0.846242
vt 0.251707 0.866843
vt 0.234498 0.882019
vt 0.212796 0.889586
vt 0.189861 0.887996
vt 0.169255 0.877829
vt 0.154310 0.860398
vt 0.147124 0.838474
vt 0.148855 0.815764
vt 0.159193 0.795518
vt 0.176278 0.780460
vt 0.197858 0.773306
vt 0.220383 0.774991
vt 0.240821 0.784873
vt 0.357434 0.742628
vt 0.334589 0.717631
vt 0.310403 0.693313
vt 0.285766 0.669682
vt 0.261174 0.649732
vt 0.233642 0.633305
vt 0.208293 0.616304
vt 0.182759 0.602913
vt 0.157515 0.594936
vt 0.133587 0.592418
vt 0.112212 0.595980
vt 0.410347 0.889768
vt 0.417767 0.870606
vt 0.415430 0.847010
vt 0.407666 0.821644
vt 0.394310 0.795794
vt 0.377257 0.769113
vt 0.290749 0.787200
vt 0.301958 0.821851
vt 0.266718 0.759091
vt 0.233234 0.743124
vt 0.198535 0.740577
vt 0.162103 0.751017
vt 0.134048 0.776084
vt 0.118382 0.809146
vt 0.115108 0.845415
vt 0.125804 0.881278
vt 0.150468 0.910048
vt 0.184815 0.925597
vt 0.222078 0.928325
vt 0.256827 0.915013
vt 0.283390 0.890587
vt 0.299694 0.858204
s 1
usemtl M_LettuceC1_0
f 1/1/1 2/2/2 18/3/3 17/4/4
f 2/2/2 3/5/5 19/6/6 18/3/3
f 3/5/5 4/7/7 20/8/8 19/6/6
f 4/7/7 5/9/9 21/10/10 20/8/8
f 5/9/9 6/11/11 22/12/12 21/10/10
f 6/11/11 7/13/13 23/14/14 22/12/12
f 7/13/13 8/15/15 24/16/16 23/14/14
f 8/17/15 9/18/17 25/19/18 24/20/16
f 9/18/17 10/21/19 26/22/20 25/19/18
f 10/21/19 11/23/21 27/24/22 26/22/20
f 11/23/21 12/25/23 28/26/24 27/24/22
f 12/25/23 13/27/25 29/28/26 28/26/24
f 13/27/25 14/29/27 30/30/28 29/28/26
f 14/29/27 15/31/29 31/32/30 30/30/28
f 15/31/29 16/33/31 32/34/32 31/32/30
f 16/33/31 1/1/1 17/4/4 32/34/32
f 17/4/4 18/3/3 34/35/33 33/36/34
f 18/3/3 19/6/6 35/37/35 34/35/33
f 19/6/6 20/8/8 36/38/36 35/37/35
f 20/8/8 21/10/10 37/39/37 36/38/36
f 21/10/10 22/12/12 38/40/38 37/39/37
f 22/12/12 23/14/14 39/41/39 38/40/38
f 23/14/14 24/16/16 40/42/40 39/41/39
f 24/20/16 25/19/18 41/43/41 40/44/40
f 25/19/18 26/22/20 42/45/42 41/43/41
f 26/22/20 27/24/22 43/46/43 42/45/42
f 27/24/22 28/26/24 44/47/44 43/46/43
f 28/26/24 29/28/26 45/48/45 44/47/44
f 29/28/26 30/30/28 46/49/46 45/48/45
f 30/30/28 31/32/30 47/50/47 46/49/46
f 31/32/30 32/34/32 48/51/48 47/50/47
f 32/34/32 17/4/4 33/36/34 48/51/48
f 33/36/34 34/35/33 50/52/49 49/53/50
f 34/35/33 35/37/35 51/54/51 50/52/49
f 35/37/35 36/38/36 52/55/52 51/54/51
f 36/38/36 37/39/37 53/56/53 52/55/52
f 37/39/37 38/40/38 54/57/54 53/56/53
f 38/40/38 39/41/39 55/58/55 54/57/54
f 39/41/39 40/42/40 56/59/56 55/58/55
f 40/44/40 41/43/41 57/60/57 56/61/56
f 41/43/41 42/45/42 58/62/58 57/60/57
f 42/45/42 43/46/43 59/63/59 58/62/58
f 43/46/43 44/47/44 60/64/60 59/63/59
f 44/47/44 45/48/45 61/65/61 60/64/60
f 45/48/45 46/49/46 62/66/62 61/65/61
f 46/49/46 47/50/47 63/67/63 62/66/62
f 47/50/47 48/51/48 64/68/64 63/67/63
f 48/51/48 33/36/34 49/53/50 64/68/64
f 49/53/50 50/52/49 66/69/65 65/70/66
f 50/52/49 51/54/51 67/71/67 66/69/65
f 51/54/51 52/55/52 68/72/68 67/71/67
f 52/55/52 53/56/53 69/73/69 68/72/68
f 53/56/53 54/57/54 70/74/70 69/73/69
f 54/57/54 55/58/55 71/75/71 70/74/70
f 55/58/55 56/59/56 72/76/72 71/75/71
f 56/61/56 57/60/57 73/77/73 72/78/72
f 57/60/57 58/62/58 74/79/74 73/77/73
f 58/62/58 59/63/59 75/80/75 74/79/74
f 59/63/59 60/64/60 76/81/76 75/80/75
f 60/64/60 61/65/61 77/82/77 76/81/76
f 61/65/61 62/66/62 78/83/78 77/82/77
f 62/66/62 63/67/63 79/84/79 78/83/78
f 63/67/63 64/68/64 80/85/80 79/84/79
f 64/68/64 49/53/50 65/70/66 80/85/80
f 65/70/66 66/69/65 82/86/81 81/87/82
f 66/69/65 67/71/67 83/88/83 82/86/81
f 67/71/67 68/72/68 84/89/84 83/88/83
f 68/72/68 69/73/69 85/90/85 84/89/84
f 69/73/69 70/74/70 86/91/86 85/90/85
f 70/74/70 71/75/71 87/92/87 86/91/86
f 71/75/71 72/76/72 88/93/88 87/92/87
f 72/78/72 73/77/73 89/94/89 88/95/88
f 73/77/73 74/79/74 90/96/90 89/94/89
f 74/79/74 75/80/75 91/97/91 90/96/90
f 75/80/75 76/81/76 92/98/92 91/97/91
f 76/81/76 77/82/77 93/99/93 92/98/92
f 77/82/77 78/83/78 94/100/94 93/99/93
f 78/83/78 79/84/79 95/101/95 94/100/94
f 79/84/79 80/85/80 96/102/96 95/101/95
f 80/85/80 65/70/66 81/87/82 96/102/96
f 81/87/82 82/86/81 98/103/97 97/104/98
f 82/86/81 83/88/83 99/105/99 98/103/97
f 83/88/83 84/89/84 100/106/100 99/105/99
f 84/89/84 85/90/85 101/107/101 100/106/100
f 85/90/85 86/91/86 102/108/102 101/107/101
f 86/91/86 87/92/87 103/109/103 102/108/102
f 87/92/87 88/93/88 104/110/104 103/109/103
f 88/95/88 89/94/89 105/111/105 104/112/104
f 89/94/89 90/96/90 106/113/106 105/111/105
f 90/96/90 91/97/91 107/114/107 106/113/106
f 91/97/91 92/98/92 108/115/108 107/114/107
f 92/98/92 93/99/93 109/116/109 108/115/108
f 93/99/93 94/100/94 110/117/110 109/116/109
f 94/100/94 95/101/95 111/118/111 110/117/110
f 95/101/95 96/102/96 112/119/112 111/118/111
f 96/102/96 81/87/82 97/104/98 112/119/112
f 97/104/98 98/103/97 183/120/113 184/121/114
f 98/103/97 99/105/99 182/122/115 183/120/113
f 99/105/99 100/106/100 181/123/116 182/122/115
f 100/106/100 101/107/101 180/124/117 181/123/116
f 101/107/101 102/108/102 179/125/118 180/124/117
f 102/108/102 103/109/103 194/126/119 179/125/118
f 103/109/103 104/110/104 193/127/120 194/126/119
f 104/112/104 105/111/105 192/128/121 193/129/120
f 105/111/105 106/113/106 191/130/122 192/128/121
f 106/113/106 107/114/107 190/131/123 191/130/122
f 107/114/107 108/115/108 189/132/124 190/131/123
f 108/115/108 109/116/109 188/133/125 189/132/124
f 109/116/109 110/117/110 187/134/126 188/133/125
f 110/117/110 111/118/111 186/135/127 187/134/126
f 111/118/111 112/119/112 185/136/128 186/135/127
f 112/119/112 97/104/98 184/121/114 185/136/128
f 113/137/129 114/138/130 147/139/131 148/140/132
f 114/138/130 115/141/133 162/142/134 147/139/131
f 115/141/133 116/143/135 161/144/136 162/142/134
f 116/143/135 117/145/137 160/146/138 161/144/136
f 117/145/137 118/147/139 159/148/140 160/146/138
f 118/147/139 119/149/141 158/150/142 159/148/140
f 119/149/141 120/151/143 157/152/144 158/150/142
f 120/153/143 121/154/145 156/155/146 157/156/144
f 121/154/145 122/157/147 155/158/148 156/155/146
f 122/157/147 123/159/149 154/160/150 155/158/148
f 123/159/149 124/161/151 153/162/152 154/160/150
f 124/161/151 125/163/153 152/164/154 153/162/152
f 125/163/153 126/165/155 151/166/156 152/164/154
f 126/165/155 127/167/157 150/168/158 151/166/156
f 127/167/157 128/169/159 149/170/160 150/168/158
f 128/169/159 113/137/129 148/140/132 149/170/160
f 2/171/2 1/172/1 145/173/161
f 3/174/5 2/171/2 145/173/161
f 4/175/7 3/174/5 145/173/161
f 5/176/9 4/175/7 145/173/161
f 6/177/11 5/176/9 145/173/161
f 7/178/13 6/177/11 145/173/161
f 8/179/15 7/178/13 145/173/161
f 9/180/17 8/179/15 145/173/161
f 10/181/19 9/180/17 145/173/161
f 11/182/21 10/181/19 145/173/161
f 12/183/23 11/182/21 145/173/161
f 13/184/25 12/183/23 145/173/161
f 14/185/27 13/184/25 145/173/161
f 15/186/29 14/185/27 145/173/161
f 16/187/31 15/186/29 145/173/161
f 1/172/1 16/187/31 145/173/161
f 129/188/162 130/189/163 146/190/164
f 130/189/163 131/191/165 146/190/164
f 131/191/165 132/192/166 146/190/164
f 132/192/166 133/193/167 146/190/164
f 133/193/167 134/194/168 146/190/164
f 134/194/168 135/195/169 146/190/164
f 135/195/169 136/196/170 146/190/164
f 136/196/170 137/197/171 146/190/164
f 137/197/171 138/198/172 146/190/164
f 138/198/172 139/199/173 146/190/164
f 139/199/173 140/200/174 146/190/164
f 140/200/174 141/201/175 146/190/164
f 141/201/175 142/202/176 146/190/164
f 142/202/176 143/203/177 146/190/164
f 143/203/177 144/204/178 146/190/164
f 144/204/178 129/188/162 146/190/164
f 148/140/132 147/139/131 163/205/179 164/206/180
f 149/170/160 148/140/132 164/206/180 165/207/181
f 150/168/158 149/170/160 165/207/181 166/208/182
f 151/166/156 150/168/158 166/208/182 167/209/183
f 152/164/154 151/166/156 167/209/183 168/210/184
f 153/162/152 152/164/154 168/210/184 169/211/185
f 154/160/150 153/162/152 169/211/185 170/212/186
f 155/158/148 154/160/150 170/212/186 171/213/187
f 156/155/146 155/158/148 171/213/187 172/214/188
f 157/156/144 156/155/146 172/214/188 173/215/189
f 158/150/142 157/152/144 173/216/189 174/217/190
f 159/148/140 158/150/142 174/217/190 175/218/191
f 160/146/138 159/148/140 175/218/191 176/219/192
f 161/144/136 160/146/138 176/219/192 177/220/193
f 162/142/134 161/144/136 177/220/193 178/221/194
f 147/139/131 162/142/134 178/221/194 163/205/179
f 164/222/180 163/223/179 130/189/163 129/188/162
f 165/224/181 164/222/180 129/188/162 144/204/178
f 166/225/182 165/224/181 144/204/178 143/203/177
f 167/226/183 166/225/182 143/203/177 142/202/176
f 168/227/184 167/226/183 142/202/176 141/201/175
f 169/228/185 168/227/184 141/201/175 140/200/174
f 170/229/186 169/228/185 140/200/174 139/199/173
f 171/230/187 170/229/186 139/199/173 138/198/172
f 172/231/188 171/230/187 138/198/172 137/197/171
f 173/232/189 172/231/188 137/197/171 136/196/170
f 174/233/190 173/232/189 136/196/170 135/195/169
f 175/234/191 174/233/190 135/195/169 134/194/168
f 176/235/192 175/234/191 134/194/168 133/193/167
f 177/236/193 176/235/192 133/193/167 132/192/166
f 178/237/194 177/236/193 132/192/166 131/191/165
f 163/223/179 178/237/194 131/191/165 130/189/163
f 180/124/117 179/125/118 118/147/139 117/145/137
f 181/123/116 180/124/117 117/145/137 116/143/135
f 182/122/115 181/123/116 116/143/135 115/141/133
f 183/120/113 182/122/115 115/141/133 114/138/130
f 184/121/114 183/120/113 114/138/130 113/137/129
f 185/136/128 184/121/114 113/137/129 128/169/159
f 186/135/127 185/136/128 128/169/159 127/167/157
f 187/134/126 186/135/127 127/167/157 126/165/155
f 188/133/125 187/134/126 126/165/155 125/163/153
f 189/132/124 188/133/125 125/163/153 124/161/151
f 190/131/123 189/132/124 124/161/151 123/159/149
f 191/130/122 190/131/123 123/159/149 122/157/147
f 192/128/121 191/130/122 122/157/147 121/154/145
f 193/129/120 192/128/121 121/154/145 120/153/143
f 194/126/119 193/127/120 120/151/143 119/149/141
f 179/125/118 194/126/119 119/149/141 118/147/139
