# Blender 4.1.1
# www.blender.org
mtllib ToasterLever_5_ToasterLever_5_1_GeomSubset_1.mtl
o ToasterLever_5_ToasterLever_5_1_GeomSubset_1
v 0.002036 -0.176571 0.048805
v 0.002036 -0.180642 0.048805
v -0.002036 -0.176571 0.048805
v -0.002036 -0.180642 0.048805
v 0.002036 -0.176571 0.048805
v 0.002036 -0.180642 0.048805
v -0.002036 -0.176571 0.048805
v -0.002036 -0.180642 0.048805
v 0.002036 -0.176571 0.048805
v 0.002036 -0.180642 0.048805
v -0.002036 -0.176571 0.048805
v -0.002036 -0.180642 0.048805
v 0.002036 -0.176571 0.048805
v 0.002036 -0.180642 0.048805
v -0.002036 -0.176571 0.048805
v -0.002036 -0.180642 0.048805
v 0.002036 -0.176571 0.048805
v 0.002036 -0.180642 0.048805
v -0.002036 -0.176571 0.048805
v -0.002036 -0.180642 0.048805
v 0.002036 -0.176571 0.048805
v 0.002036 -0.180642 0.048805
v -0.002036 -0.176571 0.048805
v -0.002036 -0.180642 0.048805
v 0.000000 -0.186211 0.048805
v -0.001975 -0.171469 0.049623
v -0.001511 -0.171469 0.050317
v -0.000818 -0.171469 0.050780
v 0.000000 -0.171469 0.050943
v 0.000818 -0.171469 0.050780
v 0.001512 -0.171469 0.050317
v 0.001975 -0.171469 0.049623
v 0.002137 -0.171469 0.048805
v 0.001975 -0.171469 0.047987
v 0.001512 -0.171469 0.047294
v 0.000818 -0.171469 0.046830
v 0.000000 -0.171469 0.046668
v -0.000818 -0.171469 0.046830
v -0.001511 -0.171469 0.047294
v -0.001975 -0.171469 0.047987
v -0.002137 -0.171469 0.048805
v -0.001975 -0.162279 0.049623
v -0.001511 -0.162279 0.050317
v -0.000818 -0.162279 0.050780
v 0.000000 -0.162279 0.050943
v 0.000818 -0.162279 0.050780
v 0.001512 -0.162279 0.050317
v 0.001975 -0.162279 0.049623
v 0.002137 -0.162279 0.048805
v 0.001975 -0.162279 0.047987
v 0.001512 -0.162279 0.047294
v 0.000818 -0.162279 0.046830
v 0.000000 -0.162279 0.046668
v -0.000818 -0.162279 0.046830
v -0.001511 -0.162279 0.047294
v -0.001975 -0.162279 0.047987
v -0.002137 -0.162279 0.048805
v -0.006330 -0.171829 0.051427
v -0.005930 -0.171469 0.051261
v -0.004845 -0.171829 0.053650
v -0.004539 -0.171469 0.053344
v -0.002622 -0.171829 0.055135
v -0.002456 -0.171469 0.054735
v 0.000000 -0.171829 0.055657
v 0.000000 -0.171469 0.055224
v 0.002622 -0.171829 0.055135
v 0.002456 -0.171469 0.054735
v 0.004845 -0.171829 0.053650
v 0.004539 -0.171469 0.053344
v 0.006330 -0.171829 0.051427
v 0.005930 -0.171469 0.051261
v 0.006852 -0.171829 0.048805
v 0.006419 -0.171469 0.048805
v 0.006330 -0.171829 0.046183
v 0.005930 -0.171469 0.046349
v 0.004845 -0.171829 0.043960
v 0.004539 -0.171469 0.044266
v 0.002622 -0.171829 0.042475
v 0.002456 -0.171469 0.042875
v 0.000000 -0.171829 0.041953
v 0.000000 -0.171469 0.042387
v -0.002622 -0.171829 0.042475
v -0.002456 -0.171469 0.042875
v -0.004845 -0.171829 0.043960
v -0.004539 -0.171469 0.044266
v -0.006330 -0.171829 0.046183
v -0.005930 -0.171469 0.046349
v -0.006852 -0.171829 0.048805
v -0.006419 -0.171469 0.048805
v -0.005930 -0.186211 0.051261
v -0.006330 -0.185850 0.051427
v -0.004845 -0.185850 0.053650
v -0.004539 -0.186211 0.053344
v -0.002456 -0.186211 0.054735
v -0.002622 -0.185850 0.055135
v 0.000000 -0.185850 0.055657
v 0.000000 -0.186211 0.055224
v 0.002456 -0.186211 0.054735
v 0.002622 -0.185850 0.055135
v 0.004845 -0.185850 0.053650
v 0.004539 -0.186211 0.053344
v 0.005930 -0.186211 0.051261
v 0.006330 -0.185850 0.051427
v 0.006852 -0.185850 0.048805
v 0.006419 -0.186211 0.048805
v 0.005930 -0.186211 0.046349
v 0.006330 -0.185850 0.046183
v 0.004845 -0.185850 0.043960
v 0.004539 -0.186211 0.044266
v 0.002456 -0.186211 0.042875
v 0.002622 -0.185850 0.042475
v 0.000000 -0.185850 0.041953
v 0.000000 -0.186211 0.042387
v -0.002456 -0.186211 0.042875
v -0.002622 -0.185850 0.042475
v -0.004845 -0.185850 0.043960
v -0.004539 -0.186211 0.044266
v -0.005930 -0.186211 0.046349
v -0.006330 -0.185850 0.046183
v -0.006852 -0.185850 0.048805
v -0.006419 -0.186211 0.048805
vn -0.8471 -0.0000 -0.5314
vn -0.0000 0.8471 -0.5314
vn 0.8471 -0.0000 -0.5314
vn -0.0000 -0.8471 -0.5314
vn 0.7430 0.0055 0.6693
vn 0.7430 -0.0000 0.6693
vn -0.6693 0.0177 -0.7428
vn -0.6694 -0.0000 -0.7429
vn -0.6693 -0.0176 -0.7428
vn -0.6695 -0.0000 -0.7428
vn -0.9018 0.0424 -0.4300
vn -0.9027 -0.0000 -0.4302
vn -0.9018 -0.0424 -0.4300
vn 0.9014 0.0513 -0.4299
vn 0.9028 -0.0000 -0.4301
vn 0.9014 -0.0513 -0.4299
vn 0.6694 0.0030 -0.7429
vn 0.6694 -0.0000 -0.7429
vn -0.7429 -0.0000 0.6695
vn -0.4299 -0.0000 0.9029
vn -0.4299 -0.0065 0.9029
vn -0.4291 0.0879 -0.8990
vn -0.4299 -0.0000 -0.9029
vn -0.4291 -0.0879 -0.8990
vn -0.7429 0.0039 -0.6694
vn -0.7429 -0.0000 -0.6694
vn 0.6694 -0.0000 0.7429
vn 0.6694 -0.0058 0.7428
vn -0.9919 0.1155 0.0533
vn -0.9986 -0.0000 0.0520
vn -0.9919 -0.1155 0.0533
vn 0.9985 0.0166 0.0519
vn 0.9987 -0.0000 0.0519
vn 0.9985 -0.0166 0.0519
vn -0.6694 0.0058 0.7429
vn -0.6694 -0.0000 0.7429
vn -0.6695 -0.0000 0.7428
vn 0.7430 -0.0000 -0.6693
vn 0.7430 -0.0052 -0.6693
vn 0.0537 0.1263 0.9905
vn 0.0521 -0.0000 0.9986
vn 0.0537 -0.1262 0.9905
vn 0.4297 0.0491 0.9016
vn 0.4300 -0.0000 0.9028
vn 0.4297 -0.0491 0.9016
vn -0.8199 -0.5127 -0.2548
vn -0.8147 -0.5194 -0.2577
vn -0.8147 -0.5193 -0.2579
vn -0.8197 -0.5129 -0.2548
vn -0.7201 -0.6843 0.1144
vn -0.7259 -0.6780 0.1156
vn -0.7261 -0.6779 0.1153
vn 0.2099 -0.5335 0.8193
vn 0.2107 -0.5411 0.8142
vn 0.2141 -0.5396 0.8143
vn 0.2088 -0.5341 0.8192
vn -0.0483 -0.6750 0.7362
vn -0.0471 -0.6816 0.7302
vn -0.0470 -0.6817 0.7302
vn -0.0483 -0.6750 0.7363
vn -0.1713 -0.6456 0.7442
vn -0.1726 -0.6519 0.7384
vn -0.1726 -0.6520 0.7384
vn -0.1716 -0.6455 0.7443
vn -0.8975 0.0598 0.4370
vn -0.9001 0.0533 0.4323
vn -0.9003 0.0530 0.4321
vn -0.8973 0.0599 0.4373
vn 0.3335 -0.6228 0.7077
vn 0.3280 -0.6298 0.7041
vn 0.3281 -0.6297 0.7041
vn 0.3329 -0.6234 0.7075
vn 0.7264 -0.6780 0.1124
vn 0.7207 -0.6842 0.1115
vn 0.7204 -0.6845 0.1112
vn 0.7266 -0.6777 0.1126
vn 0.7442 -0.6448 0.1743
vn 0.7381 -0.6515 0.1755
vn 0.7382 -0.6513 0.1754
vn 0.7439 -0.6452 0.1744
vn 0.4469 -0.6567 -0.6075
vn 0.4422 -0.6629 -0.6042
vn 0.4421 -0.6631 -0.6040
vn 0.4473 -0.6562 -0.6077
vn 0.8582 -0.1045 0.5026
vn 0.8546 -0.1112 0.5073
vn 0.8547 -0.1111 0.5071
vn 0.8580 -0.1047 0.5029
vn 0.4052 -0.6536 -0.6392
vn 0.4038 -0.6601 -0.6334
vn 0.4035 -0.6601 -0.6336
vn -0.2397 -0.6749 -0.6979
vn -0.2382 -0.6816 -0.6919
vn -0.2384 -0.6815 -0.6919
vn -0.2396 -0.6749 -0.6979
vn -0.9166 -0.3482 0.1964
vn -0.9131 -0.3547 0.2010
vn -0.9167 -0.3482 0.1963
vn 0.7683 0.2007 -0.6077
vn 0.7727 0.1938 -0.6045
vn 0.7729 0.1939 -0.6042
vn 0.7683 0.2009 -0.6077
vn -0.7276 -0.6777 -0.1060
vn -0.7217 -0.6842 -0.1050
vn -0.7217 -0.6842 -0.1047
vn -0.7277 -0.6776 -0.1060
vn -0.7495 0.3226 -0.5780
vn -0.7549 0.3162 -0.5747
vn -0.7547 0.3164 -0.5748
vn -0.7498 0.3228 -0.5776
vn 0.7474 -0.4934 0.4450
vn 0.7527 -0.4866 0.4435
vn 0.7526 -0.4865 0.4437
vn -0.6495 0.6502 0.3941
vn -0.6530 0.6437 0.3990
vn -0.6529 0.6438 0.3991
vn -0.6496 0.6502 0.3941
vn -0.4123 -0.4995 -0.7619
vn -0.4136 -0.5063 -0.7568
vn -0.4133 -0.5063 -0.7569
vn -0.4122 -0.4995 -0.7620
vn 0.5762 -0.4211 -0.7005
vn 0.5777 -0.4278 -0.6952
vn 0.5780 -0.4277 -0.6950
vn 0.5767 -0.4209 -0.7002
vn 0.6430 0.6523 0.4014
vn 0.6463 0.6460 0.4062
vn 0.6465 0.6458 0.4063
vn 0.6429 0.6525 0.4011
vn 0.8144 0.5328 -0.2300
vn 0.8198 0.5261 -0.2263
vn 0.8195 0.5261 -0.2270
vn 0.8147 0.5324 -0.2296
vn 0.7208 0.6842 0.1115
vn 0.7263 0.6780 0.1126
vn 0.7267 0.6777 0.1125
vn 0.7204 0.6845 0.1114
vn -0.7346 -0.4625 -0.4965
vn -0.7290 -0.4697 -0.4979
vn -0.7291 -0.4694 -0.4980
vn -0.7344 -0.4629 -0.4964
vn 0.6370 0.1597 0.7542
vn 0.6417 0.1535 0.7514
vn 0.6416 0.1529 0.7517
vn 0.6363 0.1598 0.7547
vn 0.6668 0.6446 -0.3740
vn 0.6705 0.6378 -0.3789
vn 0.6704 0.6380 -0.3788
vn 0.6671 0.6443 -0.3740
vn 0.3782 -0.5126 0.7708
vn 0.3792 -0.5195 0.7657
vn 0.3791 -0.5195 0.7658
vn 0.3780 -0.5126 0.7709
vn -0.5171 -0.4527 0.7264
vn -0.5181 -0.4596 0.7213
vn -0.5184 -0.4594 0.7212
vn -0.5170 -0.4528 0.7265
vn -0.7073 0.6282 -0.3242
vn -0.7108 0.6216 -0.3291
vn -0.7106 0.6218 -0.3294
vn -0.7072 0.6282 -0.3242
vn -0.8126 0.5540 0.1809
vn -0.8176 0.5476 0.1778
vn -0.8177 0.5475 0.1776
vn -0.8126 0.5541 0.1809
vn 0.7204 -0.4452 -0.5318
vn 0.7153 -0.4521 -0.5329
vn 0.7152 -0.4521 -0.5330
vn 0.7205 -0.4451 -0.5317
vn 0.9239 -0.0000 -0.3827
vn 0.7071 -0.0000 -0.7071
vn 0.3827 -0.0000 -0.9239
vn 0.1949 -0.0000 -0.9808
vn -0.1949 -0.0000 -0.9808
vn -0.3827 -0.0000 -0.9239
vn -0.7071 -0.0000 -0.7071
vn -0.9239 -0.0000 -0.3827
vn -0.9809 -0.0000 -0.1944
vn -0.9809 -0.0000 0.1944
vn -0.9239 -0.0000 0.3827
vn -0.7071 -0.0000 0.7071
vn -0.3827 -0.0000 0.9239
vn -0.1949 -0.0000 0.9808
vn 0.1949 -0.0000 0.9808
vn 0.3827 -0.0000 0.9239
vn 0.7071 -0.0000 0.7071
vn 0.9239 -0.0000 0.3827
vn 0.9809 -0.0000 0.1944
vn 0.9809 -0.0000 -0.1944
vn -0.0000 0.2527 0.9675
vn -0.0002 0.4423 0.8969
vn -0.0000 0.8845 0.4666
vn -0.0000 0.4423 0.8969
vn 0.9675 0.2527 -0.0000
vn -0.1750 0.4424 -0.8796
vn -0.2591 0.8845 -0.3879
vn -0.6342 0.4423 0.6341
vn 0.4550 0.2527 -0.8539
vn 0.4217 0.4423 -0.7915
vn 0.2193 0.8845 -0.4117
vn 0.4218 0.4423 -0.7915
vn -0.0000 0.8845 0.4665
vn 0.0001 0.4423 0.8969
vn -0.6842 0.2527 -0.6841
vn -0.4982 0.4422 0.7458
vn -0.0910 0.8845 0.4575
vn 0.8968 0.4424 -0.0000
vn -0.0000 0.2527 -0.9675
vn -0.0000 0.4423 -0.8969
vn -0.0000 0.8845 -0.4666
vn 0.0001 0.4423 -0.8969
vn 0.8969 0.4423 0.0001
vn 0.4665 0.8845 -0.0000
vn 0.8969 0.4423 -0.0000
vn 0.8796 0.4423 -0.1750
vn 0.3879 0.8845 -0.2592
vn -0.6341 0.4424 -0.6342
vn -0.8368 -0.1966 0.5109
vn -0.8370 -0.1966 0.5107
vn -0.8257 -0.2528 0.5042
vn -0.8258 -0.2527 0.5042
vn 0.9805 -0.1966 -0.0000
vn 0.9805 -0.1966 0.0001
vn 0.9675 -0.2528 -0.0000
vn 0.9675 -0.2528 -0.0001
vn -0.9378 -0.1966 -0.2861
vn -0.9378 -0.1966 -0.2863
vn -0.9254 -0.2527 -0.2823
vn -0.9254 -0.2528 -0.2825
vn 0.9378 -0.1966 -0.2860
vn 0.9378 -0.1966 -0.2863
vn 0.9254 -0.2528 -0.2823
vn 0.9254 -0.2528 -0.2825
vn -0.9805 -0.1966 -0.0000
vn -0.9805 -0.1966 -0.0001
vn -0.9675 -0.2528 -0.0001
vn -0.9675 -0.2528 0.0001
vn 0.9378 -0.1966 0.2862
vn 0.9378 -0.1965 0.2862
vn 0.9254 -0.2527 0.2823
vn 0.9254 -0.2528 0.2825
vn -0.3711 -0.1966 -0.9075
vn -0.3709 -0.1966 -0.9076
vn -0.3662 -0.2528 -0.8955
vn -0.3662 -0.2527 -0.8956
vn -0.5376 -0.1966 0.8200
vn -0.5374 -0.1966 0.8201
vn -0.5304 -0.2527 0.8092
vn -0.5303 -0.2528 0.8092
vn 0.9693 -0.1966 -0.1479
vn 0.9693 -0.1966 -0.1480
vn 0.9565 -0.2528 -0.1459
vn 0.9565 -0.2527 -0.1458
vn -0.9805 -0.1966 0.0001
vn -0.9805 -0.1966 -0.0002
vn -0.0000 -0.1966 0.9805
vn -0.0001 -0.2528 0.9675
vn 0.0001 -0.2528 0.9675
vn -0.0000 -0.2527 0.9675
vn 0.8370 -0.1966 0.5107
vn 0.8369 -0.1966 0.5108
vn 0.8259 -0.2528 0.5039
vn 0.8259 -0.2527 0.5040
vn -0.6213 -0.1966 -0.7585
vn -0.6214 -0.1966 -0.7584
vn -0.6131 -0.2527 -0.7485
vn -0.6131 -0.2528 -0.7484
vn 0.9086 -0.1966 -0.3686
vn 0.8965 -0.2528 -0.3639
vn 0.8965 -0.2528 -0.3637
vn 0.9692 -0.1966 0.1481
vn 0.9693 -0.1966 0.1478
vn 0.9564 -0.2528 0.1460
vt -31.352243 0.796756
vt -31.352243 0.695526
vt -31.251017 0.695526
vt -31.251017 0.796756
vt -31.466345 0.600848
vt -31.483591 0.600848
vt -31.483591 0.372362
vt -31.466345 0.372362
vt -31.454828 0.600848
vt -31.454828 0.372362
vt -31.532843 0.604839
vt -31.512503 0.604839
vt -31.512503 0.833325
vt -31.532843 0.833325
vt -31.553183 0.604839
vt -31.553183 0.833325
vt -31.419527 0.695528
vt -31.408003 0.695528
vt -31.408003 0.924013
vt -31.419527 0.924013
vt -31.436766 0.695528
vt -31.436766 0.924013
vt -31.457109 0.695528
vt -31.457109 0.924013
vt -31.477446 0.695528
vt -31.477446 0.924013
vt -31.494684 0.695528
vt -31.494684 0.924013
vt -31.506208 0.695528
vt -31.506208 0.924013
vt -31.380625 0.924012
vt -31.400969 0.924012
vt -31.400969 0.695526
vt -31.380625 0.695526
vt -31.360289 0.924012
vt -31.360289 0.695526
vt -31.541510 0.600848
vt -31.553026 0.600848
vt -31.553026 0.372362
vt -31.541510 0.372362
vt -31.524267 0.600848
vt -31.524267 0.372362
vt -31.503927 0.600848
vt -31.503927 0.372362
vt -31.330599 0.010813
vt -31.334723 0.001844
vt -31.282949 0.001844
vt -31.275335 0.010813
vt -31.395796 0.010813
vt -31.395796 0.001844
vt -30.990488 0.359403
vt -30.998110 0.368371
vt -31.049883 0.368371
vt -31.045755 0.359403
vt -31.110952 0.368371
vt -31.110952 0.359403
vt -31.172018 0.368371
vt -31.176146 0.359403
vt -31.223799 0.368371
vt -31.231409 0.359403
vt -30.706045 0.359402
vt -30.713665 0.368370
vt -30.765434 0.368370
vt -30.761314 0.359402
vt -30.826508 0.368370
vt -30.826508 0.359402
vt -30.887579 0.368370
vt -30.891699 0.359402
vt -30.939348 0.368370
vt -30.946968 0.359402
vt -30.798088 0.381334
vt -30.790476 0.372365
vt -30.738699 0.372365
vt -30.742825 0.381334
vt -30.677629 0.372365
vt -30.677629 0.381334
vt -30.616562 0.372365
vt -30.612434 0.381334
vt -30.564787 0.372365
vt -30.557165 0.381334
vt -31.516256 0.010813
vt -31.508635 0.001844
vt -31.456865 0.001844
vt -31.460985 0.010813
vt -31.334723 0.368370
vt -31.330599 0.359402
vt -31.275335 0.359402
vt -31.282949 0.368370
vt -31.395796 0.368370
vt -31.395796 0.359402
vt -30.998110 0.001845
vt -30.990488 0.010814
vt -31.045755 0.010814
vt -31.049883 0.001845
vt -31.110952 0.010814
vt -31.110952 0.001845
vt -31.176146 0.010814
vt -31.172018 0.001845
vt -31.231409 0.010814
vt -31.223799 0.001845
vt -30.713665 0.001844
vt -30.706045 0.010813
vt -30.761314 0.010813
vt -30.765434 0.001844
vt -30.826508 0.010813
vt -30.826508 0.001844
vt -30.891699 0.010813
vt -30.887579 0.001844
vt -30.946968 0.010813
vt -30.939348 0.001844
vt -30.790476 0.738891
vt -30.798088 0.729923
vt -30.742825 0.729923
vt -30.738699 0.738891
vt -30.677629 0.729923
vt -30.677629 0.738891
vt -30.612434 0.729923
vt -30.616562 0.738891
vt -30.557165 0.729923
vt -30.564787 0.738891
vt -31.508635 0.368370
vt -31.516256 0.359402
vt -31.460985 0.359402
vt -31.456865 0.368370
vt -31.238409 0.010813
vt -31.238409 0.359402
vt -30.669119 0.359402
vt -30.669119 0.010813
vt -30.983894 0.359402
vt -30.983894 0.010813
vt -31.553183 0.010813
vt -31.553183 0.359402
vt -30.963806 0.531951
vt -30.850964 0.419109
vt -30.816370 0.470882
vt -30.804222 0.531951
vt -30.816370 0.593019
vt -30.850964 0.644797
vt -30.902735 0.679385
vt -30.963806 0.691536
vt -31.024876 0.679385
vt -31.076647 0.644797
vt -31.111240 0.593019
vt -31.123388 0.531951
vt -31.111240 0.470882
vt -31.076647 0.419109
vt -31.024876 0.384517
vt -30.963806 0.372364
vt -30.902735 0.384517
vt -31.401949 0.419109
vt -31.350176 0.384517
vt -31.309443 0.482848
vt -31.326685 0.494374
vt -31.436537 0.470882
vt -31.338205 0.511613
vt -31.448690 0.531951
vt -31.342249 0.531951
vt -31.436537 0.593019
vt -31.338205 0.552293
vt -31.401949 0.644797
vt -31.326685 0.569532
vt -31.350176 0.679385
vt -31.309443 0.581053
vt -31.289106 0.691536
vt -31.289106 0.585095
vt -31.228037 0.679385
vt -31.268766 0.581053
vt -31.176260 0.644797
vt -31.251524 0.569532
vt -31.141668 0.593019
vt -31.240004 0.552293
vt -31.129522 0.531951
vt -31.235960 0.531951
vt -31.141668 0.470882
vt -31.240004 0.511613
vt -31.176260 0.419109
vt -31.251524 0.494374
vt -31.228037 0.384517
vt -31.268766 0.482848
vt -31.289106 0.372364
vt -31.289106 0.478807
s 1
usemtl M_ToasterLever_5_1
f 5/1/1 6/2/2 8/3/3 7/4/4
f 27/5/5 26/6/6 42/7/6 43/8/6
f 28/9/7 27/5/8 43/8/9 44/10/10
f 29/11/11 28/12/12 44/13/13 45/14/12
f 30/15/14 29/11/15 45/14/16 46/16/15
f 31/17/17 30/18/18 46/19/18 47/20/18
f 32/21/19 31/17/19 47/20/19 48/22/19
f 33/23/20 32/21/20 48/22/21 49/24/20
f 34/25/22 33/23/23 49/24/24 50/26/23
f 35/27/25 34/25/26 50/26/26 51/28/26
f 36/29/27 35/27/27 51/28/28 52/30/27
f 37/31/29 36/32/30 52/33/31 53/34/30
f 38/35/32 37/31/33 53/34/34 54/36/33
f 39/37/35 38/38/36 54/39/36 55/40/37
f 40/41/38 39/37/38 55/40/39 56/42/38
f 41/43/40 40/41/41 56/42/42 57/44/41
f 26/6/43 41/43/44 57/44/45 42/7/44
f 58/45/46 59/46/47 61/47/48 60/48/49
f 59/46/50 58/45/51 88/49/52 89/50/50
f 60/51/53 61/52/54 63/53/55 62/54/56
f 62/54/57 63/53/58 65/55/59 64/56/60
f 64/56/61 65/55/62 67/57/63 66/58/64
f 66/58/65 67/57/66 69/59/67 68/60/68
f 68/61/69 69/62/70 71/63/71 70/64/72
f 70/64/73 71/63/74 73/65/75 72/66/76
f 72/66/77 73/65/78 75/67/79 74/68/80
f 74/68/81 75/67/82 77/69/83 76/70/84
f 76/71/85 77/72/86 79/73/87 78/74/88
f 78/74/89 79/73/90 81/75/91 80/76/89
f 80/76/92 81/75/93 83/77/94 82/78/95
f 82/78/96 83/77/97 85/79/97 84/80/98
f 84/81/99 85/82/100 87/83/101 86/84/102
f 86/84/103 87/83/104 89/50/105 88/49/106
f 90/85/107 91/86/108 92/87/109 93/88/110
f 91/86/111 90/85/112 121/89/113 120/90/111
f 93/91/114 92/92/115 95/93/116 94/94/117
f 94/94/118 95/93/119 96/95/120 97/96/121
f 97/96/122 96/95/123 99/97/124 98/98/125
f 98/98/126 99/97/127 100/99/128 101/100/129
f 101/101/130 100/102/131 103/103/132 102/104/133
f 102/104/134 103/103/135 104/105/136 105/106/137
f 105/106/138 104/105/139 107/107/140 106/108/141
f 106/108/142 107/107/143 108/109/144 109/110/145
f 109/111/146 108/112/147 111/113/148 110/114/149
f 110/114/150 111/113/151 112/115/152 113/116/153
f 113/116/154 112/115/155 115/117/156 114/118/157
f 114/118/158 115/117/159 116/119/160 117/120/161
f 117/121/162 116/122/163 119/123/164 118/124/165
f 118/124/166 119/123/167 120/90/168 121/89/169
f 58/45/170 60/48/171 92/87/171 91/86/170
f 60/48/171 62/125/172 95/126/172 92/87/171
f 62/54/172 64/56/173 96/95/173 95/93/172
f 64/56/174 66/58/175 99/97/175 96/95/174
f 66/127/175 68/61/176 100/102/176 99/128/175
f 68/61/176 70/64/177 103/103/177 100/102/176
f 70/64/177 72/66/178 104/105/178 103/103/177
f 72/66/179 74/68/180 107/107/180 104/105/179
f 74/68/180 76/70/181 108/109/181 107/107/180
f 76/70/181 78/129/182 111/130/182 108/109/181
f 78/74/182 80/76/183 112/115/183 111/113/182
f 80/76/184 82/78/185 115/117/185 112/115/184
f 82/131/185 84/81/186 116/122/186 115/132/185
f 84/81/186 86/84/187 119/123/187 116/122/186
f 86/84/187 88/49/188 120/90/188 119/123/187
f 88/49/189 58/45/170 91/86/170 120/90/189
f 25/133/190 93/134/191 94/135/192 97/136/193
f 25/133/194 97/136/195 98/137/196 101/138/197
f 25/133/198 101/138/199 102/139/200 105/140/201
f 25/133/190 105/140/193 106/141/202 109/142/203
f 25/133/204 109/142/205 110/143/206 113/144/207
f 25/133/208 113/144/209 114/145/210 117/146/211
f 25/133/194 117/146/212 118/147/213 121/148/214
f 25/133/190 121/148/215 90/149/216 93/134/217
f 61/150/218 59/151/219 26/152/220 27/153/221
f 63/154/222 61/150/223 27/153/224 28/155/225
f 65/156/226 63/154/227 28/155/228 29/157/229
f 67/158/230 65/156/231 29/157/232 30/159/233
f 69/160/234 67/158/235 30/159/236 31/161/237
f 71/162/238 69/160/239 31/161/240 32/163/241
f 73/164/242 71/162/243 32/163/244 33/165/245
f 75/166/246 73/164/247 33/165/248 34/167/249
f 77/168/250 75/166/251 34/167/252 35/169/253
f 79/170/254 77/168/255 35/169/237 36/171/237
f 81/172/256 79/170/256 36/171/257 37/173/258
f 83/174/256 81/172/256 37/173/258 38/175/259
f 85/176/260 83/174/261 38/175/262 39/177/263
f 87/178/264 85/176/265 39/177/266 40/179/267
f 89/180/268 87/178/268 40/179/269 41/181/270
f 59/151/271 89/180/272 41/181/273 26/152/273
