# Blender 4.1.0
# www.blender.org
mtllib DrawermeshDeskDrawer_306_3_3.mtl
o DeskDrawer_306_3
v 0.389952 -0.366714 -0.302723
v 0.391271 -0.366714 -0.302723
v 0.391271 -0.367913 -0.298911
v 0.389952 -0.367913 -0.298911
v 0.389952 -0.367910 -0.306536
v 0.391271 -0.367910 -0.306536
v 0.359560 -0.373658 -0.306538
v 0.359560 -0.372463 -0.302725
v 0.298241 -0.373658 -0.306538
v 0.298241 -0.372462 -0.302725
v 0.359560 -0.373661 -0.298913
v 0.298241 -0.373661 -0.298913
v 0.267875 -0.366714 -0.302723
v 0.267875 -0.367912 -0.298911
v 0.267875 -0.367910 -0.306536
v 0.265825 -0.367910 -0.306536
v 0.265825 -0.366714 -0.302723
v 0.265825 -0.367912 -0.298911
v 0.391271 -0.370803 -0.297333
v 0.389952 -0.370803 -0.297333
v 0.391271 -0.373692 -0.298913
v 0.389952 -0.373692 -0.298913
v 0.359560 -0.376552 -0.297335
v 0.359560 -0.379441 -0.298915
v 0.298241 -0.376552 -0.297335
v 0.298241 -0.379441 -0.298915
v 0.267875 -0.370803 -0.297333
v 0.267875 -0.373692 -0.298913
v 0.265825 -0.370803 -0.297333
v 0.265825 -0.373692 -0.298913
v 0.391271 -0.374888 -0.302726
v 0.389952 -0.374888 -0.302726
v 0.391271 -0.373690 -0.306538
v 0.389952 -0.373690 -0.306538
v 0.359560 -0.380637 -0.302728
v 0.359560 -0.379439 -0.306540
v 0.298241 -0.380637 -0.302728
v 0.298241 -0.379438 -0.306540
v 0.267875 -0.374888 -0.302726
v 0.267875 -0.373690 -0.306538
v 0.265825 -0.374888 -0.302726
v 0.265825 -0.373690 -0.306538
v 0.391271 -0.370799 -0.308117
v 0.389952 -0.370799 -0.308117
v 0.359560 -0.376548 -0.308119
v 0.298241 -0.376548 -0.308118
v 0.267875 -0.370799 -0.308116
v 0.265825 -0.370799 -0.308116
v 0.676847 -0.361540 -0.206469
v 0.048552 -0.361540 -0.206469
v 0.048552 -0.351452 -0.206466
v 0.676847 -0.351452 -0.206466
v 0.670440 -0.348597 -0.215138
v 0.670440 0.081896 -0.214989
v 0.670440 0.081982 -0.466532
v 0.670440 -0.348510 -0.466680
v 0.048552 -0.361447 -0.475358
v 0.676847 -0.361447 -0.475358
v 0.676847 -0.351360 -0.475354
v 0.048552 -0.351360 -0.475354
v 0.679001 -0.361447 -0.473176
v 0.679001 -0.361539 -0.208651
v 0.679001 -0.351452 -0.208647
v 0.679001 -0.351360 -0.473173
v 0.676847 -0.364299 -0.473177
v 0.048552 -0.364299 -0.473177
v 0.048552 -0.364391 -0.208652
v 0.676847 -0.364391 -0.208652
v 0.046400 -0.361539 -0.208651
v 0.046400 -0.361447 -0.473176
v 0.046400 -0.351360 -0.473173
v 0.046400 -0.351452 -0.208647
v 0.054960 -0.348510 -0.466680
v 0.048552 -0.348508 -0.473172
v 0.676847 -0.348508 -0.473172
v 0.054960 -0.348597 -0.215138
v 0.048552 -0.348600 -0.208646
v 0.676847 -0.348600 -0.208646
v 0.054960 0.081896 -0.214989
v 0.054960 0.081982 -0.466532
v 0.063522 0.070557 -0.214993
v 0.063522 0.070639 -0.453507
v 0.063522 -0.337176 -0.453648
v 0.063522 -0.337258 -0.215134
v 0.661878 -0.337258 -0.215134
v 0.661878 0.070557 -0.214993
v 0.661878 0.070639 -0.453507
v 0.661878 -0.337176 -0.453648
vn -0.0917 0.9958 0.0002
vn 0.6319 0.5990 0.4920
vn 0.6456 0.7637 0.0002
vn -0.0728 0.7789 0.6229
vn 0.6319 0.5990 0.4919
vn -0.0728 0.7795 -0.6222
vn -0.0917 0.9958 0.0005
vn 0.6456 0.7637 0.0004
vn -0.0728 0.7794 -0.6222
vn 0.6456 0.7637 0.0005
vn 0.6318 0.5994 -0.4914
vn -0.0719 0.7615 -0.6442
vn -0.0728 0.7792 -0.6226
vn -0.0720 0.7615 -0.6441
vn -0.0950 0.9955 0.0003
vn -0.0917 0.9958 0.0003
vn -0.0950 0.9955 0.0002
vn 0.0720 0.7617 -0.6439
vn -0.0950 0.9955 0.0006
vn -0.0719 0.7618 -0.6439
vn 0.0720 0.7615 -0.6441
vn 0.0951 0.9955 0.0002
vn 0.0951 0.9955 0.0003
vn -0.0719 0.7611 0.6446
vn -0.0719 0.7609 0.6449
vn -0.0727 0.7787 0.6232
vn 0.0951 0.9955 0.0004
vn 0.0720 0.7610 0.6447
vn -0.0720 0.7611 0.6447
vn 0.0918 0.9958 -0.0000
vn 0.0721 0.7613 0.6443
vn 0.0951 0.9955 -0.0000
vn 0.0918 0.9958 0.0006
vn 0.0728 0.7787 0.6232
vn 0.0720 0.7609 0.6448
vn 0.0729 0.7793 -0.6223
vn 0.0951 0.9955 0.0005
vn 0.0720 0.7616 -0.6440
vn 0.0729 0.7794 -0.6222
vn 0.0918 0.9958 0.0005
vn -0.6318 0.5994 -0.4914
vn 0.0918 0.9958 0.0008
vn 0.0728 0.7796 -0.6221
vn -0.6319 0.5991 -0.4918
vn -0.6455 0.7638 0.0001
vn 0.0918 0.9958 0.0002
vn -0.6456 0.7637 -0.0000
vn 0.0728 0.7790 0.6227
vn 0.0918 0.9958 0.0001
vn -0.6455 0.7638 0.0005
vn -0.6319 0.5987 0.4922
vn 0.0729 0.7787 0.6232
vn -0.0728 0.7787 0.6231
vn 0.6135 -0.0004 0.7897
vn 0.6319 0.5988 0.4921
vn -0.0053 0.0282 0.9996
vn 0.6135 -0.0002 0.7897
vn -0.0054 0.0280 0.9996
vn 0.6319 -0.5992 0.4916
vn 0.6134 -0.0002 0.7897
vn -0.0054 0.0282 0.9996
vn 0.0720 -0.7614 0.6442
vn 0.6319 -0.5991 0.4917
vn 0.0054 -0.0289 0.9996
vn 0.0720 -0.7616 0.6441
vn 0.0053 -0.0287 0.9996
vn 0.0728 -0.7792 0.6226
vn 0.0720 -0.7614 0.6443
vn -0.0053 -0.0288 0.9996
vn 0.0727 -0.7793 0.6225
vn 0.0053 -0.0288 0.9996
vn -0.0054 -0.0287 0.9996
vn -0.0728 -0.7792 0.6225
vn 0.0728 -0.7792 0.6225
vn 0.0720 0.7611 0.6447
vn -0.0053 -0.0287 0.9996
vn -0.0720 0.7611 0.6446
vn 0.0054 -0.0287 0.9996
vn -0.0054 0.0281 0.9996
vn 0.0728 0.7789 0.6230
vn 0.0720 0.7611 0.6446
vn 0.0729 0.7788 0.6230
vn 0.0054 0.0282 0.9996
vn -0.0728 -0.7791 0.6226
vn 0.0053 0.0280 0.9996
vn -0.0721 -0.7615 0.6441
vn -0.0728 -0.7793 0.6224
vn -0.6134 -0.0004 0.7898
vn -0.0720 -0.7616 0.6440
vn 0.0053 0.0279 0.9996
vn -0.6134 -0.0003 0.7898
vn -0.6319 -0.5992 0.4916
vn -0.0720 -0.7615 0.6441
vn -0.6319 0.5989 0.4919
vn 0.0053 0.0283 0.9996
vn 0.0728 0.7789 0.6229
vn -0.6318 0.5988 0.4923
vn -0.6135 -0.0006 0.7897
vn 0.0054 0.0278 0.9996
vn 0.6454 -0.7638 -0.0001
vn 0.6319 -0.5990 0.4917
vn 0.0719 -0.7617 0.6439
vn 0.0950 -0.9955 -0.0005
vn 0.6456 -0.7637 -0.0004
vn 0.0950 -0.9955 -0.0001
vn 0.6318 -0.5991 -0.4918
vn 0.6456 -0.7637 -0.0001
vn 0.0950 -0.9955 -0.0008
vn 0.0720 -0.7609 -0.6449
vn 0.6319 -0.5986 -0.4923
vn 0.0917 -0.9958 -0.0004
vn 0.0720 -0.7611 -0.6446
vn 0.0950 -0.9955 -0.0004
vn 0.0917 -0.9958 -0.0006
vn 0.0727 -0.7787 -0.6232
vn 0.0719 -0.7610 -0.6448
vn -0.0918 -0.9958 -0.0003
vn 0.0728 -0.7789 -0.6229
vn 0.0917 -0.9958 -0.0003
vn -0.0917 -0.9958 -0.0004
vn -0.0728 -0.7788 -0.6230
vn 0.0728 -0.7788 -0.6230
vn -0.0918 -0.9958 -0.0002
vn 0.0917 -0.9958 -0.0002
vn -0.0729 -0.7793 0.6224
vn 0.0728 -0.7793 0.6224
vn 0.0720 -0.7616 0.6440
vn 0.0728 -0.7791 0.6227
vn 0.0917 -0.9958 -0.0000
vn -0.0720 -0.7614 0.6443
vn -0.0729 -0.7792 0.6226
vn -0.0721 -0.7616 0.6440
vn -0.0951 -0.9955 -0.0004
vn -0.0918 -0.9958 -0.0004
vn -0.0951 -0.9955 -0.0005
vn -0.0729 -0.7788 -0.6231
vn -0.0918 -0.9958 -0.0005
vn -0.0720 -0.7611 -0.6446
vn -0.0728 -0.7789 -0.6229
vn -0.6455 -0.7637 -0.0000
vn -0.0720 -0.7613 -0.6444
vn -0.0951 -0.9955 -0.0001
vn -0.6455 -0.7638 -0.0004
vn -0.6319 -0.5987 -0.4922
vn -0.0720 -0.7609 -0.6448
vn -0.6318 -0.5994 0.4914
vn -0.0951 -0.9955 -0.0006
vn -0.0720 -0.7617 0.6439
vn -0.6320 -0.5989 0.4918
vn -0.6455 -0.7638 -0.0000
vn -0.0951 -0.9955 -0.0000
vn 0.0719 -0.7609 -0.6449
vn 0.6135 0.0006 -0.7897
vn 0.6318 -0.5988 -0.4922
vn 0.0720 -0.7612 -0.6445
vn -0.0053 0.0285 -0.9996
vn 0.6134 0.0001 -0.7897
vn -0.0054 0.0288 -0.9996
vn 0.6319 0.5992 -0.4916
vn 0.6134 0.0002 -0.7897
vn -0.0054 0.0287 -0.9996
vn -0.0728 0.7792 -0.6225
vn 0.6319 0.5991 -0.4917
vn 0.0054 -0.0280 -0.9996
vn -0.0728 0.7793 -0.6224
vn -0.0054 0.0289 -0.9996
vn 0.0053 -0.0280 -0.9996
vn -0.0728 0.7793 -0.6225
vn -0.0053 -0.0281 -0.9996
vn -0.0053 -0.0282 -0.9996
vn 0.0720 0.7614 -0.6442
vn -0.0719 0.7614 -0.6442
vn 0.0053 -0.0281 -0.9996
vn -0.0053 0.0287 -0.9996
vn 0.0054 -0.0281 -0.9996
vn -0.0054 -0.0281 -0.9996
vn -0.0729 -0.7788 -0.6230
vn -0.0721 -0.7611 -0.6446
vn 0.0054 0.0287 -0.9996
vn -0.0054 -0.0282 -0.9996
vn 0.0720 0.7615 -0.6442
vn 0.0054 0.0288 -0.9996
vn 0.0729 0.7792 -0.6225
vn -0.6134 0.0005 -0.7898
vn 0.0728 0.7795 -0.6222
vn 0.0053 0.0291 -0.9996
vn -0.6136 -0.0001 -0.7896
vn -0.6318 0.5991 -0.4918
vn 0.0729 0.7790 -0.6227
vn -0.6319 -0.5990 -0.4918
vn 0.0054 0.0285 -0.9996
vn -0.0720 -0.7612 -0.6445
vn -0.6318 -0.5987 -0.4923
vn -0.6135 0.0007 -0.7897
vn 0.0054 0.0292 -0.9996
vn 0.6314 -0.5994 -0.4921
vn 0.6314 -0.5997 0.4916
vn 0.6447 -0.7644 -0.0003
vn 0.6319 -0.5988 -0.4920
vn 0.6134 0.0004 -0.7898
vn 0.6318 -0.5993 0.4917
vn 0.6134 0.0003 -0.7897
vn 0.6134 -0.0003 0.7898
vn 0.6134 0.0002 -0.7898
vn 0.6134 -0.0003 0.7897
vn 0.6318 0.5992 -0.4917
vn 0.6318 0.5989 0.4921
vn 0.6318 0.5989 0.4920
vn 0.6455 0.7638 0.0002
vn -0.6314 -0.5997 0.4916
vn -0.6314 -0.5993 -0.4921
vn -0.6448 -0.7644 -0.0003
vn -0.6319 -0.5988 -0.4920
vn -0.6320 -0.5991 0.4916
vn -0.6134 -0.0002 0.7898
vn -0.6318 -0.5989 -0.4921
vn -0.6134 0.0003 -0.7897
vn -0.6134 0.0003 -0.7898
vn -0.6320 0.5987 0.4921
vn -0.6134 0.0002 -0.7897
vn -0.6318 0.5989 0.4921
vn -0.6318 0.5993 -0.4916
vn -0.6455 0.7638 0.0003
vn -0.0000 -0.0003 1.0000
vn 1.0000 -0.0000 -0.0000
vn -0.0000 0.0003 -1.0000
vn -0.0000 -1.0000 -0.0003
vn -1.0000 -0.0000 -0.0000
vn -0.0000 1.0000 0.0004
vn -0.0000 1.0000 0.0003
vn 0.6268 -0.4736 0.6187
vn -0.6270 -0.4735 0.6186
vn 0.6269 -0.4731 -0.6190
vn -0.6267 -0.4734 -0.6190
vn 0.6269 0.4735 -0.6187
vn 0.6269 0.4731 0.6190
vn -0.6268 0.4737 -0.6186
vn -0.6269 0.4735 0.6187
vn 0.7981 -0.6026 -0.0002
vn 0.7980 -0.6026 -0.0002
vn -0.7982 -0.6024 -0.0002
vn -0.7981 -0.6025 -0.0002
vn -0.0000 -0.6078 0.7941
vn -0.0000 -0.6072 -0.7945
vn 0.7983 0.6023 0.0002
vn 0.7981 0.6026 0.0002
vn -0.7980 0.6027 0.0002
vn -0.7982 0.6024 0.0002
vn -0.0000 0.6073 0.7945
vn -0.0000 0.6077 -0.7941
vn -0.7118 0.0002 -0.7024
vn -0.7118 -0.0002 0.7024
vn 0.7116 -0.0002 0.7025
vn 0.7117 -0.0002 0.7025
vn 0.7116 0.0002 -0.7025
vn 0.7116 0.0002 -0.7026
vt 0.260898 0.657213
vt 0.260287 0.659318
vt 0.260287 0.657213
vt 0.260898 0.659318
vt 0.260898 0.655108
vt 0.260287 0.655108
vt 0.274959 0.655108
vt 0.274959 0.657213
vt 0.303330 0.655108
vt 0.303330 0.657213
vt 0.274959 0.659318
vt 0.303330 0.659318
vt 0.317380 0.657214
vt 0.317380 0.659318
vt 0.317380 0.655109
vt 0.318328 0.655109
vt 0.318328 0.657214
vt 0.318328 0.659318
vt 0.260898 0.133111
vt 0.260287 0.134448
vt 0.260287 0.133111
vt 0.260898 0.134448
vt 0.260287 0.135786
vt 0.260898 0.135786
vt 0.274959 0.137108
vt 0.274959 0.138445
vt 0.303329 0.137108
vt 0.303329 0.138445
vt 0.303330 0.135771
vt 0.274959 0.135771
vt 0.317380 0.133111
vt 0.317380 0.134448
vt 0.317379 0.135786
vt 0.318328 0.134448
vt 0.318328 0.135786
vt 0.318328 0.133111
vt 0.303329 0.657213
vt 0.303329 0.659318
vt 0.317379 0.659318
vt 0.318328 0.657214
vt 0.318328 0.659318
vt 0.303330 0.137108
vt 0.303330 0.138445
vt 0.317380 0.135786
vt 0.318328 0.134448
vt 0.318328 0.135786
vt 0.135786 0.655108
vt 0.135786 0.659318
vt 0.136340 0.657213
vt 0.134448 0.654236
vt 0.134448 0.660190
vt 0.133111 0.655108
vt 0.133111 0.659318
vt 0.132558 0.657213
vt 0.135786 0.659318
vt 0.135786 0.655109
vt 0.136339 0.657214
vt 0.134448 0.660191
vt 0.134448 0.654236
vt 0.133111 0.659318
vt 0.133111 0.655109
vt 0.132557 0.657214
vt 0.390161 0.071494
vt 0.023216 0.075943
vt 0.023216 0.071494
vt 0.390161 0.075943
vt 0.077200 0.681433
vt 0.267031 0.536413
vt 0.267031 0.681433
vt 0.077200 0.536413
vt 0.071494 0.532671
vt 0.075943 0.685176
vt 0.071494 0.685176
vt 0.075943 0.532671
vt 0.390161 0.532671
vt 0.023216 0.685176
vt 0.023216 0.532671
vt 0.390161 0.685176
vt 0.026959 0.536413
vt 0.386419 0.536413
vt 0.026959 0.681433
vt 0.386419 0.681433
vt 0.386419 0.077200
vt 0.026959 0.267031
vt 0.386419 0.267031
vt 0.026959 0.077200
vt 0.262031 0.681433
vt 0.082200 0.543924
vt 0.262031 0.543924
vt 0.082200 0.681433
vt 0.381419 0.082200
vt 0.031959 0.082200
vt 0.381419 0.262031
vt 0.031959 0.262031
vt 0.031959 0.681433
vt 0.381419 0.543924
vt 0.031959 0.543924
vt 0.381419 0.681433
vt 0.071494 0.686433
vt 0.070237 0.685176
vt 0.021959 0.071494
vt 0.023216 0.070237
vt 0.070237 0.532671
vt 0.071494 0.531413
vt 0.075943 0.531413
vt 0.077200 0.532671
vt 0.077200 0.685176
vt 0.075943 0.686433
vt 0.023216 0.077200
vt 0.021959 0.075943
vt 0.021959 0.685176
vt 0.021959 0.532671
vt 0.390161 0.070237
vt 0.390161 0.077200
s 1
usemtl M_DeskDrawer_306_3_0
f 1/1/1 3/2/2 2/3/3
f 1/1/1 4/4/4 3/2/5
f 5/5/6 1/1/7 2/3/8
f 5/5/9 2/3/10 6/6/11
f 7/7/12 1/1/1 5/5/13
f 7/7/14 8/8/15 1/1/16
f 8/8/17 4/4/4 1/1/16
f 9/9/18 8/8/19 7/7/20
f 9/9/21 10/10/22 8/8/15
f 10/10/23 11/11/24 8/8/15
f 8/8/19 11/11/25 4/4/26
f 10/10/27 12/12/28 11/11/29
f 13/13/30 12/12/31 10/10/32
f 13/13/33 14/14/34 12/12/35
f 15/15/36 10/10/37 9/9/38
f 15/15/39 13/13/40 10/10/37
f 16/16/41 13/13/42 15/15/43
f 16/16/44 17/17/45 13/13/46
f 17/17/47 14/14/48 13/13/49
f 17/17/50 18/18/51 14/14/52
f 4/19/53 19/20/54 3/21/55
f 4/19/4 20/22/56 19/20/57
f 20/22/58 21/23/59 19/20/60
f 20/22/61 22/24/62 21/23/63
f 23/25/64 22/24/65 20/22/58
f 23/25/66 24/26/67 22/24/68
f 25/27/69 24/26/70 23/25/71
f 25/27/72 26/28/73 24/26/74
f 12/29/75 25/27/76 23/25/66
f 12/29/75 23/25/66 11/30/29
f 11/30/77 20/22/61 4/19/4
f 11/30/77 23/25/78 20/22/79
f 14/31/80 25/27/76 12/29/81
f 14/31/82 27/32/83 25/27/72
f 27/32/83 26/28/84 25/27/72
f 27/32/85 28/33/86 26/28/87
f 29/34/88 28/33/89 27/32/90
f 29/34/91 30/35/92 28/33/93
f 18/36/94 27/32/95 14/31/96
f 18/36/97 29/34/98 27/32/99
f 22/4/68 31/3/100 21/2/101
f 22/4/102 32/1/103 31/3/104
f 32/1/105 33/6/106 31/3/107
f 32/1/108 34/5/109 33/6/110
f 35/8/111 34/5/112 32/1/113
f 35/8/114 36/7/115 34/5/116
f 37/37/117 36/7/118 35/8/119
f 37/37/120 38/9/121 36/7/122
f 26/38/73 37/37/123 35/8/124
f 26/38/125 35/8/111 24/11/126
f 24/11/126 32/1/113 22/4/127
f 24/11/128 35/8/129 32/1/105
f 28/39/130 37/37/123 26/38/131
f 28/39/132 39/13/133 37/37/134
f 39/13/135 38/9/136 37/37/137
f 39/13/133 40/15/138 38/9/139
f 41/40/140 40/15/141 39/13/142
f 41/40/143 42/16/144 40/15/145
f 30/41/146 39/13/147 28/39/148
f 30/41/149 41/40/150 39/13/151
f 34/24/152 43/20/153 33/23/154
f 34/24/155 44/22/156 43/20/157
f 44/22/158 6/21/159 43/20/160
f 44/22/161 5/19/162 6/21/163
f 45/25/164 5/19/165 44/22/166
f 45/25/167 7/30/14 5/19/168
f 46/42/169 7/30/14 45/25/167
f 46/42/170 9/29/171 7/30/172
f 38/43/121 46/42/169 45/25/167
f 38/43/121 45/25/173 36/26/122
f 36/26/122 44/22/174 34/24/112
f 36/26/122 45/25/175 44/22/161
f 40/44/138 46/42/176 38/43/177
f 40/44/178 47/32/179 46/42/180
f 47/32/179 9/29/181 46/42/176
f 47/32/182 15/31/183 9/29/181
f 48/45/184 15/31/185 47/32/186
f 48/45/187 16/36/188 15/31/189
f 42/46/190 47/32/191 40/44/192
f 42/46/193 48/45/194 47/32/195
f 33/47/196 21/48/197 31/49/198
f 21/48/59 33/47/199 43/50/200
f 21/48/201 43/50/202 19/51/60
f 19/51/203 43/50/204 6/52/159
f 19/51/205 6/52/206 3/53/207
f 3/53/208 6/52/206 2/54/209
f 30/55/210 42/56/211 41/57/212
f 42/56/213 30/55/214 29/58/215
f 42/56/216 29/58/215 48/59/217
f 48/59/218 29/58/88 18/60/219
f 48/59/220 18/60/221 16/61/222
f 16/61/222 18/60/221 17/62/223
f 49/63/224 51/64/224 50/65/224
f 49/63/224 52/66/224 51/64/224
f 53/67/225 55/68/225 54/69/225
f 53/67/225 56/70/225 55/68/225
f 57/65/226 59/66/226 58/63/226
f 57/65/226 60/64/226 59/66/226
f 61/71/225 63/72/225 62/73/225
f 61/71/225 64/74/225 63/72/225
f 65/75/227 67/76/227 66/77/227
f 65/75/227 68/78/227 67/76/227
f 69/73/228 71/74/228 70/71/228
f 69/73/228 72/72/228 71/74/228
f 73/79/229 75/75/229 74/77/229
f 73/79/229 56/80/229 75/75/229
f 76/81/230 73/79/230 74/77/230
f 76/81/230 74/77/230 77/76/230
f 53/82/229 76/81/229 77/76/229
f 53/82/229 77/76/229 78/78/229
f 56/80/230 78/78/230 75/75/230
f 56/80/230 53/82/230 78/78/230
f 55/80/230 79/81/230 54/82/230
f 55/80/230 80/79/230 79/81/230
f 73/70/228 79/69/228 80/68/228
f 73/70/228 76/67/228 79/69/228
f 56/83/226 80/84/226 55/85/226
f 56/83/226 73/86/226 80/84/226
f 81/87/225 83/88/225 82/89/225
f 81/87/225 84/90/225 83/88/225
f 85/91/224 76/86/224 53/83/224
f 85/91/224 84/92/224 76/86/224
f 86/93/224 85/91/224 53/83/224
f 86/93/224 53/83/224 54/85/224
f 81/94/224 86/93/224 54/85/224
f 81/94/224 54/85/224 79/84/224
f 84/92/224 79/84/224 76/86/224
f 84/92/224 81/94/224 79/84/224
f 83/92/224 87/93/224 82/94/224
f 83/92/224 88/91/224 87/93/224
f 84/95/230 88/96/230 83/97/230
f 84/95/230 85/98/230 88/96/230
f 86/98/227 82/97/227 87/96/227
f 86/98/227 81/95/227 82/97/227
f 85/90/228 87/89/228 88/88/228
f 85/90/228 86/87/228 87/89/228
f 62/73/231 49/99/231 68/100/231
f 69/101/232 67/102/232 50/65/232
f 61/71/233 65/103/233 58/104/233
f 70/101/234 57/65/234 66/102/234
f 64/74/235 59/105/235 75/106/235
f 78/107/236 52/108/236 63/72/236
f 74/109/237 60/64/237 71/110/237
f 72/110/238 51/64/238 77/109/238
f 61/71/239 68/100/239 65/103/239
f 61/71/240 62/73/240 68/100/240
f 66/77/241 69/111/241 70/112/241
f 66/77/242 67/76/242 69/111/242
f 49/63/243 67/102/243 68/113/243
f 49/63/243 50/65/243 67/102/243
f 65/113/244 57/65/244 58/63/244
f 65/113/244 66/102/244 57/65/244
f 75/106/245 63/72/245 64/74/245
f 75/106/246 78/107/246 63/72/246
f 71/112/247 77/76/247 74/77/247
f 71/112/248 72/111/248 77/76/248
f 78/114/249 51/64/249 52/66/249
f 78/114/249 77/109/249 51/64/249
f 59/66/250 74/109/250 75/114/250
f 59/66/250 60/64/250 74/109/250
f 70/101/251 60/64/251 57/65/251
f 70/101/251 71/110/251 60/64/251
f 72/110/252 50/65/252 51/64/252
f 72/110/252 69/101/252 50/65/252
f 52/108/253 62/73/253 63/72/253
f 52/108/254 49/99/254 62/73/254
f 58/104/255 64/74/255 61/71/255
f 58/104/256 59/105/256 64/74/256
