# Blender 4.1.0
# www.blender.org
mtllib DrawermeshDeskDrawer_306_1_1.mtl
o DeskDrawer_306_1
v 0.389952 -0.366891 0.208322
v 0.391271 -0.366891 0.208322
v 0.391271 -0.368089 0.212133
v 0.389952 -0.368089 0.212133
v 0.389952 -0.368087 0.204509
v 0.391271 -0.368087 0.204509
v 0.359560 -0.373835 0.204507
v 0.359560 -0.372639 0.208320
v 0.298241 -0.373835 0.204507
v 0.298241 -0.372639 0.208320
v 0.359560 -0.373838 0.212132
v 0.298241 -0.373838 0.212132
v 0.267875 -0.366891 0.208322
v 0.267875 -0.368089 0.212134
v 0.267875 -0.368087 0.204509
v 0.265825 -0.368087 0.204509
v 0.265825 -0.366891 0.208322
v 0.265825 -0.368089 0.212134
v 0.391271 -0.370980 0.213712
v 0.389952 -0.370980 0.213712
v 0.391271 -0.373869 0.212131
v 0.389952 -0.373869 0.212131
v 0.359560 -0.376728 0.213710
v 0.359560 -0.379618 0.212130
v 0.298241 -0.376728 0.213710
v 0.298241 -0.379617 0.212130
v 0.267875 -0.370979 0.213712
v 0.267875 -0.373869 0.212132
v 0.265825 -0.370979 0.213712
v 0.265825 -0.373869 0.212132
v 0.391271 -0.375065 0.208319
v 0.389952 -0.375065 0.208319
v 0.391271 -0.373866 0.204507
v 0.389952 -0.373866 0.204507
v 0.359560 -0.380814 0.208317
v 0.359560 -0.379615 0.204505
v 0.298241 -0.380813 0.208317
v 0.298241 -0.379615 0.204505
v 0.267875 -0.375065 0.208319
v 0.267875 -0.373866 0.204507
v 0.265825 -0.375065 0.208319
v 0.265825 -0.373866 0.204507
v 0.391271 -0.370976 0.202928
v 0.389952 -0.370976 0.202928
v 0.359560 -0.376725 0.202926
v 0.298241 -0.376724 0.202926
v 0.267875 -0.370976 0.202928
v 0.265825 -0.370976 0.202928
v 0.676847 -0.361712 0.293055
v 0.048553 -0.361712 0.293055
v 0.048553 -0.351625 0.293059
v 0.676847 -0.351625 0.293059
v 0.670440 -0.348705 0.098386
v 0.670440 0.081787 0.098535
v 0.054960 0.081787 0.098535
v 0.054960 -0.348705 0.098386
v 0.676847 -0.364495 0.091889
v 0.048553 -0.364495 0.091889
v 0.048553 -0.364564 0.290873
v 0.676847 -0.364564 0.290873
v 0.048553 -0.361642 0.089709
v 0.676847 -0.361642 0.089709
v 0.676847 -0.351555 0.089713
v 0.048553 -0.351555 0.089713
v 0.046400 -0.361712 0.290874
v 0.046400 -0.361643 0.091890
v 0.046400 -0.351556 0.091894
v 0.046400 -0.351624 0.290877
v 0.048553 -0.348704 0.091895
v 0.676847 -0.348704 0.091895
v 0.054960 -0.348770 0.284387
v 0.048553 -0.348772 0.290878
v 0.670440 -0.348770 0.284387
v 0.676847 -0.348772 0.290878
v 0.670440 0.081723 0.284536
v 0.054960 0.081723 0.284536
v 0.661878 -0.337431 0.284391
v 0.661878 -0.337371 0.108854
v 0.661878 0.070444 0.108995
v 0.661878 0.070384 0.284532
v 0.063522 -0.337431 0.284391
v 0.063522 0.070384 0.284532
v 0.063522 -0.337371 0.108854
v 0.063522 0.070444 0.108995
v 0.679001 -0.361712 0.290874
v 0.679001 -0.361643 0.091890
v 0.679001 -0.351556 0.091894
v 0.679001 -0.351624 0.290877
vn -0.0917 0.9958 0.0001
vn 0.6336 0.5988 0.4899
vn 0.6449 0.7643 0.0001
vn -0.0917 0.9958 0.0003
vn -0.0729 0.7801 0.6214
vn 0.6337 0.5987 0.4899
vn -0.0729 0.7803 -0.6212
vn 0.6448 0.7643 0.0001
vn -0.0729 0.7806 -0.6208
vn 0.6449 0.7643 0.0005
vn 0.6337 0.5991 -0.4894
vn -0.0721 0.7626 -0.6429
vn -0.0917 0.9958 0.0002
vn -0.0729 0.7804 -0.6211
vn -0.0721 0.7627 -0.6427
vn -0.0951 0.9955 0.0004
vn -0.0917 0.9958 0.0004
vn -0.0951 0.9955 0.0002
vn -0.0730 0.7801 0.6213
vn 0.0721 0.7627 -0.6427
vn -0.0950 0.9955 0.0005
vn -0.0720 0.7628 -0.6427
vn 0.0721 0.7626 -0.6429
vn 0.0951 0.9955 0.0002
vn -0.0950 0.9955 0.0003
vn 0.0951 0.9955 0.0003
vn -0.0720 0.7622 0.6433
vn -0.0951 0.9955 0.0006
vn -0.0720 0.7620 0.6435
vn -0.0729 0.7798 0.6217
vn 0.0951 0.9955 0.0006
vn 0.0721 0.7621 0.6435
vn -0.0720 0.7621 0.6435
vn 0.0918 0.9958 0.0004
vn 0.0722 0.7622 0.6433
vn 0.0951 0.9955 0.0004
vn 0.0730 0.7800 0.6215
vn 0.0721 0.7622 0.6434
vn 0.0729 0.7804 -0.6211
vn 0.0721 0.7625 -0.6430
vn 0.0730 0.7805 -0.6209
vn 0.0952 0.9955 0.0004
vn -0.6337 0.5991 -0.4894
vn 0.0918 0.9958 0.0006
vn 0.0730 0.7806 -0.6208
vn -0.6337 0.5989 -0.4897
vn -0.6448 0.7643 0.0003
vn 0.0918 0.9958 0.0003
vn -0.6449 0.7643 0.0001
vn 0.0729 0.7802 0.6213
vn 0.0918 0.9958 0.0001
vn -0.6448 0.7644 0.0005
vn -0.6337 0.5984 0.4902
vn 0.0730 0.7798 0.6217
vn 0.6192 -0.0005 0.7852
vn 0.6337 0.5985 0.4901
vn -0.0729 0.7800 0.6216
vn -0.0054 0.0282 0.9996
vn 0.6192 -0.0002 0.7852
vn -0.0054 0.0283 0.9996
vn 0.6337 -0.5989 0.4897
vn 0.6192 -0.0001 0.7852
vn -0.0054 0.0280 0.9996
vn 0.0721 -0.7627 0.6428
vn 0.6337 -0.5989 0.4895
vn 0.0054 -0.0288 0.9996
vn 0.0720 -0.7625 0.6429
vn 0.0054 -0.0289 0.9996
vn 0.0729 -0.7804 0.6210
vn 0.0721 -0.7626 0.6429
vn -0.0053 -0.0289 0.9996
vn -0.0053 -0.0288 0.9996
vn -0.0729 -0.7804 0.6211
vn 0.0729 -0.7804 0.6211
vn 0.0721 0.7622 0.6433
vn 0.0053 -0.0288 0.9996
vn -0.0721 0.7622 0.6434
vn -0.0721 0.7622 0.6433
vn -0.0729 0.7800 0.6215
vn 0.0054 -0.0290 0.9996
vn -0.0054 0.0281 0.9996
vn 0.0730 0.7799 0.6216
vn -0.0054 -0.0289 0.9996
vn 0.0721 0.7621 0.6434
vn 0.0054 0.0283 0.9996
vn -0.0054 -0.0287 0.9996
vn 0.0054 0.0281 0.9996
vn -0.0730 -0.7804 0.6210
vn -0.0721 -0.7625 0.6430
vn -0.0730 -0.7803 0.6211
vn -0.6191 -0.0005 0.7853
vn -0.0721 -0.7628 0.6426
vn 0.0053 0.0278 0.9996
vn -0.6193 0.0002 0.7852
vn -0.6337 -0.5987 0.4899
vn -0.0721 -0.7623 0.6432
vn -0.6338 0.5986 0.4899
vn 0.0054 0.0285 0.9996
vn 0.0730 0.7801 0.6214
vn -0.6337 0.5985 0.4901
vn -0.6192 -0.0005 0.7852
vn 0.0054 0.0280 0.9996
vn 0.0720 -0.7623 0.6432
vn 0.6447 -0.7644 0.0001
vn 0.6338 -0.5987 0.4898
vn 0.0720 -0.7628 0.6426
vn 0.0950 -0.9955 -0.0005
vn 0.6449 -0.7643 -0.0004
vn 0.0950 -0.9955 -0.0002
vn 0.6337 -0.5987 -0.4900
vn 0.6449 -0.7643 -0.0002
vn 0.0720 -0.7623 -0.6432
vn 0.6337 -0.5987 -0.4899
vn 0.0917 -0.9958 -0.0005
vn 0.0720 -0.7621 -0.6434
vn 0.0951 -0.9955 -0.0005
vn 0.0917 -0.9958 -0.0001
vn 0.0729 -0.7802 -0.6213
vn 0.0721 -0.7624 -0.6431
vn -0.0918 -0.9958 -0.0003
vn 0.0729 -0.7800 -0.6215
vn 0.0917 -0.9958 -0.0003
vn -0.0918 -0.9958 -0.0001
vn -0.0729 -0.7802 -0.6212
vn -0.0918 -0.9958 -0.0002
vn 0.0917 -0.9958 -0.0002
vn -0.0730 -0.7805 0.6209
vn 0.0916 -0.9958 -0.0005
vn 0.0729 -0.7805 0.6208
vn 0.0729 -0.7805 0.6209
vn 0.0951 -0.9955 -0.0004
vn 0.0721 -0.7627 0.6427
vn 0.0729 -0.7803 0.6211
vn 0.0951 -0.9955 -0.0002
vn -0.0722 -0.7627 0.6427
vn -0.0918 -0.9958 -0.0004
vn -0.0721 -0.7627 0.6427
vn -0.0951 -0.9955 -0.0004
vn -0.0951 -0.9955 -0.0002
vn -0.0730 -0.7802 -0.6213
vn -0.0951 -0.9955 -0.0006
vn -0.0721 -0.7620 -0.6435
vn -0.0730 -0.7799 -0.6217
vn -0.6448 -0.7643 -0.0002
vn -0.0721 -0.7622 -0.6433
vn -0.6448 -0.7644 -0.0005
vn -0.6338 -0.5985 -0.4901
vn -0.6337 -0.5991 0.4894
vn -0.6337 -0.5989 0.4897
vn -0.0951 -0.9955 -0.0003
vn 0.6191 0.0001 -0.7853
vn 0.6337 -0.5986 -0.4899
vn 0.0720 -0.7621 -0.6435
vn -0.0053 0.0290 -0.9996
vn 0.6192 0.0004 -0.7852
vn -0.0054 0.0289 -0.9996
vn 0.6337 0.5989 -0.4895
vn 0.6192 0.0003 -0.7852
vn -0.0054 0.0288 -0.9996
vn -0.0729 0.7803 -0.6211
vn 0.6337 0.5989 -0.4897
vn 0.0054 -0.0282 -0.9996
vn -0.0729 0.7804 -0.6210
vn 0.0053 -0.0281 -0.9996
vn -0.0721 0.7626 -0.6428
vn -0.0053 -0.0281 -0.9996
vn -0.0720 0.7626 -0.6428
vn -0.0054 -0.0284 -0.9996
vn -0.0720 0.7625 -0.6430
vn -0.0729 -0.7801 -0.6214
vn 0.0053 -0.0284 -0.9996
vn -0.0730 -0.7798 -0.6217
vn 0.0053 -0.0279 -0.9996
vn 0.0729 -0.7798 -0.6218
vn -0.0054 0.0291 -0.9996
vn 0.0720 -0.7620 -0.6436
vn 0.0729 -0.7801 -0.6214
vn 0.0054 -0.0284 -0.9996
vn -0.0054 0.0287 -0.9996
vn -0.0054 -0.0283 -0.9996
vn -0.0730 -0.7800 -0.6215
vn -0.0721 -0.7621 -0.6434
vn 0.0054 0.0289 -0.9996
vn -0.0054 -0.0281 -0.9996
vn 0.0054 0.0290 -0.9996
vn -0.0054 -0.0280 -0.9996
vn 0.0053 0.0288 -0.9996
vn 0.0730 0.7803 -0.6211
vn -0.6192 0.0005 -0.7852
vn 0.0729 0.7806 -0.6208
vn 0.0054 0.0292 -0.9996
vn -0.6193 -0.0000 -0.7852
vn -0.6337 0.5988 -0.4898
vn 0.0730 0.7802 -0.6212
vn -0.6337 -0.5987 -0.4898
vn 0.0054 0.0286 -0.9996
vn -0.0721 -0.7623 -0.6432
vn -0.6336 -0.5985 -0.4903
vn -0.6192 0.0006 -0.7852
vn 0.0054 0.0293 -0.9996
vn 0.6332 -0.5991 -0.4900
vn 0.6332 -0.5994 0.4897
vn 0.6440 -0.7650 -0.0002
vn 0.6337 -0.5988 0.4897
vn 0.6338 -0.5985 -0.4900
vn 0.6191 0.0004 -0.7853
vn 0.6336 -0.5990 0.4896
vn 0.6191 0.0003 -0.7853
vn 0.6191 -0.0002 0.7853
vn 0.6191 -0.0003 0.7853
vn 0.6191 0.0002 -0.7853
vn 0.6337 0.5989 -0.4896
vn 0.6337 0.5990 -0.4896
vn 0.6336 0.5987 0.4900
vn 0.6336 0.5986 0.4900
vn 0.6448 0.7644 0.0002
vn -0.6332 -0.5995 0.4895
vn -0.6332 -0.5991 -0.4901
vn -0.6441 -0.7649 -0.0003
vn -0.6338 -0.5986 -0.4900
vn -0.6338 -0.5989 0.4896
vn -0.6191 -0.0002 0.7853
vn -0.6337 -0.5987 -0.4900
vn -0.6191 -0.0003 0.7853
vn -0.6191 0.0002 -0.7853
vn -0.6191 0.0003 -0.7853
vn -0.6338 0.5984 0.4901
vn -0.6337 0.5986 0.4900
vn -0.6337 0.5990 -0.4895
vn -0.6332 0.5995 -0.4895
vn -0.6332 0.5991 0.4901
vn -0.6441 0.7650 0.0003
vn -0.0000 -0.0004 1.0000
vn -0.0000 0.0003 -1.0000
vn -0.0000 -1.0000 -0.0003
vn -1.0000 -0.0000 -0.0000
vn -0.0000 1.0000 0.0003
vn -0.0001 1.0000 0.0003
vn -0.0000 1.0000 0.0004
vn 0.0001 1.0000 0.0003
vn 1.0000 -0.0000 -0.0000
vn -0.0000 -0.0003 1.0000
vn 0.6269 -0.4735 0.6187
vn -0.6269 -0.4735 0.6187
vn 0.6269 -0.4731 -0.6190
vn -0.6269 -0.4731 -0.6190
vn 0.6272 0.4732 -0.6185
vn 0.6269 0.4731 0.6190
vn -0.6270 0.4738 -0.6184
vn -0.6269 0.4731 0.6190
vn 0.7981 -0.6025 -0.0002
vn 0.7980 -0.6026 -0.0002
vn -0.7981 -0.6025 -0.0002
vn -0.7981 -0.6026 -0.0002
vn -0.0000 -0.6077 0.7941
vn -0.0000 -0.6072 -0.7945
vn 0.7981 0.6026 0.0002
vn -0.7981 0.6026 0.0002
vn -0.0000 0.6073 0.7945
vn -0.0000 0.6078 -0.7941
vn 0.7116 -0.0002 0.7025
vn 0.7116 -0.0003 0.7025
vn 0.7116 0.0002 -0.7026
vn -0.7116 0.0002 -0.7026
vn -0.7116 -0.0003 0.7025
vn -0.7116 -0.0002 0.7026
vt 0.260898 0.657213
vt 0.260287 0.659318
vt 0.260287 0.657213
vt 0.260898 0.659318
vt 0.260898 0.655108
vt 0.260287 0.655108
vt 0.274959 0.655108
vt 0.274959 0.657213
vt 0.303330 0.655108
vt 0.303330 0.657213
vt 0.274959 0.659318
vt 0.303330 0.659318
vt 0.317380 0.657214
vt 0.317380 0.659318
vt 0.317380 0.655109
vt 0.318328 0.655109
vt 0.318328 0.657214
vt 0.318328 0.659318
vt 0.260898 0.133111
vt 0.260287 0.134448
vt 0.260287 0.133111
vt 0.260898 0.134448
vt 0.260287 0.135786
vt 0.260898 0.135786
vt 0.274959 0.137108
vt 0.274959 0.138445
vt 0.303329 0.137108
vt 0.303329 0.138445
vt 0.303330 0.135771
vt 0.274959 0.135771
vt 0.317380 0.133111
vt 0.317380 0.134448
vt 0.317379 0.135786
vt 0.318328 0.134448
vt 0.318328 0.135786
vt 0.318328 0.133111
vt 0.303329 0.657213
vt 0.303329 0.659318
vt 0.317379 0.659318
vt 0.318328 0.657214
vt 0.318328 0.659318
vt 0.303330 0.137108
vt 0.303330 0.138445
vt 0.317380 0.135786
vt 0.318328 0.134448
vt 0.318328 0.135786
vt 0.135786 0.655108
vt 0.135786 0.659318
vt 0.136340 0.657213
vt 0.134448 0.654236
vt 0.134448 0.660190
vt 0.133111 0.655108
vt 0.133111 0.659318
vt 0.132558 0.657213
vt 0.135786 0.659318
vt 0.135786 0.655109
vt 0.136339 0.657214
vt 0.134448 0.660191
vt 0.134448 0.654236
vt 0.133111 0.659318
vt 0.133111 0.655109
vt 0.132557 0.657214
vt 0.390161 0.071494
vt 0.023216 0.075943
vt 0.023216 0.071494
vt 0.390161 0.075943
vt 0.386419 0.077200
vt 0.026959 0.267031
vt 0.386419 0.267031
vt 0.026959 0.077200
vt 0.390161 0.858445
vt 0.023216 0.973163
vt 0.023216 0.858445
vt 0.390161 0.973163
vt 0.071494 0.973163
vt 0.075943 0.858445
vt 0.071494 0.858445
vt 0.075943 0.973163
vt 0.026959 0.862187
vt 0.386419 0.862187
vt 0.026959 0.969421
vt 0.386419 0.969421
vt 0.077200 0.969421
vt 0.267031 0.862187
vt 0.267031 0.969421
vt 0.077200 0.862187
vt 0.082200 0.969421
vt 0.262031 0.868220
vt 0.082200 0.868220
vt 0.262031 0.969421
vt 0.381419 0.082200
vt 0.031959 0.082200
vt 0.381419 0.262031
vt 0.031959 0.262031
vt 0.031959 0.969421
vt 0.381419 0.868220
vt 0.031959 0.868220
vt 0.381419 0.969421
vt 0.391419 0.071494
vt 0.390161 0.070237
vt 0.021959 0.071494
vt 0.023216 0.070237
vt 0.391419 0.075943
vt 0.390161 0.077200
vt 0.023216 0.857187
vt 0.021959 0.858445
vt 0.021959 0.075943
vt 0.023216 0.077200
vt 0.070237 0.973163
vt 0.070237 0.858445
vt 0.021959 0.973163
vt 0.077200 0.858445
vt 0.077200 0.973163
s 1
usemtl M_DeskDrawer_306_1_0
f 1/1/1 3/2/2 2/3/3
f 1/1/4 4/4/5 3/2/6
f 5/5/7 1/1/1 2/3/8
f 5/5/9 2/3/10 6/6/11
f 7/7/12 1/1/13 5/5/14
f 7/7/15 8/8/16 1/1/17
f 8/8/18 4/4/19 1/1/1
f 9/9/20 8/8/21 7/7/22
f 9/9/23 10/10/24 8/8/25
f 10/10/26 11/11/27 8/8/25
f 8/8/28 11/11/29 4/4/30
f 10/10/31 12/12/32 11/11/33
f 13/13/34 12/12/35 10/10/36
f 13/13/34 14/14/37 12/12/38
f 15/15/39 10/10/24 9/9/40
f 15/15/41 13/13/34 10/10/42
f 16/16/43 13/13/44 15/15/45
f 16/16/46 17/17/47 13/13/48
f 17/17/49 14/14/50 13/13/51
f 17/17/52 18/18/53 14/14/54
f 4/19/30 19/20/55 3/21/56
f 4/19/57 20/22/58 19/20/59
f 20/22/60 21/23/61 19/20/62
f 20/22/63 22/24/64 21/23/65
f 23/25/66 22/24/67 20/22/58
f 23/25/68 24/26/69 22/24/70
f 25/27/71 24/26/69 23/25/68
f 25/27/72 26/28/73 24/26/74
f 12/29/75 25/27/72 23/25/76
f 12/29/38 23/25/76 11/30/77
f 11/30/78 20/22/60 4/19/79
f 11/30/29 23/25/80 20/22/81
f 14/31/82 25/27/83 12/29/84
f 14/31/37 27/32/85 25/27/86
f 27/32/87 26/28/88 25/27/83
f 27/32/85 28/33/89 26/28/90
f 29/34/91 28/33/92 27/32/93
f 29/34/94 30/35/95 28/33/96
f 18/36/97 27/32/98 14/31/99
f 18/36/100 29/34/101 27/32/102
f 22/4/103 31/3/104 21/2/105
f 22/4/106 32/1/107 31/3/108
f 32/1/109 33/6/110 31/3/111
f 32/1/109 34/5/112 33/6/113
f 35/8/114 34/5/115 32/1/116
f 35/8/117 36/7/118 34/5/119
f 37/37/120 36/7/121 35/8/122
f 37/37/123 38/9/124 36/7/118
f 26/38/73 37/37/125 35/8/126
f 26/38/127 35/8/128 24/11/129
f 24/11/130 32/1/131 22/4/132
f 24/11/133 35/8/126 32/1/134
f 28/39/135 37/37/136 26/38/127
f 28/39/137 39/13/138 37/37/136
f 39/13/139 38/9/140 37/37/123
f 39/13/141 40/15/142 38/9/143
f 41/40/144 40/15/145 39/13/138
f 41/40/146 42/16/147 40/15/142
f 30/41/148 39/13/141 28/39/92
f 30/41/149 41/40/144 39/13/150
f 34/24/112 43/20/151 33/23/152
f 34/24/153 44/22/154 43/20/155
f 44/22/156 6/21/157 43/20/158
f 44/22/159 5/19/160 6/21/161
f 45/25/162 5/19/163 44/22/159
f 45/25/164 7/30/165 5/19/163
f 46/42/166 7/30/167 45/25/164
f 46/42/168 9/29/40 7/30/169
f 38/43/170 46/42/168 45/25/171
f 38/43/172 45/25/173 36/26/174
f 36/26/174 44/22/175 34/24/176
f 36/26/177 45/25/178 44/22/179
f 40/44/145 46/42/180 38/43/181
f 40/44/182 47/32/183 46/42/184
f 47/32/185 9/29/20 46/42/186
f 47/32/187 15/31/188 9/29/40
f 48/45/189 15/31/190 47/32/191
f 48/45/192 16/36/193 15/31/194
f 42/46/195 47/32/196 40/44/197
f 42/46/198 48/45/199 47/32/200
f 33/47/201 21/48/202 31/49/203
f 21/48/204 33/47/205 43/50/206
f 21/48/207 43/50/208 19/51/209
f 19/51/210 43/50/211 6/52/212
f 19/51/210 6/52/213 3/53/214
f 3/53/215 6/52/161 2/54/216
f 30/55/217 42/56/218 41/57/219
f 42/56/220 30/55/221 29/58/222
f 42/56/223 29/58/224 48/59/225
f 48/59/226 29/58/91 18/60/227
f 48/59/225 18/60/228 16/61/229
f 16/61/230 18/60/231 17/62/232
f 49/63/233 51/64/233 50/65/233
f 49/63/233 52/66/233 51/64/233
f 53/67/234 55/68/234 54/69/234
f 53/67/234 56/70/234 55/68/234
f 57/71/235 59/72/235 58/73/235
f 57/71/235 60/74/235 59/72/235
f 61/65/234 63/66/234 62/63/234
f 61/65/234 64/64/234 63/66/234
f 65/75/236 67/76/236 66/77/236
f 65/75/236 68/78/236 67/76/236
f 56/79/237 70/71/237 69/73/237
f 56/79/237 53/80/237 70/71/237
f 71/81/238 56/79/238 69/73/238
f 71/81/237 69/73/237 72/72/237
f 73/82/239 71/81/239 72/72/239
f 73/82/239 72/72/239 74/74/239
f 53/80/240 74/74/240 70/71/240
f 53/80/237 73/82/237 74/74/237
f 54/80/237 76/81/237 75/82/237
f 54/80/237 55/79/237 76/81/237
f 73/83/241 54/84/241 75/85/241
f 73/83/241 53/86/241 54/84/241
f 77/87/236 79/88/236 78/89/236
f 77/87/236 80/90/236 79/88/236
f 56/86/236 76/85/236 55/84/236
f 56/86/236 71/83/236 76/85/236
f 77/91/242 71/70/242 73/67/242
f 77/91/242 81/92/242 71/70/242
f 80/93/242 77/91/242 73/67/242
f 80/93/242 73/67/242 75/69/242
f 82/94/242 80/93/242 75/69/242
f 82/94/242 75/69/242 76/68/242
f 81/92/242 76/68/242 71/70/242
f 81/92/242 82/94/242 76/68/242
f 83/92/242 79/93/242 84/94/242
f 83/92/242 78/91/242 79/93/242
f 82/90/241 83/89/241 84/88/241
f 82/90/241 81/87/241 83/89/241
f 81/95/237 78/96/237 83/97/237
f 81/95/237 77/98/237 78/96/237
f 80/98/235 84/97/235 79/96/235
f 80/98/235 82/95/235 84/97/235
f 85/99/243 49/63/243 60/100/243
f 65/101/244 59/102/244 50/65/244
f 86/99/245 57/100/245 62/63/245
f 66/101/246 61/65/246 58/102/246
f 87/103/247 63/66/247 70/104/247
f 74/104/248 52/66/248 88/103/248
f 69/73/249 64/105/249 67/106/249
f 68/107/250 51/64/250 72/108/250
f 86/77/251 60/109/251 57/110/251
f 86/77/252 85/75/252 60/109/252
f 58/73/253 65/111/253 66/106/253
f 58/73/254 59/72/254 65/111/254
f 49/63/255 59/102/255 60/100/255
f 49/63/255 50/65/255 59/102/255
f 57/100/256 61/65/256 62/63/256
f 57/100/256 58/102/256 61/65/256
f 70/112/257 88/78/257 87/76/257
f 70/112/257 74/113/257 88/78/257
f 67/106/258 72/72/258 69/73/258
f 67/106/258 68/111/258 72/72/258
f 74/104/259 51/64/259 52/66/259
f 74/104/259 72/108/259 51/64/259
f 63/66/260 69/108/260 70/104/260
f 63/66/260 64/64/260 69/108/260
f 85/99/261 52/66/261 49/63/261
f 85/99/262 88/103/262 52/66/262
f 87/103/263 62/63/263 63/66/263
f 87/103/263 86/99/263 62/63/263
f 66/101/264 64/64/264 61/65/264
f 66/101/264 67/107/264 64/64/264
f 68/107/265 50/65/265 51/64/265
f 68/107/266 65/101/266 50/65/266
f 86/77/241 88/78/241 85/75/241
f 86/77/241 87/76/241 88/78/241
