# Blender 4.1.0
# www.blender.org
mtllib SinkFaucetKnob_19_SinkFaucetKnob_19_1.mtl
o SinkFaucetKnob_19
v 0.030016 0.092799 -0.045731
v 0.030016 0.089851 -0.047701
v 0.030016 0.094768 -0.042784
v 0.030016 0.095460 -0.039307
v 0.030016 0.086373 -0.048393
v 0.030016 0.082896 -0.047701
v 0.030016 0.094768 -0.035830
v 0.030016 0.079949 -0.045731
v 0.030016 0.092799 -0.032882
v 0.030016 0.077979 -0.042784
v 0.030016 0.089851 -0.030912
v 0.030016 0.077287 -0.039307
v 0.030016 0.086373 -0.030221
v 0.030016 0.077979 -0.035829
v 0.030016 0.082896 -0.030912
v 0.030016 0.079949 -0.032882
v 0.019408 0.079945 -0.032889
v 0.019408 0.082896 -0.030912
v 0.019408 0.086373 -0.030221
v 0.019408 0.089851 -0.030912
v 0.019408 0.092803 -0.032889
v 0.019408 0.094768 -0.035830
v 0.019408 0.095460 -0.039307
v 0.019408 0.094768 -0.042784
v 0.019408 0.092803 -0.045725
v 0.019408 0.089851 -0.047701
v 0.019408 0.086373 -0.048393
v 0.019408 0.082896 -0.047701
v 0.019408 0.079945 -0.045725
v 0.019408 0.077979 -0.042784
v 0.019408 0.077287 -0.039307
v 0.019408 0.077979 -0.035829
v 0.019409 0.080981 -0.033924
v 0.019409 0.083458 -0.032265
v 0.019408 0.086373 -0.031685
v 0.019409 0.089289 -0.032265
v 0.019409 0.091767 -0.033924
v 0.019408 0.093414 -0.036390
v 0.019408 0.093994 -0.039307
v 0.019408 0.093414 -0.042223
v 0.019409 0.091767 -0.044689
v 0.019409 0.089289 -0.046348
v 0.019408 0.086373 -0.046928
v 0.019409 0.083458 -0.046348
v 0.019409 0.080981 -0.044689
v 0.019408 0.079333 -0.042223
v 0.019408 0.078752 -0.039307
v 0.019408 0.079333 -0.036390
v 0.013347 0.083458 -0.032265
v 0.013347 0.080976 -0.033931
v 0.013346 0.086373 -0.031685
v 0.013347 0.089289 -0.032265
v 0.013347 0.091772 -0.033931
v 0.013346 0.093414 -0.036390
v 0.013346 0.093994 -0.039307
v 0.013346 0.093414 -0.042223
v 0.013347 0.091772 -0.044682
v 0.013347 0.089289 -0.046348
v 0.013346 0.086373 -0.046928
v 0.013347 0.083458 -0.046348
v 0.013347 0.080976 -0.044682
v 0.013346 0.079333 -0.042223
v 0.013346 0.078752 -0.039307
v 0.013346 0.079333 -0.036390
v 0.026480 0.082896 -0.030912
v 0.026480 0.086373 -0.030221
v 0.026480 0.089851 -0.030912
v 0.026480 0.092800 -0.032884
v 0.026480 0.094768 -0.035830
v 0.026480 0.095460 -0.039307
v 0.026480 0.094768 -0.042784
v 0.026480 0.092800 -0.045729
v 0.026480 0.089851 -0.047701
v 0.026480 0.086373 -0.048393
v 0.026480 0.082896 -0.047701
v 0.026480 0.079947 -0.045729
v 0.026480 0.077979 -0.042784
v 0.026480 0.077287 -0.039307
v 0.026480 0.077979 -0.035830
v 0.026480 0.079947 -0.032884
v 0.026480 0.082896 0.023802
v 0.026480 0.086373 0.024494
v 0.030016 0.082896 0.023802
v 0.030016 0.086373 0.024494
v 0.026480 0.089851 0.023802
v 0.030016 0.089851 0.023802
v 0.032447 0.092799 -0.045731
v 0.032447 0.086373 -0.039307
v 0.032447 0.094768 -0.042784
v 0.032447 0.095460 -0.039307
v 0.032447 0.094768 -0.035830
v 0.032447 0.092799 -0.032882
v 0.032447 0.079949 -0.045731
v 0.032447 0.082896 -0.047701
v 0.032447 0.086373 -0.048393
v 0.032447 0.089851 -0.030912
v 0.032447 0.086373 -0.030221
v 0.032447 0.077287 -0.039307
v 0.032447 0.077979 -0.042784
v 0.032447 0.082896 -0.030912
v 0.032447 0.079949 -0.032882
v 0.032447 0.077979 -0.035829
v 0.032447 0.089851 -0.047701
vn 1.0000 -0.0000 -0.0000
vn -0.0001 -0.7071 0.7071
vn -0.0001 -0.7070 0.7072
vn -0.0001 -0.3834 0.9236
vn -0.0001 -0.3837 0.9235
vn -0.0000 -0.0000 1.0000
vn -0.0001 0.3836 0.9235
vn -0.0002 0.7072 0.7070
vn -0.0002 0.7070 0.7073
vn -0.0000 0.9242 0.3820
vn -0.0000 0.9239 0.3825
vn -0.0000 1.0000 -0.0000
vn -0.0000 0.9241 -0.3822
vn -0.0001 0.7069 -0.7073
vn -0.0001 0.7072 -0.7070
vn -0.0001 0.3833 -0.9236
vn -0.0001 0.3838 -0.9234
vn -0.0000 -0.0001 -1.0000
vn -0.0001 -0.3834 -0.9236
vn -0.0001 -0.3838 -0.9234
vn -0.0002 -0.7072 -0.7070
vn -0.0002 -0.7070 -0.7072
vn -0.0000 -0.9240 -0.3824
vn -0.0000 -0.9240 -0.3825
vn -0.0000 -1.0000 -0.0000
vn -0.0000 -0.9240 0.3825
vn -0.0001 -0.4194 0.9078
vn -0.0001 -0.3830 0.9237
vn -0.0001 -0.7073 0.7070
vn -0.0001 0.3830 0.9238
vn -0.0001 0.4194 0.9078
vn -0.0001 0.7072 0.7071
vn -0.0001 0.7073 0.7070
vn -0.0000 0.9239 0.3827
vn -0.0000 0.9240 0.3823
vn -0.0000 0.9239 -0.3827
vn -0.0000 0.9240 -0.3823
vn -0.0001 0.7074 -0.7068
vn -0.0001 0.7073 -0.7069
vn -0.0001 0.3832 -0.9237
vn -0.0000 -0.0000 -1.0000
vn -0.0001 -0.3830 -0.9237
vn -0.0001 -0.3829 -0.9238
vn -0.0001 -0.7074 -0.7068
vn -0.0001 -0.7070 -0.7072
vn 0.0001 -0.9240 -0.3824
vn -0.0000 -0.9238 -0.3828
vn -0.0000 -0.9238 0.3828
vn -0.0000 -0.9240 0.3824
vn -1.0000 0.0003 -0.0003
vn -1.0000 0.0001 -0.0004
vn -1.0000 -0.0000 -0.0003
vn -1.0000 -0.0001 -0.0004
vn -1.0000 -0.0003 -0.0003
vn -1.0000 -0.0002 -0.0000
vn -1.0000 -0.0000 -0.0000
vn -1.0000 -0.0003 0.0003
vn -1.0000 -0.0001 0.0004
vn -1.0000 -0.0000 0.0003
vn -1.0000 0.0001 0.0004
vn -1.0000 0.0003 0.0003
vn -1.0000 0.0002 -0.0000
vn -0.0000 -0.1950 0.9808
vn -0.0000 0.1950 0.9808
vn -0.0002 0.5557 0.8314
vn -0.0001 0.7071 0.7071
vn -0.0000 0.9239 0.3826
vn -0.0001 0.7071 -0.7071
vn -0.0000 0.3827 -0.9239
vn -0.0000 -0.3828 -0.9238
vn -0.0000 -0.7071 -0.7071
vn -0.0000 -0.7071 0.7071
vn -0.0001 -0.5555 0.8315
vn -0.0000 0.9239 -0.3826
vn -0.0000 0.7072 -0.7071
vn -0.0000 0.7071 0.7071
vn -0.0000 0.3826 0.9239
vn -0.0000 -0.3828 0.9238
vn -0.0000 0.3826 -0.9239
vt -19.532965 0.133702
vt -19.516768 0.117511
vt -19.511810 0.124939
vt -19.510063 0.133702
vt -19.511810 0.142465
vt -19.516768 0.149894
vt -19.549156 0.117511
vt -19.541727 0.112546
vt -19.532965 0.110803
vt -19.524200 0.154857
vt -19.532965 0.156601
vt -19.555861 0.133702
vt -19.554119 0.124939
vt -19.541727 0.154857
vt -19.549156 0.149894
vt -19.554119 0.142465
vt -19.524200 0.112546
vt -19.473011 0.356046
vt -19.455812 0.356058
vt -19.455812 0.363089
vt -19.473011 0.363089
vt -19.473015 0.371356
vt -19.455816 0.371356
vt -19.473011 0.379628
vt -19.455812 0.379628
vt -19.473011 0.386672
vt -19.455812 0.386660
vt -19.455816 0.391333
vt -19.473015 0.391333
vt -19.921217 0.860685
vt -19.928640 0.860685
vt -19.928640 0.845254
vt -19.921217 0.845254
vt -19.913795 0.860685
vt -19.913795 0.845254
vt -19.549679 0.351384
vt -19.549675 0.356058
vt -19.566874 0.356046
vt -19.566877 0.351384
vt -19.566874 0.363089
vt -19.549675 0.363089
vt -19.566877 0.371362
vt -19.549679 0.371362
vt -19.566874 0.379631
vt -19.549675 0.379631
vt -19.566874 0.386672
vt -19.549675 0.386660
vt -19.549679 0.391334
vt -19.566877 0.391334
vt -19.955788 0.952399
vt -19.963181 0.952399
vt -19.963181 0.937033
vt -19.955788 0.937033
vt -19.948395 0.952399
vt -19.948395 0.937033
vt -19.455816 0.351384
vt -19.473015 0.351384
vt -19.123459 0.381022
vt -19.143766 0.381022
vt -19.143766 0.372546
vt -19.123459 0.372552
vt -19.143766 0.391007
vt -19.123459 0.391007
vt -19.143766 0.400992
vt -19.123459 0.400992
vt -19.143766 0.409474
vt -19.123459 0.409462
vt -19.143766 0.415112
vt -19.123459 0.415112
vt -19.658587 0.910090
vt -19.667448 0.910090
vt -19.667448 0.892071
vt -19.658587 0.892071
vt -19.649727 0.910090
vt -19.649727 0.892071
vt -19.338501 0.372749
vt -19.338501 0.367179
vt -19.318441 0.367179
vt -19.318441 0.372761
vt -19.338501 0.381128
vt -19.318441 0.381128
vt -19.338501 0.390992
vt -19.318441 0.390992
vt -19.338501 0.400855
vt -19.318441 0.400855
vt -19.338501 0.409228
vt -19.318441 0.409223
vt -19.338501 0.414805
vt -19.318441 0.414805
vt -19.765362 0.920097
vt -19.774208 0.920097
vt -19.774208 0.902107
vt -19.765362 0.902107
vt -19.756516 0.920097
vt -19.756516 0.902107
vt -19.143766 0.366901
vt -19.123459 0.366901
vt -19.246048 0.117501
vt -19.241068 0.124942
vt -19.244476 0.126359
vt -19.248661 0.120113
vt -19.239325 0.133708
vt -19.243013 0.133708
vt -19.241068 0.142474
vt -19.244476 0.141059
vt -19.246048 0.149920
vt -19.248659 0.147308
vt -19.253462 0.154870
vt -19.254877 0.151461
vt -19.262230 0.156617
vt -19.262230 0.152923
vt -19.270996 0.154870
vt -19.269581 0.151461
vt -19.278410 0.149920
vt -19.275797 0.147308
vt -19.283390 0.142474
vt -19.279982 0.141059
vt -19.285133 0.133708
vt -19.281445 0.133708
vt -19.283390 0.124942
vt -19.279982 0.126359
vt -19.278410 0.117501
vt -19.275797 0.120113
vt -19.270996 0.112546
vt -19.269581 0.115960
vt -19.262230 0.110801
vt -19.262230 0.114496
vt -19.253462 0.112546
vt -19.254877 0.115960
vt -19.851839 0.859403
vt -19.851839 0.850581
vt -19.842865 0.850581
vt -19.842865 0.859403
vt -19.851839 0.868224
vt -19.842865 0.868224
vt -19.113306 0.400992
vt -19.113306 0.409462
vt -19.113306 0.415112
vt -19.667448 0.883061
vt -19.658587 0.883061
vt -19.649727 0.883061
vt -19.308411 0.367179
vt -19.308411 0.372761
vt -19.308411 0.381128
vt -19.308411 0.390992
vt -19.308411 0.400855
vt -19.308411 0.409217
vt -19.308411 0.414805
vt -19.774208 0.893112
vt -19.765362 0.893112
vt -19.756516 0.893112
vt -19.113306 0.366901
vt -19.113306 0.372558
vt -19.113306 0.381022
vt -19.947662 0.335481
vt -19.938900 0.333737
vt -19.938900 0.471644
vt -19.947662 0.473386
vt -19.760880 0.329610
vt -19.751970 0.329610
vt -19.751970 0.467493
vt -19.760880 0.467493
vt -19.848339 0.333744
vt -19.839577 0.335488
vt -19.839577 0.473380
vt -19.848339 0.471637
vt -19.956425 0.333737
vt -19.956425 0.471644
vt -19.830814 0.333744
vt -19.830814 0.471637
vt -19.693283 0.467515
vt -19.702196 0.467515
vt -19.702196 0.329580
vt -19.693283 0.329580
vt -19.301516 0.367179
vt -19.301516 0.372761
vt -19.658587 0.876868
vt -19.649727 0.876868
vt -19.667448 0.876868
vt -19.106325 0.409462
vt -19.106325 0.415112
vt -19.301516 0.400855
vt -19.301516 0.409217
vt -19.301516 0.390992
vt -19.106325 0.400992
vt -19.113306 0.391007
vt -19.106325 0.391007
vt -19.774208 0.886927
vt -19.765362 0.886927
vt -19.301516 0.414805
vt -19.106325 0.381022
vt -19.106325 0.372558
vt -19.106325 0.366901
vt -19.756516 0.886927
vt -19.301516 0.381128
s 1
usemtl M_SinkFaucetKnob_19_0
f 88/1/1 87/2/1 89/3/1 90/4/1
f 88/1/1 90/4/1 91/5/1 92/6/1
f 88/1/1 93/7/1 94/8/1 95/9/1
f 88/1/1 92/6/1 96/10/1 97/11/1
f 88/1/1 98/12/1 99/13/1 93/7/1
f 88/1/1 97/11/1 100/14/1 101/15/1
f 88/1/1 101/15/1 102/16/1 98/12/1
f 88/1/1 95/9/1 103/17/1 87/2/1
f 50/18/2 33/19/3 34/20/4 49/21/5
f 51/22/6 49/21/5 34/20/4 35/23/6
f 52/24/7 51/22/6 35/23/6 36/25/7
f 53/26/8 52/24/7 36/25/7 37/27/9
f 37/27/9 38/28/10 54/29/11 53/26/8
f 55/30/12 54/31/11 38/32/10 39/33/12
f 56/34/13 55/30/12 39/33/12 40/35/13
f 40/36/13 41/37/14 57/38/15 56/39/13
f 58/40/16 57/38/15 41/37/14 42/41/17
f 59/42/18 58/40/16 42/41/17 43/43/18
f 60/44/19 59/42/18 43/43/18 44/45/20
f 61/46/21 60/44/19 44/45/20 45/47/22
f 45/47/22 46/48/23 62/49/24 61/46/21
f 63/50/25 62/51/24 46/52/23 47/53/25
f 64/54/26 63/50/25 47/53/25 48/55/26
f 48/56/26 33/19/3 50/18/2 64/57/26
f 65/58/27 18/59/28 17/60/3 80/61/29
f 19/62/6 18/59/28 65/58/27 66/63/6
f 20/64/30 19/62/6 66/63/6 67/65/31
f 21/66/32 20/64/30 67/65/31 68/67/33
f 22/68/34 21/66/32 68/67/33 69/69/35
f 23/70/12 22/71/34 69/72/35 70/73/12
f 24/74/36 23/70/12 70/73/12 71/75/37
f 25/76/38 24/77/36 71/78/37 72/79/39
f 26/80/16 25/76/38 72/79/39 73/81/40
f 27/82/41 26/80/16 73/81/40 74/83/41
f 28/84/42 27/82/41 74/83/41 75/85/43
f 29/86/44 28/84/42 75/85/43 76/87/45
f 30/88/46 29/86/44 76/87/45 77/89/47
f 31/90/25 30/91/46 77/92/47 78/93/25
f 32/94/48 31/90/25 78/93/25 79/95/49
f 17/60/3 32/96/48 79/97/49 80/61/29
f 17/98/50 18/99/51 34/100/51 33/101/50
f 18/99/51 19/102/52 35/103/52 34/100/51
f 19/102/52 20/104/53 36/105/53 35/103/52
f 20/104/53 21/106/54 37/107/54 36/105/53
f 21/106/54 22/108/55 38/109/55 37/107/54
f 22/108/55 23/110/56 39/111/56 38/109/55
f 23/110/56 24/112/55 40/113/55 39/111/56
f 24/112/55 25/114/57 41/115/57 40/113/55
f 25/114/57 26/116/58 42/117/58 41/115/57
f 26/116/58 27/118/59 43/119/59 42/117/58
f 27/118/59 28/120/60 44/121/60 43/119/59
f 28/120/60 29/122/61 45/123/61 44/121/60
f 29/122/61 30/124/62 46/125/62 45/123/61
f 30/124/62 31/126/56 47/127/56 46/125/62
f 31/126/56 32/128/62 48/129/62 47/127/56
f 32/128/62 17/98/50 33/101/50 48/129/62
f 82/130/6 81/131/63 83/132/63 84/133/6
f 85/134/64 82/130/6 84/133/6 86/135/64
f 68/67/33 67/65/31 11/136/65 9/137/66
f 9/137/66 7/138/67 69/69/35 68/67/33
f 70/73/12 69/72/35 7/139/67 4/140/12
f 71/75/37 70/73/12 4/140/12 3/141/36
f 3/142/36 1/143/68 72/79/39 71/78/37
f 73/81/40 72/79/39 1/143/68 2/144/69
f 74/83/41 73/81/40 2/144/69 5/145/41
f 75/85/43 74/83/41 5/145/41 6/146/70
f 76/87/45 75/85/43 6/146/70 8/147/71
f 8/147/71 10/148/47 77/89/47 76/87/45
f 78/93/25 77/92/47 10/149/47 12/150/25
f 79/95/49 78/93/25 12/150/25 14/151/48
f 14/152/48 16/153/72 80/61/29 79/97/49
f 65/58/27 80/61/29 16/153/72 15/154/73
f 66/155/56 65/156/56 81/157/56 82/158/56
f 65/159/25 15/160/25 83/161/25 81/162/25
f 15/163/1 13/164/1 84/165/1 83/166/1
f 67/167/56 66/155/56 82/158/56 85/168/56
f 13/164/1 11/169/1 86/170/1 84/165/1
f 11/171/12 67/172/12 85/173/12 86/174/12
f 1/143/68 3/142/36 89/175/74 87/176/75
f 3/141/36 4/140/12 90/177/12 89/178/74
f 4/140/12 7/139/67 91/179/67 90/177/12
f 7/138/67 9/137/66 92/180/76 91/181/67
f 8/147/71 6/146/70 94/182/70 93/183/71
f 6/146/70 5/145/41 95/184/41 94/182/70
f 9/137/66 11/136/77 96/185/77 92/180/76
f 11/136/77 13/186/6 97/187/6 96/185/77
f 12/150/25 10/149/47 99/188/47 98/189/25
f 10/148/47 8/147/71 93/183/71 99/190/47
f 13/186/6 15/154/78 100/191/78 97/187/6
f 15/154/78 16/153/72 101/192/72 100/191/78
f 16/153/72 14/152/48 102/193/48 101/192/72
f 14/151/48 12/150/25 98/189/25 102/194/48
f 5/145/41 2/144/69 103/195/79 95/184/41
f 2/144/69 1/143/68 87/176/75 103/195/79
