# Blender 4.1.1
# www.blender.org
mtllib MeshBox_26_FlapInner_1_3.mtl
o Box_26_FlapInner_1
v 0.093948 -0.231057 0.120262
v -0.094982 -0.231057 0.120262
v 0.093948 -0.229703 0.122114
v -0.094982 -0.229703 0.122114
v 0.093948 -0.178585 0.084027
v 0.093948 -0.178709 0.084828
v -0.094983 -0.178585 0.084027
v -0.094982 -0.178709 0.084828
v 0.093948 -0.179262 0.083101
v 0.093948 -0.180063 0.082976
v -0.094983 -0.179262 0.083101
v -0.094982 -0.180063 0.082976
vn -0.0000 0.8072 -0.5902
vn -0.0000 -0.9824 0.1869
vn -0.0000 -0.9630 -0.2693
vn -0.0000 -0.9631 -0.2692
vn -1.0000 -0.0000 -0.0000
vn -1.0000 -0.0004 0.0003
vn 1.0000 0.0013 -0.0009
vn 1.0000 0.0006 -0.0005
vn 1.0000 0.0014 -0.0010
vn 0.0001 -0.0354 0.9994
vn -0.0000 -0.4760 0.8795
vn -0.0000 -0.4761 0.8794
vn -0.0000 -0.0356 0.9994
vn -0.0000 0.5902 0.8072
vn -0.0000 -0.5902 -0.8072
vn 1.0000 -0.0000 -0.0000
vt -0.588591 -0.558704
vt -0.588591 0.037333
vt -0.594048 0.037333
vt -0.594048 -0.558704
vt 0.321787 -0.556902
vt 0.323151 -0.558706
vt 0.323151 0.037334
vt 0.321787 0.035531
vt 0.319059 -0.556902
vt 0.317695 -0.558706
vt 0.317695 0.037334
vt 0.319059 0.035531
vt 0.218733 -0.558707
vt 0.218733 0.037335
vt -0.043545 0.037335
vt -0.043545 -0.558707
vt -0.227223 -0.558707
vt -0.227223 0.037335
vt -0.489501 0.037335
vt -0.489501 -0.558707
vt -0.605334 -0.113756
vt -0.605334 0.148522
vt -0.610791 0.148522
vt -0.610791 -0.113754
vt -0.618449 -0.562206
vt -0.618450 -0.299928
vt -0.623906 -0.299928
vt -0.623906 -0.562206
s 1
usemtl M_Box_26_FlapInner_1_0
f 1/1/1 2/2/1 4/3/1 3/4/1
f 5/5/2 6/6/3 8/7/4 7/8/2
f 6/6/5 5/5/6 9/9/6 10/10/5
f 7/8/7 8/7/8 12/11/8 11/12/9
f 10/10/10 9/9/11 11/12/12 12/11/13
f 5/5/2 7/8/2 11/12/12 9/9/11
f 10/13/10 12/14/13 2/15/14 1/16/14
f 3/17/15 4/18/15 8/19/4 6/20/3
f 8/21/8 4/22/16 2/23/16 12/24/8
f 3/25/5 6/26/5 10/27/5 1/28/5
