# Blender 4.1.0
# www.blender.org
mtllib ToasterLever_1_ToasterLever_1_1_GeomSubset_1.mtl
o ToasterLever_1_ToasterLever_1_1_GeomSubset_1
v 0.002318 -0.155591 0.050242
v 0.002318 -0.151519 0.050242
v -0.001753 -0.155591 0.050242
v -0.001753 -0.151519 0.050242
v 0.002318 -0.155591 0.050242
v 0.002318 -0.151519 0.050242
v -0.001753 -0.155591 0.050242
v -0.001753 -0.151519 0.050242
v 0.002318 -0.155591 0.050242
v 0.002318 -0.151519 0.050242
v -0.001753 -0.155591 0.050242
v -0.001753 -0.151519 0.050242
v 0.002318 -0.155591 0.050242
v 0.002318 -0.151519 0.050242
v -0.001753 -0.155591 0.050242
v -0.001753 -0.151519 0.050242
v 0.002318 -0.155591 0.050242
v 0.002318 -0.151519 0.050242
v -0.001753 -0.155591 0.050242
v -0.001753 -0.151519 0.050242
v 0.002318 -0.155591 0.050242
v 0.002318 -0.151519 0.050242
v -0.001753 -0.155591 0.050242
v -0.001753 -0.151519 0.050242
v 0.000000 -0.161111 0.050242
v 0.001975 -0.146369 0.051060
v 0.001511 -0.146369 0.051753
v 0.000818 -0.146369 0.052217
v 0.000000 -0.146369 0.052379
v -0.000818 -0.146369 0.052217
v -0.001512 -0.146369 0.051753
v -0.001975 -0.146369 0.051060
v -0.002138 -0.146369 0.050242
v -0.001975 -0.146369 0.049424
v -0.001512 -0.146369 0.048730
v -0.000818 -0.146369 0.048267
v 0.000000 -0.146369 0.048104
v 0.000818 -0.146369 0.048267
v 0.001511 -0.146369 0.048730
v 0.001975 -0.146369 0.049424
v 0.002137 -0.146369 0.050242
v 0.001975 -0.137179 0.051060
v 0.001511 -0.137179 0.051753
v 0.000818 -0.137179 0.052217
v 0.000000 -0.137179 0.052379
v -0.000818 -0.137179 0.052217
v -0.001512 -0.137179 0.051753
v -0.001975 -0.137179 0.051060
v -0.002138 -0.137179 0.050242
v -0.001975 -0.137179 0.049424
v -0.001512 -0.137179 0.048730
v -0.000818 -0.137179 0.048267
v 0.000000 -0.137179 0.048104
v 0.000818 -0.137179 0.048267
v 0.001511 -0.137179 0.048730
v 0.001975 -0.137179 0.049424
v 0.002137 -0.137179 0.050242
v 0.006330 -0.146729 0.052864
v 0.005930 -0.146369 0.052698
v 0.004845 -0.146729 0.055087
v 0.004539 -0.146369 0.054780
v 0.002622 -0.146729 0.056572
v 0.002456 -0.146369 0.056172
v 0.000000 -0.146729 0.057094
v 0.000000 -0.146369 0.056660
v -0.002622 -0.146729 0.056572
v -0.002456 -0.146369 0.056172
v -0.004845 -0.146729 0.055087
v -0.004539 -0.146369 0.054780
v -0.006330 -0.146729 0.052864
v -0.005930 -0.146369 0.052698
v -0.006852 -0.146729 0.050242
v -0.006419 -0.146369 0.050242
v -0.006330 -0.146729 0.047620
v -0.005930 -0.146369 0.047785
v -0.004845 -0.146729 0.045397
v -0.004539 -0.146369 0.045703
v -0.002622 -0.146729 0.043911
v -0.002456 -0.146369 0.044312
v 0.000000 -0.146729 0.043390
v 0.000000 -0.146369 0.043823
v 0.002622 -0.146729 0.043911
v 0.002456 -0.146369 0.044312
v 0.004845 -0.146729 0.045397
v 0.004539 -0.146369 0.045703
v 0.006330 -0.146729 0.047620
v 0.005930 -0.146369 0.047785
v 0.006852 -0.146729 0.050242
v 0.006419 -0.146369 0.050242
v 0.005930 -0.161111 0.052698
v 0.006330 -0.160750 0.052864
v 0.004845 -0.160750 0.055087
v 0.004539 -0.161111 0.054780
v 0.002456 -0.161111 0.056172
v 0.002622 -0.160750 0.056572
v 0.000000 -0.160750 0.057094
v 0.000000 -0.161111 0.056660
v -0.002456 -0.161111 0.056172
v -0.002622 -0.160750 0.056572
v -0.004845 -0.160750 0.055087
v -0.004539 -0.161111 0.054780
v -0.005930 -0.161111 0.052698
v -0.006330 -0.160750 0.052864
v -0.006852 -0.160750 0.050242
v -0.006419 -0.161111 0.050242
v -0.005930 -0.161111 0.047785
v -0.006330 -0.160750 0.047620
v -0.004845 -0.160750 0.045397
v -0.004539 -0.161111 0.045703
v -0.002456 -0.161111 0.044312
v -0.002622 -0.160750 0.043911
v 0.000000 -0.160750 0.043390
v 0.000000 -0.161111 0.043823
v 0.002456 -0.161111 0.044312
v 0.002622 -0.160750 0.043911
v 0.004845 -0.160750 0.045397
v 0.004539 -0.161111 0.045703
v 0.005930 -0.161111 0.047785
v 0.006330 -0.160750 0.047620
v 0.006852 -0.160750 0.050242
v 0.006419 -0.161111 0.050242
vn -0.8471 -0.0000 0.5314
vn -0.0000 -0.8471 0.5314
vn 0.8471 -0.0000 0.5314
vn -0.0000 0.8471 0.5314
vn -0.3343 0.0009 0.9425
vn -0.3343 -0.0000 0.9425
vn 0.9425 -0.0000 -0.3342
vn 0.9425 -0.0009 -0.3342
vn -0.9027 0.0102 0.4301
vn -0.9027 -0.0000 0.4302
vn -0.9986 0.0055 0.0520
vn -0.9986 -0.0000 0.0520
vn -0.9422 0.0267 -0.3340
vn -0.9425 -0.0000 -0.3342
vn -0.9422 -0.0267 -0.3340
vn 0.3342 -0.0000 0.9425
vn 0.3342 -0.0034 0.9425
vn -0.0523 0.0294 0.9982
vn -0.0522 -0.0000 0.9986
vn -0.0523 -0.0295 0.9982
vn -0.0545 0.1525 -0.9868
vn -0.0522 -0.0000 -0.9986
vn -0.0545 -0.1524 -0.9868
vn 0.3342 0.0033 -0.9425
vn 0.3342 -0.0000 -0.9425
vn -0.9425 -0.0000 0.3342
vn -0.9425 -0.0009 0.3342
vn -0.9986 -0.0000 -0.0520
vn -0.9986 -0.0052 -0.0520
vn -0.9025 0.0223 -0.4301
vn -0.9028 -0.0000 -0.4301
vn -0.9025 -0.0224 -0.4301
vn 0.9425 0.0010 0.3342
vn 0.9425 -0.0000 0.3342
vn -0.3343 -0.0000 -0.9425
vn -0.3343 -0.0048 -0.9425
vn 0.4297 0.0449 0.9018
vn 0.4300 -0.0000 0.9028
vn 0.4297 -0.0449 0.9018
vn 0.0523 0.0455 0.9976
vn 0.0521 -0.0000 0.9986
vn 0.0523 -0.0455 0.9976
vn 0.7967 -0.5829 0.1598
vn 0.8010 -0.5759 0.1635
vn 0.8012 -0.5758 0.1629
vn 0.7970 -0.5826 0.1591
vn -0.7345 0.6786 -0.0062
vn -0.7403 0.6723 -0.0081
vn -0.7414 0.6710 0.0053
vn -0.7344 0.6787 -0.0067
vn -0.7807 0.5825 -0.2263
vn -0.7795 0.5874 -0.2177
vn -0.7806 0.5866 -0.2158
vn -0.7808 0.5824 -0.2262
vn 0.2152 -0.6133 0.7599
vn 0.2170 -0.6063 0.7650
vn 0.2158 -0.6064 0.7653
vn 0.2166 -0.6133 0.7595
vn -0.9544 -0.2451 0.1703
vn -0.9566 -0.2352 0.1720
vn -0.9549 -0.2387 0.1766
vn -0.9556 -0.2427 0.1672
vn 0.5507 0.6678 -0.5007
vn 0.5477 0.6742 -0.4954
vn 0.5475 0.6742 -0.4956
vn 0.5500 0.6679 -0.5014
vn -0.6750 -0.6145 0.4085
vn -0.6790 -0.6074 0.4123
vn -0.6793 -0.6073 0.4119
vn -0.6749 -0.6145 0.4087
vn 0.7310 0.6772 -0.0839
vn 0.7251 0.6836 -0.0827
vn 0.7251 0.6837 -0.0825
vn 0.7311 0.6772 -0.0837
vn 0.7115 0.6777 0.1857
vn 0.7072 0.6845 0.1772
vn 0.7075 0.6844 0.1761
vn 0.7133 0.6780 0.1777
vn -0.7175 -0.6102 -0.3359
vn -0.7224 -0.6031 -0.3382
vn -0.7220 -0.6032 -0.3390
vn -0.7178 -0.6102 -0.3354
vn 0.4590 0.6771 0.5751
vn 0.4561 0.6836 0.5698
vn 0.4560 0.6836 0.5699
vn 0.4588 0.6772 0.5753
vn 0.2444 0.6748 0.6963
vn 0.2423 0.6814 0.6907
vn 0.2429 0.6813 0.6905
vn 0.2447 0.6748 0.6962
vn -0.2755 0.6723 0.6871
vn -0.2750 0.6787 0.6809
vn -0.2726 0.6789 0.6817
vn -0.2752 0.6723 0.6872
vn -0.6554 -0.1575 -0.7387
vn -0.6522 -0.1504 -0.7430
vn -0.6528 -0.1498 -0.7426
vn -0.6573 -0.1557 -0.7374
vn 0.7228 -0.6092 -0.3264
vn 0.7268 -0.6022 -0.3302
vn 0.7268 -0.6022 -0.3303
vn 0.7223 -0.6093 -0.3271
vn 0.2159 -0.2799 -0.9354
vn 0.2256 -0.2763 -0.9342
vn 0.2252 -0.2761 -0.9344
vn 0.2195 -0.2826 -0.9338
vn 0.7361 0.6004 0.3125
vn 0.7360 0.6065 0.3009
vn 0.7360 0.6065 0.3008
vn 0.7400 0.5995 0.3048
vn -0.7388 -0.6735 -0.0234
vn -0.7328 -0.6800 -0.0222
vn -0.7329 -0.6800 -0.0225
vn -0.7388 -0.6736 -0.0234
vn -0.1600 -0.6597 -0.7343
vn -0.1642 -0.6534 -0.7390
vn -0.1631 -0.6533 -0.7393
vn -0.1605 -0.6598 -0.7341
vn 0.1431 -0.6579 -0.7393
vn 0.1424 -0.6514 -0.7452
vn 0.1423 -0.6514 -0.7452
vn 0.1439 -0.6579 -0.7393
vn 0.4759 -0.6439 -0.5992
vn 0.4740 -0.6382 -0.6067
vn 0.4755 -0.6378 -0.6059
vn 0.4749 -0.6441 -0.5997
vn -0.3585 -0.4675 -0.8081
vn -0.3526 -0.4625 -0.8135
vn -0.3520 -0.4629 -0.8135
vn -0.3581 -0.4677 -0.8081
vn -0.6131 0.6057 0.5072
vn -0.6084 0.6126 0.5045
vn -0.6091 0.6128 0.5035
vn -0.6136 0.6057 0.5066
vn 0.7369 -0.6756 0.0258
vn 0.7428 -0.6690 0.0247
vn 0.7429 -0.6690 0.0257
vn 0.7368 -0.6756 0.0258
vn 0.5873 -0.4431 -0.6773
vn 0.5930 -0.4363 -0.6768
vn 0.5920 -0.4352 -0.6783
vn 0.5853 -0.4409 -0.6804
vn 0.0032 0.3696 -0.9292
vn 0.0092 0.3758 -0.9267
vn 0.0087 0.3761 -0.9266
vn 0.0045 0.3688 -0.9295
vn 0.4418 -0.6842 0.5803
vn 0.4452 -0.6777 0.5852
vn 0.4447 -0.6777 0.5856
vn 0.4420 -0.6842 0.5802
vn 0.4602 -0.6478 0.6070
vn 0.4619 -0.6412 0.6127
vn 0.4595 -0.6419 0.6139
vn 0.4620 -0.6474 0.6061
vn -0.1013 -0.6843 0.7222
vn -0.1026 -0.6778 0.7281
vn -0.1027 -0.6777 0.7281
vn 0.0744 0.5539 -0.8293
vn 0.0697 0.5604 -0.8253
vn 0.0712 0.5609 -0.8248
vn 0.0743 0.5538 -0.8293
vn 0.6135 0.6055 -0.5070
vn 0.6093 0.6126 -0.5035
vn 0.6089 0.6126 -0.5040
vn 0.6137 0.6056 -0.5066
vn 0.7857 0.6073 -0.1176
vn 0.7805 0.6143 -0.1161
vn 0.7802 0.6143 -0.1183
vn 0.7852 0.6074 -0.1210
vn 0.9239 -0.0000 0.3827
vn 0.7071 -0.0000 0.7071
vn 0.3827 -0.0000 0.9239
vn 0.1949 -0.0000 0.9808
vn -0.1949 -0.0000 0.9808
vn -0.3827 -0.0000 0.9239
vn -0.7071 -0.0000 0.7071
vn -0.9239 -0.0000 0.3827
vn -0.9809 -0.0000 0.1944
vn -0.9809 -0.0000 -0.1947
vn -0.9239 -0.0000 -0.3827
vn -0.7072 -0.0000 -0.7070
vn -0.3827 -0.0000 -0.9239
vn -0.1952 -0.0000 -0.9808
vn 0.1952 -0.0000 -0.9808
vn 0.3827 -0.0000 -0.9239
vn 0.7072 -0.0000 -0.7070
vn 0.9239 -0.0000 -0.3827
vn 0.9809 -0.0000 -0.1947
vn 0.9809 -0.0000 0.1944
vn -0.0000 -0.2527 0.9675
vn 0.0001 -0.4423 0.8969
vn -0.0000 -0.8845 0.4666
vn -0.0000 -0.4423 0.8969
vn -0.9675 -0.2527 -0.0001
vn -0.8968 -0.4424 -0.0002
vn -0.4665 -0.8845 -0.0000
vn -0.8969 -0.4423 -0.0001
vn -0.5200 -0.2527 -0.8159
vn -0.4821 -0.4423 -0.7563
vn -0.2507 -0.8845 -0.3934
vn 0.9254 -0.2527 0.2824
vn 0.8578 -0.4422 0.2618
vn 0.4462 -0.8845 0.1362
vn 0.8578 -0.4423 0.2618
vn 0.6842 -0.2527 -0.6841
vn 0.4982 -0.4422 0.7458
vn 0.0910 -0.8845 0.4575
vn -0.8968 -0.4424 -0.0000
vn 0.9254 -0.2527 -0.2825
vn 0.8578 -0.4423 -0.2618
vn 0.4463 -0.8845 -0.1362
vn 0.8578 -0.4423 -0.2617
vn -0.7032 -0.2527 0.6646
vn -0.6519 -0.4423 0.6160
vn -0.3391 -0.8845 0.3204
vn -0.6518 -0.4423 0.6160
vn -0.0000 -0.2527 -0.9675
vn 0.0001 -0.4423 -0.8969
vn -0.0000 -0.8845 -0.4665
vn 0.0001 -0.4424 -0.8968
vn 0.0001 0.1966 0.9805
vn -0.0000 0.1966 0.9805
vn -0.0000 0.2528 0.9675
vn -0.0001 0.2527 0.9675
vn -0.0000 0.1966 -0.9805
vn -0.0000 0.2528 -0.9675
vn -0.0001 0.2528 -0.9675
vn 0.1913 0.1966 -0.9616
vn -0.9805 0.1966 0.0001
vn -0.1887 0.2528 0.9489
vn 0.8939 0.2528 0.3702
vn -0.9378 0.1966 0.2863
vn -0.9378 0.1966 0.2861
vn -0.9254 0.2528 0.2825
vn -0.9254 0.2528 0.2824
vn 0.5374 0.1966 -0.8201
vn 0.5376 0.1966 -0.8200
vn 0.5303 0.2527 -0.8092
vn 0.5304 0.2528 -0.8092
vn -0.7301 0.1966 0.6544
vn -0.7302 0.1966 0.6544
vn -0.7205 0.2528 0.6458
vn -0.7204 0.2527 0.6459
vn 0.9378 0.1966 -0.2862
vn 0.9378 0.1966 -0.2861
vn 0.9254 0.2527 -0.2825
vn 0.9254 0.2528 -0.2824
vn 0.7796 0.1966 0.5946
vn 0.7795 0.1966 0.5947
vn 0.7692 0.2528 0.5869
vn 0.7691 0.2527 0.5870
vn -0.0001 0.1966 0.9805
vn 0.0001 0.2528 0.9675
vn 0.9805 0.1966 -0.0001
vn 0.9805 0.1966 0.0001
vn 0.9675 0.2528 -0.0000
vn -0.9378 0.1966 0.2862
vn 0.9378 0.1966 0.2863
vn 0.9377 0.1966 0.2863
vn 0.9253 0.2528 0.2826
vn 0.9254 0.2528 0.2823
vn -0.9805 0.1966 -0.0000
vn -0.9805 0.1966 -0.0002
vn -0.9675 0.2527 -0.0000
vn -0.9675 0.2528 0.0001
vn -0.9430 0.1966 -0.2685
vn -0.9430 0.1966 -0.2683
vn -0.9306 0.2528 -0.2649
vn -0.9306 0.2527 -0.2648
vn 0.9161 0.1966 0.3494
vn 0.9040 0.2528 0.3448
vn 0.9040 0.2528 0.3449
vt -31.251017 0.695523
vt -31.251017 0.796751
vt -31.352243 0.796751
vt -31.352243 0.695523
vt -31.466345 0.600846
vt -31.483583 0.600846
vt -31.483583 0.372360
vt -31.466345 0.372360
vt -31.454821 0.600846
vt -31.454821 0.372360
vt -31.532843 0.604838
vt -31.512503 0.604838
vt -31.512503 0.833324
vt -31.532843 0.833324
vt -31.553183 0.604838
vt -31.553183 0.833324
vt -31.419531 0.695523
vt -31.408010 0.695523
vt -31.408010 0.924010
vt -31.419531 0.924010
vt -31.436773 0.695523
vt -31.436773 0.924010
vt -31.457113 0.695523
vt -31.457113 0.924010
vt -31.477453 0.695523
vt -31.477453 0.924010
vt -31.494692 0.695523
vt -31.494692 0.924010
vt -31.506212 0.695523
vt -31.506212 0.924010
vt -31.380625 0.924010
vt -31.400969 0.924010
vt -31.400969 0.695523
vt -31.380625 0.695523
vt -31.360289 0.924010
vt -31.360289 0.695523
vt -31.541502 0.600846
vt -31.553022 0.600846
vt -31.553022 0.372360
vt -31.541502 0.372360
vt -31.524260 0.600846
vt -31.524260 0.372360
vt -31.503923 0.600846
vt -31.503923 0.372360
vt -31.330603 0.010812
vt -31.334723 0.001844
vt -31.282949 0.001844
vt -31.275331 0.010812
vt -31.395792 0.010812
vt -31.395792 0.001844
vt -30.990488 0.359401
vt -30.998110 0.368368
vt -31.049883 0.368368
vt -31.045755 0.359401
vt -31.110952 0.368368
vt -31.110952 0.359401
vt -31.172018 0.368368
vt -31.176146 0.359401
vt -31.223799 0.368368
vt -31.231409 0.359401
vt -30.706045 0.359401
vt -30.713663 0.368368
vt -30.765434 0.368368
vt -30.761311 0.359401
vt -30.826506 0.368368
vt -30.826506 0.359401
vt -30.887575 0.368368
vt -30.891699 0.359401
vt -30.939348 0.368368
vt -30.946964 0.359401
vt -30.798088 0.381327
vt -30.790476 0.372360
vt -30.738699 0.372360
vt -30.742825 0.381327
vt -30.677629 0.372360
vt -30.677629 0.381327
vt -30.616562 0.372360
vt -30.612434 0.381327
vt -30.564787 0.372360
vt -30.557165 0.381327
vt -31.516256 0.010812
vt -31.508638 0.001844
vt -31.456861 0.001844
vt -31.460989 0.010812
vt -31.334723 0.368368
vt -31.330603 0.359401
vt -31.275331 0.359401
vt -31.282949 0.368368
vt -31.395792 0.368368
vt -31.395792 0.359401
vt -30.998110 0.001844
vt -30.990488 0.010812
vt -31.045755 0.010812
vt -31.049883 0.001844
vt -31.110952 0.010812
vt -31.110952 0.001844
vt -31.176146 0.010812
vt -31.172018 0.001844
vt -31.231409 0.010812
vt -31.223799 0.001844
vt -30.713663 0.001844
vt -30.706045 0.010812
vt -30.761311 0.010812
vt -30.765434 0.001844
vt -30.826506 0.010812
vt -30.826506 0.001844
vt -30.891699 0.010812
vt -30.887575 0.001844
vt -30.946964 0.010812
vt -30.939348 0.001844
vt -30.790476 0.738883
vt -30.798088 0.729916
vt -30.742825 0.729916
vt -30.738699 0.738883
vt -30.677629 0.729916
vt -30.677629 0.738883
vt -30.612434 0.729916
vt -30.616562 0.738883
vt -30.557165 0.729916
vt -30.564787 0.738883
vt -31.508638 0.368368
vt -31.516256 0.359401
vt -31.460989 0.359401
vt -31.456861 0.368368
vt -31.238405 0.010812
vt -31.238405 0.359401
vt -30.669117 0.359401
vt -30.669117 0.010812
vt -30.983892 0.359401
vt -30.983892 0.010812
vt -31.553179 0.010812
vt -31.553179 0.359401
vt -30.963806 0.531946
vt -30.850964 0.419105
vt -30.816370 0.470878
vt -30.804222 0.531946
vt -30.816370 0.593015
vt -30.850964 0.644793
vt -30.902735 0.679380
vt -30.963806 0.691532
vt -31.024876 0.679380
vt -31.076647 0.644793
vt -31.111240 0.593015
vt -31.123388 0.531946
vt -31.111240 0.470878
vt -31.076647 0.419105
vt -31.024876 0.384513
vt -30.963806 0.372360
vt -30.902735 0.384513
vt -31.401949 0.419105
vt -31.350176 0.384513
vt -31.309443 0.482843
vt -31.326685 0.494370
vt -31.436537 0.470878
vt -31.338205 0.511609
vt -31.448690 0.531946
vt -31.342249 0.531946
vt -31.436537 0.593015
vt -31.338205 0.552289
vt -31.401949 0.644793
vt -31.326685 0.569528
vt -31.350176 0.679380
vt -31.309443 0.581048
vt -31.289106 0.691532
vt -31.289106 0.585091
vt -31.228037 0.679380
vt -31.268766 0.581048
vt -31.176260 0.644793
vt -31.251524 0.569528
vt -31.141668 0.593015
vt -31.240004 0.552289
vt -31.129522 0.531946
vt -31.235960 0.531946
vt -31.141668 0.470878
vt -31.240004 0.511609
vt -31.176260 0.419105
vt -31.251524 0.494370
vt -31.228037 0.384513
vt -31.268766 0.482843
vt -31.289106 0.372360
vt -31.289106 0.478802
s 1
usemtl M_ToasterLever_1_1
f 5/1/1 6/2/2 8/3/3 7/4/4
f 27/5/5 26/6/6 42/7/6 43/8/6
f 28/9/7 27/5/7 43/8/8 44/10/7
f 29/11/9 28/12/10 44/13/10 45/14/10
f 30/15/11 29/11/12 45/14/12 46/16/12
f 31/17/13 30/18/14 46/19/15 47/20/14
f 32/21/16 31/17/16 47/20/17 48/22/16
f 33/23/18 32/21/19 48/22/20 49/24/19
f 34/25/21 33/23/22 49/24/23 50/26/22
f 35/27/24 34/25/25 50/26/25 51/28/25
f 36/29/26 35/27/26 51/28/27 52/30/26
f 37/31/28 36/32/28 52/33/29 53/34/28
f 38/35/30 37/31/31 53/34/32 54/36/31
f 39/37/33 38/38/34 54/39/34 55/40/34
f 40/41/35 39/37/35 55/40/36 56/42/35
f 41/43/37 40/41/38 56/42/39 57/44/38
f 26/6/40 41/43/41 57/44/42 42/7/41
f 58/45/43 59/46/44 61/47/45 60/48/46
f 59/46/47 58/45/48 88/49/49 89/50/50
f 60/51/51 61/52/52 63/53/53 62/54/54
f 62/54/55 63/53/56 65/55/57 64/56/58
f 64/56/59 65/55/60 67/57/61 66/58/62
f 66/58/63 67/57/64 69/59/65 68/60/66
f 68/61/67 69/62/68 71/63/69 70/64/70
f 70/64/71 71/63/72 73/65/73 72/66/74
f 72/66/75 73/65/76 75/67/77 74/68/78
f 74/68/79 75/67/80 77/69/81 76/70/82
f 76/71/83 77/72/84 79/73/85 78/74/86
f 78/74/87 79/73/88 81/75/89 80/76/90
f 80/76/91 81/75/92 83/77/93 82/78/94
f 82/78/95 83/77/96 85/79/97 84/80/98
f 84/81/99 85/82/100 87/83/101 86/84/102
f 86/84/103 87/83/104 89/50/105 88/49/106
f 90/85/107 91/86/108 92/87/109 93/88/110
f 91/86/111 90/85/112 121/89/113 120/90/114
f 93/91/115 92/92/116 95/93/117 94/94/118
f 94/94/119 95/93/120 96/95/121 97/96/122
f 97/96/123 96/95/124 99/97/125 98/98/126
f 98/98/127 99/97/128 100/99/129 101/100/130
f 101/101/131 100/102/132 103/103/133 102/104/134
f 102/104/135 103/103/136 104/105/137 105/106/138
f 105/106/139 104/105/140 107/107/141 106/108/142
f 106/108/143 107/107/144 108/109/145 109/110/146
f 109/111/147 108/112/148 111/113/149 110/114/150
f 110/114/151 111/113/152 112/115/153 113/116/154
f 113/116/155 112/115/156 115/117/157 114/118/155
f 114/118/158 115/117/159 116/119/160 117/120/161
f 117/121/162 116/122/163 119/123/164 118/124/165
f 118/124/166 119/123/167 120/90/168 121/89/169
f 58/45/170 60/48/171 92/87/171 91/86/170
f 60/48/171 62/125/172 95/126/172 92/87/171
f 62/54/172 64/56/173 96/95/173 95/93/172
f 64/56/174 66/58/175 99/97/175 96/95/174
f 66/127/175 68/61/176 100/102/176 99/128/175
f 68/61/176 70/64/177 103/103/177 100/102/176
f 70/64/177 72/66/178 104/105/178 103/103/177
f 72/66/179 74/68/180 107/107/180 104/105/179
f 74/68/180 76/70/181 108/109/181 107/107/180
f 76/70/181 78/129/182 111/130/182 108/109/181
f 78/74/182 80/76/183 112/115/183 111/113/182
f 80/76/184 82/78/185 115/117/185 112/115/184
f 82/131/185 84/81/186 116/122/186 115/132/185
f 84/81/186 86/84/187 119/123/187 116/122/186
f 86/84/187 88/49/188 120/90/188 119/123/187
f 88/49/189 58/45/170 91/86/170 120/90/189
f 25/133/190 93/134/191 94/135/192 97/136/193
f 25/133/194 97/136/195 98/137/196 101/138/197
f 25/133/198 101/138/199 102/139/200 105/140/199
f 25/133/201 105/140/202 106/141/203 109/142/204
f 25/133/205 109/142/206 110/143/207 113/144/208
f 25/133/209 113/144/210 114/145/211 117/146/212
f 25/133/213 117/146/214 118/147/215 121/148/216
f 25/133/217 121/148/218 90/149/219 93/134/220
f 61/150/221 59/151/222 26/152/223 27/153/224
f 63/154/225 61/150/225 27/153/226 28/155/227
f 65/156/225 63/154/225 28/155/227 29/157/226
f 67/158/228 65/156/229 29/157/230 30/159/231
f 69/160/232 67/158/233 30/159/234 31/161/235
f 71/162/236 69/160/237 31/161/238 32/163/239
f 73/164/240 71/162/241 32/163/242 33/165/243
f 75/166/244 73/164/245 33/165/246 34/167/247
f 77/168/248 75/166/249 34/167/250 35/169/251
f 79/170/222 77/168/252 35/169/253 36/171/253
f 81/172/254 79/170/255 36/171/256 37/173/256
f 83/174/257 81/172/257 37/173/235 38/175/235
f 85/176/258 83/174/259 38/175/260 39/177/261
f 87/178/262 85/176/263 39/177/264 40/179/265
f 89/180/266 87/178/267 40/179/268 41/181/269
f 59/151/270 89/180/270 41/181/271 26/152/272
