# Blender 4.1.1
# www.blender.org
mtllib MeshCylinder_229_0.mtl
o Cylinder_229
v -0.000157 -0.089218 0.009600
v 0.002726 0.078037 0.009601
v -0.000715 -0.089218 0.008632
v 0.000727 0.078037 0.006136
v -0.001832 -0.089218 0.008632
v -0.003273 0.078037 0.006135
v -0.002391 -0.089218 0.009599
v -0.005274 0.078037 0.009598
v -0.001833 -0.089218 0.010566
v -0.003275 0.078037 0.013063
v -0.000716 -0.089218 0.010567
v 0.000725 0.078037 0.013064
v -0.001274 -0.089218 0.009599
v 0.002726 0.086691 0.009601
v 0.000727 0.086691 0.006136
v -0.003273 0.086691 0.006135
v -0.005274 0.086691 0.009598
v -0.003275 0.086691 0.013063
v 0.000725 0.086691 0.013064
v 0.002310 0.093232 0.009601
v 0.000519 0.093232 0.006496
v -0.003065 0.093232 0.006495
v -0.004858 0.093232 0.009598
v -0.003067 0.093232 0.012703
v 0.000517 0.093232 0.012704
v -0.003273 0.092833 0.006135
v -0.005274 0.092833 0.009598
v 0.002726 0.092833 0.009601
v 0.000727 0.092833 0.006136
v 0.000725 0.092833 0.013064
v -0.003275 0.092833 0.013063
v 0.000727 0.078479 0.006136
v -0.003273 0.078479 0.006135
v -0.003275 0.078479 0.013063
v 0.000725 0.078479 0.013064
v 0.002726 0.078479 0.009601
v -0.005274 0.078479 0.009598
v 0.002726 -0.088977 0.009601
v 0.002447 -0.089218 0.009601
v 0.000588 -0.089218 0.006377
v 0.000727 -0.088977 0.006136
v -0.003134 -0.089218 0.006376
v -0.003273 -0.088977 0.006135
v -0.004996 -0.089218 0.009598
v -0.005274 -0.088977 0.009598
v -0.003136 -0.089218 0.012822
v -0.003275 -0.088977 0.013063
v 0.000585 -0.089218 0.012823
v 0.000725 -0.088977 0.013064
vn -0.0000 1.0000 -0.0000
vn 0.2210 0.8969 0.3831
vn 0.4422 0.8969 0.0002
vn 0.2212 0.8969 -0.3829
vn -0.2210 0.8969 -0.3831
vn -0.4422 0.8969 -0.0002
vn -0.2212 0.8969 0.3829
vn 0.4997 -0.0000 0.8662
vn -0.5003 -0.0000 0.8659
vn -0.8659 -0.0000 -0.5003
vn 0.0003 -0.0000 -1.0000
vn 0.8662 -0.0000 -0.4997
vn 0.8659 -0.0000 0.5003
vn -0.0003 -0.0000 1.0000
vn 0.9356 -0.3530 0.0003
vn 0.4675 -0.3530 0.8105
vn 0.4121 -0.5656 0.7143
vn 0.8247 -0.5656 0.0003
vn -0.4997 -0.0000 -0.8662
vn 0.5003 -0.0000 -0.8659
vn -1.0000 -0.0000 -0.0004
vn -1.0000 -0.0000 -0.0003
vn 1.0000 -0.0000 0.0003
vn -0.0000 -1.0000 -0.0000
vn -0.4681 -0.3530 0.8101
vn -0.9356 -0.3530 -0.0003
vn -0.8247 -0.5656 -0.0003
vn -0.4126 -0.5656 0.7141
vn -0.4675 -0.3530 -0.8104
vn -0.4121 -0.5656 -0.7143
vn 0.4681 -0.3530 -0.8101
vn 0.4126 -0.5656 -0.7140
vn -0.6122 0.7071 -0.3538
vn 0.0002 0.7071 -0.7071
vn 0.6125 0.7071 -0.3533
vn 0.6122 0.7071 0.3538
vn -0.0002 0.7071 0.7071
vn -0.6125 0.7071 0.3533
vn -0.8662 -0.0000 0.4997
vt 0.086069 0.707373
vt 0.086069 0.717508
vt 0.073391 0.710267
vt 0.082264 0.705200
vt 0.082264 0.700854
vt 0.073391 0.695786
vt 0.086069 0.688546
vt 0.086069 0.698681
vt 0.098747 0.695786
vt 0.089874 0.700854
vt 0.098747 0.710267
vt 0.089874 0.705200
vt 0.278548 0.652697
vt 0.294036 0.652836
vt 0.294036 0.684752
vt 0.278548 0.684613
vt 0.086069 0.703027
vt 0.860648 0.709764
vt 0.860648 0.060050
vt 0.876296 0.060011
vt 0.876296 0.709725
vt 0.261268 0.709737
vt 0.261268 0.060012
vt 0.276660 0.060086
vt 0.276660 0.709811
vt 0.250739 0.710001
vt 0.250739 0.060276
vt 0.893833 0.001893
vt 0.893833 0.651607
vt 0.878185 0.651646
vt 0.878185 0.001932
vt 0.294036 0.002052
vt 0.294036 0.651118
vt 0.278548 0.650980
vt 0.278548 0.001913
vt 0.878185 0.709204
vt 0.893834 0.709166
vt 0.892872 0.710689
vt 0.878850 0.710723
vt 0.276660 0.058367
vt 0.261268 0.058293
vt 0.261268 0.026345
vt 0.276660 0.026419
vt 0.304188 0.652235
vt 0.304188 0.684151
vt 0.878185 0.653365
vt 0.893833 0.653326
vt 0.893834 0.685274
vt 0.878185 0.685312
vt 0.876296 0.058293
vt 0.860648 0.058331
vt 0.860648 0.026383
vt 0.876296 0.026345
vt 0.250739 0.058557
vt 0.250739 0.026609
vt 0.683834 0.739229
vt 0.683834 0.725282
vt 0.696045 0.718309
vt 0.708256 0.725282
vt 0.708256 0.739229
vt 0.696045 0.746203
vt 0.682418 0.740038
vt 0.682418 0.724473
vt 0.876296 0.002453
vt 0.860648 0.002491
vt 0.861610 0.000968
vt 0.875632 0.000934
vt 0.709672 0.724473
vt 0.709672 0.740038
vt 0.278548 0.708481
vt 0.294036 0.708620
vt 0.293481 0.710095
vt 0.279603 0.709971
vt 0.276660 0.002526
vt 0.261268 0.002452
vt 0.261774 0.000934
vt 0.275565 0.001000
vt 0.250739 0.002716
vt 0.304188 0.708020
vt 0.304188 0.650518
vt 0.875851 0.710687
vt 0.861292 0.710723
vt 0.275926 0.710768
vt 0.261607 0.710699
vt 0.099696 0.695244
vt 0.099696 0.710809
vt 0.878630 0.000970
vt 0.893189 0.000934
vt 0.279255 0.000934
vt 0.293664 0.001063
vt 0.072442 0.710809
vt 0.072442 0.695244
vt 0.304188 0.001452
s 1
usemtl M_Cylinder_229_0
f 11/1/1 48/2/2 39/3/3 1/4/1
f 3/5/1 40/6/4 42/7/5 5/8/1
f 5/8/1 42/7/5 44/9/6 7/10/1
f 7/10/1 44/9/6 46/11/7 9/12/1
f 33/13/8 32/14/9 15/15/9 16/16/8
f 9/12/1 46/11/7 48/2/2 11/1/1
f 1/4/1 39/3/3 40/6/4 3/5/1
f 7/10/1 9/12/1 13/17/1
f 3/5/1 5/8/1 13/17/1
f 9/12/1 11/1/1 13/17/1
f 1/4/1 3/5/1 13/17/1
f 5/8/1 7/10/1 13/17/1
f 11/1/1 1/4/1 13/17/1
f 49/18/10 12/19/10 2/20/10 38/21/10
f 47/22/11 10/23/11 12/24/11 49/25/11
f 45/26/12 8/27/12 10/23/12 47/22/12
f 43/28/13 6/29/13 8/30/13 45/31/13
f 41/32/14 4/33/14 6/34/14 43/35/14
f 27/36/15 26/37/16 22/38/17 23/39/18
f 35/40/19 34/41/20 18/42/20 19/43/19
f 32/14/9 36/44/21 14/45/22 15/15/9
f 37/46/23 33/47/8 16/48/8 17/49/23
f 36/50/21 35/51/19 19/52/19 14/53/22
f 34/41/20 37/54/23 17/55/23 18/42/20
f 21/56/24 20/57/24 25/58/24 24/59/24 23/60/24 22/61/24
f 29/62/25 28/63/26 20/57/27 21/56/28
f 28/64/26 30/65/29 25/66/30 20/67/27
f 31/68/31 27/69/15 23/60/18 24/59/32
f 26/70/16 29/71/25 21/72/28 22/73/17
f 30/74/29 31/75/31 24/76/32 25/77/30
f 19/43/19 18/42/20 31/75/31 30/74/29
f 16/16/8 15/15/9 29/71/25 26/70/16
f 18/42/20 17/55/23 27/78/15 31/75/31
f 14/53/22 19/52/19 30/65/29 28/64/26
f 15/15/9 14/45/22 28/79/26 29/71/25
f 17/49/23 16/48/8 26/37/16 27/36/15
f 10/23/20 8/27/23 37/54/23 34/41/20
f 2/20/21 12/19/19 35/51/19 36/50/21
f 8/30/23 6/29/8 33/47/8 37/46/23
f 4/33/9 2/80/21 36/44/21 32/14/9
f 12/24/19 10/23/20 34/41/20 35/40/19
f 6/34/8 4/33/9 32/14/9 33/13/8
f 49/18/33 38/21/33 39/81/33 48/82/33
f 47/22/34 49/25/34 48/83/34 46/84/34
f 45/85/35 47/86/35 46/11/35 44/9/35
f 43/28/36 45/31/36 44/87/36 42/88/36
f 41/32/37 43/35/37 42/89/37 40/90/37
f 38/91/38 41/92/38 40/6/38 39/3/38
f 38/93/39 2/80/39 4/33/39 41/32/39
