# Blender 4.1.1
# www.blender.org
mtllib ToasterLever_22_ToasterLever_22_1_GeomSubset_1.mtl
o ToasterLever_22_ToasterLever_22_1_GeomSubset_1
v -0.001749 -0.176466 0.045400
v -0.001749 -0.172968 0.045400
v 0.001749 -0.176466 0.045400
v 0.001749 -0.172968 0.045400
v 0.064073 -0.155228 0.045409
v 0.062964 -0.161321 0.045409
v 0.065214 -0.155228 0.048019
v 0.063962 -0.161734 0.048019
v 0.059513 -0.166485 0.045409
v 0.060277 -0.167250 0.048019
v 0.054348 -0.169936 0.045409
v 0.054762 -0.170935 0.048019
v 0.048256 -0.171046 0.045409
v 0.048256 -0.172115 0.047990
v -0.048256 -0.171046 0.045409
v -0.054348 -0.169936 0.045409
v -0.048256 -0.172187 0.048019
v -0.054762 -0.170935 0.048019
v -0.059512 -0.166485 0.045409
v -0.060277 -0.167250 0.048019
v -0.062963 -0.161321 0.045409
v -0.063962 -0.161734 0.048019
v -0.064073 -0.155228 0.045409
v -0.065142 -0.155228 0.047990
v 0.067766 -0.155228 0.049041
v 0.066242 -0.162678 0.049041
v 0.062022 -0.168994 0.049041
v 0.055706 -0.173214 0.049041
v 0.048256 -0.174696 0.049059
v -0.048256 -0.174738 0.049041
v -0.055706 -0.173214 0.049041
v -0.062021 -0.168994 0.049041
v -0.066241 -0.162678 0.049041
v -0.067723 -0.155228 0.049059
v 0.070292 -0.155228 0.048019
v 0.068520 -0.163622 0.048019
v 0.063766 -0.170738 0.048019
v 0.056650 -0.175493 0.048019
v 0.048256 -0.177277 0.047990
v -0.048256 -0.177264 0.048019
v -0.056650 -0.175493 0.048019
v -0.063765 -0.170738 0.048019
v -0.068520 -0.163622 0.048019
v -0.070304 -0.155228 0.047990
v 0.071373 -0.155228 0.045409
v 0.069519 -0.164036 0.045409
v 0.064530 -0.171503 0.045409
v 0.057064 -0.176492 0.045409
v 0.048256 -0.178346 0.045409
v -0.048256 -0.178346 0.045409
v -0.057063 -0.176492 0.045409
v -0.064530 -0.171503 0.045409
v -0.069519 -0.164036 0.045409
v -0.071373 -0.155228 0.045409
v 0.070232 -0.155228 0.042798
v 0.068520 -0.163622 0.042798
v 0.063766 -0.170738 0.042798
v 0.056650 -0.175493 0.042798
v 0.048256 -0.177277 0.042828
v -0.048256 -0.177205 0.042798
v -0.056650 -0.175493 0.042798
v -0.063765 -0.170738 0.042798
v -0.068520 -0.163622 0.042798
v -0.070304 -0.155228 0.042828
v 0.067681 -0.155228 0.041777
v 0.066242 -0.162678 0.041777
v 0.062022 -0.168994 0.041777
v 0.055706 -0.173214 0.041777
v 0.048256 -0.174696 0.041759
v -0.048256 -0.174653 0.041777
v -0.055706 -0.173214 0.041777
v -0.062021 -0.168994 0.041777
v -0.066241 -0.162678 0.041777
v -0.067723 -0.155228 0.041759
v 0.065155 -0.155228 0.042798
v 0.063963 -0.161734 0.042798
v 0.060277 -0.167250 0.042798
v 0.054762 -0.170935 0.042798
v 0.048256 -0.172115 0.042828
v -0.048256 -0.172127 0.042798
v -0.054762 -0.170935 0.042798
v -0.060277 -0.167250 0.042798
v -0.063962 -0.161734 0.042798
v -0.065142 -0.155228 0.042828
v 0.064073 -0.140718 0.045409
v 0.065143 -0.140718 0.047990
v 0.067723 -0.140718 0.049059
v 0.070304 -0.140718 0.047990
v 0.071373 -0.140718 0.045409
v 0.070304 -0.140718 0.042828
v 0.067723 -0.140718 0.041759
v 0.065143 -0.140718 0.042828
v -0.065142 -0.140718 0.047990
v -0.064073 -0.140718 0.045409
v -0.067723 -0.140718 0.049059
v -0.070304 -0.140718 0.047990
v -0.071373 -0.140718 0.045409
v -0.070304 -0.140718 0.042828
v -0.067723 -0.140718 0.041759
v -0.065142 -0.140718 0.042828
v 0.063421 -0.155229 0.045412
v 0.064758 -0.155230 0.048483
v 0.063421 -0.140719 0.045412
v 0.064686 -0.140719 0.048453
v 0.067767 -0.155229 0.049691
v 0.067724 -0.140718 0.049708
v 0.070751 -0.155228 0.048481
v 0.070764 -0.140718 0.048451
v 0.072025 -0.155229 0.045406
v 0.072025 -0.140719 0.045406
v 0.070689 -0.155230 0.042335
v 0.070760 -0.140719 0.042365
v 0.067680 -0.155229 0.041127
v 0.067723 -0.140718 0.041109
v 0.064695 -0.155228 0.042337
v 0.064683 -0.140718 0.042366
v -0.063423 -0.155228 0.045409
v -0.064682 -0.155228 0.048450
v -0.064682 -0.140718 0.048450
v -0.063423 -0.140718 0.045409
v -0.067723 -0.155228 0.049709
v -0.067723 -0.140718 0.049709
v -0.070764 -0.155228 0.048450
v -0.070764 -0.140718 0.048450
v -0.072024 -0.155228 0.045409
v -0.072024 -0.140718 0.045409
v -0.070764 -0.155228 0.042368
v -0.070764 -0.140718 0.042368
v -0.067723 -0.155228 0.041108
v -0.067723 -0.140718 0.041108
v -0.064682 -0.155228 0.042368
v -0.064682 -0.140718 0.042368
v 0.000000 -0.177271 0.048004
v 0.000000 -0.174717 0.049050
v 0.000000 -0.172151 0.048004
v 0.000000 -0.171046 0.045409
v 0.000000 -0.172121 0.042813
v 0.000000 -0.174675 0.041768
v 0.000000 -0.177241 0.042813
v 0.000000 -0.178346 0.045409
vn 0.7007 0.0016 -0.7135
vn 0.9201 0.0019 -0.3917
vn 0.7024 0.0016 -0.7118
vn 0.3772 0.0011 -0.9261
vn -0.7053 -0.0004 -0.7089
vn -0.3790 -0.0008 -0.9254
vn -0.7060 -0.0004 -0.7082
vn -0.9239 -0.0000 -0.3827
vn -0.7008 0.0016 0.7134
vn -0.9201 0.0018 0.3916
vn -0.7025 0.0016 0.7117
vn -0.3774 0.0011 0.9260
vn 0.7053 -0.0004 0.7089
vn 0.3789 -0.0008 0.9254
vn 0.7060 -0.0004 0.7083
vn 0.9238 -0.0000 0.3828
vn -0.9238 -0.0000 -0.3830
vn -0.7071 -0.0000 -0.7071
vn -0.3831 -0.0000 -0.9237
vn 0.3831 -0.0000 -0.9237
vn 0.7070 -0.0000 -0.7072
vn 0.9238 -0.0000 -0.3828
vn 0.7071 -0.0000 0.7071
vn 0.3828 -0.0000 0.9238
vn -0.3828 -0.0000 0.9238
vn -0.7072 -0.0000 0.7070
vn -0.9238 -0.0000 0.3830
vn -0.9361 0.0723 0.3441
vn -0.9361 0.0740 0.3438
vn -0.9377 0.0424 0.3448
vn -0.9378 0.0440 0.3445
vn -0.9800 -0.0739 -0.1847
vn -0.9799 -0.0749 -0.1848
vn -0.9817 -0.0446 -0.1852
vn -0.9817 -0.0455 -0.1851
vn -0.3786 0.0714 0.9228
vn -0.3788 0.0704 0.9228
vn -0.3793 0.0429 0.9243
vn -0.3791 0.0417 0.9244
vn -0.9176 -0.0744 0.3905
vn -0.9176 -0.0733 0.3907
vn -0.9192 -0.0454 0.3913
vn -0.9193 -0.0442 0.3912
vn 0.3169 0.0721 0.9457
vn 0.3166 0.0710 0.9459
vn 0.3174 0.0435 0.9473
vn 0.3173 0.0424 0.9474
vn -0.3361 -0.0735 0.9389
vn -0.3360 -0.0726 0.9391
vn -0.3365 -0.0443 0.9406
vn -0.3366 -0.0434 0.9406
vn 0.9784 0.0731 -0.1934
vn 0.9783 0.0745 -0.1933
vn 0.9801 0.0432 -0.1936
vn 0.9801 0.0445 -0.1937
vn 0.9703 -0.0728 -0.2305
vn 0.9702 -0.0746 -0.2305
vn 0.9720 -0.0432 -0.2308
vn 0.9719 -0.0450 -0.2309
vn -0.9822 0.0749 -0.1721
vn -0.9821 0.0765 -0.1720
vn -0.9840 0.0450 -0.1725
vn -0.9839 0.0465 -0.1724
vn 0.9897 -0.0739 0.1226
vn 0.9896 -0.0750 0.1226
vn 0.9914 -0.0446 0.1228
vn 0.9914 -0.0455 0.1227
vn 0.9522 0.0716 -0.2968
vn 0.9524 0.0707 -0.2967
vn 0.9538 0.0431 -0.2972
vn 0.9539 0.0421 -0.2972
vn 0.8119 -0.0745 -0.5790
vn 0.8119 -0.0733 -0.5791
vn 0.8133 -0.0455 -0.5800
vn 0.8133 -0.0443 -0.5802
vn -0.4214 0.0722 -0.9040
vn -0.4216 0.0710 -0.9040
vn -0.4223 0.0435 -0.9054
vn -0.4224 0.0424 -0.9054
vn 0.6031 -0.0735 -0.7943
vn 0.6032 -0.0727 -0.7943
vn 0.6042 -0.0443 -0.7956
vn 0.6041 -0.0435 -0.7957
vn -0.9849 0.0731 0.1572
vn -0.9847 0.0745 0.1572
vn -0.9866 0.0432 0.1574
vn -0.9865 0.0445 0.1573
vn -0.9465 -0.0728 0.3143
vn -0.9464 -0.0746 0.3143
vn -0.9481 -0.0432 0.3149
vn -0.9480 -0.0451 0.3150
vn -0.5649 0.0732 0.8219
vn -0.5650 0.0732 0.8219
vn -0.5659 0.0438 0.8233
vn 0.9973 -0.0732 -0.0001
vn 0.9973 -0.0732 -0.0000
vn 0.9990 -0.0438 -0.0002
vn 0.9990 -0.0438 -0.0001
vn -0.9973 0.0732 0.0001
vn -0.9973 0.0732 -0.0000
vn -0.9990 0.0438 0.0002
vn -0.9990 0.0438 0.0001
vn 0.0001 -0.0731 -0.9973
vn 0.0002 -0.0731 -0.9973
vn -0.0000 -0.0438 -0.9990
vn -0.0000 -0.0439 -0.9990
vn 0.9973 0.0732 -0.0000
vn 0.9973 0.0732 0.0002
vn 0.9990 0.0438 0.0001
vn 0.9990 0.0438 -0.0001
vn -0.3780 -0.0732 0.9229
vn -0.3779 -0.0732 0.9229
vn -0.3788 -0.0438 0.9245
vn -0.3788 -0.0438 0.9244
vn -0.0001 0.0732 -0.9973
vn 0.0001 0.0732 -0.9973
vn -0.0001 0.0438 -0.9990
vn -0.0002 0.0439 -0.9990
vn 0.7486 -0.0732 -0.6590
vn 0.7498 -0.0439 -0.6602
vn 0.7498 -0.0438 -0.6603
vn -0.0000 0.0732 0.9973
vn -0.0002 0.0732 0.9973
vn -0.0001 0.0439 0.9990
vn -0.0000 0.0439 0.9990
vn 0.6320 -0.0732 0.7715
vn 0.6331 -0.0439 0.7728
vn 0.6332 -0.0439 0.7728
vn 0.9973 0.0732 -0.0001
vn 0.9990 0.0438 -0.0002
vn 0.9973 -0.0732 -0.0002
vn 0.3817 0.0732 -0.9214
vn -0.7051 0.0732 -0.7053
vn -0.3823 0.0439 0.9230
vn 0.3816 -0.0732 -0.9214
vn -0.3822 -0.0438 0.9230
vn -0.7064 -0.0438 -0.7064
vn -0.7736 0.0732 -0.6294
vn -0.7735 0.0732 -0.6296
vn -0.7749 0.0438 -0.6306
vn -0.9973 -0.0732 -0.0001
vn -0.9973 -0.0732 -0.0000
vn -0.9990 -0.0438 -0.0000
vt -31.381250 0.034031
vt -31.461946 0.034020
vt -31.461950 -0.347292
vt -31.382029 -0.347283
vt -31.295912 -0.347295
vt -31.216852 -0.347319
vt -31.214964 0.033994
vt -31.294790 0.034018
vt -31.374353 -0.347286
vt -31.374674 0.034031
vt -31.127855 -0.347308
vt -31.047041 -0.347286
vt -31.047821 0.034031
vt -31.127851 0.034004
vt -31.208551 -0.347319
vt -31.207769 0.033994
vt -30.959700 0.034007
vt -31.038755 0.034031
vt -31.040640 -0.347283
vt -30.960817 -0.347307
vt -30.881254 0.033997
vt -30.880924 -0.347319
vt -31.542765 0.033997
vt -31.541983 -0.347319
vt -30.794601 -0.347319
vt -30.714684 -0.347319
vt -30.714684 0.033994
vt -30.794601 0.033994
vt -30.789721 0.037653
vt -30.709805 0.037653
vt -30.709805 0.418966
vt -30.789717 0.418966
vt -30.629887 0.037653
vt -30.629883 0.418966
vt -30.795343 0.419003
vt -30.875261 0.419003
vt -30.875261 0.037689
vt -30.795343 0.037689
vt -30.955175 0.419003
vt -30.955177 0.037689
vt -30.960800 0.419003
vt -31.040722 0.419003
vt -31.040720 0.037689
vt -30.960804 0.037689
vt -31.120634 0.419003
vt -31.120634 0.037689
vt -30.874516 -0.347319
vt -30.874517 0.033994
vt -31.170176 0.084809
vt -31.238779 0.054828
vt -31.238695 0.037689
vt -31.157999 0.072818
vt -31.429777 0.284591
vt -31.497602 0.312685
vt -31.509779 0.300693
vt -31.429861 0.267452
vt -31.143328 0.151859
vt -31.126261 0.151878
vt -31.525690 0.380506
vt -31.542765 0.380518
vt -31.170176 0.218243
vt -31.158049 0.230320
vt -31.497602 0.448325
vt -31.509729 0.460402
vt -31.238779 0.246655
vt -31.238867 0.263793
vt -31.429777 0.476422
vt -31.429697 0.493557
vt -31.307379 0.216679
vt -31.319559 0.228670
vt -31.361959 0.448331
vt -31.349779 0.460316
vt -31.334234 0.149630
vt -31.351301 0.149614
vt -31.333864 0.380506
vt -31.316793 0.380493
vt -31.307379 0.083245
vt -31.319513 0.071167
vt -31.361959 0.312685
vt -31.349829 0.300600
vt -31.197351 0.631593
vt -31.129526 0.603499
vt -31.117437 0.615598
vt -31.197351 0.648697
vt -31.032957 0.603499
vt -30.965136 0.631593
vt -30.965134 0.648697
vt -31.045050 0.615594
vt -31.101437 0.535681
vt -31.084333 0.535681
vt -31.061049 0.535681
vt -31.078152 0.535681
vt -31.129526 0.467862
vt -31.117437 0.455764
vt -31.032957 0.467862
vt -31.045050 0.455760
vt -31.197351 0.439765
vt -31.197351 0.422661
vt -30.965136 0.439765
vt -30.965134 0.422661
vt -31.265169 0.467862
vt -31.277266 0.455760
vt -30.897312 0.467862
vt -30.885218 0.455764
vt -31.293264 0.535681
vt -31.310366 0.535681
vt -30.869221 0.535681
vt -30.852118 0.535680
vt -31.265169 0.603499
vt -31.277269 0.615594
vt -30.897312 0.603499
vt -30.885218 0.615594
s 1
usemtl M_ToasterLever_22_1
f 102/1/1 101/2/2 103/3/2 104/4/3
f 105/5/4 102/6/1 104/7/3 106/8/4
f 107/9/5 105/5/6 106/8/6 108/10/7
f 109/11/8 107/12/5 108/13/7 110/14/8
f 111/15/9 109/11/10 110/14/10 112/16/11
f 113/17/12 111/18/9 112/19/11 114/20/12
f 115/21/13 113/17/14 114/20/14 116/22/15
f 101/2/16 115/23/13 116/24/15 103/3/16
f 117/25/17 118/26/18 119/27/18 120/28/17
f 118/29/18 121/30/19 122/31/19 119/32/18
f 121/30/20 123/33/21 124/34/21 122/31/20
f 123/35/21 125/36/22 126/37/22 124/38/21
f 125/36/16 127/39/23 128/40/23 126/37/16
f 127/41/23 129/42/24 130/43/24 128/44/23
f 129/42/25 131/45/26 132/46/26 130/43/25
f 131/47/26 117/25/27 120/28/27 132/48/26
f 7/49/28 5/50/29 101/51/30 102/52/31
f 85/53/32 86/54/33 104/55/34 103/56/35
f 25/57/36 7/49/37 102/52/38 105/58/39
f 86/54/40 87/59/41 106/60/42 104/55/43
f 35/61/44 25/57/45 105/58/46 107/62/47
f 87/59/48 88/63/49 108/64/50 106/60/51
f 45/65/52 35/61/53 107/62/54 109/66/55
f 88/63/56 89/67/57 110/68/58 108/64/59
f 55/69/60 45/65/61 109/66/62 111/70/63
f 89/67/64 90/71/65 112/72/66 110/68/67
f 65/73/68 55/69/69 111/70/70 113/74/71
f 90/71/72 91/75/73 114/76/74 112/72/75
f 75/77/76 65/73/77 113/74/78 115/78/79
f 91/75/80 92/79/81 116/80/82 114/76/83
f 5/50/84 75/77/85 115/78/86 101/51/87
f 92/79/88 85/53/89 103/56/90 116/80/91
f 23/81/92 24/82/93 118/83/94 117/84/94
f 93/85/95 94/86/96 120/87/97 119/88/98
f 24/82/99 34/89/100 121/90/101 118/83/102
f 95/91/103 93/85/104 119/88/105 122/92/106
f 34/89/107 44/93/108 123/94/109 121/90/110
f 96/95/111 95/91/112 122/92/113 124/96/114
f 44/93/115 54/97/116 125/98/117 123/94/118
f 97/99/119 96/95/119 124/96/120 126/100/121
f 54/97/122 64/101/123 127/102/124 125/98/125
f 98/103/126 97/99/126 126/100/127 128/104/128
f 64/101/129 74/105/107 129/106/110 127/102/130
f 99/107/95 98/103/131 128/104/98 130/108/97
f 74/105/132 84/109/133 131/110/134 129/106/109
f 100/111/135 99/107/95 130/108/136 132/112/137
f 84/109/138 23/81/139 117/84/140 131/110/140
f 94/86/141 100/111/142 132/112/143 120/87/143
