# Blender 4.1.1
# www.blender.org
mtllib ToasterLever_10_ToasterLever_10_1_GeomSubset_0.mtl
o ToasterLever_10_ToasterLever_10_1_GeomSubset_0
v -0.002036 -0.159397 0.061930
v -0.002036 -0.155327 0.061930
v 0.002036 -0.159397 0.061930
v 0.002036 -0.155327 0.061930
v -0.002036 -0.159397 0.061930
v -0.002036 -0.155327 0.061930
v 0.002036 -0.159397 0.061930
v 0.002036 -0.155327 0.061930
v -0.002036 -0.159397 0.061930
v -0.002036 -0.155327 0.061930
v 0.002036 -0.159397 0.061930
v 0.002036 -0.155327 0.061930
v -0.002036 -0.159397 0.061930
v -0.002036 -0.155327 0.061930
v 0.002036 -0.159397 0.061930
v 0.002036 -0.155327 0.061930
v -0.002036 -0.159397 0.061930
v -0.002036 -0.155327 0.061930
v 0.002036 -0.159397 0.061930
v 0.002036 -0.155327 0.061930
v -0.002036 -0.159397 0.061930
v -0.002036 -0.155327 0.061930
v 0.002036 -0.159397 0.061930
v 0.002036 -0.155327 0.061930
v -0.010317 -0.170107 0.058264
v -0.010317 -0.167958 0.057316
v -0.012466 -0.167958 0.058264
v -0.013357 -0.167958 0.060129
v -0.012466 -0.170107 0.060129
v -0.010317 -0.170998 0.060129
v -0.010317 -0.145174 0.058264
v -0.010317 -0.144284 0.060129
v -0.012466 -0.145174 0.060129
v -0.013357 -0.147323 0.060129
v -0.012466 -0.147323 0.058264
v -0.010317 -0.147323 0.057316
v 0.012466 -0.170107 0.060129
v 0.010317 -0.170998 0.060129
v 0.013356 -0.167958 0.060129
v 0.012466 -0.145174 0.060129
v 0.013356 -0.147323 0.060129
v 0.010317 -0.144284 0.060129
v 0.010317 -0.170107 0.058264
v 0.012466 -0.167958 0.058264
v 0.010317 -0.167958 0.057316
v 0.010317 -0.145174 0.058264
v 0.010317 -0.147323 0.057316
v 0.012466 -0.147323 0.058264
v -0.012071 -0.169712 0.058685
v -0.012071 -0.145569 0.058685
v 0.012071 -0.169712 0.058685
v 0.012071 -0.145569 0.058685
v -0.003163 -0.145513 0.059802
v -0.003163 -0.129869 0.059802
v -0.003163 -0.145513 0.063716
v -0.003163 -0.129869 0.063716
v 0.003163 -0.145513 0.063716
v 0.003163 -0.129869 0.063716
v 0.003163 -0.145513 0.059802
v 0.003163 -0.129869 0.059802
v -0.010317 -0.170998 0.063758
v -0.010317 -0.170107 0.065622
v 0.010317 -0.170107 0.065622
v 0.010317 -0.170998 0.063758
v -0.010317 -0.167958 0.066570
v 0.010317 -0.167958 0.066570
v -0.012466 -0.167958 0.065622
v -0.012466 -0.147323 0.065622
v -0.010317 -0.147323 0.066570
v -0.013357 -0.167958 0.063758
v -0.013357 -0.147323 0.063758
v -0.010317 -0.145174 0.065622
v 0.010317 -0.145174 0.065622
v 0.010317 -0.147323 0.066570
v -0.010317 -0.144284 0.063758
v 0.010317 -0.144284 0.063758
v 0.013356 -0.167958 0.063758
v 0.012466 -0.167958 0.065622
v 0.012466 -0.147323 0.065622
v 0.013356 -0.147323 0.063758
v -0.012071 -0.169712 0.065202
v -0.012466 -0.170107 0.063758
v -0.012466 -0.145174 0.063758
v -0.012071 -0.145569 0.065202
v 0.012466 -0.170107 0.063758
v 0.012071 -0.169712 0.065202
v 0.012466 -0.145174 0.063758
v 0.012071 -0.145569 0.065202
v 0.000000 -0.170107 0.065622
v 0.000000 -0.170998 0.063758
v 0.000000 -0.170998 0.060129
v 0.000000 -0.170107 0.058264
v 0.000000 -0.167958 0.057316
v 0.000000 -0.147323 0.057316
v 0.000000 -0.145174 0.058264
v 0.000000 -0.144284 0.060129
v 0.000000 -0.144284 0.063758
v 0.000000 -0.145174 0.065622
v 0.000000 -0.147323 0.066570
v 0.000000 -0.167958 0.066570
vn 0.8472 -0.0000 -0.5313
vn -0.0000 -0.8472 -0.5313
vn -0.8472 -0.0000 -0.5313
vn -0.0000 0.8472 -0.5313
vn 0.0006 0.8897 0.4565
vn -0.0000 0.8897 0.4565
vn 0.0003 0.8897 0.4565
vn -0.0000 0.3020 0.9533
vn -0.0000 0.3018 0.9534
vn -0.0003 0.3019 0.9533
vn 0.9753 -0.0000 0.2210
vn 0.6963 -0.0000 0.7177
vn 0.2062 -0.0000 0.9785
vn -0.0000 -0.3022 0.9532
vn 0.0220 0.2625 0.9647
vn -0.0000 0.2629 0.9648
vn -0.0221 0.2625 0.9647
vn -0.0000 0.2628 0.9649
vn 0.0007 0.3018 -0.9534
vn -0.0000 0.3020 -0.9533
vn -0.0000 0.3019 -0.9534
vn -0.0000 0.8897 -0.4565
vn -0.0003 0.8897 -0.4565
vn 0.2062 -0.0000 -0.9785
vn 0.6963 -0.0000 -0.7178
vn 0.9752 -0.0000 -0.2211
vn 0.0111 -0.8898 -0.4563
vn -0.0000 -0.8898 -0.4563
vn -0.0111 -0.8898 -0.4563
vn -0.0000 -0.3022 -0.9532
vn -0.9753 -0.0000 -0.2209
vn -0.6964 -0.0000 -0.7176
vn -0.2062 -0.0000 -0.9785
vn -0.2062 -0.0000 0.9785
vn -0.6965 -0.0000 0.7176
vn -0.9753 -0.0000 0.2208
vn -0.0000 -0.0000 -1.0000
vn -0.0000 -0.0000 1.0000
vn 0.2996 0.3166 -0.9000
vn 0.3386 0.4263 -0.8388
vn 0.3015 0.3208 -0.8979
vn 0.3541 0.4729 -0.8068
vn -0.7521 -0.4229 0.5056
vn -0.6849 -0.3620 0.6324
vn -0.7519 -0.4231 0.5056
vn -0.6531 -0.3346 0.6794
vn -0.3512 -0.0227 0.9360
vn -0.2382 0.0183 0.9710
vn -0.3561 -0.0248 0.9341
vn -0.1837 0.0376 0.9823
vn -0.5557 0.6504 0.5179
vn -0.4927 0.5850 0.6443
vn -0.5559 0.6502 0.5179
vn -0.4636 0.5544 0.6911
vn 0.5430 -0.1958 -0.8166
vn 0.5787 -0.3002 -0.7583
vn 0.5408 -0.1914 -0.8191
vn 0.5917 -0.3482 -0.7271
vn 0.4918 0.2374 -0.8377
vn 0.5987 0.1920 -0.7776
vn 0.4964 0.2355 -0.8355
vn 0.6433 0.1699 -0.7465
vn -0.7367 -0.4457 -0.5085
vn -0.6699 -0.3844 -0.6352
vn -0.7364 -0.4462 -0.5085
vn -0.6380 -0.3571 -0.6823
vn 0.0826 0.4080 0.9092
vn 0.1230 0.5122 0.8500
vn 0.0811 0.4035 0.9114
vn 0.1409 0.5580 0.8178
vn -0.4022 0.1295 -0.9064
vn -0.2835 0.1706 -0.9437
vn -0.3972 0.1313 -0.9083
vn -0.2285 0.1878 -0.9553
vn -0.9299 -0.3625 -0.0619
vn -0.8755 -0.4706 -0.1102
vn -0.9280 -0.3671 -0.0642
vn -0.8460 -0.5166 -0.1316
vn -0.5715 0.6360 -0.5185
vn -0.5076 0.5714 -0.6449
vn -0.5715 0.6361 -0.5184
vn -0.4784 0.5410 -0.6917
vn -0.1268 0.5166 -0.8468
vn -0.0168 0.4693 -0.8829
vn -0.1317 0.5185 -0.8449
vn 0.0351 0.4444 -0.8951
vn 0.4613 0.5220 -0.7175
vn 0.3467 0.5560 -0.7554
vn 0.4662 0.5203 -0.7155
vn 0.2909 0.5691 -0.7691
vn -0.3514 0.2924 0.8894
vn -0.3896 0.4026 0.8283
vn -0.3531 0.2967 0.8873
vn -0.4045 0.4496 0.7964
vn 0.7238 -0.4642 -0.5105
vn 0.6570 -0.4026 -0.6374
vn 0.7235 -0.4646 -0.5106
vn 0.6255 -0.3748 -0.6843
vn -0.0093 0.3613 -0.9324
vn -0.0497 0.2487 -0.9673
vn -0.0072 0.3663 -0.9305
vn -0.0688 0.1940 -0.9786
vn 0.4024 -0.1315 -0.9059
vn 0.2840 -0.1722 -0.9432
vn 0.3976 -0.1333 -0.9078
vn 0.2290 -0.1899 -0.9547
vn -0.9430 -0.0280 0.3317
vn -0.9782 -0.0829 0.1903
vn -0.9424 -0.0320 0.3330
vn -0.9870 -0.0962 0.1287
vn 0.7442 -0.4348 0.5071
vn 0.6772 -0.3736 0.6339
vn 0.7440 -0.4350 0.5071
vn 0.6454 -0.3461 0.6809
vn -0.1467 0.3846 -0.9113
vn -0.1863 0.4893 -0.8520
vn -0.1453 0.3802 -0.9134
vn -0.2034 0.5353 -0.8198
vn 0.4676 0.5842 0.6634
vn 0.3481 0.6193 0.7038
vn 0.4627 0.5858 0.6654
vn 0.2923 0.6315 0.7182
vn 0.3301 0.2326 0.9148
vn 0.2831 0.1169 0.9519
vn 0.3281 0.2276 0.9168
vn 0.2605 0.0637 0.9634
vn 0.3472 0.7973 0.4938
vn 0.2879 0.7293 0.6207
vn 0.3479 0.7969 0.4939
vn 0.2619 0.6966 0.6680
vn 0.1853 -0.9409 -0.2834
vn 0.0746 -0.9698 -0.2323
vn 0.1898 -0.9393 -0.2857
vn 0.0219 -0.9780 -0.2076
vn 1.0000 -0.0000 -0.0000
vn -1.0000 -0.0000 -0.0000
vn -0.0000 0.3019 -0.9533
vn -0.0000 0.3019 0.9533
vn 0.0009 0.2628 0.9649
vn -0.0000 -0.9311 -0.3647
vn -0.0007 -0.9311 -0.3647
vn 0.0007 -0.9311 0.3647
vn -0.0000 -0.9311 0.3647
vn -0.0000 0.2628 -0.9649
vn -0.0006 0.8897 -0.4565
vt -66.138519 -17.511343
vt -66.079926 -17.511343
vt -66.079926 -17.452749
vt -66.138519 -17.452749
vt -66.236900 0.852081
vt -66.236900 0.877917
vt -66.360931 0.877917
vt -66.360931 0.852081
vt -66.087822 0.602746
vt -66.055473 0.602746
vt -66.055473 0.728053
vt -66.087822 0.728053
vt -65.942436 0.853357
vt -65.974785 0.853357
vt -65.974785 0.602750
vt -65.942436 0.602750
vt -66.211067 0.852081
vt -66.236900 0.604026
vt -66.211067 0.604026
vt -65.829391 0.853356
vt -65.861748 0.853356
vt -65.861748 0.728054
vt -65.829391 0.728054
vt -66.236900 0.578191
vt -66.360931 0.604026
vt -66.360931 0.578191
vt -66.023125 0.602746
vt -66.023125 0.728053
vt -65.981544 1.374512
vt -65.981544 1.348676
vt -65.857513 1.348676
vt -65.857513 1.374512
vt -66.007378 1.348676
vt -66.007378 1.100620
vt -65.981544 1.100620
vt -65.910080 0.853357
vt -65.910080 0.602750
vt -65.981544 1.074785
vt -65.857513 1.074785
vt -65.857513 1.100620
vt -65.797043 0.853356
vt -65.797043 0.728054
vt -66.162582 1.349956
vt -66.194931 1.349956
vt -66.194931 1.099340
vt -66.162582 1.099340
vt -65.707649 1.348676
vt -65.733490 1.348676
vt -65.733490 1.100620
vt -65.707649 1.100620
vt -66.484955 0.852081
vt -66.510796 0.852081
vt -66.510796 0.604026
vt -66.484955 0.604026
vt -66.130234 1.349956
vt -66.130234 1.099340
vt -66.055473 0.576644
vt -66.081886 0.581441
vt -66.215813 0.873168
vt -65.942436 0.879459
vt -65.968834 0.874661
vt -66.215813 0.582939
vt -65.829391 0.879457
vt -65.855797 0.874661
vt -65.942436 0.576649
vt -65.968834 0.581447
vt -66.002632 1.369763
vt -66.029060 0.581441
vt -65.916023 0.874661
vt -65.802986 0.874661
vt -66.002632 1.079533
vt -65.916023 0.581447
vt -66.162582 1.376059
vt -66.188995 1.371261
vt -66.055473 0.879462
vt -66.055473 0.853359
vt -66.023125 0.853359
vt -66.029060 0.874664
vt -65.733490 1.374512
vt -65.712402 1.369763
vt -65.797043 0.602751
vt -65.829391 0.602751
vt -65.829391 0.576649
vt -65.802986 0.581446
vt -66.162582 1.073238
vt -66.188995 1.078036
vt -65.733490 1.074785
vt -65.712402 1.079533
vt -66.484955 0.877917
vt -66.506042 0.873168
vt -66.087822 0.853359
vt -66.081886 0.874664
vt -66.136169 1.371261
vt -65.861748 0.602751
vt -65.855797 0.581446
vt -66.484955 0.578191
vt -66.506042 0.582939
vt -66.136169 1.078036
vt -66.283073 1.225102
vt -66.283073 1.040697
vt -66.236946 1.040697
vt -66.236946 1.225102
vt -66.366539 1.225103
vt -66.366539 1.040695
vt -66.320412 1.040695
vt -66.320412 1.225103
vt -66.450005 1.225110
vt -66.450005 1.040689
vt -66.403870 1.040689
vt -66.403870 1.225110
vt -66.533470 1.225111
vt -66.533470 1.040688
vt -66.487335 1.040688
vt -66.487335 1.225111
s 1
usemtl M_ToasterLever_10_0
f 1/1/1 2/2/2 4/3/3 3/4/4
f 26/5/5 25/6/6 92/7/6 93/8/7
f 25/9/8 30/10/9 91/11/10 92/12/8
f 28/13/11 27/14/12 35/15/12 34/16/11
f 27/17/12 26/5/13 36/18/13 35/19/12
f 32/20/14 31/21/14 95/22/14 96/23/14
f 31/24/15 36/18/16 94/25/17 95/26/18
f 61/10/19 62/27/20 89/28/20 90/11/21
f 62/29/22 65/30/22 100/31/23 89/32/22
f 65/30/24 67/33/25 68/34/25 69/35/24
f 67/36/25 70/13/26 71/16/26 68/37/25
f 69/35/27 72/38/28 98/39/29 99/40/28
f 72/41/30 75/20/30 97/23/30 98/42/30
f 77/43/31 78/44/32 79/45/32 80/46/31
f 78/47/32 66/48/33 74/49/33 79/50/32
f 45/51/34 44/52/35 48/53/35 47/54/34
f 44/55/35 39/43/36 41/46/36 48/56/35
f 65/30/24 69/35/24 99/40/37 100/31/37
f 93/8/38 94/25/38 36/18/13 26/5/13
f 29/57/39 30/10/40 25/9/41 49/58/42
f 25/6/43 26/5/44 27/17/45 49/59/46
f 27/14/47 28/13/48 29/60/49 49/61/50
f 35/19/51 36/18/52 31/24/53 50/62/54
f 31/21/55 32/20/56 33/63/57 50/64/58
f 33/65/59 34/16/60 35/15/61 50/66/62
f 67/33/63 65/30/64 62/29/65 81/67/66
f 62/27/67 61/10/68 82/57/69 81/68/70
f 82/60/71 70/13/72 67/36/73 81/69/74
f 83/63/75 75/20/76 72/41/77 84/70/78
f 72/38/79 69/35/80 68/34/81 84/71/82
f 68/37/83 71/16/84 83/65/85 84/72/86
f 78/44/87 77/43/88 85/73/89 86/74/90
f 85/75/91 64/76/92 63/77/93 86/78/94
f 63/79/95 66/48/96 78/47/97 86/80/98
f 73/81/99 76/82/100 87/83/101 88/84/102
f 87/85/103 80/46/104 79/45/105 88/86/106
f 79/50/107 74/49/108 73/87/109 88/88/110
f 44/52/111 45/51/112 43/89/113 51/90/114
f 43/91/115 38/76/116 37/75/117 51/92/118
f 37/73/119 39/43/120 44/55/121 51/93/122
f 40/83/123 42/82/124 46/94/125 52/95/126
f 46/96/127 47/54/128 48/53/129 52/97/130
f 48/56/131 41/46/132 40/85/133 52/98/134
f 53/99/135 54/100/135 56/101/135 55/102/135
f 55/103/37 56/104/37 58/105/37 57/106/37
f 57/107/136 58/108/136 60/109/136 59/110/136
f 59/111/38 60/112/38 54/113/38 53/114/38
f 90/11/21 89/28/20 63/77/20 64/76/137
f 92/12/8 91/11/10 38/76/138 43/91/8
f 93/8/7 92/7/6 43/89/6 45/51/6
f 45/51/34 47/54/34 94/25/38 93/8/38
f 95/26/139 94/25/18 47/54/18 46/96/18
f 96/23/140 95/22/140 46/94/141 42/82/140
f 98/42/142 97/23/143 76/82/143 73/81/143
f 99/40/144 98/39/144 73/87/144 74/49/144
f 100/31/37 99/40/37 74/49/33 66/48/33
f 89/32/22 100/31/23 66/48/145 63/79/22
