# Blender 4.1.1
# www.blender.org
mtllib MeshBookFront_5_1_GeomSubset_2.mtl
o MeshBookFront_5_1_GeomSubset_2
v 0.129751 -0.179983 0.011801
v -0.135464 -0.179983 0.011801
v -0.135464 0.179983 0.011801
v 0.132667 -0.179983 0.006190
v -0.134058 0.179983 0.006190
v -0.134058 -0.179983 0.006190
v 0.135578 -0.179983 0.000253
v -0.132408 0.179983 0.000253
v -0.132408 -0.179983 0.000253
v -0.133360 -0.179091 0.010398
v 0.130442 -0.179091 0.010398
v -0.133360 0.179091 0.010398
v -0.134880 -0.179983 0.008995
v 0.131133 -0.179983 0.008995
v -0.134880 0.179983 0.008995
v -0.132626 -0.179091 0.007592
v 0.131852 -0.179091 0.007592
v -0.132626 0.179091 0.007592
v -0.131641 -0.179091 0.004461
v 0.133537 -0.179091 0.004461
v -0.131641 0.179091 0.004461
v -0.133189 -0.179983 0.003384
v 0.134088 -0.179983 0.003384
v -0.133189 0.179983 0.003384
v -0.130922 -0.179091 0.001981
v 0.134785 -0.179091 0.001981
v -0.130922 0.179091 0.001981
v -0.130345 -0.179091 -0.000825
v 0.136017 -0.179091 -0.000825
v -0.130345 0.179091 -0.000825
v -0.132083 -0.179983 -0.002227
v 0.136538 -0.179983 -0.002227
v -0.132083 0.179983 -0.002227
v -0.130151 -0.179091 -0.003630
v 0.136986 -0.179091 -0.003630
v -0.130128 0.179091 -0.003630
v -0.132001 0.179983 -0.005225
v -0.132001 -0.179983 -0.005225
v 0.137319 -0.178993 -0.005225
v -0.136287 -0.182536 0.011018
v -0.136287 -0.182536 0.013973
v -0.136287 0.182536 0.013973
v -0.136287 0.182536 0.011018
v 0.133052 -0.182536 0.001141
v 0.131152 -0.182536 0.007920
v 0.131152 0.182536 0.007920
v 0.133052 0.182536 0.001141
v 0.137251 -0.182536 0.001592
v 0.134914 -0.182536 0.008388
v 0.137251 0.182536 0.001592
v 0.134914 0.182536 0.008388
v 0.126510 -0.182536 0.011018
v 0.129101 -0.182536 0.010144
v 0.128818 -0.182536 0.013973
v 0.131028 -0.182536 0.012831
v 0.128818 0.182536 0.013973
v 0.131029 0.182536 0.012832
v 0.126510 0.182536 0.011018
v 0.129101 0.182536 0.010144
v 0.128168 -0.180711 0.011504
v 0.128938 -0.180711 0.011215
v 0.128939 0.180711 0.011214
v 0.128169 0.180711 0.011504
v 0.129464 -0.180711 0.013162
v 0.130223 -0.180711 0.012859
v 0.129465 0.180711 0.013161
v 0.130224 0.180711 0.012858
v 0.041346 -0.179983 0.011801
v 0.042508 -0.179091 0.010398
v 0.042462 -0.179983 0.008995
v 0.043673 -0.179091 0.007592
v 0.043657 -0.179983 0.006190
v 0.044654 -0.179091 0.004461
v 0.044330 -0.179983 0.003384
v 0.045277 -0.179091 0.001981
v 0.044973 -0.179983 0.000253
v 0.045768 -0.179091 -0.000825
v 0.045295 -0.179983 -0.002227
v 0.046045 -0.179091 -0.003630
v 0.045535 -0.178993 -0.005225
v -0.047059 -0.179983 0.011801
v -0.045426 -0.179091 0.010398
v -0.046209 -0.179983 0.008995
v -0.044476 -0.179091 0.007592
v -0.045200 -0.179983 0.006190
v -0.043493 -0.179091 0.004461
v -0.044430 -0.179983 0.003384
v -0.042822 -0.179091 0.001981
v -0.043717 -0.179983 0.000253
v -0.042289 -0.179091 -0.000825
v -0.043394 -0.179983 -0.002227
v -0.042053 -0.179091 -0.003630
v -0.043233 -0.178993 -0.005225
v -0.013643 -0.178993 -0.005856
v -0.012687 -0.179091 -0.003630
v -0.013831 -0.179983 -0.002335
v -0.012937 -0.179091 -0.000834
v -0.014154 -0.179983 0.000253
v -0.013456 -0.179091 0.001981
v -0.014843 -0.179983 0.003384
v -0.014111 -0.179091 0.004461
v -0.015581 -0.179983 0.006190
v -0.015093 -0.179091 0.007592
v -0.016652 -0.179983 0.008995
v -0.016115 -0.179091 0.010398
v -0.017590 -0.179983 0.011801
v 0.015946 -0.178993 -0.005751
v 0.016679 -0.179091 -0.003630
v 0.015732 -0.179983 -0.002242
v 0.016416 -0.179091 -0.000825
v 0.015410 -0.179983 0.000253
v 0.015911 -0.179091 0.001981
v 0.014743 -0.179983 0.003384
v 0.015272 -0.179091 0.004461
v 0.014038 -0.179983 0.006190
v 0.014290 -0.179091 0.007592
v 0.012905 -0.179983 0.008995
v 0.013197 -0.179091 0.010398
v 0.011878 -0.179983 0.011801
v 0.068481 -0.178993 -0.005225
v 0.068781 -0.179091 -0.003630
v 0.068106 -0.179983 -0.002227
v 0.068330 -0.179091 -0.000825
v 0.067625 -0.179983 0.000253
v 0.067654 -0.179091 0.001981
v 0.066769 -0.179983 0.003384
v 0.066875 -0.179091 0.004461
v 0.065909 -0.179983 0.006190
v 0.065718 -0.179091 0.007592
v 0.064630 -0.179983 0.008995
v 0.064491 -0.179091 0.010398
v 0.063447 -0.179983 0.011801
v 0.091427 -0.178993 -0.005225
v 0.091516 -0.179091 -0.003630
v 0.090917 -0.179983 -0.002227
v 0.090892 -0.179091 -0.000825
v 0.090276 -0.179983 0.000253
v 0.090031 -0.179091 0.001981
v 0.089209 -0.179983 0.003384
v 0.089096 -0.179091 0.004461
v 0.088162 -0.179983 0.006190
v 0.087763 -0.179091 0.007592
v 0.086797 -0.179983 0.008995
v 0.086475 -0.179091 0.010398
v 0.085549 -0.179983 0.011801
v 0.114373 -0.178993 -0.005225
v 0.114251 -0.179091 -0.003630
v 0.113727 -0.179983 -0.002227
v 0.113454 -0.179091 -0.000825
v 0.112927 -0.179983 0.000253
v 0.112408 -0.179091 0.001981
v 0.111648 -0.179983 0.003384
v 0.111316 -0.179091 0.004461
v 0.110414 -0.179983 0.006190
v 0.109807 -0.179091 0.007592
v 0.108965 -0.179983 0.008995
v 0.108458 -0.179091 0.010398
v 0.107650 -0.179983 0.011801
v -0.130327 0.177167 -0.009347
v -0.043233 0.177167 -0.009347
v -0.130327 -0.177167 -0.009347
v -0.043233 -0.177167 -0.009347
v 0.114373 0.177167 -0.019761
v 0.137463 0.177167 -0.007467
v 0.114373 -0.177167 -0.019761
v 0.137463 -0.177167 -0.007467
v 0.015946 0.177167 -0.017593
v 0.045535 0.177167 -0.022150
v 0.015946 -0.177167 -0.017593
v 0.045535 -0.177167 -0.022056
v -0.013643 0.177167 -0.012175
v -0.013643 -0.177167 -0.012175
v 0.068481 0.177167 -0.024345
v 0.068481 -0.177167 -0.023820
v 0.091427 0.177167 -0.023259
v 0.091427 -0.177167 -0.023259
v -0.128231 0.177167 -0.006407
v -0.128231 -0.177167 -0.006407
v -0.043233 -0.177167 -0.006407
v 0.137463 -0.177167 -0.006407
v 0.114373 -0.177167 -0.006407
v 0.045535 -0.177167 -0.006407
v 0.015946 -0.177167 -0.006407
v -0.013643 -0.177167 -0.006407
v 0.068481 -0.177167 -0.006407
v 0.091427 -0.177167 -0.006407
v 0.125918 0.177167 -0.016062
v 0.125918 -0.177167 -0.016062
v 0.125918 -0.177167 -0.006407
v 0.125846 -0.178993 -0.005225
v 0.125618 -0.179091 -0.003630
v 0.125133 -0.179983 -0.002227
v 0.124736 -0.179091 -0.000825
v 0.124253 -0.179983 0.000253
v 0.123597 -0.179091 0.001981
v 0.122868 -0.179983 0.003384
v 0.122427 -0.179091 0.004461
v 0.121541 -0.179983 0.006190
v 0.120830 -0.179091 0.007592
v 0.120049 -0.179983 0.008995
v 0.119450 -0.179091 0.010398
v 0.118700 -0.179983 0.011801
v 0.090250 -0.174801 -0.020481
v 0.067610 -0.174801 -0.020948
v 0.044971 -0.174801 -0.019574
v 0.015777 -0.174801 -0.016337
v -0.013418 -0.174801 -0.011553
v -0.042612 -0.174801 -0.008888
v -0.128535 -0.174801 -0.008888
v -0.128535 0.174802 -0.008888
v 0.137463 -0.174801 -0.007321
v 0.124280 -0.174801 -0.014483
v 0.112889 -0.174801 -0.017566
v 0.091427 -0.177167 -0.017702
v 0.068481 -0.177167 -0.018076
v 0.045535 -0.177167 -0.016977
v 0.015946 -0.177167 -0.014147
v -0.013643 -0.177167 -0.010854
v -0.043233 -0.177167 -0.008428
v -0.130327 -0.177167 -0.008428
v -0.130327 0.177167 -0.008428
v 0.137463 -0.177167 -0.007175
v 0.125918 -0.177167 -0.012905
v 0.114373 -0.177167 -0.015370
v 0.090250 -0.174801 -0.014924
v 0.067610 -0.174801 -0.015205
v 0.044971 -0.174801 -0.014315
v 0.015777 -0.174801 -0.012467
v -0.013418 -0.174801 -0.010088
v -0.042612 -0.174801 -0.007968
v -0.128535 -0.174801 -0.007968
v -0.128535 0.174802 -0.007968
v 0.137463 -0.174801 -0.007028
v 0.124280 -0.174801 -0.011326
v 0.112889 -0.174801 -0.013175
v 0.091427 -0.177167 -0.012146
v 0.068481 -0.177167 -0.012333
v 0.045535 -0.177167 -0.011655
v 0.015946 -0.177167 -0.010649
v -0.013643 -0.177167 -0.009269
v -0.043233 -0.177167 -0.007509
v -0.130327 -0.177167 -0.007509
v -0.130327 0.177167 -0.007509
v 0.137463 -0.177167 -0.006882
v 0.125918 -0.177167 -0.009747
v 0.114373 -0.177167 -0.010980
v 0.090250 -0.174801 -0.009368
v 0.067610 -0.174801 -0.009461
v 0.044971 -0.174801 -0.009064
v 0.015777 -0.174801 -0.008779
v -0.013418 -0.174801 -0.008414
v -0.042612 -0.174801 -0.007049
v -0.128535 -0.174801 -0.007049
v -0.128535 0.174802 -0.007049
v 0.137463 -0.174801 -0.006736
v 0.124280 -0.174801 -0.008168
v 0.112889 -0.174801 -0.008785
v 0.134658 -0.181933 -0.006151
v 0.133648 -0.182536 -0.005224
v 0.134658 0.181933 -0.006151
v 0.133648 0.182536 -0.005224
v 0.136951 -0.181933 -0.006151
v 0.137870 -0.182536 -0.005224
v 0.136951 0.181933 -0.006151
v 0.137870 0.182536 -0.005224
v 0.129751 0.179983 0.011801
v 0.132667 0.179983 0.006190
v 0.135578 0.179983 0.000253
v 0.130442 0.179091 0.010398
v 0.131133 0.179983 0.008995
v 0.131852 0.179091 0.007592
v 0.133537 0.179091 0.004461
v 0.134088 0.179983 0.003384
v 0.134785 0.179091 0.001981
v 0.136017 0.179091 -0.000825
v 0.136538 0.179983 -0.002227
v 0.136986 0.179091 -0.003630
v 0.137319 0.178994 -0.005225
v 0.041346 0.179983 0.011801
v 0.042508 0.179091 0.010398
v 0.042462 0.179983 0.008995
v 0.043673 0.179091 0.007592
v 0.043657 0.179983 0.006190
v 0.044654 0.179091 0.004461
v 0.044330 0.179983 0.003384
v 0.045277 0.179091 0.001981
v 0.044973 0.179983 0.000253
v 0.045768 0.179091 -0.000825
v 0.045295 0.179983 -0.002227
v 0.046045 0.179091 -0.003630
v 0.045535 0.178994 -0.005225
v -0.047059 0.179983 0.011801
v -0.045426 0.179091 0.010398
v -0.046209 0.179983 0.008995
v -0.044476 0.179091 0.007592
v -0.045200 0.179983 0.006190
v -0.043493 0.179091 0.004461
v -0.044430 0.179983 0.003384
v -0.042822 0.179091 0.001981
v -0.043717 0.179983 0.000253
v -0.042289 0.179091 -0.000825
v -0.043394 0.179983 -0.002227
v -0.042053 0.179091 -0.003630
v -0.043233 0.178994 -0.005225
v -0.013643 0.178994 -0.005856
v -0.012687 0.179091 -0.003630
v -0.013831 0.179983 -0.002335
v -0.012937 0.179091 -0.000834
v -0.014154 0.179983 0.000253
v -0.013456 0.179091 0.001981
v -0.014843 0.179983 0.003384
v -0.014111 0.179091 0.004461
v -0.015581 0.179983 0.006190
v -0.015093 0.179091 0.007592
v -0.016652 0.179983 0.008995
v -0.016115 0.179091 0.010398
v -0.017590 0.179983 0.011801
v 0.015946 0.178994 -0.005751
v 0.016679 0.179091 -0.003630
v 0.015732 0.179983 -0.002242
v 0.016416 0.179091 -0.000825
v 0.015410 0.179983 0.000253
v 0.015911 0.179091 0.001981
v 0.014743 0.179983 0.003384
v 0.015272 0.179091 0.004461
v 0.014038 0.179983 0.006190
v 0.014290 0.179091 0.007592
v 0.012905 0.179983 0.008995
v 0.013197 0.179091 0.010398
v 0.011878 0.179983 0.011801
v 0.068481 0.178994 -0.005225
v 0.068781 0.179091 -0.003630
v 0.068106 0.179983 -0.002227
v 0.068330 0.179091 -0.000825
v 0.067625 0.179983 0.000253
v 0.067654 0.179091 0.001981
v 0.066769 0.179983 0.003384
v 0.066875 0.179091 0.004461
v 0.065909 0.179983 0.006190
v 0.065718 0.179091 0.007592
v 0.064630 0.179983 0.008995
v 0.064491 0.179091 0.010398
v 0.063447 0.179983 0.011801
v 0.091427 0.178994 -0.005225
v 0.091516 0.179091 -0.003630
v 0.090917 0.179983 -0.002227
v 0.090892 0.179091 -0.000825
v 0.090276 0.179983 0.000253
v 0.090031 0.179091 0.001981
v 0.089209 0.179983 0.003384
v 0.089096 0.179091 0.004461
v 0.088162 0.179983 0.006190
v 0.087763 0.179091 0.007592
v 0.086797 0.179983 0.008995
v 0.086475 0.179091 0.010398
v 0.085549 0.179983 0.011801
v 0.114373 0.178994 -0.005225
v 0.114251 0.179091 -0.003630
v 0.113727 0.179983 -0.002227
v 0.113454 0.179091 -0.000825
v 0.112927 0.179983 0.000253
v 0.112408 0.179091 0.001981
v 0.111648 0.179983 0.003384
v 0.111316 0.179091 0.004461
v 0.110414 0.179983 0.006190
v 0.109807 0.179091 0.007592
v 0.108965 0.179983 0.008995
v 0.108458 0.179091 0.010398
v 0.107650 0.179983 0.011801
v -0.043233 0.177167 -0.009347
v 0.114373 0.177167 -0.019761
v 0.137463 0.177167 -0.007467
v 0.015946 0.177167 -0.017593
v 0.045535 0.177167 -0.022056
v -0.013643 0.177167 -0.012175
v 0.068481 0.177167 -0.023820
v 0.091427 0.177167 -0.023259
v -0.043233 0.177167 -0.006407
v 0.137463 0.177167 -0.006407
v 0.114373 0.177167 -0.006407
v 0.045535 0.177167 -0.006407
v 0.015946 0.177167 -0.006407
v -0.013643 0.177167 -0.006407
v 0.068481 0.177167 -0.006407
v 0.091427 0.177167 -0.006407
v 0.125918 0.177167 -0.016062
v 0.125918 0.177167 -0.006407
v 0.125846 0.178994 -0.005225
v 0.125618 0.179091 -0.003630
v 0.125133 0.179983 -0.002227
v 0.124736 0.179091 -0.000825
v 0.124253 0.179983 0.000253
v 0.123597 0.179091 0.001981
v 0.122868 0.179983 0.003384
v 0.122427 0.179091 0.004461
v 0.121541 0.179983 0.006190
v 0.120830 0.179091 0.007592
v 0.120049 0.179983 0.008995
v 0.119450 0.179091 0.010398
v 0.118700 0.179983 0.011801
v 0.090250 0.174802 -0.020481
v 0.067610 0.174802 -0.020948
v 0.044971 0.174802 -0.019574
v 0.015777 0.174802 -0.016337
v -0.013418 0.174802 -0.011553
v -0.042612 0.174802 -0.008888
v 0.137463 0.174802 -0.007321
v 0.124280 0.174802 -0.014483
v 0.112889 0.174802 -0.017566
v 0.091427 0.177167 -0.017702
v 0.068481 0.177167 -0.018076
v 0.045535 0.177167 -0.016977
v 0.015946 0.177167 -0.014147
v -0.013643 0.177167 -0.010854
v -0.043233 0.177167 -0.008428
v 0.137463 0.177167 -0.007174
v 0.125918 0.177167 -0.012904
v 0.114373 0.177167 -0.015370
v 0.090250 0.174802 -0.014924
v 0.067610 0.174802 -0.015205
v 0.044971 0.174802 -0.014315
v 0.015777 0.174802 -0.012466
v -0.013418 0.174802 -0.010088
v -0.042612 0.174802 -0.007968
v -0.128535 0.174802 -0.007968
v 0.137463 0.174802 -0.007028
v 0.124280 0.174802 -0.011326
v 0.112889 0.174802 -0.013175
v 0.091427 0.177167 -0.012146
v 0.068481 0.177167 -0.012333
v 0.045535 0.177167 -0.011655
v 0.015946 0.177167 -0.010649
v -0.013643 0.177167 -0.009269
v -0.043233 0.177167 -0.007509
v 0.137463 0.177167 -0.006882
v 0.125918 0.177167 -0.009747
v 0.114373 0.177167 -0.010980
v 0.090250 0.174802 -0.009368
v 0.067610 0.174802 -0.009461
v 0.044971 0.174802 -0.009064
v 0.015777 0.174802 -0.008779
v -0.013418 0.174802 -0.008414
v -0.042612 0.174802 -0.007049
v 0.137463 0.174802 -0.006736
v 0.124280 0.174802 -0.008168
v 0.112889 0.174802 -0.008785
vn 0.0719 -0.0000 0.9974
vn -0.0000 -0.0000 1.0000
vn -0.5972 -0.0000 0.8021
vn -0.4463 -0.0000 0.8949
vn 0.1142 0.0005 0.9935
vn 0.1654 0.0001 0.9862
vn 0.1143 0.0005 0.9934
vn 0.1373 -0.0000 0.9905
vn 0.0251 0.0008 0.9997
vn -0.0934 0.0004 0.9956
vn -0.2513 -0.0000 0.9679
vt 2.054477 0.249564
vt 2.000387 0.249564
vt 2.000387 0.000587
vt 2.054477 0.000587
vt 2.166698 0.249564
vt 2.159528 0.249564
vt 2.159528 0.000587
vt 2.166698 0.000587
vt 2.109607 0.249564
vt 2.091230 0.249564
vt 2.091230 0.000587
vt 2.109607 0.000587
vt 2.072854 0.000587
vt 2.072854 0.249564
vt 2.123857 0.000587
vt 2.123857 0.249564
vt 2.138108 0.000587
vt 2.138108 0.249564
vt 2.152358 0.000587
vt 2.152358 0.249564
s 1
usemtl M_BookFront_5_2
f 160/1/1 159/2/2 161/3/2 162/4/1
f 164/5/3 187/6/4 188/7/4 166/8/3
f 168/9/5 167/10/6 169/11/6 170/12/7
f 172/13/8 171/14/8 160/1/1 162/4/1
f 169/11/6 167/10/6 171/14/8 172/13/8
f 174/15/9 173/16/9 168/9/5 170/12/7
f 176/17/10 175/18/10 173/16/9 174/15/9
f 165/19/11 163/20/11 175/18/10 176/17/10
f 188/7/4 187/6/4 163/20/11 165/19/11
