# Blender 4.1.0
# www.blender.org
mtllib LightSwitchDialA_23_LightSwitchDialA_23_1_GeomSubset_1.mtl
o LightSwitchDialA_23_LightSwitchDialA_23_1_GeomSubset_1
v -0.000500 0.015357 0.000000
v 0.000500 0.015357 0.000000
v -0.000500 0.016357 0.000000
v 0.000500 0.016357 0.000000
v -0.000500 0.015357 0.000000
v 0.000500 0.015357 0.000000
v -0.000500 0.016357 0.000000
v 0.000500 0.016357 0.000000
v -0.000500 0.015357 0.000000
v 0.000500 0.015357 0.000000
v -0.000500 0.016357 0.000000
v 0.000500 0.016357 0.000000
v -0.077837 -0.015586 -0.050353
v -0.074483 -0.015976 -0.051268
v -0.074466 -0.017499 -0.049299
v -0.074453 -0.017636 -0.046670
v -0.077828 -0.016795 -0.047015
v -0.079221 -0.014861 -0.048063
v -0.027234 -0.015586 -0.050353
v -0.025851 -0.014861 -0.048063
v -0.027234 -0.016797 -0.047026
v -0.030589 -0.017641 -0.046689
v -0.030591 -0.017501 -0.049304
v -0.030589 -0.015976 -0.051268
v -0.077837 -0.004500 0.057296
v -0.074482 -0.005392 0.057229
v -0.074464 -0.004640 0.059707
v -0.074452 -0.002701 0.061146
v -0.077828 -0.002546 0.060144
v -0.079221 -0.002391 0.057714
v -0.027234 -0.004500 0.057296
v -0.025851 -0.002391 0.057714
v -0.027234 -0.002555 0.060140
v -0.030590 -0.002718 0.061141
v -0.030591 -0.004645 0.059706
v -0.030590 -0.005392 0.057229
v -0.079221 0.015667 0.062873
v -0.077842 0.015977 0.065504
v -0.074512 0.016106 0.066593
v -0.030559 0.016106 0.066593
v -0.027230 0.015977 0.065504
v -0.025851 0.015667 0.062873
v -0.074512 0.000915 -0.062169
v -0.077842 0.001043 -0.061079
v -0.079221 0.001354 -0.058449
v -0.025851 0.001354 -0.058449
v -0.027230 0.001043 -0.061079
v -0.030559 0.000915 -0.062169
v -0.077215 -0.016988 -0.049060
v -0.027850 -0.016988 -0.049064
v -0.077214 -0.004204 0.059321
v -0.027850 -0.004207 0.059319
vn -0.0000 -0.0000 1.0000
vn -0.0205 -0.5719 -0.8201
vn -0.5943 -0.4592 -0.6602
vn -0.5140 -0.4650 -0.7208
vn -0.0191 -0.5422 -0.8400
vn -0.9989 -0.0477 -0.0025
vn -0.9997 -0.0125 -0.0195
vn -0.0193 -0.9934 0.1130
vn -0.0135 -0.9397 -0.3417
vn 0.0134 -0.9400 -0.3410
vn 0.0193 -0.9934 0.1130
vn 0.0205 -0.5719 -0.8200
vn -0.5596 -0.8235 0.0934
vn -0.0191 -0.9925 0.1211
vn -0.5532 -0.8269 0.1013
vn 0.9989 -0.0477 -0.0025
vn 0.5943 -0.4591 -0.6604
vn 0.5140 -0.4650 -0.7208
vn 0.9997 -0.0126 -0.0195
vn 0.0191 -0.5422 -0.8401
vn 0.5545 -0.8260 0.1012
vn 0.5605 -0.8229 0.0933
vn 0.9987 -0.0481 0.0143
vn -0.9987 -0.0483 0.0143
vn -0.0209 -0.3143 0.9491
vn -0.0138 -0.8252 0.5647
vn 0.0137 -0.8247 0.5654
vn 0.0209 -0.3142 0.9491
vn 0.0191 -0.9924 0.1212
vn -0.5991 -0.2508 0.7604
vn -0.5302 -0.2359 0.8144
vn -0.9998 -0.0058 0.0203
vn -0.0198 -0.2782 0.9603
vn 0.6001 -0.2504 0.7597
vn 0.5313 -0.2355 0.8138
vn 0.0198 -0.2782 0.9603
vn 0.9998 -0.0058 0.0202
vn -0.4075 -0.8594 -0.3089
vn 0.4091 -0.8576 -0.3116
vn -0.4137 -0.7499 0.5162
vn 0.4152 -0.7513 0.5131
vt 1.329721 0.783252
vt 1.329721 0.781142
vt 1.331830 0.781142
vt 1.331830 0.783252
vt 0.503402 0.377900
vt 0.496556 0.379768
vt 0.496547 0.357881
vt 0.503341 0.355657
vt 0.416087 0.380921
vt 0.414652 0.385454
vt 0.382557 0.364896
vt 0.383172 0.359690
vt 0.503463 0.387282
vt 0.503437 0.381918
vt 0.592965 0.381908
vt 0.592968 0.387243
vt 0.592968 0.377900
vt 0.496576 0.386579
vt 0.503403 0.599290
vt 0.496556 0.599428
vt 0.429234 0.385461
vt 0.427799 0.380929
vt 0.460712 0.359699
vt 0.461326 0.364905
vt 0.599813 0.379768
vt 0.593029 0.355657
vt 0.599822 0.357881
vt 0.449740 0.593989
vt 0.425402 0.387514
vt 0.453914 0.594815
vt 0.418480 0.387528
vt 0.394144 0.593997
vt 0.389970 0.594823
vt 0.609050 0.449034
vt 0.605140 0.449060
vt 0.605131 0.360615
vt 0.609015 0.360613
vt 0.503439 0.604348
vt 0.592966 0.599290
vt 0.592964 0.604345
vt 0.390276 0.599633
vt 0.353612 0.610242
vt 0.354227 0.605036
vt 0.609363 0.455840
vt 0.646962 0.449156
vt 0.646703 0.455868
vt 0.599813 0.599428
vt 0.599813 0.386557
vt 0.609344 0.353848
vt 0.646703 0.353839
vt 0.646962 0.360551
vt 0.453590 0.599618
vt 0.489654 0.605027
vt 0.490269 0.610233
vt 0.418862 0.383481
vt 0.497827 0.382407
vt 0.598556 0.382398
vt 0.425023 0.383480
vt 0.393558 0.598004
vt 0.497828 0.603559
vt 0.606020 0.454603
vt 0.598556 0.603556
vt 0.450319 0.597993
vt 0.606013 0.355090
s 1
usemtl M_LightSwitchDialA_23_1
f 5/1/1 6/2/1 8/3/1 7/4/1
f 14/5/2 13/6/3 44/7/4 43/8/5
f 13/9/3 18/10/6 45/11/7 44/12/4
f 16/13/8 15/14/9 23/15/10 22/16/11
f 15/14/9 14/5/2 24/17/12 23/15/10
f 17/18/13 16/13/8 26/19/14 25/20/15
f 20/21/16 19/22/17 47/23/18 46/24/19
f 19/25/17 24/17/12 48/26/20 47/27/18
f 31/28/21 21/29/22 20/21/16 32/30/23
f 17/31/13 25/32/15 30/33/24 18/10/6
f 28/34/25 27/35/26 35/36/27 34/37/28
f 27/38/26 26/19/14 36/39/29 35/40/27
f 30/33/24 29/41/30 38/42/31 37/43/32
f 29/44/30 28/34/25 39/45/33 38/46/31
f 31/47/21 36/39/29 22/16/11 21/48/22
f 34/37/28 33/49/34 41/50/35 40/51/36
f 33/52/34 32/30/23 42/53/37 41/54/35
f 22/16/11 36/39/29 26/19/14 16/13/8
f 37/43/32 45/11/7 18/10/6 30/33/24
f 46/24/19 42/53/37 32/30/23 20/21/16
f 28/34/25 34/37/28 40/51/36 39/45/33
f 14/5/2 43/8/5 48/26/20 24/17/12
f 17/31/13 18/10/6 13/9/3 49/55/38
f 13/6/3 14/5/2 15/14/9 49/56/38
f 15/14/9 16/13/8 17/18/13 49/56/38
f 23/15/10 24/17/12 19/25/17 50/57/39
f 19/22/17 20/21/16 21/29/22 50/58/39
f 21/48/22 22/16/11 23/15/10 50/57/39
f 29/41/30 30/33/24 25/32/15 51/59/40
f 25/20/15 26/19/14 27/38/26 51/60/40
f 27/35/26 28/34/25 29/44/30 51/61/40
f 35/40/27 36/39/29 31/47/21 52/62/41
f 31/28/21 32/30/23 33/52/34 52/63/41
f 33/49/34 34/37/28 35/36/27 52/64/41
