# Blender 4.1.0
# www.blender.org
mtllib MeshTvStand_202_0_GeomSubset_1.mtl
o MeshTvStand_202_0_GeomSubset_1
v 0.594117 -0.444783 0.239856
v -0.597250 -0.444783 0.239856
v -0.597250 -0.444795 0.274975
v 0.594117 -0.444795 0.274975
v 0.598246 0.440032 0.240162
v 0.598246 -0.440020 0.239858
v 0.598246 -0.440032 0.274977
v 0.598246 0.440020 0.275281
v 0.594117 0.440019 0.280866
v 0.594117 -0.440035 0.280562
v -0.597250 -0.440035 0.280562
v -0.597250 0.440019 0.280866
v -0.601380 -0.440020 0.239858
v -0.601380 0.440032 0.240162
v -0.601380 0.440020 0.275281
v -0.601380 -0.440032 0.274977
v -0.597250 0.444795 0.240163
v 0.594117 0.444795 0.240163
v 0.594117 0.444783 0.275283
v -0.597250 0.444783 0.275283
v -0.597250 -0.440018 0.234273
v -0.597250 0.440034 0.234577
v 0.594117 -0.440018 0.234273
v 0.594117 0.440034 0.234577
v 0.590697 0.390324 -0.416719
v 0.548639 0.390324 -0.416719
v 0.548639 0.390098 0.237918
v 0.590697 0.390098 0.237918
v 0.593986 0.437161 -0.416703
v 0.593986 0.394116 -0.416718
v 0.593986 0.393890 0.237919
v 0.593986 0.436936 0.237934
v 0.548639 -0.394287 -0.417511
v 0.548639 -0.437333 -0.417526
v 0.590697 -0.437333 -0.417526
v 0.590697 -0.394287 -0.417511
v 0.590697 0.436935 0.238455
v 0.590697 0.393890 0.238440
v 0.548639 0.393890 0.238440
v 0.548639 0.436935 0.238455
v 0.545351 0.394116 -0.416718
v 0.545351 0.437161 -0.416703
v 0.545351 0.436936 0.237934
v 0.545351 0.393890 0.237919
v 0.548639 0.440954 -0.416702
v 0.590697 0.440954 -0.416702
v 0.590697 0.440728 0.237935
v 0.548639 0.440728 0.237935
v 0.569582 -0.390232 -0.383840
v 0.569582 0.391323 -0.383569
v 0.569582 0.391109 0.235984
v 0.569582 -0.390446 0.235714
v 0.593904 0.391323 -0.383569
v 0.593904 0.391109 0.235984
v 0.593904 -0.390232 -0.383840
v 0.593904 -0.390446 0.235714
v 0.590697 -0.441126 -0.417007
v 0.548639 -0.441126 -0.417007
v 0.548639 -0.441352 0.237630
v 0.590697 -0.441352 0.237630
v 0.593986 -0.394287 -0.416990
v 0.593986 -0.437333 -0.417005
v 0.593986 -0.437559 0.237632
v 0.593986 -0.394513 0.237646
v -0.548671 0.394116 -0.416718
v -0.548671 0.393890 0.237919
v -0.548671 0.436936 0.237934
v -0.548671 0.437161 -0.416703
v 0.590697 -0.394514 0.238167
v 0.590697 -0.437559 0.238152
v 0.548639 -0.437559 0.238152
v 0.548639 -0.394514 0.238167
v 0.545351 -0.437333 -0.417005
v 0.545351 -0.394287 -0.416990
v 0.545351 -0.394513 0.237646
v 0.545351 -0.437559 0.237632
v 0.548639 -0.390495 -0.416989
v 0.590697 -0.390495 -0.416989
v 0.590697 -0.390721 0.237648
v 0.548639 -0.390721 0.237648
v -0.594018 0.390324 -0.416719
v -0.594018 0.390098 0.237918
v -0.551959 0.390098 0.237918
v -0.551959 0.390324 -0.416719
v -0.597306 0.437161 -0.416703
v -0.597306 0.436936 0.237934
v -0.597306 0.393890 0.237919
v -0.597306 0.394116 -0.416718
v -0.548671 -0.437333 -0.417005
v -0.548671 -0.437559 0.237632
v -0.548671 -0.394513 0.237646
v -0.548671 -0.394287 -0.416990
v -0.551959 0.437162 -0.417224
v -0.594018 0.437162 -0.417224
v -0.594018 0.394116 -0.417239
v -0.551959 0.394116 -0.417239
v -0.594018 0.436935 0.238455
v -0.551959 0.436935 0.238455
v -0.551959 0.393890 0.238440
v -0.594018 0.393890 0.238440
v -0.551959 0.440954 -0.416702
v -0.551959 0.440728 0.237935
v -0.594018 0.440728 0.237935
v -0.594018 0.440954 -0.416702
v -0.571844 -0.390232 -0.383840
v -0.571844 -0.390446 0.235714
v -0.571844 0.391109 0.235984
v -0.571844 0.391323 -0.383569
v -0.596167 0.391109 0.235984
v -0.596167 0.391323 -0.383569
v -0.596167 -0.390446 0.235714
v -0.596167 -0.390232 -0.383840
v -0.594018 -0.441126 -0.417007
v -0.594018 -0.441352 0.237630
v -0.551959 -0.441352 0.237630
v -0.551959 -0.441126 -0.417007
v -0.597306 -0.394287 -0.416990
v -0.597306 -0.394513 0.237646
v -0.597306 -0.437559 0.237632
v -0.597306 -0.437333 -0.417005
v -0.551959 -0.394287 -0.417511
v -0.594018 -0.394287 -0.417511
v -0.594018 -0.437333 -0.417526
v -0.551959 -0.437333 -0.417526
v -0.594018 -0.394514 0.238167
v -0.551959 -0.394514 0.238167
v -0.551959 -0.437559 0.238152
v -0.594018 -0.437559 0.238152
v -0.551959 -0.390495 -0.416989
v -0.551959 -0.390721 0.237648
v -0.594018 -0.390721 0.237648
v -0.594018 -0.390495 -0.416989
v -0.553446 -0.411250 -0.383847
v 0.550125 -0.411250 -0.383847
v 0.550125 -0.411465 0.235707
v -0.553446 -0.411465 0.235707
v 0.550125 -0.439303 -0.383857
v 0.550125 -0.439518 0.235697
v -0.553446 -0.439303 -0.383857
v -0.553446 -0.439518 0.235697
v -0.553446 0.414263 -0.383562
v -0.553446 0.414049 0.235992
v 0.550126 0.414049 0.235992
v 0.550126 0.414263 -0.383562
v 0.550126 0.442103 0.236002
v 0.550126 0.442317 -0.383552
v -0.553446 0.442103 0.236002
v -0.553446 0.442317 -0.383552
v 0.548639 0.394116 -0.417239
v 0.548639 0.437162 -0.417224
v 0.590697 0.394116 -0.417239
v 0.590697 0.437162 -0.417224
vn -0.0000 -1.0000 -0.0003
vn 1.0000 -0.0000 -0.0000
vn -0.0000 0.0003 -1.0000
vn -0.0000 -0.0003 1.0000
vn -1.0000 -0.0000 -0.0000
vn -0.0000 1.0000 0.0003
vn -0.0000 0.0004 -1.0000
vn -0.0000 -0.0004 1.0000
vn -0.1547 -0.1337 -0.9789
vn -0.1551 -0.1347 0.9787
vn -0.1551 0.1347 -0.9787
vn -0.1551 0.1342 0.9788
vn 0.1551 -0.1342 -0.9787
vn 0.1550 -0.1347 0.9787
vn 0.1550 0.1347 -0.9787
vn 0.1550 0.1342 0.9788
vn -0.1551 -0.1339 -0.9788
vn -0.1554 -0.1350 0.9786
vn -0.1551 0.1339 0.9788
vn 0.1550 -0.1339 -0.9788
vn 0.1547 -0.1347 0.9787
vn 0.1550 0.1345 0.9787
vn 0.1545 -0.1336 -0.9789
vn 0.1546 -0.1337 -0.9789
vn 0.1551 -0.1347 0.9787
vn 0.1551 0.1347 -0.9787
vn 0.1551 0.1342 0.9788
vn -0.1551 -0.1342 -0.9787
vn -0.1550 0.1342 0.9788
vn 0.1548 -0.1345 -0.9787
vn 0.1549 -0.1344 -0.9788
vn 0.1554 -0.1350 0.9786
vn 0.1548 0.1346 0.9787
vn -0.1548 -0.1346 -0.9787
vn -0.1548 -0.1347 0.9787
vn -0.1549 0.1345 0.9787
vn -0.1565 0.0003 -0.9877
vn -0.7555 -0.6551 -0.0002
vn -0.1565 -0.0003 0.9877
vn -0.7555 0.6551 0.0002
vn -0.7556 0.6550 0.0002
vn -0.7553 0.6554 0.0001
vn -0.0000 0.1364 -0.9907
vn -0.0000 0.1358 0.9907
vn 0.7557 0.6549 0.0002
vn 0.7555 0.6551 0.0002
vn 0.7560 0.6546 0.0001
vn 0.1565 0.0003 -0.9877
vn 0.1565 -0.0003 0.9877
vn 0.7557 -0.6550 -0.0002
vn 0.7554 -0.6552 -0.0002
vn -0.0000 -0.1359 -0.9907
vn -0.0000 -0.1364 0.9907
vn -0.7556 -0.6550 -0.0002
vn -0.7551 -0.6556 -0.0001
vn -0.7553 -0.6554 -0.0001
vn -0.1562 -0.0003 0.9877
vn -0.0000 0.1356 0.9908
vn 0.7558 0.6548 0.0001
vn 0.7557 0.6549 0.0001
vn 0.1564 -0.0003 0.9877
vn 0.1562 -0.0003 0.9877
vn 0.7555 -0.6551 -0.0002
vn -0.0000 -0.1356 -0.9908
vn -0.0000 -0.1363 0.9907
vn 0.7556 -0.6551 -0.0002
vn 0.1560 -0.0001 0.9878
vn 0.7556 0.6551 0.0002
vn 0.7556 0.6550 0.0002
vn 0.7556 -0.6550 -0.0002
vn -0.1570 -0.0002 0.9876
vn -0.7554 -0.6553 -0.0002
vt 0.132895 0.048957
vt 0.068013 1.058843
vt 0.068013 0.048957
vt 0.132895 1.058843
vt 0.653237 0.048957
vt 0.586832 1.058843
vt 0.586832 0.048957
vt 0.653237 1.058843
vt 0.068013 0.370588
vt 0.132895 0.304184
vt 0.068013 0.304184
vt 0.132895 0.370588
vt 0.132895 0.653237
vt 0.068013 0.586832
vt 0.132895 0.586832
vt 0.068013 0.653237
vt 0.376862 0.100095
vt 1.582541 1.055860
vt 1.582541 0.100095
vt 0.376862 1.055860
vt 0.100320 0.100095
vt 0.137842 1.055860
vt 0.137842 0.100095
vt 0.100320 1.055860
vt 0.582541 0.100095
vt -0.623137 1.055860
vt -0.623137 0.100095
vt 0.582541 1.055860
vt 0.100320 0.582541
vt 0.137842 -0.623137
vt 0.100320 -0.623137
vt 0.137842 0.582541
vt 0.370588 0.048957
vt 0.304184 1.058843
vt 0.304184 0.048957
vt 0.370588 1.058843
vt 0.305274 0.048957
vt 0.370157 1.058843
vt 0.305274 1.058843
vt 0.370157 0.048957
vt 0.370157 0.653237
vt 0.305274 0.586832
vt 0.305274 0.653237
vt 0.370157 0.586832
vt 0.339481 0.100095
vt 0.301960 1.055860
vt 0.339481 1.055860
vt 0.301960 0.100095
vt 0.339481 0.582541
vt 0.301960 -0.623137
vt 0.301960 0.582541
vt 0.339481 -0.623137
vt 0.370157 0.370588
vt 0.305274 0.304184
vt 0.305274 0.370588
vt 0.370157 0.304184
vt 0.367864 0.100095
vt 2.070306 1.055860
vt 2.070306 0.100095
vt 0.367864 1.055860
vt 0.344438 0.100095
vt 0.301161 1.055860
vt 0.301161 0.100095
vt 0.344438 1.055860
vt 0.070306 0.100095
vt -1.632136 1.055860
vt -1.632136 0.100095
vt 0.070306 1.055860
vt 0.070306 0.344438
vt -1.632136 0.301161
vt -1.632136 0.344438
vt 0.070306 0.301161
vt 0.617930 0.100095
vt 0.661207 1.055860
vt 0.617930 1.055860
vt 0.661207 0.100095
vt 0.070306 0.617930
vt -1.632136 0.661207
vt 0.070306 0.661207
vt -1.632136 0.617930
vt 0.068013 0.580981
vt 0.062940 0.586832
vt 0.062940 0.653237
vt 0.068013 0.659087
vt 0.137968 0.586832
vt 0.132895 0.580981
vt 0.132895 0.659087
vt 0.137968 0.653237
vt 0.068013 0.298333
vt 0.062940 0.304184
vt 0.062940 0.370588
vt 0.068013 0.376439
vt 0.137968 0.304184
vt 0.132895 0.298333
vt 0.132895 0.376439
vt 0.137968 0.370588
vt 0.375229 0.586832
vt 0.370157 0.580981
vt 0.370157 0.659087
vt 0.375229 0.653237
vt 0.305274 0.580981
vt 0.300202 0.586832
vt 0.300202 0.653237
vt 0.305274 0.659087
vt 0.375229 0.304184
vt 0.370157 0.298333
vt 0.370157 0.376439
vt 0.375229 0.370588
vt 0.305274 0.298333
vt 0.300202 0.304184
vt 0.300202 0.370588
vt 0.305274 0.376439
vt 0.580981 0.048957
vt 0.580981 1.058843
vt 0.659087 0.058843
vt 0.653237 -0.951043
vt 0.653237 0.058843
vt 0.659087 -0.951043
vt 0.580981 0.058843
vt 0.586832 -0.951043
vt 0.586832 0.058843
vt 0.580981 -0.951043
vt 0.298333 0.048957
vt 0.298333 1.058843
vt 0.376439 0.058843
vt 0.370588 -0.951043
vt 0.370588 0.058843
vt 0.376439 -0.951043
vt 0.298333 0.058843
vt 0.304184 -0.951043
vt 0.304184 0.058843
vt 0.298333 -0.951043
s 1
usemtl M_TvStand_202_1
f 25/1/1 27/2/1 26/3/1
f 25/1/1 28/4/1 27/2/1
f 29/5/2 31/6/2 30/7/2
f 29/5/2 32/8/2 31/6/2
f 33/9/3 35/10/3 34/11/3
f 33/9/3 36/12/3 35/10/3
f 37/13/4 39/14/4 38/15/4
f 37/13/4 40/16/4 39/14/4
f 41/7/5 43/8/5 42/5/5
f 41/7/5 44/6/5 43/8/5
f 45/3/6 47/4/6 46/1/6
f 45/3/6 48/2/6 47/4/6
f 49/17/5 51/18/5 50/19/5
f 49/17/5 52/20/5 51/18/5
f 50/21/6 54/22/6 53/23/6
f 50/21/6 51/24/6 54/22/6
f 53/25/2 56/26/2 55/27/2
f 53/25/2 54/28/2 56/26/2
f 55/23/1 52/24/1 49/21/1
f 55/23/1 56/22/1 52/24/1
f 50/29/3 55/30/3 49/31/3
f 50/29/3 53/32/3 55/30/3
f 54/32/4 52/31/4 56/30/4
f 54/32/4 51/29/4 52/31/4
f 57/1/1 59/2/1 58/3/1
f 57/1/1 60/4/1 59/2/1
f 61/33/2 63/34/2 62/35/2
f 61/33/2 64/36/2 63/34/2
f 65/7/2 67/8/2 66/6/2
f 65/7/2 68/5/2 67/8/2
f 69/12/4 71/11/4 70/10/4
f 69/12/4 72/9/4 71/11/4
f 73/35/5 75/36/5 74/33/5
f 73/35/5 76/34/5 75/36/5
f 77/3/6 79/4/6 78/1/6
f 77/3/6 80/2/6 79/4/6
f 81/37/1 83/38/1 82/39/1
f 81/37/1 84/40/1 83/38/1
f 85/5/5 87/6/5 86/8/5
f 85/5/5 88/7/5 87/6/5
f 89/35/2 91/36/2 90/34/2
f 89/35/2 92/33/2 91/36/2
f 93/41/3 95/42/3 94/43/3
f 93/41/3 96/44/3 95/42/3
f 97/43/4 99/44/4 98/41/4
f 97/43/4 100/42/4 99/44/4
f 101/40/6 103/39/6 102/38/6
f 101/40/6 104/37/6 103/39/6
f 105/17/2 107/18/2 106/20/2
f 105/17/2 108/19/2 107/18/2
f 108/45/6 109/46/6 107/47/6
f 108/45/6 110/48/6 109/46/6
f 110/25/5 111/26/5 109/28/5
f 110/25/5 112/27/5 111/26/5
f 112/48/1 106/47/1 111/46/1
f 112/48/1 105/45/1 106/47/1
f 108/49/3 112/50/3 110/51/3
f 108/49/3 105/52/3 112/50/3
f 109/51/4 106/52/4 107/49/4
f 109/51/4 111/50/4 106/52/4
f 113/37/1 115/38/1 114/39/1
f 113/37/1 116/40/1 115/38/1
f 117/33/5 119/34/5 118/36/5
f 117/33/5 120/35/5 119/34/5
f 121/53/3 123/54/3 122/55/3
f 121/53/3 124/56/3 123/54/3
f 125/55/4 127/56/4 126/53/4
f 125/55/4 128/54/4 127/56/4
f 129/40/6 131/39/6 130/38/6
f 129/40/6 132/37/6 131/39/6
f 133/57/6 135/58/6 134/59/6
f 133/57/6 136/60/6 135/58/6
f 134/61/2 138/62/2 137/63/2
f 134/61/2 135/64/2 138/62/2
f 137/65/1 140/66/1 139/67/1
f 137/65/1 138/68/1 140/66/1
f 139/63/5 136/64/5 133/61/5
f 139/63/5 140/62/5 136/64/5
f 134/69/7 139/70/7 133/71/7
f 134/69/7 137/72/7 139/70/7
f 138/72/8 136/71/8 140/70/8
f 138/72/8 135/69/8 136/71/8
f 141/57/1 143/58/1 142/60/1
f 141/57/1 144/59/1 143/58/1
f 144/73/2 145/74/2 143/75/2
f 144/73/2 146/76/2 145/74/2
f 146/65/6 147/66/6 145/68/6
f 146/65/6 148/67/6 147/66/6
f 148/76/5 142/75/5 147/74/5
f 148/76/5 141/73/5 142/75/5
f 144/77/7 148/78/7 146/79/7
f 144/77/7 141/80/7 148/78/7
f 145/79/8 142/80/8 143/77/8
f 145/79/8 147/78/8 142/80/8
f 149/14/9 26/81/9 41/82/9
f 27/81/10 39/14/10 44/82/10
f 150/16/11 42/83/11 45/84/11
f 40/16/12 48/84/12 43/83/12
f 151/15/13 30/85/13 25/86/13
f 38/15/14 28/86/14 31/85/14
f 152/13/15 46/87/15 29/88/15
f 37/13/16 32/88/16 47/87/16
f 34/11/17 58/89/17 73/90/17
f 59/89/18 71/11/18 76/90/18
f 33/9/11 74/91/11 77/92/11
f 72/9/19 80/92/19 75/91/19
f 35/10/20 62/93/20 57/94/20
f 70/10/21 60/94/21 63/93/21
f 36/12/15 78/95/15 61/96/15
f 69/12/22 64/96/22 79/95/22
f 96/44/23 65/97/24 84/98/24
f 83/98/25 66/97/25 99/44/25
f 93/41/26 101/99/26 68/100/26
f 98/41/27 67/100/27 102/99/27
f 95/42/28 81/101/28 88/102/28
f 100/42/10 87/102/10 82/101/10
f 94/43/11 85/103/11 104/104/11
f 97/43/29 103/104/29 86/103/29
f 124/56/30 89/105/31 116/106/31
f 115/106/32 90/105/32 127/56/32
f 121/53/26 129/107/26 92/108/26
f 126/53/33 91/108/33 130/107/33
f 123/54/34 113/109/34 120/110/34
f 128/54/35 119/110/35 114/109/35
f 122/55/11 117/111/11 132/112/11
f 125/55/36 131/112/36 118/111/36
f 150/16/37 41/82/37 42/83/37
f 150/16/37 149/14/37 41/82/37
f 26/113/38 44/6/38 41/7/38
f 26/113/38 27/114/38 44/6/38
f 39/14/39 43/83/39 44/82/39
f 39/14/39 40/16/39 43/83/39
f 48/115/40 42/116/41 43/117/40
f 48/115/40 45/118/42 42/116/41
f 152/13/43 45/84/43 46/87/43
f 152/13/43 150/16/43 45/84/43
f 40/16/44 47/87/44 48/84/44
f 40/16/44 37/13/44 47/87/44
f 32/117/45 46/118/46 47/115/47
f 32/117/45 29/116/46 46/118/46
f 151/15/48 29/88/48 30/85/48
f 151/15/48 152/13/48 29/88/48
f 37/13/49 31/85/49 32/88/49
f 37/13/49 38/15/49 31/85/49
f 28/119/50 30/120/50 31/121/51
f 28/119/50 25/122/51 30/120/50
f 149/14/52 25/86/52 26/81/52
f 149/14/52 151/15/52 25/86/52
f 38/15/53 27/81/53 28/86/53
f 38/15/53 39/14/53 27/81/53
f 33/9/37 73/90/37 74/91/37
f 33/9/37 34/11/37 73/90/37
f 58/123/54 76/34/55 73/35/54
f 58/123/54 59/124/56 76/34/55
f 71/11/57 75/91/39 76/90/57
f 71/11/57 72/9/39 75/91/39
f 80/125/40 74/126/40 75/127/40
f 80/125/40 77/128/40 74/126/40
f 36/12/43 77/92/43 78/95/43
f 36/12/43 33/9/43 77/92/43
f 72/9/58 79/95/58 80/92/58
f 72/9/58 69/12/58 79/95/58
f 64/127/59 78/128/59 79/125/60
f 64/127/59 61/126/60 78/128/59
f 35/10/48 61/96/48 62/93/48
f 35/10/48 36/12/48 61/96/48
f 69/12/61 63/93/62 64/96/49
f 69/12/61 70/10/62 63/93/62
f 60/129/63 62/130/63 63/131/63
f 60/129/63 57/132/63 62/130/63
f 34/11/64 57/94/64 58/89/64
f 34/11/64 35/10/64 57/94/64
f 70/10/65 59/89/65 60/94/65
f 70/10/65 71/11/65 59/89/65
f 68/100/48 96/44/48 93/41/48
f 68/100/48 65/97/48 96/44/48
f 65/7/66 83/114/63 84/113/66
f 65/7/66 66/6/63 83/114/63
f 66/97/49 98/41/49 99/44/49
f 66/97/49 67/100/67 98/41/49
f 67/117/68 101/118/69 102/115/68
f 67/117/68 68/116/69 101/118/69
f 104/104/43 93/41/43 94/43/43
f 104/104/43 101/99/43 93/41/43
f 102/99/44 97/43/44 98/41/44
f 102/99/44 103/104/44 97/43/44
f 103/115/40 85/116/41 86/117/40
f 103/115/40 104/118/41 85/116/41
f 88/102/37 94/43/37 95/42/37
f 88/102/37 85/103/37 94/43/37
f 86/103/39 100/42/39 97/43/39
f 86/103/39 87/102/39 100/42/39
f 87/121/38 81/122/38 82/119/38
f 87/121/38 88/120/38 81/122/38
f 84/98/52 95/42/52 96/44/52
f 84/98/52 81/101/52 95/42/52
f 82/101/53 99/44/53 100/42/53
f 82/101/53 83/98/53 99/44/53
f 92/108/48 124/56/48 121/53/48
f 92/108/48 89/105/48 124/56/48
f 89/35/70 115/124/70 116/123/51
f 89/35/70 90/34/70 115/124/70
f 90/105/62 126/53/49 127/56/62
f 90/105/62 91/108/49 126/53/49
f 91/127/68 129/128/46 130/125/68
f 91/127/68 92/126/46 129/128/46
f 132/112/43 121/53/43 122/55/43
f 132/112/43 129/107/43 121/53/43
f 130/107/58 125/55/58 126/53/58
f 130/107/58 131/112/58 125/55/58
f 131/125/40 117/126/40 118/127/40
f 131/125/40 132/128/40 117/126/40
f 120/110/37 122/55/37 123/54/37
f 120/110/37 117/111/37 122/55/37
f 118/111/39 128/54/57 125/55/39
f 118/111/39 119/110/71 128/54/57
f 119/131/54 113/132/72 114/129/54
f 119/131/54 120/130/56 113/132/72
f 116/106/64 123/54/64 124/56/64
f 116/106/64 113/109/64 123/54/64
f 114/109/65 127/56/65 128/54/65
f 114/109/65 115/106/65 127/56/65
f 150/16/3 151/15/3 149/14/3
f 150/16/3 152/13/3 151/15/3
