# Blender 4.1.1
# www.blender.org
mtllib MeshPsShelvingUnit_206_2_2.mtl
o PsShelvingUnit_206_2
v -0.300495 -0.006174 0.760239
v 0.300500 0.251824 0.760242
v -0.300496 0.251821 0.760238
v 0.300501 -0.006171 0.760242
v -0.300498 -0.006174 0.512231
v 0.300494 0.251824 0.512228
v 0.300497 -0.006171 0.512228
v -0.300501 0.251821 0.512233
vn -0.0000 -0.0000 1.0000
vn -0.0000 -0.0000 -1.0000
vn -0.0000 1.0000 -0.0000
vn 1.0000 -0.0000 -0.0000
vn -1.0000 -0.0000 -0.0000
vt -0.309452 4.598315
vt 0.349202 3.118226
vt 0.349202 4.598315
vt -0.309452 3.118226
vt 3.363202 4.461315
vt 2.704548 2.981226
vt 3.363202 2.981226
vt 2.704548 4.461315
vt 2.814935 0.437167
vt 1.334825 -0.162114
vt 2.814925 -0.162097
vt 1.334821 0.437156
vt 3.500201 0.437158
vt 2.841546 0.437158
vt 3.500202 -0.162114
vt 2.841546 -0.162114
vt 3.526547 -0.162099
vt 4.185203 -0.162099
vt 3.526550 0.437165
vt 4.185204 0.437173
s 1
usemtl M_PsShelvingUnit_206_2_0
f 1/1/1 2/2/1 3/3/1
f 1/1/1 4/4/1 2/2/1
f 5/5/2 6/6/2 7/7/2
f 5/5/2 8/8/2 6/6/2
f 3/9/3 6/10/3 8/11/3
f 3/9/3 2/12/3 6/10/3
f 2/13/4 4/14/4 6/15/4
f 4/14/4 7/16/4 6/15/4
f 8/17/5 5/18/5 3/19/5
f 5/18/5 1/20/5 3/19/5
