# Blender 4.1.0
# www.blender.org
mtllib MeshWindowFixed_60X48_0_GeomSubset_0.mtl
o MeshWindowFixed_60X48_0_GeomSubset_0
v -0.762000 -0.040626 0.609723
v -0.762000 -0.040626 -0.609476
v 0.762000 -0.040624 -0.609476
v 0.714612 -0.040624 -0.552313
v -0.714612 -0.040626 -0.552313
v -0.714612 -0.040626 0.552560
v -0.714612 0.040624 0.552560
v -0.714612 0.040624 -0.552313
v 0.714612 0.040626 -0.552313
v 0.762000 0.040626 -0.609476
v -0.762000 0.040624 -0.609476
v -0.762000 0.040624 0.609723
v 0.714612 0.040626 0.552560
v 0.714612 -0.040624 0.552560
v 0.762000 0.040626 0.609723
v 0.762000 -0.040624 0.609723
v 0.714612 0.028626 0.552560
v 0.714612 -0.028624 0.552560
v -0.714612 -0.028626 0.552560
v -0.714612 0.028624 0.552560
v -0.714612 0.028624 -0.552313
v -0.714612 -0.028626 -0.552313
v 0.714612 -0.028624 -0.552313
v 0.714612 0.028626 -0.552313
v 0.689612 0.028626 0.527560
v 0.689612 -0.028624 0.527560
v -0.689612 -0.028626 0.527560
v -0.689612 0.028624 0.527560
v -0.689612 0.028624 -0.527313
v -0.689612 -0.028626 -0.527313
v 0.689612 -0.028624 -0.527313
v 0.689612 0.028626 -0.527313
v 0.689611 0.005013 -0.527313
v -0.689612 0.005011 -0.527313
v 0.689611 0.005013 0.527560
v -0.689612 0.005011 0.527560
v 0.689611 -0.005011 0.527560
v -0.689612 -0.005013 0.527560
v 0.689611 -0.005011 -0.527313
v -0.689612 -0.005013 -0.527313
vn -0.0000 -1.0000 -0.0000
vn -0.0000 1.0000 -0.0000
vn -0.0000 -0.0000 -1.0000
vn -0.0000 -0.0000 1.0000
vn 1.0000 -0.0000 -0.0000
vn -1.0000 -0.0000 -0.0000
vt -6.007292 -2.991521
vt -6.007292 -0.882197
vt -6.089278 -0.981096
vt -6.089277 -2.892624
vt -6.089278 1.179595
vt -6.089278 -0.731934
vt -6.007292 -0.830832
vt -6.007292 1.278494
vt -10.894144 2.038272
vt -10.894144 1.939225
vt -8.507965 1.939225
vt -8.507965 2.038272
vt -8.643948 1.328493
vt -6.007292 1.328493
vt -6.007292 1.469064
vt -8.643948 1.469063
vt -8.671937 -2.725011
vt -10.496961 -2.725011
vt -10.496961 -2.824058
vt -8.671937 -2.824058
vt -8.671937 -2.243261
vt -8.671937 -2.102691
vt -10.781261 -2.102691
vt -10.781261 -2.243261
vt -8.643948 1.278493
vt -8.561961 1.179595
vt -8.643948 -2.991521
vt -8.561961 -2.892624
vt -8.561961 -0.981096
vt -8.643948 -0.882197
vt -10.894145 1.896202
vt -10.894145 1.797155
vt -8.507965 1.797155
vt -8.507965 1.896203
vt -8.643948 1.519824
vt -6.007292 1.519824
vt -6.007292 1.660394
vt -8.643948 1.660394
vt -8.671937 -2.867081
vt -10.496961 -2.867081
vt -10.496961 -2.966128
vt -8.671937 -2.966128
vt -8.671937 -2.426854
vt -8.671937 -2.286283
vt -10.781261 -2.286283
vt -10.781261 -2.426854
vt -8.643948 -0.830832
vt -8.561961 -0.731934
vt -8.479976 1.711157
vt -6.007292 1.711157
vt -6.007292 1.731919
vt -8.479976 1.731919
vt -6.007292 1.800253
vt -8.479976 1.800252
vt -8.479976 1.779490
vt -6.007292 1.779490
vt -8.671937 -2.469875
vt -10.583467 -2.469875
vt -10.583467 -2.490636
vt -8.671937 -2.490636
vt -10.583467 -2.554420
vt -8.671937 -2.554420
vt -8.671937 -2.533659
vt -10.583467 -2.533659
vt -8.479976 1.847823
vt -6.007292 1.847823
vt -6.007292 1.868584
vt -8.479976 1.868584
vt -6.007292 1.936918
vt -8.479976 1.936918
vt -8.479976 1.916156
vt -6.007292 1.916156
vt -8.671937 -2.597443
vt -10.583467 -2.597443
vt -10.583467 -2.618203
vt -8.671937 -2.618203
vt -10.583467 -2.681987
vt -8.671937 -2.681987
vt -8.671937 -2.661227
vt -10.583467 -2.661227
vt -8.479976 1.984490
vt -6.007292 1.984490
vt -6.050544 2.027742
vt -8.436723 2.027742
vt -8.507965 3.992825
vt -10.980649 3.992825
vt -10.937397 3.949571
vt -8.551217 3.949571
vt -8.507965 2.081294
vt -8.551217 2.124547
vt -6.007292 3.896019
vt -6.050545 3.852767
vt -10.980649 2.081294
vt -10.937397 2.124547
vt -8.479976 3.896019
vt -8.436723 3.852767
s 1
usemtl M_WindowFixed_60X48_0
f 1/1/1 2/2/1 5/3/1 6/4/1
f 7/5/2 8/6/2 11/7/2 12/8/2
f 25/9/3 26/10/3 27/11/3 28/12/3
f 15/13/4 12/14/4 1/15/4 16/16/4
f 29/17/5 28/18/5 27/19/5 30/20/5
f 11/21/6 2/22/6 1/23/6 12/24/6
f 15/25/2 13/26/2 7/5/2 12/8/2
f 16/27/1 14/28/1 4/29/1 3/30/1
f 31/31/4 32/32/4 29/33/4 30/34/4
f 3/35/3 2/36/3 11/37/3 10/38/3
f 31/39/6 26/40/6 25/41/6 32/42/6
f 3/43/5 10/44/5 15/45/5 16/46/5
f 10/47/2 9/48/2 13/26/2 15/25/2
f 16/27/1 1/1/1 6/4/1 14/28/1
f 11/7/2 8/6/2 9/48/2 10/47/2
f 5/3/1 2/2/1 3/30/1 4/29/1
f 14/49/3 6/50/3 19/51/3 18/52/3
f 7/53/3 13/54/3 17/55/3 20/56/3
f 8/57/5 7/58/5 20/59/5 21/60/5
f 6/61/5 5/62/5 22/63/5 19/64/5
f 9/65/4 8/66/4 21/67/4 24/68/4
f 5/69/4 4/70/4 23/71/4 22/72/4
f 4/73/6 14/74/6 18/75/6 23/76/6
f 13/77/6 9/78/6 24/79/6 17/80/6
f 18/81/1 19/82/1 27/83/1 26/84/1
f 20/85/2 17/86/2 25/87/2 28/88/2
f 21/89/2 20/85/2 28/88/2 29/90/2
f 19/82/1 22/91/1 30/92/1 27/83/1
f 24/93/2 21/89/2 29/90/2 32/94/2
f 22/91/1 23/95/1 31/96/1 30/92/1
f 23/95/1 18/81/1 26/84/1 31/96/1
f 17/86/2 24/93/2 32/94/2 25/87/2
