# Blender 4.1.0
# www.blender.org
mtllib MeshDoorway_2_2.mtl
o Doorway_2
v -0.458028 0.080984 0.994575
v 0.458504 0.080984 0.994575
v 0.499440 0.080984 1.035511
v -0.498964 0.080984 1.035511
v 0.499440 -0.074076 1.035511
v -0.498964 -0.074076 1.035511
v 0.458504 -0.074076 0.994575
v -0.458028 -0.074076 0.994575
v -0.498964 0.080984 -1.037016
v -0.458028 0.080984 -1.037016
v -0.458028 -0.074076 -1.037016
v -0.498964 -0.074076 -1.037016
v 0.499440 -0.074076 -1.037016
v 0.458504 -0.074076 -1.037016
v 0.458504 0.080984 -1.037016
v 0.499440 0.080984 -1.037016
vn -0.0000 1.0000 -0.0000
vn -0.0000 -0.0000 1.0000
vn -0.0000 -0.0000 -1.0000
vn -0.0000 -1.0000 -0.0000
vn 1.0000 -0.0000 -0.0000
vn -1.0000 -0.0000 -0.0000
vt -10.619390 1.949754
vt -10.555428 1.885791
vt -9.123346 1.885791
vt -9.059383 1.949754
vt -8.978907 0.939940
vt -9.221188 0.939940
vt -9.221188 -0.620063
vt -8.978907 -0.620063
vt -8.922386 -0.569108
vt -8.922386 0.862971
vt -9.164669 0.862971
vt -9.164669 -0.569108
vt -10.231708 -1.224614
vt -10.295670 -1.288576
vt -8.735662 -1.288576
vt -8.799623 -1.224614
vt -9.123346 -1.288573
vt -9.059383 -1.288573
vt -9.334227 1.911266
vt -9.334227 -1.263092
vt -9.091946 -1.263092
vt -9.091946 1.911266
vt -8.735662 1.949757
vt -8.799623 1.949757
vt -9.447268 1.949750
vt -9.447268 -1.288569
vt -9.204985 -1.288569
vt -9.204985 1.949750
vt -10.231708 1.949757
vt -10.295670 1.949757
vt -9.277708 1.911265
vt -9.277708 -1.263093
vt -9.035425 -1.263093
vt -9.035425 1.911265
vt -10.619390 -1.288573
vt -10.555428 -1.288573
vt -9.390747 1.949751
vt -9.390747 -1.288571
vt -9.148464 -1.288571
vt -9.148464 1.949751
vt -8.976515 0.200031
vt -8.976515 0.442314
vt -9.040477 0.442314
vt -9.040477 0.200031
vt -9.059620 0.442312
vt -9.059620 0.200032
vt -8.995657 0.200032
vt -8.995657 0.442312
s 1
usemtl M_Doorway_2_0
f 3/1/1 2/2/1 1/3/1 4/4/1
f 5/5/2 3/6/2 4/7/2 6/8/2
f 1/9/3 2/10/3 7/11/3 8/12/3
f 7/13/4 5/14/4 6/15/4 8/16/4
f 1/3/1 10/17/1 9/18/1 4/4/1
f 8/19/5 11/20/5 10/21/5 1/22/5
f 6/15/4 12/23/4 11/24/4 8/16/4
f 4/25/6 9/26/6 12/27/6 6/28/6
f 7/13/4 14/29/4 13/30/4 5/14/4
f 2/31/6 15/32/6 14/33/6 7/34/6
f 3/1/1 16/35/1 15/36/1 2/2/1
f 5/37/5 13/38/5 16/39/5 3/40/5
f 12/41/3 9/42/3 10/43/3 11/44/3
f 16/45/3 13/46/3 14/47/3 15/48/3
