# Blender 4.1.0
# www.blender.org
mtllib DressermeshDresser_224_0.mtl
o Dresser_224
v 0.963283 0.369178 0.354159
v 0.963283 0.369178 0.362024
v -0.963283 0.369174 0.362024
v -0.963283 0.369174 0.354159
v -0.963283 -0.351681 0.354159
v -0.963283 -0.351681 0.362024
v 0.963283 -0.351674 0.362024
v 0.963283 -0.351674 0.354159
v 0.969592 -0.344262 0.354159
v 0.969592 -0.344262 0.362024
v 0.969591 0.361766 0.362024
v 0.969592 0.361766 0.354159
v -0.963283 -0.344269 0.369938
v -0.963283 0.361766 0.369938
v 0.963283 0.361766 0.369938
v 0.963283 -0.344262 0.369938
v -0.969591 0.361766 0.354159
v -0.969591 0.361766 0.362024
v -0.969591 -0.344269 0.362024
v -0.969591 -0.344269 0.354159
v 0.963283 0.361766 0.346245
v -0.963283 0.361766 0.346245
v 0.963283 -0.344262 0.346245
v -0.963283 -0.344269 0.346245
v 0.952554 0.346397 0.094618
v 0.952554 -0.318635 0.094618
v 0.952554 -0.318635 0.346528
v 0.952554 0.346397 0.346528
v 0.952554 0.346397 -0.157292
v 0.952554 -0.318635 -0.157292
v 0.952554 0.346397 -0.409202
v 0.952554 -0.318635 -0.409202
v 0.952554 0.346397 -0.518972
v 0.952554 -0.318635 -0.518972
v 0.483476 -0.318635 -0.167427
v 0.483476 0.241924 -0.167427
v 0.483476 0.241924 -0.399066
v 0.483476 -0.318635 -0.399066
v 0.475572 0.346397 0.094618
v 0.475572 0.346397 0.346528
v -0.001409 0.346397 0.094618
v -0.001409 0.346393 0.346528
v -0.001409 0.346397 -0.157292
v 0.475572 0.346397 -0.157292
v -0.001409 0.346393 -0.409202
v 0.475572 0.346397 -0.409202
v -0.001409 0.346393 -0.518972
v 0.475572 0.346397 -0.518972
v 0.475572 -0.318635 -0.518972
v -0.001409 -0.318638 -0.518972
v 0.475572 -0.327920 -0.518972
v 0.960459 -0.327920 -0.518972
v -0.009315 -0.327920 -0.518972
v -0.009316 0.355682 -0.518972
v 0.475572 -0.318635 0.346528
v -0.001409 -0.318638 0.346528
v -0.001409 -0.318638 -0.409202
v 0.475572 -0.318635 -0.409202
v 0.467668 -0.318638 -0.399066
v 0.006493 -0.318635 -0.399066
v -0.001409 -0.318638 -0.157292
v 0.006493 -0.318635 -0.167427
v 0.467668 -0.318638 -0.167427
v 0.475572 -0.318635 -0.157292
v 0.467668 -0.318638 -0.147156
v 0.467668 -0.318638 0.084483
v 0.475572 -0.318635 0.094618
v 0.006493 -0.318635 -0.147156
v -0.001409 -0.318638 0.094618
v 0.006493 -0.318635 0.084483
v 0.467668 -0.318638 0.104754
v 0.467668 -0.318638 0.336393
v 0.006493 -0.318635 0.336393
v 0.006493 -0.318635 0.104754
v 0.483476 -0.318635 0.104754
v 0.483476 -0.318635 0.336393
v 0.944650 -0.318638 0.336393
v 0.944650 -0.318638 0.104754
v 0.483476 -0.318635 0.084483
v 0.483476 -0.318635 -0.147156
v 0.944650 -0.318638 -0.147156
v 0.944650 -0.318638 0.084483
v 0.944650 -0.318638 -0.399066
v 0.944650 -0.318638 -0.167427
v 0.483476 0.241924 0.104754
v 0.944650 0.241920 0.104754
v 0.475572 0.355682 -0.518972
v 0.960460 0.355682 -0.518972
v 0.960459 0.355682 -0.409202
v 0.475572 0.355682 -0.409202
v -0.009316 0.355682 -0.409202
v 0.960460 -0.327920 -0.409202
v -0.009315 -0.327920 -0.409202
v 0.475572 -0.327920 -0.409202
v 0.483476 0.241924 -0.147156
v 0.944650 0.241920 -0.147156
v 0.006493 0.241924 0.104754
v 0.467668 0.241920 0.104754
v 0.944650 0.241920 -0.399066
v 0.483476 0.241924 0.336393
v 0.006493 0.241924 0.336393
v 0.467668 0.241920 0.336393
v 0.944650 0.241920 0.336393
v 0.944650 0.241920 -0.167427
v 0.483476 0.241924 0.084483
v 0.944650 0.241920 0.084483
v 0.467668 0.241920 -0.399066
v 0.006493 0.241924 -0.399066
v 0.006493 0.241924 -0.167427
v 0.467668 0.241920 -0.167427
v 0.467668 0.241920 -0.147156
v 0.006493 0.241924 -0.147156
v 0.006493 0.241924 0.084483
v 0.467668 0.241920 0.084483
v -0.470488 -0.318635 -0.167427
v -0.470488 0.241924 -0.167427
v -0.470488 0.241924 -0.399066
v -0.470488 -0.318635 -0.399066
v -0.955375 -0.318638 0.094618
v -0.955375 0.346397 0.094618
v -0.955375 0.346397 0.346528
v -0.955375 -0.318638 0.346528
v -0.955375 -0.318638 -0.157292
v -0.955375 0.346397 -0.157292
v -0.955375 -0.318638 -0.409202
v -0.955375 0.346397 -0.409202
v -0.955375 -0.318638 -0.518972
v -0.955375 0.346397 -0.518972
v -0.478392 0.346397 0.094618
v -0.478392 0.346397 0.346528
v -0.478392 0.346397 -0.157292
v -0.478392 0.346397 -0.409202
v -0.478392 0.346397 -0.518972
v -0.478392 -0.318638 -0.518972
v -0.478392 -0.327920 -0.518972
v 0.006495 -0.327920 -0.518972
v -0.963279 -0.327923 -0.518972
v -0.963279 0.355678 -0.518972
v -0.478392 -0.318638 0.346528
v -0.478392 -0.318638 -0.409202
v -0.486296 -0.318638 -0.399066
v -0.947471 -0.318635 -0.399066
v -0.947471 -0.318635 -0.167427
v -0.486296 -0.318638 -0.167427
v -0.478392 -0.318638 -0.157292
v -0.486296 -0.318638 -0.147156
v -0.486296 -0.318638 0.084483
v -0.478392 -0.318638 0.094618
v -0.947470 -0.318635 -0.147156
v -0.947471 -0.318635 0.084483
v -0.486296 -0.318638 0.104754
v -0.486296 -0.318638 0.336393
v -0.947471 -0.318635 0.336393
v -0.947471 -0.318635 0.104754
v -0.470488 -0.318635 0.104754
v -0.470488 -0.318635 0.336393
v -0.009313 -0.318638 0.336393
v -0.009313 -0.318638 0.104754
v -0.470488 -0.318635 0.084483
v -0.470488 -0.318635 -0.147156
v -0.009313 -0.318638 -0.147156
v -0.009313 -0.318638 0.084483
v -0.009313 -0.318638 -0.399066
v -0.009313 -0.318638 -0.167427
v -0.470488 0.241924 0.104754
v -0.009313 0.241920 0.104754
v -0.478392 0.355678 -0.518972
v 0.006495 0.355678 -0.518972
v 0.006495 0.355678 -0.409202
v -0.478392 0.355678 -0.409202
v -0.963279 0.355678 -0.409202
v 0.006495 -0.327920 -0.409202
v -0.963279 -0.327923 -0.409202
v -0.478392 -0.327920 -0.409202
v -0.470488 0.241924 -0.147156
v -0.009313 0.241920 -0.147156
v -0.947471 0.241924 0.104754
v -0.486296 0.241920 0.104754
v -0.009313 0.241920 -0.399066
v -0.470488 0.241924 0.336393
v -0.947471 0.241924 0.336393
v -0.486296 0.241920 0.336393
v -0.009313 0.241920 0.336393
v -0.009313 0.241920 -0.167427
v -0.470488 0.241924 0.084483
v -0.009313 0.241920 0.084483
v -0.486296 0.241920 -0.399066
v -0.947471 0.241924 -0.399066
v -0.947471 0.241924 -0.167427
v -0.486296 0.241920 -0.167427
v -0.486296 0.241920 -0.147156
v -0.947471 0.241924 -0.147156
v -0.947471 0.241924 0.084483
v -0.486296 0.241920 0.084483
vn -0.0000 1.0000 -0.0000
vn -0.0000 -1.0000 -0.0000
vn 1.0000 -0.0000 -0.0000
vn 1.0000 -0.0000 0.0001
vn -0.0000 -0.0000 1.0000
vn -1.0000 -0.0000 -0.0000
vn 0.6509 0.5541 -0.5189
vn -0.6510 0.5540 -0.5190
vn 0.6510 -0.5541 -0.5189
vn -0.6511 -0.5542 -0.5186
vn 0.6507 0.5538 0.5194
vn 0.6510 -0.5541 0.5189
vn -0.6509 0.5543 0.5188
vn -0.6510 -0.5541 0.5189
vn 0.7819 -0.0000 -0.6234
vn 0.7820 -0.0000 -0.6233
vn -0.0000 0.7297 -0.6837
vn -0.0000 0.7303 -0.6831
vn -0.0000 -0.7299 -0.6836
vn -0.7820 -0.0000 -0.6233
vn 0.7820 -0.0000 0.6233
vn -0.0000 0.7305 0.6829
vn -0.0000 0.7299 0.6836
vn -0.0000 -0.7299 0.6836
vn -0.7820 -0.0000 0.6233
vn -0.7615 -0.6481 -0.0000
vn -0.7613 0.6483 -0.0000
vn 0.7615 0.6481 -0.0000
vn 0.7615 0.6482 -0.0000
vn 0.7615 -0.6482 -0.0000
vn -0.0000 -0.0000 -1.0000
vn -0.0000 -1.0000 0.0012
vn -0.0000 -1.0000 -0.0009
vn -0.0001 -1.0000 -0.0000
vn -0.0000 -1.0000 -0.0004
vn -0.0000 -1.0000 0.0004
vn 0.0001 -1.0000 -0.0000
vn -0.0000 -1.0000 -0.0001
vn -0.0000 -1.0000 0.0005
vn -0.0000 -1.0000 -0.0002
vn -0.0000 -1.0000 0.0007
vn -0.0000 -1.0000 -0.0007
vn -0.0000 -1.0000 0.0008
vt 0.175511 0.741751
vt 1.154479 0.761583
vt 0.175511 0.761583
vt 1.154479 0.741751
vt 0.154479 0.741751
vt -0.824489 0.761583
vt 0.154479 0.761583
vt -0.824489 0.741751
vt 0.129106 0.741751
vt -0.251060 0.761583
vt 0.129106 0.761583
vt -0.251060 0.741751
vt 0.154479 0.129106
vt -0.824489 -0.251060
vt 0.154479 -0.251060
vt -0.824489 0.129106
vt 0.748940 0.741751
vt 1.129106 0.761583
vt 0.748940 0.761583
vt 1.129106 0.741751
vt 0.748940 0.737761
vt 0.744950 0.741751
vt 0.133097 0.741751
vt 0.129106 0.737761
vt 0.744950 0.761583
vt 0.748940 0.765574
vt 0.129106 0.765574
vt 0.133097 0.761583
vt 1.129106 0.737761
vt 0.154479 0.744950
vt -0.824489 0.748940
vt 0.154479 0.748940
vt -0.824489 0.744950
vt 0.175511 0.133097
vt 1.154479 0.129106
vt 0.175511 0.129106
vt 1.154479 0.133097
vt -0.251060 0.737761
vt 1.129106 0.765574
vt -0.251060 0.765574
vt 0.759979 0.613491
vt 1.118067 0.737761
vt 1.118067 0.613491
vt 0.759979 0.737761
vt 0.759979 0.489222
vt 1.118067 0.489222
vt 0.759979 0.364953
vt 1.118067 0.364953
vt 0.759979 0.310802
vt 1.118067 0.310802
vt 0.118067 0.484222
vt -0.183767 0.369953
vt -0.183767 0.484222
vt 0.118067 0.369953
vt 0.386320 0.613491
vt 0.180475 0.737761
vt 0.180475 0.613491
vt 0.386320 0.737761
vt 0.592165 0.613491
vt 0.592165 0.737761
vt 0.592165 0.489222
vt 0.386320 0.489222
vt 0.592165 0.364953
vt 0.386320 0.364953
vt 0.592165 0.310802
vt 0.386320 0.310802
vt 0.180475 0.364953
vt 0.180475 0.310802
vt 0.180475 0.489222
vt 0.386320 0.118067
vt 0.592165 -0.240021
vt 0.386320 -0.240021
vt 0.592165 0.118067
vt 0.180475 0.118067
vt 0.180475 -0.240021
vt 0.386320 0.123067
vt 0.177064 0.123067
vt 0.595576 0.123067
vt 0.595576 -0.245021
vt 0.389731 0.369953
vt 0.588754 0.369953
vt 0.588754 0.484222
vt 0.389731 0.484222
vt 0.389731 0.494222
vt 0.389731 0.608491
vt 0.588754 0.494222
vt 0.588754 0.608491
vt 0.389731 0.618491
vt 0.389731 0.732761
vt 0.588754 0.732761
vt 0.588754 0.618491
vt 0.382909 0.618491
vt 0.382909 0.732761
vt 0.183886 0.732761
vt 0.180475 0.613491
vt 0.183886 0.618491
vt 0.382909 0.608491
vt 0.382909 0.494222
vt 0.183886 0.494222
vt 0.183886 0.608491
vt 0.382909 0.484222
vt 0.382909 0.369953
vt 0.183886 0.369953
vt 0.183886 0.484222
vt 0.382909 0.118067
vt 0.183886 -0.183767
vt 0.382909 -0.183767
vt 0.183886 0.118067
vt 0.177064 0.364953
vt 0.177064 0.310802
vt 0.595576 0.310802
vt 0.595576 0.364953
vt 0.754979 0.310802
vt 1.123067 0.364953
vt 1.123067 0.310802
vt 0.754979 0.364953
vt 0.123067 0.310802
vt -0.245021 0.364953
vt -0.245021 0.310802
vt 0.123067 0.364953
vt 0.177064 -0.245021
vt 0.386320 0.759979
vt 0.177064 0.754979
vt 0.180475 0.759979
vt 0.386320 0.754979
vt 0.592165 0.759979
vt 0.595576 0.754979
vt 0.177064 1.123067
vt 0.180475 1.118067
vt 0.595576 1.123067
vt 0.592165 1.118067
vt 0.588754 0.118067
vt 0.389731 -0.183767
vt 0.588754 -0.183767
vt 0.389731 0.118067
vt 0.118067 0.732761
vt -0.183767 0.618491
vt -0.183767 0.732761
vt 0.118067 0.618491
vt 0.118067 0.608491
vt -0.183767 0.494222
vt -0.183767 0.608491
vt 0.118067 0.494222
vt 0.118067 0.613491
vt -0.240021 0.737761
vt -0.240021 0.613491
vt 0.118067 0.737761
vt 0.118067 0.489222
vt -0.240021 0.489222
vt 0.118067 0.364953
vt -0.240021 0.364953
vt 0.118067 0.310802
vt -0.240021 0.310802
s 1
usemtl M_Dresser_224_0
f 1/1/1 3/2/1 2/3/1
f 1/1/1 4/4/1 3/2/1
f 5/5/2 7/6/2 6/7/2
f 5/5/2 8/8/2 7/6/2
f 9/9/3 11/10/3 10/11/3
f 9/9/4 12/12/4 11/10/4
f 13/13/5 15/14/5 14/15/5
f 13/13/5 16/16/5 15/14/5
f 17/17/6 19/18/6 18/19/6
f 17/17/6 20/20/6 19/18/6
f 12/17/7 21/21/7 1/22/7
f 4/22/8 22/21/8 17/17/8
f 9/9/9 8/23/9 23/24/9
f 5/23/10 20/9/10 24/24/10
f 11/19/11 2/25/11 15/26/11
f 10/11/12 16/27/12 7/28/12
f 3/25/13 18/19/13 14/26/13
f 6/28/14 13/27/14 19/11/14
f 12/17/15 23/29/15 21/21/15
f 12/17/16 9/20/16 23/29/16
f 4/30/17 21/31/17 22/32/17
f 4/30/18 1/33/18 21/31/18
f 8/34/19 24/35/19 23/36/19
f 8/34/19 5/37/19 24/35/19
f 20/9/20 22/38/20 24/24/20
f 20/9/20 17/12/20 22/38/20
f 15/26/21 10/18/21 11/19/21
f 15/26/21 16/39/21 10/18/21
f 14/32/22 2/33/22 3/30/22
f 14/32/23 15/31/23 2/33/23
f 16/36/24 6/37/24 7/34/24
f 16/36/24 13/35/24 6/37/24
f 13/27/25 18/10/25 19/11/25
f 13/27/25 14/40/25 18/10/25
f 5/23/26 19/11/26 20/9/26
f 5/23/26 6/28/26 19/11/26
f 3/25/27 17/17/27 18/19/27
f 3/25/27 4/22/27 17/17/27
f 11/19/28 1/22/28 2/25/28
f 11/19/29 12/17/29 1/22/29
f 9/9/30 7/28/30 8/23/30
f 9/9/30 10/11/30 7/28/30
f 24/13/31 21/14/31 23/16/31
f 24/13/31 22/15/31 21/14/31
f 25/41/3 27/42/3 26/43/3
f 25/41/3 28/44/3 27/42/3
f 29/45/3 25/41/3 26/43/3
f 29/45/3 26/43/3 30/46/3
f 31/47/3 29/45/3 30/46/3
f 31/47/3 30/46/3 32/48/3
f 33/49/3 31/47/3 32/48/3
f 33/49/3 32/48/3 34/50/3
f 35/51/3 37/52/3 36/53/3
f 35/51/3 38/54/3 37/52/3
f 39/55/1 28/56/1 25/57/1
f 39/55/1 40/58/1 28/56/1
f 41/59/1 40/58/1 39/55/1
f 41/59/1 42/60/1 40/58/1
f 43/61/1 41/59/1 39/55/1
f 43/61/1 39/55/1 44/62/1
f 44/62/1 39/55/1 25/57/1
f 45/63/1 43/61/1 44/62/1
f 45/63/1 44/62/1 46/64/1
f 47/65/1 45/63/1 46/64/1
f 47/65/1 46/64/1 48/66/1
f 48/66/1 46/64/1 31/67/1
f 48/66/1 31/67/1 33/68/1
f 46/64/1 29/69/1 31/67/1
f 46/64/1 44/62/1 29/69/1
f 44/62/1 25/57/1 29/69/1
f 49/70/31 47/71/31 48/72/31
f 49/70/31 50/73/31 47/71/31
f 34/74/31 49/70/31 48/72/31
f 34/74/31 48/72/31 33/75/31
f 34/74/31 51/76/31 49/70/31
f 34/74/31 52/77/31 51/76/31
f 49/70/31 53/78/31 50/73/31
f 49/70/31 51/76/31 53/78/31
f 50/73/31 54/79/31 47/71/31
f 50/73/31 53/78/31 54/79/31
f 55/70/5 28/75/5 40/72/5
f 55/70/5 27/74/5 28/75/5
f 56/73/5 55/70/5 40/72/5
f 56/73/5 40/72/5 42/71/5
f 49/66/2 57/63/2 50/65/2
f 49/66/2 58/64/2 57/63/2
f 34/68/2 58/64/2 49/66/2
f 34/68/2 32/67/2 58/64/2
f 59/80/32 57/63/32 58/64/32
f 59/80/33 60/81/33 57/63/33
f 60/81/2 61/61/2 57/63/2
f 60/81/34 62/82/34 61/61/34
f 63/83/2 59/80/2 58/64/2
f 63/83/2 58/64/2 64/62/2
f 62/82/35 64/62/35 61/61/35
f 62/82/36 63/83/36 64/62/36
f 65/84/32 61/61/32 64/62/32
f 66/85/37 65/84/37 64/62/37
f 66/85/2 64/62/2 67/55/2
f 65/84/33 68/86/33 61/61/33
f 68/86/2 69/59/2 61/61/2
f 68/86/34 70/87/34 69/59/34
f 70/87/35 67/55/35 69/59/35
f 70/87/36 66/85/36 67/55/36
f 71/88/32 69/59/32 67/55/32
f 72/89/37 71/88/37 67/55/37
f 72/89/2 67/55/2 55/58/2
f 73/90/36 72/89/36 55/58/36
f 73/90/35 55/58/35 56/60/35
f 74/91/2 56/60/2 69/59/2
f 74/91/34 73/90/34 56/60/34
f 71/88/33 74/91/33 69/59/33
f 75/92/2 55/58/2 67/55/2
f 75/92/2 76/93/2 55/58/2
f 76/93/2 27/56/2 55/58/2
f 76/93/38 77/94/38 27/56/38
f 77/94/2 26/95/2 27/56/2
f 77/94/2 78/96/2 26/95/2
f 78/96/35 67/55/35 26/95/35
f 78/96/39 75/92/39 67/55/39
f 79/97/2 26/95/2 67/55/2
f 80/98/2 79/97/2 67/55/2
f 80/98/2 67/55/2 64/62/2
f 81/99/39 80/98/39 64/62/39
f 81/99/35 64/62/35 30/69/35
f 82/100/2 30/69/2 26/95/2
f 82/100/37 81/99/37 30/69/37
f 79/97/38 82/100/38 26/95/38
f 35/101/2 30/69/2 64/62/2
f 38/102/2 35/101/2 64/62/2
f 38/102/2 64/62/2 58/64/2
f 83/103/39 38/102/39 58/64/39
f 83/103/35 58/64/35 32/67/35
f 84/104/2 32/67/2 30/69/2
f 84/104/2 83/103/2 32/67/2
f 35/101/38 84/104/38 30/69/38
f 75/105/5 86/106/5 85/107/5
f 75/105/5 78/108/5 86/106/5
f 87/66/1 89/109/1 88/110/1
f 87/66/1 90/64/1 89/109/1
f 54/111/1 90/64/1 87/66/1
f 54/111/1 91/112/1 90/64/1
f 88/113/3 92/114/3 52/115/3
f 88/113/3 89/116/3 92/114/3
f 51/66/2 93/112/2 53/111/2
f 51/66/2 94/64/2 93/112/2
f 52/110/2 94/64/2 51/66/2
f 52/110/2 92/109/2 94/64/2
f 53/117/6 91/118/6 54/119/6
f 53/117/6 93/120/6 91/118/6
f 58/70/5 92/77/5 32/74/5
f 58/70/5 94/76/5 92/77/5
f 57/73/5 94/76/5 58/70/5
f 57/73/5 93/78/5 94/76/5
f 32/74/5 92/77/5 89/121/5
f 32/74/5 89/121/5 31/75/5
f 48/122/31 88/123/31 33/124/31
f 48/122/31 87/125/31 88/123/31
f 47/126/31 87/125/31 48/122/31
f 47/126/31 54/127/31 87/125/31
f 33/124/31 88/123/31 52/128/31
f 33/124/31 52/128/31 34/129/31
f 45/126/5 93/130/5 57/131/5
f 45/126/5 91/127/5 93/130/5
f 46/122/5 91/127/5 45/126/5
f 46/122/5 90/125/5 91/127/5
f 31/124/5 90/125/5 46/122/5
f 31/124/5 89/123/5 90/125/5
f 80/105/5 96/106/5 95/107/5
f 80/105/5 81/108/5 96/106/5
f 74/132/5 98/133/5 97/134/5
f 74/132/5 71/135/5 98/133/5
f 38/105/5 99/106/5 37/107/5
f 38/105/5 83/108/5 99/106/5
f 76/136/3 85/137/3 100/138/3
f 76/136/3 75/139/3 85/137/3
f 98/88/2 101/90/2 97/91/2
f 98/88/2 102/89/2 101/90/2
f 86/96/2 100/93/2 85/92/2
f 86/96/2 103/94/2 100/93/2
f 99/103/2 36/101/2 37/102/2
f 99/103/2 104/104/2 36/101/2
f 96/99/2 105/97/2 95/98/2
f 96/99/2 106/100/2 105/97/2
f 107/80/2 109/82/2 108/81/2
f 107/80/2 110/83/2 109/82/2
f 111/84/2 113/87/2 112/86/2
f 111/84/2 114/85/2 113/87/2
f 82/108/31 105/107/31 106/106/31
f 82/108/31 79/105/31 105/107/31
f 84/108/31 36/107/31 104/106/31
f 84/108/31 35/105/31 36/107/31
f 60/132/5 107/133/5 108/134/5
f 60/132/5 59/135/5 107/133/5
f 70/140/3 112/141/3 113/142/3
f 70/140/3 68/143/3 112/141/3
f 62/51/3 108/52/3 109/53/3
f 62/51/3 60/54/3 108/52/3
f 72/135/31 101/134/31 102/133/31
f 72/135/31 73/132/31 101/134/31
f 65/143/6 114/142/6 111/141/6
f 65/143/6 66/140/6 114/142/6
f 77/108/31 100/107/31 103/106/31
f 77/108/31 76/105/31 100/107/31
f 59/54/6 110/53/6 107/52/6
f 59/54/6 63/51/6 110/53/6
f 73/136/3 97/137/3 101/138/3
f 73/136/3 74/139/3 97/137/3
f 81/143/6 106/142/6 96/141/6
f 81/143/6 82/140/6 106/142/6
f 68/132/5 111/133/5 112/134/5
f 68/132/5 65/135/5 111/133/5
f 78/139/6 103/138/6 86/137/6
f 78/139/6 77/136/6 103/138/6
f 83/54/6 104/53/6 99/52/6
f 83/54/6 84/51/6 104/53/6
f 63/135/31 109/134/31 110/133/31
f 63/135/31 62/132/31 109/134/31
f 71/139/6 102/138/6 98/137/6
f 71/139/6 72/136/6 102/138/6
f 79/140/3 95/141/3 105/142/3
f 79/140/3 80/143/3 95/141/3
f 66/135/31 113/134/31 114/133/31
f 66/135/31 70/132/31 113/134/31
f 41/41/3 56/42/3 69/43/3
f 41/41/3 42/44/3 56/42/3
f 43/45/3 41/41/3 69/43/3
f 43/45/3 69/43/3 61/46/3
f 45/47/3 43/45/3 61/46/3
f 45/47/3 61/46/3 57/48/3
f 47/49/3 45/47/3 57/48/3
f 47/49/3 57/48/3 50/50/3
f 115/51/3 117/52/3 116/53/3
f 115/51/3 118/54/3 117/52/3
f 119/144/6 121/145/6 120/146/6
f 119/144/6 122/147/6 121/145/6
f 123/148/6 119/144/6 120/146/6
f 123/148/6 120/146/6 124/149/6
f 125/150/6 123/148/6 124/149/6
f 125/150/6 124/149/6 126/151/6
f 127/152/6 125/150/6 126/151/6
f 127/152/6 126/151/6 128/153/6
f 129/55/1 42/56/1 41/57/1
f 129/55/1 130/58/1 42/56/1
f 120/59/1 130/58/1 129/55/1
f 120/59/1 121/60/1 130/58/1
f 124/61/1 120/59/1 129/55/1
f 124/61/1 129/55/1 131/62/1
f 131/62/1 129/55/1 41/57/1
f 126/63/1 124/61/1 131/62/1
f 126/63/1 131/62/1 132/64/1
f 128/65/1 126/63/1 132/64/1
f 128/65/1 132/64/1 133/66/1
f 133/66/1 132/64/1 45/67/1
f 133/66/1 45/67/1 47/68/1
f 132/64/1 43/69/1 45/67/1
f 132/64/1 131/62/1 43/69/1
f 131/62/1 41/57/1 43/69/1
f 134/70/31 128/71/31 133/72/31
f 134/70/31 127/73/31 128/71/31
f 50/74/31 134/70/31 133/72/31
f 50/74/31 133/72/31 47/75/31
f 50/74/31 135/76/31 134/70/31
f 50/74/31 136/77/31 135/76/31
f 134/70/31 137/78/31 127/73/31
f 134/70/31 135/76/31 137/78/31
f 127/73/31 138/79/31 128/71/31
f 127/73/31 137/78/31 138/79/31
f 139/70/5 42/75/5 130/72/5
f 139/70/5 56/74/5 42/75/5
f 122/73/5 139/70/5 130/72/5
f 122/73/5 130/72/5 121/71/5
f 134/66/2 125/63/2 127/65/2
f 134/66/2 140/64/2 125/63/2
f 50/68/2 140/64/2 134/66/2
f 50/68/2 57/67/2 140/64/2
f 141/80/2 125/63/2 140/64/2
f 141/80/38 142/81/38 125/63/38
f 142/81/2 123/61/2 125/63/2
f 142/81/37 143/82/37 123/61/37
f 144/83/2 141/80/2 140/64/2
f 144/83/2 140/64/2 145/62/2
f 143/82/35 145/62/35 123/61/35
f 143/82/2 144/83/2 145/62/2
f 146/84/2 123/61/2 145/62/2
f 147/85/2 146/84/2 145/62/2
f 147/85/2 145/62/2 148/55/2
f 146/84/40 149/86/40 123/61/40
f 149/86/2 119/59/2 123/61/2
f 149/86/37 150/87/37 119/59/37
f 150/87/35 148/55/35 119/59/35
f 150/87/2 147/85/2 148/55/2
f 151/88/2 119/59/2 148/55/2
f 152/89/2 151/88/2 148/55/2
f 152/89/2 148/55/2 139/58/2
f 153/90/2 152/89/2 139/58/2
f 153/90/35 139/58/35 122/60/35
f 154/91/2 122/60/2 119/59/2
f 154/91/2 153/90/2 122/60/2
f 151/88/36 154/91/36 119/59/36
f 155/92/2 139/58/2 148/55/2
f 155/92/2 156/93/2 139/58/2
f 156/93/35 56/56/35 139/58/35
f 156/93/2 157/94/2 56/56/2
f 157/94/2 69/95/2 56/56/2
f 157/94/2 158/96/2 69/95/2
f 158/96/41 148/55/41 69/95/41
f 158/96/42 155/92/42 148/55/42
f 159/97/35 69/95/35 148/55/35
f 160/98/2 159/97/2 148/55/2
f 160/98/2 148/55/2 145/62/2
f 161/99/42 160/98/42 145/62/42
f 161/99/41 145/62/41 61/69/41
f 162/100/2 61/69/2 69/95/2
f 162/100/2 161/99/2 61/69/2
f 159/97/2 162/100/2 69/95/2
f 115/101/35 61/69/35 145/62/35
f 118/102/37 115/101/37 145/62/37
f 118/102/2 145/62/2 140/64/2
f 163/103/42 118/102/42 140/64/42
f 163/103/43 140/64/43 57/67/43
f 164/104/2 57/67/2 61/69/2
f 164/104/2 163/103/2 57/67/2
f 115/101/39 164/104/39 61/69/39
f 155/105/5 166/106/5 165/107/5
f 155/105/5 158/108/5 166/106/5
f 167/66/1 169/109/1 168/110/1
f 167/66/1 170/64/1 169/109/1
f 138/111/1 170/64/1 167/66/1
f 138/111/1 171/112/1 170/64/1
f 168/113/3 172/114/3 136/115/3
f 168/113/3 169/116/3 172/114/3
f 135/66/2 173/112/2 137/111/2
f 135/66/2 174/64/2 173/112/2
f 136/110/2 174/64/2 135/66/2
f 136/110/2 172/109/2 174/64/2
f 137/117/6 171/118/6 138/119/6
f 137/117/6 173/120/6 171/118/6
f 140/70/5 172/77/5 57/74/5
f 140/70/5 174/76/5 172/77/5
f 125/73/5 174/76/5 140/70/5
f 125/73/5 173/78/5 174/76/5
f 57/74/5 172/77/5 169/121/5
f 57/74/5 169/121/5 45/75/5
f 133/122/31 168/123/31 47/124/31
f 133/122/31 167/125/31 168/123/31
f 128/126/31 167/125/31 133/122/31
f 128/126/31 138/127/31 167/125/31
f 47/124/31 168/123/31 136/128/31
f 47/124/31 136/128/31 50/129/31
f 126/126/5 173/130/5 125/131/5
f 126/126/5 171/127/5 173/130/5
f 132/122/5 171/127/5 126/126/5
f 132/122/5 170/125/5 171/127/5
f 45/124/5 170/125/5 132/122/5
f 45/124/5 169/123/5 170/125/5
f 160/105/5 176/106/5 175/107/5
f 160/105/5 161/108/5 176/106/5
f 154/132/5 178/133/5 177/134/5
f 154/132/5 151/135/5 178/133/5
f 118/105/5 179/106/5 117/107/5
f 118/105/5 163/108/5 179/106/5
f 156/136/3 165/137/3 180/138/3
f 156/136/3 155/139/3 165/137/3
f 178/88/2 181/90/2 177/91/2
f 178/88/2 182/89/2 181/90/2
f 166/96/2 180/93/2 165/92/2
f 166/96/2 183/94/2 180/93/2
f 179/103/2 116/101/2 117/102/2
f 179/103/2 184/104/2 116/101/2
f 176/99/2 185/97/2 175/98/2
f 176/99/2 186/100/2 185/97/2
f 187/80/2 189/82/2 188/81/2
f 187/80/2 190/83/2 189/82/2
f 191/84/2 193/87/2 192/86/2
f 191/84/2 194/85/2 193/87/2
f 162/108/31 185/107/31 186/106/31
f 162/108/31 159/105/31 185/107/31
f 164/108/31 116/107/31 184/106/31
f 164/108/31 115/105/31 116/107/31
f 142/132/5 187/133/5 188/134/5
f 142/132/5 141/135/5 187/133/5
f 150/140/3 192/141/3 193/142/3
f 150/140/3 149/143/3 192/141/3
f 143/51/3 188/52/3 189/53/3
f 143/51/3 142/54/3 188/52/3
f 152/135/31 181/134/31 182/133/31
f 152/135/31 153/132/31 181/134/31
f 146/143/6 194/142/6 191/141/6
f 146/143/6 147/140/6 194/142/6
f 157/108/31 180/107/31 183/106/31
f 157/108/31 156/105/31 180/107/31
f 141/54/6 190/53/6 187/52/6
f 141/54/6 144/51/6 190/53/6
f 153/136/3 177/137/3 181/138/3
f 153/136/3 154/139/3 177/137/3
f 161/143/6 186/142/6 176/141/6
f 161/143/6 162/140/6 186/142/6
f 149/132/5 191/133/5 192/134/5
f 149/132/5 146/135/5 191/133/5
f 158/139/6 183/138/6 166/137/6
f 158/139/6 157/136/6 183/138/6
f 163/54/6 184/53/6 179/52/6
f 163/54/6 164/51/6 184/53/6
f 144/135/31 189/134/31 190/133/31
f 144/135/31 143/132/31 189/134/31
f 151/139/6 182/138/6 178/137/6
f 151/139/6 152/136/6 182/138/6
f 159/140/3 175/141/3 185/142/3
f 159/140/3 160/143/3 175/141/3
f 147/135/31 193/134/31 194/133/31
f 147/135/31 150/132/31 193/134/31
