# Blender 4.1.1
# www.blender.org
mtllib MeshRobothorBook_2_0_GeomSubset_2.mtl
o MeshRobothorBook_2_0_GeomSubset_2
v -0.095566 -0.117603 -0.014740
v -0.095566 -0.117603 -0.012432
v -0.095566 0.117603 -0.012432
v -0.095566 0.117603 -0.014740
v 0.090142 -0.117603 -0.009960
v 0.091441 -0.117603 -0.004672
v 0.091441 0.117603 -0.004672
v 0.090142 0.117603 -0.009960
v 0.092718 -0.117603 -0.010404
v 0.094345 -0.117603 -0.005107
v 0.092718 0.117603 -0.010404
v 0.094345 0.117603 -0.005107
v 0.088496 -0.117603 -0.014740
v 0.090030 -0.117603 -0.013852
v 0.086892 -0.117603 -0.012432
v 0.088693 -0.117603 -0.011743
v 0.086892 0.117603 -0.012432
v 0.088693 0.117603 -0.011743
v 0.088496 0.117603 -0.014740
v 0.090030 0.117603 -0.013852
v 0.088909 -0.116427 -0.014121
v 0.089511 -0.116427 -0.013854
v 0.089511 0.116427 -0.013855
v 0.088908 0.116427 -0.014122
v 0.088007 -0.116427 -0.012827
v 0.088616 -0.116427 -0.012568
v 0.088007 0.116427 -0.012827
v 0.088615 0.116427 -0.012568
v 0.091849 -0.117603 0.000257
v 0.092551 -0.117214 0.000981
v 0.091849 0.117603 0.000257
v 0.092551 0.117214 0.000981
v 0.094780 0.117603 0.000257
v 0.094142 0.117214 0.000981
v 0.094780 -0.117603 0.000257
v 0.094142 -0.117214 0.000981
v 0.089145 -0.115958 -0.013044
v -0.094994 -0.115958 -0.013044
v -0.094994 0.115958 -0.013044
v 0.091169 -0.115958 -0.008659
v -0.094016 0.115958 -0.008659
v -0.094016 -0.115958 -0.008659
v 0.093191 -0.115958 -0.004021
v -0.092871 0.115958 -0.004021
v -0.092871 -0.115958 -0.004021
v -0.093532 -0.115383 -0.011948
v 0.089625 -0.115383 -0.011948
v -0.093532 0.115384 -0.011948
v -0.094587 -0.115958 -0.010852
v 0.090104 -0.115958 -0.010852
v -0.094587 0.115958 -0.010852
v -0.093022 -0.115383 -0.009756
v 0.090603 -0.115383 -0.009756
v -0.093022 0.115384 -0.009755
v -0.092338 -0.115383 -0.007309
v 0.091773 -0.115383 -0.007309
v -0.092338 0.115384 -0.007309
v -0.093413 -0.115958 -0.006467
v 0.092156 -0.115958 -0.006467
v -0.093413 0.115958 -0.006467
v -0.091839 -0.115383 -0.005371
v 0.092640 -0.115383 -0.005371
v -0.091839 0.115384 -0.005371
v -0.091439 -0.115383 -0.003179
v 0.093495 -0.115383 -0.003179
v -0.091439 0.115384 -0.003179
v -0.092645 -0.115958 -0.002083
v 0.093857 -0.115958 -0.002083
v -0.092645 0.115958 -0.002083
v -0.091304 -0.115383 -0.000987
v 0.094168 -0.115383 -0.000987
v -0.091288 0.115384 -0.000987
v -0.092589 0.115958 0.000259
v -0.092589 -0.115958 0.000259
v 0.094399 -0.115320 0.000259
v 0.027766 -0.115958 -0.013044
v 0.028572 -0.115383 -0.011948
v 0.028541 -0.115958 -0.010852
v 0.029382 -0.115383 -0.009756
v 0.029370 -0.115958 -0.008659
v 0.030063 -0.115383 -0.007309
v 0.029837 -0.115958 -0.006467
v 0.030495 -0.115383 -0.005371
v 0.030284 -0.115958 -0.004021
v 0.030836 -0.115383 -0.003179
v 0.030507 -0.115958 -0.002083
v 0.031028 -0.115383 -0.000987
v 0.030674 -0.115320 0.000259
v -0.033614 -0.115958 -0.013044
v -0.032480 -0.115383 -0.011948
v -0.033024 -0.115958 -0.010852
v -0.031820 -0.115383 -0.009756
v -0.032323 -0.115958 -0.008659
v -0.031138 -0.115383 -0.007309
v -0.031788 -0.115958 -0.006467
v -0.030671 -0.115383 -0.005371
v -0.031293 -0.115958 -0.004021
v -0.030302 -0.115383 -0.003179
v -0.031068 -0.115958 -0.002083
v -0.030138 -0.115383 -0.000987
v -0.030957 -0.115320 0.000259
v -0.010413 -0.115320 0.000752
v -0.009749 -0.115383 -0.000987
v -0.010543 -0.115958 -0.002000
v -0.009923 -0.115383 -0.003172
v -0.010768 -0.115958 -0.004021
v -0.010283 -0.115383 -0.005371
v -0.011246 -0.115958 -0.006467
v -0.010737 -0.115383 -0.007309
v -0.011759 -0.115958 -0.008659
v -0.011420 -0.115383 -0.009756
v -0.012502 -0.115958 -0.010852
v -0.012129 -0.115383 -0.011948
v -0.013153 -0.115958 -0.013044
v 0.010131 -0.115320 0.000670
v 0.010640 -0.115383 -0.000987
v 0.009982 -0.115958 -0.002072
v 0.010457 -0.115383 -0.003179
v 0.009758 -0.115958 -0.004021
v 0.010106 -0.115383 -0.005371
v 0.009296 -0.115958 -0.006467
v 0.009663 -0.115383 -0.007309
v 0.008806 -0.115958 -0.008659
v 0.008981 -0.115383 -0.009756
v 0.008019 -0.115958 -0.010852
v 0.008222 -0.115383 -0.011948
v 0.007306 -0.115958 -0.013044
v 0.046606 -0.115320 0.000259
v 0.046813 -0.115383 -0.000987
v 0.046345 -0.115958 -0.002083
v 0.046501 -0.115383 -0.003179
v 0.046011 -0.115958 -0.004021
v 0.046031 -0.115383 -0.005371
v 0.045417 -0.115958 -0.006467
v 0.045490 -0.115383 -0.007309
v 0.044820 -0.115958 -0.008659
v 0.044687 -0.115383 -0.009756
v 0.043931 -0.115958 -0.010852
v 0.043835 -0.115383 -0.011948
v 0.043111 -0.115958 -0.013044
v 0.062537 -0.115320 0.000259
v 0.062598 -0.115383 -0.000987
v 0.062183 -0.115958 -0.002083
v 0.062165 -0.115383 -0.003179
v 0.061738 -0.115958 -0.004021
v 0.061567 -0.115383 -0.005371
v 0.060996 -0.115958 -0.006467
v 0.060918 -0.115383 -0.007309
v 0.060270 -0.115958 -0.008659
v 0.059992 -0.115383 -0.009756
v 0.059322 -0.115958 -0.010852
v 0.059098 -0.115383 -0.011948
v 0.058455 -0.115958 -0.013044
v 0.078467 -0.115320 0.000259
v 0.078383 -0.115383 -0.000987
v 0.078020 -0.115958 -0.002083
v 0.077830 -0.115383 -0.003179
v 0.077464 -0.115958 -0.004021
v 0.077104 -0.115383 -0.005371
v 0.076576 -0.115958 -0.006467
v 0.076345 -0.115383 -0.007309
v 0.075720 -0.115958 -0.008659
v 0.075298 -0.115383 -0.009756
v 0.074713 -0.115958 -0.010852
v 0.074362 -0.115383 -0.011948
v 0.073800 -0.115958 -0.013044
v -0.091426 0.114143 0.003479
v -0.030957 0.114143 0.003479
v -0.091426 -0.114143 0.003479
v -0.030957 -0.114143 0.003479
v 0.078467 0.114143 0.011616
v 0.094499 0.114143 0.002011
v 0.078467 -0.114143 0.011616
v 0.094499 -0.114143 0.002010
v 0.010131 0.114143 0.009922
v 0.030674 0.114143 0.013483
v 0.010131 -0.114143 0.009922
v 0.030674 -0.114143 0.013409
v -0.010413 0.114143 0.005689
v -0.010413 -0.114143 0.005689
v 0.046606 0.114143 0.015197
v 0.046606 -0.114143 0.014787
v 0.062537 0.114143 0.014349
v 0.062537 -0.114143 0.014349
v -0.089971 0.114143 0.001182
v -0.089971 -0.114143 0.001182
v -0.030957 -0.114143 0.001182
v 0.094499 -0.114143 0.001182
v 0.078467 -0.114143 0.001182
v 0.030674 -0.114143 0.001182
v 0.010131 -0.114143 0.001182
v -0.010413 -0.114143 0.001182
v 0.046606 -0.114143 0.001182
v 0.062537 -0.114143 0.001182
v 0.086484 0.114143 0.008726
v 0.086484 -0.114143 0.008726
v 0.086484 -0.114143 0.001182
v 0.086433 -0.115320 0.000259
v 0.086275 -0.115383 -0.000987
v 0.085938 -0.115958 -0.002083
v 0.085663 -0.115383 -0.003179
v 0.085327 -0.115958 -0.004021
v 0.084872 -0.115383 -0.005371
v 0.084366 -0.115958 -0.006467
v 0.084060 -0.115383 -0.007309
v 0.083444 -0.115958 -0.008659
v 0.082951 -0.115383 -0.009756
v 0.082409 -0.115958 -0.010852
v 0.081993 -0.115383 -0.011948
v 0.081472 -0.115958 -0.013044
v 0.061719 -0.112619 0.012178
v 0.046001 -0.112619 0.012543
v 0.030283 -0.112619 0.011469
v 0.010013 -0.112619 0.008941
v -0.010256 -0.112619 0.005202
v -0.030526 -0.112619 0.003120
v -0.090182 -0.112619 0.003120
v -0.090182 0.112619 0.003120
v 0.094499 -0.112619 0.001896
v 0.085346 -0.112619 0.007492
v 0.077438 -0.112619 0.009900
v 0.062537 -0.114143 0.010007
v 0.046606 -0.114143 0.010299
v 0.030674 -0.114143 0.009440
v 0.010131 -0.114143 0.007229
v -0.010413 -0.114143 0.004657
v -0.030957 -0.114143 0.002761
v -0.091426 -0.114143 0.002761
v -0.091426 0.114143 0.002761
v 0.094499 -0.114143 0.001782
v 0.086483 -0.114143 0.006259
v 0.078467 -0.114143 0.008185
v 0.061719 -0.112619 0.007837
v 0.046001 -0.112619 0.008056
v 0.030283 -0.112619 0.007361
v 0.010013 -0.112619 0.005917
v -0.010256 -0.112619 0.004058
v -0.030526 -0.112619 0.002402
v -0.090182 -0.112619 0.002402
v -0.090182 0.112619 0.002402
v 0.094499 -0.112619 0.001668
v 0.085347 -0.112619 0.005025
v 0.077438 -0.112619 0.006470
v 0.062537 -0.114143 0.005666
v 0.046606 -0.114143 0.005812
v 0.030674 -0.114143 0.005283
v 0.010131 -0.114143 0.004496
v -0.010413 -0.114143 0.003418
v -0.030957 -0.114143 0.002043
v -0.091426 -0.114143 0.002043
v -0.091426 0.114143 0.002043
v 0.094499 -0.114143 0.001553
v 0.086484 -0.114143 0.003792
v 0.078467 -0.114143 0.004755
v 0.061719 -0.112619 0.003495
v 0.046001 -0.112619 0.003568
v 0.030283 -0.112619 0.003258
v 0.010013 -0.112619 0.003035
v -0.010256 -0.112619 0.002750
v -0.030526 -0.112619 0.001684
v -0.090182 -0.112619 0.001684
v -0.090182 0.112619 0.001684
v 0.094499 -0.112619 0.001439
v 0.085346 -0.112619 0.002558
v 0.077438 -0.112619 0.003040
v 0.089145 0.115958 -0.013044
v 0.091169 0.115958 -0.008659
v 0.093191 0.115958 -0.004021
v 0.089625 0.115384 -0.011948
v 0.090104 0.115958 -0.010852
v 0.090603 0.115384 -0.009755
v 0.091773 0.115384 -0.007309
v 0.092156 0.115958 -0.006467
v 0.092640 0.115384 -0.005371
v 0.093495 0.115384 -0.003179
v 0.093857 0.115958 -0.002083
v 0.094168 0.115384 -0.000987
v 0.094399 0.115320 0.000259
v 0.027766 0.115958 -0.013044
v 0.028572 0.115384 -0.011948
v 0.028541 0.115958 -0.010852
v 0.029382 0.115384 -0.009755
v 0.029370 0.115958 -0.008659
v 0.030063 0.115384 -0.007309
v 0.029837 0.115958 -0.006467
v 0.030495 0.115384 -0.005371
v 0.030284 0.115958 -0.004021
v 0.030836 0.115384 -0.003179
v 0.030507 0.115958 -0.002083
v 0.031028 0.115384 -0.000987
v 0.030674 0.115320 0.000259
v -0.033614 0.115958 -0.013044
v -0.032480 0.115384 -0.011948
v -0.033024 0.115958 -0.010852
v -0.031820 0.115384 -0.009755
v -0.032323 0.115958 -0.008659
v -0.031138 0.115384 -0.007309
v -0.031788 0.115958 -0.006467
v -0.030671 0.115384 -0.005371
v -0.031293 0.115958 -0.004021
v -0.030302 0.115384 -0.003179
v -0.031068 0.115958 -0.002083
v -0.030138 0.115384 -0.000987
v -0.030957 0.115320 0.000259
v -0.010413 0.115320 0.000752
v -0.009749 0.115384 -0.000987
v -0.010543 0.115958 -0.002000
v -0.009923 0.115384 -0.003172
v -0.010768 0.115958 -0.004021
v -0.010283 0.115384 -0.005371
v -0.011246 0.115958 -0.006467
v -0.010737 0.115384 -0.007309
v -0.011759 0.115958 -0.008659
v -0.011420 0.115384 -0.009755
v -0.012502 0.115958 -0.010852
v -0.012129 0.115384 -0.011948
v -0.013153 0.115958 -0.013044
v 0.010131 0.115320 0.000670
v 0.010640 0.115384 -0.000987
v 0.009982 0.115958 -0.002072
v 0.010457 0.115384 -0.003179
v 0.009758 0.115958 -0.004021
v 0.010106 0.115384 -0.005371
v 0.009296 0.115958 -0.006467
v 0.009663 0.115384 -0.007309
v 0.008806 0.115958 -0.008659
v 0.008981 0.115384 -0.009755
v 0.008019 0.115958 -0.010852
v 0.008222 0.115384 -0.011948
v 0.007306 0.115958 -0.013044
v 0.046606 0.115320 0.000259
v 0.046813 0.115384 -0.000987
v 0.046345 0.115958 -0.002083
v 0.046501 0.115384 -0.003179
v 0.046011 0.115958 -0.004021
v 0.046031 0.115384 -0.005371
v 0.045417 0.115958 -0.006467
v 0.045490 0.115384 -0.007309
v 0.044820 0.115958 -0.008659
v 0.044687 0.115384 -0.009755
v 0.043931 0.115958 -0.010852
v 0.043835 0.115384 -0.011948
v 0.043111 0.115958 -0.013044
v 0.062537 0.115320 0.000259
v 0.062598 0.115384 -0.000987
v 0.062183 0.115958 -0.002083
v 0.062165 0.115384 -0.003179
v 0.061738 0.115958 -0.004021
v 0.061567 0.115384 -0.005371
v 0.060996 0.115958 -0.006467
v 0.060918 0.115384 -0.007309
v 0.060270 0.115958 -0.008659
v 0.059992 0.115384 -0.009755
v 0.059322 0.115958 -0.010852
v 0.059098 0.115384 -0.011948
v 0.058455 0.115958 -0.013044
v 0.078467 0.115320 0.000259
v 0.078383 0.115384 -0.000987
v 0.078020 0.115958 -0.002083
v 0.077830 0.115384 -0.003179
v 0.077464 0.115958 -0.004021
v 0.077104 0.115384 -0.005371
v 0.076576 0.115958 -0.006467
v 0.076345 0.115384 -0.007309
v 0.075720 0.115958 -0.008659
v 0.075298 0.115384 -0.009755
v 0.074713 0.115958 -0.010852
v 0.074362 0.115384 -0.011948
v 0.073800 0.115958 -0.013044
v -0.030957 0.114143 0.003479
v 0.078467 0.114143 0.011616
v 0.094499 0.114143 0.002011
v 0.010131 0.114143 0.009922
v 0.030674 0.114143 0.013409
v -0.010413 0.114143 0.005689
v 0.046606 0.114143 0.014787
v 0.062537 0.114143 0.014349
v -0.030957 0.114143 0.001182
v 0.094499 0.114143 0.001182
v 0.078467 0.114143 0.001182
v 0.030674 0.114143 0.001182
v 0.010131 0.114143 0.001182
v -0.010413 0.114143 0.001182
v 0.046606 0.114143 0.001182
v 0.062537 0.114143 0.001182
v 0.086484 0.114143 0.008726
v 0.086484 0.114143 0.001182
v 0.086433 0.115320 0.000259
v 0.086275 0.115384 -0.000987
v 0.085938 0.115958 -0.002083
v 0.085663 0.115384 -0.003179
v 0.085327 0.115958 -0.004021
v 0.084872 0.115384 -0.005371
v 0.084366 0.115958 -0.006467
v 0.084060 0.115384 -0.007309
v 0.083444 0.115958 -0.008659
v 0.082951 0.115384 -0.009755
v 0.082409 0.115958 -0.010852
v 0.081993 0.115384 -0.011948
v 0.081472 0.115958 -0.013044
v 0.061719 0.112619 0.012178
v 0.046001 0.112619 0.012543
v 0.030283 0.112619 0.011469
v 0.010013 0.112619 0.008941
v -0.010256 0.112619 0.005203
v -0.030526 0.112619 0.003120
v 0.094499 0.112619 0.001896
v 0.085346 0.112619 0.007492
v 0.077438 0.112619 0.009901
v 0.062537 0.114143 0.010007
v 0.046606 0.114143 0.010299
v 0.030674 0.114143 0.009440
v 0.010131 0.114143 0.007229
v -0.010413 0.114143 0.004657
v -0.030957 0.114143 0.002761
v 0.094499 0.114143 0.001782
v 0.086483 0.114143 0.006259
v 0.078467 0.114143 0.008185
v 0.061719 0.112619 0.007837
v 0.046001 0.112619 0.008056
v 0.030283 0.112619 0.007361
v 0.010013 0.112619 0.005917
v -0.010256 0.112619 0.004058
v -0.030526 0.112619 0.002402
v -0.090182 0.112619 0.002402
v 0.094499 0.112619 0.001668
v 0.085347 0.112619 0.005025
v 0.077438 0.112619 0.006470
v 0.062537 0.114143 0.005666
v 0.046606 0.114143 0.005812
v 0.030674 0.114143 0.005283
v 0.010131 0.114143 0.004496
v -0.010413 0.114143 0.003418
v -0.030957 0.114143 0.002043
v 0.094499 0.114143 0.001553
v 0.086484 0.114143 0.003792
v 0.078467 0.114143 0.004755
v 0.061719 0.112619 0.003495
v 0.046001 0.112619 0.003569
v 0.030283 0.112619 0.003258
v 0.010013 0.112619 0.003035
v -0.010256 0.112619 0.002750
v -0.030526 0.112619 0.001684
v 0.094499 0.112619 0.001439
v 0.085346 0.112619 0.002558
v 0.077438 0.112619 0.003040
vn 0.0810 -0.0000 -0.9967
vn -0.0000 -0.0000 -1.0000
vn -0.6422 -0.0000 -0.7665
vn -0.4847 -0.0000 -0.8747
vn 0.1284 0.0007 -0.9917
vn 0.1283 0.0006 -0.9917
vn 0.1855 0.0001 -0.9827
vn 0.1546 -0.0000 -0.9880
vn 0.0282 0.0010 -0.9996
vn -0.1046 0.0005 -0.9945
vn -0.1045 0.0004 -0.9945
vn -0.2795 -0.0000 -0.9601
vt 2.944640 0.750045
vt 2.944640 0.501068
vt 2.998730 0.501068
vt 2.998730 0.750045
vt 2.832419 0.750045
vt 2.832419 0.501068
vt 2.839590 0.501068
vt 2.839590 0.750045
vt 2.889511 0.750045
vt 2.889511 0.501068
vt 2.907887 0.501068
vt 2.907887 0.750045
vt 2.926264 0.501068
vt 2.926264 0.750045
vt 2.875261 0.501068
vt 2.875261 0.750045
vt 2.861010 0.501068
vt 2.861010 0.750045
vt 2.846760 0.501068
vt 2.846760 0.750045
s 1
usemtl M_RobothorBook_2_2
f 168/1/1 170/2/1 169/3/2 167/4/2
f 172/5/3 174/6/3 196/7/4 195/8/4
f 176/9/5 178/10/6 177/11/7 175/12/7
f 180/13/8 170/2/1 168/1/1 179/14/8
f 177/11/7 180/13/8 179/14/8 175/12/7
f 182/15/9 178/10/6 176/9/5 181/16/9
f 184/17/10 182/15/9 181/16/9 183/18/11
f 173/19/12 184/17/10 183/18/11 171/20/12
f 196/7/4 173/19/12 171/20/12 195/8/4
