# Blender 4.1.0
# www.blender.org
mtllib MeshPsSinkbasin_10_1.mtl
o PsSinkbasin_10
v -0.314550 -0.194189 -0.014150
v -0.314517 -0.026694 -0.014155
v -0.030779 -0.034445 -0.047385
v -0.032313 -0.026409 -0.047386
v -0.305502 -0.202774 -0.014435
v -0.011378 -0.202672 -0.014442
v -0.011492 -0.047448 -0.047438
v -0.019353 -0.045981 -0.047389
v 0.312912 -0.194188 -0.014150
v 0.312892 -0.026697 -0.014151
v 0.009617 -0.026692 -0.047388
v 0.007997 -0.034684 -0.047384
v -0.011335 0.134575 -0.014430
v -0.305450 0.134691 -0.014402
v -0.019222 -0.007183 -0.047411
v -0.011208 -0.005670 -0.047425
v -0.313585 -0.202044 -0.013389
v -0.026277 -0.041279 -0.047390
v 0.303804 -0.202803 -0.014400
v 0.311943 -0.202025 -0.013366
v 0.003386 -0.041488 -0.047387
v -0.003778 -0.046020 -0.047406
v 0.312930 0.126135 -0.014147
v 0.311931 0.133998 -0.013361
v 0.003577 -0.011821 -0.047379
v 0.008088 -0.018677 -0.047378
v 0.303832 0.134719 -0.014397
v -0.003186 -0.007207 -0.047361
v -0.313580 0.133932 -0.013368
v -0.026080 -0.011620 -0.047373
v -0.314547 0.126101 -0.014152
v -0.030675 -0.018393 -0.047374
v -0.024584 -0.031928 -0.051320
v -0.025633 -0.026455 -0.051318
v -0.011446 -0.040833 -0.051326
v -0.016907 -0.039707 -0.051325
v 0.002932 -0.026648 -0.051321
v 0.001808 -0.032106 -0.051323
v -0.011255 -0.012268 -0.051312
v -0.005796 -0.013391 -0.051313
v -0.021520 -0.036580 -0.051323
v -0.001321 -0.036722 -0.051325
v -0.005971 -0.039782 -0.051326
v -0.001183 -0.016519 -0.051315
v 0.001882 -0.021175 -0.051318
v -0.021380 -0.016384 -0.051313
v -0.016727 -0.013319 -0.051312
v -0.024510 -0.020998 -0.051315
v -0.011350 -0.026551 -0.051319
v 0.013576 -0.012156 -0.046005
v 0.003043 -0.001624 -0.046005
v 0.001181 -0.004849 -0.038680
v 0.010352 -0.014021 -0.038680
v -0.011350 0.002232 -0.046005
v -0.011349 -0.001491 -0.038680
v -0.025742 -0.001622 -0.046005
v -0.023881 -0.004847 -0.038680
v -0.036276 -0.012157 -0.046005
v -0.033054 -0.014020 -0.038680
v -0.040133 -0.026550 -0.046005
v -0.036411 -0.026550 -0.038680
v -0.036276 -0.040942 -0.046005
v -0.033053 -0.039082 -0.038680
v -0.025741 -0.051478 -0.046005
v -0.023882 -0.048252 -0.038680
v -0.011350 -0.055332 -0.046005
v -0.011351 -0.051610 -0.038680
v 0.003041 -0.051478 -0.046005
v 0.001180 -0.048253 -0.038679
v 0.013576 -0.040944 -0.046005
v 0.010353 -0.039079 -0.038680
v 0.017433 -0.026550 -0.046005
v 0.013710 -0.026550 -0.038680
v 0.006280 -0.016372 -0.039419
v -0.000043 -0.020024 -0.037896
v 0.001707 -0.026550 -0.037896
v 0.009006 -0.026549 -0.039419
v -0.001172 -0.008920 -0.039419
v -0.004823 -0.015241 -0.037896
v -0.011348 -0.006193 -0.039419
v -0.011349 -0.013494 -0.037896
v -0.021531 -0.008923 -0.039419
v -0.017879 -0.015243 -0.037896
v -0.028979 -0.016370 -0.039419
v -0.022658 -0.020022 -0.037896
v -0.031708 -0.026549 -0.039419
v -0.024406 -0.026549 -0.037896
v -0.028980 -0.036729 -0.039419
v -0.022658 -0.033080 -0.037896
v -0.021529 -0.044180 -0.039419
v -0.017880 -0.037858 -0.037896
v -0.011349 -0.046906 -0.039418
v -0.011351 -0.039606 -0.037896
v -0.001174 -0.044182 -0.039419
v -0.004823 -0.037858 -0.037896
v 0.006279 -0.036730 -0.039419
v -0.000043 -0.033080 -0.037896
v -0.011350 -0.026550 -0.037896
v 0.008379 -0.015160 -0.041025
v 0.000041 -0.006821 -0.041024
v -0.011350 -0.003769 -0.041025
v -0.022742 -0.006821 -0.041025
v -0.031079 -0.015160 -0.041025
v -0.034131 -0.026550 -0.041025
v -0.031080 -0.037942 -0.041025
v -0.022741 -0.046279 -0.041025
v -0.011351 -0.049331 -0.041025
v 0.000040 -0.046281 -0.041025
v 0.008379 -0.037941 -0.041025
v 0.011431 -0.026550 -0.041025
v 0.007830 -0.015477 -0.046005
v -0.000276 -0.007370 -0.046005
v -0.011349 -0.004403 -0.046005
v -0.022424 -0.007370 -0.046005
v -0.030530 -0.015476 -0.046005
v -0.033497 -0.026550 -0.046005
v -0.030530 -0.037624 -0.046005
v -0.022423 -0.045731 -0.046005
v -0.011351 -0.048698 -0.046005
v -0.000277 -0.045731 -0.046005
v 0.007830 -0.037624 -0.046005
v 0.010797 -0.026550 -0.046005
v 0.007830 -0.015477 -0.053150
v -0.000276 -0.007370 -0.053150
v -0.011349 -0.004403 -0.053150
v -0.022424 -0.007370 -0.053150
v -0.030530 -0.015476 -0.053150
v -0.033497 -0.026550 -0.053150
v -0.030530 -0.037624 -0.053150
v -0.022423 -0.045731 -0.053150
v -0.011351 -0.048698 -0.053150
v -0.000277 -0.045731 -0.053150
v 0.007830 -0.037624 -0.053150
v 0.010797 -0.026550 -0.053150
vn 0.1163 -0.0001 0.9932
vn 0.1095 0.0133 0.9939
vn 0.1129 0.0073 0.9936
vn 0.0264 0.1613 0.9865
vn -0.0000 0.2059 0.9786
vn 0.0042 0.2004 0.9797
vn -0.1023 0.0128 0.9947
vn -0.1084 -0.0000 0.9941
vn -0.1050 0.0076 0.9944
vn -0.0000 -0.2265 0.9740
vn 0.0291 -0.1728 0.9845
vn 0.0042 -0.2209 0.9753
vn 0.0772 0.0707 0.9945
vn 0.0807 0.0644 0.9947
vn -0.0260 0.1589 0.9870
vn -0.0722 0.0703 0.9949
vn -0.0765 0.0619 0.9951
vn -0.0037 0.2009 0.9796
vn -0.1027 -0.0132 0.9946
vn -0.0746 -0.0726 0.9946
vn -0.0786 -0.0639 0.9949
vn -0.1050 -0.0083 0.9944
vn -0.0287 -0.1695 0.9851
vn -0.0040 -0.2207 0.9753
vn 0.0788 -0.0748 0.9941
vn 0.0826 -0.0672 0.9943
vn 0.1098 -0.0142 0.9939
vn 0.1126 -0.0087 0.9936
vn 0.5072 -0.0039 0.8618
vn 0.4700 0.1905 0.8619
vn 0.5072 -0.0038 0.8618
vn 0.1962 0.4660 0.8627
vn 0.0033 0.5059 0.8626
vn 0.0030 0.5059 0.8626
vn 0.1986 0.4651 0.8627
vn -0.4671 0.1964 0.8621
vn -0.5069 0.0028 0.8620
vn -0.4668 0.1972 0.8621
vn -0.1974 -0.4674 0.8617
vn -0.0042 -0.5075 0.8616
vn -0.0036 -0.5075 0.8616
vn -0.1970 -0.4676 0.8617
vn 0.3606 0.3564 0.8620
vn 0.3607 0.3563 0.8620
vn -0.1900 0.4722 0.8608
vn -0.3554 0.3634 0.8612
vn -0.3550 0.3638 0.8612
vn -0.1941 0.4706 0.8607
vn -0.4700 -0.1911 0.8617
vn -0.3610 -0.3566 0.8617
vn -0.3611 -0.3564 0.8617
vn -0.4699 -0.1914 0.8617
vn 0.1918 -0.4699 0.8617
vn 0.3565 -0.3611 0.8617
vn 0.3562 -0.3614 0.8617
vn 0.1913 -0.4700 0.8617
vn 0.4672 -0.1977 0.8617
vn 0.4673 -0.1976 0.8617
vn 0.0001 -0.0005 1.0000
vn 0.7720 0.4458 0.4532
vn 0.4457 0.7720 0.4532
vn 0.7720 0.4457 0.4532
vn -0.0000 0.8914 0.4532
vn 0.0001 0.8914 0.4532
vn -0.4457 0.7723 0.4526
vn -0.4457 0.7722 0.4528
vn -0.7720 0.4458 0.4530
vn -0.7721 0.4457 0.4530
vn -0.8915 -0.0000 0.4530
vn -0.7721 -0.4457 0.4530
vn -0.7721 -0.4458 0.4530
vn -0.4457 -0.7721 0.4530
vn -0.4458 -0.7720 0.4530
vn -0.0000 -0.8915 0.4531
vn 0.4457 -0.7720 0.4532
vn 0.7720 -0.4458 0.4532
vn 0.7720 -0.4457 0.4532
vn 0.8915 -0.0000 0.4531
vn 0.3046 0.1758 0.9361
vn 0.0898 0.0518 0.9946
vn 0.1037 -0.0000 0.9946
vn 0.3518 -0.0000 0.9361
vn 0.1759 0.3046 0.9361
vn 0.0518 0.0898 0.9946
vn -0.0000 0.3519 0.9361
vn -0.0000 0.1036 0.9946
vn -0.1759 0.3046 0.9361
vn -0.0518 0.0898 0.9946
vn -0.3046 0.1759 0.9361
vn -0.0897 0.0518 0.9946
vn -0.3518 0.0001 0.9361
vn -0.1036 -0.0000 0.9946
vn -0.3047 -0.1759 0.9361
vn -0.0898 -0.0518 0.9946
vn -0.1759 -0.3047 0.9361
vn -0.0518 -0.0898 0.9946
vn -0.0000 -0.3517 0.9361
vn -0.0000 -0.1036 0.9946
vn 0.1758 -0.3046 0.9361
vn 0.0518 -0.0897 0.9946
vn 0.3046 -0.1759 0.9361
vn 0.0897 -0.0518 0.9946
vn -0.0000 -0.0000 1.0000
vn 0.4783 0.2761 0.8337
vn 0.2762 0.4783 0.8337
vn -0.0001 0.5522 0.8337
vn -0.2761 0.4782 0.8337
vn -0.4784 0.2761 0.8336
vn -0.5524 -0.0000 0.8336
vn -0.4782 -0.2761 0.8337
vn -0.2761 -0.4782 0.8337
vn -0.0001 -0.5523 0.8337
vn 0.2762 -0.4783 0.8336
vn 0.4783 -0.2761 0.8336
vn 0.5523 -0.0000 0.8337
vn -0.0000 -0.0000 -1.0000
vn 0.5000 0.8660 -0.0000
vn 0.8661 0.4999 -0.0000
vn -0.0000 1.0000 -0.0000
vn -0.5000 0.8660 -0.0000
vn -0.8660 0.5000 -0.0000
vn -1.0000 -0.0000 -0.0000
vn -0.8660 -0.5000 -0.0000
vn -0.5000 -0.8660 -0.0000
vn -0.0000 -1.0000 -0.0000
vn 0.5000 -0.8660 -0.0000
vn 0.8660 -0.5000 -0.0000
vn 1.0000 -0.0000 -0.0000
vn -0.6210 -0.3585 0.6970
vn -0.3586 -0.6210 0.6969
vn -0.3585 -0.6211 0.6969
vn -0.0001 -0.7172 0.6969
vn -0.0000 -0.7172 0.6969
vn 0.3585 -0.6211 0.6969
vn 0.3586 -0.6210 0.6969
vn 0.6210 -0.3585 0.6970
vn 0.7171 -0.0000 0.6970
vn 0.6210 0.3586 0.6970
vn 0.6210 0.3585 0.6970
vn 0.3586 0.6210 0.6970
vn 0.3585 0.6211 0.6970
vn -0.0000 0.7172 0.6968
vn -0.3586 0.6212 0.6968
vn -0.6210 0.3586 0.6969
vn -0.7170 -0.0000 0.6971
vt 0.271055 0.561718
vt 0.238103 0.561725
vt 0.269530 0.505896
vt 0.271111 0.506198
vt 0.236414 0.559945
vt 0.236434 0.502079
vt 0.266972 0.502102
vt 0.267261 0.503648
vt 0.238103 0.438279
vt 0.271055 0.438283
vt 0.271055 0.497949
vt 0.269484 0.498268
vt 0.302783 0.502071
vt 0.302806 0.559935
vt 0.274894 0.503623
vt 0.275191 0.502046
vt 0.236557 0.561535
vt 0.268186 0.505010
vt 0.236408 0.440071
vt 0.236561 0.438469
vt 0.268145 0.499175
vt 0.267253 0.500584
vt 0.301123 0.438275
vt 0.302670 0.438472
vt 0.273981 0.499137
vt 0.272633 0.498249
vt 0.302812 0.440065
vt 0.274889 0.500467
vt 0.302657 0.561534
vt 0.274020 0.504972
vt 0.301116 0.561725
vt 0.272688 0.505876
vt 0.270025 0.504677
vt 0.271103 0.504884
vt 0.268273 0.502093
vt 0.268496 0.503167
vt 0.271065 0.499264
vt 0.269991 0.499485
vt 0.273893 0.502055
vt 0.273673 0.500981
vt 0.269110 0.504075
vt 0.269082 0.500100
vt 0.268480 0.501015
vt 0.273057 0.500073
vt 0.272141 0.499471
vt 0.273084 0.504047
vt 0.273687 0.503132
vt 0.272176 0.504663
vt 0.271084 0.502074
vt 0.733892 0.038316
vt 0.733892 0.035941
vt 0.735543 0.036669
vt 0.735542 0.038736
vt 0.808005 0.021819
vt 0.808005 0.024838
vt 0.806469 0.024838
vt 0.806469 0.022209
vt 0.808005 0.027857
vt 0.806468 0.027467
vt 0.752023 0.047179
vt 0.752023 0.044804
vt 0.753674 0.044385
vt 0.753674 0.046452
vt 0.752023 0.041560
vt 0.753674 0.041560
vt 0.752023 0.038316
vt 0.753674 0.038736
vt 0.752023 0.035942
vt 0.753674 0.036669
vt 0.824598 0.027854
vt 0.824598 0.024835
vt 0.826134 0.024836
vt 0.826134 0.027464
vt 0.824598 0.021817
vt 0.826134 0.022207
vt 0.733892 0.047179
vt 0.733892 0.044805
vt 0.735542 0.044384
vt 0.735543 0.046452
vt 0.733892 0.041560
vt 0.735542 0.041560
vt 0.683768 0.038120
vt 0.683012 0.039429
vt 0.681660 0.039067
vt 0.681661 0.037555
vt 0.685312 0.039663
vt 0.684002 0.040419
vt 0.685877 0.041771
vt 0.684364 0.041771
vt 0.685311 0.043880
vt 0.684002 0.043123
vt 0.683770 0.045422
vt 0.683013 0.044113
vt 0.681661 0.045987
vt 0.681661 0.044475
vt 0.679552 0.045422
vt 0.680308 0.044113
vt 0.678009 0.043879
vt 0.679319 0.043123
vt 0.677445 0.041771
vt 0.678956 0.041772
vt 0.678009 0.039664
vt 0.679318 0.040419
vt 0.679552 0.038120
vt 0.680308 0.039429
vt 0.681660 0.041771
vt 0.684019 0.037685
vt 0.685747 0.039412
vt 0.686379 0.041771
vt 0.685747 0.044130
vt 0.684019 0.045857
vt 0.681661 0.046489
vt 0.679302 0.045857
vt 0.677575 0.044130
vt 0.676943 0.041771
vt 0.677574 0.039412
vt 0.679302 0.037685
vt 0.681660 0.037053
vt 0.584801 0.044869
vt 0.586858 0.042812
vt 0.587507 0.043934
vt 0.585923 0.045517
vt 0.584049 0.047680
vt 0.585344 0.047680
vt 0.584801 0.050491
vt 0.585923 0.049843
vt 0.586858 0.052548
vt 0.587507 0.051426
vt 0.589670 0.053302
vt 0.589670 0.052006
vt 0.592480 0.052548
vt 0.591832 0.051426
vt 0.594538 0.050491
vt 0.593416 0.049843
vt 0.595291 0.047680
vt 0.593995 0.047680
vt 0.594538 0.044869
vt 0.593416 0.045517
vt 0.592481 0.042812
vt 0.591832 0.043934
vt 0.589670 0.042058
vt 0.589670 0.043355
vt 0.771597 0.028343
vt 0.771597 0.030075
vt 0.770071 0.030075
vt 0.770071 0.028343
vt 0.842643 0.019570
vt 0.842643 0.017370
vt 0.844063 0.017370
vt 0.844063 0.019570
vt 0.842643 0.021771
vt 0.844063 0.021771
vt 0.789728 0.034803
vt 0.789728 0.036534
vt 0.788203 0.036534
vt 0.788203 0.034803
vt 0.789728 0.032438
vt 0.788203 0.032438
vt 0.789728 0.030074
vt 0.788203 0.030074
vt 0.789728 0.028342
vt 0.788203 0.028342
vt 0.862192 0.019569
vt 0.862192 0.021770
vt 0.860772 0.021770
vt 0.860772 0.019569
vt 0.862192 0.017368
vt 0.860772 0.017368
vt 0.771597 0.034804
vt 0.771597 0.036535
vt 0.770071 0.036535
vt 0.770071 0.034804
vt 0.771597 0.032439
vt 0.770071 0.032439
vt 0.684256 0.037276
vt 0.686155 0.039176
vt 0.686850 0.041771
vt 0.686156 0.044366
vt 0.684256 0.046266
vt 0.681661 0.046961
vt 0.679065 0.046266
vt 0.677166 0.044366
vt 0.676470 0.041771
vt 0.677166 0.039176
vt 0.679065 0.037276
vt 0.681660 0.036581
s 1
usemtl M_PsSinkbasin_10_0
f 2/1/1 1/2/2 3/3/3 4/4/1
f 5/5/4 6/6/5 7/7/5 8/8/6
f 9/9/7 10/10/8 11/11/8 12/12/9
f 13/13/10 14/14/11 15/15/12 16/16/10
f 1/2/2 17/17/13 18/18/14 3/3/3
f 17/17/13 5/5/4 8/8/6 18/18/14
f 19/19/15 20/20/16 21/21/17 22/22/18
f 20/20/16 9/9/7 12/12/9 21/21/17
f 23/23/19 24/24/20 25/25/21 26/26/22
f 24/24/20 27/27/23 28/28/24 25/25/21
f 14/14/11 29/29/25 30/30/26 15/15/12
f 29/29/25 31/31/27 32/32/28 30/30/26
f 11/11/8 10/10/8 23/23/19 26/26/22
f 31/31/27 2/1/1 4/4/1 32/32/28
f 7/7/5 6/6/5 19/19/15 22/22/18
f 27/27/23 13/13/10 16/16/10 28/28/24
f 4/4/29 3/3/30 33/33/30 34/34/31
f 8/8/32 7/7/33 35/35/34 36/36/35
f 12/12/36 11/11/37 37/37/37 38/38/38
f 28/28/39 16/16/40 39/39/41 40/40/42
f 3/3/30 18/18/43 41/41/44 33/33/30
f 18/18/43 8/8/32 36/36/35 41/41/44
f 22/22/45 21/21/46 42/42/47 43/43/48
f 21/21/46 12/12/36 38/38/38 42/42/47
f 26/26/49 25/25/50 44/44/51 45/45/52
f 25/25/50 28/28/39 40/40/42 44/44/51
f 15/15/53 30/30/54 46/46/55 47/47/56
f 30/30/54 32/32/57 48/48/58 46/46/55
f 11/11/37 26/26/49 45/45/52 37/37/37
f 32/32/57 4/4/29 34/34/31 48/48/58
f 7/7/33 22/22/45 43/43/48 35/35/34
f 16/16/40 15/15/53 47/47/56 39/39/41
f 49/49/59 34/34/59 33/33/59 41/41/59
f 49/49/59 41/41/59 36/36/59 35/35/59
f 49/49/59 42/42/59 38/38/59 37/37/59
f 49/49/59 44/44/59 40/40/59 39/39/59
f 49/49/59 46/46/59 48/48/59 34/34/59
f 49/49/59 37/37/59 45/45/59 44/44/59
f 49/49/59 35/35/59 43/43/59 42/42/59
f 49/49/59 39/39/59 47/47/59 46/46/59
f 50/50/60 51/51/61 52/52/61 53/53/62
f 51/54/61 54/55/63 55/56/64 52/57/61
f 54/55/63 56/58/65 57/59/66 55/56/64
f 56/60/65 58/61/67 59/62/68 57/63/66
f 58/61/67 60/64/69 61/65/69 59/62/68
f 60/64/69 62/66/70 63/67/71 61/65/69
f 62/66/70 64/68/72 65/69/73 63/67/71
f 64/70/72 66/71/74 67/72/74 65/73/73
f 66/71/74 68/74/75 69/75/75 67/72/74
f 68/76/75 70/77/76 71/78/77 69/79/75
f 70/77/76 72/80/78 73/81/78 71/78/77
f 72/80/78 50/50/60 53/53/62 73/81/78
f 74/82/79 75/83/80 76/84/81 77/85/82
f 75/83/80 74/82/79 78/86/83 79/87/84
f 79/87/84 78/86/83 80/88/85 81/89/86
f 81/89/86 80/88/85 82/90/87 83/91/88
f 83/91/88 82/90/87 84/92/89 85/93/90
f 85/93/90 84/92/89 86/94/91 87/95/92
f 87/95/92 86/94/91 88/96/93 89/97/94
f 89/97/94 88/96/93 90/98/95 91/99/96
f 91/99/96 90/98/95 92/100/97 93/101/98
f 93/101/98 92/100/97 94/102/99 95/103/100
f 95/103/100 94/102/99 96/104/101 97/105/102
f 97/105/102 96/104/101 77/85/82 76/84/81
f 98/106/103 75/83/80 79/87/84 81/89/86
f 98/106/103 81/89/86 83/91/88 85/93/90
f 98/106/103 85/93/90 87/95/92 89/97/94
f 98/106/103 89/97/94 91/99/96 93/101/98
f 98/106/103 93/101/98 95/103/100 97/105/102
f 98/106/103 97/105/102 76/84/81 75/83/80
f 99/107/104 100/108/105 78/86/83 74/82/79
f 100/108/105 101/109/106 80/88/85 78/86/83
f 101/109/106 102/110/107 82/90/87 80/88/85
f 102/110/107 103/111/108 84/92/89 82/90/87
f 103/111/108 104/112/109 86/94/91 84/92/89
f 104/112/109 105/113/110 88/96/93 86/94/91
f 105/113/110 106/114/111 90/98/95 88/96/93
f 106/114/111 107/115/112 92/100/97 90/98/95
f 107/115/112 108/116/113 94/102/99 92/100/97
f 108/116/113 109/117/114 96/104/101 94/102/99
f 109/117/114 110/118/115 77/85/82 96/104/101
f 110/118/115 99/107/104 74/82/79 77/85/82
f 51/119/116 50/120/116 111/121/116 112/122/116
f 54/123/116 51/119/116 112/122/116 113/124/116
f 56/125/116 54/123/116 113/124/116 114/126/116
f 58/127/116 56/125/116 114/126/116 115/128/116
f 60/129/116 58/127/116 115/128/116 116/130/116
f 62/131/116 60/129/116 116/130/116 117/132/116
f 64/133/116 62/131/116 117/132/116 118/134/116
f 66/135/116 64/133/116 118/134/116 119/136/116
f 68/137/116 66/135/116 119/136/116 120/138/116
f 70/139/116 68/137/116 120/138/116 121/140/116
f 72/141/116 70/139/116 121/140/116 122/142/116
f 50/120/116 72/141/116 122/142/116 111/121/116
f 112/143/117 111/144/118 123/145/118 124/146/117
f 113/147/119 112/148/117 124/149/117 125/150/119
f 114/151/120 113/147/119 125/150/119 126/152/120
f 115/153/121 114/154/120 126/155/120 127/156/121
f 116/157/122 115/153/121 127/156/121 128/158/122
f 117/159/123 116/157/122 128/158/122 129/160/123
f 118/161/124 117/159/123 129/160/123 130/162/124
f 119/163/125 118/164/124 130/165/124 131/166/125
f 120/167/126 119/163/125 131/166/125 132/168/126
f 121/169/127 120/170/126 132/171/126 133/172/127
f 122/173/128 121/169/127 133/172/127 134/174/128
f 111/144/118 122/173/128 134/174/128 123/145/118
f 53/175/129 52/176/130 100/108/131 99/107/129
f 52/176/130 55/177/132 101/109/133 100/108/131
f 55/177/132 57/178/134 102/110/135 101/109/133
f 57/178/134 59/179/136 103/111/136 102/110/135
f 59/179/136 61/180/137 104/112/137 103/111/136
f 61/180/137 63/181/138 105/113/139 104/112/137
f 63/181/138 65/182/140 106/114/141 105/113/139
f 65/182/140 67/183/142 107/115/142 106/114/141
f 67/183/142 69/184/143 108/116/143 107/115/142
f 69/184/143 71/185/144 109/117/144 108/116/143
f 71/185/144 73/186/145 110/118/145 109/117/144
f 73/186/145 53/175/129 99/107/129 110/118/145
