# Blender 4.1.0
# www.blender.org
mtllib LidMeshLaptopLid_22_0_GeomSubset_2.mtl
o LidMeshLaptopLid_22_0_GeomSubset_2
v -0.000632 0.146536 -0.144560
v 0.000632 0.146536 -0.144560
v -0.000632 0.147802 -0.144560
v 0.000632 0.147802 -0.144560
v -0.000632 0.146536 -0.144560
v 0.000632 0.146536 -0.144560
v -0.000632 0.147802 -0.144560
v 0.000632 0.147802 -0.144560
v -0.000632 0.146536 -0.144560
v 0.000632 0.146536 -0.144560
v -0.000632 0.147802 -0.144560
v 0.000632 0.147802 -0.144560
v -0.000632 0.146536 -0.144560
v 0.000632 0.146536 -0.144560
v -0.000632 0.147802 -0.144560
v 0.000632 0.147802 -0.144560
v -0.000632 0.146536 -0.144560
v 0.000632 0.146536 -0.144560
v -0.000632 0.147802 -0.144560
v 0.000632 0.147802 -0.144560
v -0.000632 0.146536 -0.144560
v 0.000632 0.146536 -0.144560
v -0.000632 0.147802 -0.144560
v 0.000632 0.147802 -0.144560
v 0.174370 0.156056 0.109348
v 0.174370 0.156056 -0.098853
v 0.000000 0.156056 0.138831
v 0.000000 0.156056 -0.098853
v 0.017034 0.156056 0.138831
v 0.017034 0.156056 -0.098853
v 0.174370 0.144617 -0.141808
v 0.174370 0.144617 0.124789
v 0.017034 0.144617 -0.141808
v 0.017034 0.144617 0.158652
v 0.000000 0.144617 -0.141808
v 0.000000 0.144617 0.158652
v 0.148809 0.156056 -0.098853
v 0.148809 0.144617 -0.141781
v 0.148809 0.144617 0.130290
v 0.148809 0.156056 0.114138
v 0.163128 0.156056 -0.098853
v 0.163128 0.144617 -0.141808
v 0.163128 0.144617 0.127209
v 0.163128 0.156056 0.111455
v 0.148809 0.156056 -0.104106
v 0.148809 0.144617 -0.147840
v 0.163128 0.156056 -0.104106
v 0.163128 0.144617 -0.147840
v 0.163128 0.144617 -0.135121
v 0.174370 0.144617 -0.135121
v 0.174370 0.156056 -0.093031
v 0.163128 0.156056 -0.093031
v 0.148809 0.156056 -0.093031
v 0.017034 0.156056 -0.093031
v 0.000000 0.156056 -0.093031
v 0.000000 0.144617 -0.135121
v 0.017034 0.144617 -0.135121
v 0.148809 0.144617 -0.135121
v 0.148809 0.135623 -0.156834
v 0.148809 0.132866 -0.152708
v 0.148809 0.131898 -0.147840
v 0.148809 0.132866 -0.142973
v 0.148809 0.135623 -0.138846
v 0.148809 0.139749 -0.136089
v 0.163128 0.135623 -0.156834
v 0.163128 0.132866 -0.152708
v 0.163128 0.131898 -0.147840
v 0.163128 0.132866 -0.142973
v 0.163128 0.135623 -0.138846
v 0.163128 0.139749 -0.136089
v -0.174370 0.156056 0.109348
v -0.174370 0.156056 -0.098853
v -0.017034 0.156056 0.138831
v -0.017034 0.156056 -0.098853
v -0.174370 0.144617 -0.141808
v -0.174370 0.144617 0.124789
v -0.017034 0.144617 -0.141808
v -0.017034 0.144617 0.158652
v -0.148809 0.156056 -0.098853
v -0.148809 0.144617 -0.141781
v -0.148809 0.144617 0.130290
v -0.148809 0.156056 0.114138
v -0.163128 0.156056 -0.098853
v -0.163128 0.144617 -0.141808
v -0.163128 0.144617 0.127209
v -0.163128 0.156056 0.111455
v -0.148809 0.156056 -0.104106
v -0.148809 0.144617 -0.147840
v -0.163128 0.156056 -0.104106
v -0.163128 0.144617 -0.147840
v -0.163128 0.144617 -0.135121
v -0.174370 0.144617 -0.135121
v -0.174370 0.156056 -0.093031
v -0.163128 0.156056 -0.093031
v -0.148809 0.156056 -0.093031
v -0.017034 0.156056 -0.093031
v -0.017034 0.144617 -0.135121
v -0.148809 0.144617 -0.135121
v -0.148809 0.135623 -0.156834
v -0.148809 0.132866 -0.152708
v -0.148809 0.131898 -0.147840
v -0.148809 0.132866 -0.142973
v -0.148809 0.135623 -0.138846
v -0.148809 0.139749 -0.136089
v -0.163128 0.135623 -0.156834
v -0.163128 0.132866 -0.152708
v -0.163128 0.131898 -0.147840
v -0.163128 0.132866 -0.142973
v -0.163128 0.135623 -0.138846
v -0.163128 0.139749 -0.136089
v 0.174370 0.149828 -0.141808
v 0.163128 0.149828 -0.141808
v 0.163128 0.149828 -0.147840
v 0.148809 0.149828 -0.147840
v 0.148809 0.149828 -0.141795
v 0.017034 0.149828 -0.141808
v 0.000000 0.149828 -0.141808
v -0.017034 0.149828 -0.141808
v -0.148809 0.149828 -0.141795
v -0.148809 0.149828 -0.147840
v -0.163128 0.149828 -0.147840
v -0.163128 0.149828 -0.141808
v -0.174370 0.149828 -0.141808
v -0.174370 0.149828 -0.135121
v -0.174370 0.149829 0.124789
v -0.163128 0.149829 0.127209
v -0.148809 0.149829 0.130290
v -0.017034 0.149829 0.158652
v 0.000000 0.149829 0.158652
v 0.017034 0.149829 0.158652
v 0.148809 0.149829 0.130290
v 0.163128 0.149829 0.127209
v 0.174370 0.149829 0.124789
v 0.174370 0.149828 -0.135121
v -0.148809 0.144617 0.106259
v -0.163128 0.144617 0.106259
v -0.174370 0.144617 0.106259
v -0.174370 0.149829 0.106259
v -0.174370 0.156056 0.106259
v -0.163128 0.156056 0.106259
v -0.148809 0.156056 0.106259
v -0.017034 0.156056 0.106259
v 0.000000 0.156056 0.106259
v 0.017034 0.156056 0.106259
v 0.148809 0.156056 0.106259
v 0.163128 0.156056 0.106259
v 0.174370 0.156056 0.106259
v 0.174370 0.149829 0.106259
v 0.174370 0.144617 0.106259
v 0.163128 0.144617 0.106259
v 0.148809 0.144617 0.106259
v 0.017034 0.144617 0.106259
v 0.000000 0.144617 0.106259
v -0.017034 0.144617 0.106259
v 0.000000 0.144617 -0.114126
v -0.017034 0.144617 -0.114126
v -0.148809 0.144617 -0.114126
v -0.163128 0.144617 -0.114126
v -0.174370 0.144617 -0.114126
v -0.174370 0.149828 -0.114126
v -0.174370 0.156056 -0.075795
v -0.163128 0.156056 -0.075795
v -0.148809 0.156056 -0.075795
v -0.017034 0.156056 -0.075795
v 0.000000 0.156056 -0.075795
v 0.017034 0.156056 -0.075795
v 0.148809 0.156056 -0.075795
v 0.163128 0.156056 -0.075795
v 0.174370 0.156056 -0.075795
v 0.174370 0.149828 -0.114126
v 0.174370 0.144617 -0.114126
v 0.163128 0.144617 -0.114126
v 0.148809 0.144617 -0.114126
v 0.017034 0.144617 -0.114126
v 0.000000 0.147814 -0.114126
v -0.017034 0.147814 -0.114126
v 0.000000 0.147814 0.106259
v -0.017034 0.147814 0.106259
v -0.148809 0.147814 0.106259
v -0.148809 0.147814 -0.114126
v 0.148809 0.147814 0.106259
v 0.017034 0.147814 0.106259
v 0.017034 0.147814 -0.114126
v 0.148809 0.147814 -0.114126
v 0.043544 0.156685 -0.050380
v -0.043544 0.156685 -0.050380
v 0.043544 0.156685 0.040946
v -0.043544 0.156685 0.040946
v 0.000000 0.147614 -0.114126
v -0.017034 0.147614 -0.114126
v 0.000000 0.147614 0.106259
v -0.017034 0.147614 0.106259
v -0.148809 0.147614 0.106259
v -0.148809 0.147614 -0.114126
v 0.148809 0.147614 0.106259
v 0.017034 0.147614 0.106259
v 0.017034 0.147614 -0.114126
v 0.148809 0.147614 -0.114126
vn -0.0000 -0.0000 1.0000
vt -55.218258 -19.673967
vt -54.218258 -19.673967
vt -54.218258 -18.673967
vt -55.218258 -18.673967
s 1
usemtl M_LaptopLid_22_2
f 9/1/1 10/2/1 12/3/1 11/4/1
