# Blender 4.1.1
# www.blender.org
mtllib BedsheetMade_11BBedsheetMade_4_3.mtl
o BedsheetMade_4
v -0.958308 1.166033 -0.102960
v -0.905407 1.173713 0.049137
v -0.763200 1.172500 0.066490
v -0.035066 1.172378 0.072059
v 0.644965 1.172487 0.073700
v 0.790113 1.172754 0.071204
v 0.968117 1.173074 0.034164
v 0.997063 1.169011 -0.074980
v 1.041975 1.164223 -0.220530
v -0.990646 1.099959 -0.092975
v -0.906699 1.104230 0.056584
v -0.764267 1.104273 0.083047
v -0.035158 1.103679 0.085914
v 0.645394 1.103343 0.084041
v 0.791206 1.103492 0.080356
v 0.973444 1.103487 0.039926
v 1.019108 1.101158 -0.068892
v 1.077100 1.098506 -0.213193
v -0.997780 0.963101 -0.084381
v -0.907263 0.964902 0.063381
v -0.764558 0.965012 0.086607
v -0.035358 0.964594 0.091857
v 0.645937 0.964392 0.090866
v 0.792205 0.964511 0.089707
v 0.974336 0.964038 0.044370
v 1.019468 0.963184 -0.064543
v 1.060584 0.961947 -0.210650
v -0.986892 0.685877 -0.087477
v -0.906931 0.686065 0.066300
v -0.763958 0.686163 0.089323
v -0.035544 0.686196 0.093777
v 0.645501 0.685974 0.092325
v 0.791435 0.685835 0.089844
v 0.972244 0.685583 0.045105
v 1.020579 0.685394 -0.062247
v 1.066665 0.685123 -0.207973
v -0.987019 0.407140 -0.067017
v -0.906191 0.407276 0.068570
v -0.763587 0.407363 0.089155
v -0.035637 0.407548 0.093823
v 0.644930 0.407242 0.092356
v 0.790770 0.407185 0.089919
v 0.972035 0.407090 0.046145
v 1.020036 0.406891 -0.061287
v 1.068337 0.406635 -0.206762
v -0.986137 -0.569076 -0.066337
v -0.904971 -0.569323 0.068892
v -0.762494 -0.569432 0.088830
v -0.034760 -0.569478 0.093922
v 0.645706 -0.569363 0.092631
v 0.791522 -0.569222 0.090017
v 0.971793 -0.568917 0.046090
v 1.019929 -0.568651 -0.061550
v 1.067120 -0.568365 -0.207162
v -0.981728 -0.882098 -0.069041
v -0.906562 -0.883499 0.067535
v -0.763188 -0.883874 0.084942
v -0.034779 -0.883380 0.091810
v 0.646925 -0.883864 0.089307
v 0.792774 -0.883942 0.086447
v 0.972276 -0.882827 0.041965
v 1.018408 -0.880928 -0.066356
v 1.066056 -0.878230 -0.212113
v -0.998444 -1.016654 -0.073742
v -0.907473 -1.022609 0.061873
v -0.763541 -1.023952 0.078240
v -0.034691 -1.022800 0.081094
v 0.646260 -1.023185 0.080936
v 0.793158 -1.023834 0.077553
v 0.975146 -1.020750 0.035473
v 1.037612 -1.015065 -0.068541
v 1.143064 -0.990681 -0.193476
v -1.070232 -1.065050 -0.046825
v -0.902559 -1.086871 0.027160
v -0.760927 -1.089780 0.049481
v -0.034512 -1.088454 0.050595
v 0.644703 -1.088611 0.050038
v 0.790053 -1.088912 0.047216
v 0.963041 -1.078774 -0.002279
v 1.045800 -1.046209 -0.083046
v 1.171274 -1.022125 -0.196989
v -1.067571 -1.096346 -0.068437
v -0.887047 -1.097775 -0.016169
v -0.758813 -1.102891 0.005169
v -0.034406 -1.110993 0.013490
v 0.643844 -1.110392 0.012398
v 0.786954 -1.104849 0.004309
v 0.940437 -1.098604 -0.037001
v 1.005501 -1.052710 -0.113272
v 1.128359 -1.015378 -0.221283
v -0.994322 -1.099685 -0.244520
v -0.826609 -1.129916 -0.194498
v -0.756517 -1.142751 -0.178770
v -0.033910 -1.134409 -0.175341
v 0.642440 -1.139524 -0.175620
v 0.773171 -1.142670 -0.180437
v 0.821213 -1.139656 -0.185146
v 0.937991 -1.141676 -0.248744
v 1.023088 -1.078048 -0.350684
vn 0.8812 -0.2686 -0.3891
vn 0.5638 -0.2461 -0.7884
vn 0.5435 -0.1620 -0.8236
vn 0.8816 -0.1784 -0.4369
vn 0.1295 -0.1842 -0.9743
vn 0.1335 -0.1291 -0.9826
vn 0.0026 -0.1945 -0.9809
vn 0.0023 -0.1351 -0.9908
vn -0.0178 -0.1488 -0.9887
vn -0.0159 -0.1154 -0.9932
vn -0.1038 -0.1284 -0.9863
vn -0.1051 -0.0993 -0.9895
vn -0.6949 -0.1874 -0.6942
vn -0.7082 -0.1209 -0.6955
vn -0.9048 -0.2961 -0.3062
vn -0.9265 -0.1803 -0.3304
vn -0.8666 -0.4008 -0.2974
vn -0.9240 -0.2156 -0.3157
vn 0.5309 -0.0269 -0.8470
vn 0.8653 -0.0246 -0.5006
vn 0.1419 -0.0257 -0.9896
vn 0.0018 -0.0274 -0.9996
vn -0.0128 -0.0341 -0.9993
vn -0.1107 -0.0336 -0.9933
vn -0.6980 -0.0210 -0.7158
vn -0.9346 0.0056 -0.3556
vn -0.9500 0.0236 -0.3113
vn 0.5358 -0.0040 -0.8443
vn 0.8723 -0.0005 -0.4890
vn 0.1329 -0.0059 -0.9911
vn 0.0022 -0.0036 -1.0000
vn -0.0128 -0.0019 -0.9999
vn -0.1133 -0.0012 -0.9936
vn -0.6952 -0.0006 -0.7188
vn -0.9341 -0.0044 -0.3569
vn -0.9547 -0.0091 -0.2973
vn 0.5379 -0.0075 -0.8430
vn 0.8704 -0.0126 -0.4923
vn 0.1257 -0.0012 -0.9921
vn 0.0019 -0.0000 -1.0000
vn -0.0149 -0.0002 -0.9999
vn -0.1137 -0.0006 -0.9935
vn -0.6915 -0.0004 -0.7224
vn -0.9308 -0.0010 -0.3655
vn -0.9510 -0.0019 -0.3092
vn 0.5288 0.0054 -0.8488
vn 0.8646 0.0050 -0.5024
vn 0.1161 0.0058 -0.9932
vn 0.0025 0.0062 -1.0000
vn -0.0160 0.0067 -0.9999
vn -0.1150 0.0073 -0.9933
vn -0.6934 0.0065 -0.7205
vn -0.9320 0.0054 -0.3624
vn -0.9507 0.0061 -0.3100
vn 0.5184 0.0069 -0.8551
vn 0.8570 -0.0200 -0.5149
vn 0.1054 0.0349 -0.9938
vn 0.0023 0.0445 -0.9990
vn -0.0173 0.0445 -0.9989
vn -0.1149 0.0397 -0.9926
vn -0.6754 0.0011 -0.7374
vn -0.8867 -0.1217 -0.4460
vn -0.8573 -0.2339 -0.4586
vn 0.4241 0.0735 -0.9026
vn 0.6411 -0.2136 -0.7372
vn 0.1034 0.2841 -0.9532
vn 0.0012 0.2847 -0.9586
vn -0.0163 0.2876 -0.9576
vn -0.1200 0.3067 -0.9442
vn -0.6199 0.2522 -0.7431
vn -0.7995 0.0347 -0.5997
vn -0.7076 -0.2251 -0.6698
vn 0.2810 0.6701 -0.6871
vn 0.4501 0.5909 -0.6695
vn 0.0849 0.8101 -0.5801
vn 0.0025 0.7548 -0.6560
vn -0.0236 0.7565 -0.6536
vn -0.1042 0.7730 -0.6259
vn -0.5013 0.7773 -0.3801
vn -0.6510 0.6803 -0.3369
vn -0.6015 0.7011 -0.3830
vn 0.1367 0.9270 -0.3492
vn 0.2112 0.9001 -0.3810
vn 0.0965 0.9489 -0.3004
vn 0.0032 0.9130 -0.4080
vn -0.0252 0.9050 -0.4246
vn -0.0928 0.9255 -0.3672
vn -0.2775 0.9440 -0.1786
vn -0.2619 0.9614 0.0848
vn -0.0282 0.9871 0.1575
vn 0.1175 0.9828 -0.1426
vn 0.1075 0.9925 -0.0588
vn 0.1266 0.9767 -0.1733
vn 0.0022 0.9884 -0.1520
vn -0.0175 0.9844 -0.1752
vn -0.0613 0.9803 -0.1880
vn -0.1777 0.9651 -0.1922
vn -0.4415 0.8828 -0.1605
vn -0.5353 0.8348 -0.1287
vt 1.000000 1.000000
vt 0.920000 1.000000
vt 0.920000 0.971429
vt 1.000000 0.971429
vt 0.860000 1.000000
vt 0.860000 0.971429
vt 0.560000 1.000000
vt 0.560000 0.971429
vt 0.280000 1.000000
vt 0.280000 0.971429
vt 0.220000 1.000000
vt 0.220000 0.971429
vt 0.140000 1.000000
vt 0.140000 0.971429
vt 0.080000 1.000000
vt 0.080000 0.971429
vt 0.000000 1.000000
vt 0.000000 0.971429
vt 0.920000 0.914286
vt 1.000000 0.914286
vt 0.860000 0.914286
vt 0.560000 0.914286
vt 0.280000 0.914286
vt 0.220000 0.914286
vt 0.140000 0.914286
vt 0.080000 0.914286
vt 0.000000 0.914286
vt 0.920000 0.800000
vt 1.000000 0.800000
vt 0.860000 0.800000
vt 0.560000 0.800000
vt 0.280000 0.800000
vt 0.220000 0.800000
vt 0.140000 0.800000
vt 0.080000 0.800000
vt 0.000000 0.800000
vt 0.920000 0.685714
vt 1.000000 0.685714
vt 0.860000 0.685714
vt 0.560000 0.685714
vt 0.280000 0.685714
vt 0.220000 0.685714
vt 0.140000 0.685714
vt 0.080000 0.685714
vt 0.000000 0.685714
vt 0.920000 0.285714
vt 1.000000 0.285714
vt 0.860000 0.285714
vt 0.560000 0.285714
vt 0.280000 0.285714
vt 0.220000 0.285714
vt 0.140000 0.285714
vt 0.080000 0.285714
vt 0.000000 0.285714
vt 0.920000 0.157143
vt 1.000000 0.157143
vt 0.860000 0.157143
vt 0.560000 0.157143
vt 0.280000 0.157143
vt 0.220000 0.157143
vt 0.140000 0.157143
vt 0.080000 0.157143
vt 0.000000 0.157143
vt 0.920000 0.100000
vt 1.000000 0.100000
vt 0.860000 0.100000
vt 0.560000 0.100000
vt 0.280000 0.100000
vt 0.220000 0.100000
vt 0.140000 0.100000
vt 0.080000 0.100000
vt 0.000000 0.100000
vt 0.920000 0.071429
vt 1.000000 0.071429
vt 0.860000 0.071429
vt 0.560000 0.071429
vt 0.280000 0.071429
vt 0.220000 0.071429
vt 0.140000 0.071429
vt 0.080000 0.071429
vt 0.000000 0.071429
vt 0.920000 0.057143
vt 1.000000 0.057143
vt 0.860000 0.057143
vt 0.560000 0.057143
vt 0.280000 0.057143
vt 0.220000 0.057143
vt 0.140000 0.057143
vt 0.080000 0.057143
vt 0.000000 0.057143
vt 0.920000 0.000000
vt 1.000000 0.000000
vt 0.860000 0.000000
vt 0.560000 0.000000
vt 0.280000 0.000000
vt 0.220000 0.000000
vt 0.140000 0.000000
vt 0.080000 0.000000
vt 0.000000 0.000000
s 1
usemtl M_BedsheetMade_4_0
f 1/1/1 2/2/2 11/3/3 10/4/4
f 2/2/2 3/5/5 12/6/6 11/3/3
f 3/5/5 4/7/7 13/8/8 12/6/6
f 4/7/7 5/9/9 14/10/10 13/8/8
f 5/9/9 6/11/11 15/12/12 14/10/10
f 6/11/11 7/13/13 16/14/14 15/12/12
f 7/13/13 8/15/15 17/16/16 16/14/14
f 8/15/15 9/17/17 18/18/18 17/16/16
f 10/4/4 11/3/3 20/19/19 19/20/20
f 11/3/3 12/6/6 21/21/21 20/19/19
f 12/6/6 13/8/8 22/22/22 21/21/21
f 13/8/8 14/10/10 23/23/23 22/22/22
f 14/10/10 15/12/12 24/24/24 23/23/23
f 15/12/12 16/14/14 25/25/25 24/24/24
f 16/14/14 17/16/16 26/26/26 25/25/25
f 17/16/16 18/18/18 27/27/27 26/26/26
f 19/20/20 20/19/19 29/28/28 28/29/29
f 20/19/19 21/21/21 30/30/30 29/28/28
f 21/21/21 22/22/22 31/31/31 30/30/30
f 22/22/22 23/23/23 32/32/32 31/31/31
f 23/23/23 24/24/24 33/33/33 32/32/32
f 24/24/24 25/25/25 34/34/34 33/33/33
f 25/25/25 26/26/26 35/35/35 34/34/34
f 26/26/26 27/27/27 36/36/36 35/35/35
f 28/29/29 29/28/28 38/37/37 37/38/38
f 29/28/28 30/30/30 39/39/39 38/37/37
f 30/30/30 31/31/31 40/40/40 39/39/39
f 31/31/31 32/32/32 41/41/41 40/40/40
f 32/32/32 33/33/33 42/42/42 41/41/41
f 33/33/33 34/34/34 43/43/43 42/42/42
f 34/34/34 35/35/35 44/44/44 43/43/43
f 35/35/35 36/36/36 45/45/45 44/44/44
f 37/38/38 38/37/37 47/46/46 46/47/47
f 38/37/37 39/39/39 48/48/48 47/46/46
f 39/39/39 40/40/40 49/49/49 48/48/48
f 40/40/40 41/41/41 50/50/50 49/49/49
f 41/41/41 42/42/42 51/51/51 50/50/50
f 42/42/42 43/43/43 52/52/52 51/51/51
f 43/43/43 44/44/44 53/53/53 52/52/52
f 44/44/44 45/45/45 54/54/54 53/53/53
f 46/47/47 47/46/46 56/55/55 55/56/56
f 47/46/46 48/48/48 57/57/57 56/55/55
f 48/48/48 49/49/49 58/58/58 57/57/57
f 49/49/49 50/50/50 59/59/59 58/58/58
f 50/50/50 51/51/51 60/60/60 59/59/59
f 51/51/51 52/52/52 61/61/61 60/60/60
f 52/52/52 53/53/53 62/62/62 61/61/61
f 53/53/53 54/54/54 63/63/63 62/62/62
f 55/56/56 56/55/55 65/64/64 64/65/65
f 56/55/55 57/57/57 66/66/66 65/64/64
f 57/57/57 58/58/58 67/67/67 66/66/66
f 58/58/58 59/59/59 68/68/68 67/67/67
f 59/59/59 60/60/60 69/69/69 68/68/68
f 60/60/60 61/61/61 70/70/70 69/69/69
f 61/61/61 62/62/62 71/71/71 70/70/70
f 62/62/62 63/63/63 72/72/72 71/71/71
f 64/65/65 65/64/64 74/73/73 73/74/74
f 65/64/64 66/66/66 75/75/75 74/73/73
f 66/66/66 67/67/67 76/76/76 75/75/75
f 67/67/67 68/68/68 77/77/77 76/76/76
f 68/68/68 69/69/69 78/78/78 77/77/77
f 69/69/69 70/70/70 79/79/79 78/78/78
f 70/70/70 71/71/71 80/80/80 79/79/79
f 71/71/71 72/72/72 81/81/81 80/80/80
f 73/74/74 74/73/73 83/82/82 82/83/83
f 74/73/73 75/75/75 84/84/84 83/82/82
f 75/75/75 76/76/76 85/85/85 84/84/84
f 76/76/76 77/77/77 86/86/86 85/85/85
f 77/77/77 78/78/78 87/87/87 86/86/86
f 78/78/78 79/79/79 88/88/88 87/87/87
f 79/79/79 80/80/80 89/89/89 88/88/88
f 80/80/80 81/81/81 90/90/90 89/89/89
f 82/83/83 83/82/82 92/91/91 91/92/92
f 83/82/82 84/84/84 93/93/93 92/91/91
f 84/84/84 85/85/85 94/94/94 93/93/93
f 85/85/85 86/86/86 95/95/95 94/94/94
f 86/86/86 87/87/87 96/96/96 95/95/95
f 87/87/87 88/88/88 97/97/97 96/96/96
f 88/88/88 89/89/89 98/98/98 97/97/97
f 89/89/89 90/90/90 99/99/99 98/98/98
