# Blender 4.1.1
# www.blender.org
mtllib MeshBed_11_0_GeomSubset_1.mtl
o MeshBed_11_0_GeomSubset_1
v 0.949937 -1.038520 -0.599225
v 0.949937 -1.038520 -0.150345
v 1.057738 -1.038519 -0.150345
v 1.057738 -1.038519 -0.599225
v 1.066077 -1.042842 -0.150345
v 1.057738 -1.042842 -0.143147
v 1.066077 -1.042842 -0.599225
v 1.057738 -1.042842 -0.606423
v 0.941598 -1.042842 -0.599225
v 0.949937 -1.042842 -0.606423
v 0.941598 -1.042842 -0.150345
v 0.949937 -1.042842 -0.143147
v 0.941598 -1.098720 -0.599225
v 0.941598 -1.098720 -0.150345
v -0.877448 -1.098722 -0.606423
v -0.985249 -1.098722 -0.606423
v -0.985249 -1.042844 -0.606423
v -0.877448 -1.042844 -0.606423
v -0.869110 -1.042844 -0.599225
v -0.869109 -1.098722 -0.599225
v -0.993588 -1.098722 -0.599225
v -0.993588 -1.042844 -0.599225
v 0.949937 -1.098720 -0.143147
v 1.057738 -1.098720 -0.143147
v 1.066077 -1.098720 -0.150345
v 1.066077 -1.098720 -0.599225
v 1.057738 -1.103042 -0.599225
v 1.057738 -1.103042 -0.150345
v 0.949937 -1.103043 -0.150345
v 0.949937 -1.103043 -0.599225
v 1.057738 -1.098720 -0.606423
v 0.949937 -1.098720 -0.606423
v -0.985249 -1.038522 -0.599225
v -0.985249 -1.038522 -0.150345
v -0.877448 -1.038521 -0.150345
v -0.877448 -1.038521 -0.599225
v -0.869110 -1.042844 -0.150345
v -0.877448 -1.042844 -0.143147
v -0.993588 -1.042844 -0.150345
v -0.985249 -1.042844 -0.143147
v -0.993588 -1.098722 -0.150345
v -0.985249 -1.098722 -0.143147
v -0.877448 -1.098722 -0.143147
v -0.869109 -1.098722 -0.150345
v -0.877448 -1.103044 -0.599225
v -0.877448 -1.103044 -0.150345
v -0.985249 -1.103045 -0.150345
v -0.985249 -1.103045 -0.599225
v 1.018881 -1.042086 -0.312102
v 0.988794 -1.042086 -0.312102
v 0.988792 1.246428 -0.312102
v 1.018879 1.246428 -0.312102
v 1.027218 1.246428 -0.304903
v 1.027220 -1.042086 -0.304903
v 0.988792 1.253472 -0.304903
v 0.988792 1.253472 -0.165233
v 1.018879 1.253472 -0.165233
v 1.018879 1.253472 -0.304903
v 1.027218 1.246428 -0.165233
v 1.018879 1.246428 -0.158035
v 0.980452 1.246428 -0.304903
v 0.980452 1.246428 -0.165233
v 0.988792 1.246428 -0.158035
v 0.980454 -1.042086 -0.304903
v 0.980454 -1.042086 -0.165233
v -0.916305 -1.042087 -0.312102
v -0.946392 -1.042087 -0.312102
v -0.946395 1.246426 -0.312102
v -0.916307 1.246426 -0.312102
v -0.907968 1.246426 -0.304903
v -0.907966 -1.042087 -0.304903
v 0.988794 -1.042086 -0.158035
v 1.018881 -1.042086 -0.158035
v 1.027220 -1.042086 -0.165233
v 1.018881 -1.049130 -0.304903
v 1.018881 -1.049130 -0.165233
v 0.988794 -1.049130 -0.165233
v 0.988794 -1.049130 -0.304903
v -0.946395 1.253471 -0.304903
v -0.946395 1.253471 -0.165233
v -0.916307 1.253471 -0.165233
v -0.916307 1.253471 -0.304903
v -0.907968 1.246427 -0.165233
v -0.916307 1.246426 -0.158035
v -0.954733 1.246426 -0.304903
v -0.954733 1.246427 -0.165233
v -0.946395 1.246426 -0.158035
v -0.954732 -1.042087 -0.304903
v -0.954732 -1.042087 -0.165233
v -0.922129 -1.093271 -0.312102
v -0.922129 -1.067855 -0.312102
v 0.994617 -1.067853 -0.312102
v 0.994617 -1.093269 -0.312102
v -0.930468 -1.093271 -0.304903
v -0.930468 -1.067855 -0.304903
v -0.946392 -1.042087 -0.158035
v -0.916305 -1.042087 -0.158035
v -0.907966 -1.042087 -0.165233
v -0.916305 -1.049132 -0.304903
v -0.916305 -1.049132 -0.165233
v -0.946392 -1.049132 -0.165233
v -0.946392 -1.049132 -0.304903
v 1.002957 -1.067853 -0.304903
v 1.002957 -1.067853 -0.165233
v 1.002956 -1.093269 -0.165233
v 1.002956 -1.093269 -0.304903
v -0.922129 -1.060810 -0.304903
v -0.922129 -1.060810 -0.165233
v 0.994617 -1.060809 -0.165233
v 0.994617 -1.060809 -0.304903
v -0.930468 -1.067855 -0.165233
v -0.922129 -1.067855 -0.158035
v 0.994617 -1.067853 -0.158035
v -0.922129 -1.093271 -0.158035
v 0.994617 -1.093269 -0.158035
v -0.930468 -1.093271 -0.165233
v 0.994617 -1.100314 -0.304903
v 0.994617 -1.100314 -0.165233
v -0.922129 -1.100315 -0.165233
v -0.922129 -1.100315 -0.304903
v 1.002954 1.266111 -0.312102
v 1.002954 1.266111 -0.158035
v -0.930470 1.266110 -0.158035
v -0.930470 1.266110 -0.312102
v -0.930470 1.305614 -0.158035
v -0.930470 1.305614 -0.312102
v 1.002954 1.305616 -0.158035
v 1.002954 1.305616 -0.312102
v 1.002954 1.297414 -0.159370
v 1.002954 1.297414 -0.009671
v 1.002954 1.276968 -0.009671
v 1.002954 1.276968 -0.159370
v -0.927939 1.299550 -0.159370
v -0.927939 1.299550 -0.009671
v 1.000424 1.299552 -0.009672
v 1.000424 1.299552 -0.159370
v -0.930470 1.297412 -0.159370
v -0.927939 1.297412 -0.161554
v -0.930470 1.297412 -0.009672
v -0.927939 1.297412 -0.007487
v 1.000424 1.297414 -0.007487
v -0.927939 1.276966 -0.007487
v 1.000424 1.276968 -0.007487
v -0.930470 1.276966 -0.009672
v 1.000424 1.274830 -0.159370
v 1.000424 1.274830 -0.009672
v -0.927939 1.274828 -0.009671
v -0.927939 1.274828 -0.159370
v 1.000424 1.276968 -0.161554
v -0.930470 1.276966 -0.159370
v -0.927939 1.276966 -0.161554
v 1.000424 1.297414 -0.161554
v 1.002956 -1.039912 -0.237529
v 1.002956 -0.860818 -0.237529
v -0.930468 -0.860819 -0.237530
v -0.930468 -1.039914 -0.237530
v -0.930468 -0.860819 -0.277900
v -0.930468 -1.039914 -0.277900
v 1.002956 -0.860818 -0.277900
v 1.002956 -1.039912 -0.277900
v 1.002956 -0.714949 -0.237529
v 1.002956 -0.564185 -0.237529
v -0.930468 -0.564186 -0.237530
v -0.930468 -0.714951 -0.237530
v -0.930468 -0.564186 -0.277900
v -0.930468 -0.714951 -0.277900
v 1.002956 -0.564185 -0.277900
v 1.002956 -0.714949 -0.277900
v 1.002956 -0.418094 -0.237529
v 1.002956 -0.267329 -0.237529
v -0.930468 -0.267331 -0.237529
v -0.930468 -0.418096 -0.237529
v -0.930468 -0.267331 -0.277900
v -0.930468 -0.418096 -0.277900
v 1.002956 -0.267329 -0.277900
v 1.002956 -0.418094 -0.277900
v 1.002956 -0.121461 -0.237529
v 1.002956 0.029303 -0.237529
v -0.930468 0.029302 -0.237529
v -0.930468 -0.121463 -0.237529
v -0.930468 0.029302 -0.277900
v -0.930468 -0.121463 -0.277900
v 1.002956 0.029303 -0.277900
v 1.002956 -0.121461 -0.277900
v 1.002955 0.185928 -0.237529
v 1.002955 0.336693 -0.237529
v -0.930469 0.336691 -0.237529
v -0.930469 0.185926 -0.237529
v -0.930469 0.336691 -0.277900
v -0.930469 0.185926 -0.277900
v 1.002955 0.336693 -0.277900
v 1.002955 0.185928 -0.277900
v 1.002955 0.482561 -0.237529
v 1.002955 0.633326 -0.237529
v -0.930469 0.633324 -0.237529
v -0.930469 0.482559 -0.237529
v -0.930469 0.633324 -0.277900
v -0.930469 0.482560 -0.277900
v 1.002955 0.633326 -0.277900
v 1.002955 0.482562 -0.277900
v 1.002955 0.779416 -0.237529
v 1.002954 0.930181 -0.237529
v -0.930469 0.930179 -0.237529
v -0.930469 0.779415 -0.237529
v -0.930469 0.930180 -0.277900
v -0.930469 0.779415 -0.277900
v 1.002954 0.930181 -0.277900
v 1.002955 0.779416 -0.277900
v 1.002954 1.019392 -0.237529
v 1.002954 1.170156 -0.237529
v -0.930470 1.170154 -0.237529
v -0.930469 1.019390 -0.237529
v -0.930470 1.170155 -0.277900
v -0.930469 1.019390 -0.277900
v 1.002954 1.170156 -0.277900
v 1.002954 1.019392 -0.277900
v 1.056171 1.242757 -0.606423
v -0.985251 1.242757 -0.606423
v -0.985251 1.303839 -0.606423
v 1.056171 1.303839 -0.606423
v 1.064510 1.303839 -0.599224
v 1.064510 1.242757 -0.599224
v -0.985251 1.308564 -0.599224
v -0.985251 1.308564 0.598493
v 1.056171 1.308564 0.598493
v 1.056171 1.308564 -0.599224
v -0.993590 1.303839 -0.599224
v -0.993590 1.242757 -0.599224
v -0.993590 1.242757 0.598493
v -0.993590 1.303839 0.598493
v -0.985251 1.242757 0.605691
v 1.056171 1.242757 0.605691
v 1.056171 1.303839 0.605691
v -0.985251 1.303839 0.605691
v 1.064510 1.303839 0.598493
v 1.064510 1.242757 0.598493
v 1.056171 1.238031 -0.599224
v 1.056171 1.238031 0.598493
v -0.985251 1.238031 0.598493
v -0.985251 1.238031 -0.599224
vn -0.4510 0.5780 0.6800
vn 0.4511 -0.5780 0.6800
vn 0.4552 0.5820 0.6739
vn -0.4551 -0.5820 0.6738
vn -0.6337 -0.5763 0.5161
vn -0.6273 0.5795 0.5203
vn 0.3856 -0.8134 0.4355
vn -0.3855 -0.8134 -0.4355
vn 0.3871 -0.8119 -0.4371
vn -0.3871 -0.8118 0.4371
vn 0.6273 -0.5795 0.5203
vn 0.6337 0.5763 0.5161
vn 0.6337 -0.5763 -0.5161
vn 0.6273 0.5795 -0.5203
vn 0.4510 0.5781 -0.6800
vn -0.4511 -0.5780 -0.6800
vn -0.4552 0.5820 -0.6738
vn 0.4551 -0.5821 -0.6738
vn -0.6338 0.5762 -0.5161
vn -0.6273 -0.5796 -0.5202
vn -0.3857 0.8134 0.4355
vn 0.3856 0.8133 -0.4356
vn -0.3871 0.8118 -0.4372
vn 0.3870 0.8118 0.4372
vt 0.140053 0.830194
vt 0.017888 4.913039
vt 0.140053 4.913039
vt 0.017888 0.830194
vt 0.017888 0.813516
vt 0.140053 0.813516
vt 1.003001 0.282648
vt -3.079843 2.943817
vt 1.003001 2.943817
vt -3.079843 0.282648
vt 1.003001 0.266654
vt 1.019680 0.282648
vt 0.140053 0.282648
vt 0.017888 2.943817
vt 0.140053 2.943817
vt 0.017888 0.282648
vt 0.140053 0.913039
vt 0.017888 -3.169806
vt 0.140053 -3.169806
vt 0.017888 0.913039
vt 0.017888 0.929717
vt 0.140053 0.929717
vt 0.920157 0.282648
vt 5.003001 2.943817
vt 0.920157 2.943817
vt 5.003001 0.282648
vt 0.920157 0.266654
vt 0.903478 0.282648
vt 0.903478 2.943817
vt 5.003001 0.266654
vt 0.920157 -1.056183
vt 0.903478 -1.056183
vt 0.920157 -1.040188
vt 0.903478 -3.717351
vt 0.920157 -3.717351
vt 5.003001 -1.056183
vt 5.003001 -1.040188
vt 1.003001 -1.040188
vt 1.019680 -1.056183
vt 1.003001 -1.056183
vt 1.019680 -3.717351
vt 1.003001 -3.717351
vt -3.079843 -1.056183
vt -3.079843 -1.040188
vt -3.079843 0.266654
s 1
usemtl M_Bed_11_1
f 217/1/1 219/2/2 218/3/3
f 217/1/1 220/4/4 219/2/2
f 217/1/1 221/5/5 220/4/4
f 217/1/1 222/6/6 221/5/5
f 223/7/7 225/8/8 224/9/9
f 223/7/7 226/10/10 225/8/8
f 219/11/2 223/7/7 227/12/11
f 228/13/12 230/14/13 229/15/14
f 228/13/12 227/16/11 230/14/13
f 231/17/15 233/18/16 232/19/17
f 231/17/15 234/20/18 233/18/16
f 231/17/15 230/21/13 234/20/18
f 231/17/15 229/22/14 230/21/13
f 221/16/5 236/15/19 235/14/20
f 221/16/5 222/13/6 236/15/19
f 237/23/21 239/24/22 238/25/23
f 237/23/21 240/26/24 239/24/22
f 217/27/1 237/23/21 222/28/6
f 220/27/4 221/28/5 226/23/10
f 226/23/10 221/28/5 235/29/20
f 226/23/10 235/29/20 225/25/8
f 220/27/4 226/23/10 223/26/7
f 220/27/4 223/26/7 219/30/2
f 225/31/8 235/32/20 233/33/16
f 232/33/17 236/32/19 238/31/23
f 238/31/23 236/32/19 222/34/6
f 238/31/23 222/34/6 237/35/21
f 232/33/17 238/31/23 239/36/22
f 232/33/17 239/36/22 231/37/15
f 234/38/18 230/39/13 224/40/9
f 224/40/9 230/39/13 227/41/11
f 224/40/9 227/41/11 223/42/7
f 234/38/18 224/40/9 225/43/8
f 234/38/18 225/43/8 233/44/16
f 218/11/3 228/12/12 240/7/24
f 218/11/3 240/7/24 237/10/21
f 218/11/3 237/10/21 217/45/1
f 231/38/15 239/40/22 229/39/14
f 229/39/14 239/40/22 240/42/24
f 229/39/14 240/42/24 228/41/12
f 233/4/16 236/6/19 232/1/17
f 233/4/16 235/5/20 236/6/19
f 219/20/2 228/22/12 218/17/3
f 219/20/2 227/21/11 228/22/12
