# Blender 4.1.0
# www.blender.org
mtllib MeshPlate_10_0_GeomSubset_1.mtl
o MeshPlate_10_0_GeomSubset_1
v -0.088112 -0.090980 -0.062549
v -0.090556 -0.093244 -0.058533
v -0.093244 -0.090560 -0.058599
v -0.090980 -0.088112 -0.062549
v 0.090980 -0.088112 -0.062549
v 0.093244 -0.090556 -0.058533
v 0.090560 -0.093244 -0.058599
v 0.088112 -0.090980 -0.062549
v -0.089899 -0.087058 -0.056043
v -0.087058 -0.089899 -0.056043
v 0.087058 -0.089899 -0.056043
v 0.089899 -0.087058 -0.056043
v -0.087058 0.089899 -0.056043
v -0.090560 0.093244 -0.058599
v -0.093244 0.090556 -0.058533
v -0.089899 0.087058 -0.056043
v 0.089899 0.087058 -0.056043
v 0.093244 0.090560 -0.058599
v 0.090556 0.093244 -0.058533
v 0.087058 0.089899 -0.056043
v -0.090980 0.088112 -0.062549
v -0.088112 0.090980 -0.062549
v 0.088112 0.090980 -0.062549
v 0.090980 0.088112 -0.062549
v -0.065225 -0.062515 -0.068970
v -0.062498 -0.065260 -0.068952
v -0.061396 -0.061396 -0.069933
v 0.061396 -0.061396 -0.069933
v 0.062515 -0.065225 -0.068970
v 0.065225 -0.062515 -0.068970
v 0.061396 0.061396 -0.069933
v 0.065225 0.062515 -0.068970
v 0.062515 0.065225 -0.068970
v -0.061396 0.061396 -0.069933
v -0.062515 0.065225 -0.068970
v -0.065225 0.062515 -0.068970
v -0.065231 0.062519 -0.075654
v -0.062503 0.065264 -0.075637
v -0.061398 0.061398 -0.076592
v 0.061398 0.061398 -0.076592
v 0.062519 0.065231 -0.075654
v 0.065231 0.062519 -0.075654
v 0.061398 -0.061398 -0.076592
v 0.065231 -0.062519 -0.075654
v 0.062519 -0.065231 -0.075654
v -0.061398 -0.061398 -0.076592
v -0.062519 -0.065231 -0.075654
v -0.065231 -0.062519 -0.075654
v -0.090598 -0.093326 -0.058370
v -0.093328 -0.090601 -0.058436
v 0.093326 -0.090598 -0.058370
v 0.090601 -0.093328 -0.058436
v -0.089937 -0.087062 -0.055859
v -0.087063 -0.089937 -0.055859
v 0.087062 -0.089938 -0.055859
v 0.089937 -0.087063 -0.055859
v -0.087062 0.089938 -0.055859
v -0.090601 0.093328 -0.058436
v -0.093326 0.090598 -0.058370
v -0.089937 0.087063 -0.055859
v 0.089937 0.087062 -0.055859
v 0.093328 0.090601 -0.058436
v 0.090598 0.093326 -0.058370
v 0.087063 0.089937 -0.055859
v -0.065164 -0.062497 -0.068794
v -0.062480 -0.065199 -0.068775
v -0.061377 -0.061377 -0.069747
v 0.061377 -0.061377 -0.069747
v 0.062497 -0.065164 -0.068794
v 0.065164 -0.062497 -0.068794
v 0.061377 0.061377 -0.069747
v 0.065164 0.062497 -0.068794
v 0.062497 0.065164 -0.068794
v -0.061377 0.061377 -0.069747
v -0.062497 0.065164 -0.068794
v -0.065164 0.062497 -0.068794
vn 0.1406 0.0096 0.9900
vn 0.0095 0.1398 0.9901
vn 0.0056 0.4468 0.8946
vn 0.4468 0.0057 0.8946
vn -0.9966 -0.0242 0.0787
vn 0.1402 -0.0095 0.9901
vn -0.9968 0.0242 0.0756
vn -0.0242 -0.9968 0.0756
vn 0.0242 -0.9966 0.0787
vn -0.0095 0.1404 0.9900
vn -0.1402 0.0095 0.9901
vn -0.4468 0.0056 0.8946
vn -0.0056 0.4469 0.8946
vn 0.9968 -0.0242 0.0756
vn 0.9966 0.0242 0.0788
vn -0.1406 -0.0095 0.9900
vn 0.0095 -0.1406 0.9900
vn 0.4468 -0.0056 0.8946
vn 0.0056 -0.4468 0.8946
vn -0.0242 0.9966 0.0787
vn -0.0096 -0.1403 0.9901
vn 0.0242 0.9968 0.0756
vn -0.0056 -0.4468 0.8946
vn -0.4469 -0.0057 0.8946
vn 0.0087 0.0089 0.9999
vn 0.0088 -0.0088 0.9999
vn -0.0087 0.0088 0.9999
vn -0.0087 -0.0088 0.9999
vt 0.029404 2.977793
vt 0.022207 2.970595
vt 0.045131 2.946200
vt 0.053747 2.954758
vt 0.020530 2.986269
vt 0.470596 2.977793
vt 0.479457 2.986269
vt 0.013731 2.979457
vt 0.013731 2.520530
vt 0.022207 2.529404
vt 0.029404 2.522206
vt 0.053747 2.545241
vt 0.045241 2.553746
vt 0.020542 2.513731
vt 0.479470 2.513731
vt 0.470596 2.522206
vt 0.477793 2.970595
vt 0.446253 2.954758
vt 0.454759 2.946254
vt 0.486269 2.979470
vt 0.477793 2.529404
vt 0.486269 2.520542
vt 0.454759 2.553746
vt 0.446253 2.545241
vt 0.057260 2.942739
vt 0.442740 2.942739
vt 0.057260 2.557260
vt 0.442740 2.557260
s 1
usemtl M_Plate_10_1
f 53/1/1 54/2/2 66/3/3 65/4/4
f 50/5/5 53/1/1 60/6/6 59/7/7
f 54/2/2 49/8/8 52/9/9 55/10/10
f 55/10/10 56/11/11 70/12/12 69/13/13
f 56/11/11 51/14/14 62/15/15 61/16/16
f 57/17/17 60/6/6 76/18/18 75/19/19
f 58/20/20 57/17/17 64/21/21 63/22/22
f 61/16/16 64/21/21 73/23/23 72/24/24
f 65/4/4 67/25/25 74/26/26 76/18/18
f 67/25/25 66/3/3 69/13/13 68/27/27
f 68/27/27 70/12/12 72/24/24 71/28/28
f 71/28/28 73/23/23 75/19/19 74/26/26
f 67/25/25 68/27/27 71/28/28 74/26/26
f 54/2/2 55/10/10 69/13/13 66/3/3
f 56/11/11 61/16/16 72/24/24 70/12/12
f 64/21/21 57/17/17 75/19/19 73/23/23
f 60/6/6 53/1/1 65/4/4 76/18/18
f 53/1/1 50/5/5 49/8/8 54/2/2
f 55/10/10 52/9/9 51/14/14 56/11/11
f 57/17/17 58/20/20 59/7/7 60/6/6
f 61/16/16 62/15/15 63/22/22 64/21/21
f 65/4/4 66/3/3 67/25/25
f 68/27/27 69/13/13 70/12/12
f 71/28/28 72/24/24 73/23/23
f 74/26/26 75/19/19 76/18/18
