# Blender 4.1.1
# www.blender.org
mtllib AlarmClockButton_9_AlarmClockButton_9_1_GeomSubset_2.mtl
o AlarmClockButton_9_AlarmClockButton_9_1_GeomSubset_2
v 0.000500 -0.000500 -0.383913
v -0.000500 -0.000500 -0.383913
v 0.000500 0.000500 -0.383913
v -0.000500 0.000500 -0.383913
v 0.000500 -0.000500 -0.383913
v -0.000500 -0.000500 -0.383913
v 0.000500 0.000500 -0.383913
v -0.000500 0.000500 -0.383913
v 0.000500 -0.000500 -0.383913
v -0.000500 -0.000500 -0.383913
v 0.000500 0.000500 -0.383913
v -0.000500 0.000500 -0.383913
v 0.000500 -0.000500 -0.383913
v -0.000500 -0.000500 -0.383913
v 0.000500 0.000500 -0.383913
v -0.000500 0.000500 -0.383913
v 0.000500 -0.000500 -0.383913
v -0.000500 -0.000500 -0.383913
v 0.000500 0.000500 -0.383913
v -0.000500 0.000500 -0.383913
v 0.048340 -0.014668 0.114399
v 0.045923 -0.017086 0.114399
v 0.045923 -0.014668 0.116816
v -0.045923 -0.014668 0.116816
v -0.045923 -0.017086 0.114399
v -0.048340 -0.014668 0.114399
v 0.048340 0.014668 0.114399
v 0.045923 0.014668 0.116816
v 0.045923 0.017086 0.114399
v -0.045923 0.017086 0.114399
v -0.045923 0.014668 0.116816
v -0.048340 0.014668 0.114399
v 0.045923 -0.017086 0.098591
v 0.048340 -0.014668 0.098591
v -0.048340 -0.014668 0.098591
v -0.045923 -0.017086 0.098591
v 0.048340 0.014668 0.098591
v 0.045923 0.017086 0.098591
v -0.045923 0.017086 0.098591
v -0.048340 0.014668 0.098591
v 0.030616 0.017086 0.098591
v 0.030616 0.017086 0.121326
v 0.030616 0.014667 0.123743
v 0.030616 -0.014668 0.123743
v 0.030616 -0.017086 0.121326
v 0.030616 -0.017086 0.098591
v 0.015308 0.017086 0.098591
v 0.015308 0.017086 0.125565
v 0.015308 0.014667 0.127982
v 0.015308 -0.014668 0.127982
v 0.015308 -0.017086 0.125565
v 0.015308 -0.017086 0.098591
v 0.000000 0.017086 0.098591
v 0.000000 0.017086 0.127158
v 0.000000 0.014667 0.129574
v 0.000000 -0.014668 0.129574
v 0.000000 -0.017086 0.127158
v 0.000000 -0.017086 0.098591
v -0.015308 0.017086 0.098591
v -0.015308 0.017086 0.125565
v -0.015308 0.014667 0.127982
v -0.015308 -0.014668 0.127982
v -0.015308 -0.017086 0.125565
v -0.015308 -0.017086 0.098591
v -0.030616 0.017086 0.098591
v -0.030616 0.017086 0.121326
v -0.030616 0.014667 0.123743
v -0.030616 -0.014668 0.123743
v -0.030616 -0.017086 0.121326
v -0.030616 -0.017086 0.098591
vn -0.0000 -0.0000 -1.0000
vn -0.7442 0.4897 -0.4542
vn -0.5402 0.5046 -0.6734
vn -0.5403 -0.5045 -0.6735
vn -0.7443 -0.4894 -0.4544
vn -0.5586 0.7285 -0.3966
vn -0.8146 0.5800 -0.0000
vn -0.5577 0.8300 -0.0000
vn 0.2733 0.5640 -0.7793
vn 0.2185 0.7845 -0.5803
vn 0.5587 0.7285 -0.3965
vn 0.5403 0.5046 -0.6733
vn 0.7443 0.4895 -0.4543
vn 0.7443 -0.4895 -0.4542
vn 0.5403 -0.5045 -0.6735
vn 0.5577 0.8300 0.0001
vn 0.8146 0.5800 -0.0000
vn -0.5587 -0.7283 -0.3967
vn -0.5578 -0.8300 -0.0000
vn -0.8147 -0.5798 -0.0000
vn 0.2185 -0.7844 -0.5806
vn 0.2734 -0.5638 -0.7793
vn 0.5588 -0.7284 -0.3966
vn 0.8147 -0.5798 -0.0000
vn 0.5578 -0.8300 -0.0000
vn -0.0000 1.0000 -0.0000
vn -0.0000 -1.0000 -0.0000
vn -0.2185 -0.7844 -0.5806
vn -0.2734 -0.5638 -0.7793
vn -0.2733 0.5640 -0.7793
vn -0.2185 0.7844 -0.5804
vn -0.1188 -0.7882 -0.6039
vn -0.1475 -0.5732 -0.8060
vn -0.1501 0.5733 -0.8055
vn -0.1188 0.7883 -0.6037
vn -0.0000 -0.7879 -0.6158
vn -0.0000 -0.5728 -0.8197
vn -0.0000 0.5730 -0.8195
vn -0.0001 0.7880 -0.6157
vn 0.1188 -0.7882 -0.6039
vn 0.1475 -0.5732 -0.8060
vn 0.1501 0.5733 -0.8055
vn 0.1187 0.7883 -0.6038
vt -7.189819 -5.333173
vt -7.189819 -5.341045
vt -7.181947 -5.341045
vt -7.181947 -5.333173
vt -6.950371 0.848381
vt -6.947889 0.848381
vt -6.947889 0.878507
vt -6.950371 0.878507
vt -6.950371 0.845898
vt -6.966605 0.848381
vt -6.966605 0.845898
vt -7.642926 0.332270
vt -7.645406 0.332270
vt -7.645406 0.316566
vt -7.642926 0.316566
vt -7.096829 0.878507
vt -7.099310 0.878507
vt -7.099310 0.848381
vt -7.096829 0.848381
vt -7.099310 0.880990
vt -7.115545 0.880990
vt -7.115545 0.878507
vt -6.950371 0.880990
vt -6.966605 0.880990
vt -6.966605 0.878507
vt -7.610350 0.332270
vt -7.612830 0.332270
vt -7.612830 0.316566
vt -7.610350 0.316566
vt -7.099310 0.845898
vt -7.115545 0.848381
vt -7.115545 0.845898
vt -7.366964 0.333781
vt -7.389166 0.333781
vt -7.389166 0.318832
vt -7.373729 0.318832
vt -7.151812 0.333781
vt -7.145047 0.318832
vt -7.129610 0.318832
vt -7.129610 0.333781
vt -7.145047 0.408526
vt -7.151812 0.393577
vt -7.129610 0.393577
vt -7.129610 0.408526
vt -7.610350 0.410792
vt -7.612830 0.410792
vt -7.612830 0.395088
vt -7.610350 0.395088
vt -7.642926 0.410792
vt -7.642926 0.395088
vt -7.645406 0.410792
vt -7.645406 0.395088
vt -7.373729 0.408526
vt -7.389166 0.408526
vt -7.389166 0.393577
vt -7.366964 0.393577
vt -7.155951 0.378628
vt -7.129610 0.378628
vt -7.612830 0.379383
vt -7.610350 0.379383
vt -7.642926 0.379383
vt -7.645406 0.379383
vt -7.389166 0.378628
vt -7.362824 0.378628
vt -7.157506 0.363679
vt -7.129610 0.363679
vt -7.612830 0.363679
vt -7.610350 0.363679
vt -7.642926 0.363679
vt -7.645406 0.363679
vt -7.389166 0.363679
vt -7.361269 0.363679
vt -7.155951 0.348730
vt -7.129610 0.348730
vt -7.612830 0.347975
vt -7.610350 0.347975
vt -7.642926 0.347975
vt -7.645406 0.347975
vt -7.389166 0.348730
vt -7.362824 0.348730
s 1
usemtl M_AlarmClockButton_9_2
f 9/1/1 10/2/1 12/3/1 11/4/1
f 21/5/2 23/6/3 28/7/4 27/8/5
f 22/9/6 21/5/2 34/10/7 33/11/8
f 68/12/9 69/13/10 25/14/11 24/15/12
f 24/16/12 26/17/13 32/18/14 31/19/15
f 26/17/13 25/20/11 36/21/16 35/22/17
f 27/8/5 29/23/18 38/24/19 37/25/20
f 66/26/21 67/27/22 31/28/15 30/29/23
f 30/30/23 32/18/14 40/31/24 39/32/25
f 69/33/10 70/34/26 36/35/16 25/36/11
f 68/12/9 24/15/12 31/28/15 67/27/22
f 66/37/21 30/38/23 39/39/25 65/40/27
f 26/17/13 35/22/17 40/31/24 32/18/14
f 27/8/5 37/25/20 34/10/7 21/5/2
f 21/5/2 22/9/6 23/6/3
f 24/16/12 25/20/11 26/17/13
f 27/8/5 28/7/4 29/23/18
f 30/30/23 31/19/15 32/18/14
f 29/41/18 42/42/28 41/43/27 38/44/19
f 29/45/18 28/46/4 43/47/29 42/48/28
f 23/49/3 44/50/30 43/47/29 28/46/4
f 23/49/3 22/51/6 45/52/31 44/50/30
f 22/53/6 33/54/8 46/55/26 45/56/31
f 42/42/28 48/57/32 47/58/27 41/43/27
f 42/48/28 43/47/29 49/59/33 48/60/32
f 44/50/30 50/61/34 49/59/33 43/47/29
f 44/50/30 45/52/31 51/62/35 50/61/34
f 45/56/31 46/55/26 52/63/26 51/64/35
f 48/57/32 54/65/36 53/66/27 47/58/27
f 48/60/32 49/59/33 55/67/37 54/68/36
f 50/61/34 56/69/38 55/67/37 49/59/33
f 50/61/34 51/62/35 57/70/39 56/69/38
f 51/64/35 52/63/26 58/71/26 57/72/39
f 54/65/36 60/73/40 59/74/27 53/66/27
f 54/68/36 55/67/37 61/75/41 60/76/40
f 56/69/38 62/77/42 61/75/41 55/67/37
f 56/69/38 57/70/39 63/78/43 62/77/42
f 57/72/39 58/71/26 64/79/26 63/80/43
f 60/73/40 66/37/21 65/40/27 59/74/27
f 60/76/40 61/75/41 67/27/22 66/26/21
f 62/77/42 68/12/9 67/27/22 61/75/41
f 62/77/42 63/78/43 69/13/10 68/12/9
f 63/80/43 64/79/26 70/34/26 69/33/10
