# Blender 4.1.0
# www.blender.org
mtllib DressermeshSideTable_302_1_0.mtl
o SideTable_302_1
v -0.259734 -0.135719 -0.334324
v -0.259734 -0.135719 0.292151
v -0.259734 -0.094526 0.292151
v -0.259734 -0.094526 -0.334324
v -0.303130 -0.139349 -0.334324
v -0.303130 -0.139349 0.292151
v -0.262880 -0.139349 0.292151
v -0.262880 -0.139349 -0.334324
v -0.306277 -0.094526 -0.334324
v -0.306277 -0.094526 0.292151
v -0.306277 -0.135719 0.292151
v -0.306277 -0.135719 -0.334324
v -0.262880 -0.094526 -0.334822
v -0.303130 -0.094526 -0.334822
v -0.303130 -0.135719 -0.334822
v -0.262880 -0.135719 -0.334822
v -0.303130 -0.094526 0.292649
v -0.262880 -0.094526 0.292649
v -0.262880 -0.135719 0.292649
v -0.303130 -0.135719 0.292649
v -0.262880 -0.090896 -0.334324
v -0.262880 -0.090896 0.292151
v -0.303130 -0.090896 0.292151
v -0.303130 -0.090896 -0.334324
v -0.259734 0.168975 -0.334324
v -0.259734 0.168975 0.292151
v -0.259734 0.210168 0.292150
v -0.259734 0.210168 -0.334324
v -0.303130 0.165346 -0.334324
v -0.303130 0.165346 0.292151
v -0.262880 0.165346 0.292151
v -0.262880 0.165346 -0.334324
v -0.306277 0.210168 -0.334324
v -0.306277 0.210168 0.292150
v -0.306277 0.168975 0.292151
v -0.306277 0.168975 -0.334324
v -0.262880 0.210168 -0.334822
v -0.303130 0.210168 -0.334822
v -0.303130 0.168975 -0.334822
v -0.262880 0.168975 -0.334822
v -0.303130 0.210168 0.292649
v -0.262880 0.210168 0.292649
v -0.262880 0.168975 0.292649
v -0.303130 0.168975 0.292649
v -0.262880 0.213798 -0.334324
v -0.262880 0.213798 0.292151
v -0.303130 0.213798 0.292151
v -0.303130 0.213798 -0.334324
v 0.262702 -0.094526 -0.334822
v 0.262702 -0.135720 -0.334822
v 0.302951 -0.135720 -0.334822
v 0.302951 -0.094526 -0.334822
v 0.302951 -0.139349 -0.334324
v 0.262702 -0.139349 -0.334324
v 0.262702 -0.139349 0.292151
v 0.302951 -0.139349 0.292151
v 0.306098 -0.094526 -0.334324
v 0.306098 -0.135720 -0.334324
v 0.306098 -0.135720 0.292151
v 0.306098 -0.094526 0.292151
v 0.302951 -0.094526 0.292649
v 0.302951 -0.135720 0.292649
v 0.262702 -0.135720 0.292649
v 0.262702 -0.094526 0.292649
v 0.259555 -0.135720 -0.334324
v 0.259555 -0.094526 -0.334324
v 0.259555 -0.094526 0.292151
v 0.259555 -0.135720 0.292151
v 0.262702 -0.090897 -0.334324
v 0.302951 -0.090897 -0.334324
v 0.302951 -0.090897 0.292151
v 0.262702 -0.090897 0.292151
v 0.302951 0.165345 -0.334324
v 0.262702 0.165345 -0.334324
v 0.262702 0.165345 0.292151
v 0.302951 0.165345 0.292151
v 0.306098 0.210168 -0.334324
v 0.306098 0.168975 -0.334324
v 0.306098 0.168975 0.292151
v 0.306098 0.210168 0.292150
v 0.302951 0.210168 0.292649
v 0.302951 0.168975 0.292649
v 0.262702 0.168975 0.292649
v 0.262702 0.210168 0.292649
v 0.259555 0.168975 -0.334324
v 0.259555 0.210168 -0.334324
v 0.259555 0.210168 0.292150
v 0.259555 0.168975 0.292151
v 0.262702 0.213797 -0.334324
v 0.302951 0.213797 -0.334324
v 0.302951 0.213797 0.292151
v 0.262702 0.213797 0.292151
v 0.262702 0.168975 -0.334822
v 0.262702 0.210168 -0.334822
v 0.302951 0.168975 -0.334822
v 0.302951 0.210168 -0.334822
v -0.281910 -0.090633 -0.302600
v -0.281910 -0.090634 0.290300
v -0.281910 0.166313 0.290300
v -0.281910 0.166313 -0.302601
v -0.305186 0.166313 0.290300
v -0.305186 0.166313 -0.302601
v -0.305186 -0.090634 0.290300
v -0.305186 -0.090633 -0.302600
v 0.282743 -0.090634 -0.302600
v 0.282743 0.166312 -0.302601
v 0.282743 0.166312 0.290300
v 0.282743 -0.090634 0.290300
v 0.306019 0.166312 -0.302601
v 0.306019 0.166312 0.290300
v 0.306019 -0.090634 -0.302600
v 0.306019 -0.090634 0.290300
v -0.264303 0.188266 -0.302601
v -0.264303 0.188266 0.290300
v 0.264124 0.188266 0.290300
v 0.264124 0.188266 -0.302601
v 0.264124 0.215112 0.290300
v 0.264124 0.215112 -0.302601
v -0.264303 0.215113 0.290300
v -0.264303 0.215113 -0.302601
v -0.264303 0.116325 -0.302600
v 0.264124 0.116324 -0.302600
v 0.264124 0.116324 0.290300
v -0.264303 0.116324 0.290300
v 0.264124 -0.137595 -0.302600
v 0.264124 -0.137595 -0.006150
v 0.264124 -0.137595 0.290300
v -0.254733 -0.137594 -0.015720
v -0.254733 0.092993 -0.015720
v -0.254733 0.092993 -0.293031
v -0.254733 -0.137594 -0.293031
v -0.264303 -0.137594 0.290300
v -0.264303 -0.137594 -0.006150
v -0.264303 -0.137594 -0.302600
v -0.044914 -0.137595 -0.302600
v -0.044914 -0.137595 0.290300
v 0.254554 -0.137595 -0.293031
v 0.254554 0.092993 -0.293031
v 0.254554 0.092993 -0.015720
v 0.254554 -0.137595 -0.015720
v -0.044914 -0.137595 0.280730
v -0.044914 0.092993 0.280730
v -0.044914 0.092993 0.003420
v -0.044914 -0.137595 0.003420
v -0.044914 -0.137595 -0.293031
v -0.044914 -0.137594 -0.015720
v -0.044914 -0.137595 -0.006150
v 0.254554 -0.137595 0.003420
v 0.254554 -0.137595 0.280730
v -0.254733 -0.137594 0.003420
v -0.254733 -0.137594 0.280730
v -0.254733 0.092993 0.003420
v -0.254733 0.092993 0.280730
v -0.044914 0.092993 -0.293031
v -0.044914 0.092993 -0.015720
v 0.254554 0.092993 0.003420
v 0.254554 0.092993 0.280730
v 0.306223 -0.142632 0.294282
v -0.306223 -0.142631 0.294282
v -0.306223 -0.142631 0.327890
v 0.306223 -0.142632 0.327890
v 0.310174 0.213133 0.294282
v 0.310174 -0.138074 0.294282
v 0.310174 -0.138074 0.327890
v 0.310174 0.213133 0.327890
v 0.306223 0.213133 0.333235
v 0.306223 -0.138074 0.333235
v -0.306223 -0.138074 0.333235
v -0.306223 0.213133 0.333235
v -0.310175 -0.138074 0.294282
v -0.310175 0.213133 0.294282
v -0.310175 0.213133 0.327890
v -0.310175 -0.138074 0.327890
v -0.306223 0.217690 0.294282
v 0.306223 0.217690 0.294282
v 0.306223 0.217690 0.327890
v -0.306223 0.217690 0.327890
v -0.306223 -0.138074 0.288937
v -0.306223 0.213133 0.288937
v 0.306223 -0.138074 0.288937
v 0.306223 0.213133 0.288937
vn 1.0000 -0.0000 -0.0000
vn -0.0000 -1.0000 -0.0000
vn -1.0000 -0.0000 -0.0000
vn -0.0000 -0.0000 -1.0000
vn -0.0000 -0.0000 1.0000
vn -0.0000 1.0000 -0.0000
vn 0.1550 -0.1344 -0.9787
vn 0.1551 -0.1344 0.9787
vn 0.1550 0.1344 -0.9787
vn 0.1551 0.1344 0.9787
vn -0.1550 -0.1344 -0.9787
vn -0.1551 -0.1344 0.9787
vn -0.1550 0.1344 -0.9787
vn -0.1551 0.1344 0.9787
vn 0.1564 -0.0000 -0.9877
vn 0.7556 -0.6550 -0.0000
vn 0.1565 -0.0000 0.9877
vn 0.7556 0.6550 -0.0000
vn -0.0000 0.1360 -0.9907
vn -0.0000 0.1361 0.9907
vn -0.7556 0.6550 -0.0000
vn -0.1564 -0.0000 -0.9877
vn -0.1565 -0.0000 0.9877
vn -0.7556 -0.6551 -0.0000
vn -0.0000 -0.1360 -0.9907
vn -0.0000 -0.1361 0.9907
vn 0.1550 -0.1344 0.9787
vn 0.1550 0.1344 0.9787
vn -0.1550 -0.1344 0.9787
vn -0.1550 0.1344 0.9787
vn 0.1565 -0.0000 -0.9877
vn 0.7556 -0.6551 -0.0000
vn 0.1564 -0.0000 0.9877
vn 0.7556 0.6551 -0.0000
vn -0.0000 0.1360 0.9907
vn -0.7556 0.6551 -0.0000
vn -0.1564 -0.0000 0.9877
vn -0.0000 -0.1361 -0.9907
vn -0.0000 -0.1360 0.9907
vn -0.7555 -0.6551 -0.0000
vn 0.7553 -0.6553 -0.0000
vn 0.7552 -0.6554 -0.0000
vn 0.7555 -0.6551 -0.0000
vn -0.6596 -0.5719 -0.4877
vn -0.6596 -0.5719 0.4877
vn -0.6596 0.5719 -0.4877
vn -0.6596 0.5719 0.4877
vn 0.6597 -0.5719 -0.4877
vn 0.6597 -0.5719 0.4876
vn 0.6596 0.5719 -0.4877
vn 0.6596 0.5719 0.4876
vn -0.8041 -0.0000 -0.5945
vn -0.8041 -0.0000 0.5945
vn -0.7555 0.6551 -0.0000
vn -0.0000 0.7609 -0.6488
vn -0.0000 0.7609 0.6488
vn -0.0000 0.7610 0.6488
vn 0.8041 -0.0000 -0.5945
vn 0.8041 -0.0000 0.5944
vn 0.8041 -0.0000 0.5945
vn -0.0000 -0.7609 -0.6489
vn -0.0000 -0.7609 -0.6488
vn -0.0000 -0.7609 0.6488
vn -0.0000 -0.7609 0.6489
vt 0.269002 0.495914
vt 0.290525 0.823232
vt 0.269002 0.823232
vt 0.290525 0.495914
vt 0.805193 0.495914
vt 0.826222 0.823232
vt 0.805193 0.823232
vt 0.826222 0.495914
vt 0.826222 0.290525
vt 0.805193 0.269002
vt 0.805193 0.290525
vt 0.826222 0.269002
vt 0.827867 0.269002
vt 0.826222 0.267106
vt 0.826222 0.292421
vt 0.827867 0.290525
vt 0.805193 0.267106
vt 0.803549 0.269002
vt 0.803549 0.290525
vt 0.805193 0.292421
vt 0.267106 0.823232
vt 0.267106 0.495914
vt 0.292421 0.495914
vt 0.292421 0.823232
vt 0.428198 0.495914
vt 0.449720 0.823232
vt 0.428198 0.823232
vt 0.449720 0.495914
vt 0.805193 0.495914
vt 0.826222 0.495914
vt 0.826222 0.449720
vt 0.805193 0.428198
vt 0.805193 0.449720
vt 0.826222 0.428198
vt 0.827867 0.428198
vt 0.826222 0.426302
vt 0.826222 0.451616
vt 0.827867 0.449720
vt 0.805193 0.426302
vt 0.803549 0.428198
vt 0.803549 0.449720
vt 0.805193 0.451616
vt 0.426302 0.823232
vt 0.426302 0.495914
vt 0.451616 0.495914
vt 0.451616 0.823232
vt 0.376522 0.290525
vt 0.397551 0.269002
vt 0.376522 0.269002
vt 0.397551 0.290525
vt 0.397551 0.495914
vt 0.376522 0.823232
vt 0.376522 0.495914
vt 0.397551 0.823232
vt 0.376522 0.267106
vt 0.374878 0.269002
vt 0.374878 0.290525
vt 0.376522 0.292421
vt 0.399195 0.269002
vt 0.397551 0.267106
vt 0.397551 0.292421
vt 0.399195 0.290525
vt 0.397551 0.495914
vt 0.376522 0.495914
vt 0.397551 0.449720
vt 0.376522 0.428198
vt 0.397551 0.428198
vt 0.376522 0.449720
vt 0.376522 0.426302
vt 0.374878 0.428198
vt 0.374878 0.449720
vt 0.376522 0.451616
vt 0.399195 0.428198
vt 0.397551 0.426302
vt 0.397551 0.451616
vt 0.399195 0.449720
vt 0.292558 0.512488
vt 0.426807 0.822265
vt 0.292558 0.822265
vt 0.426807 0.512488
vt 0.816280 0.512488
vt 0.804119 0.822265
vt 0.816280 0.822265
vt 0.804119 0.512488
vt 0.804119 0.512488
vt 0.816280 0.822265
vt 0.804119 0.822265
vt 0.816280 0.512488
vt 0.816280 0.426807
vt 0.804119 0.292558
vt 0.804119 0.426807
vt 0.816280 0.292558
vt 0.386993 0.512488
vt 0.399154 0.822265
vt 0.399154 0.512488
vt 0.386993 0.822265
vt 0.399154 0.512488
vt 0.386993 0.822265
vt 0.386993 0.512488
vt 0.399154 0.822265
vt 0.386993 0.426807
vt 0.399154 0.292558
vt 0.386993 0.292558
vt 0.399154 0.426807
vt 0.825479 0.512488
vt 1.377265 0.822265
vt 0.825479 0.822265
vt 1.377265 0.512488
vt 0.438277 0.512488
vt 0.452303 0.822265
vt 0.438277 0.822265
vt 0.452303 0.512488
vt 0.377265 0.512488
vt -0.174521 0.822265
vt 0.377265 0.822265
vt -0.174521 0.512488
vt 0.377265 0.438277
vt -0.174521 0.452303
vt 0.377265 0.452303
vt -0.174521 0.438277
vt 0.825479 0.512488
vt 1.377265 0.822265
vt 1.377265 0.512488
vt 0.825479 0.822265
vt 0.400688 0.512489
vt 0.268023 0.667377
vt 0.268023 0.512488
vt 0.268023 0.822265
vt 0.400685 0.822265
vt 0.268023 0.662377
vt 0.388499 0.517488
vt 0.388499 0.662377
vt 0.268023 0.517488
vt 0.400688 0.822265
vt 0.400685 0.512488
vt 0.082388 0.268022
vt 0.116299 0.400687
vt 0.377265 0.268023
vt -0.451896 0.400687
vt -0.174521 0.268023
vt -0.355810 0.400687
vt 0.377265 0.400685
vt 0.078301 0.268022
vt 0.372265 0.662377
vt 0.377265 0.512488
vt 0.377265 0.667377
vt 0.372265 0.517488
vt 0.083820 0.512489
vt 0.097595 0.517488
vt 0.098976 0.662377
vt 0.088321 0.667377
vt 0.106154 0.517488
vt -0.174521 0.512488
vt -0.169521 0.517488
vt 0.372265 0.672377
vt 0.372265 0.817265
vt 0.377265 0.822265
vt 0.098976 0.817265
vt 0.101372 0.822265
vt 0.106154 0.672377
vt -0.174521 0.667377
vt -0.169521 0.672377
vt 0.097595 0.672376
vt 0.830479 0.517488
vt 0.825479 0.667377
vt 0.825479 0.512488
vt 0.830479 0.662377
vt 1.103707 0.667377
vt 1.109078 0.662377
vt 0.830479 0.672377
vt 0.825479 0.822265
vt 0.830479 0.817265
vt 1.103707 0.822265
vt 1.109078 0.817266
vt 0.109079 0.672377
vt -0.169521 0.817265
vt -0.169521 0.672377
vt 0.109079 0.817265
vt 0.109079 0.517488
vt -0.169521 0.662377
vt 0.109079 0.662377
vt 0.097595 0.662377
vt 0.097595 0.517488
vt 0.372265 0.672377
vt 0.097595 0.817265
vt 0.097595 0.672377
vt 0.097595 0.268022
vt 0.372265 0.388499
vt 0.097595 0.388499
vt 0.372265 0.268023
vt 0.109079 0.268023
vt -0.169521 0.388499
vt 0.109079 0.388499
vt -0.169521 0.268023
vt 0.830479 0.268023
vt 1.109079 0.388499
vt 0.830479 0.388499
vt 1.109079 0.268023
vt 0.268023 0.672377
vt 0.388499 0.817265
vt 0.388499 0.672377
vt 0.268023 0.817265
vt 0.097595 0.388499
vt 0.097595 0.268023
vt 0.109079 0.268023
vt 0.097595 0.388499
vt 0.097595 0.268023
vt 0.399260 0.824345
vt -0.196423 0.841905
vt -0.196423 0.824345
vt 0.399260 0.841905
vt 0.451269 0.824345
vt 0.267772 0.841905
vt 0.267772 0.824345
vt 0.451269 0.841905
vt 0.399260 0.451269
vt -0.196423 0.267772
vt 0.399260 0.267772
vt -0.196423 0.451269
vt 0.803577 0.824345
vt 1.399261 0.841905
vt 1.399261 0.824345
vt 0.803577 0.841905
vt 0.267772 0.821553
vt 0.265391 0.824345
vt 0.265391 0.841905
vt 0.267772 0.844698
vt 0.451269 0.821553
vt 0.453651 0.824345
vt 0.451269 0.844697
vt 0.453651 0.841905
vt 0.399260 0.821553
vt -0.196423 0.821553
vt 0.803577 0.844697
vt 1.399261 0.844697
vt 0.803577 0.821553
vt 1.399261 0.821553
vt 0.399260 0.844698
vt -0.196423 0.844698
vt 0.803577 0.451269
vt 1.399261 0.267772
vt 0.803577 0.267772
vt 1.399261 0.451269
s 1
usemtl M_SideTable_302_1_0
f 1/1/1 3/2/1 2/3/1
f 1/1/1 4/4/1 3/2/1
f 5/5/2 7/6/2 6/7/2
f 5/5/2 8/8/2 7/6/2
f 9/4/3 11/3/3 10/2/3
f 9/4/3 12/1/3 11/3/3
f 13/9/4 15/10/4 14/11/4
f 13/9/4 16/12/4 15/10/4
f 17/11/5 19/12/5 18/9/5
f 17/11/5 20/10/5 19/12/5
f 21/8/6 23/7/6 22/6/6
f 21/8/6 24/5/6 23/7/6
f 16/12/7 1/13/7 8/14/7
f 7/14/8 2/13/8 19/12/8
f 13/9/9 21/15/9 4/16/9
f 18/9/10 3/16/10 22/15/10
f 15/10/11 5/17/11 12/18/11
f 20/10/12 11/18/12 6/17/12
f 14/11/13 9/19/13 24/20/13
f 17/11/14 23/20/14 10/19/14
f 4/16/15 16/12/15 13/9/15
f 4/16/15 1/13/15 16/12/15
f 1/1/16 7/21/16 8/22/16
f 1/1/16 2/3/16 7/21/16
f 2/13/17 18/9/17 19/12/17
f 2/13/17 3/16/17 18/9/17
f 3/2/18 21/23/18 22/24/18
f 3/2/18 4/4/18 21/23/18
f 24/20/19 13/9/19 14/11/19
f 24/20/19 21/15/19 13/9/19
f 22/15/20 17/11/20 18/9/20
f 22/15/20 23/20/20 17/11/20
f 23/24/21 9/4/21 10/2/21
f 23/24/21 24/23/21 9/4/21
f 12/18/22 14/11/22 15/10/22
f 12/18/22 9/19/22 14/11/22
f 10/19/23 20/10/23 17/11/23
f 10/19/23 11/18/23 20/10/23
f 11/3/24 5/22/24 6/21/24
f 11/3/24 12/1/24 5/22/24
f 8/14/25 15/10/25 16/12/25
f 8/14/25 5/17/25 15/10/25
f 6/17/26 19/12/26 20/10/26
f 6/17/26 7/14/26 19/12/26
f 25/25/1 27/26/1 26/27/1
f 25/25/1 28/28/1 27/26/1
f 29/29/2 31/6/2 30/7/2
f 29/29/2 32/30/2 31/6/2
f 33/28/3 35/27/3 34/26/3
f 33/28/3 36/25/3 35/27/3
f 37/31/4 39/32/4 38/33/4
f 37/31/4 40/34/4 39/32/4
f 41/33/5 43/34/5 42/31/5
f 41/33/5 44/32/5 43/34/5
f 45/30/6 47/7/6 46/6/6
f 45/30/6 48/29/6 47/7/6
f 40/34/7 25/35/7 32/36/7
f 31/36/27 26/35/27 43/34/27
f 37/31/9 45/37/9 28/38/9
f 42/31/28 27/38/28 46/37/28
f 39/32/11 29/39/11 36/40/11
f 44/32/29 35/40/29 30/39/29
f 38/33/13 33/41/13 48/42/13
f 41/33/30 47/42/30 34/41/30
f 28/38/15 40/34/15 37/31/15
f 28/38/31 25/35/31 40/34/31
f 25/25/32 31/43/32 32/44/32
f 25/25/32 26/27/32 31/43/32
f 26/35/33 42/31/33 43/34/33
f 26/35/33 27/38/33 42/31/33
f 27/26/34 45/45/34 46/46/34
f 27/26/34 28/28/34 45/45/34
f 48/42/19 37/31/19 38/33/19
f 48/42/19 45/37/19 37/31/19
f 46/37/35 41/33/35 42/31/35
f 46/37/35 47/42/35 41/33/35
f 47/46/36 33/28/36 34/26/36
f 47/46/36 48/45/36 33/28/36
f 36/40/22 38/33/22 39/32/22
f 36/40/22 33/41/22 38/33/22
f 34/41/37 44/32/37 41/33/37
f 34/41/37 35/40/37 44/32/37
f 35/27/24 29/44/24 30/43/24
f 35/27/24 36/25/24 29/44/24
f 32/36/38 39/32/38 40/34/38
f 32/36/38 29/39/38 39/32/38
f 30/39/39 43/34/39 44/32/39
f 30/39/39 31/36/39 43/34/39
f 49/47/4 51/48/4 50/49/4
f 49/47/4 52/50/4 51/48/4
f 53/51/2 55/52/2 54/53/2
f 53/51/2 56/54/2 55/52/2
f 57/4/1 59/3/1 58/1/1
f 57/4/1 60/2/1 59/3/1
f 61/50/5 63/49/5 62/48/5
f 61/50/5 64/47/5 63/49/5
f 65/1/3 67/2/3 66/4/3
f 65/1/3 68/3/3 67/2/3
f 69/53/6 71/54/6 70/51/6
f 69/53/6 72/52/6 71/54/6
f 50/49/11 54/55/11 65/56/11
f 55/55/12 63/49/12 68/56/12
f 49/47/13 66/57/13 69/58/13
f 64/47/30 72/58/30 67/57/30
f 51/48/7 58/59/7 53/60/7
f 62/48/8 56/60/8 59/59/8
f 52/50/9 70/61/9 57/62/9
f 61/50/28 60/62/28 71/61/28
f 49/47/22 65/56/22 66/57/22
f 49/47/22 50/49/22 65/56/22
f 54/22/40 68/3/40 65/1/40
f 54/22/24 55/21/24 68/3/24
f 63/49/23 67/57/23 68/56/23
f 63/49/23 64/47/23 67/57/23
f 72/24/21 66/4/21 67/2/21
f 72/24/21 69/23/21 66/4/21
f 52/50/19 69/58/19 70/61/19
f 52/50/19 49/47/19 69/58/19
f 64/47/20 71/61/20 72/58/20
f 64/47/35 61/50/35 71/61/35
f 60/2/18 70/23/18 71/24/18
f 60/2/18 57/4/18 70/23/18
f 51/48/15 57/62/15 58/59/15
f 51/48/15 52/50/15 57/62/15
f 61/50/33 59/59/33 60/62/33
f 61/50/17 62/48/17 59/59/17
f 56/21/41 58/1/42 59/3/32
f 56/21/43 53/22/43 58/1/43
f 50/49/38 53/60/38 54/55/38
f 50/49/38 51/48/38 53/60/38
f 62/48/26 55/55/26 56/60/26
f 62/48/26 63/49/26 55/55/26
f 73/63/2 75/52/2 74/64/2
f 73/63/2 76/54/2 75/52/2
f 77/28/1 79/27/1 78/25/1
f 77/28/1 80/26/1 79/27/1
f 81/65/5 83/66/5 82/67/5
f 81/65/5 84/68/5 83/66/5
f 85/25/3 87/26/3 86/28/3
f 85/25/3 88/27/3 87/26/3
f 89/64/6 91/54/6 90/63/6
f 89/64/6 92/52/6 91/54/6
f 93/66/11 74/69/11 85/70/11
f 75/69/12 83/66/12 88/70/12
f 94/68/13 86/71/13 89/72/13
f 84/68/14 92/72/14 87/71/14
f 95/67/7 78/73/7 73/74/7
f 82/67/8 76/74/8 79/73/8
f 96/65/9 90/75/9 77/76/9
f 81/65/10 80/76/10 91/75/10
f 94/68/22 85/70/22 86/71/22
f 94/68/22 93/66/22 85/70/22
f 74/44/24 88/27/24 85/25/24
f 74/44/24 75/43/24 88/27/24
f 83/66/23 87/71/23 88/70/23
f 83/66/23 84/68/23 87/71/23
f 92/46/36 86/28/36 87/26/36
f 92/46/36 89/45/36 86/28/36
f 96/65/19 89/72/19 90/75/19
f 96/65/19 94/68/19 89/72/19
f 84/68/35 91/75/35 92/72/35
f 84/68/35 81/65/35 91/75/35
f 80/26/34 90/45/34 91/46/34
f 80/26/34 77/28/34 90/45/34
f 95/67/15 77/76/15 78/73/15
f 95/67/15 96/65/15 77/76/15
f 81/65/17 79/73/17 80/76/17
f 81/65/17 82/67/17 79/73/17
f 76/43/32 78/25/32 79/27/32
f 76/43/32 73/44/32 78/25/32
f 93/66/25 73/74/25 74/69/25
f 93/66/25 95/67/25 73/74/25
f 82/67/26 75/69/26 76/74/26
f 82/67/26 83/66/26 75/69/26
f 94/68/4 95/67/4 93/66/4
f 94/68/4 96/65/4 95/67/4
f 97/77/1 99/78/1 98/79/1
f 97/77/1 100/80/1 99/78/1
f 100/81/6 101/82/6 99/83/6
f 100/81/6 102/84/6 101/82/6
f 102/80/3 103/79/3 101/78/3
f 102/80/3 104/77/3 103/79/3
f 104/85/2 98/86/2 103/87/2
f 104/85/2 97/88/2 98/86/2
f 100/89/4 104/90/4 102/91/4
f 100/89/4 97/92/4 104/90/4
f 101/91/5 98/92/5 99/89/5
f 101/91/5 103/90/5 98/92/5
f 105/77/3 107/78/3 106/80/3
f 105/77/3 108/79/3 107/78/3
f 106/93/6 110/94/6 109/95/6
f 106/93/6 107/96/6 110/94/6
f 109/80/1 112/79/1 111/77/1
f 109/80/1 110/78/1 112/79/1
f 111/97/2 108/98/2 105/99/2
f 111/97/2 112/100/2 108/98/2
f 106/101/4 111/102/4 105/103/4
f 106/101/4 109/104/4 111/102/4
f 110/104/5 108/103/5 112/102/5
f 110/104/5 107/101/5 108/103/5
f 113/105/2 115/106/2 114/107/2
f 113/105/2 116/108/2 115/106/2
f 116/109/1 117/110/1 115/111/1
f 116/109/1 118/112/1 117/110/1
f 118/113/6 119/114/6 117/115/6
f 118/113/6 120/116/6 119/114/6
f 120/112/3 114/111/3 119/110/3
f 120/112/3 113/109/3 114/111/3
f 116/117/4 120/118/4 118/119/4
f 116/117/4 113/120/4 120/118/4
f 117/119/5 114/120/5 115/117/5
f 117/119/5 119/118/5 114/120/5
f 121/121/6 123/122/6 122/123/6
f 121/121/6 124/124/6 123/122/6
f 122/125/1 126/126/1 125/127/1
f 126/126/1 122/125/1 127/128/1
f 127/128/1 122/125/1 123/129/1
f 128/130/1 130/131/1 129/132/1
f 128/130/1 131/133/1 130/131/1
f 124/134/3 133/126/3 132/128/3
f 133/126/3 124/134/3 134/127/3
f 134/127/3 124/134/3 121/135/3
f 135/136/4 122/137/4 125/138/4
f 122/137/4 135/136/4 121/139/4
f 121/139/4 135/136/4 134/140/4
f 124/141/5 127/138/5 123/142/5
f 127/138/5 124/141/5 136/143/5
f 136/143/5 124/141/5 132/140/5
f 137/133/3 139/132/3 138/131/3
f 137/133/3 140/130/3 139/132/3
f 140/144/2 125/145/2 126/146/2
f 140/144/2 137/147/2 125/145/2
f 137/147/2 135/148/2 125/145/2
f 137/147/2 145/149/2 135/148/2
f 146/150/2 140/144/2 126/146/2
f 146/150/2 126/146/2 147/151/2
f 145/152/2 134/153/2 135/148/2
f 145/152/2 131/154/2 134/153/2
f 148/155/2 147/151/2 126/146/2
f 149/156/2 148/155/2 126/146/2
f 149/156/2 126/146/2 127/157/2
f 141/158/2 149/156/2 127/157/2
f 141/158/2 127/157/2 136/159/2
f 144/160/2 133/161/2 147/151/2
f 144/160/2 150/162/2 133/161/2
f 148/155/2 144/163/2 147/151/2
f 131/164/2 133/165/2 134/166/2
f 131/164/2 128/167/2 133/165/2
f 128/167/2 147/168/2 133/165/2
f 128/167/2 146/169/2 147/168/2
f 150/170/2 132/171/2 133/165/2
f 150/170/2 151/172/2 132/171/2
f 151/172/2 136/173/2 132/171/2
f 151/172/2 141/174/2 136/173/2
f 143/175/2 153/176/2 152/177/2
f 143/175/2 142/178/2 153/176/2
f 154/179/2 129/180/2 130/154/2
f 154/179/2 155/181/2 129/180/2
f 138/147/2 155/182/2 154/183/2
f 138/147/2 139/144/2 155/182/2
f 156/184/2 142/185/2 143/186/2
f 156/184/2 157/156/2 142/185/2
f 145/187/5 138/188/5 154/189/5
f 145/187/5 137/190/5 138/188/5
f 141/191/4 153/192/4 142/193/4
f 141/191/4 151/194/4 153/192/4
f 131/195/5 154/196/5 130/197/5
f 131/195/5 145/198/5 154/196/5
f 148/199/3 157/200/3 156/201/3
f 148/199/3 149/202/3 157/200/3
f 140/190/4 155/203/4 139/188/4
f 140/190/4 146/204/4 155/203/4
f 151/202/1 152/201/1 153/200/1
f 151/202/1 150/199/1 152/201/1
f 146/205/4 129/192/4 155/193/4
f 146/205/4 128/194/4 129/192/4
f 149/190/4 142/206/4 157/188/4
f 149/190/4 141/207/4 142/206/4
f 150/195/5 143/196/5 152/197/5
f 150/195/5 144/198/5 143/196/5
f 144/187/5 156/188/5 143/189/5
f 144/187/5 148/190/5 156/188/5
f 158/208/2 160/209/2 159/210/2
f 158/208/2 161/211/2 160/209/2
f 162/212/1 164/213/1 163/214/1
f 162/212/1 165/215/1 164/213/1
f 166/216/5 168/217/5 167/218/5
f 166/216/5 169/219/5 168/217/5
f 170/214/3 172/215/3 171/212/3
f 170/214/3 173/213/3 172/215/3
f 174/220/6 176/221/6 175/222/6
f 174/220/6 177/223/6 176/221/6
f 178/224/44 159/225/44 170/214/44
f 160/226/45 168/227/45 173/213/45
f 179/228/46 171/212/46 174/229/46
f 169/230/47 177/231/47 172/215/47
f 180/224/48 163/214/48 158/225/48
f 167/227/49 161/226/49 164/213/49
f 181/228/50 175/229/50 162/212/50
f 166/230/51 165/215/51 176/231/51
f 179/228/52 170/214/52 171/212/52
f 179/228/52 178/224/52 170/214/52
f 159/225/24 173/213/24 170/214/24
f 159/225/40 160/226/40 173/213/40
f 168/227/53 172/215/53 173/213/53
f 168/227/53 169/230/53 172/215/53
f 177/231/54 171/212/54 172/215/54
f 177/231/54 174/229/54 171/212/54
f 181/232/55 174/210/55 175/208/55
f 181/232/55 179/233/55 174/210/55
f 169/234/56 176/221/56 177/223/56
f 169/234/57 166/235/57 176/221/57
f 165/215/34 175/229/34 176/231/34
f 165/215/34 162/212/34 175/229/34
f 180/224/58 162/212/58 163/214/58
f 180/224/58 181/228/58 162/212/58
f 166/230/59 164/213/59 165/215/59
f 166/230/60 167/227/60 164/213/60
f 161/226/32 163/214/32 164/213/32
f 161/226/32 158/225/32 163/214/32
f 178/236/61 158/222/61 159/220/61
f 178/236/62 180/237/62 158/222/62
f 167/238/63 160/209/63 161/211/63
f 167/238/64 168/239/64 160/209/64
f 179/240/4 180/241/4 178/242/4
f 179/240/4 181/243/4 180/241/4
