# Blender 4.1.1
# www.blender.org
mtllib DrawermeshDresserDrawer_315_6_6.mtl
o DresserDrawer_315_6
v -0.792738 -0.264302 -0.140714
v -0.792739 -0.284832 -0.140714
v -0.792801 -0.284832 0.041423
v -0.792802 -0.264302 0.041423
v -0.788843 -0.288729 -0.140713
v -0.006771 -0.288729 -0.140442
v -0.006834 -0.288729 0.041694
v -0.788907 -0.288729 0.041424
v -0.002939 -0.264302 0.041696
v -0.002939 -0.284832 0.041696
v -0.002876 -0.284834 -0.140441
v -0.002876 -0.264302 -0.140441
v -0.788908 -0.264302 0.045319
v -0.788908 -0.284832 0.045319
v -0.006835 -0.284832 0.045589
v -0.006835 -0.264302 0.045589
v -0.006769 -0.264302 -0.144337
v -0.006769 -0.284832 -0.144337
v -0.788842 -0.284832 -0.144607
v -0.788842 -0.264302 -0.144607
v -0.379522 -0.297413 -0.049343
v -0.379522 -0.303313 -0.049343
v -0.384882 -0.303311 -0.062297
v -0.384882 -0.297409 -0.062297
v -0.384892 -0.297409 -0.036393
v -0.384892 -0.303313 -0.036393
v -0.397842 -0.294257 -0.039524
v -0.397845 -0.297413 -0.031032
v -0.390893 -0.294253 -0.042399
v -0.388014 -0.294257 -0.049346
v -0.404790 -0.294257 -0.042404
v -0.410795 -0.297409 -0.036402
v -0.390889 -0.294253 -0.056295
v -0.397833 -0.297413 -0.067666
v -0.397836 -0.294257 -0.059175
v -0.410787 -0.297413 -0.062306
v -0.404784 -0.294257 -0.056300
v -0.416156 -0.297409 -0.049356
v -0.407665 -0.294257 -0.049353
v -0.390889 -0.288155 -0.056295
v -0.388014 -0.288155 -0.049346
v -0.390893 -0.288153 -0.042399
v -0.416156 -0.303313 -0.049356
v -0.410795 -0.303313 -0.036402
v -0.410787 -0.303313 -0.062306
v -0.397836 -0.288155 -0.059175
v -0.404784 -0.288155 -0.056300
v -0.397833 -0.303313 -0.067666
v -0.397845 -0.303313 -0.031032
v -0.407665 -0.288155 -0.049353
v -0.404790 -0.288155 -0.042404
v -0.397842 -0.288155 -0.039524
v -0.387337 -0.306509 -0.038840
v -0.382982 -0.306509 -0.049344
v -0.397844 -0.306509 -0.034492
v -0.408348 -0.306511 -0.038847
v -0.412696 -0.306511 -0.049355
v -0.408340 -0.306511 -0.059858
v -0.397834 -0.306509 -0.064206
v -0.387330 -0.306509 -0.059851
v -0.788843 -0.260409 -0.140713
v -0.006771 -0.260411 -0.140442
v -0.006834 -0.260411 0.041694
v -0.788907 -0.260409 0.041424
v -0.014324 -0.260409 0.034198
v -0.014267 -0.260409 -0.132951
v -0.781353 -0.260411 -0.133216
v -0.781410 -0.260409 0.033933
v -0.781353 0.210388 -0.133216
v -0.781410 0.210390 0.033933
v -0.014324 0.210388 0.034198
v -0.014267 0.210390 -0.132951
v -0.771411 0.200390 0.033937
v -0.771357 0.200388 -0.124331
v -0.024270 0.200390 -0.124072
v -0.024324 0.200388 0.034195
v -0.771411 -0.250409 0.033936
v -0.024324 -0.250409 0.034195
v -0.024270 -0.250410 -0.124072
v -0.771356 -0.250409 -0.124331
vn 1.0000 -0.0000 0.0003
vn 1.0000 -0.0000 0.0004
vn -0.0000 1.0000 -0.0000
vn -1.0000 -0.0000 -0.0003
vn 0.0003 -0.0000 -1.0000
vn -0.0003 -0.0000 1.0000
vn -0.6070 0.5135 0.6065
vn -0.9295 -0.3688 -0.0004
vn -0.6575 -0.3688 0.6570
vn -0.6071 0.5135 0.6064
vn -0.8581 0.5135 -0.0005
vn -0.9295 -0.3688 -0.0005
vn -0.8581 0.5136 -0.0003
vn -0.6065 0.5135 -0.6070
vn -0.6570 -0.3688 -0.6575
vn -0.8580 0.5136 -0.0001
vn -0.6572 -0.3688 -0.6573
vn -0.9295 -0.3689 -0.0001
vn -0.2462 -0.9547 0.1672
vn 0.3865 -0.9193 0.0743
vn -0.2203 -0.9196 0.3253
vn -0.2461 -0.9549 0.1659
vn 0.2934 -0.9543 -0.0569
vn 0.3866 -0.9193 0.0732
vn -0.0566 -0.9544 0.2930
vn 0.3251 -0.9197 -0.2203
vn 0.0736 -0.9194 0.3864
vn -0.0561 -0.9543 0.2936
vn 0.1673 -0.9548 -0.2456
vn 0.3254 -0.9197 -0.2197
vn -0.2927 -0.9546 -0.0563
vn 0.2465 -0.9546 0.1672
vn 0.2206 -0.9196 0.3252
vn -0.2934 -0.9544 -0.0560
vn 0.2201 -0.9196 0.3254
vn -0.3867 -0.9192 0.0741
vn 0.1671 -0.9547 0.2462
vn 0.0742 -0.9193 -0.3865
vn 0.3253 -0.9196 0.2204
vn 0.1664 -0.9550 0.2457
vn -0.0564 -0.9542 -0.2937
vn 0.0739 -0.9190 -0.3872
vn 0.2930 -0.9545 0.0564
vn -0.2203 -0.9196 -0.3253
vn 0.3865 -0.9193 -0.0738
vn 0.2936 -0.9543 0.0562
vn -0.2457 -0.9548 -0.1671
vn -0.2199 -0.9197 -0.3252
vn 0.2467 -0.9546 -0.1671
vn -0.3860 -0.9195 -0.0742
vn 0.2207 -0.9195 -0.3253
vn -0.2926 -0.9546 0.0560
vn -0.3861 -0.9195 -0.0741
vn 0.0559 -0.9546 -0.2926
vn -0.3257 -0.9194 0.2206
vn -0.0743 -0.9194 -0.3862
vn 0.0557 -0.9547 -0.2922
vn -0.1681 -0.9544 0.2468
vn -0.3262 -0.9192 0.2208
vn -0.1678 -0.9545 -0.2464
vn -0.0748 -0.9193 0.3864
vn -0.3259 -0.9193 -0.2204
vn -0.1679 -0.9544 -0.2467
vn 0.0554 -0.9546 0.2926
vn -0.0747 -0.9195 0.3860
vn -0.5393 0.6470 0.5391
vn -1.0000 -0.0000 -0.0002
vn -0.7626 0.6469 -0.0003
vn -0.5395 0.6469 0.5390
vn -0.7075 -0.0000 0.7067
vn -1.0000 -0.0000 -0.0005
vn -0.7626 0.6468 -0.0004
vn -0.7069 -0.0000 -0.7074
vn -0.5389 0.6469 -0.5395
vn -0.7625 0.6469 0.0001
vn -1.0000 0.0001 0.0001
vn -0.7072 -0.0000 -0.7070
vn 0.6069 0.5136 -0.6066
vn 0.9295 -0.3688 0.0002
vn 0.6574 -0.3689 -0.6571
vn 0.6069 0.5135 -0.6066
vn 0.8581 0.5135 0.0003
vn 0.8580 0.5136 0.0001
vn 0.6067 0.5135 0.6069
vn 0.6571 -0.3688 0.6574
vn 0.6570 -0.3689 0.6575
vn 0.9295 -0.3688 0.0004
vn -0.0001 0.6470 0.7625
vn -0.7072 -0.0000 0.7070
vn -0.5394 0.6468 0.5391
vn -0.0003 0.6469 0.7626
vn -0.0005 0.0001 1.0000
vn -0.7074 -0.0000 0.7068
vn 0.5390 0.6469 0.5394
vn 0.7068 -0.0000 0.7074
vn -0.0004 -0.0000 1.0000
vn 0.5391 0.6469 0.5393
vn -0.0001 -0.0000 1.0000
vn -0.0002 0.6469 0.7626
vn 0.6064 0.5135 0.6071
vn -0.0006 -0.3690 0.9294
vn 0.6569 -0.3688 0.6577
vn 0.6066 0.5135 0.6069
vn -0.0003 0.5135 0.8581
vn -0.0003 -0.3688 0.9295
vn 0.0001 0.5137 0.8580
vn -0.6068 0.5135 0.6068
vn -0.6572 -0.3688 0.6573
vn -0.0006 0.5135 0.8581
vn -0.6577 -0.3689 0.6568
vn -0.0006 -0.3688 0.9295
vn 0.0004 0.5135 -0.8581
vn 0.6576 -0.3689 -0.6569
vn 0.0005 -0.3688 -0.9295
vn 0.0002 0.5136 -0.8580
vn 0.6070 0.5135 -0.6065
vn 0.6575 -0.3688 -0.6571
vn -0.6064 0.5136 -0.6071
vn 0.0006 -0.3689 -0.9295
vn -0.6569 -0.3688 -0.6577
vn -0.6068 0.5136 -0.6066
vn -0.0000 0.5135 -0.8581
vn -0.0000 -0.3688 -0.9295
vn 0.7626 0.6469 0.0005
vn 0.7067 -0.0000 0.7075
vn 0.5388 0.6469 0.5396
vn 1.0000 -0.0000 0.0007
vn 0.5395 0.6469 -0.5390
vn 0.7075 -0.0000 -0.7067
vn 1.0000 -0.0000 0.0005
vn 0.0003 0.6469 -0.7626
vn 0.7074 -0.0000 -0.7069
vn 0.5394 0.6469 -0.5390
vn 0.0004 -0.0000 -1.0000
vn -0.5391 0.6469 -0.5393
vn -0.7069 -0.0001 -0.7073
vn 0.0002 -0.0000 -1.0000
vn -0.5389 0.6469 -0.5396
vn 0.0005 -0.0000 -1.0000
vn 0.0005 0.6469 -0.7626
vn -0.4770 0.8586 0.1877
vn -0.7666 0.4044 -0.4987
vn -0.8949 0.4042 -0.1893
vn -0.4770 0.8587 0.1872
vn -0.2046 0.8587 -0.4699
vn -0.7665 0.4043 -0.4991
vn -0.4698 0.8588 -0.2044
vn 0.1876 0.8589 -0.4766
vn -0.1892 0.4047 -0.8947
vn -0.4696 0.8586 -0.2054
vn -0.1889 0.4039 -0.8951
vn -0.4985 0.4040 -0.7670
vn -0.1872 0.8588 -0.4769
vn 0.4699 0.8587 -0.2044
vn 0.4991 0.4044 -0.7664
vn -0.1874 0.8580 -0.4783
vn 0.4987 0.4031 -0.7673
vn 0.1892 0.4027 -0.8956
vn 0.2058 0.8584 -0.4699
vn 0.4777 0.8583 0.1874
vn 0.8953 0.4034 -0.1890
vn 0.2053 0.8584 -0.4701
vn 0.8951 0.4038 -0.1893
vn 0.7669 0.4037 -0.4989
vn 0.4776 0.8585 -0.1867
vn 0.2049 0.8584 0.4703
vn 0.7666 0.4036 0.4995
vn 0.4772 0.8585 -0.1875
vn 0.7666 0.4042 0.4989
vn 0.8949 0.4041 0.1895
vn -0.3096 0.8991 0.3096
vn -0.3093 0.8992 -0.3094
vn -0.4377 0.8991 -0.0000
vn 0.4698 0.8586 0.2050
vn -0.1874 0.8587 0.4770
vn 0.1892 0.4041 0.8949
vn 0.4695 0.8587 0.2055
vn 0.1886 0.4040 0.8951
vn 0.4983 0.4041 0.7671
vn -0.3097 0.8990 -0.3096
vn -0.3099 0.8990 0.3094
vn -0.0001 0.8991 -0.4377
vn -0.0002 0.8991 -0.4377
vn -0.0005 0.8991 0.4377
vn 0.0002 0.8991 -0.4377
vn -0.0002 0.8991 0.4377
vn 0.3094 0.8991 0.3096
vn 0.1871 0.8588 0.4769
vn -0.4700 0.8587 0.2043
vn -0.4993 0.4043 0.7663
vn 0.1872 0.8584 0.4776
vn -0.4991 0.4037 0.7668
vn -0.1896 0.4036 0.8951
vn -0.2046 0.8586 0.4700
vn -0.8947 0.4045 0.1893
vn -0.7666 0.4044 0.4988
vn -0.2051 0.8587 0.4697
vn -0.4770 0.8587 -0.1877
vn -0.8949 0.4042 0.1890
vn 0.3094 0.8992 0.3095
vn 0.3096 0.8991 -0.3094
vn 0.3096 0.8990 -0.3096
vn 0.3094 0.8992 0.3094
vn 0.4377 0.8991 -0.0000
vn 0.5771 -0.5780 0.5769
vn -0.5773 -0.5781 0.5767
vn -0.5769 -0.5783 -0.5769
vn 0.5774 -0.5775 -0.5771
vn -0.5773 0.5768 -0.5779
vn -0.5771 0.5769 0.5781
vn 0.5773 0.5768 0.5779
vn 0.5777 0.5766 -0.5777
vn -0.7065 -0.7077 -0.0002
vn -0.7064 -0.7079 -0.0003
vn -0.0002 -0.7076 0.7066
vn -0.0002 -0.7077 0.7065
vn 0.0002 -0.7076 -0.7066
vn 0.0002 -0.7074 -0.7068
vn 0.7069 -0.7073 0.0002
vn -0.7073 0.7069 -0.0002
vn -0.7071 0.7071 -0.0003
vn -0.0002 0.7067 0.7075
vn 0.0002 0.7066 -0.7076
vn 0.0002 0.7069 -0.7073
vn 0.7074 0.7068 0.0003
vn 0.7074 0.7068 0.0002
vn -0.7069 -0.0000 -0.7073
vn 0.7069 -0.0000 0.7073
vn 0.7074 -0.0000 -0.7068
vn 0.7073 -0.0000 -0.7069
vn -0.0003 -1.0000 -0.0000
vn -0.0000 -1.0000 0.0003
vn -0.0000 -1.0000 -0.0006
vn -0.0000 -1.0000 0.0008
vn -0.0000 -1.0000 -0.0010
vn -0.0000 -1.0000 -0.0000
vt 0.930780 0.697857
vt 0.920516 0.788926
vt 0.920516 0.697857
vt 0.930780 0.788926
vt 0.942937 0.697857
vt 1.333974 0.788926
vt 1.333974 0.697857
vt 0.942937 0.788926
vt 0.930780 0.942937
vt 0.920516 1.333974
vt 0.920516 0.942937
vt 0.930780 1.333974
vt 0.930780 0.333974
vt 0.920516 -0.057063
vt 0.920516 0.333974
vt 0.930780 -0.057063
vt 0.914226 0.743471
vt 0.911276 0.736995
vt 0.911276 0.743471
vt 0.914226 0.736995
vt 0.914226 0.749947
vt 0.911276 0.749947
vt 0.138455 0.748384
vt 0.144931 0.749947
vt 0.138455 0.752630
vt 0.141929 0.746945
vt 0.147614 0.743471
vt 0.143368 0.743471
vt 0.134981 0.746945
vt 0.131979 0.749947
vt 0.144931 0.736995
vt 0.141929 0.739997
vt 0.138455 0.734313
vt 0.138455 0.738558
vt 0.131979 0.736995
vt 0.134981 0.739997
vt 0.129297 0.743471
vt 0.133542 0.743471
vt 0.915804 0.743471
vt 0.918855 0.739997
vt 0.915804 0.739997
vt 0.918855 0.743471
vt 0.915804 0.746945
vt 0.918855 0.746945
vt 0.915804 0.141929
vt 0.918855 0.138455
vt 0.915804 0.138455
vt 0.918855 0.141929
vt 0.918855 0.134981
vt 0.915804 0.134981
vt 0.914226 0.138455
vt 0.911276 0.131979
vt 0.911276 0.138455
vt 0.914226 0.131979
vt 0.914226 0.144931
vt 0.911276 0.144931
vt 0.145884 0.743471
vt 0.143708 0.748724
vt 0.138455 0.750900
vt 0.133203 0.748724
vt 0.131027 0.743471
vt 0.133203 0.738219
vt 0.138455 0.736043
vt 0.143708 0.738218
vt 0.932728 0.942937
vt 0.930780 0.940990
vt 0.930780 0.335921
vt 0.932728 0.333974
vt 0.920516 0.335921
vt 0.918568 0.333974
vt 0.920516 0.940990
vt 0.918568 0.942937
vt 0.333974 0.788926
vt 0.335921 0.697857
vt 0.335921 0.788926
vt 0.333974 0.697857
vt 0.932728 1.333974
vt 0.932728 0.697857
vt 0.932728 0.788926
vt 0.918568 1.333974
vt 0.918568 0.788926
vt 0.918568 0.697857
vt 0.330227 0.785179
vt 0.330227 0.701604
vt -0.057063 0.697857
vt -0.053316 0.701604
vt 0.946684 0.785179
vt 1.330227 0.785179
vt 0.946684 0.701604
vt 1.330227 0.701604
vt 0.951684 0.785179
vt 1.325227 0.706045
vt 0.951684 0.706045
vt 1.325227 0.785179
vt 0.932728 0.701604
vt 1.168126 0.785179
vt 1.168126 0.701604
vt 0.932728 0.785179
vt 0.932728 0.946684
vt 1.168126 1.330227
vt 1.168126 0.946684
vt 0.932728 1.330227
vt 0.937728 0.951684
vt 0.937728 1.325227
vt 0.163126 0.325227
vt 0.168126 -0.053316
vt 0.168126 0.330227
vt 0.163126 -0.048316
vt 0.937728 0.325227
vt 1.168126 0.330227
vt 0.932728 0.330227
vt 1.163126 0.325227
vt 0.163126 0.951684
vt -0.067272 0.946684
vt 0.168126 0.946684
vt -0.062272 0.951684
vt 1.163126 -0.048316
vt 0.937728 -0.048316
vt 0.325227 0.785179
vt -0.048316 0.706045
vt 0.325227 0.706045
vt -0.048316 0.785179
vt 0.163126 0.785179
vt -0.062272 0.706045
vt 0.163126 0.706045
vt -0.062272 0.785179
vt 0.937728 0.785179
vt 1.163126 0.706045
vt 0.937728 0.706045
vt 1.163126 0.785179
s 1
usemtl M_DresserDrawer_315_6_0
f 1/1/1 3/2/1 2/3/1
f 1/1/2 4/4/2 3/2/2
f 5/5/3 7/6/3 6/7/3
f 5/5/3 8/8/3 7/6/3
f 9/4/4 11/3/4 10/2/4
f 9/4/4 12/1/4 11/3/4
f 13/9/5 15/10/5 14/11/5
f 13/9/5 16/12/5 15/10/5
f 17/13/6 19/14/6 18/15/6
f 17/13/6 20/16/6 19/14/6
f 21/17/7 23/18/8 22/19/9
f 21/17/10 24/20/11 23/18/12
f 25/21/13 21/17/14 22/19/15
f 25/21/16 22/19/17 26/22/18
f 27/23/19 25/24/20 28/25/21
f 27/23/22 29/26/23 25/24/24
f 29/26/25 21/27/26 25/24/27
f 29/26/28 30/28/29 21/27/30
f 31/29/31 27/23/32 28/25/33
f 31/29/34 28/25/35 32/30/36
f 30/28/37 24/31/38 21/27/39
f 30/28/40 33/32/41 24/31/42
f 33/32/43 34/33/44 24/31/45
f 33/32/46 35/34/47 34/33/48
f 35/34/49 36/35/50 34/33/51
f 35/34/49 37/36/52 36/35/53
f 37/36/54 38/37/55 36/35/56
f 37/36/57 39/38/58 38/37/59
f 39/38/60 32/30/61 38/37/62
f 39/38/63 31/29/64 32/30/65
f 30/39/66 40/40/67 33/41/68
f 30/39/69 41/42/70 40/40/71
f 29/43/72 41/42/73 30/39/74
f 29/43/75 42/44/76 41/42/77
f 38/17/78 44/22/79 43/19/80
f 38/17/81 32/21/82 44/22/79
f 36/20/83 38/17/84 43/19/85
f 36/20/82 43/19/86 45/18/87
f 33/45/88 46/46/89 35/47/90
f 33/45/91 40/48/92 46/46/93
f 35/47/94 46/46/95 47/49/96
f 35/47/97 47/49/98 37/50/99
f 34/51/100 45/52/101 48/53/102
f 34/51/103 36/54/104 45/52/105
f 24/55/106 34/51/107 48/53/108
f 24/55/109 48/53/110 23/56/111
f 32/54/112 49/53/113 44/52/114
f 32/54/115 28/51/116 49/53/117
f 28/51/118 26/56/119 49/53/120
f 28/51/121 25/55/122 26/56/123
f 37/41/124 50/42/125 39/39/126
f 37/41/124 47/40/127 50/42/125
f 39/39/128 50/42/129 51/44/130
f 39/39/128 51/44/130 31/43/124
f 31/50/131 52/46/132 27/47/133
f 31/50/131 51/49/134 52/46/132
f 27/47/135 52/46/136 42/48/137
f 27/47/138 42/48/139 29/45/140
f 26/24/141 54/57/142 53/58/143
f 26/24/144 22/27/145 54/57/146
f 49/25/147 26/24/148 53/58/149
f 49/25/150 53/58/151 55/59/152
f 44/30/153 49/25/154 55/59/155
f 44/30/156 55/59/157 56/60/158
f 43/37/159 44/30/160 56/60/161
f 43/37/162 56/60/163 57/61/164
f 45/35/165 43/37/166 57/61/167
f 45/35/168 57/61/169 58/62/170
f 56/60/171 58/62/172 57/61/173
f 48/33/174 45/35/175 58/62/176
f 48/33/177 58/62/178 59/63/179
f 58/62/180 56/60/181 59/63/182
f 59/63/183 56/60/181 55/59/184
f 59/63/185 55/59/186 53/58/187
f 23/31/188 48/33/189 59/63/190
f 23/31/191 59/63/192 60/64/193
f 22/27/194 60/64/195 54/57/196
f 22/27/197 23/31/198 60/64/199
f 59/63/185 53/58/200 60/64/201
f 60/64/202 53/58/203 54/57/204
f 20/9/205 61/65/205 1/66/205
f 12/67/206 62/68/206 17/13/206
f 9/67/207 16/13/207 63/68/207
f 13/9/208 4/66/208 64/65/208
f 10/69/209 7/70/209 15/15/209
f 11/69/210 18/15/210 6/70/210
f 19/11/211 2/71/211 5/72/211
f 14/11/212 8/72/212 3/71/212
f 63/73/213 12/74/213 9/75/213
f 63/73/214 62/76/214 12/74/214
f 20/9/215 62/77/215 61/65/215
f 20/9/216 17/12/216 62/77/216
f 64/65/217 16/12/217 13/9/217
f 64/65/218 63/77/218 16/12/218
f 61/78/219 4/4/219 1/1/219
f 61/78/219 64/79/219 4/4/219
f 10/75/220 6/76/220 7/73/220
f 10/75/221 11/74/221 6/76/221
f 5/72/222 18/10/222 19/11/222
f 5/72/222 6/80/222 18/10/222
f 14/11/223 7/80/223 8/72/223
f 14/11/224 15/10/224 7/80/224
f 2/3/225 8/81/225 5/82/225
f 2/3/226 3/2/226 8/81/226
f 17/13/93 11/69/93 12/67/93
f 17/13/93 18/15/93 11/69/93
f 15/15/227 9/67/227 10/69/227
f 15/15/227 16/13/227 9/67/227
f 1/66/228 19/11/228 20/9/228
f 1/66/95 2/71/95 19/11/95
f 3/71/229 13/9/229 14/11/229
f 3/71/230 4/66/230 13/9/230
f 65/83/231 62/76/231 63/73/231
f 65/83/231 66/84/231 62/76/231
f 66/84/232 61/85/232 62/76/232
f 66/84/233 67/86/233 61/85/233
f 68/87/234 63/6/234 64/8/234
f 68/87/235 65/88/235 63/6/235
f 67/89/236 68/87/236 64/8/236
f 67/89/231 64/8/231 61/5/231
f 69/89/236 71/88/236 70/87/236
f 69/89/236 72/90/236 71/88/236
f 73/91/3 75/92/3 74/93/3
f 73/91/3 76/94/3 75/92/3
f 66/95/4 71/96/4 72/97/4
f 66/95/4 65/98/4 71/96/4
f 67/99/6 72/100/6 69/101/6
f 67/99/6 66/102/6 72/100/6
f 68/98/1 69/97/1 70/96/1
f 68/98/1 67/95/1 69/97/1
f 77/103/5 65/102/5 68/99/5
f 77/103/5 78/104/5 65/102/5
f 76/105/5 70/106/5 71/107/5
f 76/105/5 73/108/5 70/106/5
f 78/109/5 71/110/5 65/111/5
f 78/109/5 76/112/5 71/110/5
f 73/113/134 68/114/134 70/115/134
f 73/113/134 77/116/134 68/114/134
f 79/109/5 74/117/5 75/112/5
f 79/109/5 80/118/5 74/117/5
f 78/119/236 80/120/236 79/121/236
f 78/119/236 77/122/236 80/120/236
f 76/123/1 79/124/1 75/125/1
f 76/123/1 78/126/1 79/124/1
f 77/127/4 74/128/4 80/129/4
f 77/127/4 73/130/4 74/128/4
