# Blender 4.1.0
# www.blender.org
mtllib MeshBox_18_FlapOuter_2_2.mtl
o Box_18_FlapOuter_2
v 0.110399 0.197976 0.111135
v -0.102157 0.197976 0.111135
v 0.110399 0.197468 0.113275
v -0.102157 0.197468 0.113275
v 0.110399 0.099816 0.089541
v 0.110399 0.100117 0.090178
v -0.102157 0.099816 0.089541
v -0.102157 0.100117 0.090178
v 0.110399 0.100070 0.088471
v 0.110399 0.100625 0.088037
v -0.102157 0.100070 0.088471
v -0.102157 0.100625 0.088037
vn -0.0000 0.9730 0.2309
vn -0.0000 -0.9996 0.0280
vn -0.0000 -0.2362 0.9717
vn 0.0001 -0.2362 0.9717
vn 1.0000 -0.0003 -0.0001
vn 1.0000 0.0002 -0.0000
vn 1.0000 0.0001 -0.0000
vn -1.0000 -0.0002 -0.0000
vn -1.0000 -0.0001 -0.0000
vn -0.0001 0.2255 -0.9742
vn -0.0000 -0.8805 -0.4740
vn -0.0000 -0.8805 -0.4741
vn -0.0000 0.2255 -0.9742
vn -0.0000 0.2308 -0.9730
vn -0.0000 -0.2308 0.9730
vn -1.0000 -0.0000 -0.0000
vn 1.0000 -0.0000 -0.0000
vt 0.007082 0.033919
vt 0.007082 0.966081
vt 0.001625 0.966081
vt 0.001625 0.033919
vt 0.015418 1.010670
vt 0.013919 1.012197
vt 0.013919 -0.012197
vt 0.015418 -0.010670
vt 0.018417 1.010670
vt 0.019916 1.012197
vt 0.019916 -0.012197
vt 0.018417 -0.010670
vt 0.346770 0.033918
vt 0.346770 0.966082
vt 0.036999 0.966082
vt 0.036999 0.033918
vt 0.374992 0.966082
vt 0.374992 0.033918
vt 0.684763 0.033918
vt 0.684763 0.966082
vt 0.720407 0.012601
vt 0.720407 0.322373
vt 0.714950 0.322373
vt 0.714950 0.012601
vt 0.702563 0.322372
vt 0.702563 0.012602
vt 0.708020 0.012602
vt 0.708020 0.322372
s 1
usemtl M_Box_18_FlapOuter_2_0
f 1/1/1 2/2/1 4/3/1 3/4/1
f 5/5/2 6/6/3 8/7/4 7/8/2
f 6/6/5 5/5/6 9/9/6 10/10/7
f 7/8/8 8/7/9 12/11/9 11/12/8
f 10/10/10 9/9/11 11/12/12 12/11/13
f 5/5/2 7/8/2 11/12/12 9/9/11
f 10/13/10 12/14/13 2/15/14 1/16/14
f 3/17/15 4/18/15 8/19/4 6/20/3
f 8/21/9 4/22/16 2/23/16 12/24/9
f 3/25/17 6/26/5 10/27/7 1/28/17
