# Blender 4.1.1
# www.blender.org
mtllib MeshDoorwayDoor_5_0_GeomSubset_1.mtl
o MeshDoorwayDoor_5_0_GeomSubset_1
v 0.846072 -0.031454 0.684101
v 0.846072 -0.031654 0.433333
v 0.846072 -0.031855 0.182567
v 0.846072 -0.031253 0.934868
v 0.846072 -0.032055 -0.068200
v 0.588411 -0.031253 0.934868
v 0.330749 -0.031253 0.934868
v 0.846072 -0.032256 -0.318967
v 0.611937 -0.032297 -0.370214
v 0.588411 -0.032338 -0.421462
v 0.330749 -0.032338 -0.421462
v 0.307224 -0.032297 -0.370214
v 0.588411 -0.032256 -0.318967
v 0.330749 -0.032256 -0.318967
v 0.073088 -0.032256 -0.318967
v 0.073088 -0.032055 -0.068200
v 0.073088 -0.031855 0.182567
v 0.846072 -0.032338 -0.421462
v 0.916651 -0.032568 -0.709220
v 0.846072 -0.032534 -0.666223
v 0.916651 -0.032839 -1.048225
v 0.846072 -0.032730 -0.910985
v 0.611937 -0.032839 -1.048225
v 0.588411 -0.032730 -0.910985
v 0.307224 -0.032839 -1.048225
v 0.330749 -0.032729 -0.910985
v 0.002510 -0.032839 -1.048225
v 0.073088 -0.032729 -0.910985
v 0.002510 -0.032568 -0.709220
v 0.073088 -0.032534 -0.666223
v 0.073088 -0.032338 -0.421462
v 0.588411 -0.032534 -0.666223
v 0.330749 -0.032534 -0.666223
v 0.002510 0.021161 -0.709228
v 0.002510 0.020890 -1.048233
v 0.002510 0.021432 -0.370222
v 0.002510 0.021649 -0.098956
v 0.002510 0.021866 0.172309
v 0.002510 0.022083 0.443575
v 0.002510 0.022300 0.714841
v 0.002510 0.022517 0.986104
v 0.846072 0.031708 -0.910995
v 0.913006 0.031603 -1.041148
v 0.610722 0.031603 -1.041148
v 0.588411 0.031708 -0.910995
v 0.846072 0.031903 -0.666233
v 0.588411 0.031903 -0.666233
v 0.330749 0.031708 -0.910995
v 0.330749 0.031903 -0.666233
v 0.073088 0.031708 -0.910995
v 0.006155 0.031604 -1.041148
v 0.308439 0.031603 -1.041148
v 0.073088 0.031903 -0.666233
v 0.588411 0.032099 -0.421471
v 0.846072 0.032099 -0.421471
v 0.908553 0.032140 -0.370224
v 0.913006 0.031870 -0.707009
v 0.611937 0.032140 -0.370224
v 0.330749 0.032099 -0.421471
v 0.307224 0.032140 -0.370224
v 0.073088 0.032099 -0.421471
v 0.008114 0.032140 -0.370224
v 0.330749 0.032181 -0.318977
v 0.073088 0.032181 -0.318977
v 0.588411 0.032181 -0.318977
v 0.008114 0.032360 -0.095430
v 0.073088 0.032381 -0.068210
v 0.846072 0.032181 -0.318977
v 0.006155 0.031871 -0.707009
v 0.916651 0.021161 -0.709228
v 0.916651 0.021432 -0.370222
v 0.916651 0.020890 -1.048233
v 0.916651 0.021649 -0.098956
v 0.916651 0.021866 0.172309
v 0.916651 0.022083 0.443575
v 0.916651 0.022300 0.714841
v 0.916651 0.022517 0.986104
v 0.307224 0.022517 0.986104
v 0.611937 0.022517 0.986104
v 0.307224 0.020890 -1.048233
v 0.611937 0.020890 -1.048233
v 0.588411 0.033184 0.934857
v 0.610069 0.033220 0.980222
v 0.911047 0.033220 0.980222
v 0.846072 0.033184 0.934857
v 0.846072 0.032983 0.684091
v 0.588411 0.032983 0.684091
v 0.588411 0.032783 0.433324
v 0.330749 0.032783 0.433324
v 0.330749 0.032582 0.182557
v 0.588411 0.032582 0.182557
v 0.330749 0.032381 -0.068210
v 0.588411 0.032381 -0.068210
v 0.846072 0.032381 -0.068210
v 0.846072 0.032582 0.182557
v 0.908553 0.032790 0.442397
v 0.911047 0.033005 0.711311
v 0.908553 0.032575 0.173484
v 0.908553 0.032360 -0.095430
v 0.073088 -0.031454 0.684101
v 0.073088 -0.031253 0.934868
v 0.073088 -0.031654 0.433333
v 0.330749 -0.031855 0.182567
v 0.330749 -0.032055 -0.068200
v 0.588411 -0.032055 -0.068200
v 0.588411 -0.031855 0.182567
v 0.588411 -0.031654 0.433333
v 0.330749 -0.031654 0.433333
v 0.330749 -0.031454 0.684101
v 0.588411 -0.031454 0.684101
v 0.087204 -0.031445 0.694349
v 0.073088 0.032582 0.182557
v 0.073088 0.032783 0.433324
v 0.330749 0.032983 0.684091
v 0.073088 0.032983 0.684091
v 0.330749 0.033184 0.934857
v 0.316634 0.033175 0.924608
v 0.073088 0.033184 0.934857
v 0.008114 0.033220 0.980222
v 0.008114 0.033005 0.711311
v 0.008114 0.032790 0.442397
v 0.008114 0.032575 0.173484
v 0.309091 0.033220 0.980222
v 0.831956 0.000227 -0.676477
v 0.087204 0.000227 0.924613
v 0.316634 0.000227 0.694345
v 0.846072 0.032779 0.433324
v 0.912351 -0.031647 0.442958
v 0.916651 -0.021639 0.443581
v 0.912448 -0.031431 0.713017
v 0.916651 -0.021205 0.714846
v 0.912351 -0.031862 0.172942
v 0.916651 -0.021856 0.172316
v 0.912338 -0.031217 0.980322
v 0.916651 -0.021234 0.986112
v 0.912448 -0.032079 -0.097117
v 0.916651 -0.021855 -0.098950
v 0.609500 -0.031217 0.980805
v 0.611937 -0.020467 0.986112
v 0.307224 -0.020467 0.986112
v 0.309661 -0.031217 0.980805
v 0.916651 -0.022319 -0.370216
v 0.916651 -0.032300 -0.374310
v 0.913969 -0.032299 -0.372162
v 0.913602 -0.032297 -0.370214
v 0.912338 -0.032295 -0.367083
v 0.002510 -0.022319 -0.370216
v 0.006822 -0.032295 -0.367083
v 0.005560 -0.032297 -0.370214
v 0.005193 -0.032298 -0.372162
v 0.002510 -0.032300 -0.374310
v 0.006713 -0.032079 -0.097117
v 0.002510 -0.021855 -0.098950
v 0.006810 -0.031862 0.172942
v 0.002510 -0.021856 0.172316
v 0.002510 -0.021639 0.443581
v 0.006810 -0.031647 0.442958
v 0.002510 -0.021204 0.714846
v 0.006713 -0.031431 0.713017
v 0.002510 -0.021234 0.986112
v 0.006822 -0.031217 0.980322
v 0.835008 -0.032724 -0.904834
v 0.831956 -0.025660 -0.900737
v 0.599475 -0.032724 -0.904834
v 0.602526 -0.025660 -0.900737
v 0.835008 -0.032539 -0.672374
v 0.831956 -0.025480 -0.676474
v 0.599475 -0.032539 -0.672374
v 0.602526 -0.025481 -0.676474
v 0.319686 -0.032724 -0.904834
v 0.316634 -0.025660 -0.900737
v 0.084153 -0.032724 -0.904834
v 0.087204 -0.025660 -0.900737
v 0.084153 -0.032539 -0.672374
v 0.087204 -0.025481 -0.676474
v 0.341814 -0.032539 -0.672374
v 0.344865 -0.025481 -0.676474
v 0.341814 -0.032724 -0.904834
v 0.344865 -0.025660 -0.900737
v 0.577347 -0.032724 -0.904834
v 0.574295 -0.025660 -0.900737
v 0.577347 -0.032539 -0.672374
v 0.574295 -0.025480 -0.676474
v 0.319686 -0.032539 -0.672374
v 0.316634 -0.025480 -0.676474
v 0.835008 -0.032529 -0.660072
v 0.831956 -0.025464 -0.655975
v 0.835008 -0.032343 -0.427612
v 0.831956 -0.025284 -0.431712
v 0.599475 -0.032343 -0.427612
v 0.602526 -0.025285 -0.431712
v 0.599475 -0.032529 -0.660072
v 0.602526 -0.025465 -0.655975
v 0.577347 -0.032343 -0.427612
v 0.574295 -0.025284 -0.431712
v 0.341814 -0.032343 -0.427612
v 0.344865 -0.025285 -0.431712
v 0.577347 -0.032529 -0.660072
v 0.574295 -0.025464 -0.655975
v 0.341814 -0.032529 -0.660072
v 0.344865 -0.025465 -0.655975
v 0.319686 -0.032343 -0.427612
v 0.316634 -0.025284 -0.431712
v 0.084153 -0.032343 -0.427612
v 0.087204 -0.025285 -0.431712
v 0.084153 -0.032529 -0.660072
v 0.087204 -0.025465 -0.655975
v 0.319686 -0.032529 -0.660072
v 0.316634 -0.025464 -0.655975
v 0.319686 0.032387 -0.062059
v 0.316634 0.025328 -0.057959
v 0.316634 0.025513 0.172308
v 0.319686 0.032577 0.176405
v 0.087204 -0.024400 0.673850
v 0.084152 -0.031459 0.677950
v 0.087204 -0.024585 0.443582
v 0.084153 -0.031650 0.439484
v 0.316634 -0.024586 0.443582
v 0.319685 -0.031650 0.439485
v 0.316634 -0.024401 0.673850
v 0.319686 -0.031459 0.677950
v 0.831956 0.025713 0.423075
v 0.835008 0.032776 0.427172
v 0.602526 0.025713 0.423075
v 0.599475 0.032777 0.427172
v 0.831956 -0.024786 0.192814
v 0.835008 -0.031850 0.188717
v 0.831956 -0.024601 0.423082
v 0.835008 -0.031659 0.427182
v 0.835008 0.031712 -0.904844
v 0.831956 0.024654 -0.900744
v 0.599475 0.031712 -0.904844
v 0.602526 0.024654 -0.900744
v 0.835008 0.031898 -0.672384
v 0.831956 0.024834 -0.676481
v 0.599475 0.031898 -0.672384
v 0.602526 0.024834 -0.676481
v 0.577347 0.031898 -0.672384
v 0.574295 0.024834 -0.676481
v 0.577347 0.031712 -0.904844
v 0.574295 0.024654 -0.900744
v 0.341814 0.031712 -0.904844
v 0.344865 0.024654 -0.900744
v 0.341814 0.031898 -0.672384
v 0.344865 0.024835 -0.676481
v 0.319686 0.031898 -0.672384
v 0.316634 0.024834 -0.676481
v 0.319686 0.031712 -0.904844
v 0.316634 0.024654 -0.900744
v 0.084153 0.031712 -0.904844
v 0.087204 0.024654 -0.900744
v 0.084153 0.031898 -0.672384
v 0.087204 0.024835 -0.676481
v 0.577347 0.031908 -0.660082
v 0.574295 0.024849 -0.655982
v 0.577347 0.032094 -0.427622
v 0.574295 0.025029 -0.431719
v 0.599475 0.031908 -0.660082
v 0.602526 0.024850 -0.655982
v 0.599475 0.032094 -0.427622
v 0.602526 0.025030 -0.431719
v 0.835008 0.032094 -0.427622
v 0.831956 0.025029 -0.431719
v 0.835008 0.031908 -0.660082
v 0.831956 0.024849 -0.655982
v 0.084153 0.032094 -0.427622
v 0.087204 0.025030 -0.431719
v 0.084153 0.031908 -0.660082
v 0.087204 0.024850 -0.655982
v 0.316634 0.024850 -0.655982
v 0.319686 0.031908 -0.660082
v 0.319686 0.032094 -0.427622
v 0.316634 0.025030 -0.431719
v 0.341814 0.031908 -0.660082
v 0.344865 0.024850 -0.655982
v 0.341814 0.032094 -0.427622
v 0.344865 0.025030 -0.431719
v 0.084153 0.032577 0.176405
v 0.087204 0.025513 0.172308
v 0.087204 0.025328 -0.057959
v 0.084152 0.032387 -0.062059
v 0.602526 0.025528 0.192807
v 0.599475 0.032587 0.188707
v 0.831956 0.025529 0.192807
v 0.835008 0.032587 0.188707
v 0.602526 -0.024786 0.192814
v 0.599475 -0.031850 0.188717
v 0.087204 -0.024801 0.172316
v 0.084152 -0.031860 0.176416
v 0.084153 -0.032051 -0.062049
v 0.087204 -0.024987 -0.057952
v 0.316634 0.025914 0.673842
v 0.319685 0.032978 0.677939
v 0.087204 0.025914 0.673842
v 0.084153 0.032978 0.677939
v 0.602526 -0.024385 0.694348
v 0.599475 -0.031449 0.690251
v 0.835008 -0.031449 0.690251
v 0.831956 -0.024385 0.694348
v 0.602526 -0.024601 0.423082
v 0.599475 -0.031659 0.427182
v 0.087204 0.025729 0.443574
v 0.084152 0.032788 0.439474
v 0.316634 0.025729 0.443574
v 0.319686 0.032788 0.439475
v 0.602526 0.025929 0.694341
v 0.599475 0.032988 0.690240
v 0.831956 0.025930 0.694341
v 0.835008 0.032988 0.690241
v 0.316634 -0.024987 -0.057952
v 0.319685 -0.032051 -0.062049
v 0.319686 -0.031860 0.176416
v 0.316634 -0.024801 0.172316
v 0.599475 0.033179 0.928705
v 0.602526 0.026115 0.924608
v 0.835008 0.033179 0.928706
v 0.831956 0.026114 0.924608
v 0.599475 0.032978 0.677939
v 0.602526 0.025914 0.673842
v 0.599475 0.032788 0.439475
v 0.602526 0.025729 0.443574
v 0.577347 0.032978 0.677939
v 0.574295 0.025914 0.673842
v 0.577347 0.032788 0.439474
v 0.574295 0.025729 0.443574
v 0.341814 0.032777 0.427172
v 0.344865 0.025714 0.423075
v 0.341814 0.032587 0.188707
v 0.344865 0.025529 0.192807
v 0.577347 0.032587 0.188707
v 0.574295 0.025528 0.192807
v 0.341814 0.032577 0.176405
v 0.344865 0.025513 0.172308
v 0.341814 0.032387 -0.062059
v 0.344865 0.025328 -0.057959
v 0.084153 0.032377 -0.074362
v 0.087204 0.025313 -0.078459
v 0.084153 0.032186 -0.312826
v 0.087204 0.025128 -0.308726
v 0.319686 0.032186 -0.312827
v 0.316634 0.025127 -0.308726
v 0.341814 0.032186 -0.312826
v 0.344865 0.025128 -0.308726
v 0.577347 0.032186 -0.312827
v 0.574295 0.025127 -0.308726
v 0.577347 0.032377 -0.074361
v 0.574295 0.025312 -0.078459
v 0.599475 0.032186 -0.312826
v 0.602526 0.025128 -0.308726
v 0.835008 0.032186 -0.312827
v 0.831956 0.025127 -0.308726
v 0.835008 0.032377 -0.074361
v 0.831956 0.025312 -0.078459
v 0.599475 0.032377 -0.074362
v 0.602526 0.025313 -0.078459
v 0.341814 0.032377 -0.074362
v 0.344865 0.025313 -0.078459
v 0.319686 0.032377 -0.074361
v 0.316634 0.025312 -0.078459
v 0.577347 0.032387 -0.062059
v 0.574295 0.025328 -0.057959
v 0.577347 0.032577 0.176405
v 0.574295 0.025512 0.172308
v 0.599475 0.032387 -0.062059
v 0.602526 0.025328 -0.057959
v 0.599475 0.032577 0.176405
v 0.602526 0.025513 0.172308
v 0.835008 0.032387 -0.062059
v 0.831956 0.025328 -0.057959
v 0.835008 0.032577 0.176405
v 0.831956 0.025512 0.172308
v 0.577347 0.032777 0.427172
v 0.574295 0.025713 0.423075
v 0.831956 0.025729 0.443574
v 0.835008 0.032786 0.439474
v 0.835008 0.032978 0.677939
v 0.831956 0.025914 0.673842
v 0.087204 -0.024785 0.192814
v 0.084153 -0.031850 0.188717
v 0.087204 -0.024600 0.423082
v 0.084152 -0.031659 0.427182
v 0.316634 -0.024786 0.192814
v 0.319685 -0.031850 0.188717
v 0.084153 -0.032060 -0.074351
v 0.087204 -0.025002 -0.078451
v 0.087204 -0.025186 -0.308719
v 0.084153 -0.032250 -0.310934
v 0.341814 -0.032251 -0.312816
v 0.344865 -0.025187 -0.308719
v 0.577347 -0.032251 -0.312817
v 0.574295 -0.025186 -0.308719
v 0.577347 -0.032060 -0.074351
v 0.574295 -0.025002 -0.078451
v 0.599475 -0.032251 -0.312816
v 0.602526 -0.025187 -0.308719
v 0.835008 -0.032251 -0.312817
v 0.831956 -0.025187 -0.308719
v 0.835008 -0.032060 -0.074351
v 0.831956 -0.025002 -0.078451
v 0.599475 -0.032060 -0.074351
v 0.602526 -0.025002 -0.078451
v 0.341814 -0.032060 -0.074351
v 0.344865 -0.025002 -0.078451
v 0.316634 -0.025186 -0.308719
v 0.319686 -0.032250 -0.310934
v 0.319686 -0.032060 -0.074351
v 0.316634 -0.025002 -0.078451
v 0.574295 -0.024987 -0.057952
v 0.577347 -0.032051 -0.062049
v 0.574295 -0.024802 0.172316
v 0.577347 -0.031860 0.176416
v 0.341814 -0.032051 -0.062049
v 0.344865 -0.024987 -0.057952
v 0.341814 -0.031860 0.176416
v 0.344865 -0.024802 0.172316
v 0.574295 -0.024786 0.192814
v 0.577347 -0.031850 0.188717
v 0.577347 -0.031659 0.427182
v 0.574295 -0.024601 0.423082
v 0.602526 -0.024986 -0.057952
v 0.599475 -0.032051 -0.062050
v 0.835008 -0.032051 -0.062050
v 0.831956 -0.024986 -0.057952
v 0.835008 -0.031860 0.176416
v 0.831956 -0.024801 0.172316
v 0.599475 -0.031860 0.176416
v 0.602526 -0.024802 0.172316
v 0.341814 -0.031659 0.427182
v 0.344865 -0.024601 0.423082
v 0.316634 -0.024601 0.423082
v 0.319686 -0.031659 0.427182
v 0.341814 -0.031650 0.439485
v 0.344865 -0.024586 0.443582
v 0.577347 -0.031650 0.439484
v 0.574295 -0.024585 0.443582
v 0.341814 -0.031459 0.677950
v 0.344865 -0.024401 0.673850
v 0.577347 -0.031459 0.677950
v 0.574295 -0.024400 0.673850
v 0.599475 -0.031650 0.439485
v 0.602526 -0.024586 0.443582
v 0.599475 -0.031459 0.677950
v 0.602526 -0.024401 0.673850
v 0.835008 -0.031650 0.439484
v 0.831956 -0.024585 0.443582
v 0.835008 -0.031459 0.677950
v 0.831956 -0.024400 0.673850
v 0.835008 -0.031258 0.928717
v 0.831956 -0.024200 0.924617
v 0.599475 -0.031258 0.928717
v 0.602526 -0.024200 0.924617
v 0.574295 -0.024200 0.924617
v 0.577347 -0.031258 0.928717
v 0.341814 -0.031258 0.928717
v 0.344865 -0.024200 0.924617
v 0.577347 -0.031449 0.690251
v 0.574295 -0.024385 0.694348
v 0.344865 -0.024385 0.694348
v 0.341814 -0.031449 0.690251
v 0.319686 -0.031258 0.928717
v 0.316634 -0.024200 0.924617
v 0.087204 -0.025235 0.924617
v 0.087204 -0.031264 0.921120
v 0.081559 -0.031258 0.928717
v 0.087204 -0.024199 0.924617
v 0.316634 -0.024385 0.694348
v 0.319686 -0.031447 0.692134
v 0.314029 -0.031446 0.694349
v 0.319686 0.032587 0.188707
v 0.316634 0.025528 0.192807
v 0.319686 0.032777 0.427172
v 0.316634 0.025713 0.423075
v 0.084153 0.032587 0.188707
v 0.087204 0.025529 0.192807
v 0.084153 0.032777 0.427172
v 0.087204 0.025714 0.423075
v 0.341814 0.032788 0.439475
v 0.344865 0.025729 0.443574
v 0.341814 0.032978 0.677939
v 0.344865 0.025914 0.673842
v 0.577347 0.032988 0.690240
v 0.574295 0.025929 0.694341
v 0.577347 0.033179 0.928706
v 0.574295 0.026114 0.924608
v 0.341814 0.033179 0.928705
v 0.344865 0.026115 0.924608
v 0.341814 0.032988 0.690241
v 0.344865 0.025930 0.694341
v 0.087204 0.027148 0.924608
v 0.089809 0.033175 0.924608
v 0.084153 0.033177 0.926823
v 0.087204 0.026114 0.924608
v 0.084153 0.032988 0.690241
v 0.087204 0.025930 0.694341
v 0.316634 0.025929 0.694341
v 0.322280 0.032988 0.690240
v 0.316634 0.032994 0.697838
v 0.316634 0.026964 0.694340
v 0.341814 -0.031850 0.188717
v 0.344865 -0.024786 0.192814
v 0.067745 0.014285 -0.920480
v 0.851416 0.014285 -0.920480
v 0.067745 0.014285 0.944427
v 0.851416 0.014285 0.944427
v 0.067745 -0.013831 0.944427
v 0.851416 -0.013831 0.944427
v 0.067745 -0.013831 -0.920480
v 0.851416 -0.013831 -0.920480
v 0.020181 0.044959 -0.103045
v 0.018060 0.040921 -0.097928
v 0.069927 0.044959 -0.103045
v 0.072047 0.040921 -0.097928
v 0.015062 0.040921 -0.100926
v 0.020181 -0.044958 -0.103045
v 0.015062 -0.040920 -0.100926
v 0.020181 -0.044958 -0.262861
v 0.015062 -0.040920 -0.264980
v 0.018060 -0.040920 -0.097928
v 0.069927 -0.044958 -0.103045
v 0.072047 -0.040920 -0.097928
v 0.075046 0.040921 -0.100926
v 0.075046 -0.040920 -0.100926
v 0.069927 -0.044958 -0.262861
v 0.075046 -0.040920 -0.264980
v 0.020181 0.044959 -0.262861
v 0.018060 0.040921 -0.267977
v 0.069927 0.044959 -0.262861
v 0.072047 0.040921 -0.267977
v 0.015062 0.040921 -0.264980
v 0.018060 -0.040920 -0.267977
v 0.072047 -0.040920 -0.267977
v 0.075046 0.040921 -0.264980
vn -0.0000 -1.0000 -0.0000
vn -0.0000 -0.0000 -1.0000
vn -0.0000 1.0000 -0.0000
vn -0.0000 -0.0000 1.0000
vn -1.0000 -0.0000 -0.0000
vn 1.0000 -0.0000 -0.0000
vt -30.411442 -0.981706
vt -29.186956 -0.981706
vt -29.186956 1.932206
vt -30.411442 1.932206
vt -29.163488 0.813087
vt -29.163488 -0.411357
vt -29.119555 -0.411357
vt -29.119555 0.813087
vt -30.007399 -0.981711
vt -28.782915 -0.981711
vt -28.782915 1.932209
vt -30.007399 1.932209
vt -29.142729 0.813082
vt -29.142729 -0.411352
vt -29.098795 -0.411352
vt -29.098795 0.813082
vt -29.205006 -0.981710
vt -29.161074 -0.981710
vt -29.161074 1.932209
vt -29.205006 1.932209
vt -29.184246 -0.981751
vt -29.140314 -0.981751
vt -29.140314 1.932250
vt -29.184246 1.932250
s 1
usemtl M_DoorwayDoor_5_1
f 501/1/1 502/2/1 504/3/1 503/4/1
f 503/5/2 504/6/2 506/7/2 505/8/2
f 505/9/3 506/10/3 508/11/3 507/12/3
f 507/13/4 508/14/4 502/15/4 501/16/4
f 502/17/5 508/18/5 506/19/5 504/20/5
f 507/21/6 501/22/6 503/23/6 505/24/6
