# Blender 4.1.1
# www.blender.org
mtllib MeshTelevision_24_0_GeomSubset_0.mtl
o MeshTelevision_24_0_GeomSubset_0
v 0.000733 -0.003263 0.047712
v -0.000733 -0.003263 0.047712
v 0.000733 -0.001664 0.047712
v -0.000733 -0.001664 0.047712
v 0.000733 -0.003263 0.047712
v -0.000733 -0.003263 0.047712
v 0.000733 -0.001664 0.047712
v -0.000733 -0.001664 0.047712
v 0.000733 -0.003263 0.047712
v -0.000733 -0.003263 0.047712
v 0.000733 -0.001664 0.047712
v -0.000733 -0.001664 0.047712
v 0.000733 -0.003263 0.047712
v -0.000733 -0.003263 0.047712
v 0.000733 -0.001664 0.047712
v -0.000733 -0.001664 0.047712
v 0.000733 -0.003263 0.047712
v -0.000733 -0.003263 0.047712
v 0.000733 -0.001664 0.047712
v -0.000733 -0.001664 0.047712
v 0.492911 -0.083318 0.339723
v -0.492911 -0.083318 0.339723
v -0.492911 -0.083318 -0.194413
v 0.492911 -0.083318 -0.194413
v -0.328608 -0.083318 0.339723
v -0.328608 -0.083318 -0.194413
v -0.164306 -0.083318 0.339723
v -0.164306 -0.083318 -0.194413
v 0.000000 -0.083318 0.339723
v 0.000000 -0.083318 -0.194413
v 0.164304 -0.083318 0.339723
v 0.164304 -0.083318 -0.194413
v 0.328608 -0.083318 0.339723
v 0.328608 -0.083318 -0.194413
v 0.492911 -0.083318 0.372583
v 0.328608 -0.083318 0.393802
v -0.328608 -0.083318 0.393802
v -0.492911 -0.083318 0.372583
v -0.164306 -0.083318 0.406003
v 0.000000 -0.083318 0.409752
v 0.164304 -0.083318 0.406003
v 0.328608 -0.083318 -0.262275
v 0.492911 -0.083318 -0.227273
v -0.328608 -0.083318 -0.262275
v -0.492911 -0.083318 -0.227273
v -0.164306 -0.083318 -0.282270
v 0.000000 -0.083318 -0.288415
v 0.164304 -0.083318 -0.282270
v 0.479155 -0.083318 0.324723
v 0.479155 -0.083318 -0.179413
v 0.328608 -0.083318 -0.179413
v 0.328608 -0.083318 0.324723
v -0.328608 -0.083318 -0.179413
v -0.328608 -0.083318 0.324723
v -0.479155 -0.083318 -0.179413
v -0.479155 -0.083318 0.324723
v -0.164306 -0.083318 -0.179413
v -0.164306 -0.083318 0.324723
v 0.000000 -0.083318 -0.179413
v 0.000000 -0.083318 0.324723
v 0.164304 -0.083318 -0.179413
v 0.164304 -0.083318 0.324723
v 0.479155 -0.072110 0.324723
v 0.479155 -0.072110 -0.179413
v 0.328608 -0.072110 -0.179413
v 0.328608 -0.072110 0.324723
v -0.328608 -0.072110 -0.179413
v -0.328608 -0.072110 0.324723
v -0.479155 -0.072110 -0.179413
v -0.479155 -0.072110 0.324723
v -0.164306 -0.072110 -0.179413
v -0.164306 -0.072110 0.324723
v 0.000000 -0.072110 -0.179413
v 0.000000 -0.072110 0.324723
v 0.164304 -0.072110 -0.179413
v 0.164304 -0.072110 0.324723
v 0.467233 -0.002464 0.339723
v 0.328608 -0.002464 0.339723
v 0.328608 -0.002464 -0.194413
v 0.467233 -0.002464 -0.194413
v -0.328608 -0.002464 0.339723
v -0.328608 -0.002464 -0.194413
v -0.467233 -0.002464 0.339723
v -0.467232 -0.002464 -0.194413
v -0.164306 -0.002464 0.339723
v -0.164306 -0.002464 -0.194413
v 0.000000 -0.002464 0.339723
v 0.000000 -0.002464 -0.194413
v 0.164304 -0.002464 0.339723
v 0.164304 -0.002464 -0.194413
v 0.467233 -0.002464 0.347704
v 0.326224 -0.002464 0.365914
v -0.326223 -0.002464 0.365914
v -0.467233 -0.002464 0.347704
v -0.163163 -0.002464 0.378023
v 0.000000 -0.002464 0.381746
v 0.163162 -0.002464 0.378023
v 0.324715 -0.002464 -0.234575
v 0.467233 -0.002464 -0.204214
v -0.467232 -0.002464 -0.204214
v -0.324715 -0.002464 -0.234574
v -0.162437 -0.002464 -0.254323
v 0.000000 -0.002464 -0.260398
v 0.162436 -0.002464 -0.254323
v -0.492911 -0.059276 -0.194413
v -0.489607 -0.038311 -0.194413
v -0.480073 -0.019750 -0.194413
v -0.492911 -0.059277 0.339723
v -0.489607 -0.038311 0.339723
v -0.480073 -0.019750 0.339723
v 0.492911 -0.059277 0.339723
v 0.489607 -0.038311 0.339723
v 0.480074 -0.019750 0.339723
v 0.492911 -0.059276 -0.194413
v 0.489607 -0.038311 -0.194413
v 0.480074 -0.019750 -0.194413
v 0.492911 -0.059277 0.372583
v 0.489563 -0.038328 0.369338
v 0.480074 -0.019750 0.360144
v 0.328608 -0.059277 0.393802
v 0.328301 -0.038311 0.390214
v 0.327416 -0.019750 0.379860
v -0.492911 -0.059277 0.372583
v -0.489563 -0.038328 0.369338
v -0.480073 -0.019750 0.360144
v -0.328608 -0.059277 0.393802
v -0.328301 -0.038311 0.390214
v -0.327415 -0.019750 0.379860
v -0.164306 -0.059277 0.406003
v -0.164158 -0.038311 0.402402
v -0.163734 -0.019750 0.392014
v 0.000000 -0.059277 0.409752
v 0.000000 -0.038311 0.406148
v 0.000000 -0.019750 0.395751
v 0.164304 -0.059277 0.406003
v 0.164157 -0.038311 0.402402
v 0.163733 -0.019750 0.392014
v 0.492911 -0.059276 -0.227273
v 0.489568 -0.038326 -0.224271
v 0.480074 -0.019750 -0.215745
v 0.328608 -0.059276 -0.262275
v 0.328107 -0.038311 -0.258710
v 0.326662 -0.019750 -0.248426
v -0.492911 -0.059276 -0.227273
v -0.489568 -0.038326 -0.224271
v -0.480073 -0.019750 -0.215745
v -0.328608 -0.059276 -0.262275
v -0.328106 -0.038311 -0.258710
v -0.326662 -0.019750 -0.248426
v -0.164306 -0.059276 -0.282270
v -0.164064 -0.038311 -0.278673
v -0.163371 -0.019750 -0.268298
v 0.000000 -0.059276 -0.288415
v 0.000000 -0.038311 -0.284810
v 0.000000 -0.019750 -0.274408
v 0.164304 -0.059276 -0.282270
v 0.164063 -0.038311 -0.278673
v 0.163370 -0.019750 -0.268298
v 0.480989 -0.083318 -0.207413
v 0.328608 -0.083318 -0.207413
v 0.480989 -0.083318 -0.216567
v 0.326801 -0.083318 -0.249414
v -0.328608 -0.083318 -0.207413
v -0.480989 -0.083318 -0.207413
v -0.326800 -0.083318 -0.249414
v -0.480989 -0.083318 -0.216567
v -0.164306 -0.083318 -0.207413
v -0.163439 -0.083318 -0.269295
v 0.000000 -0.083318 -0.207413
v 0.000000 -0.083318 -0.275407
v 0.164304 -0.083318 -0.207413
v 0.163437 -0.083318 -0.269295
v 0.479608 -0.092462 -0.208919
v 0.480989 -0.090956 -0.207413
v 0.328608 -0.090956 -0.207413
v 0.328543 -0.092462 -0.208918
v 0.479608 -0.092462 -0.215327
v 0.480989 -0.090956 -0.216567
v 0.326591 -0.092462 -0.247924
v 0.326801 -0.090956 -0.249414
v -0.328543 -0.092462 -0.208918
v -0.328608 -0.090956 -0.207413
v -0.480989 -0.090956 -0.207413
v -0.479608 -0.092462 -0.208919
v -0.326800 -0.090956 -0.249414
v -0.326591 -0.092462 -0.247924
v -0.479608 -0.092462 -0.215327
v -0.480989 -0.090956 -0.216567
v -0.164285 -0.092462 -0.208919
v -0.164306 -0.090956 -0.207413
v -0.163439 -0.090956 -0.269295
v -0.163338 -0.092462 -0.267792
v 0.000000 -0.092462 -0.208919
v 0.000000 -0.090956 -0.207413
v 0.000000 -0.090956 -0.275407
v 0.000000 -0.092462 -0.273901
v 0.164283 -0.092462 -0.208919
v 0.164304 -0.090956 -0.207413
v 0.163437 -0.090956 -0.269295
v 0.163337 -0.092462 -0.267792
vn -0.0000 -0.0000 -1.0000
vn -0.0000 -1.0000 -0.0000
vn -0.0000 1.0000 -0.0000
vn 1.0000 -0.0000 -0.0000
vn -0.0000 -0.0000 1.0000
vn -1.0000 -0.0000 -0.0000
vn -0.1281 -0.0000 -0.9918
vn -0.1011 -0.0000 -0.9949
vn -0.1007 -0.0901 -0.9908
vn -0.1277 -0.0868 -0.9880
vn -0.2076 -0.0869 0.9743
vn -0.1638 -0.0898 0.9824
vn -0.1647 -0.0000 0.9863
vn -0.2084 -0.0000 0.9781
vn -0.9965 -0.0833 -0.0003
vn -0.9965 -0.0832 0.0003
vn 0.9965 -0.0833 0.0003
vn 0.9965 -0.0833 -0.0003
vn 0.1011 -0.0000 -0.9949
vn 0.1281 -0.0000 -0.9918
vn 0.1277 -0.0868 -0.9880
vn 0.1007 -0.0900 -0.9908
vn 0.1647 -0.0000 0.9863
vn 0.1638 -0.0899 0.9824
vn 0.2076 -0.0869 0.9743
vn 0.2084 -0.0000 0.9781
vn 0.0484 -0.0000 -0.9988
vn 0.0482 -0.0896 -0.9948
vn 0.0788 -0.0000 0.9969
vn 0.0787 -0.0896 0.9929
vn -0.0000 -0.0898 -0.9960
vn -0.0000 -0.0897 0.9960
vn -0.0484 -0.0000 -0.9988
vn -0.0482 -0.0897 -0.9948
vn -0.0788 -0.0000 0.9969
vn -0.0787 -0.0896 0.9929
vn -0.9967 -0.0810 -0.0004
vn 0.9967 -0.0810 -0.0004
vn -0.9967 -0.0812 0.0003
vn 0.9967 -0.0811 0.0003
vn -0.8494 -0.5277 0.0003
vn -0.8496 -0.5274 -0.0006
vn -0.8027 -0.5963 -0.0000
vn 0.8495 -0.5275 -0.0004
vn 0.8494 -0.5277 0.0003
vn 0.8027 -0.5963 -0.0000
vn 0.8028 -0.5963 -0.0000
vn -0.8538 -0.5206 -0.0005
vn -0.1078 -0.5410 -0.8341
vn -0.0844 -0.5596 -0.8244
vn -0.0798 -0.6292 -0.7731
vn -0.0996 -0.6289 -0.7711
vn 0.0844 -0.5597 -0.8244
vn 0.1078 -0.5407 -0.8343
vn 0.0996 -0.6289 -0.7711
vn 0.0799 -0.6292 -0.7731
vn 0.8538 -0.5206 -0.0005
vn 0.0401 -0.5591 -0.8281
vn 0.0377 -0.6295 -0.7761
vn -0.0000 -0.5593 -0.8290
vn -0.0000 -0.6295 -0.7770
vn -0.0401 -0.5590 -0.8282
vn -0.0377 -0.6295 -0.7761
vn -0.1373 -0.5589 0.8178
vn -0.1752 -0.5417 0.8221
vn -0.1621 -0.6281 0.7611
vn -0.1297 -0.6289 0.7666
vn -0.8538 -0.5206 0.0004
vn 0.8538 -0.5206 0.0004
vn 0.1752 -0.5416 0.8222
vn 0.1376 -0.5588 0.8178
vn 0.1296 -0.6289 0.7666
vn 0.1621 -0.6281 0.7610
vn 0.0656 -0.5588 0.8267
vn 0.0617 -0.6295 0.7745
vn -0.0000 -0.5591 0.8291
vn -0.0000 -0.6296 0.7769
vn -0.0656 -0.5588 0.8267
vn -0.0617 -0.6295 0.7745
vn 0.9500 -0.3121 0.0007
vn 0.9500 -0.3123 -0.0008
vn 0.9554 -0.2953 -0.0008
vn -0.9500 -0.3123 -0.0008
vn -0.9500 -0.3122 0.0007
vn -0.9551 -0.2964 0.0007
vn -0.9554 -0.2953 -0.0008
vn -0.1220 -0.3079 -0.9436
vn -0.0956 -0.3342 -0.9377
vn 0.1220 -0.3079 -0.9436
vn 0.0956 -0.3342 -0.9377
vn 0.0457 -0.3330 -0.9418
vn -0.0000 -0.3338 -0.9427
vn -0.0457 -0.3330 -0.9418
vn -0.1982 -0.3097 0.9299
vn -0.1554 -0.3333 0.9299
vn -0.0746 -0.3325 0.9401
vn 0.9551 -0.2964 0.0007
vn 0.1982 -0.3097 0.9299
vn 0.1554 -0.3332 0.9300
vn 0.0744 -0.3330 0.9400
vn -0.0000 -0.3327 0.9430
vt -44.162949 -17.554016
vt -44.162033 -17.554016
vt -44.162033 -17.553015
vt -44.162949 -17.553015
vt -45.030197 0.219615
vt -44.759453 0.219618
vt -44.759445 1.262853
vt -45.030205 1.262857
vt -43.475822 1.262856
vt -43.475819 0.219619
vt -43.205067 0.219619
vt -43.205070 1.262857
vt -43.796722 1.262859
vt -43.796722 0.219619
vt -44.117634 1.262853
vt -44.117630 0.219615
vt -44.438541 1.262859
vt -44.438541 0.219619
vt -45.096420 0.741247
vt -44.775517 0.741252
vt -44.775513 0.846868
vt -45.096428 0.805429
vt -45.030205 0.204031
vt -44.754791 0.168456
vt -43.491882 0.741249
vt -43.170975 0.741253
vt -43.170975 0.805429
vt -43.491886 0.846872
vt -43.480473 0.168457
vt -43.205070 0.204026
vt -43.812786 0.741248
vt -43.812786 0.870703
vt -43.798954 0.144805
vt -44.133698 0.741253
vt -44.133698 0.878027
vt -44.117638 0.137545
vt -44.454605 0.741249
vt -44.454613 0.870703
vt -44.436310 0.144809
vt -44.751842 1.341285
vt -45.030205 1.281996
vt -43.205070 1.281997
vt -43.483421 1.341289
vt -43.800377 1.379861
vt -44.117638 1.391733
vt -44.434891 1.379858
vt -45.096428 -0.301989
vt -45.069553 -0.272698
vt -45.069553 0.711955
vt -44.775517 -0.301988
vt -44.775517 -0.272694
vt -44.775517 0.711959
vt -43.491882 -0.301991
vt -43.170979 -0.301987
vt -43.197845 -0.272695
vt -43.491882 -0.272698
vt -43.197849 0.711959
vt -43.491882 0.711955
vt -43.812786 -0.301992
vt -43.812786 -0.272698
vt -43.812786 0.711955
vt -44.133701 -0.301987
vt -44.133701 -0.272694
vt -44.133701 0.711959
vt -44.454605 -0.301991
vt -44.454605 -0.272698
vt -44.454605 0.711955
vt -45.096195 0.429871
vt -44.111290 0.429872
vt -44.111290 0.451780
vt -45.096195 0.451784
vt -45.060867 0.531035
vt -44.766853 0.531039
vt -44.766853 0.552935
vt -45.060867 0.552939
vt -44.766842 0.566466
vt -45.060852 0.566466
vt -45.060848 0.544574
vt -44.766846 0.544576
vt -43.483330 0.531039
vt -43.189320 0.531039
vt -43.189312 0.552936
vt -43.483334 0.552939
vt -44.111507 0.438691
vt -45.095985 0.438691
vt -45.095982 0.416796
vt -44.111507 0.416795
vt -43.189331 0.566463
vt -43.483341 0.566463
vt -43.483349 0.544577
vt -43.189339 0.544577
vt -43.804207 0.531039
vt -43.804211 0.552939
vt -43.804218 0.566466
vt -43.804211 0.544574
vt -44.125095 0.531039
vt -44.125092 0.552939
vt -44.125095 0.566466
vt -44.125092 0.544577
vt -44.445972 0.531035
vt -44.445976 0.552939
vt -44.445965 0.566467
vt -44.445965 0.544573
vt -45.143829 0.364974
vt -44.807125 0.364973
vt -44.807125 0.414244
vt -45.143829 0.414245
vt -45.146919 0.539476
vt -44.809181 0.539476
vt -44.809174 0.588892
vt -45.146915 0.588897
vt -45.176289 0.614518
vt -45.176285 0.565672
vt -44.091084 0.565672
vt -44.091087 0.614518
vt -44.091061 0.442430
vt -45.176315 0.442432
vt -45.176311 0.393579
vt -44.091061 0.393585
vt -43.460281 0.364973
vt -43.123566 0.364970
vt -43.123566 0.414241
vt -43.460281 0.414244
vt -43.458225 0.588895
vt -43.458221 0.539477
vt -43.120487 0.539476
vt -43.120487 0.588897
vt -43.796982 0.364970
vt -43.796982 0.414241
vt -43.795956 0.588892
vt -43.795959 0.539477
vt -44.133698 0.364970
vt -44.133698 0.414240
vt -44.133698 0.588892
vt -44.133705 0.539476
vt -44.470413 0.364973
vt -44.470413 0.414244
vt -44.471443 0.588895
vt -44.471436 0.539473
vt -45.243050 0.614518
vt -45.243046 0.565672
vt -45.243080 0.442430
vt -45.243076 0.393581
vt -44.024323 0.565672
vt -44.024326 0.614520
vt -44.024296 0.393584
vt -44.024292 0.442428
vt -44.091084 0.485360
vt -45.176285 0.485360
vt -45.176285 0.450240
vt -44.091084 0.450240
vt -45.176311 0.522730
vt -44.091057 0.522730
vt -44.091061 0.557851
vt -45.176315 0.557853
vt -45.217777 0.485364
vt -45.192497 0.450240
vt -45.117527 0.495249
vt -44.804684 0.495249
vt -44.802238 0.530672
vt -45.091206 0.530668
vt -43.462719 0.495247
vt -43.149879 0.495250
vt -43.176189 0.530669
vt -43.465168 0.530668
vt -45.217804 0.522730
vt -45.192528 0.557850
vt -43.798161 0.495250
vt -43.799332 0.530672
vt -44.133701 0.495250
vt -44.133705 0.530672
vt -44.469246 0.495249
vt -44.468075 0.530672
vt -44.805176 0.458219
vt -45.120529 0.458223
vt -45.094135 0.422689
vt -44.801182 0.422689
vt -44.047749 0.485364
vt -44.071175 0.450244
vt -44.047714 0.522730
vt -44.071144 0.557850
vt -43.146873 0.458219
vt -43.462223 0.458225
vt -43.466228 0.422689
vt -43.173271 0.422686
vt -43.797882 0.458223
vt -43.799801 0.422690
vt -44.133698 0.458219
vt -44.133705 0.422689
vt -44.469521 0.458219
vt -44.467602 0.422686
vt -44.091061 0.485021
vt -45.176319 0.485021
vt -45.236488 0.484984
vt -45.176285 0.523070
vt -44.091084 0.523070
vt -44.030430 0.523111
vt -45.236454 0.523108
vt -45.136971 0.457176
vt -44.806496 0.457210
vt -43.130432 0.457169
vt -43.460907 0.457214
vt -43.797291 0.457211
vt -44.133698 0.457210
vt -44.470108 0.457210
vt -45.140049 0.496412
vt -44.808151 0.496370
vt -44.470947 0.496374
vt -44.030396 0.484996
vt -43.127361 0.496412
vt -43.459251 0.496371
vt -43.796452 0.496375
vt -44.133698 0.496371
vt -45.073135 -0.327378
vt -44.775520 -0.327379
vt -45.096420 -0.366182
vt -45.073135 -0.345268
vt -44.775517 -0.434533
vt -44.771984 -0.409421
vt -43.491882 -0.327378
vt -43.194260 -0.327382
vt -43.491882 -0.434536
vt -43.170979 -0.366167
vt -43.194263 -0.345265
vt -43.495415 -0.409417
vt -43.812790 -0.327383
vt -43.812790 -0.473586
vt -43.814480 -0.448244
vt -44.133698 -0.327382
vt -44.133701 -0.485589
vt -44.133698 -0.460191
vt -44.454613 -0.327379
vt -44.454605 -0.473589
vt -44.452919 -0.448244
s 1
usemtl M_Television_24_0
f 1/1/1 2/2/1 4/3/1 3/4/1
f 77/5/2 78/6/2 79/7/2 80/8/2
f 82/9/2 81/10/2 83/11/2 84/12/2
f 86/13/2 85/14/2 81/10/2 82/9/2
f 88/15/2 87/16/2 85/14/2 86/13/2
f 90/17/2 89/18/2 87/16/2 88/15/2
f 79/7/2 78/6/2 89/18/2 90/17/2
f 21/19/3 33/20/3 36/21/3 35/22/3
f 78/6/2 77/5/2 91/23/2 92/24/2
f 25/25/3 22/26/3 38/27/3 37/28/3
f 83/11/2 81/10/2 93/29/2 94/30/2
f 27/31/3 25/25/3 37/28/3 39/32/3
f 81/10/2 85/14/2 95/33/2 93/29/2
f 29/34/3 27/31/3 39/32/3 40/35/3
f 85/14/2 87/16/2 96/36/2 95/33/2
f 31/37/3 29/34/3 40/35/3 41/38/3
f 87/16/2 89/18/2 97/39/2 96/36/2
f 33/20/3 31/37/3 41/38/3 36/21/3
f 89/18/2 78/6/2 92/24/2 97/39/2
f 80/8/2 79/7/2 98/40/2 99/41/2
f 82/9/2 84/12/2 100/42/2 101/43/2
f 86/13/2 82/9/2 101/43/2 102/44/2
f 88/15/2 86/13/2 102/44/2 103/45/2
f 90/17/2 88/15/2 103/45/2 104/46/2
f 79/7/2 90/17/2 104/46/2 98/40/2
f 21/19/3 24/47/3 50/48/3 49/49/3
f 24/47/3 34/50/3 51/51/3 50/48/3
f 33/20/3 21/19/3 49/49/3 52/52/3
f 26/53/3 23/54/3 55/55/3 53/56/3
f 23/54/3 22/26/3 56/57/3 55/55/3
f 22/26/3 25/25/3 54/58/3 56/57/3
f 28/59/3 26/53/3 53/56/3 57/60/3
f 25/25/3 27/31/3 58/61/3 54/58/3
f 30/62/3 28/59/3 57/60/3 59/63/3
f 27/31/3 29/34/3 60/64/3 58/61/3
f 32/65/3 30/62/3 59/63/3 61/66/3
f 29/34/3 31/37/3 62/67/3 60/64/3
f 34/50/3 32/65/3 61/66/3 51/51/3
f 31/37/3 33/20/3 52/52/3 62/67/3
f 49/68/4 50/69/4 64/70/4 63/71/4
f 50/72/1 51/73/1 65/74/1 64/75/1
f 52/76/5 49/77/5 63/78/5 66/79/5
f 53/80/1 55/81/1 69/82/1 67/83/1
f 55/84/6 56/85/6 70/86/6 69/87/6
f 56/88/5 54/89/5 68/90/5 70/91/5
f 57/92/1 53/80/1 67/83/1 71/93/1
f 54/89/5 58/94/5 72/95/5 68/90/5
f 59/96/1 57/92/1 71/93/1 73/97/1
f 58/94/5 60/98/5 74/99/5 72/95/5
f 61/100/1 59/96/1 73/97/1 75/101/1
f 60/98/5 62/102/5 76/103/5 74/99/5
f 51/73/1 61/100/1 75/101/1 65/74/1
f 62/102/5 52/76/5 66/79/5 76/103/5
f 35/104/7 36/105/8 120/106/9 117/107/10
f 138/108/11 141/109/12 42/110/13 43/111/14
f 21/112/6 111/113/15 114/114/16 24/115/6
f 105/116/17 108/117/18 22/118/4 23/119/4
f 37/120/19 38/121/20 123/122/21 126/123/22
f 44/124/23 147/125/24 144/126/25 45/127/26
f 39/128/27 37/120/19 126/123/22 129/129/28
f 46/130/29 150/131/30 147/125/24 44/124/23
f 40/132/1 39/128/27 129/129/28 132/133/31
f 47/134/5 153/135/32 150/131/30 46/130/29
f 41/136/33 40/132/1 132/133/31 135/137/34
f 48/138/35 156/139/36 153/135/32 47/134/5
f 36/105/8 41/136/33 135/137/34 120/106/9
f 42/110/13 141/109/12 156/139/36 48/138/35
f 111/113/15 21/112/6 35/140/6 117/141/37
f 22/118/4 108/117/18 123/142/38 38/143/4
f 24/115/6 114/114/16 138/144/39 43/145/6
f 105/116/17 23/119/4 45/146/4 144/147/40
f 116/148/41 113/149/42 77/150/43 80/151/43
f 110/152/44 107/153/45 84/154/46 83/155/47
f 113/149/42 119/156/48 91/157/43 77/150/43
f 119/158/49 122/159/50 92/160/51 91/161/52
f 128/162/53 125/163/54 94/164/55 93/165/56
f 125/166/57 110/152/44 83/155/47 94/167/47
f 131/168/58 128/162/53 93/165/56 95/169/59
f 134/170/60 131/168/58 95/169/59 96/171/61
f 137/172/62 134/170/60 96/171/61 97/173/63
f 122/159/50 137/172/62 97/173/63 92/160/51
f 143/174/64 140/175/65 99/176/66 98/177/67
f 140/178/68 116/148/41 80/151/43 99/179/43
f 107/153/45 146/180/69 100/181/46 84/154/46
f 146/182/70 149/183/71 101/184/72 100/185/73
f 149/183/71 152/186/74 102/187/75 101/184/72
f 152/186/74 155/188/76 103/189/77 102/187/75
f 155/188/76 158/190/78 104/191/79 103/189/77
f 158/190/78 143/174/64 98/177/67 104/191/79
f 105/116/17 106/192/80 109/193/81 108/117/18
f 106/192/80 107/153/45 110/152/44 109/193/81
f 108/117/18 109/193/81 124/194/82 123/142/38
f 109/193/81 110/152/44 125/166/57 124/194/82
f 111/113/15 112/195/83 115/196/84 114/114/16
f 112/195/83 113/149/42 116/148/41 115/196/84
f 114/114/16 115/196/84 139/197/85 138/144/39
f 115/196/84 116/148/41 140/178/68 139/197/85
f 113/149/42 112/195/83 118/198/86 119/156/48
f 112/195/83 111/113/15 117/141/37 118/198/86
f 119/158/49 118/199/87 121/200/88 122/159/50
f 118/199/87 117/107/10 120/106/9 121/200/88
f 123/122/21 124/201/89 127/202/90 126/123/22
f 124/201/89 125/163/54 128/162/53 127/202/90
f 126/123/22 127/202/90 130/203/91 129/129/28
f 127/202/90 128/162/53 131/168/58 130/203/91
f 129/129/28 130/203/91 133/204/92 132/133/31
f 130/203/91 131/168/58 134/170/60 133/204/92
f 132/133/31 133/204/92 136/205/93 135/137/34
f 133/204/92 134/170/60 137/172/62 136/205/93
f 122/159/50 121/200/88 136/205/93 137/172/62
f 121/200/88 120/106/9 135/137/34 136/205/93
f 138/108/11 139/206/94 142/207/95 141/109/12
f 139/206/94 140/175/65 143/174/64 142/207/95
f 141/109/12 142/207/95 157/208/96 156/139/36
f 142/207/95 143/174/64 158/190/78 157/208/96
f 107/153/45 106/192/80 145/209/97 146/180/69
f 106/192/80 105/116/17 144/147/40 145/209/97
f 146/182/70 145/210/98 148/211/99 149/183/71
f 145/210/98 144/126/25 147/125/24 148/211/99
f 149/183/71 148/211/99 151/212/100 152/186/74
f 148/211/99 147/125/24 150/131/30 151/212/100
f 152/186/74 151/212/100 154/213/101 155/188/76
f 151/212/100 150/131/30 153/135/32 154/213/101
f 155/188/76 154/213/101 157/208/96 158/190/78
f 154/213/101 153/135/32 156/139/36 157/208/96
f 34/50/3 24/47/3 159/214/3 160/215/3
f 24/47/3 43/216/3 161/217/3 159/214/3
f 43/216/3 42/218/3 162/219/3 161/217/3
f 23/54/3 26/53/3 163/220/3 164/221/3
f 44/222/3 45/223/3 166/224/3 165/225/3
f 45/223/3 23/54/3 164/221/3 166/224/3
f 26/53/3 28/59/3 167/226/3 163/220/3
f 46/227/3 44/222/3 165/225/3 168/228/3
f 28/59/3 30/62/3 169/229/3 167/226/3
f 47/230/3 46/227/3 168/228/3 170/231/3
f 30/62/3 32/65/3 171/232/3 169/229/3
f 48/233/3 47/230/3 170/231/3 172/234/3
f 32/65/3 34/50/3 160/215/3 171/232/3
f 42/218/3 48/233/3 172/234/3 162/219/3
