# Blender 4.1.1
# www.blender.org
mtllib Fp328_Cube_1867Desk_328_0_GeomSubset_0.mtl
o Fp328_Cube_1867Desk_328_0_GeomSubset_0
v 0.396615 -0.215615 0.293612
v 0.781340 -0.215615 0.293479
v 0.781340 0.251122 0.293480
v 0.396615 0.251122 0.293613
v 0.781330 0.251122 0.264842
v 0.396605 0.251122 0.264975
v 0.396605 -0.215615 0.264975
v 0.778278 -0.240195 0.279462
v 0.778276 -0.240195 0.272315
v 0.781330 -0.215615 0.264842
v 0.399667 -0.240195 0.279593
v 0.399665 -0.240193 0.272445
v -0.395847 -0.215615 0.293886
v -0.398909 -0.240195 0.279869
v -0.398912 -0.240195 0.272721
v -0.395858 -0.215615 0.265249
v -0.780573 -0.215615 0.294019
v -0.777520 -0.240193 0.280000
v -0.780582 -0.215615 0.265382
v -0.777523 -0.240193 0.272852
v -0.395847 0.251122 0.293886
v -0.780573 0.251122 0.294019
v -0.388323 0.251122 0.293884
v -0.003596 0.251122 0.293751
v -0.003607 0.251121 0.265113
v -0.388333 0.251122 0.265246
v -0.388322 -0.215615 0.293884
v -0.388331 -0.215615 0.265246
v -0.780582 0.251122 0.265382
v -0.395858 0.251122 0.265249
v -0.385273 -0.240195 0.272717
v -0.385271 -0.240195 0.279864
v -0.006658 -0.240193 0.279733
v -0.003596 -0.215619 0.293751
v -0.003607 -0.215619 0.265113
v -0.006661 -0.240193 0.272586
v 0.391949 -0.215615 0.293614
v 0.388887 -0.240195 0.279597
v 0.388885 -0.240195 0.272449
v 0.391939 -0.215615 0.264976
v 0.007224 -0.215619 0.293747
v 0.010276 -0.240195 0.279727
v 0.007214 -0.215619 0.265109
v 0.010274 -0.240195 0.272580
v 0.391949 0.251122 0.293614
v 0.007224 0.251121 0.293747
v 0.391939 0.251122 0.264976
v 0.007214 0.251121 0.265109
v 0.802499 0.243119 0.256579
v 0.293384 0.243119 0.256756
v 0.293391 0.243119 0.276535
v 0.802506 0.243119 0.276359
v 0.806574 -0.193259 0.256578
v 0.806573 0.239602 0.256578
v 0.806580 0.239602 0.276358
v 0.806580 -0.193257 0.276358
v 0.802509 -0.193259 0.281952
v 0.802509 0.239602 0.281952
v 0.293393 0.239598 0.282129
v 0.293393 -0.193259 0.282129
v 0.289311 0.239598 0.256757
v 0.289311 -0.193259 0.256757
v 0.289319 -0.193259 0.276537
v 0.289317 0.239602 0.276537
v 0.293385 -0.196778 0.256755
v 0.802501 -0.196778 0.256579
v 0.802507 -0.196778 0.276359
v 0.293391 -0.196778 0.276535
v 0.802420 -0.188209 0.023793
v 0.802258 -0.188210 -0.443827
v 0.802257 0.234550 -0.443827
v 0.802420 0.234549 0.023793
v 0.802498 -0.188209 0.250986
v 0.802498 0.234551 0.250986
v 0.304563 0.224681 -0.443655
v 0.304544 0.224681 -0.496856
v 0.304546 -0.178344 -0.496856
v 0.304564 -0.178340 -0.443655
v 0.802498 0.241704 0.254327
v 0.796655 0.239602 0.250988
v 0.299224 0.239602 0.251160
v 0.293383 0.241704 0.254503
v 0.804932 0.239602 0.254327
v 0.290950 0.239598 0.254504
v 0.293382 0.234551 0.251162
v 0.293383 -0.188211 0.251162
v 0.290950 -0.193257 0.254504
v 0.796656 -0.193257 0.250988
v 0.802499 -0.195363 0.254327
v 0.299225 -0.193259 0.251160
v 0.293383 -0.195363 0.254503
v 0.804933 -0.193257 0.254326
v 0.784977 -0.183389 -0.497022
v 0.310388 -0.183393 -0.496858
v 0.790819 -0.178338 -0.497024
v 0.790818 0.224681 -0.497024
v 0.310387 0.229730 -0.496858
v 0.784976 0.229730 -0.497022
v 0.293304 0.234551 0.023969
v 0.293141 0.234550 -0.443651
v 0.293143 -0.188209 -0.443651
v 0.293304 -0.188209 0.023969
v 0.299146 -0.193257 0.023967
v 0.298985 -0.193257 -0.443653
v 0.796415 -0.193259 -0.443825
v 0.796578 -0.193257 0.023795
v 0.320157 -0.193257 0.040381
v 0.320224 -0.193259 0.234733
v 0.775645 -0.193257 0.234575
v 0.775578 -0.193259 0.040223
v 0.796578 0.239598 0.023795
v 0.796415 0.239598 -0.443825
v 0.298984 0.239598 -0.443653
v 0.299146 0.239602 0.023968
v 0.790837 -0.178340 -0.443823
v 0.790837 0.224681 -0.443823
v 0.310405 0.229730 -0.443657
v 0.784994 0.229730 -0.443821
v 0.310406 -0.183389 -0.443657
v 0.784995 -0.183389 -0.443821
v 0.320157 0.172360 0.040381
v 0.320223 0.172360 0.234733
v 0.775578 0.172360 0.040223
v 0.775645 0.172362 0.234575
v -0.698702 -0.102023 -0.464864
v -0.695866 -0.114339 -0.464865
v -0.695607 -0.114339 0.285481
v -0.698443 -0.102023 0.285482
v -0.687533 -0.124782 0.285478
v -0.687794 -0.124782 -0.464868
v -0.695867 -0.089704 -0.464865
v -0.695608 -0.089704 0.285481
v -0.695873 -0.089704 -0.481109
v -0.698708 -0.102019 -0.481108
v -0.695872 -0.114339 -0.481109
v -0.687798 -0.124782 -0.481112
v -0.675709 -0.131759 -0.464872
v -0.675449 -0.131759 0.285474
v -0.661196 -0.134208 0.285469
v -0.661456 -0.134210 -0.464877
v -0.646943 -0.131757 0.285464
v -0.647201 -0.131759 -0.464882
v -0.634859 -0.124782 0.285460
v -0.635118 -0.124782 -0.464886
v -0.647207 -0.131759 -0.481126
v -0.635124 -0.124782 -0.481130
v -0.661461 -0.134210 -0.481121
v -0.675714 -0.131759 -0.481116
v -0.627044 -0.114339 -0.464889
v -0.626784 -0.114339 0.285457
v -0.623950 -0.102019 0.285456
v -0.624208 -0.102019 -0.464890
v -0.626785 -0.089704 0.285457
v -0.627044 -0.089704 -0.464889
v -0.634859 -0.079261 0.285460
v -0.635117 -0.079261 -0.464886
v -0.627050 -0.089704 -0.481133
v -0.635124 -0.079259 -0.481130
v -0.624215 -0.102023 -0.481134
v -0.627048 -0.114337 -0.481133
v -0.647202 -0.072284 -0.464882
v -0.646943 -0.072284 0.285464
v -0.661196 -0.069833 0.285469
v -0.661456 -0.069835 -0.464877
v -0.675449 -0.072284 0.285474
v -0.675710 -0.072286 -0.464872
v -0.687533 -0.079261 0.285478
v -0.687792 -0.079261 -0.464868
v -0.675714 -0.072284 -0.481116
v -0.687798 -0.079261 -0.481112
v -0.661461 -0.069835 -0.481121
v -0.647207 -0.072284 -0.481126
v -0.683422 -0.083043 -0.481113
v -0.683426 -0.083043 -0.491928
v -0.690157 -0.091748 -0.491925
v -0.690154 -0.091752 -0.481111
v -0.673346 -0.126815 -0.481117
v -0.661461 -0.128858 -0.481121
v -0.649575 -0.126817 -0.481125
v -0.683422 -0.120997 -0.481113
v -0.639500 -0.120999 -0.481129
v -0.632768 -0.112290 -0.481131
v -0.630403 -0.102019 -0.481132
v -0.632769 -0.091748 -0.481131
v -0.639501 -0.083043 -0.481128
v -0.673346 -0.077226 -0.481117
v -0.661461 -0.075181 -0.481121
v -0.649577 -0.077226 -0.481125
v -0.690154 -0.112290 -0.481111
v -0.692518 -0.102023 -0.481110
v -0.661465 -0.128858 -0.491935
v -0.661466 -0.138814 -0.491935
v -0.645173 -0.136014 -0.491941
v -0.649579 -0.126817 -0.491939
v -0.631359 -0.128036 -0.491946
v -0.639504 -0.120999 -0.491943
v -0.622130 -0.116099 -0.491949
v -0.632771 -0.112294 -0.491945
v -0.618889 -0.102019 -0.491950
v -0.630407 -0.102019 -0.491946
v -0.622129 -0.087941 -0.491949
v -0.632772 -0.091752 -0.491945
v -0.631359 -0.076005 -0.491946
v -0.639504 -0.083043 -0.491943
v -0.673350 -0.126817 -0.491931
v -0.677758 -0.136012 -0.491930
v -0.683426 -0.120999 -0.491928
v -0.691570 -0.128037 -0.491925
v -0.690158 -0.112290 -0.491925
v -0.700800 -0.116101 -0.491922
v -0.692522 -0.102019 -0.491925
v -0.704040 -0.102019 -0.491921
v -0.700799 -0.087943 -0.491922
v -0.649581 -0.077226 -0.491939
v -0.661464 -0.075181 -0.491935
v -0.673350 -0.077226 -0.491931
v -0.622132 -0.087941 -0.496176
v -0.631360 -0.076007 -0.496173
v -0.618890 -0.102019 -0.496177
v -0.622132 -0.116101 -0.496176
v -0.631360 -0.128037 -0.496173
v -0.661466 -0.065228 -0.491935
v -0.677758 -0.068028 -0.491930
v -0.691570 -0.076005 -0.491925
v -0.645171 -0.068030 -0.491941
v -0.691571 -0.128036 -0.496152
v -0.677759 -0.136014 -0.496157
v -0.661466 -0.138812 -0.496163
v -0.645174 -0.136014 -0.496168
v -0.645173 -0.068028 -0.496168
v -0.661466 -0.065228 -0.496163
v -0.677759 -0.068028 -0.496157
v -0.691571 -0.076005 -0.496152
v -0.700801 -0.087941 -0.496149
v -0.704041 -0.102019 -0.496148
v -0.700801 -0.116101 -0.496149
v -0.698702 0.213420 -0.464864
v -0.695867 0.201102 -0.464865
v -0.695608 0.201104 0.285481
v -0.698442 0.213422 0.285482
v -0.687533 0.190661 0.285478
v -0.687792 0.190661 -0.464868
v -0.695866 0.225739 -0.464865
v -0.695607 0.225739 0.285481
v -0.695872 0.225739 -0.481109
v -0.698707 0.213422 -0.481108
v -0.695873 0.201102 -0.481109
v -0.687798 0.190661 -0.481112
v -0.675710 0.183686 -0.464872
v -0.675449 0.183682 0.285474
v -0.661197 0.181235 0.285469
v -0.661455 0.181235 -0.464877
v -0.646943 0.183686 0.285464
v -0.647202 0.183686 -0.464882
v -0.634859 0.190661 0.285460
v -0.635117 0.190661 -0.464886
v -0.647207 0.183682 -0.481126
v -0.635124 0.190663 -0.481130
v -0.661462 0.181235 -0.481121
v -0.675714 0.183686 -0.481116
v -0.627044 0.201102 -0.464889
v -0.626785 0.201102 0.285457
v -0.623949 0.213422 0.285456
v -0.624209 0.213422 -0.464890
v -0.626784 0.225739 0.285457
v -0.627044 0.225739 -0.464889
v -0.634859 0.236180 0.285460
v -0.635117 0.236180 -0.464886
v -0.627048 0.225741 -0.481133
v -0.635124 0.236184 -0.481130
v -0.624214 0.213422 -0.481134
v -0.627050 0.201104 -0.481133
v -0.647201 0.243157 -0.464882
v -0.646943 0.243161 0.285464
v -0.661197 0.245610 0.285469
v -0.661455 0.245610 -0.464877
v -0.675449 0.243157 0.285474
v -0.675709 0.243157 -0.464872
v -0.687533 0.236184 0.285478
v -0.687792 0.236180 -0.464868
v -0.675714 0.243157 -0.481116
v -0.687798 0.236180 -0.481112
v -0.661462 0.245610 -0.481121
v -0.647207 0.243157 -0.481126
v -0.683421 0.232402 -0.481113
v -0.683425 0.232400 -0.491928
v -0.690158 0.223693 -0.491925
v -0.690154 0.223693 -0.481111
v -0.673346 0.188626 -0.481117
v -0.661462 0.186582 -0.481121
v -0.649577 0.188624 -0.481125
v -0.683421 0.194446 -0.481113
v -0.639500 0.194442 -0.481129
v -0.632768 0.203151 -0.481131
v -0.630404 0.213422 -0.481132
v -0.632768 0.223693 -0.481131
v -0.639500 0.232400 -0.481129
v -0.673346 0.238217 -0.481117
v -0.661462 0.240258 -0.481121
v -0.649577 0.238217 -0.481125
v -0.690154 0.203151 -0.481111
v -0.692517 0.213420 -0.481110
v -0.661466 0.186584 -0.491935
v -0.661465 0.176629 -0.491935
v -0.645171 0.179427 -0.491941
v -0.649581 0.188626 -0.491940
v -0.631360 0.187406 -0.491946
v -0.639504 0.194446 -0.491943
v -0.622129 0.199342 -0.491949
v -0.632771 0.203149 -0.491945
v -0.618890 0.213422 -0.491950
v -0.630408 0.213422 -0.491946
v -0.622130 0.227502 -0.491949
v -0.632771 0.223691 -0.491945
v -0.631360 0.239438 -0.491946
v -0.639503 0.232400 -0.491943
v -0.673350 0.188624 -0.491931
v -0.677758 0.179431 -0.491930
v -0.683425 0.194446 -0.491928
v -0.691569 0.187404 -0.491925
v -0.690158 0.203151 -0.491925
v -0.700799 0.199340 -0.491922
v -0.692521 0.213422 -0.491925
v -0.704039 0.213422 -0.491921
v -0.700800 0.227502 -0.491922
v -0.649581 0.238217 -0.491940
v -0.661466 0.240260 -0.491935
v -0.673350 0.238217 -0.491931
v -0.622132 0.227502 -0.496176
v -0.631361 0.239438 -0.496173
v -0.618891 0.213422 -0.496177
v -0.622132 0.199342 -0.496176
v -0.631361 0.187404 -0.496173
v -0.661465 0.250215 -0.491935
v -0.677758 0.247415 -0.491930
v -0.691569 0.239438 -0.491925
v -0.645173 0.247415 -0.491941
v -0.691572 0.187406 -0.496152
v -0.677759 0.179431 -0.496157
v -0.661466 0.176629 -0.496163
v -0.645173 0.179431 -0.496168
v -0.645174 0.247415 -0.496168
v -0.661466 0.250215 -0.496163
v -0.677759 0.247415 -0.496157
v -0.691572 0.239438 -0.496152
v -0.700801 0.227502 -0.496149
v -0.704042 0.213422 -0.496148
v -0.700801 0.199342 -0.496149
vn -0.0003 -0.0000 -1.0000
vn -0.0000 -1.0000 -0.0000
vn 1.0000 -0.0000 -0.0003
vn -0.9924 0.1234 0.0003
vn -0.9923 0.1235 0.0003
vn 0.0003 -0.0000 1.0000
vn -1.0000 -0.0000 0.0003
vn -0.0000 1.0000 -0.0000
vn -0.0000 1.0000 0.0003
vn -0.0003 0.4954 -0.8687
vn 0.9924 0.1234 -0.0003
vn 0.9923 0.1235 -0.0002
vn 0.0003 0.2908 0.9568
vn -0.9924 0.1234 0.0004
vn -0.0003 0.4954 -0.8686
vn 0.9924 0.1234 -0.0004
vn -0.0000 -1.0000 -0.0005
vn -1.0000 -0.0000 0.0004
vn -0.0003 0.4955 -0.8686
vn -0.0000 1.0000 0.0005
vn -0.9922 0.1243 0.0001
vn 0.9924 0.1235 -0.0003
vn 0.9923 0.1235 -0.0003
vn 0.0003 0.2909 0.9568
vn -0.9924 0.1234 0.0013
vn 1.0000 -0.0000 -0.0004
vn 0.0002 -0.8465 0.5324
vn 0.0002 -0.8471 0.5314
vn 0.0002 -0.8470 0.5316
vn 0.0002 -0.8464 0.5325
vn 0.0001 -0.8466 0.5322
vn -0.0004 -0.8463 0.5327
vn -0.5901 -0.6838 0.4292
vn -0.5901 -0.6836 0.4295
vn -0.5900 -0.6839 0.4293
vn -0.5902 -0.6836 0.4294
vn 0.8086 -0.0000 0.5883
vn 0.8088 -0.0000 0.5880
vn 0.8086 -0.0000 0.5884
vn 0.8087 -0.0000 0.5883
vn 0.5897 -0.6834 -0.4303
vn 0.0010 0.8466 0.5323
vn 0.0013 0.8465 0.5324
vn 0.0020 0.8467 0.5321
vn -0.0003 0.8476 0.5306
vn -0.0006 0.8478 0.5304
vn -0.0010 0.8483 0.5295
vn 0.5904 0.6836 -0.4292
vn 0.5904 0.6835 -0.4292
vn -0.8082 -0.0000 0.5890
vn -0.8083 -0.0000 0.5888
vn -0.8080 -0.0000 0.5891
vn -0.8081 -0.0000 0.5890
vn -0.8082 -0.0000 0.5889
vn -0.8081 -0.0000 0.5891
vn -0.5900 -0.6841 -0.4288
vn -0.5910 0.6831 -0.4291
vn 0.6535 -0.7570 -0.0000
vn 0.6536 -0.7569 -0.0002
vn 0.6543 -0.7562 0.0002
vn 0.6530 -0.7574 -0.0004
vn 0.8081 -0.0000 -0.5890
vn 0.8080 -0.0000 -0.5892
vn 0.8083 -0.0000 -0.5888
vn 0.6538 0.7566 -0.0003
vn 0.6537 0.7567 -0.0002
vn 0.6539 0.7566 -0.0003
vn 0.6537 0.7568 -0.0002
vn -0.0000 1.0000 0.0001
vn -0.0002 0.8464 -0.5325
vn -0.0002 0.8467 -0.5321
vn -0.6540 0.7565 0.0002
vn -0.6538 0.7567 0.0001
vn -0.5908 0.6829 0.4297
vn -0.5901 0.6832 0.4301
vn -0.5915 0.6823 0.4296
vn -0.8086 -0.0000 -0.5884
vn -0.6531 -0.7573 0.0003
vn -0.6530 -0.7573 0.0003
vn -0.6532 -0.7572 0.0002
vn -0.6531 -0.7573 0.0004
vn 0.5920 0.6821 0.4293
vn 0.5919 0.6827 0.4285
vn 0.5909 0.6838 0.4281
vn 0.5912 0.6820 0.4305
vn -0.0002 -0.8465 -0.5323
vn -0.0002 -0.8466 -0.5323
vn -0.0002 -0.8463 -0.5327
vn 0.5915 -0.6823 0.4297
vn 0.5914 -0.6823 0.4299
vn 0.5906 -0.6831 0.4297
vn 0.5918 -0.6822 0.4293
vn 0.0004 -0.0000 1.0000
vn -0.0000 1.0000 -0.0001
vn 0.3448 -0.3977 0.8503
vn 0.3447 -0.3975 0.8504
vn 0.3439 -0.3974 0.8508
vn 0.3439 0.3967 0.8511
vn 0.3439 0.3973 0.8508
vn 0.3439 0.3965 0.8512
vn 0.3439 0.3976 0.8507
vn -0.3433 -0.3975 0.8510
vn -0.3432 0.3974 0.8510
vn -0.3433 0.3974 0.8510
vn -0.3434 0.3974 0.8510
vn -0.3431 0.3974 0.8511
vn -0.6538 0.7567 0.0002
vn -0.6538 0.7566 0.0002
vn -0.6539 -0.7566 0.0002
vn -0.6540 -0.7565 0.0002
vn -0.6538 -0.7566 0.0002
vn 0.6540 -0.7565 -0.0002
vn 0.6538 -0.7567 -0.0002
vn 0.6538 0.7567 -0.0002
vn -0.6539 0.7566 0.0002
vn 0.6540 0.7565 -0.0008
vn 0.6540 0.7565 -0.0010
vn 0.6539 -0.7566 -0.0002
vn 0.6538 -0.7566 -0.0002
vn -0.6534 -0.7570 0.0002
vn -0.6533 -0.7571 0.0001
vn -0.6532 -0.7571 0.0002
vt -0.351753 -0.383517
vt -0.839594 0.089965
vt -0.839594 -0.383517
vt -0.351753 0.089965
vt 1.280856 1.159900
vt 1.255751 1.647741
vt 1.280856 1.647741
vt 1.255751 1.159900
vt 1.280856 -0.383517
vt 1.255751 0.089965
vt 1.280856 0.089965
vt 1.255751 -0.383517
vt 1.262301 -0.408451
vt 1.268567 -0.408451
vt 1.268567 -0.356135
vt 1.262301 -0.836223
vt 1.268567 -0.836223
vt 1.262301 -0.356135
vt -0.835717 -0.408451
vt -0.355629 -0.408451
vt 1.160406 -0.383517
vt 1.644371 -0.408451
vt 1.164283 -0.408451
vt 1.648247 -0.383517
vt 0.531180 0.767661
vt 0.387806 0.773231
vt 0.387806 0.767661
vt 0.531180 0.773231
vt 0.253151 0.767661
vt 0.394209 0.773231
vt 0.394209 0.767661
vt 0.253151 0.773231
vt 0.253151 0.531180
vt 0.394209 0.387806
vt 0.394209 0.531180
vt 0.253151 0.387807
vt 0.387807 0.767661
vt 0.387807 0.773231
vt 0.254797 0.702105
vt 0.392563 0.570417
vt 0.254797 0.570417
vt 0.392563 0.702105
vt 0.254797 0.766086
vt 0.392563 0.766086
vt 0.389347 0.570417
vt 0.258013 0.555435
vt 0.389347 0.555435
vt 0.258013 0.570417
vt 0.531180 0.767026
vt 0.529535 0.766086
vt 0.389452 0.766086
vt 0.387806 0.767026
vt 0.532327 0.767661
vt 0.531865 0.767026
vt 0.394209 0.767026
vt 0.253151 0.767026
vt 0.387806 0.774806
vt 0.386659 0.773231
vt 0.387807 0.767026
vt 0.253151 0.774806
vt 0.252005 0.773231
vt 0.531180 0.774806
vt 0.532327 0.773231
vt 0.256367 0.526319
vt 0.258013 0.391023
vt 0.256367 0.392668
vt 0.258013 0.527964
vt 0.389347 0.391023
vt 0.389347 0.527964
vt 0.390993 0.392668
vt 0.390993 0.526319
vt 0.386659 0.767661
vt 0.394209 0.774806
vt 0.252005 0.767661
vt 0.389452 0.702105
vt 0.529535 0.570417
vt 0.389452 0.570417
vt 0.529535 0.702105
vt 0.395367 0.706729
vt 0.395367 0.761461
vt 0.523619 0.761461
vt 0.523619 0.706729
vt 0.387807 0.774806
vt 0.252466 0.767026
vt 0.387121 0.767026
vt 0.394209 0.529535
vt 0.394209 0.389452
vt 0.392563 0.387806
vt 0.254797 0.387807
vt 0.253151 0.389452
vt 0.253151 0.529535
vt 0.392563 0.531180
vt 0.254797 0.531180
vt 0.392668 0.570417
vt 0.526319 0.555435
vt 0.392668 0.555435
vt 0.526319 0.570417
vt 0.394894 0.387806
vt 0.394209 0.387121
vt 0.253151 0.387121
vt 0.252466 0.387807
vt 0.394209 0.531865
vt 0.394894 0.531180
vt 0.252466 0.531180
vt 0.253151 0.531865
vt 0.253151 0.570417
vt 0.253151 0.702105
vt 0.253151 0.766086
vt 0.394209 0.766086
vt 0.394209 0.702105
vt 0.394209 0.570417
vt 0.527964 0.570417
vt 0.527964 0.555435
vt 0.256367 0.570417
vt 0.256367 0.555435
vt 0.390993 0.555435
vt 0.390993 0.570417
vt 0.253151 0.706729
vt 0.372297 0.761461
vt 0.372297 0.706729
vt 0.253151 0.761461
vt 0.523620 0.706729
vt 0.523620 0.761461
vt 0.253151 0.523619
vt 0.372297 0.395367
vt 0.372297 0.523620
vt 0.253151 0.395367
s 1
usemtl M_Desk_328_0
f 1/1/1 3/2/1 2/3/1
f 1/1/1 4/4/1 3/2/1
f 4/5/2 5/6/2 3/7/2
f 4/5/2 6/8/2 5/6/2
f 1/9/3 6/10/3 4/11/3
f 1/9/3 7/12/3 6/10/3
f 2/9/4 9/13/4 8/14/5
f 2/9/4 10/12/4 9/13/4
f 7/1/6 5/2/6 6/4/6
f 7/1/6 10/3/6 5/2/6
f 3/11/7 10/12/7 2/9/7
f 3/11/7 5/10/7 10/12/7
f 8/15/8 12/16/9 11/17/9
f 8/15/8 9/18/8 12/16/9
f 1/1/10 8/19/10 11/20/10
f 1/1/10 2/3/10 8/19/10
f 7/12/11 11/14/11 12/13/12
f 7/12/11 1/9/11 11/14/11
f 10/21/13 12/22/13 9/23/13
f 10/21/13 7/24/13 12/22/13
f 13/9/14 15/13/14 14/14/14
f 13/9/14 16/12/14 15/13/14
f 17/1/15 14/19/10 18/20/15
f 17/1/15 13/3/10 14/19/10
f 19/12/11 18/14/16 20/13/16
f 19/12/11 17/9/11 18/14/16
f 14/15/8 20/16/8 18/17/8
f 14/15/8 15/18/8 20/16/8
f 16/21/13 20/22/13 15/23/13
f 16/21/13 19/24/13 20/22/13
f 17/1/1 21/2/1 13/3/1
f 17/1/1 22/4/1 21/2/1
f 23/5/2 25/6/2 24/7/17
f 23/5/2 26/8/2 25/6/2
f 27/9/3 26/10/3 23/11/3
f 27/9/3 28/12/3 26/10/3
f 19/1/6 30/2/6 29/4/6
f 19/1/6 16/3/6 30/2/6
f 22/5/2 30/6/2 21/7/2
f 22/5/2 29/8/2 30/6/2
f 21/11/18 16/12/18 13/9/18
f 21/11/18 30/10/18 16/12/18
f 17/9/3 29/10/3 22/11/3
f 17/9/3 19/12/3 29/10/3
f 28/12/11 32/14/11 31/13/11
f 28/12/11 27/9/11 32/14/11
f 27/1/15 33/19/19 32/20/10
f 27/1/15 34/3/19 33/19/19
f 28/1/6 25/2/6 26/4/6
f 28/1/6 35/3/6 25/2/6
f 24/11/18 35/12/18 34/9/18
f 24/11/18 25/10/18 35/12/18
f 33/15/9 31/16/9 32/17/20
f 33/15/9 36/18/8 31/16/9
f 27/1/1 24/2/1 34/3/1
f 27/1/1 23/4/1 24/2/1
f 37/9/4 39/13/4 38/14/21
f 37/9/4 40/12/4 39/13/4
f 41/1/19 38/19/10 42/20/19
f 41/1/19 37/3/10 38/19/10
f 43/12/11 42/14/22 44/13/23
f 43/12/11 41/9/11 42/14/22
f 35/21/24 31/22/24 36/23/24
f 35/21/24 28/24/13 31/22/24
f 40/21/13 44/22/24 39/23/13
f 40/21/13 43/24/24 44/22/24
f 34/9/14 36/13/14 33/14/25
f 34/9/14 35/12/14 36/13/14
f 41/1/1 45/2/1 37/3/1
f 41/1/1 46/4/1 45/2/1
f 46/5/2 47/6/2 45/7/2
f 46/5/2 48/8/2 47/6/2
f 43/1/6 47/2/6 48/4/6
f 43/1/6 40/3/6 47/2/6
f 45/11/7 40/12/7 37/9/7
f 45/11/7 47/10/7 40/12/7
f 38/15/8 44/16/8 42/17/8
f 38/15/8 39/18/8 44/16/8
f 41/9/3 48/10/3 46/11/3
f 41/9/3 43/12/3 48/10/3
f 49/25/2 51/26/2 50/27/2
f 49/25/2 52/28/2 51/26/2
f 53/29/7 55/30/18 54/31/18
f 53/29/7 56/32/7 55/30/18
f 57/33/1 59/34/1 58/35/1
f 57/33/1 60/36/1 59/34/1
f 61/31/3 63/32/26 62/29/26
f 61/31/3 64/30/3 63/32/26
f 65/37/8 67/28/8 66/25/8
f 65/37/8 68/38/8 67/28/8
f 69/39/7 71/40/7 70/41/7
f 69/39/7 72/42/7 71/40/7
f 73/43/7 72/42/7 69/39/7
f 73/43/7 74/44/7 72/42/7
f 75/45/26 77/46/3 76/47/26
f 75/45/26 78/48/3 77/46/3
f 50/27/27 79/49/28 49/25/29
f 79/49/28 50/27/27 80/50/30
f 80/50/30 50/27/27 81/51/31
f 81/51/31 50/27/27 82/52/32
f 79/49/33 54/53/34 49/25/35
f 79/49/33 83/54/36 54/53/34
f 84/55/37 86/43/38 85/44/39
f 86/43/38 84/55/37 87/56/39
f 87/56/39 84/55/37 61/31/40
f 87/56/39 61/31/40 62/29/40
f 51/26/41 59/57/41 64/58/41
f 88/50/42 66/25/43 89/49/44
f 66/25/43 88/50/42 65/37/45
f 65/37/45 88/50/42 90/51/46
f 65/37/45 90/51/46 91/59/47
f 60/60/48 68/61/48 63/32/49
f 92/56/50 74/44/51 73/43/52
f 74/44/51 92/56/50 83/55/53
f 83/55/53 92/56/50 53/29/54
f 83/55/53 53/29/54 54/31/55
f 58/62/56 52/28/56 55/63/56
f 93/64/6 77/65/6 94/66/6
f 77/65/6 93/64/6 95/67/6
f 77/65/6 95/67/6 76/68/6
f 76/68/6 95/67/6 96/69/6
f 76/68/6 96/69/6 97/70/6
f 97/70/6 96/69/6 98/71/6
f 57/62/57 56/63/57 67/28/57
f 99/42/3 101/41/3 100/40/3
f 99/42/3 102/39/3 101/41/3
f 85/44/3 102/39/3 99/42/3
f 85/44/3 86/43/3 102/39/3
f 50/27/58 64/58/59 61/72/60
f 50/27/58 51/26/61 64/58/59
f 59/73/62 63/32/63 64/30/62
f 59/73/62 60/60/64 63/32/63
f 68/61/65 62/29/66 63/32/67
f 68/61/65 65/74/68 62/29/66
f 103/75/8 105/76/8 104/77/8
f 103/75/8 106/78/8 105/76/8
f 107/79/8 106/78/8 103/75/8
f 108/80/8 107/79/8 103/75/8
f 108/80/8 103/75/8 90/51/8
f 109/81/8 108/80/8 90/51/8
f 109/81/8 90/51/8 88/50/8
f 110/82/69 88/50/8 106/78/8
f 110/82/69 109/81/8 88/50/8
f 107/79/8 110/82/69 106/78/8
f 60/83/70 67/28/70 68/38/70
f 60/83/70 57/62/71 67/28/70
f 56/63/72 66/25/73 67/28/72
f 56/63/72 53/53/73 66/25/73
f 92/54/74 66/25/74 53/53/75
f 92/54/74 89/49/76 66/25/74
f 57/60/77 55/30/77 56/32/77
f 57/60/77 58/73/77 55/30/77
f 52/28/78 54/53/79 55/63/80
f 52/28/78 49/25/81 54/53/79
f 91/84/82 62/29/83 65/74/84
f 91/84/82 87/56/85 62/29/83
f 58/62/86 51/26/87 52/28/86
f 58/62/86 59/57/88 51/26/87
f 84/85/89 50/27/90 61/72/91
f 84/85/89 82/52/92 50/27/90
f 111/78/2 113/77/2 112/76/2
f 111/78/2 114/75/2 113/77/2
f 80/50/2 114/75/2 111/78/2
f 80/50/2 81/51/2 114/75/2
f 115/48/7 96/47/18 95/46/7
f 115/48/7 116/45/18 96/47/18
f 117/70/6 112/86/6 113/87/6
f 117/70/6 118/71/6 112/86/6
f 117/70/6 113/87/6 100/88/93
f 117/70/6 100/88/93 75/68/93
f 78/65/93 75/68/93 100/88/93
f 78/65/93 100/88/93 101/89/6
f 104/90/6 78/65/93 101/89/6
f 104/90/6 119/66/6 78/65/93
f 120/64/6 119/66/6 104/90/6
f 120/64/6 104/90/6 105/91/6
f 116/69/93 112/86/6 118/71/6
f 116/69/93 71/92/93 112/86/6
f 116/69/93 70/93/93 71/92/93
f 120/64/6 105/91/6 70/93/93
f 116/69/93 115/67/6 70/93/93
f 120/64/6 70/93/93 115/67/6
f 119/94/94 93/95/8 94/96/94
f 119/94/94 120/97/8 93/95/8
f 85/88/95 82/98/95 84/99/96
f 85/88/95 81/87/97 82/98/95
f 90/90/98 87/100/99 91/101/100
f 90/90/98 86/89/101 87/100/99
f 80/86/102 83/102/102 79/103/102
f 80/86/102 74/92/102 83/102/102
f 73/93/103 89/104/104 92/105/105
f 73/93/103 88/91/106 89/104/104
f 69/39/107 105/106/108 106/107/107
f 69/39/107 70/41/108 105/106/108
f 73/43/107 69/39/107 106/107/107
f 73/43/107 106/107/107 88/108/107
f 72/42/109 80/109/110 111/110/109
f 72/42/109 74/44/110 80/109/110
f 71/40/111 72/42/109 111/110/109
f 71/40/111 111/110/109 112/111/111
f 99/42/112 113/111/113 114/110/112
f 99/42/112 100/40/113 113/111/113
f 85/44/112 99/42/112 114/110/112
f 85/44/112 114/110/112 81/109/112
f 102/39/114 90/108/114 103/107/114
f 102/39/114 86/43/114 90/108/114
f 101/41/114 102/39/114 103/107/114
f 101/41/114 103/107/114 104/106/114
f 115/112/115 93/95/72 120/97/115
f 115/112/115 95/113/72 93/95/72
f 77/46/116 119/114/117 94/115/67
f 77/46/116 78/48/67 119/114/117
f 75/45/118 97/116/119 117/117/118
f 75/45/118 76/47/119 97/116/119
f 96/47/120 118/117/121 98/116/109
f 96/47/120 116/45/122 118/117/121
f 118/97/2 97/96/2 98/95/2
f 118/97/2 117/94/2 97/96/2
f 107/118/7 122/119/7 121/120/7
f 107/118/7 108/121/7 122/119/7
f 122/80/8 123/122/8 121/79/8
f 122/80/8 124/123/8 123/122/8
f 109/121/3 123/120/3 124/119/3
f 109/121/3 110/118/3 123/120/3
f 110/124/1 121/125/1 123/126/1
f 110/124/1 107/127/1 121/125/1
f 108/127/6 124/126/6 122/125/6
f 108/127/6 109/124/6 124/126/6
