# Blender 4.1.1
# www.blender.org
mtllib ToasterLever_7_ToasterLever_7_1_GeomSubset_0.mtl
o ToasterLever_7_ToasterLever_7_1_GeomSubset_0
v -0.002036 -0.158128 0.041918
v -0.002036 -0.154057 0.041918
v 0.002036 -0.158128 0.041918
v 0.002036 -0.154057 0.041918
v -0.002036 -0.158128 0.041918
v -0.002036 -0.154057 0.041918
v 0.002036 -0.158128 0.041918
v 0.002036 -0.154057 0.041918
v -0.002036 -0.158128 0.041918
v -0.002036 -0.154057 0.041918
v 0.002036 -0.158128 0.041918
v 0.002036 -0.154057 0.041918
v -0.002036 -0.158128 0.041918
v -0.002036 -0.154057 0.041918
v 0.002036 -0.158128 0.041918
v 0.002036 -0.154057 0.041918
v -0.002036 -0.158128 0.041918
v -0.002036 -0.154057 0.041918
v 0.002036 -0.158128 0.041918
v 0.002036 -0.154057 0.041918
v -0.002036 -0.158128 0.041918
v -0.002036 -0.154057 0.041918
v 0.002036 -0.158128 0.041918
v 0.002036 -0.154057 0.041918
v -0.024494 -0.160705 0.040032
v -0.024494 -0.160705 0.043730
v 0.000000 -0.160705 0.043730
v 0.000000 -0.160705 0.040032
v 0.024494 -0.160705 0.040032
v 0.024494 -0.160705 0.043730
v 0.003163 -0.143911 0.040826
v 0.003163 -0.135191 0.040826
v 0.000000 -0.135191 0.040826
v 0.000000 -0.143911 0.040826
v 0.003163 -0.143911 0.042981
v 0.003163 -0.135191 0.042981
v 0.000000 -0.135191 0.042981
v 0.000000 -0.143911 0.042981
v -0.003163 -0.143911 0.040826
v -0.003163 -0.135191 0.040826
v -0.003163 -0.143911 0.042981
v -0.003163 -0.135191 0.042981
v -0.024421 -0.168614 0.040032
v -0.024473 -0.169137 0.040248
v -0.024494 -0.169353 0.040771
v -0.027803 -0.168695 0.040771
v -0.027719 -0.168491 0.040248
v -0.027515 -0.167998 0.040032
v -0.027515 -0.167998 0.043730
v -0.027719 -0.168491 0.043513
v -0.027803 -0.168695 0.042990
v -0.024494 -0.169353 0.042990
v -0.024473 -0.169137 0.043513
v -0.024421 -0.168614 0.043730
v -0.030609 -0.166820 0.040771
v -0.030453 -0.166664 0.040248
v -0.030076 -0.166287 0.040032
v -0.030609 -0.166820 0.042990
v -0.030453 -0.166664 0.043513
v -0.030076 -0.166287 0.043730
v -0.032484 -0.164014 0.040771
v -0.032280 -0.163930 0.040248
v -0.031788 -0.163726 0.040032
v -0.031788 -0.163726 0.043730
v -0.032280 -0.163930 0.043513
v -0.032484 -0.164014 0.042990
v -0.033143 -0.160705 0.040771
v -0.032926 -0.160683 0.040248
v -0.032403 -0.160632 0.040032
v -0.032403 -0.160632 0.043730
v -0.032926 -0.160683 0.043513
v -0.033143 -0.160705 0.042990
v 0.000000 -0.169353 0.042990
v 0.000000 -0.169137 0.043513
v 0.000000 -0.168614 0.043730
v 0.000000 -0.168614 0.040032
v 0.000000 -0.169137 0.040248
v 0.000000 -0.169353 0.040771
v -0.032403 -0.143095 0.040248
v -0.032403 -0.142878 0.040771
v -0.032926 -0.143095 0.040771
v -0.033143 -0.143618 0.040771
v -0.032926 -0.143618 0.040248
v -0.032403 -0.143618 0.040032
v -0.032403 -0.143095 0.043513
v -0.032403 -0.143618 0.043730
v -0.032926 -0.143618 0.043513
v -0.033143 -0.143618 0.042990
v -0.032926 -0.143095 0.042990
v -0.032403 -0.142878 0.042990
v -0.024494 -0.143618 0.040032
v -0.024494 -0.143095 0.040248
v -0.024494 -0.142878 0.040771
v -0.024494 -0.143618 0.043730
v -0.024494 -0.143095 0.043513
v -0.024494 -0.142878 0.042990
v 0.000000 -0.143618 0.043730
v 0.000000 -0.143095 0.043513
v 0.000000 -0.142878 0.042990
v 0.000000 -0.142878 0.040771
v 0.000000 -0.143095 0.040248
v 0.000000 -0.143618 0.040032
v 0.024494 -0.169353 0.040771
v 0.024472 -0.169137 0.040248
v 0.024421 -0.168614 0.040032
v 0.027515 -0.167998 0.040032
v 0.027719 -0.168491 0.040248
v 0.027803 -0.168695 0.040771
v 0.027803 -0.168695 0.042990
v 0.027719 -0.168491 0.043513
v 0.027515 -0.167998 0.043730
v 0.024421 -0.168614 0.043730
v 0.024472 -0.169137 0.043513
v 0.024494 -0.169353 0.042990
v 0.030609 -0.166820 0.040771
v 0.030453 -0.166664 0.040248
v 0.030076 -0.166287 0.040032
v 0.030609 -0.166820 0.042990
v 0.030453 -0.166664 0.043513
v 0.030076 -0.166287 0.043730
v 0.031787 -0.163726 0.040032
v 0.032280 -0.163930 0.040248
v 0.032484 -0.164014 0.040771
v 0.032484 -0.164014 0.042990
v 0.032280 -0.163930 0.043513
v 0.031787 -0.163726 0.043730
v 0.032403 -0.160632 0.040032
v 0.032926 -0.160683 0.040248
v 0.033143 -0.160705 0.040771
v 0.033143 -0.160705 0.042990
v 0.032926 -0.160683 0.043513
v 0.032403 -0.160632 0.043730
v 0.032403 -0.143095 0.040248
v 0.032403 -0.143618 0.040032
v 0.032926 -0.143618 0.040248
v 0.033143 -0.143618 0.040771
v 0.032926 -0.143095 0.040771
v 0.032403 -0.142878 0.040771
v 0.032403 -0.143095 0.043513
v 0.032403 -0.142878 0.042990
v 0.032926 -0.143095 0.042990
v 0.033143 -0.143618 0.042990
v 0.032926 -0.143618 0.043513
v 0.032403 -0.143618 0.043730
v 0.024494 -0.143618 0.040032
v 0.024494 -0.143095 0.040248
v 0.024494 -0.142878 0.040771
v 0.024494 -0.143618 0.043730
v 0.024494 -0.143095 0.043513
v 0.024494 -0.142878 0.042990
v -0.032830 -0.143191 0.040345
v -0.032830 -0.143191 0.043417
v 0.032830 -0.143191 0.040345
v 0.032830 -0.143191 0.043417
vn 0.8472 -0.0000 -0.5312
vn -0.0000 -0.8472 -0.5312
vn -0.8472 -0.0000 -0.5312
vn -0.0000 0.8472 -0.5312
vn -0.4671 -0.0000 0.8842
vn -0.0000 -0.4671 0.8842
vn 0.4671 -0.0000 0.8842
vn -0.0000 0.4671 0.8842
vn -0.0000 0.4671 -0.8842
vn 0.4671 -0.0000 -0.8842
vn -0.0000 -0.4671 -0.8842
vn -0.4671 -0.0000 -0.8842
vn -0.6023 0.7983 -0.0000
vn -0.6023 -0.0000 -0.7983
vn -0.6023 -0.7983 -0.0000
vn -0.6023 -0.0000 0.7983
vn -0.0000 0.4672 0.8842
vn -0.4672 -0.0000 0.8842
vn -0.0000 -0.4672 0.8842
vn 0.4672 -0.0000 0.8842
vn 0.6023 0.7983 -0.0000
vn 0.6023 -0.0000 0.7983
vn 0.6023 -0.7983 -0.0000
vn 0.6023 -0.0000 -0.7983
vn 0.4672 -0.0000 -0.8842
vn -0.0000 -0.4672 -0.8842
vn -0.4672 -0.0000 -0.8842
vn -0.0000 0.4672 -0.8842
vn 0.1129 -0.3507 0.9297
vn 0.1138 -0.3472 0.9309
vn 0.1139 -0.3461 0.9313
vn 0.1129 -0.3518 0.9293
vn 0.3488 -0.8570 0.3795
vn 0.3493 -0.8538 0.3860
vn 0.3495 -0.8525 0.3887
vn 0.3486 -0.8582 0.3768
vn 0.1286 -0.3536 -0.9265
vn 0.1297 -0.3481 -0.9284
vn 0.1294 -0.3491 -0.9281
vn 0.1288 -0.3527 -0.9268
vn 0.4719 -0.8103 -0.3474
vn 0.4722 -0.8049 -0.3593
vn 0.4722 -0.8061 -0.3567
vn 0.4717 -0.8093 -0.3501
vn -0.3740 -0.8406 -0.3918
vn -0.3786 -0.8440 -0.3798
vn -0.3786 -0.8441 -0.3797
vn -0.3743 -0.8403 -0.3920
vn -0.2260 -0.2420 -0.9436
vn -0.2346 -0.2395 -0.9421
vn -0.2346 -0.2399 -0.9420
vn -0.2299 -0.2361 -0.9441
vn 0.4194 0.9078 -0.0000
vn 0.4194 0.9077 -0.0094
vn -0.9078 -0.4195 0.0006
vn -0.9078 -0.4195 -0.0000
vn -0.0000 0.8595 -0.5111
vn -0.0000 -0.5111 0.8595
vn -0.0000 -0.5114 0.8594
vn -0.0000 -0.0678 0.9977
vn -0.0000 -0.0679 0.9977
vn 0.0003 -0.0678 0.9977
vn -0.0000 -0.9977 0.0681
vn -0.0000 -0.9977 0.0680
vn -0.0006 -0.9977 0.0680
vn -0.0870 -0.9004 0.4262
vn -0.0865 -0.9036 0.4195
vn -0.0863 -0.9048 0.4169
vn -0.0873 -0.8992 0.4288
vn -0.1828 -0.3550 0.9168
vn -0.1821 -0.3584 0.9156
vn -0.1819 -0.3594 0.9153
vn -0.1829 -0.3540 0.9172
vn -0.0459 -0.9004 -0.4327
vn -0.0450 -0.9061 -0.4207
vn -0.0452 -0.9048 -0.4233
vn -0.0459 -0.9016 -0.4301
vn -0.5311 -0.3599 -0.7671
vn -0.5301 -0.3651 -0.7653
vn -0.5303 -0.3641 -0.7657
vn -0.5306 -0.3610 -0.7669
vn 0.7085 -0.5515 0.4403
vn 0.7135 -0.5545 0.4284
vn 0.7132 -0.5549 0.4282
vn 0.7083 -0.5517 0.4404
vn -0.0474 -0.5621 0.8257
vn -0.0430 -0.5660 0.8233
vn -0.0425 -0.5652 0.8238
vn -0.0474 -0.5625 0.8255
vn -0.0000 0.8595 0.5111
vn 0.0025 0.8595 0.5111
vn -0.0000 0.2461 0.9693
vn -0.0000 0.2466 0.9691
vn 0.9078 -0.4195 -0.0000
vn 0.9078 -0.4195 -0.0015
vn -0.4194 0.9077 0.0094
vn -0.4194 0.9078 -0.0000
vn 0.9989 0.0461 -0.0000
vn 0.9405 -0.3398 0.0010
vn 0.9405 -0.3398 -0.0000
vn -0.3397 0.9405 -0.0000
vn -0.3397 0.9405 -0.0009
vn 0.0460 0.9989 -0.0000
vn 0.0460 0.9989 -0.0041
vn -0.0000 -0.0000 1.0000
vn 0.6853 0.2799 0.6724
vn 0.8530 0.3452 0.3915
vn 0.6807 0.2800 0.6770
vn 0.2775 0.6816 0.6770
vn 0.3468 0.8523 0.3916
vn 0.2790 0.6856 0.6724
vn 0.9202 -0.0000 -0.3915
vn 0.7394 0.0364 -0.6723
vn -0.0000 -0.0000 -1.0000
vn 0.7359 -0.0081 -0.6770
vn -0.6507 0.6506 -0.3916
vn 0.6119 0.4089 -0.6771
vn -0.0068 -0.7401 -0.6724
vn -0.0000 1.0000 -0.0000
vn 1.0000 -0.0000 -0.0000
vn -0.0000 -0.5625 0.8268
vn -0.8268 -0.5625 -0.0000
vn -0.0000 -0.5625 -0.8268
vn 0.8268 -0.5625 -0.0000
vn -0.0000 -1.0000 -0.0000
vn -0.9989 0.0461 -0.0000
vn -0.9989 0.0461 -0.0023
vn -0.9405 -0.3398 -0.0000
vn -0.9405 -0.3398 -0.0020
vn 0.3397 0.9405 -0.0000
vn 0.3397 0.9405 0.0042
vn -0.4249 -0.9052 -0.0000
vn -0.4249 -0.9052 -0.0108
vn -0.0000 0.7360 0.6770
vn 0.0001 0.9202 0.3915
vn -0.0001 0.7403 0.6723
vn -0.0000 0.7402 0.6724
vn -0.7079 0.5879 -0.3915
vn -0.5463 0.4932 -0.6769
vn -0.5517 0.4936 -0.6724
vn 0.0084 -0.9201 -0.3916
vn -0.7259 0.1444 -0.6724
vn 0.5203 0.5205 -0.6770
vn -1.0000 -0.0000 -0.0000
vn -0.0000 0.9955 0.0950
vn -0.0000 0.9993 0.0380
vn -0.0000 0.9978 0.0663
vn -0.0000 0.7611 -0.6486
vn -0.0000 0.7456 -0.6664
vn -0.0000 0.7534 -0.6575
vn -0.0000 0.7533 -0.6576
vn -0.0871 0.5480 -0.8319
vn -0.0851 0.5523 -0.8293
vn -0.0843 0.5523 -0.8293
vn -0.0878 0.5479 -0.8319
vn -0.8312 -0.4015 0.3845
vn -0.8276 -0.3970 0.3968
vn -0.8275 -0.3973 0.3968
vn -0.8312 -0.4014 0.3846
vn -0.0000 0.7456 0.6664
vn -0.0000 0.7611 0.6486
vn -0.0000 0.7533 0.6576
vn -0.0000 0.7534 0.6575
vn 0.0001 0.9993 -0.0380
vn -0.0000 0.9955 -0.0950
vn -0.0004 0.9978 -0.0663
vn -0.0000 0.9978 -0.0663
vn -0.0335 -0.4883 0.8720
vn -0.0287 -0.4853 0.8739
vn -0.0287 -0.4850 0.8740
vn -0.0333 -0.4888 0.8717
vn -0.7429 -0.5137 0.4291
vn -0.7383 -0.5101 0.4412
vn -0.7384 -0.5099 0.4413
vn -0.7433 -0.5133 0.4290
vn -0.8207 -0.4088 -0.3993
vn -0.8242 -0.4134 -0.3870
vn -0.8242 -0.4134 -0.3871
vn -0.8206 -0.4090 -0.3992
vn -0.0250 0.5234 0.8517
vn -0.0283 0.5197 0.8539
vn -0.0280 0.5191 0.8543
vn -0.0251 0.5239 0.8514
vn -0.3092 -0.1271 0.9424
vn -0.3037 -0.1257 0.9444
vn -0.3051 -0.1264 0.9439
vn -0.3078 -0.1267 0.9430
vn -0.8866 -0.1708 0.4300
vn -0.8807 -0.1697 0.4421
vn -0.8823 -0.1698 0.4391
vn -0.8852 -0.1703 0.4330
vn -0.8863 -0.1383 -0.4419
vn -0.8921 -0.1394 -0.4297
vn -0.8907 -0.1390 -0.4327
vn -0.8878 -0.1384 -0.4388
vn -0.2504 -0.3251 -0.9119
vn -0.2560 -0.3263 -0.9099
vn -0.2546 -0.3257 -0.9105
vn -0.2518 -0.3258 -0.9113
vn 0.6443 -0.0000 -0.7648
vn 0.6562 0.0001 -0.7546
vn 0.6503 -0.0005 -0.7597
vn 0.6502 -0.0000 -0.7597
vn 0.9953 0.0001 -0.0968
vn 0.9982 -0.0000 -0.0593
vn 0.9969 -0.0013 -0.0781
vn 0.9969 -0.0000 -0.0781
vn 0.9982 -0.0000 0.0593
vn 0.9953 -0.0000 0.0968
vn 0.9969 -0.0000 0.0781
vn 0.6562 -0.0002 0.7546
vn 0.6443 -0.0001 0.7648
vn 0.6502 -0.0000 0.7597
vn 0.6503 -0.0000 0.7597
vn -0.0000 -0.5113 -0.8594
vn -0.0000 -0.5111 -0.8595
vn 0.0033 0.8595 0.5111
vn 0.0021 -0.9977 -0.0680
vn -0.0000 -0.9977 -0.0681
vn -0.0000 -0.9977 -0.0680
vn -0.0000 -0.0679 -0.9977
vn -0.0000 -0.0678 -0.9977
vn -0.0000 0.6575 -0.7534
vn -0.0012 0.6576 -0.7534
vn -0.0008 -0.0678 -0.9977
vn -0.0002 0.9993 0.0382
vn -0.0000 0.9955 0.0948
vn -0.0000 0.0676 0.9977
vn -0.0001 0.0558 0.9984
vn -0.0000 0.0795 0.9968
vn 0.8241 0.5390 -0.1740
vn 0.8211 0.5432 -0.1754
vn 0.8208 0.5436 -0.1755
vn 0.8244 0.5389 -0.1731
vn 0.7482 -0.5237 -0.4074
vn 0.7448 -0.5188 -0.4198
vn 0.7447 -0.5190 -0.4196
vn 0.7483 -0.5234 -0.4075
vn 0.0047 0.0676 -0.9977
vn -0.0000 0.0676 -0.9977
vn -0.0007 0.0795 -0.9968
vn -0.0000 0.0558 -0.9984
vn -0.0000 0.9955 -0.0948
vn 0.0001 0.9993 -0.0382
vn 0.7968 -0.4466 0.4069
vn 0.8006 -0.4511 0.3944
vn 0.8002 -0.4515 0.3947
vn 0.7969 -0.4467 0.4067
vn 0.8187 0.5542 0.1500
vn 0.8216 0.5505 0.1478
vn 0.8220 0.5499 0.1477
vn 0.8184 0.5545 0.1507
vn -0.3947 0.1902 0.8989
vn -0.3991 0.1935 0.8962
vn -0.3990 0.1931 0.8964
vn -0.3949 0.1901 0.8988
vn -0.0303 -0.9634 -0.2664
vn -0.0339 -0.9598 -0.2787
vn -0.0341 -0.9598 -0.2788
vn -0.0288 -0.9633 -0.2667
vn -0.9248 -0.2523 -0.2847
vn -0.9207 -0.2526 -0.2974
vn -0.9217 -0.2529 -0.2942
vn -0.9239 -0.2524 -0.2877
vn -0.4211 0.1385 -0.8964
vn -0.4155 0.1376 -0.8991
vn -0.4174 0.1376 -0.8983
vn -0.4192 0.1383 -0.8973
vn -0.4361 0.0341 0.8993
vn -0.4416 0.0355 0.8965
vn -0.4398 0.0351 0.8974
vn -0.4379 0.0347 0.8984
vn 0.8884 -0.1610 -0.4299
vn 0.8826 -0.1599 -0.4420
vn 0.8841 -0.1601 -0.4391
vn 0.8870 -0.1607 -0.4328
vn -0.9982 0.0001 -0.0592
vn -0.9953 -0.0001 -0.0968
vn -0.9970 -0.0000 -0.0780
vn -0.9969 -0.0000 -0.0781
vn 0.0697 -0.0000 0.9976
vn 0.0853 -0.0000 0.9964
vn 0.0775 -0.0000 0.9970
vn 0.0853 0.0001 -0.9964
vn 0.0697 -0.0000 -0.9976
vn 0.0775 -0.0000 -0.9970
vn -0.9953 -0.0001 0.0968
vn -0.9982 -0.0001 0.0592
vn -0.9969 -0.0051 0.0781
vn -0.9969 -0.0000 0.0781
vn 0.0003 0.6576 0.7534
vn -0.0000 0.6575 0.7534
vn -0.0000 0.6576 0.7534
vn -0.0000 0.2466 -0.9691
vn -0.0000 0.2461 -0.9693
vn -0.0009 0.8595 -0.5111
vn 0.0928 0.9687 0.2302
vn 0.1458 0.9152 0.3756
vn 0.1528 0.9062 0.3943
vn -0.9376 -0.3103 -0.1567
vn -0.8841 -0.4557 -0.1033
vn -0.9376 -0.3104 -0.1567
vn -0.8751 -0.4743 -0.0959
vn -0.4607 -0.1314 0.8778
vn -0.3150 -0.1844 0.9310
vn -0.4603 -0.1312 0.8780
vn -0.2945 -0.1912 0.9363
vn 0.6885 0.0787 0.7209
vn 0.7419 -0.0667 0.6672
vn 0.6885 0.0789 0.7209
vn 0.7473 -0.0859 0.6588
vn -0.5841 0.7147 -0.3849
vn -0.5305 0.6613 -0.5304
vn -0.5840 0.7147 -0.3849
vn -0.5223 0.6527 -0.5488
vn -0.2312 0.4685 -0.8527
vn -0.0859 0.4153 -0.9056
vn -0.2316 0.4687 -0.8525
vn -0.0661 0.4071 -0.9110
vn 0.6966 -0.3864 -0.6045
vn 0.6434 -0.5315 -0.5510
vn 0.6968 -0.3859 -0.6047
vn 0.6348 -0.5498 -0.5429
vn -0.6666 0.7428 -0.0628
vn -0.7200 0.6890 0.0824
vn -0.7255 0.6806 0.1019
vn 0.4753 -0.1907 0.8589
vn 0.3298 -0.2440 0.9120
vn 0.4754 -0.1910 0.8588
vn 0.3093 -0.2507 0.9173
vn 0.6180 0.6847 -0.3864
vn 0.5648 0.6310 -0.5318
vn 0.6181 0.6846 -0.3864
vn 0.5563 0.6226 -0.5503
vn 0.0723 -0.2859 0.9555
vn 0.0190 -0.4314 0.9019
vn 0.0725 -0.2860 0.9555
vn 0.0121 -0.4500 0.8929
vn 0.3349 0.2444 -0.9100
vn 0.1893 0.1909 -0.9632
vn 0.3346 0.2444 -0.9101
vn 0.1642 0.1953 -0.9669
vt -66.138519 -17.511343
vt -66.079926 -17.511343
vt -66.079926 -17.452749
vt -66.138519 -17.452749
vt -66.711174 0.289406
vt -66.711174 0.210763
vt -66.682648 0.210763
vt -66.682648 0.289406
vt -66.344414 0.210755
vt -66.315880 0.210755
vt -66.315880 0.289414
vt -66.344414 0.289414
vt -66.077675 0.210764
vt -66.058235 0.210764
vt -66.058235 0.289407
vt -66.077675 0.289407
vt -66.654121 0.289406
vt -66.654121 0.210763
vt -66.004745 0.789237
vt -66.024185 0.789237
vt -66.024185 0.710594
vt -66.004745 0.710594
vt -66.287346 0.210755
vt -66.287346 0.289414
vt -65.855385 0.428949
vt -65.860168 0.429144
vt -65.860168 0.399444
vt -65.855385 0.398671
vt -66.396782 0.507383
vt -66.401505 0.507848
vt -66.407074 0.479879
vt -66.402618 0.478034
vt -65.835083 0.398671
vt -65.830299 0.399444
vt -65.830299 0.429144
vt -65.835083 0.428949
vt -66.235252 0.478039
vt -66.230797 0.479884
vt -66.236359 0.507852
vt -66.241089 0.507387
vt -66.215324 0.456731
vt -66.218735 0.453322
vt -66.194016 0.436803
vt -66.192169 0.441257
vt -65.774437 0.534119
vt -65.779419 0.535605
vt -65.779419 0.508909
vt -65.774437 0.508104
vt -65.800529 0.314837
vt -65.800529 0.309862
vt -65.779419 0.309862
vt -65.779419 0.314837
vt -65.890350 0.427622
vt -65.890350 0.432403
vt -65.910637 0.432403
vt -65.910637 0.427622
vt -66.010376 0.435693
vt -66.005646 0.435693
vt -66.005646 0.507194
vt -66.010376 0.507194
vt -65.915421 0.432403
vt -65.910637 0.504708
vt -65.915421 0.504708
vt -65.890350 0.504708
vt -65.885574 0.504708
vt -65.885574 0.728636
vt -65.890350 0.728636
vt -66.632217 0.507190
vt -66.627495 0.507190
vt -66.627495 0.728636
vt -66.632217 0.728636
vt -66.401505 0.949423
vt -66.396782 0.949888
vt -66.402618 0.979237
vt -66.407074 0.977392
vt -65.860168 0.876947
vt -65.855385 0.877143
vt -65.855385 0.907420
vt -65.860168 0.906648
vt -66.230797 0.977387
vt -66.235252 0.979232
vt -66.241089 0.949883
vt -66.236359 0.949418
vt -65.830299 0.906648
vt -65.835083 0.907420
vt -65.835083 0.877143
vt -65.830299 0.876947
vt -66.422546 1.000545
vt -66.419136 1.003954
vt -66.443855 1.020475
vt -66.445702 1.016020
vt -65.750244 0.329180
vt -65.745270 0.327694
vt -65.745270 0.354392
vt -65.750244 0.355197
vt -66.627495 1.021585
vt -66.632217 1.021585
vt -66.632217 0.950081
vt -66.627495 0.950081
vt -65.885574 1.024870
vt -65.890350 1.024870
vt -65.890350 0.952564
vt -65.885574 0.952564
vt -65.890350 1.029650
vt -65.910637 1.029650
vt -65.910637 1.024870
vt -65.745270 0.553450
vt -65.745270 0.548475
vt -65.724152 0.548475
vt -65.724152 0.553450
vt -65.800529 0.553443
vt -65.800529 0.535605
vt -65.779419 0.553443
vt -65.800529 0.508909
vt -65.800529 0.477417
vt -65.779419 0.477417
vt -66.473007 0.507190
vt -66.422546 0.456725
vt -66.445702 0.441251
vt -66.473671 0.435687
vt -66.164856 0.507194
vt -66.164200 0.435693
vt -66.164856 0.728636
vt -66.236359 0.728636
vt -66.401505 0.728636
vt -66.473007 0.728636
vt -65.835083 0.653047
vt -65.855385 0.653047
vt -66.627495 0.435687
vt -66.010376 0.728636
vt -65.910637 0.728636
vt -65.745270 0.309855
vt -65.724152 0.309855
vt -65.724152 0.327694
vt -65.724152 0.354392
vt -65.724152 0.385885
vt -65.745270 0.385885
vt -66.473007 0.950081
vt -66.473671 1.021585
vt -66.164856 0.950076
vt -66.215324 1.000540
vt -66.164200 1.021580
vt -66.192169 1.016014
vt -66.010376 0.950076
vt -66.010376 1.021580
vt -65.910637 0.952564
vt -66.396782 0.728636
vt -65.860168 0.653047
vt -65.805504 0.551502
vt -65.805504 0.534119
vt -66.419136 0.453317
vt -65.830299 0.653047
vt -66.241089 0.728636
vt -65.805504 0.508104
vt -66.443855 0.436797
vt -65.774437 0.551502
vt -65.805504 0.477214
vt -66.473206 0.430958
vt -66.164665 0.430964
vt -65.774437 0.477214
vt -65.805504 0.314837
vt -66.627495 0.430958
vt -66.010376 0.430964
vt -65.774437 0.314837
vt -65.885574 0.432403
vt -66.632217 0.435687
vt -66.005646 0.728636
vt -65.915421 0.728636
vt -66.005646 0.950076
vt -65.915421 0.952564
vt -65.719177 0.311797
vt -65.719177 0.329180
vt -66.218735 1.003948
vt -65.750244 0.311797
vt -65.719177 0.355197
vt -66.194016 1.020469
vt -66.473206 1.026313
vt -65.750244 0.386089
vt -65.719177 0.386089
vt -66.164665 1.026307
vt -66.627495 1.026313
vt -65.750244 0.548475
vt -65.719177 0.548475
vt -66.010376 1.026307
vt -65.915421 1.024870
vt -66.005646 1.021580
vt -66.631348 0.431827
vt -65.886452 0.428501
vt -65.804596 0.310776
vt -65.914543 0.428501
vt -66.006516 0.431833
vt -65.775352 0.310776
vt -65.886452 1.028771
vt -66.631348 1.025444
vt -65.749329 0.552535
vt -66.006516 1.025437
vt -65.914543 1.028771
vt -65.720093 0.552535
s 1
usemtl M_ToasterLever_7_0
f 1/1/1 2/2/2 4/3/3 3/4/4
f 31/5/5 32/6/6 33/7/7 34/8/8
f 35/9/9 38/10/10 37/11/11 36/12/12
f 31/13/13 35/14/14 36/15/15 32/16/16
f 39/17/17 34/8/18 33/7/19 40/18/20
f 41/19/21 39/20/22 40/21/23 42/22/24
f 41/23/25 42/24/26 37/11/27 38/10/28
f 45/25/29 44/26/30 47/27/31 46/28/32
f 44/29/33 43/30/34 48/31/35 47/32/36
f 51/33/37 50/34/38 53/35/39 52/36/40
f 50/37/41 49/38/42 54/39/43 53/40/44
f 60/41/45 59/42/46 65/43/47 64/44/48
f 59/45/49 58/46/50 66/47/51 65/48/52
f 82/49/53 81/50/53 89/51/54 88/52/53
f 81/53/55 80/54/56 90/55/56 89/56/56
f 86/57/57 85/58/57 95/59/57 94/60/57
f 85/61/58 90/55/59 96/62/59 95/63/58
f 93/64/60 92/65/61 101/66/61 100/67/62
f 92/68/63 91/69/64 102/70/65 101/71/63
f 105/72/66 104/73/67 107/74/68 106/75/69
f 104/76/70 103/77/71 108/78/72 107/79/73
f 111/80/74 110/81/75 113/82/76 112/83/77
f 110/84/78 109/85/79 114/86/80 113/87/81
f 117/88/82 116/89/83 122/90/84 121/91/85
f 116/92/86 115/93/87 123/94/88 122/95/89
f 134/96/90 133/97/90 146/98/91 145/99/90
f 133/100/92 138/101/93 147/102/93 146/103/92
f 138/101/94 137/104/94 141/105/95 140/106/94
f 137/107/96 136/108/97 142/109/97 141/110/97
f 45/25/98 46/28/98 51/33/98 52/36/98
f 46/111/99 55/112/100 58/46/100 51/113/100
f 55/112/101 61/114/101 66/47/102 58/46/101
f 61/114/103 67/115/103 72/116/104 66/47/103
f 48/31/105 43/30/106 25/117/107 57/118/108
f 63/119/105 57/118/109 25/117/110 69/120/111
f 26/121/112 54/39/113 49/38/114 60/41/115
f 26/121/116 60/41/117 64/44/114 70/122/118
f 27/123/114 75/124/114 54/39/114 26/121/114
f 76/125/105 28/126/105 25/117/105 43/30/105
f 73/127/119 78/128/119 45/25/119 52/36/119
f 72/116/120 67/115/120 82/49/120 88/52/120
f 69/120/105 25/117/105 91/69/105 84/129/105
f 26/121/114 70/122/114 86/57/114 94/60/114
f 27/123/114 26/121/114 94/60/114 97/130/114
f 25/117/105 28/126/105 102/70/105 91/69/105
f 80/54/121 93/64/122 96/62/123 90/55/124
f 93/64/125 100/67/125 99/131/125 96/62/125
f 103/77/126 114/86/127 109/85/126 108/78/126
f 108/132/128 109/133/129 118/134/128 115/93/128
f 115/93/130 118/134/130 124/135/130 123/94/131
f 123/94/132 124/135/133 130/136/132 129/137/132
f 106/75/105 117/88/134 29/138/135 105/72/136
f 121/91/105 127/139/137 29/138/135 117/88/134
f 30/140/138 120/141/139 111/80/114 112/83/140
f 30/140/141 132/142/142 126/143/114 120/141/143
f 27/123/114 30/140/114 112/83/114 75/124/114
f 76/125/105 105/72/105 29/138/105 28/126/105
f 73/127/119 114/86/119 103/77/119 78/128/119
f 130/136/144 142/109/144 136/108/144 129/137/144
f 127/139/105 134/96/105 145/99/105 29/138/105
f 30/140/114 148/144/114 144/145/114 132/142/114
f 27/123/114 97/130/114 148/144/114 30/140/114
f 29/138/105 145/99/105 102/70/105 28/126/105
f 138/101/122 140/106/123 150/146/124 147/102/121
f 147/102/125 150/146/125 99/131/125 100/67/125
f 43/30/145 44/29/146 77/147/147 76/125/147
f 44/26/148 45/25/149 78/128/150 77/148/151
f 46/111/152 47/149/153 56/150/154 55/112/155
f 47/32/156 48/31/157 57/118/158 56/151/159
f 52/36/160 53/35/161 74/152/162 73/127/163
f 53/40/164 54/39/165 75/124/166 74/153/167
f 55/112/168 56/150/169 62/154/170 61/114/171
f 56/151/172 57/118/173 63/119/174 62/155/175
f 49/38/176 50/37/177 59/42/178 60/41/179
f 50/156/180 51/113/181 58/46/182 59/45/183
f 61/114/184 62/154/185 68/157/186 67/115/187
f 62/155/188 63/119/189 69/120/190 68/158/191
f 64/44/192 65/43/193 71/159/194 70/122/195
f 65/48/196 66/47/197 72/116/198 71/160/199
f 67/115/200 68/157/201 83/161/202 82/49/203
f 68/158/204 69/120/205 84/129/206 83/162/207
f 70/122/208 71/159/209 87/163/210 86/57/210
f 71/160/211 72/116/212 88/52/213 87/164/214
f 80/54/215 79/165/216 92/65/216 93/64/215
f 79/166/217 84/129/90 91/69/90 92/68/90
f 94/60/218 95/59/219 98/167/219 97/130/220
f 95/63/221 96/62/222 99/131/222 98/168/221
f 97/130/223 98/167/223 149/169/224 148/144/223
f 98/168/221 99/131/222 150/146/225 149/170/221
f 76/125/147 77/147/147 104/73/226 105/72/227
f 77/148/228 78/128/228 103/77/229 104/76/230
f 109/133/231 110/171/232 119/172/233 118/134/234
f 110/81/235 111/80/236 120/141/237 119/173/238
f 73/127/239 74/152/240 113/87/241 114/86/242
f 74/153/167 75/124/166 112/83/243 113/82/244
f 106/75/245 107/74/246 116/89/247 117/88/248
f 107/174/249 108/132/250 115/93/251 116/92/252
f 118/134/253 119/172/254 125/175/255 124/135/256
f 119/173/257 120/141/258 126/143/259 125/176/260
f 121/91/261 122/90/262 128/177/263 127/139/264
f 122/95/265 123/94/266 129/137/267 128/178/268
f 124/135/269 125/175/270 131/179/271 130/136/272
f 125/176/273 126/143/274 132/142/275 131/180/276
f 127/139/277 128/177/278 135/181/279 134/96/280
f 128/178/281 129/137/282 136/108/283 135/182/283
f 130/136/284 131/179/285 143/183/286 142/109/286
f 131/180/287 132/142/288 144/145/289 143/184/290
f 100/67/62 101/66/61 146/103/61 147/102/60
f 101/71/291 102/70/292 145/99/292 146/98/293
f 140/106/294 139/185/295 149/170/295 150/146/294
f 139/186/296 144/145/57 148/144/57 149/169/57
f 83/162/297 84/129/298 79/166/297 151/187/299
f 79/165/300 80/54/301 81/53/302 151/188/303
f 81/50/304 82/49/305 83/161/306 151/189/307
f 89/56/308 90/55/309 85/61/310 152/190/311
f 85/58/312 86/57/313 87/163/314 152/191/315
f 87/164/316 88/52/317 89/51/318 152/192/319
f 137/104/320 138/101/321 133/100/322 153/193/323
f 133/97/324 134/96/325 135/181/324 153/194/326
f 135/182/327 136/108/328 137/107/329 153/195/330
f 143/184/331 144/145/332 139/186/333 154/196/334
f 139/185/335 140/106/336 141/105/337 154/197/338
f 141/110/339 142/109/340 143/183/341 154/198/342
