# Blender 4.1.0
# www.blender.org
mtllib ToasterLever_7_ToasterLever_7_1_GeomSubset_0.mtl
o ToasterLever_7_ToasterLever_7_1_GeomSubset_0
v 0.002036 -0.158128 0.041918
v 0.002036 -0.154057 0.041918
v -0.002036 -0.158128 0.041918
v -0.002036 -0.154057 0.041918
v 0.002036 -0.158128 0.041918
v 0.002036 -0.154057 0.041918
v -0.002036 -0.158128 0.041918
v -0.002036 -0.154057 0.041918
v 0.002036 -0.158128 0.041918
v 0.002036 -0.154057 0.041918
v -0.002036 -0.158128 0.041918
v -0.002036 -0.154057 0.041918
v 0.002036 -0.158128 0.041918
v 0.002036 -0.154057 0.041918
v -0.002036 -0.158128 0.041918
v -0.002036 -0.154057 0.041918
v 0.002036 -0.158128 0.041918
v 0.002036 -0.154057 0.041918
v -0.002036 -0.158128 0.041918
v -0.002036 -0.154057 0.041918
v 0.002036 -0.158128 0.041918
v 0.002036 -0.154057 0.041918
v -0.002036 -0.158128 0.041918
v -0.002036 -0.154057 0.041918
v 0.024494 -0.160705 0.040032
v 0.024494 -0.160705 0.043730
v 0.000000 -0.160705 0.043730
v 0.000000 -0.160705 0.040032
v -0.024494 -0.160705 0.040032
v -0.024494 -0.160705 0.043730
v -0.003163 -0.143911 0.040826
v -0.003163 -0.135191 0.040826
v 0.000000 -0.135191 0.040826
v 0.000000 -0.143911 0.040826
v -0.003163 -0.143911 0.042981
v -0.003163 -0.135191 0.042981
v 0.000000 -0.135191 0.042981
v 0.000000 -0.143911 0.042981
v 0.003163 -0.143911 0.040826
v 0.003163 -0.135191 0.040826
v 0.003163 -0.143911 0.042981
v 0.003163 -0.135191 0.042981
v 0.024421 -0.168614 0.040032
v 0.024473 -0.169137 0.040248
v 0.024494 -0.169353 0.040771
v 0.027803 -0.168695 0.040771
v 0.027719 -0.168491 0.040248
v 0.027515 -0.167998 0.040032
v 0.027515 -0.167998 0.043730
v 0.027719 -0.168491 0.043513
v 0.027803 -0.168695 0.042990
v 0.024494 -0.169353 0.042990
v 0.024473 -0.169137 0.043513
v 0.024421 -0.168614 0.043730
v 0.030609 -0.166820 0.040771
v 0.030453 -0.166664 0.040248
v 0.030076 -0.166287 0.040032
v 0.030609 -0.166820 0.042990
v 0.030453 -0.166664 0.043513
v 0.030076 -0.166287 0.043730
v 0.032484 -0.164014 0.040771
v 0.032280 -0.163930 0.040248
v 0.031788 -0.163726 0.040032
v 0.031788 -0.163726 0.043730
v 0.032280 -0.163930 0.043513
v 0.032484 -0.164014 0.042990
v 0.033143 -0.160705 0.040771
v 0.032926 -0.160683 0.040248
v 0.032403 -0.160632 0.040032
v 0.032403 -0.160632 0.043730
v 0.032926 -0.160683 0.043513
v 0.033143 -0.160705 0.042990
v 0.000000 -0.169353 0.042990
v 0.000000 -0.169137 0.043513
v 0.000000 -0.168614 0.043730
v 0.000000 -0.168614 0.040032
v 0.000000 -0.169137 0.040248
v 0.000000 -0.169353 0.040771
v 0.032403 -0.143095 0.040248
v 0.032403 -0.142878 0.040771
v 0.032926 -0.143095 0.040771
v 0.033143 -0.143618 0.040771
v 0.032926 -0.143618 0.040248
v 0.032403 -0.143618 0.040032
v 0.032403 -0.143095 0.043513
v 0.032403 -0.143618 0.043730
v 0.032926 -0.143618 0.043513
v 0.033143 -0.143618 0.042990
v 0.032926 -0.143095 0.042990
v 0.032403 -0.142878 0.042990
v 0.024494 -0.143618 0.040032
v 0.024494 -0.143095 0.040248
v 0.024494 -0.142878 0.040771
v 0.024494 -0.143618 0.043730
v 0.024494 -0.143095 0.043513
v 0.024494 -0.142878 0.042990
v 0.000000 -0.143618 0.043730
v 0.000000 -0.143095 0.043513
v 0.000000 -0.142878 0.042990
v 0.000000 -0.142878 0.040771
v 0.000000 -0.143095 0.040248
v 0.000000 -0.143618 0.040032
v -0.024494 -0.169353 0.040771
v -0.024472 -0.169137 0.040248
v -0.024421 -0.168614 0.040032
v -0.027515 -0.167998 0.040032
v -0.027719 -0.168491 0.040248
v -0.027803 -0.168695 0.040771
v -0.027803 -0.168695 0.042990
v -0.027719 -0.168491 0.043513
v -0.027515 -0.167998 0.043730
v -0.024421 -0.168614 0.043730
v -0.024472 -0.169137 0.043513
v -0.024494 -0.169353 0.042990
v -0.030609 -0.166820 0.040771
v -0.030453 -0.166664 0.040248
v -0.030076 -0.166287 0.040032
v -0.030609 -0.166820 0.042990
v -0.030453 -0.166664 0.043513
v -0.030076 -0.166287 0.043730
v -0.031787 -0.163726 0.040032
v -0.032280 -0.163930 0.040248
v -0.032484 -0.164014 0.040771
v -0.032484 -0.164014 0.042990
v -0.032280 -0.163930 0.043513
v -0.031787 -0.163726 0.043730
v -0.032403 -0.160632 0.040032
v -0.032926 -0.160683 0.040248
v -0.033143 -0.160705 0.040771
v -0.033143 -0.160705 0.042990
v -0.032926 -0.160683 0.043513
v -0.032403 -0.160632 0.043730
v -0.032403 -0.143095 0.040248
v -0.032403 -0.143618 0.040032
v -0.032926 -0.143618 0.040248
v -0.033143 -0.143618 0.040771
v -0.032926 -0.143095 0.040771
v -0.032403 -0.142878 0.040771
v -0.032403 -0.143095 0.043513
v -0.032403 -0.142878 0.042990
v -0.032926 -0.143095 0.042990
v -0.033143 -0.143618 0.042990
v -0.032926 -0.143618 0.043513
v -0.032403 -0.143618 0.043730
v -0.024494 -0.143618 0.040032
v -0.024494 -0.143095 0.040248
v -0.024494 -0.142878 0.040771
v -0.024494 -0.143618 0.043730
v -0.024494 -0.143095 0.043513
v -0.024494 -0.142878 0.042990
v 0.032830 -0.143191 0.040345
v 0.032830 -0.143191 0.043417
v -0.032830 -0.143191 0.040345
v -0.032830 -0.143191 0.043417
vn -0.8472 -0.0000 0.5312
vn -0.0000 -0.8472 0.5312
vn 0.8472 -0.0000 0.5312
vn -0.0000 0.8472 0.5312
vn 0.4671 -0.0000 -0.8842
vn -0.0000 -0.4671 -0.8842
vn -0.4671 -0.0000 -0.8842
vn -0.0000 0.4671 -0.8842
vn -0.0000 0.4671 0.8842
vn -0.4671 -0.0000 0.8842
vn -0.0000 -0.4671 0.8842
vn 0.4671 -0.0000 0.8842
vn -0.6023 0.7983 -0.0000
vn -0.6023 -0.0000 -0.7983
vn -0.6023 -0.7983 -0.0000
vn -0.6023 -0.0000 0.7983
vn -0.0000 0.4672 -0.8842
vn 0.4672 -0.0000 -0.8842
vn -0.0000 -0.4672 -0.8842
vn -0.4672 -0.0000 -0.8842
vn 0.6023 0.7983 -0.0000
vn 0.6023 -0.0000 0.7983
vn 0.6023 -0.7983 -0.0000
vn 0.6023 -0.0000 -0.7983
vn -0.4672 -0.0000 0.8842
vn -0.0000 -0.4672 0.8842
vn 0.4672 -0.0000 0.8842
vn -0.0000 0.4672 0.8842
vn -0.0918 -0.4571 0.8847
vn -0.0915 -0.4601 0.8831
vn -0.0909 -0.4614 0.8825
vn -0.0922 -0.4557 0.8853
vn -0.3405 -0.8983 0.2779
vn -0.3401 -0.9004 0.2714
vn -0.3397 -0.9015 0.2682
vn -0.3408 -0.8971 0.2811
vn -0.1078 -0.4577 -0.8825
vn -0.1067 -0.4633 -0.8797
vn -0.1070 -0.4620 -0.8804
vn -0.1077 -0.4590 -0.8819
vn -0.4642 -0.8492 -0.2517
vn -0.4625 -0.8538 -0.2389
vn -0.4629 -0.8527 -0.2421
vn -0.4635 -0.8505 -0.2486
vn 0.4150 -0.8679 -0.2729
vn 0.4111 -0.8657 -0.2857
vn 0.4152 -0.8678 -0.2730
vn 0.3233 -0.3070 -0.8951
vn 0.3227 -0.2983 -0.8983
vn 0.3225 -0.2986 -0.8983
vn 0.3274 -0.3011 -0.8956
vn -0.3453 0.9385 -0.0000
vn -0.3453 0.9385 -0.0094
vn 0.9385 -0.3454 0.0006
vn 0.9385 -0.3454 -0.0000
vn -0.0000 0.9692 -0.2462
vn -0.0000 0.9693 -0.2461
vn -0.0000 -0.2464 0.9692
vn -0.0000 -0.2462 0.9692
vn -0.0000 0.7535 0.6575
vn -0.0000 0.7536 0.6573
vn -0.0000 0.7536 0.6574
vn -0.0003 0.7535 0.6575
vn -0.0000 -0.6575 -0.7534
vn -0.0000 -0.6576 -0.7534
vn 0.0004 -0.6576 -0.7534
vn 0.0777 -0.9471 0.3115
vn 0.0783 -0.9448 0.3180
vn 0.0785 -0.9437 0.3213
vn 0.0775 -0.9481 0.3083
vn 0.1603 -0.4678 0.8692
vn 0.1609 -0.4649 0.8706
vn 0.1610 -0.4636 0.8713
vn 0.1600 -0.4691 0.8685
vn 0.0361 -0.9493 -0.3122
vn 0.0373 -0.9449 -0.3252
vn 0.0370 -0.9460 -0.3220
vn 0.0366 -0.9483 -0.3154
vn 0.5083 -0.4747 -0.7185
vn 0.5093 -0.4696 -0.7212
vn 0.5091 -0.4709 -0.7205
vn 0.5083 -0.4735 -0.7193
vn -0.7494 -0.5788 0.3214
vn -0.7459 -0.5762 0.3341
vn -0.7456 -0.5766 0.3341
vn -0.7492 -0.5791 0.3214
vn -0.0500 -0.6272 0.7772
vn -0.0449 -0.6247 0.7796
vn -0.0456 -0.6242 0.7799
vn -0.0498 -0.6274 0.7771
vn -0.0000 0.9692 0.2462
vn -0.0000 0.9693 0.2461
vn -0.0025 0.9693 0.2461
vn -0.0000 0.5114 0.8593
vn -0.0000 0.5111 0.8595
vn -0.9385 -0.3453 -0.0000
vn -0.9385 -0.3453 -0.0015
vn 0.3453 0.9385 0.0094
vn 0.3453 0.9385 -0.0000
vn -0.9053 -0.4247 -0.0000
vn -0.6738 -0.7389 0.0009
vn -0.6738 -0.7389 -0.0000
vn 0.7390 0.6737 -0.0000
vn 0.7390 0.6737 -0.0009
vn 0.4248 0.9053 -0.0000
vn 0.4248 0.9053 -0.0041
vn -0.0000 -0.0000 -1.0000
vn -0.6853 0.2799 -0.6724
vn -0.8530 0.3452 -0.3915
vn -0.6807 0.2800 -0.6770
vn -0.2775 0.6816 -0.6770
vn -0.3468 0.8523 -0.3916
vn -0.2790 0.6856 -0.6724
vn -0.9202 -0.0000 0.3915
vn -0.7394 0.0364 0.6723
vn -0.0000 -0.0000 1.0000
vn -0.7359 -0.0081 0.6770
vn 0.6507 0.6506 0.3916
vn -0.6119 0.4089 0.6771
vn 0.0068 -0.7401 0.6724
vn -0.0000 -1.0000 -0.0000
vn 1.0000 -0.0000 -0.0000
vn -0.0000 0.5625 0.8268
vn 0.8268 0.5625 -0.0000
vn -0.0000 0.5625 -0.8268
vn -0.8268 0.5625 -0.0000
vn -0.0000 1.0000 -0.0000
vn 0.9053 -0.4247 -0.0000
vn 0.9053 -0.4247 -0.0023
vn 0.6738 -0.7389 -0.0000
vn 0.6738 -0.7389 -0.0020
vn -0.7390 0.6737 -0.0000
vn -0.7390 0.6737 0.0042
vn -0.0459 -0.9989 -0.0000
vn -0.0459 -0.9989 -0.0108
vn -0.0000 0.7360 -0.6770
vn -0.0001 0.9202 -0.3915
vn 0.0001 0.7403 -0.6723
vn -0.0000 0.7402 -0.6724
vn 0.7079 0.5879 0.3915
vn 0.5463 0.4932 0.6769
vn 0.5517 0.4936 0.6724
vn -0.0084 -0.9201 0.3916
vn 0.7259 0.1444 0.6724
vn -0.5203 0.5205 0.6770
vn -1.0000 -0.0000 -0.0000
vn -0.0000 0.6363 -0.7715
vn -0.0000 0.6793 -0.7339
vn -0.0000 0.6581 -0.7529
vn -0.0000 0.6582 -0.7529
vn -0.0000 -0.0794 -0.9968
vn -0.0000 -0.0558 -0.9984
vn -0.0000 -0.0677 -0.9977
vn -0.0000 -0.0675 -0.9977
vn 0.1461 0.4597 -0.8760
vn 0.1499 0.4554 -0.8776
vn 0.1494 0.4551 -0.8778
vn 0.1466 0.4599 -0.8758
vn 0.8528 -0.4339 0.2905
vn 0.8550 -0.4379 0.2778
vn 0.8549 -0.4382 0.2779
vn -0.0000 -0.0558 0.9984
vn -0.0000 -0.0794 0.9968
vn -0.0000 -0.0675 0.9977
vn -0.0000 -0.0677 0.9977
vn -0.0001 0.6793 0.7339
vn -0.0000 0.6363 0.7715
vn 0.0004 0.6582 0.7529
vn -0.0000 0.6581 0.7529
vn 0.1215 -0.5471 0.8282
vn 0.1259 -0.5503 0.8254
vn 0.1261 -0.5501 0.8255
vn 0.1212 -0.5475 0.8280
vn 0.7754 -0.5353 0.3350
vn 0.7793 -0.5375 0.3223
vn 0.7794 -0.5373 0.3223
vn 0.7757 -0.5349 0.3350
vn 0.8481 -0.4497 -0.2803
vn 0.8458 -0.4458 -0.2930
vn 0.8479 -0.4500 -0.2804
vn 0.0898 0.4264 0.9001
vn 0.0873 0.4313 0.8980
vn 0.0868 0.4311 0.8981
vn 0.0902 0.4266 0.8999
vn 0.4135 -0.1477 0.8984
vn 0.4187 -0.1486 0.8959
vn 0.4174 -0.1488 0.8964
vn 0.4148 -0.1481 0.8978
vn 0.9254 -0.1785 0.3344
vn 0.9297 -0.1795 0.3215
vn 0.9287 -0.1791 0.3247
vn 0.9265 -0.1787 0.3311
vn 0.9353 -0.1481 -0.3213
vn 0.9310 -0.1472 -0.3341
vn 0.9321 -0.1472 -0.3309
vn 0.9343 -0.1477 -0.3245
vn 0.3654 -0.3480 -0.8634
vn 0.3602 -0.3471 -0.8659
vn 0.3616 -0.3469 -0.8654
vn 0.3640 -0.3482 -0.8639
vn -0.0853 -0.0000 -0.9964
vn -0.0697 0.0001 -0.9976
vn -0.0775 -0.0003 -0.9970
vn -0.0775 -0.0000 -0.9970
vn -0.7723 0.0001 -0.6352
vn -0.7478 -0.0000 -0.6639
vn -0.7602 -0.0013 -0.6497
vn -0.7602 -0.0000 -0.6497
vn -0.7478 -0.0000 0.6639
vn -0.7723 -0.0000 0.6353
vn -0.7602 -0.0000 0.6497
vn -0.0697 -0.0002 0.9976
vn -0.0853 -0.0001 0.9964
vn -0.0775 -0.0000 0.9970
vn -0.0000 -0.2462 -0.9692
vn -0.0000 -0.2464 -0.9692
vn -0.0033 0.9693 0.2461
vn -0.0021 -0.6576 0.7534
vn -0.0000 -0.6575 0.7534
vn -0.0000 -0.6576 0.7534
vn -0.0000 0.7535 -0.6574
vn -0.0000 0.7535 -0.6575
vn -0.0000 0.9977 0.0680
vn 0.0011 0.9977 0.0680
vn 0.0009 0.7535 -0.6575
vn 0.0002 0.6791 -0.7340
vn -0.0000 0.6364 -0.7713
vn -0.0000 -0.7534 0.6576
vn 0.0001 -0.7455 0.6666
vn -0.0000 -0.7612 0.6486
vn -0.8831 0.4507 -0.1300
vn -0.8859 0.4462 -0.1271
vn -0.8858 0.4463 -0.1271
vn -0.8831 0.4510 -0.1294
vn -0.7697 -0.5561 -0.3135
vn -0.7723 -0.5597 -0.3006
vn -0.7720 -0.5599 -0.3007
vn -0.7699 -0.5559 -0.3134
vn -0.0047 -0.7533 -0.6576
vn -0.0000 -0.7534 -0.6576
vn 0.0007 -0.7612 -0.6486
vn -0.0000 -0.7455 -0.6665
vn -0.0000 0.6364 0.7714
vn -0.0001 0.6791 0.7340
vn -0.8242 -0.4876 0.2878
vn -0.8221 -0.4836 0.3005
vn -0.8219 -0.4839 0.3006
vn -0.8243 -0.4876 0.2878
vn -0.8835 0.4573 0.1016
vn -0.8808 0.4621 0.1038
vn -0.8807 0.4621 0.1039
vn -0.8835 0.4572 0.1023
vn 0.3067 0.1313 0.9427
vn 0.3018 0.1285 0.9447
vn 0.3020 0.1283 0.9446
vn 0.3067 0.1312 0.9427
vn -0.0022 -0.9851 -0.1722
vn -0.0069 -0.9871 -0.1598
vn -0.0068 -0.9871 -0.1598
vn -0.0035 -0.9850 -0.1726
vn 0.8759 -0.2620 -0.4052
vn 0.8818 -0.2605 -0.3931
vn 0.8803 -0.2612 -0.3961
vn 0.8773 -0.2618 -0.4022
vn 0.3060 0.1156 -0.9450
vn 0.3113 0.1167 -0.9431
vn 0.3100 0.1162 -0.9436
vn 0.3073 0.1159 -0.9445
vn 0.3319 0.0134 0.9432
vn 0.3266 0.0124 0.9451
vn 0.3279 0.0128 0.9446
vn 0.3305 0.0133 0.9437
vn -0.9273 -0.1686 -0.3342
vn -0.9316 -0.1697 -0.3214
vn -0.9306 -0.1694 -0.3246
vn -0.9284 -0.1688 -0.3310
vn 0.7478 0.0001 -0.6639
vn 0.7723 -0.0001 -0.6352
vn 0.7602 -0.0000 -0.6497
vn -0.6562 -0.0000 0.7546
vn -0.6443 -0.0000 0.7648
vn -0.6503 -0.0000 0.7597
vn -0.6502 -0.0000 0.7597
vn -0.6443 0.0001 -0.7648
vn -0.6562 -0.0000 -0.7546
vn -0.6502 -0.0000 -0.7597
vn -0.6503 -0.0000 -0.7597
vn 0.7723 -0.0001 0.6352
vn 0.7478 -0.0001 0.6639
vn 0.7602 -0.0051 0.6496
vn 0.7602 -0.0000 0.6497
vn -0.0000 0.7535 0.6574
vn -0.0004 0.9977 -0.0680
vn -0.0000 0.9977 -0.0681
vn -0.0000 0.9977 -0.0680
vn -0.0000 0.5111 -0.8595
vn -0.0000 0.5114 -0.8593
vn 0.0010 0.9693 -0.2461
vn -0.1169 0.9480 0.2959
vn -0.1167 0.9480 0.2962
vn -0.1160 0.9488 0.2938
vn 0.9168 -0.3765 -0.1333
vn 0.9168 -0.3765 -0.1332
vn 0.9168 -0.3764 -0.1334
vn 0.9176 -0.3742 -0.1341
vn 0.3967 -0.1556 0.9046
vn 0.3966 -0.1556 0.9047
vn 0.3970 -0.1554 0.9046
vn 0.3991 -0.1546 0.9038
vn -0.7145 0.0139 0.6995
vn -0.7147 0.0141 0.6992
vn -0.7147 0.0138 0.6993
vn -0.7139 0.0161 0.7000
vn 0.5620 0.6931 -0.4514
vn 0.5619 0.6932 -0.4514
vn 0.5628 0.6939 -0.4492
vn 0.1673 0.4463 -0.8791
vn 0.1668 0.4462 -0.8792
vn 0.1669 0.4462 -0.8792
vn 0.1693 0.4471 -0.8783
vn -0.6752 -0.4523 -0.5827
vn -0.6753 -0.4524 -0.5825
vn -0.6750 -0.4527 -0.5826
vn -0.6759 -0.4503 -0.5834
vn 0.6925 0.7214 0.0020
vn 0.6929 0.7210 0.0020
vn 0.6925 0.7214 0.0021
vn 0.6919 0.7220 -0.0002
vn -0.4118 -0.2152 0.8855
vn -0.4115 -0.2153 0.8856
vn -0.4116 -0.2154 0.8855
vn -0.4140 -0.2143 0.8847
vn -0.5961 0.6630 -0.4529
vn -0.5964 0.6628 -0.4529
vn -0.5962 0.6629 -0.4529
vn -0.5971 0.6636 -0.4506
vn -0.0486 -0.3521 0.9347
vn -0.0487 -0.3521 0.9347
vn -0.0489 -0.3521 0.9347
vn -0.0497 -0.3499 0.9355
vn -0.2706 0.2214 -0.9369
vn -0.2704 0.2211 -0.9370
vn -0.2680 0.2341 -0.9345
vt -66.138519 -17.511343
vt -66.079926 -17.511343
vt -66.079926 -17.452749
vt -66.138519 -17.452749
vt -66.711174 0.289406
vt -66.711174 0.210763
vt -66.682648 0.210763
vt -66.682648 0.289406
vt -66.344414 0.210755
vt -66.315880 0.210755
vt -66.315880 0.289414
vt -66.344414 0.289414
vt -66.077675 0.210764
vt -66.058235 0.210764
vt -66.058235 0.289407
vt -66.077675 0.289407
vt -66.654121 0.289406
vt -66.654121 0.210763
vt -66.004745 0.789237
vt -66.024185 0.789237
vt -66.024185 0.710594
vt -66.004745 0.710594
vt -66.287346 0.210755
vt -66.287346 0.289414
vt -65.855385 0.428949
vt -65.860168 0.429144
vt -65.860168 0.399444
vt -65.855385 0.398671
vt -66.396782 0.507383
vt -66.401505 0.507848
vt -66.407074 0.479879
vt -66.402618 0.478034
vt -65.835083 0.398671
vt -65.830299 0.399444
vt -65.830299 0.429144
vt -65.835083 0.428949
vt -66.235252 0.478039
vt -66.230797 0.479884
vt -66.236359 0.507852
vt -66.241089 0.507387
vt -66.215324 0.456731
vt -66.218735 0.453322
vt -66.194016 0.436803
vt -66.192169 0.441257
vt -65.774437 0.534119
vt -65.779419 0.535605
vt -65.779419 0.508909
vt -65.774437 0.508104
vt -65.800529 0.314837
vt -65.800529 0.309862
vt -65.779419 0.309862
vt -65.779419 0.314837
vt -65.890350 0.427622
vt -65.890350 0.432403
vt -65.910637 0.432403
vt -65.910637 0.427622
vt -66.010376 0.435693
vt -66.005646 0.435693
vt -66.005646 0.507194
vt -66.010376 0.507194
vt -65.915421 0.432403
vt -65.910637 0.504708
vt -65.915421 0.504708
vt -65.890350 0.504708
vt -65.885574 0.504708
vt -65.885574 0.728636
vt -65.890350 0.728636
vt -66.632217 0.507190
vt -66.627495 0.507190
vt -66.627495 0.728636
vt -66.632217 0.728636
vt -66.401505 0.949423
vt -66.396782 0.949888
vt -66.402618 0.979237
vt -66.407074 0.977392
vt -65.860168 0.876947
vt -65.855385 0.877143
vt -65.855385 0.907420
vt -65.860168 0.906648
vt -66.230797 0.977387
vt -66.235252 0.979232
vt -66.241089 0.949883
vt -66.236359 0.949418
vt -65.830299 0.906648
vt -65.835083 0.907420
vt -65.835083 0.877143
vt -65.830299 0.876947
vt -66.422546 1.000545
vt -66.419136 1.003954
vt -66.443855 1.020475
vt -66.445702 1.016020
vt -65.750244 0.329180
vt -65.745270 0.327694
vt -65.745270 0.354392
vt -65.750244 0.355197
vt -66.627495 1.021585
vt -66.632217 1.021585
vt -66.632217 0.950081
vt -66.627495 0.950081
vt -65.885574 1.024870
vt -65.890350 1.024870
vt -65.890350 0.952564
vt -65.885574 0.952564
vt -65.890350 1.029650
vt -65.910637 1.029650
vt -65.910637 1.024870
vt -65.745270 0.553450
vt -65.745270 0.548475
vt -65.724152 0.548475
vt -65.724152 0.553450
vt -65.800529 0.553443
vt -65.800529 0.535605
vt -65.779419 0.553443
vt -65.800529 0.508909
vt -65.800529 0.477417
vt -65.779419 0.477417
vt -66.473007 0.507190
vt -66.422546 0.456725
vt -66.445702 0.441251
vt -66.473671 0.435687
vt -66.164856 0.507194
vt -66.164200 0.435693
vt -66.164856 0.728636
vt -66.236359 0.728636
vt -66.401505 0.728636
vt -66.473007 0.728636
vt -65.835083 0.653047
vt -65.855385 0.653047
vt -66.627495 0.435687
vt -66.010376 0.728636
vt -65.910637 0.728636
vt -65.745270 0.309855
vt -65.724152 0.309855
vt -65.724152 0.327694
vt -65.724152 0.354392
vt -65.724152 0.385885
vt -65.745270 0.385885
vt -66.473007 0.950081
vt -66.473671 1.021585
vt -66.164856 0.950076
vt -66.215324 1.000540
vt -66.164200 1.021580
vt -66.192169 1.016014
vt -66.010376 0.950076
vt -66.010376 1.021580
vt -65.910637 0.952564
vt -66.396782 0.728636
vt -65.860168 0.653047
vt -65.805504 0.551502
vt -65.805504 0.534119
vt -66.419136 0.453317
vt -65.830299 0.653047
vt -66.241089 0.728636
vt -65.805504 0.508104
vt -66.443855 0.436797
vt -65.774437 0.551502
vt -65.805504 0.477214
vt -66.473206 0.430958
vt -66.164665 0.430964
vt -65.774437 0.477214
vt -65.805504 0.314837
vt -66.627495 0.430958
vt -66.010376 0.430964
vt -65.774437 0.314837
vt -65.885574 0.432403
vt -66.632217 0.435687
vt -66.005646 0.728636
vt -65.915421 0.728636
vt -66.005646 0.950076
vt -65.915421 0.952564
vt -65.719177 0.311797
vt -65.719177 0.329180
vt -66.218735 1.003948
vt -65.750244 0.311797
vt -65.719177 0.355197
vt -66.194016 1.020469
vt -66.473206 1.026313
vt -65.750244 0.386089
vt -65.719177 0.386089
vt -66.164665 1.026307
vt -66.627495 1.026313
vt -65.750244 0.548475
vt -65.719177 0.548475
vt -66.010376 1.026307
vt -65.915421 1.024870
vt -66.005646 1.021580
vt -66.631348 0.431827
vt -65.886452 0.428501
vt -65.804596 0.310776
vt -65.914543 0.428501
vt -66.006516 0.431833
vt -65.775352 0.310776
vt -65.886452 1.028771
vt -66.631348 1.025444
vt -65.749329 0.552535
vt -66.006516 1.025437
vt -65.914543 1.028771
vt -65.720093 0.552535
s 1
usemtl M_ToasterLever_7_0
f 1/1/1 2/2/2 4/3/3 3/4/4
f 31/5/5 32/6/6 33/7/7 34/8/8
f 35/9/9 38/10/10 37/11/11 36/12/12
f 31/13/13 35/14/14 36/15/15 32/16/16
f 39/17/17 34/8/18 33/7/19 40/18/20
f 41/19/21 39/20/22 40/21/23 42/22/24
f 41/23/25 42/24/26 37/11/27 38/10/28
f 45/25/29 44/26/30 47/27/31 46/28/32
f 44/29/33 43/30/34 48/31/35 47/32/36
f 51/33/37 50/34/38 53/35/39 52/36/40
f 50/37/41 49/38/42 54/39/43 53/40/44
f 60/41/45 59/42/46 65/43/46 64/44/47
f 59/45/48 58/46/49 66/47/50 65/48/51
f 82/49/52 81/50/52 89/51/53 88/52/52
f 81/53/54 80/54/55 90/55/55 89/56/55
f 86/57/56 85/58/57 95/59/57 94/60/56
f 85/61/58 90/55/59 96/62/59 95/63/58
f 93/64/60 92/65/61 101/66/62 100/67/63
f 92/68/64 91/69/65 102/70/66 101/71/64
f 105/72/67 104/73/68 107/74/69 106/75/70
f 104/76/71 103/77/72 108/78/73 107/79/74
f 111/80/75 110/81/76 113/82/77 112/83/78
f 110/84/79 109/85/80 114/86/81 113/87/82
f 117/88/83 116/89/84 122/90/85 121/91/86
f 116/92/87 115/93/88 123/94/89 122/95/90
f 134/96/91 133/97/92 146/98/93 145/99/91
f 133/100/94 138/101/95 147/102/95 146/103/94
f 138/101/96 137/104/96 141/105/97 140/106/96
f 137/107/98 136/108/99 142/109/99 141/110/99
f 45/25/100 46/28/100 51/33/100 52/36/100
f 46/111/101 55/112/102 58/46/102 51/113/102
f 55/112/103 61/114/103 66/47/104 58/46/103
f 61/114/105 67/115/105 72/116/106 66/47/105
f 48/31/107 43/30/108 25/117/109 57/118/110
f 63/119/107 57/118/111 25/117/112 69/120/113
f 26/121/114 54/39/115 49/38/116 60/41/117
f 26/121/118 60/41/119 64/44/116 70/122/120
f 27/123/116 75/124/116 54/39/116 26/121/116
f 76/125/107 28/126/107 25/117/107 43/30/107
f 73/127/121 78/128/121 45/25/121 52/36/121
f 72/116/122 67/115/122 82/49/122 88/52/122
f 69/120/107 25/117/107 91/69/107 84/129/107
f 26/121/116 70/122/116 86/57/116 94/60/116
f 27/123/116 26/121/116 94/60/116 97/130/116
f 25/117/107 28/126/107 102/70/107 91/69/107
f 80/54/123 93/64/124 96/62/125 90/55/126
f 93/64/127 100/67/127 99/131/127 96/62/127
f 103/77/128 114/86/129 109/85/128 108/78/128
f 108/132/130 109/133/131 118/134/130 115/93/130
f 115/93/132 118/134/132 124/135/132 123/94/133
f 123/94/134 124/135/135 130/136/134 129/137/134
f 106/75/107 117/88/136 29/138/137 105/72/138
f 121/91/107 127/139/139 29/138/137 117/88/136
f 30/140/140 120/141/141 111/80/116 112/83/142
f 30/140/143 132/142/144 126/143/116 120/141/145
f 27/123/116 30/140/116 112/83/116 75/124/116
f 76/125/107 105/72/107 29/138/107 28/126/107
f 73/127/121 114/86/121 103/77/121 78/128/121
f 130/136/146 142/109/146 136/108/146 129/137/146
f 127/139/107 134/96/107 145/99/107 29/138/107
f 30/140/116 148/144/116 144/145/116 132/142/116
f 27/123/116 97/130/116 148/144/116 30/140/116
f 29/138/107 145/99/107 102/70/107 28/126/107
f 138/101/124 140/106/125 150/146/126 147/102/123
f 147/102/127 150/146/127 99/131/127 100/67/127
f 43/30/147 44/29/148 77/147/149 76/125/150
f 44/26/151 45/25/152 78/128/153 77/148/154
f 46/111/155 47/149/156 56/150/157 55/112/158
f 47/32/159 48/31/160 57/118/161 56/151/159
f 52/36/162 53/35/163 74/152/164 73/127/165
f 53/40/166 54/39/167 75/124/168 74/153/169
f 55/112/170 56/150/171 62/154/172 61/114/173
f 56/151/174 57/118/175 63/119/176 62/155/177
f 49/38/178 50/37/179 59/42/179 60/41/180
f 50/156/181 51/113/182 58/46/183 59/45/184
f 61/114/185 62/154/186 68/157/187 67/115/188
f 62/155/189 63/119/190 69/120/191 68/158/192
f 64/44/193 65/43/194 71/159/195 70/122/196
f 65/48/197 66/47/198 72/116/199 71/160/200
f 67/115/201 68/157/202 83/161/203 82/49/204
f 68/158/205 69/120/206 84/129/207 83/162/208
f 70/122/209 71/159/210 87/163/211 86/57/211
f 71/160/212 72/116/213 88/52/214 87/164/214
f 80/54/215 79/165/216 92/65/216 93/64/215
f 79/166/217 84/129/91 91/69/91 92/68/92
f 94/60/218 95/59/219 98/167/219 97/130/220
f 95/63/221 96/62/222 99/131/222 98/168/221
f 97/130/223 98/167/223 149/169/224 148/144/223
f 98/168/221 99/131/222 150/146/225 149/170/221
f 76/125/150 77/147/149 104/73/226 105/72/227
f 77/148/228 78/128/228 103/77/229 104/76/230
f 109/133/231 110/171/232 119/172/233 118/134/234
f 110/81/235 111/80/236 120/141/237 119/173/238
f 73/127/239 74/152/240 113/87/241 114/86/242
f 74/153/169 75/124/168 112/83/243 113/82/244
f 106/75/245 107/74/246 116/89/247 117/88/248
f 107/174/249 108/132/250 115/93/251 116/92/252
f 118/134/253 119/172/254 125/175/255 124/135/256
f 119/173/257 120/141/258 126/143/259 125/176/260
f 121/91/261 122/90/262 128/177/263 127/139/264
f 122/95/265 123/94/266 129/137/267 128/178/268
f 124/135/269 125/175/270 131/179/271 130/136/272
f 125/176/273 126/143/274 132/142/275 131/180/276
f 127/139/277 128/177/278 135/181/279 134/96/279
f 128/178/280 129/137/281 136/108/282 135/182/283
f 130/136/284 131/179/285 143/183/286 142/109/287
f 131/180/288 132/142/289 144/145/290 143/184/291
f 100/67/63 101/66/62 146/103/292 147/102/60
f 101/71/293 102/70/294 145/99/294 146/98/295
f 140/106/296 139/185/297 149/170/297 150/146/296
f 139/186/298 144/145/56 148/144/56 149/169/57
f 83/162/299 84/129/300 79/166/299 151/187/301
f 79/165/302 80/54/303 81/53/304 151/188/305
f 81/50/306 82/49/307 83/161/308 151/189/309
f 89/56/310 90/55/311 85/61/312 152/190/313
f 85/58/314 86/57/315 87/163/314 152/191/316
f 87/164/317 88/52/318 89/51/319 152/192/320
f 137/104/321 138/101/322 133/100/323 153/193/324
f 133/97/325 134/96/326 135/181/327 153/194/328
f 135/182/329 136/108/330 137/107/331 153/195/332
f 143/184/333 144/145/334 139/186/335 154/196/336
f 139/185/337 140/106/338 141/105/339 154/197/340
f 141/110/341 142/109/342 143/183/341 154/198/343
