# Blender 4.1.0
# www.blender.org
mtllib FridgeDrawer1_21_FridgeDrawer1D3_1_GeomSubset_4.mtl
o FridgeDrawer1_21_FridgeDrawer1D3_1_GeomSubset_4
v 0.020602 0.024838 -0.763819
v 0.020609 0.024838 -0.763819
v 0.020602 0.024846 -0.763819
v 0.020609 0.024846 -0.763819
v 0.020602 0.024838 -0.763819
v 0.020609 0.024838 -0.763819
v 0.020602 0.024846 -0.763819
v 0.020609 0.024846 -0.763819
v 0.020602 0.024838 -0.763819
v 0.020609 0.024838 -0.763819
v 0.020602 0.024846 -0.763819
v 0.020609 0.024846 -0.763819
v 0.020602 0.024838 -0.763819
v 0.020609 0.024838 -0.763819
v 0.020602 0.024846 -0.763819
v 0.020609 0.024846 -0.763819
v 0.020602 0.024838 -0.763819
v 0.020609 0.024838 -0.763819
v 0.020602 0.024846 -0.763819
v 0.020609 0.024846 -0.763819
v 0.020602 0.024838 -0.763819
v 0.020609 0.024838 -0.763819
v 0.020602 0.024846 -0.763819
v 0.020609 0.024846 -0.763819
v 0.020602 0.024838 -0.763819
v 0.020609 0.024838 -0.763819
v 0.020602 0.024846 -0.763819
v 0.020609 0.024846 -0.763819
v 0.010795 0.182303 -0.423765
v 0.408959 0.182303 -0.423765
v 0.010795 -0.233905 -0.423765
v 0.408959 -0.233905 -0.423765
v 0.171970 0.182303 -0.423765
v 0.115062 0.182303 -0.423765
v 0.304691 0.182303 -0.423765
v 0.247783 0.182303 -0.423765
v 0.171970 -0.253225 -0.423765
v 0.115285 -0.249116 -0.423765
v 0.304468 -0.249116 -0.423765
v 0.247783 -0.253225 -0.423765
v 0.115062 0.182303 -0.617046
v 0.010795 0.182303 -0.617046
v 0.304691 0.182303 -0.617046
v 0.408959 0.182303 -0.617046
v 0.247783 0.182303 -0.617046
v 0.171970 0.182303 -0.617046
v 0.017765 0.174244 -0.423765
v 0.401989 0.174244 -0.423765
v 0.017765 -0.226797 -0.423765
v 0.401989 -0.226797 -0.423765
v 0.171970 0.174244 -0.423765
v 0.115062 0.174244 -0.423765
v 0.304691 0.174244 -0.423765
v 0.247783 0.174244 -0.423765
v 0.172188 -0.245166 -0.423765
v 0.115939 -0.241088 -0.423765
v 0.303814 -0.241088 -0.423765
v 0.247565 -0.245166 -0.423765
v 0.017765 0.174244 -0.609469
v 0.401989 0.174244 -0.609469
v 0.171970 0.174244 -0.609469
v 0.115062 0.174244 -0.609469
v 0.304691 0.174244 -0.609469
v 0.247783 0.174244 -0.609469
v 0.010795 0.182303 -0.430903
v 0.115062 0.182303 -0.430903
v 0.010795 -0.233905 -0.430903
v 0.115285 -0.249116 -0.430903
v 0.408959 -0.233905 -0.430903
v 0.304468 -0.249116 -0.430903
v 0.408959 0.182303 -0.430903
v 0.304691 0.182303 -0.430903
v 0.247783 -0.253225 -0.430903
v 0.171970 -0.253225 -0.430903
v 0.171970 0.182303 -0.430903
v 0.247783 0.182303 -0.430903
v 0.247565 -0.245166 -0.430903
v 0.303814 -0.241088 -0.430903
v 0.401989 -0.226797 -0.430903
v 0.401989 0.174244 -0.430903
v 0.304691 0.174244 -0.430903
v 0.247783 0.174244 -0.430903
v 0.171970 0.174244 -0.430903
v 0.115062 0.174244 -0.430903
v 0.017765 0.174244 -0.430903
v 0.017765 -0.226797 -0.430903
v 0.115939 -0.241088 -0.430903
v 0.172188 -0.245166 -0.430903
v 0.009840 0.183407 -0.425226
v 0.409913 0.183407 -0.425226
v 0.009840 -0.234879 -0.425226
v 0.409913 -0.234879 -0.425226
v 0.171970 0.183407 -0.425226
v 0.115062 0.183407 -0.425226
v 0.304691 0.183407 -0.425226
v 0.247783 0.183407 -0.425226
v 0.171940 -0.254329 -0.425226
v 0.115195 -0.250215 -0.425226
v 0.304558 -0.250215 -0.425226
v 0.247813 -0.254329 -0.425226
v 0.009840 0.183407 -0.429443
v 0.115062 0.183407 -0.429443
v 0.009840 -0.234879 -0.429443
v 0.115195 -0.250215 -0.429443
v 0.409913 -0.234879 -0.429443
v 0.304558 -0.250215 -0.429443
v 0.409913 0.183407 -0.429443
v 0.304691 0.183407 -0.429443
v 0.247813 -0.254329 -0.429443
v 0.171940 -0.254329 -0.429443
v 0.171970 0.183407 -0.429443
v 0.247783 0.183407 -0.429443
v 0.115285 -0.249116 -0.586846
v 0.115269 -0.218756 -0.617046
v 0.010795 -0.233905 -0.586846
v 0.010795 -0.203545 -0.617046
v 0.304484 -0.218756 -0.617046
v 0.304468 -0.249116 -0.586846
v 0.408959 -0.203545 -0.617046
v 0.408959 -0.233905 -0.586846
v 0.171970 -0.222865 -0.617046
v 0.171970 -0.253225 -0.586846
v 0.247783 -0.253225 -0.586846
v 0.247783 -0.222865 -0.617046
v 0.017765 -0.196437 -0.609469
v 0.017765 -0.226797 -0.579269
v 0.401989 -0.226797 -0.579269
v 0.401989 -0.196437 -0.609469
v 0.172172 -0.214806 -0.609469
v 0.172188 -0.245166 -0.579269
v 0.115939 -0.241088 -0.579269
v 0.115875 -0.210728 -0.609469
v 0.303879 -0.210728 -0.609469
v 0.303814 -0.241088 -0.579269
v 0.247581 -0.214806 -0.609469
v 0.247565 -0.245166 -0.579269
v 0.304478 -0.230374 -0.614748
v 0.247783 -0.234484 -0.614748
v 0.304473 -0.240223 -0.608201
v 0.247783 -0.244333 -0.608201
v 0.304470 -0.246805 -0.598403
v 0.247783 -0.250914 -0.598403
v 0.171970 -0.234484 -0.614748
v 0.115275 -0.230374 -0.614748
v 0.171970 -0.244333 -0.608201
v 0.115280 -0.240223 -0.608201
v 0.171970 -0.250914 -0.598403
v 0.115284 -0.246805 -0.598403
v 0.408959 -0.215164 -0.614748
v 0.408959 -0.225013 -0.608201
v 0.408959 -0.231594 -0.598403
v 0.010795 -0.215164 -0.614748
v 0.010795 -0.225013 -0.608201
v 0.010795 -0.231594 -0.598403
v 0.017765 -0.208055 -0.607170
v 0.115899 -0.222346 -0.607170
v 0.017765 -0.217905 -0.600623
v 0.115920 -0.232196 -0.600623
v 0.017765 -0.224486 -0.590826
v 0.115934 -0.238777 -0.590826
v 0.303854 -0.222346 -0.607170
v 0.401989 -0.208055 -0.607170
v 0.303833 -0.232196 -0.600623
v 0.401989 -0.217905 -0.600623
v 0.303819 -0.238777 -0.590826
v 0.401989 -0.224486 -0.590826
v 0.172178 -0.226424 -0.607170
v 0.247575 -0.226424 -0.607170
v 0.172184 -0.236274 -0.600623
v 0.247570 -0.236274 -0.600623
v 0.172187 -0.242855 -0.590826
v 0.247566 -0.242855 -0.590826
vn -0.0000 -0.0000 1.0000
vn -0.0310 0.9994 0.0144
vn 0.0309 0.9994 0.0144
vn 0.0309 0.9995 -0.0000
vn -0.0309 0.9995 -0.0000
vn 0.1181 0.9929 0.0143
vn 0.1181 0.9930 -0.0000
vn 0.1440 0.9895 0.0145
vn 0.1440 0.9896 -0.0000
vn 1.0000 -0.0000 -0.0000
vn -1.0000 -0.0000 -0.0000
vn -0.1181 0.9929 0.0143
vn -0.1181 0.9930 -0.0000
vn -0.1440 0.9896 -0.0000
vn -0.1440 0.9895 0.0146
vn 0.0310 -0.9994 -0.0138
vn 0.1190 -0.9928 -0.0136
vn 0.1190 -0.9929 -0.0072
vn 0.0344 -0.9994 -0.0071
vn -0.0344 -0.9994 -0.0071
vn -0.1190 -0.9929 -0.0072
vn -0.1190 -0.9928 -0.0136
vn -0.0310 -0.9994 -0.0138
vn -0.0000 1.0000 -0.0059
vn -0.0000 1.0000 -0.0000
vn -0.0000 1.0000 -0.0077
vn 1.0000 -0.0000 -0.0070
vn 1.0000 -0.0000 -0.0069
vn 0.1440 -0.9895 -0.0139
vn 0.1440 -0.9895 -0.0090
vn -0.1440 -0.9895 -0.0139
vn -0.1442 -0.9895 -0.0089
vn -1.0000 -0.0000 -0.0069
vn -1.0000 -0.0001 -0.0070
vn -0.0002 0.0061 1.0000
vn -0.0008 0.0065 1.0000
vn 0.0008 0.0064 1.0000
vn 0.0002 0.0061 1.0000
vn -0.0007 0.0050 1.0000
vn 0.0007 0.0050 1.0000
vn -0.0007 -0.0048 -1.0000
vn -0.0000 -0.0000 -1.0000
vn -0.0008 -0.0061 -1.0000
vn -0.0000 -1.0000 -0.0000
vn 0.0007 -0.0048 -1.0000
vn 0.0007 -0.0061 -1.0000
vn 0.0002 -0.0058 -1.0000
vn -0.0002 -0.0058 -1.0000
vn 0.0468 -0.3878 -0.9206
vn 0.0120 -0.3842 -0.9232
vn 0.0847 -0.7070 -0.7022
vn 0.0219 -0.7070 -0.7069
vn 0.1098 -0.9188 -0.3791
vn 0.0286 -0.9234 -0.3829
vn -0.0118 -0.3841 -0.9232
vn -0.0468 -0.3878 -0.9206
vn -0.0219 -0.7070 -0.7069
vn -0.0847 -0.7070 -0.7022
vn -0.0285 -0.9234 -0.3829
vn -0.1098 -0.9188 -0.3791
vn 0.0532 -0.3655 -0.9293
vn 0.1008 -0.6926 -0.7142
vn 0.1328 -0.9123 -0.3873
vn -0.0531 -0.3651 -0.9295
vn -0.1008 -0.6926 -0.7142
vn -0.1328 -0.9127 -0.3866
vn 0.0532 0.3651 0.9294
vn 0.0464 0.3876 0.9207
vn 0.1009 0.6930 0.7139
vn 0.0841 0.7069 0.7023
vn 0.1328 0.9123 0.3873
vn 0.1090 0.9189 0.3792
vn -0.0464 0.3876 0.9207
vn -0.0532 0.3651 0.9294
vn -0.0841 0.7069 0.7023
vn -0.1008 0.6926 0.7142
vn -0.1090 0.9189 0.3792
vn -0.1328 0.9123 0.3873
vn 0.0120 0.3842 0.9232
vn -0.0120 0.3842 0.9232
vn 0.0218 0.7070 0.7069
vn -0.0218 0.7070 0.7069
vn 0.0285 0.9234 0.3829
vn -0.0284 0.9234 0.3829
vt -69.157967 -112.123444
vt -69.157959 -112.123444
vt -69.157959 -112.123436
vt -69.157967 -112.123436
vt -71.657410 -0.270731
vt -71.657410 -0.036726
vt -72.118011 -0.036726
vt -72.118011 -0.270731
vt -71.657410 0.137898
vt -72.118011 0.137898
vt -71.657410 0.442677
vt -72.118011 0.442677
vt -71.452164 0.460094
vt -71.487907 0.452946
vt -71.518211 0.432592
vt -71.538460 0.402130
vt -71.545570 0.366197
vt -71.545570 -0.780235
vt -70.993301 -0.780235
vt -70.993301 0.460094
vt -71.698288 0.460094
vt -71.698288 -0.686338
vt -71.691177 -0.722271
vt -71.670929 -0.752733
vt -71.640625 -0.773087
vt -71.604881 -0.780235
vt -71.146027 -0.780235
vt -71.146027 0.460094
vt -71.657410 -0.445355
vt -72.118011 -0.445355
vt -72.118011 -0.750134
vt -71.657410 -0.750134
vt -71.794449 -0.278937
vt -71.794449 -0.454918
vt -71.310318 -0.454918
vt -71.310318 -0.278937
vt -71.310318 -0.043570
vt -71.310318 0.132412
vt -71.794449 0.132412
vt -71.794449 -0.043570
vt -72.009453 0.145244
vt -71.433754 0.145244
vt -71.433754 0.467721
vt -72.009453 0.467721
vt -71.446136 0.142906
vt -71.481880 0.135759
vt -71.512184 0.115404
vt -71.532433 0.084942
vt -71.539543 0.049010
vt -71.539543 -1.144331
vt -70.963844 -1.144331
vt -70.963844 0.142906
vt -71.794449 -0.779315
vt -71.310318 -0.779315
vt -71.794449 0.456808
vt -71.310318 0.456808
vt -71.401451 0.489053
vt -71.401451 -0.704287
vt -71.394341 -0.740220
vt -71.374092 -0.770682
vt -71.343796 -0.791036
vt -71.308052 -0.798184
vt -70.825752 -0.798184
vt -70.825752 0.489053
vt -72.009453 -0.763711
vt -71.433754 -0.763711
vt -71.433754 -0.441235
vt -72.009453 -0.441235
vt -71.375389 -1.063666
vt -71.199684 -1.050940
vt -71.197151 0.150511
vt -71.374756 0.150511
vt -72.009453 -0.265232
vt -71.433754 -0.265232
vt -71.433754 -0.030759
vt -72.009453 -0.030759
vt -71.788963 0.150511
vt -71.786423 -1.050940
vt -71.610725 -1.063666
vt -71.611359 0.150511
vt -70.893494 -1.006339
vt -70.893494 0.150511
vt -72.092613 0.150511
vt -72.092613 -1.006339
vt -72.442574 0.034285
vt -72.442574 -1.169504
vt -72.117279 -1.169504
vt -72.116631 0.081739
vt -71.635651 -0.127129
vt -72.187912 -0.127129
vt -72.187912 -0.428048
vt -71.635651 -0.428048
vt -71.635651 0.048874
vt -72.187912 0.048874
vt -71.635651 0.283347
vt -72.187912 0.283347
vt -71.635651 0.459350
vt -72.187912 0.459350
vt -71.635651 0.760268
vt -72.187912 0.760268
vt -71.200363 -1.169504
vt -71.200363 0.034285
vt -71.526306 0.081739
vt -71.525665 -1.169504
vt -71.939735 -1.169504
vt -71.703209 -1.169504
vt -71.703209 0.094561
vt -71.939735 0.094561
vt -71.526329 0.117987
vt -71.703209 0.130808
vt -71.526344 0.148716
vt -71.703209 0.161537
vt -71.526352 0.169248
vt -71.703209 0.182069
vt -71.830330 -0.278937
vt -71.830330 -0.454923
vt -71.939735 0.130808
vt -72.116615 0.117987
vt -71.939735 0.161537
vt -72.116600 0.148716
vt -71.939735 0.182069
vt -72.116585 0.169248
vt -71.830330 0.132416
vt -71.830330 -0.043570
vt -71.200363 0.070532
vt -71.200363 0.101261
vt -71.200363 0.121794
vt -71.830330 -0.779315
vt -72.442574 0.070532
vt -72.442574 0.101261
vt -72.442574 0.121794
vt -71.830330 0.456808
vt -72.092613 -1.042598
vt -71.786346 -1.087198
vt -72.092613 -1.073337
vt -71.786285 -1.117937
vt -72.092613 -1.093876
vt -71.786240 -1.138477
vt -71.621536 0.137913
vt -71.621536 0.442677
vt -71.199768 -1.087198
vt -70.893494 -1.042598
vt -71.199829 -1.117937
vt -70.893494 -1.073337
vt -71.199875 -1.138477
vt -70.893494 -1.093876
vt -71.621536 -0.750134
vt -71.621536 -0.445371
vt -71.610710 -1.099925
vt -71.375404 -1.099925
vt -71.610695 -1.130664
vt -71.375420 -1.130664
vt -71.610680 -1.151203
vt -71.375435 -1.151203
vt -71.621536 -0.270735
vt -71.621536 -0.036722
s 1
usemtl M_FridgeDrawer1D3_4
f 17/1/1 18/2/1 20/3/1 19/4/1
f 136/5/2 130/6/3 88/7/4 77/8/5
f 131/9/6 87/10/7 88/7/4 130/6/3
f 131/9/6 126/11/8 86/12/9 87/10/7
f 126/13/10 159/14/10 157/15/10 155/16/10 125/17/10 59/18/10 85/19/10 86/20/10
f 60/21/11 128/22/11 162/23/11 164/24/11 166/25/11 127/26/11 79/27/11 80/28/11
f 134/29/12 78/30/13 79/31/14 127/32/15
f 134/29/12 136/5/2 77/8/5 78/30/13
f 123/33/16 118/34/17 70/35/18 73/36/19
f 74/37/20 68/38/21 113/39/22 122/40/23
f 122/40/23 123/33/16 73/36/19 74/37/20
f 66/41/24 41/42/25 42/43/25 65/44/26
f 120/45/10 151/46/10 150/47/10 149/48/10 119/49/10 44/50/10 71/51/27 69/52/28
f 118/34/17 120/53/29 69/54/30 70/35/18
f 115/55/31 113/39/22 68/38/21 67/56/32
f 42/57/11 116/58/11 152/59/11 153/60/11 154/61/11 115/62/11 67/63/33 65/64/34
f 71/65/26 44/66/25 43/67/25 72/68/24
f 135/69/35 133/70/36 63/71/1 64/72/1
f 76/73/24 45/74/25 46/75/25 75/76/24
f 75/76/24 46/75/25 41/42/25 66/41/24
f 62/77/1 132/78/37 129/79/38 61/80/1
f 61/80/1 129/79/38 135/69/35 64/72/1
f 72/68/24 43/67/25 45/74/25 76/73/24
f 128/81/39 60/82/1 63/71/1 133/70/36
f 62/77/1 59/83/1 125/84/40 132/78/37
f 116/85/41 42/86/42 41/87/42 114/88/43
f 81/89/44 63/90/44 60/91/44 80/92/44
f 82/93/44 64/94/44 63/90/44 81/89/44
f 83/95/44 61/96/44 64/94/44 82/93/44
f 84/97/44 62/98/44 61/96/44 83/95/44
f 85/99/44 59/100/44 62/98/44 84/97/44
f 44/101/42 119/102/45 117/103/46 43/104/42
f 46/105/42 45/106/42 124/107/47 121/108/48
f 121/108/48 114/88/43 41/87/42 46/105/42
f 45/106/42 43/104/42 117/103/46 124/107/47
f 124/107/47 117/103/46 137/109/49 138/110/50
f 138/110/50 137/109/49 139/111/51 140/112/52
f 140/112/52 139/111/51 141/113/53 142/114/54
f 142/115/54 141/116/53 118/34/17 123/33/16
f 114/88/43 121/108/48 143/117/55 144/118/56
f 144/118/56 143/117/55 145/119/57 146/120/58
f 146/120/58 145/119/57 147/121/59 148/122/60
f 148/123/60 147/124/59 122/40/23 113/39/22
f 121/108/48 124/107/47 138/110/50 143/117/55
f 143/117/55 138/110/50 140/112/52 145/119/57
f 145/119/57 140/112/52 142/114/54 147/121/59
f 147/124/59 142/115/54 123/33/16 122/40/23
f 117/103/46 119/102/45 149/125/61 137/109/49
f 137/109/49 149/125/61 150/126/62 139/111/51
f 139/111/51 150/126/62 151/127/63 141/113/53
f 141/116/53 151/128/63 120/53/29 118/34/17
f 116/85/41 114/88/43 144/118/56 152/129/64
f 152/129/64 144/118/56 146/120/58 153/130/65
f 153/130/65 146/120/58 148/122/60 154/131/66
f 154/132/66 148/123/60 113/39/22 115/55/31
f 132/78/37 125/84/40 155/133/67 156/134/68
f 156/134/68 155/133/67 157/135/69 158/136/70
f 158/136/70 157/135/69 159/137/71 160/138/72
f 160/139/72 159/140/71 126/11/8 131/9/6
f 128/81/39 133/70/36 161/141/73 162/142/74
f 162/142/74 161/141/73 163/143/75 164/144/76
f 164/144/76 163/143/75 165/145/77 166/146/78
f 166/147/78 165/148/77 134/29/12 127/32/15
f 135/69/35 129/79/38 167/149/79 168/150/80
f 168/150/80 167/149/79 169/151/81 170/152/82
f 170/152/82 169/151/81 171/153/83 172/154/84
f 172/155/84 171/156/83 130/6/3 136/5/2
f 129/79/38 132/78/37 156/134/68 167/149/79
f 167/149/79 156/134/68 158/136/70 169/151/81
f 169/151/81 158/136/70 160/138/72 171/153/83
f 171/156/83 160/139/72 131/9/6 130/6/3
f 133/70/36 135/69/35 168/150/80 161/141/73
f 161/141/73 168/150/80 170/152/82 163/143/75
f 163/143/75 170/152/82 172/154/84 165/145/77
f 165/148/77 172/155/84 136/5/2 134/29/12
