# Blender 4.1.1
# www.blender.org
mtllib SinkFaucetKnobL_9_SinkFaucetKnobL_9_1.mtl
o SinkFaucetKnobL_9
v 0.208850 0.061084 0.012684
v 0.208850 0.064859 0.016457
v 0.168644 0.061084 0.012684
v 0.168644 0.061084 -0.027521
v 0.164871 0.064859 -0.027521
v 0.208850 0.055932 0.011303
v 0.170025 0.055932 0.011303
v 0.170025 0.055932 -0.027521
v 0.208850 0.050777 0.012684
v 0.168644 0.050777 -0.027521
v 0.168644 0.050777 0.012684
v 0.208850 0.047004 0.016457
v 0.164871 0.047004 -0.027521
v 0.208850 0.061084 0.030539
v 0.168644 0.061084 0.030539
v 0.208850 0.064859 0.026766
v 0.150790 0.061084 -0.027521
v 0.154563 0.064859 -0.027521
v 0.150790 0.061084 0.012684
v 0.159717 0.066239 0.011303
v 0.208850 0.055932 0.031920
v 0.170025 0.055932 0.031920
v 0.149408 0.055932 -0.027521
v 0.149408 0.055932 0.011303
v 0.208850 0.050777 0.030539
v 0.150790 0.050777 -0.027521
v 0.208850 0.047004 0.026766
v 0.168644 0.050777 0.030539
v 0.150790 0.050777 0.012684
v 0.154563 0.047004 -0.027521
v 0.164871 0.047004 0.016457
v 0.159717 0.066239 0.031920
v 0.164871 0.047004 0.026766
v 0.154563 0.047004 0.016457
v 0.168644 0.061084 0.070744
v 0.110584 0.061084 0.012684
v 0.168644 0.050777 0.070744
v 0.110584 0.050777 0.012684
v 0.164871 0.064859 0.070744
v 0.110584 0.064859 0.016457
v 0.164871 0.047004 0.070744
v 0.110584 0.047004 0.016457
v 0.170025 0.055932 0.070744
v 0.110584 0.055932 0.011303
v 0.150790 0.061084 0.030539
v 0.150790 0.061084 0.070744
v 0.149408 0.055932 0.031920
v 0.110584 0.061084 0.030539
v 0.150790 0.050777 0.030539
v 0.154563 0.047004 0.070744
v 0.154563 0.047004 0.026766
v 0.110584 0.047004 0.026766
v 0.150790 0.050777 0.070744
v 0.110584 0.050777 0.030539
v 0.154563 0.064859 0.070744
v 0.110584 0.064859 0.026766
v 0.149408 0.055932 0.070744
v 0.110584 0.055932 0.031920
v 0.208850 0.055932 0.021611
v 0.208850 0.066239 0.021611
v 0.159717 0.055932 -0.027521
v 0.159717 0.066239 -0.027521
v 0.208850 0.045623 0.021611
v 0.159717 0.045623 -0.027521
v 0.170025 0.066239 0.021611
v 0.168644 0.064859 0.016457
v 0.168644 0.064859 0.026766
v 0.164871 0.064859 0.012684
v 0.166758 0.062973 0.014571
v 0.150790 0.064859 0.016457
v 0.149408 0.066239 0.021611
v 0.159717 0.045623 0.021611
v 0.154563 0.064859 0.012684
v 0.152676 0.062973 0.014571
v 0.150790 0.064859 0.026766
v 0.164871 0.064859 0.030539
v 0.166758 0.062973 0.028652
v 0.154563 0.064859 0.030539
v 0.152676 0.062973 0.028652
v 0.110584 0.066239 0.021611
v 0.159717 0.045623 0.070744
v 0.110584 0.045623 0.021611
v 0.159717 0.055932 0.070744
v 0.159717 0.066239 0.070744
v 0.110584 0.055932 0.021611
v 0.110584 0.062973 0.028652
v 0.110584 0.061084 0.021611
v 0.110584 0.062973 0.014571
v 0.208850 0.062973 0.014571
v 0.208850 0.061084 0.021611
v 0.208850 0.062973 0.028652
v 0.166758 0.062973 -0.027521
v 0.159717 0.061084 -0.027521
v 0.152676 0.062973 -0.027521
v 0.166758 0.062973 0.070744
v 0.159717 0.061084 0.070744
v 0.152676 0.062973 0.070744
v 0.159717 0.111721 0.011303
v 0.164871 0.111721 0.012684
v 0.154563 0.111721 0.012684
v 0.164871 0.111721 0.030539
v 0.159717 0.111721 0.031920
v 0.154563 0.111721 0.030539
v 0.168644 0.111721 0.016457
v 0.170025 0.111721 0.021611
v 0.166758 0.111721 0.014571
v 0.168644 0.111721 0.026766
v 0.166758 0.111721 0.028652
v 0.150790 0.111721 0.016457
v 0.152676 0.111721 0.014571
v 0.149408 0.111721 0.021611
v 0.150790 0.111721 0.026766
v 0.152676 0.111721 0.028652
vn -0.0000 -0.7070 0.7072
vn -0.0000 -0.8304 0.5572
vn -0.0000 -0.7900 0.6131
vn -0.5570 -0.8305 -0.0000
vn -0.7072 -0.7070 -0.0000
vn -0.6130 -0.7901 -0.0000
vn -0.0000 -0.0001 1.0000
vn -0.0000 -0.0000 1.0000
vn -0.0000 -0.5569 0.8306
vn -0.0000 -0.6128 0.7902
vn -0.8306 -0.5569 -0.0000
vn -1.0000 -0.0000 -0.0000
vn -1.0000 -0.0001 -0.0000
vn -0.7903 -0.6128 -0.0000
vn -0.0000 0.4942 0.8694
vn -0.0000 0.5510 0.8345
vn -0.8694 0.4942 -0.0000
vn -0.8345 0.5510 -0.0000
vn -0.0000 0.8606 0.5093
vn -0.0000 0.9129 0.4082
vn -0.5093 0.8606 -0.0000
vn -0.4082 0.9129 -0.0000
vn -0.0000 -0.8304 -0.5571
vn -0.0000 -0.7070 -0.7072
vn -0.0000 -0.7900 -0.6131
vn 0.7072 -0.7070 -0.0000
vn 0.5571 -0.8305 -0.0000
vn 0.6131 -0.7900 -0.0000
vn -0.0000 -0.5569 -0.8306
vn -0.0000 -0.0000 -1.0000
vn -0.0000 -0.0001 -1.0000
vn -0.0000 -0.6128 -0.7902
vn 1.0000 -0.0001 -0.0000
vn 1.0000 -0.0000 -0.0000
vn 0.8306 -0.5569 -0.0000
vn 0.7902 -0.6128 -0.0000
vn -0.0000 0.4942 -0.8694
vn -0.0000 0.5510 -0.8345
vn 0.8694 0.4942 -0.0000
vn 0.8345 0.5510 -0.0000
vn -0.0000 0.8606 -0.5093
vn -0.0000 0.9129 -0.4082
vn 0.5093 0.8606 -0.0000
vn 0.4083 0.9129 -0.0000
vn -0.0000 -0.5569 0.8305
vn -0.0000 0.5511 0.8345
vn -0.4083 0.9129 -0.0000
vn 0.8305 -0.5570 -0.0000
vn -0.0000 -0.5570 -0.8305
vn 0.4083 0.9128 -0.0000
vn -0.0000 0.5511 -0.8345
vn -0.0000 0.9129 -0.4083
vn 0.5571 -0.8304 -0.0000
vn -0.0000 -1.0000 -0.0000
vn -0.7897 -0.0000 -0.6135
vn -0.8301 -0.0000 -0.5576
vn -0.7071 -0.0000 -0.7071
vn -0.0000 1.0000 -0.0000
vn 0.7896 -0.0000 -0.6136
vn 0.8301 -0.0000 -0.5576
vn 0.6136 -0.0000 -0.7896
vn 0.7071 -0.0000 -0.7071
vn 0.5576 -0.0000 -0.8301
vn -0.6135 -0.0000 -0.7897
vn -0.5575 -0.0000 -0.8302
vn -0.6135 -0.0000 0.7897
vn -0.5575 -0.0000 0.8302
vn 0.5577 -0.0000 0.8301
vn 0.6136 -0.0000 0.7896
vn -0.8301 -0.0000 0.5576
vn -0.7897 -0.0000 0.6135
vn -0.7071 -0.0000 0.7071
vn 0.7071 -0.0000 0.7071
vn 0.8301 -0.0000 0.5576
vn 0.7896 -0.0000 0.6136
vt -19.692106 0.501554
vt -19.692106 0.609636
vt -19.696951 0.609636
vt -19.696951 0.506397
vt -19.813604 0.099548
vt -19.808762 0.099548
vt -19.808762 0.207603
vt -19.813604 0.202759
vt -19.674026 0.509946
vt -19.674026 0.609636
vt -19.687260 0.609636
vt -19.687260 0.506397
vt -19.803919 0.099548
vt -19.790688 0.099548
vt -19.790688 0.199214
vt -19.803919 0.202759
vt -19.660791 0.609636
vt -19.660791 0.506397
vt -19.777454 0.099548
vt -19.777454 0.202759
vt -19.651104 0.609636
vt -19.651104 0.496710
vt -19.767771 0.099548
vt -19.767771 0.212445
vt -19.738073 0.609638
vt -19.742922 0.609638
vt -19.742922 0.501552
vt -19.738073 0.506395
vt -19.591101 0.207603
vt -19.591101 0.099550
vt -19.586258 0.099550
vt -19.586258 0.202759
vt -19.747763 0.609638
vt -19.761000 0.609638
vt -19.761000 0.509938
vt -19.747763 0.506395
vt -19.609175 0.199214
vt -19.609175 0.099550
vt -19.595943 0.099550
vt -19.595943 0.202759
vt -19.774235 0.609638
vt -19.774235 0.506395
vt -19.622408 0.099550
vt -19.622408 0.202759
vt -19.783924 0.609638
vt -19.783924 0.496708
vt -19.632092 0.099550
vt -19.632092 0.212445
vt -19.803919 0.351807
vt -19.803919 0.248595
vt -19.790688 0.252141
vt -19.790688 0.351807
vt -19.847971 0.596397
vt -19.861204 0.599946
vt -19.861204 0.496714
vt -19.847971 0.496714
vt -19.777454 0.248595
vt -19.777454 0.351807
vt -19.834734 0.496714
vt -19.834734 0.599946
vt -19.808762 0.243752
vt -19.808762 0.351807
vt -19.813604 0.351807
vt -19.813604 0.248595
vt -19.870892 0.496714
vt -19.866047 0.496714
vt -19.866047 0.604789
vt -19.870892 0.599946
vt -19.767771 0.238909
vt -19.767771 0.351807
vt -19.825048 0.496714
vt -19.825048 0.609632
vt -19.609175 0.252141
vt -19.595943 0.248594
vt -19.595943 0.351805
vt -19.609175 0.351805
vt -19.921705 0.496711
vt -19.921705 0.599948
vt -19.934942 0.596400
vt -19.934942 0.496711
vt -19.632092 0.351805
vt -19.632092 0.238909
vt -19.622408 0.248594
vt -19.622408 0.351805
vt -19.948177 0.599948
vt -19.957865 0.609635
vt -19.957865 0.496711
vt -19.948177 0.496711
vt -19.586258 0.351805
vt -19.591101 0.351805
vt -19.591101 0.243752
vt -19.586258 0.248594
vt -19.916864 0.496711
vt -19.916864 0.604792
vt -19.755224 0.691835
vt -19.750803 0.687414
vt -19.746382 0.703915
vt -19.758457 0.703915
vt -19.633158 0.717031
vt -19.645233 0.737952
vt -19.649656 0.733532
vt -19.645233 0.717031
vt -19.734304 0.703915
vt -19.746382 0.682992
vt -19.734304 0.679756
vt -19.722221 0.682992
vt -19.633158 0.741191
vt -19.621077 0.737952
vt -19.755224 0.715994
vt -19.750803 0.720416
vt -19.649656 0.700530
vt -19.645233 0.696110
vt -19.713383 0.691835
vt -19.710148 0.703915
vt -19.612236 0.729111
vt -19.609001 0.717031
vt -19.734304 0.728074
vt -19.746382 0.724837
vt -19.722221 0.724837
vt -19.633158 0.692873
vt -19.621077 0.696110
vt -19.962395 0.700554
vt -19.962395 0.796437
vt -19.974686 0.796437
vt -19.974686 0.703845
vt -19.713383 0.715994
vt -19.612236 0.704951
vt -19.817146 0.225678
vt -19.813604 0.238909
vt -19.933903 0.238909
vt -19.933903 0.225678
vt -19.986979 0.796437
vt -19.986979 0.700554
vt -19.933903 0.243752
vt -19.298779 0.793913
vt -19.311071 0.793913
vt -19.311071 0.689040
vt -19.298779 0.676751
vt -19.415939 0.689040
vt -19.415939 0.676751
vt -19.586258 0.238909
vt -19.582716 0.225678
vt -19.465960 0.225678
vt -19.465960 0.238909
vt -19.286488 0.793913
vt -19.286488 0.689040
vt -19.415939 0.664459
vt -19.311071 0.664459
vt -19.465960 0.243752
vt -19.465960 0.248594
vt -19.920319 0.793141
vt -19.920319 0.700554
vt -19.908028 0.700554
vt -19.908028 0.796437
vt -19.932611 0.796437
vt -19.932611 0.700554
vt -19.181618 0.676751
vt -19.181618 0.689040
vt -19.311071 0.559589
vt -19.298779 0.559589
vt -19.286488 0.664459
vt -19.181618 0.664459
vt -19.286488 0.559589
vt -19.511084 0.963152
vt -19.515507 0.967571
vt -19.519924 0.951073
vt -19.507853 0.951073
vt -19.418787 0.951071
vt -19.414368 0.934572
vt -19.409946 0.938992
vt -19.406715 0.951071
vt -19.532005 0.951073
vt -19.519924 0.971991
vt -19.532005 0.975230
vt -19.544083 0.971991
vt -19.430866 0.926915
vt -19.418787 0.930151
vt -19.430866 0.951071
vt -19.442945 0.930151
vt -19.511084 0.938995
vt -19.515507 0.934575
vt -19.409946 0.963148
vt -19.414368 0.967569
vt -19.552921 0.963152
vt -19.556160 0.951073
vt -19.451784 0.938992
vt -19.455023 0.951071
vt -19.532005 0.926917
vt -19.519924 0.930155
vt -19.544083 0.930155
vt -19.418787 0.971989
vt -19.430866 0.975226
vt -19.442945 0.971989
vt -19.552921 0.938995
vt -19.451784 0.963148
vt -19.866138 0.796443
vt -19.878429 0.796443
vt -19.878429 0.700569
vt -19.866138 0.703865
vt -19.853844 0.796443
vt -19.853844 0.700569
vt -19.824238 0.796437
vt -19.824238 0.700575
vt -19.811953 0.700575
vt -19.811953 0.793141
vt -19.799662 0.700575
vt -19.799662 0.796437
vt -19.912018 0.496711
vt -19.912018 0.599948
vt -19.933903 0.248595
vt -19.654078 0.729111
vt -19.657310 0.717031
vt -19.654078 0.704951
vt -19.563908 0.615610
vt -19.563908 0.503864
vt -19.551619 0.503864
vt -19.551619 0.612319
vt -19.539324 0.503864
vt -19.539324 0.615610
vt -19.604235 0.507144
vt -19.604235 0.615599
vt -19.616526 0.615599
vt -19.616526 0.503854
vt -19.591940 0.503854
vt -19.591940 0.615599
vt -19.933903 0.212445
vt -19.813604 0.212445
vt -19.933903 0.207603
vt -19.465960 0.207603
vt -19.465960 0.212445
vt -19.586258 0.212445
vt -19.465960 0.202759
vt -19.933903 0.202759
s 1
usemtl M_SinkFaucetKnobL_9_0
f 69/1/1 89/2/1 2/3/2 66/4/3
f 5/5/4 92/6/5 69/7/5 68/8/6
f 7/9/7 6/10/8 1/11/9 3/12/10
f 4/13/11 8/14/12 7/15/13 3/16/14
f 9/17/15 6/10/8 7/9/7 11/18/16
f 7/15/13 8/14/12 10/19/17 11/20/18
f 12/21/19 9/17/15 11/18/16 31/22/20
f 11/20/18 10/19/17 13/23/21 31/24/22
f 16/25/23 91/26/24 77/27/24 67/28/25
f 74/29/26 94/30/26 18/31/27 73/32/28
f 14/33/29 21/34/30 22/35/31 15/36/32
f 24/37/33 23/38/34 17/39/35 19/40/36
f 22/35/31 21/34/30 25/41/37 28/42/38
f 26/43/39 23/38/34 24/37/33 29/44/40
f 28/42/38 25/41/37 27/45/41 33/46/42
f 30/47/43 26/43/39 29/44/40 34/48/44
f 35/49/11 15/50/14 22/51/13 43/52/12
f 24/53/7 19/54/10 36/55/45 44/56/8
f 22/51/13 28/57/18 37/58/17 43/52/12
f 38/59/15 29/60/46 24/53/7 44/56/8
f 77/61/5 95/62/5 39/63/4 76/64/6
f 40/65/2 88/66/1 74/67/1 70/68/3
f 28/57/18 33/69/47 41/70/21 37/58/17
f 42/71/19 34/72/20 29/60/46 38/59/15
f 47/73/33 45/74/36 46/75/48 57/76/34
f 48/77/49 45/78/32 47/79/31 58/80/30
f 50/81/43 51/82/50 49/83/40 53/84/39
f 49/85/51 51/86/52 52/87/41 54/88/37
f 53/84/39 49/83/40 47/73/33 57/76/34
f 47/79/31 49/85/51 54/88/37 58/80/30
f 55/89/53 97/90/26 79/91/26 78/92/28
f 45/78/32 48/77/49 86/93/24 79/94/24
f 2/95/12 89/96/12 90/97/12 60/98/12
f 61/99/8 4/100/8 92/101/8 93/102/8
f 59/103/12 1/104/12 6/105/12 9/106/12
f 8/107/8 4/100/8 61/99/8 10/108/8
f 16/109/12 60/98/12 90/97/12 91/110/12
f 61/99/8 93/102/8 94/111/8 17/112/8
f 59/103/12 9/106/12 12/113/12 63/114/12
f 13/115/8 10/108/8 61/99/8 64/116/8
f 21/117/12 14/118/12 59/103/12 25/119/12
f 61/99/8 17/112/8 23/120/8 26/121/8
f 66/122/3 2/123/2 60/124/54 65/125/54
f 59/103/12 63/114/12 27/126/12 25/119/12
f 30/127/8 64/116/8 61/99/8 26/121/8
f 65/128/12 67/129/55 107/130/56 105/131/12
f 65/125/54 60/124/54 16/132/23 67/133/25
f 67/129/55 77/61/57 108/134/57 107/130/56
f 63/135/58 12/136/19 31/137/20 72/138/58
f 13/139/21 64/140/58 72/138/58 31/137/22
f 75/141/59 71/142/34 111/143/34 112/144/60
f 27/145/41 63/135/58 72/138/58 33/146/42
f 64/140/58 30/147/43 34/148/44 72/138/58
f 78/92/61 79/91/62 113/149/62 103/150/63
f 71/151/54 80/152/54 40/153/2 70/154/3
f 75/155/25 56/156/23 80/152/54 71/151/54
f 72/138/58 81/157/58 41/158/21 33/146/47
f 34/148/20 42/159/19 82/160/58 72/138/58
f 51/161/50 50/162/43 81/157/58 72/138/58
f 72/138/58 82/160/58 52/163/41 51/161/52
f 39/164/30 95/165/30 96/166/30 84/167/30
f 87/168/34 88/169/34 40/170/34 80/171/34
f 83/172/30 35/173/30 43/174/30 37/175/30
f 44/176/34 36/177/34 85/178/34 38/179/34
f 55/180/30 84/167/30 96/166/30 97/181/30
f 87/168/34 80/171/34 56/182/34 86/183/34
f 83/172/30 37/175/30 41/184/30 81/185/30
f 42/186/34 38/179/34 85/178/34 82/187/34
f 57/188/30 46/189/30 83/172/30 53/190/30
f 85/178/34 48/191/34 58/192/34 54/193/34
f 83/172/30 81/185/30 50/194/30 53/190/30
f 52/195/34 82/187/34 85/178/34 54/193/34
f 62/196/54 5/197/4 68/198/6 20/199/54
f 18/200/27 62/196/54 20/199/54 73/201/28
f 76/202/6 39/203/4 84/204/54 32/205/54
f 32/205/54 84/204/54 55/206/53 78/207/28
f 85/178/34 87/168/34 86/183/34 48/191/34
f 85/178/34 36/177/34 88/169/34 87/168/34
f 74/67/1 88/66/1 36/55/45 19/54/10
f 79/94/24 86/93/24 56/208/23 75/209/25
f 79/91/62 75/141/59 112/144/60 113/149/62
f 89/96/12 1/104/12 59/103/12 90/97/12
f 91/110/12 90/97/12 59/103/12 14/118/12
f 77/27/24 91/26/24 14/33/29 15/36/32
f 77/61/57 76/64/64 101/210/65 108/134/57
f 3/12/10 1/11/9 89/2/1 69/1/1
f 93/102/8 92/101/8 5/211/8 62/212/8
f 94/111/8 93/102/8 62/212/8 18/213/8
f 95/165/30 35/173/30 83/172/30 96/166/30
f 97/181/30 96/166/30 83/172/30 46/189/30
f 79/91/26 97/90/26 46/75/48 45/74/36
f 19/40/36 17/39/35 94/30/26 74/29/26
f 69/7/5 92/6/5 4/13/11 3/16/14
f 15/50/14 35/49/11 95/62/5 77/61/5
f 68/214/66 99/215/67 98/216/8 20/217/8
f 20/217/8 98/216/8 100/218/68 73/219/69
f 32/220/30 102/221/30 101/222/65 76/223/64
f 78/224/61 103/225/63 102/221/30 32/220/30
f 65/128/12 105/131/12 104/226/70 66/227/71
f 66/227/71 104/226/70 106/228/72 69/7/72
f 74/29/73 110/229/73 109/230/74 70/231/75
f 70/231/75 109/230/74 111/143/34 71/142/34
f 73/32/69 100/232/68 110/229/73 74/29/73
f 69/7/72 106/228/72 99/233/67 68/8/66
