# Blender 4.1.1
# www.blender.org
mtllib DeskmeshSideTable_313_0.mtl
o SideTable_313
v 0.315791 0.153615 0.285526
v -0.315793 0.153615 0.285526
v -0.315793 0.153615 0.303556
v 0.315791 0.153615 0.303556
v 0.320846 -0.151156 0.285526
v 0.320845 0.151156 0.285526
v 0.320845 0.151156 0.303556
v 0.320846 -0.151156 0.303556
v 0.315792 -0.151156 0.308654
v 0.315791 0.151156 0.308654
v -0.315793 0.151156 0.308654
v -0.315792 -0.151157 0.308654
v -0.320846 0.151155 0.285526
v -0.320846 -0.151157 0.285526
v -0.320846 -0.151157 0.303556
v -0.320846 0.151155 0.303556
v -0.315792 -0.153616 0.285526
v 0.315792 -0.153614 0.285526
v 0.315792 -0.153614 0.303556
v -0.315792 -0.153616 0.303556
v 0.315792 -0.147629 0.073342
v 0.315792 -0.147629 -0.352893
v 0.315791 0.147631 -0.352893
v 0.315791 0.147631 0.073342
v 0.315792 -0.147629 0.280428
v 0.315791 0.147631 0.280428
v -0.301624 0.140737 -0.352893
v -0.301624 0.140737 -0.401385
v -0.301624 -0.140738 -0.401385
v -0.301624 -0.140738 -0.352893
v -0.308545 0.151156 0.280428
v -0.315793 0.152625 0.283474
v 0.308543 0.151156 0.280428
v 0.315791 0.152626 0.283474
v 0.318810 0.151156 0.283474
v -0.318811 0.151156 0.283474
v -0.315793 0.147630 0.280428
v -0.315792 -0.147632 0.280428
v -0.318810 -0.151157 0.283474
v -0.315792 -0.152625 0.283474
v -0.308545 -0.151157 0.280428
v 0.308544 -0.151156 0.280428
v 0.315792 -0.152624 0.283474
v 0.318811 -0.151156 0.283474
v -0.294377 0.144263 -0.401385
v 0.294376 0.144263 -0.401385
v 0.301624 0.140738 -0.401385
v 0.301625 -0.140738 -0.401385
v 0.294377 -0.144263 -0.401385
v -0.294376 -0.144265 -0.401385
v -0.315793 0.147630 0.073342
v -0.315792 0.147630 -0.352893
v -0.315792 -0.147631 -0.352893
v -0.315792 -0.147632 0.073342
v -0.308545 -0.151157 0.073342
v -0.308545 -0.151157 -0.352893
v 0.308544 -0.151155 -0.352893
v 0.308544 -0.151155 0.073342
v -0.282487 -0.151157 0.088310
v -0.282487 -0.151157 0.265461
v 0.282487 -0.151156 0.265461
v 0.282487 -0.151155 0.088309
v 0.308543 0.151156 0.073342
v 0.308543 0.151156 -0.352893
v -0.308545 0.151156 -0.352893
v -0.308545 0.151155 0.073342
v 0.301625 -0.140738 -0.352893
v 0.301624 0.140738 -0.352893
v -0.294377 0.144263 -0.352893
v 0.294376 0.144263 -0.352893
v -0.294377 -0.144263 -0.352893
v 0.294377 -0.144263 -0.352893
v -0.282487 0.104196 0.088310
v -0.282487 0.104196 0.265461
v 0.282487 0.104196 0.088309
v 0.282487 0.104196 0.265461
vn -0.0000 -1.0000 -0.0000
vn -1.0000 -0.0000 -0.0000
vn -0.0000 -0.0000 -1.0000
vn 1.0000 -0.0000 -0.0000
vn -0.0000 1.0000 -0.0000
vn 0.0001 -0.9005 0.4349
vn -0.0000 -0.9007 0.4344
vn 0.0003 -0.9009 0.4341
vn -0.4014 -0.8250 0.3979
vn -0.4018 -0.8248 0.3978
vn 0.7103 -0.0000 0.7039
vn 0.7102 -0.0000 0.7040
vn 0.7099 -0.0000 0.7043
vn 0.4015 -0.8249 -0.3978
vn -0.0000 0.9002 0.4355
vn -0.0000 0.9011 0.4337
vn -0.0000 0.9007 0.4344
vn -0.0001 0.9009 0.4340
vn 0.4014 0.8250 -0.3979
vn -0.7102 -0.0000 0.7040
vn -0.4014 -0.8250 -0.3978
vn -0.0000 -0.0000 1.0000
vn -0.4014 0.8250 -0.3978
vn 0.4380 -0.8990 -0.0000
vn 0.4377 -0.8991 -0.0000
vn 0.7103 -0.0000 -0.7039
vn 0.7102 -0.0000 -0.7040
vn 0.4375 0.8992 -0.0000
vn -0.0000 0.9006 -0.4347
vn -0.0000 0.9007 -0.4344
vn -0.4375 0.8992 -0.0000
vn -0.4014 0.8250 0.3979
vn -0.7102 -0.0000 -0.7040
vn -0.4375 -0.8992 -0.0000
vn 0.4013 0.8247 0.3986
vn 0.4008 0.8251 0.3981
vn -0.0000 -0.9007 -0.4344
vn 0.4019 -0.8251 0.3970
vn 0.4014 -0.8250 0.3979
vn 0.2456 -0.5046 0.8277
vn 0.2455 0.5050 0.8275
vn 0.2455 0.5047 0.8276
vn -0.2456 -0.5044 0.8278
vn -0.2455 -0.5047 0.8276
vn -0.2455 0.5046 0.8277
vn -0.2456 0.5046 0.8277
vn -0.4374 -0.8992 -0.0000
vn -0.4374 -0.8993 -0.0000
vn 0.4374 -0.8993 -0.0000
vn 0.4375 -0.8992 -0.0000
vn 0.4371 -0.8994 -0.0000
vn 0.4376 -0.8992 -0.0000
vn 0.4376 0.8992 -0.0000
vn -0.4374 0.8992 -0.0000
vn 0.4374 0.8993 -0.0000
vt 0.531180 0.767661
vt 0.387806 0.773231
vt 0.387806 0.767661
vt 0.531180 0.773231
vt 0.253151 0.767661
vt 0.394209 0.773231
vt 0.394209 0.767661
vt 0.253151 0.773231
vt 0.253151 0.531180
vt 0.394209 0.387806
vt 0.394209 0.531180
vt 0.253151 0.387807
vt 0.387807 0.767661
vt 0.387807 0.773231
vt 0.254797 0.702105
vt 0.392563 0.570417
vt 0.254797 0.570417
vt 0.392563 0.702105
vt 0.254797 0.766086
vt 0.392563 0.766086
vt 0.389347 0.570417
vt 0.258013 0.555435
vt 0.389347 0.555435
vt 0.258013 0.570417
vt 0.389452 0.766086
vt 0.387806 0.767026
vt 0.529535 0.766086
vt 0.531180 0.767026
vt 0.532327 0.767661
vt 0.531865 0.767026
vt 0.394209 0.767026
vt 0.254797 0.766086
vt 0.392563 0.766086
vt 0.253151 0.767026
vt 0.387806 0.774806
vt 0.386659 0.773231
vt 0.387807 0.767026
vt 0.529535 0.766086
vt 0.253151 0.774806
vt 0.252005 0.773231
vt 0.531180 0.774806
vt 0.532327 0.773231
vt 0.390993 0.392668
vt 0.389347 0.527964
vt 0.390993 0.526319
vt 0.389347 0.391023
vt 0.258013 0.527964
vt 0.258013 0.391023
vt 0.256367 0.526319
vt 0.256367 0.392668
vt 0.532327 0.773231
vt 0.392563 0.702105
vt 0.254797 0.702105
vt 0.386659 0.767661
vt 0.394209 0.774806
vt 0.252005 0.767661
vt 0.389452 0.702105
vt 0.529535 0.570417
vt 0.389452 0.570417
vt 0.529535 0.702105
vt 0.395367 0.706729
vt 0.395367 0.761461
vt 0.523619 0.761461
vt 0.523619 0.706729
vt 0.387807 0.774806
vt 0.532327 0.767661
vt 0.531865 0.767026
vt 0.252466 0.767026
vt 0.387121 0.767026
vt 0.394209 0.529535
vt 0.394209 0.389452
vt 0.392563 0.387806
vt 0.254797 0.387807
vt 0.253151 0.389452
vt 0.253151 0.529535
vt 0.392563 0.531180
vt 0.254797 0.531180
vt 0.392668 0.570417
vt 0.526319 0.555435
vt 0.392668 0.555435
vt 0.526319 0.570417
vt 0.394894 0.387806
vt 0.394209 0.387121
vt 0.253151 0.387121
vt 0.252466 0.387807
vt 0.394209 0.529535
vt 0.394209 0.531865
vt 0.394894 0.531180
vt 0.252466 0.531180
vt 0.253151 0.531865
vt 0.253151 0.570417
vt 0.253151 0.702105
vt 0.253151 0.766086
vt 0.394209 0.766086
vt 0.394209 0.702105
vt 0.394209 0.570417
vt 0.394209 0.702105
vt 0.394209 0.766086
vt 0.253151 0.766086
vt 0.253151 0.702105
vt 0.527964 0.570417
vt 0.527964 0.555435
vt 0.256367 0.570417
vt 0.256367 0.555435
vt 0.390993 0.555435
vt 0.390993 0.570417
vt 0.392668 0.555435
vt 0.392668 0.570417
vt 0.253151 0.706729
vt 0.372297 0.761461
vt 0.372297 0.706729
vt 0.253151 0.761461
vt 0.523620 0.706729
vt 0.523620 0.761461
vt 0.253151 0.761461
vt 0.372297 0.706729
vt 0.372297 0.761461
vt 0.253151 0.706729
vt 0.253151 0.523619
vt 0.372297 0.395367
vt 0.372297 0.523620
vt 0.253151 0.395367
s 1
usemtl M_SideTable_313_0
f 1/1/1 3/2/1 2/3/1
f 1/1/1 4/4/1 3/2/1
f 5/5/2 7/6/2 6/7/2
f 5/5/2 8/8/2 7/6/2
f 9/9/3 11/10/3 10/11/3
f 9/9/3 12/12/3 11/10/3
f 13/7/4 15/8/4 14/5/4
f 13/7/4 16/6/4 15/8/4
f 17/13/5 19/4/5 18/1/5
f 17/13/5 20/14/5 19/4/5
f 21/15/2 23/16/2 22/17/2
f 21/15/2 24/18/2 23/16/2
f 25/19/2 24/18/2 21/15/2
f 25/19/2 26/20/2 24/18/2
f 27/21/4 29/22/4 28/23/4
f 27/21/4 30/24/4 29/22/4
f 31/25/6 2/3/6 32/26/6
f 2/3/7 31/25/7 1/1/7
f 1/1/7 31/25/7 33/27/7
f 1/1/8 33/27/8 34/28/8
f 34/28/9 6/29/9 1/1/9
f 34/28/10 35/30/10 6/29/10
f 36/31/11 38/32/11 37/33/11
f 38/32/11 36/31/11 39/34/11
f 39/34/12 36/31/12 13/7/12
f 39/34/13 13/7/13 14/5/13
f 3/2/14 11/35/14 16/36/14
f 18/1/15 40/37/15 17/13/15
f 40/37/16 18/1/16 41/25/16
f 41/25/17 18/1/17 42/38/17
f 42/38/18 18/1/18 43/28/18
f 12/39/19 20/40/19 15/8/19
f 44/34/20 26/20/20 25/19/20
f 26/20/20 44/34/20 35/31/20
f 35/31/20 44/34/20 5/5/20
f 35/31/20 5/5/20 6/7/20
f 10/41/21 4/4/21 7/42/21
f 45/43/22 47/44/22 46/45/22
f 47/44/22 45/43/22 28/46/22
f 47/44/22 28/46/22 48/47/22
f 48/47/22 28/46/22 29/48/22
f 48/47/22 29/48/22 49/49/22
f 49/49/22 29/48/22 50/50/22
f 9/41/23 8/51/23 19/4/23
f 51/52/4 53/17/4 52/16/4
f 51/52/4 54/53/4 53/17/4
f 37/33/4 54/53/4 51/52/4
f 37/33/4 38/32/4 54/53/4
f 2/3/24 16/36/24 13/54/24
f 2/3/25 3/2/25 16/36/25
f 11/55/26 15/8/26 16/6/26
f 11/55/27 12/39/27 15/8/27
f 20/40/28 14/5/28 15/8/28
f 20/40/28 17/56/28 14/5/28
f 55/57/5 57/58/5 56/59/5
f 55/57/5 58/60/5 57/58/5
f 59/61/5 58/60/5 55/57/5
f 60/62/5 59/61/5 55/57/5
f 60/62/5 55/57/5 41/25/5
f 61/63/5 60/62/5 41/25/5
f 61/63/5 41/25/5 42/38/5
f 62/64/5 42/38/5 58/60/5
f 62/64/5 61/63/5 42/38/5
f 59/61/5 62/64/5 58/60/5
f 12/65/29 19/4/29 20/14/29
f 12/65/30 9/41/30 19/4/30
f 8/51/31 18/1/31 19/4/31
f 8/51/31 5/66/31 18/1/31
f 44/67/32 18/1/32 5/66/32
f 44/67/32 43/28/32 18/1/32
f 9/39/33 7/6/33 8/8/33
f 9/39/33 10/55/33 7/6/33
f 4/4/34 6/29/34 7/42/34
f 4/4/34 1/1/34 6/29/34
f 40/68/35 14/5/35 17/56/35
f 40/68/36 39/34/36 14/5/36
f 10/41/37 3/2/37 4/4/37
f 10/41/37 11/35/37 3/2/37
f 36/69/38 2/3/38 13/54/38
f 36/69/39 32/26/39 2/3/39
f 63/60/1 65/59/1 64/58/1
f 63/60/1 66/57/1 65/59/1
f 33/27/1 66/57/1 63/60/1
f 33/27/1 31/25/1 66/57/1
f 67/24/2 47/23/2 48/22/2
f 67/24/2 68/21/2 47/23/2
f 69/43/22 64/70/22 65/71/22
f 69/43/22 70/45/22 64/70/22
f 69/43/22 65/71/22 52/72/22
f 69/43/22 52/72/22 27/46/22
f 30/48/22 27/46/22 52/72/22
f 30/48/22 52/72/22 53/73/22
f 56/74/22 30/48/22 53/73/22
f 56/74/22 71/50/22 30/48/22
f 72/49/22 71/50/22 56/74/22
f 72/49/22 56/74/22 57/75/22
f 68/44/22 64/70/22 70/45/22
f 68/44/22 23/76/22 64/70/22
f 68/44/22 22/77/22 23/76/22
f 72/49/22 57/75/22 22/77/22
f 68/44/22 67/47/22 22/77/22
f 72/49/22 22/77/22 67/47/22
f 71/78/5 49/79/5 50/80/5
f 71/78/5 72/81/5 49/79/5
f 37/72/40 32/82/40 36/83/40
f 37/72/40 31/71/40 32/82/40
f 41/74/41 39/84/41 40/85/41
f 41/74/42 38/73/42 39/84/42
f 33/86/43 35/87/43 34/88/43
f 33/86/44 26/76/44 35/87/44
f 25/77/45 43/89/45 44/90/45
f 25/77/46 42/75/46 43/89/46
f 21/15/31 57/91/31 58/92/31
f 21/15/31 22/17/31 57/91/31
f 25/19/31 21/15/31 58/92/31
f 25/19/31 58/92/31 42/93/31
f 24/18/47 33/94/47 63/95/47
f 24/18/47 26/20/47 33/94/47
f 23/16/47 24/18/47 63/95/47
f 23/16/48 63/95/48 64/96/48
f 51/52/49 65/96/49 66/97/49
f 51/52/50 52/16/50 65/96/50
f 37/33/51 51/52/49 66/97/49
f 37/33/52 66/97/52 31/98/52
f 54/53/28 41/99/28 55/100/28
f 54/53/28 38/32/28 41/99/28
f 53/17/28 54/53/28 55/100/28
f 53/17/53 55/100/53 56/91/53
f 67/101/54 49/79/54 72/81/54
f 67/101/54 48/102/54 49/79/54
f 29/22/28 71/103/28 50/104/28
f 29/22/55 30/24/55 71/103/55
f 27/21/52 45/105/52 69/106/52
f 27/21/52 28/23/52 45/105/52
f 47/23/47 70/106/47 46/105/47
f 47/23/47 68/21/47 70/106/47
f 70/81/1 45/107/1 46/79/1
f 70/81/1 69/108/1 45/107/1
f 59/109/2 74/110/2 73/111/2
f 59/109/2 60/112/2 74/110/2
f 74/62/5 75/113/5 73/61/5
f 74/62/5 76/114/5 75/113/5
f 61/115/4 75/116/4 76/117/4
f 61/115/4 62/118/4 75/116/4
f 62/119/3 73/120/3 75/121/3
f 62/119/3 59/122/3 73/120/3
f 60/122/22 76/121/22 74/120/22
f 60/122/22 61/119/22 76/121/22
