# Blender 4.1.1
# www.blender.org
mtllib MeshTelevision_13_0_GeomSubset_0.mtl
o MeshTelevision_13_0_GeomSubset_0
v 0.000696 -0.078771 0.088426
v -0.000695 -0.078771 0.088426
v 0.000696 -0.077380 0.088426
v -0.000695 -0.077380 0.088426
v 0.000696 -0.078771 0.088426
v -0.000695 -0.078771 0.088426
v 0.000696 -0.077380 0.088426
v -0.000695 -0.077380 0.088426
v 0.000696 -0.078771 0.088426
v -0.000695 -0.078771 0.088426
v 0.000696 -0.077380 0.088426
v -0.000695 -0.077380 0.088426
v 0.000696 -0.078771 0.088426
v -0.000695 -0.078771 0.088426
v 0.000696 -0.077380 0.088426
v -0.000695 -0.077380 0.088426
v 0.000696 -0.078771 0.088426
v -0.000695 -0.078771 0.088426
v 0.000696 -0.077380 0.088426
v -0.000695 -0.077380 0.088426
v -0.525377 -0.118254 -0.145763
v -0.525377 -0.159178 -0.145763
v -0.525377 -0.118254 0.372501
v -0.525377 -0.159178 0.372501
v 0.525376 -0.118254 -0.145763
v 0.525376 -0.158525 -0.145763
v 0.525376 -0.158525 0.372501
v 0.525376 -0.118254 0.372501
v -0.486858 -0.110256 0.372501
v -0.486858 -0.110256 -0.145763
v -0.486858 -0.167175 -0.145763
v -0.486858 -0.167175 0.372501
v -0.448339 -0.105845 0.372501
v -0.448339 -0.105845 -0.145763
v -0.448339 -0.171587 -0.145763
v -0.448339 -0.171587 0.372501
v 0.486858 -0.110256 0.372501
v 0.486858 -0.166523 0.372501
v 0.486858 -0.166523 -0.145763
v 0.486858 -0.110256 -0.145763
v 0.448339 -0.105845 0.372501
v 0.448339 -0.170934 0.372501
v 0.448339 -0.170934 -0.145763
v 0.448339 -0.105845 -0.145763
v 0.406737 -0.172280 -0.145763
v 0.412902 -0.172172 -0.145763
v 0.406738 -0.172280 0.372501
v 0.412901 -0.172172 0.372501
v -0.406738 -0.172280 -0.145763
v -0.412901 -0.172172 -0.145763
v -0.406738 -0.172280 0.372501
v -0.412902 -0.172172 0.372501
v 0.406737 -0.105152 0.372501
v 0.412902 -0.104608 0.372501
v -0.406738 -0.105152 0.372501
v -0.412901 -0.104608 0.372501
v 0.406738 -0.104500 -0.145763
v 0.412901 -0.104608 -0.145763
v -0.406738 -0.104500 -0.145763
v -0.412902 -0.104608 -0.145763
v 0.406663 -0.168028 -0.141511
v 0.412827 -0.167920 -0.141511
v 0.412827 -0.108857 -0.141511
v 0.406663 -0.108750 -0.141511
v 0.406663 -0.168028 0.368249
v 0.412827 -0.167920 0.368249
v 0.406663 -0.108750 0.368249
v 0.412827 -0.108857 0.368249
v -0.406664 -0.168028 -0.141511
v -0.412827 -0.167920 -0.141511
v -0.412828 -0.167920 0.368249
v -0.406664 -0.168028 0.368249
v -0.406664 -0.108750 -0.141511
v -0.412828 -0.108857 -0.141511
v -0.412827 -0.108857 0.368249
v -0.406664 -0.108750 0.368249
v 0.378025 -0.172280 -0.117050
v -0.378026 -0.172280 -0.117050
v -0.378026 -0.172280 0.343788
v 0.378025 -0.172280 0.343788
v 0.358013 -0.150873 -0.097039
v -0.358014 -0.150873 -0.097039
v -0.358014 -0.150873 0.323777
v 0.358014 -0.150873 0.323777
v -0.293635 -0.078075 -0.067982
v -0.293636 -0.078075 0.272226
v 0.293635 -0.078075 -0.067982
v 0.293635 -0.078075 0.272226
v 0.000000 -0.172280 0.343788
v 0.000000 -0.150873 0.323777
v -0.000001 -0.150873 -0.097039
v -0.000001 -0.172280 -0.117050
v 0.000000 -0.172280 -0.145763
v 0.000000 -0.104500 -0.145763
v 0.000000 -0.078075 -0.067982
v -0.000001 -0.078075 0.272226
v 0.000000 -0.105152 0.372501
v 0.000000 -0.172280 0.372501
vn -0.0000 -0.0000 -1.0000
vn -0.0000 -0.0000 1.0000
vn -0.0000 -1.0000 -0.0000
vn -0.9997 0.0237 -0.0090
vn -0.9999 -0.0019 -0.0157
vn -0.9999 0.0022 -0.0155
vn -0.9999 -0.0019 0.0157
vn -0.9919 0.1265 0.0102
vn -0.9999 0.0027 0.0150
vn 0.9999 -0.0018 0.0155
vn 0.9999 -0.0018 -0.0155
vn 0.9997 0.0235 -0.0089
vn 0.9999 0.0021 -0.0153
vn 0.9919 0.1263 0.0101
vn 0.9999 0.0026 0.0148
vn -0.0000 1.0000 -0.0000
vn -0.0000 0.6829 -0.7305
vn -0.7305 0.6829 -0.0000
vn -0.0000 0.6829 0.7305
vn 0.7305 0.6829 -0.0000
vn 0.2301 -0.9732 -0.0007
vn -0.0000 -0.9468 0.3217
vn -0.2301 -0.9732 -0.0007
vn -0.0000 -0.9654 -0.2607
vt -43.666134 -17.768993
vt -43.665054 -17.768993
vt -43.665054 -17.767914
vt -43.666134 -17.767914
vt -44.140533 -0.061677
vt -43.346142 -0.061675
vt -43.346138 0.069431
vt -44.140533 0.069427
vt -44.140541 -0.003397
vt -43.346134 -0.003396
vt -43.346134 0.128986
vt -44.140533 0.128985
vt -43.561443 -0.015310
vt -43.561447 0.655631
vt -44.140541 0.655631
vt -44.140533 -0.015309
vt -43.519859 0.875575
vt -43.519859 1.007969
vt -43.528168 0.999654
vt -43.528164 0.883880
vt -44.532154 1.007968
vt -44.523846 0.999654
vt -44.532154 0.876844
vt -44.523849 0.883880
vt -44.938152 0.881370
vt -43.926105 0.881368
vt -43.934406 0.889677
vt -44.929855 0.889676
vt -43.926105 1.013736
vt -43.934406 1.005427
vt -44.938152 1.012457
vt -44.929848 1.005427
vt -44.140541 0.157050
vt -43.276909 0.157046
vt -43.337875 0.218013
vt -44.140537 0.218007
vt -43.276909 1.257471
vt -43.337875 1.196510
vt -44.140541 1.257475
vt -44.140541 1.196513
vt -45.004162 1.257472
vt -45.004166 0.157049
vt -44.943199 0.218011
vt -44.943195 1.196510
vt -43.380363 0.260505
vt -44.140533 0.260505
vt -43.380371 1.154024
vt -44.140541 1.154024
vt -44.900703 0.260505
vt -44.900711 1.154024
vt -43.338394 -0.213060
vt -43.338394 0.809027
vt -44.140541 0.809027
vt -44.942688 0.809027
vt -44.942688 -0.213060
vt -44.719627 -0.015309
vt -44.719631 0.655629
vt -44.140541 -0.213060
vt -44.934940 -0.003397
vt -44.934940 0.128985
vt -44.934933 -0.061678
vt -44.934933 0.069426
s 1
usemtl M_Television_13_0
f 1/1/1 2/2/1 4/3/1 3/4/1
f 98/5/1 51/6/1 55/7/1 97/8/1
f 94/9/2 59/10/2 49/11/2 93/12/2
f 86/13/3 85/14/3 95/15/3 96/16/3
f 57/17/4 45/18/5 61/19/5 64/20/6
f 45/18/5 47/21/7 65/22/7 61/19/5
f 47/21/7 53/23/8 67/24/9 65/22/7
f 53/23/8 57/17/4 64/20/6 67/24/9
f 51/25/10 49/26/11 69/27/11 72/28/10
f 49/26/11 59/29/12 73/30/13 69/27/11
f 55/31/14 51/25/10 72/28/10 76/32/15
f 59/29/12 55/31/14 76/32/15 73/30/13
f 93/33/16 49/34/16 78/35/16 92/36/16
f 49/34/16 51/37/16 79/38/16 78/35/16
f 51/37/16 98/39/16 89/40/16 79/38/16
f 47/41/16 45/42/16 77/43/16 80/44/16
f 92/36/17 78/35/17 82/45/17 91/46/17
f 78/35/18 79/38/18 83/47/18 82/45/18
f 79/38/19 89/40/19 90/48/19 83/47/19
f 80/44/20 77/43/20 81/49/20 84/50/20
f 55/51/14 59/52/12 85/14/21 86/13/21
f 59/52/22 94/53/22 95/15/22 85/14/22
f 57/54/4 53/55/8 88/56/23 87/57/23
f 97/58/24 55/51/24 86/13/24 96/16/24
f 89/40/19 80/44/19 84/50/19 90/48/19
f 77/43/17 92/36/17 91/46/17 81/49/17
f 45/42/16 93/33/16 92/36/16 77/43/16
f 57/59/2 94/9/2 93/12/2 45/60/2
f 95/15/22 94/53/22 57/54/22 87/57/22
f 96/16/3 95/15/3 87/57/3 88/56/3
f 53/55/24 97/58/24 96/16/24 88/56/24
f 47/61/1 98/5/1 97/8/1 53/62/1
f 89/40/16 98/39/16 47/41/16 80/44/16
