# Blender 4.1.1
# www.blender.org
mtllib MeshTelevisionStand_13_1_GeomSubset_2.mtl
o MeshTelevisionStand_13_1_GeomSubset_2
v 0.000551 -0.078795 0.088426
v -0.000551 -0.078795 0.088426
v 0.000551 -0.077355 0.088426
v -0.000551 -0.077355 0.088426
v 0.000551 -0.078795 0.088426
v -0.000551 -0.078795 0.088426
v 0.000551 -0.077355 0.088426
v -0.000551 -0.077355 0.088426
v 0.000551 -0.078795 0.088426
v -0.000551 -0.078795 0.088426
v 0.000551 -0.077355 0.088426
v -0.000551 -0.077355 0.088426
v 0.000551 -0.078795 0.088426
v -0.000551 -0.078795 0.088426
v 0.000551 -0.077355 0.088426
v -0.000551 -0.077355 0.088426
v 0.000551 -0.078795 0.088426
v -0.000551 -0.078795 0.088426
v 0.000551 -0.077355 0.088426
v -0.000551 -0.077355 0.088426
v 0.237295 -0.018418 -0.324395
v 0.206447 -0.018418 -0.015200
v -0.206447 -0.018418 -0.015200
v -0.237295 -0.018418 -0.324395
v 0.237295 -0.053795 -0.324395
v 0.206447 -0.053795 -0.015200
v -0.206447 -0.053795 -0.015200
v -0.237295 -0.053795 -0.324395
v 0.237408 -0.018270 -0.337662
v -0.237408 -0.018270 -0.337662
v 0.237408 -0.053943 -0.337662
v -0.237408 -0.053943 -0.337662
v 0.237295 0.001481 -0.324174
v -0.237295 0.001481 -0.324174
v 0.237295 -0.073694 -0.324174
v -0.237295 -0.073694 -0.324174
v 0.237408 0.001629 -0.337441
v -0.237408 0.001629 -0.337441
v 0.237408 -0.073841 -0.337441
v -0.237408 -0.073841 -0.337441
v 0.237295 0.171725 -0.355539
v -0.237295 0.171725 -0.355539
v 0.237408 0.171873 -0.368806
v -0.237408 0.171873 -0.368806
v 0.237407 -0.142232 -0.359380
v -0.237407 -0.142232 -0.359380
v 0.237522 -0.142382 -0.372941
v -0.237522 -0.142382 -0.372941
v 0.237504 -0.129422 -0.369547
v 0.237434 -0.087224 -0.348240
v -0.237434 -0.087224 -0.348240
v -0.237504 -0.129422 -0.369547
v -0.237320 -0.087029 -0.334870
v -0.237388 -0.129294 -0.356039
v 0.237320 -0.087029 -0.334870
v 0.237389 -0.129294 -0.356039
v 0.237487 -0.118085 -0.365928
v -0.237487 -0.118085 -0.365928
v 0.237470 -0.107193 -0.361132
v -0.237470 -0.107193 -0.361132
v 0.237452 -0.096867 -0.355214
v -0.237452 -0.096867 -0.355214
v -0.237372 -0.117945 -0.352458
v -0.237355 -0.107038 -0.347699
v -0.237338 -0.096693 -0.341814
v 0.237372 -0.117945 -0.352458
v 0.237355 -0.107038 -0.347699
v 0.237338 -0.096693 -0.341814
v 0.206447 -0.037751 0.027724
v -0.206447 -0.037751 0.027724
v 0.206447 -0.055309 0.032773
v -0.206447 -0.055309 0.032773
v 0.206447 -0.086981 -0.015200
v -0.206447 -0.086981 -0.015200
v 0.206447 -0.086981 0.032773
v -0.206447 -0.086981 0.032773
v 0.206447 -0.026006 0.018717
v -0.206447 -0.026006 0.018717
v -0.206447 -0.020541 0.001906
v 0.206447 -0.020541 0.001906
vn -0.0000 -0.0000 -1.0000
vt -19.286005 -17.756763
vt -19.285044 -17.756763
vt -19.285044 -17.755510
vt -19.286005 -17.755510
s 1
usemtl M_TelevisionStand_13_2
f 9/1/1 10/2/1 12/3/1 11/4/1
