# Blender 4.1.0
# www.blender.org
mtllib MeshBox_17_0.mtl
o Box_17
v 0.125710 0.086371 -0.135004
v -0.126085 0.086371 -0.135004
v 0.125710 -0.085840 -0.135004
v -0.126085 -0.085840 -0.135004
v 0.054614 -0.085840 -0.135049
v 0.054614 0.086371 -0.135049
v -0.054683 -0.085840 -0.135049
v -0.054683 0.086371 -0.135049
v 0.125711 0.088813 -0.135004
v -0.126085 0.088813 -0.135004
v -0.126085 -0.088036 -0.135004
v 0.125711 -0.087603 -0.135004
v -0.125376 -0.088036 -0.135004
v -0.125376 0.088813 -0.135004
v 0.124717 0.088813 -0.135004
v 0.124717 -0.087603 -0.135004
v 0.124717 0.088813 -0.139849
v -0.125376 0.088813 -0.139849
v 0.124717 0.000991 -0.139849
v -0.125376 0.001119 -0.139849
v 0.124717 -0.087603 -0.139849
v 0.124717 -0.000041 -0.139849
v -0.125376 -0.088036 -0.139849
v -0.125376 0.000086 -0.139849
v 0.124717 0.090581 -0.135004
v -0.125376 0.090581 -0.135001
v 0.124717 -0.089371 -0.135004
v 0.127378 -0.089371 -0.135004
v -0.127753 -0.085840 -0.138248
v -0.127753 0.086371 -0.138248
v 0.127379 -0.085840 -0.138248
v 0.127378 0.086371 -0.138248
v 0.124717 0.090581 -0.142688
v -0.125376 0.090581 -0.142688
v 0.124717 0.000991 -0.142688
v -0.125376 0.001119 -0.142688
v 0.054393 -0.085840 -0.137863
v 0.054393 0.086371 -0.137863
v -0.054462 0.086371 -0.137863
v -0.054462 -0.085840 -0.137863
v -0.127753 0.090581 -0.135001
v 0.127378 0.090581 -0.135001
v -0.127753 -0.089804 -0.135004
v -0.125376 -0.089804 -0.135004
v 0.124717 -0.089371 -0.142688
v 0.124717 -0.000041 -0.142688
v -0.125376 -0.089804 -0.142688
v -0.125376 0.000086 -0.142688
v -0.125376 0.090581 0.109850
v -0.125376 0.090478 0.110251
v -0.125376 0.090228 0.110417
v 0.124717 0.090581 0.109850
v 0.124717 0.090478 0.110251
v 0.124717 0.090228 0.110417
v 0.127378 -0.089371 0.109850
v 0.127281 -0.089267 0.110251
v 0.127045 -0.089017 0.110417
v 0.124717 -0.089371 0.109850
v 0.124717 -0.089267 0.110251
v 0.124717 -0.089017 0.110417
v -0.127753 -0.085840 0.108055
v -0.127655 -0.085840 0.108457
v -0.127419 -0.085840 0.108623
v -0.127753 0.086371 0.108056
v -0.127655 0.086371 0.108457
v -0.127419 0.086371 0.108623
v 0.127378 0.086371 0.108056
v 0.127281 0.086371 0.108457
v 0.127045 0.086371 0.108623
v 0.127379 -0.085840 0.108056
v 0.127281 -0.085840 0.108457
v 0.127045 -0.085840 0.108623
v -0.127753 0.090581 0.109850
v -0.127655 0.090478 0.110251
v -0.127419 0.090228 0.110417
v 0.127378 0.090581 0.109850
v 0.127281 0.090478 0.110251
v 0.127045 0.090228 0.110417
v -0.127753 -0.089804 0.109850
v -0.127655 -0.089701 0.110251
v -0.127419 -0.089451 0.110417
v -0.125376 -0.089804 0.109850
v -0.125376 -0.089701 0.110251
v -0.125376 -0.089451 0.110417
v -0.125376 0.088813 0.109850
v -0.125376 0.088917 0.110251
v -0.125376 0.089167 0.110417
v 0.124717 0.088813 0.109850
v 0.124717 0.088917 0.110251
v 0.124717 0.089167 0.110417
v 0.125711 -0.087603 0.109850
v 0.125808 -0.087706 0.110251
v 0.126044 -0.087956 0.110417
v 0.124717 -0.087603 0.109850
v 0.124717 -0.087706 0.110251
v 0.124717 -0.087956 0.110417
v -0.126085 0.086371 0.108056
v -0.126182 0.086371 0.108457
v -0.126418 0.086371 0.108623
v -0.126085 -0.085840 0.108056
v -0.126183 -0.085840 0.108457
v -0.126418 -0.085840 0.108623
v 0.125710 0.086371 0.108056
v 0.125808 0.086371 0.108457
v 0.126044 0.086371 0.108623
v 0.125711 -0.085840 0.108056
v 0.125808 -0.085840 0.108457
v 0.126044 -0.085840 0.108623
v -0.126085 0.088813 0.109850
v -0.126182 0.088917 0.110251
v -0.126418 0.089167 0.110417
v 0.125711 0.088813 0.109850
v 0.125808 0.088917 0.110251
v 0.126044 0.089167 0.110417
v -0.126085 -0.088036 0.109850
v -0.126182 -0.088140 0.110251
v -0.126418 -0.088390 0.110417
v -0.125376 -0.088036 0.109850
v -0.125376 -0.088140 0.110251
v -0.125376 -0.088390 0.110417
vn -0.0000 -0.0000 -1.0000
vn -0.2220 -0.0000 -0.9751
vn 0.2219 -0.0000 -0.9751
vn -0.0000 1.0000 -0.0000
vn 0.0017 -1.0000 -0.0000
vn 0.0016 -1.0000 -0.0000
vn -0.0000 -0.0000 1.0000
vn 0.2220 -0.0000 0.9751
vn -0.2220 -0.0000 0.9751
vn -0.0000 -1.0000 -0.0000
vn -0.0019 1.0000 -0.0000
vn -0.0017 1.0000 -0.0000
vn -0.0018 1.0000 -0.0000
vn 1.0000 -0.0000 -0.0000
vn -0.0005 -1.0000 -0.0000
vn -1.0000 -0.0000 -0.0000
vn -0.9969 -0.0000 0.0784
vn 0.0005 1.0000 0.0001
vn 0.0006 1.0000 0.0001
vn -0.0005 1.0000 0.0001
vn -0.0006 1.0000 0.0002
vn 0.9969 -0.0000 0.0783
vn 0.7293 0.1538 -0.6667
vn -0.7346 0.1950 -0.6498
vn 0.7393 -0.2414 -0.6286
vn 0.7393 -0.2413 -0.6287
vn 0.7393 -0.2414 -0.6287
vn -0.7349 -0.1945 -0.6497
vn -0.0000 0.0018 -1.0000
vn 0.0004 0.0007 -1.0000
vn 0.0005 1.0000 -0.0000
vn 1.0000 -0.0001 -0.0000
vn 1.0000 0.0002 -0.0000
vn -0.0000 1.0000 0.0004
vn -0.0000 1.0000 0.0005
vn -0.0000 -1.0000 0.0004
vn 0.0009 -1.0000 0.0005
vn -1.0000 -0.0000 0.0004
vn 1.0000 -0.0001 0.0004
vn 1.0000 -0.0000 0.0004
vn -1.0000 -0.0003 0.0006
vn 1.0000 -0.0004 0.0006
vn -1.0000 0.0003 0.0006
vn 1.0000 0.0003 0.0007
vn 0.0017 -1.0000 0.0005
vn -0.0000 -1.0000 0.0005
vn 0.0001 1.0000 0.0006
vn 0.0001 1.0000 -0.0000
vn -0.0017 1.0000 0.0005
vn 1.0000 -0.0006 0.0011
vn -1.0000 -0.0007 0.0011
vn -1.0000 0.0001 -0.0000
vn 1.0000 0.0008 0.0012
vn 1.0000 0.0001 -0.0000
vn -1.0000 0.0012 0.0014
vn -0.0000 1.0000 0.0006
vn -0.0009 1.0000 0.0005
vn -0.0000 -1.0000 0.0006
vn -0.0001 -1.0000 0.0006
vn 0.1676 0.3673 0.9149
vn -0.0003 0.1259 0.9920
vn 0.0002 -0.1260 0.9920
vn 0.3184 0.2040 0.9257
vn 0.1277 -0.0106 0.9918
vn -0.1542 -0.3454 0.9257
vn -0.3277 -0.1997 0.9234
vn -0.1395 -0.0104 0.9902
vn 0.1459 -0.3300 0.9326
vn -0.1277 -0.0106 0.9918
vn 0.1394 -0.0104 0.9902
vn 0.3141 -0.1779 0.9326
vn -0.1625 0.3597 0.9188
vn 0.1277 0.0106 0.9918
vn -0.1395 0.0104 0.9902
vn -0.3303 0.2094 0.9204
vn -0.1277 0.0107 0.9918
vn 0.1395 0.0106 0.9902
vn -0.0002 0.1255 0.9921
vn 0.0003 -0.1264 0.9920
vn -0.0000 -0.1256 0.9921
vn -0.0000 0.1262 0.9920
vn -0.0000 0.8490 0.5284
vn 0.7499 0.3285 0.5742
vn 0.7146 -0.3721 0.5924
vn 0.0007 -0.8488 0.5287
vn 0.0007 -0.8491 0.5283
vn -0.8637 0.0050 0.5040
vn -0.8637 -0.0050 0.5040
vn -0.7736 0.2838 0.5665
vn 0.8638 -0.0050 0.5039
vn 0.8637 0.0050 0.5039
vn -0.7637 -0.2972 0.5731
vn -0.0000 -0.8488 0.5287
vn 0.3696 -0.5878 0.7196
vn -0.0000 -0.8488 0.5286
vn -0.2091 0.7037 0.6790
vn -0.8619 0.0050 0.5070
vn -0.0015 0.8489 0.5285
vn 0.8623 -0.0049 0.5064
vn 0.8623 0.0049 0.5064
vn 0.3252 0.6236 0.7109
vn -0.8620 -0.0051 0.5069
vn -0.3387 -0.6112 0.7153
vn -0.0007 0.8487 0.5289
vt 0.906134 0.944499
vt 0.596053 0.944499
vt 0.596495 0.027027
vt 0.906134 0.027027
vt 0.757445 0.458007
vt 0.757445 1.054051
vt 0.489695 1.054051
vt 0.489695 0.458007
vt 0.793366 1.052718
vt 0.793366 0.456676
vt 1.062237 0.456676
vt 1.062237 1.052718
vt 0.792327 0.948247
vt 0.483149 0.948247
vt 0.481648 0.030775
vt 0.792768 0.030775
vt -0.159478 0.622526
vt -0.176041 0.622526
vt -0.176041 -0.295007
vt -0.159471 -0.295007
vt 0.020998 -0.293963
vt 0.037561 -0.293963
vt 0.037561 0.623571
vt 0.020998 0.623571
vt 0.372403 0.030775
vt 0.676365 0.030775
vt 0.676365 0.948247
vt 0.372844 0.948247
vt 0.591355 0.458008
vt 0.852175 0.458008
vt 0.852175 1.054050
vt 0.591355 1.054050
vt 0.950377 1.052718
vt 0.688437 1.052718
vt 0.688437 0.456677
vt 0.950377 0.456677
vt 0.261620 0.031023
vt 0.564680 0.031023
vt 0.565121 0.948496
vt 0.260119 0.948496
vt 0.443970 -0.295961
vt 0.454414 -0.295961
vt 0.454414 0.621572
vt 0.443970 0.621572
vt 0.645423 0.945216
vt 0.634979 0.945216
vt 0.634979 0.027682
vt 0.645423 0.027682
vt 0.881370 0.864184
vt 0.885353 0.864184
vt 0.892037 0.870868
vt 0.881370 0.870868
vt 0.981092 0.766928
vt 0.981092 1.070911
vt 0.974973 1.070911
vt 0.974973 0.760809
vt 0.349461 0.031022
vt 0.355579 0.031022
vt 0.355579 0.948498
vt 0.349461 0.948498
vt 0.973539 1.070596
vt 0.973539 0.767089
vt 0.979657 0.760971
vt 0.979657 1.070596
vt 0.935644 0.780774
vt 0.935547 1.041568
vt 0.929483 1.042379
vt 0.928653 0.774656
vt 0.980516 1.054045
vt 0.980516 0.455349
vt 0.986607 0.455349
vt 0.986607 1.054045
vt 0.926987 0.775458
vt 0.927084 1.036270
vt 0.920093 1.042388
vt 0.920922 0.774647
vt 0.952765 0.780403
vt 0.952668 1.042328
vt 0.946605 1.043139
vt 0.945775 0.774285
vt 0.875517 0.455349
vt 0.875517 1.054045
vt 0.869426 1.054045
vt 0.869426 0.455349
vt 0.944108 0.775086
vt 0.944205 1.037030
vt 0.937214 1.043148
vt 0.938043 0.774275
vt 0.907122 0.863330
vt 0.907122 0.872543
vt 0.900453 0.872543
vt 0.900453 0.856662
vt 0.913208 0.872488
vt 0.913208 0.863339
vt 0.919830 0.856718
vt 0.919830 0.872488
vt 0.897953 0.857012
vt 0.897953 0.865259
vt 0.891314 0.871897
vt 0.891314 0.857012
vt 0.885353 0.857521
vt 0.892037 0.857521
vt 0.900775 0.865259
vt 0.900775 0.871897
vt 0.909957 0.863330
vt 0.909957 0.856662
vt 0.909263 0.863339
vt 0.909263 0.856718
vt 0.957328 0.761107
vt 0.957328 1.064182
vt 0.951209 1.070300
vt 0.951209 0.761107
vt 0.997298 0.854707
vt 0.997298 0.549728
vt 1.003415 0.549728
vt 1.003415 0.860824
vt 0.347321 0.948496
vt 0.341203 0.948496
vt 0.341203 0.031023
vt 0.347321 0.031023
vt 0.991536 0.766928
vt 0.991536 0.760809
vt 0.963096 0.767089
vt 0.963089 0.760971
vt 0.986855 0.854707
vt 0.986855 0.860824
vt 0.967772 1.064182
vt 0.967772 1.070300
vt 0.368276 0.622526
vt 0.368276 -0.295007
vt 0.565315 -0.303728
vt 0.565315 -0.293963
vt 0.037561 -0.303728
vt 0.511973 0.141298
vt 0.511973 0.737380
vt -0.018906 0.737380
vt -0.018906 0.141298
vt -0.172916 0.958449
vt -0.172916 0.362367
vt 0.357964 0.362367
vt 0.357964 0.958449
vt -0.022773 0.126726
vt 0.504975 0.126726
vt -0.165917 0.347794
vt 0.361831 0.347794
vt 0.504981 0.751100
vt -0.022773 0.751100
vt 0.361831 0.970668
vt -0.165924 0.970668
vt 0.565315 0.623571
vt 0.565315 0.632291
vt 0.037561 0.632291
vt -0.159471 -0.303727
vt 0.368276 -0.303727
vt -0.159471 0.632291
vt 0.368276 0.632291
vt 0.982168 -0.295961
vt 0.982168 0.621572
vt 1.173178 0.948862
vt 0.645423 0.948862
vt 1.173178 0.945216
vt 0.022508 0.461571
vt 0.546397 0.461571
vt 0.546397 1.057654
vt 0.022508 1.057654
vt 0.742126 1.058144
vt 0.218238 1.058144
vt 0.218238 0.462061
vt 0.742127 0.462061
vt 0.022508 0.453118
vt 0.550264 0.453118
vt 0.214371 0.453608
vt 0.742127 0.453608
vt 0.550264 1.065255
vt 0.022508 1.065255
vt 0.742126 1.064245
vt 0.214371 1.064245
vt 0.645423 0.025080
vt 1.173178 0.025080
vt 1.173178 0.027682
vt 0.982168 0.624174
vt 0.454414 0.624174
vt 0.454414 -0.299607
vt 0.982168 -0.299607
vt 0.194102 -0.305244
vt 0.194102 -0.300308
vt 0.190381 -0.300308
vt 0.190381 -0.308966
vt 0.805700 0.633559
vt 0.815508 0.633559
vt 0.819229 0.637280
vt 0.805700 0.637280
vt 0.815508 -0.305244
vt 0.805700 -0.305244
vt 0.805700 -0.308966
vt 0.819229 -0.308966
vt 0.192581 0.633559
vt 0.201526 0.633559
vt 0.201526 0.637280
vt 0.188860 0.637280
vt 0.201526 -0.305244
vt 0.201526 -0.308966
vt 0.192581 0.629682
vt 0.188860 0.629682
vt 0.815508 0.629682
vt 0.819229 0.629682
vt 0.815508 -0.300308
vt 0.819229 -0.300308
vt 0.369141 -0.295007
vt 0.369141 0.622526
vt 0.820106 0.629682
vt 0.820106 -0.300308
vt 0.369141 0.631932
vt 0.820106 -0.309843
vt 0.566181 -0.303369
vt 0.566181 -0.293963
vt 0.189504 -0.309843
vt 0.189504 -0.300308
vt 0.566181 0.623571
vt 0.187983 0.629682
vt -0.019771 0.737380
vt -0.019771 0.141298
vt 0.201526 0.638157
vt 0.805700 0.638157
vt -0.023639 0.127084
vt 0.820106 0.638157
vt 0.358829 0.362367
vt 0.358829 0.958449
vt 0.805700 -0.309843
vt 0.201526 -0.309843
vt 0.362696 0.970310
vt 0.369141 -0.303369
vt 0.362696 0.348153
vt 0.187983 0.638157
vt -0.023639 0.750742
vt 0.566181 0.631933
vt 0.983034 0.621572
vt 0.983034 0.624532
vt 0.814631 0.629682
vt 0.814631 0.632682
vt 0.814631 -0.300308
vt 0.983034 -0.295961
vt 0.213506 1.064603
vt 0.217373 1.058144
vt 0.194979 -0.304367
vt 0.201526 -0.304367
vt 0.194979 -0.300308
vt 1.174043 0.949220
vt 1.174043 0.945216
vt 0.547262 0.461571
vt 0.547262 1.057654
vt 0.805700 0.632682
vt 0.201526 0.632682
vt 0.551129 1.065614
vt 0.193458 0.632682
vt 0.217373 0.462061
vt 0.213506 0.453249
vt 0.805700 -0.304367
vt 0.814631 -0.304367
vt 0.551129 0.452759
vt 0.983034 -0.299965
vt 1.174043 0.024722
vt 1.174043 0.027682
vt 0.193458 0.629682
s 1
usemtl M_Box_17_0
f 33/1/1 35/2/1 36/3/1 34/4/1
f 32/5/2 31/6/2 37/7/2 38/8/2
f 29/9/3 30/10/3 39/11/3 40/12/3
f 46/13/1 45/14/1 47/15/1 48/16/1
f 25/17/4 33/18/4 34/19/4 26/20/4
f 45/21/5 27/22/6 44/23/5 47/24/5
f 19/25/7 17/26/7 18/27/7 20/28/7
f 1/29/8 6/30/8 5/31/8 3/32/8
f 4/33/9 7/34/9 8/35/9 2/36/9
f 21/37/7 22/38/7 24/39/7 23/40/7
f 17/41/10 15/42/10 14/43/10 18/44/10
f 16/45/11 21/46/12 23/47/12 13/48/13
f 16/49/1 12/50/1 28/51/1 27/52/1
f 17/53/14 19/54/14 35/55/14 33/56/14
f 35/57/15 19/58/15 20/59/15 36/60/15
f 20/61/16 18/62/16 34/63/16 36/64/16
f 3/65/10 5/66/10 37/67/10 31/68/10
f 5/69/17 6/70/17 38/71/17 37/72/17
f 6/73/18 1/74/19 32/75/19 38/76/18
f 2/77/20 8/78/20 39/79/20 30/80/21
f 8/81/22 7/82/22 40/83/22 39/84/22
f 7/85/10 4/86/10 29/87/10 40/88/10
f 10/89/23 2/90/23 30/91/23 41/92/23
f 1/93/24 9/94/24 42/95/24 32/96/24
f 4/97/25 11/98/26 43/99/27 29/100/27
f 12/50/28 3/101/28 31/102/28 28/51/28
f 11/98/1 13/103/1 44/104/1 43/99/1
f 14/105/29 10/89/29 41/92/29 26/106/29
f 9/94/30 15/107/30 25/108/30 42/95/30
f 22/109/14 21/110/14 45/111/14 46/112/14
f 23/113/16 24/114/16 48/115/16 47/116/16
f 22/117/31 46/118/31 48/119/31 24/120/31
f 15/121/14 17/53/14 33/56/14 25/122/14
f 18/62/16 14/123/16 26/124/16 34/63/16
f 13/125/16 23/113/16 47/116/16 44/126/16
f 21/110/32 16/127/32 27/128/32 45/111/33
f 52/129/34 25/17/4 26/20/4 49/130/35
f 55/131/36 58/132/37 27/22/6 28/133/10
f 30/134/16 29/135/16 61/136/38 64/137/38
f 31/138/14 32/139/14 67/140/39 70/141/40
f 30/134/16 64/137/38 73/142/41 41/143/16
f 67/140/39 32/139/14 42/144/14 76/145/42
f 61/136/38 29/135/16 43/146/16 79/147/43
f 31/138/14 70/141/40 55/148/44 28/149/32
f 44/23/5 82/150/45 79/151/36 43/152/10
f 49/130/35 26/20/4 41/153/4 73/154/34
f 42/155/4 25/17/4 52/129/34 76/156/34
f 27/22/6 58/132/37 82/150/45 44/23/5
f 15/42/10 88/157/46 85/158/46 14/43/10
f 91/159/47 12/160/48 16/45/11 94/161/49
f 2/162/14 97/163/40 100/164/39 4/165/14
f 3/166/16 106/167/38 103/168/38 1/169/16
f 2/162/14 10/170/14 109/171/50 97/163/40
f 103/168/38 112/172/51 9/173/52 1/169/16
f 100/164/39 115/174/53 11/175/54 4/165/14
f 3/166/16 12/176/16 91/177/55 106/167/38
f 13/48/13 11/178/4 115/179/56 118/180/57
f 85/158/46 109/181/58 10/182/10 14/43/10
f 9/183/10 112/184/59 88/157/46 15/42/10
f 94/161/49 16/45/11 13/48/13 118/180/57
f 93/185/60 96/186/61 60/187/62 57/188/63
f 99/189/64 111/190/65 75/191/66 66/192/67
f 114/193/68 105/194/69 69/195/70 78/196/71
f 117/197/72 102/198/73 63/199/74 81/200/75
f 108/201/76 93/185/60 57/188/63 72/202/77
f 120/203/78 117/197/72 81/200/75 84/204/79
f 111/190/65 87/205/80 51/206/81 75/191/66
f 90/207/80 114/193/68 78/196/71 54/208/81
f 54/208/81 51/206/81 87/205/80 90/207/80
f 66/192/67 63/199/74 102/198/73 99/189/64
f 72/202/77 69/195/70 105/194/69 108/201/76
f 60/187/62 96/186/61 120/203/78 84/204/79
f 49/130/35 50/209/82 53/210/82 52/129/34
f 50/211/82 51/206/81 54/208/81 53/212/82
f 52/129/34 53/210/82 77/213/83 76/156/34
f 53/212/82 54/208/81 78/196/71 77/214/83
f 55/131/36 56/215/84 59/216/85 58/132/37
f 56/217/84 57/188/63 60/187/62 59/218/85
f 58/132/37 59/216/85 83/219/86 82/150/45
f 59/218/85 60/187/62 84/204/79 83/220/86
f 61/136/38 62/221/87 65/222/88 64/137/38
f 62/223/87 63/199/74 66/192/67 65/224/88
f 64/137/38 65/222/88 74/225/89 73/142/41
f 65/224/88 66/192/67 75/191/66 74/226/89
f 67/140/39 68/227/90 71/228/91 70/141/40
f 68/229/90 69/195/70 72/202/77 71/230/91
f 57/188/63 56/217/84 71/230/91 72/202/77
f 56/231/84 55/148/44 70/141/40 71/228/91
f 51/206/81 50/211/82 74/226/89 75/191/66
f 50/209/82 49/130/35 73/154/34 74/232/89
f 69/195/70 68/229/90 77/214/83 78/196/71
f 68/227/90 67/140/39 76/145/42 77/233/83
f 63/199/74 62/223/87 80/234/92 81/200/75
f 62/221/87 61/136/38 79/147/43 80/235/92
f 81/200/75 80/234/92 83/220/86 84/204/79
f 80/236/92 79/151/36 82/150/45 83/219/86
f 85/158/46 86/237/93 110/238/94 109/181/58
f 86/239/93 87/205/80 111/190/65 110/240/94
f 87/205/80 86/239/93 89/241/95 90/207/80
f 86/237/93 85/158/46 88/157/46 89/242/95
f 91/177/55 92/243/96 107/244/97 106/167/38
f 92/245/96 93/185/60 108/201/76 107/246/97
f 93/185/60 92/245/96 95/247/98 96/186/61
f 92/248/96 91/159/47 94/161/49 95/249/98
f 97/163/40 98/250/99 101/251/100 100/164/39
f 98/252/99 99/189/64 102/198/73 101/253/100
f 100/164/39 101/251/100 116/254/101 115/174/53
f 101/253/100 102/198/73 117/197/72 116/255/101
f 103/168/38 104/256/102 113/257/103 112/172/51
f 104/258/102 105/194/69 114/193/68 113/259/103
f 105/194/69 104/258/102 107/246/97 108/201/76
f 104/256/102 103/168/38 106/167/38 107/244/97
f 99/189/64 98/252/99 110/240/94 111/190/65
f 98/250/99 97/163/40 109/171/50 110/260/94
f 90/207/80 89/241/95 113/259/103 114/193/68
f 89/242/95 88/157/46 112/184/59 113/261/103
f 115/179/56 116/262/101 119/263/104 118/180/57
f 116/255/101 117/197/72 120/203/78 119/264/104
f 96/186/61 95/247/98 119/264/104 120/203/78
f 95/249/98 94/161/49 118/180/57 119/263/104
