# Blender 4.1.1
# www.blender.org
mtllib DrawermeshSideTableDrawer_219_1_GeomSubset_0.mtl
o DrawermeshSideTableDrawer_219_1_GeomSubset_0
v 0.340675 -0.251239 0.330658
v 0.325238 -0.251237 0.324263
v 0.325238 -0.246336 0.324265
v 0.340675 -0.246337 0.330660
v 0.347071 -0.251245 0.346096
v 0.347071 -0.246341 0.346098
v 0.340675 -0.251249 0.361535
v 0.340675 -0.246349 0.361537
v 0.325238 -0.251253 0.367930
v 0.325238 -0.246351 0.367931
v 0.309799 -0.251249 0.361535
v 0.309799 -0.246349 0.361537
v 0.303404 -0.251245 0.346096
v 0.303404 -0.246341 0.346098
v 0.333231 -0.246345 0.354092
v 0.336542 -0.246341 0.346098
v 0.309799 -0.251239 0.330658
v 0.309799 -0.246337 0.330660
v 0.312330 -0.254547 0.333188
v 0.325238 -0.254545 0.327841
v 0.306983 -0.254550 0.346095
v 0.312330 -0.254556 0.359003
v 0.325238 -0.254558 0.364349
v 0.338145 -0.254556 0.359003
v 0.343492 -0.254550 0.346095
v 0.338145 -0.254547 0.333188
v 0.325238 -0.246339 0.334793
v 0.317243 -0.246339 0.338104
v 0.333231 -0.246339 0.338104
v 0.333231 -0.233902 0.338108
v 0.325238 -0.233902 0.334797
v 0.336542 -0.233903 0.346102
v 0.333231 -0.233907 0.354096
v 0.325238 -0.233909 0.357408
v 0.325238 -0.246347 0.357403
v 0.317243 -0.246345 0.354092
v 0.313932 -0.246341 0.346098
v 0.317243 -0.233907 0.354096
v 0.317243 -0.233902 0.338108
v 0.313932 -0.233903 0.346102
v -0.343030 -0.251239 0.330658
v -0.358469 -0.251237 0.324263
v -0.358469 -0.246336 0.324265
v -0.343030 -0.246337 0.330660
v -0.336635 -0.251245 0.346096
v -0.336635 -0.246341 0.346098
v -0.343030 -0.251249 0.361535
v -0.343030 -0.246349 0.361537
v -0.358469 -0.251253 0.367930
v -0.358469 -0.246351 0.367931
v -0.373907 -0.251249 0.361535
v -0.373907 -0.246349 0.361537
v -0.380302 -0.251245 0.346096
v -0.380302 -0.246341 0.346098
v -0.350474 -0.246345 0.354092
v -0.347164 -0.246341 0.346098
v -0.373907 -0.251239 0.330658
v -0.373907 -0.246337 0.330660
v -0.371376 -0.254547 0.333188
v -0.358469 -0.254545 0.327841
v -0.376723 -0.254550 0.346095
v -0.371376 -0.254556 0.359003
v -0.358469 -0.254558 0.364349
v -0.345561 -0.254556 0.359003
v -0.340214 -0.254550 0.346095
v -0.345561 -0.254547 0.333188
v -0.358469 -0.246339 0.334793
v -0.366462 -0.246339 0.338104
v -0.350474 -0.246339 0.338104
v -0.350474 -0.233902 0.338108
v -0.358469 -0.233902 0.334797
v -0.347164 -0.233903 0.346102
v -0.350474 -0.233907 0.354096
v -0.358469 -0.233909 0.357408
v -0.358469 -0.246347 0.357403
v -0.366462 -0.246345 0.354092
v -0.369774 -0.246341 0.346098
v -0.366462 -0.233907 0.354096
v -0.366462 -0.233902 0.338108
v -0.369774 -0.233903 0.346102
v 0.000040 -0.242601 0.257111
v 0.000040 0.122273 0.257237
v 0.629432 0.122273 0.257237
v 0.629432 -0.217411 0.257120
v -0.629352 -0.217411 0.257120
v -0.629352 0.122273 0.257237
v -0.629352 -0.217462 0.403845
v -0.629352 0.122221 0.403963
v 0.000040 -0.251424 0.422987
v 0.000040 -0.251361 0.237954
v 0.648921 -0.225389 0.237963
v 0.648921 -0.225454 0.422996
v -0.648842 -0.225454 0.422996
v -0.648842 -0.225389 0.237963
v 0.648571 -0.216638 0.237966
v 0.000040 -0.242595 0.237958
v -0.648491 -0.216638 0.237966
v -0.648491 -0.216703 0.422999
v 0.648571 -0.216703 0.422999
v 0.000040 -0.242660 0.422990
v 0.000040 -0.242652 0.403837
v 0.629432 -0.217462 0.403845
v 0.000040 0.122221 0.403963
v 0.629432 0.122221 0.403963
v -0.612207 0.105078 0.403957
v -0.612207 0.105120 0.277497
v -0.017105 0.105120 0.277497
v -0.017105 0.105078 0.403957
v -0.017105 -0.224763 0.277383
v -0.017105 -0.224807 0.403843
v -0.612207 -0.200990 0.403851
v 0.017184 0.105078 0.403957
v 0.612288 0.105078 0.403957
v 0.612288 -0.200990 0.403851
v 0.017184 -0.224807 0.403843
v 0.612288 -0.200944 0.277391
v 0.612288 0.105120 0.277497
v 0.017184 0.105120 0.277497
v 0.017184 -0.224763 0.277383
v -0.612207 -0.200944 0.277391
vn 0.0089 -0.3465 0.9380
vn -0.3827 -0.0004 0.9239
vn -0.6568 -0.3464 0.6698
vn -0.7268 -0.4759 0.4952
vn -0.9239 -0.0002 0.3828
vn -0.9381 -0.3462 0.0091
vn -0.9238 -0.0001 0.3828
vn -0.9381 -0.3462 0.0089
vn -0.9239 0.0002 -0.3827
vn -1.0000 -0.0000 -0.0000
vn -0.6697 -0.3460 -0.6571
vn -0.0001 0.0004 -1.0000
vn -0.0090 -0.3459 -0.9382
vn -0.3827 0.0002 -0.9239
vn -0.0091 -0.3459 -0.9382
vn 0.3827 0.0002 -0.9239
vn 0.6570 -0.3460 -0.6698
vn 0.9239 0.0002 -0.3827
vn 1.0000 -0.0000 -0.0000
vn 0.9381 -0.3463 -0.0089
vn -0.0000 -1.0000 -0.0004
vn -0.0000 -1.0000 -0.0011
vn -0.0000 -1.0000 -0.0002
vn 0.9381 -0.3461 -0.0089
vn 0.9239 -0.0002 0.3827
vn 0.6696 -0.3463 0.6570
vn 0.0001 -0.0003 1.0000
vn 0.0086 -0.3466 0.9380
vn 0.3827 -0.0004 0.9239
vn 0.4717 0.8633 0.1795
vn -0.1915 0.8703 0.4539
vn 0.0595 0.6349 0.7703
vn 0.5389 0.6184 0.5720
vn 0.4602 0.8634 -0.2066
vn 0.5865 0.6351 0.5027
vn 0.7852 0.6188 0.0233
vn 0.5858 0.6342 0.5046
vn 0.5724 0.6198 -0.5369
vn 0.9337 0.1428 -0.3285
vn 0.5713 0.6191 -0.5387
vn 0.4544 0.8700 0.1915
vn -0.2066 0.8634 -0.4603
vn 0.4667 0.2979 -0.8327
vn 0.3199 0.1378 -0.9374
vn 0.4567 0.8703 -0.1844
vn -0.4719 0.8632 -0.1793
vn -0.3144 0.1761 -0.9328
vn -0.4838 0.2903 -0.8256
vn 0.1288 0.9820 0.1379
vn -0.1112 0.9882 0.1050
vn -0.0100 0.9477 0.3189
vn 0.1913 0.8701 -0.4542
vn -0.4605 0.8632 0.2069
vn -0.5867 0.6351 -0.5025
vn -0.9370 0.1712 -0.3043
vn -0.0000 1.0000 0.0009
vn -0.0000 1.0000 0.0004
vn -0.2547 0.7360 -0.6272
vn -0.3708 0.8610 0.3481
vn -0.7700 0.6352 0.0597
vn -0.5713 0.6186 0.5393
vn -0.0000 1.0000 0.0003
vn -0.0000 1.0000 -0.0003
vn -0.4540 0.8702 -0.1914
vn 0.2068 0.8631 0.4607
vn -0.5025 0.6348 0.5869
vn -0.0228 0.6180 0.7858
vn -0.4566 0.8702 0.1853
vn -0.0000 -1.0000 -0.0003
vn -0.7071 -0.0003 0.7072
vn -0.0000 -0.0004 1.0000
vn -0.0002 -0.0003 1.0000
vn -0.7072 -0.0002 0.7070
vn -0.0000 -0.0003 1.0000
vn 0.7069 -0.0002 0.7073
vn 0.7070 -0.0003 0.7072
vn -1.0000 -0.0000 0.0002
vn -0.7071 -0.0003 0.7071
vn -0.7072 0.0003 -0.7070
vn -1.0000 -0.0000 -0.0001
vn -0.7072 0.0002 -0.7070
vn -1.0000 -0.0000 -0.0002
vn -0.0002 0.0004 -1.0000
vn -0.7071 0.0002 -0.7071
vn -0.0001 0.0003 -1.0000
vn -0.7072 0.0003 -0.7071
vn -0.0001 -1.0000 -0.0013
vn -0.0000 -1.0000 -0.0005
vn 0.7070 0.0002 -0.7072
vn 0.3827 0.0003 -0.9239
vn 0.3826 0.0003 -0.9239
vn 0.9239 -0.0001 0.3827
vn 1.0000 -0.0000 0.0002
vn 1.0000 0.0001 0.0001
vn 0.9239 0.0001 -0.3827
vn 0.0002 -0.0004 1.0000
vn -0.6567 -0.3466 0.6698
vn -0.3833 -0.0003 0.9236
vn -0.7269 -0.4759 0.4952
vn -0.9239 -0.0002 0.3827
vn -0.9381 -0.3462 0.0090
vn -0.9241 0.0003 -0.3822
vn -0.3827 0.0003 -0.9239
vn -0.1875 -0.4733 -0.8607
vn -0.3826 0.0002 -0.9239
vn 0.6571 -0.3461 -0.6696
vn 0.7073 0.0002 -0.7069
vn 0.7072 0.0003 -0.7070
vn -0.0001 -1.0000 -0.0010
vn -0.0000 -1.0000 -0.0009
vn -0.0001 -1.0000 0.0005
vn 0.7072 -0.0002 0.7070
vn 0.7070 -0.0001 0.7072
vn 0.6696 -0.3465 0.6570
vn 0.1871 -0.4740 0.8604
vn 0.4717 0.8633 0.1794
vn 0.0373 0.8670 0.4970
vn 0.0596 0.6350 0.7702
vn 0.5389 0.6182 0.5721
vn 0.6297 0.7236 -0.2827
vn 0.5865 0.6350 0.5028
vn 0.7852 0.6188 0.0232
vn 0.5856 0.6343 0.5048
vn 0.5724 0.6199 -0.5368
vn 0.7701 0.6352 -0.0595
vn 0.5713 0.6190 -0.5390
vn 0.4542 0.8700 0.1919
vn -0.2067 0.8633 -0.4605
vn 0.5025 0.6350 -0.5868
vn 0.0229 0.6182 -0.7857
vn 0.4567 0.8701 -0.1852
vn -0.4718 0.8633 -0.1793
vn -0.0596 0.6351 -0.7701
vn -0.5390 0.6188 -0.5714
vn -0.0000 1.0000 0.0005
vn -0.0374 0.8667 -0.4975
vn -0.6300 0.7232 0.2830
vn -0.5867 0.6351 -0.5024
vn -0.7856 0.6183 -0.0231
vn -0.2547 0.7361 -0.6271
vn -0.3707 0.8610 0.3482
vn -0.5711 0.6186 0.5395
vn -0.0000 1.0000 -0.0000
vn -0.4540 0.8701 -0.1917
vn 0.2068 0.8632 0.4606
vn -0.5024 0.6349 0.5869
vn -0.0228 0.6181 0.7858
vn -0.3826 -0.0003 0.9239
vn 0.3827 -0.0003 0.9239
vn -0.9239 -0.0001 0.3826
vn -0.9239 0.0001 -0.3826
vn -0.3826 0.0004 -0.9239
vn 0.0002 0.0004 -1.0000
vn 0.3824 0.0001 -0.9240
vn 0.0003 0.0003 -1.0000
vn 0.9238 -0.0001 0.3828
vn 1.0000 -0.0000 0.0003
vn 1.0000 -0.0001 0.0003
vn 1.0000 -0.0001 -0.0002
vn 0.9238 0.0001 -0.3828
vn 1.0000 -0.0000 -0.0002
vn 0.0003 -0.0004 1.0000
s 1
usemtl M_SideTableDrawer_219_0
f 1//1 3//2 2//3
f 1//1 4//2 3//2
f 5//4 4//5 1//6
f 5//4 6//7 4//5
f 7//8 6//9 5//9
f 7//8 8//10 6//9
f 9//11 8//12 7//13
f 9//11 10//14 8//12
f 11//15 10//16 9//17
f 11//15 12//12 10//16
f 13//18 12//19 11//20
f 13//18 14//18 12//19
f 6//21 8//22 15//22
f 6//21 15//22 16//21
f 4//23 6//21 16//21
f 17//24 14//25 13//25
f 17//24 18//19 14//25
f 2//26 18//27 17//28
f 2//26 3//29 18//27
f 2//30 17//31 19//32
f 2//30 19//32 20//33
f 17//34 21//35 19//36
f 17//34 13//37 21//35
f 13//38 22//39 21//40
f 13//38 11//41 22//39
f 11//42 23//43 22//44
f 11//42 9//45 23//43
f 9//46 24//47 23//48
f 24//49 22//50 23//51
f 9//46 7//52 24//47
f 7//53 25//54 24//55
f 25//56 21//57 22//50
f 25//56 22//50 24//49
f 7//53 5//58 25//54
f 5//59 26//60 25//61
f 19//62 26//62 20//63
f 26//62 19//62 21//57
f 26//62 21//57 25//56
f 5//59 1//64 26//60
f 1//65 20//66 26//67
f 1//65 2//68 20//66
f 18//69 3//69 27//69
f 18//69 27//69 28//23
f 3//69 29//69 27//69
f 27//70 29//71 30//72
f 27//70 30//72 31//73
f 28//74 27//75 31//76
f 29//77 32//78 30//77
f 29//77 16//78 32//78
f 4//23 16//21 29//69
f 3//69 4//23 29//69
f 16//79 33//80 32//81
f 16//79 15//82 33//80
f 15//83 34//84 33//85
f 15//83 35//86 34//84
f 8//22 35//87 15//22
f 8//22 10//21 35//87
f 10//21 36//88 35//87
f 10//21 12//88 36//88
f 12//88 37//21 36//88
f 12//88 14//21 37//21
f 14//21 28//23 37//21
f 14//21 18//69 28//23
f 35//89 38//90 34//89
f 35//89 36//91 38//90
f 37//92 28//93 39//94
f 37//92 39//94 40//92
f 36//95 40//95 38//95
f 36//95 37//95 40//95
f 28//74 31//76 39//96
f 41//1 43//2 42//97
f 41//1 44//98 43//2
f 45//99 44//100 41//101
f 45//99 46//100 44//100
f 47//9 46//102 45//9
f 47//9 48//9 46//102
f 49//11 48//103 47//104
f 49//11 50//105 48//103
f 51//13 50//16 49//106
f 51//13 52//12 50//16
f 53//107 52//19 51//20
f 53//107 54//108 52//19
f 46//21 48//109 55//110
f 46//21 55//110 56//21
f 44//111 46//21 56//21
f 57//25 54//112 53//113
f 57//25 58//25 54//112
f 42//114 58//29 57//115
f 42//114 43//29 58//29
f 42//116 57//117 59//118
f 42//116 59//118 60//119
f 57//120 61//121 59//122
f 57//120 53//123 61//121
f 53//124 62//125 61//126
f 53//124 51//127 62//125
f 51//128 63//129 62//130
f 51//128 49//131 63//129
f 49//132 64//133 63//134
f 64//57 62//135 63//57
f 49//132 47//136 64//133
f 47//137 65//138 64//139
f 65//62 61//57 62//135
f 65//62 62//135 64//57
f 47//137 45//140 65//138
f 45//141 66//60 65//142
f 59//62 66//62 60//143
f 66//62 59//62 61//57
f 66//62 61//57 65//62
f 45//141 41//144 66//60
f 41//145 60//146 66//147
f 41//145 42//68 60//146
f 58//69 43//69 67//69
f 58//69 67//69 68//23
f 43//69 69//69 67//69
f 67//148 69//148 70//148
f 67//148 70//148 71//148
f 68//27 67//149 71//149
f 69//150 72//150 70//150
f 69//150 56//150 72//150
f 44//111 56//21 69//69
f 43//69 44//111 69//69
f 56//151 73//151 72//151
f 56//151 55//151 73//151
f 55//103 74//103 73//103
f 55//103 75//152 74//103
f 48//109 75//110 55//110
f 48//109 50//21 75//110
f 50//21 76//88 75//110
f 50//21 52//88 76//88
f 52//88 77//21 76//88
f 52//88 54//21 77//21
f 54//21 68//23 77//21
f 54//21 58//69 68//23
f 75//90 78//153 74//154
f 75//90 76//155 78//153
f 77//156 68//157 79//158
f 77//156 79//158 80//156
f 76//159 80//160 78//161
f 76//159 77//160 80//160
f 68//27 71//149 79//162
