# Blender 4.1.1
# www.blender.org
mtllib MeshWindowHung_48X24_0_GeomSubset_2.mtl
o MeshWindowHung_48X24_0_GeomSubset_2
v 0.609600 0.040624 -0.276178
v -0.609600 0.040626 -0.276178
v 0.609600 0.040624 0.333422
v -0.609600 0.040626 0.333422
v 0.609600 -0.040626 -0.276178
v 0.609600 -0.040626 0.333422
v -0.609600 -0.040624 0.333422
v -0.609600 -0.040624 -0.276178
v 0.634836 0.120779 -0.276178
v -0.634836 0.120780 -0.276178
v -0.634836 -0.120779 -0.276178
v 0.634836 -0.120780 -0.276178
v 0.634836 0.092218 -0.331218
v 0.634836 0.120779 -0.294453
v -0.634836 -0.092218 -0.331218
v -0.634836 -0.120779 -0.294452
v 0.634836 -0.092219 -0.331218
v 0.634836 -0.120780 -0.294453
v -0.634836 0.092219 -0.331218
v -0.634836 0.120780 -0.294453
v 0.543864 0.040624 0.267656
v 0.543864 0.040624 -0.253771
v 0.543864 -0.040626 0.267656
v 0.543864 -0.040626 -0.253771
v -0.543864 0.040626 0.267656
v -0.543864 -0.040624 0.267656
v -0.543864 -0.040624 -0.253771
v -0.543864 0.040626 -0.253771
v 0.543864 0.031819 0.267656
v 0.543864 0.031819 -0.253771
v 0.543864 -0.031820 0.267656
v 0.543864 -0.031820 -0.253771
v -0.543864 0.031820 0.267656
v -0.543864 -0.031819 0.267656
v -0.543864 -0.031819 -0.253771
v -0.543864 0.031820 -0.253771
v 0.566703 0.031819 0.290930
v 0.566703 0.031819 -0.276178
v 0.566703 -0.031820 0.290930
v 0.566703 -0.031820 -0.276178
v -0.566703 0.031820 0.290930
v -0.566703 -0.031819 0.290930
v -0.566703 -0.031819 -0.276178
v -0.566703 0.031820 -0.276178
v -0.566209 0.000022 -0.011491
v 0.566536 0.000021 -0.011491
v -0.566209 0.000022 0.290549
v 0.566536 0.000021 0.290549
v -0.566209 -0.031843 0.290549
v 0.566536 -0.031844 0.290549
v -0.566209 -0.031843 -0.011491
v 0.566536 -0.031844 -0.011491
v -0.566209 0.000022 -0.011491
v 0.566536 0.000021 -0.011491
v 0.566536 0.000021 0.290549
v -0.566209 0.000022 0.290549
v -0.566209 -0.031843 0.290549
v 0.566536 -0.031844 0.290549
v 0.566536 -0.031844 -0.011491
v -0.566209 -0.031843 -0.011491
v -0.566209 0.000022 -0.011491
v 0.566536 0.000021 -0.011491
v 0.566536 0.000021 0.290549
v -0.566209 0.000022 0.290549
v -0.566209 -0.031843 0.290549
v 0.566536 -0.031844 0.290549
v 0.566536 -0.031844 -0.011491
v -0.566209 -0.031843 -0.011491
v -0.527629 0.000022 0.027974
v 0.527957 0.000021 0.027974
v 0.527957 0.000021 0.251084
v -0.527629 0.000022 0.251084
v -0.527629 -0.031843 0.251084
v 0.527957 -0.031844 0.251084
v 0.527957 -0.031844 0.027974
v -0.527629 -0.031843 0.027974
v -0.566209 0.031705 -0.276226
v 0.566536 0.031704 -0.276226
v -0.566209 0.031705 0.027974
v 0.566536 0.031704 0.027974
v -0.566209 -0.000159 0.027974
v 0.566536 -0.000161 0.027974
v -0.566209 -0.000159 -0.276226
v 0.566536 -0.000161 -0.276226
v -0.566209 0.031705 -0.276226
v 0.566536 0.031704 -0.276226
v 0.566536 0.031704 0.027974
v -0.566209 0.031705 0.027974
v -0.566209 -0.000159 0.027974
v 0.566536 -0.000161 0.027974
v 0.566536 -0.000161 -0.276226
v -0.566209 -0.000159 -0.276226
v -0.566209 0.031705 -0.276226
v 0.566536 0.031704 -0.276226
v 0.566536 0.031704 0.027974
v -0.566209 0.031705 0.027974
v -0.566209 -0.000159 0.027974
v 0.566536 -0.000161 0.027974
v 0.566536 -0.000161 -0.276226
v -0.566209 -0.000159 -0.276226
v -0.527629 0.031705 -0.237628
v 0.527957 0.031704 -0.237628
v 0.527957 0.031704 -0.011491
v -0.527629 0.031705 -0.011491
v -0.527629 -0.000160 -0.011491
v 0.527957 -0.000161 -0.011491
v 0.527957 -0.000161 -0.237628
v -0.527629 -0.000159 -0.237628
v -0.527629 -0.010460 0.027974
v 0.527957 -0.010461 0.027974
v 0.527957 -0.010461 0.251084
v -0.527629 -0.010460 0.251084
v -0.527629 -0.019734 0.251084
v 0.527957 -0.019735 0.251084
v 0.527957 -0.019735 0.027974
v -0.527629 -0.019734 0.027974
v -0.527629 0.020216 -0.237628
v 0.527957 0.020214 -0.237628
v 0.527957 0.020214 -0.011491
v -0.527629 0.020216 -0.011491
v -0.527629 0.010941 -0.011491
v 0.527957 0.010940 -0.011491
v 0.527957 0.010940 -0.237628
v -0.527629 0.010941 -0.237628
v -0.029656 0.022278 0.026814
v 0.030385 0.022278 0.026814
v -0.020632 0.022278 0.045116
v 0.021360 0.022278 0.045116
v -0.020632 -0.000182 0.045116
v 0.021360 -0.000182 0.045116
v -0.029656 -0.000182 0.026814
v 0.030385 -0.000182 0.026814
v -0.025334 0.022278 0.041667
v -0.025334 -0.000182 0.041667
v 0.026063 -0.000182 0.041667
v 0.026063 0.022278 0.041667
v -0.028085 0.022278 0.035969
v -0.028085 -0.000182 0.035969
v 0.028813 -0.000182 0.035969
v 0.028813 0.022278 0.035969
v 0.048111 -0.000182 0.026814
v 0.048111 0.022278 0.026814
v -0.047383 -0.000182 0.026814
v -0.047383 0.022278 0.026814
v 0.046361 -0.000182 0.033222
v 0.042765 -0.000182 0.035969
v 0.046361 0.022278 0.033222
v 0.042765 0.022278 0.035969
v -0.045633 0.022278 0.033222
v -0.042036 0.022278 0.035969
v -0.045633 -0.000182 0.033222
v -0.042036 -0.000182 0.035969
v 0.042765 0.022278 0.026814
v 0.042765 -0.000182 0.026814
v -0.042036 -0.000182 0.026814
v -0.042036 0.022278 0.026814
v -0.026856 0.026896 0.026814
v 0.027585 0.026896 0.026814
v 0.026159 0.026896 0.035969
v -0.025431 0.026896 0.035969
v 0.023665 0.026896 0.040302
v -0.022937 0.026896 0.040302
v 0.019402 0.026896 0.042514
v -0.018673 0.026896 0.042514
v 0.020855 0.024770 0.044340
v 0.025444 0.024770 0.041509
v 0.028128 0.024770 0.035969
v 0.029662 0.024770 0.026814
v -0.028933 0.024770 0.026814
v -0.027399 0.024770 0.035969
v -0.024715 0.024770 0.041509
v -0.020126 0.024770 0.044340
v 0.006939 0.008298 0.045103
v 0.004160 0.005519 0.045103
v 0.000364 0.004502 0.045103
v -0.003432 0.005519 0.045103
v -0.006211 0.008298 0.045103
v -0.007228 0.012094 0.045103
v -0.006211 0.015890 0.045103
v -0.003432 0.018669 0.045103
v 0.000364 0.019686 0.045103
v 0.004160 0.018669 0.045103
v 0.006939 0.015890 0.045103
v 0.007957 0.012094 0.045103
v 0.006939 0.008298 0.049805
v 0.004160 0.005519 0.049805
v 0.000364 0.004502 0.049805
v -0.003432 0.005519 0.049805
v -0.006211 0.008298 0.049805
v -0.007228 0.012094 0.049805
v -0.006211 0.015890 0.049805
v -0.003432 0.018669 0.049805
v 0.000364 0.019686 0.049805
v 0.004160 0.018669 0.049805
v 0.006939 0.015890 0.049805
v 0.007957 0.012094 0.049805
v 0.000364 0.012094 0.049805
v -0.018775 0.008298 0.045103
v -0.018775 0.008298 0.049805
v -0.018775 0.012094 0.045103
v -0.018775 0.012094 0.049805
v -0.018775 0.015890 0.045103
v -0.018775 0.015890 0.049805
v 0.000364 0.012094 0.045103
v -0.028532 0.010102 0.045103
v -0.028532 0.012094 0.045103
v -0.028532 0.012094 0.050531
v -0.028532 0.010102 0.050531
v -0.028532 0.014086 0.045103
v -0.028532 0.014086 0.050531
v -0.034482 0.010693 0.043971
v -0.034482 0.012094 0.043971
v -0.036532 0.012094 0.050531
v -0.036532 0.010693 0.050531
v -0.034482 0.013495 0.043971
v -0.036532 0.013495 0.050531
v -0.040075 0.010927 0.036444
v -0.040075 0.012094 0.036444
v -0.052114 0.012094 0.036394
v -0.052114 0.010927 0.036395
v -0.040075 0.013261 0.036444
v -0.052114 0.013261 0.036395
v -0.037182 0.010927 0.042468
v -0.039363 0.010927 0.039178
v -0.037183 0.012094 0.042468
v -0.039363 0.012094 0.039179
v -0.045337 0.012094 0.048270
v -0.050485 0.012094 0.042826
v -0.045318 0.010927 0.048272
v -0.050486 0.010927 0.042808
v -0.037183 0.013261 0.042468
v -0.039363 0.013261 0.039179
v -0.045318 0.013261 0.048272
v -0.050486 0.013261 0.042808
vn 0.4800 -0.5386 0.6925
vn -0.4799 -0.5386 0.6925
vn -0.6388 -0.7340 -0.2307
vn 0.6388 -0.7340 -0.2306
vn 0.4661 -0.2246 -0.8557
vn -0.4661 -0.2246 -0.8557
vn -0.4808 -0.0000 -0.8769
vn 0.4807 -0.0000 -0.8769
vn -0.0000 1.0000 -0.0000
vn -0.9647 -0.0000 -0.2634
vn -0.8014 -0.0000 -0.5981
vn 0.9647 -0.0000 -0.2634
vn 0.8014 -0.0000 -0.5981
vn 0.7635 -0.0000 -0.6458
vn 0.7457 -0.2133 -0.6312
vn -0.7457 -0.2132 -0.6312
vn -0.7635 -0.0000 -0.6458
vn 0.4771 -0.7372 -0.4785
vn -0.4771 -0.7372 -0.4784
vn -0.1473 -0.8789 -0.4537
vn 0.1473 -0.8789 -0.4537
vn 0.9005 -0.0000 -0.4348
vn 0.9201 -0.2672 -0.2863
vn -0.9202 -0.2670 -0.2863
vn -0.9006 -0.0000 -0.4347
vn -0.0000 -0.0000 1.0000
vn -0.0000 -0.0000 -1.0000
vn -0.4396 -0.0000 -0.8982
vn -0.0000 -1.0000 -0.0000
vn 0.4397 -0.0001 -0.8981
vn 0.4397 -0.0000 -0.8981
vn -0.9499 -0.2679 -0.1610
vn -0.8360 -0.4644 -0.2923
vn -0.8712 -0.4689 -0.1451
vn 0.9497 -0.2685 -0.1611
vn 0.8712 -0.4690 -0.1451
vn 0.8360 -0.4644 -0.2923
vn -0.3820 -0.5065 -0.7730
vn -0.6462 -0.4805 -0.5929
vn 0.3820 -0.5064 -0.7730
vn 0.6462 -0.4805 -0.5929
vn -0.8660 0.5001 -0.0000
vn -0.5000 0.8660 -0.0000
vn 0.5000 0.8660 -0.0000
vn -0.0041 0.0004 1.0000
vn -0.0041 -0.0000 1.0000
vn -0.0041 -0.0004 1.0000
vn 0.5000 -0.8660 -0.0000
vn -0.5000 -0.8660 -0.0000
vn -0.8660 -0.5001 -0.0000
vn -1.0000 -0.0000 -0.0000
vn 0.7071 -0.7071 -0.0000
vn 0.7071 0.7071 -0.0000
vn -0.1401 -0.0000 0.9901
vn -0.1307 -0.0000 0.9914
vn -0.0742 -0.0000 -0.9972
vn -0.0278 -0.0000 -0.9996
vn -0.0244 -0.0000 -0.9997
vn 0.1818 0.9833 -0.0000
vn 0.1257 0.9920 0.0081
vn 0.1272 0.9918 0.0079
vn 0.1818 -0.9833 -0.0000
vn 0.1273 -0.9918 0.0079
vn 0.1257 -0.9920 0.0082
vn -0.1869 -0.0000 0.9824
vn 0.1300 0.0004 -0.9915
vn 0.1342 -0.0000 -0.9910
vn 0.0581 0.9981 0.0203
vn 0.0555 0.9982 0.0209
vn 0.0555 -0.9982 0.0209
vn 0.0579 -0.9981 0.0203
vn 0.1299 -0.0004 -0.9915
vn 0.0201 0.9997 0.0165
vn 0.0127 0.9999 0.0105
vn -0.9256 0.0001 0.3786
vn -0.6583 -0.0001 0.7528
vn -0.6636 -0.0000 0.7481
vn -0.9252 -0.0000 0.3796
vn -0.6584 -0.0000 0.7527
vn -0.9256 -0.0000 0.3785
vn 0.5389 -0.0000 -0.8424
vn 0.8817 -0.0000 -0.4719
vn 0.8834 -0.0057 -0.4685
vn 0.5307 -0.0060 -0.8475
vn 0.5307 0.0060 -0.8475
vn 0.8834 0.0056 -0.4685
vn 0.0201 -0.9997 0.0165
vn 0.0127 -0.9999 0.0105
vn -0.4863 -0.0002 0.8738
vn -0.4863 -0.0001 0.8738
vn -0.4862 -0.0000 0.8738
vn -0.9677 -0.0001 0.2520
vn 0.9693 0.0014 -0.2458
vn 0.9693 -0.0000 -0.2458
vn -0.9677 -0.0000 0.2519
vn 0.9693 -0.0014 -0.2458
vt -28.788879 3.101884
vt -28.788879 3.059353
vt -28.781729 3.060467
vt -28.781729 3.100770
vt -28.942799 3.093035
vt -28.942799 3.059615
vt -28.924923 3.059615
vt -28.924923 3.093035
vt -28.478441 3.144014
vt -28.478441 3.099564
vt -28.471291 3.098337
vt -28.471291 3.145242
vt -29.239050 3.058239
vt -29.239050 3.038857
vt -29.233521 3.038857
vt -29.233521 3.058239
vt -29.297211 3.058239
vt -29.297211 3.038857
vt -29.291679 3.038857
vt -29.291679 3.058239
vt -29.086136 3.065349
vt -29.086136 3.045161
vt -29.083035 3.045161
vt -29.083035 3.065349
vt -28.485590 3.138192
vt -28.485590 3.105386
vt -28.482893 3.101714
vt -28.482893 3.141865
vt -29.162640 3.061199
vt -29.162640 3.041008
vt -29.159540 3.041008
vt -29.159540 3.061199
vt -28.778341 3.098822
vt -28.778341 3.062415
vt -28.776613 3.065746
vt -28.776613 3.095491
vt -29.091257 3.065349
vt -29.091257 3.045161
vt -29.167765 3.061199
vt -29.167765 3.041008
vt -28.556778 3.088665
vt -28.574324 3.088665
vt -28.574324 3.084489
vt -28.556778 3.084489
vt -28.471291 3.088665
vt -28.478441 3.088665
vt -28.476297 3.085855
vt -28.471291 3.084488
vt -29.361679 3.057322
vt -29.361679 3.039775
vt -29.350780 3.039775
vt -29.350780 3.057322
vt -29.483404 3.042016
vt -29.490555 3.042016
vt -29.490555 3.037838
vt -29.485550 3.039206
vt -28.574324 3.154915
vt -28.556778 3.154915
vt -28.556778 3.159092
vt -28.574324 3.159092
vt -29.548716 3.048739
vt -29.541563 3.048739
vt -29.543709 3.051549
vt -29.548716 3.052916
vt -29.418560 3.039775
vt -29.418560 3.057322
vt -29.429461 3.057322
vt -29.429461 3.039775
vt -28.478441 3.154914
vt -28.471291 3.154914
vt -28.471291 3.159091
vt -28.476297 3.157723
vt -29.231150 3.038857
vt -29.231150 3.058239
vt -29.289310 3.038857
vt -29.289310 3.058239
vt -29.483404 3.052917
vt -29.490555 3.051688
vt -28.556778 3.098337
vt -28.574324 3.098337
vt -28.574324 3.145243
vt -28.556778 3.145243
vt -29.548716 3.039067
vt -29.541563 3.037839
vt -28.554831 3.098902
vt -28.554831 3.144678
vt -29.175995 3.061199
vt -29.167765 3.063439
vt -29.175995 3.063439
vt -29.099487 3.045161
vt -29.099487 3.042920
vt -29.091257 3.042920
vt -29.160240 3.063439
vt -29.162785 3.063439
vt -28.944782 3.092633
vt -28.944782 3.060017
vt -29.086277 3.042920
vt -29.083733 3.042920
vt -28.944782 3.056366
vt -28.946474 3.061174
vt -28.946474 3.057781
vt -29.163868 3.065351
vt -29.167765 3.065351
vt -29.175995 3.065351
vt -28.553169 3.100525
vt -28.553169 3.143055
vt -29.099487 3.041009
vt -29.091257 3.041009
vt -29.087362 3.041009
vt -28.944782 3.096285
vt -28.946474 3.094869
vt -28.946474 3.091476
vt -29.600842 3.035970
vt -29.600842 3.033596
vt -29.596825 3.033596
vt -29.596825 3.035970
vt -28.646172 3.060238
vt -28.646172 3.063236
vt -28.649887 3.063236
vt -28.649887 3.060238
vt -28.646172 3.066233
vt -28.649887 3.066233
vt -29.646599 3.033396
vt -29.645687 3.033396
vt -29.645687 3.042799
vt -29.646599 3.042799
vt -29.644775 3.033396
vt -29.644775 3.042799
vt -28.711735 3.066237
vt -28.711735 3.063239
vt -28.708021 3.063239
vt -28.708021 3.066237
vt -28.711735 3.060242
vt -28.708021 3.060242
vt -29.600842 3.044828
vt -29.600842 3.042454
vt -29.596825 3.042454
vt -29.596825 3.044828
vt -29.600842 3.039212
vt -29.596825 3.039212
vt -28.853518 3.064564
vt -28.848373 3.061594
vt -28.847578 3.064564
vt -28.848373 3.067533
vt -28.850550 3.069707
vt -28.853518 3.070503
vt -28.856485 3.069707
vt -28.858662 3.067533
vt -29.020851 3.064713
vt -29.017881 3.065510
vt -29.017881 3.074549
vt -29.020851 3.074549
vt -28.850550 3.079535
vt -28.853518 3.079535
vt -29.014908 3.064713
vt -29.014908 3.074549
vt -28.856485 3.079535
vt -29.017881 3.059566
vt -29.023027 3.056594
vt -29.020851 3.054420
vt -29.017881 3.053622
vt -29.023027 3.062538
vt -29.023823 3.059566
vt -29.012732 3.062538
vt -29.012732 3.056594
vt -29.011936 3.059566
vt -29.014908 3.054420
vt -28.853518 3.058625
vt -28.850550 3.059421
vt -28.859455 3.064564
vt -28.858662 3.061594
vt -28.856485 3.059421
vt -28.711735 3.078351
vt -28.711735 3.068431
vt -28.708021 3.068431
vt -28.708021 3.078351
vt -28.646172 3.068428
vt -28.649887 3.068428
vt -28.646172 3.078349
vt -28.649887 3.078349
vt -29.017881 3.082187
vt -29.019440 3.082187
vt -28.851957 3.087168
vt -28.853518 3.087168
vt -28.646172 3.086054
vt -28.650459 3.086054
vt -29.016319 3.082187
vt -28.707447 3.086055
vt -28.711735 3.086055
vt -28.855078 3.087168
vt -29.017881 3.086845
vt -29.018976 3.086845
vt -28.852421 3.093425
vt -28.853518 3.093425
vt -28.645281 3.090752
vt -28.650459 3.092371
vt -29.016783 3.086845
vt -28.707447 3.092371
vt -28.712627 3.090753
vt -28.854614 3.093425
vt -28.644091 3.092885
vt -28.641495 3.094607
vt -28.644360 3.103390
vt -28.648676 3.099309
vt -29.733681 3.031836
vt -29.733681 3.034561
vt -29.734648 3.034561
vt -29.734648 3.031836
vt -29.735613 3.034561
vt -29.735613 3.031836
vt -29.690166 3.042994
vt -29.690166 3.038355
vt -29.689173 3.038340
vt -29.689173 3.042997
vt -29.691162 3.042997
vt -29.691162 3.038340
vt -28.716410 3.094607
vt -28.713814 3.092885
vt -28.709230 3.099308
vt -28.713545 3.103389
vt -29.017881 3.088959
vt -29.018795 3.088959
vt -28.852606 3.100298
vt -28.853518 3.100313
vt -29.016968 3.088959
vt -28.854429 3.100298
vt -29.734648 3.029571
vt -29.733681 3.029571
vt -29.691162 3.032875
vt -29.690166 3.032875
vt -28.639336 3.095169
vt -28.639297 3.104675
vt -29.735613 3.029571
vt -28.718609 3.104673
vt -28.718573 3.095169
vt -29.689173 3.032875
s 1
usemtl M_WindowHung_48X24_2
f 157/1/1 158/2/2 159/3/3 160/4/4
f 127/5/5 128/6/6 130/7/7 129/8/8
f 138/9/9 139/10/9 132/11/9 131/12/9
f 142/13/10 141/14/10 145/15/11 147/16/11
f 143/17/12 144/18/12 149/19/13 151/20/13
f 134/21/14 133/22/15 127/23/5 129/24/8
f 129/25/9 130/26/9 135/27/9 134/28/9
f 136/29/16 135/30/17 130/31/7 128/32/6
f 162/33/18 161/34/19 163/35/20 164/36/21
f 138/37/22 137/38/23 133/22/15 134/21/14
f 134/28/9 135/27/9 139/10/9 138/9/9
f 140/39/24 139/40/25 135/30/17 136/29/16
f 160/4/4 159/3/3 161/34/19 162/33/18
f 153/41/26 154/42/26 141/43/26 142/44/26
f 154/45/9 146/46/9 145/47/9 141/48/9
f 139/49/27 140/50/27 148/51/28 146/52/28
f 148/53/29 153/54/29 142/55/29 147/56/29
f 155/57/26 156/58/26 144/59/26 143/60/26
f 156/61/29 150/62/29 149/63/29 144/64/29
f 137/65/27 138/66/27 152/67/30 150/68/31
f 152/69/9 155/70/9 143/71/9 151/72/9
f 145/15/11 146/73/28 148/74/28 147/16/11
f 149/19/13 150/75/31 152/76/30 151/20/13
f 140/77/29 126/78/29 153/54/29 148/53/29
f 126/79/26 132/80/26 154/42/26 153/41/26
f 132/11/9 139/10/9 146/46/9 154/45/9
f 138/9/9 131/12/9 155/70/9 152/69/9
f 131/81/26 125/82/26 156/58/26 155/57/26
f 125/83/29 137/84/29 150/62/29 156/61/29
f 126/79/26 125/82/26 131/81/26 132/80/26
f 125/82/26 126/79/26 168/85/26 169/86/26
f 126/87/32 140/39/24 167/88/33 168/89/34
f 137/38/23 125/90/35 169/91/36 170/92/37
f 136/29/16 128/32/6 165/93/38 166/94/39
f 128/6/6 127/5/5 172/95/40 165/96/38
f 127/23/5 133/22/15 171/97/41 172/98/40
f 140/39/24 136/29/16 166/94/39 167/88/33
f 133/22/15 137/38/23 170/92/37 171/97/41
f 166/99/39 165/96/38 163/100/20 161/101/19
f 167/88/33 166/94/39 161/102/19 159/103/3
f 168/89/34 167/88/33 159/103/3 158/104/2
f 169/86/26 168/85/26 158/105/2 157/106/1
f 170/92/37 169/91/36 157/107/1 160/108/4
f 171/97/41 170/92/37 160/108/4 162/109/18
f 172/95/40 171/110/41 162/111/18 164/112/21
f 165/96/38 172/95/40 164/112/21 163/100/20
f 173/113/42 174/114/43 186/115/43 185/116/42
f 174/117/43 175/118/9 187/119/9 186/120/43
f 175/118/9 176/121/44 188/122/44 187/119/9
f 217/123/45 218/124/46 219/125/46 220/126/45
f 218/124/46 221/127/47 222/128/47 219/125/46
f 180/129/48 181/130/29 193/131/29 192/132/48
f 181/130/29 182/133/49 194/134/49 193/131/29
f 182/135/49 183/136/50 195/137/50 194/138/49
f 183/136/50 184/139/51 196/140/51 195/137/50
f 184/139/51 173/113/42 185/116/42 196/140/51
f 197/141/27 186/142/27 187/143/27 188/144/27
f 197/141/27 188/144/27 189/145/27 190/146/27
f 197/141/27 190/146/27 191/147/27 192/148/27
f 177/149/26 178/150/26 200/151/26 198/152/26
f 190/146/27 189/145/27 199/153/27 201/154/27
f 178/150/26 179/155/26 202/156/26 200/151/26
f 191/147/27 190/146/27 201/154/27 203/157/27
f 204/158/26 174/159/26 173/160/26 184/161/26
f 204/158/26 176/162/26 175/163/26 174/159/26
f 204/158/26 178/150/26 177/149/26 176/162/26
f 204/158/26 180/164/26 179/155/26 178/150/26
f 204/158/26 182/165/26 181/166/26 180/164/26
f 204/158/26 184/161/26 183/167/26 182/165/26
f 197/141/27 196/168/27 185/169/27 186/142/27
f 197/141/27 192/148/27 193/170/27 194/171/27
f 197/141/27 194/171/27 195/172/27 196/168/27
f 202/173/29 179/174/29 191/175/29 203/176/29
f 179/174/52 180/129/48 192/132/48 191/175/52
f 176/121/44 177/177/53 189/178/53 188/122/44
f 177/177/9 198/179/9 199/180/9 189/178/9
f 198/152/26 200/151/26 206/181/54 205/182/55
f 201/154/56 199/153/56 208/183/57 207/184/58
f 199/180/59 198/179/59 205/185/60 208/186/61
f 200/151/26 202/156/26 209/187/55 206/181/54
f 202/173/62 203/176/62 210/188/63 209/189/64
f 203/157/56 201/154/56 207/184/58 210/190/57
f 205/182/55 206/181/54 212/191/65 211/192/65
f 207/184/58 208/183/57 214/193/66 213/194/67
f 208/186/61 205/185/60 211/195/68 214/196/69
f 206/181/54 209/187/55 215/197/65 212/191/65
f 209/189/64 210/188/63 216/198/70 215/199/71
f 210/190/57 207/184/58 213/194/67 216/200/72
f 223/201/73 224/202/9 230/203/9 229/204/74
f 224/205/75 223/206/76 225/207/77 226/208/78
f 226/208/78 225/207/77 231/209/79 232/210/80
f 227/211/81 228/212/82 234/213/83 233/214/84
f 228/212/82 227/211/81 229/215/85 230/216/86
f 232/217/29 231/218/87 233/219/88 234/220/29
f 211/192/89 212/191/90 225/221/77 223/222/76
f 213/194/67 214/193/66 229/223/85 227/224/81
f 214/196/69 211/195/68 223/201/73 229/204/74
f 212/191/90 215/197/91 231/225/79 225/221/77
f 215/199/71 216/198/70 233/219/88 231/218/87
f 216/200/72 213/194/67 227/224/81 233/226/84
f 224/205/75 226/208/78 218/227/92 217/228/92
f 228/212/82 230/216/86 220/229/93 219/230/94
f 230/203/9 224/202/9 217/231/9 220/232/9
f 226/208/78 232/210/80 221/233/95 218/227/92
f 232/217/29 234/220/29 222/234/29 221/235/29
f 234/213/83 228/212/82 219/230/94 222/236/96
