# Blender 4.1.1
# www.blender.org
mtllib AlarmClockButton_13_AlarmClockButton_13_1_GeomSubset_0.mtl
o AlarmClockButton_13_AlarmClockButton_13_1_GeomSubset_0
v -0.008897 -0.000501 -0.318447
v -0.009897 -0.000501 -0.318447
v -0.008897 0.000501 -0.318447
v -0.009897 0.000501 -0.318447
v -0.008897 -0.000501 -0.318447
v -0.009897 -0.000501 -0.318447
v -0.008897 0.000501 -0.318447
v -0.009897 0.000501 -0.318447
v -0.008897 -0.000501 -0.318447
v -0.009897 -0.000501 -0.318447
v -0.008897 0.000501 -0.318447
v -0.009897 0.000501 -0.318447
v -0.008897 -0.000501 -0.318447
v -0.009897 -0.000501 -0.318447
v -0.008897 0.000501 -0.318447
v -0.009897 0.000501 -0.318447
v -0.008897 -0.000501 -0.318447
v -0.009897 -0.000501 -0.318447
v -0.008897 0.000501 -0.318447
v -0.009897 0.000501 -0.318447
v 0.059051 -0.018579 0.066060
v 0.057550 -0.021640 0.066060
v 0.057550 -0.018579 0.067092
v -0.002912 -0.018579 0.067092
v -0.002912 -0.021640 0.066060
v -0.004413 -0.018579 0.066060
v 0.059051 0.018578 0.066060
v 0.057550 0.018578 0.067092
v 0.057550 0.021639 0.066060
v -0.002912 0.021639 0.066060
v -0.002912 0.018578 0.067092
v -0.004413 0.018578 0.066060
v 0.057550 -0.021640 0.056771
v 0.059051 -0.018579 0.056771
v -0.004413 -0.018579 0.056771
v -0.002912 -0.021640 0.056771
v 0.059051 0.018578 0.056771
v 0.057550 0.021639 0.056771
v -0.002912 0.021639 0.056771
v -0.004413 0.018578 0.056771
vn -0.0000 -0.0000 -1.0000
vn -0.7454 0.2886 -0.6009
vn -0.4716 0.2374 -0.8492
vn -0.4716 -0.2373 -0.8493
vn -0.7454 -0.2887 -0.6008
vn -0.6048 0.5659 -0.5604
vn -0.9268 0.3755 0.0001
vn -0.7650 0.6441 -0.0000
vn 0.6047 0.5658 -0.5605
vn 0.4716 0.2373 -0.8493
vn 0.7454 0.2887 -0.6008
vn 0.7454 -0.2886 -0.6009
vn 0.4716 -0.2373 -0.8493
vn 0.7650 0.6441 -0.0000
vn 0.9268 0.3755 -0.0000
vn -0.6047 -0.5658 -0.5605
vn -0.7650 -0.6441 0.0002
vn -0.9268 -0.3755 -0.0000
vn 0.6048 -0.5658 -0.5605
vn 0.9268 -0.3755 0.0001
vn 0.7650 -0.6441 -0.0000
vt -19.608624 -5.567994
vt -19.597162 -5.567994
vt -19.597162 -5.556525
vt -19.608624 -5.556525
vt -19.639521 0.212214
vt -19.637417 0.212214
vt -19.637417 0.287857
vt -19.639521 0.287857
vt -19.639521 0.205980
vt -19.658428 0.212214
vt -19.658428 0.205980
vt -19.999071 0.407786
vt -20.005075 0.407786
vt -20.005075 0.289228
vt -19.999071 0.289228
vt -19.521898 0.787830
vt -19.524000 0.787830
vt -19.524000 0.712110
vt -19.521898 0.712110
vt -19.524000 0.794071
vt -19.542929 0.794071
vt -19.542929 0.787830
vt -19.639521 0.294088
vt -19.658428 0.294088
vt -19.658428 0.287857
vt -19.920210 0.407786
vt -19.926214 0.407786
vt -19.926214 0.289228
vt -19.920210 0.289228
vt -19.524000 0.705871
vt -19.542929 0.712110
vt -19.542929 0.705871
vt -20.374901 0.407569
vt -20.393044 0.407569
vt -20.393044 0.289459
vt -20.374901 0.289459
vt -20.279688 0.407569
vt -20.279688 0.289459
vt -20.261541 0.289459
vt -20.261541 0.407569
s 1
usemtl M_AlarmClockButton_13_0
f 1/1/1 2/2/1 4/3/1 3/4/1
f 21/5/2 23/6/3 28/7/4 27/8/5
f 22/9/6 21/5/2 34/10/7 33/11/8
f 23/12/3 22/13/6 25/14/9 24/15/10
f 24/16/10 26/17/11 32/18/12 31/19/13
f 26/17/11 25/20/9 36/21/14 35/22/15
f 27/8/5 29/23/16 38/24/17 37/25/18
f 29/26/16 28/27/4 31/28/13 30/29/19
f 30/30/19 32/18/12 40/31/20 39/32/21
f 22/33/6 33/34/8 36/35/14 25/36/9
f 23/12/3 24/15/10 31/28/13 28/27/4
f 29/37/16 30/38/19 39/39/21 38/40/17
f 26/17/11 35/22/15 40/31/20 32/18/12
f 27/8/5 37/25/18 34/10/7 21/5/2
f 21/5/2 22/9/6 23/6/3
f 24/16/10 25/20/9 26/17/11
f 27/8/5 28/7/4 29/23/16
f 30/30/19 31/19/13 32/18/12
