# Blender 4.1.1
# www.blender.org
mtllib MeshRemotebuttons1_1_GeomSubset_1.mtl
o MeshRemotebuttons1_1_GeomSubset_1
v 0.021210 -0.068728 0.005769
v 0.007887 -0.068718 0.005769
v 0.021219 -0.057589 0.005769
v 0.007896 -0.057579 0.005769
v 0.006482 -0.068666 0.005769
v -0.006841 -0.068656 0.005769
v 0.006491 -0.057527 0.005769
v -0.006832 -0.057517 0.005769
v -0.008246 -0.068604 0.005769
v -0.021569 -0.068594 0.005769
v -0.008237 -0.057465 0.005769
v -0.021560 -0.057455 0.005769
v 0.020985 -0.055532 0.005769
v 0.007662 -0.055521 0.005769
v 0.020994 -0.044393 0.005769
v 0.007671 -0.044382 0.005769
v 0.006257 -0.055470 0.005769
v -0.007066 -0.055459 0.005769
v 0.006266 -0.044331 0.005769
v -0.007057 -0.044320 0.005769
v -0.008470 -0.055408 0.005769
v -0.021793 -0.055397 0.005769
v -0.008461 -0.044269 0.005769
v -0.021784 -0.044258 0.005769
v 0.020760 -0.042336 0.005769
v 0.007437 -0.042325 0.005769
v 0.020770 -0.031197 0.005769
v 0.007446 -0.031186 0.005769
v 0.006033 -0.042274 0.005769
v -0.007290 -0.042263 0.005769
v 0.006042 -0.031135 0.005769
v -0.007281 -0.031124 0.005769
v -0.008695 -0.042212 0.005769
v -0.022018 -0.042201 0.005769
v -0.008686 -0.031073 0.005769
v -0.022009 -0.031062 0.005769
v 0.020842 -0.029196 0.005769
v 0.007519 -0.029186 0.005769
v 0.020851 -0.018057 0.005769
v 0.007528 -0.018047 0.005769
v 0.006114 -0.029134 0.005769
v -0.007209 -0.029124 0.005769
v 0.006123 -0.017995 0.005769
v -0.007200 -0.017985 0.005769
v -0.008613 -0.029072 0.005769
v -0.021936 -0.029062 0.005769
v -0.008604 -0.017933 0.005769
v -0.021927 -0.017923 0.005769
v -0.010720 -0.083792 0.006048
v -0.020018 -0.083784 0.006048
v -0.010714 -0.076018 0.006048
v -0.020012 -0.076010 0.006048
v 0.020727 -0.086824 0.006048
v 0.011429 -0.086817 0.006048
v 0.020733 -0.079050 0.006048
v 0.011435 -0.079043 0.006048
v 0.005920 0.010773 0.005445
v -0.005661 0.010782 0.005445
v 0.005928 0.020456 0.005445
v -0.005654 0.020465 0.005445
v 0.020423 0.023907 0.005445
v 0.008842 0.023917 0.005445
v 0.020431 0.033590 0.005445
v 0.008850 0.033600 0.005445
v -0.009032 0.024031 0.005445
v -0.020614 0.024041 0.005445
v -0.009024 0.033714 0.005445
v -0.020606 0.033724 0.005445
v 0.005777 0.037108 0.005445
v -0.005804 0.037118 0.005445
v 0.005785 0.046791 0.005445
v -0.005796 0.046801 0.005445
v 0.007896 -0.057579 0.006499
v 0.009013 -0.058698 0.007618
v 0.009006 -0.067600 0.007618
v 0.007887 -0.068718 0.006499
v 0.020092 -0.067609 0.007618
v 0.021210 -0.068728 0.006499
v 0.020099 -0.058707 0.007618
v 0.021219 -0.057589 0.006499
v -0.006832 -0.057517 0.006499
v -0.005715 -0.058636 0.007618
v -0.005722 -0.067538 0.007618
v -0.006841 -0.068656 0.006499
v 0.005364 -0.067547 0.007618
v 0.006482 -0.068666 0.006499
v 0.005372 -0.058645 0.007618
v 0.006491 -0.057527 0.006499
v -0.021560 -0.057455 0.006499
v -0.020442 -0.058574 0.007618
v -0.020450 -0.067476 0.007618
v -0.021569 -0.068594 0.006499
v -0.009363 -0.067485 0.007618
v -0.008246 -0.068604 0.006499
v -0.009356 -0.058583 0.007618
v -0.008237 -0.057465 0.006499
v 0.007671 -0.044382 0.006499
v 0.008788 -0.045501 0.007618
v 0.008781 -0.054404 0.007618
v 0.007662 -0.055521 0.006499
v 0.019868 -0.054413 0.007618
v 0.020985 -0.055532 0.006499
v 0.019875 -0.045510 0.007618
v 0.020994 -0.044393 0.006499
v -0.007057 -0.044320 0.006499
v -0.005939 -0.045439 0.007618
v -0.005947 -0.054342 0.007618
v -0.007066 -0.055459 0.006499
v 0.005140 -0.054351 0.007618
v 0.006257 -0.055470 0.006499
v 0.005147 -0.045448 0.007618
v 0.006266 -0.044331 0.006499
v -0.021784 -0.044258 0.006499
v -0.020667 -0.045377 0.007618
v -0.020674 -0.054280 0.007618
v -0.021793 -0.055397 0.006499
v -0.009588 -0.054289 0.007618
v -0.008470 -0.055408 0.006499
v -0.009581 -0.045386 0.007618
v -0.008461 -0.044269 0.006499
v 0.007446 -0.031186 0.006499
v 0.008564 -0.032305 0.007618
v 0.008557 -0.041207 0.007618
v 0.007437 -0.042325 0.006499
v 0.019643 -0.041216 0.007618
v 0.020760 -0.042336 0.006499
v 0.019650 -0.032314 0.007618
v 0.020770 -0.031197 0.006499
v -0.007281 -0.031124 0.006499
v -0.006164 -0.032243 0.007618
v -0.006171 -0.041145 0.007618
v -0.007290 -0.042263 0.006499
v 0.004915 -0.041154 0.007618
v 0.006033 -0.042274 0.006499
v 0.004923 -0.032252 0.007618
v 0.006042 -0.031135 0.006499
v -0.022009 -0.031062 0.006499
v -0.020892 -0.032181 0.007618
v -0.020899 -0.041083 0.007618
v -0.022018 -0.042201 0.006499
v -0.009812 -0.041092 0.007618
v -0.008695 -0.042212 0.006499
v -0.009805 -0.032190 0.007618
v -0.008686 -0.031073 0.006499
v 0.007528 -0.018047 0.006499
v 0.008646 -0.019166 0.007618
v 0.008638 -0.028068 0.007618
v 0.007519 -0.029186 0.006499
v 0.019725 -0.028077 0.007618
v 0.020842 -0.029196 0.006499
v 0.019732 -0.019175 0.007618
v 0.020851 -0.018057 0.006499
v -0.007200 -0.017985 0.006499
v -0.006082 -0.019104 0.007618
v -0.006089 -0.028006 0.007618
v -0.007209 -0.029124 0.006499
v 0.004997 -0.028015 0.007618
v 0.006114 -0.029134 0.006499
v 0.005004 -0.019113 0.007618
v 0.006123 -0.017995 0.006499
v -0.021927 -0.017923 0.006499
v -0.020810 -0.019042 0.007618
v -0.020817 -0.027944 0.007618
v -0.021936 -0.029062 0.006499
v -0.009731 -0.027953 0.007618
v -0.008613 -0.029072 0.006499
v -0.009723 -0.019051 0.007618
v -0.008604 -0.017933 0.006499
v -0.020012 -0.076010 0.006220
v -0.018895 -0.077129 0.007339
v -0.018899 -0.082667 0.007339
v -0.020018 -0.083784 0.006220
v -0.011837 -0.082673 0.007339
v -0.010720 -0.083792 0.006220
v -0.011833 -0.077135 0.007339
v -0.010714 -0.076018 0.006220
v 0.011435 -0.079043 0.006220
v 0.012552 -0.080162 0.007339
v 0.012548 -0.085699 0.007339
v 0.011429 -0.086817 0.006220
v 0.019609 -0.085705 0.007339
v 0.020727 -0.086824 0.006220
v 0.019614 -0.080168 0.007339
v 0.020733 -0.079050 0.006220
v -0.005654 0.020465 0.006824
v -0.004536 0.019346 0.007942
v -0.004542 0.011899 0.007942
v -0.005661 0.010782 0.006824
v 0.004803 0.011892 0.007942
v 0.005920 0.010773 0.006824
v 0.004809 0.019338 0.007942
v 0.005928 0.020456 0.006824
v 0.008850 0.033600 0.006824
v 0.009967 0.032480 0.007942
v 0.009961 0.025034 0.007942
v 0.008842 0.023917 0.006824
v 0.019306 0.025026 0.007942
v 0.020423 0.023907 0.006824
v 0.019312 0.032473 0.007942
v 0.020431 0.033590 0.006824
v -0.020606 0.033724 0.006824
v -0.019488 0.032604 0.007942
v -0.019495 0.025158 0.007942
v -0.020614 0.024041 0.006824
v -0.010150 0.025150 0.007942
v -0.009032 0.024031 0.006824
v -0.010143 0.032597 0.007942
v -0.009024 0.033714 0.006824
v -0.005796 0.046801 0.006824
v -0.004679 0.045682 0.007942
v -0.004685 0.038235 0.007942
v -0.005804 0.037118 0.006824
v 0.004660 0.038227 0.007942
v 0.005777 0.037108 0.006824
v 0.004666 0.045674 0.007942
v 0.005785 0.046791 0.006824
v 0.009952 -0.059639 0.007758
v 0.009947 -0.066661 0.007758
v 0.019153 -0.066669 0.007758
v 0.019159 -0.059646 0.007758
v -0.004775 -0.059577 0.007758
v -0.004781 -0.066599 0.007758
v 0.004425 -0.066607 0.007758
v 0.004431 -0.059584 0.007758
v -0.019503 -0.059515 0.007758
v -0.019509 -0.066537 0.007758
v -0.010302 -0.066545 0.007758
v -0.010297 -0.059522 0.007758
v 0.009728 -0.046442 0.007758
v 0.009722 -0.053465 0.007758
v 0.018928 -0.053472 0.007758
v 0.018934 -0.046450 0.007758
v -0.005000 -0.046380 0.007758
v -0.005006 -0.053403 0.007758
v 0.004201 -0.053410 0.007758
v 0.004206 -0.046388 0.007758
v -0.019728 -0.046318 0.007758
v -0.019733 -0.053341 0.007758
v -0.010527 -0.053348 0.007758
v -0.010521 -0.046326 0.007758
v 0.009503 -0.033246 0.007758
v 0.009497 -0.040268 0.007758
v 0.018704 -0.040276 0.007758
v 0.018710 -0.033253 0.007758
v -0.005225 -0.033184 0.007758
v -0.005230 -0.040206 0.007758
v 0.003976 -0.040214 0.007758
v 0.003982 -0.033191 0.007758
v -0.019952 -0.033122 0.007758
v -0.019958 -0.040144 0.007758
v -0.010752 -0.040152 0.007758
v -0.010746 -0.033129 0.007758
v 0.009585 -0.020107 0.007758
v 0.009579 -0.027129 0.007758
v 0.018786 -0.027136 0.007758
v 0.018791 -0.020114 0.007758
v -0.005143 -0.020045 0.007758
v -0.005149 -0.027067 0.007758
v 0.004058 -0.027074 0.007758
v 0.004064 -0.020052 0.007758
v -0.019871 -0.019983 0.007758
v -0.019876 -0.027005 0.007758
v -0.010670 -0.027012 0.007758
v -0.010664 -0.019990 0.007758
v -0.017955 -0.078070 0.007479
v -0.017958 -0.081728 0.007479
v -0.012777 -0.081732 0.007479
v -0.012774 -0.078074 0.007479
v 0.013491 -0.081103 0.007479
v 0.013488 -0.084760 0.007479
v 0.018670 -0.084764 0.007479
v 0.018673 -0.081107 0.007479
v -0.003597 0.018405 0.008082
v -0.003602 0.012839 0.008082
v 0.003864 0.012833 0.008082
v 0.003868 0.018399 0.008082
v 0.010906 0.031540 0.008082
v 0.010902 0.025973 0.008082
v 0.018367 0.025967 0.008082
v 0.018371 0.031534 0.008082
v -0.018549 0.031664 0.008082
v -0.018554 0.026097 0.008082
v -0.011089 0.026091 0.008082
v -0.011084 0.031658 0.008082
v -0.003740 0.044741 0.008082
v -0.003744 0.039174 0.008082
v 0.003721 0.039168 0.008082
v 0.003725 0.044735 0.008082
vn 1.0000 -0.0008 -0.0000
vn -0.0000 -0.0000 1.0000
vn -0.0008 -1.0000 -0.0000
vn 0.0008 1.0000 -0.0000
vn -1.0000 0.0008 -0.0000
vn -0.0612 0.0613 -0.9962
vn 0.0613 0.0612 -0.9962
vn 0.0613 -0.0613 -0.9962
vn -0.0613 -0.0612 -0.9962
vn 0.8930 -0.0007 -0.4500
vn 0.7074 -0.0006 -0.7068
vn 0.0007 0.8930 -0.4500
vn 0.0006 0.7073 -0.7069
vn -0.8930 0.0007 -0.4500
vn -0.7073 0.0006 -0.7069
vn -0.0007 -0.8930 -0.4500
vn -0.0006 -0.7073 -0.7069
vn -0.0522 0.0123 -0.9986
vn 0.0522 0.0122 -0.9986
vn 0.0123 0.0522 -0.9986
vn 0.0122 -0.0522 -0.9986
vn 0.0522 -0.0123 -0.9986
vn -0.0522 -0.0122 -0.9986
vn -0.0123 -0.0522 -0.9986
vn -0.0122 0.0522 -0.9986
vt 2.134358 2.133211
vt 2.409759 2.133211
vt 2.409759 2.259436
vt 2.134358 2.259436
vt 0.316897 0.592112
vt 0.316711 0.316977
vt 0.591927 0.316711
vt 0.592112 0.591847
vt 0.013770 1.224387
vt 0.289171 1.224387
vt 0.289171 1.350613
vt 0.013770 1.350613
vt 1.528476 0.921446
vt 1.803877 0.921446
vt 1.803877 1.047672
vt 1.528476 1.047672
vt 0.013770 1.981740
vt 0.289171 1.981740
vt 0.289171 2.107966
vt 0.013770 2.107965
vt 0.058134 0.668428
vt 0.244927 0.668608
vt 0.244807 0.846278
vt 0.058014 0.846098
vt 0.265903 0.867409
vt 0.266052 0.647518
vt 0.289171 0.619918
vt 0.288986 0.895053
vt 0.037038 0.647297
vt 0.013956 0.619652
vt 0.036889 0.867188
vt 0.013770 0.894788
s 1
usemtl M_Remotebuttons1_1
f 6/1/1 8/2/1 81/3/1 84/4/1
f 8/5/2 6/6/2 5/7/2 7/8/2
f 8/9/3 7/10/3 88/11/3 81/12/3
f 5/13/4 6/14/4 84/15/4 86/16/4
f 7/17/5 5/18/5 86/19/5 88/20/5
f 223/21/6 222/22/7 221/23/8 224/24/9
f 82/25/10 83/26/10 84/27/11 81/28/11
f 83/26/12 85/29/12 86/30/13 84/27/13
f 85/29/14 87/31/14 88/32/15 86/30/15
f 87/31/16 82/25/16 81/28/17 88/32/17
f 82/25/18 87/31/19 224/24/9 221/23/8
f 87/31/20 85/29/21 223/21/6 224/24/9
f 85/29/22 83/26/23 222/22/7 223/21/6
f 83/26/24 82/25/25 221/23/8 222/22/7
