# Blender 4.1.1
# www.blender.org
mtllib LidMeshLaptopLid_16_0_GeomSubset_0.mtl
o LidMeshLaptopLid_16_0_GeomSubset_0
v 0.000613 0.162811 -0.149908
v -0.000651 0.162811 -0.149908
v 0.000613 0.164075 -0.149908
v -0.000651 0.164075 -0.149908
v 0.000613 0.162811 -0.149908
v -0.000651 0.162811 -0.149908
v 0.000613 0.164075 -0.149908
v -0.000651 0.164075 -0.149908
v 0.000613 0.162811 -0.149908
v -0.000651 0.162811 -0.149908
v 0.000613 0.164075 -0.149908
v -0.000651 0.164075 -0.149908
v 0.000613 0.162811 -0.149908
v -0.000651 0.162811 -0.149908
v 0.000613 0.164075 -0.149908
v -0.000651 0.164075 -0.149908
v 0.000613 0.162811 -0.149908
v -0.000651 0.162811 -0.149908
v 0.000613 0.164075 -0.149908
v -0.000651 0.164075 -0.149908
v 0.000613 0.162811 -0.149908
v -0.000651 0.162811 -0.149908
v 0.000613 0.164075 -0.149908
v -0.000651 0.164075 -0.149908
v -0.210502 0.156375 -0.148517
v -0.203914 0.156375 -0.150282
v 0.203876 0.156375 -0.150282
v 0.210464 0.156375 -0.148517
v 0.215287 0.156375 -0.143691
v 0.217053 0.156375 -0.137104
v 0.217053 0.156375 0.159179
v 0.215287 0.156375 0.165768
v 0.210464 0.156375 0.170593
v 0.203876 0.156375 0.172360
v -0.203914 0.156375 0.172360
v -0.210502 0.156375 0.170593
v -0.215326 0.156375 0.165768
v -0.217091 0.156375 0.159179
v -0.217091 0.156375 -0.137104
v -0.215326 0.156375 -0.143691
v -0.215326 0.159120 0.165768
v -0.210502 0.159120 0.170593
v -0.203914 0.159120 0.172360
v 0.203876 0.159120 0.172360
v 0.210464 0.159120 0.170593
v 0.215287 0.159120 0.165768
v 0.217053 0.159120 0.159179
v 0.217053 0.159119 -0.137104
v 0.215287 0.159119 -0.143691
v 0.210464 0.159119 -0.148517
v 0.203876 0.159119 -0.150282
v -0.203914 0.159119 -0.150282
v -0.210502 0.159119 -0.148517
v -0.215326 0.159119 -0.143691
v -0.217091 0.159119 -0.137104
v -0.217091 0.159120 0.159179
v 0.220053 0.162343 0.159573
v 0.217737 0.168293 0.159457
v 0.217761 0.168233 -0.137576
v 0.220053 0.162435 -0.137500
v 0.211623 0.172439 0.159491
v 0.211612 0.172446 -0.137383
v 0.204146 0.173797 0.159449
v 0.204086 0.173808 -0.137316
v 0.204151 0.172439 0.166928
v -0.204224 0.172441 0.166915
v -0.204185 0.173797 0.159449
v 0.204363 0.168296 0.173041
v -0.204190 0.168250 0.173108
v 0.204272 0.162433 0.175359
v -0.204164 0.162331 0.175399
v -0.211662 0.172439 0.159457
v -0.211646 0.172441 -0.137416
v -0.204185 0.173797 -0.137373
v -0.217775 0.168293 0.159660
v -0.217841 0.168249 -0.137383
v -0.220091 0.162435 0.159575
v -0.220131 0.162334 -0.137350
v 0.204268 0.162342 -0.153283
v 0.204151 0.168294 -0.150966
v -0.204386 0.168233 -0.150990
v -0.204310 0.162435 -0.153283
v 0.204188 0.172439 -0.144853
v -0.204189 0.172446 -0.144842
v 0.210604 0.171665 0.165932
v 0.216936 0.167387 0.165910
v 0.218005 0.162368 0.167294
v 0.211980 0.162424 0.173293
v 0.210604 0.167389 0.172244
v -0.212028 0.162367 0.173309
v -0.210644 0.167583 0.171954
v -0.218025 0.162425 0.167286
v -0.216975 0.167387 0.165910
v -0.210642 0.171681 0.165910
v 0.211988 0.162365 -0.151236
v 0.210608 0.167583 -0.149876
v 0.217987 0.162425 -0.145208
v 0.216936 0.167387 -0.143835
v 0.210604 0.171679 -0.143835
v -0.218044 0.162367 -0.145216
v -0.216688 0.167581 -0.143835
v -0.212019 0.162423 -0.151217
v -0.210644 0.167387 -0.150164
v -0.210642 0.171682 -0.143835
v -0.218015 0.159120 0.167324
v -0.212056 0.159120 0.173282
v -0.204309 0.159120 0.175359
v 0.204272 0.159120 0.175359
v 0.212016 0.159120 0.173282
v 0.217978 0.159120 0.167320
v 0.220053 0.159120 0.159573
v 0.220053 0.159119 -0.137500
v 0.217977 0.159119 -0.145245
v 0.212020 0.159119 -0.151205
v 0.204270 0.159119 -0.153283
v -0.204310 0.159119 -0.153283
v -0.212055 0.159119 -0.151207
v -0.218015 0.159119 -0.145245
v -0.220091 0.159119 -0.137500
v -0.220091 0.159120 0.159575
v -0.210502 0.156375 -0.137104
v -0.203914 0.156375 -0.137104
v 0.210464 0.156375 -0.137104
v 0.203876 0.156375 -0.137104
v 0.210464 0.156375 0.159179
v 0.203876 0.156375 0.159179
v -0.203914 0.156375 0.159179
v -0.210502 0.156375 0.159179
v -0.000019 0.156375 0.159179
v -0.000019 0.156375 0.172360
v -0.000019 0.159120 0.172360
v -0.000019 0.159120 0.175359
v 0.000054 0.162382 0.175379
v 0.000087 0.168274 0.173073
v -0.000037 0.172440 0.166921
v -0.000019 0.173797 0.159449
v -0.000049 0.173802 -0.137344
v -0.000001 0.172442 -0.144846
v -0.000118 0.168264 -0.150978
v -0.000021 0.162389 -0.153283
v -0.000020 0.159119 -0.153283
v -0.000019 0.159119 -0.150282
v -0.000019 0.156375 -0.150282
v -0.000019 0.156375 -0.137104
v -0.211654 0.172440 -0.120308
v -0.204185 0.173797 -0.120291
v -0.000034 0.173800 -0.120276
v 0.204116 0.173802 -0.120261
v 0.211618 0.172442 -0.120274
v 0.217749 0.168264 -0.120388
v 0.220053 0.162389 -0.120292
v 0.220053 0.159120 -0.120292
v 0.217053 0.159120 -0.120291
v 0.217053 0.156375 -0.120291
v 0.210464 0.156375 -0.120291
v 0.203876 0.156375 -0.120291
v -0.000019 0.156375 -0.120291
v -0.203914 0.156375 -0.120291
v -0.210502 0.156375 -0.120291
v -0.217091 0.156375 -0.120291
v -0.217091 0.159120 -0.120291
v -0.220091 0.159120 -0.120291
v -0.220111 0.162384 -0.120215
v -0.217808 0.168271 -0.120191
v -0.000019 0.160962 -0.120291
v -0.000019 0.160962 0.159179
v 0.203876 0.160962 0.159179
v 0.203876 0.160962 -0.120291
v -0.203914 0.160962 0.159179
v -0.203914 0.160962 -0.120291
v -0.055583 0.174950 -0.047231
v 0.055545 0.174950 -0.047231
v -0.055583 0.174950 0.069306
v 0.055545 0.174950 0.069306
v -0.000019 0.160761 -0.120291
v -0.000019 0.160761 0.159179
v 0.203876 0.160761 0.159179
v 0.203876 0.160761 -0.120291
v -0.203914 0.160761 0.159179
v -0.203914 0.160761 -0.120291
vn -0.0000 -0.0000 -1.0000
vn -0.9708 -0.0000 -0.2400
vn -0.8661 -0.0000 -0.4999
vn -0.5002 -0.0000 -0.8659
vn -0.2382 -0.0000 -0.9712
vn 0.2382 -0.0000 -0.9712
vn 0.5002 -0.0000 -0.8659
vn 0.8661 -0.0000 -0.4999
vn 0.9708 -0.0000 -0.2400
vn -0.9721 -0.1084 -0.2080
vn -0.7882 -0.5904 -0.1739
vn -0.7938 -0.6082 -0.0000
vn -0.9912 -0.1322 -0.0002
vn -0.3796 -0.9116 -0.1575
vn -0.3811 -0.9245 0.0002
vn -0.1541 -0.9757 -0.1558
vn -0.1676 -0.9859 -0.0002
vn -0.1549 -0.9132 -0.3769
vn -0.0000 -0.9251 -0.3797
vn -0.0000 -0.9855 -0.1694
vn -0.1791 -0.5902 -0.7871
vn -0.0000 -0.6081 -0.7938
vn -0.2071 -0.1098 -0.9721
vn 0.0002 -0.1288 -0.9917
vn 0.1538 -0.9758 -0.1552
vn 0.3771 -0.9130 -0.1558
vn 0.3807 -0.9247 -0.0000
vn 0.1679 -0.9858 -0.0000
vn 0.7871 -0.5899 -0.1803
vn 0.7945 -0.6073 -0.0005
vn 0.9718 -0.1096 -0.2087
vn 0.9916 -0.1293 -0.0001
vn -0.9837 -0.0000 0.1797
vn -0.8661 -0.0000 0.4999
vn -0.5001 -0.0000 0.8660
vn -0.2381 -0.0000 0.9713
vn -0.2381 0.0001 0.9713
vn -0.2124 -0.1164 0.9702
vn -0.1778 -0.5899 0.7876
vn -0.0000 -0.6073 0.7945
vn -0.0000 -0.1333 0.9911
vn -0.1558 -0.9119 0.3796
vn -0.0000 -0.9244 0.3814
vn -0.1536 -0.9820 0.1100
vn -0.0000 -0.9926 0.1217
vn 0.2381 -0.0001 0.9713
vn 0.5001 -0.0000 0.8660
vn 0.2381 -0.0000 0.9713
vn 0.8661 -0.0000 0.4999
vn 0.9837 -0.0000 0.1797
vn -0.0000 -1.0000 -0.0001
vn -0.0000 -0.0000 1.0000
vn 1.0000 -0.0000 -0.0000
vn -1.0000 -0.0000 -0.0000
vn -0.3544 -0.8650 -0.3552
vn -0.7376 -0.5499 -0.3919
vn -0.8634 -0.1321 -0.4870
vn -0.4866 -0.1344 -0.8632
vn -0.3922 -0.5495 -0.7377
vn 0.1804 -0.5849 -0.7908
vn 0.2091 -0.1143 -0.9712
vn 0.4885 -0.1360 -0.8619
vn 0.3956 -0.5662 -0.7231
vn 0.8627 -0.1367 -0.4869
vn 0.7362 -0.5509 -0.3930
vn 0.3544 -0.8647 -0.3559
vn 0.1555 -0.9124 -0.3785
vn -0.4871 -0.1367 0.8626
vn -0.3942 -0.5665 0.7237
vn -0.8629 -0.1368 0.4866
vn -0.7366 -0.5508 0.3925
vn -0.9792 -0.1237 0.1606
vn -0.7938 -0.5920 0.1396
vn -0.3796 -0.9175 0.1190
vn -0.3550 -0.8644 0.3562
vn 0.7929 -0.5928 0.1413
vn 0.9795 -0.1220 0.1600
vn 0.8620 -0.1359 0.4883
vn 0.7232 -0.5661 0.3956
vn 0.4868 -0.1367 0.8628
vn 0.3925 -0.5508 0.7366
vn 0.2073 -0.1112 0.9719
vn 0.1780 -0.5869 0.7898
vn 0.1534 -0.9130 0.3781
vn 0.3555 -0.8647 0.3549
vn 0.1547 -0.9818 0.1106
vn 0.3794 -0.9174 0.1203
vn 0.4960 0.0001 -0.8683
vn 0.8677 -0.0015 -0.4970
vn 0.2426 0.0035 -0.9701
vn -0.2369 0.0016 -0.9715
vn -0.0000 0.0062 -1.0000
vn -0.4969 -0.0013 -0.8678
vn -0.8688 0.0003 -0.4951
vn -0.9713 0.0028 -0.2379
vn -0.8679 -0.0015 0.4968
vn -0.9850 -0.0000 0.1728
vn -0.4955 0.0001 0.8686
vn -0.2358 0.0030 0.9718
vn 0.4969 -0.0014 0.8678
vn 0.2368 -0.0000 0.9716
vn 0.8683 0.0003 0.4960
vn 0.9844 0.0052 0.1759
vn 0.9710 0.0015 -0.2390
vn 1.0000 0.0091 -0.0006
vn -0.0000 1.0000 -0.0000
vt -118.324661 -19.673967
vt -117.324661 -19.673967
vt -117.324661 -18.673967
vt -118.324661 -18.673967
vt -117.996147 0.248219
vt -117.996147 0.228811
vt -117.988052 0.228799
vt -117.988052 0.248213
vt -117.996162 0.214596
vt -117.988060 0.214590
vt -117.914391 1.359896
vt -117.914391 1.340578
vt -117.906349 1.340575
vt -117.906342 1.359893
vt -117.914391 0.144975
vt -117.914391 0.125649
vt -117.906349 0.125654
vt -117.906349 0.144972
vt -118.005058 1.155457
vt -118.005043 1.141219
vt -117.996956 1.141220
vt -117.996956 1.155465
vt -118.005043 1.121766
vt -117.996956 1.121768
vt -117.967590 0.195080
vt -117.947861 0.195471
vt -117.947945 1.123427
vt -117.967453 1.123111
vt -117.934120 0.195355
vt -117.934097 1.123053
vt -118.122208 1.373126
vt -118.122093 1.351112
vt -117.298805 1.351035
vt -117.298759 1.373103
vt -118.144119 1.351134
vt -118.144096 0.750121
vt -118.122101 0.750175
vt -118.162102 1.351760
vt -118.162178 0.750484
vt -117.884041 1.357410
vt -117.901649 1.357150
vt -117.901772 0.744768
vt -117.884132 0.744865
vt -118.122093 0.149227
vt -118.122101 0.127221
vt -117.298653 0.127233
vt -117.298714 0.149227
vt -117.955086 1.179923
vt -117.968842 1.180616
vt -117.968903 0.252338
vt -117.955101 0.251955
vt -117.988281 1.180327
vt -117.988434 0.252262
vt -117.988075 1.120902
vt -117.988060 1.140305
vt -117.996147 1.140303
vt -117.996147 1.120896
vt -117.988060 1.154524
vt -117.996147 1.154513
vt -117.923286 1.359936
vt -117.923286 1.340607
vt -117.915230 1.340608
vt -117.915230 1.359923
vt -117.877457 1.357426
vt -117.895317 1.357079
vt -117.895248 0.744246
vt -117.877617 0.744546
vt -117.208420 1.351130
vt -117.226410 1.351236
vt -117.226433 0.750237
vt -117.208359 0.749875
vt -117.248589 1.350938
vt -117.248520 0.750088
vt -117.923286 0.144927
vt -117.923286 0.125612
vt -117.915230 0.125609
vt -117.915230 0.144937
vt -117.996948 0.213647
vt -117.996956 0.227900
vt -118.005043 0.227894
vt -118.005058 0.213663
vt -117.996956 0.247338
vt -118.005043 0.247336
vt -117.914391 0.742772
vt -117.906349 0.742777
vt -117.298744 0.750127
vt -117.915245 0.742775
vt -117.923286 0.742778
vt -118.005058 0.296961
vt -117.996956 0.296955
vt -117.996162 1.071377
vt -117.988060 1.071371
vt -118.141182 1.370121
vt -117.936684 0.173981
vt -117.950882 0.174055
vt -117.967529 0.169478
vt -117.967316 0.149576
vt -117.950859 0.153069
vt -117.901672 1.380264
vt -117.886765 1.376124
vt -118.159752 1.370121
vt -118.141113 1.388762
vt -117.884201 0.132318
vt -117.901947 0.132400
vt -117.901833 0.108808
vt -117.886192 0.112967
vt -117.971191 1.221387
vt -117.988503 1.225887
vt -117.988304 1.205903
vt -117.971855 1.201340
vt -117.957596 1.201337
vt -118.144066 0.149104
vt -118.141098 0.130219
vt -118.162315 0.149209
vt -118.158905 0.130211
vt -118.141098 0.111577
vt -117.877548 1.380597
vt -117.893211 1.376455
vt -117.950211 1.221212
vt -117.967522 1.225733
vt -117.967316 1.205731
vt -117.950882 1.201191
vt -117.967293 1.180169
vt -117.948067 1.180425
vt -117.934097 1.179782
vt -117.936638 1.201190
vt -117.248390 1.373093
vt -117.229385 1.370118
vt -117.211632 1.370145
vt -117.229393 1.388759
vt -117.968979 0.195311
vt -117.988617 0.195420
vt -117.988503 0.169331
vt -117.971214 0.173906
vt -117.988304 0.149416
vt -117.971855 0.152921
vt -117.877693 0.108509
vt -117.877739 0.131637
vt -117.895142 0.131424
vt -117.892593 0.112639
vt -117.210777 0.130225
vt -117.208351 0.148624
vt -117.226440 0.149206
vt -117.229393 0.130225
vt -117.248428 0.149218
vt -117.248299 0.127272
vt -117.957596 0.173909
vt -117.955078 0.195204
vt -117.229393 0.112424
vt -117.999268 1.225791
vt -117.999268 1.206031
vt -117.911568 0.131965
vt -117.911552 0.108726
vt -117.911568 1.357134
vt -117.911568 0.744556
vt -117.911568 1.380368
vt -117.978271 0.169381
vt -117.978271 0.149607
vt -117.978264 0.195080
vt -117.978271 1.123113
vt -117.978271 1.205868
vt -117.978271 1.180171
vt -117.978271 1.225624
vt -117.867821 1.357452
vt -117.867805 1.380687
vt -117.867805 0.744540
vt -117.867821 0.108405
vt -117.867821 0.131645
vt -117.999260 0.169224
vt -117.999268 0.149454
vt -117.999268 0.194929
vt -117.999268 1.180330
vt -117.999268 0.252009
vt -117.778786 -0.362819
vt -117.792923 -0.376946
vt -117.788361 -0.384840
vt -117.770905 -0.367370
vt -117.773613 -0.343527
vt -117.764832 -0.344679
vt -117.773613 0.850969
vt -117.773628 0.253723
vt -117.764832 0.253725
vt -117.764832 0.852125
vt -117.778770 0.870268
vt -117.770905 0.874821
vt -117.792908 0.884391
vt -117.788383 0.892288
vt -117.812210 0.889558
vt -117.811073 0.898357
vt -118.630836 0.889561
vt -118.630836 0.898360
vt -118.699387 0.884396
vt -118.680077 0.889559
vt -118.681244 0.898360
vt -118.703926 0.892272
vt -118.713524 0.870269
vt -118.721397 0.874820
vt -118.718697 0.850965
vt -118.727470 0.852120
vt -118.718697 0.253719
vt -118.727478 0.253724
vt -118.713524 -0.362829
vt -118.718697 -0.343522
vt -118.727470 -0.344680
vt -118.721405 -0.367372
vt -118.699379 -0.376945
vt -118.703941 -0.384831
vt -118.680077 -0.382121
vt -118.681244 -0.390917
vt -117.812218 -0.382114
vt -118.630836 -0.382119
vt -118.630836 -0.390917
vt -117.811066 -0.390911
vt -118.340141 -0.347129
vt -118.334976 -0.366435
vt -118.301537 -0.366434
vt -118.301537 -0.347128
vt -118.301537 -0.385740
vt -118.320831 -0.380574
vt -118.334976 0.867020
vt -118.301537 0.867022
vt -118.301537 0.886328
vt -118.320847 0.881148
vt -117.399963 -0.366438
vt -117.433403 -0.366439
vt -117.433403 -0.385746
vt -117.414108 -0.380557
vt -117.433403 -0.347143
vt -117.394806 -0.347128
vt -117.433418 0.886321
vt -117.433403 0.867014
vt -117.399963 0.867008
vt -117.414101 0.881156
vt -118.340141 0.250297
vt -118.301537 0.250299
vt -118.301529 0.847716
vt -118.340141 0.847714
vt -117.394814 0.847720
vt -117.433418 0.847718
vt -117.433418 0.250291
vt -117.394806 0.250285
vt -118.252281 0.886321
vt -118.252281 0.867025
vt -118.252281 0.847719
vt -118.252274 -0.347143
vt -118.252274 -0.366439
vt -118.252274 -0.385745
vt -118.252274 0.250284
vt -117.922478 0.735243
vt -117.922478 1.332649
vt -117.935936 1.332645
vt -117.935936 0.735247
vt -118.017662 1.071517
vt -118.017647 0.252273
vt -118.004211 0.252275
vt -118.004219 1.071533
vt -117.946915 1.333343
vt -117.946915 0.735242
vt -117.933472 0.735242
vt -117.933479 1.333343
vt -117.922478 0.137832
vt -117.935936 0.137835
vt -117.946915 0.137136
vt -117.933472 0.137136
vt -118.028656 1.071426
vt -118.028656 0.252368
vt -118.015213 0.252368
vt -118.015213 1.071427
s 1
usemtl M_LaptopLid_16_0
f 1/1/1 2/2/1 4/3/1 3/4/1
f 31/5/2 32/6/3 46/7/3 47/8/2
f 32/6/3 33/9/4 45/10/4 46/7/3
f 33/11/4 34/12/5 44/13/5 45/14/4
f 35/15/6 36/16/7 42/17/7 43/18/6
f 36/19/7 37/20/8 41/21/8 42/22/7
f 37/20/8 38/23/9 56/24/9 41/21/8
f 57/25/10 58/26/11 150/27/12 151/28/13
f 58/26/11 61/29/14 149/30/15 150/27/12
f 61/31/14 63/32/16 148/33/17 149/34/15
f 63/32/16 65/35/18 135/36/19 136/37/20
f 65/35/18 68/38/21 134/39/22 135/36/19
f 68/40/21 70/41/23 133/42/24 134/43/22
f 67/44/25 72/45/26 145/46/27 146/47/28
f 72/48/26 75/49/29 164/50/30 145/51/27
f 75/49/29 77/52/31 163/53/32 164/50/30
f 48/54/33 49/55/34 29/56/34 30/57/33
f 49/55/34 50/58/35 28/59/35 29/56/34
f 50/60/35 51/61/36 27/62/37 28/63/35
f 79/64/38 80/65/39 139/66/40 140/67/41
f 80/68/39 83/69/42 138/70/43 139/71/40
f 83/69/42 64/72/44 137/73/45 138/70/43
f 52/74/46 53/75/47 25/76/47 26/77/48
f 53/78/47 54/79/49 40/80/49 25/81/47
f 54/79/49 55/82/50 39/83/50 40/80/49
f 44/13/5 34/12/5 130/84/1 131/85/1
f 63/32/16 136/37/20 147/86/51 148/33/17
f 143/87/52 27/62/37 51/61/36 142/88/52
f 38/23/9 160/89/53 161/90/53 56/24/9
f 154/91/54 31/5/2 47/8/2 153/92/54
f 65/35/18 63/32/16 61/31/14 85/93/55
f 85/94/55 61/29/14 58/26/11 86/95/56
f 58/26/11 57/25/10 87/96/57 86/95/56
f 86/95/56 87/96/57 88/97/58 89/98/59
f 88/99/58 70/41/23 68/40/21 89/100/59
f 89/101/59 68/38/21 65/35/18 85/93/55
f 85/93/55 86/102/56 89/101/59
f 69/103/60 71/104/61 90/105/62 91/106/63
f 91/107/63 90/108/62 92/109/64 93/110/65
f 92/109/64 77/52/31 75/49/29 93/110/65
f 93/110/65 75/49/29 72/48/26 94/111/66
f 72/45/26 67/44/25 66/112/67 94/113/66
f 94/113/66 66/112/67 69/114/60 91/115/63
f 91/115/63 93/116/65 94/113/66
f 80/65/39 79/64/38 95/117/68 96/118/69
f 96/119/69 95/120/68 97/121/70 98/122/71
f 97/121/70 60/123/72 59/124/73 98/122/71
f 98/122/71 59/124/73 62/125/74 99/126/75
f 62/127/74 64/72/44 83/69/42 99/128/75
f 99/128/75 83/69/42 80/68/39 96/129/69
f 96/129/69 98/130/71 99/128/75
f 76/131/76 78/132/77 100/133/78 101/134/79
f 101/134/79 100/133/78 102/135/80 103/136/81
f 102/137/80 82/138/82 81/139/83 103/140/81
f 103/141/81 81/142/83 84/143/84 104/144/85
f 84/143/84 74/145/86 73/146/87 104/144/85
f 104/147/85 73/148/87 76/131/76 101/134/79
f 101/149/79 103/141/81 104/144/85
f 106/150/88 105/151/89 92/109/64 90/108/62
f 107/152/90 106/153/88 90/105/62 71/104/61
f 70/41/23 108/154/91 132/155/92 133/42/24
f 109/156/93 108/154/91 70/41/23 88/99/58
f 110/157/94 109/158/93 88/97/58 87/96/57
f 111/159/95 110/157/94 87/96/57 57/25/10
f 152/160/54 111/159/95 57/25/10 151/28/13
f 60/123/72 97/121/70 113/161/96 112/162/97
f 97/121/70 95/120/68 114/163/98 113/161/96
f 95/117/68 79/64/38 115/164/99 114/165/98
f 141/166/52 115/164/99 79/64/38 140/67/41
f 82/138/82 102/137/80 117/167/100 116/168/101
f 102/135/80 100/133/78 118/169/102 117/170/100
f 100/133/78 78/132/77 119/171/103 118/169/102
f 120/172/104 162/173/105 163/53/32 77/52/31
f 105/151/89 120/172/104 77/52/31 92/109/64
f 42/174/106 41/175/106 105/176/106 106/177/106
f 43/178/106 42/174/106 106/177/106 107/179/106
f 44/180/106 131/181/106 132/182/106 108/183/106
f 45/184/106 44/180/106 108/183/106 109/185/106
f 46/186/106 45/184/106 109/185/106 110/187/106
f 47/188/106 46/186/106 110/187/106 111/189/106
f 153/190/106 47/188/106 111/189/106 152/191/106
f 49/192/106 48/193/106 112/194/106 113/195/106
f 50/196/106 49/192/106 113/195/106 114/197/106
f 51/198/106 50/196/106 114/197/106 115/199/106
f 142/200/106 51/198/106 115/199/106 141/201/106
f 53/202/106 52/203/106 116/204/106 117/205/106
f 54/206/106 53/202/106 117/205/106 118/207/106
f 55/208/106 54/206/106 118/207/106 119/209/106
f 56/210/106 161/211/106 162/212/106 120/213/106
f 41/175/106 56/210/106 120/213/106 105/176/106
f 26/214/106 25/215/106 121/216/106 122/217/106
f 39/218/106 121/216/106 25/215/106 40/219/106
f 28/220/106 123/221/106 30/222/106 29/223/106
f 36/224/106 128/225/106 38/226/106 37/227/106
f 127/228/106 128/225/106 36/224/106 35/229/106
f 31/230/106 125/231/106 33/232/106 32/233/106
f 143/234/106 144/235/106 124/236/106 27/237/106
f 34/238/106 126/239/106 129/240/106 130/241/106
f 33/232/106 125/231/106 126/239/106 34/238/106
f 27/237/106 124/236/106 123/221/106 28/220/106
f 154/242/106 155/243/106 125/231/106 31/230/106
f 126/239/106 125/231/106 155/243/106 156/244/106
f 158/245/106 159/246/106 128/225/106 127/228/106
f 38/226/106 128/225/106 159/246/106 160/247/106
f 130/241/106 129/240/106 127/228/106 35/229/106
f 131/85/1 130/84/1 35/15/6 43/18/6
f 132/182/106 131/181/106 43/178/106 107/179/106
f 133/42/24 132/155/92 107/152/90 71/104/61
f 134/43/22 133/42/24 71/104/61 69/103/60
f 135/36/19 134/39/22 69/114/60 66/112/67
f 136/37/20 135/36/19 66/112/67 67/44/25
f 147/86/51 136/37/20 67/44/25 146/47/28
f 138/70/43 137/73/45 74/145/86 84/143/84
f 139/71/40 138/70/43 84/143/84 81/142/83
f 140/67/41 139/66/40 81/139/83 82/138/82
f 116/168/101 141/166/52 140/67/41 82/138/82
f 52/203/106 142/200/106 141/201/106 116/204/106
f 26/77/48 143/87/52 142/88/52 52/74/46
f 26/214/106 122/217/106 144/235/106 143/234/106
f 146/47/28 145/46/27 73/146/87 74/145/86
f 137/73/45 147/86/51 146/47/28 74/145/86
f 148/33/17 147/86/51 137/73/45 64/72/44
f 149/34/15 148/33/17 64/72/44 62/127/74
f 150/27/12 149/30/15 62/125/74 59/124/73
f 151/28/13 150/27/12 59/124/73 60/123/72
f 112/162/97 152/160/54 151/28/13 60/123/72
f 48/193/106 153/190/106 152/191/106 112/194/106
f 30/57/33 154/91/54 153/92/54 48/54/33
f 30/222/106 123/221/106 155/243/106 154/242/106
f 156/244/106 155/243/106 123/221/106 124/236/106
f 144/235/106 157/248/106 156/244/106 124/236/106
f 158/245/106 157/248/106 144/235/106 122/217/106
f 122/217/106 121/216/106 159/246/106 158/245/106
f 160/247/106 159/246/106 121/216/106 39/218/106
f 161/90/53 160/89/53 39/83/50 55/82/50
f 162/212/106 161/211/106 55/208/106 119/209/106
f 163/53/32 162/173/105 119/171/103 78/132/77
f 164/50/30 163/53/32 78/132/77 76/131/76
f 145/51/27 164/50/30 76/131/76 73/148/87
f 129/249/52 126/250/52 167/251/52 166/252/52
f 126/253/53 156/254/53 168/255/53 167/256/53
f 156/257/1 157/258/1 165/259/1 168/260/1
f 127/261/52 129/249/52 166/252/52 169/262/52
f 157/258/1 158/263/1 170/264/1 165/259/1
f 158/265/54 127/266/54 169/267/54 170/268/54
