# Blender 4.1.0
# www.blender.org
mtllib SinkFaucetKnobR_15_SinkFaucetKnobR_15_2.mtl
o SinkFaucetKnobR_15
v 0.177836 0.097024 -0.006601
v 0.177836 0.071690 -0.006601
v 0.286025 0.084358 -0.006601
v 0.184170 0.095329 -0.012935
v 0.188806 0.090689 -0.017570
v 0.190503 0.084358 -0.019267
v 0.188806 0.078024 -0.017570
v 0.184167 0.073389 -0.012936
v 0.166866 0.090689 -0.017570
v 0.171503 0.095329 -0.012935
v 0.165169 0.084358 -0.019267
v 0.166866 0.078024 -0.017570
v 0.171506 0.073389 -0.012936
v 0.139441 0.084358 -0.006601
v 0.177836 0.073385 -0.000269
v 0.177836 0.078024 0.004369
v 0.177837 0.084358 0.006066
v 0.177837 0.090689 0.004369
v 0.177837 0.095329 -0.000269
v 0.286025 0.094233 -0.012302
v 0.284802 0.095329 -0.012935
v 0.286025 0.090058 -0.016473
v 0.284802 0.090689 -0.017570
v 0.286025 0.084358 -0.018001
v 0.284802 0.084358 -0.019267
v 0.286025 0.094233 -0.000902
v 0.284802 0.095329 -0.000269
v 0.286025 0.095759 -0.006601
v 0.284802 0.097024 -0.006601
v 0.286025 0.078655 -0.016473
v 0.284802 0.078024 -0.017570
v 0.286025 0.074484 -0.012302
v 0.284802 0.073385 -0.012935
v 0.286025 0.084358 0.004800
v 0.284802 0.084358 0.006066
v 0.286025 0.090058 0.003272
v 0.284802 0.090689 0.004369
v 0.286025 0.072956 -0.006601
v 0.284802 0.071690 -0.006601
v 0.286025 0.074484 -0.000902
v 0.284802 0.073385 -0.000269
v 0.286025 0.078655 0.003272
v 0.284802 0.078024 0.004369
v 0.139441 0.090058 0.003272
v 0.140664 0.090689 0.004369
v 0.140664 0.095329 -0.000269
v 0.139441 0.094233 -0.000902
v 0.139441 0.084358 0.004800
v 0.140664 0.084358 0.006066
v 0.139441 0.078655 0.003272
v 0.140664 0.078024 0.004369
v 0.139441 0.074484 -0.000902
v 0.140664 0.073385 -0.000269
v 0.139441 0.095759 -0.006601
v 0.140664 0.097024 -0.006601
v 0.140664 0.095329 -0.012935
v 0.139441 0.094233 -0.012302
v 0.140664 0.090689 -0.017570
v 0.139441 0.090058 -0.016473
v 0.140664 0.084358 -0.019267
v 0.139441 0.084358 -0.018001
v 0.140664 0.078024 -0.017570
v 0.139441 0.078655 -0.016473
v 0.139441 0.074484 -0.012302
v 0.140664 0.073385 -0.012935
v 0.140664 0.071690 -0.006601
v 0.139441 0.072956 -0.006601
v 0.184170 0.095329 -0.064749
v 0.188806 0.090689 -0.064749
v 0.190503 0.084358 -0.064748
v 0.188806 0.078024 -0.064749
v 0.184170 0.073389 -0.064749
v 0.166866 0.090689 -0.064749
v 0.171503 0.095329 -0.064749
v 0.165169 0.084358 -0.064748
v 0.166866 0.078024 -0.064749
v 0.171503 0.073389 -0.064749
v 0.177836 0.071690 -0.064748
v 0.177836 0.097024 -0.064749
vn 0.3897 0.9209 -0.0000
vn 0.8265 0.5630 -0.0000
vn 0.8616 0.5076 -0.0000
vn 0.4879 0.8729 -0.0000
vn 1.0000 0.0001 -0.0000
vn 0.8263 -0.5632 -0.0000
vn 0.8615 -0.5077 -0.0000
vn 0.3900 -0.9208 -0.0000
vn 0.4879 -0.8729 -0.0000
vn -0.8264 0.5631 -0.0000
vn -0.3898 0.9209 -0.0000
vn -0.4879 0.8729 -0.0000
vn -0.8616 0.5076 -0.0000
vn -1.0000 0.0001 -0.0000
vn -0.8263 -0.5633 -0.0000
vn -0.8615 -0.5078 -0.0000
vn -0.3900 -0.9208 -0.0000
vn -0.4878 -0.8729 -0.0000
vn -0.0000 -1.0000 -0.0000
vn -0.0000 1.0000 -0.0000
vn 0.9915 0.1129 -0.0652
vn 0.9915 0.0652 -0.1129
vn 0.0109 0.5036 -0.8638
vn 0.0104 0.8695 -0.4939
vn 0.0100 0.9999 0.0040
vn 0.9915 0.1303 -0.0000
vn 0.9915 -0.0001 -0.1303
vn 0.0111 -0.0000 -0.9999
vn 0.9915 -0.0652 -0.1129
vn 0.0109 -0.5036 -0.8639
vn 0.9915 0.1129 0.0652
vn 0.0099 0.8659 0.5001
vn 0.0098 0.5000 0.8659
vn 0.9915 0.0652 0.1129
vn 0.9915 -0.1128 -0.0652
vn 0.0104 -0.8695 -0.4938
vn 0.9915 -0.1303 0.0002
vn 0.0100 -0.9999 0.0038
vn 0.9915 -0.0000 0.1303
vn 0.0098 -0.0001 1.0000
vn 0.0099 -0.5000 0.8660
vn 0.9915 -0.0652 0.1129
vn 0.9915 -0.1129 0.0652
vn 0.0098 -0.8660 0.5000
vn -0.9915 0.0652 0.1129
vn -0.9915 -0.0000 0.1303
vn -0.0278 -0.0000 0.9996
vn -0.0277 0.4999 0.8657
vn -0.0277 0.8656 0.5000
vn -0.9915 0.1129 0.0652
vn -0.0289 0.9995 0.0116
vn -0.9915 0.1303 -0.0000
vn -0.9915 -0.0652 0.1129
vn -0.0278 -0.4997 0.8657
vn -0.9915 -0.1128 0.0651
vn -0.0278 -0.8656 0.4999
vn -0.9915 -0.1303 -0.0000
vn -0.0290 -0.9995 0.0114
vn -0.0328 0.8766 -0.4800
vn -0.9915 0.1129 -0.0652
vn -0.0379 0.5126 -0.8578
vn -0.9915 0.0652 -0.1129
vn -0.0402 -0.0000 -0.9992
vn -0.9915 -0.0000 -0.1303
vn -0.0379 -0.5126 -0.8578
vn -0.9915 -0.0652 -0.1129
vn -0.0328 -0.8767 -0.4800
vn -0.9915 -0.1128 -0.0652
vn 1.0000 -0.0000 -0.0000
vn -0.0000 0.5595 -0.8288
vn -0.0000 0.9188 -0.3946
vn -0.0000 0.0001 -1.0000
vn -0.0000 0.9958 0.0916
vn -0.0000 -0.5595 -0.8288
vn -0.0000 -0.9958 0.0914
vn -0.0000 -0.9188 -0.3947
vn -0.0000 0.8660 0.5000
vn -0.0000 0.5000 0.8661
vn -0.0000 0.0001 1.0000
vn -0.0000 -0.5000 0.8660
vn -0.0000 -0.8660 0.5000
vn -0.0000 0.9237 -0.3830
vn -0.0000 0.5681 -0.8230
vn -0.0000 -0.5682 -0.8229
vn 0.0001 -0.9237 -0.3832
vn -1.0000 -0.0000 -0.0000
vt -19.082802 0.713097
vt -19.094721 0.701189
vt -19.094721 0.579986
vt -19.082802 0.579986
vt -19.110985 0.696829
vt -19.110985 0.579986
vt -19.127258 0.701189
vt -19.127258 0.579986
vt -19.139164 0.713094
vt -19.139164 0.579986
vt -19.244146 0.921481
vt -19.256069 0.933392
vt -19.256069 0.800256
vt -19.244146 0.800256
vt -19.227879 0.917120
vt -19.227879 0.800256
vt -19.211603 0.921481
vt -19.211603 0.800256
vt -19.199694 0.933389
vt -19.199694 0.800256
vt -19.911745 0.435045
vt -19.788187 0.435052
vt -19.773079 0.450149
vt -19.911745 0.450149
vt -19.788187 0.465245
vt -19.911745 0.465251
vt -19.423923 0.450151
vt -19.562586 0.450151
vt -19.547483 0.435046
vt -19.423923 0.435046
vt -19.423923 0.465250
vt -19.547483 0.465250
vt -19.484182 0.775755
vt -19.494339 0.785920
vt -19.497009 0.784383
vt -19.485723 0.773086
vt -19.470303 0.768960
vt -19.470303 0.772040
vt -19.498055 0.799795
vt -19.501141 0.799795
vt -19.494339 0.813679
vt -19.497009 0.815216
vt -19.456427 0.775755
vt -19.454887 0.773086
vt -19.443596 0.784383
vt -19.446264 0.785920
vt -19.484182 0.823836
vt -19.485723 0.826510
vt -19.470303 0.827557
vt -19.470303 0.830637
vt -19.442549 0.799795
vt -19.439465 0.799795
vt -19.443596 0.815216
vt -19.446264 0.813679
vt -19.456427 0.823836
vt -19.454887 0.826510
vt -19.580357 0.813676
vt -19.576637 0.799803
vt -19.573555 0.799803
vt -19.577686 0.815213
vt -19.588976 0.826508
vt -19.590515 0.823840
vt -19.604391 0.830634
vt -19.604391 0.827553
vt -19.580357 0.785922
vt -19.577686 0.784385
vt -19.590515 0.775768
vt -19.588976 0.773092
vt -19.604391 0.772047
vt -19.604391 0.768965
vt -19.619810 0.826508
vt -19.618267 0.823840
vt -19.631092 0.815213
vt -19.628424 0.813676
vt -19.635223 0.799803
vt -19.632141 0.799803
vt -19.631092 0.784385
vt -19.628424 0.785922
vt -19.619810 0.773092
vt -19.618267 0.775768
vt -19.470303 0.799795
vt -19.172823 0.127697
vt -19.172823 0.373975
vt -19.184729 0.385870
vt -19.184729 0.127697
vt -19.156580 0.127697
vt -19.156580 0.369623
vt -19.547483 0.195075
vt -19.562586 0.195075
vt -19.140329 0.127697
vt -19.140329 0.373975
vt -19.773079 0.195067
vt -19.788185 0.195067
vt -19.246515 0.182254
vt -19.246515 0.456346
vt -19.258406 0.456346
vt -19.258406 0.182254
vt -19.274630 0.456346
vt -19.274630 0.182254
vt -19.290861 0.456349
vt -19.290861 0.182254
vt -19.302748 0.456349
vt -19.302748 0.182254
vt -19.547483 0.538798
vt -19.562586 0.538798
vt -19.373043 0.774049
vt -19.361097 0.785989
vt -19.361097 0.853444
vt -19.373043 0.853444
vt -19.344799 0.790356
vt -19.344799 0.853444
vt -19.328493 0.785989
vt -19.328493 0.853444
vt -19.773079 0.538795
vt -19.788185 0.538795
vt -19.604391 0.799803
vt -19.128428 0.127697
vt -19.128439 0.385877
vt -19.316559 0.774044
vt -19.316551 0.853444
vt -19.577688 0.450146
vt -19.577688 0.195075
vt -19.757980 0.195067
vt -19.757980 0.450149
vt -19.757980 0.538795
vt -19.290861 0.551602
vt -19.302748 0.551602
vt -19.274630 0.551602
vt -19.258406 0.551602
vt -19.246515 0.551602
vt -19.577688 0.538798
s 1
usemtl M_SinkFaucetKnobR_15_0
f 4/1/1 5/2/2 69/3/3 68/4/4
f 5/2/2 6/5/5 70/6/5 69/3/3
f 6/5/5 7/7/6 71/8/7 70/6/5
f 7/7/6 8/9/8 72/10/9 71/8/7
f 9/11/10 10/12/11 74/13/12 73/14/13
f 11/15/14 9/11/10 73/14/13 75/16/14
f 12/17/15 11/15/14 75/16/14 76/18/16
f 13/19/17 12/17/15 76/18/16 77/20/18
f 72/21/9 8/22/8 2/23/19 78/24/19
f 78/24/19 2/23/19 13/25/17 77/26/18
f 79/27/20 1/28/20 4/29/1 68/30/4
f 74/31/12 10/32/11 1/28/20 79/27/20
f 20/33/21 22/34/22 23/35/23 21/36/24
f 21/36/24 29/37/25 28/38/26 20/33/21
f 22/34/22 24/39/27 25/40/28 23/35/23
f 24/39/27 30/41/29 31/42/30 25/40/28
f 26/43/31 28/38/26 29/37/25 27/44/32
f 27/44/32 37/45/33 36/46/34 26/43/31
f 30/41/29 32/47/35 33/48/36 31/42/30
f 32/47/35 38/49/37 39/50/38 33/48/36
f 34/51/39 36/46/34 37/45/33 35/52/40
f 35/52/40 43/53/41 42/54/42 34/51/39
f 38/49/37 40/55/43 41/56/44 39/50/38
f 40/55/43 42/54/42 43/53/41 41/56/44
f 44/57/45 48/58/46 49/59/47 45/60/48
f 45/60/48 46/61/49 47/62/50 44/57/45
f 46/61/49 55/63/51 54/64/52 47/62/50
f 48/58/46 50/65/53 51/66/54 49/59/47
f 50/65/53 52/67/55 53/68/56 51/66/54
f 52/67/55 67/69/57 66/70/58 53/68/56
f 55/63/51 56/71/59 57/72/60 54/64/52
f 56/71/59 58/73/61 59/74/62 57/72/60
f 58/73/61 60/75/63 61/76/64 59/74/62
f 60/75/63 62/77/65 63/78/66 61/76/64
f 62/77/65 65/79/67 64/80/68 63/78/66
f 65/79/67 66/70/58 67/69/57 64/80/68
f 3/81/69 24/39/27 22/34/22 20/33/21
f 3/81/69 20/33/21 28/38/26 26/43/31
f 3/81/69 32/47/35 30/41/29 24/39/27
f 3/81/69 26/43/31 36/46/34 34/51/39
f 3/81/69 40/55/43 38/49/37 32/47/35
f 23/82/23 5/83/70 4/84/71 21/85/24
f 25/86/28 6/87/72 5/83/70 23/82/23
f 3/81/69 34/51/39 42/54/42 40/55/43
f 21/88/24 4/29/71 1/28/73 29/89/25
f 31/90/30 7/91/74 6/87/72 25/86/28
f 39/92/38 2/23/75 8/22/76 33/93/36
f 27/94/32 19/95/77 18/96/78 37/97/33
f 37/97/33 18/96/78 17/98/79 35/99/40
f 35/99/40 17/98/79 16/100/80 43/101/41
f 43/101/41 16/100/80 15/102/81 41/103/44
f 1/28/73 10/32/82 56/104/59 55/105/51
f 10/106/82 9/107/83 58/108/61 56/109/59
f 9/107/83 11/110/72 60/111/63 58/108/61
f 11/110/72 12/112/84 62/113/65 60/111/63
f 13/25/85 2/23/75 66/114/58 65/115/67
f 14/116/86 57/72/60 59/74/62 61/76/64
f 14/116/86 47/62/50 54/64/52 57/72/60
f 14/116/86 61/76/64 63/78/66 64/80/68
f 14/116/86 48/58/46 44/57/45 47/62/50
f 14/116/86 64/80/68 67/69/57 52/67/55
f 14/116/86 52/67/55 50/65/53 48/58/46
f 33/117/36 8/118/76 7/91/74 31/90/30
f 12/112/84 13/119/85 65/120/67 62/113/65
f 29/89/25 1/28/73 19/121/77 27/122/32
f 39/92/38 41/123/44 15/124/81 2/23/75
f 15/124/81 53/125/56 66/114/58 2/23/75
f 16/100/80 51/126/54 53/127/56 15/102/81
f 17/98/79 49/128/47 51/126/54 16/100/80
f 18/96/78 45/129/48 49/128/47 17/98/79
f 19/95/77 46/130/49 45/129/48 18/96/78
f 1/28/73 55/105/51 46/131/49 19/121/77
