# Blender 4.1.0
# www.blender.org
mtllib MeshDoorwayDoor_10_2_GeomSubset_1.mtl
o MeshDoorwayDoor_10_2_GeomSubset_1
v 0.807944 0.027506 -0.255292
v 0.807944 0.019801 -0.249095
v 0.110927 0.019801 -0.249095
v 0.110927 0.027506 -0.255292
v 0.807944 0.019801 -0.361841
v 0.807944 0.027506 -0.355643
v 0.110927 0.027506 -0.355643
v 0.110927 0.019801 -0.361841
v 0.110927 -0.027506 -0.255292
v 0.110927 -0.019802 -0.249095
v 0.807944 -0.019802 -0.249095
v 0.807944 -0.027506 -0.255292
v 0.110927 -0.019802 -0.361841
v 0.110927 -0.027506 -0.355643
v 0.807944 -0.027506 -0.355643
v 0.807944 -0.019802 -0.361841
v 0.341556 0.020473 -0.943356
v 0.348144 0.012285 -0.943357
v 0.348144 0.012285 0.865825
v 0.341556 0.020473 0.865826
v 0.284908 0.012285 -0.943356
v 0.291496 0.020473 -0.943356
v 0.291496 0.020473 0.865826
v 0.284908 0.012285 0.865825
v 0.341556 -0.020473 0.865821
v 0.348144 -0.012285 0.865822
v 0.348144 -0.012285 -0.943360
v 0.341556 -0.020473 -0.943360
v 0.284908 -0.012285 0.865822
v 0.291496 -0.020473 0.865821
v 0.291496 -0.020473 -0.943358
v 0.284908 -0.012285 -0.943357
v 0.616935 0.020473 -0.943356
v 0.623522 0.012285 -0.943357
v 0.623522 0.012285 0.865825
v 0.616935 0.020473 0.865826
v 0.560287 0.012285 -0.943356
v 0.566874 0.020473 -0.943356
v 0.566874 0.020473 0.865826
v 0.560287 0.012285 0.865825
v 0.616935 -0.020473 0.865821
v 0.623522 -0.012285 0.865822
v 0.623522 -0.012285 -0.943360
v 0.616935 -0.020473 -0.943360
v 0.560287 -0.012285 0.865822
v 0.566874 -0.020473 0.865821
v 0.566874 -0.020473 -0.943358
v 0.560287 -0.012285 -0.943357
v 0.807944 0.015610 -1.047123
v 0.807944 0.021683 -1.041050
v 0.110927 0.021683 -1.041050
v 0.110927 0.015610 -1.047123
v 0.807944 0.021683 -0.942416
v 0.807944 0.015610 -0.936343
v 0.110927 0.015610 -0.936343
v 0.110927 0.021683 -0.942416
v 0.807944 0.027463 0.968750
v 0.807944 0.019771 0.974938
v 0.110927 0.019771 0.974938
v 0.110927 0.027463 0.968750
v 0.807944 0.019771 0.862370
v 0.807944 0.027463 0.868557
v 0.110927 0.027463 0.868557
v 0.110927 0.019771 0.862370
v 0.110927 -0.027463 0.968750
v 0.110927 -0.019771 0.974938
v 0.807944 -0.019771 0.974938
v 0.807944 -0.027463 0.968750
v 0.807944 -0.021683 -1.041050
v 0.807944 -0.015610 -1.047123
v 0.110927 -0.015610 -1.047123
v 0.110927 -0.021683 -1.041050
v 0.110927 -0.019771 0.862370
v 0.110927 -0.027463 0.868557
v 0.807944 -0.027463 0.868557
v 0.807944 -0.019771 0.862370
v 0.110927 -0.021683 -0.942416
v 0.110927 -0.015610 -0.936343
v 0.807944 -0.015610 -0.936343
v 0.807944 -0.021683 -0.942416
v 0.001435 0.021048 -1.045604
v 0.008023 0.029236 -1.045603
v 0.008023 0.021048 -1.052191
v 0.115007 0.021047 -1.052193
v 0.115007 0.029236 -1.045605
v 0.121594 0.021047 -1.045605
v 0.797600 0.021048 -1.045605
v 0.804187 0.029236 -1.045605
v 0.804187 0.021048 -1.052193
v 0.910848 0.021048 -1.052193
v 0.910849 0.029236 -1.045605
v 0.917436 0.021048 -1.045606
v 0.121594 0.021048 0.971972
v 0.115007 0.029236 0.971972
v 0.115007 0.021048 0.978559
v 0.001435 0.021047 0.971972
v 0.008023 0.021047 0.978559
v 0.008023 0.029236 0.971973
v 0.804187 0.021048 0.978559
v 0.804188 0.029236 0.971972
v 0.797600 0.021048 0.971972
v 0.917436 0.021047 0.971972
v 0.910848 0.029236 0.971973
v 0.910848 0.021047 0.978559
v 0.008022 -0.021048 0.978555
v 0.001435 -0.021048 0.971968
v 0.008022 -0.029236 0.971968
v 0.121594 -0.021048 0.971969
v 0.115007 -0.021047 0.978556
v 0.115007 -0.029236 0.971968
v 0.804187 -0.029236 0.971969
v 0.804187 -0.021048 0.978557
v 0.797600 -0.021048 0.971969
v 0.910849 -0.029236 0.971968
v 0.917436 -0.021048 0.971968
v 0.910849 -0.021048 0.978555
v 0.910848 -0.021047 -1.052197
v 0.917436 -0.021047 -1.045609
v 0.910848 -0.029236 -1.045610
v 0.797600 -0.021047 -1.045607
v 0.804187 -0.021048 -1.052195
v 0.804187 -0.029236 -1.045608
v 0.115007 -0.029236 -1.045608
v 0.115007 -0.021047 -1.052195
v 0.121594 -0.021047 -1.045607
v 0.001435 -0.021047 -1.045608
v 0.008023 -0.021047 -1.052195
v 0.008023 -0.029236 -1.045608
v 0.801898 0.010536 -0.934800
v 0.801898 0.010536 0.861660
v 0.116972 0.010536 -0.934800
v 0.116972 0.010536 0.861660
v 0.116973 -0.010537 -0.934800
v 0.116973 -0.010537 0.861660
v 0.801899 -0.010537 0.861660
v 0.801898 -0.010537 -0.934800
v 0.022167 -0.036069 -0.175137
v 0.098205 -0.036069 -0.175137
v 0.022167 -0.036069 -0.099098
v 0.098205 -0.036069 -0.099098
v 0.022167 0.036069 -0.099098
v 0.098205 0.036069 -0.099098
v 0.022167 0.036069 -0.175137
v 0.098205 0.036069 -0.175137
vn -0.0000 -1.0000 -0.0000
vn -0.0000 -0.0000 1.0000
vn -0.0000 1.0000 -0.0000
vn -0.0000 -0.0000 -1.0000
vn 1.0000 -0.0000 -0.0000
vn -1.0000 -0.0000 -0.0000
vt -19.580198 0.725418
vt -19.580198 0.606608
vt -19.461390 0.606608
vt -19.461390 0.725418
vt -19.497053 0.725420
vt -19.609766 0.725420
vt -19.609766 0.606609
vt -19.497053 0.606609
vt -19.526623 0.725420
vt -19.645430 0.725420
vt -19.645430 0.606609
vt -19.526623 0.606609
vt -19.562283 0.725421
vt -19.674999 0.725421
vt -19.674999 0.606608
vt -19.562283 0.606608
vt -19.706917 0.606608
vt -19.594204 0.606608
vt -19.594204 0.725419
vt -19.706917 0.725419
vt -19.738836 0.606611
vt -19.626123 0.606611
vt -19.626123 0.725418
vt -19.738836 0.725418
s 1
usemtl M_DoorwayDoor_10_1
f 139/1/1 137/2/1 138/3/1 140/4/1
f 141/5/2 139/6/2 140/7/2 142/8/2
f 144/9/3 143/10/3 141/11/3 142/12/3
f 137/13/4 143/14/4 144/15/4 138/16/4
f 138/17/5 144/18/5 142/19/5 140/20/5
f 143/21/6 137/22/6 139/23/6 141/24/6
