# Blender 4.1.0
# www.blender.org
mtllib DoormeshMicrowaveDoorC9_1_GeomSubset_7.mtl
o DoormeshMicrowaveDoorC9_1_GeomSubset_7
v -0.000380 -0.004131 -0.198174
v -0.000371 -0.004131 -0.198174
v -0.000380 -0.004121 -0.198174
v -0.000371 -0.004121 -0.198174
v -0.000380 -0.004131 -0.198174
v -0.000371 -0.004131 -0.198174
v -0.000380 -0.004121 -0.198174
v -0.000371 -0.004121 -0.198174
v -0.000380 -0.004131 -0.198174
v -0.000371 -0.004131 -0.198174
v -0.000380 -0.004121 -0.198174
v -0.000371 -0.004121 -0.198174
v -0.000380 -0.004131 -0.198174
v -0.000371 -0.004131 -0.198174
v -0.000380 -0.004121 -0.198174
v -0.000371 -0.004121 -0.198174
v -0.000380 -0.004131 -0.198174
v -0.000371 -0.004131 -0.198174
v -0.000380 -0.004121 -0.198174
v -0.000371 -0.004121 -0.198174
v -0.000380 -0.004131 -0.198174
v -0.000371 -0.004131 -0.198174
v -0.000380 -0.004121 -0.198174
v -0.000371 -0.004121 -0.198174
v -0.000380 -0.004131 -0.198174
v -0.000371 -0.004131 -0.198174
v -0.000380 -0.004121 -0.198174
v -0.000371 -0.004121 -0.198174
v -0.264523 -0.114596 -0.127245
v -0.264136 -0.111715 -0.127245
v -0.264881 -0.108906 -0.127245
v -0.266644 -0.106596 -0.127245
v -0.269157 -0.105137 -0.127245
v -0.272037 -0.104750 -0.127245
v -0.274846 -0.105495 -0.127245
v -0.264523 -0.114596 -0.125352
v -0.264136 -0.111715 -0.125352
v -0.264881 -0.108906 -0.125352
v -0.266644 -0.106596 -0.125352
v -0.269157 -0.105137 -0.125352
v -0.272037 -0.104750 -0.125352
v -0.274846 -0.105495 -0.125352
v -0.269662 -0.113170 -0.127245
v -0.269541 -0.112266 -0.127245
v -0.269775 -0.111385 -0.127245
v -0.270328 -0.110660 -0.127245
v -0.271116 -0.110202 -0.127245
v -0.272020 -0.110081 -0.127245
v -0.272901 -0.110314 -0.127245
v -0.269662 -0.113170 -0.125352
v -0.269541 -0.112266 -0.125352
v -0.269775 -0.111385 -0.125352
v -0.270328 -0.110660 -0.125352
v -0.271116 -0.110202 -0.125352
v -0.272020 -0.110081 -0.125352
v -0.272901 -0.110314 -0.125352
v -0.264523 -0.114596 0.094737
v -0.264136 -0.111715 0.094737
v -0.264881 -0.108906 0.094737
v -0.266644 -0.106596 0.094737
v -0.269157 -0.105137 0.094737
v -0.272037 -0.104750 0.094737
v -0.274846 -0.105495 0.094737
v -0.264523 -0.114596 0.096647
v -0.264136 -0.111715 0.096647
v -0.264881 -0.108906 0.096647
v -0.266644 -0.106596 0.096647
v -0.269157 -0.105137 0.096647
v -0.272037 -0.104750 0.096647
v -0.274846 -0.105495 0.096647
v -0.269662 -0.113170 0.094737
v -0.269541 -0.112266 0.094737
v -0.269775 -0.111385 0.094737
v -0.270328 -0.110660 0.094737
v -0.271116 -0.110202 0.094737
v -0.272020 -0.110081 0.094737
v -0.272901 -0.110314 0.094737
v -0.269662 -0.113170 0.096647
v -0.269541 -0.112266 0.096647
v -0.269775 -0.111385 0.096647
v -0.270328 -0.110660 0.096647
v -0.271116 -0.110202 0.096647
v -0.272020 -0.110081 0.096647
v -0.272901 -0.110314 0.096647
v 0.163598 -0.099931 0.104455
v 0.167963 -0.099931 0.104455
v 0.164992 -0.091739 0.099910
v 0.166569 -0.091739 0.099910
v 0.164992 -0.090474 0.094855
v 0.166569 -0.090474 0.094855
v 0.163598 -0.108154 0.103606
v 0.167963 -0.108154 0.103606
v 0.167963 -0.106022 0.108501
v 0.163598 -0.106022 0.108501
v 0.164992 -0.090712 0.087971
v 0.166569 -0.090712 0.087971
v 0.167963 -0.099513 0.085757
v 0.163598 -0.099513 0.085757
v 0.167377 -0.093661 0.101664
v 0.167963 -0.096832 0.103080
v 0.163598 -0.096832 0.103080
v 0.164185 -0.093661 0.101664
v 0.163598 -0.097042 0.095254
v 0.164092 -0.093048 0.094863
v 0.163598 -0.096913 0.084922
v 0.164083 -0.092977 0.085821
v 0.167963 -0.096913 0.084922
v 0.167478 -0.092977 0.085821
v 0.167963 -0.097014 0.095255
v 0.167477 -0.093075 0.094865
v 0.163598 -0.100458 0.095047
v 0.163598 -0.101239 0.099151
v 0.167963 -0.100458 0.095047
v 0.167963 -0.101239 0.099151
v 0.163598 -0.115743 0.110662
v 0.167963 -0.115743 0.110662
v 0.167963 -0.112202 0.114321
v 0.163598 -0.112202 0.114321
v 0.163598 -0.099931 -0.126649
v 0.167963 -0.099931 -0.126649
v 0.164992 -0.091739 -0.131193
v 0.166569 -0.091739 -0.131193
v 0.164992 -0.090474 -0.136248
v 0.166569 -0.090474 -0.136248
v 0.163598 -0.108154 -0.127497
v 0.167963 -0.108154 -0.127497
v 0.167963 -0.106022 -0.122602
v 0.163598 -0.106022 -0.122602
v 0.164992 -0.090712 -0.143132
v 0.166569 -0.090712 -0.143132
v 0.167963 -0.099513 -0.145346
v 0.163598 -0.099513 -0.145346
v 0.167377 -0.093661 -0.129439
v 0.167963 -0.096832 -0.128023
v 0.163598 -0.096832 -0.128023
v 0.164185 -0.093661 -0.129439
v 0.163598 -0.097042 -0.135849
v 0.164092 -0.093048 -0.136241
v 0.163598 -0.096913 -0.146181
v 0.164083 -0.092977 -0.145282
v 0.167963 -0.096913 -0.146181
v 0.167478 -0.092977 -0.145282
v 0.167963 -0.097014 -0.135848
v 0.167477 -0.093075 -0.136238
v 0.163598 -0.100458 -0.136056
v 0.163598 -0.101239 -0.131952
v 0.167963 -0.100458 -0.136056
v 0.167963 -0.101239 -0.131952
v 0.163598 -0.115743 -0.120441
v 0.167963 -0.115743 -0.120441
v 0.167963 -0.112202 -0.116782
v 0.163598 -0.112202 -0.116782
v 0.169357 -0.113922 -0.093126
v 0.169357 -0.113922 0.063178
v 0.141662 -0.113922 0.124747
v 0.141662 -0.113922 -0.158531
v 0.167696 -0.112261 -0.093126
v 0.167696 -0.112261 0.063178
v 0.141662 -0.112261 0.123086
v 0.141662 -0.112261 -0.156870
v -0.281140 -0.113922 -0.093126
v -0.281140 -0.113922 0.063178
v -0.253612 -0.113922 0.124747
v -0.253612 -0.113922 -0.158531
v -0.279479 -0.112262 -0.093126
v -0.279479 -0.112262 0.063178
v -0.253612 -0.112261 0.123086
v -0.253612 -0.112261 -0.156870
v 0.136454 -0.124982 -0.093126
v 0.141662 -0.124982 -0.087918
v 0.141662 -0.124982 0.057969
v 0.136454 -0.124982 0.063178
v -0.253612 -0.124982 -0.087918
v -0.248404 -0.124982 -0.093126
v -0.248404 -0.124982 0.063178
v -0.253612 -0.124982 0.057969
v 0.118034 -0.124983 -0.075917
v 0.122886 -0.124982 -0.071502
v 0.122886 -0.124982 0.041554
v 0.118034 -0.124983 0.045969
v -0.234836 -0.124982 -0.071502
v -0.229984 -0.124982 -0.075917
v -0.229984 -0.124982 0.045969
v -0.234836 -0.124982 0.041554
v 0.141265 -0.124982 -0.089911
v 0.122516 -0.124983 -0.073192
v 0.140137 -0.124982 -0.091601
v 0.121465 -0.124983 -0.074624
v 0.138447 -0.124982 -0.092730
v 0.119891 -0.124982 -0.075581
v -0.253216 -0.124982 0.059962
v -0.234467 -0.124982 0.043243
v -0.252087 -0.124982 0.061652
v -0.233415 -0.124982 0.044676
v -0.250397 -0.124982 0.062781
v -0.231841 -0.124982 0.045633
v 0.122516 -0.124983 0.043243
v 0.141265 -0.124982 0.059962
v 0.121465 -0.124983 0.044676
v 0.140137 -0.124982 0.061652
v 0.119891 -0.124982 0.045633
v 0.138447 -0.124982 0.062781
v -0.250397 -0.124982 -0.092730
v -0.231841 -0.124982 -0.075581
v -0.252087 -0.124982 -0.091601
v -0.233415 -0.124982 -0.074624
v -0.253216 -0.124982 -0.089911
v -0.234467 -0.124982 -0.073192
v 0.118034 -0.126643 -0.075917
v 0.122886 -0.126643 -0.071502
v 0.122886 -0.126643 0.041554
v 0.118034 -0.126643 0.045969
v -0.234836 -0.126643 -0.071502
v -0.229984 -0.126643 -0.075917
v -0.229984 -0.126643 0.045969
v -0.234836 -0.126643 0.041554
v 0.122517 -0.126643 -0.073192
v 0.121465 -0.126643 -0.074624
v 0.119890 -0.126643 -0.075581
v -0.234467 -0.126643 0.043243
v -0.233415 -0.126643 0.044676
v -0.231841 -0.126643 0.045633
v 0.122517 -0.126643 0.043243
v 0.121465 -0.126643 0.044676
v 0.119890 -0.126643 0.045633
v -0.231841 -0.126643 -0.075581
v -0.233415 -0.126643 -0.074624
v -0.234467 -0.126643 -0.073192
v 0.169357 -0.117509 -0.093126
v 0.169357 -0.117509 0.063178
v 0.141662 -0.134682 0.124747
v 0.141662 -0.134682 -0.158531
v -0.281139 -0.134682 -0.093126
v -0.281139 -0.134682 0.063178
v -0.253612 -0.134682 0.124747
v -0.253612 -0.117509 -0.158531
v 0.169357 -0.138268 -0.093126
v 0.169357 -0.138268 0.063178
v 0.141662 -0.155441 0.124747
v 0.141662 -0.155441 -0.158531
v 0.167696 -0.139929 -0.093126
v 0.167696 -0.139929 0.063178
v 0.141662 -0.157102 0.123086
v 0.141662 -0.157102 -0.156870
v -0.281139 -0.138268 -0.093126
v -0.281139 -0.138268 0.063178
v -0.253612 -0.155441 0.124747
v -0.253612 -0.155441 -0.158531
v -0.279479 -0.139929 -0.093126
v -0.279479 -0.139929 0.063178
v -0.253612 -0.157102 0.123086
v -0.253612 -0.157102 -0.156870
v 0.136454 -0.133286 -0.093126
v 0.141662 -0.133286 -0.087918
v 0.141662 -0.133286 0.057969
v 0.136454 -0.133286 0.063178
v -0.253612 -0.133286 -0.087918
v -0.248404 -0.133286 -0.093126
v -0.248404 -0.133286 0.063178
v -0.253612 -0.133286 0.057969
v 0.118034 -0.133286 -0.075917
v 0.122886 -0.133286 -0.071502
v 0.122886 -0.133286 0.041554
v 0.118034 -0.133286 0.045969
v -0.234836 -0.133286 -0.071502
v -0.229984 -0.133286 -0.075917
v -0.229984 -0.133286 0.045969
v -0.234836 -0.133286 0.041554
v 0.141266 -0.133286 -0.089911
v 0.122517 -0.133286 -0.073192
v 0.140137 -0.133286 -0.091601
v 0.121465 -0.133286 -0.074624
v 0.138447 -0.133286 -0.092730
v 0.119891 -0.133286 -0.075581
v -0.253216 -0.133286 0.059962
v -0.234467 -0.133286 0.043243
v -0.252087 -0.133286 0.061652
v -0.233415 -0.133286 0.044676
v -0.250397 -0.133286 0.062781
v -0.231841 -0.133286 0.045633
v 0.122517 -0.133286 0.043243
v 0.141266 -0.133286 0.059962
v 0.121465 -0.133286 0.044676
v 0.140137 -0.133286 0.061652
v 0.119891 -0.133286 0.045633
v 0.138447 -0.133286 0.062781
v -0.250397 -0.133286 -0.092730
v -0.231841 -0.133286 -0.075581
v -0.252087 -0.133286 -0.091601
v -0.233415 -0.133286 -0.074624
v -0.253216 -0.133286 -0.089911
v -0.234467 -0.133286 -0.073192
v 0.118034 -0.131625 -0.075917
v 0.122886 -0.131625 -0.071502
v 0.122886 -0.131625 0.041554
v 0.118034 -0.131625 0.045969
v -0.234836 -0.131625 -0.071502
v -0.229984 -0.131625 -0.075917
v -0.229984 -0.131625 0.045969
v -0.234836 -0.131625 0.041554
v 0.122517 -0.131625 -0.073192
v 0.121465 -0.131625 -0.074624
v 0.119890 -0.131625 -0.075581
v -0.234467 -0.131625 0.043243
v -0.233415 -0.131625 0.044676
v -0.231841 -0.131625 0.045633
v 0.122517 -0.131625 0.043243
v 0.121465 -0.131625 0.044676
v 0.119890 -0.131625 0.045633
v -0.231841 -0.131625 -0.075581
v -0.233415 -0.131625 -0.074624
v -0.234467 -0.131625 -0.073192
v 0.141662 -0.122491 -0.090522
v 0.139058 -0.122491 -0.093126
v 0.139058 -0.122491 0.063178
v 0.141662 -0.122491 0.060573
v -0.253612 -0.122491 -0.090522
v -0.251008 -0.122491 -0.093126
v -0.253612 -0.122491 0.060573
v -0.251008 -0.122491 0.063178
v 0.156602 -0.112261 -0.093126
v 0.156602 -0.112261 0.063178
v 0.141662 -0.112261 0.078261
v 0.141662 -0.112261 -0.108040
v -0.268385 -0.112262 -0.093126
v -0.268385 -0.112262 0.063178
v -0.253612 -0.112261 0.078261
v -0.253612 -0.112261 -0.108040
v 0.156071 -0.114586 -0.093126
v 0.156071 -0.114586 0.063178
v 0.141662 -0.114587 0.077730
v 0.141662 -0.114587 -0.107508
v -0.267853 -0.114586 -0.093126
v -0.267853 -0.114586 0.063178
v -0.253612 -0.114587 0.077730
v -0.253612 -0.114587 -0.107508
v 0.169357 -0.113922 -0.157817
v 0.168642 -0.113922 -0.158531
v 0.168642 -0.113922 0.124747
v 0.169357 -0.113922 0.124033
v 0.166982 -0.112261 -0.156870
v 0.167696 -0.112261 -0.156156
v 0.167696 -0.112261 0.122372
v 0.166982 -0.112261 0.123086
v -0.281140 -0.113922 -0.157817
v -0.280425 -0.113922 -0.158531
v -0.280425 -0.113922 0.124747
v -0.281140 -0.113922 0.124033
v -0.279479 -0.112262 -0.156156
v -0.278765 -0.112262 -0.156870
v -0.278765 -0.112262 0.123086
v -0.279479 -0.112262 0.122372
v 0.169357 -0.134682 -0.157817
v 0.168642 -0.134682 -0.158531
v 0.169357 -0.134682 0.124033
v 0.168642 -0.134682 0.124747
v -0.281139 -0.134682 -0.157817
v -0.280425 -0.134682 -0.158531
v -0.281139 -0.134682 0.124033
v -0.280425 -0.134682 0.124747
v 0.169357 -0.155441 -0.157817
v 0.168642 -0.155441 -0.158531
v 0.168642 -0.155441 0.124747
v 0.169357 -0.155441 0.124033
v 0.167696 -0.157102 -0.156156
v 0.166982 -0.157102 -0.156870
v 0.166982 -0.157102 0.123086
v 0.167696 -0.157102 0.122372
v -0.281139 -0.155441 -0.157817
v -0.280425 -0.155441 -0.158531
v -0.280425 -0.155441 0.124747
v -0.281139 -0.155441 0.124033
v -0.278765 -0.157102 -0.156870
v -0.279479 -0.157102 -0.156156
v -0.279479 -0.157102 0.122372
v -0.278765 -0.157102 0.123086
v 0.155888 -0.112262 -0.108040
v 0.156602 -0.112261 -0.107326
v 0.156602 -0.112261 0.077547
v 0.155888 -0.112262 0.078261
v -0.268385 -0.112262 -0.107326
v -0.267671 -0.112261 -0.108040
v -0.267671 -0.112261 0.078261
v -0.268385 -0.112262 0.077547
v 0.155356 -0.114586 -0.107508
v 0.156071 -0.114586 -0.106794
v 0.156071 -0.114586 0.077016
v 0.155356 -0.114586 0.077730
v -0.267853 -0.114586 -0.106794
v -0.267139 -0.114586 -0.107508
v -0.267139 -0.114586 0.077730
v -0.267853 -0.114586 0.077016
v 0.136514 -0.113922 -0.093126
v 0.139058 -0.119045 -0.093126
v 0.141662 -0.119045 -0.090522
v 0.141662 -0.113922 -0.087978
v -0.253612 -0.113922 -0.087978
v -0.253612 -0.119045 -0.090522
v -0.251008 -0.119045 -0.093126
v -0.248464 -0.113922 -0.093126
v 0.141662 -0.113922 0.058029
v 0.141662 -0.119045 0.060573
v 0.139058 -0.119045 0.063178
v 0.136514 -0.113922 0.063178
v -0.253612 -0.113922 0.058029
v -0.248464 -0.113922 0.063178
v -0.251008 -0.119045 0.063178
v -0.253612 -0.119045 0.060573
v 0.154499 -0.114586 -0.099889
v 0.149351 -0.114587 -0.105037
v 0.149351 -0.114587 0.075258
v 0.154499 -0.114586 0.070110
v -0.261133 -0.114587 -0.105037
v -0.266282 -0.114586 -0.099889
v -0.266282 -0.114586 0.070110
v -0.261133 -0.114587 0.075258
v 0.140154 -0.113922 0.061670
v 0.152991 -0.114586 -0.103529
v 0.152991 -0.114586 0.073751
v -0.252104 -0.113922 -0.091618
v -0.264774 -0.114586 -0.103529
v -0.264774 -0.114586 0.073751
v 0.140154 -0.113922 -0.091618
v -0.252104 -0.113922 0.061670
v 0.143278 -0.139929 -0.095882
v 0.144417 -0.139929 -0.094731
v 0.143323 -0.139929 -0.093691
v 0.142227 -0.139929 -0.094787
v 0.142227 -0.139929 0.064838
v 0.143323 -0.139929 0.063742
v 0.144417 -0.139929 0.064782
v 0.143278 -0.139929 0.065933
v -0.255228 -0.139929 -0.095882
v -0.254177 -0.139929 -0.094787
v -0.255273 -0.139929 -0.093691
v -0.256367 -0.139929 -0.094731
v -0.255798 -0.139929 0.065358
v -0.255273 -0.139929 0.063742
v -0.254177 -0.139929 0.064838
v 0.141662 -0.138268 -0.092030
v 0.141662 -0.137511 -0.092334
v 0.140870 -0.137510 -0.093126
v 0.140566 -0.138268 -0.093126
v -0.252516 -0.138268 -0.093126
v -0.252820 -0.137511 -0.093126
v -0.253612 -0.137511 -0.092334
v -0.253612 -0.138268 -0.092030
v 0.140566 -0.138268 0.063178
v 0.140870 -0.137510 0.063178
v 0.141662 -0.137511 0.062385
v 0.141662 -0.138268 0.062081
v -0.253612 -0.138268 0.062081
v -0.253612 -0.137511 0.062385
v -0.252820 -0.137511 0.063178
v -0.252516 -0.138268 0.063178
v -0.254952 -0.139929 -0.094466
v -0.253291 -0.138268 -0.092805
v 0.141341 -0.138268 -0.092805
v 0.143002 -0.139929 -0.094466
v 0.143002 -0.139929 0.064517
v 0.141341 -0.138268 0.062856
v -0.253291 -0.138268 0.062856
v -0.254952 -0.139929 0.064517
v 0.166866 -0.144711 0.108716
v -0.261945 -0.144711 0.108716
v 0.166866 -0.149348 0.108716
v -0.261945 -0.149348 0.108716
v 0.166866 -0.127538 0.091328
v -0.261945 -0.127538 0.095088
v 0.166866 -0.132174 0.091211
v -0.261945 -0.132175 0.094971
v -0.269891 -0.112261 0.082020
v -0.273722 -0.112261 0.104107
v -0.274610 -0.112262 0.104107
v -0.270799 -0.112262 0.082020
v 0.161214 -0.112262 0.104107
v 0.157615 -0.112262 0.082020
v 0.158500 -0.112261 0.082020
v 0.162104 -0.112261 0.104107
v 0.167696 -0.112261 0.104107
v 0.167696 -0.112261 0.082020
v 0.169357 -0.113922 0.082020
v 0.169357 -0.113922 0.104107
v -0.279479 -0.112262 0.082020
v -0.279479 -0.112262 0.104107
v -0.281140 -0.113922 0.104107
v -0.281140 -0.113922 0.082020
v 0.167696 -0.139929 0.082020
v 0.167696 -0.157102 0.104107
v 0.169357 -0.155441 0.104107
v 0.169357 -0.138268 0.082020
v -0.279479 -0.157102 0.104107
v -0.279479 -0.139929 0.082020
v -0.281139 -0.138268 0.082020
v -0.281139 -0.155441 0.104107
v 0.169357 -0.134682 0.104107
v 0.169357 -0.117509 0.082020
v -0.281139 -0.134682 0.082020
v -0.281139 -0.134682 0.104107
v -0.253612 -0.112261 0.082020
v -0.253612 -0.112261 0.104107
v 0.141662 -0.112261 0.104107
v 0.141662 -0.112261 0.082020
v 0.142576 -0.139929 0.082020
v 0.142226 -0.157102 0.104107
v -0.254290 -0.157102 0.104107
v -0.254753 -0.139929 0.082020
v 0.160971 -0.112261 -0.109095
v 0.165088 -0.112261 -0.136533
v 0.165948 -0.112261 -0.136533
v 0.161852 -0.112261 -0.109095
v -0.277410 -0.112262 -0.136533
v -0.273466 -0.112262 -0.109095
v -0.274358 -0.112262 -0.109095
v -0.278254 -0.112262 -0.136533
v 0.167696 -0.112261 -0.109095
v 0.167696 -0.112261 -0.136533
v 0.169357 -0.113922 -0.136533
v 0.169357 -0.113922 -0.109095
v -0.279479 -0.112262 -0.136533
v -0.279479 -0.112262 -0.109095
v -0.281140 -0.113922 -0.109095
v -0.281140 -0.113922 -0.136533
v 0.167696 -0.157102 -0.136533
v 0.167696 -0.139929 -0.109095
v 0.169357 -0.138268 -0.109095
v 0.169357 -0.155441 -0.136533
v -0.279479 -0.139929 -0.109095
v -0.279479 -0.157102 -0.136533
v -0.281139 -0.155441 -0.136533
v -0.281139 -0.138268 -0.109095
v 0.169357 -0.117509 -0.109095
v 0.169357 -0.134682 -0.136533
v -0.281139 -0.134682 -0.136533
v -0.281139 -0.134682 -0.109095
v 0.141662 -0.112261 -0.109095
v 0.141662 -0.112261 -0.136533
v -0.253612 -0.112261 -0.136533
v -0.253612 -0.112261 -0.109095
v 0.141971 -0.157102 -0.136533
v 0.142432 -0.139929 -0.109095
v -0.254312 -0.139929 -0.109095
v -0.253876 -0.157102 -0.136533
v 0.143322 -0.112262 -0.089638
v 0.138174 -0.112262 -0.094787
v 0.138174 -0.112262 0.064838
v 0.143322 -0.112262 0.059690
v -0.250124 -0.112262 -0.094787
v -0.255273 -0.112262 -0.089638
v -0.255273 -0.112262 0.059690
v -0.250124 -0.112262 0.064838
v 0.148819 -0.112261 -0.104505
v 0.153967 -0.112261 -0.099357
v 0.153967 -0.112261 0.069579
v 0.148819 -0.112261 0.074727
v -0.265750 -0.112261 -0.099357
v -0.260602 -0.112262 -0.104505
v -0.260602 -0.112262 0.074727
v -0.265750 -0.112261 0.069579
v 0.147375 -0.110335 -0.093691
v 0.142227 -0.110335 -0.098839
v 0.142227 -0.110335 0.068891
v 0.147375 -0.110335 0.063742
v -0.254177 -0.110335 -0.098839
v -0.259325 -0.110335 -0.093691
v -0.259325 -0.110335 0.063742
v -0.254177 -0.110335 0.068891
v 0.144767 -0.110335 -0.100453
v 0.149915 -0.110335 -0.095305
v 0.149915 -0.110335 0.065526
v 0.144767 -0.110335 0.070675
v -0.261698 -0.110335 -0.095305
v -0.256550 -0.110335 -0.100453
v -0.256550 -0.110335 0.070675
v -0.261698 -0.110335 0.065526
v -0.257817 -0.110335 0.067383
v -0.260190 -0.110335 0.069167
v 0.148407 -0.110335 -0.098945
v 0.145867 -0.110335 -0.097331
v 0.148407 -0.110335 0.069167
v 0.145867 -0.110335 0.067383
v 0.152459 -0.112261 0.073219
v 0.141815 -0.112261 0.063330
v -0.260190 -0.110335 -0.098945
v -0.264242 -0.112261 -0.102998
v 0.152459 -0.112261 -0.102998
v -0.257817 -0.110335 -0.097331
v -0.264242 -0.112261 0.073219
v -0.253765 -0.112262 -0.093279
v 0.141815 -0.112261 -0.093279
v -0.253765 -0.112262 0.063330
v 0.140154 -0.113922 0.061670
v 0.136514 -0.113922 0.063178
v 0.141662 -0.113922 0.058029
v 0.154499 -0.114586 -0.099889
v 0.152991 -0.114586 -0.103529
v 0.149351 -0.114587 -0.105037
v 0.152991 -0.114586 0.073751
v 0.154499 -0.114586 0.070110
v 0.149351 -0.114587 0.075258
v -0.252104 -0.113922 -0.091618
v -0.248464 -0.113922 -0.093126
v -0.253612 -0.113922 -0.087978
v -0.264774 -0.114586 -0.103529
v -0.266282 -0.114586 -0.099889
v -0.261133 -0.114587 -0.105037
v -0.266282 -0.114586 0.070110
v -0.264774 -0.114586 0.073751
v -0.261133 -0.114587 0.075258
v 0.140154 -0.113922 -0.091618
v 0.141662 -0.113922 -0.087978
v 0.136514 -0.113922 -0.093126
v -0.248464 -0.113922 0.063178
v -0.252104 -0.113922 0.061670
v -0.253612 -0.113922 0.058029
v -0.269632 -0.132306 0.060543
v 0.140504 -0.132306 0.061528
v -0.269632 -0.132306 -0.122701
v 0.140504 -0.132306 -0.123686
v -0.269632 -0.131968 0.060543
v 0.140504 -0.131968 0.061528
v -0.269632 -0.131968 -0.122701
v 0.140504 -0.131968 -0.123686
vn 0.0033 0.6702 0.7422
vn -0.0032 -0.6730 -0.7397
vn -0.0000 -1.0000 -0.0000
vn -0.0000 1.0000 -0.0000
vt 1.574540 -1.792595
vt 1.574540 0.261808
vt 1.492266 0.261808
vt 1.492266 -1.792595
vt 1.608877 0.261808
vt 1.608875 -1.792595
vt 1.691152 -1.792595
vt 1.691152 0.261808
vt 6.535922 2.852125
vt 8.462845 2.852125
vt 8.473198 -1.448468
vt 6.525568 -1.448468
vt 8.473197 -1.448468
s 1
usemtl M_MicrowaveDoorC9_7
f 468/1/1 469/2/1 465/3/1 464/4/1
f 471/5/2 470/6/2 466/7/2 467/8/2
f 616/9/3 618/10/3 619/11/3 617/12/3
f 621/12/4 623/13/4 622/10/4 620/9/4
