# Blender 4.1.0
# www.blender.org
mtllib ChairmeshChair_204_0_GeomSubset_0.mtl
o ChairmeshChair_204_0_GeomSubset_0
v 0.242064 0.291511 0.475887
v 0.000182 0.301108 0.471911
v -0.000318 0.322888 0.465673
v 0.243030 0.324794 0.466971
v 0.243593 0.338824 0.459522
v -0.000768 0.336649 0.457961
v 0.000458 0.284207 0.465962
v 0.231732 0.267586 0.469656
v -0.247958 0.323248 0.465255
v -0.245102 0.324407 0.468832
v -0.242967 0.291187 0.477251
v -0.245820 0.290023 0.473679
v -0.246240 0.338401 0.461592
v -0.262061 0.261954 0.194039
v -0.261098 0.229798 0.199382
v -0.259618 0.276635 0.191736
v -0.234376 0.266270 0.467729
v -0.231988 0.267244 0.470722
v -0.249621 0.210531 0.202803
v 0.258415 0.227460 -0.092807
v 0.255436 0.218728 -0.111304
v 0.251411 0.217631 -0.070223
v 0.254365 0.218276 -0.066532
v 0.243122 0.200491 -0.050949
v 0.240647 0.199958 -0.054043
v 0.187122 0.165591 -0.017411
v 0.193408 0.199061 0.205002
v 0.000782 0.172822 -0.017158
v 0.000797 0.194767 0.207012
v 0.251082 0.211503 0.202750
v 0.180200 0.234536 0.411920
v 0.234121 0.266602 0.466666
v 0.000666 0.278378 0.190510
v -0.256617 0.233799 -0.111603
v 0.001166 0.234668 -0.108578
v -0.185727 0.164880 -0.017410
v -0.191838 0.198465 0.205013
v -0.239652 0.199202 -0.054160
v -0.242130 0.199740 -0.051070
v 0.000744 0.199963 -0.053272
v -0.253776 0.217498 -0.066706
v -0.250817 0.216853 -0.070395
v 0.000731 0.217537 -0.068850
v 0.000982 0.218681 -0.108964
v -0.255575 0.217898 -0.111537
v -0.258583 0.226627 -0.093044
v 0.256033 0.234652 -0.111344
v 0.262495 0.263330 0.193407
v 0.262261 0.231156 0.199173
v 0.245886 0.323641 0.463395
v 0.259657 0.277998 0.190916
v 0.244917 0.290351 0.472314
v -0.179853 0.233854 0.412777
v 0.000580 0.249498 0.409004
v 0.260055 0.233091 -0.061284
v 0.000346 0.231919 -0.072129
v -0.000171 0.232649 -0.095111
v 0.261141 0.234826 -0.096209
v 0.261771 0.231844 -0.112098
v -0.000640 0.229311 -0.110826
v 0.000607 0.243043 -0.066054
v 0.248951 0.214398 -0.055296
v -0.266105 0.232085 -0.095927
v -0.263041 0.236066 -0.095907
v -0.260797 0.233849 -0.061198
v -0.263856 0.229869 -0.061214
v -0.264239 0.233276 -0.111698
v -0.261566 -0.077340 -0.080112
v -0.260648 -0.077904 -0.045536
v -0.263717 -0.334296 -0.068160
v -0.259103 -0.076934 -0.095868
v -0.261695 -0.335314 -0.084003
v -0.260648 -0.338272 -0.068153
v -0.261840 -0.332458 -0.033304
v -0.249833 -0.319015 -0.012201
v -0.247265 -0.322344 -0.012198
v -0.258773 -0.336432 -0.033299
v -0.249199 -0.077992 -0.024765
v -0.251577 0.211543 -0.055269
v 0.265111 -0.333283 -0.068227
v 0.262057 -0.337272 -0.068224
v 0.260933 -0.335509 -0.033339
v 0.263987 -0.331525 -0.033340
v 0.262686 -0.334282 -0.084089
v 0.262905 -0.077168 -0.080892
v 0.262627 -0.077277 -0.046224
v 0.264212 0.230858 -0.096223
v 0.260088 -0.076974 -0.096679
v 0.263124 0.229119 -0.061294
v 0.252307 -0.318166 -0.012249
v 0.249750 -0.321506 -0.012259
v 0.251520 0.211070 -0.055292
v 0.251422 -0.077292 -0.025053
v 0.001141 -0.077633 -0.097530
v 0.001999 -0.331689 -0.083980
v 0.001155 -0.077644 0.000162
v 0.001401 -0.252611 0.000812
v -0.191610 -0.253275 0.001445
v -0.191442 -0.077915 -0.011670
v 0.001497 -0.320983 -0.012464
v 0.194215 -0.252702 0.001258
v 0.000775 0.180810 -0.029497
v -0.192999 0.156523 -0.020215
v -0.249015 0.214872 -0.055258
v 0.001528 -0.334388 -0.033361
v 0.001790 -0.335132 -0.068128
v 0.193740 -0.077373 -0.011728
v 0.193645 0.156260 -0.020655
v -0.307288 -0.300236 -0.076055
v -0.307299 -0.293121 -0.075786
v -0.307299 -0.293121 0.013183
v -0.307288 -0.300236 0.014438
v -0.307341 -0.263221 0.095330
v -0.307332 -0.269480 0.098943
v -0.307420 -0.207030 0.162296
v -0.307413 -0.211675 0.167832
v -0.303212 -0.304302 -0.076209
v -0.303212 -0.304302 0.015156
v -0.303256 -0.273054 0.101010
v -0.303338 -0.214326 0.170999
v -0.303252 -0.275389 -0.458209
v -0.307329 -0.271400 -0.457038
v -0.303233 -0.289043 0.012465
v -0.303233 -0.289043 -0.075632
v -0.303275 -0.259636 0.093263
v -0.303352 -0.204367 0.159130
v -0.307339 -0.264419 -0.454990
v -0.303273 -0.260418 -0.453818
v -0.307526 -0.131323 0.206006
v -0.307523 -0.133794 0.212796
v -0.307648 -0.044253 0.221358
v -0.307648 -0.044876 0.228475
v -0.308076 0.259645 0.200959
v -0.308076 0.259645 0.208075
v -0.303450 -0.135202 0.216680
v -0.303576 -0.045227 0.232546
v -0.303457 -0.129903 0.202121
v -0.303578 -0.043892 0.217288
v -0.261838 -0.268112 -0.471576
v -0.261856 -0.255299 -0.481375
v -0.303281 -0.255357 -0.481375
v -0.303263 -0.268171 -0.471576
v -0.303726 0.061478 -0.481967
v -0.262307 0.065608 -0.481975
v -0.307338 -0.265010 -0.468873
v -0.307346 -0.259474 -0.464148
v -0.307354 -0.253982 -0.477306
v -0.307357 -0.251566 -0.470194
v -0.307797 0.061480 -0.477896
v -0.303279 -0.256301 -0.461445
v -0.303288 -0.250180 -0.466126
v -0.307797 0.061494 -0.470780
v -0.303726 0.061507 -0.466709
v -0.308055 0.244619 -0.478238
v -0.308055 0.244633 -0.471122
v -0.307861 0.107005 -0.470865
v -0.307861 0.106992 -0.477981
v -0.303984 0.244617 -0.482309
v -0.303989 0.248695 -0.478246
v -0.303790 0.106990 -0.482052
v -0.303790 0.107018 -0.466794
v -0.303984 0.244645 -0.467051
v -0.258294 0.107061 -0.477981
v -0.000135 0.107424 -0.477981
v -0.000135 0.107437 -0.470865
v -0.258294 0.107074 -0.470865
v -0.000130 0.103346 -0.482045
v -0.262359 0.102977 -0.482045
v -0.261808 -0.288985 -0.075632
v -0.261849 -0.260360 -0.453818
v -0.261808 -0.288985 0.012465
v -0.261850 -0.259578 0.093263
v -0.261927 -0.204309 0.159130
v -0.262032 -0.129845 0.202121
v -0.262153 -0.043833 0.217288
v -0.262580 0.259709 0.196888
v -0.304005 0.259650 0.196888
v -0.261854 -0.256243 -0.461445
v -0.261863 -0.250121 -0.466126
v -0.262307 0.065636 -0.466716
v -0.262359 0.103005 -0.466786
v -0.000077 0.066004 -0.466717
v -0.000130 0.103374 -0.466787
v -0.262559 0.244703 -0.467051
v -0.261913 -0.214268 0.170999
v -0.261831 -0.272996 0.101010
v -0.261787 -0.304244 0.015156
v -0.261787 -0.304244 -0.076209
v -0.261828 -0.275331 -0.458209
v -0.257722 -0.300166 -0.076055
v -0.257731 -0.293051 -0.075786
v -0.257772 -0.264349 -0.454990
v -0.257762 -0.271331 -0.457038
v -0.257722 -0.300166 0.014438
v -0.257731 -0.293051 0.013183
v -0.257765 -0.269410 0.098943
v -0.257774 -0.263152 0.095330
v -0.257787 -0.253912 -0.477306
v -0.257790 -0.251497 -0.470194
v -0.258230 0.061563 -0.470780
v -0.258230 0.061550 -0.477896
v -0.257771 -0.264940 -0.468873
v -0.257779 -0.259405 -0.464148
v -0.258081 -0.044807 0.228475
v -0.258081 -0.044184 0.221358
v -0.257959 -0.131253 0.206006
v -0.257955 -0.133724 0.212796
v -0.257853 -0.206960 0.162296
v -0.257846 -0.211605 0.167832
v -0.262025 -0.135145 0.216680
v -0.262151 -0.045169 0.232546
v -0.262580 0.259709 0.212146
v -0.258509 0.259715 0.208075
v -0.258509 0.259715 0.200959
v -0.258488 0.244702 -0.471122
v -0.258488 0.244688 -0.478238
v -0.262559 0.244675 -0.482309
v -0.262564 0.248754 -0.478246
v -0.304005 0.259650 0.212146
v -0.262564 0.248767 -0.471130
v -0.303989 0.248709 -0.471130
v -0.262586 0.263780 0.200959
v -0.262586 0.263780 0.208075
v -0.000077 0.065976 -0.481975
v -0.304011 0.263722 0.208075
v -0.304011 0.263722 0.200959
v 0.262153 0.066345 -0.481975
v 0.262100 0.103715 -0.482045
v 0.303520 0.107844 -0.482052
v 0.303326 0.245471 -0.482309
v 0.261901 0.245413 -0.482309
v 0.303584 0.062332 -0.481967
v 0.258088 0.062289 -0.470780
v 0.258088 0.062275 -0.477896
v -0.000071 0.061913 -0.477896
v -0.000071 0.061926 -0.470780
v 0.262153 0.066373 -0.466716
v 0.308122 -0.270535 -0.457038
v 0.308163 -0.299371 -0.076055
v 0.308153 -0.292255 -0.075786
v 0.308113 -0.263553 -0.454990
v 0.308113 -0.264144 -0.468873
v 0.308106 -0.258609 -0.464148
v 0.308098 -0.253117 -0.477306
v 0.308095 -0.250702 -0.470194
v 0.304057 -0.274535 -0.458209
v 0.304047 -0.267317 -0.471576
v 0.304029 -0.254504 -0.481375
v 0.307654 0.062345 -0.477896
v 0.304031 -0.255447 -0.461445
v 0.304036 -0.259565 -0.453818
v 0.304022 -0.249326 -0.466126
v 0.303584 0.062361 -0.466709
v 0.307654 0.062359 -0.470780
v 0.308163 -0.299371 0.014438
v 0.308120 -0.268614 0.098943
v 0.308111 -0.262356 0.095330
v 0.308153 -0.292255 0.013183
v 0.308032 -0.206165 0.162296
v 0.308038 -0.210809 0.167832
v 0.304098 -0.303448 0.015156
v 0.304098 -0.303448 -0.076209
v 0.304054 -0.272200 0.101010
v 0.303971 -0.213472 0.170999
v 0.304077 -0.288189 -0.075632
v 0.304077 -0.288189 0.012465
v 0.304035 -0.258783 0.093263
v 0.303958 -0.203513 0.159130
v 0.307929 -0.132929 0.212796
v 0.307925 -0.130458 0.206006
v 0.307803 -0.043388 0.221358
v 0.307804 -0.044011 0.228475
v 0.307376 0.260510 0.200959
v 0.307376 0.260510 0.208075
v 0.303860 -0.134349 0.216680
v 0.303734 -0.044373 0.232546
v 0.303853 -0.129049 0.202121
v 0.303732 -0.043038 0.217288
v 0.262622 -0.267375 -0.471576
v 0.262604 -0.254562 -0.481375
v 0.262673 -0.303507 -0.076209
v 0.262673 -0.303507 0.015156
v 0.262629 -0.272258 0.101010
v 0.262546 -0.213531 0.170999
v 0.262632 -0.274593 -0.458209
v 0.307397 0.245484 -0.478238
v 0.307590 0.107857 -0.477981
v 0.307590 0.107871 -0.470865
v 0.307397 0.245498 -0.471122
v 0.303320 0.249549 -0.478246
v 0.303326 0.245499 -0.467051
v 0.303520 0.107872 -0.466794
v 0.262651 -0.288248 -0.075632
v 0.262611 -0.259623 -0.453818
v 0.262651 -0.288248 0.012465
v 0.262610 -0.258841 0.093263
v 0.262532 -0.203571 0.159130
v 0.262428 -0.129107 0.202121
v 0.262307 -0.043096 0.217288
v 0.261880 0.260446 0.196888
v 0.303305 0.260505 0.196888
v 0.262606 -0.255506 -0.461445
v 0.262597 -0.249384 -0.466126
v 0.262100 0.103743 -0.466786
v 0.261901 0.245440 -0.467051
v 0.258531 -0.253186 -0.477306
v 0.258528 -0.250771 -0.470194
v 0.258547 -0.264215 -0.468873
v 0.258539 -0.258678 -0.464148
v 0.258556 -0.270605 -0.457038
v 0.258546 -0.263623 -0.454990
v 0.258596 -0.299441 -0.076055
v 0.258586 -0.292325 -0.075786
v 0.258237 -0.044081 0.228475
v 0.258362 -0.132999 0.212796
v 0.258359 -0.130528 0.206006
v 0.258236 -0.043458 0.221358
v 0.258465 -0.206234 0.162296
v 0.258472 -0.210879 0.167832
v 0.258544 -0.262426 0.095330
v 0.258553 -0.268684 0.098943
v 0.262435 -0.134407 0.216680
v 0.262309 -0.044431 0.232546
v 0.257809 0.260441 0.208075
v 0.261880 0.260446 0.212146
v 0.257809 0.260441 0.200959
v 0.303305 0.260505 0.212146
v 0.258024 0.107787 -0.477981
v 0.257830 0.245414 -0.478238
v 0.257830 0.245428 -0.471122
v 0.258023 0.107801 -0.470865
v 0.261895 0.249491 -0.478246
v 0.261874 0.264518 0.208075
v 0.261874 0.264518 0.200959
v 0.303320 0.249563 -0.471130
v 0.261895 0.249505 -0.471130
v 0.258596 -0.299441 0.014438
v 0.258586 -0.292325 0.013183
v 0.303299 0.264576 0.208075
v 0.303299 0.264576 0.200959
vn -0.0515 0.0198 0.9985
vn 0.0032 0.3401 0.9404
vn 0.0026 0.0321 0.9995
vn -0.0475 0.3411 0.9388
vn 0.0826 0.9769 -0.1970
vn -0.0003 0.9827 -0.1850
vn 0.0030 -0.7375 0.6754
vn -0.1543 -0.6844 0.7126
vn -0.9927 0.0379 0.1143
vn 0.0590 0.0144 0.9982
vn 0.0548 0.3504 0.9350
vn -0.9661 -0.1940 0.1705
vn -0.0805 0.9783 -0.1907
vn -0.9999 0.0061 0.0157
vn -0.9605 -0.2736 0.0503
vn -0.0703 0.9787 -0.1928
vn -0.4823 -0.8283 0.2851
vn 0.1216 -0.7586 0.6401
vn -0.5441 -0.8293 0.1274
vn 0.9998 0.0198 -0.0055
vn -0.0256 -0.9646 -0.2626
vn 0.1417 -0.9807 -0.1348
vn 0.9569 -0.2903 0.0038
vn 0.5705 -0.8188 0.0635
vn -0.0588 -0.7631 -0.6436
vn 0.0523 -0.9986 -0.0117
vn 0.0702 -0.9848 0.1591
vn 0.0019 -0.9999 -0.0150
vn 0.0018 -0.9862 0.1656
vn 0.5526 -0.8248 0.1199
vn 0.0125 -0.9493 0.3141
vn 0.5259 -0.8102 0.2589
vn -0.0023 0.9846 -0.1750
vn -0.0746 0.9804 -0.1823
vn -0.0010 0.9786 -0.2060
vn -0.0640 -0.9979 -0.0059
vn -0.0670 -0.9843 0.1632
vn 0.0304 -0.7195 -0.6939
vn -0.5927 -0.8013 0.0807
vn 0.0013 -0.7273 -0.6863
vn -0.9447 -0.3271 0.0252
vn 0.0274 -0.9645 -0.2628
vn 0.0024 -0.9684 -0.2495
vn -0.0018 -0.9595 -0.2819
vn -0.1374 -0.9813 -0.1347
vn -0.9996 -0.0126 0.0260
vn 0.1672 0.9809 -0.0994
vn 0.9992 0.0375 0.0143
vn 0.9674 -0.2487 0.0489
vn 0.9909 0.0742 0.1123
vn 0.0624 0.9811 -0.1833
vn 0.9699 -0.1738 0.1707
vn -0.0090 -0.9493 0.3141
vn 0.0026 -0.9461 0.3239
vn 0.0060 0.9876 0.1568
vn 0.0023 0.9986 -0.0525
vn -0.0005 0.9784 0.2069
vn 0.0092 0.9987 -0.0496
vn 0.0879 0.0085 -0.9961
vn -0.0028 0.0252 -0.9997
vn 0.0018 0.5615 0.8275
vn -0.0263 0.5966 0.8021
vn -0.9995 -0.0255 -0.0194
vn -0.0040 0.9863 0.1650
vn -0.0052 0.9995 -0.0309
vn -0.9678 -0.0182 0.2511
vn -0.0234 0.0794 -0.9966
vn -0.9996 -0.0057 -0.0260
vn -0.9655 0.0133 0.2599
vn -0.9995 0.0157 -0.0287
vn -0.0742 -0.0534 -0.9958
vn -0.0638 -0.0998 -0.9930
vn -0.0051 -0.9994 -0.0348
vn -0.9708 0.0226 0.2387
vn -0.5279 0.0691 0.8465
vn 0.0405 -0.4644 0.8847
vn 0.0006 -0.9687 0.2484
vn -0.5018 0.0559 0.8632
vn -0.5049 -0.0075 0.8631
vn 0.9990 0.0157 -0.0429
vn 0.0034 -0.9685 0.2488
vn 0.0090 -0.9993 -0.0375
vn 0.9752 0.0219 0.2204
vn 0.0522 -0.1088 -0.9927
vn 0.9988 -0.0015 -0.0497
vn 0.9707 0.0168 0.2397
vn 0.9984 -0.0159 -0.0536
vn 0.0691 -0.0482 -0.9964
vn 0.9736 -0.0097 0.2282
vn 0.5425 0.0720 0.8370
vn -0.0445 -0.4886 0.8714
vn 0.5046 -0.0055 0.8634
vn 0.5089 0.0553 0.8591
vn -0.0010 -0.0486 -0.9988
vn -0.0013 -0.0816 -0.9967
vn 0.0005 0.0597 0.9982
vn -0.0635 -0.0018 0.9980
vn 0.0003 -0.0142 0.9999
vn -0.0690 0.0592 0.9959
vn 0.0011 -0.4564 0.8898
vn 0.0650 -0.0008 0.9979
vn 0.0011 0.1357 0.9908
vn -0.0636 0.1380 0.9884
vn 0.0181 0.6070 0.7945
vn 0.0017 -0.9985 -0.0545
vn 0.0018 -0.9649 0.2625
vn 0.0696 0.0584 0.9959
vn 0.0643 0.1387 0.9882
vt 0.677747 1.182758
vt 0.700049 1.330018
vt 0.684735 1.329726
vt 0.701149 1.182142
vt 0.711013 1.181788
vt 0.709724 1.330285
vt 0.672851 1.329569
vt 0.660937 1.189056
vt -0.255273 0.225758
vt -0.245132 0.248307
vt -0.252250 0.224947
vt -0.248152 0.249120
vt -0.258370 0.215107
vt -0.484559 0.284863
vt -0.480042 0.307473
vt -0.486505 0.274543
vt -0.253182 0.265834
vt -0.250652 0.265151
vt -0.477149 0.321030
vt 0.947934 1.159118
vt 0.967026 1.161819
vt 0.944810 1.161095
vt 0.970147 1.159843
vt 0.983321 1.167378
vt 0.980705 1.169033
vt 1.011673 1.204851
vt 1.199700 1.210853
vt 1.011887 1.329432
vt 1.201399 1.329438
vt 1.197796 1.175334
vt 1.374628 1.220400
vt 1.420910 1.187606
vt 1.187449 -0.345544
vt 0.944557 -0.175495
vt 1.188485 -0.185298
vt 0.947114 -0.345873
vt 1.201399 -0.345552
vt 1.011674 -0.220851
vt 1.011887 -0.345558
vt 1.199709 -0.226960
vt 0.980606 -0.184830
vt 0.983218 -0.183173
vt 0.981356 -0.345558
vt 1.197841 -0.191396
vt 1.011673 -0.470139
vt 0.980705 -0.505958
vt 0.969999 -0.175404
vt 0.966881 -0.177381
vt 0.968187 -0.345567
vt 0.946788 -0.345736
vt 0.944613 -0.176167
vt 0.944810 -0.513895
vt 0.967026 -0.513171
vt 0.947734 -0.174188
vt 0.947934 0.322739
vt 0.944810 0.323193
vt 0.944776 0.311998
vt 1.189898 0.284415
vt 0.970146 0.329192
vt 1.194773 0.307036
vt 1.418145 0.225972
vt 1.187792 0.274098
vt 1.414870 0.215293
vt 1.425684 0.249377
vt 1.420910 0.266062
vt 1.197796 0.320843
vt 0.983320 0.341687
vt 0.944613 0.323273
vt 0.947734 0.322816
vt 0.944557 0.312090
vt 1.188485 0.274543
vt 1.190432 0.284863
vt 1.194949 0.307473
vt 0.969999 0.329239
vt 0.983218 0.341736
vt 1.197841 0.321030
vt -0.253822 0.225157
vt -0.256846 0.225972
vt -0.260120 0.215293
vt -0.249306 0.249377
vt -0.246285 0.248559
vt -0.251553 0.265369
vt -0.254080 0.266062
vt -0.253182 -0.202687
vt -0.299638 -0.235793
vt -0.250652 -0.204139
vt -0.254675 -0.345421
vt -0.302828 -0.345467
vt -0.475281 -0.226960
vt -0.473591 -0.345552
vt -0.477149 -0.191395
vt 0.614570 -0.345873
vt 0.603112 -0.513895
vt 0.603331 -0.345736
vt 0.614308 -0.514304
vt 0.614216 -0.175495
vt 0.603033 -0.176167
vt 0.709724 -0.344705
vt 0.701359 -0.196220
vt 0.700049 -0.344972
vt 0.711199 -0.195539
vt 0.684735 -0.345265
vt 0.677999 -0.197488
vt 0.661155 -0.204139
vt 0.672851 -0.345421
vt -0.254080 1.187606
vt -0.251553 1.189056
vt -0.300363 1.220400
vt -0.302828 1.329523
vt -0.254675 1.329569
vt -0.473591 1.329438
vt -0.475290 1.210853
vt 1.187792 1.169997
vt 0.947114 1.329117
vt 1.187449 1.329446
vt 0.944776 1.160686
vt -0.260120 1.181788
vt -0.487542 1.329447
vt -0.261440 1.330285
vt -0.487199 1.169998
vt -0.261440 -0.344705
vt -0.486505 -0.185298
vt -0.258370 -0.195539
vt -0.487542 -0.345544
vt 0.969231 1.156025
vt 0.942745 1.330012
vt 0.960740 1.329667
vt 0.941885 1.155297
vt 0.929444 1.154878
vt 0.930440 1.330330
vt 0.965496 1.329481
vt 0.973920 1.163466
vt 0.942105 0.322210
vt 0.969298 0.321110
vt 0.942122 0.319721
vt 0.969286 0.323597
vt 0.929757 0.321465
vt 0.942489 0.515939
vt 0.969561 0.516293
vt 0.942028 0.709521
vt 0.930151 0.515684
vt 0.929623 0.710162
vt 0.942034 0.712015
vt 0.969320 0.708373
vt 0.985843 0.699967
vt 0.985845 0.702053
vt 0.969324 0.710864
vt 0.985825 0.516357
vt 0.973940 0.335084
vt 0.941975 0.709354
vt 0.969293 0.710743
vt 0.941978 0.711849
vt 0.969292 0.708251
vt 0.929556 0.709977
vt 0.941878 0.516293
vt 0.969022 0.516358
vt 0.941874 0.323444
vt 0.929516 0.516168
vt 0.929443 0.322825
vt 0.941885 0.320955
vt 0.969223 0.324531
vt 0.969231 0.322043
vt 0.985806 0.699879
vt 0.985798 0.701966
vt 0.973922 0.335820
vt 0.985599 0.516359
vt 0.409952 -0.345563
vt 0.216144 -0.169589
vt 0.410622 -0.171565
vt 0.218184 -0.345899
vt 0.602126 -0.344661
vt 0.604840 -0.168423
vt 0.409946 -0.345573
vt 0.267445 -0.216526
vt 0.267691 -0.345573
vt 0.409947 -0.216802
vt 0.224253 -0.179250
vt 0.226339 -0.177535
vt 0.224884 -0.345573
vt 0.409949 -0.178187
vt 0.267467 -0.474489
vt 0.224339 -0.511555
vt 0.571759 -0.345562
vt 0.556725 -0.215982
vt 0.610724 -0.345509
vt 0.593306 -0.178584
vt 0.591222 -0.176869
vt 0.605196 -0.170725
vt 0.602709 -0.168676
vt 0.969324 -0.171541
vt 0.942053 -0.345755
vt 0.969275 -0.345581
vt 0.942034 -0.170286
vt 0.941978 -0.519767
vt 0.929641 -0.345899
vt 0.929556 -0.520190
vt 0.969293 -0.519018
vt 0.929623 -0.169589
vt 0.985798 -0.511555
vt 0.985637 -0.345573
vt 0.985845 -0.179250
vt 0.226427 1.161723
vt 0.267467 1.200501
vt 0.224340 1.163435
vt 0.409947 1.200655
vt 0.267691 1.329417
vt 0.409947 1.329417
vt 0.556220 1.200498
vt 0.409947 1.162089
vt 0.590486 1.161752
vt 0.592571 1.163466
vt 0.571759 1.329429
vt 0.610725 1.329481
vt 0.601775 1.153977
vt 0.604263 1.156025
vt 0.930440 -0.344661
vt 0.942122 -0.169227
vt 0.942745 -0.344979
vt 0.929757 -0.168423
vt 0.960740 -0.345324
vt 0.969298 -0.170725
vt 0.973949 -0.178584
vt 0.965496 -0.345509
vt 0.410138 1.156293
vt 0.218184 1.329092
vt 0.409952 1.329427
vt 0.216329 1.154800
vt 0.603481 1.154878
vt 0.602126 1.330330
s 1
usemtl M_Chair_204_0
f 1/1/1 3/2/2 2/3/3
f 1/1/1 4/4/4 3/2/2
f 5/5/5 3/2/2 4/4/4
f 5/5/5 6/6/6 3/2/2
f 1/1/1 2/3/3 7/7/7
f 1/1/1 7/7/7 8/8/8
f 9/9/9 11/10/10 10/11/11
f 9/9/9 12/12/12 11/10/10
f 10/11/11 13/13/13 9/9/9
f 12/12/12 9/9/9 14/14/14
f 13/13/13 14/14/14 9/9/9
f 12/12/12 14/14/14 15/15/15
f 13/13/13 16/16/16 14/14/14
f 11/10/10 12/12/12 17/17/17
f 11/10/10 17/17/17 18/18/18
f 12/12/12 19/19/19 17/17/17
f 12/12/12 15/15/15 19/19/19
f 20/20/20 22/21/21 21/22/22
f 20/20/20 23/23/23 22/21/21
f 22/21/21 23/23/23 24/24/24
f 22/21/21 24/24/24 25/25/25
f 24/24/24 26/26/26 25/25/25
f 24/24/24 27/27/27 26/26/26
f 27/27/27 28/28/28 26/26/26
f 27/27/27 29/29/29 28/28/28
f 24/24/24 30/30/30 27/27/27
f 30/30/30 31/31/31 27/27/27
f 30/30/30 32/32/32 31/31/31
f 33/33/33 34/34/34 16/35/16
f 33/33/33 35/36/35 34/34/34
f 29/37/29 36/38/36 28/39/28
f 29/37/29 37/40/37 36/38/36
f 38/41/38 28/39/28 36/38/36
f 38/41/38 36/38/36 39/42/39
f 38/41/38 40/43/40 28/39/28
f 19/44/19 36/38/36 37/40/37
f 19/44/19 39/42/39 36/38/36
f 40/43/40 26/45/26 28/39/28
f 40/43/40 25/46/25 26/45/26
f 41/47/41 38/41/38 39/42/39
f 41/47/41 42/48/42 38/41/38
f 42/48/42 40/43/40 38/41/38
f 43/49/43 25/46/25 40/43/40
f 42/48/42 43/49/43 40/43/40
f 42/48/42 44/50/44 43/49/43
f 42/48/42 45/51/45 44/50/44
f 41/47/41 45/51/45 42/48/42
f 43/49/43 44/50/44 21/52/22
f 43/49/43 21/52/22 22/53/21
f 43/49/43 22/53/21 25/46/25
f 41/47/41 46/54/46 45/51/45
f 20/55/20 21/56/22 47/57/47
f 47/57/47 48/58/48 20/55/20
f 23/59/23 20/55/20 48/58/48
f 23/59/23 48/58/48 49/60/49
f 49/60/49 48/58/48 50/61/50
f 51/62/51 50/61/50 48/58/48
f 47/57/47 51/62/51 48/58/48
f 51/62/51 5/63/5 50/61/50
f 49/60/49 50/61/50 52/64/52
f 49/60/49 52/64/52 32/65/32
f 49/60/49 32/65/32 30/66/30
f 23/59/23 49/60/49 30/66/30
f 23/59/23 30/66/30 24/67/24
f 45/68/45 46/69/46 34/70/34
f 16/71/16 34/70/34 46/69/46
f 16/71/16 46/69/46 14/72/14
f 15/73/15 14/72/14 46/69/46
f 15/73/15 46/69/46 41/74/41
f 15/73/15 41/74/41 39/75/39
f 15/73/15 39/75/39 19/76/19
f 4/77/4 50/78/50 5/79/5
f 52/80/52 50/78/50 4/77/4
f 52/80/52 4/77/4 1/81/1
f 52/80/52 1/81/1 8/82/8
f 52/80/52 8/82/8 32/83/32
f 17/84/17 53/85/53 18/86/18
f 7/87/7 18/86/18 53/85/53
f 7/87/7 53/85/53 54/88/54
f 54/88/54 53/85/53 37/89/37
f 17/84/17 37/89/37 53/85/53
f 54/88/54 37/89/37 29/90/29
f 17/84/17 19/91/19 37/89/37
f 35/92/35 21/93/22 44/94/44
f 35/92/35 47/95/47 21/93/22
f 34/96/34 35/92/35 44/94/44
f 34/96/34 44/94/44 45/97/45
f 6/98/6 10/99/11 3/100/2
f 6/98/6 13/101/13 10/99/11
f 2/102/3 3/100/2 10/99/11
f 2/102/3 10/99/11 11/103/10
f 2/102/3 11/103/10 18/104/18
f 2/102/3 18/104/18 7/105/7
f 32/106/32 8/107/8 31/108/31
f 8/107/8 54/109/54 31/108/31
f 8/107/8 7/110/7 54/109/54
f 31/108/31 54/109/54 29/111/29
f 31/108/31 29/111/29 27/112/27
f 51/113/51 35/114/35 33/115/33
f 51/113/51 47/116/47 35/114/35
f 5/117/5 33/118/33 6/119/6
f 5/117/5 51/120/51 33/118/33
f 6/121/6 16/122/16 13/123/13
f 6/121/6 33/124/33 16/122/16
f 55/125/55 57/126/56 56/127/57
f 55/125/55 58/128/58 57/126/56
f 59/129/59 57/126/56 58/128/58
f 59/129/59 60/130/60 57/126/56
f 55/125/55 56/127/57 61/131/61
f 55/125/55 61/131/61 62/132/62
f 63/133/63 65/134/64 64/135/65
f 63/133/63 66/136/66 65/134/64
f 64/135/65 67/137/67 63/133/63
f 66/136/66 63/133/63 68/138/68
f 67/137/67 68/138/68 63/133/63
f 66/136/66 68/138/68 69/139/69
f 69/139/69 68/138/68 70/140/70
f 71/141/71 70/140/70 68/138/68
f 67/137/67 71/141/71 68/138/68
f 71/141/71 72/142/72 70/140/70
f 73/143/73 70/140/70 72/142/72
f 69/139/69 70/140/70 74/144/74
f 74/144/74 70/140/70 73/143/73
f 69/139/69 74/144/74 75/145/75
f 74/144/74 76/146/76 75/145/75
f 74/144/74 77/147/77 76/146/76
f 74/144/74 73/143/73 77/147/77
f 69/139/69 75/145/75 78/148/78
f 66/136/66 69/139/69 78/148/78
f 66/136/66 78/148/78 79/149/79
f 80/150/80 82/151/81 81/152/82
f 80/150/80 83/153/83 82/151/81
f 80/150/80 81/152/82 84/154/84
f 83/153/83 80/150/80 85/155/85
f 84/154/84 85/155/85 80/150/80
f 83/153/83 85/155/85 86/156/86
f 86/156/86 85/155/85 87/157/87
f 88/158/88 87/157/87 85/155/85
f 84/154/84 88/158/88 85/155/85
f 88/158/88 59/159/59 87/157/87
f 58/160/58 87/157/87 59/159/59
f 89/161/89 87/157/87 58/160/58
f 86/156/86 87/157/87 89/161/89
f 89/161/89 58/160/58 55/162/55
f 82/151/81 83/153/83 90/163/90
f 82/151/81 90/163/90 91/164/91
f 86/156/86 89/161/89 92/165/92
f 86/156/86 92/165/92 93/166/93
f 83/153/83 93/166/93 90/163/90
f 83/153/83 86/156/86 93/166/93
f 94/167/94 72/168/72 71/169/71
f 94/167/94 95/170/95 72/168/72
f 60/171/60 94/167/94 71/169/71
f 60/171/60 71/169/71 67/172/67
f 96/173/96 98/174/97 97/175/98
f 96/173/96 99/176/99 98/174/97
f 76/177/76 97/175/98 98/174/97
f 76/177/76 98/174/97 75/178/75
f 76/177/76 100/179/100 97/175/98
f 78/180/78 98/174/97 99/176/99
f 78/180/78 75/178/75 98/174/97
f 100/179/100 101/181/101 97/175/98
f 100/179/100 91/182/91 101/181/101
f 102/183/102 99/176/99 96/173/96
f 102/183/102 103/184/103 99/176/99
f 61/185/61 103/184/103 102/183/102
f 61/185/61 104/186/104 103/184/103
f 79/187/79 103/184/103 104/186/104
f 79/187/79 99/176/99 103/184/103
f 79/187/79 78/180/78 99/176/99
f 65/188/64 79/187/79 104/186/104
f 65/188/64 66/189/66 79/187/79
f 77/190/77 106/191/105 105/192/106
f 77/190/77 73/193/73 106/191/105
f 105/192/106 106/191/105 81/194/82
f 95/195/95 81/194/82 106/191/105
f 95/195/95 84/196/84 81/194/82
f 105/192/106 81/194/82 82/197/81
f 72/198/72 106/191/105 73/193/73
f 72/198/72 95/195/95 106/191/105
f 105/192/106 82/197/81 91/199/91
f 105/192/106 91/199/91 100/200/100
f 77/190/77 105/192/106 100/200/100
f 77/190/77 100/200/100 76/201/76
f 90/202/90 101/203/101 91/204/91
f 90/202/90 107/205/107 101/203/101
f 107/205/107 97/206/98 101/203/101
f 107/205/107 96/207/96 97/206/98
f 108/208/108 96/207/96 107/205/107
f 93/209/93 108/208/108 107/205/107
f 90/202/90 93/209/93 107/205/107
f 93/209/93 92/210/92 108/208/108
f 92/210/92 62/211/62 108/208/108
f 62/211/62 102/212/102 108/208/108
f 108/208/108 102/212/102 96/207/96
f 62/211/62 61/213/61 102/212/102
f 89/214/89 62/211/62 92/210/92
f 89/214/89 55/215/55 62/211/62
f 60/216/60 64/217/65 57/218/56
f 60/216/60 67/219/67 64/217/65
f 56/220/57 57/218/56 64/217/65
f 56/220/57 64/217/65 65/221/64
f 56/220/57 65/221/64 104/222/104
f 56/220/57 104/222/104 61/223/61
f 88/224/88 95/225/95 94/226/94
f 88/224/88 84/227/84 95/225/95
f 59/228/59 88/224/88 94/226/94
f 59/228/59 94/226/94 60/229/60
