# Blender 4.1.1
# www.blender.org
mtllib MeshWindowSlider_60X48_0_GeomSubset_2.mtl
o MeshWindowSlider_60X48_0_GeomSubset_2
v 0.762000 -0.040626 0.608595
v 0.762000 -0.040626 -0.610605
v -0.762000 -0.040624 -0.610605
v -0.731181 -0.040624 -0.579287
v 0.731180 -0.040626 -0.579287
v 0.731180 -0.040626 0.577276
v 0.731181 0.040624 0.577276
v 0.731181 0.040624 -0.579287
v -0.731180 0.040626 -0.579287
v -0.762000 0.040626 -0.610605
v 0.762000 0.040624 -0.610605
v 0.762000 0.040624 0.608595
v -0.731180 0.040626 0.577276
v -0.731181 -0.040624 0.577276
v -0.762000 0.040626 0.608595
v -0.762000 -0.040624 0.608595
v -0.731180 0.031626 0.577276
v -0.731181 -0.031624 0.577276
v 0.731180 -0.031626 0.577276
v 0.731181 0.031624 0.577276
v 0.731181 0.031625 -0.579287
v 0.731180 -0.031626 -0.579287
v -0.731181 -0.031624 -0.579287
v -0.731180 0.031626 -0.579287
v -0.731180 0.035124 0.577276
v -0.731181 -0.035122 0.577276
v 0.731180 -0.035123 0.577276
v 0.731181 0.035122 0.577276
v 0.731181 0.035122 -0.579287
v 0.731180 -0.035123 -0.579287
v -0.731181 -0.035122 -0.579287
v -0.731180 0.035124 -0.579287
v -0.695474 0.035124 0.540891
v -0.695474 -0.035122 0.540891
v 0.695474 -0.035123 0.540891
v 0.695474 0.035122 0.540891
v 0.695474 0.035122 -0.542902
v 0.695474 -0.035123 -0.542902
v -0.695474 -0.035122 -0.542902
v -0.695474 0.035124 -0.542902
v -0.695474 0.021626 0.540891
v -0.695474 -0.021624 0.540891
v 0.695474 -0.021626 0.540891
v 0.695474 0.021624 0.540891
v 0.695474 0.021624 -0.542902
v 0.695474 -0.021626 -0.542902
v -0.695474 -0.021624 -0.542902
v -0.695474 0.021626 -0.542902
v -0.731180 0.021626 0.577276
v -0.731180 -0.021624 0.577276
v 0.731180 -0.021626 0.577276
v 0.731180 0.021624 0.577276
v 0.731180 0.021624 -0.579287
v 0.731180 -0.021626 -0.579287
v -0.731180 -0.021624 -0.579287
v -0.731180 0.021626 -0.579287
v -0.730312 0.021585 -0.579808
v 0.000000 0.021585 -0.579808
v -0.730312 0.021585 0.577798
v 0.000000 0.021584 0.577798
v -0.730312 0.000001 0.577798
v 0.000000 0.000000 0.577798
v -0.730312 0.000001 -0.579808
v 0.000000 0.000000 -0.579808
v -0.670312 0.021585 -0.519808
v -0.060000 0.021585 -0.519808
v -0.060000 0.021585 0.517798
v -0.670312 0.021585 0.517798
v -0.670312 0.000001 0.517798
v -0.060000 0.000000 0.517798
v -0.060000 0.000000 -0.519808
v -0.670312 0.000001 -0.519808
v 0.000000 0.000000 -0.579808
v 0.729195 -0.000001 -0.579808
v 0.000000 0.000000 0.577798
v 0.729195 -0.000001 0.577798
v 0.000000 -0.021291 0.577798
v 0.729195 -0.021292 0.577798
v 0.000000 -0.021291 -0.579808
v 0.729195 -0.021292 -0.579808
v 0.060000 0.000000 -0.519808
v 0.669195 -0.000001 -0.519808
v 0.669195 -0.000001 0.517798
v 0.060000 0.000000 0.517798
v 0.060000 -0.021291 0.517798
v 0.669195 -0.021292 0.517798
v 0.669195 -0.021292 -0.519808
v 0.060000 -0.021291 -0.519808
v -0.670312 0.016753 -0.519808
v -0.060000 0.016752 -0.519808
v -0.060000 0.016752 0.517798
v -0.670312 0.016752 0.517798
v -0.670312 0.005303 0.517798
v -0.060000 0.005302 0.517798
v -0.060000 0.005302 -0.519808
v -0.670312 0.005303 -0.519808
v 0.060000 -0.015021 0.517798
v 0.669195 -0.015022 0.517798
v 0.669195 -0.015022 -0.519808
v 0.060000 -0.015021 -0.519808
v 0.060000 -0.005297 -0.519808
v 0.669195 -0.005297 -0.519808
v 0.669195 -0.005297 0.517798
v 0.060000 -0.005297 0.517798
v 0.000000 0.021428 -0.047497
v 0.007429 0.021428 -0.047497
v 0.000000 0.021428 0.046161
v 0.007429 0.021428 0.046161
v 0.000000 0.000965 0.052335
v 0.007429 0.000965 0.052335
v 0.000000 0.000965 -0.053671
v 0.007429 0.000965 -0.053671
v 0.007429 0.021428 0.027797
v 0.000000 0.021428 0.027797
v 0.000000 0.000965 0.033445
v 0.007429 0.000965 0.033445
v 0.007429 0.021428 -0.029133
v 0.000000 0.021428 -0.029133
v 0.000000 0.000965 -0.034781
v 0.007429 0.000965 -0.034781
v 0.013191 0.000965 -0.034781
v 0.013191 0.021428 -0.029133
v 0.013191 0.000965 0.033445
v 0.013191 0.021428 0.027797
v 0.019876 0.005384 0.008412
v 0.019876 0.001547 0.004574
v 0.019876 0.000142 -0.000668
v 0.019876 0.001729 -0.005910
v 0.019876 0.010626 -0.005910
v 0.019876 0.019524 -0.005910
v 0.019876 0.021111 -0.000668
v 0.019876 0.019706 0.004574
v 0.019876 0.015868 0.008412
v 0.019876 0.010626 0.009816
v 0.013191 0.005384 0.008412
v 0.013191 0.001547 0.004574
v 0.013191 0.000142 -0.000668
v 0.013191 0.001729 -0.005910
v 0.013191 0.010626 -0.005910
v 0.013191 0.019524 -0.005910
v 0.013191 0.021111 -0.000668
v 0.013191 0.019706 0.004574
v 0.013191 0.015868 0.008412
v 0.013191 0.010626 0.009816
v 0.019876 0.010626 -0.000668
v 0.013191 0.010626 -0.000668
v 0.020960 0.007221 -0.060844
v 0.016529 0.007221 -0.060844
v 0.020960 0.010626 -0.060844
v 0.016529 0.010626 -0.060844
v 0.020960 0.014032 -0.060844
v 0.016529 0.014032 -0.060844
v 0.019424 0.008327 -0.082957
v 0.016529 0.008327 -0.082957
v 0.019424 0.010626 -0.082957
v 0.016529 0.010626 -0.082957
v 0.019424 0.012926 -0.082957
v 0.016529 0.012926 -0.082957
v 0.006115 0.007221 -0.063278
v 0.006115 0.010626 -0.063278
v 0.006115 0.008327 -0.080419
v 0.006115 0.010626 -0.080419
v 0.006115 0.014032 -0.063278
v 0.006115 0.012926 -0.080419
v 0.016529 0.015225 -0.047378
v 0.020712 0.015225 -0.047378
v 0.020712 0.010626 -0.047378
v 0.020712 0.006028 -0.047378
v 0.016529 0.006028 -0.047378
v 0.016529 0.010626 -0.047378
vn -0.0000 -1.0000 -0.0000
vn -0.0000 -0.2889 -0.9574
vn -0.0000 1.0000 -0.0000
vn -0.0000 -0.2889 0.9574
vn -1.0000 -0.0000 -0.0000
vn -0.0000 -0.2661 0.9640
vn -0.0000 -0.2661 -0.9640
vn -0.0000 0.5000 -0.8660
vn -0.0000 0.8660 -0.5000
vn -0.0000 0.9999 0.0151
vn -0.0000 0.9632 0.2689
vn -0.0000 0.9618 0.2736
vn 0.0572 -0.0000 0.9984
vn -0.0000 -0.0000 1.0000
vn 0.0557 -0.0000 0.9984
vn 0.0573 -0.0000 0.9984
vn -0.0000 -0.9632 0.2689
vn -0.0000 -0.9999 0.0149
vn -0.0000 -0.9618 0.2736
vn -0.0000 -0.8660 -0.5000
vn -0.0000 -0.5000 -0.8661
vn -0.0000 -0.0000 -1.0000
vn 1.0000 -0.0000 -0.0000
vn -0.9998 -0.0000 -0.0202
vn -0.9998 -0.0000 -0.0193
vn -0.9998 -0.0000 -0.0187
vn -0.0000 0.9958 0.0912
vn -0.0000 0.9958 0.0915
vn 0.9968 -0.0000 0.0802
vn 0.9999 -0.0000 0.0156
vn 0.9999 -0.0000 0.0122
vn -0.9998 -0.0000 -0.0186
vn -0.0000 -0.9958 0.0915
vn -0.0000 -0.9958 0.0912
vn -0.0000 0.9987 0.0514
vn -0.0000 0.9988 0.0500
vn 0.0001 0.9987 0.0515
vn -0.9976 -0.0000 0.0693
vn -0.0000 -0.9988 0.0500
vn 0.0001 -0.9987 0.0515
vn 0.0001 -0.9987 0.0514
vn 0.2276 -0.0000 -0.9738
vn 0.0003 0.9984 0.0563
vn 0.2368 -0.0000 0.9716
vn 0.0003 -0.9984 0.0563
vn -0.0000 -0.9961 0.0882
vn -0.9998 -0.0000 -0.0184
vn -0.0000 0.9961 0.0882
vt -28.743187 2.566004
vt -28.737383 2.566004
vt -28.737383 2.580353
vt -28.743187 2.580353
vt -29.279930 2.727329
vt -29.274000 2.727329
vt -29.274000 2.743670
vt -29.279930 2.743670
vt -28.682241 2.574872
vt -28.676437 2.574872
vt -28.676437 2.589630
vt -28.682241 2.589630
vt -29.333048 2.727329
vt -29.327116 2.727329
vt -29.327116 2.743670
vt -29.333048 2.743670
vt -29.152161 2.649751
vt -29.136171 2.644927
vt -29.136171 2.659686
vt -29.152161 2.664099
vt -28.743187 2.624832
vt -28.737383 2.624832
vt -28.737383 2.639180
vt -28.743187 2.639180
vt -28.682241 2.506814
vt -28.676437 2.506814
vt -28.676437 2.521572
vt -28.682241 2.521572
vt -29.222986 2.728683
vt -29.206999 2.733096
vt -29.206999 2.747853
vt -29.222986 2.743029
vt -29.081331 2.661957
vt -29.065346 2.657544
vt -29.065346 2.710845
vt -29.081331 2.706432
vt -29.384359 2.743641
vt -29.384359 2.727357
vt -29.379774 2.727357
vt -29.379774 2.743641
vt -28.671938 2.521572
vt -28.671938 2.574872
vt -29.435211 2.743641
vt -29.435211 2.727357
vt -29.430624 2.727357
vt -29.430624 2.743641
vt -28.732883 2.580353
vt -28.732883 2.624832
vt -29.481543 2.738410
vt -29.481543 2.741688
vt -29.487253 2.741688
vt -29.487253 2.738410
vt -28.866648 2.564114
vt -28.866648 2.568224
vt -28.871889 2.568224
vt -28.871889 2.564114
vt -28.866648 2.572335
vt -28.871889 2.572335
vt -29.589180 2.727668
vt -29.589180 2.725381
vt -29.587362 2.725381
vt -29.587362 2.727668
vt -29.585546 2.725381
vt -29.585546 2.727668
vt -28.929844 2.624524
vt -28.929844 2.628634
vt -28.935083 2.628634
vt -28.935083 2.624524
vt -28.929844 2.632744
vt -28.935083 2.632744
vt -29.481543 2.726180
vt -29.481543 2.729457
vt -29.487253 2.729457
vt -29.487253 2.726180
vt -29.481543 2.733934
vt -29.487253 2.733934
vt -28.797169 2.634145
vt -28.800169 2.637143
vt -28.804264 2.630048
vt -28.796070 2.630048
vt -28.804264 2.625952
vt -28.812458 2.630048
vt -28.811216 2.625952
vt -28.811359 2.634145
vt -28.808361 2.637143
vt -28.804264 2.638241
vt -29.002167 2.705277
vt -29.006266 2.712376
vt -29.009266 2.709376
vt -29.010365 2.705277
vt -29.009125 2.701178
vt -29.002167 2.701178
vt -28.993969 2.705277
vt -28.995068 2.709376
vt -28.998068 2.712376
vt -29.002167 2.713474
vt -28.797310 2.625952
vt -28.804264 2.593546
vt -28.800671 2.593546
vt -28.865993 2.604849
vt -28.869272 2.604849
vt -29.005762 2.668751
vt -29.002167 2.668751
vt -28.807859 2.593546
vt -28.932467 2.592012
vt -28.929186 2.592012
vt -28.998571 2.668751
vt -28.995209 2.701178
vt -28.869272 2.615407
vt -28.865797 2.615407
vt -28.867002 2.632746
vt -28.869272 2.632746
vt -28.801603 2.583023
vt -28.804264 2.583023
vt -28.804264 2.565742
vt -28.802467 2.565742
vt -29.536589 2.739937
vt -29.539248 2.739937
vt -29.538385 2.726547
vt -29.536589 2.726547
vt -28.806925 2.583023
vt -28.806061 2.565742
vt -28.928993 2.581454
vt -28.932467 2.581454
vt -28.932467 2.564116
vt -28.930197 2.564116
vt -29.533928 2.739937
vt -29.534794 2.726547
vt -29.638138 2.724550
vt -29.635443 2.724550
vt -29.635443 2.732793
vt -29.638138 2.732793
vt -28.877438 2.630756
vt -28.877438 2.617315
vt -29.587362 2.735897
vt -29.589180 2.735897
vt -29.640835 2.724550
vt -29.640835 2.732793
vt -29.585546 2.735897
vt -28.940632 2.579545
vt -28.940632 2.566106
vt -29.004829 2.658222
vt -29.002167 2.658222
vt -28.999504 2.658222
s 1
usemtl M_WindowSlider_60X48_2
f 105/1/1 106/2/1 117/3/1 118/4/1
f 107/5/2 108/6/2 110/7/2 109/8/2
f 119/9/3 120/10/3 112/11/3 111/12/3
f 111/13/4 112/14/4 106/15/4 105/16/4
f 106/17/5 112/18/5 120/19/5 117/20/5
f 114/21/1 113/22/1 108/23/1 107/24/1
f 109/25/3 110/26/3 116/27/3 115/28/3
f 113/29/5 116/30/5 110/31/5 108/32/5
f 118/4/1 117/3/1 113/22/1 114/21/1
f 115/28/3 116/27/3 120/10/3 119/9/3
f 122/33/5 121/34/5 123/35/5 124/36/5
f 117/37/6 120/38/6 121/39/6 122/40/6
f 120/10/3 116/27/3 123/41/3 121/42/3
f 116/43/7 113/44/7 124/45/7 123/46/7
f 113/22/1 117/3/1 122/47/1 124/48/1
f 125/49/8 126/50/9 136/51/9 135/52/8
f 126/53/9 127/54/10 137/55/10 136/56/9
f 127/54/10 128/57/11 138/58/12 137/55/10
f 154/59/13 153/60/14 155/61/14 156/62/15
f 156/62/15 155/61/14 157/63/14 158/64/16
f 130/65/17 131/66/18 141/67/18 140/68/19
f 131/66/18 132/69/20 142/70/20 141/67/18
f 132/71/20 133/72/21 143/73/21 142/74/20
f 133/72/21 134/75/22 144/76/22 143/73/21
f 134/75/22 125/49/8 135/52/8 144/76/22
f 126/77/5 125/78/5 145/79/5 127/80/5
f 129/81/5 145/79/5 131/82/5 130/83/5
f 132/84/5 131/82/5 145/79/5 133/85/5
f 134/86/5 133/85/5 145/79/5 125/78/5
f 146/87/23 135/88/23 136/89/23 137/90/23
f 146/87/23 137/90/23 138/91/23 139/92/23
f 146/87/23 141/93/23 142/94/23 143/95/23
f 146/87/23 143/95/23 144/96/23 135/88/23
f 128/97/24 129/81/24 167/98/25 168/99/26
f 138/58/12 128/57/11 168/100/27 169/101/28
f 139/92/29 138/91/29 169/102/30 170/103/31
f 129/81/24 130/83/24 166/104/32 167/98/25
f 130/65/17 140/68/19 165/105/33 166/106/34
f 165/107/30 140/108/29 139/92/29 170/103/31
f 146/87/23 139/92/23 140/108/23 141/93/23
f 129/81/5 128/97/5 127/80/5 145/79/5
f 148/109/35 147/110/36 153/111/36 154/112/37
f 147/113/38 149/114/38 155/115/38 153/116/38
f 160/117/23 159/118/23 161/119/23 162/120/23
f 149/114/38 151/121/38 157/122/38 155/115/38
f 151/123/39 152/124/40 158/125/41 157/126/39
f 163/127/23 160/117/23 162/120/23 164/128/23
f 150/129/42 148/130/42 159/131/42 160/132/42
f 148/109/35 154/112/37 161/133/43 159/134/43
f 154/59/13 156/62/15 162/135/44 161/136/44
f 152/137/42 150/129/42 160/132/42 163/138/42
f 156/62/15 158/64/16 164/139/44 162/135/44
f 158/125/41 152/124/40 163/140/45 164/141/45
f 166/106/34 165/105/33 152/124/46 151/123/46
f 149/114/47 167/98/25 166/104/32 151/121/47
f 147/113/47 168/99/26 167/98/25 149/114/47
f 169/101/28 168/100/27 147/110/48 148/109/48
f 148/142/23 150/143/23 170/103/31 169/102/30
f 150/143/23 152/144/23 165/107/30 170/103/31
