# Blender 4.1.0
# www.blender.org
mtllib DrawermeshDresserDrawer_209_3_3.mtl
o DresserDrawer_209_3
v -1.034161 -0.171862 -0.370654
v -1.034161 -0.185092 -0.370658
v -0.021840 -0.185092 -0.370658
v -0.021840 -0.171865 -0.370654
v -0.021840 -0.190969 -0.364786
v -1.034161 -0.190969 -0.364786
v -1.034161 -0.191070 -0.070623
v -0.021840 -0.191071 -0.070623
v -1.015173 -0.165994 -0.354777
v -1.015172 0.066780 -0.354697
v -1.015172 0.066686 -0.080534
v -1.015173 -0.166089 -0.080614
v -0.021840 -0.171970 -0.064741
v -0.021840 -0.185199 -0.064746
v -1.034161 -0.185198 -0.064746
v -1.034161 -0.171970 -0.064741
v -1.045315 -0.171967 -0.070616
v -1.045315 -0.185194 -0.070621
v -1.045315 -0.185093 -0.364784
v -1.045315 -0.171865 -0.364779
v -0.010685 -0.171867 -0.364779
v -0.010686 -0.185094 -0.364784
v -0.010686 -0.185197 -0.070621
v -0.010685 -0.171968 -0.070616
v -1.034161 -0.165990 -0.364777
v -1.034161 -0.166091 -0.070614
v -0.021840 -0.165991 -0.364777
v -0.021840 -0.166093 -0.070614
v -0.040827 -0.165995 -0.354777
v -0.040827 -0.166090 -0.080614
v -0.040827 0.066780 -0.354697
v -0.040827 0.066686 -0.080534
v -0.074527 -0.148342 -0.080608
v -0.981474 -0.148341 -0.080608
v -0.074526 0.048936 -0.080540
v -0.981473 0.048938 -0.080540
v -0.981474 -0.148251 -0.337338
v -0.981473 0.049026 -0.337270
v -0.074526 0.049026 -0.337270
v -0.074527 -0.148252 -0.337338
vn -0.0000 0.0003 -1.0000
vn -0.0000 -1.0000 -0.0003
vn -1.0000 -0.0000 -0.0000
vn -0.0000 -0.0003 1.0000
vn 1.0000 -0.0000 -0.0000
vn -0.3490 0.6629 -0.6624
vn -0.3490 0.6623 0.6630
vn 0.3490 0.6628 -0.6625
vn 0.3490 0.6624 0.6629
vn -0.3491 -0.6629 0.6624
vn -0.3490 -0.6624 -0.6629
vn 0.3490 -0.6624 -0.6629
vn 0.3490 -0.6629 0.6624
vn -0.4661 0.8848 0.0003
vn -0.4660 0.8848 0.0003
vn -0.0000 0.7074 -0.7068
vn -0.0000 0.7073 -0.7069
vn -0.0000 0.7071 0.7071
vn -0.0000 0.7068 0.7075
vn 0.4660 0.8848 0.0003
vn -0.4661 -0.8848 -0.0003
vn -0.0000 -0.7069 -0.7073
vn -0.0000 -0.7074 0.7068
vn 0.4659 -0.8848 -0.0003
vn 0.4660 -0.8848 -0.0003
vn 0.4660 -0.0003 0.8848
vn 0.4660 0.0003 -0.8848
vn -0.4660 0.0003 -0.8848
vn -0.4660 -0.0003 0.8848
vn -0.0000 1.0000 0.0003
vn -0.0000 1.0000 0.0004
vt 0.830137 0.264035
vt 1.096714 0.257421
vt 0.830137 0.257421
vt 1.096714 0.264035
vt 0.096714 0.516392
vt -0.169862 0.663473
vt -0.169862 0.516392
vt 0.096714 0.663473
vt 0.266973 0.521392
vt 0.383360 0.658473
vt 0.383360 0.521392
vt 0.266973 0.658473
vt 0.096714 0.264035
vt -0.169862 0.257421
vt 0.096714 0.257421
vt -0.169862 0.264035
vt 0.264035 0.663473
vt 0.257421 0.516392
vt 0.257421 0.663473
vt 0.264035 0.516392
vt 0.827200 0.264035
vt 0.830137 0.266973
vt 0.264035 0.513454
vt 0.266973 0.516392
vt 0.099651 0.264035
vt 0.096714 0.266973
vt 0.827200 0.257421
vt 0.830137 0.254484
vt 0.257421 0.513454
vt 0.254484 0.516392
vt 0.096714 0.254484
vt 0.099651 0.257421
vt 0.830137 0.663473
vt 0.827200 0.516392
vt 0.827200 0.663473
vt 0.830137 0.516392
vt 1.096714 0.266973
vt -0.169862 0.266973
vt 0.266973 0.663473
vt 1.096714 0.254484
vt -0.169862 0.254484
vt 0.254484 0.663473
vt 0.835137 0.658473
vt 0.835137 0.521392
vt 1.096714 0.516392
vt 1.091714 0.521392
vt 0.091714 0.658473
vt -0.164862 0.658473
vt 0.091714 0.521392
vt -0.164862 0.521392
vt 0.091714 0.266973
vt -0.164862 0.383360
vt 0.091714 0.383360
vt -0.164862 0.266973
vt 0.082840 0.275847
vt -0.155988 0.275847
vt 0.082840 0.374486
vt 0.844011 0.374486
vt 1.091714 0.383360
vt 0.835137 0.383360
vt 1.082840 0.374486
vt 0.844011 0.275847
vt 0.835137 0.266973
vt 1.082840 0.275847
vt 0.374486 0.658473
vt 0.275847 0.530108
vt 0.374486 0.530108
vt 0.275847 0.658473
vt 0.082840 0.658473
vt -0.155988 0.530108
vt 0.082840 0.530108
vt -0.155988 0.658473
vt 0.844011 0.658473
vt 1.082840 0.530108
vt 0.844011 0.530108
vt 1.082840 0.658473
s 1
usemtl M_DresserDrawer_209_3_0
f 1/1/1 3/2/1 2/3/1
f 1/1/1 4/4/1 3/2/1
f 5/5/2 7/6/2 6/7/2
f 5/5/2 8/8/2 7/6/2
f 9/9/3 11/10/3 10/11/3
f 9/9/3 12/12/3 11/10/3
f 13/13/4 15/14/4 14/15/4
f 13/13/4 16/16/4 15/14/4
f 17/17/3 19/18/3 18/19/3
f 17/17/3 20/20/3 19/18/3
f 21/20/5 23/19/5 22/18/5
f 21/20/5 24/17/5 23/19/5
f 20/21/6 25/22/6 1/1/6
f 17/21/7 16/1/7 26/22/7
f 4/23/8 27/24/8 21/20/8
f 13/13/9 24/25/9 28/26/9
f 18/27/10 7/28/10 15/3/10
f 19/27/11 2/3/11 6/28/11
f 3/29/12 22/18/12 5/30/12
f 14/15/13 8/31/13 23/32/13
f 26/33/14 20/34/14 17/35/14
f 26/33/15 25/36/15 20/34/15
f 25/22/16 4/4/16 1/1/16
f 25/22/17 27/37/17 4/4/17
f 28/26/18 16/16/18 13/13/18
f 28/26/19 26/38/19 16/16/19
f 24/17/20 27/24/20 28/39/20
f 24/17/20 21/20/20 27/24/20
f 18/35/21 6/36/21 7/33/21
f 18/35/21 19/34/21 6/36/21
f 2/3/22 5/40/22 6/28/22
f 2/3/22 3/2/22 5/40/22
f 14/15/23 7/41/23 8/31/23
f 14/15/23 15/14/23 7/41/23
f 8/42/24 22/18/24 23/19/24
f 8/42/25 5/30/25 22/18/25
f 13/13/26 23/32/26 24/25/26
f 13/13/26 14/15/26 23/32/26
f 3/29/27 21/20/27 22/18/27
f 3/29/27 4/23/27 21/20/27
f 1/1/28 19/27/28 20/21/28
f 1/1/28 2/3/28 19/27/28
f 15/3/29 17/21/29 18/27/29
f 15/3/29 16/1/29 17/21/29
f 12/43/30 25/36/30 26/33/30
f 12/43/30 9/44/30 25/36/30
f 9/44/31 27/45/31 25/36/31
f 9/44/31 29/46/31 27/45/31
f 30/47/30 26/6/30 28/8/30
f 30/47/30 12/48/30 26/6/30
f 29/49/30 30/47/30 28/8/30
f 29/49/30 28/8/30 27/5/30
f 31/49/30 11/48/30 32/47/30
f 31/49/30 10/50/30 11/48/30
f 29/51/1 10/52/1 31/53/1
f 29/51/1 9/54/1 10/52/1
f 30/12/5 31/11/5 32/10/5
f 30/12/5 29/9/5 31/11/5
f 33/55/4 12/54/4 30/51/4
f 33/55/4 34/56/4 12/54/4
f 35/57/4 33/55/4 30/51/4
f 35/57/4 30/51/4 32/53/4
f 36/58/4 32/59/4 11/60/4
f 36/58/4 35/61/4 32/59/4
f 34/62/4 36/58/4 11/60/4
f 34/62/4 11/60/4 12/63/4
f 37/62/4 39/61/4 38/58/4
f 37/62/4 40/64/4 39/61/4
f 36/65/5 37/66/5 38/67/5
f 36/65/5 34/68/5 37/66/5
f 33/68/3 39/67/3 40/66/3
f 33/68/3 35/65/3 39/67/3
f 35/69/2 38/70/2 39/71/2
f 35/69/2 36/72/2 38/70/2
f 34/73/30 40/74/30 37/75/30
f 34/73/30 33/76/30 40/74/30
