# Blender 4.1.1
# www.blender.org
mtllib MeshBox_24_FlapOuter_2_2.mtl
o Box_24_FlapOuter_2
v -0.140455 -0.106543 0.160118
v -0.140455 0.103695 0.160118
v -0.138450 -0.106543 0.160749
v -0.138450 0.103695 0.160749
v -0.107056 -0.106543 0.053492
v -0.106695 -0.106543 0.054119
v -0.107056 0.103695 0.053492
v -0.106695 0.103695 0.054119
v -0.108059 -0.106543 0.053176
v -0.108700 -0.106543 0.053488
v -0.108059 0.103695 0.053176
v -0.108700 0.103695 0.053488
vn 0.3004 -0.0000 -0.9538
vn -0.6659 -0.0000 0.7460
vn -0.9211 -0.0000 0.3894
vn -0.9210 -0.0000 0.3895
vn -0.6659 -0.0000 0.7461
vn -0.0000 1.0000 0.0001
vn -0.0001 1.0000 0.0004
vn -0.0001 1.0000 -0.0000
vn 0.0001 -1.0000 -0.0004
vn -0.0000 -1.0000 -0.0001
vn 0.0001 -1.0000 -0.0000
vn 0.5480 -0.0000 0.8365
vn 0.1286 -0.0000 0.9917
vn 0.1285 -0.0000 0.9917
vn 0.5479 -0.0000 0.8365
vn 0.9584 -0.0000 0.2854
vn -0.9584 -0.0000 -0.2854
vn -0.0000 -1.0000 -0.0000
vn -0.0000 1.0000 -0.0000
vt 0.007082 0.033919
vt 0.007082 0.966081
vt 0.001625 0.966081
vt 0.001625 0.033919
vt 0.015418 1.010670
vt 0.013919 1.012197
vt 0.013919 -0.012197
vt 0.015418 -0.010670
vt 0.018417 1.010670
vt 0.019916 1.012197
vt 0.019916 -0.012197
vt 0.018417 -0.010670
vt 0.346770 0.033918
vt 0.346770 0.966082
vt 0.036999 0.966082
vt 0.036999 0.033918
vt 0.374992 0.966082
vt 0.374992 0.033918
vt 0.684763 0.033918
vt 0.684763 0.966082
vt 0.720407 0.012601
vt 0.720407 0.322373
vt 0.714950 0.322373
vt 0.714950 0.012601
vt 0.702563 0.322372
vt 0.702563 0.012602
vt 0.708020 0.012602
vt 0.708020 0.322372
s 1
usemtl M_Box_24_FlapOuter_2_0
f 1/1/1 2/2/1 4/3/1 3/4/1
f 5/5/2 6/6/3 8/7/4 7/8/5
f 6/6/6 5/5/7 9/9/8 10/10/6
f 7/8/9 8/7/10 12/11/10 11/12/11
f 10/10/12 9/9/13 11/12/14 12/11/15
f 5/5/2 7/8/5 11/12/14 9/9/13
f 10/13/12 12/14/15 2/15/16 1/16/16
f 3/17/17 4/18/17 8/19/4 6/20/3
f 8/21/10 4/22/18 2/23/18 12/24/10
f 3/25/19 6/26/6 10/27/6 1/28/19
