# Blender 4.1.1
# www.blender.org
mtllib MeshBox_24_FlapInner_2_4.mtl
o Box_24_FlapInner_2
v -0.103596 0.127283 0.118662
v 0.104529 0.127283 0.118662
v -0.103596 0.125233 0.119366
v 0.104529 0.125233 0.119366
v -0.103596 0.102784 0.053045
v -0.103596 0.102449 0.053732
v 0.104529 0.102784 0.053045
v 0.104529 0.102449 0.053732
v -0.103596 0.103810 0.052693
v -0.103596 0.104499 0.053027
v 0.104529 0.103811 0.052692
v 0.104529 0.104499 0.053027
vn -0.0000 -0.3247 -0.9458
vn -0.0000 0.7001 0.7140
vn -0.0000 0.9444 0.3287
vn -0.0000 0.9444 0.3288
vn -0.0000 0.7001 0.7141
vn 1.0000 -0.0000 0.0001
vn 1.0000 -0.0000 0.0004
vn -1.0000 -0.0000 -0.0000
vn -0.0000 -0.5401 0.8416
vn -0.0000 -0.1119 0.9937
vn -0.0000 -0.5399 0.8417
vn -0.0000 -0.9447 0.3279
vn -0.0000 0.9447 -0.3279
vn 1.0000 -0.0000 -0.0000
vt 0.920932 0.201981
vt 0.920932 0.798018
vt 0.915475 0.798018
vt 0.915475 0.201981
vt 0.007824 0.203527
vt 0.009184 0.201980
vt 0.009184 0.798020
vt 0.007827 0.796475
vt 0.005094 0.203525
vt 0.003732 0.201980
vt 0.003732 0.798020
vt 0.005091 0.796478
vt 0.368387 0.201979
vt 0.368387 0.798021
vt 0.105770 0.798021
vt 0.105770 0.201979
vt 0.818766 0.201979
vt 0.818766 0.798021
vt 0.556153 0.798021
vt 0.556153 0.201979
vt 0.932218 0.353405
vt 0.932218 0.090792
vt 0.937675 0.090792
vt 0.937675 0.353402
vt 0.945333 0.801519
vt 0.945334 0.538908
vt 0.950790 0.538905
vt 0.950790 0.801519
s 1
usemtl M_Box_24_FlapInner_2_0
f 1/1/1 2/2/1 4/3/1 3/4/1
f 5/5/2 6/6/3 8/7/4 7/8/5
f 6/6/6 5/5/7 9/9/7 10/10/6
f 7/8/8 8/7/8 12/11/8 11/12/8
f 10/10/9 9/9/10 11/12/10 12/11/11
f 5/5/2 7/8/5 11/12/10 9/9/10
f 10/13/9 12/14/11 2/15/12 1/16/12
f 3/17/13 4/18/13 8/19/4 6/20/3
f 8/21/8 4/22/8 2/23/8 12/24/8
f 3/25/14 6/26/6 10/27/6 1/28/14
