# Blender 4.1.1
# www.blender.org
mtllib MeshBox_24_FlapInner_1_3.mtl
o Box_24_FlapInner_1
v 0.104528 -0.130216 0.118709
v -0.103597 -0.130216 0.118709
v 0.104528 -0.128165 0.119409
v -0.103597 -0.128165 0.119409
v 0.104528 -0.105845 0.053044
v 0.104528 -0.105509 0.053731
v -0.103596 -0.105844 0.053045
v -0.103597 -0.105509 0.053731
v 0.104528 -0.106872 0.052694
v 0.104528 -0.107560 0.053031
v -0.103597 -0.106873 0.052694
v -0.103597 -0.107560 0.053030
vn -0.0000 0.3229 -0.9464
vn -0.0000 -0.6987 0.7154
vn -0.0000 -0.9438 0.3305
vn -1.0000 -0.0000 -0.0000
vn -1.0000 -0.0000 -0.0003
vn 1.0000 -0.0001 -0.0000
vn 1.0000 -0.0001 0.0001
vn -0.0000 0.5417 0.8406
vn -0.0000 0.1141 0.9935
vn -0.0000 0.9453 0.3261
vn -0.0000 -0.9453 -0.3261
vn 1.0000 -0.0000 -0.0000
vt -0.588591 -0.558704
vt -0.588591 0.037333
vt -0.594048 0.037333
vt -0.594048 -0.558704
vt 0.321787 -0.557158
vt 0.323147 -0.558706
vt 0.323147 0.037334
vt 0.321790 0.035789
vt 0.319056 -0.557160
vt 0.317695 -0.558706
vt 0.317695 0.037334
vt 0.319054 0.035792
vt 0.219071 -0.558707
vt 0.219071 0.037335
vt -0.043545 0.037335
vt -0.043545 -0.558707
vt -0.227223 -0.558707
vt -0.227223 0.037335
vt -0.489836 0.037335
vt -0.489836 -0.558707
vt -0.605334 -0.114091
vt -0.605334 0.148522
vt -0.610791 0.148522
vt -0.610791 -0.114087
vt -0.618450 -0.562206
vt -0.618450 -0.299593
vt -0.623906 -0.299590
vt -0.623906 -0.562206
s 1
usemtl M_Box_24_FlapInner_1_0
f 1/1/1 2/2/1 4/3/1 3/4/1
f 5/5/2 6/6/3 8/7/3 7/8/2
f 6/6/4 5/5/5 9/9/5 10/10/4
f 7/8/6 8/7/7 12/11/7 11/12/6
f 10/10/8 9/9/9 11/12/9 12/11/8
f 5/5/2 7/8/2 11/12/9 9/9/9
f 10/13/8 12/14/8 2/15/10 1/16/10
f 3/17/11 4/18/11 8/19/3 6/20/3
f 8/21/7 4/22/12 2/23/12 12/24/7
f 3/25/4 6/26/4 10/27/4 1/28/4
