# Blender 4.1.1
# www.blender.org
mtllib Fp405_Cube_1411Fp405_Cube_1411_0.mtl
o Fp405_Cube_1411
v 0.029661 0.093572 -0.136985
v 0.019131 0.093569 -0.145092
v -0.021569 0.093569 -0.145092
v -0.032100 0.093572 -0.136985
v 0.029661 0.093583 -0.105700
v -0.032100 0.093583 -0.105700
v 0.019131 0.093586 -0.097594
v -0.021569 0.093586 -0.097594
v -0.015472 -0.031653 -0.101557
v -0.019116 -0.067848 -0.118156
v 0.016678 -0.067848 -0.118156
v 0.013034 -0.031653 -0.101557
v -0.015472 -0.006449 -0.100002
v 0.013034 -0.006449 -0.100002
v 0.024401 -0.006452 -0.108753
v 0.024401 -0.030660 -0.110246
v 0.024401 -0.028173 -0.132021
v 0.024401 -0.006460 -0.130659
v 0.028046 -0.045604 -0.148943
v 0.028046 -0.062884 -0.125026
v 0.030642 -0.057242 -0.173227
v 0.030642 -0.091966 -0.160077
v 0.013034 -0.006463 -0.139410
v 0.013034 -0.027180 -0.140710
v 0.021526 -0.098817 -0.157483
v -0.026840 -0.006460 -0.130659
v -0.026840 -0.006452 -0.108753
v -0.026840 -0.030660 -0.110246
v -0.026840 -0.028173 -0.132021
v -0.030484 -0.062884 -0.125026
v -0.030484 -0.045604 -0.148943
v -0.033081 -0.091966 -0.160077
v -0.033081 -0.057242 -0.173227
v -0.015472 -0.006463 -0.139410
v -0.015472 -0.027180 -0.140710
v -0.023965 -0.098817 -0.157483
v -0.019116 -0.041486 -0.154642
v 0.016678 -0.041486 -0.154642
v 0.021526 -0.052986 -0.174838
v -0.023965 -0.052986 -0.174838
v 0.018828 -0.094274 -0.159203
v 0.013195 -0.062911 -0.126872
v 0.017148 -0.060986 -0.129399
v 0.024326 -0.090143 -0.160767
v 0.017148 -0.046809 -0.148013
v 0.024326 -0.059709 -0.172292
v -0.021267 -0.094274 -0.159203
v -0.026764 -0.090143 -0.160767
v -0.026764 -0.059709 -0.172292
v -0.022094 -0.057529 -0.173118
v 0.019656 -0.057529 -0.173118
v -0.019586 -0.046809 -0.148013
v -0.016229 -0.045793 -0.149347
v 0.013790 -0.045793 -0.149347
v -0.019586 -0.060986 -0.129399
v -0.015633 -0.062911 -0.126872
vn -0.6490 -0.6435 0.4058
vn 0.3142 -0.6837 0.6587
vn -0.3107 -0.6667 0.6775
vn 0.6576 -0.6412 0.3955
vn -0.6575 -0.6472 -0.3857
vn 0.6493 -0.6496 -0.3956
vn -0.3146 -0.6908 -0.6510
vn 0.3109 -0.6750 -0.6691
vn 0.3771 0.1747 -0.9096
vn -0.3999 0.5141 -0.7588
vn 0.3978 0.5140 -0.7600
vn -0.3773 0.1759 -0.9093
vn 0.4179 0.0585 -0.9066
vn -0.4233 0.0574 -0.9042
vn -0.8362 0.0396 -0.5470
vn -0.8700 -0.2689 0.4132
vn -0.8156 0.1065 -0.5687
vn -0.8465 0.0046 0.5324
vn -0.7664 -0.5725 0.2912
vn -0.7955 0.3184 -0.5155
vn -0.5130 -0.1500 0.8452
vn -0.5355 0.6483 0.5413
vn -0.4331 -0.0259 0.9010
vn -0.4296 -0.4272 0.7956
vn -0.2900 0.8364 0.4652
vn 0.8313 0.0392 -0.5545
vn 0.8515 0.0050 0.5244
vn 0.8235 0.1088 -0.5567
vn 0.8911 -0.2249 0.3941
vn 0.8058 0.3087 -0.5055
vn 0.7886 -0.5453 0.2840
vn 0.5611 0.6523 0.5096
vn 0.4952 -0.1361 0.8580
vn 0.4404 -0.0286 0.8973
vn 0.4239 -0.4384 0.7925
vn 0.3182 0.7929 0.5197
vn 0.3834 -0.7676 0.5136
vn -0.3823 -0.7759 0.5019
vn 0.2270 -0.1927 0.9546
vn -0.2486 -0.1566 0.9559
vn 0.2081 0.3593 0.9097
vn 0.4275 0.0816 0.9003
vn 0.5334 0.4697 0.7035
vn -0.1615 0.1388 0.9771
vn 0.3021 0.9474 -0.1055
vn -0.1053 0.5978 0.7947
vn -0.2080 0.3597 0.9096
vn 0.1331 0.0700 0.9886
vn 0.0706 0.5219 0.8501
vn -0.1509 0.5380 0.8293
vn 0.2580 0.5018 0.8256
vn -0.2725 0.9564 -0.1051
vn 0.3035 0.9528 0.0044
vn -0.2935 0.9559 -0.0091
vn -0.3678 0.0722 0.9271
vn -0.5107 0.4501 0.7325
vt 0.338467 0.940100
vt 0.293540 0.930856
vt 0.329232 0.930856
vt 0.284306 0.940100
vt 0.338467 0.975774
vt 0.284306 0.975774
vt 0.329232 0.985017
vt 0.293540 0.985017
vt 0.298748 0.503238
vt 0.327256 0.544962
vt 0.295517 0.544962
vt 0.324024 0.503238
vt 0.298748 0.474180
vt 0.324024 0.474180
vt 0.293342 0.358847
vt 0.329430 0.358847
vt 0.469392 0.975496
vt 0.493506 0.949646
vt 0.496277 0.973828
vt 0.469392 0.951167
vt 0.358293 0.978925
vt 0.358293 0.944179
vt 0.512858 0.930845
vt 0.532060 0.957402
vt 0.525774 0.903871
vt 0.564345 0.918462
vt 0.358293 0.935176
vt 0.469392 0.941448
vt 0.469392 0.985215
vt 0.358293 0.987928
vt 0.492400 0.939997
vt 0.497382 0.983479
vt 0.537575 0.965029
vt 0.571954 0.921341
vt 0.358296 0.944179
vt 0.469392 0.975495
vt 0.469392 0.951167
vt 0.358296 0.978924
vt 0.496276 0.973828
vt 0.493505 0.949646
vt 0.532058 0.957401
vt 0.512857 0.930845
vt 0.564342 0.918463
vt 0.525773 0.903872
vt 0.469392 0.941448
vt 0.358296 0.935176
vt 0.358296 0.987927
vt 0.469392 0.985214
vt 0.492399 0.939997
vt 0.497382 0.983478
vt 0.537573 0.965029
vt 0.571952 0.921342
vt 0.293681 0.969112
vt 0.333887 0.918512
vt 0.288885 0.918512
vt 0.329091 0.969112
vt 0.324145 0.478478
vt 0.298628 0.502591
vt 0.324145 0.502591
vt 0.298628 0.478478
vt 0.295366 0.519237
vt 0.327407 0.519237
vt 0.329602 0.362046
vt 0.293170 0.362046
vt 0.328987 0.928941
vt 0.289018 0.903111
vt 0.333755 0.903111
vt 0.293786 0.928941
vt 0.282607 0.936227
vt 0.286191 0.957873
vt 0.297370 0.946764
vt 0.280053 0.905170
vt 0.342720 0.905170
vt 0.340166 0.936227
vt 0.325403 0.946764
vt 0.336582 0.957873
vt 0.548220 0.923588
vt 0.513036 0.955112
vt 0.515072 0.957783
vt 0.543852 0.921936
vt 0.498039 0.935436
vt 0.511670 0.909761
vt 0.334550 0.544497
vt 0.332011 0.554726
vt 0.340277 0.546648
vt 0.329565 0.549369
vt 0.290762 0.554726
vt 0.293208 0.549369
vt 0.282495 0.546648
vt 0.288223 0.544497
vt 0.282495 0.505700
vt 0.288223 0.508610
vt 0.290762 0.500682
vt 0.292457 0.506039
vt 0.332011 0.500682
vt 0.330315 0.506039
vt 0.340277 0.505700
vt 0.334550 0.508610
vt 0.293861 0.935884
vt 0.325708 0.934230
vt 0.297064 0.934230
vt 0.328912 0.935884
vt 0.293861 0.958973
vt 0.328912 0.958973
vt 0.297632 0.962108
vt 0.325140 0.962108
vt 0.335761 0.905755
vt 0.331306 0.904732
vt 0.291467 0.904732
vt 0.287011 0.905755
vt 0.511669 0.909760
vt 0.513035 0.955113
vt 0.498038 0.935436
vt 0.543853 0.921935
vt 0.515071 0.957784
vt 0.548221 0.923588
vt 0.290638 0.917596
vt 0.326304 0.961118
vt 0.296468 0.961118
vt 0.332134 0.917596
s 1
usemtl M_Fp405_Cube_1411_0
f 1/1/1 3/2/2 2/3/3
f 3/2/2 1/1/1 4/4/4
f 4/4/4 1/1/1 5/5/5
f 4/4/4 5/5/5 6/6/6
f 6/6/6 5/5/5 7/7/7
f 6/6/6 7/7/7 8/8/8
f 9/9/9 11/10/10 10/11/11
f 9/9/9 12/12/12 11/10/10
f 13/13/13 12/12/12 9/9/9
f 13/13/13 14/14/14 12/12/12
f 14/14/14 13/13/13 8/15/8
f 14/14/14 8/15/8 7/16/7
f 15/17/15 17/18/16 16/19/17
f 15/17/15 18/20/18 17/18/16
f 18/20/18 15/17/15 5/21/5
f 18/20/18 5/21/5 1/22/1
f 16/19/17 17/18/16 19/23/19
f 16/19/17 19/23/19 20/24/20
f 20/24/20 19/23/19 21/25/21
f 20/24/20 21/25/21 22/26/22
f 2/27/3 18/20/18 1/22/1
f 2/27/3 23/28/23 18/20/18
f 23/28/23 17/18/16 18/20/18
f 14/29/14 5/21/5 15/17/15
f 14/29/14 7/30/7 5/21/5
f 23/28/23 24/31/24 17/18/16
f 12/32/12 15/17/15 16/19/17
f 12/32/12 14/29/14 15/17/15
f 11/33/10 16/19/17 20/24/20
f 11/33/10 12/32/12 16/19/17
f 20/24/20 25/34/25 11/33/10
f 20/24/20 22/26/22 25/34/25
f 4/35/4 27/36/26 26/37/27
f 4/35/4 6/38/6 27/36/26
f 26/37/27 27/36/26 28/39/28
f 26/37/27 28/39/28 29/40/29
f 29/40/29 28/39/28 30/41/30
f 29/40/29 30/41/30 31/42/31
f 31/42/31 30/41/30 32/43/32
f 31/42/31 32/43/32 33/44/33
f 34/45/34 4/35/4 26/37/27
f 34/45/34 3/46/2 4/35/4
f 8/47/8 27/36/26 6/38/6
f 8/47/8 13/48/13 27/36/26
f 28/39/28 27/36/26 13/48/13
f 26/37/27 35/49/35 34/45/34
f 26/37/27 29/40/29 35/49/35
f 28/39/28 13/48/13 9/50/9
f 30/41/30 28/39/28 9/50/9
f 30/41/30 9/50/9 10/51/11
f 32/43/32 30/41/30 10/51/11
f 32/43/32 10/51/11 36/52/36
f 10/53/11 25/54/25 36/55/36
f 10/53/11 11/56/10 25/54/25
f 23/57/23 35/58/35 24/59/24
f 23/57/23 34/60/34 35/58/35
f 24/59/24 35/58/35 37/61/37
f 24/59/24 37/61/37 38/62/38
f 34/60/34 23/57/23 2/63/3
f 34/60/34 2/63/3 3/64/2
f 38/65/38 40/66/39 39/67/40
f 38/65/38 37/68/37 40/66/39
f 40/66/39 37/68/37 31/69/31
f 29/70/29 31/69/31 37/68/37
f 29/70/29 37/68/37 35/71/35
f 40/66/39 31/69/31 33/72/33
f 38/65/38 39/67/40 21/73/21
f 38/65/38 21/73/21 19/74/19
f 24/75/24 38/65/38 19/74/19
f 24/75/24 19/74/19 17/76/16
f 41/77/41 43/78/42 42/79/43
f 41/77/41 44/80/44 43/78/42
f 44/80/44 45/81/45 43/78/42
f 44/80/44 46/82/46 45/81/45
f 44/83/44 25/84/25 22/85/22
f 44/83/44 41/86/41 25/84/25
f 41/86/41 36/87/36 25/84/25
f 41/86/41 47/88/47 36/87/36
f 47/88/47 32/89/32 36/87/36
f 47/88/47 48/90/48 32/89/32
f 48/90/48 33/91/33 32/89/32
f 48/90/48 49/92/49 33/91/33
f 49/92/49 40/93/39 33/91/33
f 49/92/49 50/94/50 40/93/39
f 50/94/50 39/95/40 40/93/39
f 50/94/50 51/96/51 39/95/40
f 51/96/51 21/97/21 39/95/40
f 51/96/51 46/98/46 21/97/21
f 46/98/46 22/85/22 21/97/21
f 46/98/46 44/83/44 22/85/22
f 52/99/52 54/100/53 53/101/54
f 54/100/53 52/99/52 45/102/45
f 45/102/45 52/99/52 55/103/55
f 45/102/45 55/103/55 43/104/42
f 43/104/42 55/103/55 56/105/56
f 43/104/42 56/105/56 42/106/43
f 46/107/46 54/100/53 45/102/45
f 46/107/46 51/108/51 54/100/53
f 51/108/51 53/101/54 54/100/53
f 51/108/51 50/109/50 53/101/54
f 50/109/50 52/99/52 53/101/54
f 50/109/50 49/110/49 52/99/52
f 49/111/49 55/112/55 52/113/52
f 49/111/49 48/114/48 55/112/55
f 48/114/48 56/115/56 55/112/55
f 48/114/48 47/116/47 56/115/56
f 47/117/47 42/118/43 56/119/56
f 47/117/47 41/120/41 42/118/43
