# Blender 4.1.0
# www.blender.org
mtllib MeshSoapBottleVolume_3_1.mtl
o SoapBottleVolume_3
v 0.034865 0.018315 0.034946
v 0.037843 0.019549 0.019821
v 0.028964 0.032837 0.019821
v 0.026684 0.030558 0.034946
v 0.014441 0.038738 0.034946
v 0.015675 0.041717 0.019821
v 0.000000 0.041611 0.034946
v 0.000000 0.044835 0.019821
v -0.014441 0.038738 0.034946
v -0.015675 0.041717 0.019821
v -0.026684 0.030558 0.034946
v -0.028964 0.032837 0.019821
v -0.034865 0.018315 0.034946
v -0.037843 0.019549 0.019821
v -0.037737 0.003874 0.034946
v -0.040961 0.003874 0.019821
v -0.034865 -0.010568 0.034946
v -0.037843 -0.011801 0.019821
v -0.026684 -0.022810 0.034946
v -0.028964 -0.025090 0.019821
v -0.014441 -0.030991 0.034946
v -0.015675 -0.033969 0.019821
v -0.000000 -0.033864 0.034946
v -0.000000 -0.037087 0.019821
v 0.014441 -0.030991 0.034946
v 0.015675 -0.033969 0.019821
v 0.026684 -0.022810 0.034946
v 0.028964 -0.025090 0.019821
v 0.034865 -0.010568 0.034946
v 0.037843 -0.011801 0.019821
v 0.037737 0.003874 0.034946
v 0.040961 0.003874 0.019821
v 0.028026 0.015482 0.046502
v 0.021451 0.025324 0.046500
v 0.011575 0.031887 0.046534
v 0.000000 0.034169 0.046555
v -0.011575 0.031887 0.046534
v -0.021451 0.025324 0.046500
v -0.028026 0.015482 0.046502
v -0.030333 0.003873 0.046504
v -0.028023 -0.007734 0.046506
v -0.021447 -0.017574 0.046507
v -0.011607 -0.024148 0.046508
v -0.000000 -0.026456 0.046509
v 0.011607 -0.024148 0.046508
v 0.021447 -0.017574 0.046507
v 0.028023 -0.007734 0.046506
v 0.030333 0.003873 0.046504
v 0.022991 0.013468 0.053310
v 0.017598 0.021543 0.053309
v 0.009460 0.026965 0.053306
v 0.000000 0.026924 0.053302
v -0.009460 0.026965 0.053306
v -0.017598 0.021543 0.053309
v -0.022991 0.013468 0.053310
v -0.024884 0.003945 0.053312
v -0.022988 -0.005577 0.053314
v -0.017593 -0.013648 0.053315
v -0.009521 -0.019041 0.053316
v -0.000000 -0.020935 0.053317
v 0.009521 -0.019041 0.053316
v 0.017593 -0.013648 0.053315
v 0.022988 -0.005577 0.053314
v 0.024884 0.003945 0.053312
v 0.018676 0.011680 0.056056
v 0.015475 0.010354 0.060147
v 0.016750 0.003944 0.060147
v 0.020215 0.003944 0.056056
v 0.014294 0.018238 0.056056
v 0.011844 0.015788 0.060147
v 0.007708 0.022676 0.056020
v 0.006410 0.019419 0.060147
v 0.015475 -0.002466 0.060147
v 0.018676 -0.003792 0.056056
v 0.000000 0.024258 0.055968
v 0.000000 0.020694 0.060147
v -0.007708 0.022676 0.056020
v -0.006410 0.019419 0.060147
v -0.014294 0.018238 0.056056
v -0.011844 0.015788 0.060147
v -0.018676 0.011680 0.056056
v -0.015475 0.010354 0.060147
v -0.020215 0.003944 0.056056
v -0.016750 0.003944 0.060147
v -0.018676 -0.003792 0.056056
v -0.015475 -0.002466 0.060147
v -0.014294 -0.010350 0.056056
v -0.011844 -0.007900 0.060147
v -0.007736 -0.014732 0.056056
v -0.006410 -0.011531 0.060147
v -0.000000 -0.016271 0.056056
v -0.000000 -0.012806 0.060147
v 0.007736 -0.014732 0.056056
v 0.006410 -0.011531 0.060147
v 0.014294 -0.010350 0.056056
v 0.011844 -0.007900 0.060147
v 0.025133 0.029007 -0.117428
v 0.013602 0.036712 -0.117428
v -0.000000 0.003874 -0.117480
v 0.000000 0.039418 -0.117428
v -0.013602 0.036712 -0.117428
v -0.025133 0.029007 -0.117428
v -0.032838 0.017476 -0.117428
v -0.035543 0.003874 -0.117428
v -0.032838 -0.009728 -0.117428
v -0.025133 -0.021259 -0.117428
v -0.013602 -0.028964 -0.117428
v -0.000000 -0.031670 -0.117428
v 0.013602 -0.028964 -0.117428
v 0.025133 -0.021259 -0.117428
v 0.032838 -0.009728 -0.117428
v 0.035543 0.003874 -0.117428
v 0.032838 0.017476 -0.117428
v 0.028947 0.032821 -0.111781
v 0.037822 0.019540 -0.111781
v 0.015666 0.041696 -0.111782
v 0.000000 0.044812 -0.111782
v -0.015666 0.041696 -0.111782
v -0.028947 0.032821 -0.111781
v -0.037822 0.019540 -0.111781
v -0.040938 0.003874 -0.111781
v -0.037822 -0.011792 -0.111781
v -0.028947 -0.025074 -0.111781
v -0.015666 -0.033948 -0.111782
v -0.000000 -0.037064 -0.111782
v 0.015666 -0.033948 -0.111782
v 0.028947 -0.025074 -0.111781
v 0.037822 -0.011792 -0.111781
v 0.040938 0.003874 -0.111781
v 0.036322 0.018919 -0.115636
v 0.039315 0.003874 -0.115636
v 0.027800 0.031674 -0.115636
v 0.015045 0.040196 -0.115636
v 0.000000 0.043189 -0.115636
v -0.015045 0.040196 -0.115636
v -0.027800 0.031674 -0.115636
v -0.036322 0.018919 -0.115636
v -0.039315 0.003874 -0.115636
v -0.036322 -0.011172 -0.115636
v -0.027800 -0.023926 -0.115636
v -0.015045 -0.032448 -0.115636
v -0.000000 -0.035441 -0.115636
v 0.015045 -0.032448 -0.115636
v 0.027800 -0.023926 -0.115636
v 0.036322 -0.011172 -0.115636
v 0.000000 0.003944 0.060381
vn 0.8655 0.3585 0.3500
vn 0.9237 0.3826 0.0206
vn 0.7069 0.7070 0.0205
vn 0.6623 0.6624 0.3501
vn 0.3584 0.8654 0.3502
vn 0.3826 0.9237 0.0205
vn -0.0000 0.9367 0.3502
vn -0.0000 0.9998 0.0205
vn -0.3584 0.8654 0.3502
vn -0.3826 0.9237 0.0205
vn -0.6623 0.6625 0.3501
vn -0.7069 0.7070 0.0205
vn -0.8655 0.3585 0.3500
vn -0.9237 0.3826 0.0205
vn -0.9368 -0.0000 0.3500
vn -0.9998 -0.0000 0.0205
vn -0.8654 -0.3585 0.3500
vn -0.9237 -0.3826 0.0206
vn -0.6624 -0.6624 0.3500
vn -0.7070 -0.7069 0.0205
vn -0.3585 -0.8654 0.3500
vn -0.3826 -0.9237 0.0205
vn -0.0000 -0.9367 0.3500
vn -0.0000 -0.9998 0.0205
vn 0.3585 -0.8654 0.3500
vn 0.3826 -0.9237 0.0205
vn 0.6624 -0.6624 0.3500
vn 0.7070 -0.7069 0.0205
vn 0.8654 -0.3585 0.3500
vn 0.9237 -0.3826 0.0206
vn 0.9368 -0.0000 0.3500
vn 0.9998 -0.0000 0.0205
vn 0.7619 0.3153 0.5658
vn 0.5831 0.5834 0.5653
vn 0.3034 0.7584 0.5769
vn -0.0000 0.8115 0.5843
vn -0.3034 0.7584 0.5769
vn -0.5831 0.5834 0.5653
vn -0.7619 0.3153 0.5658
vn -0.8241 -0.0003 0.5664
vn -0.7609 -0.3154 0.5671
vn -0.5820 -0.5823 0.5676
vn -0.3149 -0.7604 0.5680
vn -0.0000 -0.8229 0.5681
vn 0.3149 -0.7604 0.5680
vn 0.5820 -0.5823 0.5676
vn 0.7609 -0.3155 0.5671
vn 0.8241 -0.0003 0.5664
vn 0.6565 0.2719 0.7036
vn 0.5023 0.5036 0.7029
vn 0.2380 0.6635 0.7093
vn -0.0000 0.7014 0.7128
vn -0.2380 0.6635 0.7093
vn -0.5023 0.5036 0.7029
vn -0.6563 0.2724 0.7036
vn -0.7094 0.0006 0.7048
vn -0.6546 -0.2706 0.7059
vn -0.5005 -0.4999 0.7068
vn -0.2707 -0.6529 0.7075
vn -0.0000 -0.7065 0.7077
vn 0.2707 -0.6529 0.7075
vn 0.5005 -0.4999 0.7068
vn 0.6546 -0.2706 0.7059
vn 0.7094 0.0005 0.7048
vn 0.5712 0.2366 0.7859
vn 0.7050 0.2920 0.6463
vn 0.7631 -0.0000 0.6463
vn 0.6183 -0.0000 0.7860
vn 0.4369 0.4379 0.7858
vn 0.5392 0.5399 0.6463
vn 0.2312 0.6010 0.7651
vn 0.2921 0.7038 0.6475
vn 0.7050 -0.2920 0.6463
vn 0.5712 -0.2366 0.7860
vn -0.0000 0.6796 0.7336
vn -0.0000 0.7611 0.6487
vn -0.2312 0.6010 0.7651
vn -0.2920 0.7039 0.6475
vn -0.4369 0.4379 0.7858
vn -0.5391 0.5400 0.6463
vn -0.5712 0.2366 0.7859
vn -0.7050 0.2920 0.6463
vn -0.6183 -0.0000 0.7860
vn -0.7631 -0.0000 0.6463
vn -0.5712 -0.2366 0.7860
vn -0.7050 -0.2920 0.6463
vn -0.4372 -0.4372 0.7860
vn -0.5396 -0.5396 0.6463
vn -0.2366 -0.5712 0.7860
vn -0.2920 -0.7050 0.6463
vn -0.0000 -0.6183 0.7860
vn -0.0000 -0.7631 0.6463
vn 0.2366 -0.5712 0.7860
vn 0.2920 -0.7050 0.6463
vn 0.4372 -0.4372 0.7860
vn 0.5396 -0.5396 0.6463
vn 0.0231 0.0557 -0.9982
vn 0.0426 0.0426 -0.9982
vn -0.0000 -0.0000 -1.0000
vn -0.0000 0.0602 -0.9982
vn -0.0231 0.0557 -0.9982
vn -0.0426 0.0425 -0.9982
vn -0.0557 0.0231 -0.9982
vn -0.0602 -0.0000 -0.9982
vn -0.0557 -0.0231 -0.9982
vn -0.0426 -0.0426 -0.9982
vn -0.0231 -0.0557 -0.9982
vn -0.0000 -0.0602 -0.9982
vn 0.0231 -0.0557 -0.9982
vn 0.0426 -0.0426 -0.9982
vn 0.0557 -0.0231 -0.9982
vn 0.0602 -0.0000 -0.9982
vn 0.0557 0.0231 -0.9982
vn 0.9238 0.3827 -0.0114
vn 0.7071 0.7071 -0.0114
vn 0.3827 0.9238 -0.0114
vn -0.0000 0.9999 -0.0114
vn -0.3827 0.9238 -0.0114
vn -0.7071 0.7071 -0.0114
vn -0.9238 0.3827 -0.0114
vn -0.9999 -0.0000 -0.0114
vn -0.9238 -0.3827 -0.0114
vn -0.7071 -0.7071 -0.0114
vn -0.3827 -0.9238 -0.0114
vn -0.0000 -0.9999 -0.0114
vn 0.3827 -0.9238 -0.0114
vn 0.7071 -0.7071 -0.0114
vn 0.9238 -0.3827 -0.0114
vn 0.9999 -0.0000 -0.0114
vn 0.6960 0.2883 -0.6577
vn 0.7533 -0.0000 -0.6577
vn 0.5327 0.5327 -0.6577
vn 0.2883 0.6960 -0.6577
vn -0.0000 0.7533 -0.6577
vn -0.2883 0.6960 -0.6577
vn -0.5327 0.5327 -0.6577
vn -0.6960 0.2883 -0.6577
vn -0.7533 -0.0000 -0.6577
vn -0.6960 -0.2883 -0.6577
vn -0.5327 -0.5327 -0.6577
vn -0.2883 -0.6959 -0.6577
vn -0.0000 -0.7533 -0.6577
vn 0.2883 -0.6959 -0.6577
vn 0.5327 -0.5327 -0.6577
vn 0.6960 -0.2883 -0.6577
vn 0.0091 0.0091 0.9999
vn 0.0129 0.0054 0.9999
vn 0.0054 0.0129 0.9999
vn -0.0091 0.0091 0.9999
vn -0.0054 0.0129 0.9999
vn -0.0129 0.0054 0.9999
vn -0.0091 -0.0091 0.9999
vn -0.0129 -0.0054 0.9999
vn -0.0054 -0.0129 0.9999
vn 0.0091 -0.0091 0.9999
vn 0.0054 -0.0129 0.9999
vn 0.0129 -0.0054 0.9999
vt 3.270400 0.679238
vt 3.277141 0.601362
vt 3.349215 0.601362
vt 3.336761 0.679238
vt 3.381101 0.679238
vt 3.397375 0.601362
vt 3.723135 -0.059830
vt 3.793241 -0.059830
vt 3.799277 0.009915
vt 3.723135 0.009915
vt 3.653030 -0.059830
vt 3.646994 0.009915
vt 3.357559 0.679238
vt 3.313219 0.679238
vt 3.296945 0.601362
vt 3.345105 0.601362
vt 3.423920 0.679238
vt 3.417179 0.601362
vt 3.502199 0.679238
vt 3.502199 0.601362
vt 3.580479 0.679238
vt 3.587217 0.601362
vt 3.646840 0.679238
vt 3.659293 0.601362
vt 3.691179 0.679238
vt 3.707453 0.601362
vt 3.855664 0.650099
vt 3.785559 0.650099
vt 3.779522 0.580354
vt 3.855664 0.580354
vt 3.925769 0.650099
vt 3.931806 0.580354
vt 3.047480 0.679238
vt 3.003141 0.679238
vt 2.986866 0.601362
vt 3.035027 0.601362
vt 3.113841 0.679238
vt 3.107103 0.601362
vt 3.192121 0.679238
vt 3.192121 0.601362
vt 3.254744 0.738745
vt 3.307833 0.738745
vt 3.667940 0.967443
vt 3.722077 0.931271
vt 3.751575 0.960770
vt 3.683905 1.005984
vt 3.604081 0.980145
vt 3.604081 1.021864
vt 3.540222 0.967443
vt 3.524258 1.005984
vt 3.486085 0.931271
vt 3.456587 0.960770
vt 3.439576 0.738745
vt 3.386486 0.738745
vt 3.502199 0.738745
vt 3.564822 0.738745
vt 3.617912 0.738745
vt 3.540222 0.659105
vt 3.486085 0.695278
vt 3.456587 0.665779
vt 3.524258 0.620565
vt 3.604081 0.646402
vt 3.604081 0.604685
vt 3.667939 0.659105
vt 3.683904 0.620565
vt 3.722078 0.695278
vt 3.751575 0.665779
vt 3.129498 0.738745
vt 3.076408 0.738745
vt 3.192121 0.738745
vt 3.243898 0.773344
vt 3.287453 0.773344
vt 3.656472 0.940165
vt 3.700887 0.910488
vt 3.604081 0.939463
vt 3.551690 0.940165
vt 3.507275 0.910488
vt 3.450421 0.773344
vt 3.406867 0.773344
vt 3.501798 0.773344
vt 3.553176 0.773344
vt 3.596731 0.773344
vt 3.551690 0.687199
vt 3.507275 0.716876
vt 3.604081 0.676777
vt 3.656472 0.687199
vt 3.700887 0.716876
vt 3.141144 0.773344
vt 3.097589 0.773344
vt 3.192522 0.773344
vt 3.705813 0.855821
vt 3.688977 0.848847
vt 3.695972 0.813684
vt 3.714195 0.813684
vt 3.681943 0.891544
vt 3.669058 0.878658
vt 3.646220 0.915413
vt 3.639246 0.898579
vt 3.688977 0.778518
vt 3.705813 0.771543
vt 3.604081 0.923797
vt 3.604081 0.905574
vt 3.561942 0.915413
vt 3.568916 0.898579
vt 3.526219 0.891544
vt 3.539104 0.878658
vt 3.502350 0.855821
vt 3.519185 0.848847
vt 3.493968 0.813684
vt 3.512190 0.813684
vt 3.502350 0.771543
vt 3.519185 0.778518
vt 3.526219 0.735820
vt 3.539104 0.748706
vt 3.561943 0.711951
vt 3.568916 0.728786
vt 3.604081 0.703568
vt 3.604081 0.721791
vt 3.646220 0.711951
vt 3.639246 0.728786
vt 3.681943 0.735820
vt 3.669058 0.748706
vt 3.730565 0.866074
vt 3.740986 0.813684
vt 3.477598 0.866074
vt 3.467177 0.813684
vt 3.477598 0.761292
vt 3.730565 0.761292
vt 3.942760 0.592527
vt 3.998715 0.629914
vt 3.876756 0.751873
vt 3.876756 0.579396
vt 3.810752 0.592527
vt 3.754797 0.629914
vt 3.717408 0.685869
vt 3.704280 0.751873
vt 3.717408 0.817877
vt 3.754797 0.873833
vt 3.810752 0.911220
vt 3.876756 0.924349
vt 3.942760 0.911220
vt 3.998715 0.873833
vt 4.036103 0.817877
vt 4.049232 0.751873
vt 4.036103 0.685869
vt 3.277141 -0.098053
vt 3.349215 -0.098053
vt 3.397375 -0.098053
vt 3.799277 0.636301
vt 3.723135 0.636301
vt 3.646994 0.636301
vt 3.296945 -0.098052
vt 3.345105 -0.098052
vt 3.417179 -0.098052
vt 3.502199 -0.098052
vt 3.587217 -0.098052
vt 3.659293 -0.098052
vt 3.707453 -0.098052
vt 3.779522 -0.046033
vt 3.855664 -0.046033
vt 3.931806 -0.046033
vt 2.986866 -0.098053
vt 3.035027 -0.098053
vt 3.107103 -0.098053
vt 3.192121 -0.098053
vt 4.048622 0.680683
vt 4.062782 0.751873
vt 3.274651 -0.113458
vt 3.192121 -0.113458
vt 3.344614 -0.113458
vt 4.008296 0.620333
vt 3.391363 -0.113458
vt 3.947945 0.580008
vt 3.797047 0.650099
vt 3.723135 0.650099
vt 3.876756 0.565847
vt 3.649224 0.650099
vt 3.805567 0.580008
vt 3.302957 -0.113458
vt 3.349705 -0.113458
vt 3.745216 0.620333
vt 3.419669 -0.113458
vt 3.704891 0.680683
vt 3.502199 -0.113458
vt 3.690730 0.751873
vt 3.584730 -0.113458
vt 3.704891 0.823064
vt 3.654692 -0.113458
vt 3.745216 0.883413
vt 3.701441 -0.113458
vt 3.805567 0.923738
vt 3.781753 -0.059830
vt 3.855664 -0.059830
vt 3.876756 0.937899
vt 3.929576 -0.059830
vt 3.947945 0.923738
vt 2.992879 -0.113458
vt 3.039627 -0.113458
vt 4.008296 0.883413
vt 3.109590 -0.113458
vt 4.048622 0.823064
vt 3.604081 0.813685
s 1
usemtl M_SoapBottleVolume_3_0
f 1/1/1 2/2/2 3/3/3 4/4/4
f 5/5/5 4/4/4 3/3/3 6/6/6
f 7/7/7 5/8/5 6/9/6 8/10/8
f 9/11/9 7/7/7 8/10/8 10/12/10
f 11/13/11 9/14/9 10/15/10 12/16/12
f 13/17/13 11/13/11 12/16/12 14/18/14
f 15/19/15 13/17/13 14/18/14 16/20/16
f 17/21/17 15/19/15 16/20/16 18/22/18
f 19/23/19 17/21/17 18/22/18 20/24/20
f 21/25/21 19/23/19 20/24/20 22/26/22
f 23/27/23 21/28/21 22/29/22 24/30/24
f 25/31/25 23/27/23 24/30/24 26/32/26
f 27/33/27 25/34/25 26/35/26 28/36/28
f 29/37/29 27/33/27 28/36/28 30/38/30
f 31/39/31 29/37/29 30/38/30 32/40/32
f 2/2/2 1/1/1 31/39/31 32/40/32
f 33/41/33 1/1/1 4/4/4 34/42/34
f 35/43/35 34/44/34 4/45/4 5/46/5
f 36/47/36 35/43/35 5/46/5 7/48/7
f 37/49/37 36/47/36 7/48/7 9/50/9
f 38/51/38 37/49/37 9/50/9 11/52/11
f 39/53/39 38/54/38 11/13/11 13/17/13
f 40/55/40 39/53/39 13/17/13 15/19/15
f 41/56/41 40/55/40 15/19/15 17/21/17
f 42/57/42 41/56/41 17/21/17 19/23/19
f 43/58/43 42/59/42 19/60/19 21/61/21
f 44/62/44 43/58/43 21/61/21 23/63/23
f 45/64/45 44/62/44 23/63/23 25/65/25
f 46/66/46 45/64/45 25/65/25 27/67/27
f 47/68/47 46/69/46 27/33/27 29/37/29
f 48/70/48 47/68/47 29/37/29 31/39/31
f 31/39/31 1/1/1 33/41/33 48/70/48
f 49/71/49 33/41/33 34/42/34 50/72/50
f 51/73/51 50/74/50 34/44/34 35/43/35
f 52/75/52 51/73/51 35/43/35 36/47/36
f 53/76/53 52/75/52 36/47/36 37/49/37
f 54/77/54 53/76/53 37/49/37 38/51/38
f 55/78/55 54/79/54 38/54/38 39/53/39
f 56/80/56 55/78/55 39/53/39 40/55/40
f 57/81/57 56/80/56 40/55/40 41/56/41
f 58/82/58 57/81/57 41/56/41 42/57/42
f 59/83/59 58/84/58 42/59/42 43/58/43
f 60/85/60 59/83/59 43/58/43 44/62/44
f 61/86/61 60/85/60 44/62/44 45/64/45
f 62/87/62 61/86/61 45/64/45 46/66/46
f 63/88/63 62/89/62 46/69/46 47/68/47
f 64/90/64 63/88/63 47/68/47 48/70/48
f 48/70/48 33/41/33 49/71/49 64/90/64
f 65/91/65 66/92/66 67/93/67 68/94/68
f 66/92/66 65/91/65 69/95/69 70/96/70
f 70/96/70 69/95/69 71/97/71 72/98/72
f 68/94/68 67/93/67 73/99/73 74/100/74
f 72/98/72 71/97/71 75/101/75 76/102/76
f 76/102/76 75/101/75 77/103/77 78/104/78
f 78/104/78 77/103/77 79/105/79 80/106/80
f 80/106/80 79/105/79 81/107/81 82/108/82
f 82/108/82 81/107/81 83/109/83 84/110/84
f 84/110/84 83/109/83 85/111/85 86/112/86
f 86/112/86 85/111/85 87/113/87 88/114/88
f 88/114/88 87/113/87 89/115/89 90/116/90
f 90/116/90 89/115/89 91/117/91 92/118/92
f 92/118/92 91/117/91 93/119/93 94/120/94
f 94/120/94 93/119/93 95/121/95 96/122/96
f 96/122/96 95/121/95 74/100/74 73/99/73
f 65/91/65 49/123/49 50/74/50 69/95/69
f 64/124/64 49/123/49 65/91/65 68/94/68
f 69/95/69 50/74/50 51/73/51 71/97/71
f 71/97/71 51/73/51 52/75/52 75/101/75
f 75/101/75 52/75/52 53/76/53 77/103/77
f 77/103/77 53/76/53 54/77/54 79/105/79
f 79/105/79 54/77/54 55/125/55 81/107/81
f 81/107/81 55/125/55 56/126/56 83/109/83
f 83/109/83 56/126/56 57/127/57 85/111/85
f 85/111/85 57/127/57 58/84/58 87/113/87
f 87/113/87 58/84/58 59/83/59 89/115/89
f 89/115/89 59/83/59 60/85/60 91/117/91
f 91/117/91 60/85/60 61/86/61 93/119/93
f 93/119/93 61/86/61 62/87/62 95/121/95
f 95/121/95 62/87/62 63/128/63 74/100/74
f 74/100/74 63/128/63 64/124/64 68/94/68
f 98/129/97 97/130/98 99/131/99 100/132/100
f 101/133/101 100/132/100 99/131/99 102/134/102
f 103/135/103 102/134/102 99/131/99 104/136/104
f 105/137/105 104/136/104 99/131/99 106/138/106
f 107/139/107 106/138/106 99/131/99 108/140/108
f 109/141/109 108/140/108 99/131/99 110/142/110
f 111/143/111 110/142/110 99/131/99 112/144/112
f 113/145/113 112/144/112 99/131/99 97/130/98
f 115/146/114 114/147/115 3/3/3 2/2/2
f 114/147/115 116/148/116 6/6/6 3/3/3
f 116/149/116 117/150/117 8/10/8 6/9/6
f 117/150/117 118/151/118 10/12/10 8/10/8
f 118/152/118 119/153/119 12/16/12 10/15/10
f 119/153/119 120/154/120 14/18/14 12/16/12
f 120/154/120 121/155/121 16/20/16 14/18/14
f 121/155/121 122/156/122 18/22/18 16/20/16
f 122/156/122 123/157/123 20/24/20 18/22/18
f 123/157/123 124/158/124 22/26/22 20/24/20
f 124/159/124 125/160/125 24/30/24 22/29/22
f 125/160/125 126/161/126 26/32/26 24/30/24
f 126/162/126 127/163/127 28/36/28 26/35/26
f 127/163/127 128/164/128 30/38/30 28/36/28
f 128/164/128 129/165/129 32/40/32 30/38/30
f 129/165/129 115/146/114 2/2/2 32/40/32
f 113/145/113 130/166/130 131/167/131 112/144/112
f 130/168/130 115/146/114 129/165/129 131/169/131
f 115/146/114 130/168/130 132/170/132 114/147/115
f 130/166/130 113/145/113 97/130/98 132/171/132
f 114/147/115 132/170/132 133/172/133 116/148/116
f 132/171/132 97/130/98 98/129/97 133/173/133
f 116/149/116 133/174/133 134/175/134 117/150/117
f 133/173/133 98/129/97 100/132/100 134/176/134
f 117/150/117 134/175/134 135/177/135 118/151/118
f 134/176/134 100/132/100 101/133/101 135/178/135
f 118/152/118 135/179/135 136/180/136 119/153/119
f 135/178/135 101/133/101 102/134/102 136/181/136
f 119/153/119 136/180/136 137/182/137 120/154/120
f 136/181/136 102/134/102 103/135/103 137/183/137
f 120/154/120 137/182/137 138/184/138 121/155/121
f 137/183/137 103/135/103 104/136/104 138/185/138
f 121/155/121 138/184/138 139/186/139 122/156/122
f 138/185/138 104/136/104 105/137/105 139/187/139
f 122/156/122 139/186/139 140/188/140 123/157/123
f 139/187/139 105/137/105 106/138/106 140/189/140
f 123/157/123 140/188/140 141/190/141 124/158/124
f 140/189/140 106/138/106 107/139/107 141/191/141
f 124/159/124 141/192/141 142/193/142 125/160/125
f 141/191/141 107/139/107 108/140/108 142/194/142
f 125/160/125 142/193/142 143/195/143 126/161/126
f 142/194/142 108/140/108 109/141/109 143/196/143
f 126/162/126 143/197/143 144/198/144 127/163/127
f 143/196/143 109/141/109 110/142/110 144/199/144
f 127/163/127 144/198/144 145/200/145 128/164/128
f 144/199/144 110/142/110 111/143/111 145/201/145
f 128/164/128 145/200/145 131/169/131 129/165/129
f 145/201/145 111/143/111 112/144/112 131/167/131
f 146/202/146 67/93/147 66/92/147 70/96/146
f 146/202/146 70/96/146 72/98/148 76/102/148
f 146/202/149 76/102/150 78/104/150 80/106/149
f 146/202/149 80/106/149 82/108/151 84/110/151
f 146/202/152 84/110/153 86/112/153 88/114/152
f 146/202/152 88/114/152 90/116/154 92/118/154
f 146/202/155 92/118/156 94/120/156 96/122/155
f 146/202/155 96/122/155 73/99/157 67/93/157
