# Blender 4.1.0
# www.blender.org
mtllib MeshPlate_28_0_GeomSubset_1.mtl
o MeshPlate_28_0_GeomSubset_1
v 0.000000 -0.081757 -0.058540
v 0.000000 -0.081757 -0.072055
v -0.081757 0.000000 -0.058540
v -0.081757 0.000000 -0.072055
v 0.000000 0.000000 -0.072055
v 0.081757 0.000000 -0.072055
v 0.081757 0.000000 -0.058540
v 0.000000 0.000000 -0.058540
v 0.000000 -0.093408 -0.050069
v 0.093408 0.000000 -0.050069
v -0.093408 0.000000 -0.050069
v -0.020837 0.000000 -0.058540
v -0.029159 0.000000 -0.058540
v 0.000000 -0.029160 -0.058540
v 0.000000 -0.020837 -0.058540
v 0.059677 -0.079311 -0.058540
v 0.053152 -0.081757 -0.058540
v 0.081757 -0.053152 -0.058540
v 0.079310 -0.059678 -0.058540
v 0.020837 0.000000 -0.058540
v 0.029160 0.000000 -0.058540
v -0.053152 -0.081757 -0.058540
v -0.059677 -0.079311 -0.058540
v -0.079310 -0.059678 -0.058540
v -0.081757 -0.053152 -0.058540
v 0.019889 0.000000 -0.072055
v 0.029160 0.000000 -0.072055
v 0.079305 -0.059684 -0.072055
v 0.081757 -0.053167 -0.072055
v 0.053167 -0.081757 -0.072055
v 0.059684 -0.079304 -0.072055
v 0.000000 -0.019889 -0.072055
v 0.000000 -0.029160 -0.072055
v -0.019889 0.000000 -0.072055
v -0.029160 0.000000 -0.072055
v -0.081757 -0.053167 -0.072055
v -0.079305 -0.059684 -0.072055
v -0.059684 -0.079304 -0.072055
v -0.053167 -0.081757 -0.072055
v -0.061660 -0.093408 -0.050069
v -0.067651 -0.091144 -0.050069
v 0.093408 -0.061660 -0.050069
v 0.091144 -0.067652 -0.050069
v -0.091144 -0.067652 -0.050069
v -0.093408 -0.061660 -0.050069
v 0.067652 -0.091144 -0.050069
v 0.061661 -0.093408 -0.050069
v 0.000000 0.081757 -0.058540
v 0.000000 0.081757 -0.072055
v 0.000000 0.093408 -0.050069
v 0.000000 0.029160 -0.058540
v 0.000000 0.020837 -0.058540
v 0.059677 0.079311 -0.058540
v 0.053152 0.081757 -0.058540
v 0.081757 0.053152 -0.058540
v 0.079310 0.059678 -0.058540
v -0.053152 0.081757 -0.058540
v -0.059677 0.079311 -0.058540
v -0.079310 0.059678 -0.058540
v -0.081757 0.053152 -0.058540
v 0.079305 0.059684 -0.072055
v 0.081757 0.053167 -0.072055
v 0.053167 0.081757 -0.072055
v 0.059684 0.079304 -0.072055
v 0.000000 0.019889 -0.072055
v 0.000000 0.029160 -0.072055
v -0.081757 0.053167 -0.072055
v -0.079305 0.059684 -0.072055
v -0.059684 0.079304 -0.072055
v -0.053167 0.081757 -0.072055
v -0.061660 0.093408 -0.050069
v -0.067651 0.091144 -0.050069
v 0.093408 0.061660 -0.050069
v 0.091144 0.067652 -0.050069
v -0.091144 0.067652 -0.050069
v -0.093408 0.061660 -0.050069
v 0.067652 0.091144 -0.050069
v 0.061661 0.093408 -0.050069
v -0.067663 -0.100258 -0.050069
v -0.068444 -0.102930 -0.052851
v -0.074572 -0.100402 -0.052818
v -0.073027 -0.098106 -0.050069
v 0.100258 -0.067663 -0.050069
v 0.102930 -0.068444 -0.052851
v 0.100402 -0.074572 -0.052817
v 0.098106 -0.073026 -0.050069
v -0.102930 -0.068444 -0.052851
v -0.100258 -0.067663 -0.050069
v -0.098106 -0.073026 -0.050069
v -0.100402 -0.074572 -0.052817
v 0.073027 -0.098106 -0.050069
v 0.074572 -0.100402 -0.052818
v 0.068444 -0.102930 -0.052851
v 0.067663 -0.100258 -0.050069
v 0.000000 -0.100270 -0.050069
v 0.000000 -0.102939 -0.052899
v 0.100270 0.000000 -0.050069
v 0.102939 0.000000 -0.052899
v -0.102938 0.000000 -0.052899
v -0.100270 0.000000 -0.050069
v -0.068444 0.102930 -0.052851
v -0.067663 0.100258 -0.050069
v -0.073027 0.098106 -0.050069
v -0.074572 0.100402 -0.052818
v 0.102930 0.068444 -0.052851
v 0.100258 0.067663 -0.050069
v 0.098106 0.073026 -0.050069
v 0.100402 0.074572 -0.052817
v -0.100258 0.067663 -0.050069
v -0.102930 0.068444 -0.052851
v -0.100402 0.074572 -0.052817
v -0.098106 0.073026 -0.050069
v 0.074572 0.100402 -0.052818
v 0.073027 0.098106 -0.050069
v 0.067663 0.100258 -0.050069
v 0.068444 0.102930 -0.052851
v 0.000000 0.102939 -0.052899
v 0.000000 0.100270 -0.050069
v 0.100099 -0.074354 -0.056355
v 0.100671 -0.074760 -0.054311
v 0.102609 -0.068202 -0.056362
v 0.103189 -0.068626 -0.054291
v 0.068203 -0.102609 -0.056362
v 0.068626 -0.103189 -0.054291
v 0.074354 -0.100100 -0.056355
v 0.074760 -0.100672 -0.054311
v -0.102609 -0.068202 -0.056362
v -0.103189 -0.068626 -0.054291
v -0.100099 -0.074354 -0.056355
v -0.100671 -0.074760 -0.054311
v -0.074354 -0.100100 -0.056355
v -0.074760 -0.100672 -0.054311
v -0.068203 -0.102609 -0.056362
v -0.068626 -0.103189 -0.054291
v 0.000000 -0.102536 -0.056417
v 0.000000 -0.103202 -0.054360
v 0.102537 0.000000 -0.056417
v 0.103202 0.000000 -0.054360
v -0.102537 0.000000 -0.056417
v -0.103202 0.000000 -0.054360
v 0.100099 0.074354 -0.056355
v 0.100671 0.074760 -0.054311
v 0.102609 0.068202 -0.056362
v 0.103189 0.068626 -0.054291
v 0.068203 0.102609 -0.056362
v 0.068626 0.103189 -0.054291
v 0.074354 0.100100 -0.056355
v 0.074760 0.100672 -0.054311
v -0.102609 0.068202 -0.056362
v -0.103189 0.068626 -0.054291
v -0.100099 0.074354 -0.056355
v -0.100671 0.074760 -0.054311
v -0.074354 0.100100 -0.056355
v -0.074760 0.100672 -0.054311
v -0.068203 0.102609 -0.056362
v -0.068626 0.103189 -0.054291
v 0.000000 0.102536 -0.056417
v 0.000000 0.103202 -0.054360
v 0.000000 -0.081698 -0.058362
v -0.081699 0.000000 -0.058362
v 0.081699 0.000000 -0.058362
v 0.000000 0.000000 -0.058352
v 0.000000 -0.093349 -0.049891
v 0.093349 0.000000 -0.049891
v -0.093349 0.000000 -0.049891
v -0.020837 0.000000 -0.058352
v -0.029159 0.000000 -0.058352
v 0.000000 -0.029159 -0.058352
v 0.000000 -0.020837 -0.058352
v 0.059647 -0.079264 -0.058361
v 0.053145 -0.081697 -0.058362
v 0.081697 -0.053144 -0.058362
v 0.079263 -0.059647 -0.058361
v 0.020837 0.000000 -0.058352
v 0.029160 0.000000 -0.058352
v -0.053145 -0.081697 -0.058362
v -0.059647 -0.079264 -0.058361
v -0.079263 -0.059647 -0.058361
v -0.081697 -0.053144 -0.058362
v -0.061650 -0.093361 -0.049887
v -0.067627 -0.091107 -0.049886
v 0.093361 -0.061650 -0.049887
v 0.091107 -0.067628 -0.049886
v -0.091107 -0.067628 -0.049886
v -0.093361 -0.061650 -0.049887
v 0.067628 -0.091107 -0.049886
v 0.061650 -0.093361 -0.049887
v 0.000000 0.081698 -0.058362
v 0.000000 0.093349 -0.049891
v 0.000000 0.029159 -0.058352
v 0.000000 0.020837 -0.058352
v 0.059647 0.079264 -0.058361
v 0.053145 0.081697 -0.058362
v 0.081697 0.053144 -0.058362
v 0.079263 0.059647 -0.058361
v -0.053145 0.081697 -0.058362
v -0.059647 0.079264 -0.058361
v -0.079263 0.059647 -0.058361
v -0.081697 0.053144 -0.058362
v -0.061650 0.093361 -0.049887
v -0.067627 0.091107 -0.049886
v 0.093361 0.061650 -0.049887
v 0.091107 0.067628 -0.049886
v -0.091107 0.067628 -0.049886
v -0.093361 0.061650 -0.049887
v 0.067628 0.091107 -0.049886
v 0.061650 0.093361 -0.049887
v -0.067678 -0.100337 -0.049899
v -0.068471 -0.103064 -0.052722
v -0.074647 -0.100515 -0.052687
v -0.073071 -0.098173 -0.049899
v 0.100338 -0.067678 -0.049899
v 0.103064 -0.068471 -0.052722
v 0.100514 -0.074646 -0.052687
v 0.098173 -0.073071 -0.049899
v -0.103064 -0.068471 -0.052722
v -0.100338 -0.067678 -0.049899
v -0.098173 -0.073071 -0.049899
v -0.100514 -0.074646 -0.052687
v 0.073071 -0.098173 -0.049899
v 0.074647 -0.100515 -0.052687
v 0.068471 -0.103064 -0.052722
v 0.067678 -0.100337 -0.049899
v 0.000000 -0.100346 -0.049897
v 0.000000 -0.103078 -0.052773
v 0.100346 0.000000 -0.049897
v 0.103078 0.000000 -0.052773
v -0.103077 0.000000 -0.052773
v -0.100346 0.000000 -0.049897
v -0.068471 0.103064 -0.052722
v -0.067678 0.100337 -0.049899
v -0.073071 0.098173 -0.049899
v -0.074647 0.100515 -0.052687
v 0.103064 0.068471 -0.052722
v 0.100338 0.067678 -0.049899
v 0.098173 0.073071 -0.049899
v 0.100514 0.074646 -0.052687
v -0.100338 0.067678 -0.049899
v -0.103064 0.068471 -0.052722
v -0.100514 0.074646 -0.052687
v -0.098173 0.073071 -0.049899
v 0.074647 0.100515 -0.052687
v 0.073071 0.098173 -0.049899
v 0.067678 0.100337 -0.049899
v 0.068471 0.103064 -0.052722
v 0.000000 0.103078 -0.052773
v 0.000000 0.100346 -0.049897
vn -0.0001 -0.0000 1.0000
vn -0.0001 -0.0001 1.0000
vn -0.0000 -0.0000 1.0000
vn -0.0000 -0.0001 1.0000
vn 0.0001 -0.0001 1.0000
vn -0.3339 0.3894 0.8584
vn -0.0142 0.5812 0.8136
vn -0.0343 0.5712 0.8201
vn -0.3350 0.3886 0.8583
vn -0.5812 0.0142 0.8136
vn -0.3894 0.3339 0.8584
vn -0.3886 0.3350 0.8583
vn -0.5713 0.0343 0.8200
vn 0.0001 -0.0000 1.0000
vn 0.0142 0.5812 0.8136
vn 0.3339 0.3894 0.8584
vn 0.3351 0.3886 0.8583
vn 0.0343 0.5713 0.8200
vn 0.3894 0.3339 0.8584
vn 0.5812 0.0142 0.8136
vn 0.5713 0.0343 0.8201
vn 0.3886 0.3351 0.8583
vn -0.0000 -0.0002 1.0000
vn 0.0002 -0.0000 1.0000
vn -0.0002 -0.0000 1.0000
vn 0.0001 0.5883 0.8086
vn -0.0000 0.5879 0.8089
vn -0.5880 -0.0000 0.8089
vn 0.5880 -0.0000 0.8089
vn -0.0001 0.0001 1.0000
vn -0.0000 0.0001 1.0000
vn 0.0001 0.0001 1.0000
vn -0.3339 -0.3894 0.8584
vn -0.3350 -0.3886 0.8583
vn -0.0343 -0.5712 0.8201
vn -0.0142 -0.5812 0.8136
vn -0.5812 -0.0142 0.8136
vn -0.5713 -0.0343 0.8201
vn -0.3886 -0.3350 0.8583
vn -0.3894 -0.3339 0.8584
vn 0.0142 -0.5812 0.8136
vn 0.0343 -0.5713 0.8201
vn 0.3351 -0.3886 0.8583
vn 0.3339 -0.3894 0.8584
vn 0.3894 -0.3339 0.8584
vn 0.3886 -0.3350 0.8583
vn 0.5712 -0.0343 0.8201
vn 0.5812 -0.0142 0.8136
vn -0.0000 0.0002 1.0000
vn -0.0000 -0.5879 0.8089
vn -0.0116 -0.4035 0.9149
vn -0.0241 -0.7207 0.6928
vn -0.0000 -0.7243 0.6894
vn -0.0000 -0.2922 0.9564
vn -0.1806 -0.2032 0.9623
vn -0.4703 -0.5288 0.7066
vn -0.2032 -0.1806 0.9623
vn -0.5287 -0.4703 0.7066
vn 0.4035 -0.0116 0.9149
vn 0.7207 -0.0242 0.6928
vn 0.7244 -0.0000 0.6893
vn 0.2923 -0.0000 0.9563
vn 0.2032 -0.1806 0.9623
vn 0.5287 -0.4703 0.7066
vn 0.1806 -0.2032 0.9623
vn 0.4703 -0.5287 0.7066
vn -0.7207 -0.0241 0.6928
vn -0.4035 -0.0116 0.9149
vn -0.2923 -0.0000 0.9563
vn -0.7244 -0.0000 0.6893
vn 0.0116 -0.4035 0.9149
vn 0.0241 -0.7207 0.6928
vn 0.7207 0.0241 0.6928
vn 0.4035 0.0116 0.9149
vn -0.4035 0.0116 0.9149
vn -0.7207 0.0242 0.6928
vn -0.0241 0.7207 0.6928
vn -0.0116 0.4035 0.9149
vn -0.0000 0.2922 0.9564
vn -0.0000 0.7244 0.6894
vn -0.4703 0.5287 0.7066
vn -0.1806 0.2032 0.9623
vn -0.5287 0.4703 0.7066
vn -0.2032 0.1806 0.9623
vn 0.5287 0.4704 0.7066
vn 0.2032 0.1806 0.9623
vn 0.4703 0.5287 0.7066
vn 0.1806 0.2032 0.9623
vn 0.0241 0.7207 0.6928
vn 0.0116 0.4035 0.9149
vt 0.297554 2.750000
vt 0.316546 2.750000
vt 0.436585 2.871303
vt 0.431002 2.886197
vt 0.250000 2.750000
vt 0.250000 2.797555
vt 0.250000 2.816548
vt 0.386195 2.931004
vt 0.371304 2.936585
vt 0.128694 2.936585
vt 0.113805 2.931004
vt 0.109276 2.963176
vt 0.095604 2.958010
vt 0.063415 2.871303
vt 0.068998 2.886197
vt 0.041990 2.904397
vt 0.036824 2.890722
vt 0.183450 2.750000
vt 0.202444 2.750000
vt 0.404395 2.958010
vt 0.390722 2.963176
vt 0.463176 2.890721
vt 0.458010 2.904397
vt 0.250000 2.936585
vt 0.063415 2.750000
vt 0.436585 2.750000
vt 0.250000 2.963176
vt 0.036824 2.750000
vt 0.463176 2.750000
vt 0.431002 2.613803
vt 0.436585 2.628697
vt 0.250000 2.702445
vt 0.250000 2.683451
vt 0.371304 2.563415
vt 0.386195 2.568996
vt 0.113805 2.568996
vt 0.128694 2.563415
vt 0.095603 2.541990
vt 0.109276 2.536824
vt 0.063415 2.628697
vt 0.036824 2.609278
vt 0.041990 2.595603
vt 0.068998 2.613803
vt 0.390722 2.536824
vt 0.404395 2.541990
vt 0.458010 2.595603
vt 0.463176 2.609278
vt 0.250000 2.563415
vt 0.250000 2.536824
vt 0.404422 2.978809
vt 0.406204 2.984908
vt 0.250000 2.984928
vt 0.250000 2.978837
vt 0.416664 2.973899
vt 0.420190 2.979139
vt 0.473898 2.916661
vt 0.479136 2.920188
vt 0.021191 2.904422
vt 0.015092 2.906204
vt 0.015072 2.750000
vt 0.021162 2.750000
vt 0.026102 2.916661
vt 0.020862 2.920188
vt 0.083336 2.973899
vt 0.079810 2.979139
vt 0.484908 2.906204
vt 0.478809 2.904422
vt 0.478838 2.750000
vt 0.484926 2.750000
vt 0.095578 2.978809
vt 0.093796 2.984908
vt 0.015092 2.593796
vt 0.021191 2.595578
vt 0.478809 2.595578
vt 0.484908 2.593796
vt 0.406204 2.515091
vt 0.404422 2.521191
vt 0.250000 2.521163
vt 0.250000 2.515072
vt 0.420190 2.520861
vt 0.416664 2.526101
vt 0.479136 2.579812
vt 0.473898 2.583338
vt 0.020862 2.579812
vt 0.026102 2.583338
vt 0.079810 2.520861
vt 0.083336 2.526101
vt 0.093796 2.515091
vt 0.095578 2.521191
s 1
usemtl M_Plate_28_1
f 166/1/1 167/2/1 179/3/1 178/4/2
f 162/5/3 166/1/1 169/6/4
f 168/7/4 169/6/4 177/8/2 176/9/4
f 169/6/4 168/7/4 171/10/4 170/11/5
f 170/11/6 171/10/7 187/12/8 186/13/9
f 172/14/10 173/15/11 183/16/12 182/17/13
f 173/15/5 172/14/14 175/18/14 174/19/14
f 176/9/15 177/8/16 181/20/17 180/21/18
f 178/4/19 179/3/20 185/22/21 184/23/22
f 169/6/4 170/11/5 173/15/5 174/19/14
f 168/7/4 176/9/4 159/24/23
f 159/24/23 171/10/4 168/7/4
f 175/18/14 172/14/14 161/25/24
f 179/3/1 167/2/1 160/26/25
f 178/4/2 177/8/2 169/6/4 166/1/1
f 159/24/26 176/9/15 180/21/18 163/27/27
f 161/25/28 172/14/10 182/17/13 164/28/28
f 179/3/20 160/26/29 165/29/29 185/22/21
f 171/10/7 159/24/26 163/27/27 187/12/8
f 177/8/16 178/4/19 184/23/22 181/20/17
f 173/15/11 170/11/6 186/13/9 183/16/12
f 162/5/3 169/6/4 174/19/14
f 166/1/1 198/30/30 199/31/1 167/2/1
f 162/5/3 191/32/31 166/1/1
f 190/33/31 196/34/31 197/35/30 191/32/31
f 191/32/31 192/36/32 193/37/31 190/33/31
f 192/36/33 206/38/34 207/39/35 193/37/36
f 194/40/37 202/41/38 203/42/39 195/43/40
f 195/43/32 174/19/14 175/18/14 194/40/14
f 196/34/41 200/44/42 201/45/43 197/35/44
f 198/30/45 204/46/46 205/47/47 199/31/48
f 191/32/31 174/19/14 195/43/32 192/36/32
f 190/33/31 188/48/49 196/34/31
f 188/48/49 190/33/31 193/37/31
f 175/18/14 161/25/24 194/40/14
f 199/31/1 160/26/25 167/2/1
f 198/30/30 166/1/1 191/32/31 197/35/30
f 188/48/50 189/49/50 200/44/42 196/34/41
f 161/25/28 164/28/28 202/41/38 194/40/37
f 199/31/48 205/47/47 165/29/29 160/26/29
f 193/37/36 207/39/35 189/49/50 188/48/50
f 197/35/44 201/45/43 204/46/46 198/30/45
f 195/43/40 203/42/39 206/38/34 192/36/33
f 162/5/3 174/19/14 191/32/31
f 208/50/51 209/51/52 225/52/53 224/53/54
f 209/51/52 208/50/51 211/54/55 210/55/56
f 210/55/56 211/54/55 218/56/57 219/57/58
f 212/58/59 213/59/60 227/60/61 226/61/62
f 213/59/60 212/58/59 215/62/63 214/63/64
f 214/63/64 215/62/63 220/64/65 221/65/66
f 216/66/67 217/67/68 229/68/69 228/69/70
f 217/67/68 216/66/67 219/57/58 218/56/57
f 221/65/66 220/64/65 223/70/71 222/71/72
f 222/71/72 223/70/71 224/53/54 225/52/53
f 226/61/62 227/60/61 234/72/73 235/73/74
f 228/69/70 229/68/69 238/74/75 239/75/76
f 230/76/77 231/77/78 247/78/79 246/79/80
f 231/77/78 230/76/77 233/80/81 232/81/82
f 232/81/82 233/80/81 240/82/83 241/83/84
f 235/73/74 234/72/73 237/84/85 236/85/86
f 236/85/86 237/84/85 242/86/87 243/87/88
f 239/75/76 238/74/75 241/83/84 240/82/83
f 243/87/88 242/86/87 245/88/89 244/89/90
f 244/89/90 245/88/89 246/79/80 247/78/79
f 180/21/3 181/20/3 211/54/55 208/50/51
f 182/17/3 183/16/3 215/62/63 212/58/59
f 184/23/3 185/22/3 217/67/68 218/56/57
f 186/13/3 187/12/3 223/70/71 220/64/65
f 229/68/69 217/67/68 185/22/3 165/29/3
f 182/17/3 212/58/59 226/61/62 164/28/3
f 220/64/65 215/62/63 183/16/3 186/13/3
f 163/27/3 224/53/54 223/70/71 187/12/3
f 180/21/3 208/50/51 224/53/54 163/27/3
f 218/56/57 211/54/55 181/20/3 184/23/3
f 200/44/3 231/77/78 232/81/82 201/45/3
f 202/41/3 235/73/74 236/85/86 203/42/3
f 204/46/3 241/83/84 238/74/75 205/47/3
f 206/38/3 243/87/88 244/89/90 207/39/3
f 229/68/69 165/29/3 205/47/3 238/74/75
f 202/41/3 164/28/3 226/61/62 235/73/74
f 243/87/88 206/38/3 203/42/3 236/85/86
f 189/49/3 207/39/3 244/89/90 247/78/79
f 200/44/3 189/49/3 247/78/79 231/77/78
f 241/83/84 204/46/3 201/45/3 232/81/82
