# Blender 4.1.0
# www.blender.org
mtllib AlarmClockButton_20_AlarmClockButton_20_1_GeomSubset_2.mtl
o AlarmClockButton_20_AlarmClockButton_20_1_GeomSubset_2
v -0.000500 -0.000500 -0.347201
v 0.000500 -0.000500 -0.347201
v -0.000500 0.000499 -0.347201
v 0.000500 0.000499 -0.347201
v -0.000500 -0.000500 -0.347201
v 0.000500 -0.000500 -0.347201
v -0.000500 0.000499 -0.347201
v 0.000500 0.000499 -0.347201
v -0.000500 -0.000500 -0.347201
v 0.000500 -0.000500 -0.347201
v -0.000500 0.000499 -0.347201
v 0.000500 0.000499 -0.347201
v -0.000500 -0.000500 -0.347201
v 0.000500 -0.000500 -0.347201
v -0.000500 0.000499 -0.347201
v 0.000500 0.000499 -0.347201
v -0.000500 -0.000500 -0.347201
v 0.000500 -0.000500 -0.347201
v -0.000500 0.000499 -0.347201
v 0.000500 0.000499 -0.347201
v -0.044061 -0.014227 0.094103
v -0.041858 -0.016572 0.094103
v -0.041858 -0.014227 0.096520
v 0.041858 -0.014227 0.096520
v 0.041858 -0.016572 0.094103
v 0.044061 -0.014227 0.094103
v -0.044061 0.014227 0.094103
v -0.041858 0.014227 0.096520
v -0.041858 0.016572 0.094103
v 0.041858 0.016572 0.094103
v 0.041858 0.014227 0.096520
v 0.044061 0.014227 0.094103
v -0.041858 -0.016572 0.077831
v -0.044061 -0.014227 0.077831
v 0.044061 -0.014227 0.077831
v 0.041858 -0.016572 0.077831
v -0.044061 0.014227 0.077831
v -0.041858 0.016572 0.077831
v 0.041858 0.016572 0.077831
v 0.044061 0.014227 0.077831
v -0.027906 0.021956 0.077831
v -0.027906 0.021956 0.094103
v -0.027906 0.018850 0.096520
v -0.027906 -0.018850 0.096520
v -0.027906 -0.021956 0.094103
v -0.027906 -0.021956 0.077831
v -0.013953 0.024992 0.077831
v -0.013953 0.024992 0.094103
v -0.013953 0.021456 0.096520
v -0.013953 -0.021456 0.096520
v -0.013953 -0.024992 0.094103
v -0.013953 -0.024992 0.077831
v 0.000000 0.026172 0.077831
v 0.000000 0.026172 0.094103
v 0.000000 0.022469 0.096520
v 0.000000 -0.022469 0.096520
v 0.000000 -0.026171 0.094103
v 0.000000 -0.026171 0.077831
v 0.013953 0.024992 0.077831
v 0.013953 0.024992 0.094103
v 0.013953 0.021456 0.096520
v 0.013953 -0.021456 0.096520
v 0.013953 -0.024992 0.094103
v 0.013953 -0.024992 0.077831
v 0.027906 0.021956 0.077831
v 0.027906 0.021956 0.094103
v 0.027906 0.018850 0.096520
v 0.027906 -0.018850 0.096520
v 0.027906 -0.021956 0.094103
v 0.027906 -0.021956 0.077831
vn -0.0000 -0.0000 1.0000
vt -7.760818 -5.071917
vt -7.760818 -6.067932
vt -6.765070 -6.067932
vt -6.765070 -5.071917
s 1
usemtl M_AlarmClockButton_20_2
f 9/1/1 10/2/1 12/3/1 11/4/1
