# Blender 4.1.0
# www.blender.org
mtllib DrawermeshDresserDrawer_413_2_2.mtl
o DresserDrawer_413_2
v 0.282176 -0.133907 -0.064567
v -0.286442 -0.133909 -0.064567
v -0.286442 -0.133909 0.166691
v 0.282176 -0.133907 0.166692
v -0.329776 -0.113552 0.169638
v -0.329776 -0.126291 0.169638
v -0.329776 -0.126291 -0.068891
v -0.329776 -0.113552 -0.068891
v 0.329426 -0.113548 -0.068891
v 0.329427 -0.126287 -0.068891
v 0.329427 -0.126287 0.169638
v 0.329426 -0.113548 0.169638
v 0.322319 -0.131944 -0.068891
v -0.322669 -0.131946 -0.068891
v -0.322669 -0.131946 0.169638
v 0.322319 -0.131944 0.169638
v 0.322319 -0.113548 0.174401
v 0.322320 -0.126287 0.174401
v -0.322669 -0.126291 0.174401
v -0.322669 -0.113552 0.174401
v 0.288751 0.099178 0.161529
v 0.288751 0.099178 -0.046646
v -0.289100 0.099178 -0.046646
v -0.289100 0.099178 0.161529
v -0.322669 -0.113552 -0.073655
v -0.322670 -0.126291 -0.073655
v 0.322320 -0.126287 -0.073655
v 0.322319 -0.113548 -0.073655
v -0.322669 -0.107895 0.169638
v 0.322320 -0.107893 0.169638
v -0.322669 -0.107895 -0.068891
v 0.322320 -0.107893 -0.068891
v 0.310222 -0.107893 0.161529
v -0.310571 -0.107893 0.161529
v 0.310222 -0.107895 -0.060782
v -0.310571 -0.107895 -0.060782
v 0.310221 0.116268 -0.060782
v 0.310222 0.116268 0.161529
v -0.310571 0.116268 0.161529
v -0.310571 0.116268 -0.060782
v -0.289100 -0.090799 -0.046646
v -0.289100 -0.090799 0.161529
v 0.288750 -0.090799 0.161529
v 0.288751 -0.090799 -0.046646
vn -0.0000 -1.0000 -0.0000
vn -1.0000 0.0003 -0.0000
vn -1.0000 -0.0000 -0.0000
vn 1.0000 0.0001 -0.0000
vn -0.0000 -0.0000 1.0000
vn -0.0000 -0.0000 -1.0000
vn -0.4562 0.5732 0.6807
vn 0.4562 0.5732 0.6806
vn -0.4563 0.5732 -0.6807
vn 0.4562 0.5732 -0.6806
vn 0.4561 -0.5730 0.6809
vn -0.4562 -0.5733 0.6806
vn -0.4562 -0.5733 -0.6806
vn 0.4561 -0.5729 -0.6810
vn -0.0000 0.6442 0.7648
vn -0.0000 0.6439 0.7652
vn -0.6227 0.7824 -0.0000
vn -0.6228 0.7824 -0.0000
vn -0.0000 0.6439 -0.7651
vn -0.0000 0.6441 -0.7649
vn 0.6227 0.7824 -0.0000
vn -0.0000 -0.6445 0.7646
vn -0.0000 -0.6439 0.7651
vn -0.6227 -0.7825 -0.0000
vn -0.0000 -0.6441 -0.7649
vn -0.0000 -0.6442 -0.7648
vn 0.6228 -0.7824 -0.0000
vn 0.6227 -0.7824 -0.0000
vn -0.5567 -0.0000 0.8307
vn -0.5568 -0.0000 0.8307
vn 0.5568 -0.0000 0.8307
vn -0.5568 -0.0000 -0.8307
vn -0.5566 -0.0001 -0.8308
vn 0.5568 -0.0000 -0.8307
vn -0.0000 1.0000 -0.0000
vn -0.0000 1.0000 0.0002
vn -0.0002 1.0000 -0.0000
vn -0.0000 1.0000 -0.0005
vn 1.0000 -0.0000 -0.0000
vt 0.287524 0.287524
vt 0.712476 0.712476
vt 0.287524 0.712476
vt 0.712476 0.287524
vt 0.267577 0.897131
vt 0.253879 0.592510
vt 0.253879 0.897131
vt 0.267577 0.592510
vt 0.272832 0.574108
vt -0.345981 0.915534
vt -0.345981 0.574108
vt 0.272832 0.915534
vt 0.300608 0.269094
vt -0.373756 0.252362
vt 0.300608 0.252362
vt -0.373756 0.269094
vt 0.240626 0.898168
vt -0.313774 0.600190
vt 0.240626 0.600190
vt -0.313774 0.898168
vt 0.626245 0.269094
vt 1.300606 0.252362
vt 0.626245 0.252362
vt 1.300606 0.269094
vt 0.833172 0.261001
vt 0.833172 0.270007
vt 0.824166 0.261001
vt 0.261001 0.824334
vt 0.261001 0.815327
vt 0.270007 0.815327
vt 0.824166 0.261001
vt 0.833172 0.270007
vt 0.833172 0.261001
vt 0.093679 0.261001
vt 0.093679 0.270007
vt 0.102686 0.261001
vt 0.260459 0.824338
vt 0.251445 0.815323
vt 0.260459 0.815323
vt 0.833172 0.260455
vt 0.824166 0.260455
vt 0.833172 0.251449
vt 0.093679 0.260456
vt 0.102686 0.260456
vt 0.093679 0.251449
vt 0.348951 0.269752
vt -0.422099 0.261256
vt 0.348951 0.261256
vt -0.422099 0.269752
vt 0.832523 0.937822
vt 0.824814 0.551820
vt 0.824814 0.937822
vt 0.832523 0.551820
vt 0.348950 0.261256
vt -0.422099 0.269752
vt 0.348950 0.269752
vt -0.422099 0.261256
vt 0.261650 0.937817
vt 0.269358 0.551825
vt 0.269358 0.937817
vt 0.261650 0.551825
vt 0.348952 0.260200
vt -0.422100 0.251704
vt 0.348952 0.251704
vt -0.422100 0.260200
vt 0.824814 0.937823
vt 0.832523 0.551819
vt 0.832523 0.937823
vt 0.824814 0.551819
vt 0.348954 0.251704
vt -0.422103 0.260200
vt 0.348954 0.260200
vt -0.422103 0.251704
vt 0.252098 0.937822
vt 0.259807 0.551820
vt 0.259807 0.937822
vt 0.252098 0.551820
vt 0.824593 0.269907
vt 0.832745 0.251550
vt 0.832745 0.269907
vt 0.824593 0.251550
vt 0.251553 0.815756
vt 0.269903 0.823905
vt 0.251553 0.823905
vt 0.269903 0.815756
vt 0.832745 0.269907
vt 0.824593 0.251550
vt 0.824593 0.269907
vt 0.832745 0.251550
vt 0.102259 0.269907
vt 0.094106 0.251549
vt 0.094106 0.269907
vt 0.102259 0.251549
vt 0.261230 0.903929
vt -0.345985 0.915536
vt 0.272837 0.915536
vt -0.334378 0.903929
vt 0.261230 0.585712
vt 0.272837 0.574106
vt 0.665626 0.903927
vt 0.654019 0.574108
vt 0.654019 0.915533
vt 0.665626 0.585715
vt 1.272832 0.574108
vt 1.261226 0.585715
vt 0.261225 0.585715
vt -0.334374 0.903927
vt 0.261225 0.903927
vt -0.334374 0.585715
vt 0.204641 0.602866
vt 0.445691 0.886775
vt 0.445691 0.602866
vt 0.204641 0.886775
vt 0.287960 0.177952
vt -0.361109 0.472381
vt 0.287960 0.472381
vt -0.361109 0.177952
vt 0.204641 0.886775
vt 0.445691 0.602866
vt 0.445691 0.886775
vt 0.204641 0.602866
vt 0.427312 0.882107
vt 0.223020 0.616251
vt 0.427312 0.616251
vt 0.223020 0.882107
vt 0.265513 0.200400
vt -0.361111 0.177951
vt 0.287962 0.177951
vt -0.338662 0.200400
vt 0.265513 0.449933
vt 0.287962 0.472381
vt 0.661338 0.449933
vt 1.287963 0.472381
vt 0.638889 0.472381
vt 1.265513 0.449933
vt 0.661338 0.200400
vt 0.638889 0.177951
vt 0.661340 0.200401
vt 1.265511 0.449932
vt 0.661340 0.449932
vt 1.265511 0.200401
vt 0.686225 0.898168
vt 1.240626 0.600190
vt 0.686225 0.600190
vt 1.240626 0.898168
vt 0.223020 0.882107
vt 0.427312 0.616251
vt 0.223020 0.616251
vt 0.427312 0.882107
s 1
usemtl M_DresserDrawer_413_2_0
f 1/1/1 3/2/1 2/3/1
f 1/1/1 4/4/1 3/2/1
f 5/5/2 7/6/2 6/7/2
f 5/5/3 8/8/3 7/6/3
f 9/8/4 11/7/4 10/6/4
f 9/8/4 12/5/4 11/7/4
f 13/9/1 15/10/1 14/11/1
f 13/9/1 16/12/1 15/10/1
f 17/13/5 19/14/5 18/15/5
f 17/13/5 20/16/5 19/14/5
f 21/17/1 23/18/1 22/19/1
f 21/17/1 24/20/1 23/18/1
f 25/21/6 27/22/6 26/23/6
f 25/21/6 28/24/6 27/22/6
f 20/25/7 29/26/7 5/27/7
f 17/28/8 12/29/8 30/30/8
f 8/31/9 31/32/9 25/33/9
f 28/34/10 32/35/10 9/36/10
f 18/37/11 16/38/11 11/39/11
f 19/40/12 6/41/12 15/42/12
f 7/41/13 26/40/13 14/42/13
f 27/43/14 10/44/14 13/45/14
f 30/46/15 20/47/15 17/48/15
f 30/46/16 29/49/16 20/47/16
f 29/50/17 8/51/17 5/52/17
f 29/50/18 31/53/18 8/51/18
f 28/54/19 31/55/19 32/56/19
f 28/54/20 25/57/20 31/55/20
f 12/58/21 32/59/21 30/60/21
f 12/58/21 9/61/21 32/59/21
f 18/62/22 15/63/22 16/64/22
f 18/62/23 19/65/23 15/63/23
f 6/66/24 14/67/24 15/68/24
f 6/66/24 7/69/24 14/67/24
f 13/70/25 26/71/25 27/72/25
f 13/70/26 14/73/26 26/71/26
f 16/74/27 10/75/27 11/76/27
f 16/74/28 13/77/28 10/75/28
f 5/78/29 19/79/29 20/80/29
f 5/78/30 6/81/30 19/79/30
f 11/82/31 17/83/31 18/84/31
f 11/82/31 12/85/31 17/83/31
f 25/86/32 7/87/32 8/88/32
f 25/86/33 26/89/33 7/87/33
f 9/90/34 27/91/34 28/92/34
f 9/90/34 10/93/34 27/91/34
f 33/94/35 29/95/35 30/96/35
f 33/94/36 34/97/36 29/95/36
f 35/98/35 33/94/35 30/96/35
f 35/98/37 30/96/37 32/99/37
f 34/100/37 31/101/37 29/102/37
f 34/100/35 36/103/35 31/101/35
f 36/103/38 32/104/38 31/101/38
f 36/103/36 35/105/36 32/104/36
f 37/106/35 39/107/35 38/108/35
f 37/106/35 40/109/35 39/107/35
f 36/110/3 39/111/3 40/112/3
f 36/110/3 34/113/3 39/111/3
f 35/114/6 40/115/6 37/116/6
f 35/114/6 36/117/6 40/115/6
f 33/118/39 37/119/39 38/120/39
f 33/118/39 35/121/39 37/119/39
f 24/122/39 41/123/39 23/124/39
f 24/122/39 42/125/39 41/123/39
f 43/126/5 34/127/5 33/128/5
f 43/126/5 42/129/5 34/127/5
f 21/130/5 43/126/5 33/128/5
f 21/130/5 33/128/5 38/131/5
f 24/132/5 38/133/5 39/134/5
f 24/132/5 21/135/5 38/133/5
f 42/136/5 24/132/5 39/134/5
f 42/136/5 39/134/5 34/137/5
f 41/138/5 22/139/5 23/140/5
f 41/138/5 44/141/5 22/139/5
f 42/142/35 44/143/35 41/144/35
f 42/142/35 43/145/35 44/143/35
f 43/146/3 22/147/3 44/148/3
f 43/146/3 21/149/3 22/147/3
