# Blender 4.1.0
# www.blender.org
mtllib DrawermeshDresserDrawer_319_2_5.mtl
o DresserDrawer_319_2
v 0.004622 -0.213830 0.148952
v 0.004622 -0.230809 0.148952
v 0.736714 -0.230813 0.148952
v 0.736714 -0.213830 0.148952
v 0.736714 -0.234032 0.152225
v 0.004621 -0.234032 0.152225
v 0.004621 -0.234032 0.292733
v 0.736714 -0.234032 0.292733
v 0.736714 -0.213830 0.296006
v 0.736714 -0.230813 0.296006
v 0.004622 -0.230809 0.296006
v 0.004622 -0.213830 0.296006
v 0.740361 -0.213830 0.152225
v 0.740359 -0.230813 0.152225
v 0.740359 -0.230813 0.292733
v 0.740361 -0.213830 0.292733
v 0.000977 -0.213826 0.292733
v 0.000975 -0.230809 0.292733
v 0.000975 -0.230809 0.152225
v 0.000977 -0.213826 0.152225
v 0.353521 -0.241215 0.222479
v 0.353520 -0.246098 0.222479
v 0.358544 -0.246098 0.211595
v 0.358543 -0.241215 0.211595
v 0.358543 -0.241215 0.233363
v 0.358544 -0.246098 0.233363
v 0.370668 -0.238606 0.230736
v 0.370668 -0.241215 0.237872
v 0.364164 -0.238606 0.228318
v 0.361470 -0.238606 0.222479
v 0.377172 -0.238606 0.228318
v 0.382793 -0.241215 0.233363
v 0.364164 -0.238606 0.216640
v 0.370668 -0.241215 0.207086
v 0.370668 -0.238606 0.214222
v 0.382793 -0.241215 0.211595
v 0.377172 -0.238606 0.216640
v 0.387815 -0.241219 0.222479
v 0.379866 -0.238606 0.222479
v 0.364164 -0.233559 0.216640
v 0.361470 -0.233555 0.222479
v 0.364164 -0.233559 0.228318
v 0.387815 -0.246102 0.222479
v 0.382793 -0.246098 0.233363
v 0.382793 -0.246098 0.211595
v 0.370668 -0.233559 0.214222
v 0.377172 -0.233559 0.216640
v 0.370668 -0.246098 0.207086
v 0.370668 -0.246098 0.237872
v 0.379866 -0.233555 0.222479
v 0.377172 -0.233559 0.228318
v 0.370668 -0.233559 0.230736
v 0.360833 -0.248742 0.231307
v 0.356760 -0.248742 0.222479
v 0.370668 -0.248742 0.234964
v 0.380502 -0.248742 0.231307
v 0.384575 -0.248742 0.222479
v 0.380502 -0.248742 0.213651
v 0.370668 -0.248742 0.209994
v 0.360833 -0.248742 0.213651
v 0.736714 -0.210606 0.152225
v 0.736714 -0.210606 0.292733
v 0.004621 -0.210602 0.292733
v 0.004621 -0.210606 0.152225
v 0.729700 -0.210606 0.286436
v 0.011636 -0.210602 0.286436
v 0.729700 -0.210606 0.158522
v 0.011636 -0.210602 0.158522
v 0.729702 0.178859 0.158522
v 0.729702 0.178859 0.286436
v 0.011639 0.178867 0.286436
v 0.011639 0.178867 0.158522
v 0.720340 -0.202336 0.286436
v 0.720340 -0.202336 0.165642
v 0.720340 0.170585 0.165642
v 0.720340 0.170585 0.286436
v 0.020996 -0.202332 0.286436
v 0.020998 0.170593 0.286436
v 0.020996 -0.202332 0.165642
v 0.020998 0.170593 0.165642
vn -0.0000 -0.0000 -1.0000
vn -0.0000 -1.0000 -0.0000
vn -0.0000 -0.0000 1.0000
vn 1.0000 -0.0001 -0.0000
vn -1.0000 0.0001 -0.0000
vn -0.8282 0.5604 -0.0002
vn -0.6148 -0.3909 -0.6850
vn -0.9121 -0.4099 0.0001
vn -0.8279 0.5609 -0.0001
vn -0.5623 0.5393 -0.6269
vn -0.6150 -0.3902 -0.6852
vn -0.5625 0.5390 0.6270
vn -0.8280 0.5607 0.0002
vn -0.9122 -0.4097 0.0002
vn -0.5626 0.5390 0.6268
vn -0.9123 -0.4096 0.0001
vn -0.6150 -0.3905 0.6851
vn -0.0000 0.6529 0.7575
vn -0.5627 0.5390 0.6267
vn -0.0001 0.5196 0.8544
vn -0.0000 0.6526 0.7577
vn -0.4948 0.6717 0.5514
vn -0.5627 0.5387 0.6270
vn -0.4948 0.6718 0.5512
vn -0.8280 0.5607 -0.0001
vn -0.4949 0.6718 0.5512
vn -0.7214 0.6925 -0.0001
vn 0.4948 0.6717 0.5514
vn -0.0001 0.5192 0.8547
vn 0.4949 0.6718 0.5511
vn -0.0000 0.5196 0.8544
vn 0.5627 0.5390 0.6268
vn -0.7215 0.6924 0.0004
vn -0.5627 0.5393 -0.6265
vn -0.8281 0.5606 0.0004
vn -0.7215 0.6924 0.0001
vn -0.4949 0.6718 -0.5512
vn -0.5627 0.5389 -0.6268
vn -0.0000 0.5196 -0.8544
vn -0.4949 0.6719 -0.5510
vn -0.0001 0.6530 -0.7573
vn -0.0001 0.5199 -0.8543
vn -0.0000 0.6528 -0.7575
vn 0.5628 0.5389 -0.6268
vn 0.0001 0.5196 -0.8544
vn -0.0000 0.6526 -0.7577
vn 0.4948 0.6717 -0.5514
vn 0.5628 0.5387 -0.6270
vn 0.4948 0.6718 -0.5513
vn 0.8280 0.5607 -0.0000
vn 0.4949 0.6717 -0.5513
vn 0.7214 0.6925 -0.0001
vn 0.8280 0.5607 -0.0001
vn 0.7215 0.6925 -0.0003
vn 0.5628 0.5391 0.6266
vn 0.4949 0.6718 0.5512
vn -0.7216 0.6924 -0.0006
vn -0.6675 -0.0000 -0.7446
vn -0.4944 0.6719 -0.5515
vn -0.7213 0.6926 0.0003
vn -1.0000 0.0001 0.0004
vn -0.6684 -0.0000 -0.7438
vn -0.4947 0.6718 0.5513
vn -1.0000 -0.0000 0.0001
vn -0.7215 0.6925 -0.0000
vn -0.6679 -0.0000 0.7443
vn -1.0000 -0.0000 0.0002
vn 0.6151 -0.3905 0.6850
vn 0.9123 -0.4096 -0.0001
vn 0.8280 0.5608 -0.0002
vn 0.5628 0.5390 0.6268
vn 0.8280 0.5608 0.0001
vn 0.9122 -0.4097 0.0001
vn 0.5627 0.5389 -0.6268
vn 0.6150 -0.3905 -0.6850
vn -0.4947 0.6717 -0.5515
vn 0.0004 -0.0000 -1.0000
vn 0.0004 0.6529 -0.7575
vn -0.4950 0.6718 -0.5511
vn -0.6682 -0.0000 -0.7440
vn -0.0003 -0.0000 -1.0000
vn 0.0001 0.6528 -0.7576
vn 0.0002 -0.0000 -1.0000
vn 0.6682 -0.0000 -0.7440
vn -0.0002 0.6528 -0.7575
vn 0.6679 -0.0000 -0.7442
vn -0.0001 0.5195 -0.8545
vn 0.6149 -0.3906 -0.6851
vn -0.0001 -0.3738 -0.9275
vn -0.0002 0.5195 -0.8545
vn 0.6149 -0.3905 -0.6851
vn -0.5627 0.5389 -0.6269
vn 0.0001 0.5195 -0.8545
vn 0.0001 -0.3738 -0.9275
vn -0.5629 0.5390 -0.6266
vn -0.0004 -0.3738 -0.9275
vn -0.6152 -0.3905 -0.6848
vn 0.5626 0.5390 0.6269
vn -0.0001 -0.3739 0.9275
vn 0.6149 -0.3905 0.6851
vn 0.5627 0.5389 0.6269
vn -0.0001 0.5195 0.8545
vn -0.0001 -0.3738 0.9275
vn -0.0003 0.5195 0.8545
vn -0.6152 -0.3906 0.6848
vn -0.0003 -0.3738 0.9275
vn 0.0002 0.5196 0.8544
vn -0.5627 0.5390 0.6268
vn -0.6149 -0.3904 0.6851
vn 1.0000 -0.0000 -0.0001
vn 0.7215 0.6925 -0.0000
vn 0.4947 0.6718 -0.5513
vn 0.6679 -0.0000 -0.7443
vn 1.0000 -0.0000 -0.0003
vn 0.7213 0.6926 -0.0003
vn 1.0000 0.0001 -0.0004
vn 0.6684 -0.0000 0.7438
vn 0.7216 0.6924 0.0006
vn 0.6675 -0.0000 0.7446
vn 0.4944 0.6719 0.5515
vn 0.4948 0.6717 0.5513
vn -0.0001 -0.0000 1.0000
vn -0.0001 0.6528 0.7575
vn 0.4950 0.6718 0.5511
vn 0.6682 -0.0000 0.7440
vn 0.0002 -0.0000 1.0000
vn -0.0001 0.6528 0.7576
vn -0.0003 -0.0000 1.0000
vn -0.6682 -0.0000 0.7440
vn 0.0004 0.6529 0.7574
vn -0.6677 -0.0000 0.7444
vn -0.4946 0.6717 0.5515
vn -0.6146 -0.3895 0.6859
vn -0.3956 -0.9184 0.0012
vn -0.2769 -0.9097 0.3094
vn -0.6153 -0.3908 0.6846
vn -0.9123 -0.4094 -0.0005
vn -0.3953 -0.9186 -0.0004
vn -0.6150 -0.3906 0.6850
vn -0.2768 -0.9101 0.3083
vn 0.0001 -0.3737 0.9276
vn -0.2769 -0.9100 0.3086
vn -0.0000 -0.9017 0.4324
vn 0.6153 -0.3912 0.6844
vn 0.0005 -0.3751 0.9270
vn 0.0001 -0.9023 0.4311
vn 0.6150 -0.3904 0.6851
vn 0.2768 -0.9100 0.3086
vn 0.9121 -0.4099 0.0008
vn 0.6145 -0.3901 0.6856
vn 0.2765 -0.9100 0.3090
vn 0.9123 -0.4096 0.0005
vn 0.2768 -0.9099 0.3090
vn 0.3954 -0.9185 0.0007
vn 0.6147 -0.3902 -0.6855
vn 0.9122 -0.4098 -0.0004
vn 0.3952 -0.9186 -0.0005
vn 0.6145 -0.3896 -0.6860
vn 0.3955 -0.9184 -0.0012
vn 0.2768 -0.9098 -0.3093
vn 0.2768 -0.9101 0.3084
vn 0.2768 -0.9101 -0.3084
vn 0.3951 -0.9186 -0.0000
vn 0.0004 -0.3747 -0.9271
vn 0.6151 -0.3911 -0.6846
vn 0.2770 -0.9104 -0.3074
vn -0.0001 -0.3737 -0.9275
vn 0.2768 -0.9100 -0.3086
vn -0.0000 -0.9017 -0.4323
vn 0.2768 -0.9101 -0.3083
vn -0.0000 -0.9018 -0.4322
vn -0.0000 -0.9018 0.4322
vn -0.2768 -0.9101 0.3084
vn -0.6151 -0.3906 -0.6849
vn -0.0001 -0.3741 -0.9274
vn -0.0000 -0.9019 -0.4319
vn -0.6150 -0.3903 -0.6852
vn -0.0000 -0.9017 -0.4324
vn -0.2768 -0.9100 -0.3087
vn -0.9123 -0.4096 -0.0009
vn -0.2766 -0.9098 -0.3093
vn -0.3954 -0.9185 -0.0011
vn -0.9124 -0.4094 0.0006
vn -0.6153 -0.3908 -0.6847
vn -0.2771 -0.9101 -0.3080
vn -0.2769 -0.9101 -0.3084
vn -0.3951 -0.9186 -0.0000
vn 0.5326 0.6027 -0.5941
vn 0.5326 0.6027 0.5941
vn -0.5335 0.6037 0.5924
vn -0.5333 0.6034 -0.5929
vn 0.5331 -0.6028 0.5936
vn -0.5332 -0.6032 0.5931
vn 0.5328 -0.6032 -0.5935
vn -0.5332 -0.6033 -0.5931
vn -0.0000 0.7121 0.7020
vn -0.0000 0.7130 0.7011
vn 0.6620 0.7495 -0.0000
vn -0.0000 0.7129 -0.7013
vn -0.0000 0.7125 -0.7017
vn -0.6621 0.7494 -0.0000
vn -0.0000 -0.7129 0.7013
vn -0.0000 -0.7125 0.7017
vn 0.6620 -0.7495 -0.0000
vn -0.0000 -0.7129 -0.7013
vn -0.0000 -0.7125 -0.7017
vn -0.6620 -0.7495 -0.0000
vn -0.6621 -0.7494 -0.0000
vn -0.6681 0.0001 -0.7441
vn -0.6679 -0.0000 -0.7442
vn -0.6681 -0.0001 0.7440
vn -0.6681 -0.0000 0.7441
vn 0.6680 -0.0000 0.7441
vn 0.6679 -0.0001 0.7442
vn 0.6680 -0.0001 -0.7441
vn -0.0000 1.0000 -0.0008
vn -0.0000 1.0000 0.0005
vn -0.0000 1.0000 -0.0000
vn -0.0000 1.0000 0.0003
vn -0.0000 1.0000 -0.0005
vn -0.0001 1.0000 -0.0000
vn -1.0000 -0.0000 -0.0000
vn 1.0000 -0.0000 -0.0000
vt 0.206888 0.333974
vt 0.196623 -0.057063
vt 0.196623 0.333974
vt 0.206888 -0.057063
vt 0.942937 0.892502
vt 1.333974 0.976102
vt 1.333974 0.892502
vt 0.942937 0.976102
vt 0.206888 0.942937
vt 0.196623 1.333974
vt 0.196623 0.942937
vt 0.206888 1.333974
vt 0.206888 0.892502
vt 0.196623 0.976102
vt 0.196623 0.892502
vt 0.206888 0.976102
vt 0.190334 0.934302
vt 0.187383 0.927826
vt 0.187383 0.934302
vt 0.190334 0.927826
vt 0.190334 0.940778
vt 0.187383 0.940778
vt 0.138455 0.939215
vt 0.144931 0.940778
vt 0.138455 0.943461
vt 0.141929 0.937776
vt 0.147614 0.934302
vt 0.143368 0.934302
vt 0.134981 0.937776
vt 0.131979 0.940778
vt 0.144931 0.927826
vt 0.141929 0.930828
vt 0.138455 0.925143
vt 0.138455 0.929389
vt 0.131979 0.927826
vt 0.134981 0.930828
vt 0.129297 0.934302
vt 0.133542 0.934302
vt 0.191912 0.934302
vt 0.194963 0.930828
vt 0.191912 0.930828
vt 0.194963 0.934302
vt 0.191912 0.937776
vt 0.194963 0.937776
vt 0.191912 0.141929
vt 0.194963 0.138455
vt 0.191912 0.138455
vt 0.194963 0.141929
vt 0.194963 0.134981
vt 0.191912 0.134981
vt 0.190334 0.138455
vt 0.187383 0.131979
vt 0.187383 0.138455
vt 0.190334 0.131979
vt 0.190334 0.144931
vt 0.187383 0.144931
vt 0.145884 0.934302
vt 0.143708 0.939555
vt 0.138455 0.941730
vt 0.133203 0.939555
vt 0.131027 0.934302
vt 0.133203 0.929049
vt 0.138455 0.926874
vt 0.143708 0.929049
vt 0.206888 0.940990
vt 0.208835 0.942937
vt 0.208835 0.333974
vt 0.206888 0.335921
vt 0.194676 0.942937
vt 0.196623 0.940990
vt 0.196623 0.335921
vt 0.194676 0.333974
vt 0.208835 1.333974
vt 0.208835 0.892502
vt 0.208835 0.976102
vt 0.333974 0.976102
vt 0.335921 0.892502
vt 0.335921 0.976102
vt 0.333974 0.892502
vt 0.194676 1.333974
vt 0.194676 0.976102
vt 0.194676 0.892502
vt 0.946684 0.972355
vt 1.330227 0.972355
vt 0.946684 0.896248
vt 0.330227 0.896248
vt -0.057063 0.892502
vt -0.053316 0.896248
vt 0.330227 0.972355
vt 1.330227 0.896248
vt 0.213835 0.972355
vt 0.439234 0.900485
vt 0.213835 0.900485
vt 0.439234 0.972355
vt 0.208835 0.972355
vt 0.444234 0.896248
vt 0.444234 0.972355
vt 0.208835 0.896248
vt 0.208835 0.946684
vt 0.444234 1.330227
vt 0.444234 0.946684
vt 0.208835 1.330227
vt 0.213835 0.951684
vt 0.213835 1.325227
vt 0.439234 0.951684
vt 0.439234 0.325227
vt 0.444234 -0.053316
vt 0.444234 0.330227
vt 0.439234 -0.048316
vt 0.213835 0.325227
vt 0.208835 0.330227
vt 0.213835 -0.048316
vt 0.325227 0.972355
vt -0.048316 0.900485
vt 0.325227 0.900485
vt -0.048316 0.972355
vt 0.951684 0.972355
vt 1.325227 0.900485
vt 0.951684 0.900485
vt 1.325227 0.972355
s 1
usemtl M_DresserDrawer_319_2_0
f 1/1/1 3/2/1 2/3/1
f 1/1/1 4/4/1 3/2/1
f 5/5/2 7/6/2 6/7/2
f 5/5/2 8/8/2 7/6/2
f 9/9/3 11/10/3 10/11/3
f 9/9/3 12/12/3 11/10/3
f 13/13/4 15/14/4 14/15/4
f 13/13/4 16/16/4 15/14/4
f 17/16/5 19/15/5 18/14/5
f 17/16/5 20/13/5 19/15/5
f 21/17/6 23/18/7 22/19/8
f 21/17/9 24/20/10 23/18/11
f 25/21/12 21/17/13 22/19/14
f 25/21/15 22/19/16 26/22/17
f 27/23/18 25/24/19 28/25/20
f 27/23/21 29/26/22 25/24/23
f 29/26/24 21/27/25 25/24/19
f 29/26/26 30/28/27 21/27/25
f 31/29/28 27/23/21 28/25/29
f 31/29/30 28/25/31 32/30/32
f 30/28/33 24/31/34 21/27/35
f 30/28/36 33/32/37 24/31/38
f 33/32/37 34/33/39 24/31/38
f 33/32/40 35/34/41 34/33/42
f 35/34/43 36/35/44 34/33/45
f 35/34/46 37/36/47 36/35/48
f 37/36/49 38/37/50 36/35/44
f 37/36/51 39/38/52 38/37/53
f 39/38/54 32/30/55 38/37/53
f 39/38/52 31/29/56 32/30/32
f 30/39/57 40/40/58 33/41/59
f 30/39/60 41/42/61 40/40/62
f 29/43/63 41/42/64 30/39/65
f 29/43/63 42/44/66 41/42/67
f 38/17/53 44/22/68 43/19/69
f 38/17/70 32/21/71 44/22/68
f 36/20/44 38/17/72 43/19/73
f 36/20/74 43/19/73 45/18/75
f 33/45/76 46/46/77 35/47/78
f 33/45/79 40/48/80 46/46/81
f 35/47/82 46/46/83 47/49/84
f 35/47/85 47/49/86 37/50/49
f 34/51/87 45/52/88 48/53/89
f 34/51/90 36/54/74 45/52/91
f 24/55/92 34/51/93 48/53/94
f 24/55/95 48/53/96 23/56/97
f 32/54/98 49/53/99 44/52/100
f 32/54/101 28/51/102 49/53/103
f 28/51/104 26/56/105 49/53/106
f 28/51/107 25/55/108 26/56/109
f 37/41/49 50/42/110 39/39/111
f 37/41/112 47/40/113 50/42/114
f 39/39/115 50/42/116 51/44/117
f 39/39/118 51/44/119 31/43/120
f 31/50/121 52/46/122 27/47/123
f 31/50/124 51/49/125 52/46/126
f 27/47/127 52/46/128 42/48/129
f 27/47/130 42/48/131 29/45/132
f 26/24/133 54/57/134 53/58/135
f 26/24/136 22/27/137 54/57/138
f 49/25/99 26/24/139 53/58/140
f 49/25/141 53/58/142 55/59/143
f 44/30/144 49/25/145 55/59/146
f 44/30/147 55/59/143 56/60/148
f 43/37/149 44/30/150 56/60/151
f 43/37/152 56/60/153 57/61/154
f 45/35/155 43/37/156 57/61/157
f 45/35/158 57/61/159 58/62/160
f 56/60/161 58/62/162 57/61/163
f 48/33/164 45/35/165 58/62/166
f 48/33/167 58/62/168 59/63/169
f 58/62/170 56/60/161 59/63/171
f 59/63/171 56/60/161 55/59/172
f 59/63/171 55/59/172 53/58/173
f 23/31/174 48/33/175 59/63/176
f 23/31/177 59/63/178 60/64/179
f 22/27/180 60/64/181 54/57/182
f 22/27/183 23/31/184 60/64/185
f 59/63/171 53/58/173 60/64/186
f 60/64/186 53/58/173 54/57/187
f 13/65/188 4/9/188 61/66/188
f 9/9/189 16/65/189 62/66/189
f 12/1/190 63/67/190 17/68/190
f 1/1/191 20/68/191 64/67/191
f 10/11/192 8/69/192 15/70/192
f 11/3/193 18/71/193 7/72/193
f 14/70/194 5/69/194 3/11/194
f 2/3/195 6/72/195 19/71/195
f 62/66/196 12/12/196 9/9/196
f 62/66/197 63/73/197 12/12/197
f 61/74/198 16/16/198 13/13/198
f 61/74/198 62/75/198 16/16/198
f 4/9/199 64/73/199 61/66/199
f 4/9/200 1/12/200 64/73/200
f 63/76/201 20/77/201 17/78/201
f 63/76/201 64/79/201 20/77/201
f 10/11/202 7/80/202 8/69/202
f 10/11/203 11/10/203 7/80/203
f 14/15/204 8/81/204 5/82/204
f 14/15/204 15/14/204 8/81/204
f 5/69/205 2/10/205 3/11/205
f 5/69/206 6/80/206 2/10/206
f 18/78/207 6/79/207 7/76/207
f 18/78/208 19/77/208 6/79/208
f 1/1/209 19/71/209 20/68/209
f 1/1/210 2/3/210 19/71/210
f 11/3/211 17/68/211 18/71/211
f 11/3/212 12/1/212 17/68/212
f 15/70/213 9/9/213 10/11/213
f 15/70/214 16/65/214 9/9/214
f 3/11/215 13/65/215 14/70/215
f 3/11/84 4/9/84 13/65/84
f 65/83/216 63/6/216 62/8/216
f 65/83/217 66/84/217 63/6/217
f 67/85/218 65/83/218 62/8/218
f 67/85/218 62/8/218 61/5/218
f 68/86/219 61/87/219 64/79/219
f 68/86/220 67/88/220 61/87/220
f 66/89/221 68/86/221 64/79/221
f 66/89/218 64/79/218 63/76/218
f 69/85/218 71/84/218 70/83/218
f 69/85/218 72/90/218 71/84/218
f 73/91/222 75/92/222 74/93/222
f 73/91/222 76/94/222 75/92/222
f 65/95/223 69/96/223 70/97/223
f 65/95/223 67/98/223 69/96/223
f 67/99/1 72/100/1 69/101/1
f 67/99/1 68/102/1 72/100/1
f 68/98/222 71/97/222 72/96/222
f 68/98/222 66/95/222 71/97/222
f 73/103/3 66/102/3 65/99/3
f 73/103/3 77/104/3 66/102/3
f 76/105/3 73/103/3 65/99/3
f 76/105/3 65/99/3 70/101/3
f 78/106/3 70/107/3 71/108/3
f 78/106/3 76/109/3 70/107/3
f 77/110/3 78/106/3 71/108/3
f 77/110/3 71/108/3 66/111/3
f 79/110/3 75/109/3 80/106/3
f 79/110/3 74/112/3 75/109/3
f 77/113/218 74/114/218 79/115/218
f 77/113/218 73/116/218 74/114/218
f 78/94/223 79/93/223 80/92/223
f 78/94/223 77/91/223 79/93/223
f 76/117/2 80/118/2 75/119/2
f 76/117/2 78/120/2 80/118/2
