# Blender 4.1.0
# www.blender.org
mtllib MeshDoorwayDoor_1_1_GeomSubset_0.mtl
o MeshDoorwayDoor_1_1_GeomSubset_0
v 0.459717 0.017139 0.966023
v 0.459717 0.017139 -1.065719
v 0.459717 -0.016862 -1.065719
v 0.459717 -0.016862 0.966023
v -0.458668 -0.016862 -1.065719
v -0.458668 -0.016862 0.966023
v -0.458668 0.017139 -1.065719
v -0.458668 0.017139 0.966023
v 0.361881 0.017002 -0.135932
v 0.370214 0.017002 -0.123462
v 0.382684 0.017002 -0.115129
v 0.397394 0.017002 -0.112204
v 0.412104 0.017002 -0.115129
v 0.424574 0.017002 -0.123462
v 0.432907 0.017002 -0.135932
v 0.435833 0.017002 -0.150642
v 0.432907 0.017002 -0.165352
v 0.424574 0.017002 -0.177822
v 0.412104 0.017002 -0.186154
v 0.397394 0.017002 -0.189081
v 0.382684 0.017002 -0.186154
v 0.370214 0.017002 -0.177822
v 0.361881 0.017002 -0.165352
v 0.358956 0.017002 -0.150642
v 0.359694 0.019864 -0.135026
v 0.368540 0.019864 -0.121788
v 0.381778 0.019864 -0.112942
v 0.397394 0.019864 -0.109836
v 0.413010 0.019864 -0.112942
v 0.426248 0.019864 -0.121788
v 0.435094 0.019864 -0.135026
v 0.438200 0.019864 -0.150642
v 0.435094 0.019864 -0.166258
v 0.426248 0.019864 -0.179496
v 0.413010 0.019864 -0.188342
v 0.397394 0.019864 -0.191448
v 0.381778 0.019864 -0.188342
v 0.368540 0.019864 -0.179496
v 0.359694 0.019864 -0.166258
v 0.356588 0.019864 -0.150642
v 0.358956 0.023548 -0.134720
v 0.367975 0.023548 -0.121222
v 0.381472 0.023548 -0.112204
v 0.397394 0.023548 -0.109036
v 0.413316 0.023548 -0.112204
v 0.426814 0.023548 -0.121222
v 0.435833 0.023548 -0.134720
v 0.439000 0.023548 -0.150642
v 0.435833 0.023548 -0.166564
v 0.426814 0.023548 -0.180062
v 0.413316 0.023548 -0.189081
v 0.397394 0.023548 -0.192248
v 0.381472 0.023548 -0.189081
v 0.367975 0.023548 -0.180062
v 0.358956 0.023548 -0.166564
v 0.355789 0.023548 -0.150642
v 0.359694 0.027433 -0.135026
v 0.368540 0.027433 -0.121788
v 0.381778 0.027433 -0.112942
v 0.397394 0.027433 -0.109836
v 0.413010 0.027433 -0.112942
v 0.426248 0.027433 -0.121788
v 0.435094 0.027433 -0.135026
v 0.438200 0.027433 -0.150642
v 0.435094 0.027433 -0.166258
v 0.426248 0.027433 -0.179496
v 0.413010 0.027433 -0.188342
v 0.397394 0.027433 -0.191448
v 0.381778 0.027433 -0.188342
v 0.368540 0.027433 -0.179496
v 0.359694 0.027433 -0.166258
v 0.356588 0.027433 -0.150642
v 0.361881 0.029808 -0.135932
v 0.370214 0.029808 -0.123462
v 0.382684 0.029808 -0.115129
v 0.397394 0.029808 -0.112204
v 0.412104 0.029808 -0.115129
v 0.424574 0.029808 -0.123462
v 0.432907 0.029808 -0.135932
v 0.435833 0.029808 -0.150642
v 0.432907 0.029808 -0.165352
v 0.424574 0.029808 -0.177822
v 0.412104 0.029808 -0.186154
v 0.397394 0.029808 -0.189081
v 0.382684 0.029808 -0.186154
v 0.370214 0.029808 -0.177822
v 0.361881 0.029808 -0.165352
v 0.358956 0.029808 -0.150642
v 0.374216 0.032754 -0.141041
v 0.376830 0.033903 -0.142124
v 0.377912 0.036678 -0.142572
v 0.379654 0.032754 -0.132902
v 0.381655 0.033903 -0.134903
v 0.382483 0.036678 -0.135731
v 0.387793 0.032754 -0.127464
v 0.388876 0.033903 -0.130078
v 0.389324 0.036678 -0.131160
v 0.397394 0.032754 -0.125554
v 0.397394 0.033903 -0.128383
v 0.397394 0.036678 -0.129555
v 0.406995 0.032754 -0.127464
v 0.405912 0.033903 -0.130078
v 0.405464 0.036678 -0.131160
v 0.415134 0.032754 -0.132902
v 0.413133 0.033903 -0.134903
v 0.412305 0.036678 -0.135731
v 0.420572 0.032754 -0.141041
v 0.417958 0.033903 -0.142124
v 0.416876 0.036678 -0.142572
v 0.422482 0.032754 -0.150642
v 0.419653 0.033903 -0.150642
v 0.418481 0.036678 -0.150642
v 0.420572 0.032754 -0.160243
v 0.417958 0.033903 -0.159160
v 0.416876 0.036678 -0.158712
v 0.415134 0.032754 -0.168382
v 0.413133 0.033903 -0.166381
v 0.412305 0.036678 -0.165553
v 0.406995 0.032754 -0.173820
v 0.405912 0.033903 -0.171206
v 0.405464 0.036678 -0.170124
v 0.397394 0.032754 -0.175730
v 0.397394 0.033903 -0.172901
v 0.397394 0.036678 -0.171729
v 0.387793 0.032754 -0.173820
v 0.388876 0.033903 -0.171206
v 0.389324 0.036678 -0.170124
v 0.379654 0.032754 -0.168382
v 0.381655 0.033903 -0.166381
v 0.382483 0.036678 -0.165553
v 0.374216 0.032754 -0.160243
v 0.376830 0.033903 -0.159160
v 0.377912 0.036678 -0.158712
v 0.372306 0.032754 -0.150642
v 0.375135 0.033903 -0.150642
v 0.376307 0.036678 -0.150642
v 0.380855 0.042793 -0.143791
v 0.384735 0.042793 -0.137983
v 0.390543 0.042793 -0.134103
v 0.397394 0.042793 -0.132740
v 0.404245 0.042793 -0.134103
v 0.410053 0.042793 -0.137983
v 0.413934 0.042793 -0.143791
v 0.415296 0.042793 -0.150642
v 0.413934 0.042793 -0.157493
v 0.410053 0.042793 -0.163301
v 0.404245 0.042793 -0.167181
v 0.397394 0.042793 -0.168544
v 0.390543 0.042793 -0.167181
v 0.384735 0.042793 -0.163301
v 0.380855 0.042793 -0.157493
v 0.379492 0.042793 -0.150642
v 0.377912 0.041856 -0.142572
v 0.378795 0.042793 -0.142938
v 0.382483 0.041856 -0.135731
v 0.383159 0.042793 -0.136407
v 0.389324 0.041856 -0.131160
v 0.389690 0.042793 -0.132043
v 0.397394 0.041856 -0.129555
v 0.397394 0.042793 -0.130511
v 0.405464 0.041856 -0.131160
v 0.405098 0.042793 -0.132043
v 0.412305 0.041856 -0.135731
v 0.411629 0.042793 -0.136407
v 0.416876 0.041856 -0.142572
v 0.415993 0.042793 -0.142938
v 0.418481 0.041856 -0.150642
v 0.417525 0.042793 -0.150642
v 0.416876 0.041856 -0.158712
v 0.415993 0.042793 -0.158346
v 0.412305 0.041856 -0.165553
v 0.411629 0.042793 -0.164877
v 0.405464 0.041856 -0.170124
v 0.405098 0.042793 -0.169241
v 0.397394 0.041856 -0.171729
v 0.397394 0.042793 -0.170773
v 0.389324 0.041856 -0.170124
v 0.389690 0.042793 -0.169241
v 0.382483 0.041856 -0.165553
v 0.383159 0.042793 -0.164877
v 0.377912 0.041856 -0.158712
v 0.378795 0.042793 -0.158346
v 0.376307 0.041856 -0.150642
v 0.377263 0.042793 -0.150642
v 0.361881 -0.016546 -0.135921
v 0.370214 -0.016538 -0.123450
v 0.382684 -0.016532 -0.115118
v 0.397394 -0.016530 -0.112192
v 0.412104 -0.016532 -0.115118
v 0.424574 -0.016538 -0.123450
v 0.432907 -0.016546 -0.135921
v 0.435833 -0.016556 -0.150630
v 0.432907 -0.016567 -0.165340
v 0.424574 -0.016575 -0.177810
v 0.412104 -0.016581 -0.186143
v 0.397394 -0.016583 -0.189069
v 0.382684 -0.016581 -0.186143
v 0.370214 -0.016575 -0.177810
v 0.361881 -0.016567 -0.165340
v 0.358956 -0.016556 -0.150630
v 0.359694 -0.019408 -0.135013
v 0.368540 -0.019399 -0.121774
v 0.381778 -0.019393 -0.112929
v 0.397394 -0.019390 -0.109822
v 0.413010 -0.019393 -0.112929
v 0.426248 -0.019399 -0.121774
v 0.435094 -0.019408 -0.135013
v 0.438200 -0.019419 -0.150628
v 0.435094 -0.019429 -0.166244
v 0.426248 -0.019439 -0.179483
v 0.413010 -0.019445 -0.188328
v 0.397394 -0.019447 -0.191435
v 0.381778 -0.019445 -0.188328
v 0.368540 -0.019439 -0.179483
v 0.359694 -0.019429 -0.166244
v 0.356588 -0.019419 -0.150628
v 0.358956 -0.023092 -0.134704
v 0.367975 -0.023083 -0.121206
v 0.381472 -0.023077 -0.112187
v 0.397394 -0.023074 -0.109020
v 0.413316 -0.023077 -0.112187
v 0.426814 -0.023083 -0.121206
v 0.435833 -0.023092 -0.134704
v 0.439000 -0.023103 -0.150626
v 0.435833 -0.023114 -0.166548
v 0.426814 -0.023124 -0.180045
v 0.413316 -0.023130 -0.189064
v 0.397394 -0.023132 -0.192231
v 0.381472 -0.023130 -0.189064
v 0.367975 -0.023124 -0.180045
v 0.358956 -0.023114 -0.166548
v 0.355789 -0.023103 -0.150626
v 0.359694 -0.026977 -0.135007
v 0.368540 -0.026968 -0.121769
v 0.381778 -0.026962 -0.112923
v 0.397394 -0.026960 -0.109817
v 0.413010 -0.026962 -0.112923
v 0.426248 -0.026968 -0.121769
v 0.435094 -0.026977 -0.135007
v 0.438200 -0.026988 -0.150623
v 0.435094 -0.026999 -0.166239
v 0.426248 -0.027008 -0.179477
v 0.413010 -0.027014 -0.188323
v 0.397394 -0.027016 -0.191429
v 0.381778 -0.027014 -0.188323
v 0.368540 -0.027008 -0.179477
v 0.359694 -0.026999 -0.166239
v 0.356588 -0.026988 -0.150623
v 0.361881 -0.029353 -0.135912
v 0.370214 -0.029344 -0.123442
v 0.382684 -0.029338 -0.115109
v 0.397394 -0.029336 -0.112183
v 0.412104 -0.029338 -0.115109
v 0.424574 -0.029344 -0.123442
v 0.432907 -0.029353 -0.135912
v 0.435833 -0.029363 -0.150622
v 0.432907 -0.029373 -0.165331
v 0.424574 -0.029382 -0.177802
v 0.412104 -0.029387 -0.186134
v 0.397394 -0.029389 -0.189060
v 0.382684 -0.029387 -0.186134
v 0.370214 -0.029382 -0.177802
v 0.361881 -0.029373 -0.165331
v 0.358956 -0.029363 -0.150622
v 0.374216 -0.032302 -0.141019
v 0.376830 -0.033452 -0.142101
v 0.377912 -0.036227 -0.142547
v 0.379654 -0.032296 -0.132880
v 0.381655 -0.033447 -0.134879
v 0.382483 -0.036223 -0.135706
v 0.387793 -0.032293 -0.127441
v 0.388876 -0.033444 -0.130054
v 0.389324 -0.036219 -0.131135
v 0.397394 -0.032291 -0.125532
v 0.397394 -0.033443 -0.128360
v 0.397394 -0.036218 -0.129530
v 0.406995 -0.032293 -0.127441
v 0.405912 -0.033444 -0.130054
v 0.405464 -0.036219 -0.131135
v 0.415134 -0.032296 -0.132880
v 0.413133 -0.033447 -0.134879
v 0.412305 -0.036223 -0.135706
v 0.420572 -0.032302 -0.141019
v 0.417958 -0.033452 -0.142101
v 0.416876 -0.036227 -0.142547
v 0.422482 -0.032309 -0.150620
v 0.419653 -0.033458 -0.150619
v 0.418481 -0.036233 -0.150617
v 0.420572 -0.032315 -0.160220
v 0.417958 -0.033464 -0.159137
v 0.416876 -0.036239 -0.158686
v 0.415134 -0.032321 -0.168359
v 0.413133 -0.033469 -0.166358
v 0.412305 -0.036243 -0.165527
v 0.406995 -0.032325 -0.173797
v 0.405912 -0.033472 -0.171183
v 0.405464 -0.036246 -0.170098
v 0.397394 -0.032326 -0.175707
v 0.397394 -0.033473 -0.172877
v 0.397394 -0.036247 -0.171704
v 0.387793 -0.032325 -0.173797
v 0.388876 -0.033472 -0.171183
v 0.389324 -0.036246 -0.170098
v 0.379654 -0.032321 -0.168359
v 0.381655 -0.033469 -0.166358
v 0.382483 -0.036243 -0.165527
v 0.374216 -0.032315 -0.160220
v 0.376830 -0.033464 -0.159137
v 0.377912 -0.036239 -0.158686
v 0.372306 -0.032309 -0.150620
v 0.375135 -0.033458 -0.150619
v 0.376307 -0.036233 -0.150617
v 0.380855 -0.042343 -0.143762
v 0.384735 -0.042339 -0.137954
v 0.390543 -0.042336 -0.134073
v 0.397394 -0.042335 -0.132710
v 0.404245 -0.042336 -0.134073
v 0.410053 -0.042339 -0.137954
v 0.413934 -0.042343 -0.143762
v 0.415296 -0.042348 -0.150613
v 0.413934 -0.042353 -0.157463
v 0.410053 -0.042357 -0.163271
v 0.404245 -0.042359 -0.167152
v 0.397394 -0.042360 -0.168515
v 0.390543 -0.042359 -0.167152
v 0.384735 -0.042357 -0.163271
v 0.380855 -0.042353 -0.157463
v 0.379492 -0.042348 -0.150613
v 0.377912 -0.041405 -0.142544
v 0.378795 -0.042342 -0.142909
v 0.382483 -0.041401 -0.135703
v 0.383159 -0.042338 -0.136377
v 0.389324 -0.041397 -0.131132
v 0.389690 -0.042335 -0.132014
v 0.397394 -0.041396 -0.129527
v 0.397394 -0.042334 -0.130481
v 0.405464 -0.041397 -0.131132
v 0.405098 -0.042335 -0.132014
v 0.412305 -0.041401 -0.135703
v 0.411629 -0.042338 -0.136377
v 0.416876 -0.041405 -0.142544
v 0.415993 -0.042342 -0.142909
v 0.418481 -0.041411 -0.150613
v 0.417525 -0.042348 -0.150613
v 0.416876 -0.041416 -0.158683
v 0.415993 -0.042353 -0.158317
v 0.412305 -0.041421 -0.165524
v 0.411629 -0.042358 -0.164848
v 0.405464 -0.041424 -0.170095
v 0.405098 -0.042361 -0.169212
v 0.397394 -0.041425 -0.171700
v 0.397394 -0.042362 -0.170744
v 0.389324 -0.041424 -0.170095
v 0.389690 -0.042361 -0.169212
v 0.382483 -0.041421 -0.165524
v 0.383159 -0.042358 -0.164848
v 0.377912 -0.041416 -0.158683
v 0.378795 -0.042353 -0.158317
v 0.376307 -0.041411 -0.150613
v 0.377263 -0.042348 -0.150613
vn -0.0000 1.0000 -0.0000
vn -0.0000 -1.0000 -0.0000
vn -0.0000 -0.0000 1.0000
vn -1.0000 -0.0000 -0.0000
vn -0.0000 -0.0000 -1.0000
vn 1.0000 -0.0000 -0.0000
vt -9.059475 -1.121567
vt -9.059473 2.053030
vt -10.494449 2.053030
vt -10.494451 -1.121567
vt -10.038664 2.093532
vt -10.038665 -1.081064
vt -8.603685 -1.081064
vt -8.603684 2.093532
vt -9.059429 0.946315
vt -9.059430 -0.488641
vt -9.006308 -0.488641
vt -9.006307 0.946315
vt -9.105203 2.053025
vt -9.105203 -1.121562
vt -9.052077 -1.121562
vt -9.052077 2.053025
vt -8.983427 -0.488655
vt -8.983427 0.946328
vt -9.036552 0.946328
vt -9.036552 -0.488655
vt -9.029194 -1.121565
vt -9.029194 2.053028
vt -9.082319 2.053028
vt -9.082319 -1.121565
s 1
usemtl M_DoorwayDoor_1_0
f 7/1/1 8/2/1 1/3/1 2/4/1
f 3/5/2 4/6/2 6/7/2 5/8/2
f 1/9/3 8/10/3 6/11/3 4/12/3
f 8/13/4 7/14/4 5/15/4 6/16/4
f 7/17/5 2/18/5 3/19/5 5/20/5
f 2/21/6 1/22/6 4/23/6 3/24/6
