# Blender 4.1.1
# www.blender.org
mtllib MeshBin_14_0_GeomSubset_2.mtl
o MeshBin_14_0_GeomSubset_2
v 0.006824 -0.003899 -0.388435
v 0.005824 -0.003899 -0.388435
v 0.006824 -0.002899 -0.388435
v 0.005824 -0.002899 -0.388435
v 0.006824 -0.003899 -0.388435
v 0.005824 -0.003899 -0.388435
v 0.006824 -0.002899 -0.388435
v 0.005824 -0.002899 -0.388435
v 0.006824 -0.003899 -0.388435
v 0.005824 -0.003899 -0.388435
v 0.006824 -0.002899 -0.388435
v 0.005824 -0.002899 -0.388435
v 0.200769 -0.111453 -0.252307
v 0.213308 -0.086119 -0.252326
v 0.199428 -0.085579 -0.277984
v 0.169147 -0.085652 -0.288435
v 0.169291 -0.110778 -0.277928
v 0.170498 -0.121947 -0.252289
v -0.188122 -0.111453 -0.252307
v -0.157851 -0.121947 -0.252289
v -0.156414 -0.110681 -0.277931
v -0.156113 -0.085328 -0.288435
v -0.186667 -0.085398 -0.277985
v -0.200661 -0.086119 -0.252326
v 0.200769 0.104656 -0.252307
v 0.170498 0.115149 -0.252289
v 0.169061 0.103884 -0.277931
v 0.168760 0.078531 -0.288435
v 0.199314 0.078601 -0.277985
v 0.213308 0.079322 -0.252326
v -0.188122 0.104656 -0.252307
v -0.200661 0.079322 -0.252326
v -0.186781 0.078782 -0.277984
v -0.156499 0.078854 -0.288435
v -0.156644 0.103981 -0.277928
v -0.157851 0.115149 -0.252289
v 0.265732 -0.117742 0.137580
v 0.253763 -0.141945 0.137580
v 0.224870 -0.151970 0.137580
v 0.219326 -0.149609 0.044124
v 0.249225 -0.139270 0.044124
v 0.261609 -0.114311 0.044124
v -0.212223 -0.151970 0.137580
v -0.241116 -0.141945 0.137580
v -0.253084 -0.117742 0.137580
v -0.248962 -0.114311 0.044124
v -0.236578 -0.139270 0.044124
v -0.206679 -0.149609 0.044124
v 0.261609 0.107514 0.044124
v 0.249225 0.132473 0.044124
v 0.219326 0.142811 0.044124
v 0.224870 0.145172 0.137580
v 0.253763 0.135147 0.137580
v 0.265732 0.110945 0.137580
v -0.206679 0.142811 0.044124
v -0.236578 0.132473 0.044124
v -0.248962 0.107514 0.044124
v -0.253084 0.110945 0.137580
v -0.241116 0.135147 0.137580
v -0.212223 0.145172 0.137580
v 0.238998 -0.100897 -0.053085
v 0.226406 -0.126184 -0.053085
v 0.196007 -0.136658 -0.053085
v 0.178251 -0.126387 -0.146079
v 0.208525 -0.115894 -0.146079
v 0.221064 -0.090561 -0.146079
v -0.208417 -0.090561 -0.146079
v -0.195877 -0.115894 -0.146079
v -0.165604 -0.126387 -0.146079
v -0.183359 -0.136658 -0.053085
v -0.213759 -0.126184 -0.053085
v -0.226351 -0.100897 -0.053085
v 0.221064 0.083764 -0.146079
v 0.208525 0.109097 -0.146079
v 0.178251 0.119590 -0.146079
v 0.196007 0.129861 -0.053085
v 0.226406 0.119386 -0.053085
v 0.238998 0.094099 -0.053085
v -0.165604 0.119590 -0.146079
v -0.195877 0.109097 -0.146079
v -0.208417 0.083764 -0.146079
v -0.226351 0.094099 -0.053085
v -0.213759 0.119386 -0.053085
v -0.183359 0.129861 -0.053085
v 0.194053 -0.106203 -0.273290
v -0.181310 -0.106126 -0.273293
v 0.193957 0.099329 -0.273293
v -0.181406 0.099405 -0.273290
v 0.165362 -0.082441 -0.270844
v 0.184830 -0.082542 -0.265019
v 0.184747 0.075577 -0.264993
v 0.164998 0.075336 -0.270838
v 0.192781 -0.082939 -0.248100
v 0.192787 0.076138 -0.248082
v 0.166712 -0.104693 -0.248309
v 0.165686 -0.098442 -0.265064
v -0.152831 -0.098370 -0.265039
v -0.154062 -0.104697 -0.248290
v -0.152350 -0.082133 -0.270838
v -0.180140 -0.082935 -0.248082
v -0.172100 -0.082375 -0.264993
v -0.172183 0.075744 -0.265019
v -0.180134 0.076141 -0.248100
v -0.152715 0.075644 -0.270844
v 0.165478 0.091573 -0.265039
v -0.153039 0.091645 -0.265064
v 0.166709 0.097900 -0.248290
v -0.154065 0.097896 -0.248309
v 0.220696 -0.135129 0.138476
v 0.239168 -0.129810 0.138784
v 0.234285 -0.126851 0.047698
v 0.214976 -0.132324 0.046802
v 0.245588 -0.114300 0.138718
v 0.240981 -0.110743 0.047511
v -0.232941 -0.114300 0.138718
v -0.226521 -0.129810 0.138784
v -0.221638 -0.126851 0.047698
v -0.228334 -0.110743 0.047511
v -0.208049 -0.135129 0.138476
v -0.202329 -0.132324 0.046802
v 0.214976 0.125527 0.046802
v 0.234285 0.120053 0.047698
v 0.239168 0.123013 0.138784
v 0.220696 0.128332 0.138476
v 0.240981 0.103945 0.047511
v 0.245588 0.107502 0.138718
v -0.228334 0.103945 0.047511
v -0.221638 0.120053 0.047698
v -0.226521 0.123013 0.138784
v -0.232941 0.107502 0.138718
v -0.202329 0.125527 0.046802
v -0.208049 0.128332 0.138476
v 0.191985 -0.119254 -0.050053
v 0.211705 -0.113750 -0.048917
v 0.193545 -0.103244 -0.143644
v 0.174206 -0.108815 -0.144331
v 0.218429 -0.097499 -0.049189
v 0.200165 -0.087129 -0.143815
v -0.161559 -0.108815 -0.144331
v -0.180898 -0.103244 -0.143644
v -0.199058 -0.113750 -0.048917
v -0.179338 -0.119254 -0.050053
v -0.187518 -0.087129 -0.143815
v -0.205782 -0.097499 -0.049189
v 0.174206 0.102018 -0.144331
v 0.193545 0.096447 -0.143644
v 0.211705 0.106952 -0.048917
v 0.191985 0.112457 -0.050053
v 0.200165 0.080331 -0.143815
v 0.218429 0.090701 -0.049189
v -0.187518 0.080331 -0.143815
v -0.180898 0.096447 -0.143644
v -0.199058 0.106952 -0.048917
v -0.205782 0.090701 -0.049189
v -0.161559 0.102018 -0.144331
v -0.179338 0.112457 -0.050053
v 0.234457 -0.109102 0.279591
v 0.234457 0.102304 0.279591
v 0.210600 0.122288 0.279591
v -0.197953 0.122288 0.279591
v -0.221810 0.102304 0.279591
v -0.221810 -0.109102 0.279591
v -0.197953 -0.129086 0.279591
v 0.210600 -0.129086 0.279591
v 0.229088 -0.124588 0.279591
v -0.216440 -0.124588 0.279591
v 0.229088 0.117791 0.279591
v -0.216440 0.117791 0.279591
v 0.186008 -0.099060 -0.248167
v -0.173369 -0.099066 -0.248125
v 0.186017 0.092269 -0.248125
v -0.173361 0.092262 -0.248166
v 0.181944 -0.095985 -0.262405
v -0.169245 -0.095944 -0.262340
v 0.181892 0.089146 -0.262340
v -0.169297 0.089188 -0.262404
v 0.234947 -0.129643 0.285867
v 0.243309 -0.110425 0.285867
v 0.243309 0.103628 0.285867
v 0.234947 0.122846 0.285867
v 0.212005 0.129850 0.285867
v -0.199358 0.129850 0.285867
v -0.222300 0.122846 0.285867
v -0.230662 0.103628 0.285867
v -0.230662 -0.110425 0.285867
v -0.222300 -0.129643 0.285867
v -0.199358 -0.136647 0.285867
v 0.212005 -0.136647 0.285867
v -0.202888 -0.145624 0.263382
v -0.230548 -0.136027 0.263382
v -0.242005 -0.112858 0.263382
v -0.242005 0.106061 0.263382
v -0.230548 0.129230 0.263382
v -0.202888 0.138827 0.263382
v 0.215535 0.138827 0.263382
v 0.243195 0.129230 0.263382
v 0.254652 0.106061 0.263382
v 0.254652 -0.112858 0.263382
v 0.243195 -0.136027 0.263382
v 0.215535 -0.145624 0.263382
v 0.265844 0.106831 0.263382
v 0.265844 -0.113629 0.263382
v 0.263376 -0.112867 0.277024
v 0.263376 0.106070 0.277024
v 0.213910 0.147505 0.277024
v 0.215192 0.149259 0.263382
v -0.201263 0.147505 0.277024
v -0.202545 0.149259 0.263382
v -0.253197 -0.113629 0.263382
v -0.253197 0.106831 0.263382
v -0.250729 0.106070 0.277025
v -0.250729 -0.112867 0.277025
v 0.215192 -0.156056 0.263382
v -0.202545 -0.156056 0.263382
v -0.201263 -0.154303 0.277024
v 0.213910 -0.154303 0.277024
v 0.249699 -0.142533 0.263382
v 0.248342 -0.141706 0.276873
v -0.237052 -0.142533 0.263382
v -0.235695 -0.141706 0.276873
v 0.249699 0.135735 0.263382
v 0.248342 0.134908 0.276873
v -0.237052 0.135735 0.263382
v -0.235695 0.134908 0.276873
v 0.252437 -0.111896 0.285931
v 0.252437 0.105099 0.285931
v 0.213759 0.137498 0.285931
v -0.201112 0.137498 0.285931
v -0.239790 0.105099 0.285931
v -0.239790 -0.111896 0.285931
v -0.201112 -0.144295 0.285931
v 0.213759 -0.144295 0.285931
v 0.241204 -0.134883 0.285804
v -0.228557 -0.134883 0.285804
v 0.241204 0.128085 0.285804
v -0.228557 0.128085 0.285804
vn -0.0000 -0.0000 -1.0000
vt 0.000000 0.000000
vt 1.000000 0.000000
vt 1.000000 1.000000
vt 0.000000 1.000000
s 1
usemtl M_Bin_14_2
f 9/1/1 10/2/1 12/3/1 11/4/1
