# Blender 4.1.0
# www.blender.org
mtllib MeshBox_25_FlapOuter_1_1.mtl
o Box_25_FlapOuter_1
v 0.192360 -0.165306 0.086023
v 0.192360 0.160024 0.086023
v 0.191618 -0.165306 0.087036
v 0.191618 0.160024 0.087036
v 0.102049 -0.165306 0.021016
v 0.102256 -0.165306 0.021558
v 0.102049 0.160024 0.021016
v 0.102256 0.160024 0.021558
v 0.102420 -0.165306 0.020509
v 0.102999 -0.165306 0.020545
v 0.102420 0.160024 0.020509
v 0.102999 0.160024 0.020545
vn 0.8066 -0.0000 0.5910
vn -0.9881 -0.0000 -0.1541
vn -0.5934 -0.0000 0.8049
vn -0.5934 -0.0001 0.8049
vn -0.0000 -1.0000 -0.0000
vn -0.0000 1.0000 -0.0000
vn 0.5887 -0.0000 -0.8083
vn -0.4447 -0.0000 -0.8957
vn 0.5911 -0.0000 -0.8066
vn -0.5911 -0.0000 0.8066
vt 1.529613 1.444735
vt 1.529613 0.512573
vt 1.535070 0.512572
vt 1.535070 1.444735
vt 1.521276 0.467984
vt 1.522776 0.466457
vt 1.522775 1.490850
vt 1.521276 1.489324
vt 1.518278 0.467984
vt 1.516779 0.466457
vt 1.516779 1.490850
vt 1.518278 1.489324
vt 1.499696 0.512572
vt 1.499696 1.444736
vt 1.189925 1.444736
vt 1.189925 0.512572
vt 0.851932 1.444736
vt 0.851932 0.512572
vt 1.161703 0.512572
vt 1.161702 1.444736
vt 0.834132 1.156282
vt 0.834132 1.466052
vt 0.828675 1.466052
vt 0.828675 1.156282
vt 0.816288 1.466053
vt 0.816288 1.156281
vt 0.821745 1.156281
vt 0.821745 1.466053
s 1
usemtl M_Box_25_FlapOuter_1_0
f 1/1/1 2/2/1 4/3/1 3/4/1
f 5/5/2 6/6/3 8/7/4 7/8/2
f 6/6/5 5/5/5 9/9/5 10/10/5
f 7/8/6 8/7/6 12/11/6 11/12/6
f 10/10/7 9/9/8 11/12/8 12/11/7
f 5/5/2 7/8/2 11/12/8 9/9/8
f 10/13/7 12/14/7 2/15/9 1/16/9
f 3/17/10 4/18/10 8/19/4 6/20/3
f 8/21/6 4/22/6 2/23/6 12/24/6
f 3/25/5 6/26/5 10/27/5 1/28/5
