# Blender 4.1.1
# www.blender.org
mtllib MeshSideTableDrawer_003_3_4.mtl
o SideTableDrawer_003_3
v -0.023730 -0.120247 0.134885
v 0.309016 -0.120248 0.134886
v 0.309015 -0.120185 -0.044406
v -0.023730 -0.120185 -0.044406
v -0.023730 -0.134431 0.134881
v -0.023730 -0.134369 -0.044411
v 0.301364 -0.140079 -0.040290
v 0.298991 -0.141850 -0.039012
v -0.013706 -0.141850 -0.039012
v -0.016079 -0.140079 -0.040290
v 0.307243 -0.135693 -0.043456
v -0.021957 -0.135692 -0.043456
v 0.309015 -0.134369 -0.044411
v 0.309016 -0.134432 0.134881
v 0.307243 -0.135754 0.133925
v -0.021957 -0.135754 0.133925
v 0.301363 -0.140138 0.130756
v -0.016079 -0.140138 0.130756
v 0.298991 -0.141908 0.129477
v -0.013706 -0.141908 0.129477
v 0.188220 -0.148505 0.081217
v 0.187006 -0.147791 0.084145
v 0.183803 -0.156422 0.086905
v 0.184863 -0.157555 0.084112
v 0.183771 -0.157665 0.081006
v 0.186973 -0.149035 0.078246
v 0.174151 -0.163636 0.089255
v 0.174741 -0.165120 0.086575
v 0.174119 -0.164880 0.083356
v 0.145601 -0.166097 0.090115
v 0.145559 -0.167701 0.087478
v 0.145569 -0.167341 0.084216
v 0.188929 -0.140769 0.078754
v 0.187656 -0.141367 0.075805
v 0.184040 -0.147311 0.085314
v 0.181214 -0.154929 0.087750
v 0.178611 -0.153951 0.086152
v 0.181062 -0.147346 0.084039
v 0.172694 -0.161297 0.089824
v 0.171224 -0.159473 0.087950
v 0.145669 -0.163469 0.090584
v 0.145723 -0.161357 0.088609
v 0.120181 -0.160863 0.089825
v 0.118604 -0.163145 0.089255
v 0.121743 -0.159097 0.087951
v 0.111996 -0.154178 0.087751
v 0.109333 -0.155570 0.086906
v 0.114646 -0.153300 0.086152
v 0.112691 -0.147092 0.084192
v 0.109741 -0.147018 0.085490
v 0.112356 -0.139256 0.081704
v 0.109330 -0.138941 0.082926
v 0.106777 -0.147459 0.084345
v 0.106291 -0.139141 0.081704
v 0.179815 -0.147876 0.081068
v 0.177520 -0.154062 0.083047
v 0.178579 -0.155195 0.080253
v 0.181030 -0.148590 0.078140
v 0.170601 -0.159233 0.084731
v 0.171191 -0.160717 0.082052
v 0.145733 -0.160997 0.085347
v 0.145691 -0.162600 0.082710
v 0.181622 -0.140008 0.081704
v 0.180350 -0.140606 0.078754
v 0.183995 -0.149070 0.076971
v 0.181168 -0.156688 0.079408
v 0.172649 -0.163056 0.081482
v 0.145624 -0.165228 0.082241
v 0.120135 -0.162622 0.081482
v 0.121711 -0.160341 0.082052
v 0.118572 -0.164388 0.083356
v 0.111951 -0.155936 0.079408
v 0.114615 -0.154543 0.080253
v 0.109301 -0.156814 0.081006
v 0.109695 -0.148776 0.077148
v 0.112659 -0.148335 0.078293
v 0.109285 -0.140699 0.074583
v 0.112324 -0.140500 0.075805
v 0.106259 -0.140384 0.075805
v 0.106745 -0.148702 0.078446
v 0.117938 -0.164605 0.086576
v 0.108217 -0.156662 0.084112
v 0.105537 -0.148156 0.081427
v 0.105019 -0.139739 0.078755
v 0.122377 -0.158881 0.084731
v 0.115731 -0.153452 0.083047
v 0.113899 -0.147637 0.081211
v 0.113597 -0.139902 0.078755
v 0.187687 -0.140124 0.081704
v 0.184662 -0.139808 0.082926
v 0.181590 -0.141252 0.075805
v 0.184616 -0.141567 0.074583
v 0.297830 -0.122934 0.116286
v 0.297825 -0.122881 -0.035749
v -0.015730 -0.122881 -0.035751
v -0.015725 -0.122934 0.116284
v 0.297830 0.240055 0.116411
v 0.297825 0.240107 -0.035624
v -0.015730 0.240107 -0.035626
v -0.015725 0.240055 0.116410
v -0.001725 -0.108934 0.116289
v 0.283830 -0.108934 0.116290
v 0.283830 0.226055 0.116406
v -0.001725 0.226055 0.116405
v -0.001677 -0.108885 -0.022943
v 0.283878 -0.108886 -0.022941
v 0.283878 0.226103 -0.022825
v -0.001677 0.226103 -0.022827
vn -0.0000 -1.0000 -0.0003
vn 1.0000 -0.0000 -0.0000
vn -0.0000 0.5852 0.8109
vn -0.0000 0.5853 0.8109
vn -0.0000 0.9392 0.3434
vn -0.0000 0.9393 0.3431
vn -0.0000 0.9392 0.3433
vn -0.0000 -0.0003 1.0000
vn -0.0000 -0.0309 0.9995
vn -0.0000 -0.0305 0.9995
vn -1.0000 -0.0000 -0.0000
vn -0.0000 0.0003 -1.0000
vn -0.0000 -0.0302 -0.9995
vn -0.0000 -0.0299 -0.9996
vn -0.0000 0.9396 -0.3423
vn -0.0001 0.9395 -0.3426
vn -0.0000 0.5859 -0.8104
vn -0.0000 0.9394 -0.3428
vn -0.0000 0.5857 -0.8105
vn -0.0000 0.5858 -0.8105
vn -0.0000 0.5858 -0.8104
vn -0.0072 1.0000 0.0003
vn 0.0071 1.0000 0.0003
vn -0.0070 1.0000 0.0003
vn -0.0071 1.0000 0.0003
vn 0.0070 1.0000 0.0003
vn -0.5981 0.8014 0.0003
vn -0.9566 0.2914 -0.0000
vn -0.9566 0.2913 -0.0000
vn -0.5980 0.8015 0.0003
vn -0.9565 0.2917 0.0001
vn -0.5979 0.8015 0.0003
vn -0.5979 0.8016 0.0003
vn -0.5981 0.8015 0.0003
vn 0.5980 0.8015 0.0003
vn 0.9565 0.2917 0.0001
vn 0.9566 0.2915 0.0001
vn 0.5979 0.8016 0.0003
vn 0.9565 0.2919 0.0001
vn -0.6669 0.1466 -0.7306
vn -0.9432 -0.0989 -0.3170
vn -0.9106 0.4041 -0.0864
vn -0.6665 0.1461 -0.7311
vn -0.7532 -0.2480 -0.6093
vn -0.9430 -0.0995 -0.3176
vn -0.6149 0.5435 0.5714
vn -0.9921 0.1213 0.0326
vn -0.7549 0.1517 0.6381
vn -0.6152 0.5436 0.5711
vn -0.9091 0.4093 -0.0772
vn -0.9921 0.1212 0.0322
vn -0.2879 0.5743 -0.7664
vn -0.8548 0.3505 -0.3828
vn -0.4190 0.7748 -0.4734
vn -0.2880 0.5745 -0.7661
vn -0.7557 0.1593 -0.6353
vn -0.8548 0.3507 -0.3825
vn -0.4577 0.8703 -0.1818
vn -0.7207 0.4818 0.4984
vn -0.2238 0.8768 0.4257
vn -0.4577 0.8703 -0.1820
vn -0.8245 0.5618 -0.0682
vn -0.7208 0.4818 0.4983
vn 0.1032 0.6742 -0.7313
vn -0.1827 0.8627 -0.4716
vn 0.0649 0.8789 -0.4725
vn 0.1008 0.6423 -0.7598
vn -0.1805 0.6220 -0.7620
vn -0.1865 0.8404 -0.5089
vn 0.0363 0.9784 -0.2033
vn -0.1706 0.9090 0.3802
vn 0.1110 0.9222 0.3705
vn 0.0409 0.9851 -0.1669
vn -0.1663 0.9659 -0.1986
vn -0.1643 0.8952 0.4144
vn -0.7165 0.2720 0.6423
vn -0.9994 0.0021 0.0333
vn -0.7149 0.1435 0.6843
vn -0.7095 0.2699 0.6510
vn -0.9964 0.0841 -0.0145
vn -0.9990 0.0013 0.0445
vn 0.0332 -0.2296 -0.9727
vn -0.4334 -0.2637 -0.8618
vn -0.6673 0.0094 -0.7447
vn 0.0333 -0.2296 -0.9727
vn -0.4234 -0.2398 -0.8736
vn -0.4333 -0.2637 -0.8618
vn 0.7046 -0.4396 -0.5571
vn 0.4111 -0.3081 -0.8580
vn 0.1631 -0.1445 -0.9760
vn 0.7047 -0.4396 -0.5568
vn 0.1633 -0.1447 -0.9759
vn 0.0162 -0.4008 -0.9160
vn -0.2123 0.1760 -0.9612
vn -0.4339 -0.0513 -0.8995
vn -0.2267 0.1515 -0.9621
vn -0.2123 0.1761 -0.9612
vn -0.4074 -0.0295 -0.9128
vn -0.4340 -0.0512 -0.8995
vn 0.1874 -0.6720 -0.7164
vn 0.3035 -0.2178 -0.9276
vn -0.0409 -0.5032 -0.8632
vn 0.1875 -0.6722 -0.7163
vn 0.3808 -0.4969 -0.7798
vn 0.3036 -0.2179 -0.9276
vn 0.0536 0.2695 -0.9615
vn -0.0869 0.2433 -0.9661
vn 0.0230 0.2500 -0.9680
vn 0.0525 0.2031 -0.9778
vn -0.0888 0.1761 -0.9804
vn -0.0879 0.1763 -0.9804
vn -0.0495 -0.7362 -0.6749
vn 0.0676 -0.4335 -0.8986
vn -0.0945 -0.4813 -0.8714
vn -0.0479 -0.6978 -0.7147
vn 0.0719 -0.6812 -0.7285
vn 0.0685 -0.3828 -0.9213
vn 0.0948 0.1714 -0.9806
vn -0.0189 0.1826 -0.9830
vn 0.0957 0.1716 -0.9805
vn 0.1079 0.2361 -0.9657
vn -0.0377 0.2664 -0.9631
vn -0.0058 0.2473 -0.9689
vn -0.0851 -0.6784 -0.7297
vn 0.0939 -0.4327 -0.8966
vn -0.0786 -0.3797 -0.9218
vn -0.0988 -0.7244 -0.6823
vn 0.0299 -0.7397 -0.6723
vn 0.0799 -0.4915 -0.8672
vn 0.4080 -0.0545 -0.9114
vn 0.2399 0.1252 -0.9627
vn 0.4356 -0.0756 -0.8970
vn 0.4081 -0.0544 -0.9113
vn 0.2267 0.1504 -0.9623
vn 0.2400 0.1252 -0.9627
vn -0.4092 -0.4687 -0.7828
vn 0.0086 -0.4917 -0.8707
vn -0.3246 -0.1956 -0.9254
vn -0.4092 -0.4687 -0.7829
vn -0.2219 -0.6514 -0.7256
vn -0.4295 -0.2717 -0.8612
vn -0.0329 -0.3979 -0.9168
vn -0.1792 -0.1176 -0.9768
vn -0.4294 -0.2718 -0.8612
vn -0.3731 -0.4324 -0.8209
vn -0.0328 -0.3979 -0.9169
vn 0.4185 -0.2752 -0.8655
vn 0.3739 -0.1249 -0.9190
vn 0.4272 -0.2993 -0.8532
vn -0.3961 -0.2499 -0.8835
vn -0.0167 -0.3021 -0.9531
vn -0.0532 -0.2256 -0.9728
vn -0.3818 -0.2568 -0.8878
vn -0.3839 -0.2971 -0.8743
vn -0.0012 -0.3067 -0.9518
vn 0.3834 -0.3038 -0.8722
vn 0.3870 -0.2632 -0.8837
vn 0.3826 -0.3113 -0.8699
vn 0.3741 -0.1172 -0.9200
vn 0.3738 -0.1249 -0.9190
vn 0.3697 -0.3009 -0.8791
vn 0.3747 -0.2605 -0.8898
vn 0.3733 -0.2602 -0.8905
vn 0.9084 -0.3973 0.1300
vn 0.7582 -0.1279 -0.6393
vn 0.6053 -0.5572 -0.5684
vn 0.9085 -0.3973 0.1298
vn 0.9897 -0.1094 0.0926
vn 0.7582 -0.1278 -0.6394
vn 0.6627 -0.1630 0.7309
vn 0.7555 0.2687 0.5975
vn 0.9417 0.0669 0.3298
vn 0.6628 -0.1630 0.7309
vn 0.9002 -0.4351 0.0187
vn 0.4816 -0.8247 0.2966
vn 0.7539 -0.4366 -0.4909
vn 0.2451 -0.8675 -0.4329
vn 0.4816 -0.8247 0.2965
vn 0.8183 -0.5422 0.1909
vn 0.7539 -0.4366 -0.4910
vn 0.3097 -0.5634 0.7660
vn 0.8582 -0.3452 0.3800
vn 0.3896 -0.7925 0.4691
vn 0.3095 -0.5632 0.7662
vn 0.7818 -0.1143 0.6130
vn 0.8581 -0.3451 0.3803
vn -0.0344 -0.9449 0.3256
vn 0.1374 -0.9181 -0.3717
vn -0.0864 -0.9269 -0.3652
vn -0.0294 -0.9584 0.2840
vn 0.1360 -0.9612 0.2400
vn 0.1404 -0.9003 -0.4119
vn -0.0714 -0.6741 0.7352
vn 0.1621 -0.8680 0.4693
vn -0.0837 -0.8793 0.4688
vn -0.0789 -0.6371 0.7667
vn 0.1448 -0.6243 0.7676
vn 0.1555 -0.8446 0.5123
vn 0.9193 -0.1829 -0.3484
vn 0.9996 0.0244 0.0166
vn 0.7125 -0.1357 -0.6885
vn 0.9153 -0.1811 -0.3597
vn 0.7045 -0.1332 -0.6971
vn 0.9159 -0.1814 -0.3582
vn 0.0327 0.1944 0.9804
vn 0.4276 0.2500 0.8687
vn 0.7261 -0.0502 0.6858
vn 0.0326 0.1944 0.9804
vn 0.4377 0.2746 0.8562
vn -0.6435 0.4392 0.6269
vn -0.4228 0.2821 0.8612
vn -0.0559 0.0820 0.9951
vn -0.6436 0.4391 0.6268
vn -0.0561 0.0819 0.9951
vn 0.0332 0.3800 0.9244
vn 0.2333 -0.1400 0.9623
vn 0.4183 0.0398 0.9074
vn 0.2184 -0.1654 0.9617
vn 0.4442 0.0577 0.8941
vn 0.4184 0.0398 0.9074
vn -0.2033 0.6523 0.7302
vn -0.2405 0.1166 0.9636
vn 0.1357 0.4268 0.8941
vn -0.2034 0.6524 0.7300
vn -0.4013 0.4798 0.7802
vn -0.2407 0.1167 0.9636
vn -0.0111 -0.2445 0.9696
vn 0.0932 -0.2431 0.9655
vn -0.0409 -0.2604 0.9646
vn -0.0229 -0.1772 0.9839
vn 0.0806 -0.1760 0.9811
vn 0.0814 -0.1759 0.9810
vn 0.0160 0.7234 0.6902
vn -0.0829 0.3877 0.9181
vn 0.1268 0.3688 0.9208
vn 0.0250 0.6886 0.7247
vn -0.0768 0.6813 0.7280
vn -0.0738 0.3425 0.9366
vn -0.0902 -0.1716 0.9810
vn 0.0522 -0.2053 0.9773
vn -0.0894 -0.1715 0.9811
vn -0.0894 -0.2456 0.9652
vn 0.0197 -0.2548 0.9668
vn 0.0531 -0.2785 0.9590
vn 0.0943 0.6780 0.7290
vn -0.1419 0.3279 0.9340
vn 0.0836 0.3390 0.9371
vn 0.0938 0.7249 0.6824
vn -0.0168 0.7345 0.6784
vn -0.1409 0.3886 0.9106
vn -0.4357 0.0771 0.8968
vn -0.2210 -0.1610 0.9619
vn -0.4070 0.0510 0.9120
vn -0.2340 -0.1365 0.9626
vn 0.4206 0.4584 0.7829
vn -0.1198 0.4335 0.8931
vn 0.2438 0.1049 0.9641
vn 0.4207 0.4586 0.7827
vn 0.2243 0.6482 0.7277
vn -0.1196 0.4338 0.8930
vn -0.4233 0.2885 0.8588
vn -0.3728 0.1122 0.9211
vn -0.4147 0.2649 0.8706
vn -0.4233 0.2886 0.8588
vn -0.3742 0.1187 0.9197
vn -0.3727 0.1122 0.9211
vn -0.3833 0.3052 0.8717
vn -0.3869 0.2590 0.8850
vn -0.3824 0.2990 0.8743
vn -0.3691 0.3132 0.8750
vn -0.3745 0.2661 0.8882
vn -0.3728 0.2670 0.8887
vn 0.3822 0.2524 0.8889
vn 0.3840 0.2971 0.8742
vn 0.0036 0.2991 0.9542
vn 0.3953 0.2567 0.8820
vn 0.0177 0.3046 0.9523
vn -0.0093 0.2220 0.9750
vn 0.4312 0.2676 0.8617
vn -0.0272 0.3803 0.9245
vn 0.0595 0.0786 0.9951
vn 0.4309 0.2675 0.8618
vn 0.3736 0.4282 0.8228
vn -0.0275 0.3802 0.9245
vn 0.1962 0.6150 -0.7637
vn -0.0484 0.8588 -0.5101
vn 0.2125 0.8331 -0.5107
vn 0.2041 0.6500 -0.7320
vn -0.0942 0.6773 -0.7296
vn -0.0418 0.8822 -0.4691
vn 0.1928 0.9611 -0.1980
vn -0.1052 0.9091 0.4030
vn 0.1934 0.8891 0.4148
vn 0.1882 0.9521 -0.2410
vn -0.0344 0.9766 -0.2124
vn -0.1069 0.9256 0.3631
vn 0.7625 0.1158 -0.6366
vn 0.4668 0.7443 -0.4777
vn 0.8749 0.3005 -0.3799
vn 0.7626 0.1159 -0.6364
vn 0.3220 0.5549 -0.7671
vn 0.4669 0.7443 -0.4775
vn 0.8485 0.5247 -0.0690
vn 0.2671 0.8604 0.4341
vn 0.7440 0.4451 0.4984
vn 0.8485 0.5246 -0.0689
vn 0.4936 0.8497 -0.1851
vn 0.2671 0.8603 0.4341
vn 0.7413 -0.3005 -0.6002
vn 0.8695 0.2460 -0.4284
vn 0.9363 -0.1683 -0.3083
vn 0.7413 -0.3005 -0.6001
vn 0.6760 0.1121 -0.7284
vn 0.8695 0.2460 -0.4283
vn 0.9972 0.0689 0.0288
vn 0.6364 0.5118 0.5772
vn 0.7594 0.0977 0.6432
vn 0.9972 0.0689 0.0285
vn 0.9275 0.3670 -0.0707
vn 0.6366 0.5118 0.5769
vn 0.9995 -0.0143 0.0283
vn 0.7282 0.2489 0.6386
vn 0.7207 0.1393 0.6791
vn 0.9990 -0.0149 0.0433
vn 0.9984 0.0556 -0.0123
vn 0.7185 0.2466 0.6503
vn -0.1584 -0.9579 0.2395
vn 0.0824 -0.9110 -0.4042
vn -0.1575 -0.8973 -0.4124
vn -0.1649 -0.9434 0.2877
vn 0.0121 -0.9435 0.3310
vn 0.0727 -0.9306 -0.3587
vn -0.1663 -0.6610 0.7317
vn 0.0734 -0.6784 0.7310
vn 0.0929 -0.8847 0.4568
vn -0.1701 -0.6171 0.7683
vn 0.0869 -0.8581 0.5061
vn -0.1786 -0.8389 0.5141
vn -0.8495 -0.4915 0.1918
vn -0.2877 -0.8530 -0.4354
vn -0.7776 -0.3938 -0.4901
vn -0.5330 -0.7939 0.2925
vn -0.2877 -0.8531 -0.4354
vn -0.7885 -0.0655 0.6115
vn -0.4185 -0.7766 0.4709
vn -0.8711 -0.3081 0.3824
vn -0.7886 -0.0656 0.6114
vn -0.3378 -0.5402 0.7707
vn -0.4184 -0.7768 0.4707
vn -0.9949 -0.0364 0.0942
vn -0.6341 -0.5286 -0.5644
vn -0.7647 -0.0765 -0.6399
vn -0.9279 -0.3490 0.1308
vn -0.9979 0.0579 0.0279
vn -0.6984 -0.2401 -0.6742
vn -0.7264 -0.1212 -0.6765
vn -0.9988 0.0473 0.0138
vn -0.9992 -0.0394 0.0064
vn -0.6863 -0.2487 -0.6835
vn -0.7376 0.3215 0.5938
vn -0.8553 -0.2860 0.4321
vn -0.9371 0.1140 0.3299
vn -0.7376 0.3214 0.5938
vn -0.6635 -0.1269 0.7374
vn -0.8553 -0.2860 0.4320
vn 0.7071 -0.2875 -0.6461
vn 0.9261 -0.0660 -0.3714
vn 0.9197 -0.1842 -0.3468
vn 0.6972 -0.2863 -0.6572
vn 0.6851 -0.1805 -0.7058
vn 0.9205 -0.0651 -0.3854
vn -0.6989 0.2954 0.6514
vn -0.9264 0.0751 0.3690
vn -0.9209 0.1700 0.3508
vn -0.6863 0.3049 0.6603
vn -0.7158 0.1869 0.6728
vn -0.9202 0.0862 0.3819
vn 0.0309 -0.3088 -0.9506
vn -0.6752 -0.1840 -0.7143
vn -0.6932 -0.1668 -0.7011
vn 0.0200 -0.3041 -0.9524
vn 0.0280 -0.4045 -0.9141
vn -0.6832 -0.1770 -0.7085
vn 0.7149 -0.2660 -0.6466
vn 0.7318 -0.2720 -0.6248
vn 0.0390 -0.2222 -0.9742
vn 0.7073 -0.2637 -0.6559
vn 0.0279 -0.2172 -0.9757
vn 0.3722 -0.3072 -0.8759
vn 0.9240 0.0495 0.3791
vn 0.9993 0.0058 -0.0360
vn 0.9966 -0.0806 -0.0175
vn 0.9284 0.0508 0.3680
vn 0.7108 0.2918 0.6400
vn 0.9988 0.0067 -0.0480
vn 0.0314 0.2978 0.9541
vn 0.7362 0.1372 0.6627
vn 0.7186 0.1553 0.6779
vn 0.0426 0.3011 0.9526
vn 0.0405 0.3841 0.9224
vn 0.7439 0.1382 0.6538
vn -0.6893 0.2699 0.6723
vn -0.6702 0.2635 0.6938
vn 0.0120 0.2043 0.9788
vn -0.6808 0.2757 0.6786
vn 0.0233 0.2074 0.9780
vn 0.0003 0.3034 0.9529
vn -0.6902 -0.1637 -0.7048
vn -0.9991 -0.0315 -0.0291
vn -0.9962 0.0751 -0.0450
vn -0.6986 -0.1564 -0.6983
vn -0.7111 -0.2799 -0.6449
vn -0.9995 -0.0236 -0.0190
vn -0.0000 0.0004 -1.0000
vn 1.0000 -0.0000 0.0003
vn -0.0000 1.0000 0.0003
vn -1.0000 -0.0000 -0.0003
vt 0.890737 0.095496
vt 0.957589 0.198977
vt 0.891003 0.197208
vt 0.957323 0.097265
vt 0.891003 0.091152
vt 0.957589 0.092921
vt 0.996041 0.851188
vt 0.996893 0.714795
vt 0.996892 0.850160
vt 0.996041 0.713768
vt 0.993931 0.853733
vt 0.993931 0.711225
vt 0.993294 0.854501
vt 0.993294 0.710457
vt 0.986870 0.854500
vt 0.986870 0.710457
vt 0.123241 0.911746
vt 0.127880 0.848319
vt 0.127880 0.911641
vt 0.123241 0.848424
vt 0.967137 0.947989
vt 0.973597 0.803945
vt 0.973597 0.947989
vt 0.967137 0.803945
vt 0.974199 0.804712
vt 0.974199 0.947221
vt 0.976197 0.807256
vt 0.976197 0.944675
vt 0.977003 0.808283
vt 0.977003 0.943648
vt 0.897548 0.589298
vt 0.958052 0.492160
vt 0.960122 0.590246
vt 0.895477 0.491212
vt 0.895018 0.489932
vt 0.958542 0.490895
vt 0.893879 0.486762
vt 0.959756 0.487760
vt 0.893536 0.485806
vt 0.960122 0.486815
vt 0.938315 0.310897
vt 0.936979 0.370834
vt 0.936979 0.311343
vt 0.938315 0.371291
vt 0.941626 0.309792
vt 0.941626 0.372424
vt 0.942625 0.309459
vt 0.942625 0.372766
vt 0.929215 0.686369
vt 0.927598 0.690356
vt 0.928184 0.686669
vt 0.928600 0.690234
vt 0.929807 0.690459
vt 0.930394 0.686773
vt 0.927479 0.695597
vt 0.928476 0.695730
vt 0.929689 0.695701
vt 0.928821 0.705198
vt 0.929841 0.705564
vt 0.931031 0.705302
vt 0.929857 0.683734
vt 0.931031 0.684167
vt 0.370886 0.898748
vt 0.367606 0.896275
vt 0.371089 0.897461
vt 0.366939 0.897404
vt 0.368037 0.895145
vt 0.371058 0.896173
vt 0.364661 0.892618
vt 0.363604 0.893261
vt 0.365484 0.891974
vt 0.363530 0.880931
vt 0.362333 0.880915
vt 0.364492 0.880944
vt 0.364583 0.869885
vt 0.363536 0.869214
vt 0.365395 0.870553
vt 0.367585 0.866310
vt 0.366936 0.865164
vt 0.367998 0.867453
vt 0.370815 0.866576
vt 0.370833 0.865298
vt 0.374381 0.866393
vt 0.374509 0.865081
vt 0.370617 0.864018
vt 0.374402 0.863767
vt 0.560625 0.886706
vt 0.561416 0.883632
vt 0.561782 0.886291
vt 0.560233 0.883867
vt 0.562470 0.883728
vt 0.562862 0.886567
vt 0.561241 0.879886
vt 0.560047 0.879867
vt 0.562284 0.879728
vt 0.561811 0.871753
vt 0.560625 0.871504
vt 0.562862 0.871365
vt 0.561118 0.889201
vt 0.562271 0.888756
vt 0.358916 0.866599
vt 0.355200 0.866498
vt 0.358759 0.865313
vt 0.355829 0.867627
vt 0.354708 0.865367
vt 0.358741 0.864024
vt 0.352190 0.870155
vt 0.353220 0.870797
vt 0.351299 0.869509
vt 0.351036 0.881842
vt 0.352208 0.881826
vt 0.350002 0.881855
vt 0.352113 0.892888
vt 0.353132 0.892217
vt 0.351232 0.893556
vt 0.355179 0.896464
vt 0.355791 0.895318
vt 0.354705 0.897607
vt 0.358498 0.897476
vt 0.358669 0.896196
vt 0.362254 0.897694
vt 0.362313 0.896379
vt 0.362333 0.899006
vt 0.358466 0.898754
vt 0.536530 0.863767
vt 0.534218 0.873282
vt 0.535508 0.864107
vt 0.535215 0.873177
vt 0.537718 0.864032
vt 0.536428 0.873207
vt 0.534312 0.878508
vt 0.535314 0.878657
vt 0.536522 0.878432
vt 0.534841 0.881854
vt 0.535869 0.882166
vt 0.537051 0.881779
vt 0.536542 0.884988
vt 0.537718 0.884560
vt 0.563428 0.888467
vt 0.564059 0.880539
vt 0.564615 0.888224
vt 0.562862 0.880549
vt 0.565095 0.880677
vt 0.565662 0.888595
vt 0.564234 0.876803
vt 0.563049 0.876560
vt 0.565283 0.876688
vt 0.564589 0.874388
vt 0.563428 0.873981
vt 0.565130 0.871813
vt 0.563975 0.871365
vt 0.565662 0.874109
vt 0.324793 0.677468
vt 0.323565 0.680232
vt 0.323567 0.677684
vt 0.324793 0.680040
vt 0.323568 0.688119
vt 0.324819 0.685814
vt 0.324819 0.688252
vt 0.323565 0.685705
vt 0.374381 0.899006
vt 0.374509 0.897694
vt 0.374402 0.896379
vt 0.323579 0.710541
vt 0.324833 0.708198
vt 0.324833 0.710436
vt 0.323581 0.708319
vt 0.362333 0.866393
vt 0.362254 0.865081
vt 0.362313 0.863767
vt 0.324797 0.693496
vt 0.323567 0.695636
vt 0.323565 0.693315
vt 0.324797 0.695831
vt 0.069092 0.474623
vt 0.069093 0.581624
vt 0.120975 0.581626
vt 0.120974 0.474625
vt 0.052296 0.122497
vt 0.052296 0.246367
vt 0.104178 0.246367
vt 0.104178 0.122497
vt 0.264901 0.122497
vt 0.264901 0.246367
vt 0.371902 0.246367
vt 0.371902 0.122497
vt 0.811348 0.491032
vt 0.811348 0.614902
vt 0.863230 0.614902
vt 0.863230 0.491032
vt 0.563013 0.481737
vt 0.563013 0.596052
vt 0.660459 0.596052
vt 0.660459 0.481737
vt 0.586078 0.122497
vt 0.590856 0.127275
vt 0.688301 0.127275
vt 0.693079 0.122497
vt 0.688301 0.241590
vt 0.693079 0.246367
vt 0.590856 0.241590
vt 0.586078 0.246367
vt 0.048047 0.881653
vt 0.095560 0.881637
vt 0.095559 0.784191
vt 0.048046 0.784208
vt 0.270800 0.481737
vt 0.223287 0.481737
vt 0.223287 0.596051
vt 0.270800 0.596051
vt 0.242052 0.805747
vt 0.194539 0.805731
vt 0.194539 0.903177
vt 0.242052 0.903193
vt 0.368862 0.596052
vt 0.416374 0.596052
vt 0.416374 0.481737
vt 0.368862 0.481737
s 1
usemtl M_SideTableDrawer_003_3_0
f 1/1/1 3/2/1 2/3/1
f 1/1/1 4/4/1 3/2/1
f 4/4/2 1/1/2 5/5/2
f 4/4/2 5/5/2 6/6/2
f 7/7/3 9/8/3 8/9/3
f 7/7/3 10/10/3 9/8/3
f 11/11/4 10/10/4 7/7/4
f 11/11/3 12/12/3 10/10/3
f 13/13/5 12/12/3 11/11/3
f 13/13/6 6/14/7 12/12/3
f 3/15/8 6/14/9 13/13/10
f 3/15/8 4/16/8 6/14/9
f 2/17/11 13/18/11 14/19/11
f 2/17/11 3/20/11 13/18/11
f 1/21/12 14/22/13 5/23/14
f 1/21/12 2/24/12 14/22/13
f 5/23/15 14/22/16 15/25/17
f 5/23/18 15/25/19 16/26/19
f 16/26/20 15/25/20 17/27/20
f 16/26/21 17/27/21 18/28/21
f 18/28/20 17/27/20 19/29/20
f 18/28/19 19/29/19 20/30/19
f 20/31/22 8/32/23 9/33/24
f 20/31/25 19/34/26 8/32/23
f 17/35/27 8/32/28 19/34/29
f 17/35/30 7/36/30 8/32/31
f 15/37/32 7/36/32 17/35/32
f 15/37/32 11/38/32 7/36/32
f 14/39/33 11/38/33 15/37/33
f 14/39/34 13/40/34 11/38/34
f 10/41/35 20/42/36 9/43/37
f 10/41/38 18/44/38 20/42/39
f 12/45/35 18/44/35 10/41/35
f 12/45/35 16/46/35 18/44/35
f 6/47/35 16/46/35 12/45/35
f 6/47/35 5/48/35 16/46/35
f 21/49/40 23/50/41 22/51/42
f 21/49/43 24/52/44 23/50/45
f 21/49/46 25/53/47 24/52/48
f 21/49/49 26/54/50 25/53/51
f 24/52/52 27/55/53 23/50/54
f 24/52/55 28/56/56 27/55/57
f 25/53/58 28/56/59 24/52/60
f 25/53/61 29/57/62 28/56/63
f 28/56/64 30/58/65 27/55/66
f 28/56/67 31/59/68 30/58/69
f 29/57/70 31/59/71 28/56/72
f 29/57/73 32/60/74 31/59/75
f 33/61/76 26/54/77 21/49/78
f 33/61/79 34/62/80 26/54/81
f 22/63/82 36/64/83 35/65/84
f 22/63/85 23/66/86 36/64/87
f 35/65/88 36/64/89 37/67/90
f 35/65/91 37/67/92 38/68/93
f 23/66/94 39/69/95 36/64/96
f 23/66/97 27/70/98 39/69/99
f 36/64/100 40/71/101 37/67/102
f 36/64/103 39/69/104 40/71/105
f 27/70/106 41/72/107 39/69/108
f 27/70/109 30/73/110 41/72/111
f 39/69/112 42/74/113 40/71/114
f 39/69/115 41/72/116 42/74/117
f 30/73/118 43/75/119 41/72/120
f 30/73/121 44/76/122 43/75/123
f 41/72/124 45/77/125 42/74/126
f 41/72/127 43/75/128 45/77/129
f 44/76/130 46/78/131 43/75/132
f 44/76/133 47/79/134 46/78/135
f 43/75/136 48/80/137 45/77/138
f 43/75/139 46/78/140 48/80/137
f 46/78/141 49/81/142 48/80/143
f 46/78/144 50/82/145 49/81/146
f 47/79/147 50/82/148 46/78/149
f 50/82/150 51/83/151 49/81/152
f 50/82/153 52/84/154 51/83/155
f 53/85/156 52/84/157 50/82/158
f 47/79/147 53/85/159 50/82/160
f 53/85/161 54/86/162 52/84/163
f 38/87/164 56/88/165 55/89/166
f 38/87/167 37/90/168 56/88/169
f 55/89/170 56/88/171 57/91/172
f 55/89/173 57/91/172 58/92/174
f 37/90/175 59/93/176 56/88/177
f 37/90/178 40/94/179 59/93/180
f 56/88/181 60/95/182 57/91/183
f 56/88/184 59/93/185 60/95/186
f 40/94/187 61/96/188 59/93/189
f 40/94/190 42/97/191 61/96/192
f 59/93/193 62/98/194 60/95/195
f 59/93/196 61/96/197 62/98/198
f 63/99/199 38/87/200 55/89/201
f 63/99/202 55/89/203 64/100/204
f 58/101/205 66/102/206 65/103/207
f 58/101/208 57/104/209 66/102/206
f 65/103/210 66/102/211 25/105/212
f 65/103/213 25/105/214 26/106/215
f 57/104/216 67/107/217 66/102/218
f 57/104/216 60/108/219 67/107/220
f 66/102/221 29/109/222 25/105/223
f 66/102/224 67/107/225 29/109/226
f 60/108/227 68/110/228 67/107/229
f 60/108/230 62/111/231 68/110/232
f 67/107/233 32/112/234 29/109/235
f 67/107/236 68/110/237 32/112/238
f 62/111/239 69/113/240 68/110/241
f 62/111/242 70/114/243 69/113/244
f 68/110/245 71/115/246 32/112/247
f 68/110/248 69/113/249 71/115/250
f 70/114/251 72/116/252 69/113/253
f 70/114/251 73/117/254 72/116/252
f 69/113/255 74/118/256 71/115/257
f 69/113/258 72/116/259 74/118/260
f 73/117/261 75/119/262 72/116/263
f 73/117/264 76/120/265 75/119/266
f 76/120/267 77/121/268 75/119/269
f 76/120/270 78/122/271 77/121/272
f 75/119/273 77/121/274 79/123/275
f 75/119/276 79/123/277 80/124/278
f 72/116/279 80/124/280 74/118/281
f 72/116/282 75/119/283 80/124/284
f 31/125/285 44/126/286 30/127/287
f 31/125/288 81/128/289 44/126/290
f 32/129/291 81/128/292 31/125/293
f 32/129/294 71/130/295 81/128/296
f 81/128/297 47/131/298 44/126/299
f 81/128/300 82/132/301 47/131/302
f 71/130/303 82/132/304 81/128/305
f 71/130/306 74/133/307 82/132/308
f 82/132/309 53/134/310 47/131/311
f 82/132/312 83/135/313 53/134/314
f 74/133/315 83/135/316 82/132/317
f 74/133/318 80/136/319 83/135/320
f 80/136/321 84/137/322 83/135/323
f 80/136/324 79/138/325 84/137/326
f 42/139/327 85/140/328 61/141/329
f 42/139/330 45/142/331 85/140/332
f 61/141/333 85/140/334 70/143/335
f 61/141/336 70/143/337 62/144/338
f 45/142/339 86/145/340 85/140/341
f 45/142/339 48/146/342 86/145/343
f 85/140/344 73/147/345 70/143/346
f 85/140/347 86/145/348 73/147/349
f 48/146/350 87/148/351 86/145/352
f 48/146/350 49/149/353 87/148/351
f 49/149/354 88/150/355 87/148/356
f 49/149/357 51/151/358 88/150/359
f 86/145/360 76/152/361 73/147/362
f 86/145/363 87/148/364 76/152/365
f 83/153/366 54/154/367 53/155/368
f 83/153/369 84/156/370 54/154/371
f 87/157/372 78/158/373 76/159/374
f 87/157/375 88/160/376 78/158/377
f 89/161/378 35/65/379 90/162/380
f 89/161/381 22/63/382 35/65/383
f 90/162/384 35/65/385 38/68/386
f 90/162/387 38/68/388 63/163/389
f 64/164/390 58/165/391 91/166/392
f 64/164/393 55/167/394 58/165/395
f 91/168/396 65/103/397 92/169/398
f 91/168/399 58/101/400 65/103/401
f 92/169/402 65/103/403 26/106/404
f 92/169/405 26/106/406 34/170/407
f 33/171/408 22/172/409 89/173/410
f 33/171/411 21/174/412 22/172/413
f 97/175/1 100/176/1 99/177/1 98/178/1
f 93/179/11 97/180/11 98/181/11 94/182/11
f 94/183/8 98/184/8 99/185/8 95/186/8
f 95/187/2 99/188/2 100/189/2 96/190/2
f 105/191/12 108/192/12 107/193/12 106/194/12
f 96/195/12 101/196/12 102/197/12 93/198/12
f 93/198/12 102/197/12 103/199/12 97/200/12
f 97/200/414 103/199/414 104/201/414 100/202/414
f 100/202/12 104/201/12 101/196/12 96/195/12
f 101/203/1 105/204/1 106/205/1 102/206/1
f 102/207/415 106/208/415 107/209/415 103/210/415
f 103/211/416 107/212/416 108/213/416 104/214/416
f 104/215/417 108/216/417 105/217/417 101/218/417
