# Blender 4.1.1
# www.blender.org
mtllib Box_4_Box4_0.mtl
o Box4
v -0.178054 0.129457 -0.382065
v -0.177492 0.129457 -0.382627
v -0.177492 0.130019 -0.382065
v -0.178054 -0.076581 -0.382065
v -0.177492 -0.077143 -0.382065
v -0.177492 -0.076581 -0.382627
v 0.053870 -0.077143 -0.382065
v 0.054432 -0.076581 -0.382065
v 0.053870 -0.076581 -0.382627
v 0.053870 0.130019 -0.382065
v 0.053870 0.129457 -0.382627
v 0.054432 0.129457 -0.382065
v -0.177492 0.130019 -0.122848
v -0.176697 0.129457 -0.122286
v -0.177492 0.128662 -0.122286
v -0.178054 0.129457 -0.122848
v -0.177492 -0.077143 -0.122848
v -0.178054 -0.076581 -0.122848
v -0.177492 -0.075787 -0.122286
v -0.176697 -0.076581 -0.122286
v 0.054432 -0.076581 -0.122848
v 0.053870 -0.077143 -0.122848
v 0.053076 -0.076581 -0.122286
v 0.053870 -0.075787 -0.122286
v 0.054432 0.129457 -0.122848
v 0.053870 0.128662 -0.122286
v 0.053075 0.129457 -0.122286
v 0.053870 0.130019 -0.122848
v -0.175467 0.127994 -0.380040
v -0.175467 0.127432 -0.380602
v -0.176029 0.127432 -0.380040
v 0.051845 0.127994 -0.380040
v 0.052407 0.127432 -0.380040
v 0.051845 0.127432 -0.380602
v 0.052407 -0.074556 -0.380040
v 0.051845 -0.075118 -0.380040
v 0.051845 -0.074556 -0.380602
v -0.175467 -0.075118 -0.380040
v -0.176029 -0.074556 -0.380040
v -0.175467 -0.074556 -0.380602
v -0.175467 -0.075118 -0.122848
v -0.175796 -0.075680 -0.122286
v -0.176591 -0.074886 -0.122286
v -0.176029 -0.074556 -0.122848
v -0.176591 0.127761 -0.122286
v -0.175796 0.128556 -0.122286
v -0.175467 0.127994 -0.122848
v -0.176029 0.127432 -0.122848
v 0.052407 -0.074556 -0.122848
v 0.052969 -0.074886 -0.122286
v 0.052175 -0.075680 -0.122286
v 0.051845 -0.075118 -0.122848
v 0.051845 0.127994 -0.122848
v 0.052174 0.128556 -0.122286
v 0.052969 0.127761 -0.122286
v 0.052407 0.127432 -0.122848
vn -0.0000 -1.0000 -0.0000
vn -0.0000 1.0000 -0.0000
vn -1.0000 -0.0000 -0.0000
vn -0.0000 -0.0000 -1.0000
vn 1.0000 -0.0000 -0.0000
vn 0.5774 -0.5774 0.5773
vn 0.5773 0.5774 0.5774
vn -0.5774 0.5774 0.5773
vn -0.5774 -0.5774 0.5773
vn 0.3574 -0.3574 -0.8629
vn 0.3574 0.3574 -0.8629
vn -0.3574 0.3574 -0.8629
vn -0.3574 -0.3574 -0.8629
vn -0.5773 0.5774 -0.5773
vn 0.5774 0.5773 -0.5773
vn 0.5774 -0.5774 -0.5773
vn -0.5774 -0.5774 -0.5773
vn -0.4706 -0.4706 -0.7463
vn -0.4706 0.4706 -0.7463
vn 0.4706 -0.4706 -0.7463
vn 0.4706 0.4706 -0.7463
vn 0.7071 -0.0000 0.7071
vn -0.0000 -0.7071 0.7071
vn 0.7071 -0.7071 -0.0000
vn -0.0000 0.7071 0.7071
vn 0.7071 0.7071 -0.0000
vn -0.7071 -0.0000 0.7071
vn -0.7071 0.7071 -0.0000
vn -0.7071 -0.7071 -0.0000
vn 0.7071 -0.0000 -0.7071
vn -0.0000 -0.7071 -0.7071
vn -0.0000 0.7071 -0.7071
vn -0.7071 -0.0000 -0.7071
vn 0.7072 -0.0000 -0.7071
vn -0.0000 -0.0000 1.0000
vt 0.716691 0.451425
vt 0.716691 -1.276688
vt -0.825724 -1.276688
vt -0.825724 0.451425
vt 0.716691 0.723312
vt 0.716690 2.451425
vt -0.825724 2.451425
vt -0.825724 0.723312
vt 0.003747 0.723312
vt 0.003747 2.451425
vt 1.377335 2.451425
vt 1.377335 0.723312
vt 0.711392 0.377335
vt -0.820425 0.377335
vt -0.814419 0.371329
vt 0.705386 0.371328
vt 0.377335 0.723312
vt 0.377335 2.451425
vt -0.996254 2.451425
vt -0.996253 0.723312
vt 0.363835 0.736812
vt -0.982753 0.736812
vt -0.982754 2.451425
vt 0.363835 2.451425
vt 0.703191 0.451425
vt -0.812224 0.451425
vt -0.812224 -1.263188
vt 0.703191 -1.263188
vt 0.703191 0.736812
vt -0.812224 0.736812
vt -0.812224 2.451425
vt 0.703190 2.451425
vt 0.017247 0.736812
vt 1.363835 0.736812
vt 1.363835 2.451425
vt 0.017247 2.451425
vt 0.174276 0.372037
vt 0.174276 -0.990955
vt 0.180283 -0.984948
vt 0.180283 0.366030
vt 0.179575 0.003747
vt 1.711392 0.003746
vt 1.705385 0.009753
vt 0.185581 0.009753
vt 0.703191 0.363835
vt -0.812224 0.363835
vt -0.812224 -0.982753
vt 0.703191 -0.982753
vt 0.716690 0.009045
vt 0.716691 1.372036
vt 0.710684 1.366030
vt 0.710684 0.015052
vt 0.720437 0.723312
vt 0.716691 0.719565
vt 0.174276 0.723312
vt 0.170529 0.723312
vt 0.174276 0.719565
vt 0.174276 0.723312
vt 0.174276 0.719565
vt 0.170530 0.723312
vt 0.716691 0.381082
vt 0.716691 0.372036
vt 0.720438 0.377335
vt 0.716690 1.000000
vt 0.720437 1.003746
vt 0.716690 1.009045
vt 0.711392 1.003746
vt 0.170529 0.003747
vt 0.174276 0.000000
vt 0.174276 0.009045
vt 0.170529 0.377335
vt 0.179575 0.377335
vt 0.174276 0.381082
vt 0.703191 0.367582
vt 0.706937 0.363835
vt 0.187776 0.367582
vt 0.184030 0.363835
vt 0.187776 0.363835
vt 0.184029 0.017247
vt 0.187776 0.013500
vt 0.187776 0.017247
vt 0.703191 0.013500
vt 0.706937 0.017247
vt 0.703191 0.017247
vt 0.703190 0.013500
vt 0.705385 0.009753
vt 0.706937 0.017246
vt 0.710684 0.366030
vt 0.703191 0.367582
vt 0.706937 0.363835
vt 0.184029 0.017247
vt 0.180283 0.015052
vt 0.187776 0.013500
vt 0.187776 0.367582
vt 0.185581 0.371329
vt 0.184029 0.363835
vt 0.720437 0.377335
vt 0.720437 -0.996253
vt 0.716691 -0.996253
vt 0.716691 0.377335
vt -0.825724 0.719565
vt -0.825724 0.723312
vt 0.716691 2.451425
vt 0.720438 2.451425
vt -0.825724 0.719565
vt 0.720437 2.451425
vt 1.377335 0.719565
vt 0.003747 0.719565
vt 0.000000 0.723312
vt 0.000000 2.451425
vt 0.170529 2.451425
vt 0.174276 2.451425
vt 0.716690 -0.990955
vt 0.720437 -0.996254
vt -0.825724 0.381082
vt 0.711392 0.003746
vt -0.820425 0.003747
vt -0.825724 0.000000
vt 0.716690 -0.000000
vt 0.174276 1.372037
vt 0.170529 1.377335
vt -0.812224 0.367582
vt 0.187776 1.363835
vt 0.184030 1.363835
vt -0.812224 0.017247
vt -0.812224 0.013500
vt 0.706937 -0.982753
vt 0.706937 2.451425
vt 0.706937 0.736812
vt 0.706937 -0.982754
vt 0.710684 -0.984948
vt 0.706937 2.451425
vt 0.703191 2.451425
vt 0.013500 2.451425
vt 0.013500 0.736812
vt -0.812224 0.013500
vt -0.814419 0.009753
vt 0.187776 0.736812
vt 0.187776 2.451425
vt 0.184029 2.451425
vt 0.184030 0.736812
vt 0.184029 1.363835
vt 0.180283 1.366030
vt -0.812224 0.367582
vt -0.825724 -0.996253
vt -0.825724 0.377335
s 1
usemtl M_Box4_0
f 13/1/1 3/2/1 10/3/1 28/4/1
f 5/5/2 17/6/2 22/7/2 7/8/2
f 8/9/3 21/10/3 25/11/3 12/12/3
f 14/13/4 27/14/4 54/15/4 46/16/4
f 1/17/5 16/18/5 18/19/5 4/20/5
f 31/21/3 39/22/3 44/23/3 48/24/3
f 47/25/2 53/26/2 32/27/2 29/28/2
f 38/29/1 36/30/1 52/31/1 41/32/1
f 35/33/5 33/34/5 56/35/5 49/36/5
f 26/37/4 24/38/4 50/39/4 55/40/4
f 23/41/4 20/42/4 42/43/4 51/44/4
f 30/45/4 34/46/4 37/47/4 40/48/4
f 19/49/4 15/50/4 45/51/4 43/52/4
f 1/53/6 2/54/6 3/5/6
f 4/53/7 5/5/7 6/54/7
f 7/55/8 8/56/8 9/57/8
f 10/58/9 11/59/9 12/60/9
f 13/61/10 14/13/10 15/62/10 16/63/10
f 17/64/11 18/65/11 19/66/11 20/67/11
f 21/68/12 22/69/12 23/41/12 24/70/12
f 25/71/13 26/37/13 27/72/13 28/73/13
f 29/74/14 30/45/14 31/75/14
f 32/76/15 33/77/15 34/78/15
f 35/79/16 36/80/16 37/81/16
f 38/82/17 39/83/17 40/84/17
f 41/85/18 42/86/18 43/52/18 44/87/18
f 45/88/19 46/16/19 47/89/19 48/90/19
f 49/91/20 50/92/20 51/44/20 52/93/20
f 53/94/21 54/95/21 55/40/21 56/96/21
f 1/97/22 4/98/22 6/99/22 2/100/22
f 2/54/23 11/101/23 10/102/23 3/5/23
f 3/5/24 13/103/24 16/104/24 1/53/24
f 5/5/25 7/8/25 9/105/25 6/54/25
f 4/53/26 18/106/26 17/6/26 5/5/26
f 8/9/27 12/12/27 11/107/27 9/108/27
f 7/109/28 22/110/28 21/10/28 8/9/28
f 12/60/29 25/111/29 28/112/29 10/58/29
f 15/62/30 19/113/30 18/114/30 16/63/30
f 13/61/31 28/115/31 27/14/31 14/13/31
f 20/116/32 23/117/32 22/118/32 17/119/32
f 24/70/33 26/120/33 25/121/33 21/68/33
f 29/74/32 32/122/32 34/46/32 30/45/32
f 37/81/34 34/123/34 33/124/34 35/79/34
f 40/84/31 37/125/31 36/126/31 38/82/31
f 30/45/33 40/48/33 39/127/33 31/75/33
f 38/29/29 41/32/29 44/128/29 39/129/29
f 48/90/33 44/130/33 43/131/33 45/88/33
f 31/129/28 48/132/28 47/133/28 29/29/28
f 35/33/24 49/36/24 52/134/24 36/135/24
f 41/85/31 52/136/31 51/137/31 42/86/31
f 32/138/26 53/139/26 56/140/26 33/141/26
f 49/91/30 56/142/30 55/143/30 50/92/30
f 46/16/32 54/15/32 53/144/32 47/89/32
f 19/49/4 43/52/4 42/86/4 20/116/4
f 50/92/4 24/70/4 23/41/4 51/44/4
f 14/13/4 46/16/4 45/88/4 15/62/4
f 54/95/4 27/72/4 26/37/4 55/40/4
f 2/100/35 6/99/35 9/145/35 11/146/35
