# Blender 4.1.1
# www.blender.org
mtllib MeshDiningTable_023_0_GeomSubset_0.mtl
o MeshDiningTable_023_0_GeomSubset_0
v 0.641130 -0.328896 -0.332602
v 0.641130 0.319966 -0.332602
v -0.641130 0.319966 -0.332602
v -0.641130 -0.328896 -0.332602
v 0.641130 -0.328896 -0.342935
v -0.641130 -0.328896 -0.342935
v -0.641130 0.319966 -0.342935
v 0.641130 0.319966 -0.342935
v 0.641130 0.319966 0.204355
v -0.641130 0.319966 0.204355
v -0.641130 -0.328896 0.204355
v 0.641130 -0.328896 0.204355
v -0.641130 -0.328896 0.270921
v -0.641130 0.319966 0.270921
v 0.641130 0.319966 0.270921
v 0.641130 -0.328896 0.270921
v 0.677907 -0.372865 0.275856
v 0.682361 -0.368053 0.275856
v 0.677908 -0.368050 0.270921
v 0.682361 0.359120 0.275856
v 0.677907 0.363936 0.275856
v 0.677908 0.359120 0.270921
v -0.682361 0.359120 0.275856
v -0.677908 0.359120 0.270921
v -0.677908 0.363936 0.275856
v -0.682361 -0.368053 0.275856
v -0.677908 -0.372865 0.275856
v -0.677908 -0.368050 0.270921
v 0.682361 0.359120 0.292294
v 0.677908 0.359120 0.297229
v 0.677907 0.363936 0.292294
v -0.677908 0.363936 0.292294
v -0.677908 0.359120 0.297229
v -0.682361 0.359120 0.292294
v 0.677907 -0.372865 0.292294
v 0.677908 -0.368053 0.297229
v 0.682361 -0.368053 0.292294
v -0.677908 -0.372865 0.292294
v -0.682361 -0.368053 0.292294
v -0.677908 -0.368053 0.297229
v 0.583748 -0.271126 -0.449208
v 0.588124 -0.271126 -0.454057
v 0.588124 -0.266392 -0.449208
v -0.583748 -0.271126 -0.449208
v -0.588124 -0.266392 -0.449208
v -0.588124 -0.271126 -0.454057
v 0.640125 0.257460 -0.449208
v 0.644502 0.262190 -0.449208
v 0.640125 0.262190 -0.454057
v -0.644502 -0.271126 -0.449208
v -0.640126 -0.271126 -0.454057
v -0.640126 -0.266392 -0.449208
v 0.588124 0.257460 -0.449208
v 0.588124 0.262190 -0.454057
v 0.583748 0.262190 -0.449208
v -0.588124 0.257460 -0.449208
v -0.583748 0.262190 -0.449208
v -0.588124 0.262190 -0.454057
v 0.583748 -0.327248 -0.449208
v 0.588124 -0.331978 -0.449208
v 0.588124 -0.327248 -0.454057
v -0.588124 0.323045 -0.449208
v -0.588124 0.318315 -0.454057
v -0.583748 0.318315 -0.449208
v 0.640125 -0.331978 -0.449208
v 0.644502 -0.327248 -0.449208
v 0.640125 -0.327248 -0.454057
v 0.644502 -0.271126 -0.449208
v 0.640125 -0.266392 -0.449208
v 0.640125 -0.271126 -0.454057
v -0.644502 -0.327248 -0.449208
v -0.640126 -0.331978 -0.449208
v -0.640126 -0.327248 -0.454057
v -0.583748 -0.327248 -0.449208
v -0.588124 -0.327248 -0.454057
v -0.588124 -0.331978 -0.449208
v -0.640126 0.323045 -0.449208
v -0.644502 0.318315 -0.449208
v -0.640126 0.318315 -0.454057
v -0.640126 0.257460 -0.449208
v -0.640126 0.262190 -0.454057
v -0.644502 0.262190 -0.449208
v 0.644502 0.318315 -0.449208
v 0.640125 0.323045 -0.449208
v 0.640126 0.318315 -0.454057
v 0.583748 0.318315 -0.449208
v 0.588124 0.318315 -0.454057
v 0.588124 0.323045 -0.449208
v 0.583748 0.318318 0.266918
v 0.588124 0.323048 0.266917
v 0.588124 0.318309 0.271767
v 0.644502 0.318318 0.266918
v 0.640126 0.318309 0.271767
v 0.640125 0.323048 0.266917
v -0.640126 0.257463 0.266918
v -0.644502 0.262193 0.266918
v -0.640126 0.262190 0.271767
v -0.640126 0.323048 0.266918
v -0.640126 0.318309 0.271767
v -0.644502 0.318318 0.266918
v -0.583748 -0.327248 0.266917
v -0.588124 -0.331978 0.266917
v -0.588124 -0.327251 0.271767
v -0.644502 -0.327248 0.266917
v -0.640126 -0.327251 0.271767
v -0.640126 -0.331978 0.266917
v 0.640125 -0.266393 0.266917
v 0.644502 -0.271123 0.266917
v 0.640125 -0.271126 0.271767
v 0.640125 -0.331978 0.266917
v 0.640125 -0.327251 0.271767
v 0.644502 -0.327248 0.266917
v -0.583748 0.318318 0.266918
v -0.588124 0.318309 0.271767
v -0.588124 0.323048 0.266918
v 0.583748 -0.327248 0.266917
v 0.588124 -0.327251 0.271767
v 0.588124 -0.331978 0.266917
v -0.588124 0.257463 0.266918
v -0.588124 0.262190 0.271767
v -0.583748 0.262193 0.266918
v 0.588124 0.257463 0.266917
v 0.583748 0.262193 0.266917
v 0.588124 0.262190 0.271767
v -0.640126 -0.266393 0.266917
v -0.640126 -0.271126 0.271767
v -0.644502 -0.271123 0.266917
v 0.640125 0.257463 0.266917
v 0.640125 0.262190 0.271767
v 0.644502 0.262193 0.266918
v -0.588124 -0.266393 0.266917
v -0.583748 -0.271123 0.266917
v -0.588124 -0.271126 0.271767
v 0.588124 -0.266393 0.266917
v 0.588124 -0.271126 0.271767
v 0.583748 -0.271123 0.266917
v 0.597118 -0.270241 -0.026811
v 0.595664 -0.271809 -0.026811
v 0.595664 -0.270241 -0.025200
v 0.595664 0.262877 -0.026811
v 0.597117 0.261305 -0.026811
v 0.595664 0.261305 -0.025200
v -0.595664 0.262877 -0.026811
v -0.595664 0.261305 -0.025200
v -0.597118 0.261305 -0.026811
v -0.597118 -0.270241 -0.026811
v -0.595664 -0.270241 -0.025200
v -0.595664 -0.271809 -0.026811
v 0.595664 -0.270241 -0.090021
v 0.595664 -0.271809 -0.088410
v 0.597118 -0.270241 -0.088410
v -0.597118 -0.270241 -0.088410
v -0.595664 -0.271809 -0.088410
v -0.595664 -0.270241 -0.090021
v -0.595664 0.261305 -0.090021
v -0.595664 0.262877 -0.088410
v -0.597118 0.261305 -0.088410
v 0.597117 0.261305 -0.088410
v 0.595664 0.262877 -0.088410
v 0.595664 0.261305 -0.090021
vn -0.0000 1.0000 -0.0000
vn -0.0000 -1.0000 -0.0000
vn 1.0000 -0.0000 -0.0000
vn -0.0000 -0.0000 1.0000
vn -0.0000 -0.0000 -1.0000
vn -0.6118 0.5663 0.5524
vn -0.6123 -0.5662 0.5519
vn -0.6124 -0.5661 0.5518
vn -0.6123 -0.5661 0.5519
vn 0.6121 -0.5660 0.5523
vn 0.6118 0.5662 0.5524
vn -0.6123 -0.5662 -0.5519
vn -0.6124 -0.5661 -0.5518
vn -0.6124 -0.5662 -0.5517
vn 0.6121 -0.5660 -0.5523
vn -0.6119 0.5664 -0.5521
vn -0.6120 0.5665 -0.5518
vn 0.6119 0.5663 -0.5522
vn 0.7342 -0.6789 -0.0000
vn -0.7339 0.6793 -0.0000
vn -0.7424 -0.0000 0.6699
vn -0.0000 -0.7157 0.6984
vn 0.7424 -0.0000 0.6699
vn -0.0000 0.7158 0.6983
vn 0.7340 0.6792 -0.0000
vn -0.7342 -0.6790 -0.0000
vn 0.7424 -0.0000 -0.6699
vn -0.0000 -0.7157 -0.6984
vn -0.7424 -0.0000 -0.6699
vn -0.0000 0.7160 -0.6981
vn -1.0000 -0.0000 -0.0000
vn -0.6107 0.5674 -0.5524
vn -0.6108 0.5674 -0.5523
vn -0.6123 -0.5659 -0.5522
vn 0.6120 -0.5661 -0.5523
vn 0.6110 0.5677 -0.5518
vn -0.7425 -0.0000 -0.6699
vn -0.0000 -0.7160 -0.6981
vn 0.7424 -0.0000 -0.6700
vn -0.0000 0.7178 -0.6962
vt -0.387501 1.374672
vt -0.387501 1.354625
vt 1.444681 1.354625
vt 1.444681 1.374672
vt 1.288945 1.374672
vt 1.288945 1.354625
vt 0.379980 1.354625
vt 0.379980 1.374672
vt 1.288945 1.444681
vt 1.288945 -0.387501
vt 0.379980 -0.387501
vt 0.379980 1.444681
vt 1.294963 1.354625
vt 1.288945 1.348607
vt 0.373962 1.354625
vt 0.379980 1.348607
vt 1.450699 1.354625
vt 1.444681 1.348607
vt 0.379980 1.380690
vt 0.373962 1.374672
vt 1.444681 1.380690
vt 1.450699 1.374672
vt 1.294963 1.374672
vt 1.288945 1.380690
vt -0.387501 1.348607
vt 0.379980 1.450699
vt 1.288945 1.450699
vt -0.387501 1.380690
vt 1.166678 1.333541
vt 0.502247 1.333541
vt 0.502247 -0.276361
vt 1.166678 -0.276361
vt 1.166678 -0.278326
vt 1.168643 -0.276361
vt 0.500283 -0.276361
vt 0.502247 -0.278326
vt 0.500283 1.333541
vt 0.502247 1.335505
vt 1.166678 1.335505
vt 1.168643 1.333541
s 1
usemtl M_DiningTable_023_0
f 35/1/1 17/2/1 27/3/1 38/4/1
f 32/4/2 25/3/2 21/2/2 31/1/2
f 39/5/3 26/6/3 23/7/3 34/8/3
f 28/9/4 19/10/4 22/11/4 24/12/4
f 40/9/5 33/12/5 30/11/5 36/10/5
f 17/13/6 18/6/6 19/14/6
f 20/7/7 21/15/8 22/16/9
f 23/17/10 24/18/10 25/3/10
f 26/17/11 27/3/11 28/18/11
f 29/8/12 30/19/13 31/20/14
f 32/4/15 33/21/15 34/22/15
f 35/23/16 36/24/17 37/5/17
f 38/4/18 39/22/18 40/21/18
f 25/3/19 32/4/19 34/22/19 23/17/19
f 17/13/20 35/23/20 37/5/20 18/6/20
f 22/16/21 19/14/21 18/6/21 20/7/21
f 24/18/22 22/25/22 21/2/22 25/3/22
f 28/9/23 24/12/23 23/26/23 26/27/23
f 19/25/24 28/18/24 27/3/24 17/2/24
f 38/4/25 27/3/25 26/17/25 39/22/25
f 31/20/26 21/15/26 20/7/26 29/8/26
f 39/27/27 34/26/27 33/12/27 40/9/27
f 32/4/28 31/1/28 30/28/28 33/21/28
f 29/8/29 37/5/29 36/24/29 30/19/29
f 35/1/30 38/4/30 40/21/30 36/28/30
f 29/8/31 20/7/31 18/6/31 37/5/31
f 147/29/5 144/30/5 142/31/5 139/32/5
f 137/33/32 138/34/33 139/32/32
f 140/35/34 141/36/34 142/31/34
f 143/37/35 144/30/35 145/38/35
f 146/39/36 147/29/36 148/40/36
f 141/36/37 137/33/37 139/32/37 142/31/37
f 143/37/38 140/35/38 142/31/38 144/30/38
f 146/39/39 145/38/39 144/30/39 147/29/39
f 138/34/40 148/40/40 147/29/40 139/32/40
