# Blender 4.1.1
# www.blender.org
mtllib AlarmClockButton_7_AlarmClockButton_7_1_GeomSubset_0.mtl
o AlarmClockButton_7_AlarmClockButton_7_1_GeomSubset_0
v 0.000500 -0.000500 -0.364833
v -0.000500 -0.000500 -0.364833
v 0.000500 0.000500 -0.364833
v -0.000500 0.000500 -0.364833
v 0.000500 -0.000500 -0.364833
v -0.000500 -0.000500 -0.364833
v 0.000500 0.000500 -0.364833
v -0.000500 0.000500 -0.364833
v 0.000500 -0.000500 -0.364833
v -0.000500 -0.000500 -0.364833
v 0.000500 0.000500 -0.364833
v -0.000500 0.000500 -0.364833
v 0.000500 -0.000500 -0.364833
v -0.000500 -0.000500 -0.364833
v 0.000500 0.000500 -0.364833
v -0.000500 0.000500 -0.364833
v 0.000500 -0.000500 -0.364833
v -0.000500 -0.000500 -0.364833
v 0.000500 0.000500 -0.364833
v -0.000500 0.000500 -0.364833
v -0.013382 -0.004845 0.075556
v -0.013382 -0.006394 0.075556
v -0.013382 -0.005299 0.076651
v -0.013382 -0.006394 0.077105
v -0.013382 -0.007489 0.076651
v -0.013382 -0.007942 0.075556
v -0.013382 -0.007489 0.074461
v -0.013382 -0.006394 0.074008
v -0.013382 -0.005299 0.074461
v -0.011593 -0.004237 0.073400
v -0.012701 -0.004583 0.073746
v -0.011593 -0.003344 0.075556
v -0.012701 -0.003833 0.075556
v -0.011593 -0.004237 0.077712
v -0.012701 -0.004583 0.077367
v -0.011593 -0.006394 0.078605
v -0.012701 -0.006394 0.078117
v -0.011593 -0.008550 0.077712
v -0.012701 -0.008205 0.077367
v -0.011593 -0.009443 0.075556
v -0.012701 -0.008954 0.075556
v -0.011593 -0.008550 0.073400
v -0.012701 -0.008205 0.073746
v -0.011593 -0.006394 0.072507
v -0.012701 -0.006394 0.072996
v -0.000016 -0.008550 0.077712
v -0.000016 -0.006394 0.078605
v -0.000016 -0.004237 0.077712
v -0.000016 -0.003344 0.075556
v -0.000016 -0.004237 0.073400
v -0.000016 -0.006394 0.072507
v -0.000016 -0.008550 0.073400
v -0.000016 -0.009443 0.075556
v 0.013382 -0.004845 0.075556
v 0.013382 -0.006394 0.075556
v 0.013382 -0.005299 0.076651
v 0.013382 -0.006394 0.077105
v 0.013382 -0.007489 0.076651
v 0.013382 -0.007942 0.075556
v 0.013382 -0.007489 0.074461
v 0.013382 -0.006394 0.074008
v 0.013382 -0.005299 0.074461
v 0.011589 -0.004237 0.073400
v 0.012700 -0.004583 0.073746
v 0.011589 -0.003344 0.075556
v 0.012700 -0.003833 0.075556
v 0.011589 -0.004237 0.077712
v 0.012700 -0.004583 0.077367
v 0.011589 -0.006394 0.078605
v 0.012700 -0.006394 0.078117
v 0.011589 -0.008550 0.077712
v 0.012700 -0.008205 0.077367
v 0.011589 -0.009443 0.075556
v 0.012700 -0.008954 0.075556
v 0.011589 -0.008550 0.073400
v 0.012700 -0.008205 0.073746
v 0.011589 -0.006394 0.072507
v 0.012700 -0.006394 0.072996
v -0.000016 -0.003950 0.075561
v -0.001745 -0.004666 0.075561
v -0.002460 -0.006394 0.075561
v -0.001745 -0.008122 0.075561
v -0.000016 -0.008837 0.075561
v -0.000016 -0.003950 0.038527
v -0.001745 -0.004666 0.038527
v -0.002460 -0.006394 0.038527
v -0.001745 -0.008122 0.038527
v -0.000016 -0.008837 0.038527
v 0.001716 -0.004666 0.075561
v 0.002433 -0.006394 0.075561
v 0.001716 -0.008122 0.075561
v 0.001716 -0.004666 0.038527
v 0.002433 -0.006394 0.038527
v 0.001716 -0.008122 0.038527
vn -0.0000 -0.0000 -1.0000
vt -20.436859 -5.071917
vt -20.436859 -6.067932
vt -19.440842 -6.067932
vt -19.440842 -5.071917
s 1
usemtl M_AlarmClockButton_7_0
f 1/1/1 2/2/1 4/3/1 3/4/1
