# Blender 4.1.0
# www.blender.org
mtllib AlarmClockButton_7_AlarmClockButton_7_1_GeomSubset_2.mtl
o AlarmClockButton_7_AlarmClockButton_7_1_GeomSubset_2
v -0.000500 -0.000500 -0.364833
v 0.000500 -0.000500 -0.364833
v -0.000500 0.000500 -0.364833
v 0.000500 0.000500 -0.364833
v -0.000500 -0.000500 -0.364833
v 0.000500 -0.000500 -0.364833
v -0.000500 0.000500 -0.364833
v 0.000500 0.000500 -0.364833
v -0.000500 -0.000500 -0.364833
v 0.000500 -0.000500 -0.364833
v -0.000500 0.000500 -0.364833
v 0.000500 0.000500 -0.364833
v -0.000500 -0.000500 -0.364833
v 0.000500 -0.000500 -0.364833
v -0.000500 0.000500 -0.364833
v 0.000500 0.000500 -0.364833
v -0.000500 -0.000500 -0.364833
v 0.000500 -0.000500 -0.364833
v -0.000500 0.000500 -0.364833
v 0.000500 0.000500 -0.364833
v 0.013382 -0.004845 0.075556
v 0.013382 -0.006394 0.075556
v 0.013382 -0.005299 0.076651
v 0.013382 -0.006394 0.077105
v 0.013382 -0.007489 0.076651
v 0.013382 -0.007942 0.075556
v 0.013382 -0.007489 0.074461
v 0.013382 -0.006394 0.074008
v 0.013382 -0.005299 0.074461
v 0.011593 -0.004237 0.073400
v 0.012701 -0.004583 0.073746
v 0.011593 -0.003344 0.075556
v 0.012701 -0.003833 0.075556
v 0.011593 -0.004237 0.077712
v 0.012701 -0.004583 0.077367
v 0.011593 -0.006394 0.078605
v 0.012701 -0.006394 0.078117
v 0.011593 -0.008550 0.077712
v 0.012701 -0.008205 0.077367
v 0.011593 -0.009443 0.075556
v 0.012701 -0.008954 0.075556
v 0.011593 -0.008550 0.073400
v 0.012701 -0.008205 0.073746
v 0.011593 -0.006394 0.072507
v 0.012701 -0.006394 0.072996
v 0.000016 -0.008550 0.077712
v 0.000016 -0.006394 0.078605
v 0.000016 -0.004237 0.077712
v 0.000016 -0.003344 0.075556
v 0.000016 -0.004237 0.073400
v 0.000016 -0.006394 0.072507
v 0.000016 -0.008550 0.073400
v 0.000016 -0.009443 0.075556
v -0.013382 -0.004845 0.075556
v -0.013382 -0.006394 0.075556
v -0.013382 -0.005299 0.076651
v -0.013382 -0.006394 0.077105
v -0.013382 -0.007489 0.076651
v -0.013382 -0.007942 0.075556
v -0.013382 -0.007489 0.074461
v -0.013382 -0.006394 0.074008
v -0.013382 -0.005299 0.074461
v -0.011589 -0.004237 0.073400
v -0.012700 -0.004583 0.073746
v -0.011589 -0.003344 0.075556
v -0.012700 -0.003833 0.075556
v -0.011589 -0.004237 0.077712
v -0.012700 -0.004583 0.077367
v -0.011589 -0.006394 0.078605
v -0.012700 -0.006394 0.078117
v -0.011589 -0.008550 0.077712
v -0.012700 -0.008205 0.077367
v -0.011589 -0.009443 0.075556
v -0.012700 -0.008954 0.075556
v -0.011589 -0.008550 0.073400
v -0.012700 -0.008205 0.073746
v -0.011589 -0.006394 0.072507
v -0.012700 -0.006394 0.072996
v 0.000016 -0.003950 0.075561
v 0.001745 -0.004666 0.075561
v 0.002460 -0.006394 0.075561
v 0.001745 -0.008122 0.075561
v 0.000016 -0.008837 0.075561
v 0.000016 -0.003950 0.038527
v 0.001745 -0.004666 0.038527
v 0.002460 -0.006394 0.038527
v 0.001745 -0.008122 0.038527
v 0.000016 -0.008837 0.038527
v -0.001716 -0.004666 0.075561
v -0.002433 -0.006394 0.075561
v -0.001716 -0.008122 0.075561
v -0.001716 -0.004666 0.038527
v -0.002433 -0.006394 0.038527
v -0.001716 -0.008122 0.038527
vn -0.0000 -0.0000 1.0000
vn 1.0000 -0.0000 -0.0000
vn 0.9312 0.3644 -0.0000
vn 0.9312 0.2577 0.2577
vn 0.9312 -0.0000 0.3644
vn 0.9312 -0.2577 0.2577
vn 0.9312 -0.3645 -0.0000
vn 0.9312 -0.2577 -0.2578
vn 0.9312 -0.0000 -0.3644
vn 0.9313 0.2577 -0.2576
vn 0.0326 0.7068 -0.7067
vn 0.5724 0.5799 -0.5798
vn 0.5724 -0.0000 -0.8200
vn 0.0326 -0.0000 -0.9995
vn 0.0325 0.9995 0.0001
vn 0.5723 0.8200 -0.0000
vn 0.0326 0.7067 0.7067
vn 0.5724 0.5798 0.5798
vn 0.0326 -0.0001 0.9995
vn 0.5724 -0.0000 0.8200
vn 0.0325 -0.7067 0.7068
vn 0.5724 -0.5798 0.5799
vn 0.0326 -0.9995 -0.0001
vn 0.5724 -0.8199 -0.0000
vn 0.0325 -0.7067 -0.7067
vn 0.5724 -0.5798 -0.5798
vn -0.0000 -0.0001 1.0000
vn -0.0000 -0.7071 0.7071
vn -0.0000 0.7070 0.7072
vn -0.0000 1.0000 -0.0000
vn -0.0000 0.7070 -0.7072
vn -0.0000 -0.0001 -1.0000
vn -0.0000 -0.7071 -0.7071
vn -0.0000 -1.0000 -0.0000
vn -1.0000 -0.0000 -0.0000
vn -0.9309 -0.0000 0.3653
vn -0.9309 0.2583 0.2582
vn -0.9309 0.3652 -0.0000
vn -0.9309 -0.3652 -0.0000
vn -0.9309 -0.2582 0.2583
vn -0.9309 -0.0000 -0.3652
vn -0.9309 -0.2583 -0.2583
vn -0.9310 0.2582 -0.2581
vn -0.0325 0.7067 -0.7068
vn -0.0325 -0.0000 -0.9995
vn -0.5715 -0.0000 -0.8206
vn -0.5715 0.5802 -0.5803
vn -0.5715 0.8206 -0.0000
vn -0.0325 0.9995 -0.0000
vn -0.5714 0.5802 0.5804
vn -0.0325 0.7067 0.7068
vn -0.5714 -0.0000 0.8207
vn -0.0325 -0.0000 0.9995
vn -0.5714 -0.5804 0.5802
vn -0.0325 -0.7067 0.7068
vn -0.5715 -0.8206 -0.0000
vn -0.0325 -0.9995 -0.0000
vn -0.5715 -0.5804 -0.5802
vn -0.0325 -0.7067 -0.7068
vn 0.0003 1.0000 -0.0000
vn 0.7072 0.7070 -0.0000
vn 0.7070 -0.7072 -0.0000
vn 0.0003 -1.0000 -0.0000
vn -0.7066 0.7076 -0.0000
vn -0.7065 -0.7077 -0.0000
vt -6.922793 -5.912222
vt -6.922793 -5.937021
vt -6.897994 -5.937021
vt -6.897994 -5.912222
vt -6.864308 0.065387
vt -6.862687 0.065387
vt -6.863162 0.066534
vt -6.864308 0.067009
vt -6.865456 0.066534
vt -6.865931 0.065387
vt -6.865456 0.064240
vt -6.864308 0.063765
vt -6.863162 0.064240
vt -7.106512 0.305207
vt -7.106159 0.304078
vt -7.104313 0.304078
vt -7.104313 0.305207
vt -7.332456 0.304077
vt -7.332103 0.305207
vt -7.334301 0.305207
vt -7.334301 0.304077
vt -7.336499 0.305207
vt -7.336147 0.304077
vt -6.987479 0.304078
vt -6.987126 0.305207
vt -6.989325 0.305207
vt -6.989325 0.304078
vt -6.991523 0.305207
vt -6.991170 0.304078
vt -7.217467 0.304077
vt -7.217115 0.305207
vt -7.219313 0.305207
vt -7.219313 0.304077
vt -7.221510 0.305207
vt -7.221158 0.304077
vt -7.102468 0.304078
vt -7.102116 0.305207
vt -6.861628 0.065387
vt -6.862412 0.067283
vt -6.864308 0.068069
vt -6.866205 0.067283
vt -6.866990 0.065387
vt -6.866205 0.063491
vt -6.864308 0.062705
vt -6.862412 0.063491
vt -6.989325 0.317007
vt -6.991523 0.317007
vt -6.987126 0.317007
vt -7.334301 0.317006
vt -7.336499 0.317006
vt -7.332103 0.317006
vt -7.104313 0.317007
vt -7.106512 0.317007
vt -7.102116 0.317007
vt -7.219313 0.317006
vt -7.221510 0.317006
vt -7.217115 0.317006
vt -6.829729 0.196476
vt -6.829729 0.198098
vt -6.830875 0.197623
vt -6.831350 0.196476
vt -6.828106 0.196476
vt -6.828581 0.197623
vt -6.829729 0.194854
vt -6.828581 0.195330
vt -6.830875 0.195330
vt -7.106512 0.328836
vt -7.104313 0.328836
vt -7.104313 0.329967
vt -7.106159 0.329967
vt -7.332456 0.329968
vt -7.334301 0.329968
vt -7.334301 0.328835
vt -7.332103 0.328835
vt -7.336147 0.329968
vt -7.336499 0.328835
vt -6.987479 0.329967
vt -6.989325 0.329967
vt -6.989325 0.328836
vt -6.987126 0.328836
vt -6.991170 0.329967
vt -6.991523 0.328836
vt -7.217467 0.329968
vt -7.219313 0.329968
vt -7.219313 0.328836
vt -7.217115 0.328836
vt -7.221158 0.329968
vt -7.221510 0.328836
vt -7.102468 0.329967
vt -7.102116 0.328836
vt -6.832410 0.196476
vt -6.831625 0.198373
vt -6.829729 0.199159
vt -6.827831 0.198373
vt -6.827045 0.196476
vt -6.827831 0.194580
vt -6.829729 0.193794
vt -6.831625 0.194580
vt -7.719264 0.442549
vt -7.717509 0.442549
vt -7.717509 0.480172
vt -7.719264 0.480172
vt -7.623828 0.480174
vt -7.625584 0.480174
vt -7.625584 0.442546
vt -7.623828 0.442546
vt -7.627339 0.480174
vt -7.627339 0.442546
vt -7.530214 0.442549
vt -7.530214 0.480172
vt -7.531969 0.480172
vt -7.531969 0.442549
vt -7.721024 0.480172
vt -7.721024 0.442549
vt -7.440233 0.480178
vt -7.440233 0.442543
vt -7.438477 0.442543
vt -7.438477 0.480178
vt -7.436721 0.442543
vt -7.436721 0.480178
vt -7.533729 0.442549
vt -7.533729 0.480172
s 1
usemtl M_AlarmClockButton_7_2
f 9/1/1 10/2/1 12/3/1 11/4/1
f 22/5/2 21/6/3 23/7/4 24/8/5
f 22/5/2 24/8/5 25/9/6 26/10/7
f 22/5/2 26/10/7 27/11/8 28/12/9
f 22/5/2 28/12/9 29/13/10 21/6/3
f 30/14/11 31/15/12 45/16/13 44/17/14
f 31/18/12 30/19/11 32/20/15 33/21/16
f 33/21/16 32/20/15 34/22/17 35/23/18
f 35/24/18 34/25/17 36/26/19 37/27/20
f 37/27/20 36/26/19 38/28/21 39/29/22
f 39/30/22 38/31/21 40/32/23 41/33/24
f 41/33/24 40/32/23 42/34/25 43/35/26
f 43/36/26 42/37/25 44/17/14 45/16/13
f 33/38/16 35/39/18 23/7/4 21/6/3
f 35/39/18 37/40/20 24/8/5 23/7/4
f 37/40/20 39/41/22 25/9/6 24/8/5
f 39/41/22 41/42/24 26/10/7 25/9/6
f 41/42/24 43/43/26 27/11/8 26/10/7
f 43/43/26 45/44/13 28/12/9 27/11/8
f 45/44/13 31/45/12 29/13/10 28/12/9
f 31/45/12 33/38/16 21/6/3 29/13/10
f 47/46/27 46/47/28 38/28/21 36/26/19
f 48/48/29 47/46/27 36/26/19 34/25/17
f 49/49/30 48/50/29 34/22/17 32/20/15
f 50/51/31 49/49/30 32/20/15 30/19/11
f 51/52/32 50/53/31 30/14/11 44/17/14
f 52/54/33 51/52/32 44/17/14 42/37/25
f 53/55/34 52/56/33 42/34/25 40/32/23
f 46/57/28 53/55/34 40/32/23 38/31/21
f 55/58/35 57/59/36 56/60/37 54/61/38
f 55/58/35 59/62/39 58/63/40 57/59/36
f 55/58/35 61/64/41 60/65/42 59/62/39
f 55/58/35 54/61/38 62/66/43 61/64/41
f 63/67/44 77/68/45 78/69/46 64/70/47
f 64/71/47 66/72/48 65/73/49 63/74/44
f 66/72/48 68/75/50 67/76/51 65/73/49
f 68/77/50 70/78/52 69/79/53 67/80/51
f 70/78/52 72/81/54 71/82/55 69/79/53
f 72/83/54 74/84/56 73/85/57 71/86/55
f 74/84/56 76/87/58 75/88/59 73/85/57
f 76/89/58 78/69/46 77/68/45 75/90/59
f 66/91/48 54/61/38 56/60/37 68/92/50
f 68/92/50 56/60/37 57/59/36 70/93/52
f 70/93/52 57/59/36 58/63/40 72/94/54
f 72/94/54 58/63/40 59/62/39 74/95/56
f 74/95/56 59/62/39 60/65/42 76/96/58
f 76/96/58 60/65/42 61/64/41 78/97/46
f 78/97/46 61/64/41 62/66/43 64/98/47
f 64/98/47 62/66/43 54/61/38 66/91/48
f 47/46/27 69/79/53 71/82/55 46/47/28
f 48/48/29 67/80/51 69/79/53 47/46/27
f 49/49/30 65/73/49 67/76/51 48/50/29
f 50/51/31 63/74/44 65/73/49 49/49/30
f 51/52/32 77/68/45 63/67/44 50/53/31
f 52/54/33 75/90/59 77/68/45 51/52/32
f 53/55/34 73/85/57 75/88/59 52/56/33
f 46/57/28 71/86/55 73/85/57 53/55/34
f 79/99/60 80/100/61 85/101/61 84/102/60
f 80/103/61 81/104/2 86/105/2 85/106/61
f 81/104/2 82/107/62 87/108/62 86/105/2
f 87/109/62 82/110/62 83/111/63 88/112/63
f 79/99/60 84/102/60 92/113/64 89/114/64
f 89/115/64 92/116/64 93/117/35 90/118/35
f 90/118/35 93/117/35 94/119/65 91/120/65
f 94/121/65 88/112/63 83/111/63 91/122/65
