# Blender 4.1.1
# www.blender.org
mtllib MeshTelevisionStand_30_1_GeomSubset_0.mtl
o MeshTelevisionStand_30_1_GeomSubset_0
v 0.000720 -0.048810 0.036887
v -0.000720 -0.048810 0.036887
v 0.000720 -0.047370 0.036887
v -0.000720 -0.047370 0.036887
v 0.000720 -0.048810 0.036887
v -0.000720 -0.048810 0.036887
v 0.000720 -0.047370 0.036887
v -0.000720 -0.047370 0.036887
v 0.000720 -0.048810 0.036887
v -0.000720 -0.048810 0.036887
v 0.000720 -0.047370 0.036887
v -0.000720 -0.047370 0.036887
v 0.000720 -0.048810 0.036887
v -0.000720 -0.048810 0.036887
v 0.000720 -0.047370 0.036887
v -0.000720 -0.047370 0.036887
v 0.000720 -0.048810 0.036887
v -0.000720 -0.048810 0.036887
v 0.000720 -0.047370 0.036887
v -0.000720 -0.047370 0.036887
v -0.000073 0.072661 -0.037594
v -0.013625 0.069029 -0.037594
v -0.023546 0.059108 -0.037594
v -0.027177 0.045556 -0.037594
v -0.023546 0.032004 -0.037594
v -0.013625 0.022083 -0.037594
v -0.000073 0.018451 -0.037594
v -0.013667 0.021960 -0.395276
v -0.023619 0.031911 -0.395276
v -0.027262 0.045505 -0.395276
v -0.023619 0.059100 -0.395276
v -0.013667 0.069052 -0.395276
v -0.000073 0.072695 -0.395276
v -0.000073 0.018318 -0.395276
v -0.000073 0.081700 -0.406257
v -0.018169 0.076849 -0.406257
v -0.031416 0.063602 -0.406257
v -0.036266 0.045505 -0.406257
v -0.031416 0.027410 -0.406257
v -0.018169 0.014162 -0.406257
v -0.000073 0.009312 -0.406257
v -0.000073 0.079660 -0.395276
v -0.000073 0.081700 -0.396523
v -0.017150 0.075084 -0.395276
v -0.018169 0.076849 -0.396523
v -0.029651 0.062582 -0.395276
v -0.031416 0.063602 -0.396523
v -0.034227 0.045505 -0.395276
v -0.036266 0.045505 -0.396523
v -0.029651 0.028429 -0.395276
v -0.031416 0.027410 -0.396523
v -0.017150 0.015927 -0.395276
v -0.018169 0.014162 -0.396523
v -0.000073 0.011351 -0.395276
v -0.000073 0.009312 -0.396523
v -0.193210 0.063602 -0.406257
v -0.205388 0.045505 -0.406257
v -0.205388 0.045507 -0.396523
v -0.193210 0.063602 -0.396523
v -0.193210 0.027410 -0.406257
v -0.193210 0.027410 -0.396523
v -0.000073 -0.012390 0.008785
v -0.000073 0.003889 -0.002093
v -0.000073 0.014767 -0.018372
v -0.013583 -0.011005 0.012129
v -0.013583 0.006449 0.000467
v -0.013583 0.018112 -0.016987
v -0.023473 -0.007220 0.021266
v -0.023473 0.013442 0.007460
v -0.023473 0.027248 -0.013202
v -0.027092 -0.002050 0.033748
v -0.027092 0.022995 0.017013
v -0.027092 0.039728 -0.008032
v -0.023473 0.003121 0.046229
v -0.023473 0.032548 0.026566
v -0.023473 0.052210 -0.002862
v -0.013583 0.006905 0.055366
v -0.013583 0.039542 0.033559
v -0.013583 0.061348 0.000923
v -0.000073 0.008290 0.058711
v -0.000073 0.042101 0.036119
v -0.000073 0.064692 0.002308
v -0.000073 -0.031593 -0.019157
v -0.000073 -0.031593 0.098405
v -0.000073 -0.049011 -0.019157
v -0.000073 -0.049011 -0.011396
v -0.000073 -0.049011 0.010033
v -0.000073 -0.049011 0.039624
v -0.000073 -0.049011 0.069215
v -0.000073 -0.049011 0.090644
v -0.000073 -0.049011 0.098405
v -0.217817 -0.031593 -0.019157
v -0.217817 -0.031593 0.098405
v -0.217817 -0.049011 -0.019157
v -0.247315 -0.049011 -0.011396
v -0.269143 -0.049011 0.010033
v -0.277220 -0.049011 0.039624
v -0.269143 -0.049011 0.069215
v -0.247315 -0.049011 0.090644
v -0.217817 -0.049011 0.098405
v -0.247315 -0.031593 -0.011396
v -0.269143 -0.031593 0.010033
v -0.277220 -0.031593 0.039624
v -0.269143 -0.031593 0.069215
v -0.247315 -0.031593 0.090644
v 0.013479 0.069029 -0.037594
v 0.023400 0.059108 -0.037594
v 0.027031 0.045556 -0.037594
v 0.023400 0.032004 -0.037594
v 0.013479 0.022083 -0.037594
v 0.013521 0.021960 -0.395276
v 0.023473 0.031911 -0.395276
v 0.027116 0.045505 -0.395276
v 0.023473 0.059100 -0.395276
v 0.013521 0.069052 -0.395276
v 0.018024 0.076849 -0.406257
v 0.031271 0.063602 -0.406257
v 0.036120 0.045505 -0.406257
v 0.031271 0.027410 -0.406257
v 0.018024 0.014162 -0.406257
v 0.017004 0.075084 -0.395276
v 0.018024 0.076849 -0.396523
v 0.029506 0.062582 -0.395276
v 0.031271 0.063602 -0.396523
v 0.034081 0.045505 -0.395276
v 0.036120 0.045505 -0.396523
v 0.029506 0.028429 -0.395276
v 0.031271 0.027410 -0.396523
v 0.017004 0.015927 -0.395276
v 0.018024 0.014162 -0.396523
v 0.193065 0.063602 -0.406257
v 0.205243 0.045505 -0.406257
v 0.205243 0.045507 -0.396523
v 0.193065 0.063602 -0.396523
v 0.193065 0.027410 -0.406257
v 0.193065 0.027410 -0.396523
v 0.013438 -0.011005 0.012129
v 0.013438 0.006449 0.000467
v 0.013438 0.018112 -0.016987
v 0.023327 -0.007220 0.021266
v 0.023327 0.013442 0.007460
v 0.023327 0.027248 -0.013202
v 0.026947 -0.002050 0.033748
v 0.026947 0.022995 0.017013
v 0.026947 0.039728 -0.008032
v 0.023327 0.003121 0.046229
v 0.023327 0.032548 0.026566
v 0.023327 0.052210 -0.002862
v 0.013438 0.006905 0.055366
v 0.013438 0.039542 0.033559
v 0.013438 0.061348 0.000923
v 0.216906 -0.031593 -0.019157
v 0.216906 -0.031593 0.098405
v 0.216906 -0.049011 -0.019157
v 0.246404 -0.049011 -0.011396
v 0.268232 -0.049011 0.010033
v 0.276309 -0.049011 0.039624
v 0.268232 -0.049011 0.069215
v 0.246404 -0.049011 0.090644
v 0.216906 -0.049011 0.098405
v 0.246404 -0.031593 -0.011396
v 0.268232 -0.031593 0.010033
v 0.276309 -0.031593 0.039624
v 0.268232 -0.031593 0.069215
v 0.246404 -0.031593 0.090644
v -0.000053 -0.021480 -0.424579
v -0.000053 -0.021480 -0.418174
v -0.000053 0.111569 -0.418174
v -0.000053 0.111569 -0.424579
v 0.468995 0.040665 -0.424579
v 0.414548 -0.092542 -0.424579
v 0.414548 -0.092542 -0.418174
v 0.468995 0.040665 -0.418174
v 0.253829 -0.021480 -0.424579
v 0.265338 -0.023064 -0.424579
v 0.275992 -0.027700 -0.424579
v 0.253829 -0.021480 -0.418174
v 0.265338 -0.023064 -0.418174
v 0.275992 -0.027700 -0.418174
v 0.304274 0.111569 -0.418174
v 0.315795 0.110094 -0.418174
v 0.326575 0.105769 -0.418174
v 0.304274 0.111569 -0.424579
v 0.315795 0.110094 -0.424579
v 0.326575 0.105769 -0.424579
v 0.428169 -0.093338 -0.424579
v 0.428169 -0.093338 -0.418174
v 0.478871 0.031238 -0.424579
v 0.478871 0.031238 -0.418174
v 0.441826 -0.077134 -0.424579
v 0.441826 -0.077134 -0.408092
v 0.476367 0.010195 -0.424579
v 0.476367 0.010195 -0.408092
v -0.000053 0.006187 -0.424579
v -0.000053 0.083903 -0.424579
v -0.000053 0.006187 -0.405018
v -0.000053 0.083903 -0.405018
v 0.275656 0.005058 -0.405018
v 0.304294 0.081967 -0.405018
v 0.286878 0.001472 -0.405018
v 0.314834 0.076576 -0.405018
v 0.292998 0.083903 -0.405018
v 0.263991 0.006187 -0.405018
v 0.314834 0.076576 -0.424579
v 0.286878 0.001472 -0.424579
v 0.304294 0.081967 -0.424579
v 0.275656 0.005058 -0.424579
v 0.263991 0.006187 -0.424579
v 0.292998 0.083903 -0.424579
v 0.456579 0.011565 -0.424579
v 0.426965 -0.063442 -0.424579
v 0.426965 -0.063442 -0.405018
v 0.456579 0.011565 -0.405018
v 0.468150 0.006528 -0.424579
v 0.438890 -0.068629 -0.424579
v 0.438890 -0.068629 -0.405018
v 0.468150 0.006528 -0.405018
v 0.444466 -0.071049 -0.424579
v 0.473727 0.004108 -0.424579
v 0.444466 -0.071049 -0.405018
v 0.473727 0.004108 -0.405018
v -0.468998 0.040665 -0.424579
v -0.416116 -0.092542 -0.424579
v -0.416116 -0.092542 -0.418174
v -0.468998 0.040665 -0.418174
v -0.255434 -0.021480 -0.424579
v -0.266940 -0.023064 -0.424579
v -0.277592 -0.027700 -0.424579
v -0.255434 -0.021480 -0.418174
v -0.266940 -0.023064 -0.418174
v -0.277592 -0.027700 -0.418174
v -0.304313 0.111569 -0.418174
v -0.315831 0.110094 -0.418174
v -0.326609 0.105769 -0.418174
v -0.304313 0.111569 -0.424579
v -0.315831 0.110094 -0.424579
v -0.326609 0.105769 -0.424579
v -0.429734 -0.093338 -0.424579
v -0.429734 -0.093338 -0.418174
v -0.478871 0.031238 -0.424579
v -0.478871 0.031238 -0.418174
v -0.443388 -0.077134 -0.424579
v -0.443388 -0.077134 -0.408092
v -0.476367 0.010195 -0.424579
v -0.476367 0.010195 -0.408092
v -0.277254 0.005058 -0.405018
v -0.304332 0.081967 -0.405018
v -0.288476 0.001472 -0.405018
v -0.314870 0.076576 -0.405018
v -0.293039 0.083903 -0.405018
v -0.265593 0.006187 -0.405018
v -0.314870 0.076576 -0.424579
v -0.288476 0.001472 -0.424579
v -0.304332 0.081967 -0.424579
v -0.277254 0.005058 -0.424579
v -0.265593 0.006187 -0.424579
v -0.293039 0.083903 -0.424579
v -0.456583 0.011565 -0.424579
v -0.428531 -0.063442 -0.424579
v -0.428531 -0.063442 -0.405018
v -0.456583 0.011565 -0.405018
v -0.468153 0.006528 -0.424579
v -0.440453 -0.068629 -0.424579
v -0.440453 -0.068629 -0.405018
v -0.468153 0.006528 -0.405018
v -0.446028 -0.071049 -0.424579
v -0.473728 0.004108 -0.424579
v -0.446028 -0.071049 -0.405018
v -0.473728 0.004108 -0.405018
v -0.000073 -0.026913 0.011674
v -0.000073 -0.030162 0.010810
v -0.000073 -0.031593 0.007671
v -0.013583 -0.026972 0.015305
v -0.014333 -0.030187 0.014646
v -0.016050 -0.031593 0.011952
v -0.023473 -0.027111 0.025223
v -0.024713 -0.030251 0.025131
v -0.027620 -0.031593 0.023719
v -0.027092 -0.027301 0.038771
v -0.028429 -0.030337 0.039374
v -0.031656 -0.031593 0.039624
v -0.023473 -0.027521 0.052324
v -0.024555 -0.030423 0.053526
v -0.027242 -0.031593 0.055310
v -0.013583 -0.027676 0.062245
v -0.014175 -0.030483 0.063829
v -0.015673 -0.031593 0.066645
v -0.000073 -0.027728 0.065875
v -0.000073 -0.030502 0.067576
v -0.000073 -0.031593 0.070720
v 0.013438 -0.026972 0.015305
v 0.014168 -0.030187 0.014679
v 0.015842 -0.031593 0.012059
v 0.023327 -0.027111 0.025223
v 0.024514 -0.030251 0.025162
v 0.027295 -0.031593 0.023823
v 0.026947 -0.027301 0.038771
v 0.028216 -0.030337 0.039374
v 0.031281 -0.031593 0.039624
v 0.023327 -0.027521 0.052324
v 0.024362 -0.030423 0.053499
v 0.026933 -0.031593 0.055216
v 0.013438 -0.027676 0.062245
v 0.014015 -0.030483 0.063803
v 0.015475 -0.031593 0.066554
vn -0.0000 -0.0000 -1.0000
vn 0.1341 0.9910 -0.0000
vn -0.0000 1.0000 -0.0000
vn -0.1192 -0.9929 -0.0000
vn -0.0000 -1.0000 -0.0000
vn 0.4006 0.9162 -0.0000
vn 0.1124 0.9937 -0.0000
vn -0.3758 -0.9267 -0.0000
vn -0.6572 -0.7537 -0.0000
vn 0.2702 0.9628 -0.0000
vn -0.2517 -0.9678 -0.0000
vn -0.3177 0.9482 -0.0000
vn -0.2484 0.9687 -0.0000
vn -0.8776 -0.4793 -0.0000
vn -0.9099 -0.4149 -0.0000
vn -0.8922 0.4516 -0.0000
vn -0.8723 0.4890 -0.0000
vn -0.9530 0.3029 -0.0000
vn -0.9393 0.3430 -0.0000
vn -0.0000 -0.0000 1.0000
vn -0.9319 0.3628 -0.0000
vn -0.9174 0.3980 -0.0000
vn 0.0394 0.4149 -0.9090
vn -0.0000 0.4294 -0.9031
vn 0.0543 0.4092 -0.9108
vn -0.9174 0.3979 -0.0000
vn -0.0481 -0.4106 -0.9106
vn -0.0000 -0.4294 -0.9031
vn -0.0683 -0.4023 -0.9130
vn 0.1416 0.3684 -0.9188
vn 0.1404 0.3693 -0.9186
vn 0.1003 0.3999 -0.9110
vn 0.1078 0.3943 -0.9126
vn -0.2283 -0.3451 -0.9104
vn -0.1623 -0.3558 -0.9204
vn -0.1623 -0.3561 -0.9202
vn -0.2179 -0.3460 -0.9126
vn 0.0907 0.3928 -0.9151
vn 0.0969 0.3900 -0.9157
vn -0.1086 -0.3831 -0.9173
vn -0.1146 -0.3801 -0.9178
vn 0.1706 0.3945 -0.9029
vn 0.1154 0.4018 -0.9084
vn -0.2162 -0.3583 -0.9082
vn -0.1722 -0.3938 -0.9029
vn 0.1913 0.3914 -0.9001
vn -0.1551 -0.4071 -0.9001
vn -0.1342 0.9910 -0.0000
vn 0.1193 -0.9929 -0.0000
vn -0.4007 0.9162 -0.0000
vn -0.1125 0.9937 -0.0000
vn 0.3759 -0.9267 -0.0000
vn 0.6574 -0.7536 -0.0000
vn -0.2702 0.9628 -0.0000
vn 0.2518 -0.9678 -0.0000
vn 0.2484 0.9686 -0.0000
vn 0.3177 0.9482 -0.0000
vn 0.9099 -0.4148 -0.0000
vn 0.8776 -0.4794 0.0001
vn 0.8723 0.4889 -0.0000
vn 0.8923 0.4515 -0.0000
vn 0.9394 0.3429 -0.0000
vn 0.9531 0.3028 -0.0000
vn 0.9383 0.3458 -0.0000
vn 0.9174 0.3980 -0.0000
vn -0.0395 0.4149 -0.9090
vn -0.0543 0.4092 -0.9108
vn 0.9175 0.3978 -0.0000
vn 0.0481 -0.4106 -0.9106
vn 0.0683 -0.4022 -0.9130
vn -0.1417 0.3684 -0.9188
vn -0.1078 0.3943 -0.9126
vn -0.1004 0.3999 -0.9110
vn -0.1405 0.3693 -0.9186
vn 0.2283 -0.3451 -0.9104
vn 0.2179 -0.3460 -0.9126
vn 0.1624 -0.3561 -0.9202
vn 0.1623 -0.3557 -0.9204
vn -0.0970 0.3899 -0.9157
vn -0.0908 0.3928 -0.9151
vn 0.1146 -0.3802 -0.9178
vn 0.1086 -0.3831 -0.9173
vn -0.1154 0.4018 -0.9084
vn -0.1706 0.3945 -0.9029
vn 0.1722 -0.3938 -0.9029
vn 0.2162 -0.3583 -0.9082
vn -0.1914 0.3914 -0.9001
vn 0.1551 -0.4071 -0.9001
vt -44.080315 -18.174740
vt -44.081814 -18.174740
vt -44.081814 -18.173243
vt -44.080315 -18.173243
vt -44.777660 0.439424
vt -44.777653 0.426687
vt -44.272861 0.426692
vt -44.272858 0.439420
vt -44.916782 0.426425
vt -44.916782 0.413715
vt -44.312958 0.413717
vt -44.312958 0.426428
vt -44.821724 0.426690
vt -44.821720 0.439421
vt -45.097210 0.439420
vt -45.097214 0.426692
vt -44.961033 0.413718
vt -44.961037 0.426429
vt -45.243618 0.426429
vt -45.243618 0.413719
vt -44.800537 0.426687
vt -44.800545 0.439424
vt -44.939644 0.413718
vt -44.939644 0.426429
vt -45.124298 0.439425
vt -45.124298 0.426692
vt -44.032124 0.445970
vt -44.032120 0.432864
vt -44.012833 0.432867
vt -44.012833 0.445975
vt -43.757874 0.432866
vt -43.757866 0.445970
vt -43.791035 0.466611
vt -43.791035 0.432866
vt -43.969765 0.432867
vt -43.969765 0.466611
vt -44.838924 0.089152
vt -44.895584 -0.062629
vt -44.323223 -0.062629
vt -44.323223 0.089154
vt -44.323219 0.296691
vt -44.323219 0.451603
vt -44.907356 0.451597
vt -44.849541 0.296689
vt -44.872787 0.294437
vt -44.929871 0.447741
vt -44.950882 0.436992
vt -44.895161 0.287293
vt -45.233421 0.307402
vt -45.174397 0.157900
vt -44.938232 -0.048319
vt -44.883633 0.098367
vt -45.157238 0.225153
vt -45.215073 0.078650
vt -44.917641 -0.058854
vt -44.861713 0.091360
vt -45.180523 0.235283
vt -45.237671 0.088484
vt -45.256489 0.297365
vt -45.198166 0.147558
vt -45.191414 0.240007
vt -45.248569 0.093215
vt -45.267609 0.292543
vt -45.209282 0.142732
vt -43.957302 0.432867
vt -43.803482 0.432864
vt -43.803482 0.472903
vt -43.957310 0.472907
vt -44.829285 0.241538
vt -44.323223 0.241537
vt -44.323223 0.143194
vt -44.819084 0.143193
vt -44.917603 -0.116670
vt -44.323219 -0.116670
vt -44.323223 0.506745
vt -44.929836 0.506746
vt -44.961163 -0.105338
vt -44.940109 -0.113786
vt -44.862366 0.155341
vt -45.132984 0.281988
vt -44.873463 0.229143
vt -45.149639 0.099886
vt -45.239326 0.021819
vt -44.974285 0.495185
vt -45.258175 0.365419
vt -44.852222 0.238383
vt -44.952797 0.503806
vt -44.841557 0.146284
vt -45.159584 0.283538
vt -45.176792 0.098311
vt -45.258610 0.040225
vt -45.277863 0.346620
vt -45.186256 0.251886
vt -45.204018 0.130605
vt -45.253727 0.081331
vt -45.272873 0.304681
vt -43.765083 0.439420
vt -43.765087 0.426692
vt -43.709255 0.426424
vt -43.709251 0.413719
vt -43.721027 0.426687
vt -43.445602 0.426692
vt -43.445599 0.439421
vt -43.721035 0.439424
vt -43.665012 0.413715
vt -43.382496 0.413718
vt -43.382496 0.426428
vt -43.665016 0.426428
vt -43.742210 0.439424
vt -43.742207 0.426689
vt -43.686401 0.426428
vt -43.686401 0.413718
vt -43.418526 0.426692
vt -43.418522 0.439420
vt -43.758198 0.473818
vt -43.777447 0.473818
vt -43.777447 0.460742
vt -43.758198 0.460741
vt -44.031796 0.460738
vt -43.998711 0.460739
vt -43.998711 0.494394
vt -44.031796 0.473815
vt -43.820408 0.494399
vt -43.820412 0.460742
vt -43.804596 0.089156
vt -43.750988 -0.062627
vt -43.793919 0.296689
vt -43.739208 0.451597
vt -43.770672 0.294433
vt -43.748310 0.287294
vt -43.695690 0.436992
vt -43.716702 0.447740
vt -43.469135 0.157896
vt -43.413212 0.307402
vt -43.708351 -0.048320
vt -43.431564 0.078646
vt -43.486355 0.225154
vt -43.759903 0.098368
vt -43.781815 0.091360
vt -43.728928 -0.058854
vt -43.408974 0.088487
vt -43.463070 0.235279
vt -43.445370 0.147560
vt -43.390152 0.297365
vt -43.398083 0.093219
vt -43.452179 0.240011
vt -43.434254 0.142729
vt -43.379040 0.292539
vt -43.832836 0.460742
vt -43.832836 0.500680
vt -43.986290 0.500682
vt -43.986286 0.460739
vt -43.814171 0.241537
vt -43.824436 0.143193
vt -43.728966 -0.116666
vt -43.716736 0.506742
vt -43.685425 -0.105332
vt -43.706470 -0.113791
vt -43.510601 0.281984
vt -43.781155 0.155345
vt -43.769997 0.229140
vt -43.493881 0.099890
vt -43.407322 0.021818
vt -43.388474 0.365419
vt -43.672298 0.495184
vt -43.791229 0.238384
vt -43.693775 0.503806
vt -43.801960 0.146283
vt -43.484005 0.283538
vt -43.466732 0.098308
vt -43.388035 0.040225
vt -43.368790 0.346621
vt -43.457340 0.251887
vt -43.439522 0.130607
vt -43.392921 0.081328
vt -43.373775 0.304678
s 1
usemtl M_TelevisionStand_30_0
f 1/1/1 2/2/1 4/3/1 3/4/1
f 177/5/2 174/6/2 166/7/3 167/8/3
f 183/9/4 180/10/4 168/11/5 169/12/5
f 176/13/6 179/14/6 172/15/7 171/16/7
f 182/17/8 185/18/8 170/19/9 173/20/9
f 176/13/6 175/21/10 178/22/10 179/14/6
f 175/21/10 174/6/2 177/5/2 178/22/10
f 182/17/8 181/23/11 184/24/11 185/18/8
f 181/23/11 180/10/4 183/9/4 184/24/11
f 171/16/7 172/15/7 187/25/12 186/26/13
f 173/27/9 170/28/9 188/29/14 189/30/15
f 186/31/13 187/32/12 191/33/16 190/34/17
f 189/30/15 188/29/14 192/35/18 193/36/19
f 208/37/20 209/38/20 195/39/20 194/40/20
f 196/41/1 197/42/1 202/43/1 203/44/1
f 198/45/1 199/46/1 201/47/1 200/48/1
f 199/46/1 198/45/1 203/44/1 202/43/1
f 200/48/1 201/47/1 213/49/1 212/50/1
f 204/51/20 205/52/20 211/53/20 210/54/20
f 205/52/20 204/51/20 206/55/20 207/56/20
f 207/56/20 206/55/20 209/38/20 208/37/20
f 210/54/20 211/53/20 215/57/20 214/58/20
f 212/50/1 213/49/1 217/59/1 216/60/1
f 214/58/20 215/57/20 218/61/20 219/62/20
f 216/60/1 217/59/1 221/63/1 220/64/1
f 219/65/21 218/66/21 220/67/21 221/68/21
f 218/66/22 190/34/17 191/33/16 220/67/22
f 177/69/23 167/70/24 196/41/24 203/44/25
f 208/37/20 194/40/20 166/71/20 174/72/20
f 192/35/18 219/65/26 221/68/26 193/36/19
f 183/73/20 169/74/20 195/39/20 209/38/20
f 202/43/27 197/42/28 168/75/28 180/76/29
f 185/77/20 184/78/20 206/55/20 204/51/20
f 184/78/20 183/73/20 209/38/20 206/55/20
f 205/52/20 176/79/20 171/80/20 211/53/20
f 179/81/30 200/48/31 212/50/32 172/82/33
f 185/77/20 204/51/20 210/54/20 170/83/20
f 213/49/34 201/47/35 182/84/36 173/85/37
f 179/81/30 178/86/38 198/45/39 200/48/31
f 178/86/38 177/69/23 203/44/25 198/45/39
f 201/47/35 199/46/40 181/87/41 182/84/36
f 199/46/40 202/43/27 180/76/29 181/87/41
f 174/72/20 175/88/20 207/56/20 208/37/20
f 175/88/20 176/79/20 205/52/20 207/56/20
f 211/53/20 171/80/20 186/89/20 215/57/20
f 172/82/33 212/50/32 216/60/42 187/90/43
f 170/83/20 210/54/20 214/58/20 188/91/20
f 213/49/34 173/85/37 189/92/44 217/59/45
f 215/57/20 186/89/20 190/93/20 218/61/20
f 187/90/43 216/60/42 220/64/46 191/94/46
f 188/91/20 214/58/20 219/62/20 192/95/20
f 217/59/45 189/92/44 193/96/47 221/63/47
f 229/97/48 167/8/3 166/7/3 226/98/48
f 235/99/49 169/12/5 168/11/5 232/100/49
f 228/101/50 223/102/51 224/103/51 231/104/50
f 234/105/52 225/106/53 222/107/53 237/108/52
f 228/101/50 231/104/50 230/109/54 227/110/54
f 227/110/54 230/109/54 229/97/48 226/98/48
f 234/105/52 237/108/52 236/111/55 233/112/55
f 233/112/55 236/111/55 235/99/49 232/100/49
f 223/102/51 238/113/56 239/114/57 224/103/51
f 225/115/53 241/116/58 240/117/59 222/118/53
f 238/119/56 242/120/60 243/121/61 239/122/57
f 241/116/58 245/123/62 244/124/63 240/117/59
f 256/125/20 194/40/20 195/39/20 257/126/20
f 196/41/1 251/127/1 250/128/1 197/42/1
f 246/129/1 248/130/1 249/131/1 247/132/1
f 247/132/1 250/128/1 251/127/1 246/129/1
f 248/130/1 260/133/1 261/134/1 249/131/1
f 252/135/20 258/136/20 259/137/20 253/138/20
f 253/138/20 255/139/20 254/140/20 252/135/20
f 255/139/20 256/125/20 257/126/20 254/140/20
f 258/136/20 262/141/20 263/142/20 259/137/20
f 260/133/1 264/143/1 265/144/1 261/134/1
f 262/141/20 267/145/20 266/146/20 263/142/20
f 264/143/1 268/147/1 269/148/1 265/144/1
f 267/149/64 269/150/64 268/151/64 266/152/64
f 266/152/65 268/151/65 243/121/61 242/120/60
f 229/153/66 251/127/67 196/41/24 167/70/24
f 256/125/20 226/154/20 166/71/20 194/40/20
f 244/124/63 245/123/62 269/150/68 267/149/68
f 235/155/20 257/126/20 195/39/20 169/74/20
f 250/128/69 232/156/70 168/75/28 197/42/28
f 237/157/20 252/135/20 254/140/20 236/158/20
f 236/158/20 254/140/20 257/126/20 235/155/20
f 253/138/20 259/137/20 223/159/20 228/160/20
f 231/161/71 224/162/72 260/133/73 248/130/74
f 237/157/20 222/163/20 258/136/20 252/135/20
f 261/134/75 225/164/76 234/165/77 249/131/78
f 231/161/71 248/130/74 246/129/79 230/166/80
f 230/166/80 246/129/79 251/127/67 229/153/66
f 249/131/78 234/165/77 233/167/81 247/132/82
f 247/132/82 233/167/81 232/156/70 250/128/69
f 226/154/20 256/125/20 255/139/20 227/168/20
f 227/168/20 255/139/20 253/138/20 228/160/20
f 259/137/20 263/142/20 238/169/20 223/159/20
f 224/162/72 239/170/83 264/143/84 260/133/73
f 222/163/20 240/171/20 262/141/20 258/136/20
f 261/134/75 265/144/85 241/172/86 225/164/76
f 263/142/20 266/146/20 242/173/20 238/169/20
f 239/170/83 243/174/87 268/147/87 264/143/84
f 240/171/20 244/175/20 267/145/20 262/141/20
f 265/144/85 269/148/88 245/176/88 241/172/86
