# Blender 4.1.0
# www.blender.org
mtllib AlarmClockButton_10_AlarmClockButton_10_1_GeomSubset_1.mtl
o AlarmClockButton_10_AlarmClockButton_10_1_GeomSubset_1
v -0.000500 -0.008607 -0.352385
v 0.000500 -0.008607 -0.352385
v -0.000500 -0.007607 -0.352385
v 0.000500 -0.007607 -0.352385
v -0.000500 -0.008607 -0.352385
v 0.000500 -0.008607 -0.352385
v -0.000500 -0.007607 -0.352385
v 0.000500 -0.007607 -0.352385
v -0.000500 -0.008607 -0.352385
v 0.000500 -0.008607 -0.352385
v -0.000500 -0.007607 -0.352385
v 0.000500 -0.007607 -0.352385
v -0.000500 -0.008607 -0.352385
v 0.000500 -0.008607 -0.352385
v -0.000500 -0.007607 -0.352385
v 0.000500 -0.007607 -0.352385
v -0.000500 -0.008607 -0.352385
v 0.000500 -0.008607 -0.352385
v -0.000500 -0.007607 -0.352385
v 0.000500 -0.007607 -0.352385
v 0.033088 0.045103 0.065347
v 0.019104 0.058314 0.060758
v 0.000000 0.063149 0.059078
v -0.019104 0.058314 0.060758
v -0.033088 0.045103 0.065347
v -0.038207 0.027058 0.071616
v -0.033088 0.009012 0.077886
v -0.019104 -0.004198 0.082475
v 0.000000 -0.009034 0.084155
v 0.019104 -0.004198 0.082475
v 0.033088 0.009012 0.077886
v 0.038207 0.027058 0.071616
v 0.000000 0.033328 0.089665
v 0.033088 0.050109 0.079756
v 0.031151 0.049947 0.082697
v 0.026471 0.047765 0.084650
v 0.015283 0.058334 0.080978
v 0.017985 0.062383 0.078376
v 0.019104 0.063319 0.075167
v 0.000000 0.068155 0.073487
v 0.000000 0.066935 0.076795
v 0.000000 0.062202 0.079634
v -0.015283 0.058334 0.080978
v -0.017985 0.062383 0.078376
v -0.019104 0.063319 0.075167
v -0.033088 0.050109 0.079756
v -0.031151 0.049947 0.082697
v -0.026471 0.047765 0.084650
v -0.030567 0.033328 0.089665
v -0.035969 0.032957 0.088599
v -0.038207 0.032064 0.086025
v -0.033088 0.014017 0.092294
v -0.031151 0.015969 0.094501
v -0.026471 0.018891 0.094681
v -0.015283 0.008323 0.098352
v -0.017985 0.003532 0.098821
v -0.019104 0.000807 0.096883
v 0.000000 -0.004028 0.098563
v 0.000000 -0.001020 0.100403
v 0.000000 0.004454 0.099696
v 0.015283 0.008323 0.098352
v 0.017985 0.003532 0.098821
v 0.019104 0.000807 0.096883
v 0.033088 0.014017 0.092294
v 0.031151 0.015969 0.094501
v 0.026471 0.018891 0.094681
v 0.030567 0.033328 0.089665
v 0.035969 0.032957 0.088599
v 0.038207 0.032064 0.086025
vn -0.0000 -0.0000 1.0000
vn 0.0382 0.3487 0.9364
vn 0.4406 0.5228 0.7297
vn 0.2544 0.6988 0.6686
vn 0.0221 0.3640 0.9311
vn 0.8608 0.5055 -0.0594
vn 0.4970 0.8491 -0.1788
vn -0.0000 0.3696 0.9292
vn -0.0000 0.7632 0.6462
vn -0.2544 0.6988 0.6686
vn -0.0221 0.3640 0.9311
vn -0.0000 0.9749 -0.2226
vn -0.4970 0.8491 -0.1788
vn -0.0382 0.3487 0.9364
vn -0.4406 0.5228 0.7297
vn -0.5088 0.2825 0.8132
vn -0.0442 0.3278 0.9437
vn -0.8608 0.5054 -0.0594
vn -0.9940 0.0360 0.1037
vn -0.0383 0.3070 0.9509
vn -0.4406 0.0422 0.8967
vn -0.2544 -0.1337 0.9578
vn -0.0221 0.2917 0.9563
vn -0.8607 -0.4335 0.2669
vn -0.4970 -0.7771 0.3862
vn -0.0000 0.2861 0.9582
vn -0.0000 -0.1982 0.9802
vn 0.2544 -0.1337 0.9578
vn 0.0221 0.2917 0.9563
vn -0.0000 -0.9029 0.4298
vn 0.4970 -0.7771 0.3862
vn 0.0383 0.3070 0.9509
vn 0.4406 0.0423 0.8967
vn 0.5088 0.2825 0.8132
vn 0.0442 0.3278 0.9437
vn 0.8608 -0.4333 0.2669
vn 0.9940 0.0359 0.1037
vn 0.8660 0.4723 -0.1641
vn 0.5000 0.8181 -0.2842
vn -0.0000 0.9446 -0.3282
vn -0.5000 0.8181 -0.2842
vn -0.8660 0.4723 -0.1641
vn -1.0000 -0.0000 -0.0000
vn -0.8660 -0.4723 0.1641
vn -0.5000 -0.8181 0.2842
vn -0.0000 -0.9446 0.3282
vn 0.5000 -0.8181 0.2842
vn 0.8660 -0.4723 0.1641
vn 1.0000 -0.0000 -0.0000
vn -0.0000 0.3282 0.9446
vt -14.239490 -5.528214
vt -14.239490 -5.535559
vt -14.232143 -5.535559
vt -14.232143 -5.528214
vt -14.379063 0.212849
vt -14.374655 0.203399
vt -14.349540 0.229990
vt -14.357718 0.235446
vt -13.998001 0.205650
vt -14.004408 0.205296
vt -14.014408 0.176516
vt -14.007414 0.178557
vt -14.349906 0.266312
vt -14.340346 0.266312
vt -14.349540 0.302634
vt -14.357718 0.297178
vt -14.114442 0.674742
vt -14.107686 0.674742
vt -14.111117 0.713760
vt -14.117673 0.711475
vt -14.379063 0.319774
vt -14.374655 0.329225
vt -14.408968 0.338958
vt -14.408220 0.328045
vt -13.875137 0.794359
vt -13.881546 0.794713
vt -13.867886 0.755391
vt -13.862279 0.757339
vt -14.437378 0.319774
vt -14.443279 0.329225
vt -14.468398 0.302634
vt -14.458724 0.297178
vt -13.849418 0.720321
vt -13.854225 0.716068
vt -13.844225 0.687282
vt -13.840004 0.693218
vt -14.466535 0.266312
vt -14.477590 0.266312
vt -14.468398 0.229990
vt -14.458724 0.235446
vt -14.483666 0.266312
vt -14.473901 0.227730
vt -14.437378 0.212849
vt -14.443279 0.203399
vt -14.408968 0.193666
vt -14.408220 0.204578
vt -13.972286 0.279673
vt -13.977093 0.283925
vt -13.990749 0.244611
vt -13.985144 0.242663
vt -14.035801 0.216201
vt -14.045796 0.187421
vt -14.081689 0.635725
vt -14.078259 0.674742
vt -14.111117 0.635725
vt -14.081689 0.713760
vt -13.922943 0.812592
vt -13.912946 0.783806
vt -13.891549 0.823500
vt -13.899283 0.744483
vt -13.885623 0.705160
vt -13.875622 0.676374
vt -14.250162 0.713795
vt -14.246727 0.674742
vt -14.217274 0.674742
vt -14.220707 0.713795
vt -14.250162 0.635690
vt -14.220707 0.635690
vt -13.998486 0.323611
vt -14.008484 0.294831
vt -13.967095 0.312706
vt -14.022142 0.255516
vt -14.408220 0.266312
vt -14.117673 0.638010
vt -13.884553 0.821458
vt -14.473901 0.304894
vt -13.962874 0.306771
s 1
usemtl M_AlarmClockButton_10_1
f 5/1/1 6/2/1 8/3/1 7/4/1
f 36/5/2 35/6/3 38/7/4 37/8/5
f 35/9/3 34/10/6 39/11/7 38/12/4
f 42/13/8 41/14/9 44/15/10 43/16/11
f 41/17/9 40/18/12 45/19/13 44/20/10
f 48/21/14 47/22/15 50/23/16 49/24/17
f 47/25/15 46/26/18 51/27/19 50/28/16
f 54/29/20 53/30/21 56/31/22 55/32/23
f 53/33/21 52/34/24 57/35/25 56/36/22
f 60/37/26 59/38/27 62/39/28 61/40/29
f 59/38/27 58/41/30 63/42/31 62/39/28
f 66/43/32 65/44/33 68/45/34 67/46/35
f 65/47/33 64/48/36 69/49/37 68/50/34
f 21/51/38 22/52/39 39/11/7 34/10/6
f 22/53/39 23/54/40 40/18/12 39/55/7
f 23/54/40 24/56/41 45/19/13 40/18/12
f 24/57/41 25/58/42 46/26/18 45/59/13
f 25/58/42 26/60/43 51/27/19 46/26/18
f 26/60/43 27/61/44 52/34/24 51/27/19
f 27/61/44 28/62/45 57/35/25 52/34/24
f 28/63/45 29/64/46 58/65/30 57/66/25
f 29/64/46 30/67/47 63/68/31 58/65/30
f 30/69/47 31/70/48 64/48/36 63/71/31
f 31/70/48 32/72/49 69/49/37 64/48/36
f 32/72/49 21/51/38 34/10/6 69/49/37
f 33/73/50 36/5/2 37/8/5 42/13/8
f 33/73/50 42/13/8 43/16/11 48/21/14
f 33/73/50 48/21/14 49/24/17 54/29/20
f 33/73/50 54/29/20 55/32/23 60/37/26
f 33/73/50 60/37/26 61/40/29 66/43/32
f 33/73/50 66/43/32 67/46/35 36/5/2
f 37/8/5 38/7/4 41/14/9 42/13/8
f 38/74/4 39/55/7 40/18/12 41/17/9
f 43/16/11 44/15/10 47/22/15 48/21/14
f 44/75/10 45/59/13 46/26/18 47/25/15
f 49/24/17 50/23/16 53/30/21 54/29/20
f 50/28/16 51/27/19 52/34/24 53/33/21
f 55/32/23 56/31/22 59/38/27 60/37/26
f 56/31/22 57/76/25 58/41/30 59/38/27
f 61/40/29 62/39/28 65/44/33 66/43/32
f 62/77/28 63/71/31 64/48/36 65/47/33
f 34/10/6 35/9/3 68/50/34 69/49/37
f 35/6/3 36/5/2 67/46/35 68/45/34
