# Blender 4.1.1
# www.blender.org
mtllib MeshLightSwitch_9_0_GeomSubset_2.mtl
o MeshLightSwitch_9_0_GeomSubset_2
v 0.000500 0.010938 -0.002400
v -0.000500 0.010938 -0.002400
v 0.000500 0.011938 -0.002400
v -0.000500 0.011938 -0.002400
v 0.000500 0.010938 -0.002400
v -0.000500 0.010938 -0.002400
v 0.000500 0.011938 -0.002400
v -0.000500 0.011938 -0.002400
v 0.000500 0.010938 -0.002400
v -0.000500 0.010938 -0.002400
v 0.000500 0.011938 -0.002400
v -0.000500 0.011938 -0.002400
v 0.041709 -0.002951 -0.067836
v 0.039597 -0.002951 -0.068711
v 0.039597 -0.005062 -0.067836
v 0.039597 -0.005937 -0.065724
v 0.041709 -0.005062 -0.065724
v 0.042584 -0.002951 -0.065724
v -0.041709 -0.002951 -0.067836
v -0.042584 -0.002951 -0.065724
v -0.041709 -0.005062 -0.065724
v -0.039597 -0.005937 -0.065724
v -0.039597 -0.005062 -0.067836
v -0.039597 -0.002951 -0.068711
v 0.041709 -0.002951 0.064897
v 0.042584 -0.002951 0.062785
v 0.041709 -0.005062 0.062785
v 0.039597 -0.005937 0.062785
v 0.039597 -0.005062 0.064897
v 0.039597 -0.002951 0.065771
v -0.041709 -0.002951 0.064897
v -0.039597 -0.002951 0.065771
v -0.039597 -0.005062 0.064897
v -0.039597 -0.005937 0.062785
v -0.041709 -0.005062 0.062785
v -0.042584 -0.002951 0.062785
v 0.042584 0.011438 0.062785
v 0.041709 0.011438 0.064897
v 0.039597 0.011438 0.065771
v -0.039597 0.011438 0.065771
v -0.041709 0.011438 0.064897
v -0.042584 0.011438 0.062785
v 0.039597 0.011438 -0.068711
v 0.041709 0.011438 -0.067836
v 0.042584 0.011438 -0.065724
v -0.042584 0.011438 -0.065724
v -0.041709 0.011438 -0.067836
v -0.039597 0.011438 -0.068711
v 0.041321 -0.004674 -0.067448
v -0.041321 -0.004674 -0.067448
v 0.041321 -0.004674 0.064508
v -0.041321 -0.004674 0.064508
v -0.012890 -0.005800 -0.038092
v 0.012890 -0.005800 -0.038092
v -0.012890 -0.005800 0.033275
v 0.012890 -0.005800 0.033275
v 0.000028 -0.005800 0.038827
v 0.000000 -0.005937 0.076126
v 0.000000 -0.005062 0.078237
v 0.000000 -0.002951 0.079112
v 0.000000 0.011438 0.079112
v 0.000000 -0.005800 -0.043616
v 0.000000 -0.005937 -0.078899
v 0.000000 -0.005062 -0.081011
v 0.000000 -0.002951 -0.081885
v 0.000000 0.011438 -0.081885
v -0.004067 -0.006493 -0.054668
v -0.002348 -0.006493 -0.052950
v 0.002348 -0.006493 -0.052950
v 0.004067 -0.006493 -0.054668
v 0.004696 -0.006493 -0.057016
v 0.004067 -0.006493 -0.059364
v 0.002348 -0.006493 -0.061083
v -0.002348 -0.006493 -0.061083
v -0.004067 -0.006493 -0.059364
v -0.004696 -0.006493 -0.057016
v -0.003757 -0.006901 -0.054847
v -0.002169 -0.006901 -0.053259
v 0.002169 -0.006901 -0.053259
v 0.003757 -0.006901 -0.054847
v 0.004338 -0.006901 -0.057016
v 0.003757 -0.006901 -0.059186
v 0.002169 -0.006901 -0.060774
v -0.002169 -0.006901 -0.060774
v -0.003757 -0.006901 -0.059186
v -0.004338 -0.006901 -0.057016
v -0.002876 -0.007230 -0.055356
v -0.001660 -0.007230 -0.054141
v 0.001660 -0.007230 -0.054141
v 0.002876 -0.007230 -0.055356
v 0.003321 -0.007230 -0.057016
v 0.002876 -0.007230 -0.058677
v 0.001660 -0.007230 -0.059892
v -0.001660 -0.007230 -0.059892
v -0.002876 -0.007230 -0.058677
v -0.003321 -0.007230 -0.057016
v -0.001556 -0.007448 -0.056118
v -0.000899 -0.007448 -0.055460
v 0.000899 -0.007448 -0.055460
v 0.001556 -0.007448 -0.056118
v 0.001797 -0.007448 -0.057016
v 0.001556 -0.007448 -0.057915
v 0.000899 -0.007448 -0.058573
v -0.000899 -0.007448 -0.058573
v -0.001556 -0.007448 -0.057915
v -0.001797 -0.007448 -0.057016
v 0.000270 -0.006493 -0.052393
v -0.000270 -0.006493 -0.052393
v -0.000270 -0.006901 -0.052750
v 0.000270 -0.006901 -0.052750
v -0.000270 -0.006493 -0.061640
v 0.000270 -0.006493 -0.061640
v 0.000270 -0.006901 -0.061283
v -0.000270 -0.006901 -0.061283
v -0.000270 -0.007230 -0.053768
v 0.000270 -0.007230 -0.053768
v 0.000270 -0.007230 -0.060265
v -0.000270 -0.007230 -0.060265
v -0.000270 -0.007448 -0.055292
v 0.000270 -0.007448 -0.055292
v 0.000270 -0.007448 -0.058741
v -0.000270 -0.007448 -0.058741
v 0.000270 -0.007515 -0.057016
v -0.000270 -0.007515 -0.057016
v -0.000270 -0.006493 -0.052649
v 0.000270 -0.006493 -0.052649
v 0.000270 -0.006617 -0.052932
v -0.000270 -0.006617 -0.052932
v 0.000270 -0.006891 -0.053846
v -0.000270 -0.006891 -0.053846
v 0.000270 -0.006493 -0.061384
v -0.000270 -0.006493 -0.061384
v -0.000270 -0.006617 -0.061101
v 0.000270 -0.006617 -0.061101
v -0.000270 -0.006891 -0.060186
v 0.000270 -0.006891 -0.060186
v 0.000270 -0.007103 -0.055323
v -0.000270 -0.007103 -0.055323
v -0.000270 -0.007103 -0.058710
v 0.000270 -0.007103 -0.058710
v 0.000270 -0.007166 -0.057016
v -0.000270 -0.007166 -0.057016
v -0.004067 -0.005922 -0.054668
v -0.002348 -0.005922 -0.052950
v -0.000270 -0.005922 -0.052393
v 0.002348 -0.005922 -0.052950
v 0.004067 -0.005922 -0.054668
v 0.004696 -0.005922 -0.057016
v 0.004067 -0.005922 -0.059364
v 0.002348 -0.005922 -0.061083
v 0.000270 -0.005922 -0.061640
v -0.002348 -0.005922 -0.061083
v -0.004067 -0.005922 -0.059364
v -0.004696 -0.005922 -0.057016
v 0.000270 -0.005922 -0.052393
v -0.000270 -0.005922 -0.061640
v -0.000270 -0.005922 -0.052649
v 0.000270 -0.005922 -0.052649
v 0.000270 -0.005922 -0.061384
v -0.000270 -0.005922 -0.061384
v -0.004067 -0.006493 0.055039
v -0.002348 -0.006493 0.056758
v 0.002348 -0.006493 0.056758
v 0.004067 -0.006493 0.055039
v 0.004696 -0.006493 0.052691
v 0.004067 -0.006493 0.050343
v 0.002348 -0.006493 0.048624
v -0.002348 -0.006493 0.048624
v -0.004067 -0.006493 0.050343
v -0.004696 -0.006493 0.052691
v -0.003757 -0.006901 0.054860
v -0.002169 -0.006901 0.056448
v 0.002169 -0.006901 0.056448
v 0.003757 -0.006901 0.054860
v 0.004338 -0.006901 0.052691
v 0.003757 -0.006901 0.050522
v 0.002169 -0.006901 0.048934
v -0.002169 -0.006901 0.048934
v -0.003757 -0.006901 0.050522
v -0.004338 -0.006901 0.052691
v -0.002876 -0.007230 0.054351
v -0.001660 -0.007230 0.055567
v 0.001660 -0.007230 0.055567
v 0.002876 -0.007230 0.054351
v 0.003321 -0.007230 0.052691
v 0.002876 -0.007230 0.051031
v 0.001660 -0.007230 0.049815
v -0.001660 -0.007230 0.049815
v -0.002876 -0.007230 0.051031
v -0.003321 -0.007230 0.052691
v -0.001556 -0.007448 0.053590
v -0.000899 -0.007448 0.054247
v 0.000899 -0.007448 0.054247
v 0.001556 -0.007448 0.053590
v 0.001797 -0.007448 0.052691
v 0.001556 -0.007448 0.051793
v 0.000899 -0.007448 0.051135
v -0.000899 -0.007448 0.051135
v -0.001556 -0.007448 0.051793
v -0.001797 -0.007448 0.052691
v 0.000270 -0.006493 0.057315
v -0.000270 -0.006493 0.057315
v -0.000270 -0.006901 0.056957
v 0.000270 -0.006901 0.056957
v -0.000270 -0.006493 0.048067
v 0.000270 -0.006493 0.048067
v 0.000270 -0.006901 0.048425
v -0.000270 -0.006901 0.048425
v -0.000270 -0.007230 0.055939
v 0.000270 -0.007230 0.055939
v 0.000270 -0.007230 0.049443
v -0.000270 -0.007230 0.049443
v -0.000270 -0.007448 0.054416
v 0.000270 -0.007448 0.054416
v 0.000270 -0.007448 0.050966
v -0.000270 -0.007448 0.050966
v 0.000270 -0.007515 0.052691
v -0.000270 -0.007515 0.052691
v -0.000270 -0.006493 0.057059
v 0.000270 -0.006493 0.057059
v 0.000270 -0.006617 0.056776
v -0.000270 -0.006617 0.056776
v 0.000270 -0.006891 0.055861
v -0.000270 -0.006891 0.055861
v 0.000270 -0.006493 0.048323
v -0.000270 -0.006493 0.048323
v -0.000270 -0.006617 0.048606
v 0.000270 -0.006617 0.048606
v -0.000270 -0.006891 0.049521
v 0.000270 -0.006891 0.049521
v 0.000270 -0.007103 0.054384
v -0.000270 -0.007103 0.054384
v -0.000270 -0.007103 0.050998
v 0.000270 -0.007103 0.050998
v 0.000270 -0.007166 0.052691
v -0.000270 -0.007166 0.052691
v -0.004067 -0.005922 0.055039
v -0.002348 -0.005922 0.056758
v -0.000270 -0.005922 0.057315
v 0.002348 -0.005922 0.056758
v 0.004067 -0.005922 0.055039
v 0.004696 -0.005922 0.052691
v 0.004067 -0.005922 0.050343
v 0.002348 -0.005922 0.048624
v 0.000270 -0.005922 0.048067
v -0.002348 -0.005922 0.048624
v -0.004067 -0.005922 0.050343
v -0.004696 -0.005922 0.052691
v 0.000270 -0.005922 0.057315
v -0.000270 -0.005922 0.048067
v -0.000270 -0.005922 0.057059
v 0.000270 -0.005922 0.057059
v 0.000270 -0.005922 0.048323
v -0.000270 -0.005922 0.048323
v -0.012891 0.011439 -0.038092
v -0.006976 0.011439 -0.042180
v 0.000000 0.011439 -0.043616
v 0.006977 0.011439 -0.042180
v 0.012891 0.011439 -0.038092
v 0.016842 0.011439 -0.031973
v 0.018230 0.011439 -0.024711
v -0.018230 0.011439 -0.024711
v -0.016843 0.011439 -0.031973
v 0.018230 0.011300 -0.002400
v -0.018230 0.011300 -0.002400
v -0.006976 -0.005800 -0.042180
v 0.006976 -0.005800 -0.042180
v 0.016842 -0.005800 -0.031973
v 0.018230 -0.005800 -0.024762
v -0.018230 -0.005800 -0.024762
v -0.016842 -0.005800 -0.031973
v 0.018230 -0.005800 -0.002400
v -0.018230 -0.005800 -0.002400
v -0.012891 0.011439 0.033275
v -0.006976 0.011439 0.037362
v 0.000000 0.011439 0.038797
v 0.006977 0.011439 0.037362
v 0.012891 0.011439 0.033275
v 0.016842 0.011439 0.027159
v 0.018230 0.011439 0.019901
v -0.018230 0.011439 0.019901
v -0.016843 0.011439 0.027159
v -0.006976 -0.005800 0.037362
v 0.006976 -0.005800 0.037362
v 0.016842 -0.005800 0.027159
v 0.018230 -0.005800 0.019952
v -0.018230 -0.005800 0.019952
v -0.016842 -0.005800 0.027159
v 0.039597 -0.005937 -0.002400
v 0.041709 -0.005062 -0.002400
v 0.042584 -0.002951 -0.002400
v 0.042584 0.011438 -0.002400
v -0.042584 0.011438 -0.002400
v -0.042584 -0.002951 -0.002400
v -0.041709 -0.005062 -0.002400
v -0.039597 -0.005937 -0.002400
v -0.042584 0.011438 0.046548
v -0.042584 -0.002951 0.046548
v -0.041709 -0.005062 0.046548
v -0.039597 -0.005937 0.046548
v -0.042584 0.011438 0.030715
v -0.042584 -0.002951 0.030715
v -0.041709 -0.005062 0.030715
v -0.039597 -0.005937 0.030715
v 0.039597 -0.005937 0.046548
v 0.041709 -0.005062 0.046548
v 0.042584 -0.002951 0.046548
v 0.042584 0.011438 0.046548
v 0.042584 0.011438 0.030715
v 0.042584 -0.002951 0.030715
v 0.041709 -0.005062 0.030715
v 0.039597 -0.005937 0.030715
v 0.019799 -0.005937 0.072986
v 0.019799 -0.005062 0.075098
v 0.019799 -0.002951 0.075973
v 0.019799 0.011438 0.075973
v -0.019799 0.011438 0.075973
v -0.019799 -0.002951 0.075973
v -0.019799 -0.005062 0.075098
v -0.019799 -0.005937 0.072986
v -0.039597 -0.005937 -0.037174
v -0.041709 -0.005062 -0.037174
v -0.042584 -0.002951 -0.037174
v -0.042584 0.011438 -0.037174
v -0.042584 0.011438 -0.054561
v -0.042584 -0.002951 -0.054561
v -0.041709 -0.005062 -0.054561
v -0.039597 -0.005937 -0.054561
v 0.039597 -0.005937 -0.037174
v 0.041709 -0.005062 -0.037174
v 0.042584 -0.002951 -0.037174
v 0.042584 0.011438 -0.037174
v 0.039597 -0.005937 -0.054561
v 0.041709 -0.005062 -0.054561
v 0.042584 -0.002951 -0.054561
v 0.042584 0.011438 -0.054561
v -0.019799 -0.005937 -0.075800
v -0.019799 -0.005062 -0.077912
v -0.019799 -0.002951 -0.078787
v -0.019799 0.011438 -0.078787
v 0.019799 -0.005937 -0.075800
v 0.019799 -0.005062 -0.077912
v 0.019799 -0.002951 -0.078787
v 0.019799 0.011438 -0.078787
vn -0.0000 -0.0000 -1.0000
vt 1.154126 0.800589
vt 1.154126 0.798864
vt 1.155850 0.798864
vt 1.155850 0.800589
s 1
usemtl M_LightSwitch_9_2
f 9/1/1 10/2/1 12/3/1 11/4/1
