# Blender 4.1.0
# www.blender.org
mtllib MeshSpatula1_003_0_GeomSubset_0.mtl
o MeshSpatula1_003_0_GeomSubset_0
v 0.006938 0.041365 0.000842
v 0.006410 0.041299 -0.000508
v 0.006410 0.038954 -0.000393
v 0.006938 0.039021 0.000958
v 0.006410 0.041432 0.002192
v 0.006410 0.039087 0.002308
v 0.006410 0.144892 -0.002885
v 0.006938 0.144826 -0.004235
v 0.005427 0.147630 -0.004373
v 0.005014 0.147578 -0.005429
v 0.006410 0.144760 -0.005585
v 0.005014 0.147682 -0.003317
v 0.004906 0.041243 -0.001652
v 0.004906 0.038898 -0.001537
v 0.002655 0.038861 -0.002301
v 0.002655 0.041205 -0.002417
v 0.000000 0.038847 -0.002570
v 0.000000 0.041192 -0.002685
v -0.002655 0.038861 -0.002301
v -0.002655 0.041205 -0.002417
v -0.004906 0.038898 -0.001537
v -0.004906 0.041243 -0.001652
v -0.006410 0.038954 -0.000393
v -0.006410 0.041299 -0.000508
v -0.004906 0.144704 -0.006730
v -0.006410 0.144760 -0.005585
v -0.005013 0.147578 -0.005429
v -0.003837 0.147534 -0.006324
v -0.002655 0.144666 -0.007494
v -0.002076 0.147505 -0.006922
v 0.000000 0.144653 -0.007763
v 0.000000 0.147494 -0.007132
v 0.002655 0.144666 -0.007494
v 0.002077 0.147504 -0.006922
v 0.004906 0.144704 -0.006730
v 0.003837 0.147534 -0.006324
v -0.006938 0.041365 0.000842
v -0.006938 0.039020 0.000958
v -0.006410 0.039087 0.002308
v -0.006410 0.041432 0.002193
v -0.006938 0.144826 -0.004235
v -0.006410 0.144892 -0.002885
v -0.005013 0.147681 -0.003317
v -0.005427 0.147630 -0.004373
v -0.004906 0.041488 0.003337
v -0.004906 0.039143 0.003452
v -0.002655 0.039180 0.004216
v -0.002655 0.041525 0.004102
v 0.000000 0.039194 0.004485
v 0.000000 0.041539 0.004370
v 0.002655 0.039180 0.004217
v 0.002655 0.041525 0.004101
v 0.004906 0.039143 0.003452
v 0.004906 0.041488 0.003337
v 0.004906 0.144949 -0.001741
v 0.003837 0.147725 -0.002422
v 0.002655 0.144986 -0.000976
v 0.002077 0.147755 -0.001824
v 0.000000 0.144999 -0.000707
v 0.000000 0.147765 -0.001613
v -0.002655 0.144986 -0.000976
v -0.002076 0.147755 -0.001824
v -0.004906 0.144949 -0.001741
v -0.003837 0.147725 -0.002422
v -0.001980 0.038625 -0.001460
v 0.000000 0.038615 -0.001660
v 0.000000 0.038873 0.003602
v -0.001980 0.038863 0.003402
v -0.003659 0.038653 -0.000890
v -0.003659 0.038835 0.002831
v -0.004780 0.038695 -0.000036
v -0.004780 0.038793 0.001978
v -0.005174 0.038744 0.000971
v 0.001980 0.038863 0.003402
v 0.001980 0.038625 -0.001459
v 0.003659 0.038653 -0.000889
v 0.003659 0.038835 0.002831
v 0.004781 0.038695 -0.000036
v 0.004781 0.038793 0.001978
v 0.005174 0.038744 0.000971
v 0.030560 -0.078829 -0.004407
v 0.025576 -0.073054 -0.005510
v 0.025576 -0.073261 -0.006731
v 0.030561 -0.079077 -0.005865
v 0.030561 -0.139334 0.004374
v 0.030560 -0.139086 0.005832
v 0.026385 -0.146282 0.006998
v -0.026384 -0.146282 0.006998
v -0.030560 -0.139086 0.005832
v -0.030560 -0.078829 -0.004407
v -0.025576 -0.073054 -0.005511
v -0.030560 -0.139334 0.004374
v -0.030560 -0.079077 -0.005865
v 0.026385 -0.146512 0.005651
v -0.026384 -0.146512 0.005650
v -0.025576 -0.073261 -0.006731
v 0.004854 -0.065171 -0.004511
v 0.004854 -0.064954 -0.006272
v -0.004854 -0.065171 -0.004511
v -0.003386 0.039376 0.001634
v 0.003387 0.039376 0.001634
v -0.004853 -0.064954 -0.006272
v -0.003386 0.039527 0.000405
v 0.003387 0.039527 0.000405
vn 0.9315 -0.0179 -0.3634
vn 0.9315 -0.0179 -0.3633
vn 0.9315 -0.0178 -0.3634
vn 0.9314 -0.0176 -0.3637
vn 0.9315 0.0179 0.3634
vn 0.9315 0.0180 0.3634
vn 0.9315 0.0178 0.3634
vn 0.8327 0.4636 0.3030
vn 0.8326 0.4636 0.3030
vn 0.8327 0.4636 0.3029
vn 0.8327 0.4317 -0.3468
vn 0.8327 0.4317 -0.3469
vn 0.8327 0.4316 -0.3469
vn 0.8327 0.4635 0.3029
vn 0.6059 -0.0390 -0.7946
vn 0.3220 -0.0465 -0.9456
vn 0.3222 -0.0464 -0.9455
vn 0.3219 -0.0466 -0.9456
vn 0.3217 -0.0462 -0.9457
vn 0.1007 -0.0489 -0.9937
vn 0.1008 -0.0487 -0.9937
vn 0.1006 -0.0487 -0.9937
vn -0.1007 -0.0489 -0.9937
vn -0.1009 -0.0487 -0.9937
vn -0.1007 -0.0490 -0.9937
vn -0.1006 -0.0490 -0.9937
vn -0.3217 -0.0462 -0.9457
vn -0.3217 -0.0468 -0.9457
vn -0.3219 -0.0466 -0.9456
vn -0.3221 -0.0464 -0.9456
vn -0.6059 -0.0390 -0.7946
vn -0.6062 -0.0390 -0.7944
vn -0.5657 0.3225 -0.7589
vn -0.5655 0.3225 -0.7591
vn -0.5656 0.3225 -0.7590
vn -0.5652 0.3223 -0.7594
vn -0.3077 0.2479 -0.9186
vn -0.3076 0.2480 -0.9186
vn -0.3218 -0.0464 -0.9457
vn -0.3079 0.2479 -0.9186
vn -0.0973 0.2157 -0.9716
vn -0.0974 0.2156 -0.9716
vn -0.1009 -0.0488 -0.9937
vn -0.0971 0.2158 -0.9716
vn 0.0973 0.2157 -0.9716
vn 0.0974 0.2158 -0.9716
vn 0.1009 -0.0488 -0.9937
vn 0.0972 0.2156 -0.9716
vn 0.3077 0.2479 -0.9186
vn 0.3076 0.2478 -0.9187
vn 0.3078 0.2480 -0.9186
vn 0.3086 0.2482 -0.9183
vn 0.5656 0.3224 -0.7590
vn 0.5657 0.3226 -0.7589
vn 0.5655 0.3223 -0.7592
vn 0.3218 -0.0464 -0.9457
vn 0.6062 -0.0390 -0.7944
vn -0.9315 -0.0179 -0.3634
vn -0.9315 -0.0179 -0.3633
vn -0.9315 -0.0178 -0.3632
vn -0.9315 0.0178 0.3632
vn -0.9315 0.0180 0.3634
vn -0.9314 0.0173 0.3636
vn -0.9315 0.0178 0.3634
vn -0.8328 0.4636 0.3026
vn -0.8327 0.4637 0.3028
vn -0.8326 0.4637 0.3028
vn -0.8327 0.4636 0.3028
vn -0.8326 0.4317 -0.3469
vn -0.8327 0.4317 -0.3468
vn -0.8326 0.4318 -0.3469
vn -0.9315 -0.0178 -0.3634
vn -0.8325 0.4318 -0.3471
vn -0.6059 0.0390 0.7946
vn -0.6065 0.0391 0.7941
vn -0.3220 0.0463 0.9456
vn -0.3217 0.0464 0.9457
vn -0.3219 0.0462 0.9456
vn -0.3221 0.0462 0.9456
vn -0.1007 0.0486 0.9937
vn -0.1009 0.0488 0.9937
vn -0.1007 0.0485 0.9937
vn -0.1006 0.0488 0.9937
vn 0.1008 0.0488 0.9937
vn 0.1006 0.0487 0.9937
vn 0.1008 0.0490 0.9937
vn 0.1009 0.0490 0.9937
vn 0.3218 0.0465 0.9457
vn 0.3221 0.0468 0.9455
vn 0.3219 0.0466 0.9456
vn 0.3217 0.0464 0.9457
vn 0.6061 0.0391 0.7944
vn 0.6059 0.0390 0.7946
vn 0.6060 0.0391 0.7945
vn 0.6062 0.0391 0.7944
vn 0.5655 0.3951 0.7240
vn 0.5661 0.3951 0.7235
vn 0.5657 0.3951 0.7238
vn 0.5655 0.3952 0.7239
vn 0.3080 0.3368 0.8898
vn 0.3079 0.3369 0.8898
vn 0.3221 0.0464 0.9456
vn 0.3081 0.3368 0.8898
vn 0.0974 0.3099 0.9458
vn 0.0973 0.3100 0.9458
vn 0.0975 0.3099 0.9458
vn 0.1009 0.0488 0.9937
vn 0.0969 0.3100 0.9458
vn -0.0974 0.3099 0.9458
vn -0.0973 0.3098 0.9458
vn -0.0975 0.3099 0.9458
vn -0.0976 0.3100 0.9457
vn -0.3079 0.3369 0.8898
vn -0.3079 0.3368 0.8898
vn -0.5655 0.3954 0.7238
vn -0.5655 0.3953 0.7238
vn -0.5656 0.3954 0.7237
vn -0.5655 0.3949 0.7240
vn -0.3221 0.0464 0.9456
vn -0.0300 -0.9684 -0.2475
vn -0.0301 -0.9685 -0.2471
vn -0.0299 -0.9684 -0.2477
vn -0.0298 -0.9685 -0.2474
vn -0.0000 -0.9988 0.0489
vn -0.0001 -0.9988 0.0489
vn -0.0002 -0.9988 0.0494
vn 0.0001 -0.9988 0.0488
vn -0.0001 -0.9988 0.0488
vn 0.0004 -0.9988 0.0486
vn 0.0001 -0.9988 0.0491
vn 0.0001 -0.9988 0.0489
vn 0.0297 -0.9684 -0.2475
vn 0.0295 -0.9684 -0.2475
vn 0.0300 -0.9686 -0.2469
vn -0.0002 -0.9988 0.0489
vn -0.0000 -0.9988 0.0486
vn -0.1299 -0.9673 0.2180
vn -0.1298 -0.9673 0.2180
vn -0.1300 -0.9671 0.2185
vn -0.1300 -0.9672 0.2183
vn -0.1547 -0.9819 0.1089
vn -0.1548 -0.9819 0.1088
vn -0.1546 -0.9819 0.1090
vn 0.1299 -0.9672 0.2182
vn 0.1298 -0.9673 0.2179
vn 0.1300 -0.9672 0.2183
vn 0.0854 -0.9504 0.2991
vn 0.0856 -0.9504 0.2991
vn 0.0858 -0.9504 0.2990
vn 0.0856 -0.9751 -0.2045
vn 0.0855 -0.9751 -0.2044
vn 0.0857 -0.9751 -0.2046
vn 0.0861 -0.9751 -0.2045
vn 0.1304 -0.9838 -0.1228
vn 0.1302 -0.9839 -0.1226
vn 0.1302 -0.9839 -0.1228
vn -0.1544 -0.9879 -0.0122
vn -0.1545 -0.9879 -0.0124
vn -0.1549 -0.9819 0.1087
vn -0.1551 -0.9878 -0.0120
vn 0.1548 -0.9879 -0.0118
vn 0.1547 -0.9879 -0.0119
vn 0.1549 -0.9879 -0.0121
vn 0.1303 -0.9839 -0.1227
vn 0.1548 -0.9879 -0.0120
vn 0.1551 -0.9819 0.1085
vn 0.1548 -0.9819 0.1090
vn 0.1550 -0.9820 0.1083
vn 0.1552 -0.9819 0.1087
vn -0.1301 -0.9839 -0.1226
vn -0.1297 -0.9840 -0.1222
vn -0.1300 -0.9839 -0.1224
vn -0.1298 -0.9840 -0.1225
vn -0.0856 -0.9751 -0.2045
vn -0.0856 -0.9751 -0.2047
vn -0.0860 -0.9750 -0.2049
vn -0.0857 -0.9751 -0.2044
vn -0.0855 -0.9505 0.2988
vn -0.0856 -0.9505 0.2988
vn -0.0851 -0.9506 0.2986
vn -0.0858 -0.9504 0.2990
vn -0.0297 -0.9394 0.3414
vn -0.0299 -0.9396 0.3410
vn -0.0300 -0.9397 0.3408
vn -0.0298 -0.9396 0.3411
vn 0.0296 -0.9396 0.3411
vn 0.0298 -0.9396 0.3409
vn 0.0296 -0.9395 0.3414
vn 0.0297 -0.9396 0.3409
vn 0.0858 -0.9504 0.2991
vn -0.0003 0.9988 -0.0489
vn 0.0002 0.9988 -0.0488
vn -0.0005 0.9988 -0.0489
vn -0.0001 0.9988 -0.0489
vn -0.0001 0.9988 -0.0490
vn 0.0001 0.9988 -0.0490
vn -0.0000 0.9988 -0.0490
vn -0.0002 0.9988 -0.0489
vn 0.0001 0.9988 -0.0487
vn -0.0002 0.9988 -0.0490
vn 0.0002 0.9988 -0.0490
vn -0.0000 0.9988 -0.0487
vn 0.0297 -0.9685 -0.2473
vt 0.666167 0.225356
vt 0.667732 0.222637
vt 0.667732 0.225356
vt 0.666167 0.222637
vt 0.664602 0.225356
vt 0.664601 0.222637
vt 0.664602 0.345307
vt 0.666167 0.345307
vt 0.666167 0.348557
vt 0.667391 0.348557
vt 0.667732 0.345307
vt 0.664942 0.348557
vt 0.669059 0.222637
vt 0.669059 0.225356
vt 0.706886 0.232812
vt 0.706886 0.230430
vt 0.709170 0.230430
vt 0.709170 0.232812
vt 0.711864 0.230430
vt 0.711864 0.232812
vt 0.714558 0.230430
vt 0.714558 0.232812
vt 0.716841 0.230430
vt 0.716841 0.232812
vt 0.754875 0.225355
vt 0.754875 0.222636
vt 0.756202 0.222636
vt 0.756202 0.225355
vt 0.754875 0.345307
vt 0.756202 0.345307
vt 0.756543 0.348558
vt 0.755505 0.348558
vt 0.714558 0.337917
vt 0.716841 0.337917
vt 0.715757 0.340765
vt 0.713971 0.340765
vt 0.711864 0.337917
vt 0.711864 0.340765
vt 0.709170 0.337917
vt 0.709757 0.340765
vt 0.706886 0.337917
vt 0.707970 0.340765
vt 0.669059 0.345307
vt 0.668429 0.348557
vt 0.757767 0.222636
vt 0.757767 0.225355
vt 0.759333 0.222636
vt 0.759333 0.225355
vt 0.757767 0.345307
vt 0.759333 0.345307
vt 0.758992 0.348558
vt 0.757767 0.348558
vt 0.760659 0.222636
vt 0.760659 0.225355
vt 0.798486 0.232812
vt 0.798486 0.230430
vt 0.800770 0.230430
vt 0.800770 0.232812
vt 0.803464 0.230430
vt 0.803464 0.232812
vt 0.806158 0.230430
vt 0.806158 0.232812
vt 0.808442 0.230430
vt 0.808442 0.232812
vt 0.663275 0.225356
vt 0.663275 0.222637
vt 0.663275 0.345307
vt 0.663905 0.348557
vt 0.806158 0.337916
vt 0.808442 0.337916
vt 0.807358 0.340764
vt 0.805571 0.340764
vt 0.803464 0.337916
vt 0.803464 0.340764
vt 0.800770 0.337916
vt 0.801357 0.340764
vt 0.798486 0.337916
vt 0.799571 0.340764
vt 0.760659 0.345307
vt 0.760029 0.348558
vt 0.818156 0.606767
vt 0.817523 0.609440
vt 0.817321 0.607447
vt 0.818427 0.609440
vt 0.812219 0.609440
vt 0.812421 0.607447
vt 0.816747 0.605757
vt 0.812996 0.605757
vt 0.815886 0.604628
vt 0.813856 0.604628
vt 0.814871 0.604231
vt 0.812421 0.611434
vt 0.817321 0.611434
vt 0.816746 0.613124
vt 0.812996 0.613124
vt 0.815886 0.614253
vt 0.813856 0.614253
vt 0.814871 0.614649
vt 0.812357 0.604501
vt 0.813510 0.602987
vt 0.813510 0.615893
vt 0.812357 0.614379
vt 0.818156 0.612113
vt 0.817386 0.614379
vt 0.814871 0.602456
vt 0.816232 0.602987
vt 0.816232 0.615893
vt 0.814871 0.616425
vt 0.817386 0.604501
vt 0.811586 0.606767
vt 0.811315 0.609440
vt 0.811586 0.612113
vt 0.776952 0.596542
vt 0.774837 0.596542
vt 0.775895 0.596129
vt 0.777849 0.597719
vt 0.773942 0.597719
vt 0.778447 0.599479
vt 0.773343 0.599479
vt 0.778658 0.601556
vt 0.773132 0.601556
vt 0.778447 0.603633
vt 0.773343 0.603633
vt 0.773941 0.605393
vt 0.777848 0.605393
vt 0.774838 0.606569
vt 0.776952 0.606569
vt 0.775895 0.606982
s 1
usemtl M_Spatula1_003_0
f 1/1/1 3/2/2 2/3/3
f 1/1/1 4/4/4 3/2/2
f 5/5/5 4/4/6 1/1/5
f 5/5/5 6/6/6 4/4/6
f 7/7/7 5/5/5 1/1/5
f 7/7/7 1/1/5 8/8/7
f 8/8/3 1/1/1 2/3/3
f 7/7/8 8/8/9 9/9/10
f 8/8/11 10/10/12 9/9/13
f 8/8/11 11/11/11 10/10/12
f 8/8/3 2/3/3 11/11/3
f 7/7/8 9/9/10 12/12/14
f 2/3/15 14/13/15 13/14/15
f 2/3/15 3/2/15 14/13/15
f 13/15/16 14/16/17 15/17/18
f 13/15/16 15/17/18 16/18/19
f 16/18/20 15/17/21 17/19/20
f 16/18/20 17/19/20 18/20/22
f 18/20/23 17/19/24 19/21/25
f 18/20/23 19/21/25 20/22/26
f 20/22/27 19/21/28 21/23/29
f 20/22/27 21/23/29 22/24/30
f 22/25/31 21/26/31 23/27/31
f 22/25/31 23/27/31 24/28/31
f 25/29/32 22/25/31 24/28/31
f 25/29/32 24/28/31 26/30/32
f 25/29/33 26/30/34 27/31/35
f 25/29/33 27/31/35 28/32/36
f 29/33/37 25/34/38 28/35/37
f 29/33/39 22/24/30 25/34/39
f 29/33/39 20/22/27 22/24/30
f 29/33/37 28/35/37 30/36/40
f 31/37/41 29/33/42 30/36/41
f 31/37/43 20/22/26 29/33/43
f 31/37/43 18/20/23 20/22/26
f 31/37/41 30/36/41 32/38/44
f 33/39/45 31/37/46 32/38/45
f 33/39/47 18/20/22 31/37/47
f 33/39/45 32/38/45 34/40/48
f 35/41/49 33/39/50 34/40/51
f 35/41/49 34/40/51 36/42/52
f 11/11/53 35/43/54 36/44/55
f 11/11/53 36/44/55 10/10/53
f 35/41/56 16/18/19 33/39/56
f 33/39/47 16/18/20 18/20/22
f 35/41/56 13/15/16 16/18/19
f 11/11/57 13/14/15 35/43/57
f 11/11/57 2/3/15 13/14/15
f 24/28/58 38/45/59 37/46/58
f 24/28/58 23/27/60 38/45/59
f 37/46/61 38/45/62 39/47/63
f 37/46/61 39/47/63 40/48/61
f 41/49/64 37/46/61 40/48/61
f 41/49/64 40/48/61 42/50/64
f 41/49/65 42/50/66 43/51/67
f 41/49/65 43/51/67 44/52/68
f 26/30/69 41/49/70 44/52/71
f 26/30/72 37/46/58 41/49/72
f 26/30/72 24/28/58 37/46/58
f 26/30/69 44/52/71 27/31/73
f 40/48/74 46/53/74 45/54/75
f 40/48/74 39/47/74 46/53/74
f 45/55/76 46/56/77 47/57/78
f 45/55/76 47/57/78 48/58/79
f 48/58/80 47/57/81 49/59/82
f 48/58/80 49/59/82 50/60/83
f 50/60/84 49/59/85 51/61/86
f 50/60/84 51/61/86 52/62/87
f 52/62/88 51/61/89 53/63/90
f 52/62/88 53/63/90 54/64/91
f 54/65/92 53/66/93 6/6/94
f 54/65/92 6/6/94 5/5/95
f 55/67/93 54/65/92 5/5/95
f 55/67/93 5/5/95 7/7/93
f 55/67/96 7/7/97 12/12/98
f 55/67/96 12/12/98 56/68/99
f 57/69/100 55/70/101 56/71/100
f 57/69/102 54/64/91 55/70/102
f 57/69/102 52/62/88 54/64/91
f 57/69/100 56/71/100 58/72/103
f 59/73/104 57/69/105 58/72/106
f 59/73/107 52/62/87 57/69/107
f 59/73/107 50/60/84 52/62/87
f 59/73/104 58/72/106 60/74/108
f 61/75/109 59/73/110 60/74/111
f 61/75/81 50/60/83 59/73/81
f 61/75/109 60/74/111 62/76/112
f 63/77/113 61/75/113 62/76/113
f 63/77/113 62/76/113 64/78/114
f 42/50/115 63/79/116 64/80/117
f 42/50/115 64/80/117 43/51/118
f 63/77/119 48/58/79 61/75/119
f 61/75/81 48/58/80 50/60/83
f 63/77/119 45/55/76 48/58/79
f 42/50/74 45/54/75 63/79/74
f 42/50/74 40/48/74 45/54/75
f 19/81/120 66/82/121 65/83/122
f 19/81/120 17/84/123 66/82/121
f 67/85/124 65/83/125 66/82/124
f 68/86/126 65/83/125 67/85/124
f 68/86/126 69/87/125 65/83/125
f 70/88/127 69/87/125 68/86/126
f 70/88/127 71/89/128 69/87/125
f 72/90/129 71/89/128 70/88/127
f 71/89/128 72/90/129 73/91/130
f 67/85/124 66/82/124 74/92/124
f 74/92/124 66/82/124 75/93/131
f 17/84/132 75/93/133 66/82/134
f 74/92/124 75/93/131 76/94/131
f 74/92/124 76/94/131 77/95/128
f 77/95/128 76/94/131 78/96/127
f 77/95/128 78/96/127 79/97/135
f 79/97/135 78/96/127 80/98/136
f 46/99/137 72/90/138 70/88/139
f 46/99/137 39/100/140 72/90/138
f 39/100/141 73/91/142 72/90/143
f 6/101/144 77/95/145 79/97/146
f 6/101/144 53/102/144 77/95/145
f 53/102/147 74/92/148 77/95/149
f 15/103/150 76/94/151 75/93/152
f 15/103/150 14/104/153 76/94/151
f 14/104/154 78/96/155 76/94/156
f 38/105/157 71/89/157 73/91/158
f 39/100/141 38/105/159 73/91/142
f 38/105/157 23/106/160 71/89/157
f 3/107/161 80/98/162 78/96/163
f 14/104/154 3/107/164 78/96/155
f 3/107/161 4/108/165 80/98/162
f 4/108/166 79/97/167 80/98/168
f 4/108/166 6/101/169 79/97/167
f 23/106/170 69/87/171 71/89/172
f 23/106/170 21/109/173 69/87/171
f 21/109/174 65/83/175 69/87/176
f 21/109/174 19/81/177 65/83/175
f 47/110/178 46/99/179 70/88/180
f 47/110/178 70/88/180 68/86/181
f 49/111/182 47/110/183 68/86/184
f 49/111/182 68/86/184 67/85/185
f 51/112/186 49/111/187 67/85/188
f 51/112/186 67/85/188 74/92/189
f 53/102/147 51/112/190 74/92/148
f 43/113/191 27/114/192 44/115/193
f 27/114/192 43/113/191 64/116/191
f 27/114/192 64/116/191 28/117/194
f 28/117/194 64/116/191 62/118/195
f 28/117/194 62/118/195 30/119/196
f 30/119/196 62/118/195 60/120/197
f 30/119/196 60/120/197 32/121/198
f 32/121/198 60/120/197 58/122/197
f 32/121/198 58/122/197 34/123/199
f 34/123/199 58/122/197 36/124/200
f 36/124/200 58/122/197 56/125/196
f 36/124/200 56/125/196 10/126/201
f 10/126/201 56/125/196 12/127/195
f 10/126/201 12/127/195 9/128/202
f 17/84/132 15/103/203 75/93/133
