# Blender 4.1.1
# www.blender.org
mtllib MeshCountertopC_8X4_0_GeomSubset_0.mtl
o MeshCountertopC_8X4_0_GeomSubset_0
v 1.220527 0.617625 0.418626
v 1.220527 0.617625 0.388626
v 0.610925 0.008026 0.418626
v 0.610925 0.008026 0.388626
v -1.217872 0.617625 0.418626
v -0.608274 0.008026 0.418626
v -0.608274 0.008026 0.388626
v 1.220527 -0.601578 0.418626
v 1.220527 -0.601578 0.388626
v 0.610925 -0.621578 0.388626
v 0.610925 -0.621578 0.418626
v 0.630925 0.028029 0.388626
v -0.628272 0.028029 0.388626
v 0.630925 -0.601578 0.388626
v 0.630925 -0.601578 0.418626
v 0.630925 0.028029 0.418626
v -0.628272 0.028029 0.418626
v 0.630925 0.028029 -0.437404
v -0.628272 0.028029 -0.437404
v 0.630925 -0.601578 -0.437404
v 0.649888 0.046991 -0.437143
v -0.647237 0.046991 -0.437143
v 0.649888 0.046991 -0.517143
v -0.647237 0.046991 -0.517143
v -1.217872 0.617625 -0.517404
v 1.220527 0.617625 -0.517404
v -1.217872 0.617625 0.388626
v -1.217872 -0.601578 0.418626
v -1.217872 -0.601578 0.388626
v -0.608275 -0.621578 0.388626
v -0.608275 -0.621578 0.418626
v -0.628272 -0.601578 0.388626
v -0.628272 -0.601578 0.418626
v -0.628272 -0.601578 -0.437404
v 1.220527 -0.601578 -0.437274
v -1.217872 -0.601578 -0.437274
v 0.650926 -0.581577 -0.437273
v 1.220527 -0.581578 -0.437274
v 1.220527 -0.581578 -0.517404
v 0.650926 -0.581577 -0.517274
v -0.648273 -0.581577 -0.437273
v -0.648273 -0.581577 -0.517274
v -1.217872 -0.581578 -0.517404
v -1.217872 -0.581578 -0.437274
v 1.220527 -0.621578 0.418626
v 1.220527 -0.621578 0.388626
v -1.217872 -0.621578 0.418626
v -1.217872 -0.621578 0.388626
vn -0.0000 1.0000 -0.0000
vn -0.0000 -0.0000 -1.0000
vn -1.0000 -0.0000 -0.0000
vn 1.0000 -0.0000 -0.0000
vn -0.0000 -0.0000 1.0000
vn -0.0000 -1.0000 -0.0000
vt -9.840607 1.152520
vt -9.840607 1.105646
vt -8.888079 1.105646
vt -8.888079 1.152520
vt -11.642847 1.446918
vt -10.721590 0.525677
vt -8.754095 0.525677
vt -7.832848 1.446918
vt -10.441322 1.096917
vt -10.441322 1.050043
vt -8.536366 1.050043
vt -8.536366 1.096917
vt -10.461060 1.059848
vt -10.461060 1.012974
vt -8.556048 1.012974
vt -8.556048 1.059848
vt -8.876535 1.068577
vt -8.876535 1.115451
vt -9.860320 1.115451
vt -9.860320 1.068577
vt -10.721590 -0.458084
vt -11.642846 -0.458084
vt -8.785340 0.395709
vt -10.690347 0.395709
vt -10.721595 0.364456
vt -8.754092 0.364456
vt -10.690347 1.379475
vt -10.721595 1.348222
vt -10.690342 0.494420
vt -10.690342 -0.489337
vt -8.785343 0.494420
vt -8.888103 1.171056
vt -9.840578 1.171056
vt -9.840578 1.124181
vt -8.888104 1.124181
vt -7.832799 1.041313
vt -11.642896 1.041313
vt -11.642896 0.994439
vt -7.832799 0.994439
vt -8.524774 1.078382
vt -10.429832 1.078382
vt -10.429832 1.031508
vt -8.524774 1.031508
vt -9.860310 1.087112
vt -8.876547 1.087112
vt -8.876547 1.133986
vt -9.860310 1.133986
vt -8.754095 -0.458084
vt -7.832849 -0.458084
vt -8.754092 1.348222
vt -8.785340 1.379475
vt -8.785343 -0.489337
vt -8.524799 1.012974
vt -8.524799 1.059848
vt -11.642855 1.348222
vt -11.642854 1.379475
vt -11.642846 -0.489337
vt -7.832849 -0.489337
vt -7.832842 1.348222
vt -7.832842 1.379475
vt -10.461085 1.078382
vt -10.461085 1.031508
s 1
usemtl M_CountertopC_8X4_0
f 45/1/1 46/2/1 10/3/1 11/4/1
f 1/5/2 16/6/2 17/7/2 5/8/2
f 3/9/1 4/10/1 7/11/1 6/12/1
f 1/13/3 2/14/3 9/15/3 8/16/3
f 4/17/4 3/18/4 11/19/4 10/20/4
f 15/21/2 16/6/2 1/5/2 8/22/2
f 7/23/5 4/24/5 12/25/5 13/26/5
f 4/24/5 10/27/5 14/28/5 12/25/5
f 3/29/2 16/6/2 15/21/2 11/30/2
f 17/7/2 16/6/2 3/29/2 6/31/2
f 47/32/1 31/33/1 30/34/1 48/35/1
f 27/36/6 2/37/6 1/38/6 5/39/6
f 5/40/4 28/41/4 29/42/4 27/43/4
f 7/44/3 30/45/3 31/46/3 6/47/3
f 33/48/2 28/49/2 5/8/2 17/7/2
f 7/23/5 13/26/5 32/50/5 30/51/5
f 6/31/2 31/52/2 33/48/2 17/7/2
f 8/16/3 9/15/3 46/53/3 45/54/3
f 9/55/5 14/28/5 10/27/5 46/56/5
f 15/21/2 8/22/2 45/57/2 11/30/2
f 28/49/2 33/48/2 31/52/2 47/58/2
f 32/50/5 29/59/5 48/60/5 30/51/5
f 29/42/4 28/41/4 47/61/4 48/62/4
