# Blender 4.1.1
# www.blender.org
mtllib MeshDoorwayDouble_3_4.mtl
o DoorwayDouble_3
v -0.915447 0.036284 0.984268
v -0.915447 -0.036046 0.984268
v -0.915447 -0.036045 -1.042600
v -0.915447 0.036284 -1.042600
v -0.971844 0.050839 1.040550
v -0.971844 0.050839 -1.042599
v -0.971844 -0.050600 1.040550
v -0.971844 -0.050600 -1.042599
v -0.924615 -0.036046 0.993410
v -0.928254 -0.039684 0.997048
v -0.928254 -0.039684 -1.042599
v -0.924615 -0.036045 -1.042600
v -0.928254 0.039922 -1.042599
v -0.924615 0.036284 -1.042600
v -0.924615 0.036284 0.993410
v -0.928254 0.039922 0.997048
v -0.928254 0.047200 0.997048
v -0.931892 0.050839 1.000687
v -0.931892 0.050839 -1.042599
v -0.928254 0.047201 -1.042599
v -0.928254 -0.046962 0.997048
v -0.931892 -0.050600 1.000687
v -0.931892 -0.050600 -1.042599
v -0.928254 -0.046962 -1.042599
v -0.931892 -0.039684 -1.042599
v -0.931892 0.039922 -1.042599
v -0.958384 0.039922 -1.042599
v -0.958383 -0.039684 -1.042599
v 0.912109 0.036284 0.984268
v 0.912109 -0.036046 0.984268
v 0.912109 -0.036046 -1.042600
v 0.912109 0.036284 -1.042600
v 0.968506 0.050839 1.040550
v 0.968506 0.050839 -1.042599
v 0.968506 -0.050601 1.040550
v 0.968506 -0.050600 -1.042599
v 0.921278 -0.036046 0.993410
v 0.924916 -0.039684 0.997048
v 0.924916 -0.039684 -1.042599
v 0.921278 -0.036046 -1.042600
v 0.924916 0.039922 -1.042599
v 0.921278 0.036284 -1.042600
v 0.921278 0.036284 0.993410
v 0.924916 0.039922 0.997048
v 0.924916 0.047200 0.997048
v 0.928554 0.050839 1.000687
v 0.928554 0.050839 -1.042599
v 0.924916 0.047200 -1.042599
v 0.924916 -0.046962 0.997048
v 0.928554 -0.050601 1.000687
v 0.928554 -0.050600 -1.042599
v 0.924916 -0.046962 -1.042599
v 0.928554 -0.039684 -1.042599
v 0.928554 0.039922 -1.042599
v 0.955046 0.039922 -1.042599
v 0.955046 -0.039684 -1.042599
vn -1.0000 -0.0000 -0.0000
vn 1.0000 -0.0000 -0.0000
vn -0.0000 -0.0000 1.0000
vn -0.3580 0.8468 0.3933
vn -0.5262 0.8504 -0.0000
vn -0.8812 0.4727 -0.0000
vn -0.9298 0.3681 -0.0000
vn -0.5261 -0.8504 0.0001
vn -0.3580 -0.8468 0.3933
vn -0.9298 -0.3681 -0.0000
vn -0.8812 -0.4727 -0.0000
vn -0.1894 -0.9632 0.1908
vn -0.5763 -0.8172 -0.0000
vn -0.9034 -0.4289 -0.0000
vn -0.8715 -0.4903 -0.0000
vn -0.8715 0.4903 -0.0000
vn -0.9034 0.4289 -0.0000
vn -0.5763 0.8172 -0.0000
vn -0.1894 0.9632 0.1908
vn -0.0000 1.0000 -0.0000
vn -0.0000 -1.0000 -0.0000
vn 0.0001 -0.0000 1.0000
vn 0.1894 0.9632 0.1908
vn -0.0000 0.4902 0.8716
vn -0.0000 0.3684 0.9297
vn 0.3580 0.8468 0.3933
vn 0.3579 -0.8468 0.3933
vn -0.0000 -0.3684 0.9297
vn -0.0000 -0.4902 0.8716
vn 0.1894 -0.9632 0.1908
vn -0.0000 -0.0000 -1.0000
vn 0.9298 0.3681 -0.0000
vn 0.8812 0.4727 -0.0000
vn 0.5262 0.8504 -0.0000
vn 0.5261 -0.8504 -0.0000
vn 0.8812 -0.4727 -0.0000
vn 0.9298 -0.3681 -0.0000
vn 0.8715 -0.4903 -0.0000
vn 0.9034 -0.4289 -0.0000
vn 0.5763 -0.8172 -0.0000
vn 0.8715 0.4903 -0.0000
vn 0.5763 0.8172 -0.0000
vn 0.9034 0.4289 -0.0000
vn -0.0001 -0.0000 1.0000
vt -9.883125 2.264067
vt -9.883125 -0.902929
vt -9.770110 -0.902929
vt -9.770110 2.264067
vt -10.066205 -1.398688
vt -9.907706 -1.398688
vt -9.907706 1.856232
vt -10.066205 1.856232
vt -9.913377 0.532978
vt -9.913377 0.544350
vt -9.919061 0.550034
vt -9.919061 0.532978
vt -9.088815 1.965755
vt -9.088815 -1.529389
vt -9.082569 -1.529389
vt -9.082568 1.972001
vt -9.054083 -1.529368
vt -9.054084 1.965734
vt -9.060331 1.971980
vt -9.060331 -1.529367
vt -9.079070 1.978225
vt -9.079070 -1.529367
vt -9.072824 -1.529367
vt -9.072824 1.971980
vt -9.070076 1.972001
vt -9.070076 -1.529389
vt -9.063828 -1.529389
vt -9.063828 1.978247
vt -10.630898 -0.894794
vt -10.630898 2.272208
vt -10.645224 2.272208
vt -10.645224 -0.909078
vt -11.053593 2.272203
vt -11.053593 -0.909072
vt -11.039267 -0.909073
vt -11.039267 2.257918
vt -11.210644 1.856233
vt -11.273067 1.856233
vt -11.273067 -1.398688
vt -11.210644 -1.336403
vt -10.842349 1.856233
vt -10.842349 -1.398689
vt -10.779926 -1.398689
vt -10.779925 1.793947
vt -9.893365 0.527292
vt -9.907691 0.527292
vt -9.907691 0.414277
vt -9.893365 0.414277
vt -9.981485 0.391535
vt -9.960453 0.408592
vt -9.960454 0.532978
vt -9.981485 0.550034
vt -9.913377 0.408592
vt -9.919061 0.391535
vt -9.913377 0.397220
vt -9.919061 0.408592
vt -8.241270 -1.398689
vt -8.303695 -1.336403
vt -9.898602 2.253113
vt -9.904849 2.259359
vt -9.904849 -0.934485
vt -9.898602 -0.928239
vt -9.886108 2.253113
vt -9.886108 -0.928239
vt -9.879863 2.246867
vt -9.879863 -0.921994
vt -7.760998 -0.909078
vt -7.775324 -0.894794
vt -9.860757 2.086629
vt -9.973772 2.086629
vt -9.973772 -0.768922
vt -9.860757 -0.768922
vt -8.183700 2.257918
vt -8.169374 2.272203
vt -9.907909 2.253097
vt -9.914156 2.246850
vt -9.914156 -0.921977
vt -9.907909 -0.928223
vt -9.895415 2.253097
vt -9.895415 -0.928223
vt -9.889170 2.259343
vt -9.889170 -0.934469
vt -7.872975 1.793947
vt -7.810551 1.856233
vt -9.794333 2.187041
vt -9.952832 2.187041
vt -9.952832 -0.844756
vt -9.794333 -0.844756
vt -9.792006 2.264060
vt -9.905022 2.264060
vt -9.905022 -0.902922
vt -9.792006 -0.902922
vt -9.016840 -1.398687
vt -9.016840 1.856231
vt -9.175340 1.856231
vt -9.175340 -1.398687
vt -9.979899 0.532978
vt -9.974215 0.532978
vt -9.974215 0.550034
vt -9.979899 0.544350
vt -9.044339 1.965788
vt -9.050585 1.972035
vt -9.050585 -1.529422
vt -9.044339 -1.529423
vt -9.059581 -1.529406
vt -9.053334 -1.529405
vt -9.053334 1.972018
vt -9.059581 1.965771
vt -9.034595 1.978263
vt -9.040840 1.972018
vt -9.040840 -1.529405
vt -9.034595 -1.529405
vt -9.063079 1.972035
vt -9.069325 1.978281
vt -9.069325 -1.529422
vt -9.063079 -1.529422
vt -7.760998 2.272208
vt -7.775324 2.272208
vt -8.183700 -0.909074
vt -8.169374 -0.909072
vt -8.303695 1.856233
vt -8.241270 1.856233
vt -7.872975 -1.398689
vt -7.810551 -1.398689
vt -9.999909 0.527292
vt -9.999909 0.414277
vt -9.985583 0.414277
vt -9.985583 0.527292
vt -9.911790 0.391535
vt -9.911790 0.550034
vt -9.932822 0.532978
vt -9.932822 0.408592
vt -9.979899 0.408592
vt -9.974215 0.391535
vt -9.974215 0.408592
vt -9.979899 0.397220
s 1
usemtl M_DoorwayDouble_3_0
f 1/1/1 4/2/1 3/3/1 2/4/1
f 8/5/2 6/6/2 5/7/2 7/8/2
f 13/9/3 20/10/3 19/11/3 26/12/3
f 9/13/4 12/14/5 11/15/6 10/16/7
f 14/17/8 15/18/9 16/19/10 13/20/11
f 18/21/12 19/22/13 20/23/14 17/24/15
f 21/25/16 24/26/17 23/27/18 22/28/19
f 2/29/20 3/30/20 12/31/5 9/32/4
f 15/33/9 14/34/8 4/35/21 1/36/21
f 23/37/18 8/38/20 7/39/20 22/40/19
f 5/41/21 6/42/21 19/43/13 18/44/12
f 16/19/10 17/24/15 20/23/14 13/20/11
f 11/15/6 24/26/17 21/25/16 10/16/7
f 4/45/22 14/46/22 12/47/22 3/48/22
f 8/49/3 28/50/3 27/51/3 6/52/3
f 12/47/22 14/46/22 13/9/3 11/53/3
f 23/54/3 24/55/3 11/53/3 25/56/3
f 25/56/3 26/12/3 27/51/3 28/50/3
f 11/53/3 13/9/3 26/12/3 25/56/3
f 27/51/3 26/12/3 19/11/3 6/52/3
f 8/49/3 23/54/3 25/56/3 28/50/3
f 22/40/19 7/39/20 35/57/20 50/58/23
f 21/59/24 22/60/19 50/61/23 49/62/24
f 10/63/25 21/59/24 49/62/24 38/64/25
f 9/65/4 10/63/25 38/64/25 37/66/26
f 2/29/20 9/32/4 37/67/26 30/68/20
f 1/69/3 2/70/3 30/71/3 29/72/3
f 15/33/9 1/36/21 29/73/21 43/74/27
f 16/75/28 15/76/9 43/77/27 44/78/28
f 17/79/29 16/75/28 44/78/28 45/80/29
f 18/81/12 17/79/29 45/80/29 46/82/30
f 5/41/21 18/44/12 46/83/30 33/84/21
f 7/85/31 5/86/31 33/87/31 35/88/31
f 29/89/2 30/90/2 31/91/2 32/92/2
f 36/93/1 35/94/1 33/95/1 34/96/1
f 41/97/3 54/98/3 47/99/3 48/100/3
f 37/101/26 38/102/32 39/103/33 40/104/34
f 42/105/35 41/106/36 44/107/37 43/108/27
f 46/109/30 45/110/38 48/111/39 47/112/40
f 49/113/41 50/114/23 51/115/42 52/116/43
f 30/68/20 37/67/26 40/117/34 31/118/20
f 43/74/27 29/73/21 32/119/21 42/120/35
f 51/121/42 50/58/23 35/57/20 36/122/20
f 33/84/21 46/83/30 47/123/40 34/124/21
f 44/107/37 41/106/36 48/111/39 45/110/38
f 39/103/33 38/102/32 49/113/41 52/116/43
f 32/125/44 31/126/44 40/127/44 42/128/44
f 36/129/3 34/130/3 55/131/3 56/132/3
f 40/127/44 39/133/3 41/97/3 42/128/44
f 51/134/3 53/135/3 39/133/3 52/136/3
f 53/135/3 56/132/3 55/131/3 54/98/3
f 39/133/3 53/135/3 54/98/3 41/97/3
f 55/131/3 34/130/3 47/99/3 54/98/3
f 36/129/3 56/132/3 53/135/3 51/134/3
