# Blender 4.1.1
# www.blender.org
mtllib MeshDoorwayHandle_3_3.mtl
o DoorwayHandle_3
v -0.044539 -0.033634 -0.064367
v -0.040556 -0.035932 -0.060371
v -0.039098 -0.039071 -0.054913
v -0.040556 -0.042210 -0.049455
v -0.044539 -0.044508 -0.045459
v -0.049981 -0.045350 -0.043997
v -0.055423 -0.044509 -0.045459
v -0.059406 -0.042211 -0.049455
v -0.060865 -0.039071 -0.054913
v -0.059406 -0.035932 -0.060371
v -0.055423 -0.033634 -0.064367
v -0.049981 -0.032793 -0.065784
v -0.040321 -0.023427 -0.038181
v -0.033250 -0.023427 -0.045253
v -0.030661 -0.023427 -0.054913
v -0.033250 -0.023427 -0.064573
v -0.040321 -0.023427 -0.071645
v -0.049981 -0.023428 -0.074233
v -0.059641 -0.023428 -0.071645
v -0.066713 -0.023428 -0.064573
v -0.069301 -0.023428 -0.054913
v -0.066713 -0.023428 -0.045253
v -0.059641 -0.023428 -0.038181
v -0.049981 -0.023428 -0.035593
v -0.044523 -0.023428 -0.045459
v -0.040527 -0.023427 -0.049455
v -0.039065 -0.023427 -0.054913
v -0.040527 -0.023427 -0.060371
v -0.044523 -0.023428 -0.064367
v -0.049981 -0.023428 -0.065830
v -0.055440 -0.023428 -0.064367
v -0.059435 -0.023428 -0.060371
v -0.060898 -0.023428 -0.054913
v -0.059435 -0.023428 -0.049455
v -0.055440 -0.023428 -0.045459
v -0.049981 -0.023428 -0.043997
v -0.055424 -0.033634 -0.195030
v -0.059407 -0.035932 -0.199026
v -0.060865 -0.039071 -0.204484
v -0.059407 -0.042211 -0.209942
v -0.055424 -0.044509 -0.213938
v -0.049982 -0.045350 -0.215400
v -0.044540 -0.044508 -0.213938
v -0.040556 -0.042210 -0.209942
v -0.039098 -0.039071 -0.204484
v -0.040556 -0.035932 -0.199026
v -0.044540 -0.033634 -0.195030
v -0.049982 -0.032793 -0.193613
v -0.059642 -0.023428 -0.221216
v -0.066713 -0.023428 -0.214144
v -0.069302 -0.023428 -0.204484
v -0.066713 -0.023428 -0.194824
v -0.059642 -0.023428 -0.187752
v -0.049982 -0.023428 -0.185164
v -0.040322 -0.023427 -0.187752
v -0.033250 -0.023427 -0.194824
v -0.030662 -0.023427 -0.204484
v -0.033250 -0.023427 -0.214144
v -0.040322 -0.023427 -0.221216
v -0.049982 -0.023428 -0.223804
v -0.055440 -0.023428 -0.213938
v -0.059436 -0.023428 -0.209942
v -0.060898 -0.023428 -0.204484
v -0.059436 -0.023428 -0.199026
v -0.055440 -0.023428 -0.195030
v -0.049982 -0.023428 -0.193568
v -0.044523 -0.023427 -0.195030
v -0.040528 -0.023427 -0.199026
v -0.039065 -0.023427 -0.204484
v -0.040528 -0.023427 -0.209942
v -0.044523 -0.023427 -0.213938
v -0.049982 -0.023428 -0.215400
v -0.044540 0.033887 -0.064367
v -0.040556 0.036184 -0.060371
v -0.039098 0.039322 -0.054913
v -0.040556 0.042460 -0.049455
v -0.044540 0.044757 -0.045459
v -0.049982 0.045598 -0.043997
v -0.055423 0.044757 -0.045459
v -0.059407 0.042460 -0.049455
v -0.060865 0.039322 -0.054913
v -0.059407 0.036184 -0.060371
v -0.055423 0.033887 -0.064367
v -0.049982 0.033046 -0.065784
v -0.040322 0.023684 -0.038181
v -0.033250 0.023684 -0.045253
v -0.030662 0.023684 -0.054913
v -0.033250 0.023684 -0.064573
v -0.040322 0.023684 -0.071645
v -0.049982 0.023684 -0.074233
v -0.059642 0.023684 -0.071645
v -0.066713 0.023684 -0.064573
v -0.069302 0.023684 -0.054913
v -0.066713 0.023684 -0.045253
v -0.059642 0.023684 -0.038181
v -0.049982 0.023684 -0.035593
v -0.044523 0.023684 -0.045459
v -0.040528 0.023684 -0.049455
v -0.039065 0.023684 -0.054913
v -0.040528 0.023684 -0.060371
v -0.044523 0.023684 -0.064367
v -0.049982 0.023684 -0.065830
v -0.055440 0.023684 -0.064367
v -0.059435 0.023684 -0.060371
v -0.060898 0.023684 -0.054913
v -0.059435 0.023684 -0.049455
v -0.055440 0.023684 -0.045459
v -0.049982 0.023684 -0.043997
v -0.055424 0.033887 -0.195030
v -0.059408 0.036184 -0.199026
v -0.060866 0.039322 -0.204484
v -0.059408 0.042460 -0.209942
v -0.055424 0.044757 -0.213938
v -0.049982 0.045598 -0.215400
v -0.044540 0.044757 -0.213938
v -0.040557 0.042460 -0.209942
v -0.039099 0.039322 -0.204484
v -0.040557 0.036184 -0.199026
v -0.044540 0.033887 -0.195030
v -0.049982 0.033046 -0.193613
v -0.059642 0.023684 -0.221216
v -0.066714 0.023684 -0.214144
v -0.069302 0.023684 -0.204484
v -0.066714 0.023684 -0.194824
v -0.059642 0.023684 -0.187752
v -0.049982 0.023684 -0.185164
v -0.040322 0.023684 -0.187752
v -0.033251 0.023684 -0.194824
v -0.030662 0.023684 -0.204484
v -0.033251 0.023684 -0.214144
v -0.040322 0.023684 -0.221216
v -0.049982 0.023684 -0.223804
v -0.055440 0.023684 -0.213938
v -0.059436 0.023684 -0.209942
v -0.060898 0.023684 -0.204484
v -0.059436 0.023684 -0.199026
v -0.055440 0.023684 -0.195030
v -0.049982 0.023684 -0.193568
v -0.044524 0.023684 -0.195030
v -0.040528 0.023684 -0.199026
v -0.039065 0.023684 -0.204484
v -0.040528 0.023684 -0.209942
v -0.044524 0.023684 -0.213938
v -0.049982 0.023684 -0.215400
vn -0.8660 -0.0000 -0.5000
vn -0.5000 -0.0000 -0.8660
vn -1.0000 -0.0000 -0.0000
vn -0.8660 -0.0000 0.5000
vn -0.5000 -0.0000 0.8660
vn -0.0000 -0.0000 1.0000
vn 0.5000 -0.0000 0.8660
vn 0.8660 -0.0000 0.5000
vn 1.0000 -0.0000 -0.0000
vn 0.8660 -0.0000 -0.5000
vn 0.5000 -0.0000 -0.8660
vn -0.0000 -0.0000 -1.0000
vn -0.0000 1.0000 -0.0000
vn -0.8742 0.0013 -0.4855
vn -0.8322 0.0012 -0.5545
vn -0.4640 0.0004 -0.8858
vn -0.5076 0.0005 -0.8616
vn -0.9998 0.0020 0.0220
vn -0.9978 0.0019 -0.0666
vn -0.8545 0.0018 0.5194
vn -0.8909 0.0019 0.4541
vn -0.4847 0.0020 0.8747
vn -0.5217 0.0019 0.8531
vn -0.0000 0.0025 1.0000
vn 0.4847 0.0020 0.8747
vn 0.5217 0.0020 0.8531
vn 0.8545 0.0018 0.5195
vn 0.8909 0.0019 0.4541
vn 0.9998 0.0020 0.0220
vn 0.9978 0.0019 -0.0666
vn 0.8742 0.0013 -0.4856
vn 0.8322 0.0012 -0.5545
vn 0.5076 0.0005 -0.8616
vn 0.4640 0.0004 -0.8858
vn -0.0000 0.0001 -1.0000
vn 0.3886 -0.9214 -0.0000
vn 0.8463 -0.5328 -0.0000
vn 0.9606 0.2779 -0.0000
vn 0.6183 0.7859 -0.0000
vn 0.2811 0.9597 -0.0000
vn -0.2811 0.9597 -0.0000
vn -0.6183 0.7859 -0.0000
vn -0.9606 0.2779 -0.0000
vn -0.8463 -0.5328 -0.0000
vn -0.3886 -0.9214 -0.0000
vn -0.0000 -1.0000 -0.0000
vn 0.8742 0.0013 0.4855
vn 0.8322 0.0012 0.5545
vn 0.4640 0.0004 0.8858
vn 0.5076 0.0005 0.8616
vn 0.9998 0.0020 -0.0220
vn 0.9978 0.0019 0.0666
vn 0.8545 0.0018 -0.5194
vn 0.8909 0.0019 -0.4541
vn 0.4847 0.0020 -0.8747
vn 0.5217 0.0019 -0.8531
vn -0.0000 0.0025 -1.0000
vn -0.4847 0.0020 -0.8747
vn -0.5217 0.0020 -0.8531
vn -0.8545 0.0018 -0.5195
vn -0.8909 0.0019 -0.4541
vn -0.9998 0.0020 -0.0220
vn -0.9978 0.0019 0.0666
vn -0.8742 0.0013 0.4856
vn -0.8322 0.0012 0.5545
vn -0.5076 0.0005 0.8616
vn -0.4640 0.0004 0.8858
vn -0.0000 0.0001 1.0000
vn -0.8742 -0.0013 -0.4855
vn -0.5076 -0.0005 -0.8616
vn -0.4640 -0.0004 -0.8858
vn -0.8322 -0.0012 -0.5545
vn -0.9998 -0.0020 0.0220
vn -0.9978 -0.0019 -0.0666
vn -0.8545 -0.0018 0.5194
vn -0.8909 -0.0019 0.4541
vn -0.4847 -0.0020 0.8747
vn -0.5217 -0.0019 0.8531
vn -0.0000 -0.0025 1.0000
vn 0.4847 -0.0020 0.8747
vn 0.5217 -0.0019 0.8531
vn 0.8545 -0.0018 0.5195
vn 0.8909 -0.0019 0.4542
vn 0.9998 -0.0020 0.0220
vn 0.9978 -0.0019 -0.0666
vn 0.8742 -0.0013 -0.4856
vn 0.8322 -0.0012 -0.5545
vn 0.5076 -0.0005 -0.8616
vn 0.4640 -0.0004 -0.8858
vn -0.0000 -0.0001 -1.0000
vn 0.3885 0.9215 -0.0000
vn 0.8462 0.5328 -0.0000
vn 0.9606 -0.2781 -0.0000
vn 0.6182 -0.7860 -0.0000
vn 0.2811 -0.9597 -0.0000
vn -0.2811 -0.9597 -0.0000
vn -0.6182 -0.7860 -0.0000
vn -0.9606 -0.2781 -0.0000
vn -0.8462 0.5328 -0.0000
vn -0.3885 0.9215 -0.0000
vn 0.8742 -0.0013 0.4855
vn 0.5076 -0.0005 0.8616
vn 0.4640 -0.0004 0.8858
vn 0.8322 -0.0012 0.5545
vn 0.9998 -0.0020 -0.0220
vn 0.9978 -0.0019 0.0666
vn 0.8545 -0.0018 -0.5194
vn 0.8909 -0.0019 -0.4541
vn 0.4846 -0.0020 -0.8747
vn 0.5217 -0.0019 -0.8531
vn -0.0000 -0.0025 -1.0000
vn -0.4846 -0.0020 -0.8747
vn -0.5217 -0.0020 -0.8531
vn -0.8545 -0.0018 -0.5195
vn -0.8909 -0.0019 -0.4542
vn -0.9998 -0.0020 -0.0220
vn -0.9978 -0.0019 0.0666
vn -0.8742 -0.0013 0.4856
vn -0.8322 -0.0012 0.5545
vn -0.5076 -0.0005 0.8616
vn -0.4640 -0.0004 0.8858
vn -0.0000 -0.0001 1.0000
vt -19.243526 0.053355
vt -19.231445 0.053355
vt -19.231445 0.133838
vt -19.243526 0.133838
vt -19.260029 0.053355
vt -19.260029 0.133838
vt -19.276531 0.053355
vt -19.276531 0.133838
vt -19.288612 0.053355
vt -19.288612 0.133838
vt -19.151155 0.131045
vt -19.166513 0.131045
vt -19.166513 0.056147
vt -19.151155 0.056147
vt -19.135798 0.131045
vt -19.135798 0.056147
vt -19.162714 0.320722
vt -19.174795 0.320722
vt -19.174795 0.240238
vt -19.162714 0.240238
vt -19.146212 0.320722
vt -19.146212 0.240238
vt -19.129709 0.320722
vt -19.129709 0.240238
vt -19.117628 0.320722
vt -19.117628 0.240238
vt -19.254496 0.243032
vt -19.239138 0.243032
vt -19.239138 0.317930
vt -19.254496 0.317930
vt -19.269854 0.243032
vt -19.269854 0.317930
vt -19.832111 0.762458
vt -19.820740 0.755893
vt -19.814495 0.762137
vt -19.821060 0.773507
vt -19.836155 0.747365
vt -19.823025 0.747365
vt -19.832111 0.732271
vt -19.820740 0.738836
vt -19.821060 0.721222
vt -19.814495 0.732593
vt -19.805967 0.717177
vt -19.805967 0.730307
vt -19.790874 0.721222
vt -19.797440 0.732593
vt -19.779825 0.732271
vt -19.791195 0.738836
vt -19.775780 0.747365
vt -19.788910 0.747365
vt -19.779825 0.762458
vt -19.791195 0.755893
vt -19.790874 0.773507
vt -19.797440 0.762137
vt -19.805967 0.777552
vt -19.805967 0.764421
vt -19.814869 0.463356
vt -19.783556 0.463356
vt -19.779724 0.470018
vt -19.814869 0.470018
vt -19.814869 0.454257
vt -19.788790 0.454257
vt -19.814869 0.445158
vt -19.794022 0.445158
vt -19.814869 0.438497
vt -19.797853 0.438497
vt -19.324123 0.752986
vt -19.309242 0.752986
vt -19.307907 0.761633
vt -19.324123 0.761658
vt -19.324123 0.744313
vt -19.307907 0.744339
vt -19.691801 0.445159
vt -19.712646 0.445159
vt -19.708817 0.438498
vt -19.691801 0.438498
vt -19.691801 0.454258
vt -19.717880 0.454258
vt -19.691801 0.463357
vt -19.723114 0.463357
vt -19.691801 0.470018
vt -19.726944 0.470018
vt -19.508429 0.907794
vt -19.508429 0.872941
vt -19.499777 0.874278
vt -19.499750 0.907794
vt -19.517107 0.907794
vt -19.517080 0.874278
vt -19.441126 0.165829
vt -19.434675 0.159360
vt -19.434673 0.383833
vt -19.441124 0.377364
vt -19.717880 0.204916
vt -19.712646 0.214015
vt -19.723114 0.195816
vt -19.946270 0.465030
vt -19.952713 0.471491
vt -19.952711 0.199056
vt -19.946270 0.205517
vt -19.961512 0.473856
vt -19.961512 0.196692
vt -19.970312 0.471491
vt -19.970310 0.199056
vt -19.976753 0.465030
vt -19.976751 0.205517
vt -19.788790 0.204916
vt -19.783556 0.195817
vt -19.794022 0.214015
vt -19.465195 0.159360
vt -19.458744 0.165829
vt -19.458744 0.377364
vt -19.465193 0.383833
vt -19.449934 0.168124
vt -19.449934 0.375069
vt -19.379280 0.676722
vt -19.391359 0.676722
vt -19.391359 0.596238
vt -19.379280 0.596238
vt -19.362774 0.676722
vt -19.362774 0.596238
vt -19.346272 0.676722
vt -19.346272 0.596238
vt -19.334192 0.676722
vt -19.334192 0.596238
vt -19.471056 0.715012
vt -19.455698 0.715012
vt -19.455698 0.789910
vt -19.471056 0.789910
vt -19.486414 0.715012
vt -19.486414 0.789910
vt -19.562838 0.712219
vt -19.550756 0.712219
vt -19.550756 0.792703
vt -19.562838 0.792703
vt -19.579340 0.712219
vt -19.579340 0.792703
vt -19.595842 0.712219
vt -19.595842 0.792703
vt -19.607924 0.712219
vt -19.607924 0.792703
vt -19.687620 0.789910
vt -19.702978 0.789910
vt -19.702978 0.715011
vt -19.687620 0.715011
vt -19.672262 0.789910
vt -19.672262 0.715011
vt -19.938128 0.875161
vt -19.931561 0.886533
vt -19.937805 0.892776
vt -19.949177 0.886211
vt -19.923033 0.871117
vt -19.923033 0.884247
vt -19.907940 0.875161
vt -19.914505 0.886533
vt -19.896889 0.886211
vt -19.908260 0.892776
vt -19.892845 0.901305
vt -19.905975 0.901305
vt -19.896889 0.916398
vt -19.908260 0.909833
vt -19.907940 0.927448
vt -19.914505 0.916076
vt -19.923033 0.931492
vt -19.923033 0.918362
vt -19.938128 0.927448
vt -19.931561 0.916076
vt -19.949177 0.916398
vt -19.937805 0.909833
vt -19.953220 0.901305
vt -19.940090 0.901305
vt -19.691801 0.195816
vt -19.726944 0.189156
vt -19.691801 0.189156
vt -19.691801 0.204916
vt -19.691801 0.214015
vt -19.691801 0.220676
vt -19.708817 0.220676
vt -19.261251 0.396987
vt -19.276134 0.396986
vt -19.277472 0.388339
vt -19.261251 0.388313
vt -19.261251 0.405660
vt -19.277472 0.405634
vt -19.814869 0.214015
vt -19.797853 0.220676
vt -19.814869 0.220676
vt -19.814869 0.204916
vt -19.814869 0.195817
vt -19.814869 0.189156
vt -19.779724 0.189156
vt -19.459980 0.872940
vt -19.459980 0.907794
vt -19.468632 0.906456
vt -19.468658 0.872940
vt -19.451302 0.872940
vt -19.451328 0.906456
vt -19.792885 0.907781
vt -19.781836 0.896732
vt -19.775272 0.908103
vt -19.781513 0.914346
vt -19.796928 0.922874
vt -19.783800 0.922874
vt -19.792885 0.937968
vt -19.781513 0.931402
vt -19.781836 0.949017
vt -19.775272 0.937646
vt -19.766743 0.953062
vt -19.766743 0.939931
vt -19.751650 0.949017
vt -19.758213 0.937646
vt -19.740601 0.937968
vt -19.751972 0.931402
vt -19.736557 0.922874
vt -19.749685 0.922874
vt -19.740601 0.907781
vt -19.751972 0.914346
vt -19.751650 0.896732
vt -19.758213 0.908103
vt -19.766743 0.892687
vt -19.766743 0.905818
vt -19.603897 0.463358
vt -19.603897 0.470020
vt -19.639027 0.470020
vt -19.635199 0.463358
vt -19.603897 0.454259
vt -19.629967 0.454259
vt -19.603897 0.445160
vt -19.624735 0.445160
vt -19.603897 0.438499
vt -19.620907 0.438499
vt -19.214609 0.396987
vt -19.214609 0.405660
vt -19.230822 0.405635
vt -19.229486 0.396987
vt -19.214609 0.388313
vt -19.230822 0.388340
vt -19.551102 0.445159
vt -19.551102 0.438498
vt -19.534092 0.438498
vt -19.530264 0.445159
vt -19.551102 0.454258
vt -19.525032 0.454258
vt -19.551102 0.463358
vt -19.519802 0.463358
vt -19.551102 0.470019
vt -19.515972 0.470019
vt -19.411531 0.872931
vt -19.402853 0.872931
vt -19.402880 0.906436
vt -19.411531 0.907773
vt -19.420210 0.872931
vt -19.420183 0.906436
vt -19.360378 0.377362
vt -19.360378 0.165829
vt -19.353930 0.159360
vt -19.353930 0.383830
vt -19.530264 0.214014
vt -19.525032 0.204915
vt -19.519802 0.195816
vt -19.867140 0.205523
vt -19.867138 0.465027
vt -19.873579 0.471487
vt -19.873581 0.199062
vt -19.882380 0.473852
vt -19.882380 0.196697
vt -19.891178 0.471487
vt -19.891180 0.199062
vt -19.897619 0.465027
vt -19.897621 0.205523
vt -19.635199 0.195815
vt -19.629967 0.204915
vt -19.624735 0.214014
vt -19.384447 0.383830
vt -19.384447 0.159360
vt -19.377996 0.165829
vt -19.377998 0.377362
vt -19.369188 0.168123
vt -19.369188 0.375067
vt -19.595539 0.896730
vt -19.584490 0.907780
vt -19.595861 0.914345
vt -19.602102 0.908102
vt -19.610634 0.892686
vt -19.610634 0.905817
vt -19.625727 0.896730
vt -19.619162 0.908102
vt -19.636776 0.907780
vt -19.625402 0.914345
vt -19.640820 0.922874
vt -19.627689 0.922874
vt -19.636776 0.937967
vt -19.625402 0.931402
vt -19.625727 0.949016
vt -19.619162 0.937645
vt -19.610634 0.953061
vt -19.610634 0.939931
vt -19.595539 0.949016
vt -19.602102 0.937645
vt -19.584490 0.937967
vt -19.595861 0.931402
vt -19.580444 0.922874
vt -19.593575 0.922874
vt -19.551102 0.195816
vt -19.551102 0.189155
vt -19.515972 0.189155
vt -19.551102 0.204915
vt -19.551102 0.214014
vt -19.551102 0.220675
vt -19.534092 0.220675
vt -19.184166 0.396987
vt -19.184166 0.388313
vt -19.167953 0.388339
vt -19.169291 0.396986
vt -19.184166 0.405660
vt -19.167953 0.405633
vt -19.603897 0.214014
vt -19.603897 0.220675
vt -19.620907 0.220675
vt -19.603897 0.204915
vt -19.603897 0.195815
vt -19.603897 0.189154
vt -19.639027 0.189154
vt -19.363083 0.791790
vt -19.371761 0.791790
vt -19.371735 0.758286
vt -19.363083 0.756949
vt -19.354404 0.791790
vt -19.354431 0.758286
s 1
usemtl M_DoorwayHandle_3_0
f 14/1/1 13/2/2 85/3/2 86/4/1
f 15/5/3 14/1/1 86/4/1 87/6/3
f 16/7/4 15/5/3 87/6/3 88/8/4
f 17/9/5 16/7/4 88/8/4 89/10/5
f 18/11/6 17/12/5 89/13/5 90/14/6
f 19/15/7 18/11/6 90/14/6 91/16/7
f 20/17/8 19/18/7 91/19/7 92/20/8
f 21/21/9 20/17/8 92/20/8 93/22/9
f 22/23/10 21/21/9 93/22/9 94/24/10
f 23/25/11 22/23/10 94/24/10 95/26/11
f 24/27/12 23/28/11 95/29/11 96/30/12
f 13/31/2 24/27/12 96/30/12 85/32/2
f 14/33/13 26/34/13 25/35/13 13/36/13
f 15/37/13 27/38/13 26/34/13 14/33/13
f 16/39/13 28/40/13 27/38/13 15/37/13
f 17/41/13 29/42/13 28/40/13 16/39/13
f 18/43/13 30/44/13 29/42/13 17/41/13
f 19/45/13 31/46/13 30/44/13 18/43/13
f 20/47/13 32/48/13 31/46/13 19/45/13
f 21/49/13 33/50/13 32/48/13 20/47/13
f 22/51/13 34/52/13 33/50/13 21/49/13
f 23/53/13 35/54/13 34/52/13 22/51/13
f 24/55/13 36/56/13 35/54/13 23/53/13
f 13/36/13 25/35/13 36/56/13 24/55/13
f 26/57/14 4/58/15 5/59/16 25/60/17
f 27/61/18 3/62/19 4/58/15 26/57/14
f 28/63/20 2/64/21 3/62/19 27/61/18
f 29/65/22 1/66/23 2/64/21 28/63/20
f 30/67/24 12/68/24 1/69/23 29/70/22
f 31/71/25 11/72/26 12/68/24 30/67/24
f 32/73/27 10/74/28 11/75/26 31/76/25
f 33/77/29 9/78/30 10/74/28 32/73/27
f 34/79/31 8/80/32 9/78/30 33/77/29
f 35/81/33 7/82/34 8/80/32 34/79/31
f 36/83/35 6/84/35 7/85/34 35/86/33
f 25/87/17 5/88/16 6/84/35 36/83/35
f 11/89/36 10/90/37 38/91/37 37/92/36
f 10/74/37 9/78/38 39/93/38 38/94/37
f 9/78/38 8/80/39 40/95/39 39/93/38
f 8/96/39 7/97/40 41/98/40 40/99/39
f 7/97/40 6/100/13 42/101/13 41/98/40
f 6/100/13 5/102/41 43/103/41 42/101/13
f 5/102/41 4/104/42 44/105/42 43/103/41
f 4/58/42 3/62/43 45/106/43 44/107/42
f 3/62/43 2/64/44 46/108/44 45/106/43
f 2/109/44 1/110/45 47/111/45 46/112/44
f 1/110/45 12/113/46 48/114/46 47/111/45
f 12/113/46 11/89/36 37/92/36 48/114/46
f 50/115/8 49/116/7 121/117/7 122/118/8
f 51/119/9 50/115/8 122/118/8 123/120/9
f 52/121/10 51/119/9 123/120/9 124/122/10
f 53/123/11 52/121/10 124/122/10 125/124/11
f 54/125/12 53/126/11 125/127/11 126/128/12
f 55/129/2 54/125/12 126/128/12 127/130/2
f 56/131/1 55/132/2 127/133/2 128/134/1
f 57/135/3 56/131/1 128/134/1 129/136/3
f 58/137/4 57/135/3 129/136/3 130/138/4
f 59/139/5 58/137/4 130/138/4 131/140/5
f 60/141/6 59/142/5 131/143/5 132/144/6
f 49/145/7 60/141/6 132/144/6 121/146/7
f 50/147/13 62/148/13 61/149/13 49/150/13
f 51/151/13 63/152/13 62/148/13 50/147/13
f 52/153/13 64/154/13 63/152/13 51/151/13
f 53/155/13 65/156/13 64/154/13 52/153/13
f 54/157/13 66/158/13 65/156/13 53/155/13
f 55/159/13 67/160/13 66/158/13 54/157/13
f 56/161/13 68/162/13 67/160/13 55/159/13
f 57/163/13 69/164/13 68/162/13 56/161/13
f 58/165/13 70/166/13 69/164/13 57/163/13
f 59/167/13 71/168/13 70/166/13 58/165/13
f 60/169/13 72/170/13 71/168/13 59/167/13
f 49/150/13 61/149/13 72/170/13 60/169/13
f 62/171/47 40/95/48 41/172/49 61/173/50
f 63/174/51 39/93/52 40/95/48 62/171/47
f 64/175/53 38/94/54 39/93/52 63/174/51
f 65/176/55 37/177/56 38/94/54 64/175/53
f 66/178/57 48/179/57 37/180/56 65/181/55
f 67/182/58 47/183/59 48/179/57 66/178/57
f 68/184/60 46/108/61 47/185/59 67/186/58
f 69/187/62 45/106/63 46/108/61 68/184/60
f 70/188/64 44/107/65 45/106/63 69/187/62
f 71/189/66 43/190/67 44/107/65 70/188/64
f 72/191/68 42/192/68 43/193/67 71/194/66
f 61/195/50 41/196/49 42/192/68 72/191/68
f 86/197/46 85/198/46 97/199/46 98/200/46
f 87/201/46 86/197/46 98/200/46 99/202/46
f 88/203/46 87/201/46 99/202/46 100/204/46
f 89/205/46 88/203/46 100/204/46 101/206/46
f 90/207/46 89/205/46 101/206/46 102/208/46
f 91/209/46 90/207/46 102/208/46 103/210/46
f 92/211/46 91/209/46 103/210/46 104/212/46
f 93/213/46 92/211/46 104/212/46 105/214/46
f 94/215/46 93/213/46 105/214/46 106/216/46
f 95/217/46 94/215/46 106/216/46 107/218/46
f 96/219/46 95/217/46 107/218/46 108/220/46
f 85/198/46 96/219/46 108/220/46 97/199/46
f 98/221/69 97/222/70 77/223/71 76/224/72
f 99/225/73 98/221/69 76/224/72 75/226/74
f 100/227/75 99/225/73 75/226/74 74/228/76
f 101/229/77 100/227/75 74/228/76 73/230/78
f 102/231/79 101/232/77 73/233/78 84/234/79
f 103/235/80 102/231/79 84/234/79 83/236/81
f 104/237/82 103/238/80 83/239/81 82/240/83
f 105/241/84 104/237/82 82/240/83 81/242/85
f 106/243/86 105/241/84 81/242/85 80/244/87
f 107/245/88 106/243/86 80/244/87 79/246/89
f 108/247/90 107/248/88 79/249/89 78/250/90
f 97/251/70 108/247/90 78/250/90 77/252/71
f 83/253/91 109/254/91 110/255/92 82/256/92
f 82/240/92 110/257/92 111/258/93 81/242/93
f 81/242/93 111/258/93 112/259/94 80/244/94
f 80/260/94 112/261/94 113/262/95 79/263/95
f 79/263/95 113/262/95 114/264/46 78/265/46
f 78/265/46 114/264/46 115/266/96 77/267/96
f 77/267/96 115/266/96 116/268/97 76/269/97
f 76/224/97 116/270/97 117/271/98 75/226/98
f 75/226/98 117/271/98 118/272/99 74/228/99
f 74/273/99 118/274/99 119/275/100 73/276/100
f 73/276/100 119/275/100 120/277/13 84/278/13
f 84/278/13 120/277/13 109/254/91 83/253/91
f 122/279/46 121/280/46 133/281/46 134/282/46
f 123/283/46 122/279/46 134/282/46 135/284/46
f 124/285/46 123/283/46 135/284/46 136/286/46
f 125/287/46 124/285/46 136/286/46 137/288/46
f 126/289/46 125/287/46 137/288/46 138/290/46
f 127/291/46 126/289/46 138/290/46 139/292/46
f 128/293/46 127/291/46 139/292/46 140/294/46
f 129/295/46 128/293/46 140/294/46 141/296/46
f 130/297/46 129/295/46 141/296/46 142/298/46
f 131/299/46 130/297/46 142/298/46 143/300/46
f 132/301/46 131/299/46 143/300/46 144/302/46
f 121/280/46 132/301/46 144/302/46 133/281/46
f 134/303/101 133/304/102 113/305/103 112/259/104
f 135/306/105 134/303/101 112/259/104 111/258/106
f 136/307/107 135/306/105 111/258/106 110/257/108
f 137/308/109 136/307/107 110/257/108 109/309/110
f 138/310/111 137/311/109 109/312/110 120/313/111
f 139/314/112 138/310/111 120/313/111 119/315/113
f 140/316/114 139/317/112 119/318/113 118/272/115
f 141/319/116 140/316/114 118/272/115 117/271/117
f 142/320/118 141/319/116 117/271/117 116/270/119
f 143/321/120 142/320/118 116/270/119 115/322/121
f 144/323/122 143/324/120 115/325/121 114/326/122
f 133/327/102 144/323/122 114/326/122 113/328/103
