# Blender 4.1.1
# www.blender.org
mtllib DoormeshMicrowaveDoorC2_1_GeomSubset_7.mtl
o DoormeshMicrowaveDoorC2_1_GeomSubset_7
v -0.255492 -0.163419 0.126819
v 0.169154 -0.163419 0.127877
v -0.255492 -0.163419 -0.070218
v 0.169154 -0.163419 -0.071277
v -0.255492 -0.163056 0.126819
v 0.169154 -0.163056 0.127877
v -0.255492 -0.163056 -0.070218
v 0.169154 -0.163056 -0.071277
vn -0.0000 -1.0000 -0.0000
vn -0.0000 1.0000 -0.0000
vt 8.468035 2.772326
vt 6.530731 -1.368670
vt 6.530731 2.772326
vt 6.530731 -1.368669
vt 8.468035 2.772327
vt 6.530731 2.772327
vt 8.468035 -1.368670
vt 8.468035 -1.368669
s 1
usemtl M_MicrowaveDoorC2_7
f 3/1/1 2/2/1 1/3/1
f 6/4/2 7/5/2 5/6/2
f 3/1/1 4/7/1 2/2/1
f 6/4/2 8/8/2 7/5/2
