# Blender 4.1.1
# www.blender.org
mtllib DoormeshMicrowaveDoorC2_1_GeomSubset_2.mtl
o DoormeshMicrowaveDoorC2_1_GeomSubset_2
v -0.000041 -0.008155 -0.187187
v -0.000031 -0.008155 -0.187187
v -0.000041 -0.008145 -0.187187
v -0.000031 -0.008145 -0.187187
v -0.284561 -0.127008 -0.110922
v -0.284145 -0.123911 -0.110922
v -0.284946 -0.120891 -0.110922
v -0.286842 -0.118407 -0.110922
v -0.289544 -0.116837 -0.110922
v -0.292641 -0.116422 -0.110922
v -0.295662 -0.117223 -0.110922
v -0.284561 -0.127008 -0.108886
v -0.284145 -0.123911 -0.108886
v -0.284946 -0.120891 -0.108886
v -0.286842 -0.118407 -0.108886
v -0.289544 -0.116837 -0.108886
v -0.292641 -0.116422 -0.108886
v -0.295662 -0.117223 -0.108886
v -0.290088 -0.125475 -0.110922
v -0.289957 -0.124503 -0.110922
v -0.290209 -0.123556 -0.110922
v -0.290803 -0.122777 -0.110922
v -0.291651 -0.122284 -0.110922
v -0.292623 -0.122154 -0.110922
v -0.293570 -0.122405 -0.110922
v -0.290088 -0.125475 -0.108886
v -0.289957 -0.124503 -0.108886
v -0.290209 -0.123556 -0.108886
v -0.290803 -0.122777 -0.108886
v -0.291651 -0.122284 -0.108886
v -0.292623 -0.122154 -0.108886
v -0.293570 -0.122405 -0.108886
v -0.284561 -0.127008 0.127768
v -0.284145 -0.123911 0.127768
v -0.284946 -0.120891 0.127768
v -0.286842 -0.118407 0.127768
v -0.289544 -0.116837 0.127768
v -0.292641 -0.116422 0.127768
v -0.295662 -0.117223 0.127768
v -0.284561 -0.127008 0.129822
v -0.284145 -0.123911 0.129822
v -0.284946 -0.120891 0.129822
v -0.286842 -0.118407 0.129822
v -0.289544 -0.116837 0.129822
v -0.292641 -0.116422 0.129822
v -0.295662 -0.117223 0.129822
v -0.290088 -0.125475 0.127768
v -0.289957 -0.124503 0.127768
v -0.290209 -0.123556 0.127768
v -0.290803 -0.122777 0.127768
v -0.291651 -0.122284 0.127768
v -0.292623 -0.122154 0.127768
v -0.293570 -0.122405 0.127768
v -0.290088 -0.125475 0.129822
v -0.289957 -0.124503 0.129822
v -0.290209 -0.123556 0.129822
v -0.290803 -0.122777 0.129822
v -0.291651 -0.122284 0.129822
v -0.292623 -0.122154 0.129822
v -0.293570 -0.122405 0.129822
vn -0.0000 -0.0000 1.0000
vn 0.9911 -0.1331 -0.0000
vn 0.9980 0.0628 -0.0000
vn 0.8980 0.4400 -0.0000
vn 0.6613 0.7501 -0.0000
vn 0.3238 0.9461 -0.0000
vn -0.0629 0.9980 -0.0000
vn -0.2563 0.9666 -0.0000
vn -0.0000 -0.0000 -1.0000
vn -0.2673 -0.9636 -0.0000
vn -0.9980 -0.0630 -0.0000
vn -0.9911 0.1328 -0.0000
vn -0.9912 0.1327 -0.0000
vn -0.8979 -0.4402 -0.0000
vn -0.6616 -0.7499 -0.0000
vn -0.8979 -0.4401 -0.0000
vn -0.3238 -0.9461 -0.0000
vn -0.6616 -0.7498 -0.0000
vn 0.0630 -0.9980 -0.0000
vn 0.2562 -0.9666 -0.0000
vn -0.9273 -0.3743 -0.0000
vn -0.9910 0.1336 -0.0000
vn -0.9910 0.1335 -0.0000
vn -0.9273 -0.3744 -0.0000
vt 1.000000 0.000000
vt 0.000000 1.000000
vt 0.000000 0.000000
vt -0.337084 1.165514
vt -0.158383 0.893610
vt -0.158383 1.165514
vt -0.337084 0.893610
vt -0.158383 0.628460
vt -0.337084 0.628460
vt -0.158383 0.410386
vt -0.337084 0.410386
vt -0.158383 0.272627
vt -0.547877 0.272627
vt -0.726578 0.544515
vt -0.726578 0.272627
vt -0.547877 0.544515
vt -0.726578 0.809672
vt -0.747553 -0.711814
vt -0.527659 -0.238087
vt -0.612981 -0.226637
vt -0.475651 -0.748309
vt -0.444474 -0.216025
vt 0.007572 -0.511562
vt -0.210499 -0.677995
vt 0.145332 -0.274350
vt -0.376076 -0.163820
vt 0.181836 -0.002463
vt -0.332834 -0.089392
vt 0.111529 0.262695
vt -0.321403 -0.004095
vt 1.128025 -0.711814
vt 0.908129 -0.238087
vt 0.856121 -0.748309
vt 0.268941 0.262695
vt 0.701873 -0.004095
vt 0.723914 0.079102
vt 0.198636 -0.002463
vt 0.713305 -0.089392
vt 0.235138 -0.274350
vt 0.756546 -0.163820
vt 0.372898 -0.511562
vt 0.824944 -0.216025
vt 0.590971 -0.677995
vt -0.369525 1.660622
vt -0.548227 1.175445
vt -0.369526 1.175445
vt 0.416137 1.378886
vt 0.237434 1.293563
vt 0.416137 1.293563
vt 0.416137 1.462071
vt 0.237434 1.378886
vt 0.416137 1.530469
vt 0.237434 1.462071
vt 0.416137 1.573710
vt 0.237434 1.530469
vt 0.897753 1.472266
vt 0.983051 1.293563
vt 0.983051 1.472266
vt 0.814556 1.472266
vt 0.897753 1.293563
vt 0.023304 1.748536
vt -0.155397 1.293563
vt 0.023306 1.293563
vt -0.532610 1.165513
vt -0.352351 0.893610
vt -0.352351 1.165513
vt -0.532610 0.893610
vt -0.352351 0.628459
vt -0.532610 0.628459
vt -0.352351 0.410388
vt -0.532610 0.410388
vt -0.352351 0.272627
vt -0.567295 0.819605
vt -0.747553 1.091492
vt -0.747553 0.819605
vt -0.567295 1.091492
vt -0.747553 1.356650
vt 0.801540 0.309122
vt 1.021434 0.782849
vt 0.936113 0.794299
vt 1.073442 0.272627
vt 1.104619 0.804911
vt 1.556665 0.509374
vt 1.338594 0.342942
vt 1.694426 0.746586
vt 1.173018 0.857116
vt 1.730929 1.018473
vt 1.216260 0.931544
vt 1.660622 1.283631
vt 1.227691 1.016841
vt 0.786273 0.309122
vt 0.566377 0.782849
vt 0.514369 0.272627
vt -0.072811 1.283631
vt 0.360121 1.016841
vt 0.382162 1.100038
vt -0.143116 1.018473
vt 0.371553 0.931544
vt -0.106614 0.746586
vt 0.414794 0.857116
vt 0.031146 0.509374
vt 0.483192 0.804911
vt 0.249219 0.342942
vt -0.173978 1.660622
vt -0.354237 1.175445
vt -0.173978 1.175445
vt 0.611683 1.378884
vt 0.431425 1.293563
vt 0.611683 1.293563
vt 0.611683 1.462070
vt 0.431425 1.378884
vt 0.611683 1.530468
vt 0.431425 1.462070
vt 0.611683 1.573710
vt 0.431425 1.530468
vt 0.713462 1.473821
vt 0.798760 1.293563
vt 0.798760 1.473821
vt 0.630265 1.473821
vt 0.713462 1.293563
vt 0.218852 1.748536
vt 0.038594 1.293563
vt 0.218852 1.293563
vt 1.000000 1.000000
vt -0.337084 0.272627
vt -0.547877 0.809672
vt -0.343444 0.079102
vt 0.993452 -0.226637
vt -0.548227 1.660622
vt 0.237434 1.573710
vt 0.814556 1.293563
vt -0.155397 1.748536
vt -0.532610 0.272627
vt -0.567295 1.356650
vt 1.205649 1.100038
vt 0.651700 0.794299
vt -0.354237 1.660622
vt 0.431425 1.573710
vt 0.630265 1.293563
vt 0.038594 1.748536
s 1
usemtl M_MicrowaveDoorC2_2
f 2/1/1 3/2/1 1/3/1
f 5/4/2 13/5/3 12/6/2
f 6/7/3 14/8/4 13/5/3
f 7/9/4 15/10/5 14/8/4
f 8/11/5 16/12/6 15/10/5
f 9/13/6 17/14/7 16/15/6
f 10/16/7 18/17/8 17/14/7
f 12/18/1 27/19/1 26/20/1
f 13/21/1 28/22/1 27/19/1
f 15/23/1 28/22/1 14/24/1
f 16/25/1 29/26/1 15/23/1
f 17/27/1 30/28/1 16/25/1
f 18/29/1 31/30/1 17/27/1
f 5/31/9 20/32/9 6/33/9
f 11/34/9 24/35/9 25/36/9
f 10/37/9 23/38/9 24/35/9
f 9/39/9 22/40/9 23/38/9
f 8/41/9 21/42/9 22/40/9
f 6/33/9 21/42/9 7/43/9
f 26/44/10 5/45/10 12/46/10
f 27/47/11 19/48/12 26/49/13
f 28/50/14 20/51/11 27/47/11
f 29/52/15 21/53/16 28/50/14
f 30/54/17 22/55/18 29/52/15
f 31/56/19 23/57/17 30/58/17
f 32/59/20 24/60/19 31/56/19
f 18/61/21 25/62/21 32/63/21
f 33/64/2 41/65/3 40/66/2
f 34/67/3 42/68/4 41/65/3
f 35/69/4 43/70/5 42/68/4
f 36/71/5 44/72/6 43/70/5
f 37/73/6 45/74/7 44/75/6
f 38/76/7 46/77/8 45/74/7
f 40/78/1 55/79/1 54/80/1
f 41/81/1 56/82/1 55/79/1
f 43/83/1 56/82/1 42/84/1
f 44/85/1 57/86/1 43/83/1
f 45/87/1 58/88/1 44/85/1
f 46/89/1 59/90/1 45/87/1
f 33/91/9 48/92/9 34/93/9
f 39/94/9 52/95/9 53/96/9
f 38/97/9 51/98/9 52/95/9
f 37/99/9 50/100/9 51/98/9
f 36/101/9 49/102/9 50/100/9
f 34/93/9 49/102/9 35/103/9
f 54/104/10 33/105/10 40/106/10
f 55/107/11 47/108/22 54/109/23
f 56/110/14 48/111/11 55/107/11
f 57/112/18 49/113/16 56/110/14
f 58/114/17 50/115/18 57/112/18
f 59/116/19 51/117/17 58/118/17
f 60/119/20 52/120/19 59/116/19
f 46/121/24 53/122/21 60/123/21
f 2/1/1 4/124/1 3/2/1
f 5/4/2 6/7/3 13/5/3
f 6/7/3 7/9/4 14/8/4
f 7/9/4 8/11/5 15/10/5
f 8/11/5 9/125/6 16/12/6
f 9/13/6 10/16/7 17/14/7
f 10/16/7 11/126/8 18/17/8
f 12/18/1 13/21/1 27/19/1
f 13/21/1 14/24/1 28/22/1
f 15/23/1 29/26/1 28/22/1
f 16/25/1 30/28/1 29/26/1
f 17/27/1 31/30/1 30/28/1
f 18/29/1 32/127/1 31/30/1
f 5/31/9 19/128/9 20/32/9
f 11/34/9 10/37/9 24/35/9
f 10/37/9 9/39/9 23/38/9
f 9/39/9 8/41/9 22/40/9
f 8/41/9 7/43/9 21/42/9
f 6/33/9 20/32/9 21/42/9
f 26/44/10 19/129/10 5/45/10
f 27/47/11 20/51/11 19/48/12
f 28/50/14 21/53/16 20/51/11
f 29/52/15 22/55/18 21/53/16
f 30/54/17 23/130/17 22/55/18
f 31/56/19 24/60/19 23/57/17
f 32/59/20 25/131/20 24/60/19
f 18/61/21 11/132/24 25/62/21
f 33/64/2 34/67/3 41/65/3
f 34/67/3 35/69/4 42/68/4
f 35/69/4 36/71/5 43/70/5
f 36/71/5 37/133/6 44/72/6
f 37/73/6 38/76/7 45/74/7
f 38/76/7 39/134/8 46/77/8
f 40/78/1 41/81/1 55/79/1
f 41/81/1 42/84/1 56/82/1
f 43/83/1 57/86/1 56/82/1
f 44/85/1 58/88/1 57/86/1
f 45/87/1 59/90/1 58/88/1
f 46/89/1 60/135/1 59/90/1
f 33/91/9 47/136/9 48/92/9
f 39/94/9 38/97/9 52/95/9
f 38/97/9 37/99/9 51/98/9
f 37/99/9 36/101/9 50/100/9
f 36/101/9 35/103/9 49/102/9
f 34/93/9 48/92/9 49/102/9
f 54/104/10 47/137/10 33/105/10
f 55/107/11 48/111/11 47/108/22
f 56/110/14 49/113/16 48/111/11
f 57/112/18 50/115/18 49/113/16
f 58/114/17 51/138/17 50/115/18
f 59/116/19 52/120/19 51/117/17
f 60/119/20 53/139/20 52/120/19
f 46/121/24 39/140/24 53/122/21
