# Blender 4.1.1
# www.blender.org
mtllib DrawermeshDresserDrawer_319_5_8.mtl
o DresserDrawer_319_5
v -0.008413 -0.216932 -0.074248
v -0.008414 -0.233915 -0.074248
v -0.008414 -0.233915 0.078811
v -0.008413 -0.216932 0.078811
v -0.012060 -0.237138 -0.074248
v -0.744153 -0.237135 -0.074248
v -0.744153 -0.237135 0.078811
v -0.012060 -0.237138 0.078811
v -0.012060 -0.216932 0.082084
v -0.012060 -0.233915 0.082084
v -0.744153 -0.233911 0.082084
v -0.744153 -0.216928 0.082084
v -0.744153 -0.216928 -0.077521
v -0.744153 -0.233911 -0.077521
v -0.012060 -0.233915 -0.077521
v -0.012060 -0.216932 -0.077521
v -0.747799 -0.216928 0.078811
v -0.747799 -0.233911 0.078811
v -0.747799 -0.233911 -0.074248
v -0.747799 -0.216928 -0.074248
v -0.394798 -0.244322 0.002416
v -0.394798 -0.249204 0.002416
v -0.389776 -0.249204 -0.008468
v -0.389776 -0.244322 -0.008468
v -0.389776 -0.244322 0.013300
v -0.389776 -0.249204 0.013300
v -0.377652 -0.241708 0.010673
v -0.377652 -0.244322 0.017809
v -0.384156 -0.241708 0.008254
v -0.386850 -0.241708 0.002416
v -0.371148 -0.241708 0.008254
v -0.365527 -0.244322 0.013300
v -0.384156 -0.241708 -0.003423
v -0.377652 -0.244322 -0.012977
v -0.377652 -0.241708 -0.005841
v -0.365527 -0.244322 -0.008468
v -0.371148 -0.241708 -0.003423
v -0.360505 -0.244322 0.002416
v -0.368454 -0.241708 0.002416
v -0.384156 -0.236662 -0.003423
v -0.386849 -0.236662 0.002416
v -0.384156 -0.236662 0.008254
v -0.360505 -0.249204 0.002416
v -0.365528 -0.249204 0.013300
v -0.365528 -0.249204 -0.008468
v -0.377652 -0.236662 -0.005841
v -0.371149 -0.236662 -0.003423
v -0.377652 -0.249204 -0.012977
v -0.377652 -0.249204 0.017809
v -0.368455 -0.236662 0.002416
v -0.371149 -0.236662 0.008254
v -0.377652 -0.236662 0.010673
v -0.387485 -0.251848 0.011244
v -0.391559 -0.251844 0.002416
v -0.377652 -0.251848 0.014901
v -0.367818 -0.251848 0.011244
v -0.363744 -0.251844 0.002416
v -0.367818 -0.251848 -0.006412
v -0.377652 -0.251848 -0.010069
v -0.387485 -0.251848 -0.006413
v -0.012060 -0.213709 0.078811
v -0.744153 -0.213709 0.078811
v -0.012060 -0.213709 -0.074248
v -0.744153 -0.213709 -0.074248
v -0.737138 -0.213705 0.072514
v -0.737138 -0.213705 -0.067951
v -0.019075 -0.213709 0.072514
v -0.019075 -0.213709 -0.067951
v -0.019072 0.175757 -0.067951
v -0.019072 0.175757 0.072514
v -0.737137 0.175757 0.072514
v -0.737137 0.175757 -0.067951
v -0.028435 -0.205438 0.072514
v -0.028435 -0.205438 -0.060486
v -0.028434 0.167483 -0.060486
v -0.028434 0.167483 0.072514
v -0.727777 -0.205435 0.072514
v -0.727776 0.167490 0.072514
v -0.727777 -0.205435 -0.060486
v -0.727776 0.167490 -0.060486
vn 1.0000 -0.0001 -0.0000
vn -0.0000 -1.0000 -0.0000
vn -0.0000 -0.0000 1.0000
vn -0.0000 -0.0000 -1.0000
vn -1.0000 -0.0000 -0.0000
vn -0.8280 0.5607 0.0001
vn -0.6150 -0.3905 -0.6850
vn -0.9123 -0.4096 -0.0000
vn -0.5627 0.5389 -0.6268
vn -0.5627 0.5390 0.6268
vn -0.6150 -0.3908 0.6848
vn -0.0000 0.6527 0.7576
vn -0.0000 0.5197 0.8543
vn -0.4949 0.6716 0.5514
vn -0.7214 0.6926 0.0001
vn 0.4949 0.6717 0.5513
vn 0.5627 0.5389 0.6268
vn -0.4949 0.6717 -0.5512
vn -0.0000 0.5197 -0.8543
vn -0.0001 0.6527 -0.7576
vn 0.5627 0.5390 -0.6268
vn 0.4949 0.6716 -0.5514
vn 0.8280 0.5607 -0.0001
vn 0.7213 0.6926 -0.0001
vn -0.6680 -0.0000 -0.7441
vn -1.0000 0.0002 0.0001
vn -0.6679 -0.0000 0.7443
vn 0.6150 -0.3905 0.6850
vn 0.9123 -0.4096 -0.0000
vn 0.6150 -0.3908 -0.6849
vn 0.6678 -0.0000 -0.7443
vn -0.0002 -0.3733 -0.9277
vn 0.0002 -0.3736 0.9276
vn 1.0000 0.0002 -0.0000
vn 0.6680 0.0001 0.7442
vn -0.3951 -0.9186 -0.0004
vn -0.2768 -0.9101 0.3083
vn -0.0000 -0.9017 0.4325
vn 0.2768 -0.9100 0.3085
vn 0.3951 -0.9186 0.0004
vn 0.2768 -0.9101 -0.3083
vn -0.0000 -0.9017 -0.4324
vn -0.2768 -0.9100 -0.3086
vn 0.5333 0.6034 0.5930
vn 0.5333 0.6034 0.5928
vn -0.5327 0.6034 0.5934
vn 0.5333 0.6034 -0.5930
vn 0.5332 0.6033 -0.5930
vn -0.5327 0.6034 -0.5934
vn -0.5324 -0.6025 0.5946
vn -0.5325 -0.6025 -0.5945
vn 0.5332 -0.6034 0.5930
vn 0.5331 -0.6033 0.5932
vn 0.5332 -0.6033 0.5931
vn 0.5331 -0.6032 -0.5932
vn 0.5332 -0.6032 -0.5932
vn -0.6618 0.7496 -0.0000
vn -0.6619 0.7496 -0.0000
vn -0.6624 0.7492 -0.0000
vn -0.0000 0.7125 0.7016
vn -0.0000 0.7125 0.7017
vn -0.0000 0.7130 0.7012
vn -0.0000 0.7125 -0.7016
vn -0.0000 0.7126 -0.7015
vn -0.0000 0.7130 -0.7012
vn 0.6622 0.7493 -0.0000
vn -0.6624 -0.7491 -0.0000
vn -0.0000 -0.7131 0.7011
vn -0.0000 -0.7125 0.7016
vn -0.0000 -0.7135 0.7006
vn -0.0000 -0.7131 -0.7010
vn -0.0000 -0.7132 -0.7010
vn -0.0000 -0.7133 -0.7009
vn -0.0000 -0.7130 -0.7012
vn 0.6623 -0.7492 -0.0000
vn -0.6680 -0.0000 0.7441
vn 0.6680 -0.0000 0.7442
vn 0.6679 -0.0000 0.7442
vn 0.6680 -0.0000 0.7441
vn 0.6679 -0.0000 -0.7442
vn 0.6680 -0.0000 -0.7442
vn 0.6680 -0.0000 -0.7441
vn -0.0000 1.0000 -0.0003
vn -0.0003 1.0000 -0.0003
vn -0.0001 1.0000 -0.0000
vn 0.0001 1.0000 0.0002
vn -0.0000 1.0000 -0.0000
vn 1.0000 -0.0000 -0.0000
vt 0.930780 0.697857
vt 0.920516 0.788926
vt 0.920516 0.697857
vt 0.930780 0.788926
vt 0.339912 0.697857
vt 0.730948 0.788926
vt 0.730948 0.697857
vt 0.339912 0.788926
vt 0.930780 0.339912
vt 0.920516 0.730948
vt 0.920516 0.339912
vt 0.930780 0.730948
vt 0.914226 0.743471
vt 0.911276 0.736995
vt 0.911276 0.743471
vt 0.914226 0.736995
vt 0.914226 0.749947
vt 0.911276 0.749947
vt 0.535187 0.748384
vt 0.541663 0.749947
vt 0.535187 0.752630
vt 0.538661 0.746945
vt 0.544346 0.743471
vt 0.540100 0.743471
vt 0.531713 0.746945
vt 0.528711 0.749947
vt 0.541663 0.736995
vt 0.538661 0.739997
vt 0.535187 0.734313
vt 0.535187 0.738558
vt 0.528711 0.736995
vt 0.531713 0.739997
vt 0.526029 0.743471
vt 0.530274 0.743471
vt 0.915804 0.743471
vt 0.918855 0.739997
vt 0.915804 0.739997
vt 0.918855 0.743471
vt 0.915804 0.746945
vt 0.918855 0.746945
vt 0.915804 0.538661
vt 0.918855 0.535187
vt 0.915804 0.535187
vt 0.918855 0.538661
vt 0.918855 0.531713
vt 0.915804 0.531713
vt 0.914226 0.535187
vt 0.911276 0.528711
vt 0.911276 0.535187
vt 0.914226 0.528711
vt 0.914226 0.541663
vt 0.911276 0.541663
vt 0.542616 0.743471
vt 0.540440 0.748724
vt 0.535187 0.750900
vt 0.529935 0.748724
vt 0.527759 0.743471
vt 0.529935 0.738219
vt 0.535187 0.736043
vt 0.540440 0.738218
vt 0.930780 0.337965
vt 0.932728 0.339912
vt 0.930780 0.732896
vt 0.932728 0.730948
vt 0.920516 0.732896
vt 0.918568 0.730948
vt 0.918568 0.339912
vt 0.920516 0.337965
vt 0.932728 0.788926
vt 0.932728 0.697857
vt 0.337965 0.788926
vt 0.337965 0.697857
vt 0.918568 0.697857
vt 0.918568 0.788926
vt 0.727202 0.785179
vt 0.727202 0.701604
vt 0.343658 0.785179
vt 0.343658 0.701604
vt 0.932728 0.701604
vt 1.168126 0.785179
vt 1.168126 0.701604
vt 0.932728 0.785179
vt 0.932728 0.343658
vt 1.168126 0.727202
vt 1.168126 0.343658
vt 0.932728 0.727202
vt 0.937728 0.785179
vt 1.163126 0.706045
vt 0.937728 0.706045
vt 1.163126 0.785179
vt 0.937728 0.348659
vt 0.937728 0.722202
vt 1.163126 0.722202
vt 0.163126 0.722202
vt 0.168126 0.343658
vt 0.168126 0.727202
vt 0.163126 0.348659
vt -0.067272 0.343658
vt -0.062272 0.348659
vt 1.163126 0.348659
vt 0.163126 0.785179
vt -0.062272 0.706045
vt 0.163126 0.706045
vt -0.062272 0.785179
vt 0.348659 0.785179
vt 0.722202 0.706045
vt 0.348659 0.706045
vt 0.722202 0.785179
s 1
usemtl M_DresserDrawer_319_5_0
f 1/1/1 3/2/1 2/3/1
f 1/1/1 4/4/1 3/2/1
f 5/5/2 7/6/2 6/7/2
f 5/5/2 8/8/2 7/6/2
f 9/9/3 11/10/3 10/11/3
f 9/9/3 12/12/3 11/10/3
f 13/12/4 15/11/4 14/10/4
f 13/12/4 16/9/4 15/11/4
f 17/4/5 19/3/5 18/2/5
f 17/4/5 20/1/5 19/3/5
f 21/13/6 23/14/7 22/15/8
f 21/13/6 24/16/9 23/14/7
f 25/17/10 21/13/6 22/15/8
f 25/17/10 22/15/8 26/18/11
f 27/19/12 25/20/10 28/21/13
f 27/19/12 29/22/14 25/20/10
f 29/22/14 21/23/6 25/20/10
f 29/22/14 30/24/15 21/23/6
f 31/25/16 27/19/12 28/21/13
f 31/25/16 28/21/13 32/26/17
f 30/24/15 24/27/9 21/23/6
f 30/24/15 33/28/18 24/27/9
f 33/28/18 34/29/19 24/27/9
f 33/28/18 35/30/20 34/29/19
f 35/30/20 36/31/21 34/29/19
f 35/30/20 37/32/22 36/31/21
f 37/32/22 38/33/23 36/31/21
f 37/32/22 39/34/24 38/33/23
f 39/34/24 32/26/17 38/33/23
f 39/34/24 31/25/16 32/26/17
f 30/35/15 40/36/25 33/37/18
f 30/35/15 41/38/26 40/36/25
f 29/39/14 41/38/26 30/35/15
f 29/39/14 42/40/27 41/38/26
f 38/13/23 44/18/28 43/15/29
f 38/13/23 32/17/17 44/18/28
f 36/16/21 38/13/23 43/15/29
f 36/16/21 43/15/29 45/14/30
f 33/41/18 46/42/4 35/43/20
f 33/41/18 40/44/25 46/42/4
f 35/43/20 46/42/4 47/45/31
f 35/43/20 47/45/31 37/46/22
f 34/47/19 45/48/30 48/49/32
f 34/47/19 36/50/21 45/48/30
f 24/51/9 34/47/19 48/49/32
f 24/51/9 48/49/32 23/52/7
f 32/50/17 49/49/33 44/48/28
f 32/50/17 28/47/13 49/49/33
f 28/47/13 26/52/11 49/49/33
f 28/47/13 25/51/10 26/52/11
f 37/37/22 50/38/34 39/35/24
f 37/37/22 47/36/31 50/38/34
f 39/35/24 50/38/34 51/40/35
f 39/35/24 51/40/35 31/39/16
f 31/46/16 52/42/3 27/43/12
f 31/46/16 51/45/35 52/42/3
f 27/43/12 52/42/3 42/44/27
f 27/43/12 42/44/27 29/41/14
f 26/20/11 54/53/36 53/54/37
f 26/20/11 22/23/8 54/53/36
f 49/21/33 26/20/11 53/54/37
f 49/21/33 53/54/37 55/55/38
f 44/26/28 49/21/33 55/55/38
f 44/26/28 55/55/38 56/56/39
f 43/33/29 44/26/28 56/56/39
f 43/33/29 56/56/39 57/57/40
f 45/31/30 43/33/29 57/57/40
f 45/31/30 57/57/40 58/58/41
f 56/56/39 58/58/41 57/57/40
f 48/29/32 45/31/30 58/58/41
f 48/29/32 58/58/41 59/59/42
f 58/58/41 56/56/39 59/59/42
f 59/59/42 56/56/39 55/55/38
f 59/59/42 55/55/38 53/54/37
f 23/27/7 48/29/32 59/59/42
f 23/27/7 59/59/42 60/60/43
f 22/23/8 60/60/43 54/53/36
f 22/23/8 23/27/7 60/60/43
f 59/59/42 53/54/37 60/60/43
f 60/60/43 53/54/37 54/53/36
f 9/9/44 4/61/45 61/62/44
f 17/63/46 12/12/46 62/64/46
f 16/9/47 63/62/47 1/61/48
f 20/63/49 64/64/49 13/12/49
f 18/65/50 7/66/50 11/10/50
f 19/65/51 14/10/51 6/66/51
f 10/11/52 8/67/53 3/68/54
f 15/11/55 2/68/55 5/67/56
f 62/69/57 20/1/58 17/4/57
f 62/69/57 64/70/59 20/1/58
f 61/62/60 12/12/61 9/9/60
f 61/62/60 62/64/62 12/12/61
f 16/9/63 64/64/64 63/62/63
f 16/9/63 13/12/65 64/64/64
f 4/71/66 63/5/66 61/8/66
f 4/71/66 1/72/66 63/5/66
f 18/2/67 6/73/67 7/74/67
f 18/2/67 19/3/67 6/73/67
f 10/11/68 7/66/68 8/67/69
f 10/11/68 11/10/70 7/66/68
f 5/67/71 14/10/72 15/11/73
f 5/67/71 6/66/74 14/10/72
f 8/8/75 2/72/75 3/71/75
f 8/8/75 5/5/75 2/72/75
f 13/12/25 19/65/25 20/63/25
f 13/12/25 14/10/25 19/65/25
f 11/10/76 17/63/76 18/65/76
f 11/10/76 12/12/76 17/63/76
f 3/68/77 9/9/78 10/11/79
f 3/68/77 4/61/78 9/9/78
f 1/61/80 15/11/81 16/9/80
f 1/61/80 2/68/82 15/11/81
f 65/75/83 64/7/84 62/6/85
f 65/75/83 66/76/86 64/7/84
f 67/77/87 65/75/83 62/6/85
f 67/77/87 62/6/85 61/8/87
f 66/76/86 63/5/87 64/7/84
f 66/76/86 68/78/87 63/5/87
f 68/78/87 61/8/87 63/5/87
f 68/78/87 67/77/87 61/8/87
f 69/78/87 71/75/87 70/77/87
f 69/78/87 72/76/87 71/75/87
f 66/79/5 71/80/5 72/81/5
f 66/79/5 65/82/5 71/80/5
f 68/83/4 72/84/4 69/85/4
f 68/83/4 66/86/4 72/84/4
f 67/82/88 69/81/88 70/80/88
f 67/82/88 68/79/88 69/81/88
f 73/87/5 75/88/5 74/89/5
f 73/87/5 76/90/5 75/88/5
f 73/91/3 65/86/3 67/83/3
f 73/91/3 77/92/3 65/86/3
f 77/92/3 71/84/3 65/86/3
f 77/92/3 78/93/3 71/84/3
f 78/94/3 70/95/3 71/96/3
f 78/94/3 76/97/3 70/95/3
f 76/97/3 67/98/3 70/95/3
f 76/97/3 73/99/3 67/98/3
f 79/92/3 75/100/3 80/93/3
f 79/92/3 74/91/3 75/100/3
f 78/101/88 79/102/88 80/103/88
f 78/101/88 77/104/88 79/102/88
f 76/105/2 80/106/2 75/107/2
f 76/105/2 78/108/2 80/106/2
f 77/108/87 74/107/87 79/106/87
f 77/108/87 73/105/87 74/107/87
