# Blender 4.1.1
# www.blender.org
mtllib DrawermeshDresserDrawer_319_3_9.mtl
o DresserDrawer_319_3
v -0.002851 -0.214212 -0.011603
v -0.002850 -0.231195 -0.011603
v -0.002850 -0.231195 0.141456
v -0.002851 -0.214212 0.141456
v -0.006497 -0.234418 -0.011603
v -0.738590 -0.234414 -0.011603
v -0.738590 -0.234414 0.141456
v -0.006497 -0.234418 0.141456
v -0.742236 -0.214208 0.141456
v -0.742236 -0.231191 0.141456
v -0.742236 -0.231191 -0.011603
v -0.742236 -0.214208 -0.011603
v -0.006496 -0.214212 0.144729
v -0.006497 -0.231195 0.144729
v -0.738590 -0.231191 0.144729
v -0.738590 -0.214208 0.144729
v -0.738590 -0.214208 -0.014876
v -0.738590 -0.231191 -0.014876
v -0.006497 -0.231195 -0.014876
v -0.006496 -0.214212 -0.014876
v -0.389235 -0.241601 0.065029
v -0.389235 -0.246484 0.065029
v -0.384213 -0.246484 0.054145
v -0.384213 -0.241601 0.054145
v -0.384213 -0.241601 0.075913
v -0.384213 -0.246484 0.075913
v -0.372089 -0.238988 0.073286
v -0.372089 -0.241601 0.080422
v -0.378593 -0.238988 0.070868
v -0.381287 -0.238988 0.065029
v -0.365585 -0.238988 0.070867
v -0.359964 -0.241601 0.075913
v -0.378593 -0.238988 0.059190
v -0.372089 -0.241601 0.049636
v -0.372089 -0.238988 0.056772
v -0.359964 -0.241601 0.054145
v -0.365585 -0.238988 0.059190
v -0.354942 -0.241601 0.065029
v -0.362891 -0.238988 0.065029
v -0.378593 -0.233941 0.059190
v -0.381287 -0.233941 0.065029
v -0.378593 -0.233941 0.070868
v -0.354942 -0.246484 0.065029
v -0.359964 -0.246484 0.075913
v -0.359964 -0.246484 0.054145
v -0.372089 -0.233941 0.056772
v -0.365585 -0.233941 0.059190
v -0.372089 -0.246484 0.049636
v -0.372089 -0.246484 0.080422
v -0.362891 -0.233941 0.065029
v -0.365585 -0.233941 0.070867
v -0.372089 -0.233941 0.073286
v -0.381923 -0.249127 0.073857
v -0.385996 -0.249127 0.065029
v -0.372089 -0.249127 0.077514
v -0.362255 -0.249127 0.073857
v -0.358181 -0.249124 0.065029
v -0.362255 -0.249127 0.056201
v -0.372089 -0.249127 0.052544
v -0.381923 -0.249127 0.056201
v -0.006497 -0.210988 0.141456
v -0.738590 -0.210988 0.141456
v -0.006497 -0.210988 -0.011603
v -0.738590 -0.210988 -0.011603
v -0.013511 -0.210988 0.135159
v -0.013510 0.178477 0.135159
v -0.013510 0.178477 -0.005306
v -0.013511 -0.210988 -0.005306
v -0.731573 0.178477 -0.005306
v -0.731575 -0.210988 -0.005306
v -0.731575 -0.210984 0.135159
v -0.731573 0.178477 0.135159
v -0.022872 -0.202718 0.135159
v -0.722215 -0.202714 0.135159
v -0.722213 0.170211 0.135159
v -0.022870 0.170203 0.135159
v -0.722215 -0.202714 0.001110
v -0.722213 0.170207 0.001110
v -0.022870 0.170203 0.001110
v -0.022872 -0.202718 0.001110
vn 1.0000 0.0001 -0.0000
vn -0.0000 -1.0000 -0.0000
vn -1.0000 -0.0000 -0.0000
vn -0.0000 -0.0000 1.0000
vn -0.0000 -0.0000 -1.0000
vn -0.8280 0.5607 -0.0001
vn -0.6150 -0.3906 -0.6850
vn -0.9122 -0.4096 0.0001
vn -0.5627 0.5390 -0.6268
vn -0.5626 0.5390 0.6268
vn -0.6149 -0.3904 0.6852
vn -0.0001 0.6529 0.7574
vn -0.0000 0.5198 0.8543
vn -0.4948 0.6719 0.5511
vn -0.7215 0.6925 -0.0000
vn 0.4949 0.6718 0.5511
vn 0.5627 0.5389 0.6268
vn -0.4948 0.6719 -0.5512
vn -0.0000 0.5198 -0.8543
vn 0.0001 0.6529 -0.7575
vn 0.5627 0.5389 -0.6269
vn 0.4949 0.6718 -0.5512
vn 0.8280 0.5607 0.0001
vn 0.7214 0.6925 -0.0001
vn -0.6681 -0.0000 -0.7440
vn -1.0000 -0.0000 0.0007
vn -0.6682 -0.0000 0.7439
vn 0.6150 -0.3906 0.6850
vn 0.9123 -0.4096 -0.0000
vn 0.6148 -0.3904 -0.6853
vn 0.0003 -0.0001 -1.0000
vn 0.6682 -0.0000 -0.7439
vn 0.0001 -0.3738 -0.9275
vn -0.0001 -0.3735 0.9276
vn 1.0000 -0.0000 -0.0000
vn 0.6682 -0.0000 0.7440
vn -0.0003 -0.0000 1.0000
vn -0.3952 -0.9186 0.0001
vn -0.2768 -0.9101 0.3084
vn -0.0000 -0.9019 0.4320
vn 0.2769 -0.9101 0.3082
vn 0.3953 -0.9186 -0.0002
vn 0.2768 -0.9101 -0.3085
vn -0.0000 -0.9018 -0.4321
vn -0.2769 -0.9101 -0.3082
vn 0.5331 0.6028 0.5937
vn -0.5328 0.6033 0.5935
vn 0.5331 0.6028 -0.5937
vn -0.5329 0.6029 -0.5937
vn -0.5332 -0.6034 0.5930
vn -0.5332 -0.6034 -0.5930
vn -0.5332 -0.6034 -0.5929
vn 0.5332 -0.6033 0.5931
vn 0.5332 -0.6033 0.5930
vn 0.5331 -0.6034 -0.5930
vn 0.5332 -0.6035 -0.5929
vn -0.6620 0.7495 -0.0000
vn -0.6622 0.7493 -0.0000
vn -0.0000 0.7131 0.7011
vn -0.0000 0.7132 0.7010
vn -0.0000 0.7133 0.7008
vn -0.0000 0.7129 0.7013
vn -0.0000 0.7131 -0.7011
vn -0.0000 0.7135 -0.7007
vn -0.0000 0.7133 -0.7008
vn -0.0000 0.7125 -0.7017
vn 0.6624 0.7491 -0.0000
vn 0.6618 0.7497 -0.0000
vn -0.6623 -0.7492 -0.0000
vn -0.0000 -0.7125 0.7016
vn -0.0000 -0.7122 -0.7020
vn -0.0000 -0.7125 -0.7016
vn 0.6622 -0.7493 -0.0000
vn -0.6680 -0.0000 -0.7441
vn -0.6680 -0.0000 0.7441
vn 0.6680 -0.0000 0.7442
vn 0.6681 -0.0000 0.7441
vn 0.6679 -0.0000 0.7442
vn 0.6681 -0.0000 -0.7441
vn 0.6680 -0.0000 -0.7442
vn 0.6679 -0.0000 -0.7442
vn 0.0001 1.0000 -0.0003
vn -0.0000 1.0000 -0.0000
vn -0.0003 1.0000 0.0003
vn -0.0000 1.0000 -0.0003
vt 0.930780 0.795026
vt 0.920516 0.886095
vt 0.920516 0.795026
vt 0.930780 0.886095
vt 0.339912 0.795026
vt 0.730948 0.886095
vt 0.730948 0.795026
vt 0.339912 0.886095
vt 0.930780 0.339912
vt 0.920516 0.730948
vt 0.920516 0.339912
vt 0.930780 0.730948
vt 0.914226 0.840621
vt 0.911276 0.834145
vt 0.911276 0.840621
vt 0.914226 0.834145
vt 0.914226 0.847097
vt 0.911276 0.847097
vt 0.535187 0.845534
vt 0.541663 0.847097
vt 0.535187 0.849780
vt 0.538661 0.844095
vt 0.544346 0.840621
vt 0.540100 0.840621
vt 0.531713 0.844095
vt 0.528711 0.847097
vt 0.541663 0.834145
vt 0.538661 0.837147
vt 0.535187 0.831463
vt 0.535187 0.835708
vt 0.528711 0.834145
vt 0.531713 0.837147
vt 0.526029 0.840621
vt 0.530274 0.840621
vt 0.915804 0.840621
vt 0.918855 0.837147
vt 0.915804 0.837147
vt 0.918855 0.840621
vt 0.915804 0.844095
vt 0.918855 0.844095
vt 0.915804 0.538661
vt 0.918855 0.535187
vt 0.915804 0.535187
vt 0.918855 0.538661
vt 0.918855 0.531713
vt 0.915804 0.531713
vt 0.914226 0.535187
vt 0.911276 0.528711
vt 0.911276 0.535187
vt 0.914226 0.528711
vt 0.914226 0.541663
vt 0.911276 0.541663
vt 0.542616 0.840621
vt 0.540440 0.845874
vt 0.535187 0.848050
vt 0.529935 0.845874
vt 0.527759 0.840621
vt 0.529935 0.835369
vt 0.535187 0.833193
vt 0.540440 0.835369
vt 0.930780 0.337965
vt 0.932728 0.339912
vt 0.930780 0.732896
vt 0.932728 0.730948
vt 0.920516 0.732896
vt 0.918568 0.730948
vt 0.918568 0.339912
vt 0.920516 0.337965
vt 0.932728 0.886095
vt 0.932728 0.795026
vt 0.337965 0.886095
vt 0.337965 0.795026
vt 0.918568 0.795026
vt 0.918568 0.886095
vt 0.932728 0.882348
vt 1.168126 0.798773
vt 1.168126 0.882348
vt 0.932728 0.798773
vt 0.932728 0.343658
vt 1.168126 0.727202
vt 1.168126 0.343658
vt 0.932728 0.727202
vt 0.727202 0.882348
vt 0.727202 0.798773
vt 0.343658 0.882348
vt 0.343658 0.798773
vt 0.937728 0.348659
vt 0.937728 0.722202
vt 1.163126 0.722202
vt 0.163126 0.722202
vt 0.168126 0.343658
vt 0.168126 0.727202
vt 0.163126 0.348659
vt -0.067272 0.343658
vt -0.062272 0.348659
vt 1.163126 0.348659
vt 0.937728 0.882348
vt 1.163126 0.802590
vt 0.937728 0.802590
vt 1.163126 0.882348
vt 0.348659 0.882348
vt 0.722202 0.802590
vt 0.348659 0.802590
vt 0.722202 0.882348
vt 0.163126 0.882348
vt -0.062272 0.802590
vt 0.163126 0.802590
vt -0.062272 0.882348
s 1
usemtl M_DresserDrawer_319_3_0
f 1/1/1 3/2/1 2/3/1
f 1/1/1 4/4/1 3/2/1
f 5/5/2 7/6/2 6/7/2
f 5/5/2 8/8/2 7/6/2
f 9/4/3 11/3/3 10/2/3
f 9/4/3 12/1/3 11/3/3
f 13/9/4 15/10/4 14/11/4
f 13/9/4 16/12/4 15/10/4
f 17/12/5 19/11/5 18/10/5
f 17/12/5 20/9/5 19/11/5
f 21/13/6 23/14/7 22/15/8
f 21/13/6 24/16/9 23/14/7
f 25/17/10 21/13/6 22/15/8
f 25/17/10 22/15/8 26/18/11
f 27/19/12 25/20/10 28/21/13
f 27/19/12 29/22/14 25/20/10
f 29/22/14 21/23/6 25/20/10
f 29/22/14 30/24/15 21/23/6
f 31/25/16 27/19/12 28/21/13
f 31/25/16 28/21/13 32/26/17
f 30/24/15 24/27/9 21/23/6
f 30/24/15 33/28/18 24/27/9
f 33/28/18 34/29/19 24/27/9
f 33/28/18 35/30/20 34/29/19
f 35/30/20 36/31/21 34/29/19
f 35/30/20 37/32/22 36/31/21
f 37/32/22 38/33/23 36/31/21
f 37/32/22 39/34/24 38/33/23
f 39/34/24 32/26/17 38/33/23
f 39/34/24 31/25/16 32/26/17
f 30/35/15 40/36/25 33/37/18
f 30/35/15 41/38/26 40/36/25
f 29/39/14 41/38/26 30/35/15
f 29/39/14 42/40/27 41/38/26
f 38/13/23 44/18/28 43/15/29
f 38/13/23 32/17/17 44/18/28
f 36/16/21 38/13/23 43/15/29
f 36/16/21 43/15/29 45/14/30
f 33/41/18 46/42/31 35/43/20
f 33/41/18 40/44/25 46/42/31
f 35/43/20 46/42/31 47/45/32
f 35/43/20 47/45/32 37/46/22
f 34/47/19 45/48/30 48/49/33
f 34/47/19 36/50/21 45/48/30
f 24/51/9 34/47/19 48/49/33
f 24/51/9 48/49/33 23/52/7
f 32/50/17 49/49/34 44/48/28
f 32/50/17 28/47/13 49/49/34
f 28/47/13 26/52/11 49/49/34
f 28/47/13 25/51/10 26/52/11
f 37/37/22 50/38/35 39/35/24
f 37/37/22 47/36/32 50/38/35
f 39/35/24 50/38/35 51/40/36
f 39/35/24 51/40/36 31/39/16
f 31/46/16 52/42/37 27/43/12
f 31/46/16 51/45/36 52/42/37
f 27/43/12 52/42/37 42/44/27
f 27/43/12 42/44/27 29/41/14
f 26/20/11 54/53/38 53/54/39
f 26/20/11 22/23/8 54/53/38
f 49/21/34 26/20/11 53/54/39
f 49/21/34 53/54/39 55/55/40
f 44/26/28 49/21/34 55/55/40
f 44/26/28 55/55/40 56/56/41
f 43/33/29 44/26/28 56/56/41
f 43/33/29 56/56/41 57/57/42
f 45/31/30 43/33/29 57/57/42
f 45/31/30 57/57/42 58/58/43
f 56/56/41 58/58/43 57/57/42
f 48/29/33 45/31/30 58/58/43
f 48/29/33 58/58/43 59/59/44
f 58/58/43 56/56/41 59/59/44
f 59/59/44 56/56/41 55/55/40
f 59/59/44 55/55/40 53/54/39
f 23/27/7 48/29/33 59/59/44
f 23/27/7 59/59/44 60/60/45
f 22/23/8 60/60/45 54/53/38
f 22/23/8 23/27/7 60/60/45
f 59/59/44 53/54/39 60/60/45
f 60/60/45 53/54/39 54/53/38
f 13/9/46 4/61/46 61/62/46
f 9/63/47 16/12/47 62/64/47
f 20/9/48 63/62/48 1/61/48
f 12/63/49 64/64/49 17/12/49
f 10/65/50 7/66/50 15/10/50
f 11/65/51 18/10/51 6/66/52
f 14/11/53 8/67/54 3/68/53
f 19/11/55 2/68/55 5/67/56
f 62/69/57 12/1/57 9/4/57
f 62/69/57 64/70/58 12/1/57
f 61/62/59 16/12/60 13/9/61
f 61/62/59 62/64/62 16/12/60
f 20/9/63 64/64/64 63/62/65
f 20/9/63 17/12/66 64/64/64
f 4/71/67 63/5/67 61/8/67
f 4/71/67 1/72/68 63/5/67
f 10/2/69 6/73/69 7/74/69
f 10/2/69 11/3/69 6/73/69
f 14/11/70 7/66/70 8/67/70
f 14/11/70 15/10/70 7/66/70
f 5/67/71 18/10/71 19/11/72
f 5/67/71 6/66/72 18/10/71
f 8/8/73 2/72/73 3/71/73
f 8/8/73 5/5/73 2/72/73
f 17/12/74 11/65/74 12/63/74
f 17/12/74 18/10/74 11/65/74
f 15/10/75 9/63/75 10/65/75
f 15/10/75 16/12/75 9/63/75
f 3/68/76 13/9/77 14/11/78
f 3/68/76 4/61/77 13/9/77
f 1/61/79 19/11/80 20/9/79
f 1/61/79 2/68/81 19/11/80
f 65/75/35 67/76/35 66/77/35
f 65/75/35 68/78/35 67/76/35
f 68/79/5 69/80/5 67/81/5
f 68/79/5 70/82/5 69/80/5
f 71/83/82 64/7/83 62/6/84
f 71/83/82 70/84/85 64/7/83
f 65/85/83 71/83/82 62/6/84
f 65/85/83 62/6/84 61/8/83
f 70/84/85 63/5/85 64/7/83
f 70/84/85 68/86/85 63/5/85
f 68/86/85 61/8/83 63/5/85
f 68/86/85 65/85/83 61/8/83
f 67/86/83 72/83/83 66/85/83
f 67/86/83 69/84/83 72/83/83
f 70/78/3 72/77/3 69/76/3
f 70/78/3 71/75/3 72/77/3
f 73/87/4 71/82/4 65/79/4
f 73/87/4 74/88/4 71/82/4
f 74/88/4 72/80/4 71/82/4
f 74/88/4 75/89/4 72/80/4
f 75/90/4 66/91/4 72/92/4
f 75/90/4 76/93/4 66/91/4
f 76/93/4 65/94/4 66/91/4
f 76/93/4 73/95/4 65/94/4
f 77/88/4 79/96/4 78/89/4
f 77/88/4 80/87/4 79/96/4
f 73/97/3 79/98/3 80/99/3
f 73/97/3 76/100/3 79/98/3
f 76/101/2 78/102/2 79/103/2
f 76/101/2 75/104/2 78/102/2
f 74/104/83 80/103/83 77/102/83
f 74/104/83 73/101/83 80/103/83
f 75/105/35 77/106/35 78/107/35
f 75/105/35 74/108/35 77/106/35
