# Blender 4.1.1
# www.blender.org
mtllib DrawermeshDresserDrawer_319_7_7.mtl
o DresserDrawer_319_7
v -0.002851 -0.214377 -0.338228
v -0.002852 -0.231364 -0.338228
v -0.002850 -0.231364 -0.185169
v -0.002851 -0.214377 -0.185169
v -0.006497 -0.234583 -0.338228
v -0.738590 -0.234579 -0.338228
v -0.738590 -0.234579 -0.185169
v -0.006497 -0.234583 -0.185169
v -0.742236 -0.214377 -0.185169
v -0.742236 -0.231356 -0.185169
v -0.742236 -0.231356 -0.338228
v -0.742236 -0.214377 -0.338228
v -0.738590 -0.214377 -0.341501
v -0.738590 -0.231356 -0.341501
v -0.006497 -0.231360 -0.341501
v -0.006497 -0.214377 -0.341501
v -0.006497 -0.214377 -0.181896
v -0.006497 -0.231360 -0.181896
v -0.738590 -0.231356 -0.181896
v -0.738590 -0.214377 -0.181896
v -0.389235 -0.241766 -0.261705
v -0.389235 -0.246649 -0.261705
v -0.384213 -0.246649 -0.272590
v -0.384213 -0.241766 -0.272590
v -0.384213 -0.241766 -0.250821
v -0.384213 -0.246649 -0.250821
v -0.372089 -0.239157 -0.253448
v -0.372089 -0.241766 -0.246312
v -0.378593 -0.239157 -0.255867
v -0.381287 -0.239153 -0.261705
v -0.365585 -0.239157 -0.255867
v -0.359964 -0.241766 -0.250821
v -0.378593 -0.239157 -0.267544
v -0.372089 -0.241766 -0.277098
v -0.372089 -0.239157 -0.269962
v -0.359964 -0.241766 -0.272590
v -0.365585 -0.239157 -0.267544
v -0.354942 -0.241766 -0.261705
v -0.362891 -0.239153 -0.261705
v -0.378593 -0.234106 -0.267544
v -0.381287 -0.234106 -0.261705
v -0.378593 -0.234106 -0.255867
v -0.354943 -0.246649 -0.261705
v -0.359965 -0.246649 -0.250821
v -0.359965 -0.246649 -0.272590
v -0.372089 -0.234106 -0.269962
v -0.365585 -0.234106 -0.267544
v -0.372089 -0.246649 -0.277098
v -0.372089 -0.246649 -0.246312
v -0.362891 -0.234106 -0.261705
v -0.365585 -0.234106 -0.255867
v -0.372089 -0.234106 -0.253448
v -0.381923 -0.249293 -0.252877
v -0.385996 -0.249293 -0.261705
v -0.372089 -0.249293 -0.249220
v -0.362255 -0.249293 -0.252877
v -0.358181 -0.249293 -0.261705
v -0.362255 -0.249293 -0.270533
v -0.372089 -0.249293 -0.274190
v -0.381923 -0.249293 -0.270534
v -0.006496 -0.211157 -0.185169
v -0.738590 -0.211153 -0.185169
v -0.006496 -0.211157 -0.338228
v -0.738590 -0.211153 -0.338228
v -0.731575 -0.211153 -0.191466
v -0.731575 -0.211153 -0.331931
v -0.013511 -0.211153 -0.191466
v -0.013511 -0.211153 -0.331931
v -0.013509 0.178308 -0.331931
v -0.013509 0.178308 -0.191466
v -0.731572 0.178312 -0.191466
v -0.731572 0.178312 -0.331931
v -0.022872 -0.202887 -0.191466
v -0.022872 -0.202887 -0.324263
v -0.022869 0.170038 -0.324263
v -0.022869 0.170038 -0.191466
v -0.722214 -0.202879 -0.191466
v -0.722214 -0.202879 -0.324263
v -0.722213 0.170042 -0.191466
v -0.722213 0.170042 -0.324263
vn 1.0000 -0.0001 -0.0000
vn 1.0000 0.0001 -0.0000
vn -0.0000 -1.0000 -0.0000
vn -1.0000 -0.0000 -0.0000
vn -0.0000 -0.0000 -1.0000
vn -0.0000 -0.0000 1.0000
vn -0.8280 0.5608 0.0001
vn -0.6150 -0.3903 -0.6851
vn -0.9123 -0.4096 -0.0000
vn -0.5627 0.5387 -0.6270
vn -0.5628 0.5389 0.6268
vn -0.6149 -0.3903 0.6852
vn -0.0000 0.6528 0.7576
vn -0.0000 0.5200 0.8542
vn -0.4949 0.6716 0.5514
vn -0.7214 0.6926 -0.0000
vn 0.4948 0.6717 0.5513
vn 0.5627 0.5388 0.6269
vn -0.4948 0.6717 -0.5513
vn -0.0000 0.5200 -0.8542
vn -0.0000 0.6528 -0.7575
vn 0.5627 0.5389 -0.6269
vn 0.4949 0.6716 -0.5514
vn 0.8280 0.5607 -0.0001
vn 0.7214 0.6925 -0.0000
vn -0.6681 -0.0000 -0.7441
vn -0.6679 0.0001 0.7442
vn 0.6150 -0.3904 0.6851
vn 0.9122 -0.4097 -0.0000
vn 0.6149 -0.3904 -0.6852
vn 0.6680 -0.0000 -0.7442
vn -0.0000 -0.3734 -0.9277
vn -0.0000 -0.3736 0.9276
vn 1.0000 -0.0000 -0.0000
vn 0.6681 -0.0000 0.7441
vn -0.3952 -0.9186 0.0002
vn -0.2768 -0.9100 0.3086
vn -0.0000 -0.9017 0.4323
vn 0.2768 -0.9100 0.3085
vn 0.3952 -0.9186 -0.0002
vn 0.2768 -0.9100 -0.3086
vn -0.0000 -0.9017 -0.4323
vn -0.2768 -0.9100 -0.3085
vn 0.5328 0.6032 0.5936
vn -0.5326 0.6027 0.5942
vn -0.5325 0.6027 0.5943
vn 0.5328 0.6032 -0.5935
vn -0.5330 0.6028 -0.5938
vn -0.5335 -0.6036 0.5925
vn -0.5335 -0.6036 -0.5925
vn 0.5324 -0.6032 0.5939
vn 0.5334 -0.6034 -0.5928
vn -0.6624 0.7491 -0.0000
vn -0.0000 0.7125 0.7017
vn -0.0000 0.7124 0.7018
vn -0.0000 0.7129 0.7013
vn -0.0000 0.7125 -0.7017
vn -0.0000 0.7128 -0.7013
vn -0.0000 0.7129 -0.7013
vn -0.0000 0.7124 -0.7018
vn 0.6621 0.7494 -0.0000
vn 0.6626 0.7490 -0.0000
vn -0.6623 -0.7492 -0.0000
vn -0.0000 -0.7122 0.7020
vn -0.0000 -0.7125 0.7016
vn -0.0000 -0.7119 0.7023
vn -0.0000 -0.7121 -0.7021
vn -0.0000 -0.7119 -0.7023
vn -0.0000 -0.7118 -0.7024
vn -0.0000 -0.7125 -0.7016
vn 0.6621 -0.7494 -0.0000
vn 0.6623 -0.7492 -0.0000
vn 0.6622 -0.7493 -0.0000
vn -0.6680 -0.0000 0.7441
vn -0.6680 -0.0000 0.7442
vn 0.6679 -0.0000 0.7442
vn 0.6680 -0.0000 0.7442
vn 0.6684 -0.0000 0.7438
vn 0.6680 -0.0000 0.7441
vn 0.6680 -0.0000 -0.7441
vn 0.6681 -0.0000 -0.7441
vn 0.6677 -0.0000 -0.7444
vn -0.6685 -0.0000 -0.7437
vn -0.6680 -0.0000 -0.7441
vn -0.0000 1.0000 -0.0000
vn -0.0000 1.0000 -0.0003
vn -0.0001 1.0000 -0.0000
vn 0.0003 1.0000 0.0003
vn -0.0000 1.0000 0.0003
vt 0.930780 0.600688
vt 0.920516 0.691757
vt 0.920516 0.600688
vt 0.930780 0.691757
vt 0.339912 0.600688
vt 0.730948 0.691757
vt 0.730948 0.600688
vt 0.339912 0.691757
vt 0.930780 0.730948
vt 0.920516 0.339912
vt 0.920516 0.730948
vt 0.930780 0.339912
vt 0.914226 0.646218
vt 0.911276 0.639743
vt 0.911276 0.646218
vt 0.914226 0.639743
vt 0.914226 0.652695
vt 0.911276 0.652695
vt 0.535187 0.651132
vt 0.541663 0.652695
vt 0.535187 0.655377
vt 0.538661 0.649692
vt 0.544346 0.646218
vt 0.540100 0.646218
vt 0.531713 0.649692
vt 0.528711 0.652695
vt 0.541663 0.639743
vt 0.538661 0.642745
vt 0.535187 0.637060
vt 0.535187 0.641306
vt 0.528711 0.639743
vt 0.531713 0.642745
vt 0.526029 0.646218
vt 0.530274 0.646218
vt 0.915804 0.646218
vt 0.918855 0.642745
vt 0.915804 0.642745
vt 0.918855 0.646218
vt 0.915804 0.649692
vt 0.918855 0.649692
vt 0.915804 0.538661
vt 0.918855 0.535187
vt 0.915804 0.535187
vt 0.918855 0.538661
vt 0.918855 0.531713
vt 0.915804 0.531713
vt 0.914226 0.535187
vt 0.911276 0.528711
vt 0.911276 0.535187
vt 0.914226 0.528711
vt 0.914226 0.541663
vt 0.911276 0.541663
vt 0.542616 0.646218
vt 0.540440 0.651471
vt 0.535187 0.653647
vt 0.529935 0.651471
vt 0.527759 0.646218
vt 0.529935 0.640966
vt 0.535187 0.638790
vt 0.540440 0.640966
vt 0.930780 0.337965
vt 0.932728 0.339912
vt 0.930780 0.732896
vt 0.932728 0.730948
vt 0.920516 0.732896
vt 0.918568 0.730948
vt 0.918568 0.339912
vt 0.920516 0.337965
vt 0.932728 0.691757
vt 0.932728 0.600688
vt 0.337965 0.691757
vt 0.337965 0.600688
vt 0.918568 0.600688
vt 0.918568 0.691757
vt 0.727202 0.688010
vt 0.727202 0.604435
vt 0.343658 0.688010
vt 0.343658 0.604435
vt 0.932728 0.604435
vt 1.168126 0.688010
vt 1.168126 0.604435
vt 0.932728 0.688010
vt 0.937728 0.688010
vt 1.163126 0.608998
vt 0.937728 0.608998
vt 1.163126 0.688010
vt 0.722202 0.688010
vt 0.348659 0.608998
vt 0.722202 0.608998
vt 0.348659 0.688010
vt 0.932728 0.343658
vt 1.168126 0.727202
vt 1.168126 0.343658
vt 0.932728 0.727202
vt 0.937728 0.348659
vt 0.937728 0.722202
vt 1.163126 0.722202
vt 0.163126 0.722202
vt 0.168126 0.343658
vt 0.168126 0.727202
vt 0.163126 0.348659
vt -0.067272 0.343658
vt -0.062272 0.348659
vt 1.163126 0.348659
vt 0.163126 0.688010
vt -0.062272 0.608998
vt 0.163126 0.608998
vt -0.062272 0.688010
s 1
usemtl M_DresserDrawer_319_7_0
f 1/1/1 3/2/2 2/3/1
f 1/1/1 4/4/2 3/2/2
f 5/5/3 7/6/3 6/7/3
f 5/5/3 8/8/3 7/6/3
f 9/4/4 11/3/4 10/2/4
f 9/4/4 12/1/4 11/3/4
f 13/9/5 15/10/5 14/11/5
f 13/9/5 16/12/5 15/10/5
f 17/12/6 19/11/6 18/10/6
f 17/12/6 20/9/6 19/11/6
f 21/13/7 23/14/8 22/15/9
f 21/13/7 24/16/10 23/14/8
f 25/17/11 21/13/7 22/15/9
f 25/17/11 22/15/9 26/18/12
f 27/19/13 25/20/11 28/21/14
f 27/19/13 29/22/15 25/20/11
f 29/22/15 21/23/7 25/20/11
f 29/22/15 30/24/16 21/23/7
f 31/25/17 27/19/13 28/21/14
f 31/25/17 28/21/14 32/26/18
f 30/24/16 24/27/10 21/23/7
f 30/24/16 33/28/19 24/27/10
f 33/28/19 34/29/20 24/27/10
f 33/28/19 35/30/21 34/29/20
f 35/30/21 36/31/22 34/29/20
f 35/30/21 37/32/23 36/31/22
f 37/32/23 38/33/24 36/31/22
f 37/32/23 39/34/25 38/33/24
f 39/34/25 32/26/18 38/33/24
f 39/34/25 31/25/17 32/26/18
f 30/35/16 40/36/26 33/37/19
f 30/35/16 41/38/4 40/36/26
f 29/39/15 41/38/4 30/35/16
f 29/39/15 42/40/27 41/38/4
f 38/13/24 44/18/28 43/15/29
f 38/13/24 32/17/18 44/18/28
f 36/16/22 38/13/24 43/15/29
f 36/16/22 43/15/29 45/14/30
f 33/41/19 46/42/5 35/43/21
f 33/41/19 40/44/26 46/42/5
f 35/43/21 46/42/5 47/45/31
f 35/43/21 47/45/31 37/46/23
f 34/47/20 45/48/30 48/49/32
f 34/47/20 36/50/22 45/48/30
f 24/51/10 34/47/20 48/49/32
f 24/51/10 48/49/32 23/52/8
f 32/50/18 49/49/33 44/48/28
f 32/50/18 28/47/14 49/49/33
f 28/47/14 26/52/12 49/49/33
f 28/47/14 25/51/11 26/52/12
f 37/37/23 50/38/34 39/35/25
f 37/37/23 47/36/31 50/38/34
f 39/35/25 50/38/34 51/40/35
f 39/35/25 51/40/35 31/39/17
f 31/46/17 52/42/6 27/43/13
f 31/46/17 51/45/35 52/42/6
f 27/43/13 52/42/6 42/44/27
f 27/43/13 42/44/27 29/41/15
f 26/20/12 54/53/36 53/54/37
f 26/20/12 22/23/9 54/53/36
f 49/21/33 26/20/12 53/54/37
f 49/21/33 53/54/37 55/55/38
f 44/26/28 49/21/33 55/55/38
f 44/26/28 55/55/38 56/56/39
f 43/33/29 44/26/28 56/56/39
f 43/33/29 56/56/39 57/57/40
f 45/31/30 43/33/29 57/57/40
f 45/31/30 57/57/40 58/58/41
f 56/56/39 58/58/41 57/57/40
f 48/29/32 45/31/30 58/58/41
f 48/29/32 58/58/41 59/59/42
f 58/58/41 56/56/39 59/59/42
f 59/59/42 56/56/39 55/55/38
f 59/59/42 55/55/38 53/54/37
f 23/27/8 48/29/32 59/59/42
f 23/27/8 59/59/42 60/60/43
f 22/23/9 60/60/43 54/53/36
f 22/23/9 23/27/8 60/60/43
f 59/59/42 53/54/37 60/60/43
f 60/60/43 53/54/37 54/53/36
f 17/12/44 4/61/44 61/62/44
f 9/63/45 20/9/46 62/64/46
f 16/12/47 63/62/47 1/61/47
f 12/63/48 64/64/48 13/9/48
f 10/65/49 7/66/49 19/11/49
f 11/65/50 14/11/50 6/66/50
f 18/10/51 8/67/51 3/68/51
f 15/10/52 2/68/52 5/67/52
f 62/69/53 12/1/53 9/4/53
f 62/69/53 64/70/53 12/1/53
f 61/62/54 20/9/55 17/12/56
f 61/62/54 62/64/55 20/9/55
f 16/12/57 64/64/58 63/62/59
f 16/12/57 13/9/60 64/64/58
f 4/71/61 63/5/61 61/8/62
f 4/71/61 1/72/61 63/5/61
f 10/2/63 6/73/63 7/74/63
f 10/2/63 11/3/63 6/73/63
f 18/10/64 7/66/64 8/67/65
f 18/10/64 19/11/66 7/66/64
f 5/67/67 14/11/68 15/10/69
f 5/67/67 6/66/70 14/11/68
f 8/8/71 2/72/72 3/71/73
f 8/8/71 5/5/73 2/72/72
f 9/63/74 19/11/75 20/9/74
f 9/63/74 10/65/75 19/11/75
f 3/68/76 17/12/77 18/10/78
f 3/68/76 4/61/79 17/12/77
f 1/61/80 15/10/81 16/12/80
f 1/61/80 2/68/82 15/10/81
f 11/65/83 13/9/83 14/11/84
f 11/65/83 12/63/84 13/9/83
f 65/75/85 64/7/86 62/6/85
f 65/75/85 66/76/85 64/7/86
f 67/77/87 65/75/85 62/6/85
f 67/77/87 62/6/85 61/8/88
f 66/76/85 63/5/87 64/7/86
f 66/76/85 68/78/89 63/5/87
f 68/78/89 61/8/88 63/5/87
f 68/78/89 67/77/87 61/8/88
f 69/78/85 71/75/85 70/77/85
f 69/78/85 72/76/85 71/75/85
f 66/79/4 71/80/4 72/81/4
f 66/79/4 65/82/4 71/80/4
f 73/83/4 75/84/4 74/85/4
f 73/83/4 76/86/4 75/84/4
f 77/87/85 74/88/85 78/89/85
f 77/87/85 73/90/85 74/88/85
f 68/91/5 72/92/5 69/93/5
f 68/91/5 66/94/5 72/92/5
f 67/82/34 69/81/34 70/80/34
f 67/82/34 68/79/34 69/81/34
f 73/95/6 65/94/6 67/91/6
f 73/95/6 77/96/6 65/94/6
f 77/96/6 71/92/6 65/94/6
f 77/96/6 79/97/6 71/92/6
f 79/98/6 70/99/6 71/100/6
f 79/98/6 76/101/6 70/99/6
f 76/101/6 67/102/6 70/99/6
f 76/101/6 73/103/6 67/102/6
f 78/96/6 75/104/6 80/97/6
f 78/96/6 74/95/6 75/104/6
f 79/105/34 78/106/34 80/107/34
f 79/105/34 77/108/34 78/106/34
f 76/90/3 80/89/3 75/88/3
f 76/90/3 79/87/3 80/89/3
