# Blender 4.1.1
# www.blender.org
mtllib FridgeDrawer2_12_FridgeDrawer2B6_2_GeomSubset_0.mtl
o FridgeDrawer2_12_FridgeDrawer2B6_2_GeomSubset_0
v -0.016557 0.067322 -0.895309
v -0.016547 0.067322 -0.895309
v -0.016557 0.067332 -0.895309
v -0.016547 0.067332 -0.895309
v 0.015783 0.241071 -0.586503
v 0.329976 0.241071 -0.586503
v 0.015783 0.241071 -0.579273
v 0.015783 0.169903 -0.579273
v 0.015783 0.164839 -0.579273
v 0.015783 -0.185944 -0.579273
v 0.329976 0.169903 -0.579273
v 0.329976 0.241071 -0.579273
v 0.329976 0.164839 -0.579273
v 0.329976 -0.185944 -0.579273
v 0.322460 -0.178924 -0.578111
v 0.023300 -0.178924 -0.578111
v 0.026413 0.169903 -0.579273
v 0.023300 0.233949 -0.579273
v 0.026413 0.164839 -0.579273
v 0.319346 0.164839 -0.579273
v 0.322460 0.233949 -0.579273
v 0.319346 0.169903 -0.579273
v 0.025805 0.164489 -0.601330
v 0.022622 -0.174353 -0.601330
v 0.319955 0.164489 -0.601330
v 0.319961 0.168930 -0.601330
v 0.324603 0.221189 -0.601330
v 0.323138 -0.174353 -0.601330
v 0.025799 0.168930 -0.601330
v 0.021157 0.221189 -0.601330
v 0.015783 0.231059 -0.601330
v 0.329976 0.231059 -0.601330
v 0.329976 -0.182048 -0.601330
v 0.015783 -0.182048 -0.601330
v 0.015783 0.169903 -0.601330
v 0.015783 0.164839 -0.601330
v 0.329976 0.164839 -0.601330
v 0.329976 0.169903 -0.601330
v 0.015783 -0.200147 -0.579273
v 0.329976 -0.200147 -0.579273
v 0.329976 -0.196251 -0.601330
v 0.015783 -0.196251 -0.601330
vn -0.0000 -0.0000 1.0000
vn -0.0000 -0.8656 0.5007
vn -0.0000 -0.8424 0.5388
vn -0.0809 -0.0679 0.9944
vn 0.0382 -0.0240 0.9990
vn 0.0809 -0.0679 0.9944
vn -0.0316 0.0026 0.9995
vn 0.0321 0.0026 0.9995
vn 0.0316 0.0026 0.9995
vn -0.0321 0.0026 0.9995
vn -0.0000 1.0000 -0.0000
vn -0.0000 0.9129 -0.4082
vn 0.0001 0.9107 -0.4131
vn 0.9995 -0.0095 -0.0297
vn 0.9996 -0.0094 -0.0284
vn 0.9995 -0.0092 -0.0310
vn -0.9962 0.0841 -0.0227
vn -0.9995 -0.0095 -0.0285
vn -0.9956 0.0677 -0.0649
vn -0.9944 0.0663 -0.0829
vn -0.9995 -0.0095 -0.0286
vn -0.9995 -0.0095 -0.0295
vn -0.9995 -0.0092 -0.0310
vn 0.9962 0.0841 -0.0226
vn 0.9956 0.0677 -0.0649
vn 0.9943 0.0663 -0.0829
vn 0.9911 0.0482 -0.1242
vn -0.0000 0.9812 0.1932
vn -0.0000 0.8288 -0.5596
vn -0.0000 -0.9848 -0.1739
vn -1.0000 -0.0000 -0.0000
vn 1.0000 -0.0000 -0.0000
vn -0.0382 -0.0240 0.9990
vn -0.0000 -0.0000 -1.0000
vn 0.9996 -0.0092 -0.0269
vn -0.9996 -0.0092 -0.0269
vn -0.9911 0.0482 -0.1242
vn -0.9995 -0.0095 -0.0296
vn 0.9944 0.0663 -0.0829
vn -0.0000 0.8287 -0.5596
vt -170.808044 -111.205917
vt -170.807968 -111.205833
vt -170.808044 -111.205833
vt -170.105637 0.488454
vt -170.153412 -0.639545
vt -170.105637 -0.631522
vt -171.116241 -0.481353
vt -170.302658 -0.499976
vt -170.322617 -0.481353
vt -171.116241 0.613961
vt -171.136200 0.444052
vt -171.108002 0.444052
vt -171.108002 0.430617
vt -170.302658 0.430617
vt -170.330872 0.430617
vt -170.302658 0.444052
vt -170.322617 0.613961
vt -170.330872 0.444052
vt -171.136200 0.430617
vt -170.302658 0.632854
vt -170.272232 0.381920
vt -170.251785 -0.506402
vt -170.251785 0.381920
vt -170.363037 0.558178
vt -170.304565 -0.340924
vt -170.301468 0.570294
vt -170.316925 0.398070
vt -170.258469 0.387220
vt -170.258469 0.400649
vt -170.316925 0.536639
vt -170.316925 -0.512176
vt -170.255371 -0.524296
vt -170.363037 -0.351770
vt -170.304565 -0.354349
vt -170.363037 -0.490294
vt -170.304565 -0.524117
vt -170.197052 0.872929
vt -170.134949 0.070859
vt -170.134949 0.874743
vt -170.209869 0.381920
vt -170.209869 -0.506402
vt -170.226105 -0.481587
vt -170.167206 0.357106
vt -170.226105 0.357106
vt -170.392822 0.632010
vt -170.411972 0.632010
vt -170.451279 0.605489
vt -170.392822 0.430065
vt -170.451279 0.443481
vt -170.451279 0.430065
vt -170.348434 -0.334868
vt -170.406876 0.584065
vt -170.406876 -0.334868
vt -170.406876 -0.510293
vt -170.367584 -0.536815
vt -170.348434 -0.536815
vt -170.348434 -0.348284
vt -170.406876 -0.348284
vt -170.451279 -0.488865
vt -170.392822 -0.499186
vt -171.136200 -0.499976
vt -170.302658 -0.537657
vt -170.451279 -0.526492
vt -170.392822 -0.536813
vt -170.177872 -0.478380
vt -170.140228 0.353899
vt -170.177872 0.353899
vt -170.348434 0.594386
vt -170.406876 0.621691
vt -170.807968 -111.205917
vt -170.153412 0.496477
vt -171.136200 0.632854
vt -170.272232 -0.506402
vt -170.363037 -0.339999
vt -170.316925 0.386294
vt -170.258469 0.570473
vt -170.197052 0.072673
vt -170.167206 -0.481587
vt -170.392822 0.443481
vt -171.136200 -0.537657
vt -170.140228 -0.478380
vt -170.348434 0.632012
s 1
usemtl M_FridgeDrawer2B6_0
f 2/1/1 3/2/1 1/3/1
f 18/4/2 27/5/3 21/6/2
f 16/7/4 14/8/5 15/9/6
f 18/10/1 8/11/1 17/12/1
f 8/11/1 19/13/7 17/12/1
f 15/9/6 13/14/8 20/15/9
f 11/16/1 21/17/1 22/18/1
f 13/14/8 22/18/1 20/15/9
f 9/19/10 16/7/4 19/13/7
f 12/20/1 18/10/1 21/17/1
f 7/21/11 6/22/12 5/23/13
f 24/24/14 19/25/15 16/26/16
f 26/27/17 20/28/18 22/29/19
f 22/29/19 27/30/20 26/27/17
f 20/28/21 28/31/22 15/32/23
f 19/25/15 29/33/24 17/34/25
f 17/34/25 30/35/26 18/36/27
f 16/37/28 28/38/28 24/39/28
f 31/40/29 6/22/12 32/41/29
f 41/42/30 39/43/30 42/44/30
f 7/45/31 5/46/31 31/47/31
f 9/48/31 35/49/31 36/50/31
f 13/51/32 33/52/32 37/53/32
f 32/54/32 6/55/32 12/56/32
f 11/57/32 37/53/32 38/58/32
f 9/48/31 34/59/31 10/60/31
f 10/61/33 40/62/1 14/8/5
f 10/60/31 42/63/31 39/64/31
f 33/65/34 42/66/34 34/67/34
f 14/68/32 41/69/32 33/52/32
f 2/1/1 4/70/1 3/2/1
f 18/4/2 30/71/3 27/5/3
f 16/7/4 10/61/33 14/8/5
f 18/10/1 7/72/1 8/11/1
f 8/11/1 9/19/10 19/13/7
f 15/9/6 14/8/5 13/14/8
f 11/16/1 12/20/1 21/17/1
f 13/14/8 11/16/1 22/18/1
f 9/19/10 10/61/33 16/7/4
f 12/20/1 7/72/1 18/10/1
f 7/21/11 12/73/11 6/22/12
f 24/24/14 23/74/35 19/25/15
f 26/27/17 25/75/36 20/28/18
f 22/29/19 21/76/37 27/30/20
f 20/28/18 25/75/36 28/31/38
f 19/25/15 23/74/35 29/33/24
f 17/34/25 29/33/24 30/35/39
f 16/37/28 15/77/28 28/38/28
f 31/40/40 5/23/13 6/22/12
f 41/42/30 40/78/30 39/43/30
f 35/49/31 8/79/31 31/47/31
f 8/79/31 7/45/31 31/47/31
f 9/48/31 8/79/31 35/49/31
f 13/51/32 14/68/32 33/52/32
f 12/56/32 11/57/32 32/54/32
f 11/57/32 38/58/32 32/54/32
f 11/57/32 13/51/32 37/53/32
f 9/48/31 36/50/31 34/59/31
f 10/61/33 39/80/1 40/62/1
f 10/60/31 34/59/31 42/63/31
f 33/65/34 41/81/34 42/66/34
f 14/68/32 40/82/32 41/69/32
