# Blender 4.1.1
# www.blender.org
mtllib FridgeDrawer2_12_FridgeDrawer2B6_2_GeomSubset_0.mtl
o FridgeDrawer2_12_FridgeDrawer2B6_2_GeomSubset_0
v -0.013609 0.019833 -0.889139
v -0.013599 0.019833 -0.889139
v -0.013609 0.019842 -0.889139
v -0.013599 0.019842 -0.889139
v 0.018732 0.193581 -0.580332
v 0.332925 0.193581 -0.580332
v 0.018732 0.193581 -0.573102
v 0.018732 0.122413 -0.573102
v 0.018732 0.117349 -0.573102
v 0.018732 -0.233433 -0.573102
v 0.332925 0.122413 -0.573102
v 0.332925 0.193581 -0.573102
v 0.332925 0.117349 -0.573102
v 0.332925 -0.233433 -0.573102
v 0.325408 -0.226413 -0.571940
v 0.026248 -0.226413 -0.571940
v 0.029362 0.122413 -0.573102
v 0.026248 0.186460 -0.573102
v 0.029362 0.117349 -0.573102
v 0.322295 0.117349 -0.573102
v 0.325408 0.186460 -0.573102
v 0.322295 0.122413 -0.573102
v 0.028753 0.117000 -0.595159
v 0.025570 -0.221843 -0.595159
v 0.322903 0.117000 -0.595159
v 0.322909 0.121441 -0.595159
v 0.327551 0.173700 -0.595159
v 0.326086 -0.221843 -0.595159
v 0.028747 0.121441 -0.595159
v 0.024105 0.173700 -0.595159
v 0.018732 0.183570 -0.595159
v 0.332925 0.183570 -0.595159
v 0.332925 -0.229537 -0.595159
v 0.018732 -0.229537 -0.595159
v 0.018732 0.122413 -0.595159
v 0.018732 0.117349 -0.595159
v 0.332925 0.117349 -0.595159
v 0.332925 0.122413 -0.595159
v 0.018732 -0.247637 -0.573102
v 0.332925 -0.247637 -0.573102
v 0.332925 -0.243741 -0.595159
v 0.018732 -0.243741 -0.595159
vn -0.0000 -0.0000 1.0000
vn -0.0000 -0.8656 0.5007
vn -0.0000 -0.8424 0.5388
vn -0.0382 -0.0239 0.9990
vn 0.0809 -0.0679 0.9944
vn -0.0809 -0.0679 0.9944
vn -0.0316 0.0026 0.9995
vn 0.0321 0.0026 0.9995
vn 0.0316 0.0026 0.9995
vn -0.0321 0.0026 0.9995
vn -0.0000 1.0000 -0.0000
vn -0.0000 0.9129 -0.4082
vn -0.0000 0.9107 -0.4131
vn 0.9995 -0.0095 -0.0294
vn 0.9996 -0.0094 -0.0284
vn 0.9995 -0.0092 -0.0310
vn -0.9962 0.0841 -0.0226
vn -0.9995 -0.0095 -0.0285
vn -0.9956 0.0677 -0.0649
vn -0.9943 0.0663 -0.0829
vn -0.9995 -0.0095 -0.0293
vn -0.9995 -0.0092 -0.0310
vn 0.9962 0.0841 -0.0227
vn 0.9956 0.0677 -0.0649
vn 0.9943 0.0663 -0.0829
vn 0.9911 0.0482 -0.1242
vn -0.0000 0.9812 0.1931
vn -0.0000 0.8288 -0.5596
vn -0.0000 -0.9848 -0.1739
vn -1.0000 -0.0000 -0.0000
vn 1.0000 -0.0000 -0.0000
vn 0.0382 -0.0241 0.9990
vn -0.0000 -0.0000 -1.0000
vn 0.9996 -0.0092 -0.0269
vn -0.9996 -0.0092 -0.0269
vn -0.9911 0.0482 -0.1242
vn -0.9995 -0.0095 -0.0295
vn 0.9944 0.0663 -0.0829
vt -170.808044 -111.205917
vt -170.807968 -111.205833
vt -170.808044 -111.205833
vt -170.105637 0.488454
vt -170.153412 -0.639545
vt -170.105637 -0.631522
vt -171.136200 -0.499976
vt -170.322617 -0.481353
vt -171.116241 -0.481353
vt -171.116241 0.613961
vt -171.136200 0.444052
vt -171.108002 0.444052
vt -171.108002 0.430617
vt -170.302658 0.430617
vt -170.330872 0.430617
vt -170.302658 0.444052
vt -170.322617 0.613961
vt -170.330872 0.444052
vt -171.136200 0.430617
vt -171.136200 0.632854
vt -170.272232 0.381920
vt -170.251785 -0.506402
vt -170.251785 0.381920
vt -170.363037 0.558178
vt -170.304565 -0.340924
vt -170.301468 0.570294
vt -170.316925 0.398070
vt -170.258469 0.387220
vt -170.258469 0.400649
vt -170.316925 0.536639
vt -170.316925 -0.512176
vt -170.255371 -0.524296
vt -170.363037 -0.351770
vt -170.304565 -0.354349
vt -170.363037 -0.490294
vt -170.304565 -0.524117
vt -170.197052 0.872929
vt -170.134949 0.070859
vt -170.134949 0.874743
vt -170.209869 0.381920
vt -170.209869 -0.506402
vt -170.226105 -0.481587
vt -170.167206 0.357106
vt -170.226105 0.357106
vt -170.392822 0.632010
vt -170.411972 0.632010
vt -170.451279 0.605489
vt -170.392822 0.430065
vt -170.451279 0.443481
vt -170.451279 0.430065
vt -170.348434 -0.334868
vt -170.406876 0.584065
vt -170.406876 -0.334868
vt -170.406876 -0.510293
vt -170.367584 -0.536815
vt -170.348434 -0.536815
vt -170.348434 -0.348284
vt -170.406876 -0.348284
vt -170.451279 -0.488865
vt -170.392822 -0.499186
vt -170.302658 -0.537657
vt -170.302658 -0.499976
vt -170.451279 -0.526492
vt -170.392822 -0.536813
vt -170.177872 -0.478380
vt -170.140228 0.353899
vt -170.177872 0.353899
vt -170.348434 0.594386
vt -170.406876 0.621691
vt -170.807968 -111.205917
vt -170.153412 0.496477
vt -170.302658 0.632854
vt -170.272232 -0.506402
vt -170.363037 -0.339999
vt -170.316925 0.386294
vt -170.258469 0.570473
vt -170.197052 0.072673
vt -170.167206 -0.481587
vt -170.392822 0.443481
vt -171.136200 -0.537657
vt -170.140228 -0.478380
vt -170.348434 0.632012
s 1
usemtl M_FridgeDrawer2B6_0
f 2/1/1 3/2/1 1/3/1
f 18/4/2 27/5/3 21/6/2
f 10/7/4 15/8/5 16/9/6
f 18/10/1 8/11/1 17/12/1
f 8/11/1 19/13/7 17/12/1
f 15/8/5 13/14/8 20/15/9
f 11/16/1 21/17/1 22/18/1
f 13/14/8 22/18/1 20/15/9
f 9/19/10 16/9/6 19/13/7
f 21/17/1 7/20/1 18/10/1
f 7/21/11 6/22/12 5/23/13
f 24/24/14 19/25/15 16/26/16
f 26/27/17 20/28/18 22/29/19
f 22/29/19 27/30/20 26/27/17
f 20/28/18 28/31/21 15/32/22
f 19/25/15 29/33/23 17/34/24
f 17/34/24 30/35/25 18/36/26
f 16/37/27 28/38/27 24/39/27
f 31/40/28 6/22/12 32/41/28
f 41/42/29 39/43/29 42/44/29
f 7/45/30 5/46/30 31/47/30
f 9/48/30 35/49/30 36/50/30
f 13/51/31 33/52/31 37/53/31
f 32/54/31 6/55/31 12/56/31
f 11/57/31 37/53/31 38/58/31
f 9/48/30 34/59/30 10/60/30
f 10/7/4 40/61/1 14/62/32
f 10/60/30 42/63/30 39/64/30
f 33/65/33 42/66/33 34/67/33
f 14/68/31 41/69/31 33/52/31
f 2/1/1 4/70/1 3/2/1
f 18/4/2 30/71/3 27/5/3
f 10/7/4 14/62/32 15/8/5
f 18/10/1 7/20/1 8/11/1
f 8/11/1 9/19/10 19/13/7
f 15/8/5 14/62/32 13/14/8
f 11/16/1 12/72/1 21/17/1
f 13/14/8 11/16/1 22/18/1
f 9/19/10 10/7/4 16/9/6
f 21/17/1 12/72/1 7/20/1
f 7/21/11 12/73/11 6/22/12
f 24/24/14 23/74/34 19/25/15
f 26/27/17 25/75/35 20/28/18
f 22/29/19 21/76/36 27/30/20
f 20/28/18 25/75/35 28/31/37
f 19/25/15 23/74/34 29/33/23
f 17/34/24 29/33/23 30/35/38
f 16/37/27 15/77/27 28/38/27
f 31/40/28 5/23/13 6/22/12
f 41/42/29 40/78/29 39/43/29
f 35/49/30 8/79/30 31/47/30
f 8/79/30 7/45/30 31/47/30
f 9/48/30 8/79/30 35/49/30
f 13/51/31 14/68/31 33/52/31
f 12/56/31 11/57/31 32/54/31
f 11/57/31 38/58/31 32/54/31
f 11/57/31 13/51/31 37/53/31
f 9/48/30 36/50/30 34/59/30
f 10/7/4 39/80/1 40/61/1
f 10/60/30 34/59/30 42/63/30
f 33/65/33 41/81/33 42/66/33
f 14/68/31 40/82/31 41/69/31
