# Blender 4.1.1
# www.blender.org
mtllib LidMeshLaptopLid_6_0_GeomSubset_5.mtl
o LidMeshLaptopLid_6_0_GeomSubset_5
v 0.174584 0.115890 -0.150453
v 0.000500 0.115890 -0.150453
v 0.174584 0.115890 -0.377098
v 0.000500 0.115890 -0.377098
v -0.173584 0.115890 -0.150453
v -0.173584 0.115890 -0.377098
vn -0.0000 1.0000 -0.0000
vt 9.999291 0.999999
vt 9.499292 0.500001
vt 9.999292 0.500001
vt 9.499294 0.000001
vt 9.999290 0.000001
vt 9.499293 0.999999
s 1
usemtl M_LaptopLid_6_5
f 1/1/1 4/2/1 2/3/1
f 2/3/1 6/4/1 5/5/1
f 1/1/1 3/6/1 4/2/1
f 2/3/1 4/2/1 6/4/1
