# Blender 4.1.1
# www.blender.org
mtllib LidMeshLaptopLid_6_0_GeomSubset_4.mtl
o LidMeshLaptopLid_6_0_GeomSubset_4
v -0.000132 0.114424 -0.127406
v 0.001132 0.114424 -0.127406
v -0.000132 0.113161 -0.127406
v 0.001132 0.113161 -0.127406
v -0.000132 0.114424 -0.127406
v 0.001132 0.114424 -0.127406
v -0.000132 0.113161 -0.127406
v 0.001132 0.113161 -0.127406
vn -0.0000 -0.0000 -1.0000
vt 1.000000 -19.673967
vt 0.000000 -18.673967
vt 0.000000 -19.673967
vt 1.000000 -18.673967
s 1
usemtl M_LaptopLid_6_4
f 2/1/1 3/2/1 1/3/1
f 6/1/1 7/2/1 5/3/1
f 2/1/1 4/4/1 3/2/1
f 6/1/1 8/4/1 7/2/1
