# Blender 4.1.1
# www.blender.org
mtllib MainMeshLaptop_6_1_GeomSubset_4.mtl
o MainMeshLaptop_6_1_GeomSubset_4
v -0.000132 0.000380 -0.132797
v 0.001132 0.000380 -0.132797
v -0.000132 0.001644 -0.132797
v 0.001132 0.001644 -0.132797
v -0.000132 0.000380 -0.132797
v 0.001132 0.000380 -0.132797
v -0.000132 0.001644 -0.132797
v 0.001132 0.001644 -0.132797
v -0.169928 0.112139 -0.117947
v 0.171012 0.112139 -0.117947
v -0.169928 -0.032410 -0.117947
v 0.171012 -0.032410 -0.117947
vn -0.0000 -0.0000 1.0000
vt 1.000000 -19.673967
vt 0.000000 -18.673967
vt 0.000000 -19.673967
vt -1.000327 0.309308
vt -2.001546 0.732047
vt -2.001546 0.309308
vt 1.000000 -18.673967
vt -1.000327 0.732047
s 1
usemtl M_Laptop_6_4
f 2/1/1 3/2/1 1/3/1
f 6/1/1 7/2/1 5/3/1
f 12/4/1 9/5/1 11/6/1
f 2/1/1 4/7/1 3/2/1
f 6/1/1 8/7/1 7/2/1
f 12/4/1 10/8/1 9/5/1
