# Blender 4.1.1
# www.blender.org
mtllib MeshRobothorPenSigno_0_GeomSubset_2.mtl
o MeshRobothorPenSigno_0_GeomSubset_2
v 0.006403 0.010416 0.003842
v 0.008926 0.010416 0.004518
v 0.011449 0.010416 0.003842
v 0.013296 0.010416 0.001995
v 0.013972 0.010416 -0.000528
v 0.013296 0.010416 -0.003050
v 0.011449 0.010416 -0.004897
v 0.008926 0.010416 -0.005573
v 0.006403 0.010416 -0.004897
v 0.004557 0.010416 -0.003050
v 0.003881 0.010416 -0.000528
v 0.004557 0.010416 0.001995
v 0.006394 0.011896 0.003858
v 0.008926 0.011896 0.004537
v 0.011458 0.011896 0.003858
v 0.013312 0.011896 0.002005
v 0.013990 0.011896 -0.000527
v 0.013312 0.011896 -0.003060
v 0.011458 0.011896 -0.004913
v 0.008926 0.011896 -0.005592
v 0.006394 0.011896 -0.004913
v 0.004541 0.011896 -0.003060
v 0.003862 0.011896 -0.000528
v 0.004541 0.011896 0.002005
v 0.008926 0.005446 0.004120
v 0.011250 0.005446 0.003498
v 0.012952 0.005446 0.001796
v 0.013574 0.005446 -0.000528
v 0.012952 0.005446 -0.002851
v 0.011250 0.005446 -0.004553
v 0.008926 0.005446 -0.005175
v 0.006602 0.005446 -0.004553
v 0.004901 0.005446 -0.002852
v 0.004278 0.005446 -0.000528
v 0.004901 0.005446 0.001796
v 0.006602 0.005446 0.003498
v 0.006603 -0.047365 0.003498
v 0.008927 -0.046446 0.004120
v 0.011250 -0.047365 0.003498
v 0.012952 -0.048829 0.001796
v 0.013574 -0.049340 -0.000527
v 0.012952 -0.048829 -0.002851
v 0.011251 -0.047365 -0.004553
v 0.008927 -0.046446 -0.005175
v 0.006603 -0.047365 -0.004553
v 0.004901 -0.048829 -0.002851
v 0.004279 -0.049340 -0.000528
v 0.004901 -0.048829 0.001796
vn -0.5258 -0.0282 0.8501
vn -0.0000 -0.0640 0.9980
vn -0.4991 -0.0638 0.8642
vn 0.5023 -0.0077 0.8646
vn 0.4990 -0.0638 0.8643
vn 0.8671 -0.0076 0.4981
vn 0.8643 -0.0639 0.4990
vn 0.9984 -0.0536 -0.0163
vn 1.0000 -0.0080 -0.0001
vn 0.8671 -0.0076 -0.4982
vn 0.8642 -0.0638 -0.4990
vn 0.5023 -0.0077 -0.8647
vn 0.4990 -0.0638 -0.8643
vn -0.0162 -0.0537 -0.9984
vn -0.0000 -0.0073 -1.0000
vn -0.5023 -0.0077 -0.8646
vn -0.4990 -0.0638 -0.8643
vn -0.8670 -0.0076 -0.4982
vn -0.8643 -0.0639 -0.4989
vn -1.0000 -0.0080 -0.0000
vn -0.9980 -0.0638 -0.0000
vn -0.8671 -0.0077 0.4981
vn -0.8643 -0.0639 0.4989
vn -0.4999 -0.0001 0.8661
vn 0.4999 -0.0002 0.8661
vn -0.0000 -0.0006 1.0000
vn 0.8660 -0.0004 0.5000
vn 1.0000 -0.0001 0.0002
vn 0.8660 -0.0004 -0.5001
vn 0.4999 -0.0002 -0.8661
vn -0.4999 -0.0003 -0.8661
vn -0.0000 -0.0007 -1.0000
vn -0.8660 -0.0003 -0.5001
vn -1.0000 -0.0004 -0.0000
vn -0.8660 -0.0003 0.5000
vn 0.0001 -0.0000 1.0000
vn 0.5545 -0.0000 0.8322
vn 0.8961 -0.0000 0.4439
vn 1.0000 -0.0000 -0.0000
vn 0.8962 -0.0000 -0.4437
vn 0.5546 -0.0000 -0.8321
vn -0.0000 -0.0000 -1.0000
vn -0.5545 -0.0000 -0.8322
vn -0.8961 -0.0000 -0.4438
vn -1.0000 -0.0000 -0.0000
vn -0.8961 -0.0000 0.4438
vn -0.5544 -0.0000 0.8322
vn -0.0329 -0.0405 0.9986
vt -29.957462 0.700629
vt -29.937593 0.741158
vt -29.957462 0.741118
vt -29.917557 0.700574
vt -29.917557 0.741063
vt -29.902794 0.700409
vt -29.902794 0.740868
vt -29.883064 0.740693
vt -29.883064 0.700248
vt -29.863058 0.700086
vt -29.863058 0.740518
vt -29.848360 0.699993
vt -29.848360 0.740470
vt -29.828112 0.740229
vt -29.828749 0.699722
vt -30.046467 0.740523
vt -30.026381 0.700234
vt -30.026381 0.740713
vt -30.011549 0.700286
vt -30.011549 0.740723
vt -29.991997 0.700396
vt -29.991997 0.740842
vt -29.972034 0.700506
vt -29.972034 0.740961
vt -29.957462 0.752750
vt -29.917557 0.752750
vt -29.937593 0.752750
vt -29.902794 0.752750
vt -29.883064 0.752750
vt -29.863058 0.752750
vt -29.848360 0.752750
vt -30.026381 0.752750
vt -30.046625 0.752750
vt -30.011549 0.752750
vt -29.991997 0.752750
vt -29.972034 0.752750
vt -29.937593 0.277685
vt -29.917557 0.270468
vt -29.902794 0.258738
vt -29.883064 0.254420
vt -29.863058 0.258415
vt -29.848360 0.269912
vt -29.828712 0.276807
vt -30.047068 0.277087
vt -30.026381 0.270144
vt -30.011549 0.258611
vt -29.991997 0.254563
vt -29.972034 0.258830
vt -29.957462 0.270522
vt -29.937593 0.700647
vt -30.045938 0.700015
vt -29.827925 0.752750
s 1
usemtl M_RobothorPenSigno_2
f 36/1/1 2/2/2 1/3/3
f 2/2/2 26/4/4 3/5/5
f 3/5/5 27/6/6 4/7/7
f 5/8/8 27/6/6 28/9/9
f 5/8/8 29/10/10 6/11/11
f 6/11/11 30/12/12 7/13/13
f 8/14/14 30/12/12 31/15/15
f 8/16/14 32/17/16 9/18/17
f 9/18/17 33/19/18 10/20/19
f 10/20/19 34/21/20 11/22/21
f 11/22/21 35/23/22 12/24/23
f 12/24/23 36/1/1 1/3/3
f 2/2/2 13/25/24 1/3/3
f 2/2/2 15/26/25 14/27/26
f 3/5/5 16/28/27 15/26/25
f 4/7/7 17/29/28 16/28/27
f 5/8/8 18/30/29 17/29/28
f 7/13/13 18/30/29 6/11/11
f 8/14/14 19/31/30 7/13/13
f 8/16/14 21/32/31 20/33/32
f 9/18/17 22/34/33 21/32/31
f 10/20/19 23/35/34 22/34/33
f 12/24/23 23/35/34 11/22/21
f 1/3/3 24/36/35 12/24/23
f 26/4/4 38/37/36 39/38/37
f 27/6/6 39/38/37 40/39/38
f 28/9/9 40/39/38 41/40/39
f 28/9/9 42/41/40 29/10/10
f 29/10/10 43/42/41 30/12/12
f 30/12/12 44/43/42 31/15/15
f 32/17/16 44/44/42 45/45/43
f 33/19/18 45/45/43 46/46/44
f 34/21/20 46/46/44 47/47/45
f 34/21/20 48/48/46 35/23/22
f 35/23/22 37/49/47 36/1/1
f 36/1/1 38/37/36 25/50/48
f 36/1/1 25/50/48 2/2/2
f 2/2/2 25/50/48 26/4/4
f 3/5/5 26/4/4 27/6/6
f 5/8/8 4/7/7 27/6/6
f 5/8/8 28/9/9 29/10/10
f 6/11/11 29/10/10 30/12/12
f 8/14/14 7/13/13 30/12/12
f 8/16/14 31/51/15 32/17/16
f 9/18/17 32/17/16 33/19/18
f 10/20/19 33/19/18 34/21/20
f 11/22/21 34/21/20 35/23/22
f 12/24/23 35/23/22 36/1/1
f 2/2/2 14/27/26 13/25/24
f 2/2/2 3/5/5 15/26/25
f 3/5/5 4/7/7 16/28/27
f 4/7/7 5/8/8 17/29/28
f 5/8/8 6/11/11 18/30/29
f 7/13/13 19/31/30 18/30/29
f 8/14/14 20/52/32 19/31/30
f 8/16/14 9/18/17 21/32/31
f 9/18/17 10/20/19 22/34/33
f 10/20/19 11/22/21 23/35/34
f 12/24/23 24/36/35 23/35/34
f 1/3/3 13/25/24 24/36/35
f 26/4/4 25/50/48 38/37/36
f 27/6/6 26/4/4 39/38/37
f 28/9/9 27/6/6 40/39/38
f 28/9/9 41/40/39 42/41/40
f 29/10/10 42/41/40 43/42/41
f 30/12/12 43/42/41 44/43/42
f 32/17/16 31/51/15 44/44/42
f 33/19/18 32/17/16 45/45/43
f 34/21/20 33/19/18 46/46/44
f 34/21/20 47/47/45 48/48/46
f 35/23/22 48/48/46 37/49/47
f 36/1/1 37/49/47 38/37/36
