# Blender 4.1.1
# www.blender.org
mtllib MeshBox_8_FlapOuter_1_1.mtl
o Box_8_FlapOuter_1
v -0.170514 2.721492 0.522952
v 0.173684 2.721492 0.522952
v -0.170514 2.721658 0.524363
v 0.173684 2.721657 0.524363
v -0.170514 2.852740 0.508490
v -0.170514 2.852739 0.508715
v -0.170514 2.852860 0.508431
v -0.170514 2.852471 0.508926
v -0.170514 2.852434 0.508736
v -0.170514 2.852181 0.509043
v 0.173684 2.852435 0.508734
v 0.173684 2.852469 0.508927
v 0.173684 2.852181 0.509043
v 0.173684 2.852860 0.508431
v 0.173684 2.852740 0.508714
v 0.173684 2.852740 0.508490
v -0.170514 2.852635 0.507822
v -0.170514 2.852688 0.508039
v -0.170514 2.852818 0.508071
v -0.170514 2.852333 0.507874
v -0.170514 2.852323 0.507678
v -0.170514 2.852016 0.507632
v 0.173684 2.852324 0.507679
v 0.173684 2.852332 0.507872
v 0.173684 2.852015 0.507632
v 0.173684 2.852817 0.508071
v 0.173684 2.852687 0.508041
v 0.173684 2.852635 0.507822
vn -0.0000 -0.9932 0.1161
vn -0.0000 -0.9932 0.1168
vn -1.0000 -0.0000 -0.0000
vn -0.0000 0.7859 0.6184
vn -0.0000 0.9928 0.1198
vn -0.0000 0.9925 0.1223
vn -0.0000 0.1189 0.9929
vn -0.0000 0.5065 0.8623
vn -0.0000 0.5074 0.8617
vn 1.0000 -0.0000 -0.0000
vn -0.0000 0.6223 -0.7828
vn -0.0000 0.9379 -0.3468
vn -0.0000 0.6222 -0.7829
vn -0.0000 0.2938 -0.9559
vn -0.0000 -0.1132 -0.9936
vn -0.0001 -0.1164 -0.9932
vn -0.0000 0.7866 0.6175
vn -0.0000 0.2941 -0.9558
vn -0.0000 -0.1166 -0.9932
vn -0.0000 0.1166 0.9932
vn -0.0000 0.1177 0.9931
vn 1.0000 -0.0005 0.0001
vt 1.529613 0.512573
vt 1.535070 1.444735
vt 1.529613 1.444735
vt 1.520731 0.467651
vt 1.519014 0.468502
vt 1.518816 0.467655
vt 1.521674 0.467579
vt 1.521612 0.466775
vt 1.522439 0.466800
vt 1.520545 1.488809
vt 1.520545 0.468498
vt 1.522776 0.466457
vt 1.522430 1.489816
vt 1.522568 0.466457
vt 1.517950 0.466777
vt 1.517069 0.466556
vt 1.521604 1.490531
vt 1.516987 1.490850
vt 1.517942 1.490533
vt 1.521672 1.489059
vt 1.520731 1.489657
vt 1.519014 1.488806
vt 1.517910 0.467610
vt 1.517883 1.489059
vt 1.517146 0.466831
vt 1.516779 1.490586
vt 1.516779 0.466457
vt 1.518823 1.489657
vt 1.517128 1.489803
vt 1.499303 1.444736
vt 1.189925 0.512572
vt 1.499305 0.512572
vt 0.851932 1.444736
vt 1.161312 0.512572
vt 1.161310 1.444736
vt 0.834132 1.156673
vt 0.828675 1.466052
vt 0.828675 1.156675
vt 0.816288 1.156674
vt 0.821745 1.466053
vt 0.816288 1.466053
vt 1.522775 1.490587
vt 1.535070 0.512572
vt 1.522485 1.490752
vt 1.189925 1.444736
vt 0.851932 0.512572
vt 0.834132 1.466052
vt 0.821745 1.156672
s 1
usemtl M_Box_8_FlapOuter_1_0
f 2/1/1 3/2/2 1/3/2
f 5/4/3 19/5/3 18/6/3
f 6/7/3 9/8/3 8/9/3
f 6/7/4 14/10/5 7/11/6
f 10/12/7 12/13/8 8/9/9
f 10/14/3 20/15/3 22/16/3
f 11/17/10 25/18/10 24/19/10
f 11/17/10 15/20/10 12/13/10
f 16/21/10 26/22/10 14/10/10
f 17/23/11 26/22/12 28/24/13
f 17/23/3 20/15/3 18/6/3
f 21/25/14 25/26/15 22/27/16
f 24/19/10 28/24/10 27/28/10
f 8/9/9 15/20/17 6/7/4
f 5/4/3 20/15/3 9/8/3
f 11/17/10 27/28/10 16/21/10
f 17/23/11 23/29/18 21/25/14
f 14/10/5 19/5/12 7/11/6
f 25/30/15 1/31/19 22/32/16
f 3/33/20 13/34/21 10/35/7
f 13/36/10 2/37/10 25/38/10
f 10/39/3 1/40/3 3/41/3
f 5/4/3 6/7/3 7/11/3
f 8/9/3 9/8/3 10/12/3
f 11/17/10 12/13/10 13/42/10
f 14/10/10 15/20/10 16/21/10
f 17/23/3 18/6/3 19/5/3
f 20/15/3 21/25/3 22/16/3
f 23/29/22 24/19/10 25/18/10
f 26/22/10 27/28/10 28/24/10
f 2/1/1 4/43/1 3/2/2
f 5/4/3 7/11/3 19/5/3
f 6/7/3 5/4/3 9/8/3
f 6/7/4 15/20/17 14/10/5
f 10/12/7 13/42/21 12/13/8
f 10/14/3 9/8/3 20/15/3
f 11/17/10 13/44/10 25/18/10
f 11/17/10 16/21/10 15/20/10
f 16/21/10 27/28/10 26/22/10
f 17/23/11 19/5/12 26/22/12
f 17/23/3 21/25/3 20/15/3
f 21/25/14 23/29/18 25/26/15
f 24/19/10 23/29/22 28/24/10
f 8/9/9 12/13/8 15/20/17
f 5/4/3 18/6/3 20/15/3
f 11/17/10 24/19/10 27/28/10
f 17/23/11 28/24/13 23/29/18
f 14/10/5 26/22/12 19/5/12
f 25/30/15 2/45/19 1/31/19
f 3/33/20 4/46/20 13/34/21
f 13/36/10 4/47/10 2/37/10
f 10/39/3 22/48/3 1/40/3
