# Blender 4.1.1
# www.blender.org
mtllib MeshBook_28_0_GeomSubset_0.mtl
o MeshBook_28_0_GeomSubset_0
v 0.106376 -0.128037 -0.013578
v 0.106376 0.128037 -0.013578
v 0.106376 0.128037 -0.014453
v 0.106376 -0.128037 -0.014453
v -0.105152 0.128037 -0.011530
v -0.102765 0.128037 -0.013578
v -0.103926 0.128037 -0.014453
v -0.106096 0.128037 -0.012495
v -0.102765 -0.128037 -0.013578
v -0.105152 -0.128037 -0.011530
v -0.103926 -0.128037 -0.014453
v -0.106096 -0.128037 -0.012495
v -0.106463 -0.128037 0.000010
v -0.107737 -0.128037 0.000010
v -0.107737 0.128037 0.000010
v -0.106463 0.128037 0.000010
v -0.107355 -0.128037 -0.006243
v -0.107355 0.128037 -0.006243
v -0.106091 0.128037 -0.005760
v -0.106091 -0.128037 -0.005760
v -0.107546 -0.128037 -0.003116
v -0.107546 0.128037 -0.003116
v -0.106297 0.128037 -0.002875
v -0.106297 -0.128037 -0.002875
v -0.106702 -0.128037 -0.009369
v -0.106702 0.128037 -0.009369
v -0.105646 0.128037 -0.008645
v -0.105646 -0.128037 -0.008645
v -0.106845 -0.127845 0.000553
v -0.106845 0.127845 0.000553
v -0.107355 -0.127845 0.000553
v -0.107355 0.127845 0.000553
vn 1.0000 -0.0000 -0.0000
vn -0.0000 1.0000 -0.0000
vn -0.0212 -0.0000 -0.9998
vn -0.8774 -0.0000 -0.4798
vn -0.8777 -0.0000 -0.4792
vn -0.0000 -1.0000 -0.0000
vn -0.0000 -0.0000 -1.0000
vn -0.0101 0.0003 -0.9999
vn -0.9803 -0.0000 -0.1977
vn -0.9910 -0.0000 -0.1337
vn -0.9982 -0.0000 -0.0605
vn -0.9910 -0.0000 -0.1338
vn -0.9990 -0.0000 0.0436
vn -0.0000 0.9997 0.0261
vn -0.0000 -0.9997 0.0262
vn -0.9802 -0.0000 -0.1979
vn -0.5534 -0.0000 0.8329
vn 0.5534 -0.0000 0.8329
vn -0.5572 -0.0000 0.8304
vn -0.0000 -0.9997 0.0250
vn -0.0000 -0.9425 0.3342
vn -0.0000 -0.9996 0.0269
vn -0.0000 0.9426 0.3338
vn -0.0000 0.9997 0.0245
vn 0.8184 -0.0000 0.5746
vn 0.5572 -0.0000 0.8304
vn -0.9994 -0.0000 0.0335
vn -0.0000 -0.9997 0.0243
vn -0.0000 -0.9425 0.3341
vn -0.0000 0.9425 0.3342
vn 0.8184 -0.0000 0.5747
vt 0.503309 0.167736
vt 0.505119 0.331263
vt 0.503271 0.331252
vt 0.511173 0.332827
vt 0.510083 0.331263
vt 0.511110 0.331263
vt 0.511110 0.167725
vt 0.511172 0.166420
vt 0.510083 0.167725
vt 0.510079 0.166420
vt 0.513407 0.331263
vt 0.510079 0.332827
vt 0.505157 0.167725
vt 0.505190 0.166405
vt 0.513407 0.167725
vt 0.515704 0.167725
vt 0.518001 0.331263
vt 0.515704 0.331263
vt 0.515737 0.332827
vt 0.515866 0.166420
vt 0.518001 0.167725
vt 0.520207 0.331263
vt 0.518019 0.332827
vt 0.518213 0.166420
vt 0.520211 0.167666
vt 0.513455 0.332827
vt 0.513519 0.166420
vt 0.520748 0.167377
vt 0.521463 0.331732
vt 0.520748 0.331732
vt 0.520211 0.166420
vt 0.520748 0.332384
vt 0.520198 0.332827
vt 0.522292 0.167377
vt 0.521463 0.167377
vt 0.505145 0.332845
vt 0.520748 0.166778
vt 0.522278 0.331732
s 1
usemtl M_Book_28_0
f 1/1/1 3/2/1 2/3/1
f 5/4/2 7/5/2 8/6/2
f 7/5/3 12/7/4 8/6/5
f 10/8/6 11/9/6 9/10/6
f 3/2/7 11/9/8 7/5/3
f 12/7/4 26/11/9 8/6/5
f 6/12/2 3/2/2 7/5/2
f 9/10/6 4/13/6 1/14/6
f 10/8/6 25/15/6 12/7/6
f 26/11/2 5/4/2 8/6/2
f 17/16/10 22/17/11 18/18/12
f 22/17/2 19/19/2 18/18/2
f 20/20/6 21/21/6 17/16/6
f 21/21/11 15/22/13 22/17/11
f 15/22/14 23/23/2 22/17/2
f 24/24/6 14/25/15 21/21/6
f 25/15/16 18/18/12 26/11/9
f 18/18/2 27/26/2 26/11/2
f 28/27/6 17/16/6 25/15/6
f 31/28/17 30/29/18 32/30/19
f 13/31/20 31/28/21 14/25/22
f 15/22/14 30/32/23 16/33/24
f 13/34/25 30/29/18 29/35/26
f 31/28/17 15/22/13 14/25/27
f 1/1/1 4/13/1 3/2/1
f 5/4/2 6/12/2 7/5/2
f 7/5/3 11/9/8 12/7/4
f 10/8/6 12/7/6 11/9/6
f 3/2/7 4/13/7 11/9/8
f 12/7/4 25/15/16 26/11/9
f 6/12/2 2/36/2 3/2/2
f 9/10/6 11/9/6 4/13/6
f 10/8/6 28/27/6 25/15/6
f 26/11/2 27/26/2 5/4/2
f 17/16/10 21/21/11 22/17/11
f 22/17/2 23/23/2 19/19/2
f 20/20/6 24/24/6 21/21/6
f 21/21/11 14/25/27 15/22/13
f 15/22/14 16/33/24 23/23/2
f 24/24/6 13/31/28 14/25/15
f 25/15/16 17/16/10 18/18/12
f 18/18/2 19/19/2 27/26/2
f 28/27/6 20/20/6 17/16/6
f 31/28/17 29/35/26 30/29/18
f 13/31/20 29/37/29 31/28/21
f 15/22/14 32/30/30 30/32/23
f 13/34/25 16/38/31 30/29/18
f 31/28/17 32/30/19 15/22/13
