# Blender 4.1.1
# www.blender.org
mtllib MeshDoorwayDoor_7_2_GeomSubset_1.mtl
o MeshDoorwayDoor_7_2_GeomSubset_1
v 0.043729 -0.041171 0.005222
v 0.040185 -0.032616 0.013777
v 0.070868 -0.041171 0.005222
v 0.074412 -0.032616 0.013777
v 0.023075 -0.032616 -0.003333
v 0.031630 -0.041171 -0.006877
v 0.023075 0.032616 -0.003333
v 0.031630 0.041171 -0.006877
v 0.023075 0.032616 -0.192934
v 0.031630 0.041171 -0.189390
v 0.043729 0.041171 0.005222
v 0.040185 0.032616 0.013777
v 0.070868 0.041171 0.005222
v 0.074412 0.032616 0.013777
v 0.091522 -0.032616 -0.003333
v 0.082967 -0.041171 -0.006877
v 0.091522 0.032616 -0.003333
v 0.082967 0.041171 -0.006877
v 0.091522 0.032616 -0.192934
v 0.082967 0.041171 -0.189390
v 0.043729 -0.041171 -0.201489
v 0.040185 -0.032616 -0.210044
v 0.070868 -0.041171 -0.201489
v 0.074412 -0.032616 -0.210044
v 0.023075 -0.032616 -0.192934
v 0.031630 -0.041171 -0.189390
v 0.043729 0.041171 -0.201489
v 0.040185 0.032616 -0.210044
v 0.070868 0.041171 -0.201489
v 0.074412 0.032616 -0.210044
v 0.091522 -0.032616 -0.192934
v 0.082967 -0.041171 -0.189390
v 0.036872 0.032616 0.021777
v 0.036872 -0.032616 0.021777
v 0.077726 -0.032616 0.021777
v 0.077726 0.032616 0.021777
v 0.036872 -0.032616 -0.218044
v 0.036872 0.032616 -0.218044
v 0.077726 0.032616 -0.218044
v 0.077726 -0.032616 -0.218044
v 0.099522 -0.032616 -0.196247
v 0.099522 0.032616 -0.196247
v 0.099522 0.032616 -0.000019
v 0.099522 -0.032616 -0.000019
v 0.015075 0.032616 -0.196247
v 0.015075 -0.032616 -0.196247
v 0.015075 -0.032616 -0.000019
v 0.015075 0.032616 -0.000019
vn -0.5000 -0.7071 0.5000
vn -0.0000 -0.7071 0.7071
vn 0.5000 -0.7071 0.5000
vn -0.7071 -0.7071 -0.0000
vn -0.7071 0.7071 -0.0000
vn -0.5000 0.7071 0.5000
vn -0.5000 0.7071 -0.5000
vn -0.0000 0.7071 0.7071
vn 0.5000 0.7071 0.5000
vn 0.7071 -0.7071 -0.0000
vn 0.7071 0.7071 -0.0000
vn 0.5000 0.7071 -0.5000
vn -0.0000 -0.7071 -0.7071
vn -0.5000 -0.7071 -0.5000
vn 0.5000 -0.7071 -0.5000
vn -0.0000 0.7071 -0.7071
vn -0.0000 -0.0000 1.0000
vn -0.0000 -0.0000 -1.0000
vn 1.0000 -0.0000 -0.0000
vn -1.0000 -0.0000 -0.0000
vn -0.0000 1.0000 -0.0000
vn -0.0000 -1.0000 -0.0000
vn -0.7071 -0.0000 0.7071
vn 0.7071 -0.0000 0.7071
vn -0.7071 -0.0000 -0.7071
vn 0.7071 -0.0000 -0.7071
vt -19.944309 1.081426
vt -19.958294 1.047662
vt -19.938515 1.067440
vt -19.894148 1.067440
vt -19.888353 1.081426
vt -19.874367 1.047662
vt -19.860380 1.053455
vt -19.972282 1.053455
vt -19.958294 0.749279
vt -19.925163 0.749283
vt -19.939150 1.053455
vt -19.939150 0.743490
vt -19.905384 0.729502
vt -19.925163 1.047662
vt -19.911177 1.081422
vt -19.911177 0.715514
vt -19.861015 0.729502
vt -19.855223 0.715514
vt -19.841236 0.749283
vt -19.860380 0.743486
vt -19.827250 0.743490
vt -19.841236 1.047662
vt -19.855223 1.081422
vt -19.861015 1.067435
vt -19.944309 0.715513
vt -19.894148 0.729498
vt -19.938515 0.729498
vt -19.972282 0.743486
vt -19.888353 0.715513
vt -19.874367 0.749279
vt -19.834263 0.820075
vt -19.770428 0.922003
vt -19.834263 0.922003
vt -19.814775 0.820074
vt -19.750937 0.922004
vt -19.814775 0.922004
vt -19.800240 0.739503
vt -19.905933 1.057436
vt -19.905933 0.739503
vt -19.772953 0.739498
vt -19.878647 1.057441
vt -19.878647 0.739498
vt -19.772953 1.092758
vt -19.772953 1.057441
vt -19.800240 1.092752
vt -19.905933 1.092752
vt -19.878647 0.704181
vt -19.772953 0.704181
vt -19.905933 0.704187
vt -19.905384 1.067435
vt -19.949726 1.094505
vt -19.882936 1.094505
vt -19.916594 0.702435
vt -19.916594 1.094501
vt -19.849804 1.094501
vt -19.949726 0.702434
vt -19.814171 1.058871
vt -19.827250 1.053455
vt -19.847303 0.738068
vt -19.847303 1.058871
vt -19.985361 0.738068
vt -19.952229 1.058871
vt -19.952229 0.738066
vt -19.985361 1.058871
vt -19.814171 0.738066
vt -19.882936 0.702434
vt -19.770428 0.820075
vt -19.750937 0.820074
vt -19.800240 1.057438
vt -19.878647 1.092758
vt -19.800240 0.704187
vt -19.849804 0.702435
s 1
usemtl M_DoorwayDoor_7_1
f 2/1/1 6/2/1 1/3/1
f 2/1/2 3/4/2 4/5/2
f 4/5/3 16/6/3 15/7/3
f 5/8/4 26/9/4 6/2/4
f 8/10/5 9/11/5 7/12/5
f 7/12/6 11/13/6 8/10/6
f 10/14/7 28/15/7 9/11/7
f 12/16/8 13/17/8 11/13/8
f 14/18/9 18/19/9 13/17/9
f 16/6/10 31/20/10 15/7/10
f 17/21/11 20/22/11 18/19/11
f 20/22/12 30/23/12 29/24/12
f 22/25/13 23/26/13 21/27/13
f 22/25/14 26/9/14 25/28/14
f 24/29/15 32/30/15 23/26/15
f 28/15/16 29/24/16 30/23/16
f 34/31/17 36/32/17 33/33/17
f 38/34/18 40/35/18 37/36/18
f 42/37/19 44/38/19 41/39/19
f 46/40/20 48/41/20 45/42/20
f 8/10/21 20/22/21 10/14/21
f 21/27/22 32/30/22 26/9/22
f 34/43/23 48/41/23 47/44/23
f 44/38/24 36/45/24 35/46/24
f 46/40/25 38/47/25 37/48/25
f 40/49/26 42/37/26 41/39/26
f 1/3/22 16/6/22 3/4/22
f 6/2/22 32/30/22 16/6/22
f 11/13/21 18/19/21 8/10/21
f 27/50/21 20/22/21 29/24/21
f 34/51/22 4/5/22 35/52/22
f 33/53/21 14/18/21 12/16/21
f 38/54/21 30/23/21 39/55/21
f 37/56/22 24/29/22 22/25/22
f 17/21/21 42/57/21 19/58/21
f 15/7/22 41/59/22 44/60/22
f 5/8/22 46/61/22 25/28/22
f 7/12/21 45/62/21 48/63/21
f 2/1/22 47/64/22 5/8/22
f 12/16/21 48/63/21 33/53/21
f 4/5/22 44/60/22 35/52/22
f 14/18/21 43/65/21 17/21/21
f 25/28/22 37/56/22 22/25/22
f 9/11/21 38/54/21 45/62/21
f 31/20/22 40/66/22 41/59/22
f 19/58/21 39/55/21 30/23/21
f 2/1/1 5/8/1 6/2/1
f 2/1/2 1/3/2 3/4/2
f 4/5/3 3/4/3 16/6/3
f 5/8/4 25/28/4 26/9/4
f 8/10/5 10/14/5 9/11/5
f 7/12/6 12/16/6 11/13/6
f 10/14/7 27/50/7 28/15/7
f 12/16/8 14/18/8 13/17/8
f 14/18/9 17/21/9 18/19/9
f 16/6/10 32/30/10 31/20/10
f 17/21/11 19/58/11 20/22/11
f 20/22/12 19/58/12 30/23/12
f 22/25/13 24/29/13 23/26/13
f 22/25/14 21/27/14 26/9/14
f 24/29/15 31/20/15 32/30/15
f 28/15/16 27/50/16 29/24/16
f 34/31/17 35/67/17 36/32/17
f 38/34/18 39/68/18 40/35/18
f 42/37/19 43/69/19 44/38/19
f 46/40/20 47/44/20 48/41/20
f 8/10/21 18/19/21 20/22/21
f 21/27/22 23/26/22 32/30/22
f 34/43/23 33/70/23 48/41/23
f 44/38/24 43/69/24 36/45/24
f 46/40/25 45/42/25 38/47/25
f 40/49/26 39/71/26 42/37/26
f 1/3/22 6/2/22 16/6/22
f 6/2/22 26/9/22 32/30/22
f 11/13/21 13/17/21 18/19/21
f 27/50/21 10/14/21 20/22/21
f 34/51/22 2/1/22 4/5/22
f 33/53/21 36/72/21 14/18/21
f 38/54/21 28/15/21 30/23/21
f 37/56/22 40/66/22 24/29/22
f 17/21/21 43/65/21 42/57/21
f 15/7/22 31/20/22 41/59/22
f 5/8/22 47/64/22 46/61/22
f 7/12/21 9/11/21 45/62/21
f 2/1/22 34/51/22 47/64/22
f 12/16/21 7/12/21 48/63/21
f 4/5/22 15/7/22 44/60/22
f 14/18/21 36/72/21 43/65/21
f 25/28/22 46/61/22 37/56/22
f 9/11/21 28/15/21 38/54/21
f 31/20/22 24/29/22 40/66/22
f 19/58/21 42/57/21 39/55/21
