# Blender 4.1.1
# www.blender.org
mtllib MeshBox_20_FlapInner_1_3.mtl
o Box_20_FlapInner_1
v -0.212984 0.118955 0.090172
v -0.212984 -0.109725 0.090172
v -0.212748 0.118955 0.092395
v -0.212748 -0.109725 0.092395
v -0.125190 0.118955 0.082528
v -0.125686 0.118955 0.083143
v -0.125190 -0.109725 0.082528
v -0.125686 -0.109725 0.083143
v -0.125308 0.118955 0.081417
v -0.125922 0.118955 0.080920
v -0.125308 -0.109725 0.081417
v -0.125922 -0.109725 0.080920
vn -0.9944 -0.0000 0.1056
vn 0.1283 -0.0000 0.9917
vn 0.9759 -0.0000 0.2181
vn 0.9768 -0.0000 0.2142
vn -0.0000 1.0000 -0.0000
vn -0.0000 -1.0000 -0.0000
vn 0.9084 -0.0000 -0.4182
vn -0.0830 -0.0000 -0.9966
vn -0.0993 -0.0000 -0.9951
vn -0.1057 -0.0000 -0.9944
vn 0.1057 -0.0000 0.9944
vn 0.1121 0.0001 0.9937
vn 0.9100 -0.0000 -0.4145
vt -0.588591 0.037333
vt -0.594048 -0.558704
vt -0.588591 -0.558704
vt 0.323151 -0.558706
vt 0.321787 0.035881
vt 0.321787 -0.557253
vt 0.317695 -0.558702
vt 0.317695 0.037334
vt 0.319059 0.035881
vt 0.319059 -0.557253
vt 0.219437 0.037335
vt -0.043545 -0.558707
vt 0.219437 -0.558707
vt -0.227223 0.037335
vt -0.490204 -0.558707
vt -0.227223 -0.558707
vt -0.605334 -0.114459
vt -0.610791 0.148522
vt -0.610791 -0.114458
vt -0.618449 -0.299226
vt -0.623906 -0.562205
vt -0.618450 -0.562206
vt -0.594048 0.037333
vt 0.323151 0.037334
vt -0.043545 0.037335
vt -0.490204 0.037335
vt -0.605334 0.148522
vt -0.623906 -0.299224
s 1
usemtl M_Box_20_FlapInner_1_0
f 2/1/1 3/2/1 1/3/1
f 6/4/2 7/5/3 5/6/4
f 5/6/5 10/7/5 6/4/5
f 7/5/6 12/8/6 11/9/6
f 9/10/7 12/8/8 10/7/9
f 7/5/3 9/10/7 5/6/4
f 12/11/8 1/12/10 10/13/9
f 4/14/11 6/15/2 3/16/11
f 8/17/6 2/18/6 12/19/6
f 6/20/5 1/21/5 3/22/5
f 2/1/1 4/23/1 3/2/1
f 6/4/2 8/24/12 7/5/3
f 5/6/5 9/10/5 10/7/5
f 7/5/6 8/24/6 12/8/6
f 9/10/7 11/9/13 12/8/8
f 7/5/3 11/9/13 9/10/7
f 12/11/8 2/25/10 1/12/10
f 4/14/11 8/26/12 6/15/2
f 8/17/6 4/27/6 2/18/6
f 6/20/5 10/28/5 1/21/5
