# Blender 4.1.1
# www.blender.org
mtllib MeshSoapBottleVolume_9_1.mtl
o SoapBottleVolume_9
v 0.038885 0.017106 -0.117876
v 0.029761 0.030760 -0.117876
v 0.016107 0.039885 -0.117876
v 0.000000 0.043088 -0.117876
v -0.016107 0.039885 -0.117876
v -0.029761 0.030760 -0.117876
v -0.038885 0.017106 -0.117876
v -0.042089 0.000999 -0.117876
v -0.038885 -0.015108 -0.117876
v -0.029761 -0.028762 -0.117876
v -0.016107 -0.037886 -0.117876
v 0.000000 -0.041089 -0.117876
v 0.016107 -0.037886 -0.117876
v 0.029761 -0.028762 -0.117876
v 0.038885 -0.015108 -0.117876
v 0.042089 0.000999 -0.117876
v 0.000000 0.001000 -0.117876
v 0.023102 0.010569 0.051957
v 0.032492 0.014458 0.029272
v 0.024868 0.025868 0.029272
v 0.017681 0.018682 0.051957
v 0.009569 0.024102 0.051957
v 0.013458 0.033491 0.029272
v 0.000000 0.026005 0.051957
v 0.000000 0.036168 0.029272
v -0.009569 0.024102 0.051957
v -0.013458 0.033491 0.029272
v -0.017681 0.018682 0.051957
v -0.024868 0.025868 0.029272
v -0.023102 0.010569 0.051957
v -0.032492 0.014458 0.029272
v -0.025005 0.000999 0.051957
v -0.035169 0.000999 0.029272
v -0.023102 -0.008570 0.051957
v -0.032492 -0.012460 0.029272
v -0.017681 -0.016682 0.051957
v -0.024868 -0.023868 0.029272
v -0.009569 -0.022103 0.051957
v -0.013459 -0.031492 0.029272
v 0.000000 -0.024006 0.051957
v 0.000000 -0.034169 0.029272
v 0.009569 -0.022103 0.051957
v 0.013459 -0.031492 0.029272
v 0.017681 -0.016682 0.051957
v 0.024868 -0.023868 0.029272
v 0.023102 -0.008570 0.051957
v 0.032492 -0.012460 0.029272
v 0.025005 0.000999 0.051957
v 0.035169 0.000999 0.029272
v 0.035344 0.036343 -0.107876
v 0.046179 0.020128 -0.107876
v 0.035450 0.036449 -0.083099
v 0.046318 0.020185 -0.083099
v 0.019128 0.047179 -0.107876
v 0.019186 0.047317 -0.083099
v 0.000000 0.050984 -0.107876
v 0.000000 0.051133 -0.083099
v -0.019128 0.047179 -0.107876
v -0.019186 0.047317 -0.083099
v -0.035344 0.036343 -0.107876
v -0.035450 0.036449 -0.083099
v -0.046179 0.020128 -0.107876
v -0.046318 0.020185 -0.083099
v -0.049984 0.000999 -0.107876
v -0.050134 0.000999 -0.083099
v -0.046179 -0.018130 -0.107876
v -0.046318 -0.018186 -0.083099
v -0.035344 -0.034345 -0.107876
v -0.035450 -0.034451 -0.083099
v -0.019128 -0.045180 -0.107876
v -0.019185 -0.045319 -0.083099
v 0.000000 -0.048985 -0.107876
v 0.000000 -0.049134 -0.083099
v 0.019128 -0.045180 -0.107876
v 0.019185 -0.045319 -0.083099
v 0.035344 -0.034345 -0.107876
v 0.035450 -0.034451 -0.083099
v 0.046179 -0.018130 -0.107876
v 0.046318 -0.018186 -0.083099
v 0.049984 0.000999 -0.107876
v 0.050134 0.000999 -0.083099
v 0.044107 -0.017270 -0.049048
v 0.033758 -0.032758 -0.049048
v 0.041283 -0.016100 -0.020613
v 0.031597 -0.030596 -0.020613
v 0.018269 -0.043108 -0.049048
v 0.017100 -0.040284 -0.020613
v 0.000000 -0.046741 -0.049048
v 0.000000 -0.043685 -0.020613
v -0.018269 -0.043108 -0.049048
v -0.017100 -0.040284 -0.020613
v -0.033758 -0.032758 -0.049048
v -0.031597 -0.030596 -0.020613
v -0.044107 -0.017270 -0.049048
v -0.041283 -0.016100 -0.020613
v -0.047741 0.000999 -0.049048
v -0.044685 0.000999 -0.020613
v -0.044107 0.019270 -0.049048
v -0.041283 0.018100 -0.020613
v -0.033758 0.034758 -0.049048
v -0.031597 0.032598 -0.020613
v -0.018270 0.045106 -0.049048
v -0.017100 0.042282 -0.020613
v 0.000000 0.048740 -0.049048
v 0.000000 0.045684 -0.020613
v 0.018270 0.045106 -0.049048
v 0.017100 0.042282 -0.020613
v 0.033758 0.034758 -0.049048
v 0.031597 0.032598 -0.020613
v 0.044107 0.019270 -0.049048
v 0.041283 0.018100 -0.020613
v 0.047741 0.000999 -0.049048
v 0.044685 0.000999 -0.020613
v 0.037640 -0.014592 0.007180
v 0.028809 -0.027810 0.007180
v 0.015591 -0.036642 0.007180
v 0.000000 -0.039742 0.007180
v -0.015591 -0.036642 0.007180
v -0.028809 -0.027810 0.007180
v -0.037640 -0.014592 0.007180
v -0.040742 0.000999 0.007180
v -0.037640 0.016591 0.007180
v -0.028809 0.029808 0.007180
v -0.015591 0.038640 0.007180
v 0.000000 0.041741 0.007180
v 0.015591 0.038640 0.007180
v 0.028809 0.029808 0.007180
v 0.037640 0.016591 0.007180
v 0.040742 0.000999 0.007180
v 0.000000 0.001000 0.051957
vn 0.8431 0.3492 0.4089
vn 0.6702 0.6703 0.3186
vn 0.6453 0.6453 0.4089
vn 0.3627 0.8757 0.3186
vn 0.3492 0.8431 0.4088
vn -0.0000 0.9479 0.3187
vn -0.0000 0.9126 0.4089
vn -0.3492 0.8431 0.4088
vn -0.3627 0.8757 0.3187
vn -0.6453 0.6453 0.4089
vn -0.6702 0.6703 0.3186
vn -0.8431 0.3492 0.4089
vn -0.8757 0.3627 0.3186
vn -0.9479 -0.0000 0.3186
vn -0.9126 -0.0000 0.4089
vn -0.8431 -0.3492 0.4089
vn -0.8757 -0.3628 0.3186
vn -0.6702 -0.6703 0.3186
vn -0.6453 -0.6453 0.4089
vn -0.3627 -0.8757 0.3186
vn -0.3492 -0.8431 0.4089
vn -0.0000 -0.9479 0.3186
vn -0.0000 -0.9126 0.4089
vn 0.3492 -0.8431 0.4089
vn 0.3627 -0.8757 0.3186
vn 0.6453 -0.6453 0.4089
vn 0.6702 -0.6703 0.3186
vn 0.8431 -0.3492 0.4089
vn 0.8757 -0.3627 0.3187
vn 0.9479 -0.0000 0.3186
vn 0.9126 -0.0000 0.4089
vn 0.8715 0.3678 0.3243
vn 0.9239 0.3827 -0.0061
vn 0.7066 0.7066 0.0375
vn 0.9232 0.3824 0.0375
vn 0.7071 0.7071 -0.0060
vn 0.3824 0.9232 0.0375
vn 0.3827 0.9239 -0.0060
vn -0.0000 0.9993 0.0375
vn -0.3827 0.9239 -0.0060
vn -0.0000 1.0000 -0.0060
vn -0.7071 0.7071 -0.0060
vn -0.3773 0.9255 0.0319
vn -0.9239 0.3827 -0.0061
vn -0.7028 0.7107 0.0319
vn -1.0000 -0.0000 -0.0061
vn -0.9212 0.3877 0.0319
vn -0.9232 -0.3824 0.0375
vn -0.9995 0.0056 0.0319
vn -0.9239 -0.3827 -0.0061
vn -0.7066 -0.7066 0.0375
vn -0.3827 -0.9239 -0.0061
vn -0.7071 -0.7071 -0.0061
vn -0.0000 -1.0000 -0.0060
vn -0.3876 -0.9213 0.0319
vn 0.3824 -0.9232 0.0375
vn -0.0057 -0.9995 0.0319
vn 0.3827 -0.9239 -0.0061
vn 0.7066 -0.7066 0.0375
vn 0.9239 -0.3827 -0.0061
vn 0.7071 -0.7071 -0.0061
vn 1.0000 -0.0000 -0.0061
vn 0.9213 -0.3876 0.0319
vn 0.9995 -0.0056 0.0319
vn 0.9208 -0.3804 0.0866
vn 0.7018 -0.7018 0.1227
vn 0.7045 -0.7045 0.0863
vn 0.3798 -0.9169 0.1228
vn 0.3813 -0.9204 0.0863
vn -0.0000 -0.9925 0.1223
vn -0.0000 -0.9963 0.0863
vn -0.3796 -0.9210 0.0872
vn -0.3798 -0.9169 0.1224
vn -0.7032 -0.7056 0.0872
vn -0.7018 -0.7018 0.1224
vn -0.9197 -0.3828 0.0873
vn -0.9169 -0.3798 0.1225
vn -0.9962 -0.0018 0.0872
vn -0.9925 -0.0000 0.1225
vn -0.9169 0.3798 0.1228
vn -0.9204 0.3813 0.0863
vn -0.7057 0.7031 0.0872
vn -0.7018 0.7018 0.1225
vn -0.3828 0.9197 0.0872
vn -0.3798 0.9169 0.1227
vn -0.0018 0.9962 0.0872
vn -0.0000 0.9924 0.1228
vn 0.3798 0.9169 0.1225
vn 0.3812 0.9205 0.0861
vn 0.7018 0.7018 0.1225
vn 0.7045 0.7045 0.0861
vn 0.9169 0.3798 0.1227
vn 0.9204 0.3813 0.0863
vn 0.9962 0.0018 0.0872
vn 0.9924 -0.0000 0.1228
vn 0.9172 -0.3789 0.1235
vn 0.9083 -0.3762 0.1830
vn 0.6952 -0.6951 0.1830
vn 0.3762 -0.9083 0.1831
vn -0.0000 -0.9831 0.1831
vn -0.3762 -0.9083 0.1831
vn -0.6952 -0.6951 0.1830
vn -0.9083 -0.3762 0.1830
vn -0.9831 -0.0000 0.1830
vn -0.9083 0.3762 0.1831
vn -0.6952 0.6951 0.1831
vn -0.3762 0.9083 0.1830
vn -0.0000 0.9831 0.1831
vn 0.3762 0.9083 0.1830
vn 0.6952 0.6951 0.1831
vn 0.9083 0.3762 0.1831
vn 0.9831 -0.0000 0.1830
vn -0.0000 -0.0000 1.0000
vn -0.0000 -0.0000 -1.0000
vn 0.5550 0.5550 -0.6197
vn 0.7251 0.3004 -0.6197
vn 0.3004 0.7251 -0.6197
vn -0.0000 0.7849 -0.6197
vn -0.3004 0.7251 -0.6197
vn -0.0000 0.7848 -0.6197
vn -0.5550 0.5550 -0.6197
vn -0.7251 0.3004 -0.6197
vn -0.7849 -0.0000 -0.6197
vn -0.7251 -0.3004 -0.6197
vn -0.5550 -0.5550 -0.6197
vn -0.3003 -0.7251 -0.6197
vn -0.0000 -0.7849 -0.6197
vn 0.3003 -0.7251 -0.6197
vn -0.0000 -0.7848 -0.6197
vn 0.5550 -0.5550 -0.6197
vn 0.7251 -0.3004 -0.6197
vn 0.7849 -0.0000 -0.6197
vt 3.219186 0.728162
vt 3.293176 0.617895
vt 3.260299 0.728163
vt 3.330730 0.617895
vt 3.287773 0.728162
vt 3.805408 -0.059348
vt 3.761989 0.039367
vt 3.761989 -0.059347
vt 3.718570 -0.059348
vt 3.702641 0.039367
vt 3.426218 0.728163
vt 3.355787 0.617895
vt 3.393340 0.617895
vt 3.467330 0.728162
vt 3.449541 0.617895
vt 3.515837 0.617894
vt 3.515837 0.728163
vt 3.564338 0.728162
vt 3.582134 0.617895
vt 3.638328 0.617895
vt 3.605454 0.728163
vt 3.675885 0.617895
vt 3.632926 0.728162
vt 3.864740 0.644154
vt 3.908159 0.545440
vt 3.908159 0.644154
vt 3.951578 0.644154
vt 3.967507 0.545441
vt 3.081063 0.728163
vt 3.010632 0.617895
vt 3.048188 0.617895
vt 3.122178 0.728162
vt 3.104383 0.617895
vt 3.170679 0.617894
vt 3.170679 0.728163
vt 3.236975 0.617895
vt 3.264904 -0.057677
vt 3.345297 0.064373
vt 3.265183 0.064373
vt 3.344776 -0.057677
vt 3.398834 0.064373
vt 3.846340 0.644155
vt 3.761989 0.534893
vt 3.846593 0.534893
vt 3.677638 0.644155
vt 3.761989 0.644155
vt 3.341740 -0.057677
vt 3.287682 0.064373
vt 3.288364 -0.057677
vt 3.421613 -0.057677
vt 3.341219 0.064373
vt 3.515837 -0.057677
vt 3.421333 0.064373
vt 3.610342 0.064373
vt 3.515837 0.064373
vt 3.610062 -0.057677
vt 3.690459 0.064373
vt 3.743311 -0.057677
vt 3.689934 -0.057677
vt 3.908159 -0.059347
vt 3.823557 0.049915
vt 3.823810 -0.059347
vt 3.992761 0.049915
vt 3.908159 0.049915
vt 2.943206 -0.057677
vt 2.996057 0.064373
vt 2.942524 0.064373
vt 3.076454 -0.057677
vt 2.996582 -0.057677
vt 3.170679 -0.057677
vt 3.076174 0.064373
vt 3.170679 0.064373
vt 3.080686 0.232101
vt 3.015043 0.372168
vt 3.004395 0.232102
vt 2.967324 0.372168
vt 2.953416 0.232102
vt 3.988722 0.200070
vt 3.908159 0.325460
vt 3.908159 0.200069
vt 3.827596 0.200070
vt 3.832753 0.325460
vt 3.682121 0.232102
vt 3.719192 0.372168
vt 3.671473 0.372168
vt 3.605830 0.232101
vt 3.600067 0.372168
vt 3.515837 0.232101
vt 3.515837 0.372168
vt 3.431598 0.372168
vt 3.425838 0.232101
vt 3.349550 0.232101
vt 3.360189 0.372168
vt 3.298572 0.232101
vt 3.312483 0.372168
vt 3.761989 0.384739
vt 3.686581 0.259347
vt 3.761989 0.259347
vt 3.837396 0.259347
vt 3.842553 0.384739
vt 3.387945 0.232101
vt 3.326328 0.372168
vt 3.336966 0.232101
vt 3.254918 0.372168
vt 3.260678 0.232101
vt 3.170679 0.232101
vt 3.170679 0.372168
vt 3.086449 0.372168
vt 3.733100 0.232102
vt 3.681424 0.384739
vt 3.093879 0.509071
vt 3.028771 0.509071
vt 2.985264 0.509071
vt 3.976911 0.448019
vt 3.908159 0.448019
vt 3.839406 0.448019
vt 3.657746 0.509071
vt 3.592637 0.509071
vt 3.515837 0.509071
vt 3.439035 0.509071
vt 3.373926 0.509071
vt 3.330423 0.509071
vt 3.693236 0.136788
vt 3.761989 0.136788
vt 3.830741 0.136788
vt 3.356094 0.509071
vt 3.312590 0.509071
vt 3.247482 0.509071
vt 3.170679 0.509071
vt 3.848810 0.545441
vt 3.821337 0.039367
vt 3.670551 0.795979
vt 3.591600 0.828683
vt 3.591600 0.717028
vt 3.512650 0.795979
vt 3.479947 0.717026
vt 3.512650 0.638075
vt 3.591600 0.605371
vt 3.670551 0.638075
vt 3.703254 0.717026
vt 4.036753 0.768943
vt 3.980509 0.904725
vt 3.844724 0.768940
vt 3.844724 0.960968
vt 3.708939 0.904725
vt 3.652695 0.768943
vt 3.708939 0.633160
vt 3.844724 0.576911
vt 3.980509 0.633160
vt 3.317276 -0.106935
vt 3.250021 -0.106935
vt 3.918210 0.591531
vt 4.005981 0.607688
vt 3.931997 0.558250
vt 3.757451 0.558250
vt 3.844724 0.540888
vt 3.771238 0.591531
vt 3.683466 0.607688
vt 3.369241 -0.106935
vt 3.436496 -0.106935
vt 3.595176 -0.106935
vt 3.515837 -0.106935
vt 3.662434 -0.106935
vt 3.771238 0.946354
vt 3.683466 0.930197
vt 3.757453 0.979635
vt 3.931994 0.979635
vt 3.844724 0.996991
vt 3.918210 0.946354
vt 4.005981 0.930197
vt 3.024082 -0.106935
vt 3.091341 -0.106935
vt 3.170679 -0.106935
vt 3.398743 0.728162
vt 3.053591 0.728163
vt 3.398152 -0.057677
vt 3.677385 0.534893
vt 3.743993 0.064373
vt 3.992508 -0.059347
vt 3.983565 0.325460
vt 3.374034 0.372168
vt 3.701252 0.509071
vt 3.634329 0.820184
vt 3.548872 0.820184
vt 3.488446 0.759760
vt 3.488446 0.674297
vt 3.548872 0.613873
vt 3.634329 0.613873
vt 3.694755 0.674297
vt 3.694755 0.759760
vt 4.022135 0.842428
vt 3.667312 0.842428
vt 3.667312 0.695454
vt 4.022135 0.695454
s 1
usemtl M_SoapBottleVolume_9_0
f 18/1/1 20/2/2 21/3/3
f 21/3/3 23/4/4 22/5/5
f 22/6/5 25/7/6 24/8/7
f 26/9/8 25/7/6 27/10/9
f 28/11/10 27/12/9 29/13/11
f 30/14/12 29/13/11 31/15/13
f 30/14/12 33/16/14 32/17/15
f 34/18/16 33/16/14 35/19/17
f 34/18/16 37/20/18 36/21/19
f 36/21/19 39/22/20 38/23/21
f 38/24/21 41/25/22 40/26/23
f 42/27/24 41/25/22 43/28/25
f 44/29/26 43/30/25 45/31/27
f 46/32/28 45/31/27 47/33/29
f 46/32/28 49/34/30 48/35/31
f 18/1/1 49/34/30 19/36/32
f 51/37/33 52/38/34 53/39/35
f 50/40/36 55/41/37 52/38/34
f 54/42/38 57/43/39 55/44/37
f 58/45/40 57/43/39 56/46/41
f 60/47/42 59/48/43 58/49/40
f 62/50/44 61/51/45 60/47/42
f 64/52/46 63/53/47 62/50/44
f 64/52/46 67/54/48 65/55/49
f 66/56/50 69/57/51 67/54/48
f 70/58/52 69/57/51 68/59/53
f 72/60/54 71/61/55 70/62/52
f 72/60/54 75/63/56 73/64/57
f 74/65/58 77/66/59 75/67/56
f 78/68/60 77/66/59 76/69/61
f 80/70/62 79/71/63 78/68/60
f 80/70/62 53/39/35 81/72/64
f 82/73/65 85/74/66 83/75/67
f 83/75/67 87/76/68 86/77/69
f 86/78/69 89/79/70 88/80/71
f 90/81/72 89/79/70 91/82/73
f 92/83/74 91/84/73 93/85/75
f 94/86/76 93/85/75 95/87/77
f 96/88/78 95/87/77 97/89/79
f 96/88/78 99/90/80 98/91/81
f 100/92/82 99/90/80 101/93/83
f 102/94/84 101/93/83 103/95/85
f 104/96/86 103/97/85 105/98/87
f 104/96/86 107/99/88 106/100/89
f 106/101/89 109/102/90 108/103/91
f 108/103/91 111/104/92 110/105/93
f 112/106/94 111/104/92 113/107/95
f 112/106/94 84/108/96 82/73/65
f 79/71/63 83/75/67 77/66/59
f 77/66/59 86/77/69 75/67/56
f 73/64/57 86/78/69 88/80/71
f 73/64/57 90/81/72 71/61/55
f 69/57/51 90/109/72 92/83/74
f 67/54/48 92/83/74 94/86/76
f 65/55/49 94/86/76 96/88/78
f 63/53/47 96/88/78 98/91/81
f 61/51/45 98/91/81 100/92/82
f 59/48/43 100/92/82 102/94/84
f 57/43/39 102/110/84 104/96/86
f 57/43/39 106/100/89 55/44/37
f 55/41/37 108/103/91 52/38/34
f 52/38/34 110/105/93 53/39/35
f 53/39/35 112/106/94 81/72/64
f 81/72/64 82/73/65 79/71/63
f 85/74/66 114/111/97 115/112/98
f 87/76/68 115/112/98 116/113/99
f 89/79/70 116/114/99 117/115/100
f 89/79/70 118/116/101 91/82/73
f 91/84/73 119/117/102 93/85/75
f 93/85/75 120/118/103 95/87/77
f 95/87/77 121/119/104 97/89/79
f 99/90/80 121/119/104 122/120/105
f 99/90/80 123/121/106 101/93/83
f 101/93/83 124/122/107 103/95/85
f 105/98/87 124/123/107 125/124/108
f 105/98/87 126/125/109 107/99/88
f 109/102/90 126/126/109 127/127/110
f 111/104/92 127/127/110 128/128/111
f 111/104/92 129/129/112 113/107/95
f 84/108/96 129/129/112 114/111/97
f 114/111/97 49/34/30 47/33/29
f 114/111/97 45/31/27 115/112/98
f 115/112/98 43/30/25 116/113/99
f 116/114/99 41/25/22 117/115/100
f 118/116/101 41/25/22 39/130/20
f 119/117/102 39/22/20 37/20/18
f 120/118/103 37/20/18 35/19/17
f 120/118/103 33/16/14 121/119/104
f 121/119/104 31/15/13 122/120/105
f 122/120/105 29/13/11 123/121/106
f 124/122/107 29/13/11 27/12/9
f 125/124/108 27/10/9 25/7/6
f 125/124/108 23/131/4 126/125/109
f 126/126/109 20/2/2 127/127/110
f 128/128/111 20/2/2 19/36/32
f 129/129/112 19/36/32 49/34/30
f 21/132/113 24/133/113 130/134/113
f 24/133/113 28/135/113 130/134/113
f 28/135/113 32/136/113 130/134/113
f 32/136/113 36/137/113 130/134/113
f 36/137/113 40/138/113 130/134/113
f 40/138/113 44/139/113 130/134/113
f 44/139/113 48/140/113 130/134/113
f 48/140/113 21/132/113 130/134/113
f 16/141/114 14/142/114 17/143/114
f 14/142/114 12/144/114 17/143/114
f 12/144/114 10/145/114 17/143/114
f 10/145/114 8/146/114 17/143/114
f 8/146/114 6/147/114 17/143/114
f 6/147/114 4/148/114 17/143/114
f 4/148/114 2/149/114 17/143/114
f 2/149/114 16/141/114 17/143/114
f 2/150/115 51/37/116 1/151/116
f 3/152/117 50/153/115 2/149/115
f 4/148/118 54/154/117 3/152/117
f 4/148/118 58/155/119 56/156/120
f 5/157/119 60/158/121 58/155/119
f 6/159/121 62/50/122 60/47/121
f 7/160/122 64/52/123 62/50/122
f 9/161/124 64/52/123 8/162/123
f 10/163/125 66/56/124 9/161/124
f 11/164/126 68/165/125 10/145/125
f 12/144/127 70/166/126 11/164/126
f 12/144/127 74/167/128 72/168/129
f 13/169/128 76/170/130 74/167/128
f 14/171/130 78/68/131 76/69/130
f 15/172/131 80/70/132 78/68/131
f 1/151/116 80/70/132 16/173/132
f 18/1/1 19/36/32 20/2/2
f 21/3/3 20/2/2 23/4/4
f 22/6/5 23/131/4 25/7/6
f 26/9/8 24/8/7 25/7/6
f 28/11/10 26/174/8 27/12/9
f 30/14/12 28/11/10 29/13/11
f 30/14/12 31/15/13 33/16/14
f 34/18/16 32/17/15 33/16/14
f 34/18/16 35/19/17 37/20/18
f 36/21/19 37/20/18 39/22/20
f 38/24/21 39/130/20 41/25/22
f 42/27/24 40/26/23 41/25/22
f 44/29/26 42/175/24 43/30/25
f 46/32/28 44/29/26 45/31/27
f 46/32/28 47/33/29 49/34/30
f 18/1/1 48/35/31 49/34/30
f 51/37/33 50/40/36 52/38/34
f 50/40/36 54/176/38 55/41/37
f 54/42/38 56/46/41 57/43/39
f 58/45/40 59/177/43 57/43/39
f 60/47/42 61/51/45 59/48/43
f 62/50/44 63/53/47 61/51/45
f 64/52/46 65/55/49 63/53/47
f 64/52/46 66/56/50 67/54/48
f 66/56/50 68/59/53 69/57/51
f 70/58/52 71/178/55 69/57/51
f 72/60/54 73/64/57 71/61/55
f 72/60/54 74/179/58 75/63/56
f 74/65/58 76/69/61 77/66/59
f 78/68/60 79/71/63 77/66/59
f 80/70/62 81/72/64 79/71/63
f 80/70/62 51/37/33 53/39/35
f 82/73/65 84/108/96 85/74/66
f 83/75/67 85/74/66 87/76/68
f 86/78/69 87/180/68 89/79/70
f 90/81/72 88/80/71 89/79/70
f 92/83/74 90/109/72 91/84/73
f 94/86/76 92/83/74 93/85/75
f 96/88/78 94/86/76 95/87/77
f 96/88/78 97/89/79 99/90/80
f 100/92/82 98/91/81 99/90/80
f 102/94/84 100/92/82 101/93/83
f 104/96/86 102/110/84 103/97/85
f 104/96/86 105/98/87 107/99/88
f 106/101/89 107/181/88 109/102/90
f 108/103/91 109/102/90 111/104/92
f 112/106/94 110/105/93 111/104/92
f 112/106/94 113/107/95 84/108/96
f 79/71/63 82/73/65 83/75/67
f 77/66/59 83/75/67 86/77/69
f 73/64/57 75/63/56 86/78/69
f 73/64/57 88/80/71 90/81/72
f 69/57/51 71/178/55 90/109/72
f 67/54/48 69/57/51 92/83/74
f 65/55/49 67/54/48 94/86/76
f 63/53/47 65/55/49 96/88/78
f 61/51/45 63/53/47 98/91/81
f 59/48/43 61/51/45 100/92/82
f 57/43/39 59/177/43 102/110/84
f 57/43/39 104/96/86 106/100/89
f 55/41/37 106/101/89 108/103/91
f 52/38/34 108/103/91 110/105/93
f 53/39/35 110/105/93 112/106/94
f 81/72/64 112/106/94 82/73/65
f 85/74/66 84/108/96 114/111/97
f 87/76/68 85/74/66 115/112/98
f 89/79/70 87/180/68 116/114/99
f 89/79/70 117/115/100 118/116/101
f 91/84/73 118/182/101 119/117/102
f 93/85/75 119/117/102 120/118/103
f 95/87/77 120/118/103 121/119/104
f 99/90/80 97/89/79 121/119/104
f 99/90/80 122/120/105 123/121/106
f 101/93/83 123/121/106 124/122/107
f 105/98/87 103/97/85 124/123/107
f 105/98/87 125/124/108 126/125/109
f 109/102/90 107/181/88 126/126/109
f 111/104/92 109/102/90 127/127/110
f 111/104/92 128/128/111 129/129/112
f 84/108/96 113/107/95 129/129/112
f 114/111/97 129/129/112 49/34/30
f 114/111/97 47/33/29 45/31/27
f 115/112/98 45/31/27 43/30/25
f 116/114/99 43/28/25 41/25/22
f 118/116/101 117/115/100 41/25/22
f 119/117/102 118/182/101 39/22/20
f 120/118/103 119/117/102 37/20/18
f 120/118/103 35/19/17 33/16/14
f 121/119/104 33/16/14 31/15/13
f 122/120/105 31/15/13 29/13/11
f 124/122/107 123/121/106 29/13/11
f 125/124/108 124/123/107 27/10/9
f 125/124/108 25/7/6 23/131/4
f 126/126/109 23/4/4 20/2/2
f 128/128/111 127/127/110 20/2/2
f 129/129/112 128/128/111 19/36/32
f 21/132/113 22/183/113 24/133/113
f 24/133/113 26/184/113 28/135/113
f 28/135/113 30/185/113 32/136/113
f 32/136/113 34/186/113 36/137/113
f 36/137/113 38/187/113 40/138/113
f 40/138/113 42/188/113 44/139/113
f 44/139/113 46/189/113 48/140/113
f 48/140/113 18/190/113 21/132/113
f 16/141/114 15/191/114 14/142/114
f 14/142/114 13/169/114 12/144/114
f 12/144/114 11/164/114 10/145/114
f 10/145/114 9/192/114 8/146/114
f 8/146/114 7/193/114 6/147/114
f 6/147/114 5/157/114 4/148/114
f 4/148/114 3/152/114 2/149/114
f 2/149/114 1/194/114 16/141/114
f 2/150/115 50/40/115 51/37/116
f 3/152/117 54/154/117 50/153/115
f 4/148/118 56/156/120 54/154/117
f 4/148/118 5/157/119 58/155/119
f 5/157/119 6/147/121 60/158/121
f 6/159/121 7/160/122 62/50/122
f 7/160/122 8/162/123 64/52/123
f 9/161/124 66/56/124 64/52/123
f 10/163/125 68/59/125 66/56/124
f 11/164/126 70/166/126 68/165/125
f 12/144/127 72/168/129 70/166/126
f 12/144/127 13/169/128 74/167/128
f 13/169/128 14/142/130 76/170/130
f 14/171/130 15/172/131 78/68/131
f 15/172/131 16/173/132 80/70/132
f 1/151/116 51/37/116 80/70/132
