# Blender 4.1.1
# www.blender.org
mtllib MeshDoorwayDoor_7_2_GeomSubset_1.mtl
o MeshDoorwayDoor_7_2_GeomSubset_1
v 0.048461 -0.069757 0.037621
v 0.044917 -0.061203 0.046176
v 0.075601 -0.069757 0.037621
v 0.079144 -0.061203 0.046176
v 0.027808 -0.061203 0.029066
v 0.036362 -0.069757 0.025522
v 0.027808 0.004029 0.029066
v 0.036362 0.012584 0.025522
v 0.027808 0.004029 -0.160535
v 0.036362 0.012584 -0.156991
v 0.048461 0.012584 0.037621
v 0.044917 0.004029 0.046176
v 0.075601 0.012584 0.037621
v 0.079144 0.004029 0.046176
v 0.096254 -0.061203 0.029066
v 0.087699 -0.069757 0.025522
v 0.096254 0.004029 0.029066
v 0.087699 0.012584 0.025522
v 0.096254 0.004029 -0.160535
v 0.087699 0.012584 -0.156991
v 0.048461 -0.069757 -0.169090
v 0.044917 -0.061203 -0.177645
v 0.075601 -0.069757 -0.169090
v 0.079144 -0.061203 -0.177645
v 0.027808 -0.061203 -0.160535
v 0.036362 -0.069757 -0.156991
v 0.048461 0.012584 -0.169090
v 0.044917 0.004029 -0.177645
v 0.075601 0.012584 -0.169090
v 0.079144 0.004029 -0.177645
v 0.096254 -0.061203 -0.160535
v 0.087699 -0.069757 -0.156991
v 0.041604 0.004029 0.054176
v 0.041604 -0.061203 0.054176
v 0.082458 -0.061203 0.054176
v 0.082458 0.004029 0.054176
v 0.041604 -0.061203 -0.185645
v 0.041604 0.004029 -0.185645
v 0.082458 0.004029 -0.185645
v 0.082458 -0.061203 -0.185645
v 0.104254 -0.061203 -0.163849
v 0.104254 0.004029 -0.163849
v 0.104254 0.004029 0.032380
v 0.104254 -0.061203 0.032379
v 0.019808 0.004029 -0.163849
v 0.019808 -0.061203 -0.163849
v 0.019808 -0.061203 0.032379
v 0.019808 0.004029 0.032379
vn -0.5000 -0.7071 0.5000
vn -0.0000 -0.7071 0.7071
vn 0.5000 -0.7071 0.5000
vn 0.5000 -0.7072 0.5000
vn -0.7071 -0.7071 -0.0000
vn -0.7071 0.7071 -0.0000
vn -0.5000 0.7071 0.5000
vn -0.5000 0.7071 -0.5000
vn -0.0000 0.7071 0.7071
vn 0.5000 0.7071 0.5000
vn 0.7071 -0.7071 -0.0000
vn 0.7071 0.7071 -0.0000
vn 0.5000 0.7071 -0.5000
vn -0.0000 -0.7071 -0.7071
vn -0.5000 -0.7071 -0.5000
vn -0.5000 -0.7072 -0.5000
vn 0.5000 -0.7071 -0.5000
vn 0.5000 -0.7072 -0.5000
vn 0.5000 -0.7072 -0.4999
vn -0.0000 0.7071 -0.7071
vn -0.0000 -0.0000 1.0000
vn -0.0000 -0.0000 -1.0000
vn 1.0000 -0.0000 -0.0000
vn -1.0000 -0.0000 -0.0000
vn -0.0000 1.0000 -0.0000
vn -0.0000 -1.0000 -0.0000
vn -0.7071 -0.0000 0.7071
vn 0.7071 -0.0000 0.7071
vn -0.7071 -0.0000 -0.7071
vn 0.7071 -0.0000 -0.7071
vn -0.5000 -0.7072 0.5000
vn 0.5000 -0.7072 0.4999
vt -19.938515 1.067440
vt -19.972282 1.053455
vt -19.958294 1.047662
vt -19.888353 1.081426
vt -19.944309 1.081426
vt -19.894148 1.067440
vt -19.860380 1.053455
vt -19.972282 0.743486
vt -19.958294 0.749279
vt -19.925163 0.749283
vt -19.939150 1.053455
vt -19.939150 0.743490
vt -19.905384 0.729502
vt -19.905384 1.067435
vt -19.911177 1.081422
vt -19.855223 0.715514
vt -19.861015 0.729502
vt -19.827250 0.743490
vt -19.841236 0.749283
vt -19.874367 1.047662
vt -19.860380 0.743486
vt -19.827250 1.053455
vt -19.841236 1.047662
vt -19.861015 1.067435
vt -19.938515 0.729498
vt -19.888353 0.715513
vt -19.894148 0.729498
vt -19.944309 0.715513
vt -19.874367 0.749279
vt -19.855223 1.081422
vt -19.834263 0.820075
vt -19.770428 0.922003
vt -19.834263 0.922003
vt -19.814775 0.820074
vt -19.750937 0.922004
vt -19.814775 0.922004
vt -19.800240 0.739503
vt -19.905933 1.057436
vt -19.905933 0.739503
vt -19.772953 0.739498
vt -19.878647 1.057441
vt -19.878647 0.739498
vt -19.925163 1.047662
vt -19.772953 1.092758
vt -19.772953 1.057441
vt -19.905933 1.092752
vt -19.800240 1.057438
vt -19.800240 1.092752
vt -19.878647 0.704181
vt -19.772953 0.704181
vt -19.905933 0.704187
vt -19.949726 1.094505
vt -19.882936 1.094505
vt -19.916594 0.702435
vt -19.911177 0.715514
vt -19.916594 1.094501
vt -19.849804 1.094501
vt -19.949726 0.702434
vt -19.814171 1.058871
vt -19.847303 1.058871
vt -19.985361 1.058871
vt -19.985361 0.738068
vt -19.952229 0.738066
vt -19.814171 0.738066
vt -19.952229 1.058871
vt -19.847303 0.738068
vt -19.770428 0.820075
vt -19.750937 0.820074
vt -19.878647 1.092758
vt -19.800240 0.704187
vt -19.849804 0.702435
vt -19.882936 0.702434
s 1
usemtl M_DoorwayDoor_7_1
f 1/1/1 5/2/1 6/3/1
f 1/1/2 4/4/2 2/5/2
f 3/6/3 15/7/4 4/4/3
f 6/3/5 25/8/5 26/9/5
f 8/10/6 9/11/6 7/12/6
f 7/12/7 11/13/7 8/10/7
f 9/11/8 27/14/8 28/15/8
f 11/13/9 14/16/9 13/17/9
f 13/17/10 17/18/10 18/19/10
f 16/20/11 31/21/11 15/7/11
f 18/19/12 19/22/12 20/23/12
f 19/22/13 29/24/13 20/23/13
f 21/25/14 24/26/14 23/27/14
f 21/25/15 25/8/15 22/28/16
f 23/27/17 31/21/18 32/29/19
f 27/14/20 30/30/20 28/15/20
f 34/31/21 36/32/21 33/33/21
f 38/34/22 40/35/22 37/36/22
f 42/37/23 44/38/23 41/39/23
f 46/40/24 48/41/24 45/42/24
f 8/10/25 20/23/25 10/43/25
f 21/25/26 32/29/26 26/9/26
f 34/44/27 48/41/27 47/45/27
f 35/46/28 43/47/28 36/48/28
f 46/40/29 38/49/29 37/50/29
f 40/51/30 42/37/30 41/39/30
f 1/1/26 16/20/26 3/6/26
f 6/3/26 32/29/26 16/20/26
f 11/13/25 18/19/25 8/10/25
f 27/14/25 20/23/25 29/24/25
f 34/52/26 4/4/26 35/53/26
f 33/54/25 14/16/25 12/55/25
f 38/56/25 30/30/25 39/57/25
f 37/58/26 24/26/26 22/28/26
f 17/18/25 42/59/25 19/22/25
f 31/21/26 44/60/26 15/7/26
f 25/8/26 47/61/26 46/62/26
f 9/11/25 48/63/25 7/12/25
f 2/5/26 47/61/26 5/2/26
f 12/55/25 48/63/25 33/54/25
f 15/7/26 35/53/26 4/4/26
f 14/16/25 43/64/25 17/18/25
f 22/28/26 46/62/26 37/58/26
f 28/15/25 45/65/25 9/11/25
f 24/26/26 41/66/26 31/21/26
f 30/30/25 42/59/25 39/57/25
f 1/1/1 2/5/31 5/2/1
f 1/1/2 3/6/2 4/4/2
f 3/6/3 16/20/32 15/7/4
f 6/3/5 5/2/5 25/8/5
f 8/10/6 10/43/6 9/11/6
f 7/12/7 12/55/7 11/13/7
f 9/11/8 10/43/8 27/14/8
f 11/13/9 12/55/9 14/16/9
f 13/17/10 14/16/10 17/18/10
f 16/20/11 32/29/11 31/21/11
f 18/19/12 17/18/12 19/22/12
f 19/22/13 30/30/13 29/24/13
f 21/25/14 22/28/14 24/26/14
f 21/25/15 26/9/15 25/8/15
f 23/27/17 24/26/17 31/21/18
f 27/14/20 29/24/20 30/30/20
f 34/31/21 35/67/21 36/32/21
f 38/34/22 39/68/22 40/35/22
f 42/37/23 43/47/23 44/38/23
f 46/40/24 47/45/24 48/41/24
f 8/10/25 18/19/25 20/23/25
f 21/25/26 23/27/26 32/29/26
f 34/44/27 33/69/27 48/41/27
f 35/46/28 44/38/28 43/47/28
f 46/40/29 45/42/29 38/49/29
f 40/51/30 39/70/30 42/37/30
f 1/1/26 6/3/26 16/20/26
f 6/3/26 26/9/26 32/29/26
f 11/13/25 13/17/25 18/19/25
f 27/14/25 10/43/25 20/23/25
f 34/52/26 2/5/26 4/4/26
f 33/54/25 36/71/25 14/16/25
f 38/56/25 28/15/25 30/30/25
f 37/58/26 40/72/26 24/26/26
f 17/18/25 43/64/25 42/59/25
f 31/21/26 41/66/26 44/60/26
f 25/8/26 5/2/26 47/61/26
f 9/11/25 45/65/25 48/63/25
f 2/5/26 34/52/26 47/61/26
f 12/55/25 7/12/25 48/63/25
f 15/7/26 44/60/26 35/53/26
f 14/16/25 36/71/25 43/64/25
f 22/28/26 25/8/26 46/62/26
f 28/15/25 38/56/25 45/65/25
f 24/26/26 40/72/26 41/66/26
f 30/30/25 19/22/25 42/59/25
