# Blender 4.1.1
# www.blender.org
mtllib MeshBox_8_FlapInner_2_4.mtl
o Box_8_FlapInner_2
v -0.170108 0.127767 0.045230
v -0.170108 -0.125422 0.045230
v -0.170498 0.127767 0.043864
v -0.170498 -0.125422 0.043864
v -0.284732 0.127767 0.076444
v -0.284732 -0.125422 0.076444
v -0.284342 0.127767 0.077810
v -0.284342 -0.125422 0.077810
vn 0.9616 -0.0000 -0.2745
vn -0.2743 -0.0000 -0.9617
vn -0.9616 -0.0000 0.2746
vn 0.2743 -0.0000 0.9617
vn -0.0000 -1.0000 -0.0000
vn -0.0000 1.0000 -0.0000
vt 0.009189 0.798020
vt 0.003732 0.201980
vt 0.009189 0.201980
vt 0.370429 0.798021
vt 0.105770 0.201979
vt 0.370429 0.201979
vt 0.920932 0.798018
vt 0.915475 0.201981
vt 0.920932 0.201981
vt 0.818766 0.798021
vt 0.554107 0.201979
vt 0.818766 0.201979
vt 0.932218 0.090792
vt 0.937675 0.355451
vt 0.932218 0.355451
vt 0.945333 0.801519
vt 0.950790 0.536862
vt 0.950790 0.801519
vt 0.003732 0.798020
vt 0.105770 0.798021
vt 0.915475 0.798018
vt 0.554107 0.798021
vt 0.937675 0.090792
vt 0.945333 0.536862
s 1
usemtl M_Box_8_FlapInner_2_0
f 2/1/1 3/2/1 1/3/1
f 4/4/2 5/5/2 3/6/2
f 6/7/3 7/8/3 5/9/3
f 8/10/4 1/11/4 7/12/4
f 8/13/5 4/14/5 2/15/5
f 7/16/6 3/17/6 5/18/6
f 2/1/1 4/19/1 3/2/1
f 4/4/2 6/20/2 5/5/2
f 6/7/3 8/21/3 7/8/3
f 8/10/4 2/22/4 1/11/4
f 8/13/5 6/23/5 4/14/5
f 7/16/6 1/24/6 3/17/6
