# Blender 4.1.1
# www.blender.org
mtllib MeshBox_20_FlapInner_2_4.mtl
o Box_20_FlapInner_2
v 0.198000 -0.109724 0.027420
v 0.198000 0.118955 0.027420
v 0.199361 -0.109724 0.029193
v 0.199361 0.118955 0.029193
v 0.129140 -0.109724 0.082416
v 0.129924 -0.109724 0.082518
v 0.129140 0.118955 0.082416
v 0.129924 0.118955 0.082518
v 0.128459 -0.109724 0.081529
v 0.128562 -0.109724 0.080746
v 0.128459 0.118955 0.081529
v 0.128562 0.118955 0.080746
vn 0.7929 -0.0000 -0.6093
vn 0.5909 -0.0000 0.8067
vn -0.5563 -0.0000 0.8310
vn -0.5597 -0.0000 0.8287
vn -0.0000 -1.0000 -0.0000
vn -0.0000 1.0000 -0.0000
vn -0.9464 -0.0000 0.3230
vn -0.6269 -0.0000 -0.7791
vn -0.6142 0.0002 -0.7892
vn -0.6091 -0.0000 -0.7931
vn 0.6091 -0.0000 0.7931
vn 0.6039 -0.0000 0.7970
vn -0.9451 0.0001 0.3268
vt 0.920932 0.798018
vt 0.915475 0.201981
vt 0.920932 0.201981
vt 0.009189 0.201980
vt 0.007825 0.796567
vt 0.007825 0.203433
vt 0.003733 0.201980
vt 0.003733 0.798020
vt 0.005097 0.796567
vt 0.005097 0.203433
vt 0.368750 0.798021
vt 0.105770 0.201979
vt 0.368750 0.201979
vt 0.818766 0.798021
vt 0.555787 0.201979
vt 0.818766 0.201979
vt 0.932218 0.353771
vt 0.937675 0.090792
vt 0.937674 0.353772
vt 0.945333 0.538551
vt 0.950790 0.801519
vt 0.945333 0.801519
vt 0.915475 0.798018
vt 0.009189 0.798020
vt 0.105770 0.798021
vt 0.555787 0.798021
vt 0.932218 0.090792
vt 0.950790 0.538541
s 1
usemtl M_Box_20_FlapInner_2_0
f 2/1/1 3/2/1 1/3/1
f 6/4/2 7/5/3 5/6/4
f 5/6/5 10/7/5 6/4/5
f 7/5/6 12/8/6 11/9/6
f 9/10/7 12/8/8 10/7/9
f 7/5/3 9/10/7 5/6/4
f 12/11/8 1/12/10 10/13/9
f 4/14/11 6/15/2 3/16/11
f 8/17/6 2/18/6 12/19/6
f 6/20/5 1/21/5 3/22/5
f 2/1/1 4/23/1 3/2/1
f 6/4/2 8/24/12 7/5/3
f 5/6/5 9/10/5 10/7/5
f 7/5/6 8/24/6 12/8/6
f 9/10/7 11/9/13 12/8/8
f 7/5/3 11/9/13 9/10/7
f 12/11/8 2/25/10 1/12/10
f 4/14/11 8/26/12 6/15/2
f 8/17/6 4/27/6 2/18/6
f 6/20/5 10/28/5 1/21/5
