# Blender 4.1.1
# www.blender.org
mtllib MeshBook_28_0_GeomSubset_2.mtl
o MeshBook_28_0_GeomSubset_2
v -0.109503 -0.126638 0.000047
v -0.109503 0.126638 0.000047
v 0.100315 -0.126638 -0.002504
v 0.100315 0.126638 -0.002504
v -0.037543 0.126638 0.010594
v -0.037543 -0.126638 0.010594
v 0.027918 0.126638 0.006450
v 0.027918 -0.126638 0.006450
v -0.018755 0.126638 0.009992
v -0.018755 -0.126638 0.009992
v 0.004580 0.126638 0.008572
v 0.004580 -0.126638 0.008572
v -0.094294 0.126638 0.006881
v -0.094294 -0.126638 0.006881
v -0.081500 0.126638 0.009634
v -0.081500 -0.126638 0.009634
v -0.067497 0.126638 0.010743
v -0.067497 -0.126638 0.010743
v -0.053495 0.126638 0.010810
v -0.053495 -0.126638 0.010810
v 0.051282 0.126638 0.004136
v 0.051282 -0.126638 0.004136
v 0.074605 0.126638 0.001425
v 0.074605 -0.126638 0.001425
v -0.110987 -0.126817 -0.001446
v -0.110987 0.126817 -0.001446
v -0.103889 0.126638 0.003562
v -0.103889 -0.126638 0.003562
v -0.111874 -0.126902 -0.002701
v -0.111874 -0.128037 -0.003370
v -0.111874 0.126901 -0.002701
v -0.111874 0.128037 -0.003370
v 0.093032 0.126638 -0.001045
v 0.093032 -0.126638 -0.001045
vn -1.0000 -0.0000 -0.0000
vn 0.1964 -0.0000 0.9805
vn 0.1511 -0.0000 0.9885
vn 0.0237 -0.0000 0.9997
vn 0.0044 -0.0000 1.0000
vn 0.0946 -0.0000 0.9955
vn 0.0757 -0.0000 0.9971
vn 0.0479 -0.0000 0.9989
vn -0.2618 -0.0000 0.9651
vn -0.4100 -0.0000 0.9121
vn -0.4101 -0.0000 0.9121
vn -0.1427 -0.0000 0.9898
vn -0.0419 -0.0000 0.9991
vn 0.1070 -0.0000 0.9943
vn 0.1234 -0.0000 0.9924
vn -0.5794 -0.0000 0.8150
vn -0.7600 -0.0000 0.6500
vn -0.5785 -0.0000 0.8157
vn -0.7600 -0.0000 0.6499
vn -0.8170 -0.0000 0.5767
vn -0.8169 -0.0000 0.5768
vn -0.7599 -0.0000 0.6501
vn -0.8170 -0.0000 0.5766
vt 2.167381 0.250825
vt 2.167381 0.498539
vt 2.333567 0.250825
vt 2.327863 0.498539
vt 2.327863 0.250825
vt 2.225597 0.250825
vt 2.213103 0.498539
vt 2.213103 0.250825
vt 2.276866 0.250825
vt 2.258589 0.498539
vt 2.258589 0.250825
vt 2.240311 0.250825
vt 2.225597 0.498539
vt 2.240311 0.498539
vt 2.181149 0.250825
vt 2.173634 0.498539
vt 2.173634 0.250825
vt 2.191170 0.250825
vt 2.181149 0.498539
vt 2.202137 0.250825
vt 2.191170 0.498539
vt 2.202137 0.498539
vt 2.295164 0.250825
vt 2.276866 0.498539
vt 2.313432 0.250825
vt 2.295164 0.498539
vt 2.169237 0.498539
vt 2.168076 0.250825
vt 2.169237 0.250825
vt 2.313432 0.498539
vt 2.333567 0.498539
vt 2.168076 0.498539
s 1
usemtl M_Book_28_2
f 30/1/1 31/2/1 32/2/1
f 3/3/2 33/4/3 34/5/3
f 6/6/4 19/7/5 20/8/5
f 8/9/6 11/10/7 12/11/7
f 10/12/8 5/13/4 6/6/4
f 12/11/7 9/14/8 10/12/8
f 14/15/9 27/16/10 28/17/11
f 16/18/12 13/19/9 14/15/9
f 18/20/13 15/21/12 16/18/12
f 20/8/5 17/22/13 18/20/13
f 22/23/14 7/24/6 8/9/6
f 24/25/15 21/26/14 22/23/14
f 2/27/16 25/28/17 1/29/18
f 28/17/11 2/27/16 1/29/18
f 25/28/19 31/2/20 29/1/21
f 34/5/3 23/30/15 24/25/15
f 30/1/1 29/1/1 31/2/1
f 3/3/2 4/31/2 33/4/3
f 6/6/4 5/13/4 19/7/5
f 8/9/6 7/24/6 11/10/7
f 10/12/8 9/14/8 5/13/4
f 12/11/7 11/10/7 9/14/8
f 14/15/9 13/19/9 27/16/10
f 16/18/12 15/21/12 13/19/9
f 18/20/13 17/22/13 15/21/12
f 20/8/5 19/7/5 17/22/13
f 22/23/14 21/26/14 7/24/6
f 24/25/15 23/30/15 21/26/14
f 2/27/16 26/32/22 25/28/17
f 28/17/11 27/16/10 2/27/16
f 25/28/17 26/32/22 31/2/23
f 34/5/3 33/4/3 23/30/15
