# Blender 4.1.1
# www.blender.org
mtllib MeshBox_8_FlapOuter_1_1.mtl
o Box_8_FlapOuter_1
v -0.170869 2.720346 0.518361
v 0.173330 2.720346 0.518361
v -0.170869 2.720511 0.519772
v 0.173330 2.720511 0.519772
v -0.170869 2.851593 0.503898
v -0.170869 2.851592 0.504123
v -0.170868 2.851714 0.503839
v -0.170869 2.851325 0.504334
v -0.170869 2.851287 0.504144
v -0.170869 2.851034 0.504451
v 0.173330 2.851288 0.504142
v 0.173330 2.851323 0.504335
v 0.173330 2.851035 0.504451
v 0.173330 2.851714 0.503839
v 0.173330 2.851593 0.504122
v 0.173330 2.851593 0.503898
v -0.170869 2.851489 0.503231
v -0.170869 2.851542 0.503447
v -0.170869 2.851671 0.503479
v -0.170869 2.851187 0.503282
v -0.170869 2.851176 0.503086
v -0.170869 2.850870 0.503040
v 0.173330 2.851178 0.503087
v 0.173330 2.851186 0.503281
v 0.173330 2.850869 0.503040
v 0.173330 2.851671 0.503479
v 0.173330 2.851541 0.503449
v 0.173330 2.851489 0.503231
vn -0.0000 -0.9932 0.1166
vn -0.0000 -0.9932 0.1164
vn -0.0000 -0.9932 0.1168
vn -1.0000 0.0017 0.0033
vn -1.0000 -0.0016 -0.0003
vn -1.0000 -0.0007 -0.0001
vn -1.0000 -0.0005 -0.0000
vn -1.0000 -0.0000 -0.0000
vn -0.0000 0.9926 0.1217
vn -0.0000 0.7864 0.6177
vn -0.0000 0.9928 0.1200
vn -0.0000 0.1188 0.9929
vn -0.0000 0.5071 0.8619
vn -0.0000 0.5067 0.8621
vn 1.0000 -0.0000 -0.0000
vn 1.0000 -0.0001 -0.0000
vn 0.0001 0.9377 -0.3473
vn -0.0000 0.6228 -0.7824
vn -0.0000 0.6221 -0.7829
vn -1.0000 -0.0001 -0.0000
vn -0.0000 0.2935 -0.9560
vn -0.0000 -0.1134 -0.9935
vn -0.0001 -0.1163 -0.9932
vn -0.0000 0.7857 0.6186
vn -0.0000 0.2943 -0.9557
vn -0.0000 0.9381 -0.3465
vn -0.0000 -0.1166 -0.9932
vn -0.0000 0.1166 0.9932
vn -1.0000 0.0036 0.0007
vn 1.0000 -0.0004 0.0001
vn 0.0001 0.1175 0.9931
vt 1.529613 0.512573
vt 1.535070 1.444735
vt 1.529613 1.444735
vt 1.520731 0.467651
vt 1.519014 0.468502
vt 1.518816 0.467655
vt 1.521674 0.467579
vt 1.521612 0.466775
vt 1.522439 0.466800
vt 1.520545 0.468498
vt 1.521672 1.489059
vt 1.520545 1.488809
vt 1.522776 0.466457
vt 1.522430 1.489816
vt 1.522568 0.466457
vt 1.517950 0.466777
vt 1.517069 0.466556
vt 1.521604 1.490531
vt 1.516987 1.490850
vt 1.517942 1.490533
vt 1.520731 1.489657
vt 1.519014 1.488806
vt 1.517883 1.489059
vt 1.517910 0.467610
vt 1.517146 0.466831
vt 1.516779 1.490586
vt 1.516779 0.466457
vt 1.518823 1.489657
vt 1.517128 1.489803
vt 1.499303 1.444736
vt 1.189925 0.512572
vt 1.499305 0.512572
vt 0.851932 0.512572
vt 1.161310 1.444736
vt 0.851932 1.444736
vt 0.834132 1.156673
vt 0.828675 1.466052
vt 0.828675 1.156675
vt 0.816288 1.156674
vt 0.821745 1.466053
vt 0.816288 1.466053
vt 1.522775 1.490587
vt 1.535070 0.512572
vt 1.522485 1.490752
vt 1.189925 1.444736
vt 1.161312 0.512572
vt 0.834132 1.466052
vt 0.821745 1.156672
s 1
usemtl M_Box_8_FlapOuter_1_0
f 2/1/1 3/2/2 1/3/3
f 5/4/4 19/5/5 18/6/6
f 6/7/7 9/8/8 8/9/8
f 7/10/9 15/11/10 14/12/11
f 10/13/12 12/14/13 8/9/14
f 10/15/8 20/16/8 22/17/8
f 11/18/15 25/19/15 24/20/15
f 11/18/15 15/11/16 12/14/15
f 16/21/15 26/22/16 14/12/15
f 19/5/17 28/23/18 17/24/19
f 17/24/20 20/16/8 18/6/6
f 21/25/21 25/26/22 22/27/23
f 24/20/15 28/23/15 27/28/15
f 8/9/14 15/11/10 6/7/24
f 5/4/4 20/16/8 9/8/8
f 11/18/15 27/28/15 16/21/15
f 17/24/19 23/29/25 21/25/21
f 7/10/9 26/22/26 19/5/17
f 25/30/22 1/31/27 22/32/23
f 4/33/28 10/34/12 3/35/28
f 13/36/15 2/37/15 25/38/15
f 10/39/8 1/40/8 3/41/8
f 5/4/4 6/7/7 7/10/29
f 8/9/8 9/8/8 10/13/8
f 11/18/15 12/14/15 13/42/15
f 14/12/15 15/11/16 16/21/15
f 17/24/20 18/6/6 19/5/5
f 20/16/8 21/25/8 22/17/8
f 23/29/30 24/20/15 25/19/15
f 26/22/16 27/28/15 28/23/15
f 2/1/1 4/43/1 3/2/2
f 5/4/4 7/10/29 19/5/5
f 6/7/7 5/4/4 9/8/8
f 7/10/9 6/7/24 15/11/10
f 10/13/12 13/42/31 12/14/13
f 10/15/8 9/8/8 20/16/8
f 11/18/15 13/44/15 25/19/15
f 11/18/15 16/21/15 15/11/16
f 16/21/15 27/28/15 26/22/16
f 19/5/17 26/22/26 28/23/18
f 17/24/20 21/25/8 20/16/8
f 21/25/21 23/29/25 25/26/22
f 24/20/15 23/29/30 28/23/15
f 8/9/14 12/14/13 15/11/10
f 5/4/4 18/6/6 20/16/8
f 11/18/15 24/20/15 27/28/15
f 17/24/19 28/23/18 23/29/25
f 7/10/9 14/12/11 26/22/26
f 25/30/22 2/45/27 1/31/27
f 4/33/28 13/46/31 10/34/12
f 13/36/15 4/47/15 2/37/15
f 10/39/8 22/48/8 1/40/8
