# Blender 4.1.1
# www.blender.org
mtllib MeshFridgeFreezerdoorB6_3_GeomSubset_3.mtl
o MeshFridgeFreezerdoorB6_3_GeomSubset_3
v -0.005905 0.047643 -0.895309
v -0.005895 0.047643 -0.895309
v -0.005905 0.047653 -0.895309
v -0.005895 0.047653 -0.895309
v 0.379276 -0.208525 0.388540
v 0.384183 -0.208512 0.392635
v -0.393848 -0.208512 0.392635
v -0.388940 -0.208525 0.388540
v -0.391505 -0.207222 0.786176
v -0.369127 -0.207161 0.804757
v 0.359463 -0.207161 0.804757
v 0.381840 -0.207222 0.786176
v -0.384912 -0.207179 0.799321
v 0.375247 -0.207179 0.799320
v 0.369641 -0.191441 0.397291
v 0.374583 -0.191414 0.401416
v -0.384247 -0.191414 0.401416
v -0.379305 -0.191441 0.397291
v 0.335048 -0.191252 0.426159
v 0.339990 -0.191226 0.430283
v -0.349655 -0.191226 0.430283
v -0.344712 -0.191252 0.426159
v 0.339990 -0.302270 0.430746
v 0.335048 -0.302297 0.426624
v -0.344712 -0.302297 0.426624
v -0.349655 -0.302270 0.430746
v -0.359352 -0.188828 0.795842
v -0.381894 -0.188950 0.777131
v -0.324759 -0.189017 0.766975
v -0.347321 -0.189141 0.748263
v -0.324759 -0.300061 0.767439
v -0.347321 -0.300185 0.748728
v 0.349688 -0.188828 0.795842
v 0.372229 -0.188950 0.777131
v 0.315095 -0.189017 0.766975
v 0.337656 -0.189141 0.748263
v 0.337656 -0.300185 0.748728
v 0.315095 -0.300061 0.767439
v 0.330999 -0.189054 0.761501
v 0.330999 -0.300100 0.761966
v -0.340664 -0.300100 0.761966
v -0.340664 -0.189054 0.761501
v 0.365585 -0.188864 0.790368
v -0.375250 -0.188864 0.790368
vn -0.0000 -0.0000 1.0000
vn 0.8729 0.4878 -0.0071
vn 0.0130 0.4616 -0.8870
vn 0.0023 0.4570 -0.8895
vn -0.0070 0.4591 -0.8884
vn -0.8729 0.4878 -0.0071
vn -0.0035 0.4575 -0.8892
vn -0.0000 1.0000 -0.0065
vn -0.6405 0.0032 0.7679
vn -0.0012 0.0043 1.0000
vn -0.0062 0.0047 1.0000
vn -0.0072 0.0047 1.0000
vn 0.6405 0.0032 0.7680
vn 0.0133 0.0043 0.9999
vn -0.0063 -0.0043 -1.0000
vn -0.6374 -0.0033 -0.7705
vn -0.6379 -0.0032 -0.7701
vn -0.9997 -0.0001 -0.0229
vn -0.9996 0.0003 -0.0296
vn 0.0079 -0.0043 -1.0000
vn 0.6374 -0.0032 -0.7705
vn 0.0086 -0.0043 -1.0000
vn 0.6379 -0.0033 -0.7701
vn 0.9997 0.0004 -0.0229
vn -0.0000 1.0000 -0.0066
vn 0.0115 0.4422 0.8968
vn 0.5129 0.5801 0.6328
vn 0.0044 0.4391 0.8984
vn 0.8768 0.4803 0.0235
vn 0.8800 0.4748 0.0135
vn -0.0099 0.4416 0.8972
vn -0.5129 0.5801 0.6328
vn -0.5317 0.5815 0.6158
vn -0.8767 0.4804 0.0235
vn -0.0100 -0.0043 -0.9999
vn -0.8726 0.4883 -0.0110
vn -0.0001 1.0000 -0.0065
vn 0.9996 -0.0000 -0.0296
vn 1.0000 -0.0000 -0.0073
vn -1.0000 -0.0000 -0.0073
vn 0.8727 0.4882 -0.0109
vn -0.6407 0.0032 0.7678
vn 0.6406 0.0032 0.7678
vn 0.5318 0.5814 0.6158
vn -0.0046 0.4392 0.8984
vn -0.8800 0.4748 0.0135
vn 0.0001 1.0000 -0.0065
vn -0.0003 1.0000 -0.0063
vn 0.0003 1.0000 -0.0063
vt -86.217529 -111.970917
vt -86.217506 -111.970886
vt -86.217529 -111.970886
vt -90.201820 0.609693
vt -90.247292 0.575480
vt -90.201897 0.598734
vt -90.169716 0.575415
vt -90.215179 0.609632
vt -90.215111 0.598672
vt -90.532341 0.424163
vt -90.450714 0.350794
vt -90.522133 0.436391
vt -90.450714 2.203965
vt -90.532341 2.130597
vt -90.522133 2.118369
vt -90.081589 1.287873
vt -90.357864 1.276458
vt -90.081520 1.277613
vt -90.194756 1.283709
vt -90.471016 1.295125
vt -90.471085 1.284864
vt -90.149826 0.445616
vt -90.424858 0.406212
vt -90.149734 0.406212
vt -90.086990 2.112135
vt -90.363113 2.078036
vt -90.086777 2.079190
vt -90.149826 2.030921
vt -90.424858 2.070325
vt -90.424950 2.030921
vt -90.465614 2.119415
vt -90.189507 2.085315
vt -90.189285 2.118259
vt -91.436859 0.400164
vt -91.351898 0.446408
vt -91.365440 0.485761
vt -91.390572 0.344390
vt -91.319153 0.429938
vt -91.436859 2.154594
vt -91.351898 2.108351
vt -91.423317 2.193931
vt -91.390572 2.210370
vt -91.161720 0.324913
vt -91.113861 0.308894
vt -91.113762 0.350485
vt -90.195045 1.643162
vt -90.243828 1.632024
vt -90.195274 1.607989
vt -91.161720 2.231042
vt -91.113861 2.247061
vt -91.161766 2.272336
vt -90.221954 1.643224
vt -90.173172 1.632085
vt -90.173294 1.667015
vt -90.424950 0.445616
vt -91.137566 2.288909
vt -91.182373 0.299540
vt -91.137566 0.274272
vt -90.257179 0.400957
vt -90.531929 2.082846
vt -90.531929 0.400957
vt -90.169746 0.586297
vt -90.980576 2.093738
vt -91.026871 2.037916
vt -90.183609 2.087284
vt -90.465828 2.086470
vt -90.194695 1.293972
vt -90.357925 1.286720
vt -91.319153 2.124822
vt -90.460922 0.338565
vt -86.217506 -111.970917
vt -90.247261 0.586361
vt -90.460922 2.216193
vt -90.363335 2.110979
vt -90.149734 2.070325
vt -91.423317 0.360829
vt -91.365440 2.068997
vt -91.161766 0.283616
vt -90.243713 1.666949
vt -91.113762 2.205470
vt -90.221725 1.608047
vt -91.182373 2.263641
vt -90.257179 2.082846
vt -90.980576 0.398935
vt -90.193810 0.393160
vt -90.183609 0.405388
vt -91.026871 0.454757
vt -90.193810 2.099513
vt -91.013329 2.077267
vt -91.013329 0.415405
s 1
usemtl M_FridgeFreezerdoorB6_3
f 2/1/1 3/2/1 1/3/1
f 16/4/2 5/5/3 15/6/4
f 8/7/5 17/8/6 18/9/7
f 20/10/8 15/11/8 19/12/8
f 18/13/8 21/14/8 22/15/8
f 23/16/9 19/17/10 24/18/11
f 22/19/12 26/20/13 25/21/14
f 38/22/15 39/23/16 40/24/17
f 40/25/17 36/26/18 37/27/19
f 31/28/20 42/29/21 29/30/22
f 41/31/23 30/32/24 42/33/21
f 33/34/25 39/35/25 35/36/25
f 39/35/25 34/37/8 36/38/25
f 27/39/25 42/40/25 44/41/8
f 42/40/25 28/42/8 44/41/8
f 11/43/26 43/44/27 33/45/28
f 43/46/27 12/47/29 34/48/30
f 10/49/31 44/50/32 13/51/33
f 44/52/32 9/53/34 13/54/33
f 31/28/20 35/55/35 38/22/15
f 35/36/25 27/39/25 33/34/25
f 33/45/28 10/49/31 11/43/26
f 8/56/5 15/57/4 5/58/3
f 18/13/8 19/12/8 15/11/8
f 19/59/10 25/60/14 24/61/11
f 12/47/29 16/4/2 34/48/30
f 9/53/34 17/8/6 7/62/36
f 32/63/37 31/64/37 25/65/25
f 32/66/38 21/67/39 30/32/24
f 37/27/19 20/68/40 23/16/40
f 21/14/8 28/42/8 30/69/25
f 20/10/8 34/37/8 16/70/8
f 2/1/1 4/71/1 3/2/1
f 16/4/2 6/72/41 5/5/3
f 8/7/5 7/62/36 17/8/6
f 20/10/8 16/70/8 15/11/8
f 18/13/8 17/73/8 21/14/8
f 23/16/9 20/68/42 19/17/10
f 22/19/12 21/67/43 26/20/13
f 38/22/15 35/55/35 39/23/16
f 40/25/17 39/74/16 36/26/18
f 31/28/20 41/75/23 42/29/21
f 41/31/23 32/66/38 30/32/24
f 33/34/25 43/76/8 39/35/25
f 39/35/25 43/76/8 34/37/8
f 27/39/25 29/77/25 42/40/25
f 42/40/25 30/69/25 28/42/8
f 11/43/26 14/78/44 43/44/27
f 43/46/27 14/79/44 12/47/29
f 10/49/31 27/80/45 44/50/32
f 44/52/32 28/81/46 9/53/34
f 31/28/20 29/30/22 35/55/35
f 35/36/25 29/77/25 27/39/25
f 33/45/28 27/80/45 10/49/31
f 8/56/5 18/82/7 15/57/4
f 18/13/8 22/15/8 19/12/8
f 19/59/10 22/83/12 25/60/14
f 12/47/29 6/72/41 16/4/2
f 9/53/34 28/81/46 17/8/6
f 37/84/47 23/85/25 24/86/25
f 24/86/25 25/65/25 38/87/47
f 25/65/25 26/88/25 32/63/37
f 38/87/47 25/65/25 31/64/37
f 32/63/37 41/89/48 31/64/37
f 38/87/47 40/90/49 37/84/47
f 37/84/47 24/86/25 38/87/47
f 32/66/38 26/20/39 21/67/39
f 37/27/19 36/26/18 20/68/40
f 21/14/8 17/73/8 28/42/8
f 20/10/8 36/38/25 34/37/8
