# Blender 4.1.1
# www.blender.org
mtllib MeshRobothorWallDecor_4_3_0_GeomSubset_0.mtl
o MeshRobothorWallDecor_4_3_0_GeomSubset_0
v 0.001829 0.006528 -0.642733
v 0.002529 0.006528 -0.642733
v 0.001829 0.007172 -0.642733
v 0.002529 0.007172 -0.642733
v 0.444852 -0.011123 -0.298848
v -0.440664 -0.011123 -0.298848
v -0.440664 -0.011335 0.303321
v 0.444852 -0.011335 0.303321
vn -0.0000 -0.0000 1.0000
vn -0.0000 -1.0000 -0.0004
vt -9.379675 -9.755940
vt -9.379271 -9.755536
vt -9.379675 -9.755536
vt -9.000000 0.000000
vt -10.000000 1.000000
vt -10.000000 0.000000
vt -9.000000 1.000000
vt -9.379271 -9.755940
s 1
usemtl M_RobothorWallDecor_4_3_0
f 2/1/1 3/2/1 1/3/1
f 5/4/2 7/5/2 6/6/2
f 5/4/2 8/7/2 7/5/2
f 2/1/1 4/8/1 3/2/1
