# Blender 4.1.1
# www.blender.org
mtllib MeshCountertopI_4X2_0_GeomSubset_0.mtl
o MeshCountertopI_4X2_0_GeomSubset_0
v -0.611260 0.307047 0.377798
v -0.611260 -0.302553 0.377798
v -0.611260 0.307047 0.347798
v -0.611260 -0.302553 0.347798
v 0.607939 0.307047 0.377798
v 0.607939 -0.302553 0.377798
v 0.607939 -0.302553 0.347798
v 0.607939 0.307047 0.347798
v -0.611261 -0.282553 0.347798
v 0.607939 -0.282553 0.347798
v -0.611260 -0.282553 0.377798
v 0.607939 -0.282553 0.377798
vn -0.0000 -0.0000 1.0000
vn -0.0000 -1.0000 -0.0000
vn -0.0000 1.0000 -0.0000
vn 1.0000 -0.0000 -0.0000
vn -1.0000 -0.0000 -0.0000
vn -0.0000 -0.0000 -1.0000
vt -10.690347 0.029143
vt -8.785348 0.950392
vt -10.690347 0.950392
vt -10.690351 0.718077
vt -8.785344 0.764952
vt -10.690351 0.764952
vt -10.690378 0.749118
vt -8.785319 0.795992
vt -10.690378 0.795992
vt -9.933856 0.803892
vt -9.012581 0.850766
vt -9.933856 0.850766
vt -9.043842 0.881808
vt -9.012592 0.834932
vt -9.012592 0.881808
vt -10.690344 0.815135
vt -8.785352 0.783885
vt -8.785353 0.815135
vt -8.785353 -0.002110
vt -8.785353 0.029143
vt -9.965110 0.803892
vt -9.965110 0.850766
vt -9.965096 0.834932
vt -9.043842 0.834932
vt -8.785344 0.718077
vt -8.785319 0.749118
vt -9.012581 0.803892
vt -10.690343 0.783885
vt -10.690347 -0.002109
vt -9.965096 0.881808
s 1
usemtl M_CountertopI_4X2_0
f 11/1/1 5/2/1 1/3/1
f 4/4/2 6/5/2 2/6/2
f 1/7/3 8/8/3 3/9/3
f 10/10/4 5/11/4 12/12/4
f 11/13/5 4/14/5 2/15/5
f 4/16/6 10/17/6 7/18/6
f 11/1/1 6/19/1 12/20/1
f 7/21/4 12/12/4 6/22/4
f 11/13/5 3/23/5 9/24/5
f 11/1/1 12/20/1 5/2/1
f 4/4/2 7/25/2 6/5/2
f 1/7/3 5/26/3 8/8/3
f 10/10/4 8/27/4 5/11/4
f 11/13/5 9/24/5 4/14/5
f 4/16/6 9/28/6 10/17/6
f 11/1/1 2/29/1 6/19/1
f 7/21/4 10/10/4 12/12/4
f 11/13/5 1/30/5 3/23/5
