# Blender 4.1.1
# www.blender.org
mtllib PaperToiletpaper_1.mtl
o Toiletpaper
v -0.004904 0.051790 0.058149
v 0.026465 0.044787 0.058149
v 0.047723 0.020676 0.058149
v 0.050753 -0.011331 0.058149
v 0.034398 -0.039010 0.058149
v 0.004904 -0.051790 0.058149
v -0.026465 -0.044787 0.058149
v -0.047723 -0.020676 0.058149
v -0.050752 0.011331 0.058149
v -0.034398 0.039010 0.058149
v 0.026465 0.044787 -0.060372
v 0.047723 0.020676 -0.060372
v 0.050752 -0.011331 -0.060372
v 0.034398 -0.039010 -0.060372
v 0.004904 -0.051790 -0.060372
v -0.026465 -0.044787 -0.060372
v -0.047723 -0.020676 -0.060372
v -0.050752 0.011331 -0.060372
v -0.034398 0.039010 -0.060372
v -0.004904 0.051790 -0.060372
v -0.012123 0.013759 0.058149
v -0.012123 0.013759 -0.060372
v -0.001725 0.018264 -0.060372
v -0.001725 0.018264 0.058149
v -0.017892 0.003995 0.058149
v -0.017892 0.003995 -0.060372
v -0.016824 -0.007296 0.058149
v -0.016824 -0.007296 -0.060372
v -0.009329 -0.015796 0.058149
v -0.009329 -0.015796 -0.060372
v 0.001725 -0.018264 0.058149
v 0.001725 -0.018264 -0.060372
v 0.012123 -0.013759 0.058149
v 0.012123 -0.013759 -0.060372
v 0.017892 -0.003995 0.058149
v 0.017892 -0.003995 -0.060372
v 0.016824 0.007296 0.058149
v 0.016824 0.007296 -0.060372
v 0.009329 0.015796 0.058149
v 0.009329 0.015796 -0.060372
v -0.004904 0.051790 0.053740
v 0.026465 0.044787 0.053740
v 0.047723 0.020676 0.053740
v 0.050753 -0.011331 0.053740
v 0.034398 -0.039010 0.053740
v 0.004904 -0.051790 0.053740
v -0.026465 -0.044787 0.053740
v -0.047723 -0.020676 0.053740
v -0.050752 0.011331 0.053740
v -0.034398 0.039010 0.053740
v 0.026465 0.044787 -0.055483
v 0.047723 0.020676 -0.055483
v 0.050752 -0.011331 -0.055483
v 0.034398 -0.039010 -0.055483
v 0.004904 -0.051790 -0.055483
v -0.026465 -0.044787 -0.055483
v -0.047723 -0.020676 -0.055483
v -0.050752 0.011331 -0.055483
v -0.034398 0.039010 -0.055483
v -0.004904 0.051790 -0.055483
v 0.001861 -0.019699 0.058149
v -0.010063 -0.017037 0.058149
v 0.013077 -0.014839 0.058149
v 0.019299 -0.004309 0.058149
v 0.018146 0.007869 0.058149
v -0.013077 0.014839 0.058149
v -0.001861 0.019699 0.058149
v 0.010063 0.017037 0.058149
v -0.019299 0.004309 0.058149
v -0.018146 -0.007869 0.058149
v -0.018497 -0.031304 0.058149
v -0.003427 0.036199 0.058149
v 0.003427 -0.036199 0.058149
v 0.024042 -0.027266 0.058149
v 0.035474 -0.007920 0.058149
v 0.033356 0.014452 0.058149
v -0.024042 0.027266 0.058149
v 0.018498 0.031304 0.058149
v -0.035474 0.007920 0.058149
v -0.033356 -0.014452 0.058149
v 0.047876 -0.010688 -0.060372
v 0.045018 0.019505 -0.060372
v -0.004625 0.048855 -0.060372
v -0.032448 0.036799 -0.060372
v 0.024965 0.042249 -0.060372
v -0.047876 0.010688 -0.060372
v -0.045018 -0.019505 -0.060372
v -0.024965 -0.042249 -0.060372
v 0.004625 -0.048855 -0.060372
v 0.032448 -0.036799 -0.060372
v 0.020712 -0.004624 -0.060372
v -0.001998 0.021141 -0.060372
v 0.019475 0.008444 -0.060372
v -0.014035 0.015925 -0.060372
v 0.010800 0.018284 -0.060372
v -0.020712 0.004624 -0.060372
v -0.019475 -0.008444 -0.060372
v -0.010800 -0.018284 -0.060372
v 0.001998 -0.021141 -0.060372
v 0.014034 -0.015925 -0.060372
vn -0.0945 0.9955 -0.0000
vn -0.5691 0.6450 -0.5100
vn -0.6616 0.7498 -0.0000
vn -0.8395 0.1874 -0.5100
vn -0.9760 0.2179 -0.0000
vn -0.7886 -0.3413 -0.5115
vn -0.9177 -0.3972 -0.0000
vn -0.4377 -0.7404 -0.5101
vn -0.5089 -0.8608 -0.0000
vn 0.0814 -0.8575 -0.5080
vn 0.0945 -0.9955 -0.0000
vn 0.5691 -0.6450 -0.5100
vn 0.6616 -0.7498 -0.0000
vn 0.8395 -0.1874 -0.5100
vn 0.9760 -0.2179 -0.0000
vn 0.7886 0.3413 -0.5115
vn 0.9177 0.3972 -0.0000
vn 0.4377 0.7404 -0.5101
vn 0.5089 0.8608 -0.0000
vn 0.0922 0.7449 -0.6608
vn -0.1510 -0.9477 -0.2811
vn 0.0944 -0.9947 -0.0417
vn 0.6616 -0.7498 0.0005
vn 0.4501 -0.8378 -0.3090
vn 0.9760 -0.2179 0.0006
vn 0.8564 -0.4135 -0.3091
vn 0.9177 0.3972 0.0006
vn 0.9265 0.1834 -0.3286
vn 0.5087 0.8604 0.0307
vn 0.6576 0.6871 -0.3089
vn -0.0944 0.9947 -0.0417
vn 0.1510 0.9477 -0.2811
vn -0.6616 0.7498 0.0005
vn -0.4501 0.8378 -0.3090
vn -0.9760 0.2179 0.0006
vn -0.8564 0.4135 -0.3091
vn -0.9177 -0.3972 0.0006
vn -0.9265 -0.1834 -0.3286
vn -0.5087 -0.8604 0.0307
vn 0.2021 -0.9793 -0.0141
vn -0.0000 -0.0000 -1.0000
vn -0.0000 -0.0000 1.0000
vn 0.7948 0.3279 0.5106
vn -0.0306 0.3224 0.9461
vn 0.8358 -0.2019 0.5106
vn 0.5555 -0.6572 0.5094
vn 0.0665 -0.8572 0.5106
vn -0.4502 -0.7326 0.5105
vn -0.7920 -0.3315 0.5126
vn -0.8356 0.2019 0.5108
vn -0.5555 0.6572 0.5094
vn -0.0665 0.8571 0.5108
vt 0.500000 -1.670252
vt 0.500000 2.670252
vt 0.500000 1.585126
vt 0.893730 -0.042117
vt 0.927660 -0.194475
vt 0.935863 -0.192210
vt 0.872041 0.100363
vt 0.886182 -0.043698
vt 0.859721 0.235912
vt 0.864873 0.099518
vt 0.852967 0.369739
vt 0.852781 0.235449
vt 0.850214 0.506699
vt 0.846002 0.369526
vt 0.850270 0.646968
vt 0.843087 0.506660
vt 0.852615 0.786095
vt 0.843080 0.647055
vt 0.859282 0.918981
vt 0.845615 0.786344
vt 0.874328 1.050701
vt 0.852467 0.919577
vt 0.909653 1.191173
vt 0.867696 1.051952
vt 0.154626 -0.254977
vt 0.144340 -0.100942
vt 0.130077 0.204752
vt 0.135912 0.052352
vt 0.127093 0.356360
vt 0.127057 0.507385
vt 0.129995 0.657873
vt 0.135796 0.807612
vt 0.144159 0.956355
vt 0.902721 1.192904
vt 0.154549 1.104305
vt 0.500000 0.500000
vt 0.165968 1.252111
s 1
usemtl M_Toiletpaper_0
f 60/1/1 19/2/2 59/1/3
f 59/1/3 18/2/4 58/1/5
f 58/1/5 17/2/6 57/1/7
f 57/1/7 16/2/8 56/1/9
f 56/1/9 15/2/10 55/1/11
f 55/1/11 14/2/12 54/1/13
f 54/1/13 13/2/14 53/1/15
f 53/1/15 12/2/16 52/1/17
f 52/1/17 11/2/18 51/1/19
f 51/1/19 20/2/20 60/1/1
f 22/1/21 24/2/22 21/1/23
f 26/1/24 21/2/23 25/1/25
f 28/1/26 25/2/25 27/1/27
f 30/1/28 27/2/27 29/1/29
f 32/1/30 29/2/29 31/1/31
f 34/1/32 31/2/31 33/1/33
f 36/1/34 33/2/33 35/1/35
f 38/1/36 35/2/35 37/1/37
f 40/1/38 37/2/37 39/1/39
f 23/1/40 39/2/39 24/1/22
f 91/3/41 38/2/36 93/3/41
f 61/1/42 29/2/29 62/1/42
f 94/3/41 23/2/40 22/2/21
f 93/3/41 40/2/38 95/3/41
f 61/1/42 33/2/33 31/2/31
f 94/3/41 26/2/24 96/3/41
f 92/3/41 40/2/38 23/2/40
f 63/1/42 35/2/35 33/2/33
f 96/3/41 28/2/26 97/3/41
f 64/1/42 37/2/37 35/2/35
f 97/3/41 30/2/28 98/3/41
f 67/1/42 21/2/23 24/2/22
f 65/1/42 39/2/39 37/2/37
f 99/3/41 30/2/28 32/2/30
f 66/1/42 25/2/25 21/2/23
f 67/1/42 39/2/39 68/1/42
f 100/3/41 32/2/30 34/2/32
f 69/1/42 27/2/27 25/2/25
f 100/3/41 36/2/34 91/3/41
f 70/1/42 29/2/29 27/2/27
f 2/4/43 41/5/1 1/6/44
f 3/7/45 42/8/19 2/4/43
f 4/9/46 43/10/17 3/7/45
f 5/11/47 44/12/15 4/9/46
f 6/13/48 45/14/13 5/11/47
f 7/15/49 46/16/11 6/13/48
f 8/17/50 47/18/9 7/15/49
f 9/19/51 48/20/7 8/17/50
f 10/21/52 49/22/5 9/19/51
f 1/23/44 50/24/3 10/21/52
f 42/8/19 60/25/1 41/5/1
f 43/10/17 51/26/19 42/8/19
f 43/10/17 53/27/15 52/28/17
f 45/14/13 53/27/15 44/12/15
f 46/16/11 54/29/13 45/14/13
f 47/18/9 55/30/11 46/16/11
f 48/20/7 56/31/9 47/18/9
f 49/22/5 57/32/7 48/20/7
f 50/24/3 58/33/5 49/22/5
f 41/34/1 59/35/3 50/24/3
f 80/1/42 62/2/42 70/2/42
f 79/1/42 70/2/42 69/2/42
f 72/1/42 68/2/42 78/1/42
f 79/1/42 66/2/42 77/1/42
f 76/1/42 68/2/42 65/2/42
f 77/1/42 67/2/42 72/1/42
f 75/1/42 65/2/42 64/2/42
f 75/1/42 63/2/42 74/1/42
f 74/1/42 61/2/42 73/1/42
f 71/1/42 61/2/42 62/2/42
f 6/1/48 71/2/42 7/1/49
f 5/1/47 73/2/42 6/1/48
f 4/1/46 74/2/42 5/1/47
f 4/1/46 76/2/42 75/2/42
f 10/1/52 72/2/42 1/1/44
f 3/1/45 78/2/42 76/2/42
f 9/1/51 77/2/42 10/1/52
f 2/1/43 72/2/42 78/2/42
f 9/1/51 80/2/42 79/2/42
f 8/1/50 71/2/42 80/2/42
f 13/1/14 90/36/41 81/36/41
f 14/1/12 89/36/41 90/36/41
f 16/1/8 89/36/41 15/1/10
f 17/1/6 88/36/41 16/1/8
f 17/1/6 86/36/41 87/36/41
f 11/1/18 83/36/41 20/1/20
f 18/1/4 84/36/41 86/36/41
f 12/1/16 85/36/41 11/1/18
f 19/1/2 83/36/41 84/36/41
f 12/1/16 81/36/41 82/36/41
f 81/36/41 100/3/41 91/3/41
f 90/36/41 99/3/41 100/3/41
f 89/36/41 98/3/41 99/3/41
f 87/36/41 98/3/41 88/36/41
f 86/36/41 97/3/41 87/36/41
f 83/36/41 95/3/41 92/3/41
f 86/36/41 94/3/41 96/3/41
f 82/36/41 95/3/41 85/36/41
f 84/36/41 92/3/41 94/3/41
f 81/36/41 93/3/41 82/36/41
f 60/1/1 20/2/20 19/2/2
f 59/1/3 19/2/2 18/2/4
f 58/1/5 18/2/4 17/2/6
f 57/1/7 17/2/6 16/2/8
f 56/1/9 16/2/8 15/2/10
f 55/1/11 15/2/10 14/2/12
f 54/1/13 14/2/12 13/2/14
f 53/1/15 13/2/14 12/2/16
f 52/1/17 12/2/16 11/2/18
f 51/1/19 11/2/18 20/2/20
f 22/1/21 23/2/40 24/2/22
f 26/1/24 22/2/21 21/2/23
f 28/1/26 26/2/24 25/2/25
f 30/1/28 28/2/26 27/2/27
f 32/1/30 30/2/28 29/2/29
f 34/1/32 32/2/30 31/2/31
f 36/1/34 34/2/32 33/2/33
f 38/1/36 36/2/34 35/2/35
f 40/1/38 38/2/36 37/2/37
f 23/1/40 40/2/38 39/2/39
f 91/3/41 36/2/34 38/2/36
f 61/1/42 31/2/31 29/2/29
f 94/3/41 92/3/41 23/2/40
f 93/3/41 38/2/36 40/2/38
f 61/1/42 63/1/42 33/2/33
f 94/3/41 22/2/21 26/2/24
f 92/3/41 95/3/41 40/2/38
f 63/1/42 64/1/42 35/2/35
f 96/3/41 26/2/24 28/2/26
f 64/1/42 65/1/42 37/2/37
f 97/3/41 28/2/26 30/2/28
f 67/1/42 66/1/42 21/2/23
f 65/1/42 68/1/42 39/2/39
f 99/3/41 98/3/41 30/2/28
f 66/1/42 69/1/42 25/2/25
f 67/1/42 24/2/22 39/2/39
f 100/3/41 99/3/41 32/2/30
f 69/1/42 70/1/42 27/2/27
f 100/3/41 34/2/32 36/2/34
f 70/1/42 62/1/42 29/2/29
f 2/4/43 42/8/19 41/5/1
f 3/7/45 43/10/17 42/8/19
f 4/9/46 44/12/15 43/10/17
f 5/11/47 45/14/13 44/12/15
f 6/13/48 46/16/11 45/14/13
f 7/15/49 47/18/9 46/16/11
f 8/17/50 48/20/7 47/18/9
f 9/19/51 49/22/5 48/20/7
f 10/21/52 50/24/3 49/22/5
f 1/23/44 41/34/1 50/24/3
f 42/8/19 51/26/19 60/25/1
f 43/10/17 52/28/17 51/26/19
f 43/10/17 44/12/15 53/27/15
f 45/14/13 54/29/13 53/27/15
f 46/16/11 55/30/11 54/29/13
f 47/18/9 56/31/9 55/30/11
f 48/20/7 57/32/7 56/31/9
f 49/22/5 58/33/5 57/32/7
f 50/24/3 59/35/3 58/33/5
f 41/34/1 60/37/1 59/35/3
f 80/1/42 71/1/42 62/2/42
f 79/1/42 80/1/42 70/2/42
f 72/1/42 67/2/42 68/2/42
f 79/1/42 69/2/42 66/2/42
f 76/1/42 78/1/42 68/2/42
f 77/1/42 66/2/42 67/2/42
f 75/1/42 76/1/42 65/2/42
f 75/1/42 64/2/42 63/2/42
f 74/1/42 63/2/42 61/2/42
f 71/1/42 73/1/42 61/2/42
f 6/1/48 73/2/42 71/2/42
f 5/1/47 74/2/42 73/2/42
f 4/1/46 75/2/42 74/2/42
f 4/1/46 3/1/45 76/2/42
f 10/1/52 77/2/42 72/2/42
f 3/1/45 2/1/43 78/2/42
f 9/1/51 79/2/42 77/2/42
f 2/1/43 1/1/44 72/2/42
f 9/1/51 8/1/50 80/2/42
f 8/1/50 7/1/49 71/2/42
f 13/1/14 14/1/12 90/36/41
f 14/1/12 15/1/10 89/36/41
f 16/1/8 88/36/41 89/36/41
f 17/1/6 87/36/41 88/36/41
f 17/1/6 18/1/4 86/36/41
f 11/1/18 85/36/41 83/36/41
f 18/1/4 19/1/2 84/36/41
f 12/1/16 82/36/41 85/36/41
f 19/1/2 20/1/20 83/36/41
f 12/1/16 13/1/14 81/36/41
f 81/36/41 90/36/41 100/3/41
f 90/36/41 89/36/41 99/3/41
f 89/36/41 88/36/41 98/3/41
f 87/36/41 97/3/41 98/3/41
f 86/36/41 96/3/41 97/3/41
f 83/36/41 85/36/41 95/3/41
f 86/36/41 84/36/41 94/3/41
f 82/36/41 93/3/41 95/3/41
f 84/36/41 83/36/41 92/3/41
f 81/36/41 91/3/41 93/3/41
