# Blender 4.1.0
# www.blender.org
mtllib ToasterLever_18_ToasterLever_18_1_GeomSubset_5.mtl
o ToasterLever_18_ToasterLever_18_1_GeomSubset_5
v 0.002036 -0.215384 0.057871
v 0.002036 -0.211313 0.057871
v -0.002036 -0.215384 0.057871
v -0.002036 -0.211313 0.057871
v 0.002036 -0.215384 0.057871
v 0.002036 -0.211313 0.057871
v -0.002036 -0.215384 0.057871
v -0.002036 -0.211313 0.057871
v 0.002036 -0.215384 0.057871
v 0.002036 -0.211313 0.057871
v -0.002036 -0.215384 0.057871
v -0.002036 -0.211313 0.057871
v 0.002036 -0.215384 0.057871
v 0.002036 -0.211313 0.057871
v -0.002036 -0.215384 0.057871
v -0.002036 -0.211313 0.057871
v 0.002036 -0.215384 0.057871
v 0.002036 -0.211313 0.057871
v -0.002036 -0.215384 0.057871
v -0.002036 -0.211313 0.057871
v 0.002036 -0.215384 0.057871
v 0.002036 -0.211313 0.057871
v -0.002036 -0.215384 0.057871
v -0.002036 -0.211313 0.057871
v 0.010317 -0.226700 0.054400
v 0.010317 -0.224550 0.053452
v 0.012466 -0.224550 0.054400
v 0.013357 -0.224550 0.056265
v 0.012466 -0.226700 0.056265
v 0.010317 -0.227590 0.056265
v 0.010317 -0.201767 0.054400
v 0.010317 -0.200877 0.056265
v 0.012466 -0.201767 0.056265
v 0.013357 -0.203916 0.056265
v 0.012466 -0.203916 0.054400
v 0.010317 -0.203916 0.053452
v -0.012466 -0.226700 0.056265
v -0.010317 -0.227590 0.056265
v -0.013357 -0.224550 0.056265
v -0.012466 -0.201767 0.056265
v -0.013357 -0.203916 0.056265
v -0.010317 -0.200877 0.056265
v -0.010317 -0.226700 0.054400
v -0.012466 -0.224550 0.054400
v -0.010317 -0.224550 0.053452
v -0.010317 -0.201767 0.054400
v -0.010317 -0.203916 0.053452
v -0.012466 -0.203916 0.054400
v 0.012071 -0.226305 0.054821
v 0.012071 -0.202162 0.054821
v -0.012071 -0.226305 0.054821
v -0.012071 -0.202162 0.054821
v 0.003163 -0.202107 0.055938
v 0.003163 -0.186461 0.055938
v 0.003163 -0.202107 0.059852
v 0.003163 -0.186461 0.059852
v -0.003163 -0.202107 0.059852
v -0.003163 -0.186461 0.059852
v -0.003163 -0.202107 0.055938
v -0.003163 -0.186461 0.055938
v 0.010317 -0.227590 0.059893
v 0.010317 -0.226700 0.061758
v -0.010317 -0.226700 0.061758
v -0.010317 -0.227590 0.059893
v 0.010317 -0.224550 0.062706
v -0.010317 -0.224550 0.062706
v 0.012466 -0.224550 0.061758
v 0.012466 -0.203916 0.061758
v 0.010317 -0.203916 0.062706
v 0.013357 -0.224550 0.059893
v 0.013357 -0.203916 0.059893
v 0.010317 -0.201767 0.061758
v -0.010317 -0.201767 0.061758
v -0.010317 -0.203916 0.062706
v 0.010317 -0.200877 0.059893
v -0.010317 -0.200877 0.059893
v -0.013357 -0.224550 0.059893
v -0.012466 -0.224550 0.061758
v -0.012466 -0.203916 0.061758
v -0.013357 -0.203916 0.059893
v 0.012071 -0.226305 0.061337
v 0.012466 -0.226700 0.059893
v 0.012466 -0.201767 0.059893
v 0.012071 -0.202162 0.061337
v -0.012466 -0.226700 0.059893
v -0.012071 -0.226305 0.061337
v -0.012466 -0.201767 0.059893
v -0.012071 -0.202162 0.061337
v 0.000000 -0.226700 0.061758
v 0.000000 -0.227590 0.059893
v 0.000000 -0.227590 0.056265
v 0.000000 -0.226700 0.054400
v 0.000000 -0.224550 0.053452
v 0.000000 -0.203916 0.053452
v 0.000000 -0.201767 0.054400
v 0.000000 -0.200877 0.056265
v 0.000000 -0.200877 0.059893
v 0.000000 -0.201767 0.061758
v 0.000000 -0.203916 0.062706
v 0.000000 -0.224550 0.062706
vn -0.8472 -0.0000 0.5313
vn -0.0000 -0.8472 0.5313
vn 0.8472 -0.0000 0.5313
vn -0.0000 0.8472 0.5313
vt -88.303970 -18.597717
vt -87.512978 -18.597717
vt -87.512978 -17.806725
vt -88.303970 -17.806725
s 1
usemtl M_ToasterLever_18_5
f 21/1/1 22/2/2 24/3/3 23/4/4
