# Blender 4.1.0
# www.blender.org
mtllib FridgeDrawer2_12_FridgeDrawer2B6_2_GeomSubset_4.mtl
o FridgeDrawer2_12_FridgeDrawer2B6_2_GeomSubset_4
v -0.016557 0.067322 -0.895309
v -0.016547 0.067322 -0.895309
v -0.016557 0.067332 -0.895309
v -0.016547 0.067332 -0.895309
v -0.016557 0.067322 -0.895309
v -0.016547 0.067322 -0.895309
v -0.016557 0.067332 -0.895309
v -0.016547 0.067332 -0.895309
v -0.016557 0.067322 -0.895309
v -0.016547 0.067322 -0.895309
v -0.016557 0.067332 -0.895309
v -0.016547 0.067332 -0.895309
v -0.016557 0.067322 -0.895309
v -0.016547 0.067322 -0.895309
v -0.016557 0.067332 -0.895309
v -0.016547 0.067332 -0.895309
v -0.016557 0.067322 -0.895309
v -0.016547 0.067322 -0.895309
v -0.016557 0.067332 -0.895309
v -0.016547 0.067332 -0.895309
v -0.016557 0.067322 -0.895309
v -0.016547 0.067322 -0.895309
v -0.016557 0.067332 -0.895309
v -0.016547 0.067332 -0.895309
v -0.016557 0.067322 -0.895309
v -0.016547 0.067322 -0.895309
v -0.016557 0.067332 -0.895309
v -0.016547 0.067332 -0.895309
v 0.015783 0.241071 -0.586503
v 0.329976 0.241071 -0.586503
v 0.015783 0.169903 -0.691903
v 0.015783 0.164839 -0.694555
v 0.329976 0.164839 -0.694555
v 0.329976 0.169903 -0.691903
v 0.015783 0.241071 -0.579273
v 0.015783 0.169903 -0.579273
v 0.015783 0.164839 -0.579273
v 0.015783 -0.185944 -0.579273
v 0.329976 0.169903 -0.579273
v 0.329976 0.241071 -0.579273
v 0.329976 0.164839 -0.579273
v 0.329976 -0.185944 -0.579273
v 0.329976 -0.148240 -0.694555
v 0.329976 -0.169158 -0.674303
v 0.015783 -0.169158 -0.674303
v 0.015783 -0.148240 -0.694555
v 0.015783 -0.167565 -0.682053
v 0.329976 -0.167565 -0.682053
v 0.015783 -0.163031 -0.688624
v 0.329976 -0.163031 -0.688624
v 0.015783 -0.156245 -0.693014
v 0.329976 -0.156245 -0.693014
v 0.322344 0.165156 -0.686908
v 0.023415 0.165156 -0.686908
v 0.325222 -0.160300 -0.672717
v 0.322460 -0.178924 -0.578111
v 0.023300 -0.178924 -0.578111
v 0.020537 -0.160300 -0.672717
v 0.322344 0.163118 -0.687976
v 0.023415 0.163118 -0.687976
v 0.026413 0.169903 -0.579273
v 0.023300 0.233949 -0.579273
v 0.026413 0.164839 -0.579273
v 0.325148 -0.159276 -0.678729
v 0.325148 -0.156686 -0.682481
v 0.325148 -0.152811 -0.684988
v 0.325204 -0.147358 -0.685884
v 0.319346 0.164839 -0.579273
v 0.322460 0.233949 -0.579273
v 0.319346 0.169903 -0.579273
v 0.020555 -0.147358 -0.685884
v 0.020611 -0.152811 -0.684988
v 0.020611 -0.156686 -0.682481
v 0.020611 -0.159276 -0.678729
v 0.025805 0.164489 -0.601330
v 0.022622 -0.174353 -0.601330
v 0.319955 0.164489 -0.601330
v 0.319961 0.168930 -0.601330
v 0.324603 0.221189 -0.601330
v 0.323138 -0.174353 -0.601330
v 0.025799 0.168930 -0.601330
v 0.021157 0.221189 -0.601330
v 0.015783 0.231059 -0.601330
v 0.329976 0.231059 -0.601330
v 0.329976 -0.182048 -0.601330
v 0.015783 -0.182048 -0.601330
v 0.015783 0.169903 -0.601330
v 0.015783 0.164839 -0.601330
v 0.329976 0.164839 -0.601330
v 0.329976 0.169903 -0.601330
v 0.015783 -0.200147 -0.579273
v 0.329976 -0.200147 -0.579273
v 0.329976 -0.196251 -0.601330
v 0.015783 -0.196251 -0.601330
vn -0.0000 -0.0000 1.0000
vn -0.0000 0.3421 0.9397
vn -0.0000 0.0095 1.0000
vn 0.0008 0.0095 1.0000
vn -0.0000 0.6955 0.7185
vn -0.0000 0.9381 0.3463
vn -0.0000 0.9816 0.1911
vn -0.0000 0.9816 0.1912
vn -0.0000 0.0032 1.0000
vn -0.0000 -0.8307 0.5567
vn -0.0001 0.8152 -0.5792
vn -0.0000 0.0085 -1.0000
vn 0.0001 0.0085 -1.0000
vn -0.0000 0.8152 -0.5792
vn -0.0000 -0.0048 -1.0000
vn -0.0000 -0.9843 -0.1766
vn -0.0000 -0.9193 -0.3936
vn -0.0000 -0.6956 -0.7185
vn -0.0000 -0.3720 -0.9282
vn 0.9996 -0.0095 -0.0279
vn 0.9996 -0.0096 -0.0279
vn 0.9996 -0.0097 -0.0275
vn 0.9996 -0.0096 -0.0275
vn -0.9996 -0.0095 -0.0279
vn -0.9962 0.0734 -0.0476
vn -0.9976 0.0615 -0.0304
vn -0.9996 -0.0096 -0.0275
vn -0.9953 0.0764 -0.0596
vn -0.9996 -0.0097 -0.0275
vn -0.9996 -0.0096 -0.0279
vn 0.9976 0.0615 -0.0304
vn 0.9962 0.0734 -0.0476
vn 0.9953 0.0764 -0.0596
vn -0.0000 0.9812 0.1931
vn -0.0000 -0.8424 0.5388
vn -0.0000 0.8288 -0.5596
vn -0.0000 -0.9848 -0.1739
vn -1.0000 -0.0000 -0.0000
vn 1.0000 -0.0000 -0.0000
vt -68.996941 -112.291985
vt -68.996941 -112.292000
vt -68.996925 -112.292000
vt -68.996925 -112.291985
vt -69.002632 -112.291985
vt -69.002632 -112.292000
vt -69.002617 -112.292000
vt -69.002617 -112.291985
vt -69.008324 -112.291985
vt -69.008324 -112.292000
vt -69.008308 -112.292000
vt -69.008308 -112.291985
vt -70.857170 -0.401378
vt -70.857025 -0.387039
vt -71.658089 -0.387039
vt -71.657944 -0.401378
vt -70.857170 -0.411568
vt -71.657944 -0.411568
vt -70.857170 -0.418377
vt -71.657944 -0.418377
vt -71.533401 -0.346887
vt -71.518387 -0.346703
vt -71.518387 0.413847
vt -71.533401 0.414031
vt -71.650566 0.429345
vt -70.864548 0.429345
vt -70.864548 0.434704
vt -71.650566 0.434704
vt -71.122070 -0.782138
vt -71.122070 -0.768791
vt -71.950142 -0.768791
vt -71.950142 -0.782138
vt -71.122070 0.056338
vt -71.950142 0.056338
vt -71.589989 -0.352161
vt -71.589989 0.431415
vt -71.609314 0.431415
vt -71.609314 -0.352161
vt -71.122070 0.107272
vt -71.950142 0.107272
vt -71.950142 0.095321
vt -71.122070 0.095321
vt -71.950142 0.077436
vt -71.122070 0.077436
vt -71.166176 -0.769152
vt -71.166176 0.069517
vt -71.342865 0.034733
vt -71.357750 0.032199
vt -71.367035 0.025790
vt -71.373238 0.016198
vt -71.375458 0.002700
vt -71.380630 -0.765758
vt -71.048943 -0.070820
vt -71.048943 -0.059828
vt -71.260757 -0.069170
vt -71.263397 -0.074214
vt -71.048943 0.069518
vt -71.258224 -0.842673
vt -71.256004 -0.856170
vt -71.249802 -0.865762
vt -71.240509 -0.872171
vt -71.225632 -0.874706
vt -71.048943 -0.909490
vt -71.377991 -0.770802
vt -71.166176 -0.780144
vt -71.166176 -0.909489
vt -71.711685 0.408826
vt -71.711685 -0.341682
vt -70.858604 0.582041
vt -71.656509 0.582041
vt -71.122070 -0.943318
vt -71.950142 -0.943318
vt -71.407997 0.431415
vt -71.407997 -0.352161
vt -71.810577 -0.049055
vt -71.810577 0.102260
vt -72.034676 -0.049055
vt -71.810577 -0.061585
vt -72.041237 -0.061585
vt -71.685944 -0.756013
vt -71.685944 0.102258
vt -71.866501 0.070365
vt -71.885674 0.066426
vt -71.901932 0.055206
vt -71.912796 0.038415
vt -71.916603 0.018609
vt -71.916603 -0.756013
vt -71.685944 -0.919858
vt -71.685944 -0.768544
vt -71.910042 -0.768544
vt -72.041237 -0.836211
vt -72.037422 -0.856017
vt -72.026558 -0.872808
vt -72.010300 -0.884027
vt -71.991127 -0.887967
vt -71.810577 -0.919860
s 1
usemtl M_FridgeDrawer2B6_4
f 17/1/1 18/2/1 20/3/1 19/4/1
f 21/5/1 22/6/1 24/7/1 23/8/1
f 25/9/1 26/10/1 28/11/1 27/12/1
f 66/13/2 67/14/3 71/15/4 72/16/2
f 65/17/5 66/13/2 72/16/2 73/18/5
f 64/19/6 65/17/5 73/18/5 74/20/6
f 55/21/7 64/22/6 74/23/6 58/24/8
f 60/25/9 71/15/4 67/14/3 59/26/9
f 53/27/10 54/28/10 60/25/9 59/26/9
f 34/29/11 33/30/12 32/31/13 31/32/14
f 32/31/13 33/30/12 43/33/15 46/34/15
f 44/35/16 45/36/16 47/37/17 48/38/17
f 48/39/17 47/40/17 49/41/18 50/42/18
f 50/42/18 49/41/18 51/43/19 52/44/19
f 52/44/19 51/43/19 46/34/15 43/33/15
f 75/45/20 76/46/21 58/47/22 74/48/22 73/49/22 72/50/22 71/51/22 60/52/23
f 77/53/24 78/54/25 53/55/26 59/56/27
f 78/54/25 79/57/28 53/55/26
f 77/53/24 59/56/27 67/58/29 66/59/29 65/60/29 64/61/29 55/62/29 80/63/30
f 75/45/20 60/52/23 54/64/31 81/65/32
f 81/65/32 54/64/31 82/66/33
f 55/21/7 58/24/8 76/67/34 80/68/34
f 79/69/35 82/70/35 54/28/10 53/27/10
f 84/71/36 34/29/11 31/32/14 83/72/36
f 86/73/37 45/36/16 44/35/16 85/74/37
f 87/75/38 83/76/38 31/77/38
f 88/78/38 87/75/38 31/77/38 32/79/38
f 89/80/39 85/81/39 44/82/39 48/83/39 50/84/39 52/85/39 43/86/39 33/87/39
f 84/88/39 90/89/39 34/90/39
f 89/80/39 33/87/39 34/90/39 90/89/39
f 88/78/38 32/79/38 46/91/38 51/92/38 49/93/38 47/94/38 45/95/38 86/96/38
