# Blender 4.1.1
# www.blender.org
mtllib FridgeDrawer4_13_FridgeDrawer4C1_6_GeomSubset_4.mtl
o FridgeDrawer4_13_FridgeDrawer4C1_6_GeomSubset_4
v -0.000164 0.030013 -0.999793
v -0.000173 0.030013 -0.999793
v -0.000164 0.030023 -0.999793
v -0.000173 0.030023 -0.999793
v -0.000164 0.030013 -0.999793
v -0.000173 0.030013 -0.999793
v -0.000164 0.030023 -0.999793
v -0.000173 0.030023 -0.999793
v -0.000164 0.030013 -0.999793
v -0.000173 0.030013 -0.999793
v -0.000164 0.030023 -0.999793
v -0.000173 0.030023 -0.999793
v -0.000164 0.030013 -0.999793
v -0.000173 0.030013 -0.999793
v -0.000164 0.030023 -0.999793
v -0.000173 0.030023 -0.999793
v -0.000164 0.030013 -0.999793
v -0.000173 0.030013 -0.999793
v -0.000164 0.030023 -0.999793
v -0.000173 0.030023 -0.999793
v -0.000164 0.030013 -0.999793
v -0.000173 0.030013 -0.999793
v -0.000164 0.030023 -0.999793
v -0.000173 0.030023 -0.999793
v -0.000164 0.030013 -0.999793
v -0.000173 0.030013 -0.999793
v -0.000164 0.030023 -0.999793
v -0.000173 0.030023 -0.999793
v -0.029650 0.153942 0.057857
v -0.475283 0.153942 0.057857
v -0.029650 0.079972 -0.055296
v -0.029650 0.074708 -0.058145
v -0.475283 0.074708 -0.058145
v -0.475283 0.079972 -0.055296
v -0.029650 0.153942 0.065618
v -0.029650 0.079972 0.065618
v -0.029650 0.074708 0.065618
v -0.029650 -0.193793 0.065618
v -0.475283 0.079972 0.065618
v -0.475283 0.153942 0.065618
v -0.475283 0.074708 0.065618
v -0.475283 -0.193793 0.065618
v -0.475283 -0.154604 -0.058145
v -0.475283 -0.176346 -0.036402
v -0.029650 -0.176346 -0.036402
v -0.029650 -0.154604 -0.058145
v -0.029650 -0.174691 -0.044722
v -0.475283 -0.174691 -0.044722
v -0.029650 -0.169978 -0.051776
v -0.475283 -0.169978 -0.051776
v -0.029650 -0.162924 -0.056490
v -0.475283 -0.162924 -0.056490
v -0.034492 0.145047 0.060506
v -0.470441 0.145047 0.060506
v -0.467767 0.075038 -0.049934
v -0.037166 0.075038 -0.049934
v -0.470601 -0.167139 -0.034700
v -0.467881 -0.186497 0.066866
v -0.037052 -0.186497 0.066866
v -0.034332 -0.167139 -0.034700
v -0.467767 0.072920 -0.051080
v -0.037166 0.072920 -0.051080
v -0.040118 0.079972 0.065618
v -0.037052 0.146540 0.065618
v -0.040118 0.074708 0.065618
v -0.470528 -0.166075 -0.041154
v -0.470528 -0.163383 -0.045181
v -0.470528 -0.159355 -0.047873
v -0.470583 -0.153687 -0.048836
v -0.464815 0.074708 0.065618
v -0.467881 0.146540 0.065618
v -0.464815 0.079972 0.065618
v -0.034350 -0.153687 -0.048836
v -0.034405 -0.159355 -0.047873
v -0.034405 -0.163383 -0.045181
v -0.034405 -0.166075 -0.041154
v -0.039519 0.074345 0.041939
v -0.036385 -0.181746 0.041939
v -0.465414 0.074345 0.041939
v -0.465420 0.078961 0.041939
v -0.469991 0.133277 0.041939
v -0.468548 -0.181746 0.041939
v -0.039513 0.078961 0.041939
v -0.034942 0.133277 0.041939
v -0.029650 0.143536 0.041939
v -0.475283 0.143536 0.041939
v -0.475283 -0.189744 0.041939
v -0.029650 -0.189744 0.041939
v -0.029650 0.079972 0.041939
v -0.029650 0.074708 0.041939
v -0.475283 0.074708 0.041939
v -0.475283 0.079972 0.041939
v -0.029650 -0.208556 0.065618
v -0.475283 -0.208556 0.065618
v -0.475283 -0.204506 0.041939
v -0.029650 -0.204506 0.041939
vn -0.0000 -0.0000 -1.0000
vn -0.0000 -0.3893 -0.9211
vn -0.0000 -0.1689 -0.9856
vn -0.0008 -0.1689 -0.9856
vn -0.0000 -0.7071 -0.7071
vn -0.0000 -0.9155 -0.4023
vn -0.0000 -0.9864 -0.1646
vn -0.0000 0.5210 -0.8535
vn -0.0000 0.4358 -0.9000
vn -0.0000 -0.5331 0.8461
vn -0.0000 -0.4248 0.9053
vn 0.0001 -0.4248 0.9053
vn -0.0000 0.1811 0.9835
vn -0.0000 0.9813 0.1924
vn -0.0000 0.9239 0.3827
vn -0.0000 0.7071 0.7071
vn -0.0000 0.3827 0.9239
vn 0.9997 -0.0029 0.0260
vn 0.9996 0.0125 0.0264
vn 0.9996 0.0128 0.0257
vn 0.9997 -0.0014 0.0256
vn -0.9997 -0.0029 0.0259
vn -0.9993 -0.0106 0.0354
vn -0.9996 0.0154 0.0246
vn -0.9997 -0.0014 0.0256
vn -0.9940 -0.0801 0.0747
vn -0.9996 0.0128 0.0257
vn -0.9996 0.0122 0.0269
vn 0.9996 0.0154 0.0246
vn 0.9993 -0.0106 0.0353
vn 0.9940 -0.0801 0.0747
vn -0.0000 -0.9823 -0.1872
vn -0.0000 0.8446 -0.5354
vn -0.0000 -0.8370 0.5472
vn -0.0000 0.9857 0.1686
vn -1.0000 -0.0000 -0.0000
vn 1.0000 -0.0000 -0.0000
vt -68.811325 -112.256363
vt -68.811317 -112.256363
vt -68.811317 -112.256348
vt -68.811325 -112.256348
vt -71.579735 -1.008741
vt -71.564072 -1.008893
vt -71.564072 0.196623
vt -71.579735 0.196471
vt -71.590866 -1.008741
vt -71.590866 0.196471
vt -71.598305 -1.008741
vt -71.598305 0.196471
vt -71.335548 -0.965952
vt -71.318985 -0.965765
vt -71.318985 0.153539
vt -71.335548 0.153725
vt -70.937843 0.188839
vt -70.937843 -1.001110
vt -70.931992 -1.001110
vt -70.931992 0.188839
vt -72.055740 -1.017343
vt -72.041168 -1.017343
vt -72.041168 0.216529
vt -72.055740 0.216529
vt -71.406242 -1.017343
vt -71.406242 0.216529
vt -71.626213 -0.971518
vt -71.626213 0.170704
vt -71.647545 0.170704
vt -71.647545 -0.971518
vt -71.350632 -1.017343
vt -71.350632 0.216529
vt -71.363678 0.216529
vt -71.363678 -1.017343
vt -71.383209 0.216529
vt -71.383209 -1.017343
vt -71.183678 -0.195191
vt -71.183678 0.456586
vt -71.378731 0.419411
vt -71.395157 0.416701
vt -71.405411 0.409851
vt -71.412262 0.399600
vt -71.414711 0.385174
vt -71.420425 -0.191563
vt -71.303192 0.306642
vt -71.303192 0.318389
vt -71.537025 0.308405
vt -71.539940 0.303014
vt -71.303192 0.456629
vt -71.534225 -0.273723
vt -71.531776 -0.288149
vt -71.524925 -0.298400
vt -71.514671 -0.305250
vt -71.498253 -0.307959
vt -71.303192 -0.345135
vt -71.417511 -0.196954
vt -71.183678 -0.206938
vt -71.183678 -0.345179
vt -71.532242 0.148457
vt -71.532242 -0.960684
vt -70.771049 -1.007257
vt -70.771049 0.194987
vt -72.231743 -1.017343
vt -72.231743 0.216529
vt -71.425415 0.170704
vt -71.425415 -0.971518
vt -70.922791 0.329068
vt -70.922791 0.490784
vt -71.170174 0.329068
vt -70.922791 0.315676
vt -71.177422 0.315676
vt -71.050919 -0.182016
vt -71.050919 0.490784
vt -71.250229 0.456699
vt -71.271400 0.452488
vt -71.289345 0.440498
vt -71.301331 0.422553
vt -71.305542 0.401385
vt -71.305542 -0.182016
vt -71.050919 -0.357124
vt -71.050919 -0.195408
vt -71.298302 -0.195408
vt -71.177422 -0.267725
vt -71.173210 -0.288892
vt -71.161217 -0.306838
vt -71.143272 -0.318828
vt -71.122101 -0.323039
vt -70.922791 -0.357124
s 1
usemtl M_FridgeDrawer4C1_4
f 17/1/1 18/2/1 20/3/1 19/4/1
f 68/5/2 69/6/3 73/7/4 74/8/2
f 67/9/5 68/5/2 74/8/2 75/10/5
f 66/11/6 67/9/5 75/10/5 76/12/6
f 57/13/7 66/14/6 76/15/6 60/16/7
f 62/17/8 73/7/4 69/6/3 61/18/8
f 55/19/9 56/20/9 62/17/8 61/18/8
f 34/21/10 33/22/11 32/23/12 31/24/10
f 32/23/12 33/22/11 43/25/13 46/26/13
f 44/27/14 45/28/14 47/29/15 48/30/15
f 48/31/15 47/32/15 49/33/16 50/34/16
f 50/34/16 49/33/16 51/35/17 52/36/17
f 52/36/17 51/35/17 46/26/13 43/25/13
f 77/37/18 78/38/19 60/39/20 76/40/20 75/41/20 74/42/20 73/43/20 62/44/21
f 79/45/22 80/46/23 55/47/24 61/48/25
f 80/46/23 81/49/26 55/47/24
f 79/45/22 61/48/25 69/50/27 68/51/27 67/52/27 66/53/27 57/54/27 82/55/28
f 77/37/18 62/44/21 56/56/29 83/57/30
f 83/57/30 56/56/29 84/58/31
f 57/13/7 60/16/7 78/59/32 82/60/32
f 81/61/33 84/62/33 56/20/9 55/19/9
f 86/63/34 34/21/10 31/24/10 85/64/34
f 88/65/35 45/28/14 44/27/14 87/66/35
f 89/67/36 85/68/36 31/69/36
f 90/70/36 89/67/36 31/69/36 32/71/36
f 91/72/37 87/73/37 44/74/37 48/75/37 50/76/37 52/77/37 43/78/37 33/79/37
f 86/80/37 92/81/37 34/82/37
f 91/72/37 33/79/37 34/82/37 92/81/37
f 90/70/36 32/71/36 46/83/36 51/84/36 49/85/36 47/86/36 45/87/36 88/88/36
