# Blender 4.1.0
# www.blender.org
mtllib FridgeDrawer4_13_FridgeDrawer4C1_6_GeomSubset_4.mtl
o FridgeDrawer4_13_FridgeDrawer4C1_6_GeomSubset_4
v 0.000164 0.030013 -0.999793
v 0.000173 0.030013 -0.999793
v 0.000164 0.030023 -0.999793
v 0.000173 0.030023 -0.999793
v 0.000164 0.030013 -0.999793
v 0.000173 0.030013 -0.999793
v 0.000164 0.030023 -0.999793
v 0.000173 0.030023 -0.999793
v 0.000164 0.030013 -0.999793
v 0.000173 0.030013 -0.999793
v 0.000164 0.030023 -0.999793
v 0.000173 0.030023 -0.999793
v 0.000164 0.030013 -0.999793
v 0.000173 0.030013 -0.999793
v 0.000164 0.030023 -0.999793
v 0.000173 0.030023 -0.999793
v 0.000164 0.030013 -0.999793
v 0.000173 0.030013 -0.999793
v 0.000164 0.030023 -0.999793
v 0.000173 0.030023 -0.999793
v 0.000164 0.030013 -0.999793
v 0.000173 0.030013 -0.999793
v 0.000164 0.030023 -0.999793
v 0.000173 0.030023 -0.999793
v 0.000164 0.030013 -0.999793
v 0.000173 0.030013 -0.999793
v 0.000164 0.030023 -0.999793
v 0.000173 0.030023 -0.999793
v 0.029650 0.153942 0.057857
v 0.475283 0.153942 0.057857
v 0.029650 0.079972 -0.055296
v 0.029650 0.074708 -0.058145
v 0.475283 0.074708 -0.058145
v 0.475283 0.079972 -0.055296
v 0.029650 0.153942 0.065618
v 0.029650 0.079972 0.065618
v 0.029650 0.074708 0.065618
v 0.029650 -0.193793 0.065618
v 0.475283 0.079972 0.065618
v 0.475283 0.153942 0.065618
v 0.475283 0.074708 0.065618
v 0.475283 -0.193793 0.065618
v 0.475283 -0.154604 -0.058145
v 0.475283 -0.176346 -0.036402
v 0.029650 -0.176346 -0.036402
v 0.029650 -0.154604 -0.058145
v 0.029650 -0.174691 -0.044722
v 0.475283 -0.174691 -0.044722
v 0.029650 -0.169978 -0.051776
v 0.475283 -0.169978 -0.051776
v 0.029650 -0.162924 -0.056490
v 0.475283 -0.162924 -0.056490
v 0.034492 0.145047 0.060506
v 0.470441 0.145047 0.060506
v 0.467767 0.075038 -0.049935
v 0.037166 0.075038 -0.049935
v 0.470601 -0.167139 -0.034700
v 0.467881 -0.186497 0.066866
v 0.037052 -0.186497 0.066866
v 0.034332 -0.167139 -0.034700
v 0.467767 0.072920 -0.051080
v 0.037166 0.072920 -0.051080
v 0.040118 0.079972 0.065618
v 0.037052 0.146540 0.065618
v 0.040118 0.074708 0.065618
v 0.470528 -0.166075 -0.041153
v 0.470528 -0.163383 -0.045181
v 0.470528 -0.159355 -0.047873
v 0.470583 -0.153687 -0.048836
v 0.464815 0.074708 0.065618
v 0.467881 0.146540 0.065618
v 0.464815 0.079972 0.065618
v 0.034350 -0.153687 -0.048836
v 0.034405 -0.159355 -0.047873
v 0.034405 -0.163383 -0.045181
v 0.034405 -0.166075 -0.041153
v 0.039519 0.074345 0.041939
v 0.036385 -0.181746 0.041939
v 0.465414 0.074345 0.041939
v 0.465420 0.078961 0.041939
v 0.469991 0.133277 0.041939
v 0.468548 -0.181746 0.041939
v 0.039513 0.078961 0.041939
v 0.034942 0.133277 0.041939
v 0.029650 0.143536 0.041939
v 0.475283 0.143536 0.041939
v 0.475283 -0.189744 0.041939
v 0.029650 -0.189744 0.041939
v 0.029650 0.079972 0.041939
v 0.029650 0.074708 0.041939
v 0.475283 0.074708 0.041939
v 0.475283 0.079972 0.041939
v 0.029650 -0.208556 0.065618
v 0.475283 -0.208556 0.065618
v 0.475283 -0.204506 0.041939
v 0.029650 -0.204506 0.041939
vn -0.0000 -0.0000 1.0000
vn -0.0000 0.3521 0.9360
vn -0.0000 0.0138 0.9999
vn 0.0007 0.0138 0.9999
vn -0.0000 0.7071 0.7071
vn -0.0000 0.9416 0.3366
vn -0.0000 0.9827 0.1853
vn -0.0000 0.0047 1.0000
vn -0.0000 -0.8389 0.5443
vn -0.0000 0.8238 -0.5668
vn -0.0000 0.0123 -0.9999
vn -0.0000 -0.0070 -1.0000
vn -0.0000 -0.9853 -0.1711
vn -0.0000 -0.9239 -0.3827
vn -0.0000 -0.7071 -0.7071
vn -0.0000 -0.3827 -0.9239
vn 0.9996 -0.0124 -0.0260
vn 0.9996 -0.0125 -0.0264
vn 0.9996 -0.0128 -0.0257
vn 0.9996 -0.0127 -0.0257
vn -0.9996 -0.0124 -0.0260
vn -0.9961 0.0747 -0.0469
vn -0.9979 0.0577 -0.0279
vn -0.9996 -0.0126 -0.0257
vn -0.9949 0.0813 -0.0603
vn -0.9996 -0.0128 -0.0257
vn -0.9996 -0.0126 -0.0261
vn 0.9979 0.0577 -0.0279
vn 0.9961 0.0747 -0.0469
vn 0.9949 0.0813 -0.0603
vn -0.0000 0.9823 0.1872
vn -0.0000 -0.8446 0.5354
vn -0.0000 0.8370 -0.5472
vn -0.0000 -0.9857 -0.1686
vn -1.0000 -0.0000 -0.0000
vn 1.0000 -0.0000 -0.0000
vt -68.811325 -112.256363
vt -68.811317 -112.256363
vt -68.811317 -112.256348
vt -68.811325 -112.256348
vt -71.579735 -1.008741
vt -71.564072 -1.008893
vt -71.564072 0.196623
vt -71.579735 0.196471
vt -71.590866 -1.008741
vt -71.590866 0.196471
vt -71.598305 -1.008741
vt -71.598305 0.196471
vt -71.335548 -0.965952
vt -71.318985 -0.965765
vt -71.318985 0.153539
vt -71.335548 0.153725
vt -70.937843 0.188839
vt -70.937843 -1.001110
vt -70.931992 -1.001110
vt -70.931992 0.188839
vt -72.055740 -1.017343
vt -72.041168 -1.017343
vt -72.041168 0.216529
vt -72.055740 0.216529
vt -71.406242 -1.017343
vt -71.406242 0.216529
vt -71.626213 -0.971518
vt -71.626213 0.170704
vt -71.647545 0.170704
vt -71.647545 -0.971518
vt -71.350632 -1.017343
vt -71.350632 0.216529
vt -71.363678 0.216529
vt -71.363678 -1.017343
vt -71.383209 0.216529
vt -71.383209 -1.017343
vt -71.183678 -0.195191
vt -71.183678 0.456586
vt -71.378731 0.419411
vt -71.395157 0.416701
vt -71.405411 0.409851
vt -71.412262 0.399600
vt -71.414711 0.385174
vt -71.420425 -0.191563
vt -71.303192 0.306642
vt -71.303192 0.318389
vt -71.537025 0.308405
vt -71.539940 0.303014
vt -71.303192 0.456629
vt -71.534225 -0.273723
vt -71.531776 -0.288149
vt -71.524925 -0.298400
vt -71.514671 -0.305250
vt -71.498253 -0.307959
vt -71.303192 -0.345135
vt -71.417511 -0.196954
vt -71.183678 -0.206938
vt -71.183678 -0.345179
vt -71.532242 0.148457
vt -71.532242 -0.960684
vt -70.771049 -1.007257
vt -70.771049 0.194987
vt -72.231743 -1.017343
vt -72.231743 0.216529
vt -71.425415 0.170704
vt -71.425415 -0.971518
vt -70.922791 0.329068
vt -70.922791 0.490784
vt -71.170174 0.329068
vt -70.922791 0.315676
vt -71.177422 0.315676
vt -71.050919 -0.182016
vt -71.050919 0.490784
vt -71.250229 0.456699
vt -71.271400 0.452488
vt -71.289345 0.440498
vt -71.301331 0.422553
vt -71.305542 0.401385
vt -71.305542 -0.182016
vt -71.050919 -0.357124
vt -71.050919 -0.195408
vt -71.298302 -0.195408
vt -71.177422 -0.267725
vt -71.173210 -0.288892
vt -71.161217 -0.306838
vt -71.143272 -0.318828
vt -71.122101 -0.323039
vt -70.922791 -0.357124
s 1
usemtl M_FridgeDrawer4C1_4
f 17/1/1 18/2/1 20/3/1 19/4/1
f 68/5/2 69/6/3 73/7/4 74/8/2
f 67/9/5 68/5/2 74/8/2 75/10/5
f 66/11/6 67/9/5 75/10/5 76/12/6
f 57/13/7 66/14/6 76/15/6 60/16/7
f 62/17/8 73/7/4 69/6/3 61/18/8
f 55/19/9 56/20/9 62/17/8 61/18/8
f 34/21/10 33/22/11 32/23/11 31/24/10
f 32/23/11 33/22/11 43/25/12 46/26/12
f 44/27/13 45/28/13 47/29/14 48/30/14
f 48/31/14 47/32/14 49/33/15 50/34/15
f 50/34/15 49/33/15 51/35/16 52/36/16
f 52/36/16 51/35/16 46/26/12 43/25/12
f 77/37/17 78/38/18 60/39/19 76/40/19 75/41/19 74/42/19 73/43/19 62/44/20
f 79/45/21 80/46/22 55/47/23 61/48/24
f 80/46/22 81/49/25 55/47/23
f 79/45/21 61/48/24 69/50/26 68/51/26 67/52/26 66/53/26 57/54/26 82/55/27
f 77/37/17 62/44/20 56/56/28 83/57/29
f 83/57/29 56/56/28 84/58/30
f 57/13/7 60/16/7 78/59/31 82/60/31
f 81/61/32 84/62/32 56/20/9 55/19/9
f 86/63/33 34/21/10 31/24/10 85/64/33
f 88/65/34 45/28/13 44/27/13 87/66/34
f 89/67/35 85/68/35 31/69/35
f 90/70/35 89/67/35 31/69/35 32/71/35
f 91/72/36 87/73/36 44/74/36 48/75/36 50/76/36 52/77/36 43/78/36 33/79/36
f 86/80/36 92/81/36 34/82/36
f 91/72/36 33/79/36 34/82/36 92/81/36
f 90/70/35 32/71/35 46/83/35 51/84/35 49/85/35 47/86/35 45/87/35 88/88/35
