# Blender 4.1.0
# www.blender.org
mtllib DrawermeshCoffeeTableDrawer_203_5_5_GeomSubset_1.mtl
o DrawermeshCoffeeTableDrawer_203_5_5_GeomSubset_1
v 0.414785 0.342658 -0.063735
v 0.378088 0.342658 -0.063747
v 0.389467 0.342658 -0.070742
v 0.403411 0.342658 -0.070737
v 0.389470 0.342658 -0.079319
v 0.378096 0.342658 -0.086321
v 0.403413 0.342658 -0.079314
v 0.414793 0.342658 -0.086308
v 0.378089 0.341869 -0.063747
v 0.378096 0.341869 -0.086321
v 0.414785 0.341869 -0.063735
v 0.414793 0.341869 -0.086308
v 0.389470 0.370328 -0.079319
v 0.389467 0.370328 -0.070742
v 0.403411 0.370328 -0.070737
v 0.389467 0.374398 -0.070742
v 0.403411 0.374398 -0.070737
v -0.360703 0.370329 -0.071001
v -0.360703 0.374398 -0.071001
v -0.374646 0.370329 -0.071006
v -0.374646 0.374398 -0.071006
v -0.374646 0.342658 -0.071006
v -0.360703 0.342658 -0.071001
v 0.403414 0.370328 -0.079314
v 0.403413 0.374398 -0.079314
v 0.389470 0.374398 -0.079319
v -0.360700 0.374398 -0.079578
v -0.360700 0.370328 -0.079578
v -0.374643 0.374398 -0.079583
v -0.374643 0.370329 -0.079583
v -0.360700 0.342658 -0.079578
v -0.374643 0.342658 -0.079583
v -0.386026 0.342658 -0.064011
v -0.349329 0.342658 -0.063999
v -0.349321 0.342658 -0.086573
v -0.386017 0.342658 -0.086585
v -0.349320 0.341869 -0.086573
v -0.349328 0.341869 -0.063999
v -0.386017 0.341870 -0.086585
v -0.386025 0.341870 -0.064011
v 0.541076 0.337850 -0.006113
v 0.541076 0.329747 -0.006113
v -0.540746 0.329747 -0.006487
v -0.540746 0.337850 -0.006487
v 0.532693 0.325587 -0.144559
v 0.532693 0.033212 -0.144559
v 0.532649 0.033212 -0.018707
v 0.532649 0.325587 -0.018707
v -0.544905 0.337850 -0.010649
v -0.544905 0.329747 -0.010649
v -0.544856 0.329747 -0.153362
v -0.544856 0.337850 -0.153362
v -0.540696 0.342011 -0.153360
v 0.541126 0.342011 -0.152987
v 0.541077 0.342011 -0.010274
v -0.540745 0.342011 -0.010648
v -0.540694 0.337850 -0.157521
v -0.540694 0.329747 -0.157521
v 0.541128 0.329747 -0.157148
v 0.541128 0.337850 -0.157148
v 0.545287 0.337850 -0.152985
v 0.545287 0.329747 -0.152985
v 0.545238 0.329747 -0.010272
v 0.545238 0.337850 -0.010272
v -0.540696 0.325587 -0.153360
v 0.541126 0.325587 -0.152987
v 0.541077 0.325587 -0.010274
v -0.540745 0.325587 -0.010648
v -0.532268 0.325587 -0.144927
v -0.532311 0.325587 -0.019075
v -0.532268 0.033212 -0.144927
v -0.532311 0.033212 -0.019075
v 0.515165 0.050696 -0.018713
v 0.515206 0.050697 -0.137545
v 0.515206 0.308102 -0.137545
v 0.515165 0.308102 -0.018713
v -0.514827 0.308102 -0.019069
v -0.514828 0.050696 -0.019069
v -0.514787 0.050696 -0.137901
v -0.514786 0.308102 -0.137901
vn -0.0003 -0.0000 1.0000
vn 1.0000 -0.0000 0.0003
vn -1.0000 -0.0000 -0.0003
vn -0.0000 1.0000 -0.0000
vn 0.0003 -0.0000 -1.0000
vn -0.5776 0.5773 0.5772
vn 0.5771 0.5774 0.5775
vn 0.5776 0.5774 -0.5771
vn -0.5772 0.5773 -0.5776
vn -0.5771 -0.5774 -0.5775
vn 0.5776 -0.5775 -0.5770
vn 0.5771 -0.5770 0.5779
vn -0.5775 -0.5774 0.5771
vn -0.7072 0.7070 -0.0002
vn 0.7071 0.7071 0.0002
vn 0.0002 0.7071 -0.7071
vn -0.0002 0.7071 0.7071
vn 0.0002 -0.7072 -0.7070
vn 0.7070 -0.7072 0.0002
vn -0.0002 -0.7072 0.7070
vn -0.7071 -0.7071 -0.0002
vn -0.7068 -0.0000 -0.7074
vn -0.7069 -0.0000 -0.7074
vn -0.7074 -0.0000 0.7069
vn 0.7069 -0.0000 0.7074
vn 0.7071 -0.0000 -0.7071
vn 0.7074 -0.0000 -0.7068
vn -0.0000 -1.0000 -0.0000
vt 0.602568 0.651652
vt 0.607373 0.010059
vt 0.607373 0.651652
vt 0.602568 0.010059
vt 0.609841 0.589050
vt 0.783238 0.663688
vt 0.783238 0.589050
vt 0.609841 0.663688
vt 0.602568 0.668688
vt 0.607373 0.584050
vt 0.607373 0.668688
vt 0.602568 0.584050
vt 0.010059 0.584050
vt 0.651652 0.668688
vt 0.651652 0.584050
vt 0.010059 0.668688
vt 0.007591 0.668688
vt 0.010059 0.671156
vt 0.654119 0.668688
vt 0.651652 0.671156
vt 0.654119 0.584050
vt 0.651652 0.581582
vt 0.007591 0.584050
vt 0.010059 0.581582
vt 0.607373 0.007591
vt 0.602568 0.007591
vt 0.607373 0.654119
vt 0.602568 0.654119
vt 0.646652 0.589050
vt 0.015059 0.589050
vt 0.646652 0.663688
vt 0.015059 0.663688
vt 0.772869 0.663688
vt 0.620210 0.593213
vt 0.772869 0.593213
vt 0.620210 0.663688
vt 0.609841 0.015059
vt 0.783238 0.646652
vt 0.783238 0.015059
vt 0.609841 0.646652
vt 0.620210 0.025428
vt 0.620210 0.636282
vt 0.772869 0.636282
vt 0.772869 0.025428
vt 0.025428 0.663688
vt 0.636282 0.593213
vt 0.025428 0.593213
vt 0.636282 0.663688
s 1
usemtl M_CoffeeTableDrawer_203_5_1
f 41/1/1 43/2/1 42/3/1
f 41/1/1 44/4/1 43/2/1
f 45/5/2 47/6/2 46/7/2
f 45/5/2 48/8/2 47/6/2
f 49/9/3 51/10/3 50/11/3
f 49/9/3 52/12/3 51/10/3
f 53/13/4 55/14/4 54/15/4
f 53/13/4 56/16/4 55/14/4
f 57/4/5 59/3/5 58/2/5
f 57/4/5 60/1/5 59/3/5
f 61/12/2 63/11/2 62/10/2
f 61/12/2 64/9/2 63/11/2
f 49/17/6 44/18/6 56/16/6
f 64/19/7 55/14/7 41/20/7
f 61/21/8 60/22/8 54/15/8
f 52/23/9 53/13/9 57/24/9
f 58/24/10 65/13/10 51/23/10
f 59/22/11 62/21/11 66/15/11
f 63/19/12 42/20/12 67/14/12
f 43/18/13 50/17/13 68/16/13
f 52/23/14 56/16/14 53/13/14
f 52/23/14 49/17/14 56/16/14
f 64/19/15 54/15/15 55/14/15
f 64/19/15 61/21/15 54/15/15
f 53/13/16 60/22/16 57/24/16
f 53/13/16 54/15/16 60/22/16
f 44/18/17 55/14/17 56/16/17
f 44/18/17 41/20/17 55/14/17
f 58/24/18 66/15/18 65/13/18
f 58/24/18 59/22/18 66/15/18
f 67/14/19 62/21/19 63/19/19
f 67/14/19 66/15/19 62/21/19
f 68/16/20 42/20/20 43/18/20
f 68/16/20 67/14/20 42/20/20
f 65/13/21 50/17/21 51/23/21
f 65/13/21 68/16/21 50/17/21
f 57/4/22 51/25/23 52/26/22
f 57/4/22 58/2/23 51/25/23
f 43/2/24 49/26/24 50/25/24
f 43/2/24 44/4/24 49/26/24
f 41/1/25 63/27/25 64/28/25
f 41/1/25 42/3/25 63/27/25
f 59/3/26 61/28/26 62/27/27
f 59/3/26 60/1/27 61/28/26
f 45/29/28 65/13/28 66/15/28
f 45/29/28 69/30/28 65/13/28
f 48/31/28 45/29/28 66/15/28
f 48/31/28 66/15/28 67/14/28
f 70/32/28 48/31/28 67/14/28
f 70/32/28 67/14/28 68/16/28
f 69/30/28 68/16/28 65/13/28
f 69/30/28 70/32/28 68/16/28
f 71/30/28 47/31/28 72/32/28
f 71/30/28 46/29/28 47/31/28
f 70/8/3 71/7/3 72/6/3
f 70/8/3 69/5/3 71/7/3
f 73/33/3 75/34/3 74/35/3
f 73/33/3 76/36/3 75/34/3
f 69/37/5 46/38/5 71/39/5
f 69/37/5 45/40/5 46/38/5
f 77/41/1 48/40/1 70/37/1
f 77/41/1 76/42/1 48/40/1
f 76/42/1 47/38/1 48/40/1
f 76/42/1 73/43/1 47/38/1
f 73/43/1 72/39/1 47/38/1
f 73/43/1 78/44/1 72/39/1
f 78/44/1 70/37/1 72/39/1
f 78/44/1 77/41/1 70/37/1
f 75/42/1 79/44/1 74/43/1
f 75/42/1 80/41/1 79/44/1
f 77/36/2 79/35/2 80/34/2
f 77/36/2 78/33/2 79/35/2
f 78/45/4 74/46/4 79/47/4
f 78/45/4 73/48/4 74/46/4
f 76/48/28 80/47/28 75/46/28
f 76/48/28 77/45/28 80/47/28
