# Blender 4.1.0
# www.blender.org
mtllib DrawermeshCoffeeTableDrawer_203_2_2_GeomSubset_0.mtl
o DrawermeshCoffeeTableDrawer_203_2_2_GeomSubset_0
v 0.409943 -0.342969 -0.063735
v 0.398569 -0.342969 -0.070737
v 0.384625 -0.342969 -0.070742
v 0.373246 -0.342969 -0.063747
v 0.384628 -0.342969 -0.079319
v 0.373254 -0.342969 -0.086321
v 0.398571 -0.342969 -0.079314
v 0.409950 -0.342969 -0.086308
v 0.373254 -0.342180 -0.086321
v 0.373246 -0.342180 -0.063747
v 0.409950 -0.342180 -0.086308
v 0.409943 -0.342180 -0.063735
v 0.384625 -0.370639 -0.070742
v 0.384628 -0.370639 -0.079319
v 0.398569 -0.370639 -0.070737
v 0.398569 -0.374709 -0.070737
v 0.384625 -0.374708 -0.070742
v -0.365545 -0.370639 -0.071001
v -0.365545 -0.374708 -0.071001
v -0.379487 -0.370639 -0.071006
v -0.379487 -0.374708 -0.071006
v -0.379487 -0.342969 -0.071006
v -0.365545 -0.342969 -0.071001
v 0.398572 -0.370639 -0.079314
v 0.398571 -0.374709 -0.079314
v 0.384628 -0.374708 -0.079319
v -0.365542 -0.374708 -0.079578
v -0.365541 -0.370639 -0.079578
v -0.379485 -0.374708 -0.079583
v -0.379485 -0.370639 -0.079583
v -0.365542 -0.342969 -0.079578
v -0.379485 -0.342969 -0.079583
v -0.390868 -0.342969 -0.064011
v -0.354170 -0.342969 -0.063999
v -0.354163 -0.342969 -0.086572
v -0.390859 -0.342969 -0.086585
v -0.354170 -0.342180 -0.063999
v -0.354163 -0.342180 -0.086572
v -0.390868 -0.342180 -0.064011
v -0.390859 -0.342180 -0.086585
v 0.536286 -0.337850 -0.157147
v 0.536286 -0.329748 -0.157147
v -0.545536 -0.329748 -0.157521
v -0.545536 -0.337850 -0.157521
v -0.537110 -0.325587 -0.144927
v -0.537110 -0.033213 -0.144927
v -0.537153 -0.033213 -0.019075
v -0.537153 -0.325587 -0.019075
v 0.527851 -0.325587 -0.144559
v 0.527851 -0.033213 -0.144559
v 0.540396 -0.337850 -0.010272
v 0.540396 -0.329748 -0.010272
v 0.540445 -0.329748 -0.152985
v 0.540445 -0.337850 -0.152985
v -0.545588 -0.337850 -0.006487
v -0.545588 -0.329748 -0.006487
v 0.536234 -0.329748 -0.006113
v 0.536234 -0.337850 -0.006113
v -0.549698 -0.337850 -0.153362
v -0.549698 -0.329748 -0.153362
v -0.549747 -0.329748 -0.010649
v -0.549747 -0.337850 -0.010649
v 0.536285 -0.342011 -0.152987
v -0.545537 -0.342011 -0.153360
v -0.545587 -0.342011 -0.010648
v 0.536235 -0.342011 -0.010274
v 0.536285 -0.325587 -0.152987
v -0.545537 -0.325587 -0.153360
v -0.545587 -0.325587 -0.010648
v 0.536236 -0.325587 -0.010274
v 0.527807 -0.325587 -0.018707
v 0.527808 -0.033212 -0.018707
v 0.510323 -0.308103 -0.018713
v -0.519669 -0.308103 -0.019069
v -0.519669 -0.050697 -0.019069
v 0.510323 -0.050697 -0.018713
v -0.519628 -0.308103 -0.137901
v -0.519628 -0.050697 -0.137901
v 0.510364 -0.050697 -0.137545
v 0.510364 -0.308103 -0.137545
vn -0.0000 -1.0000 -0.0000
vn -1.0000 -0.0000 -0.0004
vn -0.0000 1.0000 -0.0000
vn 1.0000 -0.0000 0.0003
vn 0.0004 -0.0000 -1.0000
vn -0.0003 -0.0000 1.0000
vn -0.0004 -0.0000 1.0000
vn 1.0000 -0.0001 0.0003
vn 1.0000 -0.0000 0.0002
vn 1.0000 0.0003 0.0005
vn 0.0003 -0.0000 -1.0000
vn -0.0001 -1.0000 -0.0000
vn -1.0000 0.0001 -0.0004
vn -1.0000 0.0002 -0.0004
vn -1.0000 0.0002 -0.0005
vn 1.0000 -0.0000 0.0004
vn 1.0000 -0.0000 0.0005
vn -1.0000 -0.0000 -0.0002
vt 0.000000 0.000000
s 1
usemtl M_CoffeeTableDrawer_203_2_0
f 1/1/1 3/1/1 2/1/1
f 1/1/1 4/1/1 3/1/1
f 4/1/1 5/1/1 3/1/1
f 4/1/1 6/1/1 5/1/1
f 6/1/1 7/1/1 5/1/1
f 6/1/1 8/1/1 7/1/1
f 8/1/1 2/1/1 7/1/1
f 8/1/1 1/1/1 2/1/1
f 6/1/2 10/1/2 9/1/2
f 6/1/2 4/1/2 10/1/2
f 9/1/3 12/1/3 11/1/3
f 9/1/3 10/1/3 12/1/3
f 11/1/4 1/1/4 8/1/4
f 11/1/4 12/1/4 1/1/4
f 6/1/5 11/1/5 8/1/5
f 6/1/5 9/1/5 11/1/5
f 10/1/6 1/1/6 12/1/6
f 10/1/6 4/1/6 1/1/6
f 3/1/2 14/1/2 13/1/2
f 3/1/2 5/1/2 14/1/2
f 15/1/7 17/1/7 16/1/7
f 15/1/7 13/1/7 17/1/7
f 2/1/7 13/1/7 15/1/7
f 2/1/7 3/1/7 13/1/7
f 17/1/7 13/1/7 18/1/6
f 17/1/7 18/1/6 19/1/6
f 20/1/7 19/1/7 18/1/7
f 20/1/7 21/1/7 19/1/7
f 22/1/7 20/1/7 18/1/7
f 22/1/7 18/1/7 23/1/7
f 7/1/4 15/1/4 24/1/8
f 7/1/4 2/1/9 15/1/4
f 24/1/8 15/1/4 16/1/8
f 24/1/8 16/1/8 25/1/10
f 5/1/5 24/1/5 14/1/5
f 5/1/5 7/1/5 24/1/5
f 14/1/5 24/1/5 25/1/5
f 14/1/5 25/1/5 26/1/5
f 14/1/5 26/1/5 27/1/11
f 14/1/5 27/1/11 28/1/11
f 28/1/5 27/1/5 29/1/5
f 28/1/5 29/1/5 30/1/5
f 31/1/5 28/1/5 30/1/5
f 31/1/5 30/1/5 32/1/5
f 25/1/12 17/1/1 26/1/1
f 25/1/12 16/1/12 17/1/1
f 26/1/1 17/1/1 19/1/1
f 26/1/1 19/1/1 27/1/1
f 29/1/1 27/1/1 19/1/1
f 29/1/1 19/1/1 21/1/1
f 18/1/13 27/1/14 19/1/2
f 18/1/13 28/1/15 27/1/14
f 13/1/3 28/1/3 18/1/3
f 13/1/3 14/1/3 28/1/3
f 33/1/1 23/1/1 34/1/1
f 33/1/1 22/1/1 23/1/1
f 34/1/1 23/1/1 31/1/1
f 34/1/1 31/1/1 35/1/1
f 35/1/1 31/1/1 32/1/1
f 35/1/1 32/1/1 36/1/1
f 36/1/1 22/1/1 33/1/1
f 36/1/1 32/1/1 22/1/1
f 35/1/4 37/1/4 34/1/4
f 35/1/4 38/1/4 37/1/4
f 38/1/3 39/1/3 37/1/3
f 38/1/3 40/1/3 39/1/3
f 40/1/2 33/1/2 39/1/2
f 40/1/2 36/1/2 33/1/2
f 35/1/5 40/1/5 38/1/5
f 35/1/5 36/1/5 40/1/5
f 37/1/6 33/1/6 34/1/6
f 37/1/6 39/1/6 33/1/6
f 23/1/16 28/1/16 31/1/16
f 23/1/17 18/1/17 28/1/17
f 32/1/18 20/1/18 22/1/18
f 32/1/18 30/1/18 20/1/18
f 30/1/18 21/1/18 20/1/18
f 30/1/18 29/1/18 21/1/18
