# Blender 4.1.1
# www.blender.org
mtllib FridgeDrawer1_30_FridgeDrawer1E6_2_GeomSubset_1.mtl
o FridgeDrawer1_30_FridgeDrawer1E6_2_GeomSubset_1
v 0.007323 0.075588 -0.700478
v 0.007316 0.075588 -0.700478
v 0.007323 0.075594 -0.700478
v 0.007316 0.075594 -0.700478
v 0.007323 0.075588 -0.700478
v 0.007316 0.075588 -0.700478
v 0.007323 0.075594 -0.700478
v 0.007316 0.075594 -0.700478
v 0.007323 0.075588 -0.700478
v 0.007316 0.075588 -0.700478
v 0.007323 0.075594 -0.700478
v 0.007316 0.075594 -0.700478
v 0.007323 0.075588 -0.700478
v 0.007316 0.075588 -0.700478
v 0.007323 0.075594 -0.700478
v 0.007316 0.075594 -0.700478
v 0.007323 0.075588 -0.700478
v 0.007316 0.075588 -0.700478
v 0.007323 0.075594 -0.700478
v 0.007316 0.075594 -0.700478
v 0.007323 0.075588 -0.700478
v 0.007316 0.075588 -0.700478
v 0.007323 0.075594 -0.700478
v 0.007316 0.075594 -0.700478
v 0.007323 0.075588 -0.700478
v 0.007316 0.075588 -0.700478
v 0.007323 0.075594 -0.700478
v 0.007316 0.075594 -0.700478
v -0.292941 -0.065670 -0.360829
v 0.297786 -0.065670 -0.360829
v -0.292941 -0.065670 -0.172495
v 0.297786 -0.065670 -0.172495
v -0.292941 -0.054422 -0.172495
v 0.297786 -0.054422 -0.172495
v -0.292941 -0.054422 -0.360829
v 0.297786 -0.054422 -0.360829
v 0.304936 -0.070270 -0.201911
v 0.304565 -0.072451 -0.201972
v 0.302601 -0.071067 -0.203580
v 0.241475 -0.086570 -0.203580
v 0.242001 -0.088156 -0.201850
v 0.302601 -0.071067 -0.180780
v 0.304460 -0.072478 -0.182449
v 0.304936 -0.070270 -0.182449
v 0.241475 -0.086570 -0.180780
v 0.242001 -0.088156 -0.182510
v 0.298582 -0.067609 -0.182555
v 0.299718 -0.068996 -0.180780
v 0.301418 -0.068080 -0.182555
v 0.240160 -0.081567 -0.180780
v 0.239728 -0.079962 -0.182510
v 0.299718 -0.068996 -0.203580
v 0.298601 -0.067605 -0.201828
v 0.301402 -0.068070 -0.201828
v 0.239728 -0.079962 -0.201850
v 0.240160 -0.081567 -0.203580
v 0.007320 -0.114021 -0.182510
v 0.007320 -0.112373 -0.180780
v 0.114881 -0.108786 -0.180780
v 0.115131 -0.110419 -0.182510
v 0.007320 -0.100253 -0.180780
v 0.007320 -0.098608 -0.182510
v 0.115131 -0.096134 -0.182510
v 0.115303 -0.097772 -0.180780
v 0.007320 -0.098608 -0.201850
v 0.007320 -0.100253 -0.203580
v 0.115303 -0.097772 -0.203580
v 0.115131 -0.096134 -0.201850
v 0.007320 -0.112373 -0.203580
v 0.007320 -0.114021 -0.201850
v 0.115131 -0.110419 -0.201850
v 0.114881 -0.108786 -0.203580
v 0.177583 -0.099340 -0.180780
v 0.177998 -0.100948 -0.182510
v 0.177998 -0.089614 -0.182510
v 0.178308 -0.091238 -0.180780
v 0.178308 -0.091238 -0.203580
v 0.177998 -0.089614 -0.201850
v 0.177998 -0.100948 -0.201850
v 0.177583 -0.099340 -0.203580
v -0.297755 -0.071067 -0.203580
v -0.299614 -0.072478 -0.201911
v -0.300090 -0.070270 -0.201911
v -0.236629 -0.086570 -0.203580
v -0.237155 -0.088156 -0.201850
v -0.300090 -0.070270 -0.182449
v -0.299719 -0.072451 -0.182388
v -0.297755 -0.071067 -0.180780
v -0.236629 -0.086570 -0.180780
v -0.237155 -0.088156 -0.182510
v -0.296572 -0.068080 -0.182555
v -0.294873 -0.068996 -0.180780
v -0.293737 -0.067609 -0.182555
v -0.235315 -0.081567 -0.180780
v -0.234883 -0.079962 -0.182510
v -0.296556 -0.068070 -0.201828
v -0.293737 -0.067609 -0.201805
v -0.294873 -0.068996 -0.203580
v -0.234883 -0.079962 -0.201850
v -0.235315 -0.081567 -0.203580
v -0.110285 -0.110419 -0.182510
v -0.110036 -0.108786 -0.180780
v -0.110457 -0.097772 -0.180780
v -0.110285 -0.096134 -0.182510
v -0.110285 -0.096134 -0.201850
v -0.110457 -0.097772 -0.203580
v -0.110036 -0.108786 -0.203580
v -0.110285 -0.110419 -0.201850
v -0.173152 -0.100948 -0.182510
v -0.172737 -0.099340 -0.180780
v -0.173462 -0.091238 -0.180780
v -0.173152 -0.089614 -0.182510
v -0.173152 -0.089614 -0.201850
v -0.173462 -0.091238 -0.203580
v -0.172737 -0.099340 -0.203580
v -0.173152 -0.100948 -0.201850
v -0.306876 -0.071353 -0.369201
v -0.310874 -0.068240 -0.373282
v -0.307175 -0.068303 -0.376560
v -0.303319 -0.071353 -0.373090
v 0.308165 -0.071353 -0.373090
v 0.311943 -0.068239 -0.376560
v 0.315719 -0.068304 -0.373349
v 0.311721 -0.071353 -0.369201
v -0.302040 0.079458 -0.166892
v -0.307097 0.082754 -0.170169
v -0.310874 0.079705 -0.170102
v -0.306876 0.076757 -0.166892
v 0.311722 0.076757 -0.166892
v 0.315719 0.079641 -0.170170
v 0.312021 0.082754 -0.170101
v 0.306886 0.079458 -0.166892
v -0.310874 0.079577 -0.373214
v -0.307020 0.082754 -0.373214
v -0.307020 0.079577 -0.376560
v 0.311865 0.079577 -0.376560
v 0.311865 0.082754 -0.373214
v 0.315719 0.079577 -0.373214
v -0.307020 -0.068176 -0.166892
v -0.310874 -0.068176 -0.170237
v -0.307020 -0.071353 -0.170237
v 0.311865 -0.071353 -0.170237
v 0.315719 -0.068176 -0.170237
v 0.311865 -0.068176 -0.166892
v -0.292522 -0.071352 -0.362922
v -0.288859 -0.068211 -0.359499
v -0.292671 -0.068233 -0.356214
v -0.296584 -0.071352 -0.359632
v 0.301430 -0.071352 -0.359632
v 0.297516 -0.068204 -0.356184
v 0.293747 -0.068246 -0.359499
v 0.297368 -0.071352 -0.362922
v 0.297516 -0.068175 -0.170237
v 0.301371 -0.071353 -0.170237
v 0.301371 -0.068175 -0.166892
v -0.296525 -0.068175 -0.166892
v -0.296525 -0.071353 -0.170237
v -0.292671 -0.068175 -0.170237
v -0.292671 0.066430 -0.170198
v -0.288879 0.069570 -0.170182
v -0.292929 0.072751 -0.166892
v -0.296594 0.069368 -0.166892
v 0.301440 0.069368 -0.166892
v 0.297777 0.072786 -0.166892
v 0.293693 0.069570 -0.170210
v 0.297516 0.066430 -0.170198
v 0.297516 0.066393 -0.356154
v 0.293662 0.069570 -0.356154
v 0.293662 0.066393 -0.359499
v -0.288817 0.066393 -0.359499
v -0.288817 0.069570 -0.356154
v -0.292671 0.066393 -0.356154
vn -0.0000 -0.0000 -1.0000
vn -0.5645 -0.1029 0.8190
vn -0.3039 -0.7862 0.5381
vn -0.1542 -0.6420 0.7510
vn -0.4422 -0.1807 0.8785
vn -0.9819 0.1895 -0.0025
vn -0.1070 0.4780 0.8718
vn -0.1779 0.7874 0.5902
vn -0.5824 0.1128 0.8050
vn -0.1241 0.7118 0.6914
vn -0.1414 0.8058 0.5750
vn -0.4491 -0.1721 -0.8767
vn -0.1543 -0.6456 -0.7480
vn -0.3040 -0.7888 -0.5343
vn -0.5737 -0.0742 -0.8157
vn -0.5853 0.1706 -0.7927
vn -0.1786 0.7896 -0.5870
vn -0.1076 0.4799 -0.8707
vn -0.1414 0.8058 -0.5750
vn -0.1241 0.7118 -0.6914
vn -0.0741 -0.8683 -0.4905
vn -0.0743 -0.8667 0.4934
vn 0.1320 -0.7162 -0.6853
vn 0.1466 -0.8008 -0.5807
vn 0.0937 -0.7175 -0.6903
vn 0.1042 -0.8042 -0.5851
vn 0.1464 -0.8000 0.5818
vn 0.1318 -0.7150 0.6865
vn 0.1042 -0.8041 0.5852
vn 0.0937 -0.7175 0.6903
vn -0.0022 0.8208 -0.5712
vn 0.0884 0.8191 -0.5668
vn 0.0761 0.7195 -0.6903
vn -0.0017 0.7249 -0.6888
vn -0.0752 0.7196 -0.6903
vn -0.0874 0.8190 -0.5670
vn 0.0014 -0.7251 -0.6887
vn -0.0548 -0.7222 -0.6896
vn -0.0597 -0.8069 -0.5877
vn 0.0015 -0.8124 -0.5831
vn 0.0590 -0.8070 -0.5875
vn 0.0540 -0.7223 -0.6894
vn 0.0016 -0.8124 0.5832
vn -0.0598 -0.8069 0.5877
vn -0.0548 -0.7222 0.6895
vn 0.0016 -0.7250 0.6887
vn 0.0540 -0.7222 0.6895
vn 0.0590 -0.8070 0.5876
vn -0.0018 0.7249 0.6888
vn 0.0761 0.7194 0.6904
vn 0.0884 0.8191 0.5668
vn -0.0022 0.8208 0.5712
vn -0.0875 0.8190 0.5670
vn -0.0752 0.7195 0.6904
vn 0.4486 -0.1697 0.8775
vn 0.1524 -0.6438 0.7498
vn 0.3020 -0.7871 0.5378
vn 0.5736 -0.0719 0.8160
vn 0.5852 0.1706 0.7927
vn 0.1786 0.7896 0.5870
vn 0.1076 0.4799 0.8707
vn 0.9819 0.1895 0.0025
vn 0.1414 0.8058 0.5750
vn 0.1241 0.7118 0.6914
vn 0.5645 -0.1050 -0.8187
vn 0.3040 -0.7887 -0.5343
vn 0.1543 -0.6455 -0.7480
vn 0.4427 -0.1831 -0.8778
vn 0.1070 0.4780 -0.8718
vn 0.1779 0.7875 -0.5901
vn 0.5824 0.1128 -0.8051
vn 0.1241 0.7118 -0.6914
vn 0.1414 0.8058 -0.5750
vn 0.0718 -0.8685 0.4904
vn 0.0735 -0.8684 -0.4903
vn -0.1466 -0.8008 -0.5807
vn -0.1320 -0.7162 -0.6853
vn -0.1042 -0.8042 -0.5851
vn -0.0937 -0.7175 -0.6903
vn -0.1324 -0.7163 0.6851
vn -0.1466 -0.8008 0.5807
vn -0.0937 -0.7175 0.6903
vn -0.1042 -0.8041 0.5852
vn -0.2435 0.9699 -0.0000
vn -0.0000 -0.0000 1.0000
vn -0.5285 -0.8489 -0.0000
vn 0.2435 0.9699 -0.0000
vn 0.5285 -0.8489 -0.0000
vn 0.2989 0.9412 0.1576
vn -0.2419 0.9547 -0.1732
vn -0.1740 0.9362 -0.3054
vn 0.1657 0.9363 0.3096
vn 0.3116 0.8693 0.3837
vn 0.6614 0.4960 -0.5626
vn 0.3343 0.7831 -0.5245
vn 0.5791 -0.0002 0.8153
vn 0.4742 -0.5303 0.7027
vn 0.6697 -0.4939 0.5546
vn 0.6594 -0.0005 0.7518
vn -0.1612 0.9355 0.3144
vn -0.4016 0.8713 0.2820
vn 0.4137 0.8700 0.2683
vn 0.1725 0.9362 -0.3064
vn 0.2412 0.9547 -0.1744
vn -0.2939 0.9420 0.1621
vn -0.6518 -0.0005 0.7584
vn -0.6689 -0.4925 0.5568
vn -0.4706 -0.5300 0.7054
vn -0.5780 -0.0005 0.8160
vn -0.3335 0.7836 -0.5242
vn -0.6618 0.4979 -0.5605
vn -0.3003 0.8680 0.3954
vn 0.1035 -0.2490 -0.9629
vn -0.1905 0.2843 -0.9396
vn -0.2586 0.1783 -0.9494
vn 0.3159 -0.2550 -0.9139
vn 0.3739 -0.3586 -0.8553
vn -0.3864 -0.3425 -0.8564
vn -0.1066 -0.2442 -0.9639
vn 0.6322 -0.7748 0.0004
vn 0.4641 -0.7243 0.5100
vn 0.5623 -0.8270 0.0003
vn 0.3368 0.5461 -0.7670
vn 0.2973 -0.4467 -0.8438
vn -0.3216 -0.2484 -0.9137
vn 0.2598 0.1779 -0.9491
vn 0.1908 0.2824 -0.9401
vn -0.3079 -0.4347 -0.8463
vn -0.3376 0.5464 -0.7665
vn -0.5632 -0.8263 0.0001
vn -0.4679 -0.7217 0.5102
vn -0.6400 -0.7684 0.0004
vn -0.3463 0.5462 -0.7628
vn -0.3424 0.7797 -0.5242
vn 0.3428 0.7795 -0.5243
vn 0.3463 0.5461 -0.7627
vn -0.2944 0.8448 -0.4469
vn 0.2947 0.8449 -0.4464
vn -0.6542 0.0003 -0.7564
vn -0.5987 0.4619 -0.6544
vn -0.6356 0.7011 -0.3233
vn -0.7403 -0.0020 -0.6723
vn -0.6658 0.4946 -0.5586
vn -0.3605 0.8520 -0.3796
vn 0.3603 0.8521 -0.3796
vn 0.6663 0.4939 -0.5587
vn 0.7434 0.0003 -0.6688
vn 0.6373 0.7007 -0.3207
vn 0.5997 0.4606 -0.6544
vn 0.6579 0.0003 -0.7531
vn 0.3736 0.4101 -0.8320
vn -0.3723 0.4120 -0.8316
vn -0.4236 0.4933 -0.7598
vn -0.6273 0.3822 -0.6786
vn -0.6369 0.7709 -0.0002
vn 0.4240 0.4944 -0.7588
vn 0.6354 0.7722 -0.0001
vn 0.6265 0.3833 -0.6787
vn 1.0000 -0.0000 -0.0000
vn -1.0000 -0.0000 -0.0000
vt -142.581207 -110.793068
vt -142.581207 -110.793114
vt -142.581085 -110.793114
vt -142.581085 -110.793068
vt -143.387451 1.518677
vt -143.396622 1.503950
vt -143.392761 1.496935
vt -143.384125 1.508949
vt -143.682175 0.499208
vt -143.682037 0.591928
vt -143.692520 0.591928
vt -143.692520 0.499499
vt -143.319519 1.254212
vt -143.312912 1.256404
vt -143.378357 1.517133
vt -143.266312 0.987951
vt -143.259613 0.989679
vt -143.172928 1.509013
vt -143.164307 1.496999
vt -143.160477 1.504080
vt -143.169617 1.518742
vt -143.178802 1.516760
vt -143.244156 1.256455
vt -143.237549 1.254263
vt -143.297455 0.989717
vt -143.290756 0.987988
vt -143.233780 1.422852
vt -143.157791 1.422929
vt -143.157791 1.433970
vt -143.233780 1.434033
vt -143.216690 1.248784
vt -143.210007 1.246984
vt -143.158524 1.492263
vt -143.256989 0.991010
vt -143.250229 0.989717
vt -143.398560 1.492281
vt -143.347061 1.246933
vt -143.340378 1.248734
vt -143.306839 0.989679
vt -143.300079 0.990972
vt -143.351944 0.278402
vt -143.336929 -0.211725
vt -143.330124 -0.210687
vt -143.345078 0.278402
vt -143.330124 0.726674
vt -143.336929 0.727713
vt -143.294571 0.278402
vt -143.284225 -0.212441
vt -143.277405 -0.211725
vt -143.287704 0.278402
vt -143.277405 0.727713
vt -143.284225 0.728430
vt -143.269363 0.278401
vt -143.279663 -0.211701
vt -143.272842 -0.212417
vt -143.262497 0.278401
vt -143.272842 0.728406
vt -143.279663 0.727689
vt -143.211990 0.278401
vt -143.226944 -0.210663
vt -143.220139 -0.211701
vt -143.205124 0.278401
vt -143.220139 0.727689
vt -143.226944 0.726650
vt -143.384125 -0.992961
vt -143.392761 -0.980948
vt -143.396622 -0.987963
vt -143.387451 -1.002690
vt -143.378250 -1.000707
vt -143.312912 -0.740416
vt -143.319519 -0.738225
vt -143.702103 0.499501
vt -143.702103 0.591927
vt -143.712448 0.592216
vt -143.712585 0.499501
vt -143.259613 -0.473691
vt -143.266312 -0.471964
vt -143.169617 -1.002755
vt -143.160477 -0.988092
vt -143.164307 -0.981012
vt -143.172928 -0.993025
vt -143.237549 -0.738276
vt -143.244156 -0.740467
vt -143.178696 -1.001210
vt -143.290756 -0.472001
vt -143.297455 -0.473729
vt -143.233780 -0.924000
vt -143.157791 -0.923938
vt -143.157867 -0.912822
vt -143.233780 -0.912822
vt -143.158524 -0.976278
vt -143.210007 -0.730997
vt -143.216690 -0.732798
vt -143.250229 -0.473729
vt -143.256989 -0.475022
vt -143.340378 -0.732747
vt -143.347061 -0.730947
vt -143.398544 -0.976215
vt -143.300079 -0.474985
vt -143.306839 -0.473691
vt -143.258667 1.452081
vt -143.258194 1.204757
vt -143.181732 1.204757
vt -143.181503 1.451666
vt -143.233963 1.190774
vt -143.157700 1.190774
vt -143.702972 0.499896
vt -143.702927 0.591425
vt -143.157700 0.699453
vt -143.233963 0.699453
vt -143.233963 0.274326
vt -143.157700 0.274326
vt -143.181732 0.703226
vt -143.258194 0.703226
vt -143.258194 0.277038
vt -143.181732 0.277038
vt -143.157700 0.947354
vt -143.233963 0.947354
vt -143.181732 0.951746
vt -143.258194 0.951746
vt -143.258438 -0.936305
vt -143.181259 -0.936721
vt -143.181732 -0.689397
vt -143.258194 -0.689397
vt -143.157700 -0.680744
vt -143.233963 -0.680744
vt -143.691650 0.499898
vt -143.691696 0.591423
vt -143.157700 -0.189421
vt -143.233963 -0.189421
vt -143.181732 -0.187866
vt -143.258194 -0.187866
vt -143.157700 -0.437322
vt -143.233963 -0.437322
vt -143.181732 -0.436386
vt -143.258194 -0.436386
vt -143.688736 0.491572
vt -143.688736 0.599856
vt -143.705887 0.491574
vt -143.705887 0.599854
vt -144.246780 -0.948614
vt -144.209167 -0.908162
vt -144.222107 -0.892195
vt -144.262070 -0.934632
vt -143.529129 0.199859
vt -143.528870 1.012931
vt -143.541580 1.012931
vt -143.541580 0.216200
vt -143.529373 0.186733
vt -142.937210 0.186733
vt -142.937210 0.200129
vt -143.088730 -0.948216
vt -143.088730 1.476438
vt -143.101074 1.491419
vt -143.100815 -0.963507
vt -144.262070 1.468873
vt -144.222107 1.426435
vt -144.209167 1.442402
vt -144.246780 1.482854
vt -143.072983 0.211526
vt -143.665146 0.212066
vt -143.665146 0.198670
vt -143.073242 0.198670
vt -143.060776 0.228136
vt -143.060776 1.024846
vt -143.073502 1.024846
vt -143.400421 -1.015983
vt -143.428680 -0.977585
vt -143.442947 -0.993032
vt -143.411804 -1.036364
vt -143.386536 -1.037296
vt -143.386536 1.571865
vt -143.400421 1.550225
vt -142.936691 1.013469
vt -142.924484 0.200129
vt -142.924484 1.013202
vt -142.948502 1.026327
vt -143.528870 1.026327
vt -143.411804 1.570606
vt -143.442947 1.527273
vt -143.428528 1.511836
vt -143.665390 1.025115
vt -143.073502 1.038241
vt -143.653854 1.038241
vt -143.677856 1.025388
vt -143.677856 0.212066
vt -143.687195 -0.962892
vt -143.687195 1.491112
vt -143.699799 1.491112
vt -143.699799 -0.962892
vt -144.022598 -1.036970
vt -144.022598 -0.992741
vt -144.035980 -0.992741
vt -144.035980 -1.036970
vt -144.035980 1.571210
vt -144.035980 1.526982
vt -144.022598 1.526982
vt -144.022598 1.571210
vt -143.389145 -0.904304
vt -143.389282 1.407653
vt -143.401611 1.422021
vt -143.401611 -0.918842
vt -143.229889 0.238435
vt -143.769928 0.238675
vt -143.769928 0.225256
vt -143.229980 0.225256
vt -143.217377 0.224723
vt -143.217377 0.984445
vt -143.230118 0.984445
vt -143.895157 0.244893
vt -143.895035 0.990760
vt -143.907776 0.990760
vt -143.907776 0.231062
vt -143.895325 0.231595
vt -143.355255 0.231595
vt -143.355255 0.245014
vt -143.355118 0.990915
vt -143.343323 1.004178
vt -143.895035 1.004178
vt -143.230118 0.997864
vt -143.781845 0.997864
vt -143.770065 0.984601
vt -143.782669 0.984666
vt -143.782669 0.238675
vt -143.442093 1.494628
vt -143.442093 -0.960519
vt -143.342514 0.245014
vt -143.342514 0.990867
vt -142.854996 1.407316
vt -142.854996 -0.904137
vt -142.842392 -0.904137
vt -142.842392 1.407316
vt -142.718079 -0.392471
vt -142.718201 1.895485
vt -143.448456 1.895362
vt -143.448456 -0.392225
vt -143.951111 -0.951785
vt -143.153687 -0.951480
vt -143.153687 1.479088
vt -143.951385 1.479698
vt -143.464737 -0.949180
vt -143.464737 -0.907929
vt -143.464737 1.442169
vt -143.464737 1.483420
vt -144.275711 -0.949789
vt -144.262817 -0.964329
vt -144.263092 1.498569
vt -144.275711 1.483724
vt -143.399384 -1.053213
vt -143.399643 1.587452
vt -144.195740 -0.892778
vt -144.208649 -0.877795
vt -144.208649 1.412204
vt -144.195618 1.427019
vt -143.455322 -0.976497
vt -143.455322 1.510739
s 1
usemtl M_FridgeDrawer1E6_1
f 5/1/1 6/2/1 8/3/1 7/4/1
f 37/5/2 54/6/3 52/7/4 39/8/5
f 38/9/6 43/10/6 44/11/6 37/12/6
f 39/8/5 40/13/7 41/14/8 38/15/9
f 40/13/7 80/16/10 79/17/11 41/14/8
f 42/18/12 48/19/13 49/20/14 44/21/15
f 43/22/16 46/23/17 45/24/18 42/18/12
f 46/23/17 74/25/19 73/26/20 45/24/18
f 47/27/21 53/28/22 54/29/3 49/30/14
f 48/19/13 50/31/23 51/32/24 47/33/21
f 50/31/23 76/34/25 75/35/26 51/32/24
f 53/36/22 55/37/27 56/38/28 52/7/4
f 55/37/27 78/39/29 77/40/30 56/38/28
f 57/41/31 101/42/32 102/43/33 58/44/34
f 58/44/34 59/45/35 60/46/36 57/41/31
f 59/45/35 73/26/20 74/25/19 60/46/36
f 61/47/37 103/48/38 104/49/39 62/50/40
f 62/50/40 63/51/41 64/52/42 61/47/37
f 63/51/41 75/35/26 76/34/25 64/52/42
f 65/53/43 105/54/44 106/55/45 66/56/46
f 66/56/46 67/57/47 68/58/48 65/53/43
f 67/57/47 77/40/30 78/39/29 68/58/48
f 69/59/49 107/60/50 108/61/51 70/62/52
f 70/62/52 71/63/53 72/64/54 69/59/49
f 71/63/53 79/17/11 80/16/10 72/64/54
f 81/65/55 98/66/56 96/67/57 83/68/58
f 82/69/59 85/70/60 84/71/61 81/65/55
f 83/72/62 86/73/62 87/74/62 82/75/62
f 85/70/60 116/76/63 115/77/64 84/71/61
f 86/78/65 91/79/66 92/80/67 88/81/68
f 88/81/68 89/82/69 90/83/70 87/84/71
f 89/82/69 110/85/72 109/86/73 90/83/70
f 91/87/66 96/88/57 97/89/74 93/90/75
f 93/91/75 95/92/76 94/93/77 92/80/67
f 95/92/76 112/94/78 111/95/79 94/93/77
f 98/66/56 100/96/80 99/97/81 97/98/74
f 100/96/80 114/99/82 113/100/83 99/97/81
f 101/42/32 109/86/73 110/85/72 102/43/33
f 103/48/38 111/95/79 112/94/78 104/49/39
f 105/54/44 113/100/83 114/99/82 106/55/45
f 107/60/50 115/77/64 116/76/63 108/61/51
f 38/101/84 41/102/8 46/103/17 43/104/84
f 42/18/12 45/24/18 50/31/1 48/19/13
f 47/27/21 51/105/24 55/106/27 53/28/22
f 52/7/4 56/38/85 40/13/7 39/8/5
f 54/107/3 37/12/86 44/11/86 49/108/14
f 59/45/1 58/44/1 61/47/1 64/52/1
f 68/109/48 63/110/41 62/111/40 65/112/43
f 72/64/85 67/57/85 66/56/85 69/59/85
f 60/113/36 71/114/53 70/115/52 57/116/31
f 73/26/1 59/45/1 64/52/1 76/34/1
f 78/117/29 75/118/26 63/110/41 68/109/48
f 80/16/85 77/40/85 67/57/85 72/64/85
f 74/119/19 79/120/11 71/114/53 60/113/36
f 45/24/18 73/26/1 76/34/1 50/31/1
f 55/106/27 51/105/24 75/118/26 78/117/29
f 40/13/7 56/38/85 77/40/85 80/16/85
f 46/103/17 41/102/8 79/120/11 74/119/19
f 82/121/87 87/122/87 90/123/70 85/124/60
f 88/81/68 92/80/67 94/93/1 89/82/69
f 93/90/75 97/89/74 99/125/81 95/126/76
f 98/66/56 81/65/55 84/71/61 100/96/85
f 96/127/57 91/128/66 86/73/88 83/72/88
f 102/43/1 103/48/1 61/47/1 58/44/1
f 105/129/44 65/112/43 62/111/40 104/130/39
f 107/60/85 69/59/85 66/56/85 106/55/85
f 101/131/32 57/116/31 70/115/52 108/132/51
f 110/85/1 111/95/1 103/48/1 102/43/1
f 113/133/83 105/129/44 104/130/39 112/134/78
f 115/77/85 107/60/85 106/55/85 114/99/85
f 109/135/73 101/131/32 108/132/51 116/136/63
f 89/82/69 94/93/1 111/95/1 110/85/1
f 99/125/81 113/133/83 112/134/78 95/126/76
f 84/71/61 115/77/85 114/99/85 100/96/85
f 90/123/70 109/135/73 116/136/63 85/124/60
f 37/12/2 39/137/5 38/9/9
f 42/138/12 44/11/15 43/10/16
f 47/33/21 49/20/14 48/19/13
f 52/7/4 54/6/3 53/36/22
f 81/139/55 83/72/58 82/75/59
f 86/73/65 88/140/68 87/74/71
f 91/79/66 93/91/75 92/80/67
f 96/67/57 98/66/56 97/98/74
f 117/141/89 148/142/90 145/143/91 120/144/92
f 118/145/93 140/146/94 141/147/95 117/148/89
f 119/149/96 135/150/97 133/151/98 118/145/99
f 120/152/92 121/153/100 122/154/101 119/155/102
f 121/156/100 152/157/103 149/158/104 124/159/105
f 123/160/106 138/161/107 136/162/108 122/163/109
f 124/164/105 142/165/110 143/166/111 123/160/112
f 125/167/113 161/168/114 162/169/115 128/170/116
f 126/171/117 131/172/118 132/173/119 125/167/113
f 127/174/120 133/151/98 134/175/121 126/176/122
f 128/177/116 139/178/123 140/146/94 127/174/124
f 129/179/125 163/180/126 164/181/127 132/173/119
f 130/182/128 143/166/111 144/183/129 129/184/125
f 131/185/130 137/186/131 138/161/107 130/182/132
f 135/187/97 136/188/108 137/189/131 134/190/121
f 139/191/123 156/192/133 157/193/134 141/194/95
f 142/195/110 154/196/135 155/197/136 144/198/129
f 146/199/137 151/200/138 152/201/103 145/202/91
f 147/203/139 172/204/140 170/205/141 146/206/142
f 148/207/90 157/208/134 158/209/143 147/203/144
f 150/210/145 153/211/146 154/212/135 149/213/104
f 151/214/147 169/215/148 167/216/149 150/210/150
f 153/211/146 166/217/151 163/218/126 155/219/136
f 156/220/133 162/221/115 159/222/152 158/209/143
f 160/223/153 171/224/154 172/204/140 159/222/155
f 161/168/114 164/181/127 165/225/156 160/226/153
f 166/217/157 167/216/149 168/227/158 165/228/156
f 169/229/148 170/230/141 171/231/154 168/232/158
f 160/233/153 165/234/156 168/235/158 171/236/154
f 170/230/141 169/229/148 151/200/147 146/199/142
f 150/210/159 167/216/159 166/217/159 153/211/159
f 172/204/160 147/203/160 158/209/160 159/222/160
f 126/237/122 134/238/121 137/239/131 131/240/130
f 135/187/97 119/155/96 122/154/109 136/188/108
f 123/160/160 143/166/160 130/182/160 138/161/160
f 133/151/159 127/174/159 140/146/159 118/145/159
f 125/167/113 132/173/119 164/181/127 161/168/114
f 129/179/125 144/198/129 155/197/136 163/180/126
f 139/191/123 128/170/116 162/169/115 156/192/133
f 141/241/95 157/242/134 148/142/90 117/141/89
f 120/144/92 145/143/91 152/157/103 121/156/100
f 124/159/105 149/158/104 154/243/135 142/244/110
f 117/141/89 120/144/92 119/245/102 118/246/93
f 121/156/100 124/159/105 123/247/112 122/248/101
f 125/167/113 128/170/116 127/249/124 126/171/117
f 129/179/125 132/173/119 131/172/118 130/250/128
f 133/151/98 135/150/97 134/175/121
f 136/162/108 138/161/107 137/186/131
f 139/178/123 141/147/95 140/146/94
f 142/165/110 144/183/129 143/166/111
f 145/143/91 148/142/90 147/251/144 146/252/137
f 149/158/104 152/157/103 151/253/138 150/254/145
f 153/211/146 155/219/136 154/212/135
f 156/220/133 158/209/143 157/208/134
f 159/255/152 162/169/115 161/168/114 160/226/153
f 163/180/126 166/256/151 165/225/156 164/181/127
f 167/216/149 169/215/148 168/227/158
f 170/205/141 172/204/140 171/224/154
