# Blender 4.1.0
# www.blender.org
mtllib KnobmeshSinkFaucetKnob_1_1.mtl
o SinkFaucetKnob_1
v -0.023407 0.152863 0.100613
v 0.025632 0.152863 0.100613
v 0.028867 0.161377 0.092789
v -0.026642 0.161377 0.092789
v -0.027024 0.117831 0.079516
v 0.029248 0.117831 0.079516
v 0.029248 0.162392 0.079516
v -0.027024 0.162392 0.079516
v 0.028334 0.158941 0.097902
v -0.026109 0.158941 0.097902
v 0.001113 -0.000442 0.095413
v 0.001113 0.117831 0.079516
v 0.001113 0.168200 0.079516
v 0.001113 0.167184 0.092789
v 0.001113 0.164749 0.097902
v 0.001113 0.158670 0.100613
v 0.001113 -0.000442 0.100613
v 0.001113 -0.002459 0.097902
v -0.023407 0.101791 0.100613
v -0.023407 0.108684 0.100613
v -0.023407 0.094856 0.100613
v 0.001113 0.094856 0.100613
v -0.026642 0.096242 0.095413
v -0.026642 0.102510 0.094747
v -0.026642 0.108642 0.092789
v 0.001113 0.096242 0.095413
v 0.001113 0.102510 0.094747
v 0.001113 0.108642 0.092789
v 0.028334 0.096689 0.097902
v 0.028334 0.103007 0.097902
v 0.028334 0.109328 0.097902
v -0.026109 0.109328 0.097902
v -0.026109 0.103007 0.097902
v -0.026109 0.096689 0.097902
v 0.025632 0.108684 0.100613
v 0.025632 0.101791 0.100613
v 0.025632 0.094856 0.100613
v 0.028867 0.096242 0.095413
v 0.028867 0.102510 0.094747
v 0.028867 0.108642 0.092789
v 0.015296 -0.002459 0.097902
v 0.022314 -0.000374 0.097902
v 0.026721 0.006241 0.097902
v 0.028334 0.015107 0.097902
v -0.013072 -0.002459 0.097902
v -0.020090 -0.000374 0.097902
v -0.024496 0.006241 0.097902
v -0.026109 0.015108 0.097902
v 0.025632 0.015107 0.100613
v 0.024026 0.007332 0.100613
v 0.019638 0.001641 0.100613
v 0.013643 -0.000442 0.100613
v -0.023407 0.015107 0.100613
v -0.011419 -0.000442 0.100613
v -0.017414 0.001641 0.100613
v -0.021801 0.007332 0.100613
v 0.028867 0.015107 0.095413
v 0.015296 -0.000442 0.095413
v 0.022082 0.001641 0.095413
v 0.027050 0.007332 0.095413
v -0.026642 0.015107 0.095413
v -0.024824 0.007332 0.095413
v -0.019859 0.001641 0.095413
v -0.013072 -0.000442 0.095413
v 0.013373 0.094856 0.100613
v 0.013373 0.157160 0.100613
v 0.013373 0.163234 0.097902
v 0.014990 0.165673 0.092789
v 0.015180 0.166687 0.079516
v 0.015180 0.117831 0.079516
v 0.016752 0.108642 0.092789
v 0.016752 0.102510 0.094747
v 0.016752 0.096242 0.095413
v -0.014526 0.096242 0.095413
v -0.014526 0.102510 0.094747
v -0.014526 0.108642 0.092789
v -0.012957 0.117831 0.079516
v -0.012957 0.166687 0.079516
v -0.012765 0.165673 0.092789
v -0.011147 0.163234 0.097902
v -0.011147 0.157160 0.100613
v -0.011147 0.094856 0.100613
v 0.029012 0.115624 0.086152
v 0.029012 0.161986 0.086152
v 0.015063 0.166282 0.086152
v 0.001113 0.167793 0.086152
v -0.012838 0.166282 0.086152
v -0.026788 0.161986 0.086152
v -0.026788 0.115624 0.086152
v -0.012838 0.115624 0.086152
v 0.001113 0.115624 0.086152
v 0.015062 0.115624 0.086152
v 0.017068 0.015107 0.095413
v 0.001113 0.015107 0.095413
v -0.014844 0.015107 0.095413
v 0.017082 0.007332 0.095413
v 0.001113 0.007332 0.095413
v -0.014858 0.007332 0.095413
v 0.013631 0.007332 0.100613
v 0.001113 0.007332 0.100613
v -0.011407 0.007332 0.100613
v 0.013621 0.015107 0.100613
v 0.001113 0.015107 0.100613
v -0.011395 0.015107 0.100613
v 0.013373 0.101791 0.100613
v 0.001113 0.101791 0.100613
v -0.011147 0.101791 0.100613
v -0.011147 0.108642 0.100613
v 0.001113 0.108642 0.100613
v 0.013373 0.108642 0.100613
vn -0.0000 -0.0000 -1.0000
vn -0.2026 0.9761 0.0781
vn -0.2028 0.9771 0.0642
vn -0.2925 0.9540 0.0661
vn -0.2932 0.9528 0.0791
vn 0.2932 0.9528 0.0791
vn 0.2925 0.9540 0.0660
vn 0.2029 0.9771 0.0642
vn 0.2026 0.9761 0.0781
vn -0.7083 -0.0000 0.7059
vn -0.9264 0.0010 0.3765
vn -0.8857 0.0080 0.4643
vn -0.8639 0.0005 0.5037
vn 0.8857 0.0080 0.4642
vn 0.7084 -0.0000 0.7058
vn 0.8639 0.0004 0.5036
vn 0.9264 0.0010 0.3764
vn 0.9972 0.0011 0.0742
vn 0.9888 0.0158 0.1484
vn 0.9782 0.0007 0.2078
vn -0.0000 -0.8293 -0.5588
vn -0.0000 -0.9489 -0.3156
vn -0.0000 -0.8222 -0.5692
vn 0.9996 -0.0000 0.0265
vn 0.9994 -0.0000 0.0356
vn 0.9996 -0.0000 0.0290
vn -0.9996 -0.0000 0.0287
vn -0.9994 -0.0000 0.0356
vn -0.9997 -0.0000 0.0263
vn -0.9987 -0.0000 0.0508
vn -0.9972 0.0011 0.0743
vn -0.9785 -0.0000 0.2064
vn 0.9987 -0.0000 0.0507
vn 0.9785 -0.0000 0.2064
vn -0.0000 -0.5556 -0.8314
vn -0.0000 -0.5478 -0.8366
vn -0.0000 -0.2071 -0.9783
vn -0.0000 -0.0077 -1.0000
vn -0.9888 0.0158 0.1484
vn -0.9782 0.0007 0.2078
vn -0.0000 -0.2070 -0.9783
vn -0.9353 -0.3508 -0.0465
vn -0.8239 -0.3837 0.4171
vn -0.8511 -0.0154 0.5247
vn -0.9792 -0.0183 0.2022
vn -0.5412 -0.6840 -0.4891
vn -0.5676 -0.7886 0.2365
vn -0.0822 -0.7723 -0.6299
vn -0.1150 -0.9933 -0.0136
vn 0.0603 -0.7772 0.6264
vn 0.1150 -0.9933 -0.0136
vn 0.5676 -0.7887 0.2364
vn 0.3836 -0.5553 0.7379
vn 0.8239 -0.3838 0.4170
vn 0.6203 -0.2605 0.7399
vn 0.8512 -0.0154 0.5246
vn 0.7070 -0.0139 0.7071
vn -0.0000 -0.7767 -0.6298
vn -0.0000 -0.9997 -0.0233
vn -0.0000 -0.8022 0.5970
vn -0.0603 -0.7772 0.6264
vn 0.0822 -0.7723 -0.6299
vn 0.9792 -0.0182 0.2023
vn -0.7069 -0.0139 0.7072
vn 0.9353 -0.3509 -0.0464
vn 0.5412 -0.6840 -0.4892
vn -0.6202 -0.2604 0.7399
vn -0.3836 -0.5553 0.7379
vn -0.0000 0.0559 0.9984
vn 0.0139 0.0589 0.9982
vn 0.1371 0.6707 0.7289
vn -0.0000 0.6951 0.7189
vn 0.2027 0.9440 0.2604
vn -0.0000 0.9683 0.2497
vn -0.0000 0.9981 0.0620
vn -0.0000 0.9970 0.0769
vn -0.0000 -0.8184 -0.5746
vn -0.0000 -0.5430 -0.8397
vn -0.0000 -0.0076 -1.0000
vn -0.2027 0.9440 0.2604
vn -0.1371 0.6707 0.7289
vn -0.0139 0.0589 0.9982
vn 0.0156 0.0494 0.9987
vn 0.1970 0.6491 0.7347
vn 0.2797 0.9205 0.2728
vn -0.2797 0.9205 0.2728
vn -0.1970 0.6491 0.7347
vn -0.0156 0.0494 0.9987
vn -0.0000 -0.0000 1.0000
vt -19.075270 0.839899
vt -19.179705 0.839899
vt -19.189770 0.806930
vt -19.075270 0.806930
vt -19.314838 0.807675
vt -19.298807 0.807958
vt -19.298807 0.841948
vt -19.314838 0.841377
vt -19.189770 0.740989
vt -19.179705 0.708020
vt -19.075270 0.708020
vt -19.075270 0.740989
vt -19.314838 0.706559
vt -19.298807 0.705988
vt -19.298807 0.739978
vt -19.314838 0.740261
vt -19.623869 0.498070
vt -19.630600 0.499666
vt -19.630600 0.483976
vt -19.623869 0.480957
vt -19.630600 0.468292
vt -19.623869 0.463743
vt -19.511711 0.374763
vt -19.504980 0.377780
vt -19.504980 0.394995
vt -19.511711 0.390447
vt -19.511711 0.359070
vt -19.504980 0.360668
vt -19.524405 0.360774
vt -19.519541 0.375995
vt -19.517887 0.391556
vt -19.384892 0.841085
vt -19.400860 0.841652
vt -19.400860 0.807806
vt -19.384892 0.807522
vt -19.540878 0.343442
vt -19.557350 0.337963
vt -19.557350 0.227346
vt -19.540878 0.228355
vt -19.659765 0.630387
vt -19.676241 0.631393
vt -19.676241 0.520775
vt -19.659765 0.515296
vt -19.643291 0.628874
vt -19.643291 0.497963
vt -19.630600 0.622827
vt -19.524405 0.229866
vt -19.511711 0.235915
vt -19.504980 0.251001
vt -19.623869 0.607739
vt -19.400860 0.740112
vt -19.400860 0.706266
vt -19.384892 0.706833
vt -19.384892 0.740398
vt -19.387274 0.187940
vt -19.358400 0.187940
vt -19.358400 0.202552
vt -19.387274 0.202552
vt -19.358400 0.217489
vt -19.387274 0.217489
vt -19.638432 0.482743
vt -19.636774 0.467182
vt -19.283861 0.187940
vt -19.254990 0.187940
vt -19.254990 0.202552
vt -19.283861 0.202552
vt -19.254990 0.217489
vt -19.283861 0.217489
vt -19.636774 0.246472
vt -19.630600 0.243763
vt -19.630600 0.265775
vt -19.636774 0.265772
vt -19.636774 0.232345
vt -19.630600 0.227341
vt -19.354935 0.447894
vt -19.354935 0.452703
vt -19.371658 0.447735
vt -19.371109 0.442931
vt -19.825487 0.248831
vt -19.821592 0.244077
vt -19.805061 0.248987
vt -19.811363 0.253736
vt -19.504980 0.626387
vt -19.511711 0.631391
vt -19.511711 0.614969
vt -19.504980 0.612262
vt -19.511711 0.592963
vt -19.504980 0.592963
vt -19.321131 0.447894
vt -19.321131 0.452703
vt -19.888422 0.244077
vt -19.855007 0.244077
vt -19.855007 0.248831
vt -19.884529 0.248831
vt -19.287331 0.447894
vt -19.287331 0.452703
vt -19.517887 0.592963
vt -19.623869 0.265772
vt -19.517887 0.612262
vt -19.517887 0.626387
vt -19.271160 0.442931
vt -19.270605 0.447735
vt -19.623869 0.246472
vt -19.898651 0.253736
vt -19.904955 0.248987
vt -19.623869 0.232345
vt -19.855007 0.623673
vt -19.826124 0.620118
vt -19.826124 0.634427
vt -19.855007 0.637996
vt -19.343229 0.744345
vt -19.330872 0.740435
vt -19.330872 0.773968
vt -19.343229 0.773968
vt -19.298807 0.773968
vt -19.314838 0.773968
vt -19.193314 0.773958
vt -19.075270 0.773958
vt -19.400860 0.773958
vt -19.384892 0.773958
vt -19.321131 0.187940
vt -19.321131 0.202552
vt -19.321131 0.217489
vt -19.330872 0.807496
vt -19.343229 0.803586
vt -19.883888 0.634427
vt -19.883888 0.620118
vt -19.797243 0.609994
vt -19.790878 0.624312
vt -19.343229 0.708196
vt -19.330872 0.706907
vt -19.330872 0.841024
vt -19.343229 0.839735
vt -19.919136 0.624312
vt -19.912769 0.609994
vt -19.387619 0.171300
vt -19.354378 0.171300
vt -19.321131 0.171300
vt -19.287889 0.171300
vt -19.254644 0.171300
vt -19.254990 0.410842
vt -19.283106 0.410842
vt -19.321131 0.410842
vt -19.359158 0.410842
vt -19.387274 0.410842
vt -19.259321 0.429369
vt -19.283075 0.429369
vt -19.321131 0.429369
vt -19.359192 0.429369
vt -19.382940 0.429369
vt -19.912769 0.285458
vt -19.884474 0.285458
vt -19.883888 0.473338
vt -19.912769 0.473338
vt -19.855007 0.285458
vt -19.855007 0.473338
vt -19.825541 0.285458
vt -19.826124 0.473338
vt -19.797243 0.285458
vt -19.797243 0.473338
vt -19.801025 0.267142
vt -19.825514 0.267142
vt -19.855007 0.267142
vt -19.884501 0.267142
vt -19.908987 0.267142
vt -19.855007 0.489676
vt -19.855007 0.505815
vt -19.883888 0.505815
vt -19.883888 0.489676
vt -19.797243 0.489676
vt -19.797243 0.505916
vt -19.826124 0.505815
vt -19.826124 0.489676
vt -19.912769 0.505916
vt -19.912769 0.489676
s 1
usemtl M_SinkFaucetKnob_1_0
f 5/1/1 8/2/1 78/3/1 77/4/1
f 87/5/2 78/6/3 8/7/4 88/8/5
f 69/9/1 7/10/1 6/11/1 70/12/1
f 84/13/6 7/14/7 69/15/8 85/16/9
f 20/17/10 32/18/11 33/19/12 19/20/10
f 19/20/10 33/19/12 34/21/13 21/22/10
f 30/23/14 36/24/15 37/25/15 29/26/16
f 31/27/17 35/28/15 36/24/15 30/23/14
f 40/29/18 31/27/17 30/23/14 39/30/19
f 39/30/19 30/23/14 29/26/16 38/31/20
f 89/32/21 5/33/22 77/34/22 90/35/23
f 83/36/24 6/37/25 7/38/25 84/39/26
f 88/40/27 8/41/28 5/42/28 89/43/29
f 4/44/30 25/45/31 32/18/11 10/46/32
f 40/29/18 3/47/33 9/48/34 31/27/17
f 31/27/17 9/48/34 2/49/15 35/28/15
f 1/50/10 10/46/32 32/18/11 20/17/10
f 70/51/22 6/52/22 83/53/21 92/54/23
f 25/55/35 76/56/36 75/57/37 24/58/37
f 24/58/37 75/57/37 74/59/38 23/60/38
f 24/61/39 23/62/40 34/21/13 33/19/12
f 32/18/11 25/45/31 24/61/39 33/19/12
f 71/63/36 40/64/35 39/65/41 72/66/37
f 72/66/37 39/65/41 38/67/38 73/68/38
f 62/69/42 47/70/43 48/71/44 61/72/45
f 63/73/46 46/74/47 47/70/43 62/69/42
f 64/75/48 45/76/49 46/77/47 63/78/46
f 52/79/50 41/80/51 42/81/52 51/82/53
f 51/83/53 42/84/52 43/85/54 50/86/55
f 50/86/55 43/85/54 44/87/56 49/88/57
f 64/75/48 11/89/58 18/90/59 45/76/49
f 45/91/49 18/92/59 17/93/60 54/94/61
f 18/92/59 41/80/51 52/79/50 17/93/60
f 11/89/58 58/95/62 41/96/51 18/90/59
f 57/97/63 38/31/20 29/26/16 44/87/56
f 23/62/40 61/72/45 48/71/44 34/21/13
f 44/87/56 29/26/16 37/25/15 49/88/57
f 34/21/13 48/71/44 53/98/64 21/22/10
f 60/99/65 57/97/63 44/87/56 43/85/54
f 59/100/66 60/99/65 43/85/54 42/84/52
f 41/96/51 58/95/62 59/101/66 42/102/52
f 47/70/43 56/103/67 53/98/64 48/71/44
f 45/91/49 54/94/61 55/104/68 46/105/47
f 46/74/47 55/106/68 56/103/67 47/70/43
f 16/107/69 66/108/70 67/109/71 15/110/72
f 67/111/71 68/112/73 14/113/74 15/114/72
f 69/15/8 13/115/75 86/116/76 85/16/9
f 13/117/1 69/9/1 70/12/1 12/118/1
f 12/119/22 70/51/22 92/54/23 91/120/77
f 28/121/78 71/63/36 72/66/37 27/122/37
f 27/122/37 72/66/37 73/68/38 26/123/79
f 75/57/37 27/122/37 26/123/79 74/59/38
f 76/56/36 28/121/78 27/122/37 75/57/37
f 77/34/22 12/119/22 91/120/77 90/35/23
f 78/3/1 13/117/1 12/118/1 77/4/1
f 86/116/76 13/115/75 78/6/3 87/5/2
f 14/113/74 79/124/80 80/125/81 15/114/72
f 80/126/81 81/127/82 16/107/69 15/110/72
f 66/108/70 2/128/83 9/129/84 67/109/71
f 9/130/84 3/131/85 68/112/73 67/111/71
f 79/124/80 4/132/86 10/133/87 80/125/81
f 10/134/87 1/135/88 81/127/82 80/126/81
f 40/29/18 83/36/24 84/39/26 3/47/33
f 3/131/85 84/13/6 85/16/9 68/112/73
f 86/116/76 14/113/74 68/112/73 85/16/9
f 14/113/74 86/116/76 87/5/2 79/124/80
f 79/124/80 87/5/2 88/8/5 4/132/86
f 4/44/30 88/40/27 89/43/29 25/45/31
f 25/55/35 89/136/21 90/137/23 76/56/36
f 91/138/77 28/121/78 76/56/36 90/137/23
f 92/139/23 71/63/36 28/121/78 91/138/77
f 83/140/21 40/64/35 71/63/36 92/139/23
f 57/141/1 93/142/1 73/68/38 38/67/38
f 94/143/1 26/123/79 73/68/38 93/142/1
f 95/144/1 74/59/38 26/123/79 94/143/1
f 61/145/1 23/60/38 74/59/38 95/144/1
f 57/141/1 60/146/1 96/147/1 93/142/1
f 97/148/1 94/143/1 93/142/1 96/147/1
f 98/149/1 95/144/1 94/143/1 97/148/1
f 62/150/1 61/145/1 95/144/1 98/149/1
f 60/146/1 59/101/1 58/95/1 96/147/1
f 11/89/1 97/148/1 96/147/1 58/95/1
f 64/75/1 98/149/1 97/148/1 11/89/1
f 63/78/1 62/150/1 98/149/1 64/75/1
f 53/151/89 104/152/89 82/153/89 21/154/89
f 103/155/89 22/156/89 82/153/89 104/152/89
f 102/157/89 65/158/89 22/156/89 103/155/89
f 49/159/89 37/160/89 65/158/89 102/157/89
f 51/82/89 50/161/89 99/162/89 52/79/89
f 52/79/89 99/162/89 100/163/89 17/93/89
f 17/93/89 100/163/89 101/164/89 54/94/89
f 56/165/89 55/104/89 54/94/89 101/164/89
f 50/161/89 49/159/89 102/157/89 99/162/89
f 99/162/89 102/157/89 103/155/89 100/163/89
f 100/163/89 103/155/89 104/152/89 101/164/89
f 53/151/89 56/165/89 101/164/89 104/152/89
f 106/166/89 109/167/89 108/168/89 107/169/89
f 36/170/89 35/171/89 110/172/89 105/173/89
f 105/173/89 110/172/89 109/167/89 106/166/89
f 107/169/89 108/168/89 20/174/89 19/175/89
f 37/160/89 36/170/89 105/173/89 65/158/89
f 65/158/89 105/173/89 106/166/89 22/156/89
f 22/156/89 106/166/89 107/169/89 82/153/89
f 82/153/89 107/169/89 19/175/89 21/154/89
f 108/168/89 81/127/82 1/135/88 20/174/89
f 109/167/89 16/107/69 81/127/82 108/168/89
f 110/172/89 66/108/70 16/107/69 109/167/89
f 35/171/89 2/128/83 66/108/70 110/172/89
