# Blender 4.1.0
# www.blender.org
mtllib FridgeDrawer2_14_FridgeDrawer2C2_2_GeomSubset_4.mtl
o FridgeDrawer2_14_FridgeDrawer2C2_2_GeomSubset_4
v -0.000957 0.030103 -1.040654
v -0.000948 0.030103 -1.040654
v -0.000957 0.030112 -1.040654
v -0.000948 0.030112 -1.040654
v -0.000957 0.030103 -1.040654
v -0.000948 0.030103 -1.040654
v -0.000957 0.030112 -1.040654
v -0.000948 0.030112 -1.040654
v -0.000957 0.030103 -1.040654
v -0.000948 0.030103 -1.040654
v -0.000957 0.030112 -1.040654
v -0.000948 0.030112 -1.040654
v -0.000957 0.030103 -1.040654
v -0.000948 0.030103 -1.040654
v -0.000957 0.030112 -1.040654
v -0.000948 0.030112 -1.040654
v -0.000957 0.030103 -1.040654
v -0.000948 0.030103 -1.040654
v -0.000957 0.030112 -1.040654
v -0.000948 0.030112 -1.040654
v -0.000957 0.030103 -1.040654
v -0.000948 0.030103 -1.040654
v -0.000957 0.030112 -1.040654
v -0.000948 0.030112 -1.040654
v -0.000957 0.030103 -1.040654
v -0.000948 0.030103 -1.040654
v -0.000957 0.030112 -1.040654
v -0.000948 0.030112 -1.040654
v 0.027587 0.146680 0.283476
v 0.458975 0.146679 0.283476
v 0.027587 0.077098 0.165681
v 0.027587 0.072147 0.162717
v 0.458975 0.072145 0.162717
v 0.458975 0.077097 0.165681
v 0.027587 0.146680 0.291556
v 0.027587 0.077098 0.291556
v 0.027587 0.072147 0.291556
v 0.027586 -0.180427 0.291556
v 0.458975 0.077097 0.291556
v 0.458975 0.146679 0.291556
v 0.458975 0.072145 0.291556
v 0.458974 -0.180428 0.291556
v 0.458974 -0.143564 0.162717
v 0.458974 -0.164016 0.185349
v 0.027586 -0.164015 0.185350
v 0.027587 -0.143563 0.162717
v 0.027586 -0.162458 0.176689
v 0.458974 -0.162460 0.176689
v 0.027586 -0.158025 0.169346
v 0.458974 -0.158026 0.169346
v 0.027587 -0.151390 0.164439
v 0.458974 -0.151391 0.164439
v 0.032275 0.138313 0.286234
v 0.454288 0.138312 0.286234
v 0.451699 0.072456 0.171263
v 0.034863 0.072457 0.171263
v 0.454442 -0.155356 0.187123
v 0.451809 -0.173565 0.292855
v 0.034752 -0.173564 0.292855
v 0.032119 -0.155354 0.187123
v 0.451699 0.070463 0.170070
v 0.034863 0.070464 0.170070
v 0.037721 0.077098 0.291556
v 0.034753 0.139717 0.291556
v 0.037721 0.072147 0.291556
v 0.454371 -0.154354 0.180404
v 0.454371 -0.151823 0.176211
v 0.454371 -0.148034 0.173409
v 0.454425 -0.142702 0.172407
v 0.448841 0.072145 0.291556
v 0.451810 0.139716 0.291556
v 0.448841 0.077097 0.291556
v 0.032136 -0.142701 0.172407
v 0.032189 -0.148032 0.173409
v 0.032189 -0.151821 0.176211
v 0.032189 -0.154353 0.180404
v 0.037141 0.071805 0.266906
v 0.034106 -0.169095 0.266906
v 0.449421 0.071804 0.266906
v 0.449427 0.076146 0.266906
v 0.453852 0.127240 0.266906
v 0.452455 -0.169096 0.266906
v 0.037135 0.076147 0.266906
v 0.032710 0.127242 0.266906
v 0.027587 0.136892 0.266906
v 0.458975 0.136891 0.266906
v 0.458974 -0.176619 0.266906
v 0.027586 -0.176618 0.266906
v 0.027587 0.077098 0.266906
v 0.027587 0.072147 0.266906
v 0.458975 0.072145 0.266906
v 0.458975 0.077097 0.266906
v 0.027586 -0.194314 0.291556
v 0.458974 -0.194316 0.291556
v 0.458974 -0.190506 0.266906
v 0.027586 -0.190505 0.266906
vn -0.0000 -0.0000 1.0000
vn -0.0000 0.3842 0.9232
vn -0.0000 0.0154 0.9999
vn 0.0008 0.0154 0.9999
vn -0.0000 0.7419 0.6706
vn -0.0000 0.7418 0.6706
vn -0.0000 0.9516 0.3074
vn -0.0000 0.9858 0.1680
vn -0.0000 0.0053 1.0000
vn -0.0000 -0.8627 0.5058
vn -0.0001 0.8493 -0.5280
vn -0.0000 0.0136 -0.9999
vn -0.0000 0.8493 -0.5280
vn -0.0000 -0.0079 -1.0000
vn -0.0000 -0.9879 -0.1551
vn -0.0000 -0.9365 -0.3507
vn -0.0000 -0.7420 -0.6704
vn -0.0000 -0.4167 -0.9091
vn -0.0000 -0.4166 -0.9091
vn 0.9996 -0.0128 -0.0241
vn 0.9996 -0.0131 -0.0242
vn 0.9996 -0.0132 -0.0239
vn 0.9996 -0.0130 -0.0239
vn -0.9996 -0.0128 -0.0242
vn -0.9961 0.0769 -0.0437
vn -0.9980 0.0576 -0.0259
vn -0.9996 -0.0130 -0.0239
vn -0.9950 0.0837 -0.0552
vn -0.9996 -0.0132 -0.0239
vn 0.9980 0.0576 -0.0259
vn 0.9961 0.0769 -0.0437
vn 0.9950 0.0837 -0.0552
vn -0.0000 0.9855 0.1697
vn -0.0000 -0.8677 0.4970
vn -0.0000 0.8610 -0.5086
vn -0.0000 -0.9883 -0.1527
vn -1.0000 -0.0000 -0.0000
vn 1.0000 -0.0000 -0.0000
vt -68.999817 -112.292168
vt -68.999817 -112.292175
vt -68.999809 -112.292175
vt -68.999809 -112.292168
vt -71.563553 -0.999075
vt -71.549011 -0.999220
vt -71.549011 0.152274
vt -71.563553 0.152129
vt -71.573883 -0.999075
vt -71.573883 0.152129
vt -71.580788 -0.999075
vt -71.580788 0.152129
vt -71.363350 -0.998659
vt -71.345047 -0.998466
vt -71.345047 0.151562
vt -71.363350 0.151753
vt -70.967758 0.144839
vt -70.967758 -0.991786
vt -70.962326 -0.991786
vt -70.962326 0.144839
vt -72.077187 -1.061297
vt -72.062424 -1.061297
vt -72.062424 0.225055
vt -72.077187 0.225055
vt -71.419197 -1.061297
vt -71.419197 0.225055
vt -71.672249 -1.005045
vt -71.672256 0.168804
vt -71.695816 0.168804
vt -71.695816 -1.005045
vt -71.362854 -1.061297
vt -71.362854 0.225055
vt -71.376076 0.225055
vt -71.376076 -1.061297
vt -71.395859 0.225055
vt -71.395859 -1.061297
vt -71.359581 -0.237214
vt -71.359581 0.414557
vt -71.575439 0.377382
vt -71.593613 0.374673
vt -71.604958 0.367823
vt -71.612541 0.357571
vt -71.615250 0.343145
vt -71.621574 -0.233586
vt -71.479218 0.264570
vt -71.479218 0.276317
vt -71.737984 0.266333
vt -71.741211 0.260942
vt -71.479218 0.414556
vt -71.734886 -0.315789
vt -71.732178 -0.330214
vt -71.724594 -0.340466
vt -71.713249 -0.347316
vt -71.695076 -0.350025
vt -71.479218 -0.387200
vt -71.618347 -0.238977
vt -71.359581 -0.248961
vt -71.359581 -0.387200
vt -71.580681 0.146341
vt -71.580681 -0.993246
vt -70.976227 -0.534980
vt -70.976227 0.687762
vt -71.253922 0.681510
vt -71.253922 -0.528728
vt -72.255486 -1.061297
vt -72.255486 0.225055
vt -71.450325 0.168804
vt -71.450325 -1.005045
vt -71.097443 0.275313
vt -71.097443 0.437029
vt -71.371208 0.275313
vt -71.097443 0.261921
vt -71.379227 0.261921
vt -71.225723 -0.235729
vt -71.225723 0.437070
vt -71.446297 0.402985
vt -71.469727 0.398774
vt -71.489586 0.386784
vt -71.502853 0.368839
vt -71.507515 0.347671
vt -71.507515 -0.235729
vt -71.225723 -0.410837
vt -71.225723 -0.249121
vt -71.499496 -0.249121
vt -71.379227 -0.321479
vt -71.374565 -0.342646
vt -71.361298 -0.360591
vt -71.341438 -0.372582
vt -71.318008 -0.376792
vt -71.097443 -0.410878
s 1
usemtl M_FridgeDrawer2C2_4
f 17/1/1 18/2/1 20/3/1 19/4/1
f 68/5/2 69/6/3 73/7/4 74/8/2
f 67/9/5 68/5/2 74/8/2 75/10/6
f 66/11/7 67/9/5 75/10/6 76/12/7
f 57/13/8 66/14/7 76/15/7 60/16/8
f 62/17/9 73/7/4 69/6/3 61/18/9
f 55/19/10 56/20/10 62/17/9 61/18/9
f 34/21/11 33/22/12 32/23/12 31/24/13
f 32/23/12 33/22/12 43/25/14 46/26/14
f 44/27/15 45/28/15 47/29/16 48/30/16
f 48/31/16 47/32/16 49/33/17 50/34/17
f 50/34/17 49/33/17 51/35/18 52/36/19
f 52/36/19 51/35/18 46/26/14 43/25/14
f 77/37/20 78/38/21 60/39/22 76/40/22 75/41/22 74/42/22 73/43/22 62/44/23
f 79/45/24 80/46/25 55/47/26 61/48/27
f 80/46/25 81/49/28 55/47/26
f 79/45/24 61/48/27 69/50/29 68/51/29 67/52/29 66/53/29 57/54/29 82/55/29
f 77/37/20 62/44/23 56/56/30 83/57/31
f 83/57/31 56/56/30 84/58/32
f 57/13/8 60/16/8 78/59/33 82/60/33
f 81/61/34 84/62/34 56/63/10 55/64/10
f 86/65/35 34/21/11 31/24/13 85/66/35
f 88/67/36 45/28/15 44/27/15 87/68/36
f 89/69/37 85/70/37 31/71/37
f 90/72/37 89/69/37 31/71/37 32/73/37
f 91/74/38 87/75/38 44/76/38 48/77/38 50/78/38 52/79/38 43/80/38 33/81/38
f 86/82/38 92/83/38 34/84/38
f 91/74/38 33/81/38 34/84/38 92/83/38
f 90/72/37 32/73/37 46/85/37 51/86/37 49/87/37 47/88/37 45/89/37 88/90/37
