# Blender 4.1.0
# www.blender.org
mtllib FridgeDrawer4_14_FridgeDrawer4C2_4_GeomSubset_5.mtl
o FridgeDrawer4_14_FridgeDrawer4C2_4_GeomSubset_5
v -0.000957 0.030103 -1.040654
v -0.000948 0.030103 -1.040654
v -0.000957 0.030112 -1.040654
v -0.000948 0.030112 -1.040654
v -0.000957 0.030103 -1.040654
v -0.000948 0.030103 -1.040654
v -0.000957 0.030112 -1.040654
v -0.000948 0.030112 -1.040654
v -0.000957 0.030103 -1.040654
v -0.000948 0.030103 -1.040654
v -0.000957 0.030112 -1.040654
v -0.000948 0.030112 -1.040654
v -0.000957 0.030103 -1.040654
v -0.000948 0.030103 -1.040654
v -0.000957 0.030112 -1.040654
v -0.000948 0.030112 -1.040654
v -0.000957 0.030103 -1.040654
v -0.000948 0.030103 -1.040654
v -0.000957 0.030112 -1.040654
v -0.000948 0.030112 -1.040654
v -0.000957 0.030103 -1.040654
v -0.000948 0.030103 -1.040654
v -0.000957 0.030112 -1.040654
v -0.000948 0.030112 -1.040654
v -0.000957 0.030103 -1.040654
v -0.000948 0.030103 -1.040654
v -0.000957 0.030112 -1.040654
v -0.000948 0.030112 -1.040654
v 0.027587 0.146680 0.110231
v 0.458975 0.146679 0.110231
v 0.027587 0.077098 -0.007564
v 0.027587 0.072147 -0.010529
v 0.458975 0.072145 -0.010529
v 0.458975 0.077097 -0.007564
v 0.027587 0.146680 0.118311
v 0.027587 0.077098 0.118311
v 0.027587 0.072147 0.118311
v 0.027586 -0.180427 0.118311
v 0.458975 0.077097 0.118311
v 0.458975 0.146679 0.118311
v 0.458975 0.072145 0.118311
v 0.458974 -0.180428 0.118311
v 0.458974 -0.143564 -0.010529
v 0.458974 -0.164016 0.012105
v 0.027586 -0.164015 0.012105
v 0.027587 -0.143563 -0.010529
v 0.027586 -0.162458 0.003444
v 0.458974 -0.162460 0.003444
v 0.027586 -0.158025 -0.003899
v 0.458974 -0.158026 -0.003899
v 0.027587 -0.151390 -0.008806
v 0.458974 -0.151391 -0.008806
v 0.032275 0.138313 0.112990
v 0.454288 0.138312 0.112990
v 0.451699 0.072456 -0.001982
v 0.034863 0.072457 -0.001982
v 0.454442 -0.155356 0.013878
v 0.451809 -0.173565 0.119610
v 0.034752 -0.173564 0.119610
v 0.032119 -0.155354 0.013878
v 0.451699 0.070463 -0.003175
v 0.034863 0.070464 -0.003175
v 0.037721 0.077098 0.118311
v 0.034753 0.139717 0.118311
v 0.037721 0.072147 0.118311
v 0.454371 -0.154354 0.007159
v 0.454371 -0.151823 0.002966
v 0.454371 -0.148034 0.000165
v 0.454425 -0.142702 -0.000838
v 0.448841 0.072145 0.118311
v 0.451810 0.139716 0.118311
v 0.448841 0.077097 0.118311
v 0.032136 -0.142701 -0.000838
v 0.032189 -0.148032 0.000165
v 0.032189 -0.151821 0.002966
v 0.032189 -0.154353 0.007159
v 0.037141 0.071805 0.093661
v 0.034106 -0.169095 0.093661
v 0.449421 0.071804 0.093661
v 0.449427 0.076146 0.093661
v 0.453852 0.127240 0.093661
v 0.452455 -0.169096 0.093661
v 0.037135 0.076147 0.093661
v 0.032710 0.127242 0.093661
v 0.027587 0.136892 0.093661
v 0.458975 0.136891 0.093661
v 0.458974 -0.176619 0.093661
v 0.027586 -0.176618 0.093661
v 0.027587 0.077098 0.093661
v 0.027587 0.072147 0.093661
v 0.458975 0.072145 0.093661
v 0.458975 0.077097 0.093661
v 0.027586 -0.194314 0.118311
v 0.458974 -0.194316 0.118311
v 0.458974 -0.190506 0.093661
v 0.027586 -0.190505 0.093661
vn -0.0000 -0.0000 1.0000
vt 5.646933 -121.224083
vt 7.358486 -121.224083
vt 7.358486 -119.512527
vt 5.646933 -119.512527
s 1
usemtl M_FridgeDrawer4C2_5
f 21/1/1 22/2/1 24/3/1 23/4/1
