# Blender 4.1.0
# www.blender.org
mtllib FridgeDrawer2_14_FridgeDrawer2C2_2_GeomSubset_0.mtl
o FridgeDrawer2_14_FridgeDrawer2C2_2_GeomSubset_0
v -0.000957 0.030103 -1.040654
v -0.000948 0.030103 -1.040654
v -0.000957 0.030112 -1.040654
v -0.000948 0.030112 -1.040654
v -0.000957 0.030103 -1.040654
v -0.000948 0.030103 -1.040654
v -0.000957 0.030112 -1.040654
v -0.000948 0.030112 -1.040654
v -0.000957 0.030103 -1.040654
v -0.000948 0.030103 -1.040654
v -0.000957 0.030112 -1.040654
v -0.000948 0.030112 -1.040654
v -0.000957 0.030103 -1.040654
v -0.000948 0.030103 -1.040654
v -0.000957 0.030112 -1.040654
v -0.000948 0.030112 -1.040654
v -0.000957 0.030103 -1.040654
v -0.000948 0.030103 -1.040654
v -0.000957 0.030112 -1.040654
v -0.000948 0.030112 -1.040654
v -0.000957 0.030103 -1.040654
v -0.000948 0.030103 -1.040654
v -0.000957 0.030112 -1.040654
v -0.000948 0.030112 -1.040654
v -0.000957 0.030103 -1.040654
v -0.000948 0.030103 -1.040654
v -0.000957 0.030112 -1.040654
v -0.000948 0.030112 -1.040654
v 0.027587 0.146680 0.283476
v 0.458975 0.146679 0.283476
v 0.027587 0.077098 0.165681
v 0.027587 0.072147 0.162717
v 0.458975 0.072145 0.162717
v 0.458975 0.077097 0.165681
v 0.027587 0.146680 0.291556
v 0.027587 0.077098 0.291556
v 0.027587 0.072147 0.291556
v 0.027586 -0.180427 0.291556
v 0.458975 0.077097 0.291556
v 0.458975 0.146679 0.291556
v 0.458975 0.072145 0.291556
v 0.458974 -0.180428 0.291556
v 0.458974 -0.143564 0.162717
v 0.458974 -0.164016 0.185349
v 0.027586 -0.164015 0.185350
v 0.027587 -0.143563 0.162717
v 0.027586 -0.162458 0.176689
v 0.458974 -0.162460 0.176689
v 0.027586 -0.158025 0.169346
v 0.458974 -0.158026 0.169346
v 0.027587 -0.151390 0.164439
v 0.458974 -0.151391 0.164439
v 0.032275 0.138313 0.286234
v 0.454288 0.138312 0.286234
v 0.451699 0.072456 0.171263
v 0.034863 0.072457 0.171263
v 0.454442 -0.155356 0.187123
v 0.451809 -0.173565 0.292855
v 0.034752 -0.173564 0.292855
v 0.032119 -0.155354 0.187123
v 0.451699 0.070463 0.170070
v 0.034863 0.070464 0.170070
v 0.037721 0.077098 0.291556
v 0.034753 0.139717 0.291556
v 0.037721 0.072147 0.291556
v 0.454371 -0.154354 0.180404
v 0.454371 -0.151823 0.176211
v 0.454371 -0.148034 0.173409
v 0.454425 -0.142702 0.172407
v 0.448841 0.072145 0.291556
v 0.451810 0.139716 0.291556
v 0.448841 0.077097 0.291556
v 0.032136 -0.142701 0.172407
v 0.032189 -0.148032 0.173409
v 0.032189 -0.151821 0.176211
v 0.032189 -0.154353 0.180404
v 0.037141 0.071805 0.266906
v 0.034106 -0.169095 0.266906
v 0.449421 0.071804 0.266906
v 0.449427 0.076146 0.266906
v 0.453852 0.127240 0.266906
v 0.452455 -0.169096 0.266906
v 0.037135 0.076147 0.266906
v 0.032710 0.127242 0.266906
v 0.027587 0.136892 0.266906
v 0.458975 0.136891 0.266906
v 0.458974 -0.176619 0.266906
v 0.027586 -0.176618 0.266906
v 0.027587 0.077098 0.266906
v 0.027587 0.072147 0.266906
v 0.458975 0.072145 0.266906
v 0.458975 0.077097 0.266906
v 0.027586 -0.194314 0.291556
v 0.458974 -0.194316 0.291556
v 0.458974 -0.190506 0.266906
v 0.027586 -0.190505 0.266906
vn -0.0000 -0.0000 1.0000
vn -0.0000 -0.8870 0.4618
vn -0.0000 -0.9669 0.2551
vn -0.0320 -0.1075 0.9937
vn -0.0100 -0.0313 0.9995
vn 0.0100 -0.0313 0.9995
vn 0.0320 -0.1075 0.9937
vn -0.0744 0.0030 0.9972
vn 0.0744 0.0030 0.9972
vn -0.0000 0.9294 -0.3690
vn -0.0000 1.0000 -0.0000
vn 0.9996 -0.0124 -0.0252
vn 0.9996 -0.0131 -0.0242
vn 0.9996 -0.0128 -0.0241
vn 0.9996 -0.0121 -0.0252
vn -0.9943 0.0757 -0.0756
vn -0.9961 0.0769 -0.0437
vn -0.9996 -0.0128 -0.0242
vn -0.9996 -0.0121 -0.0252
vn -0.9935 0.0815 -0.0796
vn -0.9950 0.0837 -0.0552
vn -0.9996 -0.0124 -0.0252
vn -0.9996 -0.0131 -0.0241
vn 0.9943 0.0757 -0.0756
vn 0.9961 0.0769 -0.0437
vn 0.9950 0.0837 -0.0552
vn 0.9935 0.0815 -0.0796
vn -0.0000 0.9855 0.1697
vn -0.0000 -0.8677 0.4970
vn -0.0000 0.8610 -0.5086
vn -0.0000 -0.9883 -0.1527
vn -1.0000 -0.0000 -0.0000
vn 1.0000 -0.0000 -0.0000
vn -0.0000 -0.0000 -1.0000
vt -169.521179 -113.841446
vt -169.521179 -113.841530
vt -169.521103 -113.841530
vt -169.521103 -113.841446
vt -170.191101 0.694077
vt -170.191101 -0.603539
vt -170.174744 -0.595919
vt -170.174744 0.686457
vt -171.118408 0.658810
vt -171.138321 0.679603
vt -171.138321 -0.572192
vt -171.118408 -0.551400
vt -170.209320 0.658810
vt -170.189133 0.679603
vt -170.391022 0.679603
vt -170.391022 0.650198
vt -170.405396 0.679603
vt -170.405396 0.650198
vt -170.405396 -0.572192
vt -170.405396 -0.542786
vt -170.391022 -0.542786
vt -170.391022 -0.572192
vt -170.189133 -0.572192
vt -170.209320 -0.551400
vt -170.359695 0.711423
vt -170.384323 0.711423
vt -170.384323 -0.604011
vt -170.359695 -0.604011
vt -169.965240 0.401357
vt -170.040451 0.388406
vt -170.040451 -0.309712
vt -169.968994 -0.310701
vt -169.913666 0.219933
vt -169.985107 0.217176
vt -169.985107 0.204592
vt -169.913666 0.205581
vt -169.913666 0.401430
vt -169.929077 0.397360
vt -169.985107 0.365270
vt -169.909882 -0.506590
vt -169.985107 -0.493637
vt -169.968994 -0.325050
vt -170.040451 -0.322294
vt -170.040451 -0.470364
vt -169.984421 -0.502449
vt -169.968994 -0.506518
vt -170.122528 0.652286
vt -170.198212 0.650401
vt -170.198212 -0.566457
vt -170.122528 -0.568342
vt -170.250519 0.692739
vt -170.250519 -0.602201
vt -170.309174 -0.604011
vt -170.309174 0.711423
vt -170.331573 0.682141
vt -170.331573 -0.574730
vt -170.259766 -0.574730
vt -170.259766 0.682141
vt -170.070511 0.264642
vt -170.070511 0.466176
vt -170.093903 0.466176
vt -170.141891 0.437825
vt -170.141891 0.264642
vt -170.141891 0.250301
vt -170.070511 0.250301
vt -170.019409 -0.305579
vt -170.019409 0.425949
vt -170.090805 0.414917
vt -170.090805 -0.305579
vt -170.019409 -0.319920
vt -170.090805 -0.319920
vt -170.090805 -0.493101
vt -170.042831 -0.521451
vt -170.019409 -0.521451
vt -170.070511 -0.481234
vt -170.141891 -0.470202
vt -171.178619 0.679603
vt -171.178619 -0.572192
vt -170.141891 -0.510423
vt -170.070511 -0.521456
vt -170.274368 0.678265
vt -170.274368 -0.570853
vt -170.234131 -0.570853
vt -170.234131 0.678265
vt -170.019409 0.466171
vt -170.090805 0.455137
s 1
usemtl M_FridgeDrawer2C2_0
f 1/1/1 2/2/1 4/3/1 3/4/1
f 53/5/2 54/6/2 71/7/3 64/8/3
f 59/9/4 38/10/5 42/11/6 58/12/7
f 64/13/1 35/14/1 36/15/1 63/16/1
f 63/16/1 36/15/1 37/17/8 65/18/8
f 58/12/7 42/11/6 41/19/9 70/20/9
f 72/21/1 39/22/1 40/23/1 71/24/1
f 70/20/9 41/19/9 39/22/1 72/21/1
f 65/18/8 37/17/8 38/10/5 59/9/4
f 71/24/1 40/23/1 35/14/1 64/13/1
f 29/25/10 35/26/11 40/27/11 30/28/10
f 59/29/12 78/30/13 77/31/14 65/32/15
f 72/33/16 80/34/17 79/35/18 70/36/19
f 72/33/16 71/37/20 54/38/20 81/39/21 80/34/17
f 58/40/22 70/36/19 79/35/18 82/41/23
f 63/42/24 65/32/15 77/31/14 83/43/25
f 63/42/24 83/43/25 84/44/26 53/45/27 64/46/27
f 78/47/28 59/48/28 58/49/28 82/50/28
f 54/6/2 53/5/2 84/51/29 81/52/29
f 86/53/30 85/54/30 29/25/10 30/28/10
f 96/55/31 95/56/31 94/57/31 93/58/31
f 36/59/32 35/60/32 29/61/32 85/62/32 89/63/32
f 90/64/32 37/65/32 36/59/32 89/63/32
f 41/66/33 42/67/33 87/68/33 91/69/33
f 39/70/33 92/71/33 86/72/33 30/73/33 40/74/33
f 92/71/33 39/70/33 41/66/33 91/69/33
f 38/75/32 37/65/32 90/64/32 88/76/32
f 42/11/6 38/10/5 93/77/1 94/78/1
f 38/75/32 88/76/32 96/79/32 93/80/32
f 88/81/34 87/82/34 95/83/34 96/84/34
f 87/68/33 42/67/33 94/85/33 95/86/33
