# Blender 4.1.1
# www.blender.org
mtllib Sink_11_Sink_11_0_GeomSubset_0.mtl
o Sink_11_Sink_11_0_GeomSubset_0
v 0.321946 0.239457 -0.065550
v 0.327440 0.239457 -0.056202
v 0.323192 0.243707 -0.056202
v 0.002200 0.243745 -0.056202
v 0.327440 -0.163681 -0.056202
v 0.323153 0.243744 0.068347
v 0.327440 0.239457 0.068349
v 0.315680 0.236426 0.078926
v 0.301887 0.213904 0.013661
v 0.297840 0.212213 0.007814
v 0.297147 0.218645 0.013148
v 0.294790 0.215226 0.007328
v 0.320120 0.231362 0.078925
v 0.296874 0.218915 0.073248
v 0.300082 0.221265 0.078926
v 0.301887 0.213904 0.073248
v 0.305818 0.215531 0.078926
v 0.002200 0.243745 0.068349
v 0.002200 0.239457 -0.065550
v 0.322214 -0.163681 -0.065550
v 0.002200 0.218915 0.012591
v 0.002200 0.210263 0.008119
v 0.327440 -0.163681 0.068329
v 0.301898 -0.163600 0.074926
v 0.320107 -0.163919 0.078886
v 0.304759 -0.163681 0.078783
v 0.002200 0.215263 0.007221
v 0.002200 0.236426 0.078926
v 0.002200 0.218915 0.073248
v 0.322282 -0.198702 -0.065550
v -0.317547 0.239457 -0.065550
v 0.327440 -0.198702 -0.056202
v 0.301050 -0.164548 0.071165
v 0.318026 -0.206596 -0.056202
v -0.318790 0.243707 -0.056202
v 0.318062 -0.206583 0.068349
v 0.002200 -0.198701 -0.065550
v 0.002200 -0.164543 0.071142
v 0.327440 -0.198702 0.068349
v -0.290387 0.215222 0.007290
v 0.320120 -0.195292 0.078926
v -0.292475 0.218915 0.073248
v 0.301898 -0.180034 0.078926
v -0.311281 0.236426 0.078926
v 0.315373 -0.199282 0.078926
v 0.002200 -0.206596 -0.056202
v 0.002200 -0.163678 -0.065550
v -0.318754 0.243744 0.068347
v -0.292745 0.218645 0.013148
v -0.323040 0.239457 -0.056202
v -0.293453 0.210781 0.008010
v -0.317811 -0.163680 -0.065550
v 0.002200 -0.180034 0.078926
v 0.002200 -0.208805 0.068265
v -0.297488 0.213904 0.013661
v -0.297488 0.213904 0.073248
v -0.323040 0.239457 0.068349
v -0.295680 0.221265 0.078926
v -0.315717 0.231362 0.078925
v -0.301416 0.215531 0.078926
v 0.002200 -0.201543 0.078926
v -0.317882 -0.198702 -0.065550
v -0.313626 -0.206596 -0.056202
v -0.297498 -0.163600 0.074926
v -0.323040 -0.163680 -0.056202
v -0.300360 -0.163681 0.078783
v -0.323040 -0.163681 0.068329
v -0.296648 -0.164553 0.071121
v -0.315705 -0.163919 0.078886
v -0.313663 -0.206583 0.068349
v -0.310971 -0.199282 0.078926
v -0.323040 -0.198702 -0.056202
v -0.297500 -0.180034 0.078926
v -0.323040 -0.198702 0.068349
v -0.315721 -0.195292 0.078926
v 0.002200 0.221265 0.078926
v 0.002200 0.111100 -0.065550
v 0.018623 0.195799 0.011302
v 0.028853 0.185132 0.012787
v 0.002200 0.200860 0.009458
v 0.031790 0.169411 0.014974
v -0.014180 0.195759 0.011305
v 0.027153 0.153203 0.017229
v -0.024427 0.185097 0.012787
v 0.018413 0.143167 0.018625
v -0.027386 0.169403 0.014971
v 0.002200 0.139506 0.019466
v -0.022752 0.153202 0.017225
v -0.014011 0.143167 0.018622
v 0.322031 0.111100 -0.065550
v 0.327440 0.111100 -0.056202
v 0.327440 0.111100 0.068342
v 0.320115 0.111100 0.078913
v 0.305525 0.111100 0.078887
v 0.301892 0.111100 0.073706
v -0.297489 0.111100 0.073706
v -0.301125 0.111100 0.078887
v -0.315715 0.111100 0.078913
v -0.323040 0.111100 0.068342
v -0.323040 0.111100 -0.056202
v -0.317632 0.111100 -0.065550
v 0.301892 0.111100 0.030345
v 0.298700 0.111093 0.024817
v -0.294301 0.111093 0.024773
v -0.297489 0.111100 0.030345
v 0.160639 0.124317 0.022583
v 0.159684 0.173213 0.014361
v 0.160754 0.040519 0.036673
v -0.156241 0.124174 0.022583
v -0.155288 0.172689 0.014426
v -0.156356 0.040471 0.036658
v 0.013576 0.187937 0.002138
v 0.020661 0.180550 0.003167
v 0.002201 0.191431 0.000861
v 0.022697 0.169661 0.004682
v -0.009146 0.187912 0.002140
v 0.019485 0.158433 0.006244
v -0.016244 0.180525 0.003167
v 0.013430 0.151483 0.007210
v -0.018292 0.169655 0.004680
v 0.002201 0.148935 0.007793
v -0.015083 0.158433 0.006241
v -0.009029 0.151483 0.007209
v 0.002203 0.169820 0.004584
v -0.024763 0.186360 0.015850
v -0.013406 0.197603 0.014242
v 0.002108 0.201718 0.013654
v 0.017622 0.197603 0.014242
v 0.028979 0.186360 0.015850
v 0.033136 0.171002 0.018045
v 0.028979 0.155645 0.020241
v 0.017622 0.144402 0.021848
v 0.002108 0.140287 0.022436
v -0.013406 0.144402 0.021848
v -0.024763 0.155645 0.020241
v -0.028920 0.171002 0.018045
v -0.023091 0.186056 0.020538
v -0.012441 0.196599 0.019031
v 0.002108 0.200459 0.018479
v 0.016657 0.196599 0.019031
v 0.027308 0.186056 0.020538
v 0.031206 0.171653 0.022597
v 0.027308 0.157251 0.024656
v 0.016657 0.146707 0.026163
v 0.002108 0.142848 0.026715
v -0.012441 0.146707 0.026163
v -0.023091 0.157251 0.024656
v -0.026990 0.171653 0.022597
v 0.002108 0.172471 0.028318
v -0.019349 0.184407 0.024277
v -0.011422 0.180204 0.027213
v -0.005703 0.185864 0.026404
v -0.010280 0.193385 0.022994
v 0.002108 0.187937 0.026107
v 0.002108 0.196670 0.022524
v 0.009920 0.185864 0.026404
v 0.014496 0.193385 0.022994
v 0.015638 0.180204 0.027213
v 0.023565 0.184407 0.024277
v 0.017731 0.172471 0.028318
v 0.026884 0.172144 0.026030
v 0.015638 0.164739 0.029424
v 0.023565 0.159881 0.027783
v 0.009920 0.159077 0.030233
v 0.014496 0.150903 0.029067
v 0.002108 0.157006 0.030529
v 0.002108 0.147617 0.029536
v -0.005703 0.159077 0.030233
v -0.010280 0.150903 0.029067
v -0.011422 0.164739 0.029424
v -0.019349 0.159881 0.027783
v -0.013515 0.172471 0.028318
v -0.022668 0.172144 0.026030
v -0.018941 0.183032 0.016325
v -0.010044 0.191840 0.015066
v 0.002108 0.195064 0.014606
v 0.014261 0.191840 0.015066
v 0.023157 0.183032 0.016325
v 0.026414 0.171002 0.018045
v 0.023157 0.158972 0.019765
v 0.014261 0.150165 0.021024
v 0.002108 0.146941 0.021485
v -0.010044 0.150165 0.021024
v -0.018941 0.158972 0.019765
v -0.022197 0.171002 0.018045
v -0.018941 0.181284 0.004093
v -0.010044 0.190091 0.002834
v 0.002108 0.169254 0.005813
v 0.002108 0.193314 0.002373
v 0.014261 0.190091 0.002834
v 0.023157 0.181284 0.004093
v 0.026414 0.169254 0.005813
v 0.023157 0.157223 0.007532
v 0.014261 0.148417 0.008791
v 0.002108 0.145193 0.009252
v -0.010044 0.148417 0.008791
v -0.018941 0.157223 0.007532
v -0.022197 0.169254 0.005813
v -0.005007 0.217814 0.065827
v -0.001960 0.217814 0.068873
v 0.002201 0.217814 0.069988
v 0.006363 0.217814 0.068873
v 0.009409 0.217814 0.065827
v 0.010524 0.217814 0.061665
v 0.009409 0.217814 0.057504
v 0.006363 0.217814 0.054457
v 0.002201 0.217814 0.053342
v -0.001960 0.217814 0.054457
v -0.005007 0.217814 0.057504
v -0.006122 0.217814 0.061665
v -0.005241 0.216298 0.065962
v -0.002096 0.216298 0.069108
v 0.002201 0.216298 0.070259
v 0.006498 0.216298 0.069108
v 0.009644 0.216298 0.065962
v 0.010795 0.216298 0.061665
v 0.009644 0.216298 0.057368
v 0.006498 0.216298 0.054223
v 0.002201 0.216298 0.053071
v -0.002096 0.216298 0.054223
v -0.005241 0.216298 0.057368
v -0.006392 0.216298 0.061665
v -0.005808 0.215669 0.066289
v -0.002422 0.215669 0.069674
v 0.002201 0.215669 0.070913
v 0.006825 0.215669 0.069674
v 0.010210 0.215669 0.066289
v 0.011449 0.215669 0.061665
v 0.010210 0.215669 0.057041
v 0.006825 0.215669 0.053656
v 0.002201 0.215669 0.052418
v -0.002422 0.215669 0.053656
v -0.005808 0.215669 0.057041
v -0.007047 0.215669 0.061665
v -0.006374 0.216298 0.066616
v -0.002750 0.216298 0.070240
v 0.002201 0.216298 0.071567
v 0.007152 0.216298 0.070240
v 0.010776 0.216298 0.066616
v 0.012103 0.216298 0.061665
v 0.010776 0.216298 0.056714
v 0.007152 0.216298 0.053090
v 0.002201 0.216298 0.051764
v -0.002750 0.216298 0.053090
v -0.006374 0.216298 0.056714
v -0.007700 0.216298 0.061665
v -0.006608 0.217814 0.066751
v -0.002885 0.217814 0.070475
v 0.002201 0.217814 0.071837
v 0.007287 0.217814 0.070475
v 0.011011 0.217814 0.066751
v 0.012374 0.217814 0.061665
v 0.011011 0.217814 0.056579
v 0.007287 0.217814 0.052856
v 0.002201 0.217814 0.051493
v -0.002885 0.217814 0.052856
v -0.006608 0.217814 0.056579
v -0.007971 0.217814 0.061665
v -0.006374 0.219331 0.066616
v -0.002750 0.219331 0.070240
v 0.002201 0.219331 0.071567
v 0.007152 0.219331 0.070240
v 0.010776 0.219331 0.066616
v 0.012103 0.219331 0.061665
v 0.010776 0.219331 0.056714
v 0.007152 0.219331 0.053090
v 0.002201 0.219331 0.051764
v -0.002750 0.219331 0.053090
v -0.006374 0.219331 0.056714
v -0.007700 0.219331 0.061665
v -0.005808 0.219960 0.066289
v -0.002422 0.219960 0.069674
v 0.002201 0.219960 0.070913
v 0.006825 0.219960 0.069674
v 0.010210 0.219960 0.066289
v 0.011449 0.219960 0.061665
v 0.010210 0.219960 0.057041
v 0.006825 0.219960 0.053656
v 0.002201 0.219960 0.052418
v -0.002422 0.219960 0.053656
v -0.005808 0.219960 0.057041
v -0.007047 0.219960 0.061665
v -0.005241 0.219331 0.065962
v -0.002096 0.219331 0.069108
v 0.002201 0.219331 0.070259
v 0.006498 0.219331 0.069108
v 0.009644 0.219331 0.065962
v 0.010795 0.219331 0.061665
v 0.009644 0.219331 0.057368
v 0.006498 0.219331 0.054223
v 0.002201 0.219331 0.053071
v -0.002096 0.219331 0.054223
v -0.005241 0.219331 0.057368
v -0.006392 0.219331 0.061665
v -0.005413 0.216538 0.066061
v -0.002195 0.216538 0.069280
v 0.002201 0.216538 0.070458
v 0.006598 0.216538 0.069280
v 0.009816 0.216538 0.066061
v 0.010994 0.216538 0.061665
v 0.009816 0.216538 0.057269
v 0.006598 0.216538 0.054050
v 0.002201 0.216538 0.052872
v -0.002195 0.216538 0.054050
v -0.005413 0.216538 0.057269
v -0.006591 0.216538 0.061665
v 0.002201 0.216538 0.061665
vn -0.5711 -0.6066 0.5531
vn -0.7635 -0.5447 0.3468
vn -0.5807 -0.7522 0.3113
vn -0.0000 -0.9312 0.3645
vn -0.0000 -0.7943 0.6075
vn -0.9012 -0.0003 0.4335
vn -0.7695 -0.0002 0.6387
vn -0.2528 -0.3446 -0.9041
vn -0.5707 -0.6571 -0.4925
vn -0.6754 -0.5474 -0.4941
vn -0.3370 -0.2124 -0.9172
vn 0.7741 0.3182 -0.5473
vn 0.4788 0.6799 -0.5554
vn 0.8894 0.4428 -0.1136
vn 0.4718 0.3078 -0.8262
vn 0.6055 0.6461 -0.4646
vn 0.5727 0.6074 -0.5506
vn 0.2930 0.4811 -0.8262
vn 0.4403 0.2317 -0.8674
vn -0.0000 -0.8738 -0.4862
vn -0.0000 0.8482 -0.5297
vn -0.0000 0.2262 -0.9741
vn 0.0001 -0.1852 -0.9827
vn -0.0000 -0.4857 -0.8741
vn -0.0000 0.9434 -0.3316
vn -0.8735 -0.0000 -0.4868
vn -0.4819 0.0002 -0.8762
vn 0.9067 -0.0654 -0.4167
vn 0.9394 -0.0516 -0.3389
vn 0.6006 -0.0016 -0.7995
vn 0.8868 -0.0011 -0.4621
vn -0.9048 -0.0005 0.4258
vn -0.7739 -0.0005 0.6332
vn -0.6509 0.4680 0.5978
vn -0.7981 0.5002 0.3359
vn 0.5710 -0.6066 0.5531
vn 0.5806 -0.7523 0.3112
vn -0.4502 0.7919 0.4126
vn 0.5706 -0.6571 -0.4925
vn -0.5017 0.7496 -0.4318
vn -0.7470 0.5002 -0.4381
vn -0.0000 -0.0000 1.0000
vn -0.0000 0.5665 0.8241
vn -0.0019 -0.1546 -0.9880
vn -0.0016 -0.1562 -0.9877
vn 0.0020 -0.1618 -0.9868
vn 0.0012 -0.1596 -0.9872
vn -0.5330 0.3148 -0.7853
vn -0.7812 0.2619 -0.5667
vn -0.9167 0.3165 -0.2439
vn -0.0000 0.8331 0.5531
vn -0.4042 0.2968 -0.8652
vn -0.4858 -0.0020 -0.8741
vn -0.8738 -0.0003 -0.4863
vn -0.6055 0.6462 -0.4646
vn 0.1383 -0.0823 -0.9870
vn 0.6383 -0.0499 -0.7681
vn 0.2528 -0.3445 -0.9041
vn 0.9773 -0.1671 -0.1300
vn 0.8740 -0.0932 -0.4769
vn -0.2898 0.4754 -0.8306
vn -0.0000 0.8772 -0.4801
vn 0.7635 -0.5448 0.3466
vn 0.7694 -0.0003 0.6387
vn 0.7738 -0.0002 0.6334
vn -0.0000 -0.2492 -0.9685
vn -0.0000 -0.4345 -0.9007
vn -0.0000 0.5382 -0.8428
vn -0.4528 0.6716 -0.5864
vn -0.5726 0.6075 -0.5505
vn 0.9012 -0.0003 0.4335
vn 0.6754 -0.5474 -0.4942
vn 0.3369 -0.2123 -0.9173
vn -0.2931 0.4813 -0.8261
vn -0.4403 0.2319 -0.8674
vn 0.6509 0.4680 0.5978
vn 0.4501 0.7919 0.4127
vn -0.9410 -0.0509 -0.3346
vn -0.9083 -0.0649 -0.4132
vn -0.8869 -0.0018 -0.4620
vn -0.6005 -0.0016 -0.7996
vn 0.8735 -0.0000 -0.4869
vn 0.4818 0.0002 -0.8763
vn -0.0019 -0.2074 -0.9783
vn 0.0002 -0.2120 -0.9773
vn 0.5017 0.7496 -0.4319
vn -0.9778 -0.1670 -0.1265
vn -0.1389 -0.0824 -0.9869
vn 0.2898 0.4753 -0.8307
vn 0.9048 -0.0005 0.4259
vn 0.7982 0.5002 0.3359
vn 0.7469 0.5002 -0.4381
vn -0.8749 -0.0926 -0.4753
vn -0.6387 -0.0496 -0.7678
vn 0.4858 -0.0021 -0.8741
vn 0.4042 0.2968 -0.8652
vn 0.8738 -0.0003 -0.4863
vn -0.0000 0.7055 -0.7087
vn 0.0023 -0.2074 -0.9783
vn 0.0019 -0.1549 -0.9879
vn 0.0017 -0.1562 -0.9877
vn 0.0088 -0.1601 -0.9871
vn 0.0001 -0.1682 -0.9858
vn -0.0086 -0.1601 -0.9871
vn 0.0085 -0.1596 -0.9871
vn 0.0073 -0.1600 -0.9871
vn -0.0083 -0.1596 -0.9871
vn -0.0019 -0.1618 -0.9868
vn -0.0012 -0.1597 -0.9872
vn -0.0075 -0.1598 -0.9871
vn 0.4478 0.5415 -0.7115
vn 0.6720 0.2569 -0.6946
vn 0.6642 0.2733 -0.6958
vn 0.4317 0.5531 -0.7125
vn -0.0010 0.6741 -0.7387
vn -0.0013 0.6741 -0.7387
vn 0.7418 -0.1271 -0.6585
vn 0.7438 -0.1072 -0.6598
vn -0.4484 0.5420 -0.7107
vn -0.4325 0.5535 -0.7118
vn 0.6119 -0.4578 -0.6450
vn 0.6304 -0.4313 -0.6454
vn -0.6721 0.2577 -0.6942
vn -0.6641 0.2745 -0.6954
vn 0.3677 -0.6680 -0.6470
vn 0.3833 -0.6590 -0.6472
vn -0.7418 -0.1264 -0.6586
vn -0.7438 -0.1063 -0.6599
vn -0.0000 -0.7777 -0.6287
vn -0.6118 -0.4577 -0.6452
vn -0.6304 -0.4312 -0.6455
vn -0.3675 -0.6681 -0.6470
vn -0.3832 -0.6590 -0.6472
vn 0.0327 -0.1538 -0.9876
vn 0.0037 -0.1380 -0.9904
vn -0.0325 -0.1538 -0.9876
vn -0.0081 -0.1466 -0.9892
vn -0.0035 -0.1380 -0.9904
vn 0.0082 -0.1466 -0.9892
vt -10.011624 0.762892
vt -10.011624 0.774059
vt -10.016702 0.774059
vt -9.679919 0.118296
vt -9.681384 0.107304
vt -9.303923 0.107304
vt -9.303923 0.118296
vt -9.858318 0.774059
vt -9.858318 0.762892
vt -10.008004 0.935451
vt -10.016746 0.922815
vt -10.011624 0.922818
vt -10.001957 0.935449
vt -9.489955 0.596958
vt -9.495654 0.597576
vt -9.497687 0.590547
vt -9.494065 0.589963
vt -9.489631 0.669200
vt -9.495654 0.669200
vt -9.661489 0.528441
vt -9.680213 0.546642
vt -9.685542 0.540563
vt -9.668374 0.521558
vt -9.486807 0.676023
vt -9.493699 0.676023
vt -9.681338 -0.039155
vt -9.303923 -0.039158
vt -9.303894 0.525620
vt -9.657966 0.525297
vt -9.655135 0.521192
vt -9.303894 0.521236
vt -9.658798 0.517575
vt -9.303894 0.515235
vt -9.303894 0.555427
vt -9.689184 0.555426
vt -9.303894 0.546642
vt -10.146298 0.972739
vt -10.146620 0.902059
vt -9.799753 0.901404
vt -9.799753 0.972739
vt -9.858319 0.922809
vt -9.858319 0.935435
vt -9.619226 0.617630
vt -9.619235 0.610986
vt -9.685537 0.396193
vt -9.668023 0.396193
vt -9.619226 0.669748
vt -9.619226 0.675977
vt -9.530128 0.774059
vt -9.530128 0.762893
vt -9.488300 0.762893
vt -9.488300 0.774059
vt -8.927925 0.118296
vt -8.926463 0.107304
vt -9.478871 0.774059
vt -8.926504 -0.039155
vt -9.478888 0.922818
vt -9.488300 0.922818
vt -9.680096 0.907179
vt -9.680016 0.865941
vt -9.303190 0.865936
vt -9.303190 0.907177
vt -9.335889 0.485064
vt -9.492947 0.470756
vt -9.494093 0.412060
vt -9.339416 0.466192
vt -8.952657 0.521187
vt -8.949826 0.525297
vt -8.948975 0.515857
vt -9.675085 0.916475
vt -9.303190 0.916475
vt -9.492373 0.935451
vt -9.529844 0.935404
vt -9.530128 0.922794
vt -9.453206 0.972739
vt -9.452888 0.902059
vt -9.663671 0.046698
vt -9.667104 0.066330
vt -9.685529 0.066044
vt -9.685542 0.028383
vt -8.927573 0.546642
vt -8.918602 0.555426
vt -9.969174 0.676023
vt -9.950560 0.666694
vt -9.949419 0.671217
vt -9.949517 0.675853
vt -9.487608 0.935451
vt -9.679845 0.023593
vt -9.669939 0.963832
vt -9.669896 0.817872
vt -9.299780 0.817872
vt -9.299780 0.963734
vt -9.483991 0.640077
vt -9.478915 0.651243
vt -9.483991 0.651243
vt -9.303190 0.542377
vt -8.926579 0.542377
vt -8.926367 0.865940
vt -9.662652 0.065289
vt -9.303894 0.046698
vt -9.303894 0.065295
vt -9.683073 0.014828
vt -9.303894 0.012162
vt -9.303894 0.020879
vt -9.960309 0.533671
vt -9.966008 0.533053
vt -9.961894 0.526013
vt -9.956555 0.526878
vt -9.966332 0.605290
vt -9.960309 0.605290
vt -9.637298 0.640077
vt -9.637298 0.651243
vt -9.483991 0.800002
vt -9.478870 0.800001
vt -9.487611 0.812635
vt -9.493658 0.812635
vt -8.922248 0.540563
vt -8.946302 0.528441
vt -8.939416 0.521558
vt -8.926283 0.907179
vt -8.931295 0.916475
vt -9.836738 0.547026
vt -9.836746 0.553724
vt -9.836746 0.605841
vt -9.836746 0.612067
vt -9.962265 0.612115
vt -9.637298 0.799995
vt -9.637298 0.812621
vt -9.284231 0.497823
vt -9.303894 0.503945
vt -8.922251 0.396193
vt -8.939765 0.396193
vt -8.929619 0.963832
vt -8.929662 0.817872
vt -8.945141 0.065284
vt -8.944118 0.046698
vt -8.927945 0.023593
vt -8.924714 0.014828
vt -10.007318 0.640077
vt -9.965487 0.640077
vt -9.965487 0.651243
vt -10.007318 0.651243
vt -10.016747 0.651243
vt -10.016731 0.800002
vt -10.007318 0.800002
vt -9.506577 0.607307
vt -9.505430 0.602733
vt -9.486824 0.612115
vt -9.506478 0.611943
vt -8.922261 0.066044
vt -8.940682 0.066330
vt -8.922243 0.028383
vt -9.965489 0.799979
vt -9.965774 0.812587
vt -10.003243 0.812635
vt -10.008010 0.812635
vt -9.303894 0.528441
vt -10.150071 0.979417
vt -9.799753 0.979417
vt -9.449437 0.979417
vt -9.969156 0.612115
vt -9.323609 0.497871
vt -9.271930 0.485023
vt -9.114837 0.470129
vt -9.323359 0.434688
vt -9.303894 0.430294
vt -9.284433 0.434688
vt -9.494231 0.311462
vt -9.333849 0.446736
vt -9.113555 0.311406
vt -8.947958 0.396185
vt -9.113691 0.411888
vt -9.659831 0.396185
vt -9.268377 0.466183
vt -9.273939 0.446735
vt -8.926679 0.391233
vt -9.303190 0.391233
vt -9.679800 0.542377
vt -9.679701 0.391233
vt -9.326056 0.479564
vt -9.317552 0.488433
vt -9.303895 0.492627
vt -9.328501 0.466492
vt -9.290275 0.488402
vt -9.324644 0.453014
vt -9.281754 0.479535
vt -9.317376 0.444671
vt -9.279295 0.466486
vt -9.303895 0.441612
vt -9.283147 0.453014
vt -9.290414 0.444671
vt -9.303898 0.466683
s 1
usemtl M_Sink_11_0
f 1/1/1 2/2/2 3/3/3
f 1/4/1 3/5/3 4/6/4 19/7/5
f 91/8/6 2/2/2 1/1/1 90/9/7
f 8/10/8 6/11/9 7/12/10 13/13/11
f 11/14/12 9/15/13 10/16/14 12/17/15
f 9/15/13 11/14/12 14/18/16 16/19/17
f 15/20/18 8/21/8 13/22/11 17/23/19
f 15/24/18 17/25/19 16/19/17 14/18/16
f 3/5/3 6/26/9 18/27/20 4/6/4
f 21/28/21 11/29/12 12/30/15 27/31/22
f 12/30/15 10/32/14 22/33/23 27/31/22
f 18/34/20 6/35/9 8/21/8 28/36/24
f 14/37/16 11/38/12 21/39/21 29/40/25
f 13/13/11 7/12/10 92/41/26 93/42/27
f 10/16/14 9/15/13 102/43/28 103/44/29
f 17/23/19 13/22/11 93/45/27 94/46/30
f 16/19/17 95/47/31 102/43/28 9/15/13
f 16/19/17 17/25/19 94/48/30 95/47/31
f 5/49/32 20/50/33 30/51/34 32/52/35
f 31/53/36 19/7/5 4/6/4 35/54/37
f 32/52/35 30/51/34 34/55/38
f 35/54/37 4/6/4 18/27/20 48/56/39
f 32/52/35 34/55/38 36/57/40 39/58/41
f 30/59/34 20/60/33 47/61/42 37/62/43
f 79/63/44 107/64/45 106/65/46 81/66/47
f 21/28/21 27/31/22 40/67/48 49/68/49
f 40/67/48 27/31/22 22/33/23 51/69/50
f 34/70/38 30/59/34 37/62/43 46/71/51
f 41/72/52 25/73/53 23/74/54 39/58/41
f 42/75/55 29/40/25 21/39/21 49/76/49
f 43/77/56 26/78/57 25/79/53 41/80/52
f 18/34/20 28/36/24 44/81/58 48/82/39
f 43/83/56 33/84/59 24/85/60 26/86/57
f 41/72/52 39/58/41 36/57/40 45/87/61
f 45/88/61 43/77/56 41/80/52
f 36/89/40 34/90/38 46/91/51 54/92/62
f 31/93/36 35/94/37 50/95/63
f 77/96/42 101/97/64 52/98/65 47/61/42
f 33/99/59 43/77/56 53/100/66 38/101/67
f 45/88/61 36/102/40 54/103/62 61/104/68
f 55/105/69 49/106/49 40/107/48 51/108/50
f 42/109/55 49/106/49 55/105/69 56/110/70
f 101/111/64 31/93/36 50/95/63 100/112/71
f 57/113/72 48/114/39 44/115/58 59/116/73
f 59/117/73 44/81/58 58/118/74 60/119/75
f 37/62/43 47/61/42 52/98/65 62/120/76
f 63/121/77 46/71/51 37/62/43 62/120/76
f 104/122/78 105/123/79 55/105/69 51/108/50
f 56/110/70 55/105/69 105/123/79 96/124/80
f 97/125/81 60/126/75 56/110/70 96/124/80
f 99/127/82 57/113/72 59/116/73 98/128/83
f 82/129/84 51/69/50 22/33/23 80/130/85
f 98/131/83 59/117/73 60/119/75 97/132/81
f 70/133/86 54/92/62 46/91/51 63/134/77
f 68/135/87 38/101/67 53/100/66 73/136/88
f 71/137/89 61/104/68 54/103/62 70/138/86
f 62/139/76 52/140/65 65/141/90 72/142/91
f 72/142/91 63/143/77 62/139/76
f 70/144/86 63/143/77 72/142/91 74/145/92
f 64/146/93 68/147/87 73/148/88 66/149/94
f 69/150/95 66/151/94 73/136/88 75/152/96
f 67/153/97 69/154/95 75/155/96 74/145/92
f 71/137/89 75/152/96 73/136/88
f 75/155/96 71/156/89 70/144/86 74/145/92
f 2/2/2 7/12/10 6/11/9 3/3/3
f 91/8/6 92/41/26 7/12/10 2/2/2
f 15/20/18 76/157/98 28/36/24 8/21/8
f 15/158/18 14/37/16 29/40/25 76/159/98
f 32/52/35 39/58/41 23/74/54 5/49/32
f 58/118/74 44/81/58 28/36/24 76/157/98
f 58/160/74 76/159/98 29/40/25 42/75/55
f 50/95/63 35/94/37 48/114/39 57/113/72
f 53/100/66 43/77/56 45/88/61 61/104/68
f 60/126/75 58/161/74 42/109/55 56/110/70
f 99/127/82 100/112/71 50/95/63 57/113/72
f 53/100/66 61/104/68 71/137/89 73/136/88
f 72/142/91 65/141/90 67/153/97 74/145/92
f 10/32/14 78/162/99 80/130/85 22/33/23
f 84/163/100 110/164/101 51/69/50 82/129/84
f 85/165/102 33/99/59 38/101/67 87/166/103
f 38/101/67 68/135/87 89/167/104 87/166/103
f 5/49/32 91/8/6 90/9/7 20/50/33
f 5/49/32 23/74/54 92/41/26 91/8/6
f 93/42/27 92/41/26 23/74/54 25/73/53
f 94/46/30 93/45/27 25/79/53 26/78/57
f 95/47/31 94/48/30 26/86/57 24/85/60
f 66/149/94 97/125/81 96/124/80 64/146/93
f 69/150/95 98/131/83 97/132/81 66/151/94
f 67/153/97 99/127/82 98/128/83 69/154/95
f 67/153/97 65/141/90 100/112/71 99/127/82
f 52/140/65 101/111/64 100/112/71 65/141/90
f 102/43/28 95/47/31 24/85/60
f 103/44/29 102/43/28 24/85/60 33/84/59
f 81/66/47 106/65/46 108/168/105 83/169/106
f 111/170/107 68/135/87 104/171/78 109/172/108
f 64/146/93 105/123/79 104/122/78 68/147/87
f 96/124/80 105/123/79 64/146/93
f 10/32/14 103/173/29 106/65/46 107/64/45
f 33/99/59 108/168/105 106/65/46 103/173/29
f 10/32/14 107/64/45 79/63/44 78/162/99
f 83/169/106 108/168/105 33/99/59 85/165/102
f 86/174/109 109/172/108 110/164/101 84/163/100
f 88/175/110 111/170/107 109/172/108 86/174/109
f 89/167/104 68/135/87 111/170/107 88/175/110
f 51/69/50 110/164/101 109/172/108 104/171/78
f 31/176/36 101/97/64 77/96/42 19/177/5
f 20/60/33 90/178/7 77/96/42 47/61/42
f 1/179/1 19/177/5 77/96/42 90/178/7
f 78/162/111 79/63/112 113/180/113 112/181/114
f 80/130/115 78/162/111 112/181/114 114/182/116
f 79/63/112 81/66/117 115/183/118 113/180/113
f 82/129/119 80/130/115 114/182/116 116/184/120
f 81/66/117 83/169/121 117/185/122 115/183/118
f 84/163/123 82/129/119 116/184/120 118/186/124
f 83/169/121 85/165/125 119/187/126 117/185/122
f 86/174/127 84/163/123 118/186/124 120/188/128
f 85/165/125 87/166/129 121/189/129 119/187/126
f 88/175/130 86/174/127 120/188/128 122/190/131
f 87/166/129 89/167/132 123/191/133 121/189/129
f 89/167/132 88/175/130 122/190/131 123/191/133
f 124/192/134 114/182/134 112/181/134 113/180/134
f 124/192/135 113/180/135 115/183/135 117/185/135
f 124/192/136 118/186/136 116/184/136 114/182/136
f 124/192/137 117/185/137 119/187/137 121/189/137
f 124/192/138 122/190/138 120/188/138 118/186/138
f 124/192/139 121/189/139 123/191/139 122/190/139
