# Blender 4.1.0
# www.blender.org
mtllib AlarmClockHandMinute_11_AlarmClockHandMinute_11_3.mtl
o AlarmClockHandMinute_11
v -0.001699 -0.020031 0.001571
v 0.001699 -0.020031 0.000412
v 0.012536 -0.020031 0.043319
v 0.015935 -0.020031 0.042160
v 0.012536 -0.019707 0.043319
v 0.015935 -0.019707 0.042160
v -0.001699 -0.019707 0.001571
v 0.001699 -0.019707 0.000412
vn -0.0000 -1.0000 -0.0000
vn 0.3233 -0.0000 0.9463
vn -0.0000 1.0000 -0.0000
vn -0.3227 -0.0000 -0.9465
vn 0.9465 -0.0000 -0.3227
vn -0.9465 -0.0000 0.3227
vt 0.375000 0.000000
vt 0.625000 0.000000
vt 0.625000 0.250000
vt 0.375000 0.250000
vt 0.625000 0.500000
vt 0.375000 0.500000
vt 0.625000 0.750000
vt 0.375000 0.750000
vt 0.625000 1.000000
vt 0.375000 1.000000
vt 0.875000 0.000000
vt 0.875000 0.250000
vt 0.125000 0.000000
vt 0.125000 0.250000
s 1
usemtl M_AlarmClockHandMinute_11_0
f 1/1/1 2/2/1 4/3/1 3/4/1
f 3/4/2 4/3/2 6/5/2 5/6/2
f 5/6/3 6/5/3 8/7/3 7/8/3
f 7/8/4 8/7/4 2/9/4 1/10/4
f 2/2/5 8/11/5 6/12/5 4/3/5
f 7/13/6 1/1/6 3/4/6 5/14/6
