# Blender 4.1.1
# www.blender.org
mtllib DoormeshMicrowaveDoorA3_1_GeomSubset_7.mtl
o DoormeshMicrowaveDoorA3_1_GeomSubset_7
v 0.000396 0.002364 -0.175893
v 0.000386 0.002364 -0.175893
v 0.000396 0.002374 -0.175893
v 0.000386 0.002374 -0.175893
v 0.000396 0.002364 -0.175893
v 0.000386 0.002364 -0.175893
v 0.000396 0.002374 -0.175893
v 0.000386 0.002374 -0.175893
v 0.000396 0.002364 -0.175893
v 0.000386 0.002364 -0.175893
v 0.000396 0.002374 -0.175893
v 0.000386 0.002374 -0.175893
v 0.000396 0.002364 -0.175893
v 0.000386 0.002364 -0.175893
v 0.000396 0.002374 -0.175893
v 0.000386 0.002374 -0.175893
v 0.000396 0.002364 -0.175893
v 0.000386 0.002364 -0.175893
v 0.000396 0.002374 -0.175893
v 0.000386 0.002374 -0.175893
v 0.000396 0.002364 -0.175893
v 0.000386 0.002364 -0.175893
v 0.000396 0.002374 -0.175893
v 0.000386 0.002374 -0.175893
v 0.000396 0.002364 -0.175893
v 0.000386 0.002364 -0.175893
v 0.000396 0.002374 -0.175893
v 0.000386 0.002374 -0.175893
v -0.145051 -0.161999 -0.114518
v -0.145051 -0.172282 -0.105012
v -0.145051 -0.172099 -0.106867
v -0.145051 -0.171558 -0.108650
v -0.145051 -0.170680 -0.110293
v -0.145051 -0.169498 -0.111734
v -0.145051 -0.168057 -0.112916
v -0.145051 -0.166414 -0.113794
v -0.145051 -0.164631 -0.114335
v -0.177507 -0.161999 -0.114518
v -0.177507 -0.172282 -0.105012
v -0.177507 -0.172099 -0.106867
v -0.177507 -0.171558 -0.108650
v -0.177507 -0.170680 -0.110293
v -0.177507 -0.169498 -0.111734
v -0.177507 -0.168057 -0.112916
v -0.177507 -0.166414 -0.113794
v -0.177507 -0.164631 -0.114335
v -0.177507 -0.161999 -0.124024
v -0.177507 -0.181788 -0.105012
v -0.177507 -0.181423 -0.108721
v -0.177507 -0.180341 -0.112288
v -0.177507 -0.178584 -0.115574
v -0.177507 -0.176219 -0.118455
v -0.177507 -0.173338 -0.120820
v -0.177507 -0.170052 -0.122577
v -0.177507 -0.166485 -0.123659
v -0.145051 -0.161999 -0.124024
v -0.145051 -0.181788 -0.105012
v -0.145051 -0.181423 -0.108721
v -0.145051 -0.180341 -0.112288
v -0.145051 -0.178584 -0.115574
v -0.145051 -0.176219 -0.118455
v -0.145051 -0.173338 -0.120820
v -0.145051 -0.170052 -0.122577
v -0.145051 -0.166485 -0.123659
v -0.145051 -0.161999 0.129835
v -0.145051 -0.164631 0.129653
v -0.177507 -0.161999 0.129835
v -0.177507 -0.164631 0.129653
v -0.145051 -0.166414 0.129112
v -0.177507 -0.166414 0.129112
v -0.145051 -0.168057 0.128233
v -0.177507 -0.168057 0.128233
v -0.145051 -0.169498 0.127051
v -0.177507 -0.169498 0.127051
v -0.145051 -0.170680 0.125611
v -0.177507 -0.170680 0.125611
v -0.145051 -0.171558 0.123967
v -0.177507 -0.171558 0.123967
v -0.145051 -0.172099 0.122184
v -0.177507 -0.172099 0.122184
v -0.145051 -0.172282 0.120329
v -0.177507 -0.172282 0.120329
v -0.177507 -0.161999 0.139341
v -0.177507 -0.166485 0.138976
v -0.177507 -0.170052 0.137894
v -0.177507 -0.173338 0.136137
v -0.177507 -0.176220 0.133773
v -0.177507 -0.178584 0.130892
v -0.177507 -0.180341 0.127605
v -0.177507 -0.181423 0.124039
v -0.177507 -0.181788 0.120329
v -0.145051 -0.161999 0.139341
v -0.145051 -0.166485 0.138976
v -0.145051 -0.170052 0.137894
v -0.145051 -0.173338 0.136137
v -0.145051 -0.176220 0.133773
v -0.145051 -0.178584 0.130892
v -0.145051 -0.180341 0.127605
v -0.145051 -0.181423 0.124039
v -0.145051 -0.181788 0.120329
v -0.145051 -0.159553 0.129835
v -0.177507 -0.159553 0.129835
v -0.145051 -0.159553 0.139341
v -0.177507 -0.159553 0.139341
v -0.177507 -0.159553 -0.114518
v -0.177507 -0.159553 -0.124024
v -0.145051 -0.159553 -0.124024
v -0.145051 -0.159553 -0.114518
v -0.006566 -0.113824 0.095890
v -0.006566 -0.113824 -0.090373
v 0.137488 -0.113824 0.095861
v 0.137488 -0.113824 -0.086746
v 0.285523 -0.113824 0.093726
v 0.287456 -0.113824 -0.077590
v 0.288241 -0.113824 0.087598
v 0.279976 -0.113824 0.095747
v 0.279647 -0.113824 -0.080626
v 0.287723 -0.113824 0.090517
v 0.282850 -0.113824 0.095525
v 0.283381 -0.113824 -0.080320
v 0.288727 -0.113824 -0.073525
v 0.288683 -0.113824 -0.070082
v -0.006566 -0.114662 0.094467
v -0.006566 -0.114662 -0.089174
v 0.137488 -0.114662 0.094355
v 0.137488 -0.114662 -0.085547
v 0.283100 -0.114662 0.093915
v 0.285043 -0.114662 0.092607
v 0.283374 -0.114662 -0.079121
v 0.286345 -0.114662 -0.077131
v 0.287405 -0.114662 -0.073743
v 0.286370 -0.114662 0.090670
v 0.286918 -0.114662 0.087584
v 0.279937 -0.114662 0.094158
v 0.279645 -0.114662 -0.079427
v 0.287361 -0.114662 -0.070315
v -0.177709 -0.113824 0.086191
v -0.177709 -0.113824 0.090262
v -0.177709 -0.113824 -0.080317
v -0.177709 -0.113824 -0.076103
v -0.177709 -0.113824 0.092895
v -0.177709 -0.113824 0.095740
v -0.177709 -0.113824 -0.086774
v -0.177709 -0.113824 -0.084377
v -0.177709 -0.114662 0.094318
v -0.177709 -0.114662 -0.085575
v 0.303089 -0.117125 -0.132498
v 0.299788 -0.117304 -0.135799
v 0.299788 -0.113824 -0.132498
v 0.303089 -0.117125 0.170972
v 0.299788 -0.113824 0.170972
v 0.299788 -0.117304 0.174273
v 0.303089 -0.117125 0.095391
v 0.299788 -0.113824 0.095078
v 0.299788 -0.113824 -0.078151
v 0.303089 -0.117125 -0.078301
v -0.006566 -0.113824 0.170972
v -0.006566 -0.117304 0.174273
v -0.006566 -0.117304 -0.135799
v -0.006566 -0.113824 -0.132498
v 0.137488 -0.117304 0.174273
v 0.137488 -0.113824 0.170972
v 0.137488 -0.113824 -0.132498
v 0.137488 -0.117304 -0.135799
v 0.287911 -0.113824 0.170972
v 0.288029 -0.117304 0.174273
v 0.288029 -0.117304 -0.135799
v 0.287996 -0.113824 -0.132498
v 0.299788 -0.113824 0.087585
v 0.303089 -0.117125 0.087581
v 0.279837 -0.113824 -0.132498
v 0.279849 -0.117304 -0.135799
v 0.279849 -0.117304 0.174273
v 0.279855 -0.113824 0.170972
v 0.303089 -0.117125 0.091486
v 0.299788 -0.113824 0.091277
v 0.283886 -0.113824 0.170972
v 0.283939 -0.117304 0.174273
v 0.283906 -0.113824 -0.132498
v 0.283939 -0.117304 -0.135799
v 0.299788 -0.113824 -0.073346
v 0.303089 -0.117125 -0.073293
v 0.303089 -0.117125 -0.069346
v 0.299788 -0.113824 -0.069515
v -0.177709 -0.113824 -0.132498
v -0.177709 -0.117304 -0.135799
v -0.177709 -0.117304 0.174273
v -0.177709 -0.113824 0.170972
v -0.006566 -0.149078 0.174273
v -0.177709 -0.149078 0.174273
v -0.177709 -0.149078 -0.135799
v -0.006566 -0.149078 -0.135799
v 0.137488 -0.149078 -0.135799
v 0.279848 -0.149078 -0.135799
v 0.283939 -0.149078 -0.135799
v 0.288029 -0.149078 -0.135799
v 0.299788 -0.149078 -0.135799
v 0.303089 -0.149078 -0.132498
v 0.303089 -0.149078 -0.078301
v 0.303089 -0.149078 -0.073293
v 0.303089 -0.149078 -0.069346
v 0.303089 -0.149078 0.087581
v 0.303089 -0.149078 0.091486
v 0.303089 -0.149078 0.095391
v 0.303089 -0.149078 0.170972
v 0.299788 -0.149078 0.174273
v 0.288029 -0.149078 0.174273
v 0.283939 -0.149078 0.174273
v 0.279848 -0.149078 0.174273
v 0.137488 -0.149078 0.174273
v -0.177709 -0.149078 0.090262
v -0.177709 -0.149078 0.092895
v -0.177709 -0.149078 -0.080317
v -0.177709 -0.149078 -0.076103
v -0.177709 -0.149078 0.086191
v -0.177709 -0.149078 -0.084377
v -0.006566 -0.149078 0.094467
v 0.137488 -0.149078 0.094355
v -0.006566 -0.149078 -0.089174
v 0.137488 -0.149078 -0.085547
v 0.283100 -0.149078 0.093915
v 0.285043 -0.149078 0.092607
v 0.283374 -0.149078 -0.079121
v 0.286345 -0.149078 -0.077131
v 0.287405 -0.149078 -0.073743
v 0.286370 -0.149078 0.090670
v 0.286918 -0.149078 0.087584
v 0.279937 -0.149078 0.094158
v 0.279645 -0.149078 -0.079427
v 0.287361 -0.149078 -0.070315
v -0.177709 -0.149078 -0.085575
v -0.177709 -0.149078 0.094318
v -0.006566 -0.159525 0.095890
v -0.006566 -0.159525 -0.090373
v 0.137488 -0.159525 0.095861
v 0.137488 -0.159525 -0.086746
v 0.285523 -0.159525 0.093726
v 0.287456 -0.159525 -0.077590
v 0.288241 -0.159525 0.087598
v 0.279976 -0.159525 0.095747
v 0.279647 -0.159525 -0.080626
v 0.287723 -0.159525 0.090517
v 0.282850 -0.159525 0.095525
v 0.283381 -0.159525 -0.080320
v 0.288727 -0.159525 -0.073525
v 0.288683 -0.159525 -0.070082
v -0.006566 -0.158687 0.094467
v -0.006566 -0.158687 -0.089174
v 0.137488 -0.158687 0.094355
v 0.137488 -0.158687 -0.085547
v 0.283100 -0.158687 0.093915
v 0.285043 -0.158687 0.092607
v 0.283374 -0.158687 -0.079121
v 0.286345 -0.158687 -0.077131
v 0.287405 -0.158687 -0.073743
v 0.286370 -0.158687 0.090670
v 0.286918 -0.158687 0.087584
v 0.279937 -0.158687 0.094158
v 0.279645 -0.158687 -0.079427
v 0.287361 -0.158687 -0.070315
v -0.177709 -0.159525 0.086191
v -0.177709 -0.159525 0.090262
v -0.177709 -0.159525 -0.080317
v -0.177709 -0.159525 -0.076103
v -0.177709 -0.159525 0.092895
v -0.177709 -0.159525 0.095740
v -0.177709 -0.159525 -0.086774
v -0.177709 -0.159525 -0.084377
v -0.177709 -0.158687 0.094318
v -0.177709 -0.158687 -0.085575
v 0.303089 -0.156224 -0.132498
v 0.299788 -0.156045 -0.135799
v 0.299788 -0.159525 -0.132498
v 0.303089 -0.156224 0.170972
v 0.299788 -0.159525 0.170972
v 0.299788 -0.156045 0.174273
v 0.303089 -0.156224 0.095391
v 0.299788 -0.159525 0.095078
v 0.299788 -0.159525 -0.078151
v 0.303089 -0.156224 -0.078301
v -0.006566 -0.159525 0.170972
v -0.006566 -0.156045 0.174273
v -0.006566 -0.156045 -0.135799
v -0.006566 -0.159525 -0.132498
v 0.137488 -0.156045 0.174273
v 0.137488 -0.159525 0.170972
v 0.137488 -0.159525 -0.132498
v 0.137488 -0.156045 -0.135799
v 0.287911 -0.159525 0.170972
v 0.288029 -0.156045 0.174273
v 0.288029 -0.156045 -0.135799
v 0.287996 -0.159525 -0.132498
v 0.299788 -0.159525 0.087585
v 0.303089 -0.156224 0.087581
v 0.279837 -0.159525 -0.132498
v 0.279849 -0.156045 -0.135799
v 0.279849 -0.156045 0.174273
v 0.279855 -0.159525 0.170972
v 0.303089 -0.156224 0.091486
v 0.299788 -0.159525 0.091277
v 0.283886 -0.159525 0.170972
v 0.283939 -0.156045 0.174273
v 0.283906 -0.159525 -0.132498
v 0.283939 -0.156045 -0.135799
v 0.299788 -0.159525 -0.073346
v 0.303089 -0.156224 -0.073293
v 0.303089 -0.156224 -0.069346
v 0.299788 -0.159525 -0.069515
v -0.177709 -0.159525 -0.132498
v -0.177709 -0.156045 -0.135799
v -0.177709 -0.156045 0.174273
v -0.177709 -0.159525 0.170972
v -0.186845 -0.113824 0.090262
v -0.186845 -0.113824 0.092895
v -0.186845 -0.113824 -0.080317
v -0.186845 -0.113824 -0.076103
v -0.186845 -0.113824 0.086191
v -0.186845 -0.117304 0.174273
v -0.186846 -0.149078 0.174273
v -0.186845 -0.113824 -0.132498
v -0.186845 -0.113824 -0.086774
v -0.186845 -0.113824 -0.084377
v -0.186845 -0.113824 0.095740
v -0.186845 -0.113824 0.170972
v -0.186845 -0.114662 -0.085575
v -0.186845 -0.114662 0.094318
v -0.186845 -0.117304 -0.135799
v -0.186846 -0.149078 -0.135799
v -0.186845 -0.159525 0.090262
v -0.186845 -0.159525 0.092895
v -0.186845 -0.159525 -0.080317
v -0.186845 -0.159525 -0.076103
v -0.186845 -0.159525 0.086191
v -0.186845 -0.156045 0.174273
v -0.186845 -0.159525 -0.132498
v -0.186845 -0.159525 -0.086774
v -0.186845 -0.159525 -0.084377
v -0.186845 -0.159525 0.095740
v -0.186845 -0.159525 0.170972
v -0.186845 -0.158687 -0.085575
v -0.186845 -0.158687 0.094318
v -0.186845 -0.156045 -0.135799
v -0.175680 -0.103544 0.152958
v -0.180373 -0.103544 0.152958
v -0.177179 -0.094736 0.148072
v -0.178874 -0.094736 0.148072
v -0.177179 -0.093375 0.142636
v -0.178874 -0.093375 0.142636
v -0.175680 -0.112386 0.152045
v -0.180373 -0.112386 0.152045
v -0.180373 -0.110093 0.157309
v -0.175680 -0.110093 0.157309
v -0.177179 -0.093631 0.135234
v -0.178874 -0.093631 0.135234
v -0.180373 -0.103094 0.132854
v -0.175680 -0.103094 0.132854
v -0.179743 -0.096803 0.149957
v -0.180373 -0.100212 0.151480
v -0.175680 -0.100212 0.151480
v -0.176311 -0.096803 0.149957
v -0.175680 -0.100437 0.143065
v -0.176211 -0.096143 0.142644
v -0.175680 -0.100299 0.131956
v -0.176202 -0.096067 0.132922
v -0.180373 -0.100299 0.131956
v -0.179852 -0.096067 0.132922
v -0.180373 -0.100407 0.143066
v -0.179851 -0.096171 0.142647
v -0.175680 -0.104110 0.142843
v -0.175680 -0.104950 0.147255
v -0.180373 -0.104110 0.142843
v -0.180373 -0.104950 0.147255
v -0.175680 -0.120546 0.159633
v -0.180373 -0.120546 0.159633
v -0.180373 -0.116739 0.163567
v -0.175680 -0.116739 0.163567
v -0.175680 -0.103544 -0.098987
v -0.180373 -0.103544 -0.098987
v -0.177179 -0.094736 -0.103873
v -0.178874 -0.094736 -0.103873
v -0.177179 -0.093375 -0.109308
v -0.178874 -0.093375 -0.109308
v -0.175680 -0.112386 -0.099900
v -0.180373 -0.112386 -0.099900
v -0.180373 -0.110093 -0.094636
v -0.175680 -0.110093 -0.094636
v -0.177179 -0.093631 -0.116711
v -0.178874 -0.093631 -0.116711
v -0.180373 -0.103094 -0.119091
v -0.175680 -0.103094 -0.119091
v -0.179743 -0.096802 -0.101987
v -0.180373 -0.100212 -0.100464
v -0.175680 -0.100212 -0.100464
v -0.176311 -0.096802 -0.101987
v -0.175680 -0.100437 -0.108879
v -0.176211 -0.096143 -0.109301
v -0.175680 -0.100299 -0.119989
v -0.176202 -0.096067 -0.119023
v -0.180373 -0.100299 -0.119989
v -0.179852 -0.096067 -0.119023
v -0.180373 -0.100407 -0.108879
v -0.179851 -0.096171 -0.109298
v -0.175680 -0.104110 -0.109102
v -0.175680 -0.104950 -0.104690
v -0.180373 -0.104110 -0.109102
v -0.180373 -0.104950 -0.104690
v -0.175680 -0.120546 -0.092312
v -0.180373 -0.120546 -0.092312
v -0.180373 -0.116739 -0.088378
v -0.175680 -0.116739 -0.088378
v 0.284738 -0.116491 -0.099628
v 0.284323 -0.113394 -0.099628
v 0.285124 -0.110374 -0.099628
v 0.287019 -0.107890 -0.099628
v 0.289721 -0.106320 -0.099628
v 0.292819 -0.105905 -0.099628
v 0.295839 -0.106705 -0.099628
v 0.284738 -0.116491 -0.097592
v 0.284323 -0.113394 -0.097592
v 0.285124 -0.110374 -0.097592
v 0.287019 -0.107890 -0.097592
v 0.289721 -0.106320 -0.097592
v 0.292819 -0.105905 -0.097592
v 0.295839 -0.106705 -0.097592
v 0.290265 -0.114958 -0.099628
v 0.290135 -0.113986 -0.099628
v 0.290386 -0.113039 -0.099628
v 0.290981 -0.112260 -0.099628
v 0.291828 -0.111767 -0.099628
v 0.292800 -0.111637 -0.099628
v 0.293748 -0.111888 -0.099628
v 0.290265 -0.114958 -0.097592
v 0.290135 -0.113986 -0.097592
v 0.290386 -0.113039 -0.097592
v 0.290981 -0.112260 -0.097592
v 0.291828 -0.111767 -0.097592
v 0.292800 -0.111637 -0.097592
v 0.293748 -0.111888 -0.097592
v 0.284738 -0.116491 0.139062
v 0.284323 -0.113394 0.139062
v 0.285124 -0.110374 0.139062
v 0.287019 -0.107890 0.139062
v 0.289721 -0.106320 0.139062
v 0.292819 -0.105905 0.139062
v 0.295839 -0.106705 0.139062
v 0.284738 -0.116491 0.141116
v 0.284323 -0.113394 0.141116
v 0.285124 -0.110374 0.141116
v 0.287019 -0.107890 0.141116
v 0.289721 -0.106320 0.141116
v 0.292819 -0.105905 0.141116
v 0.295839 -0.106705 0.141116
v 0.290265 -0.114958 0.139062
v 0.290135 -0.113987 0.139062
v 0.290386 -0.113039 0.139062
v 0.290981 -0.112260 0.139062
v 0.291828 -0.111767 0.139062
v 0.292800 -0.111637 0.139062
v 0.293748 -0.111888 0.139062
v 0.290265 -0.114958 0.141116
v 0.290135 -0.113987 0.141116
v 0.290386 -0.113039 0.141116
v 0.290981 -0.112260 0.141116
v 0.291828 -0.111767 0.141116
v 0.292800 -0.111637 0.141116
v 0.293748 -0.111888 0.141116
v -0.145051 -0.161999 -0.114518
v -0.145051 -0.161999 -0.114518
v -0.145051 -0.161999 -0.114518
v -0.145051 -0.161999 -0.114518
v -0.145051 -0.161999 -0.114518
v -0.177507 -0.161999 -0.114518
v -0.177507 -0.161999 -0.114518
v -0.177507 -0.161999 -0.114518
v -0.177507 -0.161999 -0.114518
v -0.177507 -0.161999 -0.114518
v -0.177507 -0.159553 -0.114518
v -0.177507 -0.159553 -0.114518
v -0.177507 -0.159553 -0.114518
v -0.177507 -0.159553 -0.114518
v -0.145051 -0.159553 -0.114518
v -0.145051 -0.159553 -0.114518
v -0.145051 -0.159553 -0.114518
v -0.145051 -0.159553 -0.114518
v 0.293470 -0.155809 0.107217
v -0.179209 -0.155809 0.108276
v 0.293470 -0.155809 -0.089820
v -0.179209 -0.155809 -0.090878
v 0.293470 -0.155446 0.107217
v -0.179209 -0.155446 0.108276
v 0.293470 -0.155446 -0.089820
v -0.179209 -0.155446 -0.090878
v -0.175139 -0.150724 0.085089
v -0.175139 -0.150724 0.087578
v -0.175139 -0.150724 -0.076208
v -0.175139 -0.150724 -0.072224
v -0.175139 -0.150724 0.081239
v -0.175139 -0.150724 -0.080048
v -0.006566 -0.150724 0.089065
v 0.137488 -0.150724 0.088959
v -0.006566 -0.150724 -0.084584
v 0.137488 -0.150724 -0.081154
v 0.280853 -0.150724 0.088542
v 0.282796 -0.150724 0.087306
v 0.281127 -0.150724 -0.075078
v 0.284098 -0.150724 -0.073196
v 0.285158 -0.150724 -0.069992
v 0.284124 -0.150724 0.085474
v 0.284672 -0.150724 0.082556
v 0.277691 -0.150724 0.088772
v 0.277398 -0.150724 -0.075367
v 0.285114 -0.150724 -0.066751
v -0.175139 -0.150724 -0.081181
v -0.175139 -0.150724 0.088923
v -0.006566 -0.160333 0.089065
v -0.006566 -0.160333 -0.084584
v 0.137488 -0.160333 0.088959
v 0.137488 -0.160333 -0.081154
v 0.280853 -0.160333 0.088542
v 0.282796 -0.160333 0.087306
v 0.281127 -0.160333 -0.075078
v 0.284098 -0.160333 -0.073196
v 0.285158 -0.160333 -0.069992
v 0.284124 -0.160333 0.085474
v 0.284672 -0.160333 0.082556
v 0.277691 -0.160333 0.088772
v 0.277398 -0.160333 -0.075367
v 0.285114 -0.160333 -0.066751
v -0.175139 -0.161171 0.081239
v -0.175139 -0.161171 0.085089
v -0.175139 -0.161171 -0.076208
v -0.175139 -0.161171 -0.072224
v -0.175139 -0.161171 0.087578
v -0.175139 -0.161171 -0.080048
v -0.175139 -0.160333 0.088923
v -0.175139 -0.160333 -0.081181
v -0.181139 -0.161171 0.085089
v -0.181139 -0.161171 0.087578
v -0.181139 -0.150724 0.087578
v -0.181139 -0.150724 0.085089
v -0.181139 -0.161171 -0.076208
v -0.181139 -0.161171 -0.072224
v -0.181139 -0.150724 -0.072224
v -0.181139 -0.150724 -0.076208
v -0.181139 -0.161171 0.081239
v -0.181139 -0.150724 0.081239
v -0.181139 -0.161171 -0.080048
v -0.181139 -0.150724 -0.080048
v -0.006562 -0.160333 0.094738
v 0.137496 -0.160333 0.094632
v 0.137493 -0.150724 0.094632
v -0.006572 -0.150724 0.094738
v -0.006554 -0.160333 -0.090259
v 0.137639 -0.160333 -0.086826
v -0.006554 -0.150724 -0.090259
v 0.137746 -0.150724 -0.086823
v 0.282891 -0.160333 0.094084
v 0.287097 -0.160333 0.091407
v 0.287097 -0.150724 0.091408
v 0.282891 -0.150724 0.094084
v 0.283171 -0.160333 -0.080612
v 0.289193 -0.160333 -0.076797
v 0.283171 -0.150724 -0.080612
v 0.289193 -0.150724 -0.076797
v 0.291170 -0.160333 -0.070823
v 0.291170 -0.150724 -0.070823
v 0.289805 -0.160333 0.087671
v 0.290670 -0.160333 0.083064
v 0.290670 -0.150724 0.083064
v 0.289805 -0.150724 0.087671
v 0.277925 -0.160333 0.094446
v 0.277925 -0.150724 0.094446
v 0.277656 -0.160333 -0.081036
v 0.277889 -0.150724 -0.081022
v 0.291114 -0.160333 -0.066678
v 0.291114 -0.150724 -0.066735
v -0.181139 -0.160333 -0.086736
v -0.181139 -0.150724 -0.086736
v -0.181139 -0.160333 0.094592
v -0.181139 -0.150724 0.094592
vn -0.0000 1.0000 -0.0000
vn -0.0000 -1.0000 -0.0000
vt 6.535922 2.674350
vt 8.462843 2.674350
vt 8.473198 -1.935110
vt 6.525568 -1.935110
s 1
usemtl M_MicrowaveDoorA3_7
f 485/1/1 487/2/1 488/3/1 486/4/1
f 490/4/2 492/3/2 491/2/2 489/1/2
