# Blender 4.1.0
# www.blender.org
mtllib MeshPsShelvingUnit_219_4_4.mtl
o PsShelvingUnit_219_4
v 0.371628 0.196363 -0.760756
v 0.225397 0.196073 -0.540296
v 0.225304 0.196001 -0.760923
v 0.371868 0.196317 -0.539993
v 0.074381 0.196073 -0.540467
v 0.074288 0.196001 -0.761093
v 0.225212 0.196241 -0.981548
v 0.074195 0.196241 -0.981719
v 0.371668 0.196485 -0.981519
v 0.374272 0.187843 -0.981826
v 0.374335 0.187755 -0.760754
v 0.225204 0.187439 -0.989764
v 0.371668 0.187561 -0.989846
v 0.074188 0.187438 -0.989934
v 0.225405 0.187271 -0.532086
v 0.371945 -0.112990 -0.531512
v 0.225404 -0.112990 -0.532322
v 0.371867 0.187395 -0.531674
v 0.074389 0.187272 -0.532257
v 0.074387 -0.112990 -0.532495
v -0.001112 0.187272 -0.532342
v -0.001113 -0.112990 -0.532578
v -0.076628 0.187272 -0.532427
v -0.076629 -0.112990 -0.532664
v -0.227629 0.187280 -0.532597
v -0.227630 -0.112981 -0.532835
v 0.074185 -0.226407 -0.989927
v 0.225202 -0.226406 -0.989759
v 0.371745 -0.226408 -0.990236
v -0.376775 0.187743 -0.761606
v -0.376720 -0.116551 -0.540639
v -0.376748 -0.225499 -0.761739
v -0.376712 0.187663 -0.540535
v -0.376896 0.187839 -0.982678
v -0.376905 -0.225406 -0.982807
v -0.001321 0.196241 -0.981804
v -0.076728 0.196000 -0.761263
v -0.076821 0.196243 -0.981889
v -0.001212 0.196000 -0.761178
v -0.227729 0.196010 -0.761433
v -0.227838 0.196220 -0.982058
v -0.227636 0.196082 -0.540807
v -0.076635 0.196073 -0.540637
v -0.001119 0.196073 -0.540552
v -0.076829 0.187438 -0.990105
v -0.001313 0.187438 -0.990019
v -0.227830 0.187402 -0.990274
v 0.374277 -0.226410 -0.981954
v 0.374319 -0.226485 -0.760887
v 0.374472 0.187675 -0.539684
v 0.374477 -0.117567 -0.539788
v -0.374108 0.196315 -0.540836
v -0.374068 0.196353 -0.761599
v -0.374293 0.196481 -0.982362
v -0.374306 0.187558 -0.990688
v -0.374108 0.187383 -0.532516
v -0.374188 -0.112994 -0.532358
v -0.001315 -0.226407 -0.990014
v -0.076831 -0.226407 -0.990099
v -0.227832 -0.226399 -0.990270
v -0.374387 -0.226398 -0.991080
vn -0.0000 -1.0000 -0.0004
vn 0.0001 -0.9991 -0.0433
vn -0.0000 -1.0000 -0.0002
vn -0.0000 -1.0000 -0.0003
vn -0.0000 -0.9991 -0.0433
vn -0.0000 -0.9991 0.0425
vn -0.0000 -1.0000 -0.0005
vn -0.0646 -0.9970 0.0422
vn -0.9421 -0.3352 0.0003
vn -0.0647 -0.9970 0.0422
vn -0.9637 -0.1268 0.2348
vn -0.0646 -0.9970 0.0420
vn 0.0003 -0.9991 0.0424
vn -0.0008 -0.6838 0.7297
vn -0.0646 -0.9970 0.0423
vn -0.0008 -0.6836 0.7299
vn -0.0619 -0.0218 0.9978
vn -0.0008 -0.6837 0.7298
vn -0.0008 -0.6837 0.7297
vn -0.0000 -0.9991 0.0424
vn -0.0010 -0.9991 0.0424
vn 0.0011 -0.0295 -0.9996
vn 0.0011 -0.0429 -0.9991
vn 0.0011 -0.0275 -0.9996
vn 0.0012 0.0003 -1.0000
vn 0.0011 -0.0269 -0.9996
vn -0.0011 -0.0000 1.0000
vn -0.0619 -0.0220 0.9978
vn -0.0011 -0.0003 1.0000
vn -0.0624 -0.0003 0.9980
vn 1.0000 -0.0000 -0.0005
vn 0.9999 -0.0108 0.0045
vn 0.9999 -0.0115 0.0026
vn 1.0000 -0.0000 -0.0003
vn 1.0000 -0.0001 -0.0003
vn 1.0000 -0.0000 -0.0001
vn 0.9999 -0.0156 -0.0001
vn -0.0000 -1.0000 -0.0006
vn -0.0000 -0.9991 0.0426
vn -0.0000 -1.0000 -0.0001
vn -0.0001 -0.9991 -0.0433
vn 0.0001 -0.9991 -0.0432
vn -0.0010 -0.9991 0.0426
vn -0.0008 -0.6836 0.7298
vn -0.0001 -0.9991 0.0424
vn -0.0001 -0.9991 0.0426
vn -1.0000 -0.0000 0.0005
vn -1.0000 -0.0000 0.0008
vn -1.0000 -0.0000 0.0004
vn -1.0000 -0.0000 0.0003
vn -0.0001 -1.0000 -0.0004
vn 0.0645 -0.9970 0.0421
vn -0.0001 -0.9991 0.0423
vn 0.0645 -0.9970 0.0419
vn 0.7680 -0.2737 0.5791
vn 0.7679 -0.2736 0.5791
vn 0.0011 0.0003 -1.0000
vn 0.0014 -0.0414 -0.9991
vn 0.9347 0.0001 -0.3555
vn 0.7041 -0.3386 -0.6241
vn 0.9660 -0.1524 -0.2090
vn 0.7041 -0.3387 -0.6241
vn -0.0012 -0.0000 1.0000
vn -0.0012 -0.0004 1.0000
vn -0.0012 -0.0003 1.0000
vn -0.9637 -0.1269 0.2349
vn -0.0620 -0.0220 0.9978
vn 0.9639 -0.1269 0.2343
vn 0.7679 -0.2736 0.5792
vn 0.0645 -0.9970 0.0422
vn 0.9422 -0.3352 -0.0005
vn 0.9639 -0.1269 0.2342
vn 0.0646 -0.9970 0.0421
vn 0.9421 -0.3352 -0.0005
vn 0.0646 -0.9970 0.0422
vn -0.6507 -0.6267 -0.4288
vn -0.9661 -0.1535 -0.2075
vn -0.7010 -0.3416 -0.6260
vn -0.7011 -0.3416 -0.6259
vn -0.6508 -0.6267 -0.4286
vn -0.7011 -0.3415 -0.6260
vn 0.0016 -0.0293 -0.9996
vn -0.0000 -0.9991 -0.0434
vn 0.0012 -0.0295 -0.9996
vn -0.0000 -0.9991 -0.0432
vn 0.0010 -0.9991 -0.0432
vn 0.0011 -0.0292 -0.9996
vn 0.0002 -0.0293 -0.9996
vn 0.0001 -0.9991 -0.0434
vn -0.6508 -0.6267 -0.4287
vn -0.9662 -0.1536 -0.2073
vn 0.6512 -0.6262 -0.4288
vn 0.7042 -0.3387 -0.6240
vn 0.9659 -0.1526 -0.2090
vn 0.9660 -0.1525 -0.2090
vn 0.6512 -0.6261 -0.4289
vn 0.9421 -0.3353 -0.0005
vn 0.6512 -0.6261 -0.4288
vn -0.0002 -0.9991 -0.0432
vn 0.0011 -0.0293 -0.9996
vn 0.7041 -0.3386 -0.6242
vn 0.6513 -0.6260 -0.4290
vn 0.0011 -0.0296 -0.9996
vn 0.0011 -0.0294 -0.9996
vn 0.0002 -0.0294 -0.9996
vn 0.0012 -0.0292 -0.9996
vn 0.0001 -0.9991 -0.0435
vn 0.0010 -0.9991 -0.0435
vn 0.0002 -0.0295 -0.9996
vn 0.0012 -0.0296 -0.9996
vn 0.0002 -0.0296 -0.9996
vn 0.0001 -0.9991 -0.0431
vn 0.0010 -0.9991 -0.0433
vn 0.9348 -0.0001 0.3551
vn -0.9661 -0.1535 -0.2074
vn -0.9348 0.0001 -0.3551
vn -0.7010 -0.3417 -0.6259
vn -0.9661 -0.1535 -0.2073
vn -0.9347 -0.0001 0.3555
vn -0.0625 -0.0004 0.9980
vn -0.9637 -0.1268 0.2349
vn -0.0620 -0.0219 0.9978
vt 0.994104 0.693717
vt 0.396911 1.034488
vt 0.396911 0.693717
vt 0.994104 1.034488
vt -0.214561 1.034488
vt -0.214561 0.693717
vt 0.396911 0.352947
vt -0.214561 0.352947
vt 0.994104 0.352947
vt 1.008382 0.352947
vt 1.008382 0.693717
vt 0.396911 0.338669
vt 0.994104 0.338669
vt -0.214561 0.338669
vt 0.396911 0.482081
vt 0.994104 0.048421
vt 0.396911 0.048421
vt 0.994104 0.482081
vt 0.785439 0.482081
vt 1.396911 0.048421
vt 0.785439 0.048421
vt 1.396911 0.482081
vt 0.479703 0.482081
vt 0.479703 0.048421
vt 0.173968 0.482081
vt 0.173968 0.048421
vt 0.562496 0.482081
vt 1.173968 0.048421
vt 0.562496 0.048421
vt 1.173968 0.482081
vt -0.214561 -0.115233
vt 0.396911 -0.115233
vt -0.214561 0.482081
vt 0.994104 -0.115233
vt 0.482081 0.693717
vt 0.043283 1.034488
vt -0.113790 0.693717
vt 0.482081 1.034488
vt 0.482081 0.352947
vt -0.113790 0.352947
vt 0.479703 0.352947
vt 0.173968 0.693717
vt 0.173968 0.352947
vt 0.479703 0.693717
vt -0.437503 0.693717
vt -0.437503 0.352947
vt -0.437503 1.034488
vt 0.173968 1.034488
vt 0.479703 1.034488
vt 0.785439 0.693717
vt 0.785439 1.034488
vt 0.785439 0.352947
vt 0.173968 0.338669
vt 0.479703 0.338669
vt -0.437503 0.338669
vt 0.785439 0.338669
vt -0.115233 0.352947
vt -0.115233 0.693717
vt 0.482081 0.034488
vt -0.115233 -0.306282
vt 0.041839 0.034488
vt 0.482081 -0.306282
vt 0.562496 0.693717
vt -0.034697 1.034488
vt -0.034697 0.693717
vt 0.562496 1.034488
vt 0.562496 0.352947
vt -0.034697 0.352947
vt -0.034697 0.338669
vt 0.562496 0.338669
vt 0.965303 0.482081
vt 1.562496 0.048421
vt 0.965303 0.048421
vt 1.562496 0.482081
vt 0.951025 0.043283
vt 0.951025 0.482081
vt 0.479703 -0.115233
vt 0.785439 -0.115233
vt 0.173968 -0.115233
vt -0.437503 -0.115233
vt -0.437503 0.482081
vt -0.034697 -0.115233
vt 0.562496 -0.115233
vt -0.034697 0.482081
vt 0.008382 0.352947
vt -0.005896 0.352947
vt -0.005896 0.338669
vt 0.951025 0.352947
vt 0.965303 0.338669
vt 0.965303 0.352947
vt 0.951025 0.693717
vt 0.965303 0.693717
vt 0.994104 0.034488
vt 1.008382 0.034488
vt 0.994104 0.048766
vt 0.396911 0.034488
vt 0.396911 0.048766
vt -0.214561 0.034488
vt -0.214561 0.048766
vt 1.008382 -0.306282
vt 0.994104 -0.306282
vt 0.965303 0.034488
vt 0.965303 0.048766
vt 0.951025 0.034488
vt 0.965303 -0.306282
vt 0.951025 -0.306282
vt 0.562496 0.048766
vt -0.034697 0.034488
vt 0.562496 0.034488
vt -0.034697 0.048766
vt 0.479703 0.048766
vt 0.173968 0.034488
vt 0.479703 0.034488
vt 0.173968 0.048766
vt -0.437503 0.034488
vt -0.437503 0.048766
vt 0.785439 0.048766
vt 0.785439 0.034488
vt 0.965303 -0.115233
vt 0.951025 -0.113790
vt 0.008382 0.482081
vt -0.005896 0.048421
vt -0.005896 0.482081
vt 0.008382 0.041839
vt 0.008382 0.884767
vt -0.005896 1.482081
vt -0.005896 0.884767
vt 0.008382 1.482081
s 1
usemtl M_PsShelvingUnit_219_4_0
f 1/1/1 2/2/2 3/3/1
f 1/1/1 4/4/1 2/2/2
f 3/3/3 2/2/2 5/5/2
f 3/3/4 5/5/5 6/6/4
f 7/7/6 3/3/7 6/6/7
f 7/7/6 6/6/7 8/8/6
f 9/9/8 3/3/1 7/7/6
f 9/9/8 1/1/1 3/3/1
f 1/1/9 9/9/10 10/10/11
f 1/1/9 10/10/11 11/11/9
f 9/9/12 7/7/13 12/12/14
f 9/9/15 12/12/16 13/13/17
f 7/7/6 14/14/18 12/12/19
f 7/7/20 8/8/21 14/14/18
f 15/15/22 16/16/23 17/17/24
f 15/15/22 18/18/25 16/16/23
f 19/19/22 17/20/24 20/21/26
f 19/19/22 15/22/22 17/20/24
f 21/23/22 19/19/22 20/21/26
f 21/23/22 20/21/26 22/24/26
f 23/25/22 21/23/22 22/24/26
f 23/25/22 22/24/26 24/26/26
f 25/27/22 24/28/26 26/29/26
f 25/27/22 23/30/22 24/28/26
f 12/15/27 27/31/27 28/32/27
f 12/15/27 14/33/27 27/31/27
f 13/18/28 12/15/29 28/32/29
f 13/18/28 28/32/29 29/34/30
f 30/35/31 31/36/32 32/37/33
f 30/35/34 33/38/34 31/36/32
f 34/39/35 30/35/35 32/37/33
f 34/39/36 32/37/33 35/40/37
f 36/41/6 37/42/7 38/43/6
f 36/41/6 39/44/38 37/42/38
f 38/43/39 37/42/38 40/45/38
f 38/43/6 40/45/7 41/46/6
f 37/42/40 42/47/41 40/45/40
f 37/42/40 43/48/42 42/47/42
f 39/44/4 43/48/5 37/42/4
f 39/44/3 44/49/2 43/48/2
f 6/50/3 44/49/5 39/44/3
f 6/50/4 5/51/2 44/49/2
f 8/52/6 39/44/38 36/41/6
f 8/52/6 6/50/7 39/44/7
f 36/41/39 38/43/43 45/53/44
f 36/41/6 45/53/18 46/54/18
f 8/52/20 36/41/45 46/54/14
f 38/43/6 47/55/18 45/53/18
f 38/43/46 41/46/46 47/55/16
f 8/52/39 46/54/44 14/56/44
f 11/35/47 48/57/47 49/58/47
f 11/35/48 10/39/48 48/57/48
f 50/59/49 49/60/49 51/61/49
f 50/59/50 11/62/50 49/60/50
f 40/63/51 52/64/51 53/65/51
f 40/63/1 42/66/2 52/64/1
f 41/67/6 40/63/51 53/65/51
f 41/67/39 53/65/51 54/68/52
f 41/67/53 54/68/54 55/69/55
f 41/67/39 55/69/56 47/70/44
f 56/71/57 26/72/26 57/73/58
f 56/71/57 25/74/22 26/72/26
f 31/75/59 56/71/60 57/73/59
f 31/75/59 33/76/61 56/71/62
f 14/19/63 58/77/63 27/78/63
f 14/19/27 46/23/27 58/77/27
f 46/23/27 59/79/27 58/77/27
f 46/23/27 45/25/27 59/79/27
f 45/25/27 60/80/27 59/79/27
f 45/25/27 47/81/27 60/80/29
f 47/27/29 61/82/29 60/83/29
f 47/27/64 55/84/65 61/82/65
f 10/85/66 9/86/8 13/87/67
f 34/88/68 55/89/69 54/90/70
f 30/91/71 34/88/72 54/90/73
f 30/91/74 54/90/75 53/92/74
f 4/93/76 50/94/77 18/95/78
f 18/95/79 2/96/42 4/93/80
f 18/95/81 15/97/82 2/96/83
f 15/97/84 5/98/85 2/96/86
f 15/97/87 19/99/88 5/98/89
f 4/93/90 11/100/9 50/94/91
f 4/93/90 1/101/9 11/100/9
f 52/102/92 56/103/93 33/104/94
f 33/104/95 53/105/71 52/102/96
f 33/104/95 30/106/74 53/105/97
f 25/107/22 52/108/98 42/109/99
f 25/107/100 56/110/101 52/108/102
f 21/111/103 43/112/85 44/113/86
f 21/111/104 23/114/105 43/112/2
f 23/114/106 42/115/107 43/112/108
f 23/114/84 25/116/109 42/115/42
f 19/117/110 21/111/111 44/113/112
f 19/117/104 44/113/83 5/118/113
f 34/76/72 61/119/114 55/71/56
f 34/76/72 35/120/114 61/119/114
f 50/121/115 16/122/116 18/123/117
f 50/121/118 51/124/116 16/122/116
f 48/125/119 13/126/67 29/127/120
f 48/125/119 10/128/121 13/126/122
