# Blender 4.1.0
# www.blender.org
mtllib Sink_7_Sink_7_0_GeomSubset_0.mtl
o Sink_7_Sink_7_0_GeomSubset_0
v -0.318497 0.178282 -0.063700
v -0.323990 0.178282 -0.055486
v -0.319742 0.181672 -0.055486
v 0.001250 0.181702 -0.055486
v -0.323990 -0.143274 -0.055486
v -0.319703 0.181701 0.069062
v -0.323990 0.178282 0.069064
v -0.312230 0.175863 0.079641
v -0.298438 0.157900 0.014376
v -0.294391 0.156551 0.008529
v -0.293697 0.161681 0.013863
v -0.291340 0.158954 0.008043
v -0.316671 0.171825 0.079640
v -0.293425 0.161898 0.073964
v -0.296632 0.163772 0.079641
v -0.298438 0.157900 0.073964
v -0.302369 0.159197 0.079641
v 0.001250 0.181702 0.069064
v 0.001250 0.178282 -0.063700
v -0.318765 -0.143274 -0.063700
v 0.001250 0.161898 0.013306
v 0.001250 0.154995 0.008834
v -0.323990 -0.143274 0.069044
v -0.298449 -0.143209 0.075642
v -0.316658 -0.143464 0.079602
v -0.301310 -0.143274 0.079498
v 0.001250 0.158983 0.007936
v 0.001250 0.175865 0.079641
v 0.001250 0.161898 0.073964
v -0.318833 -0.171207 -0.063700
v 0.320996 0.178282 -0.063700
v -0.323990 -0.171207 -0.055486
v -0.297601 -0.143965 0.071881
v -0.314576 -0.177505 -0.055486
v 0.322239 0.181672 -0.055486
v -0.314613 -0.177494 0.069064
v 0.001250 -0.171207 -0.063700
v 0.001250 -0.143961 0.071857
v -0.323990 -0.171207 0.069064
v 0.293836 0.158951 0.008005
v -0.316671 -0.168487 0.079641
v 0.295923 0.161898 0.073964
v -0.298449 -0.156317 0.079641
v 0.314731 0.175863 0.079641
v -0.311923 -0.171671 0.079641
v 0.001250 -0.177505 -0.055486
v 0.001250 -0.143272 -0.063700
v 0.322203 0.181701 0.069062
v 0.296194 0.161681 0.013863
v 0.326489 0.178282 -0.055486
v 0.296902 0.155408 0.008725
v 0.321260 -0.143273 -0.063700
v 0.001250 -0.156317 0.079641
v 0.001250 -0.179266 0.068980
v 0.300938 0.157900 0.014376
v 0.300938 0.157900 0.073964
v 0.326489 0.178282 0.069064
v 0.299129 0.163772 0.079641
v 0.319167 0.171825 0.079640
v 0.304865 0.159197 0.079641
v 0.001250 -0.173473 0.079641
v 0.321332 -0.171207 -0.063700
v 0.317076 -0.177505 -0.055486
v 0.300948 -0.143209 0.075642
v 0.326489 -0.143273 -0.055486
v 0.303810 -0.143274 0.079498
v 0.326489 -0.143274 0.069044
v 0.300097 -0.143969 0.071836
v 0.319154 -0.143464 0.079602
v 0.317112 -0.177494 0.069064
v 0.314421 -0.171671 0.079641
v 0.326489 -0.171207 -0.055486
v 0.300948 -0.156317 0.079641
v 0.326489 -0.171207 0.069064
v 0.319171 -0.168487 0.079641
v 0.001250 0.163772 0.079641
v 0.001250 0.075900 -0.063700
v -0.015175 0.140652 0.012017
v -0.025403 0.131261 0.013502
v 0.001250 0.145106 0.010173
v -0.028340 0.117421 0.015689
v 0.017629 0.140617 0.012020
v -0.023704 0.103155 0.017944
v 0.027877 0.131230 0.013503
v -0.014963 0.094319 0.019340
v 0.030835 0.117415 0.015686
v 0.001250 0.091097 0.020181
v 0.026202 0.103153 0.017940
v 0.017460 0.094319 0.019337
v -0.318582 0.075900 -0.063700
v -0.323990 0.075900 -0.055486
v -0.323990 0.075900 0.069057
v -0.316666 0.075900 0.079629
v -0.302076 0.075900 0.079602
v -0.298442 0.075900 0.074421
v 0.300939 0.075900 0.074421
v 0.304575 0.075900 0.079602
v 0.319165 0.075900 0.079629
v 0.326489 0.075900 0.069057
v 0.326489 0.075900 -0.055486
v 0.321081 0.075900 -0.063700
v -0.298442 0.075900 0.031060
v -0.295251 0.075894 0.025532
v 0.297750 0.075894 0.025488
v 0.300939 0.075900 0.031060
v -0.157190 0.086443 0.023298
v -0.156235 0.125443 0.015076
v -0.157304 0.019602 0.037388
v 0.159691 0.086328 0.023298
v 0.158737 0.125026 0.015141
v 0.159805 0.019564 0.037373
v -0.010126 0.133731 0.002853
v -0.017211 0.127227 0.003882
v 0.001249 0.136806 0.001576
v -0.019247 0.117641 0.005397
v 0.012595 0.133708 0.002855
v -0.016036 0.107758 0.006959
v 0.019693 0.127206 0.003882
v -0.009980 0.101641 0.007926
v 0.021741 0.117637 0.005395
v 0.001249 0.099397 0.008508
v 0.018532 0.107758 0.006956
v 0.012479 0.101641 0.007924
v 0.001246 0.117739 0.005299
v 0.021797 0.128016 0.011933
v 0.013112 0.136568 0.010407
v 0.001246 0.139698 0.009848
v -0.010620 0.136568 0.010407
v -0.019305 0.128016 0.011933
v -0.022485 0.116336 0.014018
v -0.019305 0.104654 0.016103
v -0.010620 0.096103 0.017630
v 0.001246 0.092974 0.018188
v 0.013112 0.096103 0.017630
v 0.021797 0.104654 0.016103
v 0.024977 0.116336 0.014018
v 0.020520 0.127906 0.015510
v 0.012374 0.135926 0.014079
v 0.001246 0.138860 0.013555
v -0.009882 0.135926 0.014079
v -0.018028 0.127906 0.015510
v -0.021010 0.116951 0.017465
v -0.018028 0.105997 0.019421
v -0.009882 0.097977 0.020852
v 0.001246 0.095041 0.021376
v 0.012374 0.097977 0.020852
v 0.020520 0.105997 0.019421
v 0.023502 0.116951 0.017465
v 0.017346 0.125487 0.012385
v 0.010541 0.132185 0.011189
v 0.001246 0.134637 0.010752
v -0.008049 0.132185 0.011189
v -0.014853 0.125487 0.012385
v -0.017344 0.116336 0.014018
v -0.014853 0.107185 0.015652
v -0.008049 0.100487 0.016847
v 0.001246 0.098035 0.017285
v 0.010541 0.100487 0.016847
v 0.017346 0.107185 0.015652
v 0.019836 0.116336 0.014018
v 0.017346 0.123833 0.003121
v 0.010541 0.130531 0.001926
v 0.001246 0.114682 0.004755
v 0.001246 0.132983 0.001488
v -0.008049 0.130531 0.001926
v -0.014853 0.123833 0.003121
v -0.017344 0.114682 0.004755
v -0.014853 0.105532 0.006388
v -0.008049 0.098833 0.007583
v 0.001246 0.096382 0.008021
v 0.010541 0.098833 0.007583
v 0.017346 0.105532 0.006388
v 0.019836 0.114682 0.004755
v 0.016671 0.125806 0.016399
v 0.011323 0.123041 0.018470
v 0.012882 0.117312 0.019492
v 0.019057 0.117041 0.017964
v 0.010151 0.132224 0.015254
v 0.007064 0.127232 0.017722
v 0.001248 0.134573 0.014834
v 0.001246 0.128766 0.017448
v -0.007659 0.132224 0.015254
v -0.004572 0.127232 0.017722
v -0.014177 0.125806 0.016399
v -0.008831 0.123041 0.018470
v -0.016565 0.117041 0.017964
v -0.010390 0.117313 0.019492
v -0.014178 0.108273 0.019529
v -0.008831 0.111586 0.020514
v -0.007659 0.101855 0.020674
v -0.004572 0.107392 0.021263
v 0.001246 0.099507 0.021093
v 0.001245 0.105858 0.021537
v 0.010151 0.101855 0.020674
v 0.007064 0.107393 0.021263
v 0.016670 0.108273 0.019528
v 0.011323 0.111585 0.020515
v 0.001246 0.117312 0.019492
v 0.019227 0.126845 0.013818
v 0.011628 0.134326 0.012482
v 0.001246 0.137065 0.011993
v -0.009136 0.134326 0.012482
v -0.016735 0.126845 0.013818
v -0.019517 0.116625 0.015642
v -0.016735 0.106407 0.017466
v -0.009135 0.098925 0.018801
v 0.001246 0.096186 0.019290
v 0.011627 0.098925 0.018801
v 0.019227 0.106407 0.017466
v 0.022009 0.116626 0.015642
v 0.016993 0.160867 0.066924
v 0.014944 0.160867 0.068972
v 0.012147 0.160867 0.069722
v 0.012147 0.160867 0.058530
v 0.014944 0.160867 0.059280
v 0.016993 0.160867 0.061328
v 0.017743 0.160867 0.064126
v 0.017150 0.159847 0.067015
v 0.015035 0.159847 0.069130
v 0.012147 0.159847 0.069904
v 0.012147 0.159847 0.058348
v 0.015035 0.159847 0.059122
v 0.017150 0.159847 0.061237
v 0.017925 0.159847 0.064126
v 0.017531 0.159425 0.067235
v 0.015256 0.159425 0.069511
v 0.012147 0.159425 0.070344
v 0.012147 0.159425 0.057908
v 0.015256 0.159425 0.058741
v 0.017531 0.159425 0.061017
v 0.018364 0.159425 0.064126
v 0.017913 0.159847 0.067455
v 0.015475 0.159847 0.069892
v 0.012147 0.159847 0.070783
v 0.012147 0.159847 0.057468
v 0.015475 0.159847 0.058360
v 0.017913 0.159847 0.060797
v 0.018804 0.159847 0.064126
v 0.018070 0.160867 0.067546
v 0.015566 0.160867 0.070049
v 0.012147 0.160867 0.070966
v 0.012147 0.160867 0.057286
v 0.015566 0.160867 0.058203
v 0.018070 0.160867 0.060706
v 0.018986 0.160867 0.064126
v 0.017913 0.161888 0.067455
v 0.015475 0.161888 0.069892
v 0.012147 0.161888 0.070783
v 0.012147 0.161888 0.057468
v 0.015475 0.161888 0.058360
v 0.017913 0.161888 0.060797
v 0.018804 0.161888 0.064126
v 0.017531 0.162310 0.067235
v 0.015256 0.162310 0.069511
v 0.012147 0.162310 0.070344
v 0.012147 0.162310 0.057908
v 0.015256 0.162310 0.058741
v 0.017531 0.162310 0.061017
v 0.018364 0.162310 0.064126
v 0.017150 0.161888 0.067015
v 0.015035 0.161888 0.069130
v 0.012147 0.161888 0.069904
v 0.012147 0.161888 0.058348
v 0.015035 0.161888 0.059122
v 0.017150 0.161888 0.061237
v 0.017925 0.161888 0.064126
v 0.017266 0.160009 0.067082
v 0.015103 0.160009 0.069246
v 0.012147 0.160009 0.070038
v 0.012147 0.160009 0.058214
v 0.015103 0.160009 0.059006
v 0.017266 0.160009 0.061170
v 0.018058 0.160009 0.064126
v 0.012147 0.160009 0.064126
v -0.009648 0.160867 0.069722
v -0.012446 0.160867 0.068972
v -0.009648 0.159847 0.069904
v -0.012537 0.159847 0.069130
v -0.014495 0.160867 0.066924
v -0.014651 0.159847 0.067015
v -0.015244 0.160867 0.064126
v -0.015426 0.159847 0.064126
v -0.014495 0.160867 0.061328
v -0.014651 0.159847 0.061237
v -0.012446 0.160867 0.059280
v -0.012537 0.159847 0.059122
v -0.009648 0.160867 0.058530
v -0.009648 0.159847 0.058348
v -0.009648 0.159425 0.070344
v -0.012757 0.159425 0.069511
v -0.015033 0.159425 0.067235
v -0.015865 0.159425 0.064126
v -0.015033 0.159425 0.061017
v -0.012757 0.159425 0.058741
v -0.009648 0.159425 0.057908
v -0.009648 0.159847 0.070783
v -0.012977 0.159847 0.069892
v -0.015414 0.159847 0.067455
v -0.016306 0.159847 0.064126
v -0.015414 0.159847 0.060797
v -0.012977 0.159847 0.058360
v -0.009648 0.159847 0.057468
v -0.009648 0.160867 0.070966
v -0.013068 0.160867 0.070049
v -0.015571 0.160867 0.067546
v -0.016487 0.160867 0.064126
v -0.015571 0.160867 0.060706
v -0.013068 0.160867 0.058203
v -0.009648 0.160867 0.057286
v -0.009648 0.161888 0.070783
v -0.012977 0.161888 0.069892
v -0.015414 0.161888 0.067455
v -0.016306 0.161888 0.064126
v -0.015414 0.161888 0.060797
v -0.012977 0.161888 0.058360
v -0.009648 0.161888 0.057468
v -0.009648 0.162310 0.070344
v -0.012757 0.162310 0.069511
v -0.015033 0.162310 0.067235
v -0.015865 0.162310 0.064126
v -0.015033 0.162310 0.061017
v -0.012757 0.162310 0.058741
v -0.009648 0.162310 0.057908
v -0.009648 0.161888 0.069904
v -0.012537 0.161888 0.069130
v -0.014651 0.161888 0.067015
v -0.015426 0.161888 0.064126
v -0.014651 0.161888 0.061237
v -0.012537 0.161888 0.059122
v -0.009648 0.161888 0.058348
v -0.009648 0.160009 0.070038
v -0.009648 0.160009 0.064126
v -0.012604 0.160009 0.069246
v -0.014768 0.160009 0.067082
v -0.015560 0.160009 0.064126
v -0.014768 0.160009 0.061170
v -0.012604 0.160009 0.059006
v -0.009648 0.160009 0.058214
vn -0.0244 0.0829 -0.9963
vn -0.9984 0.0388 -0.0402
vn -0.0104 0.9997 -0.0235
vn -0.0000 0.9997 -0.0258
vn -0.0000 0.0775 -0.9970
vn -0.9992 -0.0000 -0.0405
vn -0.0253 -0.0000 -0.9997
vn -0.0060 0.7332 0.6800
vn -0.0110 0.9995 0.0293
vn -0.9983 0.0411 0.0401
vn -0.6106 0.0211 0.7916
vn 0.0130 -0.9993 0.0358
vn 0.9958 -0.0602 0.0687
vn 0.0587 0.2017 0.9777
vn 0.0066 -0.5636 0.8260
vn 0.0129 -0.9992 0.0385
vn 0.9950 -0.0651 0.0751
vn 0.0042 -0.1840 0.9829
vn 0.1760 -0.0100 0.9843
vn -0.0000 0.9991 0.0427
vn -0.0000 -0.9990 0.0445
vn 0.0001 -0.6095 0.7928
vn 0.0001 0.2126 0.9771
vn -0.0000 0.5175 0.8557
vn -0.0000 -0.9995 0.0302
vn -0.9986 -0.0001 0.0538
vn -0.4363 -0.0002 0.8998
vn 0.9973 0.0140 0.0720
vn 0.0480 0.2057 0.9774
vn 0.2512 0.0007 0.9679
vn 0.9952 0.0016 0.0979
vn -0.9992 -0.0000 -0.0400
vn -0.0231 -0.1847 -0.9825
vn -0.9659 -0.2566 -0.0336
vn 0.0244 0.0828 -0.9963
vn 0.0103 0.9997 -0.0235
vn -0.0208 -0.9978 -0.0635
vn 0.0110 0.9995 0.0294
vn -0.0221 -0.9993 0.0312
vn -0.9644 -0.2607 0.0447
vn -0.0000 -0.0000 -1.0000
vn -0.0000 -0.2323 -0.9726
vn 0.0027 0.1943 0.9809
vn 0.0014 0.2000 0.9798
vn 0.0031 0.2039 0.9790
vn 0.0114 0.1959 0.9806
vn -0.0078 -0.5396 0.8419
vn -0.0131 -0.9993 0.0361
vn -0.0631 0.2021 0.9773
vn -0.0000 -0.9985 -0.0544
vn -0.5721 -0.1368 0.8087
vn -0.4304 0.0001 0.9026
vn -0.9985 -0.0000 0.0544
vn -0.0129 -0.9992 0.0383
vn 0.0019 0.1954 0.9807
vn 0.2314 0.0025 0.9729
vn 0.0059 0.7332 0.6800
vn 0.0345 0.2583 0.9654
vn 0.9135 0.0345 0.4053
vn -0.0120 -0.6191 0.7853
vn -0.0000 -0.9993 0.0364
vn 0.9984 0.0388 -0.0403
vn 0.0253 -0.0000 -0.9997
vn 0.0253 0.0005 -0.9997
vn -0.0000 0.2591 0.9659
vn 0.0001 0.2492 0.9685
vn -0.0000 -0.4414 0.8973
vn -0.9960 -0.0624 0.0632
vn -0.9950 -0.0651 0.0751
vn 0.9992 -0.0000 -0.0405
vn 0.9983 0.0411 0.0402
vn 0.6106 0.0211 0.7916
vn -0.0044 -0.1840 0.9829
vn -0.1760 -0.0100 0.9843
vn 0.0231 -0.1847 -0.9825
vn 0.0209 -0.9978 -0.0636
vn -0.0483 0.2057 0.9774
vn -0.9973 0.0140 0.0717
vn -0.9952 0.0005 0.0980
vn -0.2512 0.0006 0.9679
vn 0.9986 -0.0000 0.0538
vn 0.4363 -0.0002 0.8998
vn -0.0018 0.2074 0.9783
vn 0.0001 0.2135 0.9769
vn 0.0222 -0.9993 0.0311
vn -0.0348 0.2586 0.9654
vn -0.0019 0.1961 0.9806
vn 0.0120 -0.6191 0.7852
vn 0.9992 -0.0000 -0.0401
vn 0.9660 -0.2565 -0.0337
vn 0.9644 -0.2608 0.0447
vn -0.9141 0.0343 0.4041
vn -0.2314 0.0025 0.9729
vn 0.4304 0.0001 0.9026
vn 0.5721 -0.1367 0.8087
vn 0.9985 -0.0000 0.0544
vn -0.0000 -0.3680 0.9298
vn 0.0020 0.2075 0.9782
vn -0.0026 0.1943 0.9809
vn -0.0013 0.1999 0.9798
vn 0.0030 0.2114 0.9774
vn 0.0001 0.2152 0.9766
vn -0.0029 0.2114 0.9774
vn 0.0091 0.1991 0.9799
vn 0.0226 0.1895 0.9816
vn -0.0090 0.1991 0.9799
vn -0.0030 0.2038 0.9790
vn -0.0113 0.1959 0.9806
vn -0.0224 0.1895 0.9816
vn 0.4191 -0.5983 0.6830
vn 0.6828 -0.2503 0.6864
vn 0.6650 -0.2904 0.6880
vn 0.3883 -0.6196 0.6822
vn -0.0010 -0.7197 0.6943
vn -0.0012 -0.7197 0.6943
vn 0.7378 0.1618 0.6553
vn 0.7408 0.1377 0.6575
vn -0.4200 -0.5985 0.6822
vn -0.3895 -0.6196 0.6814
vn 0.6182 0.4712 0.6291
vn 0.6303 0.4535 0.6301
vn -0.6827 -0.2517 0.6860
vn -0.6647 -0.2921 0.6876
vn 0.3017 0.7374 0.6044
vn 0.3025 0.7370 0.6045
vn -0.7378 0.1614 0.6554
vn -0.7408 0.1370 0.6576
vn -0.0000 0.8147 0.5798
vn -0.6181 0.4712 0.6292
vn -0.6302 0.4535 0.6302
vn -0.3016 0.7374 0.6044
vn -0.3025 0.7369 0.6045
vn 0.0327 0.1738 0.9842
vn 0.0040 0.1563 0.9877
vn -0.0326 0.1738 0.9842
vn -0.0079 0.1664 0.9860
vn -0.0038 0.1563 0.9877
vn 0.0080 0.1664 0.9860
vt -9.921797 0.649487
vt -9.921797 0.659321
vt -9.925857 0.659321
vt -9.681561 0.424659
vt -9.683031 0.414961
vt -9.304038 0.414961
vt -9.304038 0.424659
vt -9.799204 0.659321
vt -9.799204 0.649487
vt -9.680084 0.336994
vt -9.688967 0.343932
vt -9.694064 0.339867
vt -9.685364 0.332192
vt -9.504768 0.485660
vt -9.509323 0.486278
vt -9.510947 0.479235
vt -9.508055 0.478650
vt -9.504508 0.558051
vt -9.509323 0.558051
vt -9.661544 0.322622
vt -9.668363 0.317183
vt -9.502249 0.564887
vt -9.507761 0.564887
vt -9.682984 0.267907
vt -9.304038 0.267907
vt -9.799645 0.791653
vt -10.147621 0.792309
vt -10.144840 0.785442
vt -9.799645 0.785316
vt -9.655253 0.316892
vt -9.658881 0.314039
vt -9.307473 0.312188
vt -9.307473 0.316931
vt -9.674162 0.255417
vt -9.304038 0.255417
vt -10.147300 0.863215
vt -9.799645 0.863215
vt -9.914065 0.821122
vt -9.921797 0.808459
vt -9.799204 0.808451
vt -9.799204 0.821108
vt -9.608088 0.506374
vt -9.608096 0.499714
vt -9.685359 0.218176
vt -9.668015 0.218176
vt -9.608088 0.558599
vt -9.608088 0.564839
vt -9.536764 0.659321
vt -9.536764 0.649487
vt -9.503317 0.649487
vt -9.503317 0.659321
vt -8.926516 0.424659
vt -8.925048 0.414961
vt -9.495776 0.659321
vt -8.925092 0.267907
vt -9.495789 0.808459
vt -9.503317 0.808459
vt -9.680519 0.750915
vt -9.680439 0.717995
vt -9.303304 0.717993
vt -9.303304 0.750915
vt -9.339153 0.283977
vt -9.494666 0.277063
vt -9.495799 0.230707
vt -9.342646 0.267528
vt -9.454455 0.785398
vt -9.451672 0.792309
vt -8.959697 0.316892
vt -8.956053 0.312683
vt -9.675504 0.758337
vt -9.303304 0.758337
vt -9.506573 0.821125
vt -9.536537 0.821078
vt -9.536764 0.808435
vt -9.451993 0.863215
vt -9.663705 -0.057846
vt -9.667106 -0.042341
vt -9.685348 -0.042567
vt -9.685364 -0.072311
vt -8.933911 0.255417
vt -9.887790 0.564887
vt -9.872912 0.555539
vt -9.872000 0.560072
vt -9.872079 0.564716
vt -9.694064 -0.075544
vt -9.682917 -0.083018
vt -9.679720 -0.076093
vt -9.672074 0.819897
vt -9.672031 0.673137
vt -9.299892 0.673137
vt -9.299892 0.819796
vt -9.499869 0.528215
vt -9.495809 0.538050
vt -9.499869 0.538050
vt -9.303304 0.459702
vt -8.926387 0.459702
vt -8.926175 0.717996
vt -9.662696 -0.043165
vt -9.307473 -0.057846
vt -9.307473 -0.043160
vt -9.668905 0.832358
vt -9.299892 0.832358
vt -9.880699 0.423030
vt -9.885254 0.422411
vt -9.881966 0.415356
vt -9.877700 0.416222
vt -9.885514 0.494795
vt -9.880699 0.494795
vt -9.622459 0.528215
vt -9.622459 0.538050
vt -8.920886 0.339867
vt -8.925981 0.343932
vt -8.934859 0.336994
vt -8.929588 0.332192
vt -8.953405 0.322622
vt -8.946588 0.317183
vt -8.926090 0.750915
vt -8.931106 0.758337
vt -9.781935 0.436410
vt -9.781941 0.443123
vt -9.781941 0.495344
vt -9.781941 0.501583
vt -9.882261 0.501632
vt -9.622459 0.687180
vt -9.499869 0.687189
vt -9.507601 0.699851
vt -9.622459 0.699838
vt -9.288005 0.295100
vt -9.307473 0.300436
vt -8.929591 0.218176
vt -8.946933 0.218176
vt -8.927711 0.819897
vt -8.927753 0.673137
vt -8.952256 -0.043167
vt -8.951242 -0.057846
vt -8.930882 0.832358
vt -9.918348 0.528215
vt -9.884901 0.528215
vt -9.884901 0.538050
vt -9.918348 0.538050
vt -9.925891 0.538050
vt -9.925877 0.687189
vt -9.918348 0.687189
vt -9.518054 0.496815
vt -9.517138 0.492230
vt -9.502266 0.501632
vt -9.517976 0.501461
vt -8.929605 -0.042567
vt -8.947845 -0.042341
vt -8.929583 -0.072311
vt -9.884901 0.687163
vt -9.885129 0.699807
vt -9.915092 0.699854
vt -8.935230 -0.076093
vt -8.932031 -0.083018
vt -8.920886 -0.075544
vt -9.925890 0.808456
vt -9.307473 0.322622
vt -9.307473 0.336994
vt -10.151083 0.869913
vt -9.799645 0.869913
vt -9.448211 0.869913
vt -9.495775 0.687186
vt -9.307473 -0.078237
vt -9.887772 0.501632
vt -9.326998 0.295139
vt -9.275824 0.283942
vt -9.120281 0.276568
vt -9.326746 0.240068
vt -9.307473 0.236238
vt -9.288206 0.240068
vt -9.495936 0.151258
vt -9.337134 0.250571
vt -9.119010 0.151213
vt -8.955044 0.218167
vt -9.119148 0.230569
vt -9.659904 0.218167
vt -9.272307 0.267521
vt -9.277816 0.250568
vt -8.926486 0.339045
vt -9.303304 0.339045
vt -9.680223 0.459702
vt -9.680122 0.339045
vt -9.329418 0.279181
vt -9.320997 0.286915
vt -9.307476 0.290569
vt -9.331838 0.267788
vt -9.293989 0.286887
vt -9.328020 0.256041
vt -9.285551 0.279160
vt -9.320823 0.248770
vt -9.283117 0.267783
vt -9.307476 0.246104
vt -9.286933 0.256041
vt -9.294127 0.248770
vt -9.307479 0.267904
s 1
usemtl M_Sink_7_0
f 1/1/1 2/2/2 3/3/3
f 1/4/1 3/5/3 4/6/4 19/7/5
f 91/8/6 2/2/2 1/1/1 90/9/7
f 8/10/8 6/11/9 7/12/10 13/13/11
f 11/14/12 9/15/13 10/16/14 12/17/15
f 9/15/13 11/14/12 14/18/16 16/19/17
f 15/20/18 8/10/8 13/13/11 17/21/19
f 15/22/18 17/23/19 16/19/17 14/18/16
f 3/5/3 6/24/9 18/25/20 4/6/4
f 21/26/21 11/27/12 12/28/15 27/29/22
f 12/30/15 10/31/14 22/32/23 27/33/22
f 18/25/20 6/24/9 8/34/8 28/35/24
f 14/36/16 11/27/12 21/26/21 29/37/25
f 13/38/11 7/39/10 92/40/26 93/41/27
f 10/16/14 9/15/13 102/42/28 103/43/29
f 17/21/19 13/13/11 93/44/27 94/45/30
f 16/19/17 95/46/31 102/42/28 9/15/13
f 16/19/17 17/23/19 94/47/30 95/46/31
f 5/48/32 20/49/7 30/50/33 32/51/34
f 31/52/35 19/7/5 4/6/4 35/53/36
f 32/51/34 30/50/33 34/54/37
f 35/53/36 4/6/4 18/25/20 48/55/38
f 32/51/34 34/54/37 36/56/39 39/57/40
f 30/58/33 20/59/7 47/60/41 37/61/42
f 79/62/43 107/63/44 106/64/45 81/65/46
f 21/26/21 27/29/22 40/66/47 49/67/48
f 40/68/47 27/33/22 22/32/23 51/69/49
f 34/70/37 30/58/33 37/61/42 46/71/50
f 41/72/51 25/73/52 23/74/53 39/57/40
f 42/75/54 29/37/25 21/26/21 49/67/48
f 43/76/55 26/77/56 25/78/52 41/79/51
f 18/25/20 28/35/24 44/80/57 48/55/38
f 43/81/55 33/82/58 24/83/59 26/84/56
f 41/79/51 39/85/40 36/86/39 45/87/60
f 45/87/60 43/76/55 41/79/51
f 36/88/39 34/89/37 46/90/50 54/91/61
f 31/92/35 35/93/36 50/94/62
f 77/95/41 101/96/63 52/97/64 47/60/41
f 33/98/58 43/76/55 53/99/65 38/100/66
f 45/101/60 36/88/39 54/91/61 61/102/67
f 55/103/68 49/104/48 40/105/47 51/106/49
f 42/107/54 49/104/48 55/103/68 56/108/69
f 101/109/63 31/92/35 50/94/62 100/110/70
f 57/111/71 48/112/38 44/113/57 59/114/72
f 59/114/72 44/113/57 58/115/73 60/116/74
f 37/61/42 47/60/41 52/97/64 62/117/75
f 63/118/76 46/71/50 37/61/42 62/117/75
f 104/119/77 105/120/78 55/103/68 51/106/49
f 56/108/69 55/103/68 105/120/78 96/121/79
f 97/122/80 60/123/74 56/108/69 96/121/79
f 99/124/81 57/125/71 59/126/72 98/127/82
f 82/128/83 51/69/49 22/32/23 80/129/84
f 98/130/82 59/114/72 60/116/74 97/131/80
f 70/132/85 54/91/61 46/90/50 63/133/76
f 68/134/86 38/100/66 53/99/65 73/135/87
f 71/136/88 61/102/67 54/91/61 70/132/85
f 62/137/75 52/138/64 65/139/89 72/140/90
f 72/140/90 63/141/76 62/137/75
f 70/142/85 63/141/76 72/140/90 74/143/91
f 64/144/92 68/145/86 73/146/87 66/147/93
f 69/148/94 66/149/93 73/135/87 75/150/95
f 67/151/96 69/152/94 75/153/95 74/143/91
f 71/154/88 75/150/95 73/135/87
f 75/150/95 71/154/88 70/155/85 74/156/91
f 2/2/2 7/39/10 6/157/9 3/3/3
f 91/8/6 92/40/26 7/39/10 2/2/2
f 15/20/18 76/158/97 28/159/24 8/10/8
f 15/160/18 14/36/16 29/37/25 76/161/97
f 32/51/34 39/57/40 23/74/53 5/48/32
f 58/115/73 44/113/57 28/159/24 76/158/97
f 58/162/73 76/161/97 29/37/25 42/75/54
f 50/94/62 35/93/36 48/163/38 57/125/71
f 53/99/65 43/76/55 45/87/60 61/164/67
f 60/123/74 58/165/73 42/107/54 56/108/69
f 99/124/81 100/110/70 50/94/62 57/125/71
f 53/99/65 61/164/67 71/154/88 73/135/87
f 72/140/90 65/139/89 67/151/96 74/143/91
f 10/31/14 78/166/98 80/129/84 22/32/23
f 84/167/99 110/168/100 51/69/49 82/128/83
f 85/169/101 33/98/58 38/100/66 87/170/102
f 38/100/66 68/134/86 89/171/103 87/170/102
f 5/48/32 91/8/6 90/9/7 20/49/7
f 5/48/32 23/74/53 92/40/26 91/8/6
f 93/41/27 92/40/26 23/74/53 25/73/52
f 94/45/30 93/44/27 25/78/52 26/77/56
f 95/46/31 94/47/30 26/84/56 24/83/59
f 66/147/93 97/122/80 96/121/79 64/144/92
f 69/148/94 98/130/82 97/131/80 66/149/93
f 67/151/96 99/124/81 98/127/82 69/152/94
f 67/151/96 65/139/89 100/110/70 99/124/81
f 52/138/64 101/109/63 100/110/70 65/139/89
f 102/42/28 95/46/31 24/83/59
f 103/43/29 102/42/28 24/83/59 33/82/58
f 81/65/46 106/64/45 108/172/104 83/173/105
f 111/174/106 68/134/86 104/175/77 109/176/107
f 64/144/92 105/120/78 104/119/77 68/145/86
f 96/121/79 105/120/78 64/144/92
f 10/31/14 103/177/29 106/64/45 107/63/44
f 33/98/58 108/172/104 106/64/45 103/177/29
f 10/31/14 107/63/44 79/62/43 78/166/98
f 83/173/105 108/172/104 33/98/58 85/169/101
f 86/178/108 109/176/107 110/168/100 84/167/99
f 88/179/109 111/174/106 109/176/107 86/178/108
f 89/171/103 68/134/86 111/174/106 88/179/109
f 51/69/49 110/168/100 109/176/107 104/175/77
f 31/180/35 101/96/63 77/95/41 19/181/5
f 20/59/7 90/182/7 77/95/41 47/60/41
f 1/183/1 19/181/5 77/95/41 90/182/7
f 78/166/110 79/62/111 113/184/112 112/185/113
f 80/129/114 78/166/110 112/185/113 114/186/115
f 79/62/111 81/65/116 115/187/117 113/184/112
f 82/128/118 80/129/114 114/186/115 116/188/119
f 81/65/116 83/173/120 117/189/121 115/187/117
f 84/167/122 82/128/118 116/188/119 118/190/123
f 83/173/120 85/169/124 119/191/125 117/189/121
f 86/178/126 84/167/122 118/190/123 120/192/127
f 85/169/124 87/170/128 121/193/128 119/191/125
f 88/179/129 86/178/126 120/192/127 122/194/130
f 87/170/128 89/171/131 123/195/132 121/193/128
f 89/171/131 88/179/129 122/194/130 123/195/132
f 124/196/133 114/186/133 112/185/133 113/184/133
f 124/196/134 113/184/134 115/187/134 117/189/134
f 124/196/135 118/190/135 116/188/135 114/186/135
f 124/196/136 117/189/136 119/191/136 121/193/136
f 124/196/137 122/194/137 120/192/137 118/190/137
f 124/196/138 121/193/138 123/195/138 122/194/138
