# Blender 4.1.0
# www.blender.org
mtllib AlarmClockButton_12_AlarmClockButton_12_1_GeomSubset_3.mtl
o AlarmClockButton_12_AlarmClockButton_12_1_GeomSubset_3
v -0.000500 -0.000500 -0.339991
v 0.000500 -0.000500 -0.339991
v -0.000500 0.000501 -0.339991
v 0.000500 0.000501 -0.339991
v -0.000500 -0.000500 -0.339991
v 0.000500 -0.000500 -0.339991
v -0.000500 0.000501 -0.339991
v 0.000500 0.000501 -0.339991
v -0.000500 -0.000500 -0.339991
v 0.000500 -0.000500 -0.339991
v -0.000500 0.000501 -0.339991
v 0.000500 0.000501 -0.339991
v -0.000500 -0.000500 -0.339991
v 0.000500 -0.000500 -0.339991
v -0.000500 0.000501 -0.339991
v 0.000500 0.000501 -0.339991
v -0.000500 -0.000500 -0.339991
v 0.000500 -0.000500 -0.339991
v -0.000500 0.000501 -0.339991
v 0.000500 0.000501 -0.339991
v -0.027235 -0.009166 0.080609
v -0.025873 -0.010636 0.080609
v -0.025873 -0.009166 0.081615
v 0.025873 -0.009166 0.081615
v 0.025873 -0.010636 0.080609
v 0.027235 -0.009166 0.080609
v -0.027235 0.008676 0.080609
v -0.025873 0.008676 0.081615
v -0.025873 0.010146 0.080609
v 0.025873 0.010146 0.080609
v 0.025873 0.008676 0.081615
v 0.027235 0.008676 0.080609
v -0.025873 -0.010636 0.070049
v -0.027235 -0.009166 0.070049
v 0.027235 -0.009166 0.070049
v 0.025873 -0.010636 0.070049
v -0.027235 0.008676 0.070049
v -0.025873 0.010146 0.070049
v 0.025873 0.010146 0.070049
v 0.027235 0.008676 0.070049
v -0.017249 0.010146 0.070049
v -0.017249 0.010146 0.083492
v -0.017249 0.008676 0.084498
v -0.017249 -0.009166 0.084498
v -0.017249 -0.010636 0.083492
v -0.017249 -0.010636 0.070049
v -0.008624 0.010146 0.070049
v -0.008624 0.010146 0.085257
v -0.008624 0.008676 0.086262
v -0.008624 -0.009166 0.086262
v -0.008624 -0.010636 0.085257
v -0.008624 -0.010636 0.070049
v 0.000000 0.010146 0.070049
v 0.000000 0.010146 0.085919
v 0.000000 0.008676 0.086925
v 0.000000 -0.009166 0.086925
v 0.000000 -0.010636 0.085919
v 0.000000 -0.010636 0.070049
v 0.008624 0.010146 0.070049
v 0.008624 0.010146 0.085257
v 0.008624 0.008676 0.086262
v 0.008624 -0.009166 0.086262
v 0.008624 -0.010636 0.085257
v 0.008624 -0.010636 0.070049
v 0.017249 0.010146 0.070049
v 0.017249 0.010146 0.083492
v 0.017249 0.008676 0.084498
v 0.017249 -0.009166 0.084498
v 0.017249 -0.010636 0.083492
v 0.017249 -0.010636 0.070049
vn -0.0000 -0.0000 1.0000
vt 0.001990 -4.560472
vt 0.996906 -4.560472
vt 0.996906 -3.564456
vt 0.001990 -3.564456
s 1
usemtl M_AlarmClockButton_12_3
f 13/1/1 14/2/1 16/3/1 15/4/1
